<svg id="svg" version="1.1" xmlns="http://www.w3.org/2000/svg" xmlns:xlink="http://www.w3.org/1999/xlink" width="400" height="400" viewBox="0, 0, 400,400"><g id="svgg"><path id="path0" d="M176.974 21.212 C 170.823 21.527,167.338 22.312,165.327 23.836 C 164.138 24.736,163.714 24.801,158.927 24.815 C 146.604 24.851,141.144 25.647,139.236 27.688 C 138.071 28.935,137.997 28.954,133.042 29.243 C 126.898 29.601,123.954 30.379,122.845 31.937 C 122.122 32.953,121.687 33.110,118.520 33.505 C 114.619 33.991,111.639 35.125,110.529 36.545 C 110.044 37.165,108.869 37.721,107.019 38.205 C 104.939 38.749,103.819 39.319,102.574 40.466 C 101.659 41.310,100.582 42.000,100.182 42.000 C 99.222 42.000,96.000 43.569,96.000 44.036 C 96.000 44.236,95.775 44.403,95.500 44.407 C 95.225 44.411,94.576 44.861,94.058 45.407 C 93.540 45.953,92.820 46.401,92.458 46.401 C 91.365 46.404,89.304 47.875,88.735 49.059 C 88.402 49.750,87.711 50.311,86.908 50.541 C 86.198 50.745,84.740 51.765,83.669 52.808 C 82.598 53.851,81.063 55.017,80.258 55.399 C 79.453 55.781,78.002 56.875,77.033 57.830 C 76.064 58.785,74.831 59.677,74.293 59.812 C 73.721 59.956,72.956 60.695,72.452 61.592 C 71.972 62.448,70.945 63.462,70.132 63.884 C 69.330 64.300,68.343 65.257,67.938 66.011 C 67.534 66.764,66.609 67.686,65.881 68.059 C 65.108 68.456,64.248 69.377,63.810 70.277 C 63.387 71.148,62.527 72.083,61.831 72.430 C 60.993 72.847,60.250 73.771,59.504 75.322 C 58.901 76.575,58.236 77.600,58.025 77.600 C 57.627 77.600,55.216 81.145,54.570 82.680 C 54.367 83.163,53.573 83.978,52.807 84.491 C 51.901 85.097,51.187 86.039,50.761 87.191 C 50.395 88.183,49.732 89.128,49.253 89.342 C 48.325 89.756,46.566 93.022,46.159 95.089 C 46.003 95.880,45.405 96.759,44.611 97.365 C 43.168 98.465,42.650 99.554,42.007 102.841 C 41.682 104.500,41.330 105.209,40.652 105.572 C 39.276 106.309,38.470 107.974,37.910 111.242 C 37.523 113.499,37.160 114.420,36.352 115.193 C 35.025 116.461,33.713 120.197,33.374 123.673 C 33.153 125.930,32.936 126.503,31.976 127.358 C 30.489 128.683,29.613 131.649,29.313 136.375 C 29.122 139.379,28.888 140.424,28.167 141.487 C 25.684 145.145,24.852 149.139,24.813 157.574 C 24.803 159.946,24.644 160.716,24.029 161.374 C 23.160 162.306,22.117 164.920,21.546 167.600 C 20.981 170.249,20.639 216.468,21.123 224.603 C 21.560 231.931,22.172 234.422,23.858 235.733 C 24.689 236.381,24.801 236.803,24.810 239.333 C 24.838 247.128,25.583 250.753,27.824 254.001 C 28.900 255.561,29.103 256.278,29.339 259.347 C 29.602 262.768,31.686 268.000,32.786 268.000 C 32.960 268.000,33.298 269.312,33.536 270.915 C 34.087 274.620,34.886 276.522,36.318 277.541 C 37.247 278.203,37.543 278.840,37.951 281.055 C 38.522 284.152,39.336 285.751,40.646 286.348 C 41.253 286.625,41.705 287.340,41.994 288.482 C 42.885 292.006,43.700 293.694,44.819 294.337 C 45.511 294.734,46.027 295.438,46.175 296.189 C 46.434 297.495,48.523 300.678,49.671 301.515 C 50.059 301.798,50.567 302.735,50.799 303.596 C 51.262 305.316,52.970 307.600,53.792 307.600 C 54.079 307.600,54.423 308.036,54.557 308.569 C 54.867 309.807,56.701 312.000,57.425 312.000 C 57.730 312.000,58.281 312.585,58.649 313.300 C 59.501 314.954,61.032 317.014,62.735 318.797 C 63.469 319.565,64.341 320.654,64.673 321.215 C 65.005 321.777,65.918 322.676,66.702 323.213 C 67.486 323.751,68.703 324.733,69.407 325.395 C 71.561 327.424,72.461 328.072,74.188 328.836 C 75.102 329.240,76.077 329.997,76.356 330.518 C 77.008 331.736,78.582 332.656,80.600 332.998 C 83.311 333.458,83.600 333.616,84.581 335.170 C 85.528 336.669,85.606 336.708,90.000 337.840 C 90.330 337.925,91.297 338.617,92.149 339.377 C 93.001 340.137,94.529 341.041,95.543 341.387 C 96.558 341.733,97.769 342.459,98.234 343.001 C 99.137 344.051,102.129 345.577,103.315 345.591 C 103.708 345.596,104.804 346.397,105.751 347.371 C 107.208 348.870,107.862 349.223,110.005 349.665 C 112.197 350.118,112.643 350.367,113.317 351.509 C 114.100 352.836,115.345 353.678,117.200 354.134 C 117.750 354.269,118.740 354.857,119.400 355.441 C 120.748 356.633,124.243 358.390,125.280 358.396 C 125.654 358.398,126.464 358.913,127.080 359.540 C 128.333 360.815,131.813 362.400,133.360 362.400 C 133.917 362.400,134.989 362.941,135.743 363.603 C 137.759 365.374,140.626 366.494,143.703 366.715 C 146.139 366.889,146.486 367.021,147.064 368.000 C 148.097 369.749,149.694 370.408,154.240 370.960 C 158.167 371.437,158.567 371.567,159.648 372.724 C 161.140 374.320,162.989 374.803,168.976 375.158 C 173.632 375.435,173.877 375.495,176.000 376.890 C 179.774 379.368,180.130 379.396,209.000 379.397 C 239.511 379.399,240.845 379.281,244.059 376.298 C 245.046 375.381,245.489 375.299,250.659 375.085 C 257.208 374.814,258.954 374.373,260.668 372.555 C 261.682 371.480,262.262 371.198,263.473 371.192 C 268.597 371.165,272.853 369.831,273.828 367.946 C 274.353 366.931,274.636 366.800,276.310 366.798 C 278.815 366.795,280.984 366.160,282.921 364.863 C 283.794 364.278,284.978 363.486,285.554 363.102 C 286.129 362.718,287.017 362.403,287.526 362.402 C 288.875 362.399,292.464 360.766,293.450 359.706 C 293.917 359.203,295.090 358.554,296.058 358.263 C 297.025 357.972,298.957 356.894,300.352 355.867 C 301.747 354.840,303.156 354.000,303.484 354.000 C 304.747 354.000,306.728 352.699,307.420 351.415 C 307.912 350.502,308.524 349.995,309.332 349.834 C 311.244 349.451,314.012 347.907,314.820 346.771 C 315.232 346.194,316.360 345.418,317.327 345.049 C 318.515 344.595,319.315 343.959,319.791 343.089 C 320.192 342.355,321.201 341.455,322.133 341.000 C 323.033 340.560,324.046 339.695,324.385 339.079 C 324.723 338.462,325.720 337.556,326.600 337.066 C 327.480 336.576,328.444 335.666,328.742 335.045 C 329.041 334.423,329.842 333.618,330.524 333.257 C 332.521 332.197,341.600 322.834,341.600 321.833 C 341.600 321.478,342.220 320.891,342.978 320.530 C 343.838 320.120,344.692 319.239,345.250 318.189 C 345.741 317.263,346.722 316.193,347.429 315.812 C 348.180 315.408,349.003 314.479,349.410 313.578 C 349.792 312.731,350.767 311.599,351.576 311.064 C 352.642 310.358,353.189 309.610,353.564 308.345 C 354.042 306.733,356.634 302.800,357.219 302.800 C 357.359 302.800,357.687 302.087,357.948 301.216 C 358.254 300.195,358.834 299.389,359.581 298.947 C 360.871 298.186,361.826 296.277,362.218 293.680 C 362.360 292.734,362.750 291.744,363.083 291.480 C 365.734 289.381,366.786 287.233,366.805 283.880 C 366.808 283.316,367.315 282.672,368.220 282.086 C 369.846 281.033,370.230 280.200,370.803 276.490 C 371.109 274.512,371.466 273.579,372.156 272.965 C 373.541 271.732,374.845 267.858,375.102 264.216 C 375.272 261.803,375.516 260.834,376.112 260.216 C 378.427 257.814,379.566 252.350,379.590 243.532 C 379.600 239.785,379.651 239.566,381.263 236.467 L 382.925 233.268 383.216 221.734 C 383.649 204.513,383.074 176.630,382.244 174.644 C 381.890 173.796,381.600 172.851,381.600 172.543 C 381.600 172.236,381.150 171.271,380.600 170.400 C 379.744 169.044,379.599 168.340,379.593 165.508 C 379.575 157.282,378.630 152.855,376.627 151.617 C 375.371 150.840,375.295 150.656,375.091 147.900 C 374.806 144.045,373.845 141.107,372.394 139.656 C 371.602 138.864,371.020 137.690,370.647 136.134 C 369.805 132.617,369.317 131.630,368.069 130.914 C 367.141 130.381,366.839 129.815,366.433 127.847 C 365.803 124.800,365.195 123.634,363.639 122.488 C 362.958 121.986,362.400 121.300,362.400 120.962 C 362.400 119.858,360.695 116.227,359.601 115.000 C 359.012 114.340,358.227 112.973,357.856 111.963 C 357.458 110.879,356.783 109.912,356.209 109.605 C 355.222 109.076,354.000 106.999,354.000 105.848 C 354.000 104.409,352.709 102.151,351.400 101.302 C 350.601 100.783,349.904 99.937,349.751 99.302 C 349.381 97.758,347.690 94.930,346.642 94.098 C 346.157 93.714,345.346 92.540,344.840 91.489 C 344.286 90.342,343.451 89.337,342.750 88.974 C 342.051 88.613,341.335 87.753,340.967 86.835 C 340.562 85.822,339.874 85.046,338.939 84.550 C 338.133 84.123,337.239 83.201,336.862 82.408 C 336.459 81.561,335.552 80.658,334.547 80.103 C 333.616 79.590,332.689 78.698,332.426 78.063 C 332.169 77.441,331.347 76.584,330.600 76.157 C 329.854 75.731,328.824 74.756,328.313 73.991 C 327.802 73.226,326.777 72.295,326.035 71.922 C 325.293 71.550,324.358 70.746,323.958 70.135 C 323.054 68.758,321.609 67.621,320.747 67.609 C 320.389 67.604,319.632 66.993,319.067 66.252 C 318.501 65.511,317.085 64.413,315.919 63.812 C 314.754 63.212,313.170 62.026,312.400 61.178 C 311.630 60.330,310.336 59.360,309.524 59.023 C 308.674 58.669,307.826 57.941,307.524 57.305 C 307.227 56.678,306.225 55.809,305.208 55.296 C 304.222 54.799,303.001 53.946,302.495 53.400 C 301.414 52.235,299.632 51.252,297.400 50.592 C 296.500 50.326,295.610 49.744,295.364 49.262 C 294.605 47.768,293.547 46.844,292.052 46.368 C 291.253 46.113,290.060 45.423,289.400 44.833 C 287.950 43.538,284.834 42.000,283.660 42.000 C 283.125 42.000,282.470 41.479,281.904 40.605 C 280.980 39.178,279.246 38.365,275.851 37.766 C 274.762 37.574,274.120 37.177,273.692 36.432 C 272.936 35.113,270.851 34.079,268.077 33.644 C 266.522 33.401,265.611 32.980,264.675 32.073 C 263.023 30.472,260.540 29.600,256.800 29.310 C 254.010 29.093,253.700 28.974,252.379 27.620 C 250.727 25.925,248.728 25.367,242.800 24.947 C 239.811 24.735,238.744 24.491,237.800 23.804 C 235.547 22.163,233.714 21.614,229.153 21.210 C 224.078 20.761,185.742 20.762,176.974 21.212 M217.600 33.214 C 222.045 33.525,224.568 33.940,228.400 34.990 C 231.150 35.743,234.300 36.471,235.400 36.607 C 239.513 37.114,241.771 37.713,244.499 39.021 C 246.042 39.760,248.316 40.565,249.552 40.809 C 252.989 41.487,254.429 41.992,256.498 43.243 C 257.542 43.874,259.522 44.763,260.898 45.218 C 262.274 45.674,264.390 46.636,265.600 47.356 C 266.810 48.076,268.658 48.982,269.707 49.368 C 270.756 49.755,272.540 50.709,273.672 51.487 C 274.803 52.265,276.555 53.265,277.565 53.708 C 278.574 54.151,279.931 54.957,280.581 55.499 C 281.231 56.041,282.844 57.009,284.166 57.649 C 285.489 58.290,287.028 59.237,287.586 59.754 C 288.143 60.271,289.590 61.349,290.800 62.150 C 297.365 66.493,302.331 70.068,305.042 72.400 C 308.666 75.518,310.796 77.261,313.134 79.020 C 320.645 84.672,332.263 96.950,337.076 104.322 C 337.694 105.270,338.967 107.097,339.905 108.384 C 340.843 109.671,342.040 111.696,342.566 112.884 C 343.091 114.073,343.965 115.575,344.508 116.223 C 345.050 116.870,346.076 118.555,346.787 119.968 C 347.498 121.380,348.692 123.425,349.440 124.513 C 350.188 125.600,350.800 126.712,350.800 126.983 C 350.800 127.254,351.523 128.594,352.406 129.961 C 353.289 131.328,354.457 133.542,355.002 134.881 C 355.546 136.220,356.535 138.163,357.199 139.199 C 357.864 140.234,358.841 142.355,359.370 143.912 C 359.900 145.469,360.785 147.521,361.338 148.472 C 361.891 149.422,362.817 151.893,363.395 153.962 C 363.974 156.031,364.777 158.371,365.179 159.162 C 366.643 162.035,367.202 165.081,368.007 174.551 C 368.458 179.858,369.004 185.792,369.222 187.737 C 369.737 192.355,370.391 209.120,370.177 212.200 C 370.085 213.520,369.820 217.300,369.588 220.600 C 369.356 223.900,368.909 228.130,368.594 230.000 C 368.279 231.870,367.825 235.920,367.585 239.000 C 367.077 245.509,366.833 246.770,365.250 251.064 C 364.605 252.813,363.780 255.835,363.415 257.779 C 363.023 259.870,362.212 262.392,361.427 263.957 C 360.697 265.411,359.636 268.130,359.067 270.000 C 358.499 271.870,357.582 274.012,357.029 274.761 C 356.477 275.510,355.649 277.252,355.189 278.633 C 354.729 280.014,353.813 281.890,353.154 282.801 C 352.494 283.711,351.331 285.749,350.568 287.328 C 349.806 288.908,348.602 291.046,347.891 292.080 C 346.516 294.082,345.879 295.026,343.007 299.311 C 341.228 301.967,339.669 304.008,335.482 309.164 C 333.603 311.478,322.322 322.965,317.948 327.020 C 316.060 328.770,312.976 331.176,309.066 333.948 C 307.710 334.910,305.970 336.190,305.200 336.794 C 304.430 337.397,303.170 338.210,302.400 338.601 C 301.630 338.991,300.380 339.852,299.621 340.512 C 298.863 341.173,297.271 342.143,296.083 342.669 C 294.895 343.194,293.266 344.147,292.462 344.787 C 291.658 345.426,290.035 346.326,288.854 346.787 C 287.674 347.247,285.913 348.172,284.941 348.840 C 283.969 349.509,281.964 350.468,280.487 350.971 C 279.009 351.473,276.900 352.436,275.800 353.110 C 274.700 353.783,272.630 354.629,271.200 354.988 C 269.770 355.347,267.306 356.272,265.723 357.044 C 264.101 357.835,261.224 358.777,259.123 359.206 C 257.076 359.623,253.870 360.593,252.000 361.359 C 249.448 362.406,247.353 362.915,243.600 363.399 C 240.850 363.754,236.890 364.472,234.800 364.994 C 232.710 365.516,229.920 366.144,228.600 366.391 C 224.781 367.103,209.329 367.542,200.810 367.180 C 193.061 366.850,190.676 366.522,182.200 364.620 C 179.780 364.076,176.003 363.350,173.808 363.005 C 171.412 362.628,168.772 361.908,167.208 361.203 C 165.773 360.556,162.738 359.579,160.463 359.030 C 158.188 358.482,155.578 357.596,154.663 357.061 C 153.748 356.527,151.741 355.701,150.201 355.227 C 148.662 354.753,146.416 353.808,145.210 353.128 C 144.005 352.447,141.805 351.478,140.322 350.974 C 138.840 350.469,136.846 349.520,135.893 348.864 C 134.939 348.208,133.053 347.222,131.701 346.672 C 130.349 346.123,128.647 345.219,127.919 344.664 C 127.191 344.109,125.427 343.130,123.998 342.489 C 122.569 341.848,121.141 341.011,120.824 340.629 C 120.507 340.247,119.194 339.403,117.907 338.753 C 116.619 338.103,114.392 336.768,112.957 335.786 C 111.523 334.803,110.118 334.000,109.835 334.000 C 109.552 334.000,108.588 333.470,107.694 332.822 C 106.800 332.174,104.749 330.980,103.136 330.168 C 101.524 329.356,99.663 328.284,99.002 327.786 C 98.341 327.288,96.544 326.315,95.008 325.624 C 93.473 324.933,91.853 324.032,91.408 323.623 C 90.964 323.214,89.341 322.312,87.801 321.620 C 86.262 320.927,84.552 319.943,84.001 319.433 C 83.451 318.923,82.161 318.025,81.136 317.436 C 79.364 316.419,70.400 307.816,70.400 307.133 C 70.400 306.954,69.545 305.843,68.500 304.662 C 65.891 301.715,60.632 294.332,58.519 290.651 C 57.903 289.580,56.790 287.780,56.045 286.651 C 55.301 285.523,54.248 283.610,53.707 282.400 C 53.166 281.190,52.115 279.210,51.371 278.000 C 50.627 276.790,49.673 274.791,49.251 273.558 C 48.828 272.324,48.025 270.591,47.467 269.706 C 46.544 268.245,44.800 263.643,44.800 262.671 C 44.800 262.452,44.095 260.727,43.233 258.837 C 42.371 256.947,41.364 253.888,40.994 252.041 C 40.625 250.193,39.694 247.053,38.926 245.064 C 37.856 242.293,37.355 240.085,36.786 235.623 C 36.377 232.421,35.683 228.270,35.244 226.400 C 33.550 219.183,33.399 216.890,33.428 198.800 C 33.453 182.657,33.518 181.068,34.328 176.800 C 35.600 170.094,36.659 163.545,37.192 159.083 C 37.471 156.752,38.209 153.586,39.016 151.264 C 39.762 149.118,40.665 145.663,41.024 143.586 C 41.382 141.509,42.018 138.953,42.438 137.905 C 42.857 136.857,43.556 135.109,43.991 134.021 C 44.425 132.932,45.078 130.727,45.441 129.121 C 45.804 127.514,46.693 125.019,47.417 123.576 C 48.141 122.133,49.034 119.883,49.401 118.576 C 49.768 117.269,50.691 115.170,51.452 113.911 C 52.213 112.652,53.192 110.582,53.627 109.311 C 54.062 108.040,54.942 106.267,55.582 105.372 C 56.223 104.476,57.180 102.766,57.710 101.572 C 58.240 100.377,59.124 98.860,59.673 98.200 C 60.223 97.540,61.180 96.100,61.800 95.000 C 62.420 93.900,63.512 92.370,64.225 91.600 C 64.938 90.830,65.854 89.648,66.261 88.974 C 68.817 84.732,83.306 69.970,89.000 65.806 C 89.880 65.163,90.824 64.329,91.098 63.954 C 91.371 63.579,92.541 62.696,93.698 61.993 C 94.854 61.290,96.250 60.297,96.800 59.786 C 97.350 59.275,98.756 58.380,99.923 57.796 C 101.091 57.212,102.621 56.231,103.323 55.615 C 104.026 55.000,105.819 53.944,107.308 53.269 C 108.798 52.595,110.521 51.684,111.137 51.245 C 111.754 50.806,113.417 50.010,114.834 49.477 C 116.251 48.944,118.542 47.936,119.924 47.238 C 121.307 46.540,123.735 45.679,125.319 45.325 C 126.904 44.971,129.578 44.078,131.262 43.341 C 133.324 42.440,135.938 41.734,139.262 41.183 C 141.978 40.732,146.076 39.830,148.369 39.179 C 153.651 37.677,155.895 37.329,163.800 36.787 C 167.320 36.546,172.810 35.897,176.000 35.345 C 185.714 33.665,186.446 33.562,190.998 33.233 C 197.520 32.761,210.994 32.751,217.600 33.214 M189.200 105.020 C 188.870 105.090,187.927 105.257,187.104 105.391 C 185.375 105.673,181.179 109.280,180.467 111.097 C 179.523 113.504,179.200 117.346,179.200 126.165 C 179.200 134.999,178.722 149.989,178.041 162.478 C 177.491 172.570,180.512 171.655,147.310 171.784 C 116.334 171.905,115.353 171.976,110.500 174.459 C 104.410 177.576,104.200 178.234,104.200 194.200 C 104.200 208.539,104.389 209.644,107.317 212.437 C 110.905 215.859,110.198 215.733,127.639 216.051 C 143.977 216.348,147.883 216.647,156.156 218.233 C 158.992 218.776,163.748 219.491,166.724 219.821 C 175.002 220.739,175.091 220.824,176.641 229.400 C 177.661 235.047,177.741 236.365,177.997 251.800 C 178.374 274.582,179.200 278.927,184.122 284.011 C 188.328 288.356,195.584 290.378,207.021 290.392 C 215.905 290.403,219.069 288.794,222.167 282.691 L 223.672 279.726 224.019 271.963 C 224.496 261.295,224.479 249.405,223.969 235.244 C 223.347 218.011,221.876 219.389,240.272 219.978 C 258.343 220.557,266.925 221.038,277.113 222.045 C 286.735 222.997,288.155 222.900,291.170 221.089 C 294.648 218.999,294.747 218.757,295.644 210.169 C 296.078 206.006,296.696 201.091,297.017 199.248 C 298.107 192.980,297.807 190.022,295.518 184.486 C 293.796 180.319,293.222 180.077,283.385 179.364 C 279.155 179.058,273.287 178.445,270.347 178.002 C 266.354 177.401,261.202 177.090,250.000 176.775 C 231.230 176.246,231.071 176.230,229.505 174.831 L 228.270 173.728 228.337 167.764 C 228.374 164.484,228.503 160.630,228.624 159.200 C 229.588 147.781,229.425 119.335,228.363 113.636 C 227.832 110.785,225.523 108.038,222.200 106.304 C 220.116 105.216,193.217 104.170,189.200 105.020 M206.324 109.812 C 221.694 110.824,222.223 111.054,224.143 117.529 C 225.958 123.651,225.747 146.299,223.762 158.497 C 222.628 165.463,222.036 177.498,222.738 179.279 C 223.753 181.850,223.051 181.773,248.182 182.066 C 293.229 182.591,293.213 182.585,292.684 197.366 C 292.198 210.942,289.987 217.133,285.379 217.824 C 282.038 218.325,264.920 217.246,252.800 215.770 C 237.255 213.877,220.292 213.338,219.123 214.700 C 218.029 215.974,218.006 216.701,218.437 236.721 C 218.896 258.026,218.515 278.760,217.624 281.000 C 216.244 284.469,214.576 284.950,204.200 284.865 C 190.402 284.753,186.677 282.518,183.098 272.200 C 182.845 271.471,182.568 262.595,182.392 249.600 C 182.082 226.705,182.004 225.798,179.935 221.208 C 177.442 215.676,175.072 214.736,161.756 213.996 C 157.600 213.765,149.700 213.021,144.200 212.342 C 136.999 211.454,131.457 211.029,124.400 210.826 C 108.257 210.360,107.830 209.910,108.069 193.600 C 108.260 180.466,109.439 178.548,117.689 177.950 C 120.170 177.770,125.530 177.303,129.600 176.912 C 139.693 175.941,160.452 175.936,166.000 176.902 C 172.750 178.079,180.004 178.262,181.200 177.287 L 182.200 176.471 182.495 160.936 C 183.372 114.664,183.301 116.394,184.405 114.418 C 187.158 109.487,190.555 108.774,206.324 109.812 " stroke="none" fill="#08100c" fill-rule="evenodd"></path><path id="path1" d="M200.600 38.387 C 195.278 38.926,184.686 39.609,175.794 39.986 C 168.072 40.313,167.095 40.438,163.794 41.530 C 159.549 42.933,156.404 43.457,149.066 43.981 C 144.034 44.341,143.439 44.471,140.823 45.788 C 138.749 46.833,136.812 47.410,133.502 47.972 C 128.307 48.853,127.919 48.979,125.893 50.438 C 125.018 51.068,123.170 51.793,121.481 52.169 C 119.520 52.605,117.932 53.273,116.595 54.223 C 115.506 54.998,113.711 55.894,112.607 56.215 C 111.503 56.536,109.699 57.440,108.599 58.223 C 107.500 59.006,105.790 60.005,104.800 60.443 C 103.810 60.881,102.370 61.832,101.600 62.556 C 100.830 63.280,99.390 64.358,98.400 64.953 C 97.410 65.547,95.160 67.194,93.400 68.611 C 91.640 70.029,89.300 71.892,88.200 72.750 C 86.241 74.280,79.288 81.136,75.475 85.298 C 73.406 87.557,70.769 90.986,68.628 94.200 C 67.895 95.300,66.888 96.560,66.390 97.000 C 65.892 97.440,65.132 98.588,64.701 99.550 C 64.271 100.513,63.326 102.076,62.602 103.025 C 61.878 103.973,60.961 105.616,60.564 106.675 C 60.166 107.734,59.250 109.471,58.527 110.536 C 57.804 111.600,56.855 113.670,56.417 115.136 C 55.979 116.601,54.987 118.811,54.213 120.047 C 53.257 121.572,52.602 123.309,52.175 125.447 C 51.767 127.492,51.141 129.192,50.393 130.284 C 49.101 132.170,48.639 133.641,47.971 138.000 C 47.680 139.906,47.023 141.948,46.172 143.600 C 44.718 146.419,44.190 148.555,43.798 153.200 C 43.453 157.290,42.975 159.267,41.544 162.529 L 40.324 165.307 39.528 180.353 C 38.293 203.707,39.246 229.845,41.522 235.025 C 42.976 238.336,43.436 240.213,43.976 245.046 C 44.300 247.940,44.665 249.161,45.946 251.621 C 46.965 253.577,47.738 255.805,48.142 257.944 C 48.595 260.344,49.097 261.698,49.982 262.901 C 50.652 263.812,51.668 266.093,52.240 267.970 C 52.813 269.847,53.796 272.106,54.425 272.991 C 55.054 273.876,55.963 275.680,56.445 277.000 C 56.927 278.320,57.844 280.077,58.483 280.904 C 59.122 281.731,59.922 283.081,60.261 283.904 C 60.601 284.727,61.568 286.300,62.411 287.400 C 63.253 288.500,64.292 290.210,64.720 291.200 C 65.147 292.190,65.903 293.360,66.400 293.800 C 66.897 294.240,67.759 295.320,68.316 296.200 C 68.873 297.080,69.923 298.520,70.649 299.400 C 78.610 309.044,82.038 312.402,86.463 314.892 C 87.638 315.553,89.050 316.511,89.600 317.019 C 90.150 317.528,91.680 318.345,93.000 318.834 C 94.320 319.323,96.177 320.404,97.127 321.236 C 98.077 322.068,99.427 322.872,100.127 323.023 C 101.801 323.384,104.109 324.567,104.827 325.432 C 105.142 325.812,106.480 326.609,107.800 327.203 C 109.120 327.796,111.353 329.029,112.762 329.941 C 114.171 330.853,115.566 331.600,115.861 331.600 C 116.156 331.600,117.073 332.209,117.899 332.953 C 118.724 333.697,120.660 334.876,122.200 335.572 C 123.740 336.269,125.540 337.358,126.200 337.993 C 126.860 338.627,128.416 339.524,129.658 339.986 C 130.900 340.448,132.677 341.378,133.608 342.052 C 134.539 342.726,136.243 343.602,137.395 343.998 C 138.548 344.395,140.460 345.349,141.645 346.119 C 142.830 346.888,144.790 347.740,146.000 348.012 C 148.547 348.584,149.283 348.925,151.200 350.425 C 152.188 351.198,153.600 351.717,156.000 352.188 C 158.242 352.628,160.286 353.351,162.000 354.311 C 164.129 355.503,165.411 355.888,169.076 356.438 C 172.353 356.930,174.271 357.460,176.240 358.420 C 179.380 359.949,180.187 360.057,197.200 361.214 L 209.000 362.017 221.000 361.219 C 227.600 360.780,234.530 360.311,236.400 360.176 C 239.007 359.988,240.499 359.624,242.800 358.613 C 246.356 357.050,246.807 356.935,252.233 356.223 C 255.598 355.781,256.785 355.441,258.308 354.483 C 260.417 353.155,261.815 352.668,265.543 351.961 C 267.205 351.646,268.766 351.012,270.047 350.130 C 271.125 349.388,273.131 348.502,274.504 348.161 C 275.877 347.820,277.910 346.927,279.021 346.176 C 280.133 345.425,282.042 344.467,283.263 344.047 C 284.485 343.627,286.311 342.652,287.322 341.880 C 288.333 341.109,290.114 340.169,291.280 339.792 C 292.518 339.391,294.065 338.477,295.000 337.595 C 295.880 336.764,297.410 335.681,298.400 335.189 C 299.390 334.696,300.830 333.801,301.600 333.200 C 302.370 332.599,303.759 331.722,304.687 331.252 C 305.614 330.782,306.569 330.033,306.807 329.587 C 307.046 329.141,308.020 328.286,308.973 327.688 C 312.835 325.262,321.596 317.048,328.053 309.800 C 334.687 302.354,335.484 301.402,336.122 300.159 C 336.472 299.477,337.224 298.614,337.792 298.242 C 338.361 297.869,339.244 296.618,339.756 295.461 C 340.268 294.304,341.228 292.737,341.890 291.979 C 342.553 291.220,343.588 289.610,344.191 288.400 C 344.795 287.190,345.627 285.830,346.040 285.378 C 346.454 284.926,347.260 283.407,347.831 282.002 C 348.401 280.597,349.458 278.758,350.179 277.917 C 351.067 276.879,351.700 275.520,352.147 273.693 C 352.509 272.212,353.359 270.208,354.037 269.239 C 355.115 267.699,355.874 265.396,356.952 260.392 C 357.071 259.837,357.727 258.541,358.410 257.511 C 359.683 255.589,359.756 255.272,360.975 246.366 C 361.293 244.037,362.121 240.527,362.813 238.566 L 364.072 235.000 364.469 221.990 C 364.724 213.593,364.731 202.602,364.489 190.990 L 364.112 173.000 362.696 169.400 C 361.855 167.263,361.010 164.093,360.617 161.600 C 360.235 159.181,359.631 156.891,359.192 156.200 C 357.499 153.531,356.870 152.089,356.401 149.800 C 355.895 147.331,355.128 145.486,354.139 144.355 C 353.829 144.000,352.974 142.264,352.241 140.498 C 351.507 138.731,350.447 136.682,349.886 135.943 C 349.325 135.204,348.505 133.644,348.063 132.476 C 347.621 131.308,346.785 129.731,346.205 128.971 C 345.626 128.211,344.702 126.574,344.153 125.332 C 343.604 124.090,342.576 122.398,341.869 121.572 C 341.162 120.746,340.248 119.109,339.837 117.935 C 339.427 116.761,338.495 115.170,337.765 114.400 C 337.036 113.630,336.176 112.370,335.855 111.600 C 335.533 110.830,334.354 108.960,333.235 107.445 C 332.116 105.930,331.200 104.537,331.200 104.350 C 331.200 103.911,324.269 95.964,322.070 93.881 C 321.558 93.396,319.446 91.380,317.376 89.400 C 313.397 85.594,310.008 82.648,306.424 79.880 C 305.228 78.956,303.068 77.257,301.624 76.105 C 300.181 74.952,298.100 73.403,297.000 72.663 C 295.900 71.923,294.640 70.911,294.200 70.415 C 293.760 69.919,292.590 69.102,291.600 68.600 C 290.610 68.098,289.440 67.288,289.000 66.800 C 288.560 66.312,287.300 65.464,286.200 64.915 C 285.100 64.366,283.570 63.319,282.800 62.588 C 282.030 61.857,280.590 60.947,279.600 60.567 C 278.610 60.187,276.922 59.257,275.849 58.502 C 274.775 57.746,273.086 56.780,272.095 56.355 C 271.104 55.930,269.642 55.073,268.847 54.449 C 268.051 53.825,266.140 52.900,264.600 52.393 C 263.060 51.886,260.900 50.880,259.800 50.157 C 258.700 49.433,256.515 48.489,254.944 48.059 C 251.921 47.229,250.868 46.762,249.112 45.469 C 248.438 44.972,246.462 44.394,243.912 43.948 C 241.212 43.476,238.761 42.742,236.775 41.811 C 233.900 40.463,233.384 40.363,226.375 39.795 C 222.319 39.466,217.110 38.998,214.800 38.755 C 208.846 38.129,204.300 38.011,200.600 38.387 M201.800 99.202 C 209.489 99.643,215.356 100.264,217.030 100.813 C 217.707 101.034,219.793 101.464,221.666 101.767 C 227.185 102.661,229.937 104.607,231.406 108.658 C 231.794 109.726,232.636 111.715,233.278 113.077 C 236.015 118.888,236.073 149.939,233.370 161.800 C 232.197 166.947,231.782 171.146,232.363 172.000 C 232.714 172.517,236.003 172.635,256.085 172.853 C 277.590 173.087,285.110 173.308,289.459 173.836 C 290.951 174.017,291.900 174.505,296.262 177.343 C 296.956 177.794,297.841 178.712,298.228 179.382 C 298.614 180.052,299.515 181.257,300.229 182.061 C 303.238 185.447,303.183 208.525,300.150 215.800 C 299.599 217.120,298.801 219.173,298.375 220.362 C 296.847 224.629,294.449 226.560,289.840 227.235 C 283.506 228.164,250.725 226.435,243.400 224.786 C 238.654 223.718,229.100 223.253,228.148 224.043 C 227.539 224.549,227.510 225.501,227.820 234.799 C 228.450 253.662,228.114 277.325,227.125 283.787 C 226.682 286.679,226.187 287.393,221.279 292.224 C 219.554 293.922,217.114 294.203,204.400 294.164 C 190.995 294.123,188.916 293.853,186.222 291.796 C 185.254 291.057,183.937 290.181,183.295 289.849 C 181.640 288.993,177.756 284.680,177.427 283.333 C 177.275 282.710,176.451 281.030,175.595 279.600 C 173.141 275.497,173.115 275.223,172.842 250.800 C 172.566 226.068,172.696 227.144,169.748 225.076 C 167.906 223.783,167.556 223.743,149.600 222.787 C 144.870 222.535,139.470 222.157,137.600 221.947 C 135.730 221.737,130.235 221.419,125.389 221.239 C 109.693 220.658,105.395 219.157,101.476 212.888 C 98.147 207.563,98.200 207.863,98.202 194.200 C 98.204 181.446,98.347 180.282,100.180 178.090 C 100.681 177.490,101.469 176.254,101.932 175.343 C 104.370 170.538,108.026 168.881,117.178 168.433 C 121.118 168.241,124.490 167.992,124.671 167.880 C 127.842 165.923,159.488 164.849,164.800 166.519 C 168.933 167.818,171.185 168.205,171.918 167.744 C 172.829 167.172,173.077 160.809,173.149 136.200 C 173.213 114.554,173.271 113.979,175.886 109.276 C 178.319 104.898,180.091 103.097,182.852 102.193 C 184.033 101.806,185.898 101.039,186.996 100.489 C 190.267 98.851,192.419 98.663,201.800 99.202 " stroke="none" fill="#3cb47c" fill-rule="evenodd"></path><path id="path2" d="M190.160 114.143 C 188.285 115.002,188.287 114.981,187.952 133.400 C 187.438 161.613,186.942 173.910,186.224 176.256 C 184.907 180.560,181.536 182.171,175.890 181.193 C 168.516 179.915,118.779 180.315,115.792 181.676 C 113.166 182.873,111.901 192.851,113.140 202.594 C 113.746 207.366,112.535 207.022,129.864 207.340 C 147.413 207.662,152.033 208.025,159.193 209.639 C 162.223 210.322,166.886 211.031,169.800 211.251 C 181.539 212.138,183.305 213.684,184.803 224.385 C 185.220 227.363,185.862 231.060,186.230 232.600 C 186.774 234.872,186.955 238.643,187.190 252.600 C 187.557 274.392,187.928 276.526,191.679 278.440 C 196.740 281.022,198.185 281.337,205.128 281.369 L 211.657 281.400 212.999 279.938 C 213.738 279.134,214.543 277.784,214.789 276.938 C 215.483 274.551,215.779 247.006,215.222 236.600 C 213.735 208.809,213.585 209.092,229.028 210.551 C 232.753 210.903,242.010 211.377,249.600 211.605 C 264.112 212.040,273.103 212.524,279.867 213.236 C 286.109 213.892,286.177 213.813,287.285 204.623 C 289.255 188.271,289.381 188.539,279.469 187.954 C 276.162 187.758,271.802 187.332,269.780 187.007 C 264.447 186.149,256.988 185.698,239.600 185.183 C 231.130 184.932,223.535 184.559,222.721 184.354 C 219.467 183.532,218.421 180.135,219.130 172.684 C 220.437 158.940,220.760 119.250,219.591 116.071 C 219.300 115.281,218.677 114.572,218.051 114.320 C 216.275 113.604,191.677 113.449,190.160 114.143 " stroke="none" fill="#cfdede" fill-rule="evenodd"></path><path id="path3" d="M198.600 35.798 C 195.080 36.092,190.566 36.604,188.569 36.936 C 186.572 37.267,182.342 37.738,179.169 37.982 C 175.996 38.226,171.060 38.607,168.200 38.829 C 165.009 39.077,160.759 39.758,157.200 40.592 C 154.010 41.340,149.600 42.148,147.400 42.388 C 142.298 42.944,140.077 43.447,136.592 44.835 C 135.048 45.450,132.142 46.311,130.134 46.750 C 128.126 47.188,125.368 48.109,124.005 48.798 C 122.641 49.486,120.418 50.391,119.063 50.810 C 117.708 51.228,115.605 52.171,114.388 52.903 C 113.171 53.636,111.142 54.655,109.879 55.168 C 108.615 55.681,106.888 56.603,106.040 57.217 C 105.193 57.831,103.762 58.709,102.861 59.169 C 101.960 59.629,100.632 60.522,99.911 61.155 C 99.190 61.787,97.622 62.881,96.426 63.586 C 95.230 64.290,93.372 65.617,92.296 66.533 C 81.196 75.994,72.443 84.854,68.520 90.600 C 67.920 91.480,66.772 93.010,65.969 94.000 C 65.167 94.990,64.195 96.430,63.808 97.200 C 63.422 97.970,62.421 99.500,61.584 100.600 C 60.748 101.700,59.681 103.571,59.214 104.759 C 58.747 105.946,57.837 107.656,57.192 108.559 C 56.546 109.461,55.665 111.231,55.234 112.491 C 54.802 113.751,53.822 115.911,53.055 117.291 C 52.288 118.671,51.367 120.970,51.009 122.400 C 50.651 123.830,49.736 126.277,48.975 127.839 C 48.214 129.400,47.222 132.370,46.772 134.439 C 46.321 136.507,45.347 139.550,44.607 141.200 C 43.641 143.355,43.075 145.491,42.595 148.782 C 42.229 151.301,41.307 155.346,40.547 157.769 C 39.693 160.494,39.015 163.707,38.771 166.188 C 38.553 168.394,37.915 174.790,37.352 180.400 C 35.592 197.948,35.628 201.500,37.779 222.600 C 38.930 233.886,39.244 235.792,40.608 239.795 C 41.359 241.998,42.256 245.510,42.602 247.600 C 43.013 250.082,43.698 252.371,44.578 254.200 C 45.320 255.740,46.220 258.170,46.579 259.600 C 47.427 262.979,47.941 264.292,49.084 266.000 C 49.600 266.770,50.382 268.570,50.823 270.000 C 51.264 271.430,52.238 273.600,52.989 274.822 C 53.739 276.045,54.731 278.053,55.192 279.287 C 55.653 280.520,56.570 282.207,57.228 283.035 C 57.887 283.864,58.777 285.337,59.206 286.308 C 59.636 287.279,60.755 289.125,61.694 290.409 C 62.632 291.694,63.899 293.523,64.510 294.473 C 70.367 303.591,78.869 312.992,83.800 315.806 C 84.900 316.434,86.430 317.433,87.200 318.026 C 87.970 318.619,89.808 319.652,91.285 320.320 C 92.761 320.989,94.561 321.985,95.285 322.533 C 96.008 323.082,97.590 323.972,98.800 324.511 C 100.010 325.050,101.963 326.146,103.140 326.945 C 104.317 327.745,105.514 328.400,105.800 328.400 C 106.086 328.400,107.283 329.049,108.460 329.843 C 109.637 330.636,111.680 331.829,113.000 332.494 C 114.320 333.159,116.030 334.197,116.800 334.800 C 117.570 335.403,119.280 336.466,120.600 337.162 C 121.920 337.857,123.704 338.935,124.564 339.556 C 125.424 340.177,126.774 340.916,127.564 341.198 C 128.354 341.480,129.720 342.222,130.600 342.847 C 131.480 343.471,133.314 344.433,134.676 344.984 C 136.037 345.536,137.997 346.523,139.032 347.179 C 140.067 347.836,142.103 348.761,143.557 349.235 C 145.010 349.709,147.010 350.580,148.000 351.170 C 150.081 352.410,151.286 352.893,154.579 353.808 C 155.888 354.171,157.960 354.974,159.183 355.592 C 160.407 356.209,163.117 357.089,165.204 357.547 C 169.620 358.515,170.451 358.759,174.151 360.177 C 176.195 360.961,178.713 361.434,183.951 362.021 C 187.828 362.455,191.990 362.992,193.200 363.213 C 202.771 364.961,214.046 364.960,225.600 363.208 C 228.350 362.791,232.670 362.256,235.200 362.018 C 241.035 361.470,243.445 360.982,247.265 359.575 C 248.950 358.954,252.215 358.089,254.519 357.652 C 257.130 357.157,259.642 356.387,261.185 355.608 C 262.547 354.920,265.119 353.995,266.899 353.552 C 268.680 353.108,271.411 352.058,272.968 351.217 C 274.526 350.376,276.719 349.392,277.842 349.031 C 278.965 348.670,280.731 347.837,281.766 347.180 C 282.802 346.524,284.708 345.556,286.003 345.030 C 287.298 344.504,288.952 343.620,289.679 343.065 C 290.406 342.511,291.895 341.674,292.987 341.205 C 294.080 340.737,295.700 339.760,296.587 339.034 C 297.474 338.309,298.993 337.311,299.962 336.818 C 300.931 336.324,302.587 335.263,303.642 334.460 C 304.697 333.657,306.244 332.505,307.080 331.900 C 310.614 329.341,317.177 323.997,318.990 322.201 C 319.655 321.541,320.859 320.461,321.665 319.801 C 323.643 318.180,332.028 308.891,335.000 305.029 C 336.320 303.314,338.165 301.024,339.100 299.942 C 340.035 298.859,340.800 297.817,340.800 297.626 C 340.800 297.435,341.587 296.226,342.549 294.940 C 343.511 293.653,344.705 291.790,345.202 290.800 C 345.699 289.810,346.613 288.356,347.232 287.570 C 347.850 286.783,348.724 285.207,349.174 284.067 C 349.623 282.927,350.624 281.073,351.398 279.948 C 352.173 278.822,353.080 276.959,353.415 275.807 C 353.750 274.656,354.651 272.671,355.419 271.397 C 356.186 270.123,357.182 267.623,357.632 265.840 C 358.082 264.058,359.061 261.340,359.808 259.800 C 360.700 257.962,361.384 255.695,361.800 253.200 C 362.148 251.110,362.805 248.050,363.259 246.400 C 363.714 244.750,364.329 242.387,364.627 241.149 C 367.564 228.935,367.118 174.707,364.007 165.659 C 363.353 163.757,362.439 160.580,361.978 158.600 C 361.516 156.620,360.541 153.920,359.812 152.600 C 359.083 151.280,358.169 149.030,357.780 147.600 C 357.019 144.794,356.233 142.977,355.339 141.955 C 355.029 141.600,354.169 139.852,353.430 138.071 C 352.690 136.291,351.688 134.331,351.203 133.717 C 350.718 133.103,349.827 131.510,349.222 130.179 C 348.617 128.847,347.464 126.802,346.661 125.634 C 345.857 124.466,345.200 123.272,345.200 122.980 C 345.200 122.689,344.412 121.299,343.448 119.892 C 342.484 118.484,341.318 116.478,340.856 115.434 C 340.394 114.389,339.552 112.984,338.986 112.310 C 338.419 111.637,337.531 110.257,337.013 109.243 C 336.068 107.397,334.120 104.685,330.522 100.209 C 327.993 97.063,316.577 85.698,312.635 82.400 C 308.918 79.291,305.935 76.782,303.324 74.568 C 302.266 73.670,300.410 72.305,299.200 71.534 C 297.990 70.763,296.754 69.834,296.453 69.469 C 296.152 69.104,294.970 68.270,293.827 67.615 C 292.683 66.961,291.399 66.040,290.973 65.570 C 290.548 65.100,289.480 64.352,288.600 63.909 C 287.720 63.466,286.280 62.521,285.400 61.808 C 284.520 61.096,282.810 60.017,281.600 59.412 C 280.390 58.806,278.860 57.906,278.200 57.411 C 277.540 56.917,275.858 55.936,274.462 55.231 C 273.067 54.527,271.206 53.430,270.328 52.794 C 269.449 52.157,267.801 51.366,266.665 51.034 C 265.529 50.703,263.700 49.859,262.600 49.159 C 261.500 48.459,259.160 47.390,257.400 46.785 C 255.640 46.179,253.120 45.125,251.800 44.442 C 250.480 43.758,247.960 42.913,246.200 42.562 C 244.440 42.212,241.618 41.308,239.930 40.554 C 237.433 39.438,235.750 39.035,230.930 38.395 C 227.668 37.963,221.940 37.170,218.200 36.634 C 208.900 35.302,206.022 35.179,198.600 35.798 M214.800 38.755 C 217.110 38.998,222.319 39.466,226.375 39.795 C 233.384 40.363,233.900 40.463,236.775 41.811 C 238.761 42.742,241.212 43.476,243.912 43.948 C 246.462 44.394,248.438 44.972,249.112 45.469 C 250.868 46.762,251.921 47.229,254.944 48.059 C 256.515 48.489,258.700 49.433,259.800 50.157 C 260.900 50.880,263.060 51.886,264.600 52.393 C 266.140 52.900,268.051 53.825,268.847 54.449 C 269.642 55.073,271.104 55.930,272.095 56.355 C 273.086 56.780,274.775 57.746,275.849 58.502 C 276.922 59.257,278.610 60.187,279.600 60.567 C 280.590 60.947,282.030 61.857,282.800 62.588 C 283.570 63.319,285.100 64.366,286.200 64.915 C 287.300 65.464,288.560 66.312,289.000 66.800 C 289.440 67.288,290.610 68.098,291.600 68.600 C 292.590 69.102,293.760 69.919,294.200 70.415 C 294.640 70.911,295.900 71.923,297.000 72.663 C 298.100 73.403,300.181 74.952,301.624 76.105 C 303.068 77.257,305.228 78.956,306.424 79.880 C 310.008 82.648,313.397 85.594,317.376 89.400 C 319.446 91.380,321.558 93.396,322.070 93.881 C 324.269 95.964,331.200 103.911,331.200 104.350 C 331.200 104.537,332.116 105.930,333.235 107.445 C 334.354 108.960,335.533 110.830,335.855 111.600 C 336.176 112.370,337.036 113.630,337.765 114.400 C 338.495 115.170,339.427 116.761,339.837 117.935 C 340.248 119.109,341.162 120.746,341.869 121.572 C 342.576 122.398,343.604 124.090,344.153 125.332 C 344.702 126.574,345.626 128.211,346.205 128.971 C 346.785 129.731,347.621 131.308,348.063 132.476 C 348.505 133.644,349.325 135.204,349.886 135.943 C 350.447 136.682,351.507 138.731,352.241 140.498 C 352.974 142.264,353.829 144.000,354.139 144.355 C 355.128 145.486,355.895 147.331,356.401 149.800 C 356.870 152.089,357.499 153.531,359.192 156.200 C 359.631 156.891,360.235 159.181,360.617 161.600 C 361.010 164.093,361.855 167.263,362.696 169.400 L 364.112 173.000 364.489 190.990 C 364.731 202.602,364.724 213.593,364.469 221.990 L 364.072 235.000 362.813 238.566 C 362.121 240.527,361.293 244.037,360.975 246.366 C 359.756 255.272,359.683 255.589,358.410 257.511 C 357.727 258.541,357.071 259.837,356.952 260.392 C 355.874 265.396,355.115 267.699,354.037 269.239 C 353.359 270.208,352.509 272.212,352.147 273.693 C 351.700 275.520,351.067 276.879,350.179 277.917 C 349.458 278.758,348.401 280.597,347.831 282.002 C 347.260 283.407,346.454 284.926,346.040 285.378 C 345.627 285.830,344.795 287.190,344.191 288.400 C 343.588 289.610,342.553 291.220,341.890 291.979 C 341.228 292.737,340.268 294.304,339.756 295.461 C 339.244 296.618,338.361 297.869,337.792 298.242 C 337.224 298.614,336.472 299.477,336.122 300.159 C 335.484 301.402,334.687 302.354,328.053 309.800 C 321.596 317.048,312.835 325.262,308.973 327.688 C 308.020 328.286,307.046 329.141,306.807 329.587 C 306.569 330.033,305.614 330.782,304.687 331.252 C 303.759 331.722,302.370 332.599,301.600 333.200 C 300.830 333.801,299.390 334.696,298.400 335.189 C 297.410 335.681,295.880 336.764,295.000 337.595 C 294.065 338.477,292.518 339.391,291.280 339.792 C 290.114 340.169,288.333 341.109,287.322 341.880 C 286.311 342.652,284.485 343.627,283.263 344.047 C 282.042 344.467,280.133 345.425,279.021 346.176 C 277.910 346.927,275.877 347.820,274.504 348.161 C 273.131 348.502,271.125 349.388,270.047 350.130 C 268.766 351.012,267.205 351.646,265.543 351.961 C 261.815 352.668,260.417 353.155,258.308 354.483 C 256.785 355.441,255.598 355.781,252.233 356.223 C 246.807 356.935,246.356 357.050,242.800 358.613 C 240.499 359.624,239.007 359.988,236.400 360.176 C 234.530 360.311,227.600 360.780,221.000 361.219 L 209.000 362.017 197.200 361.214 C 180.187 360.057,179.380 359.949,176.240 358.420 C 174.271 357.460,172.353 356.930,169.076 356.438 C 165.411 355.888,164.129 355.503,162.000 354.311 C 160.286 353.351,158.242 352.628,156.000 352.188 C 153.600 351.717,152.188 351.198,151.200 350.425 C 149.283 348.925,148.547 348.584,146.000 348.012 C 144.790 347.740,142.830 346.888,141.645 346.119 C 140.460 345.349,138.548 344.395,137.395 343.998 C 136.243 343.602,134.539 342.726,133.608 342.052 C 132.677 341.378,130.900 340.448,129.658 339.986 C 128.416 339.524,126.860 338.627,126.200 337.993 C 125.540 337.358,123.740 336.269,122.200 335.572 C 120.660 334.876,118.724 333.697,117.899 332.953 C 117.073 332.209,116.156 331.600,115.861 331.600 C 115.566 331.600,114.171 330.853,112.762 329.941 C 111.353 329.029,109.120 327.796,107.800 327.203 C 106.480 326.609,105.142 325.812,104.827 325.432 C 104.109 324.567,101.801 323.384,100.127 323.023 C 99.427 322.872,98.077 322.068,97.127 321.236 C 96.177 320.404,94.320 319.323,93.000 318.834 C 91.680 318.345,90.150 317.528,89.600 317.019 C 89.050 316.511,87.638 315.553,86.463 314.892 C 82.038 312.402,78.610 309.044,70.649 299.400 C 69.923 298.520,68.873 297.080,68.316 296.200 C 67.759 295.320,66.897 294.240,66.400 293.800 C 65.903 293.360,65.147 292.190,64.720 291.200 C 64.292 290.210,63.253 288.500,62.411 287.400 C 61.568 286.300,60.601 284.727,60.261 283.904 C 59.922 283.081,59.122 281.731,58.483 280.904 C 57.844 280.077,56.927 278.320,56.445 277.000 C 55.963 275.680,55.054 273.876,54.425 272.991 C 53.796 272.106,52.813 269.847,52.240 267.970 C 51.668 266.093,50.652 263.812,49.982 262.901 C 49.097 261.698,48.595 260.344,48.142 257.944 C 47.738 255.805,46.965 253.577,45.946 251.621 C 44.665 249.161,44.300 247.940,43.976 245.046 C 43.436 240.213,42.976 238.336,41.522 235.025 C 39.246 229.845,38.293 203.707,39.528 180.353 L 40.324 165.307 41.544 162.529 C 42.975 159.267,43.453 157.290,43.798 153.200 C 44.190 148.555,44.718 146.419,46.172 143.600 C 47.023 141.948,47.680 139.906,47.971 138.000 C 48.639 133.641,49.101 132.170,50.393 130.284 C 51.141 129.192,51.767 127.492,52.175 125.447 C 52.602 123.309,53.257 121.572,54.213 120.047 C 54.987 118.811,55.979 116.601,56.417 115.136 C 56.855 113.670,57.804 111.600,58.527 110.536 C 59.250 109.471,60.166 107.734,60.564 106.675 C 60.961 105.616,61.878 103.973,62.602 103.025 C 63.326 102.076,64.271 100.513,64.701 99.550 C 65.132 98.588,65.892 97.440,66.390 97.000 C 66.888 96.560,67.895 95.300,68.628 94.200 C 70.769 90.986,73.406 87.557,75.475 85.298 C 79.288 81.136,86.241 74.280,88.200 72.750 C 89.300 71.892,91.640 70.029,93.400 68.611 C 95.160 67.194,97.410 65.547,98.400 64.953 C 99.390 64.358,100.830 63.280,101.600 62.556 C 102.370 61.832,103.810 60.881,104.800 60.443 C 105.790 60.005,107.500 59.006,108.599 58.223 C 109.699 57.440,111.503 56.536,112.607 56.215 C 113.711 55.894,115.506 54.998,116.595 54.223 C 117.932 53.273,119.520 52.605,121.481 52.169 C 123.170 51.793,125.018 51.068,125.893 50.438 C 127.919 48.979,128.307 48.853,133.502 47.972 C 136.812 47.410,138.749 46.833,140.823 45.788 C 143.439 44.471,144.034 44.341,149.066 43.981 C 156.404 43.457,159.549 42.933,163.794 41.530 C 167.095 40.438,168.072 40.313,175.794 39.986 C 184.686 39.609,195.278 38.926,200.600 38.387 C 204.300 38.011,208.846 38.129,214.800 38.755 M190.996 99.195 C 189.894 99.357,188.094 99.939,186.996 100.489 C 185.898 101.039,184.033 101.806,182.852 102.193 C 180.091 103.097,178.319 104.898,175.886 109.276 C 173.271 113.979,173.213 114.554,173.149 136.200 C 173.077 160.809,172.829 167.172,171.918 167.744 C 171.185 168.205,168.933 167.818,164.800 166.519 C 159.488 164.849,127.842 165.923,124.671 167.880 C 124.490 167.992,121.118 168.241,117.178 168.433 C 108.026 168.881,104.370 170.538,101.932 175.343 C 101.469 176.254,100.681 177.490,100.180 178.090 C 98.347 180.282,98.204 181.446,98.202 194.200 C 98.200 207.863,98.147 207.563,101.476 212.888 C 105.395 219.157,109.693 220.658,125.389 221.239 C 130.235 221.419,135.730 221.737,137.600 221.947 C 139.470 222.157,144.870 222.535,149.600 222.787 C 167.556 223.743,167.906 223.783,169.748 225.076 C 172.696 227.144,172.566 226.068,172.842 250.800 C 173.115 275.223,173.141 275.497,175.595 279.600 C 176.451 281.030,177.275 282.710,177.427 283.333 C 177.756 284.680,181.640 288.993,183.295 289.849 C 183.937 290.181,185.254 291.057,186.222 291.796 C 190.505 295.065,218.051 295.402,221.279 292.224 C 226.187 287.393,226.682 286.679,227.125 283.787 C 228.114 277.325,228.450 253.662,227.820 234.799 C 227.510 225.501,227.539 224.549,228.148 224.043 C 229.100 223.253,238.654 223.718,243.400 224.786 C 250.725 226.435,283.506 228.164,289.840 227.235 C 294.449 226.560,296.847 224.629,298.375 220.362 C 298.801 219.173,299.599 217.120,300.150 215.800 C 303.183 208.525,303.238 185.447,300.229 182.061 C 299.515 181.257,298.614 180.052,298.228 179.382 C 297.841 178.712,296.956 177.794,296.262 177.343 C 291.900 174.505,290.951 174.017,289.459 173.836 C 285.110 173.308,277.590 173.087,256.085 172.853 C 236.003 172.635,232.714 172.517,232.363 172.000 C 231.782 171.146,232.197 166.947,233.370 161.800 C 236.073 149.939,236.015 118.888,233.278 113.077 C 232.636 111.715,231.794 109.726,231.406 108.658 C 229.937 104.607,227.185 102.661,221.666 101.767 C 219.793 101.464,217.707 101.034,217.030 100.813 C 213.487 99.651,195.496 98.533,190.996 99.195 M209.194 102.424 C 222.471 103.088,223.570 103.320,226.928 106.166 C 230.033 108.799,231.515 113.113,232.464 122.288 C 232.996 127.434,232.971 144.606,232.425 149.283 C 232.212 151.107,231.771 154.850,231.445 157.600 C 231.120 160.350,230.727 164.781,230.573 167.446 C 230.165 174.515,228.495 173.853,247.452 174.142 C 290.797 174.803,296.336 176.118,300.045 186.628 C 301.428 190.547,300.505 202.935,297.983 214.285 C 295.222 226.710,291.738 227.507,256.400 223.794 C 238.394 221.902,228.459 221.484,226.991 222.557 C 226.254 223.096,226.228 224.077,226.194 252.057 C 226.154 286.516,226.368 285.299,219.353 290.898 C 216.944 292.821,199.003 293.568,192.200 292.028 C 186.843 290.816,179.867 284.865,178.053 279.961 C 177.532 278.552,176.642 276.140,176.075 274.600 L 175.045 271.800 174.759 251.400 C 174.331 220.926,175.153 222.760,161.476 221.781 C 157.034 221.463,150.790 220.850,147.600 220.418 C 137.601 219.064,133.886 218.767,122.686 218.421 C 107.319 217.946,105.725 217.263,102.348 209.710 L 100.600 205.800 100.600 194.200 L 100.600 182.600 102.361 178.910 C 105.564 172.201,108.657 170.490,118.539 169.960 C 122.313 169.758,128.977 169.325,133.349 168.996 C 143.571 168.229,157.117 168.231,163.600 169.000 C 170.755 169.849,172.896 169.799,173.835 168.762 C 174.660 167.850,174.736 166.086,175.518 129.600 L 175.831 115.000 177.327 111.604 C 179.763 106.071,182.422 103.842,188.000 102.655 C 193.021 101.586,192.524 101.591,209.194 102.424 " stroke="none" fill="#309a69" fill-rule="evenodd"></path><path id="path4" d="M190.998 33.233 C 186.446 33.562,185.714 33.665,176.000 35.345 C 172.810 35.897,167.320 36.546,163.800 36.787 C 155.895 37.329,153.651 37.677,148.369 39.179 C 146.076 39.830,141.978 40.732,139.262 41.183 C 135.938 41.734,133.324 42.440,131.262 43.341 C 129.578 44.078,126.904 44.971,125.319 45.325 C 123.735 45.679,121.307 46.540,119.924 47.238 C 118.542 47.936,116.251 48.944,114.834 49.477 C 113.417 50.010,111.754 50.806,111.137 51.245 C 110.521 51.684,108.798 52.595,107.308 53.269 C 105.819 53.944,104.026 55.000,103.323 55.615 C 102.621 56.231,101.091 57.212,99.923 57.796 C 98.756 58.380,97.350 59.275,96.800 59.786 C 96.250 60.297,94.854 61.290,93.698 61.993 C 92.541 62.696,91.371 63.579,91.098 63.954 C 90.824 64.329,89.880 65.163,89.000 65.806 C 83.306 69.970,68.817 84.732,66.261 88.974 C 65.854 89.648,64.938 90.830,64.225 91.600 C 63.512 92.370,62.420 93.900,61.800 95.000 C 61.180 96.100,60.223 97.540,59.673 98.200 C 59.124 98.860,58.240 100.377,57.710 101.572 C 57.180 102.766,56.223 104.476,55.582 105.372 C 54.942 106.267,54.062 108.040,53.627 109.311 C 53.192 110.582,52.213 112.652,51.452 113.911 C 50.691 115.170,49.768 117.269,49.401 118.576 C 49.034 119.883,48.141 122.133,47.417 123.576 C 46.693 125.019,45.804 127.514,45.441 129.121 C 45.078 130.727,44.425 132.932,43.991 134.021 C 43.556 135.109,42.857 136.857,42.438 137.905 C 42.018 138.953,41.382 141.509,41.024 143.586 C 40.665 145.663,39.762 149.118,39.016 151.264 C 38.209 153.586,37.471 156.752,37.192 159.083 C 36.659 163.545,35.600 170.094,34.328 176.800 C 33.518 181.068,33.453 182.657,33.428 198.800 C 33.399 216.890,33.550 219.183,35.244 226.400 C 35.683 228.270,36.377 232.421,36.786 235.623 C 37.355 240.085,37.856 242.293,38.926 245.064 C 39.694 247.053,40.625 250.193,40.994 252.041 C 41.364 253.888,42.371 256.947,43.233 258.837 C 44.095 260.727,44.800 262.452,44.800 262.671 C 44.800 263.643,46.544 268.245,47.467 269.706 C 48.025 270.591,48.828 272.324,49.251 273.558 C 49.673 274.791,50.627 276.790,51.371 278.000 C 52.115 279.210,53.166 281.190,53.707 282.400 C 54.248 283.610,55.301 285.523,56.045 286.651 C 56.790 287.780,57.903 289.580,58.519 290.651 C 60.632 294.332,65.891 301.715,68.500 304.662 C 69.545 305.843,70.400 306.954,70.400 307.133 C 70.400 307.816,79.364 316.419,81.136 317.436 C 82.161 318.025,83.451 318.923,84.001 319.433 C 84.552 319.943,86.262 320.927,87.801 321.620 C 89.341 322.312,90.964 323.214,91.408 323.623 C 91.853 324.032,93.473 324.933,95.008 325.624 C 96.544 326.315,98.341 327.288,99.002 327.786 C 99.663 328.284,101.524 329.356,103.136 330.168 C 104.749 330.980,106.800 332.174,107.694 332.822 C 108.588 333.470,109.552 334.000,109.835 334.000 C 110.118 334.000,111.523 334.803,112.957 335.786 C 114.392 336.768,116.619 338.103,117.907 338.753 C 119.194 339.403,120.507 340.247,120.824 340.629 C 121.141 341.011,122.569 341.848,123.998 342.489 C 125.427 343.130,127.191 344.109,127.919 344.664 C 128.647 345.219,130.349 346.123,131.701 346.672 C 133.053 347.222,134.939 348.208,135.893 348.864 C 136.846 349.520,138.840 350.469,140.322 350.974 C 141.805 351.478,144.005 352.447,145.210 353.128 C 146.416 353.808,148.662 354.753,150.201 355.227 C 151.741 355.701,153.748 356.527,154.663 357.061 C 155.578 357.596,158.188 358.482,160.463 359.030 C 162.738 359.579,165.773 360.556,167.208 361.203 C 168.772 361.908,171.412 362.628,173.808 363.005 C 176.003 363.350,179.780 364.076,182.200 364.620 C 190.676 366.522,193.061 366.850,200.810 367.180 C 209.329 367.542,224.781 367.103,228.600 366.391 C 229.920 366.144,232.710 365.516,234.800 364.994 C 236.890 364.472,240.850 363.754,243.600 363.399 C 247.353 362.915,249.448 362.406,252.000 361.359 C 253.870 360.593,257.076 359.623,259.123 359.206 C 261.224 358.777,264.101 357.835,265.723 357.044 C 267.306 356.272,269.770 355.347,271.200 354.988 C 272.630 354.629,274.700 353.783,275.800 353.110 C 276.900 352.436,279.009 351.473,280.487 350.971 C 281.964 350.468,283.969 349.509,284.941 348.840 C 285.913 348.172,287.674 347.247,288.854 346.787 C 290.035 346.326,291.658 345.426,292.462 344.787 C 293.266 344.147,294.895 343.194,296.083 342.669 C 297.271 342.143,298.863 341.173,299.621 340.512 C 300.380 339.852,301.630 338.991,302.400 338.601 C 303.170 338.210,304.430 337.397,305.200 336.794 C 305.970 336.190,307.710 334.910,309.066 333.948 C 312.976 331.176,316.060 328.770,317.948 327.020 C 322.322 322.965,333.603 311.478,335.482 309.164 C 339.669 304.008,341.228 301.967,343.007 299.311 C 345.879 295.026,346.516 294.082,347.891 292.080 C 348.602 291.046,349.806 288.908,350.568 287.328 C 351.331 285.749,352.494 283.711,353.154 282.801 C 353.813 281.890,354.729 280.014,355.189 278.633 C 355.649 277.252,356.477 275.510,357.029 274.761 C 357.582 274.012,358.499 271.870,359.067 270.000 C 359.636 268.130,360.697 265.411,361.427 263.957 C 362.212 262.392,363.023 259.870,363.415 257.779 C 363.780 255.835,364.605 252.813,365.250 251.064 C 366.833 246.770,367.077 245.509,367.585 239.000 C 367.825 235.920,368.279 231.870,368.594 230.000 C 368.909 228.130,369.356 223.900,369.588 220.600 C 369.820 217.300,370.085 213.520,370.177 212.200 C 370.391 209.120,369.737 192.355,369.222 187.737 C 369.004 185.792,368.458 179.858,368.007 174.551 C 367.202 165.081,366.643 162.035,365.179 159.162 C 364.777 158.371,363.974 156.031,363.395 153.962 C 362.817 151.893,361.891 149.422,361.338 148.472 C 360.785 147.521,359.900 145.469,359.370 143.912 C 358.841 142.355,357.864 140.234,357.199 139.199 C 356.535 138.163,355.546 136.220,355.002 134.881 C 354.457 133.542,353.289 131.328,352.406 129.961 C 351.523 128.594,350.800 127.254,350.800 126.983 C 350.800 126.712,350.188 125.600,349.440 124.513 C 348.692 123.425,347.498 121.380,346.787 119.968 C 346.076 118.555,345.050 116.870,344.508 116.223 C 343.965 115.575,343.091 114.073,342.566 112.884 C 342.040 111.696,340.843 109.671,339.905 108.384 C 338.967 107.097,337.694 105.270,337.076 104.322 C 332.263 96.950,320.645 84.672,313.134 79.020 C 310.796 77.261,308.666 75.518,305.042 72.400 C 302.331 70.068,297.365 66.493,290.800 62.150 C 289.590 61.349,288.143 60.271,287.586 59.754 C 287.028 59.237,285.489 58.290,284.166 57.649 C 282.844 57.009,281.231 56.041,280.581 55.499 C 279.931 54.957,278.574 54.151,277.565 53.708 C 276.555 53.265,274.803 52.265,273.672 51.487 C 272.540 50.709,270.756 49.755,269.707 49.368 C 268.658 48.982,266.810 48.076,265.600 47.356 C 264.390 46.636,262.274 45.674,260.898 45.218 C 259.522 44.763,257.542 43.874,256.498 43.243 C 254.429 41.992,252.989 41.487,249.552 40.809 C 248.316 40.565,246.042 39.760,244.499 39.021 C 241.771 37.713,239.513 37.114,235.400 36.607 C 234.300 36.471,231.150 35.743,228.400 34.990 C 220.952 32.949,205.168 32.208,190.998 33.233 M217.717 35.381 C 220.190 35.688,223.380 36.210,224.806 36.540 C 226.233 36.871,229.470 37.430,232.000 37.783 C 237.534 38.554,239.181 38.974,241.731 40.267 C 242.801 40.809,245.292 41.605,247.266 42.036 C 249.280 42.475,252.204 43.492,253.928 44.353 C 255.618 45.197,257.990 46.204,259.200 46.590 C 260.410 46.977,262.225 47.811,263.232 48.445 C 264.240 49.078,266.113 49.957,267.394 50.398 C 268.676 50.839,270.281 51.624,270.962 52.144 C 271.643 52.663,273.370 53.673,274.800 54.388 C 276.230 55.103,277.940 56.093,278.600 56.588 C 279.260 57.083,280.917 58.052,282.283 58.741 C 283.648 59.430,285.358 60.511,286.083 61.143 C 286.807 61.775,288.132 62.663,289.027 63.117 C 289.921 63.570,290.911 64.254,291.227 64.636 C 291.542 65.017,292.970 66.111,294.400 67.066 C 298.729 69.957,302.110 72.415,303.865 73.947 C 304.780 74.746,306.580 76.262,307.865 77.317 C 319.868 87.168,327.529 94.797,334.332 103.673 C 335.410 105.079,336.606 106.852,336.992 107.614 C 337.378 108.376,338.399 109.947,339.262 111.104 C 340.126 112.261,341.182 114.024,341.610 115.022 C 342.037 116.020,342.845 117.437,343.405 118.171 C 343.965 118.905,344.974 120.652,345.648 122.053 C 346.322 123.454,347.210 124.964,347.620 125.408 C 348.031 125.853,348.932 127.463,349.623 128.987 C 350.314 130.511,351.316 132.330,351.851 133.031 C 352.385 133.731,353.250 135.395,353.772 136.729 C 354.295 138.063,355.354 140.199,356.127 141.477 C 356.899 142.755,357.832 144.869,358.199 146.176 C 358.566 147.483,359.469 149.749,360.205 151.211 C 360.942 152.673,361.834 155.024,362.189 156.435 C 362.543 157.846,363.461 160.845,364.228 163.100 C 368.632 176.048,368.644 231.952,364.246 246.647 C 363.712 248.429,362.891 251.823,362.421 254.189 C 361.924 256.689,361.071 259.470,360.387 260.826 C 359.739 262.110,358.829 264.565,358.366 266.280 C 357.903 267.996,356.900 270.529,356.137 271.909 C 355.375 273.289,354.397 275.449,353.964 276.709 C 353.531 277.969,352.562 279.928,351.810 281.062 C 351.058 282.195,350.154 283.815,349.801 284.662 C 349.449 285.508,348.475 287.280,347.639 288.600 C 346.802 289.920,345.627 291.810,345.028 292.800 C 343.294 295.667,340.464 299.592,336.800 304.212 C 334.930 306.571,332.996 309.063,332.503 309.750 C 332.009 310.438,331.287 311.270,330.898 311.600 C 330.508 311.930,328.673 313.820,326.818 315.800 C 319.999 323.081,309.368 331.962,302.065 336.479 C 300.891 337.206,299.141 338.380,298.177 339.088 C 297.213 339.797,295.294 340.947,293.912 341.644 C 292.530 342.342,290.860 343.323,290.200 343.825 C 289.540 344.326,288.100 345.094,287.000 345.530 C 285.900 345.966,283.920 346.976,282.600 347.775 C 281.280 348.575,279.348 349.481,278.308 349.790 C 277.267 350.099,275.287 350.976,273.908 351.738 C 272.528 352.500,269.996 353.503,268.280 353.966 C 266.565 354.429,264.081 355.353,262.762 356.019 C 261.409 356.702,258.583 357.592,256.281 358.060 C 254.037 358.516,251.030 359.330,249.600 359.869 C 246.058 361.204,243.126 361.839,237.000 362.599 C 234.140 362.953,229.910 363.589,227.600 364.013 C 217.587 365.847,203.108 365.998,193.638 364.366 C 191.087 363.926,185.920 363.134,182.157 362.606 C 177.846 362.001,174.219 361.249,172.357 360.574 C 170.730 359.985,167.150 358.924,164.400 358.216 C 161.650 357.507,158.500 356.469,157.400 355.909 C 156.300 355.349,154.050 354.492,152.400 354.003 C 150.750 353.515,148.320 352.525,147.000 351.803 C 145.680 351.081,143.678 350.193,142.551 349.830 C 141.425 349.467,139.445 348.531,138.151 347.750 C 136.858 346.970,134.775 345.913,133.522 345.402 C 132.268 344.891,130.648 344.023,129.922 343.471 C 129.195 342.920,127.546 342.005,126.259 341.438 C 124.971 340.871,123.081 339.798,122.059 339.054 C 121.036 338.310,119.390 337.292,118.400 336.793 C 117.410 336.293,116.060 335.481,115.400 334.987 C 114.740 334.493,113.210 333.594,112.000 332.988 C 110.790 332.382,109.250 331.467,108.578 330.955 C 107.906 330.443,106.466 329.633,105.378 329.155 C 104.290 328.677,102.671 327.788,101.779 327.178 C 100.888 326.569,99.076 325.546,97.753 324.906 C 96.431 324.265,94.530 323.178,93.530 322.489 C 92.529 321.801,90.921 320.923,89.955 320.538 C 85.521 318.769,78.464 313.283,73.910 308.066 C 68.550 301.924,68.129 301.409,66.646 299.200 C 64.919 296.626,62.995 293.827,60.952 290.921 C 60.148 289.778,59.156 288.094,58.747 287.180 C 58.337 286.266,57.462 284.836,56.802 284.003 C 56.142 283.169,55.094 281.252,54.473 279.743 C 53.851 278.235,52.873 276.318,52.298 275.483 C 51.724 274.649,50.952 273.029,50.583 271.883 C 50.214 270.738,49.304 268.673,48.561 267.294 C 47.817 265.916,46.748 263.148,46.184 261.142 C 45.620 259.135,44.648 256.483,44.025 255.247 C 43.388 253.984,42.518 251.121,42.039 248.710 C 41.571 246.351,40.646 242.952,39.984 241.158 C 39.095 238.745,38.570 236.163,37.972 231.247 C 37.526 227.591,36.808 222.080,36.376 219.000 C 34.684 206.938,34.680 192.791,36.366 180.200 C 36.808 176.900,37.455 171.410,37.805 168.000 C 38.545 160.800,38.473 161.177,40.229 155.200 C 40.972 152.670,41.859 148.820,42.199 146.645 C 42.571 144.274,43.311 141.569,44.049 139.888 C 44.726 138.346,45.725 135.278,46.270 133.070 C 46.815 130.862,47.767 128.053,48.385 126.828 C 49.003 125.603,49.902 123.277,50.383 121.661 C 50.864 120.044,52.054 117.172,53.029 115.279 C 54.003 113.386,54.800 111.541,54.800 111.180 C 54.800 110.819,55.530 109.394,56.423 108.013 C 57.315 106.633,58.332 104.760,58.683 103.851 C 59.034 102.943,59.993 101.300,60.815 100.200 C 61.636 99.100,62.685 97.451,63.144 96.536 C 63.603 95.621,64.706 94.032,65.595 93.005 C 66.484 91.978,67.467 90.644,67.779 90.040 C 68.092 89.436,68.659 88.685,69.040 88.371 C 69.422 88.057,70.250 87.089,70.881 86.221 C 74.321 81.485,91.076 65.761,95.400 63.210 C 96.280 62.691,97.720 61.692,98.600 60.990 C 99.480 60.289,101.006 59.304,101.992 58.802 C 102.977 58.301,104.418 57.380,105.194 56.757 C 105.970 56.134,107.717 55.171,109.078 54.619 C 110.438 54.066,112.398 53.076,113.434 52.420 C 114.469 51.763,116.235 50.925,117.358 50.557 C 118.481 50.189,120.619 49.279,122.109 48.534 C 123.599 47.790,126.336 46.820,128.191 46.380 C 130.046 45.939,133.260 44.964,135.335 44.214 C 137.782 43.327,141.122 42.545,144.853 41.982 C 148.014 41.506,152.236 40.693,154.236 40.176 C 159.016 38.940,161.774 38.537,169.000 38.018 C 176.712 37.465,181.392 36.940,187.600 35.931 C 197.056 34.395,208.133 34.192,217.717 35.381 M189.200 103.183 C 184.814 103.980,183.910 104.415,181.411 106.935 C 177.325 111.054,176.852 113.261,176.596 129.400 C 176.484 136.440,176.166 148.113,175.889 155.340 L 175.386 168.481 174.225 169.480 C 173.132 170.420,172.875 170.465,169.832 170.239 C 156.346 169.237,119.281 169.871,112.582 171.217 C 108.611 172.015,104.854 175.219,103.200 179.216 L 101.800 182.600 101.800 194.000 L 101.800 205.400 102.941 208.726 C 105.547 216.317,107.697 217.252,123.444 217.645 C 136.612 217.973,142.580 218.417,149.600 219.593 C 152.130 220.017,156.540 220.565,159.400 220.811 C 176.292 222.266,175.080 220.006,175.591 251.000 C 175.765 261.560,176.035 270.650,176.191 271.200 C 179.769 283.815,183.352 288.212,192.400 291.097 C 196.091 292.274,215.168 292.138,217.447 290.919 C 219.777 289.672,223.800 285.151,224.606 282.873 C 225.530 280.260,226.051 257.141,225.606 238.434 C 225.253 223.553,225.311 222.870,227.012 221.756 C 228.270 220.931,243.210 221.449,257.600 222.815 C 274.299 224.400,281.031 224.861,285.613 224.732 L 290.311 224.600 292.638 222.792 C 296.006 220.174,296.169 219.752,297.947 208.997 C 300.555 193.218,300.528 189.535,297.764 184.200 C 294.980 178.825,293.150 177.878,283.809 176.980 C 280.504 176.662,275.280 176.130,272.200 175.798 C 268.702 175.420,260.181 175.095,249.497 174.932 C 231.481 174.657,230.996 174.602,230.111 172.756 C 229.598 171.686,229.982 161.743,230.821 154.400 C 232.573 139.060,231.604 114.548,229.055 109.743 C 228.376 108.462,224.664 105.270,223.090 104.612 C 220.455 103.511,193.621 102.379,189.200 103.183 M213.600 105.160 C 221.603 105.513,222.368 105.760,225.843 109.106 C 227.672 110.868,227.935 111.340,228.363 113.636 C 229.425 119.335,229.588 147.781,228.624 159.200 C 228.503 160.630,228.374 164.484,228.337 167.764 L 228.270 173.728 229.505 174.831 C 231.071 176.230,231.230 176.246,250.000 176.775 C 261.202 177.090,266.354 177.401,270.347 178.002 C 273.287 178.445,279.155 179.058,283.385 179.364 C 293.222 180.077,293.796 180.319,295.518 184.486 C 297.807 190.022,298.107 192.980,297.017 199.248 C 296.696 201.091,296.078 206.006,295.644 210.169 C 294.747 218.757,294.648 218.999,291.170 221.089 C 288.155 222.900,286.735 222.997,277.113 222.045 C 266.925 221.038,258.343 220.557,240.272 219.978 C 221.876 219.389,223.347 218.011,223.969 235.244 C 224.479 249.405,224.496 261.295,224.019 271.963 L 223.672 279.726 222.167 282.691 C 219.069 288.794,215.905 290.403,207.021 290.392 C 195.584 290.378,188.328 288.356,184.122 284.011 C 179.200 278.927,178.374 274.582,177.997 251.800 C 177.741 236.365,177.661 235.047,176.641 229.400 C 175.091 220.824,175.002 220.739,166.724 219.821 C 163.748 219.491,158.992 218.776,156.156 218.233 C 147.883 216.647,143.977 216.348,127.639 216.051 C 110.198 215.733,110.905 215.859,107.317 212.437 C 104.389 209.644,104.200 208.539,104.200 194.200 C 104.200 178.234,104.410 177.576,110.500 174.459 C 115.353 171.976,116.334 171.905,147.310 171.784 C 180.512 171.655,177.491 172.570,178.041 162.478 C 178.722 149.989,179.200 134.999,179.200 126.165 C 179.200 117.346,179.523 113.504,180.467 111.097 C 181.179 109.280,185.375 105.673,187.104 105.391 C 187.927 105.257,188.870 105.090,189.200 105.020 C 190.403 104.765,206.784 104.860,213.600 105.160 " stroke="none" fill="#1c5c3c" fill-rule="evenodd"></path><path id="path5" d="M198.200 34.794 C 195.120 34.972,190.350 35.484,187.600 35.931 C 181.392 36.940,176.712 37.465,169.000 38.018 C 161.774 38.537,159.016 38.940,154.236 40.176 C 152.236 40.693,148.014 41.506,144.853 41.982 C 141.122 42.545,137.782 43.327,135.335 44.214 C 133.260 44.964,130.046 45.939,128.191 46.380 C 126.336 46.820,123.599 47.790,122.109 48.534 C 120.619 49.279,118.481 50.189,117.358 50.557 C 116.235 50.925,114.469 51.763,113.434 52.420 C 112.398 53.076,110.438 54.066,109.078 54.619 C 107.717 55.171,105.970 56.134,105.194 56.757 C 104.418 57.380,102.977 58.301,101.992 58.802 C 101.006 59.304,99.480 60.289,98.600 60.990 C 97.720 61.692,96.280 62.691,95.400 63.210 C 91.076 65.761,74.321 81.485,70.881 86.221 C 70.250 87.089,69.422 88.057,69.040 88.371 C 68.659 88.685,68.092 89.436,67.779 90.040 C 67.467 90.644,66.484 91.978,65.595 93.005 C 64.706 94.032,63.603 95.621,63.144 96.536 C 62.685 97.451,61.636 99.100,60.815 100.200 C 59.993 101.300,59.034 102.943,58.683 103.851 C 58.332 104.760,57.315 106.633,56.423 108.013 C 55.530 109.394,54.800 110.819,54.800 111.180 C 54.800 111.541,54.003 113.386,53.029 115.279 C 52.054 117.172,50.864 120.044,50.383 121.661 C 49.902 123.277,49.003 125.603,48.385 126.828 C 47.767 128.053,46.815 130.862,46.270 133.070 C 45.725 135.278,44.726 138.346,44.049 139.888 C 43.311 141.569,42.571 144.274,42.199 146.645 C 41.859 148.820,40.972 152.670,40.229 155.200 C 38.473 161.177,38.545 160.800,37.805 168.000 C 37.455 171.410,36.808 176.900,36.366 180.200 C 34.680 192.791,34.684 206.938,36.376 219.000 C 36.808 222.080,37.526 227.591,37.972 231.247 C 38.570 236.163,39.095 238.745,39.984 241.158 C 40.646 242.952,41.571 246.351,42.039 248.710 C 42.518 251.121,43.388 253.984,44.025 255.247 C 44.648 256.483,45.620 259.135,46.184 261.142 C 46.748 263.148,47.817 265.916,48.561 267.294 C 49.304 268.673,50.214 270.738,50.583 271.883 C 50.952 273.029,51.724 274.649,52.298 275.483 C 52.873 276.318,53.851 278.235,54.473 279.743 C 55.094 281.252,56.142 283.169,56.802 284.003 C 57.462 284.836,58.337 286.266,58.747 287.180 C 59.156 288.094,60.148 289.778,60.952 290.921 C 62.995 293.827,64.919 296.626,66.646 299.200 C 68.129 301.409,68.550 301.924,73.910 308.066 C 78.464 313.283,85.521 318.769,89.955 320.538 C 90.921 320.923,92.529 321.801,93.530 322.489 C 94.530 323.178,96.431 324.265,97.753 324.906 C 99.076 325.546,100.888 326.569,101.779 327.178 C 102.671 327.788,104.290 328.677,105.378 329.155 C 106.466 329.633,107.906 330.443,108.578 330.955 C 109.250 331.467,110.790 332.382,112.000 332.988 C 113.210 333.594,114.740 334.493,115.400 334.987 C 116.060 335.481,117.410 336.293,118.400 336.793 C 119.390 337.292,121.036 338.310,122.059 339.054 C 123.081 339.798,124.971 340.871,126.259 341.438 C 127.546 342.005,129.195 342.920,129.922 343.471 C 130.648 344.023,132.268 344.891,133.522 345.402 C 134.775 345.913,136.858 346.970,138.151 347.750 C 139.445 348.531,141.425 349.467,142.551 349.830 C 143.678 350.193,145.680 351.081,147.000 351.803 C 148.320 352.525,150.750 353.515,152.400 354.003 C 154.050 354.492,156.300 355.349,157.400 355.909 C 158.500 356.469,161.650 357.507,164.400 358.216 C 167.150 358.924,170.730 359.985,172.357 360.574 C 174.219 361.249,177.846 362.001,182.157 362.606 C 185.920 363.134,191.087 363.926,193.638 364.366 C 203.108 365.998,217.587 365.847,227.600 364.013 C 229.910 363.589,234.140 362.953,237.000 362.599 C 243.126 361.839,246.058 361.204,249.600 359.869 C 251.030 359.330,254.037 358.516,256.281 358.060 C 258.583 357.592,261.409 356.702,262.762 356.019 C 264.081 355.353,266.565 354.429,268.280 353.966 C 269.996 353.503,272.528 352.500,273.908 351.738 C 275.287 350.976,277.267 350.099,278.308 349.790 C 279.348 349.481,281.280 348.575,282.600 347.775 C 283.920 346.976,285.900 345.966,287.000 345.530 C 288.100 345.094,289.540 344.326,290.200 343.825 C 290.860 343.323,292.530 342.342,293.912 341.644 C 295.294 340.947,297.213 339.797,298.177 339.088 C 299.141 338.380,300.891 337.206,302.065 336.479 C 309.368 331.962,319.999 323.081,326.818 315.800 C 328.673 313.820,330.508 311.930,330.898 311.600 C 331.287 311.270,332.009 310.438,332.503 309.750 C 332.996 309.063,334.930 306.571,336.800 304.212 C 340.464 299.592,343.294 295.667,345.028 292.800 C 345.627 291.810,346.802 289.920,347.639 288.600 C 348.475 287.280,349.449 285.508,349.801 284.662 C 350.154 283.815,351.058 282.195,351.810 281.062 C 352.562 279.928,353.531 277.969,353.964 276.709 C 354.397 275.449,355.375 273.289,356.137 271.909 C 356.900 270.529,357.903 267.996,358.366 266.280 C 358.829 264.565,359.739 262.110,360.387 260.826 C 361.071 259.470,361.924 256.689,362.421 254.189 C 362.891 251.823,363.712 248.429,364.246 246.647 C 368.644 231.952,368.632 176.048,364.228 163.100 C 363.461 160.845,362.543 157.846,362.189 156.435 C 361.834 155.024,360.942 152.673,360.205 151.211 C 359.469 149.749,358.566 147.483,358.199 146.176 C 357.832 144.869,356.899 142.755,356.127 141.477 C 355.354 140.199,354.295 138.063,353.772 136.729 C 353.250 135.395,352.385 133.731,351.851 133.031 C 351.316 132.330,350.314 130.511,349.623 128.987 C 348.932 127.463,348.031 125.853,347.620 125.408 C 347.210 124.964,346.322 123.454,345.648 122.053 C 344.974 120.652,343.965 118.905,343.405 118.171 C 342.845 117.437,342.037 116.020,341.610 115.022 C 341.182 114.024,340.126 112.261,339.262 111.104 C 338.399 109.947,337.378 108.376,336.992 107.614 C 333.789 101.285,321.526 88.529,307.865 77.317 C 306.580 76.262,304.780 74.746,303.865 73.947 C 302.110 72.415,298.729 69.957,294.400 67.066 C 292.970 66.111,291.542 65.017,291.227 64.636 C 290.911 64.254,289.921 63.570,289.027 63.117 C 288.132 62.663,286.807 61.775,286.083 61.143 C 285.358 60.511,283.648 59.430,282.283 58.741 C 280.917 58.052,279.260 57.083,278.600 56.588 C 277.940 56.093,276.230 55.103,274.800 54.388 C 273.370 53.673,271.643 52.663,270.962 52.144 C 270.281 51.624,268.676 50.839,267.394 50.398 C 266.113 49.957,264.240 49.078,263.232 48.445 C 262.225 47.811,260.410 46.977,259.200 46.590 C 257.990 46.204,255.618 45.197,253.928 44.353 C 252.204 43.492,249.280 42.475,247.266 42.036 C 245.292 41.605,242.801 40.809,241.731 40.267 C 239.181 38.974,237.534 38.554,232.000 37.783 C 229.470 37.430,226.233 36.871,224.806 36.540 C 218.031 34.970,207.307 34.266,198.200 34.794 M218.200 36.634 C 221.940 37.170,227.668 37.963,230.930 38.395 C 235.750 39.035,237.433 39.438,239.930 40.554 C 241.618 41.308,244.440 42.212,246.200 42.562 C 247.960 42.913,250.480 43.758,251.800 44.442 C 253.120 45.125,255.640 46.179,257.400 46.785 C 259.160 47.390,261.500 48.459,262.600 49.159 C 263.700 49.859,265.529 50.703,266.665 51.034 C 267.801 51.366,269.449 52.157,270.328 52.794 C 271.206 53.430,273.067 54.527,274.462 55.231 C 275.858 55.936,277.540 56.917,278.200 57.411 C 278.860 57.906,280.390 58.806,281.600 59.412 C 282.810 60.017,284.520 61.096,285.400 61.808 C 286.280 62.521,287.720 63.466,288.600 63.909 C 289.480 64.352,290.548 65.100,290.973 65.570 C 291.399 66.040,292.683 66.961,293.827 67.615 C 294.970 68.270,296.152 69.104,296.453 69.469 C 296.754 69.834,297.990 70.763,299.200 71.534 C 300.410 72.305,302.266 73.670,303.324 74.568 C 305.935 76.782,308.918 79.291,312.635 82.400 C 316.577 85.698,327.993 97.063,330.522 100.209 C 334.120 104.685,336.068 107.397,337.013 109.243 C 337.531 110.257,338.419 111.637,338.986 112.310 C 339.552 112.984,340.394 114.389,340.856 115.434 C 341.318 116.478,342.484 118.484,343.448 119.892 C 344.412 121.299,345.200 122.689,345.200 122.980 C 345.200 123.272,345.857 124.466,346.661 125.634 C 347.464 126.802,348.617 128.847,349.222 130.179 C 349.827 131.510,350.718 133.103,351.203 133.717 C 351.688 134.331,352.690 136.291,353.430 138.071 C 354.169 139.852,355.029 141.600,355.339 141.955 C 356.233 142.977,357.019 144.794,357.780 147.600 C 358.169 149.030,359.083 151.280,359.812 152.600 C 360.541 153.920,361.516 156.620,361.978 158.600 C 362.439 160.580,363.353 163.757,364.007 165.659 C 367.118 174.707,367.564 228.935,364.627 241.149 C 364.329 242.387,363.714 244.750,363.259 246.400 C 362.805 248.050,362.148 251.110,361.800 253.200 C 361.384 255.695,360.700 257.962,359.808 259.800 C 359.061 261.340,358.082 264.058,357.632 265.840 C 357.182 267.623,356.186 270.123,355.419 271.397 C 354.651 272.671,353.750 274.656,353.415 275.807 C 353.080 276.959,352.173 278.822,351.398 279.948 C 350.624 281.073,349.623 282.927,349.174 284.067 C 348.724 285.207,347.850 286.783,347.232 287.570 C 346.613 288.356,345.699 289.810,345.202 290.800 C 344.705 291.790,343.511 293.653,342.549 294.940 C 341.587 296.226,340.800 297.435,340.800 297.626 C 340.800 297.817,340.035 298.859,339.100 299.942 C 338.165 301.024,336.320 303.314,335.000 305.029 C 332.028 308.891,323.643 318.180,321.665 319.801 C 320.859 320.461,319.655 321.541,318.990 322.201 C 317.177 323.997,310.614 329.341,307.080 331.900 C 306.244 332.505,304.697 333.657,303.642 334.460 C 302.587 335.263,300.931 336.324,299.962 336.818 C 298.993 337.311,297.474 338.309,296.587 339.034 C 295.700 339.760,294.080 340.737,292.987 341.205 C 291.895 341.674,290.406 342.511,289.679 343.065 C 288.952 343.620,287.298 344.504,286.003 345.030 C 284.708 345.556,282.802 346.524,281.766 347.180 C 280.731 347.837,278.965 348.670,277.842 349.031 C 276.719 349.392,274.526 350.376,272.968 351.217 C 271.411 352.058,268.680 353.108,266.899 353.552 C 265.119 353.995,262.547 354.920,261.185 355.608 C 259.642 356.387,257.130 357.157,254.519 357.652 C 252.215 358.089,248.950 358.954,247.265 359.575 C 243.445 360.982,241.035 361.470,235.200 362.018 C 232.670 362.256,228.350 362.791,225.600 363.208 C 214.046 364.960,202.771 364.961,193.200 363.213 C 191.990 362.992,187.828 362.455,183.951 362.021 C 178.713 361.434,176.195 360.961,174.151 360.177 C 170.451 358.759,169.620 358.515,165.204 357.547 C 163.117 357.089,160.407 356.209,159.183 355.592 C 157.960 354.974,155.888 354.171,154.579 353.808 C 151.286 352.893,150.081 352.410,148.000 351.170 C 147.010 350.580,145.010 349.709,143.557 349.235 C 142.103 348.761,140.067 347.836,139.032 347.179 C 137.997 346.523,136.037 345.536,134.676 344.984 C 133.314 344.433,131.480 343.471,130.600 342.847 C 129.720 342.222,128.354 341.480,127.564 341.198 C 126.774 340.916,125.424 340.177,124.564 339.556 C 123.704 338.935,121.920 337.857,120.600 337.162 C 119.280 336.466,117.570 335.403,116.800 334.800 C 116.030 334.197,114.320 333.159,113.000 332.494 C 111.680 331.829,109.637 330.636,108.460 329.843 C 107.283 329.049,106.086 328.400,105.800 328.400 C 105.514 328.400,104.317 327.745,103.140 326.945 C 101.963 326.146,100.010 325.050,98.800 324.511 C 97.590 323.972,96.008 323.082,95.285 322.533 C 94.561 321.985,92.761 320.989,91.285 320.320 C 89.808 319.652,87.970 318.619,87.200 318.026 C 86.430 317.433,84.900 316.434,83.800 315.806 C 78.869 312.992,70.367 303.591,64.510 294.473 C 63.899 293.523,62.632 291.694,61.694 290.409 C 60.755 289.125,59.636 287.279,59.206 286.308 C 58.777 285.337,57.887 283.864,57.228 283.035 C 56.570 282.207,55.653 280.520,55.192 279.287 C 54.731 278.053,53.739 276.045,52.989 274.822 C 52.238 273.600,51.264 271.430,50.823 270.000 C 50.382 268.570,49.600 266.770,49.084 266.000 C 47.941 264.292,47.427 262.979,46.579 259.600 C 46.220 258.170,45.320 255.740,44.578 254.200 C 43.698 252.371,43.013 250.082,42.602 247.600 C 42.256 245.510,41.359 241.998,40.608 239.795 C 39.244 235.792,38.930 233.886,37.779 222.600 C 35.628 201.500,35.592 197.948,37.352 180.400 C 37.915 174.790,38.553 168.394,38.771 166.188 C 39.015 163.707,39.693 160.494,40.547 157.769 C 41.307 155.346,42.229 151.301,42.595 148.782 C 43.075 145.491,43.641 143.355,44.607 141.200 C 45.347 139.550,46.321 136.507,46.772 134.439 C 47.222 132.370,48.214 129.400,48.975 127.839 C 49.736 126.277,50.651 123.830,51.009 122.400 C 51.367 120.970,52.288 118.671,53.055 117.291 C 53.822 115.911,54.802 113.751,55.234 112.491 C 55.665 111.231,56.546 109.461,57.192 108.559 C 57.837 107.656,58.747 105.946,59.214 104.759 C 59.681 103.571,60.748 101.700,61.584 100.600 C 62.421 99.500,63.422 97.970,63.808 97.200 C 64.195 96.430,65.167 94.990,65.969 94.000 C 66.772 93.010,67.920 91.480,68.520 90.600 C 72.443 84.854,81.196 75.994,92.296 66.533 C 93.372 65.617,95.230 64.290,96.426 63.586 C 97.622 62.881,99.190 61.787,99.911 61.155 C 100.632 60.522,101.960 59.629,102.861 59.169 C 103.762 58.709,105.193 57.831,106.040 57.217 C 106.888 56.603,108.615 55.681,109.879 55.168 C 111.142 54.655,113.171 53.636,114.388 52.903 C 115.605 52.171,117.708 51.228,119.063 50.810 C 120.418 50.391,122.641 49.486,124.005 48.798 C 125.368 48.109,128.126 47.188,130.134 46.750 C 132.142 46.311,135.048 45.450,136.592 44.835 C 140.077 43.447,142.298 42.944,147.400 42.388 C 149.600 42.148,154.010 41.340,157.200 40.592 C 160.759 39.758,165.009 39.077,168.200 38.829 C 171.060 38.607,175.996 38.226,179.169 37.982 C 182.342 37.738,186.572 37.267,188.569 36.936 C 199.425 35.132,207.166 35.053,218.200 36.634 M192.400 101.872 C 183.923 102.746,180.157 105.177,177.327 111.604 L 175.831 115.000 175.518 129.600 C 174.736 166.086,174.660 167.850,173.835 168.762 C 172.896 169.799,170.755 169.849,163.600 169.000 C 157.117 168.231,143.571 168.229,133.349 168.996 C 128.977 169.325,122.313 169.758,118.539 169.960 C 108.657 170.490,105.564 172.201,102.361 178.910 L 100.600 182.600 100.600 194.200 L 100.600 205.800 102.348 209.710 C 105.725 217.263,107.319 217.946,122.686 218.421 C 133.886 218.767,137.601 219.064,147.600 220.418 C 150.790 220.850,157.034 221.463,161.476 221.781 C 175.153 222.760,174.331 220.926,174.759 251.400 L 175.045 271.800 176.075 274.600 C 176.642 276.140,177.532 278.552,178.053 279.961 C 179.867 284.865,186.843 290.816,192.200 292.028 C 199.003 293.568,216.944 292.821,219.353 290.898 C 226.368 285.299,226.154 286.516,226.194 252.057 C 226.228 224.077,226.254 223.096,226.991 222.557 C 228.459 221.484,238.394 221.902,256.400 223.794 C 276.207 225.875,288.790 226.200,291.500 224.700 C 295.684 222.385,296.460 221.139,297.983 214.285 C 300.505 202.935,301.428 190.547,300.045 186.628 C 296.336 176.118,290.797 174.803,247.452 174.142 C 228.495 173.853,230.165 174.515,230.573 167.446 C 230.727 164.781,231.120 160.350,231.445 157.600 C 231.771 154.850,232.212 151.107,232.425 149.283 C 232.971 144.606,232.996 127.434,232.464 122.288 C 231.341 111.432,229.228 106.787,224.189 104.100 C 222.314 103.100,197.415 101.355,192.400 101.872 M216.556 103.636 C 225.340 104.317,228.730 106.848,230.174 113.800 C 231.930 122.258,232.244 141.940,230.821 154.400 C 229.982 161.743,229.598 171.686,230.111 172.756 C 230.996 174.602,231.481 174.657,249.497 174.932 C 260.181 175.095,268.702 175.420,272.200 175.798 C 275.280 176.130,280.504 176.662,283.809 176.980 C 293.150 177.878,294.980 178.825,297.764 184.200 C 300.528 189.535,300.555 193.218,297.947 208.997 C 296.169 219.752,296.006 220.174,292.638 222.792 L 290.311 224.600 285.613 224.732 C 281.031 224.861,274.299 224.400,257.600 222.815 C 243.210 221.449,228.270 220.931,227.012 221.756 C 225.311 222.870,225.253 223.553,225.606 238.434 C 226.051 257.141,225.530 280.260,224.606 282.873 C 223.800 285.151,219.777 289.672,217.447 290.919 C 215.168 292.138,196.091 292.274,192.400 291.097 C 183.352 288.212,179.769 283.815,176.191 271.200 C 176.035 270.650,175.765 261.560,175.591 251.000 C 175.080 220.006,176.292 222.266,159.400 220.811 C 156.540 220.565,152.130 220.017,149.600 219.593 C 142.580 218.417,136.612 217.973,123.444 217.645 C 107.697 217.252,105.547 216.317,102.941 208.726 L 101.800 205.400 101.800 194.000 L 101.800 182.600 103.200 179.216 C 104.854 175.219,108.611 172.015,112.582 171.217 C 119.281 169.871,156.346 169.237,169.832 170.239 C 172.875 170.465,173.132 170.420,174.225 169.480 L 175.386 168.481 175.889 155.340 C 176.166 148.113,176.484 136.440,176.596 129.400 C 176.852 113.261,177.325 111.054,181.411 106.935 C 183.910 104.415,184.814 103.980,189.200 103.183 C 191.390 102.785,209.439 103.084,216.556 103.636 M190.510 111.588 C 186.076 112.642,184.546 116.527,185.032 125.498 C 185.172 128.084,185.090 134.250,184.850 139.200 C 184.609 144.150,184.304 153.690,184.170 160.400 C 183.898 174.101,183.612 176.968,182.394 178.179 C 181.391 179.177,175.204 179.246,165.600 178.367 C 153.216 177.233,116.536 178.346,113.810 179.938 C 110.480 181.883,109.504 185.983,109.842 196.600 C 110.245 209.255,109.942 209.024,126.600 209.383 C 137.378 209.615,144.239 210.188,152.800 211.569 C 155.550 212.013,160.230 212.565,163.200 212.796 C 175.523 213.754,176.945 214.093,179.138 216.591 C 183.040 221.035,184.073 228.566,184.032 252.261 C 184.004 268.269,184.120 269.529,186.094 274.726 C 188.762 281.751,192.538 283.541,204.946 283.666 C 216.427 283.781,216.923 283.286,217.032 271.600 L 217.102 264.200 216.836 271.400 C 216.403 283.163,215.440 283.932,202.047 283.215 C 192.935 282.726,189.114 280.838,187.099 275.827 C 184.664 269.772,184.645 269.597,184.600 252.200 C 184.524 223.286,182.576 215.046,175.486 213.636 C 174.339 213.408,170.128 212.944,166.129 212.605 C 162.131 212.266,156.281 211.550,153.129 211.014 C 144.982 209.629,139.788 209.224,126.600 208.942 C 110.053 208.589,110.698 209.127,110.469 195.493 C 110.258 182.915,111.424 180.240,117.400 179.585 C 128.770 178.339,152.563 178.096,168.852 179.060 C 184.845 180.006,183.958 180.635,184.443 168.000 C 185.288 146.026,185.611 134.705,185.606 127.320 C 185.594 111.274,185.554 111.305,205.750 111.958 C 221.179 112.458,221.029 112.391,222.041 119.223 C 222.780 124.215,222.668 146.302,221.855 156.000 C 221.495 160.290,221.226 164.970,221.258 166.400 C 221.299 168.248,221.408 167.612,221.633 164.200 C 221.808 161.560,222.137 157.690,222.364 155.600 C 224.703 134.064,223.365 114.508,219.424 112.638 C 217.266 111.614,193.963 110.768,190.510 111.588 M220.954 174.892 C 221.015 182.723,221.212 182.976,227.308 183.049 L 231.400 183.098 227.600 182.849 C 221.578 182.454,221.546 182.414,221.175 174.600 L 220.908 169.000 220.954 174.892 M248.600 183.625 C 259.292 183.821,266.524 184.143,270.400 184.595 C 273.590 184.967,278.450 185.499,281.200 185.776 C 291.406 186.806,292.532 189.609,289.404 206.200 C 287.348 217.108,288.675 216.526,269.645 214.863 C 261.590 214.159,252.480 213.506,249.400 213.412 L 243.800 213.242 250.600 213.788 C 254.340 214.088,261.270 214.705,266.000 215.158 C 287.653 217.231,287.786 217.199,289.344 209.580 C 292.352 194.869,292.200 189.146,288.745 186.965 C 285.197 184.726,266.507 183.171,244.400 183.276 L 232.600 183.332 248.600 183.625 M220.036 212.367 C 216.293 213.012,216.248 213.252,216.724 230.258 L 217.114 244.200 217.057 229.468 L 217.000 214.737 218.122 213.768 C 219.366 212.695,223.867 212.552,237.701 213.147 C 240.946 213.286,243.601 213.291,243.601 213.159 C 243.600 213.026,239.505 212.794,234.500 212.643 C 229.495 212.492,224.590 212.300,223.600 212.216 C 222.610 212.132,221.006 212.200,220.036 212.367 M217.373 254.200 C 217.373 259.700,217.430 262.005,217.499 259.323 C 217.568 256.641,217.568 252.141,217.499 249.323 C 217.430 246.505,217.374 248.700,217.373 254.200 " stroke="none" fill="#3c6d58" fill-rule="evenodd"></path><path id="path6" d="M190.800 109.834 C 187.896 110.602,185.628 112.227,184.405 114.418 C 183.301 116.394,183.372 114.664,182.495 160.936 L 182.200 176.471 181.200 177.287 C 180.004 178.262,172.750 178.079,166.000 176.902 C 160.452 175.936,139.693 175.941,129.600 176.912 C 125.530 177.303,120.170 177.770,117.689 177.950 C 109.439 178.548,108.260 180.466,108.069 193.600 C 107.830 209.910,108.257 210.360,124.400 210.826 C 131.457 211.029,136.999 211.454,144.200 212.342 C 149.700 213.021,157.600 213.765,161.756 213.996 C 175.072 214.736,177.442 215.676,179.935 221.208 C 182.004 225.798,182.082 226.705,182.392 249.600 C 182.568 262.595,182.845 271.471,183.098 272.200 C 186.677 282.518,190.402 284.753,204.200 284.865 C 214.576 284.950,216.244 284.469,217.624 281.000 C 218.515 278.760,218.896 258.026,218.437 236.721 C 218.006 216.701,218.029 215.974,219.123 214.700 C 220.292 213.338,237.255 213.877,252.800 215.770 C 264.920 217.246,282.038 218.325,285.379 217.824 C 289.987 217.133,292.198 210.942,292.684 197.366 C 293.213 182.585,293.229 182.591,248.182 182.066 C 223.051 181.773,223.753 181.850,222.738 179.279 C 222.036 177.498,222.628 165.463,223.762 158.497 C 227.070 138.167,225.552 114.257,220.796 111.798 C 217.379 110.031,195.479 108.597,190.800 109.834 M208.520 111.584 C 219.748 112.006,220.536 112.231,221.695 115.344 C 223.748 120.860,223.888 140.790,222.006 159.600 C 221.284 166.811,221.038 178.497,221.574 180.120 C 222.486 182.883,222.039 182.825,245.345 183.231 C 256.815 183.431,267.820 183.759,269.800 183.960 C 271.780 184.162,275.650 184.532,278.400 184.783 C 292.692 186.087,293.686 188.340,289.344 209.580 C 287.789 217.185,287.620 217.225,266.134 215.181 C 261.550 214.745,255.370 214.215,252.400 214.003 C 249.430 213.791,245.830 213.531,244.400 213.425 C 235.049 212.730,219.626 212.691,218.607 213.359 C 216.717 214.597,216.703 214.845,217.202 237.000 C 217.789 263.018,217.402 278.072,216.081 280.650 C 214.701 283.341,213.197 283.749,204.946 283.666 C 192.538 283.541,188.762 281.751,186.094 274.726 C 184.120 269.529,184.004 268.269,184.032 252.261 C 184.073 228.566,183.040 221.035,179.138 216.591 C 176.945 214.093,175.523 213.754,163.200 212.796 C 160.230 212.565,155.550 212.013,152.800 211.569 C 144.239 210.188,137.378 209.615,126.600 209.383 C 109.942 209.024,110.245 209.255,109.842 196.600 C 109.504 185.983,110.480 181.883,113.810 179.938 C 116.536 178.346,153.216 177.233,165.600 178.367 C 175.204 179.246,181.391 179.177,182.394 178.179 C 183.612 176.968,183.898 174.101,184.170 160.400 C 184.304 153.690,184.609 144.150,184.850 139.200 C 185.090 134.250,185.172 128.084,185.032 125.498 C 184.267 111.377,185.386 110.714,208.520 111.584 " stroke="none" fill="#444c4c" fill-rule="evenodd"></path><path id="path7" d="M191.000 112.026 C 186.512 112.772,185.597 115.365,185.606 127.320 C 185.611 134.705,185.288 146.026,184.443 168.000 C 183.958 180.635,184.845 180.006,168.852 179.060 C 152.563 178.096,128.770 178.339,117.400 179.585 C 111.424 180.240,110.258 182.915,110.469 195.493 C 110.698 209.127,110.053 208.589,126.600 208.942 C 139.788 209.224,144.982 209.629,153.129 211.014 C 156.281 211.550,162.131 212.266,166.129 212.605 C 181.075 213.872,181.933 214.742,183.873 230.600 C 184.405 234.957,184.567 239.750,184.600 252.200 C 184.645 269.597,184.664 269.772,187.099 275.827 C 189.114 280.838,192.935 282.726,202.047 283.215 C 211.350 283.713,214.224 283.083,215.701 280.221 C 217.025 277.654,217.391 263.181,216.794 236.967 C 216.354 217.659,216.368 215.622,216.952 214.493 C 218.336 211.817,218.522 211.809,246.800 213.195 C 251.310 213.416,261.590 214.170,269.645 214.870 C 288.676 216.524,287.348 217.107,289.404 206.200 C 292.549 189.524,291.433 186.810,281.000 185.757 C 278.140 185.468,273.460 184.953,270.600 184.612 C 267.138 184.199,258.563 183.862,244.943 183.602 C 223.990 183.203,223.175 183.133,221.800 181.600 C 220.747 180.428,220.758 169.196,221.824 156.200 C 222.692 145.612,222.814 124.498,222.038 119.223 C 221.043 112.462,221.026 112.454,206.836 111.981 C 194.609 111.574,193.708 111.576,191.000 112.026 M218.051 114.320 C 218.677 114.572,219.300 115.281,219.591 116.071 C 220.760 119.250,220.437 158.940,219.130 172.684 C 218.421 180.135,219.467 183.532,222.721 184.354 C 223.535 184.559,231.130 184.932,239.600 185.183 C 256.988 185.698,264.447 186.149,269.780 187.007 C 271.802 187.332,276.162 187.758,279.469 187.954 C 289.381 188.539,289.255 188.271,287.285 204.623 C 286.177 213.813,286.109 213.892,279.867 213.236 C 273.103 212.524,264.112 212.040,249.600 211.605 C 242.010 211.377,232.753 210.903,229.028 210.551 C 213.585 209.092,213.735 208.809,215.222 236.600 C 215.779 247.006,215.483 274.551,214.789 276.938 C 214.543 277.784,213.738 279.134,212.999 279.938 L 211.657 281.400 205.128 281.369 C 198.185 281.337,196.740 281.022,191.679 278.440 C 187.928 276.526,187.557 274.392,187.190 252.600 C 186.955 238.643,186.774 234.872,186.230 232.600 C 185.862 231.060,185.220 227.363,184.803 224.385 C 183.305 213.684,181.539 212.138,169.800 211.251 C 166.886 211.031,162.223 210.322,159.193 209.639 C 152.033 208.025,147.413 207.662,129.864 207.340 C 112.535 207.022,113.746 207.366,113.140 202.594 C 111.901 192.851,113.166 182.873,115.792 181.676 C 118.779 180.315,168.516 179.915,175.890 181.193 C 181.536 182.171,184.907 180.560,186.224 176.256 C 186.942 173.910,187.438 161.613,187.952 133.400 C 188.287 114.981,188.285 115.002,190.160 114.143 C 191.677 113.449,216.275 113.604,218.051 114.320 " stroke="none" fill="#7c8484" fill-rule="evenodd"></path><path id="path8" d="" stroke="none" fill="#60d060" fill-rule="evenodd"></path></g></svg>