<svg id="svg" version="1.1" xmlns="http://www.w3.org/2000/svg" xmlns:xlink="http://www.w3.org/1999/xlink" width="400" height="400" viewBox="0, 0, 400,400"><g id="svgg"><path id="path0" d="M233.000 24.254 C 232.340 24.327,229.640 24.592,227.000 24.842 C 224.360 25.091,221.930 25.343,221.600 25.401 C 221.270 25.459,220.053 25.635,218.895 25.791 C 213.435 26.531,209.598 28.442,208.053 31.192 C 207.050 32.976,205.574 33.586,202.200 33.610 C 195.334 33.660,189.572 35.685,189.138 38.200 C 189.062 38.640,188.820 39.132,188.600 39.294 C 188.356 39.473,188.404 39.590,188.724 39.594 C 189.012 39.597,189.144 39.768,189.017 39.973 C 188.015 41.594,195.716 42.153,200.768 40.825 C 203.961 39.986,206.698 38.309,207.497 36.702 C 208.704 34.277,209.454 34.200,232.000 34.200 C 255.230 34.200,259.105 34.688,265.081 38.365 C 266.179 39.041,269.401 40.335,272.239 41.242 C 278.597 43.272,280.111 44.013,282.400 46.212 C 283.390 47.164,285.820 48.868,287.800 50.000 C 289.780 51.131,292.300 52.916,293.400 53.965 C 294.500 55.014,296.816 57.009,298.546 58.399 C 304.539 63.214,313.961 73.269,317.099 78.200 C 318.079 79.740,319.842 81.990,321.016 83.200 C 322.189 84.410,323.627 86.390,324.210 87.600 C 326.461 92.274,327.049 93.270,328.519 94.908 C 330.268 96.856,332.416 101.123,333.398 104.600 C 334.300 107.794,335.419 110.216,337.000 112.400 C 339.732 116.174,340.214 117.779,342.160 129.600 C 344.667 144.824,344.752 146.933,343.208 155.400 C 340.346 171.095,340.183 171.665,337.783 174.334 C 336.701 175.538,335.078 178.259,333.569 181.400 C 331.460 185.790,330.681 186.963,328.024 189.754 C 326.323 191.539,324.187 194.021,323.277 195.268 C 322.366 196.516,320.897 197.944,320.011 198.442 C 319.125 198.940,318.400 199.494,318.400 199.674 C 318.400 199.853,318.170 200.000,317.888 200.000 C 317.607 200.000,316.212 201.179,314.788 202.621 C 311.617 205.833,309.143 207.510,305.104 209.186 C 302.131 210.420,301.343 211.004,298.526 214.053 C 297.032 215.670,294.440 216.439,287.239 217.403 C 277.802 218.666,274.019 220.821,277.378 223.022 C 280.905 225.333,291.529 225.432,297.380 223.208 C 297.927 223.000,299.444 221.847,300.749 220.647 C 302.856 218.710,303.590 218.319,307.262 217.174 C 312.606 215.508,313.970 214.801,316.728 212.267 C 317.977 211.119,320.170 209.511,321.600 208.694 C 326.509 205.890,339.078 192.727,342.316 187.000 C 343.435 185.020,344.986 182.731,345.762 181.913 C 348.418 179.115,348.867 177.862,353.031 161.600 C 353.172 161.050,353.846 158.890,354.529 156.800 C 356.172 151.773,356.393 140.022,354.924 135.800 C 353.679 132.223,352.136 126.682,351.193 122.400 C 349.399 114.258,347.565 109.287,345.152 106.020 C 344.738 105.459,343.528 102.840,342.463 100.200 C 339.979 94.042,339.600 93.334,337.433 90.795 C 336.442 89.634,335.040 87.416,334.316 85.866 C 331.973 80.847,331.014 79.242,328.961 76.900 C 327.852 75.635,326.022 73.158,324.896 71.396 C 323.769 69.635,321.853 67.335,320.638 66.286 C 319.423 65.237,317.766 63.381,316.957 62.161 C 316.147 60.941,314.665 59.281,313.662 58.472 C 311.723 56.906,310.861 56.075,308.000 53.012 C 307.010 51.953,305.210 50.357,304.000 49.466 C 302.790 48.574,300.720 46.755,299.400 45.422 C 298.080 44.090,296.280 42.644,295.400 42.210 C 293.116 41.082,290.797 39.576,289.353 38.284 C 286.763 35.966,284.516 34.804,278.000 32.412 C 276.130 31.725,273.691 30.563,272.579 29.830 C 267.277 26.332,264.413 25.611,251.000 24.398 C 246.938 24.031,235.798 23.942,233.000 24.254 M223.971 41.628 C 219.424 42.111,216.008 43.012,212.794 44.576 C 209.177 46.336,205.490 47.616,199.600 49.155 C 193.573 50.730,192.284 51.302,190.052 53.390 C 188.888 54.479,186.334 56.039,183.260 57.539 C 179.665 59.293,177.720 60.526,176.066 62.102 C 174.820 63.290,172.810 64.923,171.600 65.730 C 168.167 68.020,159.611 77.281,157.272 81.237 C 156.178 83.087,154.809 85.110,154.230 85.733 C 151.596 88.567,150.364 91.064,148.175 98.000 C 146.960 101.850,145.543 105.900,145.026 107.000 C 141.748 113.982,141.757 129.329,145.045 135.687 C 146.053 137.637,147.475 142.046,148.599 146.710 C 150.406 154.209,150.757 155.093,153.219 158.361 C 154.511 160.076,156.390 163.189,157.393 165.278 C 158.519 167.626,160.225 170.285,161.855 172.239 C 163.306 173.977,165.352 176.660,166.401 178.200 C 168.812 181.740,169.368 182.222,174.000 184.793 C 176.090 185.954,178.629 187.673,179.643 188.614 C 181.944 190.750,183.584 191.592,188.616 193.217 C 193.162 194.686,194.900 195.499,197.536 197.391 C 199.954 199.126,201.402 199.662,208.400 201.411 C 212.721 202.491,215.424 203.452,219.000 205.183 C 225.514 208.335,228.409 209.151,236.800 210.200 C 238.010 210.352,242.060 211.017,245.800 211.678 C 249.540 212.340,253.770 213.061,255.200 213.282 C 258.178 213.740,265.737 213.496,268.400 212.856 C 269.390 212.619,274.325 211.685,279.367 210.781 C 289.760 208.919,292.184 208.145,295.708 205.561 C 298.498 203.516,299.881 202.746,304.822 200.488 C 307.459 199.284,308.591 198.501,309.758 197.078 C 310.590 196.062,312.204 194.611,313.344 193.855 C 314.484 193.098,316.223 191.578,317.208 190.478 C 320.564 186.730,321.085 186.200,322.842 184.753 C 323.992 183.806,325.358 181.965,326.791 179.431 C 328.020 177.257,329.558 175.117,330.294 174.555 C 338.140 168.571,338.217 125.208,330.400 115.200 C 328.857 113.225,327.883 111.179,326.248 106.483 C 324.449 101.315,324.318 101.076,321.753 98.291 C 320.512 96.944,318.788 94.350,317.612 92.061 C 316.483 89.863,314.543 86.922,313.198 85.370 C 311.878 83.846,310.137 81.520,309.329 80.200 C 305.933 74.651,291.664 60.589,286.600 57.800 C 283.189 55.921,280.701 54.277,278.661 52.556 C 276.915 51.082,273.986 49.807,268.200 48.002 C 266.000 47.316,262.717 46.034,260.905 45.153 C 253.424 41.517,238.464 40.089,223.971 41.628 M178.819 43.268 C 177.234 43.723,175.135 45.354,174.710 46.460 C 174.274 47.595,173.911 51.063,174.279 50.576 C 174.456 50.343,176.038 49.934,177.796 49.667 C 182.572 48.940,185.569 47.117,185.591 44.923 C 185.610 43.053,182.347 42.256,178.819 43.268 M251.071 43.951 C 252.870 44.404,256.057 45.488,258.154 46.360 C 260.250 47.233,264.538 48.765,267.683 49.766 C 273.229 51.530,274.889 52.358,279.859 55.841 C 281.146 56.743,283.640 58.344,285.400 59.398 C 287.160 60.452,289.952 62.594,291.604 64.157 C 293.256 65.721,295.326 67.651,296.204 68.446 C 299.507 71.438,305.962 78.736,308.547 82.400 C 310.022 84.490,312.019 87.173,312.985 88.363 C 313.951 89.553,315.700 92.225,316.871 94.301 C 318.042 96.377,319.557 98.734,320.238 99.538 C 322.366 102.051,323.426 104.049,325.154 108.800 C 326.074 111.330,327.708 114.852,328.785 116.627 C 331.659 121.365,332.708 124.894,333.594 132.800 C 335.789 152.408,334.139 165.771,328.629 172.990 C 327.838 174.026,326.716 175.712,326.137 176.737 C 325.558 177.762,324.615 179.343,324.042 180.251 C 322.761 182.280,315.723 189.641,313.000 191.799 C 311.900 192.671,309.946 194.341,308.658 195.510 C 307.118 196.908,304.650 198.469,301.458 200.066 C 298.786 201.402,295.408 203.293,293.951 204.267 C 289.683 207.120,286.039 208.116,272.000 210.265 C 265.959 211.190,255.353 211.207,249.600 210.301 C 247.290 209.937,242.610 209.261,239.200 208.797 C 230.301 207.589,226.980 206.711,221.874 204.219 C 219.050 202.841,215.629 201.569,212.600 200.772 C 204.278 198.582,202.681 198.008,199.400 196.030 C 196.552 194.313,189.188 191.200,187.973 191.200 C 187.118 191.200,182.982 188.790,180.883 187.068 C 179.737 186.128,177.404 184.573,175.700 183.612 C 171.417 181.200,169.905 179.943,168.204 177.379 C 167.398 176.165,165.401 173.512,163.767 171.485 C 162.108 169.426,159.784 165.860,158.500 163.403 C 157.237 160.984,155.439 157.889,154.504 156.524 C 152.341 153.365,151.479 151.151,149.797 144.429 C 149.049 141.443,148.050 137.650,147.576 136.000 C 143.986 123.506,143.887 118.253,147.048 107.920 C 147.809 105.434,149.065 101.257,149.839 98.638 C 151.516 92.968,152.202 91.549,155.179 87.600 C 156.423 85.950,158.226 83.340,159.185 81.800 C 161.329 78.360,169.352 69.881,173.337 66.844 C 174.957 65.610,177.110 63.878,178.123 62.996 C 179.136 62.113,182.268 60.177,185.083 58.692 C 187.899 57.208,190.815 55.470,191.564 54.830 C 193.745 52.969,196.766 51.700,202.675 50.162 C 205.714 49.371,210.090 48.008,212.400 47.133 C 222.413 43.339,225.542 42.851,238.800 43.016 C 246.298 43.109,248.346 43.265,251.071 43.951 M170.600 51.268 C 166.681 52.383,163.460 54.556,162.218 56.921 C 160.941 59.356,160.093 59.999,156.200 61.489 C 154.395 62.179,154.053 62.522,152.689 65.007 C 150.796 68.458,150.249 69.059,147.935 70.232 C 145.832 71.299,145.292 71.977,142.650 76.860 C 141.181 79.576,140.312 80.672,138.606 81.960 C 135.751 84.116,134.669 86.117,133.609 91.200 C 132.545 96.303,131.683 98.367,129.989 99.862 C 124.404 104.790,123.777 132.768,128.974 145.200 C 130.842 149.670,131.517 151.704,132.834 156.829 C 134.322 162.621,135.421 165.307,137.085 167.221 C 138.666 169.040,139.964 171.147,142.220 175.555 C 143.377 177.814,145.022 180.213,146.567 181.895 C 147.934 183.383,149.656 185.500,150.394 186.600 C 153.322 190.969,161.029 197.976,164.776 199.675 C 169.823 201.964,171.221 202.767,173.057 204.434 C 175.319 206.486,178.224 207.727,183.200 208.766 C 189.219 210.023,189.862 210.283,191.837 212.258 C 196.041 216.462,207.429 218.057,211.897 215.068 C 214.286 213.470,212.840 210.650,209.200 209.811 C 209.090 209.786,208.100 209.552,207.000 209.291 C 205.900 209.031,203.470 208.626,201.600 208.391 C 196.448 207.745,194.643 207.032,192.957 204.974 C 191.072 202.673,189.786 201.916,184.833 200.192 C 180.284 198.609,178.598 197.661,176.151 195.312 C 175.245 194.442,173.175 193.046,171.551 192.209 C 166.075 189.388,161.294 184.976,158.114 179.806 C 156.893 177.823,155.063 175.300,154.046 174.200 C 153.029 173.100,151.901 171.570,151.539 170.800 C 148.343 164.004,147.485 162.366,146.428 161.036 C 144.528 158.644,143.184 155.432,141.729 149.800 C 140.033 143.238,139.357 141.187,138.196 139.082 C 136.071 135.231,135.196 128.274,135.170 115.029 C 135.148 104.224,135.161 104.143,137.483 101.027 C 139.794 97.923,140.399 96.358,142.789 87.279 C 143.102 86.089,144.018 84.712,145.753 82.821 C 147.679 80.723,148.431 79.540,148.983 77.743 C 149.668 75.514,152.432 71.200,153.175 71.200 C 153.367 71.200,154.460 69.937,155.604 68.394 C 156.749 66.851,158.610 64.778,159.741 63.789 C 160.872 62.799,162.169 61.327,162.622 60.518 C 163.513 58.926,165.305 57.741,168.873 56.386 C 173.154 54.760,174.729 50.093,170.600 51.268 M230.200 217.854 C 229.760 217.943,228.375 218.214,227.123 218.458 C 225.620 218.749,224.532 219.234,223.923 219.883 L 223.000 220.867 224.101 221.815 C 226.753 224.099,234.834 224.641,242.124 223.025 C 243.785 222.657,246.024 221.091,245.879 220.400 C 245.809 220.070,245.538 219.845,245.276 219.900 C 245.014 219.955,244.800 219.856,244.800 219.680 C 244.800 218.459,233.936 217.101,230.200 217.854 M141.100 220.832 C 140.715 221.056,140.400 221.136,140.400 221.010 C 140.400 220.537,137.787 222.157,134.491 224.672 C 132.620 226.100,130.799 227.378,130.444 227.511 C 129.538 227.854,122.930 232.213,122.180 232.963 C 121.839 233.304,119.720 234.677,117.471 236.014 C 115.223 237.351,112.217 239.436,110.792 240.648 C 109.366 241.860,107.422 243.335,106.470 243.926 C 105.519 244.517,102.984 246.530,100.836 248.400 C 98.688 250.270,96.002 252.516,94.866 253.392 C 93.730 254.268,92.800 255.128,92.800 255.305 C 92.800 255.481,92.485 255.745,92.100 255.891 C 90.828 256.375,78.745 268.548,76.780 271.325 C 72.562 277.288,73.593 278.625,83.425 279.945 C 94.875 281.483,98.376 283.546,106.412 293.486 C 108.398 295.942,110.215 299.116,111.428 302.246 C 112.677 305.470,116.366 312.030,116.391 311.071 C 116.396 310.891,116.678 311.021,117.018 311.361 C 118.165 312.508,120.596 312.988,121.621 312.270 C 124.274 310.412,129.701 304.488,131.163 301.852 C 132.034 300.283,133.565 297.920,134.566 296.600 C 136.241 294.392,137.674 291.779,140.040 286.622 C 140.539 285.534,141.897 283.319,143.058 281.701 C 144.794 279.282,145.488 277.771,146.955 273.209 C 148.607 268.077,149.245 266.622,151.526 262.800 C 152.755 260.739,154.277 256.489,155.641 251.309 C 156.303 248.792,157.045 246.252,157.289 245.666 C 157.533 245.080,157.759 244.510,157.791 244.400 C 157.823 244.290,158.124 243.570,158.461 242.800 C 160.615 237.878,160.502 237.073,156.739 230.494 C 152.316 222.762,149.401 220.388,144.356 220.412 C 142.950 220.419,141.485 220.608,141.100 220.832 M178.048 225.410 C 177.419 227.690,178.752 234.248,180.364 236.800 C 181.393 238.428,187.738 242.783,189.100 242.795 C 189.375 242.798,189.600 242.980,189.600 243.200 C 189.600 243.420,189.735 243.562,189.900 243.515 C 190.065 243.468,190.579 243.641,191.042 243.898 C 192.823 244.888,195.883 245.919,197.800 246.176 C 209.339 247.719,214.611 248.498,216.800 248.981 C 225.975 251.005,233.140 252.519,234.000 252.616 C 234.550 252.679,236.260 252.918,237.800 253.149 C 248.114 254.693,265.955 254.392,271.672 252.577 C 272.116 252.436,272.867 252.272,273.340 252.213 C 273.813 252.153,274.920 251.829,275.800 251.491 C 278.148 250.592,278.976 250.277,279.200 250.201 C 279.310 250.164,279.907 249.923,280.526 249.666 C 281.145 249.410,282.011 249.200,282.450 249.200 C 282.888 249.200,283.148 249.040,283.027 248.844 C 282.906 248.648,283.480 248.372,284.304 248.231 C 285.127 248.089,286.610 247.807,287.600 247.604 C 297.268 245.617,298.054 245.289,302.246 241.496 C 303.812 240.080,305.511 238.628,306.022 238.269 C 309.993 235.488,293.415 237.426,286.293 240.576 C 285.044 241.128,283.612 241.669,283.111 241.778 C 282.610 241.886,281.390 242.177,280.400 242.423 C 279.410 242.669,278.150 242.955,277.600 243.057 C 275.480 243.451,258.078 243.585,255.800 243.224 C 254.480 243.016,251.960 242.638,250.200 242.385 C 248.440 242.131,245.110 241.327,242.800 240.598 C 236.069 238.472,232.952 237.837,222.191 236.399 C 215.066 235.447,215.270 235.502,208.400 232.692 C 205.430 231.477,200.930 229.999,198.400 229.407 C 190.021 227.449,187.424 226.752,186.909 226.325 C 186.629 226.092,186.397 226.059,186.394 226.251 C 186.391 226.443,186.256 226.408,186.094 226.172 C 185.614 225.474,182.340 224.316,180.324 224.132 C 178.461 223.962,178.446 223.971,178.048 225.410 M67.400 295.962 C 61.719 296.738,59.738 300.345,59.688 310.000 C 59.673 312.970,59.817 315.940,60.007 316.600 C 60.198 317.260,60.556 318.880,60.803 320.200 C 61.884 325.963,65.069 331.600,67.245 331.600 C 67.409 331.600,67.781 331.825,68.071 332.100 C 72.821 336.592,81.048 338.463,87.000 336.405 C 88.320 335.948,89.402 335.625,89.404 335.687 C 89.412 335.911,95.037 332.727,96.600 331.614 C 99.648 329.444,100.200 328.587,100.200 326.028 C 100.200 323.982,99.993 323.203,98.809 320.795 C 98.646 320.462,98.024 318.493,97.427 316.419 C 94.538 306.378,85.780 297.466,77.600 296.243 C 74.923 295.843,69.388 295.691,67.400 295.962 " stroke="none" fill="#137173" fill-rule="evenodd"></path><path id="path1" d="M231.800 21.860 C 231.140 21.938,227.720 22.286,224.200 22.634 C 212.502 23.790,207.932 25.044,203.965 28.183 C 202.187 29.590,199.357 30.606,193.919 31.789 C 189.926 32.658,187.540 33.883,184.681 36.533 C 182.747 38.327,181.737 38.898,178.579 39.986 C 174.876 41.263,172.477 42.741,171.238 44.510 C 170.141 46.075,168.684 47.128,164.658 49.259 C 161.411 50.979,160.441 51.720,159.151 53.466 C 158.215 54.733,156.406 56.381,154.651 57.565 C 151.812 59.481,149.600 61.629,149.600 62.469 C 149.600 62.694,147.845 64.615,145.700 66.739 C 142.673 69.736,141.442 71.297,140.200 73.715 C 139.182 75.697,137.649 77.811,135.986 79.524 C 133.141 82.456,133.130 82.478,131.017 89.200 C 130.144 91.976,129.127 94.355,128.451 95.200 C 124.496 100.141,123.860 102.585,123.214 115.334 C 122.402 131.349,124.031 142.925,128.282 151.353 C 128.824 152.427,130.055 156.431,131.018 160.251 C 131.982 164.071,132.981 167.590,133.239 168.073 C 133.778 169.079,133.899 169.234,135.837 171.400 C 137.421 173.170,138.478 175.094,140.362 179.635 C 141.592 182.601,142.668 183.952,144.908 185.341 C 145.517 185.719,146.993 187.350,148.188 188.966 C 150.204 191.693,153.330 194.800,154.057 194.800 C 154.229 194.800,155.116 195.898,156.027 197.240 C 157.612 199.573,157.897 199.782,162.542 202.015 C 165.734 203.549,168.086 204.987,169.400 206.209 C 172.332 208.933,174.248 209.915,178.849 211.050 C 183.637 212.232,184.602 212.673,186.103 214.360 C 186.710 215.042,187.373 215.600,187.576 215.600 C 187.780 215.600,188.057 215.951,188.194 216.380 C 188.409 217.059,189.111 217.518,190.093 217.621 C 190.254 217.638,190.974 217.824,191.693 218.034 C 193.422 218.539,200.105 219.461,204.600 219.815 C 206.580 219.971,208.560 220.165,209.000 220.247 C 209.440 220.330,210.402 220.511,211.138 220.650 C 211.953 220.804,213.190 221.597,214.305 222.681 C 218.390 226.652,225.990 228.059,239.249 227.301 C 245.300 226.954,252.351 227.282,252.764 227.930 C 252.894 228.133,253.584 228.426,254.298 228.581 C 255.011 228.736,255.731 229.099,255.898 229.389 C 257.358 231.928,271.103 233.555,273.555 231.478 C 273.910 231.178,274.785 230.700,275.500 230.417 C 276.215 230.134,276.800 229.774,276.800 229.616 C 276.800 229.281,282.422 228.569,289.800 227.969 C 298.805 227.237,302.068 226.275,304.622 223.603 C 306.784 221.339,308.695 220.307,313.547 218.780 L 317.694 217.474 319.482 215.037 C 320.689 213.392,321.875 212.292,323.135 211.652 C 325.669 210.364,327.906 208.523,332.414 204.015 C 340.462 195.966,342.886 193.128,344.275 190.120 C 345.194 188.132,346.074 186.887,347.104 186.117 C 350.169 183.828,350.522 183.128,352.408 175.600 C 353.350 171.838,354.507 168.226,355.099 167.200 C 358.641 161.056,359.302 157.821,359.305 146.600 C 359.307 137.420,359.019 135.811,356.136 128.921 C 353.923 123.631,353.820 123.306,352.589 117.668 C 351.413 112.280,350.141 108.926,347.631 104.600 C 345.662 101.207,345.149 100.092,343.212 95.000 C 342.361 92.764,341.331 91.017,339.794 89.200 C 338.585 87.770,337.306 85.970,336.952 85.200 C 333.555 77.795,333.097 77.015,330.648 74.462 C 329.243 72.998,327.633 70.900,327.070 69.800 C 325.841 67.401,324.868 66.269,322.132 64.053 C 320.994 63.132,319.617 61.616,319.070 60.684 C 318.524 59.752,317.025 58.046,315.738 56.895 C 311.964 53.514,311.864 53.413,310.400 51.516 C 309.084 49.810,307.618 48.603,305.159 47.200 C 304.581 46.870,303.213 45.518,302.120 44.197 C 300.628 42.394,299.335 41.365,296.945 40.078 C 295.192 39.135,292.809 37.467,291.648 36.372 C 289.163 34.026,286.423 32.583,281.138 30.836 C 279.013 30.134,276.853 29.184,276.338 28.726 C 273.454 26.165,269.754 24.459,265.200 23.590 C 257.497 22.121,238.136 21.118,231.800 21.860 M251.000 24.398 C 264.413 25.611,267.277 26.332,272.579 29.830 C 273.691 30.563,276.130 31.725,278.000 32.412 C 284.516 34.804,286.763 35.966,289.353 38.284 C 290.797 39.576,293.116 41.082,295.400 42.210 C 296.280 42.644,298.080 44.090,299.400 45.422 C 300.720 46.755,302.790 48.574,304.000 49.466 C 305.210 50.357,307.010 51.953,308.000 53.012 C 310.861 56.075,311.723 56.906,313.662 58.472 C 314.665 59.281,316.147 60.941,316.957 62.161 C 317.766 63.381,319.423 65.237,320.638 66.286 C 321.853 67.335,323.769 69.635,324.896 71.396 C 326.022 73.158,327.852 75.635,328.961 76.900 C 331.014 79.242,331.973 80.847,334.316 85.866 C 335.040 87.416,336.442 89.634,337.433 90.795 C 339.600 93.334,339.979 94.042,342.463 100.200 C 343.528 102.840,344.738 105.459,345.152 106.020 C 347.565 109.287,349.399 114.258,351.193 122.400 C 352.136 126.682,353.679 132.223,354.924 135.800 C 356.393 140.022,356.172 151.773,354.529 156.800 C 353.846 158.890,353.172 161.050,353.031 161.600 C 348.867 177.862,348.418 179.115,345.762 181.913 C 344.986 182.731,343.435 185.020,342.316 187.000 C 339.078 192.727,326.509 205.890,321.600 208.694 C 320.170 209.511,317.977 211.119,316.728 212.267 C 313.970 214.801,312.606 215.508,307.262 217.174 C 303.590 218.319,302.856 218.710,300.749 220.647 C 299.444 221.847,297.927 223.000,297.380 223.208 C 291.529 225.432,280.905 225.333,277.378 223.022 C 274.019 220.821,277.802 218.666,287.239 217.403 C 294.440 216.439,297.032 215.670,298.526 214.053 C 301.343 211.004,302.131 210.420,305.104 209.186 C 309.143 207.510,311.617 205.833,314.788 202.621 C 316.212 201.179,317.607 200.000,317.888 200.000 C 318.170 200.000,318.400 199.853,318.400 199.674 C 318.400 199.494,319.125 198.940,320.011 198.442 C 320.897 197.944,322.366 196.516,323.277 195.268 C 324.187 194.021,326.323 191.539,328.024 189.754 C 330.681 186.963,331.460 185.790,333.569 181.400 C 335.078 178.259,336.701 175.538,337.783 174.334 C 340.183 171.665,340.346 171.095,343.208 155.400 C 344.752 146.933,344.667 144.824,342.160 129.600 C 340.214 117.779,339.732 116.174,337.000 112.400 C 335.419 110.216,334.300 107.794,333.398 104.600 C 332.416 101.123,330.268 96.856,328.519 94.908 C 327.049 93.270,326.461 92.274,324.210 87.600 C 323.627 86.390,322.189 84.410,321.016 83.200 C 319.842 81.990,318.079 79.740,317.099 78.200 C 313.961 73.269,304.539 63.214,298.546 58.399 C 296.816 57.009,294.500 55.014,293.400 53.965 C 292.300 52.916,289.780 51.131,287.800 50.000 C 285.820 48.868,283.390 47.164,282.400 46.212 C 280.111 44.013,278.597 43.272,272.239 41.242 C 269.401 40.335,266.179 39.041,265.081 38.365 C 259.105 34.688,255.230 34.200,232.000 34.200 C 209.454 34.200,208.704 34.277,207.497 36.702 C 206.698 38.309,203.961 39.986,200.768 40.825 C 195.716 42.153,188.015 41.594,189.017 39.973 C 189.144 39.768,189.012 39.597,188.724 39.594 C 188.404 39.590,188.356 39.473,188.600 39.294 C 188.820 39.132,189.062 38.640,189.138 38.200 C 189.572 35.685,195.334 33.660,202.200 33.610 C 205.574 33.586,207.050 32.976,208.053 31.192 C 209.598 28.442,213.435 26.531,218.895 25.791 C 220.053 25.635,221.270 25.459,221.600 25.401 C 221.930 25.343,224.360 25.091,227.000 24.842 C 229.640 24.592,232.340 24.327,233.000 24.254 C 235.798 23.942,246.938 24.031,251.000 24.398 M249.071 41.631 C 253.531 42.245,257.119 43.313,260.905 45.153 C 262.717 46.034,266.000 47.316,268.200 48.002 C 273.986 49.807,276.915 51.082,278.661 52.556 C 280.701 54.277,283.189 55.921,286.600 57.800 C 291.664 60.589,305.933 74.651,309.329 80.200 C 310.137 81.520,311.878 83.846,313.198 85.370 C 314.543 86.922,316.483 89.863,317.612 92.061 C 318.788 94.350,320.512 96.944,321.753 98.291 C 324.318 101.076,324.449 101.315,326.248 106.483 C 327.883 111.179,328.857 113.225,330.400 115.200 C 338.217 125.208,338.140 168.571,330.294 174.555 C 329.558 175.117,328.020 177.257,326.791 179.431 C 325.358 181.965,323.992 183.806,322.842 184.753 C 321.085 186.200,320.564 186.730,317.208 190.478 C 316.223 191.578,314.484 193.098,313.344 193.855 C 312.204 194.611,310.590 196.062,309.758 197.078 C 308.591 198.501,307.459 199.284,304.822 200.488 C 299.881 202.746,298.498 203.516,295.708 205.561 C 292.184 208.145,289.760 208.919,279.367 210.781 C 274.325 211.685,269.390 212.619,268.400 212.856 C 265.737 213.496,258.178 213.740,255.200 213.282 C 253.770 213.061,249.540 212.340,245.800 211.678 C 242.060 211.017,238.010 210.352,236.800 210.200 C 228.409 209.151,225.514 208.335,219.000 205.183 C 215.424 203.452,212.721 202.491,208.400 201.411 C 201.402 199.662,199.954 199.126,197.536 197.391 C 194.900 195.499,193.162 194.686,188.616 193.217 C 183.584 191.592,181.944 190.750,179.643 188.614 C 178.629 187.673,176.090 185.954,174.000 184.793 C 169.368 182.222,168.812 181.740,166.401 178.200 C 165.352 176.660,163.306 173.977,161.855 172.239 C 160.225 170.285,158.519 167.626,157.393 165.278 C 156.390 163.189,154.511 160.076,153.219 158.361 C 150.757 155.093,150.406 154.209,148.599 146.710 C 147.475 142.046,146.053 137.637,145.045 135.687 C 141.757 129.329,141.748 113.982,145.026 107.000 C 145.543 105.900,146.960 101.850,148.175 98.000 C 150.364 91.064,151.596 88.567,154.230 85.733 C 154.809 85.110,156.178 83.087,157.272 81.237 C 159.611 77.281,168.167 68.020,171.600 65.730 C 172.810 64.923,174.820 63.290,176.066 62.102 C 177.720 60.526,179.665 59.293,183.260 57.539 C 186.334 56.039,188.888 54.479,190.052 53.390 C 192.284 51.302,193.573 50.730,199.600 49.155 C 205.490 47.616,209.177 46.336,212.794 44.576 C 218.947 41.582,237.674 40.061,249.071 41.631 M184.711 43.423 C 187.570 45.425,183.900 48.739,177.796 49.667 C 176.038 49.934,174.456 50.343,174.279 50.576 C 173.911 51.063,174.274 47.595,174.710 46.460 C 175.778 43.678,182.263 41.708,184.711 43.423 M172.660 52.709 C 172.354 54.591,171.555 55.367,168.873 56.386 C 165.305 57.741,163.513 58.926,162.622 60.518 C 162.169 61.327,160.872 62.799,159.741 63.789 C 158.610 64.778,156.749 66.851,155.604 68.394 C 154.460 69.937,153.367 71.200,153.175 71.200 C 152.432 71.200,149.668 75.514,148.983 77.743 C 148.431 79.540,147.679 80.723,145.753 82.821 C 144.018 84.712,143.102 86.089,142.789 87.279 C 140.399 96.358,139.794 97.923,137.483 101.027 C 135.161 104.143,135.148 104.224,135.170 115.029 C 135.196 128.274,136.071 135.231,138.196 139.082 C 139.357 141.187,140.033 143.238,141.729 149.800 C 143.184 155.432,144.528 158.644,146.428 161.036 C 147.485 162.366,148.343 164.004,151.539 170.800 C 151.901 171.570,153.029 173.100,154.046 174.200 C 155.063 175.300,156.893 177.823,158.114 179.806 C 161.294 184.976,166.075 189.388,171.551 192.209 C 173.175 193.046,175.245 194.442,176.151 195.312 C 178.598 197.661,180.284 198.609,184.833 200.192 C 189.786 201.916,191.072 202.673,192.957 204.974 C 194.643 207.032,196.448 207.745,201.600 208.391 C 203.470 208.626,205.900 209.031,207.000 209.291 C 208.100 209.552,209.090 209.786,209.200 209.811 C 212.840 210.650,214.286 213.470,211.897 215.068 C 207.429 218.057,196.041 216.462,191.837 212.258 C 189.862 210.283,189.219 210.023,183.200 208.766 C 178.224 207.727,175.319 206.486,173.057 204.434 C 171.221 202.767,169.823 201.964,164.776 199.675 C 161.029 197.976,153.322 190.969,150.394 186.600 C 149.656 185.500,147.934 183.383,146.567 181.895 C 145.022 180.213,143.377 177.814,142.220 175.555 C 139.964 171.147,138.666 169.040,137.085 167.221 C 135.421 165.307,134.322 162.621,132.834 156.829 C 131.517 151.704,130.842 149.670,128.974 145.200 C 126.055 138.217,125.403 133.068,125.736 119.605 C 126.052 106.803,126.974 102.522,129.989 99.862 C 131.683 98.367,132.545 96.303,133.609 91.200 C 134.669 86.117,135.751 84.116,138.606 81.960 C 140.312 80.672,141.181 79.576,142.650 76.860 C 145.292 71.977,145.832 71.299,147.935 70.232 C 150.249 69.059,150.796 68.458,152.689 65.007 C 154.053 62.522,154.395 62.179,156.200 61.489 C 160.093 59.999,160.941 59.356,162.218 56.921 C 164.449 52.670,173.242 49.123,172.660 52.709 M128.600 175.683 C 126.122 177.104,125.328 180.892,126.228 187.000 C 127.246 193.905,135.646 202.935,139.585 201.359 C 143.493 199.796,142.738 189.437,138.407 185.200 C 136.626 183.458,133.646 179.485,132.648 177.521 C 132.063 176.369,130.156 174.996,129.440 175.212 C 129.418 175.219,129.040 175.431,128.600 175.683 M352.665 192.506 C 352.079 193.664,351.603 194.969,351.606 195.406 C 351.612 196.209,352.383 197.753,352.394 196.984 C 352.397 196.756,352.890 196.576,353.490 196.584 C 354.493 196.599,354.604 196.441,354.885 194.600 C 355.548 190.263,354.365 189.147,352.665 192.506 M344.746 200.605 C 343.733 201.155,342.356 203.042,341.357 205.248 C 340.840 206.389,338.443 208.400,337.600 208.400 C 336.693 208.400,334.451 210.364,332.787 212.617 C 331.408 214.485,330.668 215.032,327.445 216.568 C 325.388 217.549,322.826 219.087,321.752 219.985 C 320.679 220.883,319.576 221.800,319.303 222.022 C 319.030 222.244,317.950 222.793,316.904 223.241 C 315.858 223.690,314.461 224.298,313.801 224.593 C 313.140 224.888,311.418 225.509,309.973 225.973 C 308.099 226.575,306.908 227.266,305.816 228.384 C 303.751 230.498,296.848 233.157,293.110 233.277 C 292.610 233.294,291.570 233.453,290.800 233.632 C 290.030 233.810,288.410 234.054,287.200 234.173 C 284.307 234.459,282.948 234.690,278.400 235.674 C 276.310 236.125,273.881 236.489,273.002 236.482 C 272.124 236.474,271.276 236.678,271.117 236.934 C 270.438 238.035,260.037 237.444,251.419 235.815 C 249.669 235.484,247.329 235.128,246.219 235.025 C 245.108 234.921,242.490 234.574,240.400 234.252 C 238.310 233.930,235.340 233.544,233.800 233.392 C 228.686 232.889,218.273 230.693,217.420 229.937 C 217.211 229.752,216.758 229.600,216.413 229.600 C 216.068 229.600,215.109 229.140,214.283 228.579 C 211.824 226.908,208.268 225.968,199.299 224.619 C 194.598 223.912,190.132 222.113,187.899 220.028 C 187.293 219.463,186.727 219.090,186.641 219.200 C 186.554 219.310,186.115 219.066,185.664 218.658 C 184.077 217.221,173.725 216.148,171.119 217.150 C 167.976 218.358,168.176 222.388,171.632 227.510 C 172.312 228.518,173.476 231.126,174.217 233.306 C 177.816 243.889,183.998 248.132,199.400 250.586 C 207.517 251.880,210.711 252.568,216.255 254.217 C 221.923 255.903,226.964 256.830,234.710 257.612 C 239.174 258.062,259.754 258.343,266.493 258.046 C 272.932 257.761,279.558 256.318,284.286 254.171 C 285.433 253.650,288.853 252.478,291.886 251.566 C 300.356 249.020,302.553 248.106,305.696 245.821 C 307.293 244.659,309.140 243.409,309.800 243.042 C 314.758 240.284,315.086 240.053,318.600 236.856 C 319.480 236.055,321.078 234.770,322.150 234.000 C 323.223 233.230,325.688 231.025,327.628 229.100 C 329.568 227.175,331.312 225.600,331.503 225.600 C 331.694 225.600,332.739 224.486,333.825 223.125 C 334.911 221.764,336.994 219.379,338.454 217.825 C 339.914 216.271,341.706 214.010,342.437 212.800 C 343.167 211.590,344.083 210.368,344.472 210.085 C 350.663 205.571,350.904 197.259,344.746 200.605 M229.524 212.367 C 229.812 212.385,229.949 212.558,229.830 212.752 C 229.656 213.033,224.837 213.115,223.476 212.861 C 221.917 212.569,224.193 212.003,226.334 212.151 C 227.800 212.252,229.236 212.349,229.524 212.367 M139.330 216.725 C 136.457 217.746,131.301 220.866,130.593 222.012 C 130.457 222.232,129.683 222.771,128.873 223.210 C 128.063 223.649,127.130 224.179,126.800 224.388 C 126.470 224.597,124.677 225.690,122.815 226.817 C 120.954 227.944,118.863 229.364,118.169 229.974 C 117.475 230.583,115.308 232.038,113.353 233.207 C 111.399 234.376,108.700 236.286,107.355 237.452 C 106.010 238.618,103.580 240.464,101.955 241.554 C 100.330 242.645,97.720 244.676,96.157 246.068 C 93.323 248.591,92.875 248.967,90.600 250.734 C 87.219 253.359,77.863 262.415,73.666 267.125 C 64.401 277.520,66.096 282.880,78.941 283.812 C 87.827 284.457,91.403 285.828,97.355 290.874 C 99.913 293.043,107.600 303.357,107.600 304.621 C 107.600 304.904,108.230 306.630,109.000 308.456 C 109.770 310.282,110.400 311.986,110.400 312.242 C 110.400 315.557,119.751 320.007,122.714 318.102 C 125.582 316.257,132.581 308.277,134.555 304.600 C 135.145 303.500,136.265 301.880,137.043 301.000 C 139.154 298.611,140.548 296.454,141.565 294.000 C 142.867 290.860,145.118 286.865,146.644 284.987 C 148.145 283.139,149.237 280.761,150.679 276.200 C 151.902 272.331,153.447 268.868,155.115 266.256 C 156.351 264.321,157.347 261.412,159.380 253.800 C 159.968 251.600,161.323 247.979,162.391 245.753 C 166.401 237.396,166.256 235.387,161.109 227.956 C 159.949 226.282,158.340 223.819,157.534 222.484 C 153.988 216.607,146.407 214.209,139.330 216.725 M238.734 217.989 C 242.167 218.384,244.800 219.118,244.800 219.680 C 244.800 219.856,245.014 219.955,245.276 219.900 C 245.538 219.845,245.809 220.070,245.879 220.400 C 246.024 221.091,243.785 222.657,242.124 223.025 C 234.834 224.641,226.753 224.099,224.101 221.815 L 223.000 220.867 223.923 219.883 C 224.532 219.234,225.620 218.749,227.123 218.458 C 228.375 218.214,229.760 217.943,230.200 217.854 C 231.716 217.548,235.408 217.607,238.734 217.989 M148.752 221.300 C 151.602 222.695,153.581 224.973,156.739 230.494 C 160.502 237.073,160.615 237.878,158.461 242.800 C 158.124 243.570,157.823 244.290,157.791 244.400 C 157.759 244.510,157.533 245.080,157.289 245.666 C 157.045 246.252,156.303 248.792,155.641 251.309 C 154.277 256.489,152.755 260.739,151.526 262.800 C 149.245 266.622,148.607 268.077,146.955 273.209 C 145.488 277.771,144.794 279.282,143.058 281.701 C 141.897 283.319,140.539 285.534,140.040 286.622 C 137.674 291.779,136.241 294.392,134.566 296.600 C 133.565 297.920,132.034 300.283,131.163 301.852 C 129.701 304.488,124.274 310.412,121.621 312.270 C 120.596 312.988,118.165 312.508,117.018 311.361 C 116.678 311.021,116.396 310.891,116.391 311.071 C 116.366 312.030,112.677 305.470,111.428 302.246 C 110.215 299.116,108.398 295.942,106.412 293.486 C 98.376 283.546,94.875 281.483,83.425 279.945 C 73.593 278.625,72.562 277.288,76.780 271.325 C 78.745 268.548,90.828 256.375,92.100 255.891 C 92.485 255.745,92.800 255.481,92.800 255.305 C 92.800 255.128,93.730 254.268,94.866 253.392 C 96.002 252.516,98.688 250.270,100.836 248.400 C 102.984 246.530,105.519 244.517,106.470 243.926 C 107.422 243.335,109.366 241.860,110.792 240.648 C 112.217 239.436,115.223 237.351,117.471 236.014 C 119.720 234.677,121.839 233.304,122.180 232.963 C 122.930 232.213,129.538 227.854,130.444 227.511 C 130.799 227.378,132.620 226.100,134.491 224.672 C 137.787 222.157,140.400 220.537,140.400 221.010 C 140.400 221.136,140.715 221.056,141.100 220.832 C 142.425 220.060,146.760 220.325,148.752 221.300 M184.000 225.024 C 184.990 225.421,185.932 225.937,186.094 226.172 C 186.256 226.408,186.391 226.443,186.394 226.251 C 186.397 226.059,186.629 226.092,186.909 226.325 C 187.424 226.752,190.021 227.449,198.400 229.407 C 200.930 229.999,205.430 231.477,208.400 232.692 C 215.270 235.502,215.066 235.447,222.191 236.399 C 232.952 237.837,236.069 238.472,242.800 240.598 C 245.110 241.327,248.440 242.131,250.200 242.385 C 251.960 242.638,254.480 243.016,255.800 243.224 C 258.078 243.585,275.480 243.451,277.600 243.057 C 278.150 242.955,279.410 242.669,280.400 242.423 C 281.390 242.177,282.610 241.886,283.111 241.778 C 283.612 241.669,285.044 241.128,286.293 240.576 C 293.415 237.426,309.993 235.488,306.022 238.269 C 305.511 238.628,303.812 240.080,302.246 241.496 C 298.054 245.289,297.268 245.617,287.600 247.604 C 286.610 247.807,285.127 248.089,284.304 248.231 C 283.480 248.372,282.906 248.648,283.027 248.844 C 283.148 249.040,282.888 249.200,282.450 249.200 C 282.011 249.200,281.145 249.410,280.526 249.666 C 279.907 249.923,279.310 250.164,279.200 250.201 C 278.976 250.277,278.148 250.592,275.800 251.491 C 274.920 251.829,273.813 252.153,273.340 252.213 C 272.867 252.272,272.116 252.436,271.672 252.577 C 265.955 254.392,248.114 254.693,237.800 253.149 C 236.260 252.918,234.550 252.679,234.000 252.616 C 233.140 252.519,225.975 251.005,216.800 248.981 C 214.611 248.498,209.339 247.719,197.800 246.176 C 195.883 245.919,192.823 244.888,191.042 243.898 C 190.579 243.641,190.065 243.468,189.900 243.515 C 189.735 243.562,189.600 243.420,189.600 243.200 C 189.600 242.980,189.375 242.798,189.100 242.795 C 188.523 242.790,183.420 239.787,181.972 238.600 C 180.028 237.007,179.074 234.816,178.198 229.930 C 177.145 224.056,178.572 222.850,184.000 225.024 M65.000 292.153 C 60.199 293.442,57.972 295.426,56.035 300.137 C 52.894 307.780,53.808 317.701,58.673 328.786 C 59.894 331.570,64.871 336.330,69.600 339.239 C 76.340 343.384,89.931 342.034,98.310 336.386 C 107.339 330.301,108.218 327.903,104.222 320.264 C 103.255 318.415,101.711 314.765,100.791 312.151 C 99.005 307.082,97.148 303.615,95.324 301.948 C 94.706 301.382,92.884 299.540,91.275 297.854 C 88.210 294.642,85.529 292.958,82.930 292.615 C 82.089 292.504,80.950 292.307,80.400 292.178 C 78.090 291.636,66.991 291.618,65.000 292.153 M77.600 296.243 C 85.780 297.466,94.538 306.378,97.427 316.419 C 98.024 318.493,98.646 320.462,98.809 320.795 C 99.993 323.203,100.200 323.982,100.200 326.028 C 100.200 328.587,99.648 329.444,96.600 331.614 C 95.037 332.727,89.412 335.911,89.404 335.687 C 89.402 335.625,88.320 335.948,87.000 336.405 C 81.048 338.463,72.821 336.592,68.071 332.100 C 67.781 331.825,67.409 331.600,67.245 331.600 C 65.069 331.600,61.884 325.963,60.803 320.200 C 60.556 318.880,60.198 317.260,60.007 316.600 C 58.726 312.159,60.150 300.665,62.273 298.320 C 64.446 295.918,70.204 295.138,77.600 296.243 " stroke="none" fill="#0e4a4a" fill-rule="evenodd"></path><path id="path2" d="M220.000 0.487 C 217.879 1.404,214.974 2.912,214.400 3.393 C 213.201 4.399,208.524 5.537,204.595 5.778 C 196.047 6.302,190.802 8.017,185.562 12.001 C 183.405 13.641,182.309 14.158,179.562 14.833 C 177.713 15.288,175.633 15.916,174.940 16.230 C 174.246 16.543,173.552 16.800,173.397 16.800 C 173.035 16.800,170.401 18.845,167.628 21.279 C 166.434 22.327,164.814 23.395,164.028 23.651 C 161.693 24.414,159.960 25.468,157.000 27.926 C 153.861 30.533,151.697 32.046,148.253 34.041 C 146.961 34.789,144.623 36.769,143.053 38.446 C 141.484 40.121,139.660 41.771,139.000 42.113 C 137.646 42.814,135.689 44.796,133.269 47.919 C 132.366 49.084,130.662 50.824,129.483 51.784 C 127.611 53.309,124.000 58.052,124.000 58.987 C 124.000 59.339,122.234 61.567,119.867 64.200 C 119.076 65.080,118.209 66.340,117.939 67.000 C 117.670 67.660,117.066 68.830,116.597 69.600 C 116.128 70.370,115.259 72.321,114.667 73.936 C 113.923 75.966,113.097 77.361,111.993 78.454 C 109.005 81.412,106.285 89.277,105.717 96.600 C 105.469 99.789,105.462 99.807,103.431 101.889 C 100.758 104.630,99.125 107.894,98.374 112.000 C 97.737 115.483,97.410 163.625,97.964 172.400 C 98.511 181.067,100.457 188.800,102.092 188.800 C 102.261 188.800,102.400 189.051,102.400 189.357 C 102.400 189.664,102.661 190.015,102.981 190.137 C 103.911 190.494,105.253 193.907,105.669 196.972 C 105.880 198.527,106.408 201.209,106.843 202.932 C 107.770 206.604,107.642 207.235,105.673 208.688 C 104.863 209.286,102.938 210.951,101.395 212.388 C 99.852 213.824,97.577 215.491,96.339 216.091 C 94.747 216.862,93.290 218.073,91.359 220.232 C 89.319 222.511,88.018 223.571,86.214 224.424 C 84.886 225.051,82.392 226.823,80.670 228.361 C 76.851 231.773,76.059 232.392,72.978 234.368 C 71.646 235.222,69.396 237.216,67.978 238.799 C 66.560 240.382,64.950 241.923,64.400 242.223 C 62.438 243.295,57.600 248.490,57.600 249.524 C 57.600 249.739,56.720 250.585,55.644 251.406 C 53.066 253.372,51.203 255.661,49.791 258.600 C 49.157 259.920,48.535 261.090,48.409 261.200 C 48.282 261.310,47.557 262.210,46.796 263.200 C 46.035 264.190,45.211 265.180,44.965 265.400 C 43.652 266.574,40.706 271.780,39.980 274.210 C 38.838 278.030,37.966 279.796,35.857 282.561 C 35.276 283.323,34.800 284.114,34.800 284.318 C 34.800 284.522,34.282 285.839,33.649 287.245 C 27.903 299.995,29.823 331.598,36.811 339.297 C 37.914 340.513,39.451 342.758,40.225 344.287 C 41.876 347.546,44.038 350.064,46.000 351.013 C 47.379 351.680,48.247 352.517,51.093 355.922 C 55.014 360.613,61.794 361.989,81.000 361.994 C 102.708 362.000,109.747 360.593,115.736 355.054 C 117.736 353.205,119.050 352.341,120.618 351.847 C 123.614 350.902,130.412 346.059,132.314 343.512 C 132.597 343.133,133.791 342.185,134.966 341.405 C 137.767 339.546,142.400 334.521,142.400 333.342 C 142.400 333.076,142.805 332.530,143.300 332.129 C 144.882 330.848,148.685 326.261,149.709 324.400 C 150.254 323.410,151.294 321.520,152.021 320.200 C 152.747 318.880,153.623 317.632,153.967 317.427 C 157.036 315.591,159.603 311.829,160.942 307.200 C 161.509 305.243,162.282 303.984,164.135 302.000 C 164.444 301.670,164.991 300.820,165.353 300.111 C 165.714 299.402,166.442 298.184,166.971 297.405 C 167.500 296.625,168.405 294.505,168.983 292.694 C 169.560 290.882,170.520 288.812,171.116 288.094 C 173.721 284.955,174.263 284.054,175.487 280.821 C 176.524 278.084,178.400 270.960,178.400 269.760 C 178.400 268.492,188.331 270.964,190.989 272.894 C 197.553 277.660,209.808 278.793,254.600 278.775 C 291.201 278.761,300.006 277.617,305.938 272.105 C 307.506 270.648,309.398 269.798,313.200 268.845 C 317.555 267.752,320.146 266.474,322.620 264.198 C 326.046 261.047,326.460 260.734,328.767 259.553 C 330.144 258.848,332.232 257.161,334.135 255.215 C 335.849 253.464,338.015 251.649,338.950 251.182 C 339.885 250.715,341.899 249.162,343.425 247.730 C 354.088 237.728,356.245 235.624,357.271 234.222 C 358.444 232.619,361.765 228.766,364.511 225.821 C 365.343 224.929,366.947 222.706,368.078 220.880 C 369.208 219.054,370.688 217.177,371.366 216.709 C 374.063 214.849,377.600 209.226,377.600 206.800 C 377.600 206.318,379.537 203.334,381.022 201.526 C 384.291 197.548,386.078 191.534,386.764 182.200 C 387.189 176.426,387.708 174.578,389.786 171.447 C 390.564 170.276,391.200 169.008,391.200 168.630 C 391.200 168.252,391.442 167.701,391.738 167.405 C 393.674 165.469,393.492 141.600,391.541 141.600 C 391.354 141.600,391.200 141.245,391.200 140.810 C 391.200 140.376,390.660 138.841,390.000 137.400 C 389.340 135.959,388.800 134.638,388.800 134.465 C 388.800 134.292,388.409 133.351,387.932 132.375 C 387.269 131.019,386.984 129.420,386.726 125.600 C 386.151 117.105,384.525 112.011,380.903 107.354 C 380.409 106.719,379.476 105.516,378.830 104.679 C 378.183 103.843,377.532 102.583,377.383 101.879 C 376.846 99.342,374.026 94.658,372.159 93.200 C 369.796 91.355,369.543 91.075,367.308 87.827 C 366.188 86.198,364.639 84.547,363.557 83.827 C 361.846 82.688,359.915 80.140,356.914 75.065 C 356.415 74.221,355.324 72.755,354.490 71.808 C 353.606 70.803,352.395 68.636,351.587 66.611 C 350.498 63.885,349.770 62.723,348.200 61.209 C 344.010 57.169,344.091 57.261,342.251 54.435 C 340.996 52.507,338.581 50.121,337.545 49.786 C 337.184 49.670,336.056 48.332,335.037 46.813 C 334.018 45.294,332.533 43.455,331.737 42.726 C 328.780 40.017,326.558 37.736,325.075 35.888 C 324.236 34.843,322.616 33.462,321.475 32.820 C 320.173 32.088,318.497 30.562,316.978 28.726 C 315.325 26.728,313.852 25.419,312.335 24.600 C 311.114 23.940,308.694 22.067,306.957 20.438 C 303.595 17.284,301.578 16.182,297.000 14.998 C 294.116 14.252,293.092 13.643,290.000 10.838 C 286.628 7.778,282.587 6.477,273.788 5.618 C 269.064 5.157,267.194 4.563,264.550 2.685 C 260.524 -0.177,262.097 -0.003,240.520 0.027 C 227.473 0.045,220.668 0.198,220.000 0.487 M247.600 18.598 C 249.690 18.924,252.840 19.457,254.600 19.783 C 256.360 20.108,260.230 20.659,263.200 21.007 C 266.170 21.355,269.319 21.830,270.198 22.062 C 271.078 22.294,272.068 22.539,272.398 22.606 C 274.062 22.944,276.752 24.472,278.000 25.787 C 279.715 27.594,282.174 28.794,287.400 30.372 C 291.607 31.643,292.830 32.454,294.626 35.168 C 295.667 36.740,296.051 36.998,299.462 38.412 C 300.992 39.045,302.220 40.040,304.217 42.263 C 305.698 43.911,307.646 45.724,308.545 46.292 C 310.641 47.615,319.422 56.416,321.146 58.922 C 321.871 59.975,323.581 61.715,324.948 62.789 C 326.834 64.271,327.696 65.302,328.526 67.071 C 329.844 69.878,330.501 70.676,332.630 72.059 C 334.286 73.135,335.635 75.351,336.979 79.200 C 337.324 80.190,338.820 82.598,340.304 84.550 C 343.228 88.401,345.183 91.760,345.193 92.954 C 345.200 93.740,347.984 99.468,349.202 101.200 C 350.887 103.598,352.856 108.151,353.798 111.827 C 355.764 119.503,356.148 120.642,358.456 125.649 C 361.918 133.159,362.725 137.575,362.783 149.337 C 362.804 153.687,364.071 160.113,365.593 163.594 C 369.697 172.975,368.955 182.722,363.815 186.970 C 363.037 187.613,362.399 188.333,362.398 188.570 C 362.396 188.806,362.137 189.494,361.822 190.098 C 361.507 190.702,361.122 192.052,360.965 193.098 C 360.302 197.533,359.055 200.061,356.477 202.200 C 355.151 203.300,354.052 204.354,354.033 204.542 C 354.001 204.869,352.717 207.477,351.542 209.600 C 351.237 210.150,349.706 211.950,348.139 213.600 C 346.572 215.250,344.325 217.847,343.145 219.372 C 340.779 222.430,340.907 222.293,335.571 227.429 C 330.785 232.034,327.034 235.204,324.304 236.951 C 323.123 237.706,321.773 238.746,321.304 239.262 C 320.835 239.778,320.035 240.654,319.526 241.209 C 318.282 242.564,315.746 244.161,313.846 244.786 C 312.991 245.068,311.240 246.292,309.954 247.508 C 307.391 249.932,306.121 250.797,304.000 251.566 C 302.248 252.201,296.795 253.589,296.026 253.595 C 295.431 253.600,291.951 255.164,291.600 255.584 C 291.317 255.923,285.250 258.945,284.676 259.033 C 284.414 259.073,283.030 259.383,281.600 259.722 C 276.231 260.995,269.616 261.400,254.200 261.400 C 238.090 261.400,229.572 261.000,219.432 259.768 C 217.515 259.535,209.843 257.406,209.015 256.877 C 208.787 256.731,208.510 256.594,208.400 256.572 C 208.151 256.521,206.859 256.035,205.800 255.594 C 204.235 254.943,200.556 254.056,197.600 253.619 C 183.316 251.506,183.094 251.401,174.159 242.500 C 170.686 239.040,170.498 238.990,169.223 241.200 C 164.915 248.659,162.309 254.799,161.159 260.195 C 159.863 266.272,158.991 268.460,156.213 272.603 C 155.128 274.221,154.080 276.440,153.594 278.150 C 152.017 283.695,151.852 284.212,151.274 285.400 C 150.953 286.060,150.040 287.441,149.245 288.470 C 148.450 289.498,147.350 290.924,146.800 291.638 C 145.815 292.916,145.192 294.252,143.737 298.200 C 143.236 299.560,142.223 300.969,140.572 302.600 C 139.185 303.971,137.566 306.114,136.795 307.600 C 135.407 310.274,132.134 314.617,130.132 316.443 C 129.509 317.011,128.100 318.504,127.000 319.760 C 123.606 323.638,121.832 324.324,117.700 323.356 C 111.812 321.976,111.933 321.909,110.591 327.292 C 109.174 332.981,108.117 334.692,105.030 336.288 C 104.359 336.635,102.615 338.002,101.154 339.326 C 93.450 346.310,71.266 347.026,64.652 340.505 C 63.633 339.501,62.800 338.559,62.800 338.413 C 62.800 338.267,62.093 337.750,61.228 337.264 C 58.525 335.745,56.313 332.893,55.259 329.568 C 54.742 327.935,53.752 325.704,53.059 324.609 C 52.367 323.514,51.794 322.524,51.786 322.409 C 51.778 322.294,51.571 321.840,51.326 321.400 C 49.706 318.495,48.650 306.977,49.694 303.600 C 51.875 296.542,56.502 291.288,62.527 289.028 C 64.107 288.435,65.670 287.801,66.000 287.620 C 66.672 287.250,66.722 284.707,66.061 284.487 C 65.464 284.288,63.700 280.739,63.398 279.129 C 62.765 275.757,66.054 268.582,69.424 265.982 C 70.735 264.970,72.504 263.025,73.631 261.355 C 75.126 259.139,76.135 258.133,77.999 257.000 C 79.559 256.053,81.197 254.559,82.591 252.811 C 83.784 251.316,85.654 249.543,86.747 248.870 C 87.841 248.198,89.701 246.681,90.882 245.501 C 93.827 242.556,96.655 240.374,99.823 238.602 C 101.294 237.780,103.529 236.058,104.791 234.777 C 106.451 233.091,108.024 232.001,110.485 230.832 C 112.833 229.717,114.164 228.811,114.785 227.908 C 116.001 226.138,116.781 225.602,122.227 222.786 C 124.807 221.452,127.837 219.591,128.959 218.650 C 131.816 216.256,133.145 215.381,136.299 213.823 C 141.546 211.229,141.558 210.449,136.400 206.835 C 130.160 202.464,124.149 195.417,123.234 191.400 C 120.785 180.655,122.064 169.849,125.930 168.622 C 127.211 168.215,128.144 166.015,128.137 163.416 C 128.130 161.015,127.937 160.361,124.416 150.800 C 121.119 141.847,119.694 120.283,121.430 105.600 C 122.226 98.870,123.719 94.245,125.753 92.211 C 127.744 90.220,129.224 87.613,129.671 85.312 C 130.447 81.309,132.103 78.222,135.054 75.278 C 137.127 73.209,138.032 71.917,139.031 69.600 C 140.334 66.575,141.224 65.627,144.854 63.400 C 145.720 62.868,146.593 61.712,147.456 59.953 C 148.802 57.210,150.122 56.076,153.154 55.060 C 154.232 54.699,154.801 54.091,155.804 52.230 C 157.212 49.616,158.765 48.159,160.563 47.764 C 161.939 47.462,165.279 45.681,165.669 45.041 C 167.317 42.335,171.503 39.499,175.773 38.197 C 177.586 37.644,179.351 36.878,179.695 36.496 C 184.084 31.619,185.062 31.094,192.315 29.728 C 195.723 29.085,196.251 28.855,198.715 26.934 C 203.564 23.153,205.588 22.459,214.800 21.420 C 222.490 20.553,226.701 19.991,229.000 19.526 C 236.521 18.006,242.041 17.730,247.600 18.598 M154.117 205.595 C 150.718 206.383,149.289 209.045,151.010 211.382 C 152.240 213.052,153.829 213.550,156.916 213.232 C 157.727 213.149,160.400 209.889,160.400 208.984 C 160.400 208.443,160.584 208.000,160.809 208.000 C 161.034 208.000,160.937 207.571,160.594 207.047 C 159.739 205.742,156.558 205.028,154.117 205.595 " stroke="none" fill="#040c0c" fill-rule="evenodd"></path><path id="path3" d="" stroke="none" fill="#14aeb4" fill-rule="evenodd"></path><path id="path4" d="M240.691 50.242 C 240.626 50.308,238.418 50.392,235.786 50.428 C 230.778 50.499,225.888 51.493,216.493 54.351 C 215.774 54.569,215.096 54.745,214.987 54.740 C 211.100 54.576,201.026 57.796,197.197 60.428 C 196.645 60.807,194.170 62.138,191.697 63.386 C 189.225 64.634,186.974 65.868,186.696 66.128 C 186.418 66.387,185.023 67.493,183.596 68.584 C 182.168 69.676,180.910 70.667,180.800 70.787 C 180.690 70.907,179.729 71.634,178.664 72.403 C 176.962 73.631,173.562 76.939,168.044 82.738 C 166.564 84.293,163.449 88.703,162.142 91.094 C 161.874 91.586,160.844 92.982,159.855 94.197 C 157.085 97.597,156.205 100.511,154.405 112.245 C 153.529 117.952,153.394 122.453,153.984 126.200 C 154.193 127.520,154.449 129.320,154.553 130.200 C 155.657 139.478,156.959 145.919,157.926 146.886 C 158.187 147.147,158.400 147.487,158.400 147.642 C 158.400 147.798,159.300 149.454,160.400 151.323 C 161.500 153.192,162.400 154.831,162.400 154.966 C 162.400 155.765,166.217 162.838,167.302 164.050 C 169.588 166.602,170.208 167.376,171.595 169.409 C 173.551 172.273,176.689 175.480,179.000 176.975 C 180.100 177.686,183.130 179.663,185.733 181.368 C 189.838 184.057,192.691 185.632,193.400 185.600 C 193.512 185.595,194.236 185.855,195.009 186.178 C 195.782 186.501,196.456 186.744,196.507 186.717 C 197.038 186.442,204.971 189.971,206.600 191.206 C 207.120 191.601,212.114 193.584,213.178 193.819 C 213.630 193.918,214.315 194.075,214.700 194.167 C 215.085 194.259,217.052 194.707,219.071 195.162 C 222.876 196.019,224.977 196.755,229.527 198.826 C 230.997 199.495,232.560 200.206,233.000 200.406 C 237.492 202.446,246.126 203.351,261.000 203.339 C 277.131 203.326,282.456 202.493,287.574 199.185 C 288.958 198.291,292.006 196.607,294.349 195.443 C 299.260 193.002,300.357 192.395,301.121 191.692 C 301.425 191.413,303.452 189.914,305.625 188.362 C 311.064 184.479,317.825 177.127,320.077 172.646 C 320.974 170.861,322.370 168.410,323.179 167.200 C 325.835 163.228,326.651 161.198,327.202 157.200 C 328.112 150.589,327.794 136.880,326.585 130.600 C 326.457 129.940,325.199 127.060,323.789 124.200 C 322.378 121.340,320.836 117.740,320.361 116.200 C 319.423 113.157,316.426 107.010,315.277 105.772 C 314.883 105.347,313.580 103.140,312.380 100.867 C 311.181 98.594,309.178 95.534,307.928 94.067 C 306.678 92.600,304.608 89.933,303.328 88.139 C 296.668 78.809,285.377 68.023,276.962 62.953 C 275.223 61.905,273.710 60.947,273.600 60.824 C 271.503 58.478,268.467 57.046,263.000 55.824 C 257.681 54.634,252.452 53.197,248.200 51.756 C 245.652 50.892,240.983 49.951,240.691 50.242 " stroke="none" fill="#74cccc" fill-rule="evenodd"></path><path id="path5" d="M234.600 18.609 C 232.620 18.891,230.100 19.304,229.000 19.526 C 226.701 19.991,222.490 20.553,214.800 21.420 C 205.588 22.459,203.564 23.153,198.715 26.934 C 196.251 28.855,195.723 29.085,192.315 29.728 C 185.062 31.094,184.084 31.619,179.695 36.496 C 179.351 36.878,177.586 37.644,175.773 38.197 C 171.503 39.499,167.317 42.335,165.669 45.041 C 165.279 45.681,161.939 47.462,160.563 47.764 C 158.765 48.159,157.212 49.616,155.804 52.230 C 154.801 54.091,154.232 54.699,153.154 55.060 C 150.122 56.076,148.802 57.210,147.456 59.953 C 146.593 61.712,145.720 62.868,144.854 63.400 C 141.224 65.627,140.334 66.575,139.031 69.600 C 138.032 71.917,137.127 73.209,135.054 75.278 C 132.103 78.222,130.447 81.309,129.671 85.312 C 129.224 87.613,127.744 90.220,125.753 92.211 C 119.643 98.320,118.794 135.535,124.416 150.800 C 127.937 160.361,128.130 161.015,128.137 163.416 C 128.144 166.015,127.211 168.215,125.930 168.622 C 123.194 169.491,121.848 173.984,122.105 181.400 C 122.287 186.670,122.416 187.814,123.234 191.400 C 124.149 195.417,130.160 202.464,136.400 206.835 C 141.558 210.449,141.546 211.229,136.299 213.823 C 133.145 215.381,131.816 216.256,128.959 218.650 C 127.837 219.591,124.807 221.452,122.227 222.786 C 116.781 225.602,116.001 226.138,114.785 227.908 C 114.164 228.811,112.833 229.717,110.485 230.832 C 108.024 232.001,106.451 233.091,104.791 234.777 C 103.529 236.058,101.294 237.780,99.823 238.602 C 96.655 240.374,93.827 242.556,90.882 245.501 C 89.701 246.681,87.841 248.198,86.747 248.870 C 85.654 249.543,83.784 251.316,82.591 252.811 C 81.197 254.559,79.559 256.053,77.999 257.000 C 76.135 258.133,75.126 259.139,73.631 261.355 C 72.504 263.025,70.735 264.970,69.424 265.982 C 66.054 268.582,62.765 275.757,63.398 279.129 C 63.700 280.739,65.464 284.288,66.061 284.487 C 66.722 284.707,66.672 287.250,66.000 287.620 C 65.670 287.801,64.107 288.435,62.527 289.028 C 58.345 290.596,56.690 291.863,53.973 295.571 C 51.470 298.988,50.634 300.558,49.694 303.600 C 48.650 306.977,49.706 318.495,51.326 321.400 C 51.571 321.840,51.778 322.294,51.786 322.409 C 51.794 322.524,52.367 323.514,53.059 324.609 C 53.752 325.704,54.742 327.935,55.259 329.568 C 56.313 332.893,58.525 335.745,61.228 337.264 C 62.093 337.750,62.800 338.267,62.800 338.413 C 62.800 338.559,63.633 339.501,64.652 340.505 C 71.266 347.026,93.450 346.310,101.154 339.326 C 102.615 338.002,104.359 336.635,105.030 336.288 C 108.117 334.692,109.174 332.981,110.591 327.292 C 111.933 321.909,111.812 321.976,117.700 323.356 C 121.832 324.324,123.606 323.638,127.000 319.760 C 128.100 318.504,129.509 317.011,130.132 316.443 C 132.134 314.617,135.407 310.274,136.795 307.600 C 137.566 306.114,139.185 303.971,140.572 302.600 C 142.223 300.969,143.236 299.560,143.737 298.200 C 145.192 294.252,145.815 292.916,146.800 291.638 C 147.350 290.924,148.450 289.498,149.245 288.470 C 150.040 287.441,150.953 286.060,151.274 285.400 C 151.852 284.212,152.017 283.695,153.594 278.150 C 154.080 276.440,155.128 274.221,156.213 272.603 C 158.991 268.460,159.863 266.272,161.159 260.195 C 162.309 254.799,164.915 248.659,169.223 241.200 C 170.498 238.990,170.686 239.040,174.159 242.500 C 183.094 251.401,183.316 251.506,197.600 253.619 C 200.556 254.056,204.235 254.943,205.800 255.594 C 206.859 256.035,208.151 256.521,208.400 256.572 C 208.510 256.594,208.787 256.731,209.015 256.877 C 209.843 257.406,217.515 259.535,219.432 259.768 C 238.518 262.087,271.726 262.063,281.600 259.722 C 283.030 259.383,284.414 259.073,284.676 259.033 C 285.250 258.945,291.317 255.923,291.600 255.584 C 291.951 255.164,295.431 253.600,296.026 253.595 C 296.795 253.589,302.248 252.201,304.000 251.566 C 306.121 250.797,307.391 249.932,309.954 247.508 C 311.240 246.292,312.991 245.068,313.846 244.786 C 315.746 244.161,318.282 242.564,319.526 241.209 C 320.035 240.654,320.835 239.778,321.304 239.262 C 321.773 238.746,323.123 237.706,324.304 236.951 C 327.034 235.204,330.785 232.034,335.571 227.429 C 340.907 222.293,340.779 222.430,343.145 219.372 C 344.325 217.847,346.572 215.250,348.139 213.600 C 349.706 211.950,351.237 210.150,351.542 209.600 C 352.717 207.477,354.001 204.869,354.033 204.542 C 354.052 204.354,355.151 203.300,356.477 202.200 C 359.055 200.061,360.302 197.533,360.965 193.098 C 361.122 192.052,361.507 190.702,361.822 190.098 C 362.137 189.494,362.396 188.806,362.398 188.570 C 362.399 188.333,363.037 187.613,363.815 186.970 C 368.955 182.722,369.697 172.975,365.593 163.594 C 364.071 160.113,362.804 153.687,362.783 149.337 C 362.725 137.575,361.918 133.159,358.456 125.649 C 356.148 120.642,355.764 119.503,353.798 111.827 C 352.856 108.151,350.887 103.598,349.202 101.200 C 347.984 99.468,345.200 93.740,345.193 92.954 C 345.183 91.760,343.228 88.401,340.304 84.550 C 338.820 82.598,337.324 80.190,336.979 79.200 C 335.635 75.351,334.286 73.135,332.630 72.059 C 330.501 70.676,329.844 69.878,328.526 67.071 C 327.696 65.302,326.834 64.271,324.948 62.789 C 323.581 61.715,321.871 59.975,321.146 58.922 C 319.422 56.416,310.641 47.615,308.545 46.292 C 307.646 45.724,305.698 43.911,304.217 42.263 C 302.220 40.040,300.992 39.045,299.462 38.412 C 296.051 36.998,295.667 36.740,294.626 35.168 C 292.830 32.454,291.607 31.643,287.400 30.372 C 282.174 28.794,279.715 27.594,278.000 25.787 C 276.752 24.472,274.062 22.944,272.398 22.606 C 272.068 22.539,271.078 22.294,270.198 22.062 C 269.319 21.830,266.170 21.355,263.200 21.007 C 260.230 20.659,256.360 20.108,254.600 19.783 C 244.312 17.881,241.054 17.689,234.600 18.609 M255.600 22.390 C 268.373 23.737,271.951 24.830,276.338 28.726 C 276.853 29.184,279.013 30.134,281.138 30.836 C 286.423 32.583,289.163 34.026,291.648 36.372 C 292.809 37.467,295.192 39.135,296.945 40.078 C 299.335 41.365,300.628 42.394,302.120 44.197 C 303.213 45.518,304.581 46.870,305.159 47.200 C 307.618 48.603,309.084 49.810,310.400 51.516 C 311.864 53.413,311.964 53.514,315.738 56.895 C 317.025 58.046,318.524 59.752,319.070 60.684 C 319.617 61.616,320.994 63.132,322.132 64.053 C 324.868 66.269,325.841 67.401,327.070 69.800 C 327.633 70.900,329.243 72.998,330.648 74.462 C 333.097 77.015,333.555 77.795,336.952 85.200 C 337.306 85.970,338.585 87.770,339.794 89.200 C 341.331 91.017,342.361 92.764,343.212 95.000 C 345.149 100.092,345.662 101.207,347.631 104.600 C 350.141 108.926,351.413 112.280,352.589 117.668 C 353.820 123.306,353.923 123.631,356.136 128.921 C 359.019 135.811,359.307 137.420,359.305 146.600 C 359.302 157.821,358.641 161.056,355.099 167.200 C 354.507 168.226,353.350 171.838,352.408 175.600 C 350.522 183.128,350.169 183.828,347.104 186.117 C 346.074 186.887,345.194 188.132,344.275 190.120 C 341.961 195.128,328.329 209.013,323.135 211.652 C 321.875 212.292,320.689 213.392,319.482 215.037 L 317.694 217.474 313.547 218.780 C 308.695 220.307,306.784 221.339,304.622 223.603 C 302.068 226.275,298.805 227.237,289.800 227.969 C 282.422 228.569,276.800 229.281,276.800 229.616 C 276.800 229.774,276.215 230.134,275.500 230.417 C 274.785 230.700,273.910 231.178,273.555 231.478 C 271.103 233.555,257.358 231.928,255.898 229.389 C 255.731 229.099,255.011 228.736,254.298 228.581 C 253.584 228.426,252.894 228.133,252.764 227.930 C 252.351 227.282,245.300 226.954,239.249 227.301 C 225.990 228.059,218.390 226.652,214.305 222.681 C 213.190 221.597,211.953 220.804,211.138 220.650 C 210.402 220.511,209.440 220.330,209.000 220.247 C 208.560 220.165,206.580 219.971,204.600 219.815 C 200.105 219.461,193.422 218.539,191.693 218.034 C 190.974 217.824,190.254 217.638,190.093 217.621 C 189.111 217.518,188.409 217.059,188.194 216.380 C 188.057 215.951,187.780 215.600,187.576 215.600 C 187.373 215.600,186.710 215.042,186.103 214.360 C 184.602 212.673,183.637 212.232,178.849 211.050 C 174.248 209.915,172.332 208.933,169.400 206.209 C 168.086 204.987,165.734 203.549,162.542 202.015 C 157.897 199.782,157.612 199.573,156.027 197.240 C 155.116 195.898,154.229 194.800,154.057 194.800 C 153.330 194.800,150.204 191.693,148.188 188.966 C 146.993 187.350,145.517 185.719,144.908 185.341 C 142.668 183.952,141.592 182.601,140.362 179.635 C 138.478 175.094,137.421 173.170,135.837 171.400 C 133.899 169.234,133.778 169.079,133.239 168.073 C 132.981 167.590,131.982 164.071,131.018 160.251 C 130.055 156.431,128.824 152.427,128.282 151.353 C 124.031 142.925,122.402 131.349,123.214 115.334 C 123.860 102.585,124.496 100.141,128.451 95.200 C 129.127 94.355,130.144 91.976,131.017 89.200 C 133.130 82.478,133.141 82.456,135.986 79.524 C 137.649 77.811,139.182 75.697,140.200 73.715 C 141.442 71.297,142.673 69.736,145.700 66.739 C 147.845 64.615,149.600 62.694,149.600 62.469 C 149.600 61.629,151.812 59.481,154.651 57.565 C 156.406 56.381,158.215 54.733,159.151 53.466 C 160.441 51.720,161.411 50.979,164.658 49.259 C 168.684 47.128,170.141 46.075,171.238 44.510 C 172.477 42.741,174.876 41.263,178.579 39.986 C 181.737 38.898,182.747 38.327,184.681 36.533 C 187.540 33.883,189.926 32.658,193.919 31.789 C 199.357 30.606,202.187 29.590,203.965 28.183 C 207.932 25.044,212.502 23.790,224.200 22.634 C 227.720 22.286,231.140 21.938,231.800 21.860 C 235.799 21.392,248.896 21.684,255.600 22.390 M130.689 175.621 C 131.454 175.888,132.172 176.585,132.648 177.521 C 133.646 179.485,136.626 183.458,138.407 185.200 C 141.170 187.903,143.180 196.505,141.742 199.474 C 139.706 203.679,134.873 201.632,129.470 194.276 C 124.532 187.553,124.515 176.698,129.440 175.212 C 129.462 175.205,130.024 175.390,130.689 175.621 M354.964 191.500 C 355.464 193.926,354.689 196.602,353.490 196.584 C 352.890 196.576,352.397 196.756,352.394 196.984 C 352.383 197.753,351.612 196.209,351.606 195.406 C 351.597 194.277,353.632 190.400,354.234 190.400 C 354.510 190.400,354.839 190.895,354.964 191.500 M348.700 200.330 C 350.727 201.617,348.252 207.329,344.472 210.085 C 344.083 210.368,343.167 211.590,342.437 212.800 C 341.706 214.010,339.914 216.271,338.454 217.825 C 336.994 219.379,334.911 221.764,333.825 223.125 C 332.739 224.486,331.694 225.600,331.503 225.600 C 331.312 225.600,329.568 227.175,327.628 229.100 C 325.688 231.025,323.223 233.230,322.150 234.000 C 321.078 234.770,319.480 236.055,318.600 236.856 C 315.086 240.053,314.758 240.284,309.800 243.042 C 309.140 243.409,307.293 244.659,305.696 245.821 C 302.553 248.106,300.356 249.020,291.886 251.566 C 288.853 252.478,285.433 253.650,284.286 254.171 C 279.558 256.318,272.932 257.761,266.493 258.046 C 259.754 258.343,239.174 258.062,234.710 257.612 C 226.964 256.830,221.923 255.903,216.255 254.217 C 210.711 252.568,207.517 251.880,199.400 250.586 C 183.998 248.132,177.816 243.889,174.217 233.306 C 173.476 231.126,172.312 228.518,171.632 227.510 C 168.176 222.388,167.976 218.358,171.119 217.150 C 173.725 216.148,184.077 217.221,185.664 218.658 C 186.115 219.066,186.554 219.310,186.641 219.200 C 186.727 219.090,187.293 219.463,187.899 220.028 C 190.132 222.113,194.598 223.912,199.299 224.619 C 208.268 225.968,211.824 226.908,214.283 228.579 C 215.109 229.140,216.068 229.600,216.413 229.600 C 216.758 229.600,217.211 229.752,217.420 229.937 C 218.273 230.693,228.686 232.889,233.800 233.392 C 235.340 233.544,238.310 233.930,240.400 234.252 C 242.490 234.574,245.108 234.921,246.219 235.025 C 247.329 235.128,249.669 235.484,251.419 235.815 C 260.037 237.444,270.438 238.035,271.117 236.934 C 271.276 236.678,272.124 236.474,273.002 236.482 C 273.881 236.489,276.310 236.125,278.400 235.674 C 282.948 234.690,284.307 234.459,287.200 234.173 C 288.410 234.054,290.030 233.810,290.800 233.632 C 291.570 233.453,292.610 233.294,293.110 233.277 C 296.848 233.157,303.751 230.498,305.816 228.384 C 306.908 227.266,308.099 226.575,309.973 225.973 C 311.418 225.509,313.140 224.888,313.801 224.593 C 314.461 224.298,315.858 223.690,316.904 223.241 C 317.950 222.793,319.030 222.244,319.303 222.022 C 319.576 221.800,320.679 220.883,321.752 219.985 C 322.826 219.087,325.388 217.549,327.445 216.568 C 330.668 215.032,331.408 214.485,332.787 212.617 C 334.451 210.364,336.693 208.400,337.600 208.400 C 338.443 208.400,340.840 206.389,341.357 205.248 C 343.307 200.941,346.400 198.869,348.700 200.330 M158.685 205.803 C 159.871 206.072,161.736 208.000,160.809 208.000 C 160.584 208.000,160.400 208.443,160.400 208.984 C 160.400 209.889,157.727 213.149,156.916 213.232 C 153.829 213.550,152.240 213.052,151.010 211.382 C 148.296 207.697,152.748 204.461,158.685 205.803 M223.410 212.383 C 223.094 212.895,223.121 212.900,226.706 213.012 C 229.010 213.085,231.580 212.496,229.524 212.367 C 229.236 212.349,227.800 212.252,226.334 212.151 C 224.717 212.039,223.566 212.131,223.410 212.383 M150.458 216.763 C 153.757 218.024,155.878 219.739,157.534 222.484 C 158.340 223.819,159.949 226.282,161.109 227.956 C 166.256 235.387,166.401 237.396,162.391 245.753 C 161.323 247.979,159.968 251.600,159.380 253.800 C 157.347 261.412,156.351 264.321,155.115 266.256 C 153.447 268.868,151.902 272.331,150.679 276.200 C 149.237 280.761,148.145 283.139,146.644 284.987 C 145.118 286.865,142.867 290.860,141.565 294.000 C 140.548 296.454,139.154 298.611,137.043 301.000 C 136.265 301.880,135.145 303.500,134.555 304.600 C 132.581 308.277,125.582 316.257,122.714 318.102 C 119.751 320.007,110.400 315.557,110.400 312.242 C 110.400 311.986,109.770 310.282,109.000 308.456 C 108.230 306.630,107.600 304.904,107.600 304.621 C 107.600 303.357,99.913 293.043,97.355 290.874 C 91.403 285.828,87.827 284.457,78.941 283.812 C 66.096 282.880,64.401 277.520,73.666 267.125 C 77.863 262.415,87.219 253.359,90.600 250.734 C 92.875 248.967,93.323 248.591,96.157 246.068 C 97.720 244.676,100.330 242.645,101.955 241.554 C 103.580 240.464,106.010 238.618,107.355 237.452 C 108.700 236.286,111.399 234.376,113.353 233.207 C 115.308 232.038,117.475 230.583,118.169 229.974 C 118.863 229.364,120.954 227.944,122.815 226.817 C 124.677 225.690,126.470 224.597,126.800 224.388 C 127.130 224.179,128.063 223.649,128.873 223.210 C 129.683 222.771,130.457 222.232,130.593 222.012 C 133.428 217.425,144.522 214.493,150.458 216.763 M80.400 292.178 C 80.950 292.307,82.089 292.504,82.930 292.615 C 85.529 292.958,88.210 294.642,91.275 297.854 C 92.884 299.540,94.706 301.382,95.324 301.948 C 97.148 303.615,99.005 307.082,100.791 312.151 C 101.711 314.765,103.255 318.415,104.222 320.264 C 108.218 327.903,107.339 330.301,98.310 336.386 C 89.931 342.034,76.340 343.384,69.600 339.239 C 64.871 336.330,59.894 331.570,58.673 328.786 C 51.789 313.101,53.293 296.625,61.929 293.124 C 65.411 291.713,76.084 291.166,80.400 292.178 " stroke="none" fill="#0c2c34" fill-rule="evenodd"></path><path id="path6" d="M225.576 43.439 C 221.149 44.000,219.296 44.520,212.400 47.133 C 210.090 48.008,205.714 49.371,202.675 50.162 C 196.766 51.700,193.745 52.969,191.564 54.830 C 190.815 55.470,187.899 57.208,185.083 58.692 C 182.268 60.177,179.136 62.113,178.123 62.996 C 177.110 63.878,174.957 65.610,173.337 66.844 C 169.352 69.881,161.329 78.360,159.185 81.800 C 158.226 83.340,156.423 85.950,155.179 87.600 C 152.202 91.549,151.516 92.968,149.839 98.638 C 149.065 101.257,147.809 105.434,147.048 107.920 C 145.051 114.448,144.648 117.198,144.916 122.463 C 145.136 126.772,145.594 129.103,147.576 136.000 C 148.050 137.650,149.049 141.443,149.797 144.429 C 151.479 151.151,152.341 153.365,154.504 156.524 C 155.439 157.889,157.237 160.984,158.500 163.403 C 159.784 165.860,162.108 169.426,163.767 171.485 C 165.401 173.512,167.398 176.165,168.204 177.379 C 169.905 179.943,171.417 181.200,175.700 183.612 C 177.404 184.573,179.737 186.128,180.883 187.068 C 182.982 188.790,187.118 191.200,187.973 191.200 C 189.188 191.200,196.552 194.313,199.400 196.030 C 202.681 198.008,204.278 198.582,212.600 200.772 C 215.629 201.569,219.050 202.841,221.874 204.219 C 226.980 206.711,230.301 207.589,239.200 208.797 C 242.610 209.261,247.290 209.937,249.600 210.301 C 263.446 212.482,286.319 209.370,293.951 204.267 C 295.408 203.293,298.786 201.402,301.458 200.066 C 304.650 198.469,307.118 196.908,308.658 195.510 C 309.946 194.341,311.900 192.671,313.000 191.799 C 315.723 189.641,322.761 182.280,324.042 180.251 C 324.615 179.343,325.558 177.762,326.137 176.737 C 326.716 175.712,327.838 174.026,328.629 172.990 C 334.139 165.771,335.789 152.408,333.594 132.800 C 332.708 124.894,331.659 121.365,328.785 116.627 C 327.708 114.852,326.074 111.330,325.154 108.800 C 323.426 104.049,322.366 102.051,320.238 99.538 C 319.557 98.734,318.042 96.377,316.871 94.301 C 315.700 92.225,313.951 89.553,312.985 88.363 C 312.019 87.173,310.022 84.490,308.547 82.400 C 305.962 78.736,299.507 71.438,296.204 68.446 C 295.326 67.651,293.256 65.721,291.604 64.157 C 289.952 62.594,287.160 60.452,285.400 59.398 C 283.640 58.344,281.146 56.743,279.859 55.841 C 274.889 52.358,273.229 51.530,267.683 49.766 C 264.538 48.765,260.250 47.233,258.154 46.360 C 250.249 43.071,237.502 41.928,225.576 43.439 M245.776 45.682 C 247.238 45.878,250.992 46.944,254.117 48.052 C 259.598 49.995,262.525 50.932,267.200 52.239 C 271.476 53.435,272.866 54.104,276.315 56.627 C 278.232 58.030,281.087 59.905,282.660 60.795 C 288.341 64.007,301.120 76.461,306.200 83.736 C 307.300 85.311,309.370 88.074,310.800 89.875 C 312.230 91.676,314.008 94.286,314.750 95.675 C 316.048 98.103,317.361 100.139,320.119 104.003 C 320.827 104.995,322.195 107.965,323.159 110.603 C 324.122 113.241,325.959 117.389,327.240 119.820 C 331.032 127.018,332.251 134.663,331.890 149.000 C 331.580 161.340,330.698 164.979,326.504 171.212 C 325.390 172.868,323.899 175.361,323.192 176.753 C 322.406 178.300,320.744 180.470,318.910 182.341 C 317.262 184.023,315.461 185.986,314.908 186.702 C 314.355 187.418,312.979 188.677,311.851 189.499 C 310.723 190.321,308.534 192.094,306.986 193.437 C 305.066 195.103,302.683 196.606,299.487 198.166 C 296.910 199.424,293.857 201.090,292.701 201.869 C 288.062 204.995,285.052 205.873,273.600 207.438 C 266.961 208.346,254.811 208.353,247.800 207.452 C 244.940 207.085,241.700 206.688,240.600 206.569 C 239.500 206.451,237.070 206.077,235.200 205.739 C 233.330 205.400,231.350 205.043,230.800 204.944 C 230.250 204.845,227.550 203.715,224.800 202.432 C 222.050 201.149,218.000 199.619,215.800 199.032 C 205.967 196.411,204.505 195.932,202.416 194.652 C 198.830 192.455,195.573 190.936,192.386 189.974 C 187.838 188.602,186.386 187.883,182.817 185.237 C 181.011 183.897,178.419 182.179,177.058 181.418 C 173.869 179.634,171.509 177.600,169.922 175.264 C 169.225 174.239,167.163 171.496,165.340 169.168 C 163.320 166.588,161.227 163.321,159.979 160.796 C 158.853 158.519,157.197 155.574,156.299 154.252 C 152.842 149.160,148.258 130.012,148.244 120.600 C 148.231 112.029,152.415 95.677,155.676 91.552 C 156.558 90.436,158.527 87.605,160.051 85.261 C 161.575 82.918,164.123 79.646,165.711 77.992 C 167.300 76.337,169.410 74.078,170.400 72.973 C 171.390 71.867,173.280 70.174,174.600 69.210 C 175.920 68.247,178.342 66.379,179.982 65.060 C 181.622 63.740,184.862 61.682,187.182 60.486 C 189.502 59.289,192.548 57.495,193.952 56.498 C 196.887 54.414,199.520 53.447,207.842 51.399 C 211.119 50.593,215.433 49.322,217.429 48.576 C 225.671 45.496,236.291 44.411,245.776 45.682 " stroke="none" fill="#4c8c8c" fill-rule="evenodd"></path><path id="path7" d="M229.600 45.588 C 225.587 45.937,222.387 46.723,217.429 48.576 C 215.433 49.322,211.119 50.593,207.842 51.399 C 199.520 53.447,196.887 54.414,193.952 56.498 C 192.548 57.495,189.502 59.289,187.182 60.486 C 184.862 61.682,181.622 63.740,179.982 65.060 C 178.342 66.379,175.920 68.247,174.600 69.210 C 173.280 70.174,171.390 71.867,170.400 72.973 C 169.410 74.078,167.300 76.337,165.711 77.992 C 164.123 79.646,161.575 82.918,160.051 85.261 C 158.527 87.605,156.558 90.436,155.676 91.552 C 152.415 95.677,148.231 112.029,148.244 120.600 C 148.258 130.012,152.842 149.160,156.299 154.252 C 157.197 155.574,158.853 158.519,159.979 160.796 C 161.227 163.321,163.320 166.588,165.340 169.168 C 167.163 171.496,169.225 174.239,169.922 175.264 C 171.509 177.600,173.869 179.634,177.058 181.418 C 178.419 182.179,181.011 183.897,182.817 185.237 C 186.386 187.883,187.838 188.602,192.386 189.974 C 195.573 190.936,198.830 192.455,202.416 194.652 C 204.505 195.932,205.967 196.411,215.800 199.032 C 218.000 199.619,222.050 201.149,224.800 202.432 C 227.550 203.715,230.250 204.845,230.800 204.944 C 231.350 205.043,233.330 205.400,235.200 205.739 C 237.070 206.077,239.500 206.451,240.600 206.569 C 241.700 206.688,244.940 207.085,247.800 207.452 C 254.811 208.353,266.961 208.346,273.600 207.438 C 285.052 205.873,288.062 204.995,292.701 201.869 C 293.857 201.090,296.910 199.424,299.487 198.166 C 302.683 196.606,305.066 195.103,306.986 193.437 C 308.534 192.094,310.723 190.321,311.851 189.499 C 312.979 188.677,314.355 187.418,314.908 186.702 C 315.461 185.986,317.262 184.023,318.910 182.341 C 320.744 180.470,322.406 178.300,323.192 176.753 C 323.899 175.361,325.390 172.868,326.504 171.212 C 330.698 164.979,331.580 161.340,331.890 149.000 C 332.251 134.663,331.032 127.018,327.240 119.820 C 325.959 117.389,324.122 113.241,323.159 110.603 C 322.195 107.965,320.827 104.995,320.119 104.003 C 317.361 100.139,316.048 98.103,314.750 95.675 C 314.008 94.286,312.230 91.676,310.800 89.875 C 309.370 88.074,307.300 85.311,306.200 83.736 C 301.120 76.461,288.341 64.007,282.660 60.795 C 281.087 59.905,278.232 58.030,276.315 56.627 C 272.866 54.104,271.476 53.435,267.200 52.239 C 262.525 50.932,259.598 49.995,254.117 48.052 C 246.468 45.341,239.952 44.686,229.600 45.588 M247.800 48.113 C 248.900 48.445,251.870 49.442,254.400 50.329 C 256.930 51.215,261.250 52.514,264.000 53.215 C 269.795 54.692,271.429 55.435,275.794 58.576 C 277.550 59.840,280.162 61.560,281.597 62.398 C 287.666 65.943,299.479 77.611,305.581 86.090 C 307.095 88.193,309.231 91.027,310.328 92.389 C 311.425 93.750,312.910 95.974,313.628 97.332 C 314.347 98.689,315.962 101.330,317.218 103.200 C 320.028 107.384,320.410 108.147,321.795 112.350 C 322.402 114.192,324.019 117.887,325.388 120.561 C 329.329 128.260,329.845 130.607,330.272 142.800 C 330.727 155.791,329.583 162.886,326.212 168.000 C 325.269 169.430,323.541 172.310,322.373 174.400 C 319.946 178.743,312.940 186.606,309.200 189.184 C 307.990 190.018,306.550 191.139,306.000 191.676 C 304.081 193.549,302.166 194.758,297.303 197.166 C 294.609 198.500,291.645 200.142,290.715 200.816 C 284.233 205.511,267.743 207.369,248.202 205.605 C 234.827 204.398,231.711 203.687,225.400 200.403 C 222.997 199.153,217.957 197.509,214.200 196.751 C 213.100 196.528,211.782 196.263,211.272 196.160 C 209.777 195.860,205.121 193.932,203.585 192.977 C 200.690 191.177,197.284 189.651,193.793 188.592 C 189.466 187.278,187.202 186.176,184.576 184.106 C 183.489 183.249,181.250 181.762,179.600 180.801 C 174.291 177.709,173.892 177.314,167.087 168.400 C 163.110 163.190,162.674 162.519,161.630 160.000 C 161.129 158.790,159.855 156.354,158.800 154.587 C 155.173 148.513,154.431 146.498,152.945 138.689 C 149.550 120.850,149.552 118.979,152.988 103.882 C 154.471 97.367,155.484 94.920,158.087 91.566 C 159.029 90.352,160.430 88.314,161.200 87.037 C 163.036 83.990,167.055 78.913,168.251 78.129 C 168.772 77.789,169.725 76.791,170.371 75.913 C 171.488 74.395,173.881 72.190,176.789 70.000 C 177.519 69.450,179.665 67.782,181.558 66.293 C 183.451 64.805,186.170 63.019,187.600 62.325 C 189.030 61.631,192.090 59.933,194.400 58.552 C 199.226 55.667,202.264 54.510,209.000 52.992 C 211.640 52.397,216.230 51.137,219.200 50.193 C 224.063 48.646,227.040 47.927,230.600 47.441 C 233.505 47.044,245.860 47.527,247.800 48.113 " stroke="none" fill="#5ca4a4" fill-rule="evenodd"></path><path id="path8" d="M230.600 47.441 C 227.040 47.927,224.063 48.646,219.200 50.193 C 216.230 51.137,211.640 52.397,209.000 52.992 C 202.264 54.510,199.226 55.667,194.400 58.552 C 192.090 59.933,189.030 61.631,187.600 62.325 C 186.170 63.019,183.451 64.805,181.558 66.293 C 179.665 67.782,177.519 69.450,176.789 70.000 C 173.881 72.190,171.488 74.395,170.371 75.913 C 169.725 76.791,168.772 77.789,168.251 78.129 C 167.055 78.913,163.036 83.990,161.200 87.037 C 160.430 88.314,159.029 90.352,158.087 91.566 C 155.484 94.920,154.471 97.367,152.988 103.882 C 149.552 118.979,149.550 120.850,152.945 138.689 C 154.431 146.498,155.173 148.513,158.800 154.587 C 159.855 156.354,161.129 158.790,161.630 160.000 C 162.674 162.519,163.110 163.190,167.087 168.400 C 173.892 177.314,174.291 177.709,179.600 180.801 C 181.250 181.762,183.489 183.249,184.576 184.106 C 187.202 186.176,189.466 187.278,193.793 188.592 C 197.284 189.651,200.690 191.177,203.585 192.977 C 205.121 193.932,209.777 195.860,211.272 196.160 C 211.782 196.263,213.100 196.528,214.200 196.751 C 217.957 197.509,222.997 199.153,225.400 200.403 C 231.711 203.687,234.827 204.398,248.202 205.605 C 267.743 207.369,284.233 205.511,290.715 200.816 C 291.645 200.142,294.609 198.500,297.303 197.166 C 302.166 194.758,304.081 193.549,306.000 191.676 C 306.550 191.139,307.990 190.018,309.200 189.184 C 312.940 186.606,319.946 178.743,322.373 174.400 C 323.541 172.310,325.269 169.430,326.212 168.000 C 329.583 162.886,330.727 155.791,330.272 142.800 C 329.845 130.607,329.329 128.260,325.388 120.561 C 324.019 117.887,322.402 114.192,321.795 112.350 C 320.410 108.147,320.028 107.384,317.218 103.200 C 315.962 101.330,314.347 98.689,313.628 97.332 C 312.910 95.974,311.425 93.750,310.328 92.389 C 309.231 91.027,307.095 88.193,305.581 86.090 C 299.479 77.611,287.666 65.943,281.597 62.398 C 280.162 61.560,277.550 59.840,275.794 58.576 C 271.429 55.435,269.795 54.692,264.000 53.215 C 261.250 52.514,256.930 51.215,254.400 50.329 C 246.446 47.542,246.318 47.518,238.800 47.393 C 234.950 47.329,231.260 47.351,230.600 47.441 M248.200 51.756 C 252.452 53.197,257.681 54.634,263.000 55.824 C 268.467 57.046,271.503 58.478,273.600 60.824 C 273.710 60.947,275.223 61.905,276.962 62.953 C 285.377 68.023,296.668 78.809,303.328 88.139 C 304.608 89.933,306.678 92.600,307.928 94.067 C 309.178 95.534,311.181 98.594,312.380 100.867 C 313.580 103.140,314.883 105.347,315.277 105.772 C 316.426 107.010,319.423 113.157,320.361 116.200 C 320.836 117.740,322.378 121.340,323.789 124.200 C 325.199 127.060,326.457 129.940,326.585 130.600 C 327.794 136.880,328.112 150.589,327.202 157.200 C 326.651 161.198,325.835 163.228,323.179 167.200 C 322.370 168.410,320.974 170.861,320.077 172.646 C 317.825 177.127,311.064 184.479,305.625 188.362 C 303.452 189.914,301.425 191.413,301.121 191.692 C 300.357 192.395,299.260 193.002,294.349 195.443 C 292.006 196.607,288.958 198.291,287.574 199.185 C 279.497 204.406,243.575 205.209,233.000 200.406 C 232.560 200.206,230.997 199.495,229.527 198.826 C 224.977 196.755,222.876 196.019,219.071 195.162 C 217.052 194.707,215.085 194.259,214.700 194.167 C 214.315 194.075,213.630 193.918,213.178 193.819 C 212.114 193.584,207.120 191.601,206.600 191.206 C 204.971 189.971,197.038 186.442,196.507 186.717 C 196.456 186.744,195.782 186.501,195.009 186.178 C 194.236 185.855,193.512 185.595,193.400 185.600 C 192.691 185.632,189.838 184.057,185.733 181.368 C 183.130 179.663,180.100 177.686,179.000 176.975 C 176.689 175.480,173.551 172.273,171.595 169.409 C 170.208 167.376,169.588 166.602,167.302 164.050 C 166.217 162.838,162.400 155.765,162.400 154.966 C 162.400 154.831,161.500 153.192,160.400 151.323 C 159.300 149.454,158.400 147.798,158.400 147.642 C 158.400 147.487,158.187 147.147,157.926 146.886 C 156.959 145.919,155.657 139.478,154.553 130.200 C 154.449 129.320,154.193 127.520,153.984 126.200 C 153.394 122.453,153.529 117.952,154.405 112.245 C 156.205 100.511,157.085 97.597,159.855 94.197 C 160.844 92.982,161.874 91.586,162.142 91.094 C 163.449 88.703,166.564 84.293,168.044 82.738 C 173.562 76.939,176.962 73.631,178.664 72.403 C 179.729 71.634,180.690 70.907,180.800 70.787 C 180.910 70.667,182.168 69.676,183.596 68.584 C 185.023 67.493,186.418 66.387,186.696 66.128 C 186.974 65.868,189.225 64.634,191.697 63.386 C 194.170 62.138,196.645 60.807,197.197 60.428 C 201.026 57.796,211.100 54.576,214.987 54.740 C 215.096 54.745,215.774 54.569,216.493 54.351 C 225.888 51.493,230.778 50.499,235.786 50.428 C 238.418 50.392,240.626 50.308,240.691 50.242 C 240.983 49.951,245.652 50.892,248.200 51.756 " stroke="none" fill="#64b4b4" fill-rule="evenodd"></path></g></svg>