<svg id="svg" version="1.1" xmlns="http://www.w3.org/2000/svg" xmlns:xlink="http://www.w3.org/1999/xlink" width="400" height="400" viewBox="0, 0, 400,400"><g id="svgg"><path id="path0" d="M347.907 53.200 C 347.510 53.835,346.974 54.000,345.304 54.000 C 343.467 54.000,343.200 54.101,343.200 54.800 C 343.200 55.467,342.933 55.600,341.600 55.600 C 340.267 55.600,340.000 55.733,340.000 56.400 C 340.000 57.067,339.733 57.200,338.400 57.200 C 337.067 57.200,336.800 57.333,336.800 58.000 C 336.800 58.649,336.533 58.800,335.387 58.800 C 334.528 58.800,333.888 59.025,333.754 59.376 C 333.633 59.692,332.996 60.069,332.340 60.213 C 331.683 60.357,331.049 60.728,330.930 61.038 C 330.812 61.347,330.357 61.600,329.920 61.600 C 329.462 61.600,329.037 61.939,328.916 62.400 C 328.759 63.001,328.370 63.200,327.353 63.200 C 326.267 63.200,326.000 63.358,326.000 64.000 C 326.000 64.667,325.733 64.800,324.400 64.800 C 323.067 64.800,322.800 64.933,322.800 65.600 C 322.800 66.252,322.533 66.400,321.363 66.400 C 320.262 66.400,319.876 66.587,319.716 67.200 C 319.601 67.640,319.182 68.000,318.786 68.000 C 317.638 68.000,316.800 68.440,316.800 69.043 C 316.800 69.370,316.388 69.600,315.800 69.600 C 315.067 69.600,314.800 69.813,314.800 70.400 C 314.800 71.067,314.533 71.200,313.200 71.200 C 311.867 71.200,311.600 71.333,311.600 72.000 C 311.600 72.648,311.333 72.800,310.200 72.800 C 309.067 72.800,308.800 72.952,308.800 73.600 C 308.800 74.267,308.533 74.400,307.200 74.400 C 306.067 74.400,305.600 74.570,305.600 74.982 C 305.600 75.330,305.038 75.669,304.200 75.826 C 303.430 75.971,302.800 76.253,302.800 76.454 C 302.800 76.655,302.350 76.991,301.800 77.200 C 301.250 77.409,300.800 77.855,300.800 78.190 C 300.800 78.623,300.384 78.800,299.363 78.800 C 298.262 78.800,297.876 78.987,297.716 79.600 C 297.560 80.197,297.170 80.400,296.180 80.400 C 295.205 80.400,294.787 80.612,294.600 81.200 C 294.420 81.768,293.995 82.000,293.136 82.000 C 292.262 82.000,291.867 82.222,291.716 82.800 C 291.568 83.366,291.170 83.600,290.357 83.600 C 289.640 83.600,289.019 83.901,288.707 84.400 C 288.432 84.840,287.934 85.200,287.600 85.200 C 287.266 85.200,286.768 85.560,286.493 86.000 C 286.174 86.510,285.560 86.800,284.797 86.800 C 283.867 86.800,283.600 86.978,283.600 87.600 C 283.600 88.267,283.333 88.400,282.000 88.400 C 280.667 88.400,280.400 88.533,280.400 89.200 C 280.400 89.842,280.133 90.000,279.047 90.000 C 278.030 90.000,277.641 90.199,277.484 90.800 C 277.331 91.385,276.938 91.600,276.025 91.600 C 275.283 91.600,274.681 91.844,274.545 92.200 C 274.418 92.530,274.092 92.800,273.819 92.800 C 273.547 92.800,272.998 93.160,272.600 93.600 C 272.202 94.040,271.437 94.400,270.901 94.400 C 270.262 94.400,269.853 94.676,269.716 95.200 C 269.557 95.806,269.170 96.000,268.116 96.000 C 267.062 96.000,266.675 96.194,266.516 96.800 C 266.357 97.406,265.970 97.600,264.916 97.600 C 263.862 97.600,263.475 97.794,263.316 98.400 C 263.201 98.840,262.782 99.200,262.386 99.200 C 261.238 99.200,260.400 99.640,260.400 100.243 C 260.400 100.549,260.046 100.800,259.614 100.800 C 259.182 100.800,258.635 101.160,258.400 101.600 C 258.120 102.124,257.562 102.400,256.786 102.400 C 255.867 102.400,255.600 102.580,255.600 103.200 C 255.600 103.867,255.333 104.000,254.000 104.000 C 252.667 104.000,252.400 104.133,252.400 104.800 C 252.400 105.467,252.133 105.600,250.800 105.600 C 249.467 105.600,249.200 105.733,249.200 106.400 C 249.200 107.042,248.933 107.200,247.847 107.200 C 246.830 107.200,246.441 107.399,246.284 108.000 C 246.162 108.467,245.738 108.800,245.266 108.800 C 244.821 108.800,244.187 109.070,243.857 109.400 C 243.527 109.730,242.957 110.000,242.591 110.000 C 242.225 110.000,241.831 110.360,241.716 110.800 C 241.435 111.876,237.063 111.998,236.474 110.946 C 236.238 110.524,235.383 110.223,234.054 110.096 C 232.789 109.974,232.000 109.707,232.000 109.401 C 232.000 109.090,231.101 108.802,229.600 108.632 C 227.895 108.439,227.200 108.192,227.200 107.780 C 227.200 107.373,226.737 107.200,225.647 107.200 C 224.430 107.200,224.048 107.027,223.884 106.400 C 223.710 105.735,223.338 105.600,221.684 105.600 C 220.030 105.600,219.658 105.465,219.484 104.800 C 219.306 104.120,218.938 104.000,217.037 104.000 C 215.067 104.000,214.800 103.905,214.800 103.200 C 214.800 102.542,214.533 102.400,213.296 102.400 C 212.226 102.400,211.649 102.170,211.293 101.600 C 210.911 100.989,210.360 100.800,208.959 100.800 C 207.462 100.800,207.087 100.653,206.916 100.000 C 206.740 99.328,206.370 99.200,204.600 99.200 C 202.830 99.200,202.460 99.072,202.284 98.400 C 202.120 97.771,201.738 97.600,200.499 97.600 C 199.432 97.600,198.691 97.342,198.200 96.800 C 197.715 96.264,196.968 96.000,195.938 96.000 C 194.895 96.000,194.400 95.822,194.400 95.447 C 194.400 94.833,193.209 94.414,191.444 94.405 C 190.808 94.402,190.077 94.112,189.820 93.759 C 189.555 93.397,188.521 93.025,187.442 92.904 C 186.370 92.783,185.440 92.450,185.323 92.144 C 185.198 91.818,184.509 91.600,183.604 91.600 C 182.430 91.600,182.047 91.422,181.884 90.800 C 181.706 90.120,181.338 90.000,179.437 90.000 C 177.467 90.000,177.200 89.905,177.200 89.200 C 177.200 88.499,176.933 88.400,175.047 88.400 C 173.230 88.400,172.861 88.275,172.684 87.600 C 172.518 86.964,172.138 86.800,170.837 86.800 C 169.704 86.800,169.200 86.628,169.200 86.243 C 169.200 85.528,168.323 85.200,166.414 85.200 C 165.230 85.200,164.847 85.023,164.684 84.400 C 164.506 83.720,164.138 83.600,162.237 83.600 C 160.267 83.600,160.000 83.505,160.000 82.800 C 160.000 82.133,159.733 82.000,158.400 82.000 C 157.333 82.000,156.533 81.733,156.000 81.200 C 155.556 80.756,154.667 80.400,154.000 80.400 C 153.333 80.400,152.444 80.044,152.000 79.600 C 151.437 79.037,150.667 78.800,149.400 78.800 C 148.128 78.800,147.600 78.637,147.600 78.243 C 147.600 77.565,146.736 77.200,145.130 77.200 C 144.468 77.200,143.469 76.840,142.909 76.400 C 142.350 75.960,141.376 75.600,140.746 75.600 C 139.994 75.600,139.600 75.394,139.600 75.000 C 139.600 74.539,139.089 74.400,137.400 74.400 C 135.467 74.400,135.200 74.303,135.200 73.600 C 135.200 72.889,134.933 72.800,132.800 72.800 C 130.667 72.800,130.400 72.711,130.400 72.000 C 130.400 71.333,130.133 71.200,128.800 71.200 C 127.699 71.200,127.200 71.026,127.200 70.643 C 127.200 69.920,126.320 69.600,124.330 69.600 C 123.062 69.600,122.681 69.432,122.516 68.800 C 122.339 68.125,121.970 68.000,120.153 68.000 C 118.267 68.000,118.000 67.901,118.000 67.200 C 118.000 66.535,117.733 66.400,116.420 66.400 C 115.374 66.400,114.716 66.179,114.474 65.746 C 114.239 65.326,113.387 65.024,112.088 64.899 C 110.545 64.751,110.022 64.527,109.872 63.952 C 109.712 63.342,109.296 63.200,107.664 63.200 C 106.005 63.200,105.610 63.060,105.400 62.400 C 105.192 61.743,104.795 61.600,103.187 61.600 C 101.638 61.600,101.139 61.433,100.800 60.800 C 100.502 60.244,99.962 60.000,99.029 60.000 C 98.204 60.000,97.597 59.768,97.455 59.400 C 97.316 59.037,96.706 58.798,95.913 58.795 C 94.001 58.787,92.800 58.385,92.800 57.753 C 92.800 57.351,92.213 57.200,90.647 57.200 C 88.830 57.200,88.461 57.075,88.284 56.400 C 88.084 55.635,87.738 55.600,80.437 55.600 C 73.067 55.600,72.800 55.628,72.800 56.400 C 72.800 57.062,72.533 57.200,71.254 57.200 C 70.314 57.200,69.309 57.513,68.691 58.000 C 68.131 58.440,67.387 58.800,67.037 58.800 C 66.687 58.800,66.400 59.070,66.400 59.400 C 66.400 59.730,66.136 60.000,65.814 60.000 C 65.492 60.000,65.035 60.360,64.800 60.800 C 64.565 61.240,64.108 61.600,63.786 61.600 C 63.464 61.600,63.200 61.939,63.200 62.353 C 63.200 62.770,62.843 63.200,62.400 63.316 C 61.960 63.431,61.600 63.812,61.600 64.163 C 61.600 64.513,61.349 64.800,61.043 64.800 C 60.429 64.800,60.000 65.641,60.000 66.845 C 60.000 67.274,59.751 67.721,59.447 67.837 C 59.143 67.954,58.781 68.758,58.642 69.625 C 58.480 70.640,58.179 71.200,57.795 71.200 C 57.287 71.200,57.200 72.430,57.200 79.600 C 57.200 86.513,57.299 88.000,57.757 88.000 C 58.404 88.000,58.800 88.853,58.800 90.245 C 58.800 90.784,59.065 91.327,59.389 91.451 C 59.713 91.576,60.093 92.290,60.234 93.039 C 60.379 93.811,60.729 94.400,61.045 94.400 C 61.350 94.400,61.600 94.687,61.600 95.037 C 61.600 95.388,61.960 95.769,62.400 95.884 C 62.843 96.000,63.200 96.430,63.200 96.847 C 63.200 97.333,63.483 97.600,64.000 97.600 C 64.533 97.600,64.800 97.867,64.800 98.400 C 64.800 98.917,65.067 99.200,65.553 99.200 C 65.970 99.200,66.400 99.557,66.516 100.000 C 66.657 100.540,67.062 100.800,67.759 100.800 C 68.360 100.800,69.003 101.135,69.293 101.600 C 69.568 102.040,70.109 102.400,70.496 102.400 C 70.933 102.400,71.200 102.703,71.200 103.200 C 71.200 103.733,71.467 104.000,72.000 104.000 C 72.465 104.000,72.800 104.267,72.800 104.637 C 72.800 104.988,73.160 105.369,73.600 105.484 C 74.040 105.599,74.400 105.942,74.400 106.247 C 74.400 106.551,74.717 106.800,75.104 106.800 C 75.491 106.800,76.032 107.160,76.307 107.600 C 76.590 108.052,77.240 108.400,77.803 108.400 C 78.533 108.400,78.800 108.614,78.800 109.200 C 78.800 109.733,79.067 110.000,79.600 110.000 C 80.133 110.000,80.400 110.267,80.400 110.800 C 80.400 111.317,80.667 111.600,81.153 111.600 C 81.570 111.600,82.000 111.957,82.116 112.400 C 82.231 112.840,82.612 113.200,82.963 113.200 C 83.313 113.200,83.960 113.560,84.400 114.000 C 84.840 114.440,85.560 114.800,86.000 114.800 C 86.533 114.800,86.800 115.067,86.800 115.600 C 86.800 116.133,87.067 116.400,87.600 116.400 C 88.133 116.400,88.400 116.667,88.400 117.200 C 88.400 117.733,88.667 118.000,89.200 118.000 C 89.640 118.000,90.000 118.260,90.000 118.578 C 90.000 119.139,91.029 119.856,93.300 120.880 C 93.905 121.152,94.400 121.623,94.400 121.925 C 94.400 122.228,94.760 122.569,95.200 122.684 C 95.640 122.799,96.000 123.130,96.000 123.420 C 96.000 123.709,96.343 124.055,96.763 124.188 C 97.183 124.321,97.627 124.694,97.750 125.015 C 97.874 125.337,98.341 125.600,98.787 125.600 C 99.234 125.600,99.600 125.851,99.600 126.157 C 99.600 126.769,100.441 127.200,101.633 127.200 C 102.133 127.200,102.400 127.478,102.400 128.000 C 102.400 128.533,102.667 128.800,103.200 128.800 C 103.733 128.800,104.000 129.067,104.000 129.600 C 104.000 130.133,104.267 130.400,104.800 130.400 C 105.333 130.400,105.600 130.667,105.600 131.200 C 105.600 131.644,105.867 132.000,106.200 132.000 C 106.530 132.000,107.160 132.360,107.600 132.800 C 108.040 133.240,108.760 133.600,109.200 133.600 C 109.665 133.600,110.000 133.867,110.000 134.237 C 110.000 134.588,110.360 134.969,110.800 135.084 C 111.240 135.199,111.600 135.548,111.600 135.859 C 111.600 136.170,111.915 136.543,112.300 136.686 C 112.685 136.830,113.235 137.274,113.523 137.674 C 113.810 138.073,114.215 138.400,114.423 138.400 C 114.630 138.400,115.160 138.760,115.600 139.200 C 116.040 139.640,116.760 140.000,117.200 140.000 C 117.665 140.000,118.000 140.267,118.000 140.637 C 118.000 140.988,118.360 141.369,118.800 141.484 C 119.240 141.599,119.600 141.942,119.600 142.247 C 119.600 142.551,119.960 142.800,120.400 142.800 C 120.933 142.800,121.200 143.067,121.200 143.600 C 121.200 144.097,121.467 144.400,121.904 144.400 C 122.291 144.400,122.832 144.760,123.107 145.200 C 123.384 145.643,124.040 146.000,124.576 146.000 C 125.195 146.000,125.638 146.290,125.800 146.800 C 125.940 147.240,126.312 147.600,126.627 147.600 C 126.942 147.600,127.200 147.887,127.200 148.237 C 127.200 148.588,127.554 148.967,127.987 149.081 C 128.419 149.194,128.882 149.627,129.014 150.043 C 129.146 150.459,129.512 150.800,129.827 150.800 C 130.142 150.800,130.760 151.160,131.200 151.600 C 131.640 152.040,132.360 152.400,132.800 152.400 C 133.333 152.400,133.600 152.667,133.600 153.200 C 133.600 153.733,133.867 154.000,134.400 154.000 C 134.865 154.000,135.200 154.267,135.200 154.637 C 135.200 154.988,135.560 155.369,136.000 155.484 C 136.440 155.599,136.800 155.942,136.800 156.247 C 136.800 156.551,137.042 156.800,137.338 156.800 C 137.634 156.800,138.202 157.160,138.600 157.600 C 139.001 158.043,139.832 158.400,140.462 158.400 C 141.333 158.400,141.600 158.587,141.600 159.200 C 141.600 159.640,141.858 160.000,142.173 160.000 C 142.488 160.000,142.860 160.360,143.000 160.800 C 143.140 161.240,143.500 161.600,143.800 161.600 C 144.100 161.600,144.460 161.960,144.600 162.400 C 144.740 162.840,145.112 163.200,145.427 163.200 C 145.742 163.200,146.000 163.560,146.000 164.000 C 146.000 164.648,145.733 164.800,144.600 164.800 C 143.467 164.800,143.200 164.952,143.200 165.600 C 143.200 166.252,142.933 166.400,141.763 166.400 C 140.662 166.400,140.276 166.587,140.116 167.200 C 139.980 167.719,139.570 168.000,138.949 168.000 C 138.423 168.000,137.684 168.360,137.307 168.800 C 136.930 169.240,136.302 169.600,135.911 169.600 C 135.467 169.600,135.200 169.900,135.200 170.400 C 135.200 171.067,134.933 171.200,133.600 171.200 C 132.267 171.200,132.000 171.333,132.000 172.000 C 132.000 172.652,131.733 172.800,130.563 172.800 C 129.462 172.800,129.076 172.987,128.916 173.600 C 128.759 174.201,128.370 174.400,127.353 174.400 C 126.436 174.400,126.000 174.587,126.000 174.982 C 126.000 175.333,125.431 175.670,124.568 175.832 C 123.781 175.980,123.041 176.348,122.925 176.651 C 122.809 176.953,122.374 177.200,121.957 177.200 C 121.467 177.200,121.200 177.482,121.200 178.000 C 121.200 178.652,120.933 178.800,119.763 178.800 C 118.662 178.800,118.276 178.987,118.116 179.600 C 117.957 180.206,117.570 180.400,116.516 180.400 C 115.462 180.400,115.075 180.594,114.916 181.200 C 114.760 181.797,114.370 182.000,113.380 182.000 C 112.405 182.000,111.987 182.212,111.800 182.800 C 111.660 183.240,111.213 183.600,110.806 183.600 C 109.639 183.600,108.800 184.036,108.800 184.643 C 108.800 184.949,108.483 185.200,108.096 185.200 C 107.709 185.200,107.168 185.560,106.893 186.000 C 106.574 186.510,105.960 186.800,105.197 186.800 C 104.267 186.800,104.000 186.978,104.000 187.600 C 104.000 188.133,103.733 188.400,103.200 188.400 C 102.760 188.400,102.040 188.040,101.600 187.600 C 101.084 187.084,100.267 186.800,99.296 186.800 C 98.226 186.800,97.649 186.570,97.293 186.000 C 96.904 185.378,96.360 185.200,94.843 185.200 C 93.230 185.200,92.857 185.062,92.684 184.400 C 92.510 183.734,92.138 183.600,90.464 183.600 C 88.805 183.600,88.410 183.460,88.200 182.800 C 87.988 182.132,87.595 182.000,85.820 182.000 C 84.030 182.000,83.660 181.873,83.484 181.200 C 83.307 180.523,82.938 180.400,81.084 180.400 C 79.230 180.400,78.861 180.277,78.684 179.600 C 78.511 178.939,78.138 178.800,76.534 178.800 C 75.026 178.800,74.481 178.621,74.093 178.000 C 73.715 177.395,73.160 177.200,71.816 177.200 C 70.637 177.200,69.925 176.994,69.697 176.587 C 69.508 176.250,68.646 175.860,67.780 175.719 C 66.915 175.579,65.967 175.225,65.675 174.932 C 65.382 174.639,64.367 174.400,63.418 174.400 C 62.030 174.400,61.653 174.244,61.484 173.600 C 61.306 172.920,60.938 172.800,59.037 172.800 C 57.067 172.800,56.800 172.705,56.800 172.000 C 56.800 171.299,56.533 171.200,54.647 171.200 C 52.830 171.200,52.461 171.075,52.284 170.400 C 52.106 169.720,51.738 169.600,49.837 169.600 C 47.867 169.600,47.600 169.505,47.600 168.800 C 47.600 168.097,47.333 168.000,45.400 168.000 C 43.733 168.000,43.006 167.806,42.400 167.200 C 41.175 165.975,30.836 165.975,30.516 167.200 C 30.340 167.872,29.970 168.000,28.200 168.000 C 26.430 168.000,26.060 168.128,25.884 168.800 C 25.724 169.413,25.338 169.600,24.237 169.600 C 23.067 169.600,22.800 169.748,22.800 170.400 C 22.800 170.933,22.533 171.200,22.000 171.200 C 21.467 171.200,21.200 171.467,21.200 172.000 C 21.200 172.440,20.938 172.800,20.618 172.800 C 19.987 172.800,18.000 174.614,18.000 175.191 C 18.000 175.386,17.659 175.654,17.243 175.786 C 16.827 175.918,16.394 176.381,16.281 176.813 C 16.167 177.246,15.788 177.600,15.437 177.600 C 14.980 177.600,14.800 177.982,14.800 178.953 C 14.800 179.970,14.601 180.359,14.000 180.516 C 13.352 180.685,13.200 181.062,13.200 182.501 C 13.200 183.768,12.971 184.483,12.400 185.000 C 11.163 186.120,11.163 200.361,12.400 200.684 C 13.027 200.848,13.200 201.230,13.200 202.447 C 13.200 203.467,13.475 204.275,14.000 204.800 C 14.440 205.240,14.800 205.887,14.800 206.237 C 14.800 206.588,15.160 206.969,15.600 207.084 C 16.040 207.199,16.400 207.542,16.400 207.847 C 16.400 208.151,16.760 208.400,17.200 208.400 C 17.733 208.400,18.000 208.667,18.000 209.200 C 18.000 209.733,18.267 210.000,18.800 210.000 C 19.333 210.000,19.600 210.267,19.600 210.800 C 19.600 211.333,19.867 211.600,20.400 211.600 C 20.933 211.600,21.200 211.867,21.200 212.400 C 21.200 212.933,21.467 213.200,22.000 213.200 C 22.533 213.200,22.800 213.467,22.800 214.000 C 22.800 214.533,23.067 214.800,23.600 214.800 C 24.133 214.800,24.400 215.067,24.400 215.600 C 24.400 216.133,24.667 216.400,25.200 216.400 C 25.652 216.400,26.000 216.667,26.000 217.013 C 26.000 217.349,26.301 217.741,26.669 217.882 C 27.038 218.023,27.668 218.468,28.069 218.869 C 28.471 219.271,29.160 219.600,29.600 219.600 C 30.133 219.600,30.400 219.867,30.400 220.400 C 30.400 220.917,30.667 221.200,31.153 221.200 C 31.570 221.200,32.000 221.557,32.116 222.000 C 32.231 222.440,32.591 222.800,32.916 222.800 C 33.241 222.800,33.601 223.160,33.716 223.600 C 33.831 224.040,34.212 224.400,34.563 224.400 C 34.913 224.400,35.200 224.670,35.200 225.000 C 35.200 225.330,35.539 225.600,35.953 225.600 C 36.370 225.600,36.800 225.957,36.916 226.400 C 37.051 226.916,37.462 227.200,38.074 227.200 C 38.596 227.200,39.283 227.560,39.600 228.000 C 39.917 228.440,40.497 228.800,40.888 228.800 C 41.333 228.800,41.600 229.100,41.600 229.600 C 41.600 230.040,41.849 230.400,42.153 230.400 C 42.458 230.400,42.801 230.760,42.916 231.200 C 43.031 231.640,43.391 232.000,43.716 232.000 C 44.041 232.000,44.401 232.360,44.516 232.800 C 44.631 233.240,45.000 233.600,45.336 233.600 C 45.671 233.600,46.060 233.960,46.200 234.400 C 46.340 234.840,46.703 235.200,47.007 235.200 C 47.311 235.200,47.704 235.436,47.880 235.723 C 48.056 236.011,48.785 236.483,49.500 236.772 C 50.215 237.061,50.800 237.545,50.800 237.849 C 50.800 238.152,51.139 238.400,51.553 238.400 C 51.970 238.400,52.400 238.757,52.516 239.200 C 52.631 239.640,52.991 240.000,53.316 240.000 C 53.641 240.000,54.001 240.360,54.116 240.800 C 54.324 241.594,54.659 241.600,100.863 241.595 C 147.372 241.589,149.200 241.551,149.200 240.598 C 149.200 240.318,149.839 239.969,150.621 239.822 C 151.403 239.676,152.138 239.307,152.254 239.002 C 152.371 238.698,153.004 238.331,153.660 238.187 C 154.317 238.043,154.951 237.672,155.070 237.362 C 155.188 237.053,155.643 236.800,156.080 236.800 C 156.538 236.800,156.963 236.461,157.084 236.000 C 157.241 235.399,157.630 235.200,158.647 235.200 C 159.733 235.200,160.000 235.042,160.000 234.400 C 160.000 233.733,160.267 233.600,161.600 233.600 C 162.933 233.600,163.200 233.467,163.200 232.800 C 163.200 232.148,163.467 232.000,164.637 232.000 C 165.738 232.000,166.124 231.813,166.284 231.200 C 166.432 230.636,166.830 230.400,167.633 230.400 C 168.362 230.400,168.926 230.113,169.200 229.600 C 169.435 229.160,169.939 228.800,170.318 228.800 C 170.697 228.800,171.232 228.440,171.507 228.000 C 171.797 227.535,172.440 227.200,173.041 227.200 C 173.738 227.200,174.143 226.940,174.284 226.400 C 174.441 225.799,174.830 225.600,175.847 225.600 C 176.783 225.600,177.200 225.415,177.200 225.000 C 177.200 224.632,177.574 224.400,178.167 224.400 C 179.518 224.400,180.400 224.006,180.400 223.402 C 180.400 223.120,181.039 222.769,181.821 222.622 C 182.603 222.476,183.342 222.096,183.464 221.778 C 183.586 221.460,184.026 221.200,184.443 221.200 C 184.859 221.200,185.560 220.840,186.000 220.400 C 186.440 219.960,187.087 219.600,187.437 219.600 C 187.788 219.600,188.169 219.240,188.284 218.800 C 188.443 218.194,188.830 218.000,189.884 218.000 C 190.938 218.000,191.325 217.806,191.484 217.200 C 191.641 216.599,192.030 216.400,193.047 216.400 C 194.133 216.400,194.400 216.242,194.400 215.600 C 194.400 214.948,194.667 214.800,195.837 214.800 C 196.938 214.800,197.324 214.613,197.484 214.000 C 197.632 213.434,198.030 213.200,198.843 213.200 C 199.560 213.200,200.181 212.899,200.493 212.400 C 200.768 211.960,201.266 211.600,201.600 211.600 C 201.934 211.600,202.432 211.240,202.707 210.800 C 203.026 210.290,203.640 210.000,204.403 210.000 C 205.333 210.000,205.600 209.822,205.600 209.200 C 205.600 208.552,205.867 208.400,207.000 208.400 C 207.978 208.400,208.400 208.219,208.400 207.800 C 208.400 207.432,208.774 207.200,209.367 207.200 C 210.714 207.200,211.600 206.806,211.600 206.208 C 211.600 205.927,212.311 205.589,213.200 205.446 C 214.235 205.281,214.800 204.980,214.800 204.595 C 214.800 204.267,215.158 204.000,215.600 204.000 C 216.040 204.000,216.760 203.640,217.200 203.200 C 217.640 202.760,218.360 202.400,218.800 202.400 C 219.333 202.400,219.600 202.133,219.600 201.600 C 219.600 200.948,219.867 200.800,221.037 200.800 C 222.138 200.800,222.524 200.613,222.684 200.000 C 222.841 199.399,223.230 199.200,224.247 199.200 C 225.333 199.200,225.600 199.042,225.600 198.400 C 225.600 197.733,225.867 197.600,227.200 197.600 C 228.533 197.600,228.800 197.467,228.800 196.800 C 228.800 196.178,229.067 196.000,229.997 196.000 C 230.760 196.000,231.374 195.710,231.693 195.200 C 231.968 194.760,232.466 194.400,232.800 194.400 C 233.134 194.400,233.632 194.040,233.907 193.600 C 234.226 193.090,234.840 192.800,235.603 192.800 C 236.400 192.800,236.800 192.600,236.800 192.200 C 236.800 191.800,237.200 191.600,237.997 191.600 C 238.760 191.600,239.374 191.310,239.693 190.800 C 239.968 190.360,240.494 190.000,240.864 190.000 C 241.934 190.000,242.800 189.556,242.800 189.008 C 242.800 188.727,243.511 188.389,244.400 188.246 C 245.435 188.081,246.000 187.780,246.000 187.395 C 246.000 187.067,246.358 186.800,246.800 186.800 C 247.240 186.800,247.960 186.440,248.400 186.000 C 248.840 185.560,249.560 185.200,250.000 185.200 C 250.533 185.200,250.800 184.933,250.800 184.400 C 250.800 183.748,251.067 183.600,252.237 183.600 C 253.338 183.600,253.724 183.413,253.884 182.800 C 254.040 182.203,254.430 182.000,255.420 182.000 C 256.395 182.000,256.813 181.788,257.000 181.200 C 257.189 180.605,257.605 180.400,258.627 180.400 C 259.733 180.400,260.000 180.245,260.000 179.600 C 260.000 178.948,260.267 178.800,261.437 178.800 C 262.538 178.800,262.924 178.613,263.084 178.000 C 263.199 177.560,263.589 177.200,263.950 177.200 C 264.312 177.200,264.832 176.840,265.107 176.400 C 265.426 175.890,266.040 175.600,266.803 175.600 C 267.600 175.600,268.000 175.400,268.000 175.000 C 268.000 174.632,268.374 174.400,268.967 174.400 C 270.348 174.400,271.200 174.002,271.200 173.357 C 271.200 173.032,271.610 172.800,272.184 172.800 C 272.726 172.800,273.491 172.461,273.884 172.047 C 274.278 171.632,275.185 171.168,275.900 171.015 C 276.626 170.859,277.200 170.486,277.200 170.168 C 277.200 169.856,277.560 169.600,278.000 169.600 C 278.440 169.600,279.160 169.240,279.600 168.800 C 280.040 168.360,280.760 168.000,281.200 168.000 C 281.733 168.000,282.000 167.733,282.000 167.200 C 282.000 166.533,282.267 166.400,283.600 166.400 C 284.933 166.400,285.200 166.267,285.200 165.600 C 285.200 164.948,285.467 164.800,286.637 164.800 C 287.738 164.800,288.124 164.613,288.284 164.000 C 288.439 163.406,288.830 163.200,289.800 163.200 C 290.770 163.200,291.161 162.994,291.316 162.400 C 291.470 161.811,291.862 161.600,292.800 161.600 C 293.738 161.600,294.130 161.389,294.284 160.800 C 294.400 160.357,294.830 160.000,295.247 160.000 C 295.661 160.000,296.360 159.640,296.800 159.200 C 297.240 158.760,297.960 158.400,298.400 158.400 C 298.844 158.400,299.200 158.133,299.200 157.800 C 299.200 157.378,299.626 157.200,300.637 157.200 C 301.738 157.200,302.124 157.013,302.284 156.400 C 302.432 155.834,302.830 155.600,303.643 155.600 C 304.360 155.600,304.981 155.299,305.293 154.800 C 305.568 154.360,306.094 154.000,306.464 154.000 C 307.538 154.000,308.400 153.556,308.400 153.002 C 308.400 152.720,309.013 152.374,309.761 152.234 C 310.510 152.093,311.224 151.713,311.349 151.389 C 311.473 151.065,311.941 150.800,312.387 150.800 C 312.933 150.800,313.200 150.537,313.200 150.000 C 313.200 149.333,313.467 149.200,314.800 149.200 C 316.133 149.200,316.400 149.067,316.400 148.400 C 316.400 147.748,316.667 147.600,317.837 147.600 C 318.938 147.600,319.324 147.413,319.484 146.800 C 319.640 146.203,320.030 146.000,321.020 146.000 C 321.995 146.000,322.413 145.788,322.600 145.200 C 322.780 144.632,323.205 144.400,324.064 144.400 C 324.938 144.400,325.333 144.178,325.484 143.600 C 325.599 143.160,325.998 142.800,326.370 142.800 C 326.742 142.800,327.396 142.536,327.824 142.213 C 328.251 141.890,328.932 141.620,329.337 141.613 C 329.743 141.606,330.169 141.240,330.284 140.800 C 330.443 140.194,330.830 140.000,331.884 140.000 C 332.938 140.000,333.325 139.806,333.484 139.200 C 333.617 138.692,334.030 138.400,334.614 138.400 C 335.951 138.400,336.800 137.995,336.800 137.357 C 336.800 137.001,337.246 136.800,338.037 136.800 C 338.938 136.800,339.332 136.583,339.484 136.000 C 339.619 135.482,340.030 135.200,340.647 135.200 C 341.171 135.200,341.960 134.840,342.400 134.400 C 342.840 133.960,343.470 133.600,343.800 133.600 C 344.133 133.600,344.400 133.244,344.400 132.800 C 344.400 132.133,344.667 132.000,346.000 132.000 C 347.333 132.000,347.600 131.867,347.600 131.200 C 347.600 130.533,347.867 130.400,349.200 130.400 C 350.533 130.400,350.800 130.267,350.800 129.600 C 350.800 128.948,351.067 128.800,352.237 128.800 C 353.338 128.800,353.724 128.613,353.884 128.000 C 354.034 127.426,354.430 127.200,355.284 127.200 C 356.138 127.200,356.534 126.974,356.684 126.400 C 356.799 125.960,357.198 125.600,357.570 125.600 C 357.942 125.600,358.596 125.336,359.024 125.013 C 359.451 124.690,360.205 124.420,360.700 124.413 C 361.329 124.404,361.600 124.159,361.600 123.600 C 361.600 122.948,361.867 122.800,363.037 122.800 C 364.138 122.800,364.524 122.613,364.684 122.000 C 364.843 121.394,365.230 121.200,366.284 121.200 C 367.338 121.200,367.725 121.006,367.884 120.400 C 368.032 119.836,368.430 119.600,369.233 119.600 C 369.962 119.600,370.526 119.313,370.800 118.800 C 371.035 118.360,371.582 118.000,372.014 118.000 C 372.446 118.000,373.160 117.640,373.600 117.200 C 374.040 116.760,374.670 116.400,375.000 116.400 C 375.333 116.400,375.600 116.044,375.600 115.600 C 375.600 114.948,375.867 114.800,377.037 114.800 C 378.138 114.800,378.524 114.613,378.684 114.000 C 378.800 113.557,379.230 113.200,379.647 113.200 C 380.133 113.200,380.400 112.917,380.400 112.400 C 380.400 111.867,380.667 111.600,381.200 111.600 C 381.733 111.600,382.000 111.333,382.000 110.800 C 382.000 110.267,382.267 110.000,382.800 110.000 C 383.317 110.000,383.600 109.733,383.600 109.247 C 383.600 108.830,383.957 108.400,384.400 108.284 C 384.974 108.134,385.200 107.738,385.200 106.884 C 385.200 106.030,385.426 105.634,386.000 105.484 C 386.440 105.369,386.800 104.988,386.800 104.637 C 386.800 104.287,387.160 103.640,387.600 103.200 C 388.125 102.675,388.400 101.867,388.400 100.847 C 388.400 99.630,388.573 99.248,389.200 99.084 C 389.871 98.909,390.000 98.538,390.000 96.782 C 390.000 95.250,390.188 94.551,390.700 94.176 C 391.321 93.722,391.400 92.866,391.400 86.603 C 391.400 80.295,391.325 79.502,390.700 79.152 C 390.185 78.864,390.000 78.253,390.000 76.842 C 390.000 75.475,389.785 74.729,389.250 74.246 C 388.838 73.873,388.400 72.816,388.277 71.898 C 388.154 70.979,387.771 70.022,387.427 69.770 C 387.082 69.518,386.800 69.060,386.800 68.752 C 386.800 68.444,386.440 67.968,386.000 67.693 C 385.535 67.403,385.200 66.760,385.200 66.159 C 385.200 65.462,384.940 65.057,384.400 64.916 C 383.957 64.800,383.600 64.370,383.600 63.953 C 383.600 63.467,383.317 63.200,382.800 63.200 C 382.267 63.200,382.000 62.933,382.000 62.400 C 382.000 61.867,381.733 61.600,381.200 61.600 C 380.735 61.600,380.400 61.333,380.400 60.963 C 380.400 60.612,380.040 60.231,379.600 60.116 C 379.160 60.001,378.800 59.658,378.800 59.353 C 378.800 59.049,378.446 58.800,378.014 58.800 C 377.582 58.800,377.035 58.440,376.800 58.000 C 376.543 57.520,375.962 57.200,375.348 57.200 C 374.662 57.200,374.256 56.937,374.116 56.400 C 373.957 55.794,373.570 55.600,372.516 55.600 C 371.462 55.600,371.075 55.406,370.916 54.800 C 370.737 54.114,370.370 54.000,368.353 54.000 C 366.608 54.000,366.000 53.856,366.000 53.443 C 366.000 52.023,348.787 51.792,347.907 53.200 M361.745 75.000 C 361.889 75.377,362.501 75.600,363.387 75.600 C 364.533 75.600,364.800 75.751,364.800 76.400 C 364.800 76.933,365.067 77.200,365.600 77.200 C 366.133 77.200,366.400 77.467,366.400 78.000 C 366.400 78.533,366.667 78.800,367.200 78.800 C 367.867 78.800,368.000 79.067,368.000 80.400 C 368.000 81.733,368.133 82.000,368.800 82.000 C 369.546 82.000,369.600 82.267,369.600 85.953 C 369.600 89.570,369.532 89.924,368.800 90.116 C 368.211 90.270,368.000 90.662,368.000 91.600 C 368.000 92.538,367.789 92.930,367.200 93.084 C 366.760 93.199,366.400 93.530,366.400 93.820 C 366.400 94.109,366.040 94.460,365.600 94.600 C 365.160 94.740,364.800 95.091,364.800 95.380 C 364.800 95.670,364.440 96.001,364.000 96.116 C 363.560 96.231,363.200 96.612,363.200 96.963 C 363.200 97.420,362.818 97.600,361.847 97.600 C 360.830 97.600,360.441 97.799,360.284 98.400 C 360.130 98.989,359.738 99.200,358.800 99.200 C 357.862 99.200,357.470 99.411,357.316 100.000 C 357.200 100.443,356.770 100.800,356.353 100.800 C 355.939 100.800,355.240 101.160,354.800 101.600 C 354.360 102.040,353.640 102.400,353.200 102.400 C 352.667 102.400,352.400 102.667,352.400 103.200 C 352.400 103.867,352.133 104.000,350.800 104.000 C 349.467 104.000,349.200 104.133,349.200 104.800 C 349.200 105.452,348.933 105.600,347.763 105.600 C 346.662 105.600,346.276 105.787,346.116 106.400 C 345.961 106.994,345.570 107.200,344.600 107.200 C 343.630 107.200,343.239 107.406,343.084 108.000 C 342.931 108.585,342.538 108.800,341.625 108.800 C 340.883 108.800,340.281 109.044,340.145 109.400 C 340.018 109.730,339.692 110.000,339.419 110.000 C 339.147 110.000,338.598 110.360,338.200 110.800 C 337.802 111.240,337.037 111.600,336.501 111.600 C 335.862 111.600,335.453 111.876,335.316 112.400 C 335.157 113.006,334.770 113.200,333.716 113.200 C 332.662 113.200,332.275 113.394,332.116 114.000 C 331.960 114.597,331.570 114.800,330.580 114.800 C 329.605 114.800,329.187 115.012,329.000 115.600 C 328.820 116.168,328.395 116.400,327.536 116.400 C 326.662 116.400,326.267 116.622,326.116 117.200 C 326.000 117.643,325.570 118.000,325.153 118.000 C 324.739 118.000,324.040 118.360,323.600 118.800 C 323.160 119.240,322.440 119.600,322.000 119.600 C 321.467 119.600,321.200 119.867,321.200 120.400 C 321.200 121.067,320.933 121.200,319.600 121.200 C 318.267 121.200,318.000 121.333,318.000 122.000 C 318.000 122.667,317.733 122.800,316.400 122.800 C 315.067 122.800,314.800 122.933,314.800 123.600 C 314.800 124.248,314.533 124.400,313.400 124.400 C 312.518 124.400,312.000 124.592,312.000 124.920 C 312.000 125.205,311.370 125.667,310.600 125.946 C 309.830 126.224,309.200 126.620,309.200 126.826 C 309.200 127.032,308.750 127.200,308.200 127.200 C 307.467 127.200,307.200 127.413,307.200 128.000 C 307.200 128.667,306.933 128.800,305.600 128.800 C 304.267 128.800,304.000 128.933,304.000 129.600 C 304.000 130.252,303.733 130.400,302.563 130.400 C 301.462 130.400,301.076 130.587,300.916 131.200 C 300.757 131.806,300.370 132.000,299.316 132.000 C 298.262 132.000,297.875 132.194,297.716 132.800 C 297.601 133.240,297.182 133.600,296.786 133.600 C 295.638 133.600,294.800 134.040,294.800 134.643 C 294.800 134.949,294.423 135.200,293.963 135.200 C 293.462 135.200,293.041 135.521,292.916 136.000 C 292.759 136.601,292.370 136.800,291.353 136.800 C 290.267 136.800,290.000 136.958,290.000 137.600 C 290.000 138.267,289.733 138.400,288.400 138.400 C 287.067 138.400,286.800 138.533,286.800 139.200 C 286.800 139.867,286.533 140.000,285.200 140.000 C 283.867 140.000,283.600 140.133,283.600 140.800 C 283.600 141.448,283.333 141.600,282.200 141.600 C 281.430 141.600,280.800 141.772,280.800 141.981 C 280.800 142.191,280.170 142.661,279.400 143.027 C 278.630 143.392,278.000 143.851,278.000 144.046 C 278.000 144.241,277.571 144.400,277.047 144.400 C 276.430 144.400,276.019 144.682,275.884 145.200 C 275.724 145.813,275.338 146.000,274.237 146.000 C 273.067 146.000,272.800 146.148,272.800 146.800 C 272.800 147.452,272.533 147.600,271.363 147.600 C 270.262 147.600,269.876 147.787,269.716 148.400 C 269.583 148.908,269.170 149.200,268.586 149.200 C 267.279 149.200,266.400 149.601,266.400 150.198 C 266.400 150.480,265.770 150.829,265.000 150.974 C 264.162 151.131,263.600 151.470,263.600 151.818 C 263.600 152.172,263.208 152.400,262.600 152.400 C 261.867 152.400,261.600 152.613,261.600 153.200 C 261.600 153.848,261.333 154.000,260.200 154.000 C 259.067 154.000,258.800 154.152,258.800 154.800 C 258.800 155.467,258.533 155.600,257.200 155.600 C 255.867 155.600,255.600 155.733,255.600 156.400 C 255.600 157.067,255.333 157.200,254.000 157.200 C 252.667 157.200,252.400 157.333,252.400 158.000 C 252.400 158.624,252.133 158.800,251.187 158.800 C 250.479 158.800,249.879 159.049,249.745 159.400 C 249.618 159.730,249.180 160.000,248.771 160.000 C 248.363 160.000,247.835 160.360,247.600 160.800 C 247.315 161.332,246.762 161.600,245.948 161.600 C 245.062 161.600,244.668 161.820,244.516 162.400 C 244.359 163.001,243.970 163.200,242.953 163.200 C 241.867 163.200,241.600 163.358,241.600 164.000 C 241.600 164.652,241.333 164.800,240.163 164.800 C 239.062 164.800,238.676 164.987,238.516 165.600 C 238.357 166.206,237.970 166.400,236.916 166.400 C 235.862 166.400,235.475 166.594,235.316 167.200 C 235.201 167.640,234.796 168.000,234.415 168.000 C 234.035 168.000,233.398 168.360,233.000 168.800 C 232.602 169.240,231.854 169.600,231.338 169.600 C 230.667 169.600,230.400 169.827,230.400 170.400 C 230.400 171.052,230.133 171.200,228.963 171.200 C 227.862 171.200,227.476 171.387,227.316 172.000 C 227.159 172.601,226.770 172.800,225.753 172.800 C 224.667 172.800,224.400 172.958,224.400 173.600 C 224.400 174.267,224.133 174.400,222.800 174.400 C 221.684 174.400,221.200 174.572,221.200 174.968 C 221.200 175.281,220.648 175.658,219.973 175.806 C 219.298 175.954,218.649 176.328,218.530 176.638 C 218.412 176.947,217.957 177.200,217.520 177.200 C 217.062 177.200,216.637 177.539,216.516 178.000 C 216.357 178.606,215.970 178.800,214.916 178.800 C 213.862 178.800,213.475 178.994,213.316 179.600 C 213.160 180.197,212.770 180.400,211.780 180.400 C 210.805 180.400,210.387 180.612,210.200 181.200 C 210.020 181.768,209.595 182.000,208.736 182.000 C 207.862 182.000,207.467 182.222,207.316 182.800 C 207.183 183.308,206.770 183.600,206.186 183.600 C 204.849 183.600,204.000 184.005,204.000 184.643 C 204.000 184.949,203.683 185.200,203.296 185.200 C 202.909 185.200,202.368 185.560,202.093 186.000 C 201.774 186.510,201.160 186.800,200.397 186.800 C 199.467 186.800,199.200 186.978,199.200 187.600 C 199.200 188.267,198.933 188.400,197.600 188.400 C 196.267 188.400,196.000 188.533,196.000 189.200 C 196.000 189.848,195.733 190.000,194.600 190.000 C 193.467 190.000,193.200 190.152,193.200 190.800 C 193.200 191.467,192.933 191.600,191.600 191.600 C 190.444 191.600,190.000 191.767,190.000 192.200 C 190.000 192.530,189.754 192.800,189.454 192.800 C 189.154 192.800,188.450 193.160,187.891 193.600 C 187.331 194.040,186.570 194.400,186.199 194.400 C 185.829 194.400,185.431 194.760,185.316 195.200 C 185.157 195.806,184.770 196.000,183.716 196.000 C 182.662 196.000,182.275 196.194,182.116 196.800 C 181.957 197.406,181.570 197.600,180.516 197.600 C 179.462 197.600,179.075 197.794,178.916 198.400 C 178.766 198.974,178.370 199.200,177.516 199.200 C 176.662 199.200,176.266 199.426,176.116 200.000 C 175.981 200.518,175.570 200.800,174.953 200.800 C 174.429 200.800,173.640 201.160,173.200 201.600 C 172.760 202.040,172.130 202.400,171.800 202.400 C 171.467 202.400,171.200 202.756,171.200 203.200 C 171.200 203.867,170.933 204.000,169.600 204.000 C 168.267 204.000,168.000 204.133,168.000 204.800 C 168.000 205.467,167.733 205.600,166.400 205.600 C 165.067 205.600,164.800 205.733,164.800 206.400 C 164.800 207.045,164.533 207.200,163.427 207.200 C 162.405 207.200,161.989 207.405,161.800 208.000 C 161.621 208.563,161.195 208.800,160.360 208.800 C 159.676 208.800,159.078 209.053,158.945 209.400 C 158.818 209.730,158.417 210.000,158.053 210.000 C 157.690 210.000,157.168 210.360,156.893 210.800 C 156.574 211.310,155.960 211.600,155.197 211.600 C 154.267 211.600,154.000 211.778,154.000 212.400 C 154.000 213.052,153.733 213.200,152.563 213.200 C 151.462 213.200,151.076 213.387,150.916 214.000 C 150.757 214.606,150.370 214.800,149.316 214.800 C 148.262 214.800,147.875 214.994,147.716 215.600 C 147.566 216.174,147.170 216.400,146.316 216.400 C 145.462 216.400,145.066 216.626,144.916 217.200 C 144.781 217.717,144.370 218.000,143.757 218.000 C 143.234 218.000,142.582 218.360,142.307 218.800 C 142.032 219.240,141.401 219.600,140.904 219.600 C 140.267 219.600,140.000 219.836,140.000 220.400 C 140.000 221.194,139.733 221.200,102.400 221.200 C 65.067 221.200,64.800 221.194,64.800 220.400 C 64.800 219.867,64.533 219.600,64.000 219.600 C 63.467 219.600,63.200 219.333,63.200 218.800 C 63.200 218.267,62.933 218.000,62.400 218.000 C 61.867 218.000,61.600 217.733,61.600 217.200 C 61.600 216.667,61.333 216.400,60.800 216.400 C 60.267 216.400,60.000 216.133,60.000 215.600 C 60.000 215.067,59.733 214.800,59.200 214.800 C 58.760 214.800,58.400 214.542,58.400 214.227 C 58.400 213.912,58.009 213.530,57.531 213.378 C 57.053 213.226,56.299 212.764,55.855 212.351 C 55.412 211.938,54.834 211.600,54.571 211.600 C 54.308 211.600,53.999 211.240,53.884 210.800 C 53.769 210.360,53.388 210.000,53.037 210.000 C 52.687 210.000,52.400 209.730,52.400 209.400 C 52.400 209.067,52.044 208.800,51.600 208.800 C 51.067 208.800,50.800 208.533,50.800 208.000 C 50.800 207.467,50.533 207.200,50.000 207.200 C 49.467 207.200,49.200 206.933,49.200 206.400 C 49.200 205.903,48.933 205.600,48.496 205.600 C 48.109 205.600,47.568 205.240,47.293 204.800 C 46.974 204.290,46.360 204.000,45.597 204.000 C 44.667 204.000,44.400 203.822,44.400 203.200 C 44.400 202.667,44.133 202.400,43.600 202.400 C 43.067 202.400,42.800 202.133,42.800 201.600 C 42.800 201.160,42.551 200.800,42.247 200.800 C 41.942 200.800,41.599 200.440,41.484 200.000 C 41.369 199.560,41.000 199.200,40.664 199.200 C 40.329 199.200,39.940 198.840,39.800 198.400 C 39.660 197.960,39.295 197.600,38.987 197.600 C 38.680 197.600,38.235 197.240,38.000 196.800 C 37.765 196.360,37.336 196.000,37.048 196.000 C 36.760 196.000,36.198 195.640,35.800 195.200 C 35.402 194.760,34.744 194.400,34.338 194.400 C 33.710 194.400,33.600 194.072,33.600 192.200 C 33.600 190.454,33.731 190.000,34.237 190.000 C 34.588 190.000,34.969 189.640,35.084 189.200 C 35.340 188.223,38.400 187.995,38.400 188.953 C 38.400 189.605,39.611 189.987,41.700 189.995 C 42.713 189.998,43.200 190.181,43.200 190.557 C 43.200 191.277,44.078 191.600,46.033 191.600 C 47.159 191.600,47.600 191.769,47.600 192.200 C 47.600 192.667,48.133 192.800,50.000 192.800 C 52.133 192.800,52.400 192.889,52.400 193.600 C 52.400 194.311,52.667 194.400,54.800 194.400 C 56.933 194.400,57.200 194.489,57.200 195.200 C 57.200 195.861,57.467 196.000,58.738 196.000 C 59.768 196.000,60.515 196.264,61.000 196.800 C 61.485 197.336,62.232 197.600,63.262 197.600 C 64.267 197.600,65.077 197.877,65.600 198.400 C 66.133 198.933,66.933 199.200,68.000 199.200 C 69.101 199.200,69.600 199.374,69.600 199.757 C 69.600 200.496,70.486 200.800,72.633 200.800 C 73.877 200.800,74.400 200.965,74.400 201.357 C 74.400 202.067,75.275 202.400,77.136 202.400 C 78.174 202.400,78.755 202.636,79.107 203.200 C 79.498 203.826,80.040 204.000,81.603 204.000 C 83.043 204.000,83.600 204.155,83.600 204.557 C 83.600 205.296,84.486 205.600,86.633 205.600 C 87.877 205.600,88.400 205.765,88.400 206.157 C 88.400 206.878,89.279 207.200,91.245 207.200 C 92.281 207.200,92.904 207.407,93.055 207.800 C 93.212 208.207,93.849 208.400,95.039 208.400 C 96.360 208.400,96.917 208.598,97.293 209.200 C 97.697 209.846,98.226 210.000,100.050 210.000 C 101.970 210.000,102.338 210.119,102.516 210.800 C 102.688 211.456,103.062 211.600,104.600 211.600 C 106.138 211.600,106.512 211.456,106.684 210.800 C 106.845 210.184,107.230 210.000,108.358 210.000 C 109.365 210.000,110.004 209.749,110.400 209.200 C 110.739 208.730,111.435 208.400,112.088 208.400 C 112.810 208.400,113.200 208.189,113.200 207.800 C 113.200 207.432,113.574 207.200,114.167 207.200 C 115.548 207.200,116.400 206.802,116.400 206.157 C 116.400 205.835,116.807 205.600,117.367 205.600 C 118.718 205.600,119.600 205.206,119.600 204.602 C 119.600 204.320,120.230 203.971,121.000 203.826 C 121.838 203.669,122.400 203.330,122.400 202.982 C 122.400 202.662,122.754 202.400,123.186 202.400 C 123.618 202.400,124.165 202.040,124.400 201.600 C 124.680 201.076,125.238 200.800,126.014 200.800 C 126.933 200.800,127.200 200.620,127.200 200.000 C 127.200 199.333,127.467 199.200,128.800 199.200 C 130.133 199.200,130.400 199.067,130.400 198.400 C 130.400 197.748,130.667 197.600,131.837 197.600 C 132.938 197.600,133.324 197.413,133.484 196.800 C 133.634 196.226,134.030 196.000,134.884 196.000 C 135.738 196.000,136.134 195.774,136.284 195.200 C 136.419 194.682,136.830 194.400,137.447 194.400 C 138.133 194.400,138.400 194.176,138.400 193.600 C 138.400 192.951,138.667 192.800,139.813 192.800 C 140.699 192.800,141.311 192.577,141.455 192.200 C 141.582 191.870,142.012 191.600,142.410 191.600 C 143.540 191.600,144.400 191.165,144.400 190.592 C 144.400 190.295,145.089 189.954,146.000 189.800 C 146.984 189.634,147.600 189.312,147.600 188.965 C 147.600 188.654,147.960 188.400,148.400 188.400 C 148.840 188.400,149.560 188.040,150.000 187.600 C 150.440 187.160,151.160 186.800,151.600 186.800 C 152.133 186.800,152.400 186.533,152.400 186.000 C 152.400 185.348,152.667 185.200,153.837 185.200 C 154.938 185.200,155.324 185.013,155.484 184.400 C 155.641 183.799,156.030 183.600,157.047 183.600 C 158.133 183.600,158.400 183.442,158.400 182.800 C 158.400 182.148,158.667 182.000,159.837 182.000 C 160.915 182.000,161.325 181.809,161.474 181.238 C 161.601 180.752,162.168 180.382,163.037 180.219 C 163.846 180.068,164.400 179.727,164.400 179.382 C 164.400 179.028,164.792 178.800,165.400 178.800 C 166.133 178.800,166.400 178.587,166.400 178.000 C 166.400 177.333,166.667 177.200,168.000 177.200 C 169.333 177.200,169.600 177.067,169.600 176.400 C 169.600 175.751,169.867 175.600,171.013 175.600 C 171.899 175.600,172.511 175.377,172.655 175.000 C 172.782 174.670,173.153 174.400,173.480 174.400 C 173.807 174.400,174.169 174.040,174.284 173.600 C 174.399 173.160,174.742 172.800,175.047 172.800 C 175.351 172.800,175.600 172.452,175.600 172.027 C 175.600 171.602,175.960 171.140,176.400 171.000 C 177.634 170.608,177.634 160.592,176.400 160.200 C 175.805 160.011,175.600 159.595,175.600 158.573 C 175.600 157.467,175.445 157.200,174.800 157.200 C 174.267 157.200,174.000 156.933,174.000 156.400 C 174.000 155.956,173.733 155.600,173.400 155.600 C 173.070 155.600,172.440 155.240,172.000 154.800 C 171.560 154.360,170.840 154.000,170.400 154.000 C 169.867 154.000,169.600 153.733,169.600 153.200 C 169.600 152.667,169.333 152.400,168.800 152.400 C 168.267 152.400,168.000 152.133,168.000 151.600 C 168.000 151.083,167.733 150.800,167.247 150.800 C 166.830 150.800,166.400 150.443,166.284 150.000 C 166.169 149.560,165.788 149.200,165.437 149.200 C 165.087 149.200,164.440 148.840,164.000 148.400 C 163.560 147.960,162.840 147.600,162.400 147.600 C 161.867 147.600,161.600 147.333,161.600 146.800 C 161.600 146.283,161.333 146.000,160.847 146.000 C 160.430 146.000,160.000 145.643,159.884 145.200 C 159.769 144.760,159.388 144.400,159.037 144.400 C 158.687 144.400,158.400 144.130,158.400 143.800 C 158.400 143.470,158.083 143.200,157.696 143.200 C 157.309 143.200,156.768 142.840,156.493 142.400 C 156.210 141.948,155.560 141.600,154.997 141.600 C 154.267 141.600,154.000 141.386,154.000 140.800 C 154.000 140.267,153.733 140.000,153.200 140.000 C 152.667 140.000,152.400 139.733,152.400 139.200 C 152.400 138.683,152.133 138.400,151.647 138.400 C 151.230 138.400,150.800 138.043,150.684 137.600 C 150.569 137.160,150.188 136.800,149.837 136.800 C 149.487 136.800,148.840 136.440,148.400 136.000 C 147.960 135.560,147.240 135.200,146.800 135.200 C 146.267 135.200,146.000 134.933,146.000 134.400 C 146.000 133.867,145.733 133.600,145.200 133.600 C 144.667 133.600,144.400 133.333,144.400 132.800 C 144.400 132.267,144.133 132.000,143.600 132.000 C 143.135 132.000,142.800 131.733,142.800 131.363 C 142.800 131.012,142.452 130.634,142.028 130.523 C 141.603 130.412,141.165 130.086,141.055 129.798 C 140.944 129.511,140.302 129.154,139.627 129.006 C 138.917 128.850,138.400 128.481,138.400 128.131 C 138.400 127.798,138.040 127.431,137.600 127.316 C 137.160 127.201,136.800 126.879,136.800 126.600 C 136.800 126.321,136.440 125.999,136.000 125.884 C 135.560 125.769,135.200 125.388,135.200 125.037 C 135.200 124.632,134.852 124.400,134.247 124.400 C 133.630 124.400,133.219 124.118,133.084 123.600 C 132.932 123.017,132.538 122.800,131.637 122.800 C 130.667 122.800,130.400 122.628,130.400 122.000 C 130.400 121.467,130.133 121.200,129.600 121.200 C 129.067 121.200,128.800 120.933,128.800 120.400 C 128.800 119.867,128.533 119.600,128.000 119.600 C 127.467 119.600,127.200 119.333,127.200 118.800 C 127.200 118.356,126.933 118.000,126.600 118.000 C 126.270 118.000,125.640 117.640,125.200 117.200 C 124.760 116.760,124.040 116.400,123.600 116.400 C 123.135 116.400,122.800 116.133,122.800 115.763 C 122.800 115.412,122.440 115.031,122.000 114.916 C 121.560 114.801,121.200 114.441,121.200 114.116 C 121.200 113.791,120.840 113.431,120.400 113.316 C 119.960 113.201,119.600 112.870,119.600 112.580 C 119.600 112.291,119.222 111.934,118.761 111.787 C 118.299 111.641,117.579 111.179,117.161 110.761 C 116.742 110.342,116.040 110.000,115.600 110.000 C 115.156 110.000,114.800 109.733,114.800 109.400 C 114.800 109.067,114.444 108.800,114.000 108.800 C 113.467 108.800,113.200 108.533,113.200 108.000 C 113.200 107.467,112.933 107.200,112.400 107.200 C 111.867 107.200,111.600 106.933,111.600 106.400 C 111.600 105.867,111.333 105.600,110.800 105.600 C 110.360 105.600,110.000 105.349,110.000 105.043 C 110.000 104.431,109.159 104.000,107.967 104.000 C 107.532 104.000,107.200 103.724,107.200 103.363 C 107.200 103.012,106.840 102.631,106.400 102.516 C 105.960 102.401,105.600 102.041,105.600 101.716 C 105.600 101.391,105.257 101.035,104.837 100.926 C 104.417 100.816,103.984 100.383,103.874 99.963 C 103.765 99.543,103.388 99.200,103.037 99.200 C 102.687 99.200,102.040 98.840,101.600 98.400 C 101.160 97.960,100.440 97.600,100.000 97.600 C 99.467 97.600,99.200 97.333,99.200 96.800 C 99.200 96.267,98.933 96.000,98.400 96.000 C 97.935 96.000,97.600 95.733,97.600 95.363 C 97.600 95.012,97.240 94.631,96.800 94.516 C 96.360 94.401,96.000 94.058,96.000 93.753 C 96.000 93.449,95.683 93.200,95.296 93.200 C 94.909 93.200,94.368 92.840,94.093 92.400 C 93.810 91.948,93.160 91.600,92.597 91.600 C 91.867 91.600,91.600 91.386,91.600 90.800 C 91.600 90.267,91.333 90.000,90.800 90.000 C 90.335 90.000,90.000 89.733,90.000 89.363 C 90.000 89.012,89.646 88.633,89.213 88.519 C 88.781 88.406,88.318 87.973,88.186 87.557 C 88.054 87.141,87.598 86.800,87.173 86.800 C 86.748 86.800,86.400 86.549,86.400 86.243 C 86.400 85.631,85.559 85.200,84.367 85.200 C 83.867 85.200,83.600 84.922,83.600 84.400 C 83.600 83.867,83.333 83.600,82.800 83.600 C 82.267 83.600,82.000 83.333,82.000 82.800 C 82.000 82.267,81.733 82.000,81.200 82.000 C 80.735 82.000,80.400 81.733,80.400 81.363 C 80.400 81.012,80.040 80.631,79.600 80.516 C 78.691 80.278,78.495 78.800,79.373 78.800 C 79.688 78.800,80.060 78.440,80.200 78.000 C 80.527 76.968,81.848 76.968,82.400 78.000 C 82.740 78.635,83.238 78.800,84.814 78.800 C 86.533 78.800,86.800 78.907,86.800 79.600 C 86.800 80.311,87.067 80.400,89.200 80.400 C 91.333 80.400,91.600 80.489,91.600 81.200 C 91.600 81.892,91.867 82.000,93.573 82.000 C 95.195 82.000,95.591 82.142,95.800 82.800 C 95.994 83.410,96.405 83.600,97.531 83.600 C 98.574 83.600,99.154 83.835,99.507 84.400 C 99.896 85.022,100.440 85.200,101.957 85.200 C 103.570 85.200,103.943 85.338,104.116 86.000 C 104.294 86.680,104.662 86.800,106.563 86.800 C 108.533 86.800,108.800 86.895,108.800 87.600 C 108.800 88.253,109.067 88.400,110.256 88.400 C 111.129 88.400,111.899 88.656,112.180 89.041 C 112.443 89.400,113.473 89.774,114.524 89.893 C 115.641 90.018,116.400 90.306,116.400 90.602 C 116.400 91.128,118.126 91.600,120.050 91.600 C 120.806 91.600,121.200 91.806,121.200 92.200 C 121.200 92.649,121.678 92.800,123.104 92.800 C 124.574 92.800,125.121 92.982,125.507 93.600 C 125.856 94.158,126.440 94.400,127.441 94.400 C 128.538 94.400,128.924 94.588,129.084 95.200 C 129.261 95.875,129.630 96.000,131.447 96.000 C 133.333 96.000,133.600 96.099,133.600 96.800 C 133.600 97.511,133.867 97.600,136.000 97.600 C 138.133 97.600,138.400 97.689,138.400 98.400 C 138.400 99.048,138.667 99.200,139.800 99.200 C 140.667 99.200,141.505 99.505,142.000 100.000 C 142.516 100.516,143.333 100.800,144.304 100.800 C 145.374 100.800,145.951 101.030,146.307 101.600 C 146.696 102.222,147.240 102.400,148.757 102.400 C 150.370 102.400,150.743 102.538,150.916 103.200 C 151.087 103.853,151.462 104.000,152.959 104.000 C 154.360 104.000,154.911 104.189,155.293 104.800 C 155.649 105.370,156.226 105.600,157.296 105.600 C 158.305 105.600,158.800 105.781,158.800 106.150 C 158.800 106.693,160.445 107.200,162.207 107.200 C 162.706 107.200,163.218 107.470,163.345 107.800 C 163.511 108.233,164.190 108.400,165.787 108.400 C 167.733 108.400,168.000 108.496,168.000 109.200 C 168.000 109.867,168.267 110.000,169.600 110.000 C 170.667 110.000,171.467 110.267,172.000 110.800 C 172.533 111.333,173.333 111.600,174.400 111.600 C 175.733 111.600,176.000 111.733,176.000 112.400 C 176.000 113.101,176.267 113.200,178.153 113.200 C 179.970 113.200,180.339 113.325,180.516 114.000 C 180.687 114.653,181.062 114.800,182.559 114.800 C 183.960 114.800,184.511 114.989,184.893 115.600 C 185.249 116.170,185.826 116.400,186.896 116.400 C 187.915 116.400,188.400 116.580,188.400 116.957 C 188.400 117.691,189.284 118.000,191.386 118.000 C 192.770 118.000,193.148 118.156,193.316 118.800 C 193.490 119.465,193.862 119.600,195.516 119.600 C 197.170 119.600,197.542 119.735,197.716 120.400 C 197.877 121.017,198.262 121.200,199.399 121.200 C 200.268 121.200,201.292 121.529,201.891 122.000 C 202.450 122.440,203.514 122.800,204.254 122.800 C 205.129 122.800,205.600 122.992,205.600 123.350 C 205.600 123.900,207.249 124.400,209.063 124.400 C 209.592 124.400,210.129 124.670,210.255 125.000 C 210.421 125.431,211.094 125.600,212.643 125.600 C 214.533 125.600,214.800 125.699,214.800 126.400 C 214.800 127.064,215.067 127.200,216.373 127.200 C 217.595 127.200,218.003 127.379,218.200 128.000 C 218.413 128.671,218.805 128.800,220.627 128.800 C 222.533 128.800,222.800 128.898,222.800 129.600 C 222.800 130.301,223.067 130.400,224.953 130.400 C 226.770 130.400,227.139 130.525,227.316 131.200 C 227.476 131.813,227.862 132.000,228.963 132.000 C 229.867 132.000,230.697 132.297,231.200 132.800 C 231.725 133.325,232.533 133.600,233.553 133.600 C 234.770 133.600,235.152 133.773,235.316 134.400 C 235.511 135.147,235.862 135.200,240.600 135.200 C 245.338 135.200,245.689 135.147,245.884 134.400 C 246.043 133.794,246.430 133.600,247.484 133.600 C 248.538 133.600,248.925 133.406,249.084 132.800 C 249.232 132.236,249.630 132.000,250.433 132.000 C 251.162 132.000,251.726 131.713,252.000 131.200 C 252.235 130.760,252.782 130.400,253.214 130.400 C 253.733 130.400,254.000 130.129,254.000 129.600 C 254.000 128.948,254.267 128.800,255.437 128.800 C 256.538 128.800,256.924 128.613,257.084 128.000 C 257.241 127.399,257.630 127.200,258.647 127.200 C 259.733 127.200,260.000 127.042,260.000 126.400 C 260.000 125.733,260.267 125.600,261.600 125.600 C 262.699 125.600,263.200 125.426,263.200 125.045 C 263.200 124.726,263.798 124.377,264.600 124.226 C 265.370 124.082,266.000 123.787,266.000 123.572 C 266.000 123.356,266.450 123.009,267.000 122.800 C 267.550 122.591,268.000 122.145,268.000 121.810 C 268.000 121.377,268.416 121.200,269.437 121.200 C 270.538 121.200,270.924 121.013,271.084 120.400 C 271.240 119.803,271.630 119.600,272.620 119.600 C 273.595 119.600,274.013 119.388,274.200 118.800 C 274.380 118.232,274.805 118.000,275.664 118.000 C 276.538 118.000,276.933 117.778,277.084 117.200 C 277.219 116.682,277.630 116.400,278.247 116.400 C 278.771 116.400,279.560 116.040,280.000 115.600 C 280.440 115.160,281.070 114.800,281.400 114.800 C 281.733 114.800,282.000 114.444,282.000 114.000 C 282.000 113.333,282.267 113.200,283.600 113.200 C 284.933 113.200,285.200 113.067,285.200 112.400 C 285.200 111.748,285.467 111.600,286.637 111.600 C 287.738 111.600,288.124 111.413,288.284 110.800 C 288.439 110.206,288.830 110.000,289.800 110.000 C 290.770 110.000,291.161 109.794,291.316 109.200 C 291.469 108.615,291.862 108.400,292.775 108.400 C 293.517 108.400,294.119 108.156,294.255 107.800 C 294.382 107.470,294.826 107.200,295.243 107.200 C 295.659 107.200,296.000 106.949,296.000 106.643 C 296.000 106.025,296.843 105.600,298.070 105.600 C 298.538 105.600,298.962 105.266,299.084 104.800 C 299.243 104.194,299.630 104.000,300.684 104.000 C 301.738 104.000,302.125 103.806,302.284 103.200 C 302.440 102.603,302.830 102.400,303.820 102.400 C 304.795 102.400,305.213 102.188,305.400 101.600 C 305.540 101.160,305.987 100.800,306.394 100.800 C 307.561 100.800,308.400 100.364,308.400 99.757 C 308.400 99.451,308.760 99.200,309.200 99.200 C 309.733 99.200,310.000 98.933,310.000 98.400 C 310.000 97.733,310.267 97.600,311.600 97.600 C 312.933 97.600,313.200 97.467,313.200 96.800 C 313.200 96.133,313.467 96.000,314.800 96.000 C 316.133 96.000,316.400 95.867,316.400 95.200 C 316.400 94.548,316.667 94.400,317.837 94.400 C 318.938 94.400,319.324 94.213,319.484 93.600 C 319.633 93.031,320.030 92.800,320.859 92.800 C 321.527 92.800,322.124 92.543,322.255 92.200 C 322.382 91.870,322.820 91.600,323.229 91.600 C 323.637 91.600,324.165 91.240,324.400 90.800 C 324.657 90.320,325.238 90.000,325.852 90.000 C 326.538 90.000,326.944 89.737,327.084 89.200 C 327.243 88.594,327.630 88.400,328.684 88.400 C 329.738 88.400,330.125 88.206,330.284 87.600 C 330.443 86.994,330.830 86.800,331.884 86.800 C 332.938 86.800,333.325 86.606,333.484 86.000 C 333.599 85.560,334.018 85.200,334.414 85.200 C 335.562 85.200,336.400 84.760,336.400 84.157 C 336.400 83.834,336.808 83.600,337.373 83.600 C 337.995 83.600,338.438 83.311,338.600 82.800 C 338.780 82.232,339.205 82.000,340.064 82.000 C 340.938 82.000,341.333 81.778,341.484 81.200 C 341.641 80.599,342.030 80.400,343.047 80.400 C 344.133 80.400,344.400 80.242,344.400 79.600 C 344.400 78.933,344.667 78.800,346.000 78.800 C 347.333 78.800,347.600 78.667,347.600 78.000 C 347.600 77.355,347.867 77.200,348.973 77.200 C 349.995 77.200,350.411 76.995,350.600 76.400 C 350.779 75.837,351.205 75.600,352.040 75.600 C 352.724 75.600,353.322 75.347,353.455 75.000 C 353.638 74.523,354.490 74.400,357.600 74.400 C 360.710 74.400,361.562 74.523,361.745 75.000 M6.500 377.482 C 6.005 377.578,5.600 377.892,5.600 378.181 C 5.600 378.470,5.240 378.801,4.800 378.916 C 4.360 379.031,4.000 379.400,4.000 379.736 C 4.000 380.071,3.640 380.460,3.200 380.600 C 1.958 380.994,1.958 393.959,3.200 394.284 C 3.643 394.400,4.000 394.830,4.000 395.247 C 4.000 395.718,4.282 396.000,4.753 396.000 C 5.170 396.000,5.600 396.357,5.716 396.800 C 6.047 398.065,237.553 398.065,237.884 396.800 C 238.001 396.351,238.430 396.000,238.859 396.000 C 239.280 396.000,239.743 395.685,239.888 395.300 C 240.032 394.915,240.432 394.390,240.775 394.132 C 241.911 393.282,241.677 381.677,240.500 380.500 C 240.005 380.005,239.600 379.420,239.600 379.200 C 239.600 378.980,239.240 378.800,238.800 378.800 C 238.360 378.800,238.000 378.551,238.000 378.247 C 238.000 377.942,237.595 377.585,237.100 377.452 C 236.089 377.181,7.908 377.211,6.500 377.482 " stroke="none" fill="#040404" fill-rule="evenodd"></path><path id="path1" d="" stroke="none" fill="#080404" fill-rule="evenodd"></path><path id="path2" d="" stroke="none" fill="#080404" fill-rule="evenodd"></path><path id="path3" d="" stroke="none" fill="#080404" fill-rule="evenodd"></path><path id="path4" d="" stroke="none" fill="#080404" fill-rule="evenodd"></path></g></svg>