<svg id="svg" version="1.1" xmlns="http://www.w3.org/2000/svg" xmlns:xlink="http://www.w3.org/1999/xlink" width="400" height="400" viewBox="0, 0, 400,400"><g id="svgg"><path id="path0" d="M191.128 25.628 C 187.581 26.027,186.970 26.251,185.256 27.782 C 184.107 28.808,183.316 29.138,181.508 29.344 C 178.505 29.686,176.529 30.654,176.055 32.015 C 175.827 32.667,174.990 33.476,173.949 34.051 C 172.651 34.767,172.069 35.413,171.611 36.650 C 171.275 37.555,170.460 38.852,169.800 39.532 C 169.140 40.213,167.999 41.406,167.265 42.185 C 166.530 42.963,165.669 43.600,165.350 43.600 C 164.628 43.600,163.390 46.432,162.743 49.566 C 162.390 51.272,162.009 52.074,161.395 52.403 C 159.055 53.655,158.813 61.006,161.000 64.400 L 162.400 66.573 162.400 72.827 L 162.400 79.082 158.887 79.309 C 154.659 79.583,152.408 80.401,151.458 82.009 C 151.073 82.662,150.362 83.276,149.879 83.375 C 144.632 84.446,144.185 84.657,143.047 86.600 C 142.660 87.260,141.642 88.100,140.782 88.466 C 139.746 88.908,139.003 89.587,138.576 90.481 C 138.216 91.236,137.292 92.175,136.477 92.615 C 135.676 93.047,134.631 94.096,134.155 94.947 C 133.679 95.798,132.729 96.766,132.043 97.098 C 131.116 97.547,130.618 98.209,130.098 99.685 C 129.675 100.887,129.006 101.902,128.400 102.262 C 127.428 102.839,125.200 107.245,125.200 108.589 C 125.200 108.934,124.758 109.419,124.218 109.665 C 123.013 110.213,121.812 112.674,121.241 115.759 C 120.936 117.411,120.534 118.294,119.838 118.841 C 119.302 119.263,118.549 120.462,118.165 121.504 C 117.298 123.862,116.801 124.471,116.798 123.180 C 116.791 120.205,115.228 117.753,113.059 117.314 C 112.382 117.177,111.627 116.606,111.205 115.912 C 109.249 112.696,104.887 112.332,102.083 115.152 C 101.291 115.948,99.913 116.871,99.021 117.202 C 97.769 117.666,97.198 118.203,96.514 119.557 C 96.027 120.522,95.109 121.627,94.475 122.013 C 93.099 122.850,92.207 124.926,91.817 128.200 C 91.611 129.932,91.260 130.887,90.556 131.632 C 88.703 133.592,87.955 136.490,87.726 142.600 C 87.585 146.347,87.351 148.332,87.020 148.600 C 83.982 151.050,82.923 160.473,83.331 181.403 C 83.602 195.295,84.045 197.104,87.575 198.750 C 92.110 200.864,100.034 200.339,102.620 197.754 L 104.000 196.373 104.000 209.787 C 104.000 218.341,103.857 223.200,103.605 223.200 C 101.938 223.200,101.266 229.957,100.999 249.400 C 100.636 275.903,100.160 284.761,99.035 286.000 C 97.979 287.164,96.479 290.307,96.117 292.115 C 95.979 292.805,95.449 293.787,94.939 294.297 C 94.430 294.806,93.455 296.381,92.773 297.795 C 92.039 299.316,91.203 300.472,90.729 300.623 C 90.287 300.763,89.235 301.611,88.391 302.507 C 87.547 303.402,85.719 304.698,84.328 305.386 C 81.585 306.743,79.978 309.069,79.380 312.549 C 79.204 313.569,78.863 314.163,78.382 314.289 C 75.747 314.978,74.567 327.435,76.800 330.994 C 79.127 334.705,78.990 334.394,79.587 337.305 C 79.983 339.238,80.313 339.814,81.630 340.872 C 82.493 341.566,83.563 342.749,84.007 343.502 C 84.513 344.360,85.398 345.099,86.379 345.485 C 87.404 345.887,88.106 346.491,88.414 347.234 C 89.006 348.662,91.417 349.833,94.501 350.191 C 96.147 350.382,96.916 350.669,97.199 351.198 C 98.494 353.617,100.276 354.055,110.068 354.357 C 117.467 354.586,117.993 354.653,118.880 355.486 C 120.997 357.476,122.615 357.722,133.800 357.756 C 144.967 357.789,146.027 357.625,147.944 355.568 C 148.799 354.650,148.176 354.679,176.654 354.237 L 187.509 354.068 187.772 355.734 C 188.333 359.291,188.880 360.422,190.473 361.330 C 191.313 361.808,192.103 362.516,192.228 362.902 C 192.653 364.217,194.418 365.940,195.606 366.201 C 196.257 366.344,197.287 366.995,197.895 367.648 C 202.355 372.435,222.858 372.637,227.200 367.937 C 227.750 367.341,228.952 366.659,229.871 366.420 C 230.805 366.177,231.951 365.503,232.471 364.892 C 232.982 364.292,234.300 363.080,235.400 362.200 C 236.500 361.320,237.629 360.294,237.909 359.920 C 238.189 359.545,238.645 359.005,238.922 358.720 C 240.385 357.212,241.282 355.366,241.644 353.119 C 241.865 351.745,242.081 350.597,242.123 350.568 C 242.165 350.539,250.300 350.337,260.200 350.120 C 279.704 349.692,279.532 349.713,282.660 347.327 C 284.055 346.263,284.383 346.201,289.960 345.948 C 297.885 345.587,299.781 345.118,302.302 342.898 C 302.931 342.343,304.080 342.017,306.102 341.818 C 309.438 341.491,312.475 340.350,314.200 338.777 C 314.860 338.175,315.989 337.559,316.710 337.407 C 318.313 337.070,320.231 335.517,320.546 334.301 C 320.691 333.737,321.370 333.154,322.360 332.742 C 323.495 332.270,324.177 331.622,324.778 330.442 C 325.239 329.539,325.855 328.800,326.147 328.800 C 327.004 328.800,328.372 327.400,328.847 326.038 C 329.093 325.330,329.792 324.515,330.437 324.181 C 332.290 323.223,333.578 319.510,333.613 315.027 C 333.620 314.132,333.890 313.051,334.213 312.624 C 334.944 311.657,334.971 308.937,334.263 307.581 C 333.970 307.020,333.614 305.174,333.471 303.480 C 333.148 299.658,332.392 297.785,330.812 296.891 C 329.693 296.258,328.809 294.495,328.802 292.884 C 328.796 291.386,327.169 289.275,325.518 288.622 C 324.573 288.249,323.260 287.370,322.600 286.669 C 321.309 285.297,318.477 283.600,317.478 283.600 C 317.142 283.600,316.536 282.949,316.133 282.153 C 315.730 281.357,314.860 280.412,314.200 280.053 C 312.646 279.208,312.542 279.041,312.255 276.947 C 311.944 274.679,311.118 273.105,309.894 272.450 C 308.828 271.880,308.410 267.733,308.398 257.600 C 308.392 251.890,307.744 246.663,306.822 244.879 C 304.522 240.427,304.670 241.476,304.371 227.600 C 304.046 212.570,303.703 209.921,301.754 207.367 L 300.400 205.593 300.394 200.897 C 300.378 187.248,299.326 179.273,297.277 177.259 L 296.200 176.200 295.950 167.600 C 295.653 157.391,294.925 153.785,292.866 152.324 C 292.236 151.877,292.090 151.026,291.879 146.556 C 291.598 140.594,290.497 136.344,288.978 135.349 C 288.238 134.864,288.046 134.256,287.819 131.684 C 287.352 126.373,286.348 123.536,284.591 122.561 C 284.071 122.273,283.681 121.452,283.451 120.161 C 282.606 115.420,282.428 115.044,280.296 113.508 C 279.906 113.227,279.211 111.599,278.741 109.868 C 278.013 107.185,277.698 106.611,276.549 105.868 C 275.811 105.391,275.023 104.449,274.798 103.776 C 274.572 103.103,273.675 101.787,272.804 100.853 C 271.932 99.918,270.586 97.948,269.812 96.475 C 268.886 94.714,268.027 93.626,267.302 93.295 C 266.655 93.001,265.889 92.117,265.447 91.154 C 264.922 90.013,264.277 89.341,263.325 88.943 C 262.562 88.624,261.597 87.762,261.145 86.997 C 260.652 86.160,259.605 85.268,258.467 84.713 C 257.440 84.212,255.566 82.956,254.303 81.921 C 252.307 80.286,250.034 79.210,248.562 79.202 C 248.321 79.201,247.626 78.772,247.017 78.248 C 245.201 76.688,242.350 75.462,240.106 75.276 L 238.000 75.101 237.990 64.850 C 237.973 48.597,237.316 44.376,234.598 43.080 C 233.739 42.670,232.918 41.815,232.392 40.783 C 231.268 38.581,229.724 37.993,224.317 37.708 C 220.025 37.481,219.948 37.460,219.368 36.339 C 219.044 35.713,218.499 35.200,218.155 35.200 C 217.812 35.200,216.593 34.224,215.448 33.032 C 213.443 30.945,209.937 29.200,207.750 29.200 C 207.379 29.200,206.507 28.766,205.812 28.237 C 203.359 26.365,201.774 25.941,195.400 25.450 C 194.520 25.383,192.597 25.463,191.128 25.628 M203.213 41.437 C 205.718 42.904,205.841 45.025,203.494 46.274 C 201.557 47.306,189.994 47.302,188.079 46.270 C 184.721 44.460,186.343 41.337,191.000 40.647 C 194.190 40.175,201.910 40.674,203.213 41.437 M221.213 53.007 C 223.346 54.110,223.737 55.495,224.034 63.000 C 224.181 66.740,224.607 71.413,224.979 73.385 C 226.039 78.993,224.844 81.696,220.800 82.840 C 217.669 83.726,181.709 83.406,180.400 82.481 C 175.707 79.163,172.091 57.689,175.702 54.583 C 177.161 53.328,178.379 53.250,196.600 53.241 C 205.400 53.236,213.500 53.067,214.600 52.863 C 217.688 52.293,219.927 52.342,221.213 53.007 M76.200 58.842 C 73.925 59.299,73.340 59.674,72.058 61.500 C 71.506 62.286,70.801 62.802,70.273 62.804 C 68.763 62.811,65.358 64.654,64.419 65.973 C 63.923 66.670,62.835 67.513,62.000 67.847 C 60.917 68.280,60.224 68.942,59.579 70.157 C 59.082 71.093,58.190 72.075,57.597 72.337 C 57.004 72.600,56.176 73.485,55.759 74.305 C 55.342 75.125,54.267 76.524,53.370 77.415 C 52.397 78.381,51.433 79.888,50.978 81.152 C 50.400 82.761,49.830 83.529,48.608 84.348 C 47.494 85.094,46.822 85.936,46.420 87.089 C 46.047 88.161,45.542 88.828,45.001 88.964 C 44.213 89.162,42.403 91.924,42.398 92.938 C 42.390 94.509,41.453 96.441,40.397 97.066 C 39.055 97.858,38.221 99.676,37.810 102.700 C 37.577 104.414,37.322 104.919,36.417 105.454 C 34.803 106.407,34.140 107.803,33.600 111.384 C 33.224 113.876,32.868 114.874,31.960 115.975 C 31.322 116.749,30.800 117.584,30.800 117.830 C 30.800 118.076,30.510 118.859,30.155 119.569 C 29.744 120.394,29.433 122.393,29.295 125.093 C 29.079 129.321,29.078 129.325,27.593 130.855 C 25.762 132.742,25.322 134.703,24.955 142.600 C 24.772 146.529,24.527 148.394,24.132 148.849 C 21.895 151.426,21.287 155.453,20.965 169.800 C 20.779 178.061,20.548 181.987,20.222 182.400 C 19.962 182.730,19.220 184.345,18.574 185.990 L 17.400 188.979 17.400 198.190 C 17.400 208.130,17.844 210.352,19.939 210.900 C 20.423 211.027,20.826 211.610,21.011 212.451 C 21.174 213.193,21.643 214.427,22.053 215.194 C 22.464 215.961,22.803 216.771,22.807 216.994 C 22.846 219.272,30.177 221.468,34.102 220.378 C 35.874 219.886,39.947 215.962,41.010 213.723 C 42.417 210.757,41.126 203.230,38.966 201.815 C 37.494 200.850,37.466 190.656,38.932 189.155 C 40.908 187.130,41.970 177.694,41.993 161.968 C 42.000 157.143,42.038 156.915,42.911 156.447 C 44.693 155.494,45.531 152.238,45.933 144.705 C 46.237 139.006,46.239 138.998,47.684 136.905 C 49.108 134.844,49.997 131.999,50.003 129.480 C 50.012 126.264,50.507 124.020,51.261 123.781 C 52.295 123.452,53.426 121.085,54.028 117.990 C 54.304 116.566,54.939 114.859,55.439 114.197 C 56.504 112.786,58.390 108.852,58.396 108.029 C 58.398 107.715,58.916 106.995,59.547 106.429 C 60.603 105.481,62.400 101.793,62.400 100.572 C 62.400 100.286,63.112 99.651,63.982 99.162 C 65.034 98.571,65.762 97.778,66.155 96.796 C 66.537 95.842,67.161 95.147,67.920 94.833 C 68.677 94.519,69.434 93.680,70.047 92.473 C 70.571 91.443,71.417 90.420,71.927 90.200 C 72.436 89.980,73.308 88.966,73.864 87.947 C 74.421 86.928,75.278 85.879,75.770 85.616 C 76.262 85.353,76.976 84.609,77.358 83.964 C 77.739 83.318,78.748 82.435,79.599 82.000 C 80.451 81.566,81.404 80.844,81.718 80.395 C 82.065 79.900,83.353 79.285,84.997 78.829 C 88.462 77.869,89.514 77.057,90.485 74.595 C 92.965 68.314,91.711 60.932,87.907 59.410 C 85.889 58.602,79.045 58.270,76.200 58.842 M335.100 62.996 C 330.687 64.119,329.595 65.944,329.606 72.173 C 329.613 75.874,330.053 77.001,332.006 78.313 C 332.773 78.828,333.725 79.879,334.122 80.649 C 334.621 81.617,335.392 82.282,336.627 82.812 C 337.745 83.291,338.551 83.945,338.787 84.566 C 338.994 85.110,339.887 85.970,340.771 86.477 C 341.655 86.985,342.697 87.989,343.085 88.709 C 343.474 89.429,344.305 90.239,344.932 90.509 C 345.568 90.783,346.420 91.675,346.858 92.526 C 347.290 93.366,348.246 94.408,348.982 94.843 C 349.719 95.277,350.427 96.052,350.555 96.564 C 350.684 97.076,351.601 98.481,352.594 99.688 C 353.587 100.894,354.400 102.146,354.400 102.469 C 354.400 104.222,355.703 106.730,356.968 107.411 C 358.208 108.079,358.312 108.295,358.536 110.695 C 358.785 113.362,359.832 115.936,361.419 117.783 C 362.106 118.582,362.402 119.542,362.574 121.529 C 362.888 125.146,364.257 129.265,365.651 130.792 C 366.750 131.995,366.800 132.218,366.803 135.925 C 366.806 139.357,367.191 143.167,367.814 145.911 C 367.928 146.411,368.678 147.442,369.483 148.200 L 370.945 149.579 370.964 173.756 C 370.983 195.816,370.926 197.998,370.315 198.673 C 368.533 200.642,367.241 204.517,366.957 208.749 C 366.679 212.892,366.677 212.900,365.382 213.664 C 362.872 215.145,362.241 219.976,363.969 224.481 C 365.379 228.160,370.041 229.915,376.329 229.134 C 380.639 228.599,381.736 227.935,382.822 225.200 C 383.128 224.430,383.855 223.399,384.436 222.909 C 386.574 221.108,387.957 215.947,387.988 209.658 C 387.998 207.457,388.129 207.013,388.962 206.358 C 391.368 204.466,391.971 198.281,391.979 175.400 C 391.988 151.738,391.534 146.697,389.069 143.063 C 388.221 141.814,388.099 141.068,387.853 135.613 C 387.474 127.208,386.675 124.108,384.495 122.582 C 383.861 122.137,383.666 121.351,383.438 118.318 C 382.996 112.439,382.500 111.031,380.324 109.482 C 379.877 109.164,379.518 108.039,379.267 106.174 C 378.883 103.329,377.089 99.070,375.836 98.029 C 375.489 97.742,375.012 96.763,374.776 95.853 C 374.350 94.215,372.067 90.402,371.511 90.401 C 371.352 90.400,370.933 89.403,370.578 88.185 C 369.940 85.988,368.902 84.613,367.563 84.188 C 367.180 84.067,366.677 83.422,366.444 82.755 C 365.945 81.322,363.925 78.676,362.100 77.065 C 361.385 76.434,360.800 75.753,360.800 75.551 C 360.800 75.219,359.245 73.603,357.343 71.958 C 356.934 71.604,356.250 70.827,355.823 70.229 C 354.978 69.049,352.409 67.435,350.777 67.059 C 350.126 66.909,349.545 66.348,349.177 65.512 C 348.012 62.863,340.734 61.562,335.100 62.996 M237.200 89.468 C 242.577 91.044,243.998 91.623,245.342 92.791 C 246.034 93.391,247.320 94.338,248.200 94.894 C 250.222 96.172,257.966 103.827,259.528 106.092 C 260.177 107.031,261.107 108.160,261.597 108.600 C 262.086 109.040,262.938 110.300,263.490 111.400 C 264.043 112.500,265.111 114.160,265.865 115.089 C 266.618 116.017,267.623 117.727,268.098 118.889 C 268.572 120.050,269.548 121.900,270.266 123.000 C 271.000 124.125,271.848 126.196,272.202 127.734 C 272.549 129.237,273.543 131.847,274.410 133.534 C 275.550 135.751,276.156 137.614,276.599 140.264 C 276.936 142.279,277.668 144.959,278.226 146.220 C 279.679 149.507,280.279 152.111,280.800 157.398 C 281.052 159.959,281.693 163.506,282.224 165.280 C 283.746 170.367,284.327 173.753,284.782 180.200 C 285.291 187.398,285.402 188.212,286.612 193.600 C 287.839 199.060,288.678 205.500,289.167 213.200 C 289.409 217.011,289.945 221.095,290.558 223.800 C 291.855 229.527,292.691 236.996,293.198 247.400 C 293.424 252.020,293.716 256.880,293.849 258.200 C 294.458 264.280,287.085 274.109,280.193 276.402 C 276.437 277.652,274.545 280.571,276.262 282.469 C 277.417 283.745,282.764 282.555,286.200 280.258 C 288.218 278.908,291.266 277.048,293.066 276.068 C 294.380 275.352,295.593 276.151,297.057 278.697 C 297.659 279.744,298.577 281.121,299.098 281.757 C 299.618 282.393,300.504 283.833,301.067 284.957 C 302.179 287.180,308.249 293.393,310.987 295.113 C 311.874 295.670,313.230 296.728,314.000 297.463 C 314.770 298.199,316.030 299.327,316.800 299.969 C 318.089 301.043,318.198 301.306,318.180 303.291 C 318.143 307.405,316.863 308.834,312.200 309.968 C 311.100 310.236,309.390 310.968,308.400 311.595 C 306.491 312.804,303.483 313.763,300.215 314.206 C 299.123 314.354,297.143 315.023,295.815 315.694 C 292.531 317.351,291.773 317.544,285.869 318.215 C 283.047 318.536,279.350 319.153,277.654 319.586 C 269.322 321.713,253.767 322.629,206.000 323.802 C 197.605 324.008,177.293 324.666,150.400 325.603 C 126.039 326.452,117.640 326.100,108.200 323.834 C 105.120 323.094,101.531 322.269,100.223 321.999 C 93.847 320.683,93.704 316.221,99.845 310.190 C 101.690 308.378,103.200 306.699,103.200 306.461 C 103.200 306.222,103.988 305.140,104.951 304.055 C 105.914 302.971,107.030 301.210,107.430 300.142 C 107.831 299.074,108.752 297.294,109.478 296.187 C 110.400 294.781,111.046 293.033,111.622 290.387 C 113.491 281.801,117.362 280.011,125.462 283.985 C 128.124 285.291,129.668 285.735,133.862 286.397 C 136.688 286.844,140.890 287.821,143.200 288.569 C 148.776 290.374,152.603 290.597,154.000 289.200 C 156.199 287.001,154.651 285.131,149.706 284.016 C 147.998 283.630,145.160 282.862,143.400 282.308 C 141.640 281.754,138.400 281.088,136.200 280.828 C 131.709 280.298,128.879 279.502,126.774 278.180 C 125.990 277.687,124.144 276.870,122.672 276.365 C 119.499 275.276,117.484 273.725,116.346 271.495 C 114.522 267.920,115.649 208.615,117.804 194.800 C 118.682 189.168,119.072 185.261,119.819 174.600 C 120.148 169.920,120.968 165.604,122.198 162.084 C 122.765 160.459,123.443 157.073,123.791 154.128 C 124.477 148.321,124.892 146.588,126.233 143.938 C 126.751 142.914,127.522 140.112,127.945 137.711 C 128.488 134.637,129.128 132.526,130.109 130.573 C 130.876 129.048,131.894 126.360,132.372 124.600 C 132.880 122.734,133.706 120.816,134.354 120.000 C 134.965 119.230,135.795 117.700,136.199 116.600 C 136.602 115.500,137.592 113.700,138.400 112.600 C 139.208 111.500,140.341 109.771,140.918 108.758 C 143.252 104.657,152.738 96.037,156.566 94.540 C 157.775 94.067,159.300 93.298,159.955 92.832 C 163.390 90.386,168.394 90.030,199.550 90.013 C 223.432 89.999,221.687 90.101,229.800 88.258 C 231.035 87.977,233.475 88.376,237.200 89.468 M320.144 89.969 C 319.453 90.390,318.770 90.925,318.627 91.157 C 318.483 91.389,317.609 91.779,316.683 92.025 C 311.223 93.474,310.756 106.138,316.006 110.400 C 316.684 110.950,317.574 112.152,317.984 113.072 C 318.440 114.094,319.208 114.991,319.961 115.380 C 320.638 115.730,321.556 116.729,322.000 117.600 C 322.444 118.471,323.327 119.452,323.961 119.780 C 324.595 120.107,325.304 120.924,325.538 121.594 C 325.772 122.264,326.674 123.664,327.543 124.706 C 328.690 126.081,329.250 127.226,329.587 128.887 C 329.976 130.801,330.303 131.373,331.598 132.399 C 332.975 133.489,333.175 133.876,333.417 135.912 C 333.858 139.617,335.077 142.866,336.485 144.087 L 337.738 145.173 337.731 167.753 C 337.725 188.227,337.662 190.395,337.062 190.995 C 336.698 191.359,336.400 191.811,336.400 192.000 C 336.400 192.189,336.153 192.590,335.852 192.891 C 333.293 195.450,332.775 203.069,334.882 207.154 C 337.112 211.474,341.779 213.250,347.684 212.024 C 352.192 211.088,354.313 207.970,354.374 202.188 C 354.398 199.969,354.511 199.671,355.787 198.468 C 358.348 196.052,358.764 191.745,358.768 167.600 C 358.771 144.012,358.257 138.888,355.583 135.842 C 354.745 134.887,354.400 134.078,354.400 133.067 C 354.400 130.112,353.580 127.714,351.775 125.389 C 350.705 124.012,350.000 122.686,350.000 122.052 C 349.999 120.673,347.835 116.126,346.583 114.874 C 346.042 114.333,345.600 113.628,345.600 113.306 C 345.600 112.151,344.366 110.152,343.244 109.490 C 342.564 109.088,341.653 107.880,340.994 106.507 C 340.385 105.238,339.144 103.480,338.235 102.600 C 337.326 101.720,336.316 100.472,335.991 99.828 C 335.666 99.183,334.935 98.386,334.366 98.058 C 333.797 97.730,332.938 96.603,332.457 95.556 C 331.722 93.952,331.239 93.487,329.410 92.622 C 328.214 92.056,327.093 91.359,326.918 91.073 C 325.768 89.189,322.339 88.630,320.144 89.969 M81.200 97.827 C 78.861 98.910,76.369 101.356,75.416 103.503 C 75.099 104.219,74.380 104.980,73.819 105.193 C 72.598 105.657,71.341 108.192,70.996 110.889 C 70.806 112.377,70.503 112.957,69.571 113.621 C 67.839 114.854,67.204 116.410,66.927 120.105 C 66.754 122.408,66.457 123.687,65.940 124.354 C 65.533 124.879,65.200 125.554,65.200 125.854 C 65.200 126.154,65.053 126.400,64.874 126.400 C 63.482 126.400,62.418 133.104,62.407 141.947 C 62.400 147.274,62.396 147.299,61.239 148.617 C 58.896 151.285,58.704 153.310,58.493 177.481 C 58.235 207.118,58.281 207.280,67.250 208.258 C 72.207 208.799,75.827 206.907,77.974 202.656 L 79.347 199.935 79.520 177.867 L 79.692 155.800 81.023 153.400 C 82.647 150.474,83.069 147.979,83.434 139.179 L 83.708 132.557 84.977 131.726 C 86.362 130.818,87.076 129.035,87.477 125.485 C 87.751 123.051,88.338 121.756,89.978 119.959 C 90.633 119.243,91.284 118.130,91.425 117.486 C 91.577 116.792,92.141 116.052,92.809 115.669 C 96.648 113.465,96.650 103.339,92.812 101.316 C 91.829 100.798,90.682 99.833,90.263 99.172 C 88.633 96.597,85.016 96.060,81.200 97.827 M292.139 108.837 C 286.950 110.070,285.570 122.004,290.354 124.270 C 291.278 124.708,292.196 125.561,292.647 126.400 C 293.061 127.170,293.974 128.070,294.675 128.400 C 295.376 128.730,296.283 129.627,296.691 130.394 C 297.284 131.508,298.413 132.438,299.912 133.045 C 299.974 133.070,300.196 134.150,300.406 135.445 C 300.929 138.669,301.520 139.938,302.808 140.604 C 303.869 141.153,303.911 141.302,304.168 145.485 C 304.929 157.847,305.631 162.000,307.279 163.893 C 307.782 164.471,307.938 166.431,308.139 174.654 L 308.384 184.707 307.477 185.654 C 305.069 188.169,305.011 190.964,307.314 193.494 C 307.762 193.985,308.504 195.326,308.964 196.474 C 310.185 199.520,311.296 200.044,316.514 200.033 C 322.309 200.021,323.773 199.323,324.844 196.059 C 325.107 195.257,325.657 194.363,326.067 194.074 C 328.177 192.581,328.917 189.284,328.836 181.738 C 328.709 169.921,327.959 163.918,326.309 161.512 C 325.646 160.546,325.526 159.174,325.237 149.312 C 324.918 138.382,324.556 135.723,323.265 134.814 C 322.383 134.193,321.266 131.985,321.031 130.400 C 320.481 126.699,319.138 123.156,318.138 122.777 C 317.537 122.548,316.849 121.629,316.229 120.227 C 315.465 118.499,314.960 117.911,313.844 117.444 C 312.911 117.054,312.341 116.502,312.171 115.825 C 311.902 114.755,309.892 112.800,309.060 112.800 C 308.797 112.800,308.260 112.202,307.867 111.472 C 306.415 108.777,298.191 107.399,292.139 108.837 M113.775 133.900 C 113.642 134.505,113.373 135.510,113.176 136.133 C 112.980 136.756,112.696 139.446,112.545 142.110 C 112.275 146.890,112.254 146.973,110.974 148.253 C 109.190 150.037,108.753 152.325,108.503 161.200 C 108.307 168.118,108.236 168.670,107.398 169.670 C 106.905 170.259,106.173 171.654,105.772 172.770 C 104.579 176.087,104.400 175.227,104.400 166.181 C 104.400 157.643,104.409 157.554,105.343 156.681 C 107.353 154.803,108.110 152.031,108.605 144.750 C 108.842 141.269,108.956 140.852,109.794 140.403 C 110.790 139.870,111.804 137.854,112.208 135.600 C 112.629 133.259,112.830 132.800,113.435 132.800 C 113.860 132.800,113.951 133.095,113.775 133.900 M240.800 280.248 C 232.863 280.928,231.017 281.257,227.875 282.547 C 226.074 283.287,223.880 284.116,223.000 284.391 C 219.469 285.491,218.640 287.077,220.582 289.018 C 222.078 290.515,224.865 290.377,228.773 288.612 C 232.743 286.820,234.559 286.459,241.637 286.057 C 248.304 285.678,248.216 285.708,248.858 283.564 C 249.724 280.674,247.328 279.688,240.800 280.248 M186.600 285.452 C 184.068 285.850,181.277 285.948,177.193 285.783 C 169.634 285.479,167.775 286.257,168.563 289.397 C 169.508 293.159,193.493 292.782,194.952 288.982 C 196.383 285.253,194.079 284.279,186.600 285.452 M312.488 319.421 C 313.816 320.749,310.403 325.093,307.044 326.349 C 305.810 326.811,304.125 327.623,303.300 328.153 C 301.321 329.424,299.873 329.826,294.552 330.581 C 292.105 330.928,288.775 331.665,287.152 332.219 C 282.417 333.834,278.164 334.378,265.403 335.003 C 245.865 335.960,238.431 336.422,236.254 336.814 C 229.274 338.069,221.712 338.473,199.000 338.804 C 174.865 339.155,172.958 339.272,160.600 341.156 C 151.136 342.598,145.507 342.903,132.524 342.680 C 118.526 342.439,114.554 341.864,101.373 338.173 C 99.207 337.566,93.470 333.082,93.012 331.637 C 91.917 328.188,96.204 327.541,104.092 329.965 C 111.651 332.287,131.378 332.831,166.400 331.682 C 175.090 331.396,188.950 330.995,197.200 330.789 C 213.290 330.388,228.433 329.842,241.600 329.188 C 246.110 328.963,255.161 328.514,261.713 328.189 C 273.634 327.597,275.317 327.396,279.800 326.029 C 281.120 325.626,284.090 325.004,286.400 324.645 C 288.710 324.287,291.797 323.802,293.260 323.567 C 294.724 323.333,296.974 322.645,298.260 322.037 C 301.801 320.366,311.626 318.559,312.488 319.421 M224.404 345.448 C 227.710 346.771,227.203 352.337,223.607 354.196 C 218.425 356.876,212.823 357.604,208.508 356.158 C 204.293 354.746,204.210 354.689,202.568 352.122 C 199.031 346.593,200.067 345.627,210.000 345.190 C 220.674 344.721,222.675 344.757,224.404 345.448 " stroke="none" fill="#0c0804" fill-rule="evenodd"></path><path id="path1" d="M191.765 42.752 C 188.485 43.603,189.281 44.606,193.507 44.948 C 198.827 45.378,203.324 44.337,201.157 43.177 C 200.057 42.588,193.534 42.293,191.765 42.752 M214.000 54.891 C 212.130 55.086,203.400 55.286,194.600 55.334 C 177.439 55.430,177.047 55.476,176.548 57.466 C 176.084 59.315,176.749 66.097,177.757 69.800 C 178.296 71.780,178.943 74.428,179.194 75.685 C 179.490 77.168,180.029 78.375,180.731 79.126 L 181.812 80.283 196.806 80.479 C 222.602 80.815,224.094 80.434,222.353 73.944 C 221.784 71.823,221.484 68.961,221.279 63.708 C 220.911 54.274,220.831 54.177,214.000 54.891 M219.883 56.800 C 220.222 57.472,220.389 59.769,220.391 63.800 C 220.394 67.713,220.625 71.002,221.057 73.256 C 222.278 79.627,223.036 79.408,200.209 79.274 C 179.195 79.151,180.784 79.514,179.992 74.657 C 179.736 73.086,179.003 69.756,178.363 67.257 C 175.497 56.062,175.711 55.864,190.318 56.194 C 196.193 56.326,203.250 56.270,206.000 56.069 C 215.150 55.402,219.287 55.620,219.883 56.800 M227.030 90.628 C 224.318 91.053,216.919 91.226,196.230 91.348 C 166.530 91.523,165.943 91.565,161.600 93.822 C 160.170 94.565,158.010 95.627,156.800 96.181 C 152.283 98.249,143.621 106.477,141.406 110.803 C 141.012 111.571,140.194 112.832,139.587 113.604 C 138.981 114.377,138.043 116.087,137.505 117.404 C 136.966 118.722,136.047 120.502,135.461 121.359 C 134.537 122.711,132.800 127.352,132.800 128.467 C 132.800 128.677,132.169 130.143,131.398 131.725 C 130.473 133.622,129.714 136.093,129.165 138.990 C 128.707 141.405,127.882 144.465,127.331 145.790 C 125.826 149.410,125.643 150.174,124.981 155.600 C 124.645 158.350,123.827 162.654,123.163 165.165 C 121.414 171.774,121.277 172.710,120.592 182.720 C 120.251 187.714,119.624 194.770,119.200 198.400 C 117.892 209.573,117.569 213.813,117.190 224.800 C 116.672 239.780,116.694 268.468,117.225 269.874 C 118.094 272.181,121.226 274.659,124.166 275.367 C 124.807 275.522,126.747 276.342,128.476 277.190 C 131.574 278.708,133.141 279.081,140.391 280.028 C 142.255 280.271,145.135 280.888,146.791 281.399 C 148.446 281.910,150.790 282.610,152.000 282.956 C 155.889 284.065,156.800 284.863,156.800 287.159 C 156.800 291.989,150.536 292.807,139.600 289.405 C 137.290 288.686,133.600 287.798,131.400 287.432 C 128.506 286.950,126.499 286.328,124.139 285.183 C 117.336 281.880,115.098 283.205,112.774 291.910 C 112.320 293.609,111.480 295.810,110.906 296.800 C 110.333 297.790,109.285 299.776,108.578 301.213 C 107.871 302.650,106.971 304.090,106.580 304.413 C 106.188 304.736,105.259 305.950,104.514 307.111 C 103.770 308.272,101.922 310.457,100.407 311.965 C 94.568 317.782,95.963 320.018,106.554 321.812 C 109.659 322.338,113.550 323.054,115.200 323.401 C 118.679 324.135,130.338 324.815,135.000 324.557 C 136.760 324.459,144.680 324.106,152.600 323.772 C 160.520 323.438,170.690 322.992,175.200 322.782 C 179.710 322.571,194.560 322.219,208.200 321.999 C 253.196 321.274,260.503 320.922,271.200 318.961 C 274.170 318.416,279.647 317.610,283.371 317.169 C 289.239 316.475,290.568 316.181,293.339 314.963 C 295.098 314.190,298.229 313.217,300.297 312.801 C 302.558 312.346,304.883 311.578,306.129 310.876 C 307.268 310.234,309.775 309.228,311.699 308.641 C 316.716 307.112,318.577 303.436,315.618 300.901 C 314.910 300.296,313.582 299.155,312.666 298.367 C 311.750 297.579,310.153 296.361,309.117 295.660 C 306.215 293.695,301.404 288.802,300.405 286.800 C 299.911 285.810,298.982 284.280,298.340 283.400 C 297.698 282.520,296.631 281.027,295.970 280.081 C 294.081 277.381,292.970 277.510,287.797 281.028 C 285.163 282.819,278.047 285.396,276.815 285.005 C 275.542 284.601,273.185 281.709,273.476 280.909 C 274.516 278.055,276.680 276.025,279.800 274.979 C 283.214 273.835,287.522 270.277,288.686 267.642 C 289.231 266.409,290.313 264.367,291.092 263.105 L 292.507 260.810 292.239 254.105 C 291.878 245.059,291.300 238.676,290.363 233.400 C 288.909 225.204,288.423 221.419,287.815 213.576 C 287.402 208.257,286.763 203.583,285.817 198.976 C 284.918 194.595,284.206 189.513,283.805 184.600 C 283.216 177.396,282.371 171.827,281.530 169.616 C 280.840 167.800,280.072 163.462,279.615 158.800 C 279.274 155.321,278.780 153.079,277.585 149.600 C 276.717 147.070,275.733 143.416,275.398 141.480 C 274.989 139.117,274.285 136.949,273.255 134.880 C 272.412 133.186,271.413 130.549,271.037 129.021 C 270.660 127.492,269.738 125.242,268.987 124.021 C 268.237 122.799,267.345 121.002,267.004 120.026 C 266.662 119.051,265.690 117.341,264.842 116.226 C 263.994 115.112,263.075 113.750,262.799 113.200 C 260.872 109.355,250.260 97.578,247.400 96.110 C 246.740 95.772,245.168 94.724,243.906 93.781 C 240.199 91.014,233.071 89.682,227.030 90.628 M237.674 92.207 C 239.597 92.606,241.148 93.219,242.200 93.997 C 243.080 94.648,244.727 95.732,245.860 96.406 C 249.883 98.799,259.785 109.672,262.152 114.295 C 262.517 115.007,263.361 116.211,264.028 116.971 C 264.695 117.730,265.677 119.464,266.209 120.824 C 266.742 122.183,267.710 124.129,268.359 125.148 C 269.009 126.167,269.910 128.494,270.361 130.319 C 270.813 132.144,271.812 134.764,272.581 136.139 C 273.674 138.093,274.123 139.556,274.632 142.820 C 274.990 145.119,275.794 148.260,276.418 149.800 C 278.010 153.732,278.315 155.123,278.830 160.800 C 279.079 163.550,279.735 167.510,280.287 169.600 C 282.081 176.386,282.373 178.107,282.802 184.400 C 283.356 192.530,283.833 196.137,285.002 201.061 C 286.167 205.970,286.600 209.343,287.405 219.800 C 287.744 224.200,288.264 229.060,288.560 230.600 C 290.385 240.101,290.790 243.311,291.163 251.198 C 291.593 260.311,291.366 261.980,289.489 263.529 C 289.136 263.820,288.382 265.277,287.813 266.766 C 286.617 269.895,283.446 272.482,278.434 274.417 C 275.611 275.506,272.000 279.410,272.000 281.373 C 272.000 284.294,277.300 287.196,280.043 285.778 C 280.764 285.405,282.589 284.680,284.100 284.166 C 285.611 283.652,287.400 282.766,288.077 282.197 C 293.004 278.050,294.923 278.964,299.672 287.715 C 300.930 290.034,305.023 294.093,309.203 297.166 C 310.276 297.955,312.175 299.386,313.423 300.347 L 315.693 302.094 315.486 303.931 C 315.227 306.230,314.458 306.884,310.916 307.820 C 309.422 308.214,306.850 309.201,305.200 310.013 C 303.359 310.918,300.831 311.747,298.656 312.158 C 296.707 312.527,294.385 313.200,293.495 313.653 C 290.468 315.198,288.774 315.575,281.107 316.410 C 276.892 316.869,271.994 317.512,270.222 317.838 C 262.087 319.336,259.765 319.632,253.400 319.979 C 249.660 320.183,239.490 320.452,230.800 320.577 C 222.110 320.702,208.610 320.897,200.800 321.010 C 178.723 321.331,159.036 321.970,149.400 322.678 C 137.708 323.537,122.971 323.517,118.400 322.635 C 116.530 322.274,112.480 321.625,109.400 321.192 C 97.236 319.482,96.081 318.148,101.739 312.339 C 102.950 311.096,104.425 309.296,105.018 308.339 C 105.610 307.383,106.604 306.060,107.227 305.400 C 107.850 304.740,108.648 303.508,109.001 302.662 C 109.354 301.815,110.268 300.182,111.032 299.032 C 111.893 297.734,112.793 295.547,113.403 293.268 C 115.753 284.488,117.460 283.196,123.035 285.981 C 125.365 287.145,127.255 287.739,130.200 288.232 C 132.400 288.600,135.370 289.320,136.800 289.833 C 149.965 294.548,159.292 292.782,158.015 285.815 C 157.594 283.520,149.146 280.075,141.800 279.203 C 134.887 278.382,132.976 277.943,129.600 276.401 C 127.730 275.547,125.339 274.635,124.287 274.374 C 121.833 273.764,118.593 270.939,117.974 268.869 C 117.466 267.168,118.166 220.015,118.780 214.600 C 120.056 203.348,120.849 194.547,121.376 185.800 C 122.020 175.113,122.134 174.295,123.959 167.165 C 124.612 164.616,125.343 160.656,125.585 158.365 C 126.199 152.537,126.695 150.316,128.017 147.472 C 128.747 145.900,129.399 143.471,129.808 140.800 C 130.279 137.719,130.865 135.694,132.008 133.200 C 132.864 131.330,133.848 128.630,134.195 127.200 C 134.541 125.770,135.423 123.610,136.154 122.400 C 136.886 121.190,137.936 119.210,138.487 118.000 C 139.038 116.790,140.144 114.837,140.945 113.660 C 141.745 112.483,142.400 111.293,142.400 111.015 C 142.400 108.939,154.854 97.587,158.255 96.563 C 159.172 96.287,161.155 95.427,162.661 94.651 C 166.842 92.497,168.103 92.411,196.200 92.360 C 210.280 92.334,222.880 92.179,224.200 92.015 C 228.446 91.489,234.634 91.577,237.674 92.207 M236.435 278.193 C 227.424 279.400,227.974 279.270,222.937 281.398 C 217.701 283.611,216.800 284.471,216.800 287.262 C 216.800 292.684,223.932 294.024,232.413 290.194 C 235.530 288.787,235.924 288.711,241.779 288.401 C 248.872 288.025,249.919 287.657,251.136 285.111 C 254.354 278.375,250.081 276.364,236.435 278.193 M247.339 278.776 C 250.446 279.497,251.485 281.585,250.232 284.586 C 249.388 286.604,248.086 287.055,242.200 287.369 C 236.068 287.695,234.378 288.030,230.701 289.643 C 223.530 292.791,218.000 291.643,218.000 287.008 C 218.000 284.550,221.709 282.392,229.400 280.376 C 234.143 279.132,244.784 278.183,247.339 278.776 M189.000 282.815 C 187.680 282.979,182.730 283.135,178.000 283.162 C 168.475 283.217,167.828 283.357,166.701 285.606 C 164.909 289.179,166.112 292.410,169.850 294.063 C 173.241 295.563,184.742 295.797,189.000 294.452 C 196.198 292.178,197.642 291.113,197.910 287.881 C 198.287 283.333,195.876 281.962,189.000 282.815 M195.819 284.658 C 200.203 289.389,192.602 294.005,180.441 293.997 C 168.629 293.989,163.722 290.488,168.210 285.270 L 169.117 284.216 176.658 284.294 C 180.806 284.337,185.280 284.222,186.600 284.039 C 191.901 283.302,194.738 283.492,195.819 284.658 M305.200 322.326 C 304.002 322.507,303.200 323.106,303.200 323.820 C 303.200 324.501,306.500 324.347,307.369 323.625 C 308.447 322.731,307.252 322.016,305.200 322.326 M292.400 325.855 C 287.727 326.537,285.480 327.573,286.826 328.424 C 288.228 329.311,296.122 328.578,298.520 327.338 C 301.028 326.041,297.305 325.139,292.400 325.855 M265.200 330.046 C 254.173 330.504,249.718 331.339,252.896 332.351 C 257.711 333.883,279.303 332.725,279.902 330.902 C 280.335 329.583,278.666 329.486,265.200 330.046 M97.200 331.461 C 97.200 331.605,98.258 332.754,99.551 334.015 L 101.902 336.308 105.851 336.977 C 108.023 337.345,112.619 338.265,116.065 339.021 C 129.476 341.964,142.654 341.945,157.200 338.962 C 162.651 337.845,172.022 337.195,185.600 336.993 C 220.850 336.470,225.051 336.253,225.492 334.927 C 226.110 333.065,220.771 332.952,170.400 333.752 C 119.699 334.558,103.666 334.108,100.114 331.781 C 99.223 331.197,97.200 330.975,97.200 331.461 M151.800 334.801 C 173.800 334.781,197.511 334.693,204.492 334.607 C 211.865 334.515,217.277 334.602,217.408 334.813 C 217.819 335.477,215.948 335.556,194.800 335.768 C 168.492 336.031,162.133 336.494,152.000 338.883 C 142.652 341.086,127.198 340.958,119.400 338.611 C 117.640 338.082,113.410 337.180,110.000 336.608 C 101.855 335.241,100.511 334.280,107.206 334.611 C 109.733 334.735,129.800 334.821,151.800 334.801 M210.800 347.251 C 204.761 347.696,204.232 347.933,204.519 350.073 C 205.361 356.350,222.640 355.757,224.237 349.396 C 224.889 346.796,222.396 346.398,210.800 347.251 M222.567 347.843 C 223.598 348.238,223.313 349.974,222.019 351.182 C 217.647 355.267,202.069 353.359,206.185 349.243 C 207.206 348.222,220.578 347.079,222.567 347.843 " stroke="none" fill="#926d0c" fill-rule="evenodd"></path><path id="path2" d="M206.000 56.069 C 203.250 56.270,196.193 56.326,190.318 56.194 C 175.711 55.864,175.497 56.062,178.363 67.257 C 179.003 69.756,179.736 73.086,179.992 74.657 C 180.784 79.514,179.195 79.151,200.209 79.274 C 223.036 79.408,222.278 79.627,221.057 73.256 C 220.625 71.002,220.394 67.713,220.391 63.800 C 220.387 54.911,220.565 55.007,206.000 56.069 M103.206 334.975 C 103.561 335.329,106.300 335.987,110.000 336.608 C 113.410 337.180,117.640 338.082,119.400 338.611 C 127.198 340.958,142.652 341.086,152.000 338.883 C 162.133 336.494,168.492 336.031,194.800 335.768 C 215.948 335.556,217.819 335.477,217.408 334.813 C 217.277 334.602,211.865 334.515,204.492 334.607 C 184.305 334.857,112.259 334.860,107.206 334.611 C 103.150 334.410,102.682 334.453,103.206 334.975 M210.909 348.156 C 206.299 348.669,205.379 349.180,205.831 350.981 C 206.644 354.219,218.608 354.368,222.019 351.182 C 225.579 347.856,222.109 346.911,210.909 348.156 " stroke="none" fill="#f1821c" fill-rule="evenodd"></path><path id="path3" d="M191.475 41.590 C 187.976 42.227,186.806 43.557,188.442 45.038 C 189.794 46.262,201.990 46.188,203.229 44.949 C 205.701 42.477,198.269 40.354,191.475 41.590 M201.157 43.177 C 202.481 43.885,201.718 44.459,198.915 44.864 C 194.437 45.510,188.266 44.472,190.046 43.372 C 191.709 42.344,199.349 42.209,201.157 43.177 M210.600 54.036 C 208.180 54.205,199.862 54.331,192.116 54.316 C 174.279 54.280,174.908 53.992,175.342 62.003 C 175.843 71.240,178.790 80.432,181.628 81.611 C 183.744 82.489,219.520 81.940,221.400 81.000 C 224.274 79.563,224.701 77.982,223.603 72.851 C 222.968 69.883,222.631 66.671,222.487 62.210 C 222.188 52.958,222.540 53.200,210.600 54.036 M220.197 55.657 C 220.913 56.339,221.023 57.159,221.279 63.708 C 221.484 68.961,221.784 71.823,222.353 73.944 C 224.094 80.434,222.602 80.815,196.806 80.479 L 181.812 80.283 180.731 79.126 C 180.029 78.375,179.490 77.168,179.194 75.685 C 178.943 74.428,178.296 71.780,177.757 69.800 C 176.749 66.097,176.084 59.315,176.548 57.466 C 177.047 55.476,177.439 55.430,194.600 55.334 C 203.400 55.286,212.130 55.086,214.000 54.891 C 217.965 54.476,219.107 54.618,220.197 55.657 M303.400 321.362 C 302.520 321.642,300.900 322.341,299.800 322.915 C 298.700 323.489,296.630 324.137,295.200 324.355 C 293.770 324.574,291.184 324.960,289.452 325.213 C 287.721 325.466,284.725 326.181,282.793 326.802 C 278.488 328.186,274.403 328.686,264.800 329.003 C 260.730 329.138,254.070 329.592,250.000 330.012 C 237.543 331.300,235.653 331.375,199.400 332.031 C 185.760 332.277,169.470 332.621,163.200 332.795 C 131.632 333.671,108.429 332.916,102.225 330.812 C 97.513 329.214,94.800 329.375,94.800 331.252 C 94.800 332.590,100.596 337.102,102.937 337.587 C 104.072 337.822,107.880 338.631,111.400 339.384 C 122.824 341.829,122.543 341.801,136.000 341.781 C 147.809 341.763,149.040 341.692,155.600 340.643 C 168.749 338.542,170.754 338.408,195.161 338.003 C 222.777 337.544,229.063 337.042,235.970 334.744 C 238.450 333.918,238.993 333.893,248.581 334.155 C 265.375 334.613,277.506 333.752,283.968 331.642 C 285.855 331.026,289.110 330.305,291.200 330.040 C 297.401 329.254,299.262 328.790,302.000 327.351 C 303.430 326.599,305.647 325.610,306.926 325.154 C 312.716 323.086,309.353 319.470,303.400 321.362 M307.802 322.803 C 308.173 323.404,306.719 324.143,304.974 324.242 C 303.160 324.344,302.622 323.772,303.700 322.887 C 304.648 322.109,307.339 322.053,307.802 322.803 M299.179 326.175 C 300.172 327.371,295.158 328.806,290.027 328.794 C 286.967 328.787,285.984 328.383,286.757 327.452 C 287.954 326.010,298.170 324.959,299.179 326.175 M279.006 330.002 C 284.554 332.112,259.285 334.384,252.896 332.351 C 249.718 331.339,254.173 330.504,265.200 330.046 C 276.746 329.566,277.849 329.562,279.006 330.002 M100.114 331.781 C 103.666 334.108,119.699 334.558,170.400 333.752 C 220.771 332.952,226.110 333.065,225.492 334.927 C 225.051 336.253,220.850 336.470,185.600 336.993 C 172.022 337.195,162.651 337.845,157.200 338.962 C 142.654 341.945,129.476 341.964,116.065 339.021 C 112.619 338.265,108.023 337.345,105.851 336.977 L 101.902 336.308 99.551 334.015 C 98.258 332.754,97.200 331.605,97.200 331.461 C 97.200 330.975,99.223 331.197,100.114 331.781 M212.182 346.158 C 201.436 346.750,201.008 347.008,203.461 351.397 C 206.021 355.977,213.280 357.004,221.463 353.942 C 227.213 351.791,226.492 344.879,220.600 345.662 C 220.380 345.691,216.592 345.914,212.182 346.158 M223.616 347.533 C 228.113 351.174,216.523 355.967,208.428 353.813 C 204.894 352.872,202.818 349.083,205.249 348.009 C 207.816 346.877,222.340 346.499,223.616 347.533 " stroke="none" fill="#894914" fill-rule="evenodd"></path><path id="path4" d="M198.800 94.770 L 169.400 95.000 166.400 96.656 C 164.750 97.567,162.686 98.438,161.814 98.591 C 159.790 98.945,158.132 99.806,156.684 101.254 C 156.054 101.884,155.282 102.400,154.968 102.400 C 154.654 102.400,152.966 103.885,151.218 105.700 C 149.469 107.515,147.310 109.724,146.419 110.610 C 145.529 111.495,144.800 112.425,144.800 112.676 C 144.800 113.285,143.230 116.928,142.854 117.192 C 142.011 117.784,140.452 120.372,140.198 121.600 C 139.909 122.991,138.965 124.986,138.200 125.822 C 137.314 126.790,136.459 129.170,135.877 132.291 C 135.425 134.714,134.926 136.050,133.987 137.358 C 132.934 138.825,132.645 139.713,132.324 142.467 C 131.786 147.082,130.888 151.230,130.266 151.975 C 129.028 153.458,128.338 156.368,127.983 161.600 C 127.651 166.510,127.513 167.816,126.959 171.316 C 126.862 171.930,126.157 173.944,125.392 175.793 L 124.000 179.155 124.000 185.677 C 124.000 189.265,123.830 195.440,123.623 199.400 C 123.415 203.360,123.143 208.760,123.017 211.400 C 122.891 214.040,122.704 217.010,122.602 218.000 C 122.499 218.990,122.320 221.420,122.204 223.400 C 121.922 228.226,121.615 231.690,121.205 234.684 C 121.018 236.051,120.834 240.461,120.796 244.484 C 120.759 248.508,120.666 252.430,120.590 253.200 C 120.514 253.970,120.326 257.597,120.172 261.261 L 119.892 267.922 121.646 269.007 C 122.611 269.604,123.670 270.405,124.000 270.787 C 124.504 271.372,127.696 272.479,130.348 272.990 C 131.588 273.229,133.895 274.306,134.190 274.784 C 134.720 275.641,136.346 275.971,142.091 276.385 C 145.231 276.611,148.250 276.882,148.800 276.988 C 152.051 277.614,153.856 278.209,154.580 278.895 C 155.031 279.322,156.448 280.205,157.729 280.856 C 160.274 282.151,161.007 283.280,161.464 286.612 C 161.758 288.762,162.386 288.507,163.205 285.906 C 164.877 280.596,164.693 280.660,179.000 280.360 C 187.023 280.192,191.123 279.950,192.296 279.577 C 194.915 278.743,200.534 281.427,201.610 284.025 C 203.469 288.511,201.739 292.159,196.463 294.880 C 194.628 295.826,192.553 296.911,191.851 297.291 C 190.003 298.292,188.286 298.456,179.800 298.442 C 167.634 298.423,166.887 298.180,163.931 293.285 L 161.860 289.857 161.234 290.828 C 158.917 294.425,156.772 295.010,147.200 294.660 C 143.570 294.527,140.150 294.340,139.600 294.244 C 136.584 293.718,135.780 293.519,134.469 292.971 C 133.677 292.640,132.721 292.091,132.344 291.750 C 131.955 291.397,130.310 290.966,128.530 290.749 C 126.808 290.540,124.079 290.002,122.464 289.553 C 120.850 289.105,119.479 288.797,119.418 288.869 C 119.358 288.941,119.078 289.450,118.796 290.000 C 118.515 290.550,117.769 291.658,117.139 292.461 C 116.457 293.332,115.831 294.787,115.592 296.061 C 114.947 299.487,114.472 300.573,112.992 302.007 C 112.227 302.750,111.600 303.558,111.600 303.804 C 111.600 304.721,109.603 308.249,108.319 309.600 C 107.587 310.370,106.778 311.476,106.521 312.059 C 106.265 312.641,105.367 313.630,104.527 314.257 C 102.617 315.681,102.452 315.913,102.693 316.834 C 102.953 317.828,103.680 317.926,116.000 318.633 C 118.310 318.766,122.090 319.012,124.400 319.181 C 128.474 319.478,140.182 319.367,141.800 319.016 C 143.067 318.741,172.776 318.344,215.144 318.036 C 250.427 317.779,254.355 317.686,255.800 317.079 C 259.334 315.593,263.525 314.868,271.222 314.409 C 281.646 313.788,286.484 313.309,286.766 312.868 C 287.312 312.016,291.233 310.668,295.600 309.832 C 298.597 309.258,300.722 308.625,301.492 308.077 C 302.828 307.125,304.483 306.418,306.000 306.150 C 311.427 305.190,312.528 303.888,309.700 301.773 C 308.875 301.157,307.754 300.219,307.208 299.689 C 306.663 299.159,305.673 298.448,305.008 298.109 C 304.344 297.770,303.440 297.031,303.000 296.466 C 301.960 295.132,300.741 293.966,299.506 293.124 C 298.961 292.753,298.214 291.817,297.848 291.044 C 297.481 290.271,296.768 289.135,296.264 288.519 C 295.760 287.904,294.941 286.726,294.443 285.902 C 293.299 284.010,292.405 283.473,291.600 284.195 C 291.270 284.492,289.560 285.305,287.800 286.002 C 286.040 286.699,284.420 287.415,284.200 287.592 C 281.986 289.377,278.456 290.325,275.846 289.835 C 274.341 289.553,268.854 284.724,268.743 283.584 C 268.351 279.567,268.836 278.170,271.668 275.159 C 272.780 273.977,274.192 273.006,275.610 272.449 C 276.825 271.971,278.326 271.145,278.944 270.614 C 279.563 270.083,281.046 269.243,282.241 268.748 C 284.511 267.807,284.621 267.636,285.392 263.890 C 285.518 263.280,286.336 262.043,287.210 261.142 L 288.800 259.504 288.792 254.052 C 288.783 248.244,288.296 243.630,287.648 243.230 C 286.166 242.314,285.396 236.663,284.793 222.292 C 284.379 212.403,283.913 208.400,283.176 208.400 C 282.046 208.400,280.821 199.879,280.416 189.200 C 280.097 180.797,280.075 180.636,278.872 177.975 C 277.322 174.545,276.680 170.586,276.201 161.490 C 275.988 157.456,275.475 155.200,274.769 155.200 C 274.082 155.200,273.122 151.455,272.444 146.132 C 271.743 140.631,271.682 140.422,270.261 138.763 C 269.458 137.824,268.786 136.863,268.769 136.628 C 268.753 136.393,268.673 135.930,268.592 135.600 C 268.511 135.270,268.259 133.933,268.032 132.629 C 267.769 131.120,267.128 129.519,266.270 128.226 C 265.528 127.109,264.509 125.026,264.006 123.598 C 263.502 122.169,262.395 120.121,261.545 119.048 C 260.695 117.974,260.000 116.859,260.000 116.571 C 260.000 116.283,259.100 115.018,258.000 113.761 C 256.900 112.504,256.000 111.313,256.000 111.114 C 256.000 110.013,245.116 99.385,242.784 98.210 C 242.023 97.826,240.770 96.914,240.000 96.182 L 238.600 94.853 233.400 94.696 C 230.540 94.610,214.970 94.643,198.800 94.770 M250.158 274.169 C 257.083 278.978,258.002 283.039,253.302 288.064 C 251.239 290.269,250.899 290.367,243.897 290.769 C 238.956 291.053,238.448 291.159,236.341 292.352 C 235.098 293.055,233.658 293.714,233.141 293.816 C 222.309 295.956,215.423 294.895,214.425 290.932 C 213.190 286.029,214.196 282.158,217.065 280.769 C 218.049 280.292,219.383 279.458,220.029 278.914 C 221.589 277.601,224.399 276.896,230.200 276.361 C 233.838 276.025,235.532 275.671,237.200 274.898 C 240.939 273.164,248.129 272.760,250.158 274.169 " stroke="none" fill="#fcbc14" fill-rule="evenodd"></path><path id="path5" d="M191.000 40.647 C 186.343 41.337,184.721 44.460,188.079 46.270 C 189.994 47.302,201.557 47.306,203.494 46.274 C 209.364 43.150,200.638 39.220,191.000 40.647 M201.908 42.026 C 203.788 42.684,204.319 43.859,203.229 44.949 C 201.165 47.013,187.600 45.970,187.600 43.747 C 187.600 41.631,197.408 40.452,201.908 42.026 M214.600 52.863 C 213.500 53.067,205.400 53.236,196.600 53.241 C 178.379 53.250,177.161 53.328,175.702 54.583 C 172.091 57.689,175.707 79.163,180.400 82.481 C 181.709 83.406,217.669 83.726,220.800 82.840 C 224.844 81.696,226.039 78.993,224.979 73.385 C 224.607 71.413,224.181 66.740,224.034 63.000 C 223.628 52.737,222.405 51.422,214.600 52.863 M221.171 54.710 C 222.270 55.809,222.283 55.878,222.487 62.210 C 222.631 66.671,222.968 69.883,223.603 72.851 C 224.701 77.982,224.274 79.563,221.400 81.000 C 219.520 81.940,183.744 82.489,181.628 81.611 C 178.790 80.432,175.843 71.240,175.342 62.003 C 174.908 53.992,174.279 54.280,192.116 54.316 C 199.862 54.331,208.180 54.205,210.600 54.036 C 219.303 53.426,219.928 53.466,221.171 54.710 M229.800 88.258 C 221.687 90.101,223.432 89.999,199.550 90.013 C 168.394 90.030,163.390 90.386,159.955 92.832 C 159.300 93.298,157.775 94.067,156.566 94.540 C 152.738 96.037,143.252 104.657,140.918 108.758 C 140.341 109.771,139.208 111.500,138.400 112.600 C 137.592 113.700,136.602 115.500,136.199 116.600 C 135.795 117.700,134.965 119.230,134.354 120.000 C 133.706 120.816,132.880 122.734,132.372 124.600 C 131.894 126.360,130.876 129.048,130.109 130.573 C 129.128 132.526,128.488 134.637,127.945 137.711 C 127.522 140.112,126.751 142.914,126.233 143.938 C 124.892 146.588,124.477 148.321,123.791 154.128 C 123.443 157.073,122.765 160.459,122.198 162.084 C 120.968 165.604,120.148 169.920,119.819 174.600 C 119.072 185.261,118.682 189.168,117.804 194.800 C 115.649 208.615,114.522 267.920,116.346 271.495 C 117.484 273.725,119.499 275.276,122.672 276.365 C 124.144 276.870,125.990 277.687,126.774 278.180 C 128.879 279.502,131.709 280.298,136.200 280.828 C 138.400 281.088,141.640 281.754,143.400 282.308 C 145.160 282.862,147.998 283.630,149.706 284.016 C 154.651 285.131,156.199 287.001,154.000 289.200 C 152.603 290.597,148.776 290.374,143.200 288.569 C 140.890 287.821,136.688 286.844,133.862 286.397 C 129.668 285.735,128.124 285.291,125.462 283.985 C 117.362 280.011,113.491 281.801,111.622 290.387 C 111.046 293.033,110.400 294.781,109.478 296.187 C 108.752 297.294,107.831 299.074,107.430 300.142 C 107.030 301.210,105.914 302.971,104.951 304.055 C 103.988 305.140,103.200 306.222,103.200 306.461 C 103.200 306.699,101.690 308.378,99.845 310.190 C 93.704 316.221,93.847 320.683,100.223 321.999 C 101.531 322.269,105.120 323.094,108.200 323.834 C 117.640 326.100,126.039 326.452,150.400 325.603 C 177.293 324.666,197.605 324.008,206.000 323.802 C 253.767 322.629,269.322 321.713,277.654 319.586 C 279.350 319.153,283.047 318.536,285.869 318.215 C 291.773 317.544,292.531 317.351,295.815 315.694 C 297.143 315.023,299.123 314.354,300.215 314.206 C 303.483 313.763,306.491 312.804,308.400 311.595 C 309.390 310.968,311.100 310.236,312.200 309.968 C 316.863 308.834,318.143 307.405,318.180 303.291 C 318.198 301.306,318.089 301.043,316.800 299.969 C 316.030 299.327,314.770 298.199,314.000 297.463 C 313.230 296.728,311.874 295.670,310.987 295.113 C 308.249 293.393,302.179 287.180,301.067 284.957 C 300.504 283.833,299.618 282.393,299.098 281.757 C 298.577 281.121,297.659 279.744,297.057 278.697 C 295.593 276.151,294.380 275.352,293.066 276.068 C 291.266 277.048,288.218 278.908,286.200 280.258 C 282.764 282.555,277.417 283.745,276.262 282.469 C 274.545 280.571,276.437 277.652,280.193 276.402 C 287.085 274.109,294.458 264.280,293.849 258.200 C 293.716 256.880,293.424 252.020,293.198 247.400 C 292.691 236.996,291.855 229.527,290.558 223.800 C 289.945 221.095,289.409 217.011,289.167 213.200 C 288.678 205.500,287.839 199.060,286.612 193.600 C 285.402 188.212,285.291 187.398,284.782 180.200 C 284.327 173.753,283.746 170.367,282.224 165.280 C 281.693 163.506,281.052 159.959,280.800 157.398 C 280.279 152.111,279.679 149.507,278.226 146.220 C 277.668 144.959,276.936 142.279,276.599 140.264 C 276.156 137.614,275.550 135.751,274.410 133.534 C 273.543 131.847,272.549 129.237,272.202 127.734 C 271.848 126.196,271.000 124.125,270.266 123.000 C 269.548 121.900,268.572 120.050,268.098 118.889 C 267.623 117.727,266.618 116.017,265.865 115.089 C 265.111 114.160,264.043 112.500,263.490 111.400 C 262.938 110.300,262.086 109.040,261.597 108.600 C 261.107 108.160,260.177 107.031,259.528 106.092 C 257.966 103.827,250.222 96.172,248.200 94.894 C 247.320 94.338,246.034 93.391,245.342 92.791 C 243.998 91.623,242.577 91.044,237.200 89.468 C 233.475 88.376,231.035 87.977,229.800 88.258 M237.906 91.260 C 240.973 91.929,242.007 92.364,243.906 93.781 C 245.168 94.724,246.740 95.772,247.400 96.110 C 250.260 97.578,260.872 109.355,262.799 113.200 C 263.075 113.750,263.994 115.112,264.842 116.226 C 265.690 117.341,266.662 119.051,267.004 120.026 C 267.345 121.002,268.237 122.799,268.987 124.021 C 269.738 125.242,270.660 127.492,271.037 129.021 C 271.413 130.549,272.412 133.186,273.255 134.880 C 274.285 136.949,274.989 139.117,275.398 141.480 C 275.733 143.416,276.717 147.070,277.585 149.600 C 278.780 153.079,279.274 155.321,279.615 158.800 C 280.072 163.462,280.840 167.800,281.530 169.616 C 282.371 171.827,283.216 177.396,283.805 184.600 C 284.206 189.513,284.918 194.595,285.817 198.976 C 286.763 203.583,287.402 208.257,287.815 213.576 C 288.423 221.419,288.909 225.204,290.363 233.400 C 291.300 238.676,291.878 245.059,292.239 254.105 L 292.507 260.810 291.092 263.105 C 290.313 264.367,289.231 266.409,288.686 267.642 C 287.522 270.277,283.214 273.835,279.800 274.979 C 276.680 276.025,274.516 278.055,273.476 280.909 C 273.185 281.709,275.542 284.601,276.815 285.005 C 278.047 285.396,285.163 282.819,287.797 281.028 C 292.970 277.510,294.081 277.381,295.970 280.081 C 296.631 281.027,297.698 282.520,298.340 283.400 C 298.982 284.280,299.911 285.810,300.405 286.800 C 301.404 288.802,306.215 293.695,309.117 295.660 C 310.153 296.361,311.750 297.579,312.666 298.367 C 313.582 299.155,314.910 300.296,315.618 300.901 C 318.577 303.436,316.716 307.112,311.699 308.641 C 309.775 309.228,307.268 310.234,306.129 310.876 C 304.883 311.578,302.558 312.346,300.297 312.801 C 298.229 313.217,295.098 314.190,293.339 314.963 C 290.568 316.181,289.239 316.475,283.371 317.169 C 279.647 317.610,274.170 318.416,271.200 318.961 C 260.503 320.922,253.196 321.274,208.200 321.999 C 194.560 322.219,179.710 322.571,175.200 322.782 C 170.690 322.992,160.520 323.438,152.600 323.772 C 144.680 324.106,136.760 324.459,135.000 324.557 C 130.338 324.815,118.679 324.135,115.200 323.401 C 113.550 323.054,109.659 322.338,106.554 321.812 C 95.963 320.018,94.568 317.782,100.407 311.965 C 101.922 310.457,103.770 308.272,104.514 307.111 C 105.259 305.950,106.188 304.736,106.580 304.413 C 106.971 304.090,107.871 302.650,108.578 301.213 C 109.285 299.776,110.333 297.790,110.906 296.800 C 111.480 295.810,112.320 293.609,112.774 291.910 C 115.098 283.205,117.336 281.880,124.139 285.183 C 126.499 286.328,128.506 286.950,131.400 287.432 C 133.600 287.798,137.290 288.686,139.600 289.405 C 150.536 292.807,156.800 291.989,156.800 287.159 C 156.800 284.863,155.889 284.065,152.000 282.956 C 150.790 282.610,148.446 281.910,146.791 281.399 C 145.135 280.888,142.255 280.271,140.391 280.028 C 133.141 279.081,131.574 278.708,128.476 277.190 C 126.747 276.342,124.807 275.522,124.166 275.367 C 121.226 274.659,118.094 272.181,117.225 269.874 C 116.694 268.468,116.672 239.780,117.190 224.800 C 117.569 213.813,117.892 209.573,119.200 198.400 C 119.624 194.770,120.251 187.714,120.592 182.720 C 121.277 172.710,121.414 171.774,123.163 165.165 C 123.827 162.654,124.645 158.350,124.981 155.600 C 125.643 150.174,125.826 149.410,127.331 145.790 C 127.882 144.465,128.707 141.405,129.165 138.990 C 129.714 136.093,130.473 133.622,131.398 131.725 C 132.169 130.143,132.800 128.677,132.800 128.467 C 132.800 127.352,134.537 122.711,135.461 121.359 C 136.047 120.502,136.966 118.722,137.505 117.404 C 138.043 116.087,138.981 114.377,139.587 113.604 C 140.194 112.832,141.012 111.571,141.406 110.803 C 143.621 106.477,152.283 98.249,156.800 96.181 C 158.010 95.627,160.170 94.565,161.600 93.822 C 165.943 91.565,166.530 91.523,196.230 91.348 C 216.919 91.226,224.318 91.053,227.030 90.628 C 231.020 90.003,232.553 90.092,237.906 91.260 M237.800 279.067 C 226.208 280.256,218.000 283.548,218.000 287.008 C 218.000 291.643,223.530 292.791,230.701 289.643 C 234.378 288.030,236.068 287.695,242.200 287.369 C 249.125 287.000,250.800 285.970,250.800 282.083 C 250.800 278.740,247.790 278.042,237.800 279.067 M248.516 281.138 C 249.258 281.881,249.292 282.117,248.858 283.564 C 248.216 285.708,248.304 285.678,241.637 286.057 C 234.559 286.459,232.743 286.820,228.773 288.612 C 224.865 290.377,222.078 290.515,220.582 289.018 C 218.640 287.077,219.469 285.491,223.000 284.391 C 223.880 284.116,226.074 283.287,227.875 282.547 C 231.017 281.257,232.863 280.928,240.800 280.248 C 244.613 279.921,247.649 280.271,248.516 281.138 M186.600 284.039 C 185.280 284.222,180.806 284.337,176.658 284.294 L 169.117 284.216 168.210 285.270 C 162.492 291.918,175.075 296.515,189.241 292.955 C 195.593 291.358,196.800 290.466,196.800 287.369 C 196.800 283.792,194.284 282.970,186.600 284.039 M194.400 285.600 C 195.199 286.399,195.421 287.759,194.952 288.982 C 193.493 292.782,169.508 293.159,168.563 289.397 C 167.775 286.257,169.634 285.479,177.193 285.783 C 181.277 285.948,184.068 285.850,186.600 285.452 C 191.890 284.622,193.452 284.652,194.400 285.600 M306.800 319.796 C 302.087 320.420,301.187 320.656,298.260 322.037 C 296.974 322.645,294.724 323.333,293.260 323.567 C 291.797 323.802,288.710 324.287,286.400 324.645 C 284.090 325.004,281.120 325.626,279.800 326.029 C 275.317 327.396,273.634 327.597,261.713 328.189 C 255.161 328.514,246.110 328.963,241.600 329.188 C 228.433 329.842,213.290 330.388,197.200 330.789 C 188.950 330.995,175.090 331.396,166.400 331.682 C 131.378 332.831,111.651 332.287,104.092 329.965 C 96.204 327.541,91.917 328.188,93.012 331.637 C 93.470 333.082,99.207 337.566,101.373 338.173 C 114.554 341.864,118.526 342.439,132.524 342.680 C 145.507 342.903,151.136 342.598,160.600 341.156 C 172.958 339.272,174.865 339.155,199.000 338.804 C 221.712 338.473,229.274 338.069,236.254 336.814 C 238.431 336.422,245.865 335.960,265.403 335.003 C 278.164 334.378,282.417 333.834,287.152 332.219 C 288.775 331.665,292.105 330.928,294.552 330.581 C 299.873 329.826,301.321 329.424,303.300 328.153 C 304.125 327.623,305.810 326.811,307.044 326.349 C 309.975 325.253,311.472 323.838,312.155 321.521 C 312.936 318.873,313.178 318.951,306.800 319.796 M309.241 321.553 C 310.717 322.748,309.839 324.114,306.926 325.154 C 305.647 325.610,303.430 326.599,302.000 327.351 C 299.262 328.790,297.401 329.254,291.200 330.040 C 289.110 330.305,285.855 331.026,283.968 331.642 C 277.506 333.752,265.375 334.613,248.581 334.155 C 238.993 333.893,238.450 333.918,235.970 334.744 C 229.063 337.042,222.777 337.544,195.161 338.003 C 170.754 338.408,168.749 338.542,155.600 340.643 C 149.040 341.692,147.809 341.763,136.000 341.781 C 122.543 341.801,122.824 341.829,111.400 339.384 C 107.880 338.631,104.072 337.822,102.937 337.587 C 100.596 337.102,94.800 332.590,94.800 331.252 C 94.800 329.375,97.513 329.214,102.225 330.812 C 108.429 332.916,131.632 333.671,163.200 332.795 C 169.470 332.621,185.760 332.277,199.400 332.031 C 235.653 331.375,237.543 331.300,250.000 330.012 C 254.070 329.592,260.730 329.138,264.800 329.003 C 274.403 328.686,278.488 328.186,282.793 326.802 C 284.725 326.181,287.721 325.466,289.452 325.213 C 291.184 324.960,293.770 324.574,295.200 324.355 C 296.630 324.137,298.700 323.489,299.800 322.915 C 303.989 320.728,307.583 320.210,309.241 321.553 M210.000 345.190 C 200.067 345.627,199.031 346.593,202.568 352.122 C 204.210 354.689,204.293 354.746,208.508 356.158 C 212.452 357.480,213.534 357.465,218.389 356.022 C 223.948 354.371,224.689 353.918,225.827 351.474 C 228.726 345.246,226.732 344.454,210.000 345.190 M222.477 345.853 C 227.019 346.604,226.328 352.122,221.463 353.942 C 213.280 357.004,206.021 355.977,203.461 351.397 C 201.008 347.008,201.436 346.750,212.182 346.158 C 216.592 345.914,220.380 345.691,220.600 345.662 C 220.820 345.633,221.665 345.719,222.477 345.853 " stroke="none" fill="#644c04" fill-rule="evenodd"></path><path id="path6" d="M224.200 92.015 C 222.880 92.179,210.280 92.334,196.200 92.360 C 168.103 92.411,166.842 92.497,162.661 94.651 C 161.155 95.427,159.172 96.287,158.255 96.563 C 154.854 97.587,142.400 108.939,142.400 111.015 C 142.400 111.293,141.745 112.483,140.945 113.660 C 140.144 114.837,139.038 116.790,138.487 118.000 C 137.936 119.210,136.886 121.190,136.154 122.400 C 135.423 123.610,134.541 125.770,134.195 127.200 C 133.848 128.630,132.864 131.330,132.008 133.200 C 130.865 135.694,130.279 137.719,129.808 140.800 C 129.399 143.471,128.747 145.900,128.017 147.472 C 126.695 150.316,126.199 152.537,125.585 158.365 C 125.343 160.656,124.612 164.616,123.959 167.165 C 122.134 174.295,122.020 175.113,121.376 185.800 C 120.849 194.547,120.056 203.348,118.780 214.600 C 118.166 220.015,117.466 267.168,117.974 268.869 C 118.593 270.939,121.833 273.764,124.287 274.374 C 125.339 274.635,127.730 275.547,129.600 276.401 C 132.976 277.943,134.887 278.382,141.800 279.203 C 149.146 280.075,157.594 283.520,158.015 285.815 C 159.292 292.782,149.965 294.548,136.800 289.833 C 135.370 289.320,132.400 288.600,130.200 288.232 C 127.255 287.739,125.365 287.145,123.035 285.981 C 117.460 283.196,115.753 284.488,113.403 293.268 C 112.793 295.547,111.893 297.734,111.032 299.032 C 110.268 300.182,109.354 301.815,109.001 302.662 C 108.648 303.508,107.850 304.740,107.227 305.400 C 106.604 306.060,105.610 307.383,105.018 308.339 C 104.425 309.296,102.950 311.096,101.739 312.339 C 96.081 318.148,97.236 319.482,109.400 321.192 C 112.480 321.625,116.530 322.274,118.400 322.635 C 122.971 323.517,137.708 323.537,149.400 322.678 C 159.036 321.970,178.723 321.331,200.800 321.010 C 208.610 320.897,222.110 320.702,230.800 320.577 C 239.490 320.452,249.660 320.183,253.400 319.979 C 259.765 319.632,262.087 319.336,270.222 317.838 C 271.994 317.512,276.892 316.869,281.107 316.410 C 288.774 315.575,290.468 315.198,293.495 313.653 C 294.385 313.200,296.707 312.527,298.656 312.158 C 300.831 311.747,303.359 310.918,305.200 310.013 C 306.850 309.201,309.422 308.214,310.916 307.820 C 314.458 306.884,315.227 306.230,315.486 303.931 L 315.693 302.094 313.423 300.347 C 312.175 299.386,310.276 297.955,309.203 297.166 C 305.023 294.093,300.930 290.034,299.672 287.715 C 294.923 278.964,293.004 278.050,288.077 282.197 C 287.400 282.766,285.611 283.652,284.100 284.166 C 282.589 284.680,280.764 285.405,280.043 285.778 C 277.300 287.196,272.000 284.294,272.000 281.373 C 272.000 279.410,275.611 275.506,278.434 274.417 C 283.446 272.482,286.617 269.895,287.813 266.766 C 288.382 265.277,289.136 263.820,289.489 263.529 C 291.366 261.980,291.593 260.311,291.163 251.198 C 290.790 243.311,290.385 240.101,288.560 230.600 C 288.264 229.060,287.744 224.200,287.405 219.800 C 286.600 209.343,286.167 205.970,285.002 201.061 C 283.833 196.137,283.356 192.530,282.802 184.400 C 282.373 178.107,282.081 176.386,280.287 169.600 C 279.735 167.510,279.079 163.550,278.830 160.800 C 278.315 155.123,278.010 153.732,276.418 149.800 C 275.794 148.260,274.990 145.119,274.632 142.820 C 274.123 139.556,273.674 138.093,272.581 136.139 C 271.812 134.764,270.813 132.144,270.361 130.319 C 269.910 128.494,269.009 126.167,268.359 125.148 C 267.710 124.129,266.742 122.183,266.209 120.824 C 265.677 119.464,264.695 117.730,264.028 116.971 C 263.361 116.211,262.517 115.007,262.152 114.295 C 259.785 109.672,249.883 98.799,245.860 96.406 C 244.727 95.732,243.080 94.648,242.200 93.997 C 239.349 91.888,231.865 91.064,224.200 92.015 M237.427 93.235 C 239.126 93.546,240.368 94.100,241.800 95.188 C 242.900 96.023,244.366 96.992,245.058 97.341 C 248.615 99.139,257.404 108.638,260.965 114.534 C 261.385 115.230,262.398 116.700,263.215 117.800 C 264.031 118.900,265.007 120.747,265.383 121.904 C 265.759 123.061,266.662 124.872,267.389 125.929 C 268.275 127.217,268.914 128.831,269.326 130.825 C 270.089 134.510,270.538 135.707,271.764 137.327 C 272.842 138.753,273.404 140.657,273.791 144.200 C 274.146 147.447,274.652 149.294,276.082 152.572 C 277.115 154.939,277.373 156.253,277.849 161.572 C 278.488 168.718,278.886 170.938,280.246 174.934 C 281.214 177.779,281.289 178.414,282.415 193.129 C 282.656 196.280,283.204 200.150,283.633 201.729 C 284.061 203.308,284.684 205.590,285.017 206.800 C 285.353 208.021,285.794 212.292,286.009 216.400 C 286.626 228.236,287.143 232.546,288.671 238.600 C 289.694 242.657,290.351 249.579,290.380 256.600 C 290.395 260.345,290.161 261.037,288.164 263.135 C 287.704 263.619,287.038 265.055,286.684 266.327 C 285.962 268.924,282.331 271.789,277.444 273.618 C 275.154 274.475,271.252 278.347,270.595 280.414 C 269.320 284.433,276.662 289.319,280.565 287.049 C 281.464 286.526,283.530 285.620,285.156 285.037 C 286.782 284.454,288.649 283.525,289.304 282.974 C 293.221 279.678,293.914 280.072,298.503 288.200 C 299.933 290.733,304.298 295.200,307.342 297.245 C 315.876 302.978,316.301 305.271,309.185 307.169 C 307.323 307.666,304.973 308.597,303.962 309.238 C 302.926 309.895,301.092 310.583,299.762 310.814 C 295.213 311.603,293.382 312.119,291.113 313.254 C 288.494 314.565,286.166 314.967,276.400 315.800 C 272.550 316.128,267.244 316.848,264.608 317.399 C 256.657 319.061,254.542 319.171,223.000 319.579 C 157.912 320.419,159.008 320.397,150.000 321.011 C 148.570 321.109,144.430 321.372,140.800 321.596 C 137.170 321.820,133.623 322.100,132.918 322.217 C 131.603 322.435,120.736 321.482,116.800 320.803 C 115.590 320.595,111.828 320.152,108.440 319.819 C 99.325 318.923,98.358 317.775,102.746 313.058 C 104.037 311.670,105.424 310.010,105.829 309.368 C 106.234 308.725,107.068 307.608,107.683 306.885 C 108.298 306.162,109.232 304.722,109.759 303.685 C 110.285 302.648,111.352 300.856,112.129 299.703 C 112.963 298.465,113.737 296.663,114.018 295.303 C 114.693 292.030,117.391 286.478,118.566 285.943 C 119.365 285.579,119.910 285.734,122.068 286.941 C 124.008 288.026,125.554 288.520,128.491 288.993 C 130.618 289.335,133.943 290.222,135.879 290.965 C 139.871 292.496,144.407 293.210,150.496 293.267 C 157.839 293.336,159.590 291.794,159.256 285.555 C 159.078 282.234,150.745 278.913,139.941 277.857 C 135.235 277.397,134.158 277.155,132.140 276.105 C 130.852 275.435,128.200 274.399,126.246 273.803 C 123.221 272.880,122.396 272.430,120.696 270.774 L 118.700 268.830 118.919 248.515 C 119.134 228.646,119.467 221.497,120.590 212.600 C 120.896 210.180,121.428 203.160,121.772 197.000 C 122.881 177.188,123.024 175.768,124.347 171.524 C 125.100 169.106,125.793 165.570,126.187 162.124 C 127.161 153.609,127.516 151.851,128.776 149.313 C 129.582 147.688,130.140 145.637,130.577 142.691 C 131.271 138.018,131.537 137.108,133.015 134.338 C 133.561 133.314,134.378 130.990,134.831 129.172 C 135.330 127.164,136.270 124.845,137.226 123.259 C 138.092 121.825,138.800 120.405,138.800 120.105 C 138.800 119.333,139.939 117.207,141.096 115.823 C 141.636 115.175,142.493 113.708,143.000 112.562 C 143.506 111.416,144.614 109.736,145.461 108.827 C 148.646 105.410,152.940 101.200,153.240 101.200 C 153.411 101.200,154.380 100.483,155.393 99.606 C 156.572 98.586,158.055 97.780,159.517 97.366 C 160.773 97.011,162.785 96.174,163.988 95.507 C 167.692 93.453,167.105 93.493,197.400 93.219 C 213.240 93.075,228.192 92.922,230.627 92.879 C 233.061 92.835,236.121 92.996,237.427 93.235 M242.000 276.182 C 236.439 277.236,234.050 277.609,230.060 278.046 C 224.800 278.623,216.924 282.170,216.011 284.375 C 215.310 286.065,215.664 289.759,216.652 291.082 C 218.531 293.599,226.887 294.005,232.000 291.830 C 236.939 289.728,237.740 289.547,243.458 289.236 C 250.163 288.873,250.547 288.697,252.577 285.067 C 254.396 281.815,254.384 280.933,252.500 279.115 C 249.484 276.206,246.407 275.346,242.000 276.182 M249.665 278.433 C 252.588 279.924,252.911 281.394,251.136 285.111 C 249.919 287.657,248.872 288.025,241.779 288.401 C 235.924 288.711,235.530 288.787,232.413 290.194 C 223.932 294.024,216.800 292.684,216.800 287.262 C 216.800 284.471,217.701 283.611,222.937 281.398 C 227.974 279.270,227.424 279.400,236.435 278.193 C 244.098 277.166,247.295 277.224,249.665 278.433 M190.800 281.613 C 189.590 281.782,184.280 281.943,179.000 281.969 C 167.430 282.027,166.533 282.256,165.452 285.428 C 162.910 292.889,166.586 296.180,178.000 296.660 C 186.741 297.028,188.503 296.643,196.366 292.647 C 203.392 289.077,199.046 280.460,190.800 281.613 M195.416 283.034 C 200.104 285.259,198.732 290.913,192.987 293.040 C 188.710 294.624,188.024 294.804,184.800 295.186 C 173.919 296.475,165.999 293.886,166.001 289.042 C 166.002 283.765,167.105 283.225,178.000 283.162 C 182.730 283.135,187.680 282.979,189.000 282.815 C 192.918 282.329,194.009 282.367,195.416 283.034 " stroke="none" fill="#c9960c" fill-rule="evenodd"></path><path id="path7" d="M197.400 93.219 C 167.105 93.493,167.692 93.453,163.988 95.507 C 162.785 96.174,160.773 97.011,159.517 97.366 C 158.055 97.780,156.572 98.586,155.393 99.606 C 154.380 100.483,153.411 101.200,153.240 101.200 C 152.940 101.200,148.646 105.410,145.461 108.827 C 144.614 109.736,143.506 111.416,143.000 112.562 C 142.493 113.708,141.636 115.175,141.096 115.823 C 139.939 117.207,138.800 119.333,138.800 120.105 C 138.800 120.405,138.092 121.825,137.226 123.259 C 136.270 124.845,135.330 127.164,134.831 129.172 C 134.378 130.990,133.561 133.314,133.015 134.338 C 131.537 137.108,131.271 138.018,130.577 142.691 C 130.140 145.637,129.582 147.688,128.776 149.313 C 127.516 151.851,127.161 153.609,126.187 162.124 C 125.793 165.570,125.100 169.106,124.347 171.524 C 123.024 175.768,122.881 177.188,121.772 197.000 C 121.428 203.160,120.896 210.180,120.590 212.600 C 119.467 221.497,119.134 228.646,118.919 248.515 L 118.700 268.830 120.696 270.774 C 122.396 272.430,123.221 272.880,126.246 273.803 C 128.200 274.399,130.852 275.435,132.140 276.105 C 134.158 277.155,135.235 277.397,139.941 277.857 C 150.745 278.913,159.078 282.234,159.256 285.555 C 159.590 291.794,157.839 293.336,150.496 293.267 C 144.407 293.210,139.871 292.496,135.879 290.965 C 133.943 290.222,130.618 289.335,128.491 288.993 C 125.554 288.520,124.008 288.026,122.068 286.941 C 119.910 285.734,119.365 285.579,118.566 285.943 C 117.391 286.478,114.693 292.030,114.018 295.303 C 113.737 296.663,112.963 298.465,112.129 299.703 C 111.352 300.856,110.285 302.648,109.759 303.685 C 109.232 304.722,108.298 306.162,107.683 306.885 C 107.068 307.608,106.234 308.725,105.829 309.368 C 105.424 310.010,104.037 311.670,102.746 313.058 C 98.358 317.775,99.325 318.923,108.440 319.819 C 111.828 320.152,115.590 320.595,116.800 320.803 C 120.736 321.482,131.603 322.435,132.918 322.217 C 133.623 322.100,137.170 321.820,140.800 321.596 C 144.430 321.372,148.570 321.109,150.000 321.011 C 159.008 320.397,157.912 320.419,223.000 319.579 C 254.542 319.171,256.657 319.061,264.608 317.399 C 267.244 316.848,272.550 316.128,276.400 315.800 C 286.166 314.967,288.494 314.565,291.113 313.254 C 293.382 312.119,295.213 311.603,299.762 310.814 C 301.092 310.583,302.926 309.895,303.962 309.238 C 304.973 308.597,307.323 307.666,309.185 307.169 C 316.301 305.271,315.876 302.978,307.342 297.245 C 304.298 295.200,299.933 290.733,298.503 288.200 C 293.914 280.072,293.221 279.678,289.304 282.974 C 288.649 283.525,286.782 284.454,285.156 285.037 C 283.530 285.620,281.464 286.526,280.565 287.049 C 276.662 289.319,269.320 284.433,270.595 280.414 C 271.252 278.347,275.154 274.475,277.444 273.618 C 282.331 271.789,285.962 268.924,286.684 266.327 C 287.038 265.055,287.704 263.619,288.164 263.135 C 290.161 261.037,290.395 260.345,290.380 256.600 C 290.351 249.579,289.694 242.657,288.671 238.600 C 287.143 232.546,286.626 228.236,286.009 216.400 C 285.794 212.292,285.353 208.021,285.017 206.800 C 284.684 205.590,284.061 203.308,283.633 201.729 C 283.204 200.150,282.656 196.280,282.415 193.129 C 281.289 178.414,281.214 177.779,280.246 174.934 C 278.886 170.938,278.488 168.718,277.849 161.572 C 277.373 156.253,277.115 154.939,276.082 152.572 C 274.652 149.294,274.146 147.447,273.791 144.200 C 273.404 140.657,272.842 138.753,271.764 137.327 C 270.538 135.707,270.089 134.510,269.326 130.825 C 268.914 128.831,268.275 127.217,267.389 125.929 C 266.662 124.872,265.759 123.061,265.383 121.904 C 265.007 120.747,264.031 118.900,263.215 117.800 C 262.398 116.700,261.385 115.230,260.965 114.534 C 257.404 108.638,248.615 99.139,245.058 97.341 C 244.366 96.992,242.900 96.023,241.800 95.188 C 239.317 93.303,236.738 92.770,230.627 92.879 C 228.192 92.922,213.240 93.075,197.400 93.219 M236.968 93.992 C 238.512 94.245,239.695 94.712,240.368 95.333 C 240.935 95.857,242.667 97.093,244.216 98.080 C 247.367 100.089,254.457 107.015,256.571 110.151 C 257.331 111.278,258.513 112.830,259.197 113.600 C 259.881 114.370,260.701 115.606,261.019 116.346 C 261.337 117.086,262.133 118.302,262.788 119.047 C 263.443 119.793,264.265 121.390,264.616 122.596 C 264.966 123.801,265.881 125.701,266.649 126.817 C 267.668 128.298,268.261 129.833,268.841 132.491 C 269.719 136.512,269.673 136.401,271.300 138.449 C 272.200 139.581,272.532 140.541,272.820 142.849 C 273.625 149.291,274.135 151.475,275.421 154.000 C 276.548 156.211,276.782 157.168,276.989 160.400 C 277.465 167.837,278.107 172.628,278.890 174.600 C 280.744 179.263,280.933 180.479,281.411 190.800 C 281.766 198.474,282.316 202.280,283.616 206.074 C 284.931 209.909,284.996 210.451,285.630 222.800 C 286.238 234.639,286.455 236.211,288.188 241.343 C 289.139 244.162,289.273 245.278,289.484 252.150 L 289.719 259.814 288.090 261.696 C 287.194 262.731,286.368 263.898,286.254 264.289 C 286.141 264.680,285.846 265.779,285.600 266.730 C 285.245 268.106,284.890 268.570,283.871 268.996 C 283.166 269.291,281.648 270.179,280.498 270.970 C 279.348 271.761,277.458 272.764,276.298 273.198 C 273.079 274.402,269.921 278.140,269.681 281.029 L 269.505 283.150 272.133 285.777 C 276.026 289.670,277.619 289.962,281.900 287.568 C 283.055 286.922,285.150 285.960,286.556 285.431 C 287.961 284.902,289.878 283.914,290.816 283.235 C 293.358 281.393,293.450 281.467,297.478 288.582 C 298.802 290.921,304.090 296.293,307.436 298.699 C 314.452 303.744,314.554 305.221,307.979 306.604 C 305.289 307.170,304.490 307.503,301.800 309.181 C 301.140 309.593,298.800 310.224,296.600 310.585 C 293.777 311.048,291.723 311.668,289.619 312.695 L 286.638 314.149 276.947 314.852 C 266.803 315.586,266.113 315.683,259.000 317.366 C 253.963 318.557,255.981 318.504,189.200 319.209 C 153.778 319.584,147.014 319.735,140.400 320.301 C 136.349 320.648,126.215 320.669,123.400 320.336 C 120.670 320.014,112.317 319.252,107.114 318.851 C 100.912 318.374,100.087 317.196,103.500 313.695 C 106.255 310.870,109.014 307.146,110.428 304.344 C 111.107 303.000,112.029 301.518,112.478 301.050 C 113.534 299.950,114.201 298.348,114.781 295.520 C 115.038 294.266,115.660 292.633,116.164 291.891 C 116.667 291.149,117.408 289.797,117.810 288.887 C 118.744 286.770,119.285 286.591,121.167 287.779 C 122.652 288.717,127.660 290.000,129.833 290.000 C 130.419 290.000,132.317 290.640,134.049 291.422 C 139.109 293.707,152.501 294.762,157.094 293.238 C 160.176 292.215,161.533 286.599,159.462 283.438 C 157.943 281.120,150.440 278.084,145.000 277.587 C 136.493 276.810,135.006 276.540,133.301 275.464 C 132.413 274.903,130.812 274.185,129.743 273.868 C 128.674 273.551,126.810 272.996,125.600 272.634 C 124.158 272.202,122.724 271.368,121.438 270.211 L 119.475 268.447 119.549 254.724 C 119.613 242.673,119.989 232.614,120.594 226.800 C 120.697 225.810,120.869 223.920,120.976 222.600 C 121.084 221.280,121.451 217.050,121.792 213.200 C 122.134 209.350,122.676 199.780,122.997 191.934 L 123.581 177.669 124.950 173.534 C 126.390 169.186,126.532 168.360,127.207 160.375 C 127.650 155.145,128.035 153.393,129.191 151.367 C 130.307 149.410,130.757 147.697,131.360 143.103 C 131.831 139.515,132.167 138.362,133.399 136.121 C 134.369 134.356,135.079 132.333,135.472 130.218 C 135.909 127.862,136.433 126.464,137.429 125.000 C 138.177 123.900,139.069 122.052,139.411 120.894 C 139.754 119.736,140.588 118.158,141.265 117.388 C 141.941 116.617,142.894 115.003,143.383 113.802 C 143.871 112.601,145.065 110.708,146.035 109.597 C 148.295 107.010,153.320 102.000,153.656 102.000 C 153.797 102.000,154.787 101.274,155.856 100.386 C 157.162 99.302,158.719 98.499,160.600 97.939 C 162.140 97.480,164.570 96.451,166.000 95.652 L 168.600 94.200 197.200 93.989 C 212.930 93.873,227.780 93.739,230.200 93.691 C 232.620 93.644,235.665 93.779,236.968 93.992 M241.000 274.990 C 239.900 275.279,238.280 275.779,237.400 276.101 C 236.520 276.423,234.270 276.811,232.400 276.964 C 226.998 277.406,223.922 278.033,222.200 279.043 C 221.320 279.559,219.569 280.526,218.310 281.191 C 214.832 283.029,213.604 287.404,215.501 291.200 C 217.275 294.751,228.183 295.040,235.090 291.718 C 237.790 290.419,238.342 290.307,243.490 290.014 C 250.868 289.594,251.567 289.262,254.034 285.000 C 256.015 281.580,255.479 279.733,251.716 277.006 C 248.084 274.375,245.317 273.854,241.000 274.990 M249.400 276.877 C 253.952 279.129,254.749 281.184,252.577 285.067 C 250.547 288.697,250.163 288.873,243.458 289.236 C 237.740 289.547,236.939 289.728,232.000 291.830 C 226.887 294.005,218.531 293.599,216.652 291.082 C 215.664 289.759,215.310 286.065,216.011 284.375 C 216.924 282.170,224.800 278.623,230.060 278.046 C 234.050 277.609,236.439 277.236,242.000 276.182 C 245.085 275.597,247.219 275.797,249.400 276.877 M190.600 280.823 C 189.720 281.005,184.590 281.178,179.200 281.208 C 165.998 281.280,165.527 281.456,164.130 286.840 C 163.081 290.886,165.398 295.558,169.106 296.871 C 171.966 297.884,189.034 297.603,191.000 296.511 C 191.880 296.023,194.084 294.893,195.897 294.001 C 205.302 289.376,200.999 278.672,190.600 280.823 M196.452 282.234 C 200.737 284.422,200.687 290.451,196.366 292.647 C 188.503 296.643,186.741 297.028,178.000 296.660 C 166.586 296.180,162.910 292.889,165.452 285.428 C 166.533 282.256,167.430 282.027,179.000 281.969 C 184.280 281.943,189.590 281.782,190.800 281.613 C 193.278 281.267,194.910 281.446,196.452 282.234 " stroke="none" fill="#e4ac0c" fill-rule="evenodd"></path><path id="path8" d="M197.200 93.989 L 168.600 94.200 166.000 95.652 C 164.570 96.451,162.140 97.480,160.600 97.939 C 158.719 98.499,157.162 99.302,155.856 100.386 C 154.787 101.274,153.797 102.000,153.656 102.000 C 153.320 102.000,148.295 107.010,146.035 109.597 C 145.065 110.708,143.871 112.601,143.383 113.802 C 142.894 115.003,141.941 116.617,141.265 117.388 C 140.588 118.158,139.754 119.736,139.411 120.894 C 139.069 122.052,138.177 123.900,137.429 125.000 C 136.433 126.464,135.909 127.862,135.472 130.218 C 135.079 132.333,134.369 134.356,133.399 136.121 C 132.167 138.362,131.831 139.515,131.360 143.103 C 130.757 147.697,130.307 149.410,129.191 151.367 C 128.035 153.393,127.650 155.145,127.207 160.375 C 126.532 168.360,126.390 169.186,124.950 173.534 L 123.581 177.669 122.997 191.934 C 122.676 199.780,122.134 209.350,121.792 213.200 C 121.451 217.050,121.084 221.280,120.976 222.600 C 120.869 223.920,120.697 225.810,120.594 226.800 C 119.989 232.614,119.613 242.673,119.549 254.724 L 119.475 268.447 121.438 270.211 C 122.724 271.368,124.158 272.202,125.600 272.634 C 126.810 272.996,128.674 273.551,129.743 273.868 C 130.812 274.185,132.413 274.903,133.301 275.464 C 135.006 276.540,136.493 276.810,145.000 277.587 C 150.440 278.084,157.943 281.120,159.462 283.438 C 161.533 286.599,160.176 292.215,157.094 293.238 C 152.501 294.762,139.109 293.707,134.049 291.422 C 132.317 290.640,130.419 290.000,129.833 290.000 C 127.660 290.000,122.652 288.717,121.167 287.779 C 119.285 286.591,118.744 286.770,117.810 288.887 C 117.408 289.797,116.667 291.149,116.164 291.891 C 115.660 292.633,115.038 294.266,114.781 295.520 C 114.201 298.348,113.534 299.950,112.478 301.050 C 112.029 301.518,111.107 303.000,110.428 304.344 C 109.014 307.146,106.255 310.870,103.500 313.695 C 100.087 317.196,100.912 318.374,107.114 318.851 C 112.317 319.252,120.670 320.014,123.400 320.336 C 126.215 320.669,136.349 320.648,140.400 320.301 C 147.014 319.735,153.778 319.584,189.200 319.209 C 255.981 318.504,253.963 318.557,259.000 317.366 C 266.113 315.683,266.803 315.586,276.947 314.852 L 286.638 314.149 289.619 312.695 C 291.723 311.668,293.777 311.048,296.600 310.585 C 298.800 310.224,301.140 309.593,301.800 309.181 C 304.490 307.503,305.289 307.170,307.979 306.604 C 314.554 305.221,314.452 303.744,307.436 298.699 C 304.090 296.293,298.802 290.921,297.478 288.582 C 293.450 281.467,293.358 281.393,290.816 283.235 C 289.878 283.914,287.961 284.902,286.556 285.431 C 285.150 285.960,283.055 286.922,281.900 287.568 C 277.619 289.962,276.026 289.670,272.133 285.777 L 269.505 283.150 269.681 281.029 C 269.921 278.140,273.079 274.402,276.298 273.198 C 277.458 272.764,279.348 271.761,280.498 270.970 C 281.648 270.179,283.166 269.291,283.871 268.996 C 284.890 268.570,285.245 268.106,285.600 266.730 C 285.846 265.779,286.141 264.680,286.254 264.289 C 286.368 263.898,287.194 262.731,288.090 261.696 L 289.719 259.814 289.484 252.150 C 289.273 245.278,289.139 244.162,288.188 241.343 C 286.455 236.211,286.238 234.639,285.630 222.800 C 284.996 210.451,284.931 209.909,283.616 206.074 C 282.316 202.280,281.766 198.474,281.411 190.800 C 280.933 180.479,280.744 179.263,278.890 174.600 C 278.107 172.628,277.465 167.837,276.989 160.400 C 276.782 157.168,276.548 156.211,275.421 154.000 C 274.135 151.475,273.625 149.291,272.820 142.849 C 272.532 140.541,272.200 139.581,271.300 138.449 C 269.673 136.401,269.719 136.512,268.841 132.491 C 268.261 129.833,267.668 128.298,266.649 126.817 C 265.881 125.701,264.966 123.801,264.616 122.596 C 264.265 121.390,263.443 119.793,262.788 119.047 C 262.133 118.302,261.337 117.086,261.019 116.346 C 260.701 115.606,259.881 114.370,259.197 113.600 C 258.513 112.830,257.331 111.278,256.571 110.151 C 254.457 107.015,247.367 100.089,244.216 98.080 C 242.667 97.093,240.935 95.857,240.368 95.333 C 239.022 94.091,235.858 93.580,230.200 93.691 C 227.780 93.739,212.930 93.873,197.200 93.989 M240.000 96.182 C 240.770 96.914,242.023 97.826,242.784 98.210 C 245.116 99.385,256.000 110.013,256.000 111.114 C 256.000 111.313,256.900 112.504,258.000 113.761 C 259.100 115.018,260.000 116.283,260.000 116.571 C 260.000 116.859,260.695 117.974,261.545 119.048 C 262.395 120.121,263.502 122.169,264.006 123.598 C 264.509 125.026,265.528 127.109,266.270 128.226 C 267.128 129.519,267.769 131.120,268.032 132.629 C 268.259 133.933,268.511 135.270,268.592 135.600 C 268.673 135.930,268.753 136.393,268.769 136.628 C 268.786 136.863,269.458 137.824,270.261 138.763 C 271.682 140.422,271.743 140.631,272.444 146.132 C 273.122 151.455,274.082 155.200,274.769 155.200 C 275.475 155.200,275.988 157.456,276.201 161.490 C 276.680 170.586,277.322 174.545,278.872 177.975 C 280.075 180.636,280.097 180.797,280.416 189.200 C 280.821 199.879,282.046 208.400,283.176 208.400 C 283.913 208.400,284.379 212.403,284.793 222.292 C 285.396 236.663,286.166 242.314,287.648 243.230 C 288.296 243.630,288.783 248.244,288.792 254.052 L 288.800 259.504 287.210 261.142 C 286.336 262.043,285.518 263.280,285.392 263.890 C 284.621 267.636,284.511 267.807,282.241 268.748 C 281.046 269.243,279.563 270.083,278.944 270.614 C 278.326 271.145,276.825 271.971,275.610 272.449 C 274.192 273.006,272.780 273.977,271.668 275.159 C 268.836 278.170,268.351 279.567,268.743 283.584 C 268.854 284.724,274.341 289.553,275.846 289.835 C 278.456 290.325,281.986 289.377,284.200 287.592 C 284.420 287.415,286.040 286.699,287.800 286.002 C 289.560 285.305,291.270 284.492,291.600 284.195 C 292.405 283.473,293.299 284.010,294.443 285.902 C 294.941 286.726,295.760 287.904,296.264 288.519 C 296.768 289.135,297.481 290.271,297.848 291.044 C 298.214 291.817,298.961 292.753,299.506 293.124 C 300.741 293.966,301.960 295.132,303.000 296.466 C 303.440 297.031,304.344 297.770,305.008 298.109 C 305.673 298.448,306.663 299.159,307.208 299.689 C 307.754 300.219,308.875 301.157,309.700 301.773 C 312.528 303.888,311.427 305.190,306.000 306.150 C 304.483 306.418,302.828 307.125,301.492 308.077 C 300.722 308.625,298.597 309.258,295.600 309.832 C 291.233 310.668,287.312 312.016,286.766 312.868 C 286.484 313.309,281.646 313.788,271.222 314.409 C 263.525 314.868,259.334 315.593,255.800 317.079 C 254.355 317.686,250.427 317.779,215.144 318.036 C 172.776 318.344,143.067 318.741,141.800 319.016 C 140.182 319.367,128.474 319.478,124.400 319.181 C 122.090 319.012,118.310 318.766,116.000 318.633 C 103.680 317.926,102.953 317.828,102.693 316.834 C 102.452 315.913,102.617 315.681,104.527 314.257 C 105.367 313.630,106.265 312.641,106.521 312.059 C 106.778 311.476,107.587 310.370,108.319 309.600 C 109.603 308.249,111.600 304.721,111.600 303.804 C 111.600 303.558,112.227 302.750,112.992 302.007 C 114.472 300.573,114.947 299.487,115.592 296.061 C 115.831 294.787,116.457 293.332,117.139 292.461 C 117.769 291.658,118.515 290.550,118.796 290.000 C 119.078 289.450,119.358 288.941,119.418 288.869 C 119.479 288.797,120.850 289.105,122.464 289.553 C 124.079 290.002,126.808 290.540,128.530 290.749 C 130.310 290.966,131.955 291.397,132.344 291.750 C 132.721 292.091,133.677 292.640,134.469 292.971 C 135.780 293.519,136.584 293.718,139.600 294.244 C 140.150 294.340,143.570 294.527,147.200 294.660 C 156.772 295.010,158.917 294.425,161.234 290.828 L 161.860 289.857 163.931 293.285 C 166.887 298.180,167.634 298.423,179.800 298.442 C 188.286 298.456,190.003 298.292,191.851 297.291 C 192.553 296.911,194.628 295.826,196.463 294.880 C 201.739 292.159,203.469 288.511,201.610 284.025 C 200.534 281.427,194.915 278.743,192.296 279.577 C 191.123 279.950,187.023 280.192,179.000 280.360 C 164.693 280.660,164.877 280.596,163.205 285.906 C 162.386 288.507,161.758 288.762,161.464 286.612 C 161.007 283.280,160.274 282.151,157.729 280.856 C 156.448 280.205,155.031 279.322,154.580 278.895 C 153.856 278.209,152.051 277.614,148.800 276.988 C 148.250 276.882,145.231 276.611,142.091 276.385 C 136.346 275.971,134.720 275.641,134.190 274.784 C 133.895 274.306,131.588 273.229,130.348 272.990 C 127.696 272.479,124.504 271.372,124.000 270.787 C 123.670 270.405,122.611 269.604,121.646 269.007 L 119.892 267.922 120.172 261.261 C 120.326 257.597,120.514 253.970,120.590 253.200 C 120.666 252.430,120.759 248.508,120.796 244.484 C 120.834 240.461,121.018 236.051,121.205 234.684 C 121.615 231.690,121.922 228.226,122.204 223.400 C 122.320 221.420,122.499 218.990,122.602 218.000 C 122.704 217.010,122.891 214.040,123.017 211.400 C 123.143 208.760,123.415 203.360,123.623 199.400 C 123.830 195.440,124.000 189.265,124.000 185.677 L 124.000 179.155 125.392 175.793 C 126.157 173.944,126.862 171.930,126.959 171.316 C 127.513 167.816,127.651 166.510,127.983 161.600 C 128.338 156.368,129.028 153.458,130.266 151.975 C 130.888 151.230,131.786 147.082,132.324 142.467 C 132.645 139.713,132.934 138.825,133.987 137.358 C 134.926 136.050,135.425 134.714,135.877 132.291 C 136.459 129.170,137.314 126.790,138.200 125.822 C 138.965 124.986,139.909 122.991,140.198 121.600 C 140.452 120.372,142.011 117.784,142.854 117.192 C 143.230 116.928,144.800 113.285,144.800 112.676 C 144.800 112.425,145.529 111.495,146.419 110.610 C 147.310 109.724,149.469 107.515,151.218 105.700 C 152.966 103.885,154.654 102.400,154.968 102.400 C 155.282 102.400,156.054 101.884,156.684 101.254 C 158.132 99.806,159.790 98.945,161.814 98.591 C 162.686 98.438,164.750 97.567,166.400 96.656 L 169.400 95.000 198.800 94.770 C 214.970 94.643,230.540 94.610,233.400 94.696 L 238.600 94.853 240.000 96.182 M241.200 273.566 C 240.210 273.738,238.410 274.337,237.200 274.898 C 235.532 275.671,233.838 276.025,230.200 276.361 C 224.399 276.896,221.589 277.601,220.029 278.914 C 219.383 279.458,218.049 280.292,217.065 280.769 C 214.196 282.158,213.190 286.029,214.425 290.932 C 215.423 294.895,222.309 295.956,233.141 293.816 C 233.658 293.714,235.098 293.055,236.341 292.352 C 238.448 291.159,238.956 291.053,243.897 290.769 C 250.899 290.367,251.239 290.269,253.302 288.064 C 258.002 283.039,257.083 278.978,250.158 274.169 C 249.158 273.474,243.813 273.115,241.200 273.566 M248.458 274.976 C 254.180 277.335,256.283 281.116,254.034 285.000 C 251.567 289.262,250.868 289.594,243.490 290.014 C 238.342 290.307,237.790 290.419,235.090 291.718 C 228.183 295.040,217.275 294.751,215.501 291.200 C 213.604 287.404,214.832 283.029,218.310 281.191 C 219.569 280.526,221.320 279.559,222.200 279.043 C 223.922 278.033,226.998 277.406,232.400 276.964 C 234.270 276.811,236.520 276.423,237.400 276.101 C 241.856 274.471,246.168 274.032,248.458 274.976 M196.716 281.358 C 203.113 284.599,202.721 290.646,195.897 294.001 C 194.084 294.893,191.880 296.023,191.000 296.511 C 189.034 297.603,171.966 297.884,169.106 296.871 C 165.398 295.558,163.081 290.886,164.130 286.840 C 165.527 281.456,165.998 281.280,179.200 281.208 C 184.590 281.178,189.720 281.005,190.600 280.823 C 193.373 280.249,194.770 280.371,196.716 281.358 " stroke="none" fill="#f4b40c" fill-rule="evenodd"></path></g></svg>