<svg id="svg" version="1.1" xmlns="http://www.w3.org/2000/svg" xmlns:xlink="http://www.w3.org/1999/xlink" width="400" height="400" viewBox="0, 0, 400,400"><g id="svgg"><path id="path0" d="M191.299 43.979 C 187.372 44.285,184.413 45.366,184.403 46.500 C 184.401 46.665,184.139 46.800,183.820 46.800 C 183.501 46.800,183.076 47.092,182.877 47.449 C 182.677 47.806,181.543 48.571,180.357 49.149 C 178.521 50.043,178.043 50.521,177.149 52.357 C 176.571 53.543,175.806 54.677,175.449 54.877 C 175.092 55.076,174.800 55.456,174.800 55.720 C 174.799 55.984,174.348 56.724,173.798 57.364 C 172.320 59.083,172.077 60.561,171.767 69.712 L 171.486 78.025 170.384 78.952 C 169.502 79.694,168.642 79.924,166.092 80.099 C 162.652 80.334,159.698 81.387,158.000 82.982 C 157.394 83.552,156.055 84.112,154.600 84.406 C 151.591 85.014,150.431 85.608,149.329 87.105 C 148.850 87.756,147.947 88.391,147.322 88.516 C 146.697 88.641,145.316 89.530,144.253 90.491 C 143.191 91.453,141.435 92.555,140.352 92.940 C 138.987 93.424,138.109 94.055,137.495 94.991 C 137.008 95.734,136.028 96.620,135.318 96.959 C 134.607 97.297,133.568 98.300,133.008 99.187 C 132.448 100.074,131.738 100.800,131.431 100.800 C 130.786 100.800,128.970 102.834,128.614 103.955 C 128.482 104.372,127.846 104.932,127.202 105.199 C 126.142 105.638,124.400 108.282,124.400 109.451 C 124.400 109.671,123.884 110.345,123.253 110.949 C 122.623 111.553,121.598 113.072,120.976 114.324 C 120.354 115.576,119.191 117.230,118.392 118.000 C 117.158 119.189,116.859 119.837,116.406 122.295 C 115.996 124.527,115.662 125.330,114.951 125.795 C 113.305 126.874,112.000 130.733,112.000 134.520 C 112.000 136.424,111.876 136.704,110.537 137.828 C 107.930 140.017,107.956 139.552,107.721 187.315 C 107.557 220.607,107.405 229.738,107.008 230.135 C 105.290 231.853,104.480 235.497,104.124 243.117 L 103.875 248.434 102.692 249.277 C 101.230 250.318,100.540 251.912,100.182 255.075 C 99.964 257.005,99.725 257.612,99.037 257.980 C 98.168 258.445,96.677 261.756,96.183 264.319 C 96.043 265.045,95.572 265.855,95.136 266.119 C 94.287 266.635,93.186 268.775,92.390 271.459 C 92.084 272.490,91.555 273.274,90.992 273.531 C 89.934 274.013,89.088 275.565,88.383 278.316 C 87.981 279.882,87.610 280.428,86.563 280.992 C 85.717 281.447,85.019 282.269,84.611 283.289 C 84.262 284.162,83.373 285.445,82.636 286.140 C 81.704 287.019,81.090 288.140,80.616 289.828 C 80.052 291.839,79.711 292.374,78.615 292.964 C 74.950 294.938,74.578 311.794,78.135 314.746 C 79.801 316.129,81.049 316.179,118.600 316.391 L 155.800 316.600 156.041 322.200 C 156.305 328.349,156.552 329.274,158.593 331.766 C 159.462 332.826,160.142 334.223,160.420 335.518 C 160.837 337.462,162.518 339.600,163.629 339.600 C 163.831 339.600,164.369 340.393,164.824 341.362 C 165.366 342.514,166.060 343.294,166.829 343.612 C 167.479 343.881,168.392 344.788,168.871 345.641 C 169.444 346.661,170.183 347.330,171.050 347.616 C 171.771 347.855,172.470 348.390,172.602 348.807 C 172.993 350.038,175.143 351.581,176.845 351.854 C 177.715 351.993,179.167 352.668,180.072 353.353 C 180.977 354.039,182.017 354.824,182.383 355.098 C 183.761 356.131,189.507 356.476,202.487 356.306 C 216.612 356.121,217.157 356.040,219.600 353.735 C 220.535 352.854,221.703 352.258,223.116 351.940 C 225.237 351.464,226.882 350.369,227.310 349.147 C 227.436 348.788,228.318 348.067,229.269 347.546 C 230.295 346.984,231.219 346.103,231.536 345.383 C 231.831 344.714,232.730 343.815,233.533 343.384 C 234.423 342.907,235.271 342.013,235.700 341.100 C 236.089 340.275,236.557 339.600,236.741 339.600 C 237.749 339.600,239.208 337.590,239.827 335.351 C 240.233 333.880,240.970 332.401,241.672 331.650 C 243.620 329.566,244.062 327.929,244.300 321.926 L 244.518 316.424 281.559 316.301 C 320.389 316.172,320.407 316.171,322.302 314.405 C 325.143 311.759,325.167 295.790,322.334 293.406 C 321.677 292.853,320.985 292.400,320.797 292.400 C 320.610 292.400,320.071 291.185,319.600 289.700 C 318.682 286.801,318.229 286.048,316.991 285.362 C 316.556 285.121,316.015 284.369,315.790 283.692 C 315.305 282.239,314.184 280.912,313.169 280.590 C 312.692 280.439,312.139 279.396,311.557 277.551 C 310.877 275.397,310.359 274.504,309.335 273.723 C 308.601 273.163,308.000 272.445,308.000 272.127 C 308.000 271.145,306.143 267.442,305.246 266.636 C 304.779 266.217,304.207 265.137,303.975 264.236 C 303.366 261.873,302.441 259.948,301.352 258.779 C 300.744 258.126,300.252 256.902,299.984 255.379 C 299.402 252.072,298.860 250.760,297.595 249.600 C 296.565 248.657,296.478 248.295,296.051 243.225 C 295.547 237.223,294.717 233.682,293.331 231.607 L 292.400 230.214 292.393 190.607 C 292.385 144.567,292.347 143.910,289.458 139.917 C 288.978 139.254,288.476 137.487,288.161 135.356 C 287.537 131.134,287.046 129.867,285.774 129.186 C 284.816 128.673,284.007 126.728,284.002 124.926 C 283.999 123.618,283.410 122.331,282.244 121.079 C 281.670 120.463,281.200 119.824,281.200 119.659 C 281.200 119.495,280.983 119.143,280.718 118.878 C 280.453 118.613,279.953 117.452,279.606 116.298 C 279.114 114.660,278.652 113.990,277.499 113.240 C 276.614 112.665,275.850 111.757,275.591 110.972 C 275.353 110.252,274.559 109.206,273.827 108.647 C 273.094 108.089,271.991 106.772,271.375 105.722 C 269.657 102.790,263.604 97.048,261.598 96.447 C 260.345 96.071,259.843 95.668,259.538 94.795 C 259.264 94.010,258.561 93.362,257.339 92.771 C 256.332 92.283,255.387 91.492,255.189 90.971 C 254.744 89.801,253.502 88.997,251.200 88.391 C 250.135 88.110,248.723 87.292,247.742 86.388 C 246.033 84.814,243.982 84.006,241.684 84.002 C 240.665 84.001,240.033 83.639,238.884 82.404 C 237.304 80.704,235.105 80.000,231.374 80.000 C 228.461 80.000,228.400 79.817,228.398 71.071 C 228.395 61.077,228.099 59.289,226.063 56.977 C 225.198 55.994,223.980 54.181,223.355 52.947 C 222.237 50.737,220.605 49.137,218.961 48.639 C 218.500 48.499,217.260 47.593,216.207 46.626 C 215.026 45.542,213.644 44.705,212.606 44.443 C 210.368 43.880,196.462 43.577,191.299 43.979 M201.465 72.700 C 201.841 73.305,202.517 74.103,202.968 74.473 C 204.184 75.470,203.661 75.645,199.845 75.516 L 196.390 75.400 198.077 73.500 C 200.027 71.305,200.525 71.187,201.465 72.700 M24.074 72.396 C 22.202 72.839,20.969 74.154,20.388 76.328 C 20.113 77.358,19.668 78.381,19.400 78.603 C 18.608 79.258,16.523 82.905,16.231 84.148 C 16.082 84.779,15.429 85.958,14.779 86.767 C 13.595 88.239,12.000 92.121,12.000 93.528 C 12.000 93.939,11.668 94.576,11.263 94.943 C 9.922 96.157,8.416 99.717,8.145 102.314 C 7.924 104.439,7.714 104.949,6.794 105.604 C 5.149 106.776,4.000 110.617,4.000 114.944 C 4.000 116.814,3.867 117.148,2.815 117.925 C 0.091 119.940,0.219 117.305,0.082 174.000 C -0.059 232.313,-0.036 232.769,3.167 234.703 C 3.854 235.118,4.002 235.610,4.010 237.503 C 4.028 241.725,5.375 245.930,6.986 246.792 C 7.738 247.195,7.933 247.722,8.136 249.898 C 8.385 252.559,9.346 254.907,10.984 256.854 C 11.480 257.443,12.006 258.679,12.154 259.600 C 12.465 261.546,13.704 264.172,14.985 265.600 C 15.479 266.150,16.111 267.452,16.391 268.492 C 16.671 269.533,17.147 270.590,17.450 270.841 C 17.752 271.092,18.000 271.506,18.000 271.761 C 18.000 272.015,18.368 272.488,18.817 272.812 C 19.267 273.135,19.919 274.390,20.266 275.600 C 21.265 279.079,22.414 279.816,27.502 280.240 C 32.521 280.658,36.859 279.475,38.705 277.185 C 39.203 276.567,40.169 275.939,40.852 275.789 C 46.277 274.597,49.812 262.864,45.188 261.396 C 44.782 261.267,44.234 260.495,43.970 259.681 C 43.232 257.401,41.777 254.682,40.843 253.838 C 40.379 253.419,39.998 252.699,39.996 252.238 C 39.991 251.125,38.233 247.392,37.054 245.991 C 36.481 245.311,36.008 244.084,35.846 242.860 C 35.487 240.155,34.644 238.252,33.460 237.476 C 32.658 236.951,32.435 236.384,32.214 234.318 C 31.848 230.878,30.525 226.956,29.444 226.105 C 28.660 225.487,28.496 224.807,28.116 220.600 C 27.682 215.791,27.122 213.914,25.368 211.395 C 24.607 210.301,24.498 209.268,24.078 199.200 C 23.629 188.427,22.702 179.376,21.969 178.620 C 21.495 178.131,21.487 174.279,21.959 173.780 C 22.681 173.018,23.646 163.538,24.091 152.851 L 24.547 141.902 25.676 140.251 C 27.189 138.039,27.898 135.383,28.223 130.716 C 28.460 127.297,28.600 126.761,29.387 126.246 C 30.458 125.543,31.845 121.357,32.223 117.682 C 32.438 115.596,32.653 115.052,33.478 114.512 C 34.636 113.753,35.095 112.740,35.847 109.287 C 36.150 107.890,36.769 106.380,37.240 105.887 C 38.182 104.901,39.346 102.430,39.984 100.061 C 40.214 99.206,40.846 98.063,41.389 97.520 C 41.932 96.977,42.766 95.468,43.242 94.166 C 43.717 92.865,44.599 91.350,45.201 90.800 C 46.610 89.511,47.600 87.554,47.600 86.055 C 47.600 82.691,43.899 77.161,41.232 76.541 C 40.665 76.409,39.562 75.622,38.783 74.791 C 36.467 72.322,29.309 71.157,24.074 72.396 M365.588 72.543 C 363.516 73.102,362.373 73.818,361.227 75.275 C 360.786 75.836,359.920 76.396,359.303 76.519 C 353.785 77.623,350.402 88.540,354.928 90.635 C 355.400 90.854,356.102 92.057,356.679 93.634 C 357.208 95.082,358.181 96.858,358.840 97.579 C 359.499 98.301,360.148 99.456,360.283 100.146 C 360.662 102.088,361.800 104.493,362.889 105.655 C 363.543 106.353,364.040 107.571,364.357 109.255 C 364.935 112.326,365.836 114.177,367.077 114.841 C 367.828 115.243,368.000 115.666,368.000 117.110 C 368.000 120.320,369.231 124.405,370.616 125.790 C 371.831 127.004,371.877 127.180,372.128 131.571 C 372.396 136.253,373.376 139.418,375.173 141.399 C 375.813 142.105,375.928 143.272,376.139 151.200 C 376.424 161.912,377.024 169.434,377.820 172.262 C 378.559 174.890,378.559 177.774,377.818 180.029 C 377.035 182.413,376.428 189.915,376.139 200.800 C 375.934 208.490,375.799 209.916,375.214 210.600 C 373.276 212.864,372.007 217.498,372.002 222.327 C 372.000 224.676,371.905 224.943,370.653 226.127 C 369.188 227.512,368.513 229.688,368.106 234.335 C 367.919 236.481,367.743 236.934,366.962 237.290 C 365.767 237.834,364.978 239.540,364.354 242.927 C 364.016 244.760,363.620 245.775,363.142 246.031 C 362.333 246.464,361.551 248.025,360.553 251.200 C 360.173 252.410,359.308 254.058,358.631 254.863 C 357.954 255.668,357.056 257.420,356.635 258.757 C 356.129 260.366,355.612 261.269,355.107 261.429 C 352.778 262.169,352.015 267.172,353.800 270.000 C 354.350 270.871,354.800 271.719,354.800 271.884 C 354.800 272.550,358.478 275.554,359.594 275.799 C 360.251 275.943,361.148 276.565,361.587 277.181 C 365.030 282.017,377.940 281.360,379.640 276.261 C 379.992 275.205,380.954 273.458,381.777 272.379 C 382.600 271.300,383.519 269.602,383.818 268.606 C 384.118 267.610,384.800 266.211,385.334 265.497 C 386.776 263.571,387.548 261.882,388.045 259.564 C 388.298 258.386,389.042 256.766,389.767 255.816 C 391.371 253.715,391.877 252.401,392.202 249.490 C 392.403 247.695,392.664 247.046,393.373 246.581 C 394.747 245.681,395.567 243.437,396.146 239.000 C 396.610 235.441,396.803 234.856,397.898 233.696 C 400.081 231.383,400.065 231.862,399.926 174.400 C 399.787 116.580,399.934 119.938,397.458 117.800 C 396.682 117.129,396.461 116.366,396.092 113.080 C 395.620 108.877,394.466 105.802,393.211 105.403 C 392.643 105.223,392.414 104.602,392.208 102.685 C 391.960 100.375,390.240 96.000,389.580 96.000 C 389.152 96.000,388.000 93.408,388.000 92.443 C 388.000 91.408,386.369 87.600,385.925 87.600 C 385.746 87.600,385.600 87.420,385.600 87.200 C 385.600 86.980,385.259 86.459,384.842 86.042 C 384.426 85.626,383.962 84.556,383.811 83.665 C 383.661 82.775,383.282 81.834,382.969 81.574 C 382.656 81.314,382.400 80.953,382.400 80.772 C 382.400 80.590,381.949 79.955,381.398 79.360 C 380.847 78.765,380.184 77.541,379.925 76.639 C 379.177 74.032,378.224 72.951,376.231 72.450 C 373.913 71.866,367.902 71.919,365.588 72.543 M60.301 92.372 C 58.448 92.745,57.293 93.755,56.523 95.676 C 56.198 96.488,55.501 97.435,54.974 97.780 C 53.819 98.537,53.080 99.933,52.431 102.587 C 52.086 103.994,51.506 104.986,50.442 105.987 C 49.141 107.211,48.867 107.793,48.398 110.337 C 47.992 112.542,47.640 113.417,46.986 113.846 C 45.468 114.840,44.010 119.113,43.997 122.600 C 43.991 124.418,43.870 124.677,42.678 125.450 C 40.992 126.541,40.427 128.299,40.123 133.400 C 39.922 136.764,39.739 137.574,38.973 138.494 C 36.040 142.016,35.319 152.654,35.780 185.591 C 36.072 206.471,36.211 207.852,38.404 211.606 C 39.835 214.057,40.001 214.622,40.014 217.070 C 40.039 221.767,40.972 224.700,43.048 226.600 C 43.726 227.221,43.964 227.989,44.109 230.031 C 44.314 232.904,45.140 235.042,46.876 237.191 C 47.494 237.956,48.000 238.964,48.000 239.431 C 48.000 239.898,48.165 240.802,48.367 241.440 C 48.569 242.078,48.840 243.088,48.971 243.684 C 49.101 244.281,49.802 245.361,50.528 246.084 C 51.412 246.964,52.101 248.251,52.609 249.972 C 53.121 251.701,53.809 252.982,54.710 253.883 C 55.447 254.620,56.243 255.803,56.480 256.511 C 57.949 260.914,68.450 261.409,70.940 257.194 C 71.328 256.537,71.950 255.998,72.323 255.996 C 74.298 255.986,78.800 252.777,78.800 251.379 C 78.800 251.061,78.957 250.800,79.148 250.800 C 79.932 250.800,80.513 247.116,80.285 243.595 C 80.069 240.269,78.748 236.000,77.935 236.000 C 77.443 236.000,76.101 233.422,75.847 231.987 C 75.709 231.210,75.089 230.019,74.469 229.340 C 73.086 227.826,72.000 225.610,72.000 224.302 C 72.000 222.619,70.422 218.649,69.417 217.807 C 68.586 217.109,68.399 216.454,68.038 212.972 C 67.567 208.441,66.875 206.403,65.501 205.503 C 64.587 204.904,64.553 204.659,64.094 195.545 C 63.656 186.856,62.765 179.557,62.025 178.605 C 61.365 177.755,61.196 174.379,61.769 173.479 C 62.732 171.966,63.607 165.345,64.080 156.000 C 64.515 147.398,64.577 146.957,65.475 146.038 C 66.603 144.883,67.853 140.800,68.203 137.125 C 68.394 135.127,68.685 134.217,69.354 133.525 C 70.596 132.243,71.856 129.034,72.179 126.328 C 72.411 124.383,72.640 123.912,73.766 123.053 C 75.046 122.077,75.518 120.966,76.222 117.274 C 76.375 116.471,76.815 115.790,77.337 115.547 C 78.787 114.872,79.637 113.301,80.075 110.488 C 81.216 103.158,78.326 97.539,72.752 96.253 C 72.175 96.120,71.232 95.393,70.656 94.638 C 69.151 92.665,64.216 91.586,60.301 92.372 M333.878 92.437 C 331.397 92.800,329.403 93.930,329.000 95.201 C 328.847 95.683,328.145 96.146,327.170 96.408 C 322.547 97.653,320.305 100.741,320.069 106.191 C 319.824 111.838,320.844 114.881,323.249 115.683 C 323.474 115.758,323.912 117.148,324.221 118.773 C 324.775 121.680,325.323 122.595,327.066 123.528 C 327.711 123.874,327.932 124.508,328.124 126.571 C 328.404 129.564,329.710 132.914,330.991 133.921 C 331.709 134.486,331.913 135.163,332.100 137.607 C 332.440 142.021,333.112 144.203,334.648 145.880 L 336.000 147.356 336.000 151.903 C 336.000 158.856,336.746 167.844,337.617 171.376 C 338.586 175.308,338.587 175.922,337.634 179.625 C 336.798 182.869,336.003 192.316,335.995 199.108 C 335.988 204.063,335.792 205.085,334.784 205.405 C 333.407 205.842,332.391 208.803,332.126 213.149 C 331.904 216.788,331.789 217.247,330.954 217.793 C 329.568 218.702,328.000 222.652,328.000 225.237 C 328.000 225.675,327.255 227.043,326.344 228.275 C 325.434 229.508,324.523 231.255,324.320 232.158 C 324.117 233.061,323.632 234.160,323.242 234.600 C 318.862 239.541,318.684 249.065,322.896 253.077 C 324.258 254.376,327.031 256.000,327.885 256.000 C 328.158 256.000,328.674 256.447,329.032 256.993 C 331.799 261.216,341.340 261.098,343.500 256.815 C 343.995 255.833,344.829 254.663,345.352 254.215 C 346.200 253.489,346.647 252.542,348.404 247.738 C 348.658 247.044,349.168 246.397,349.537 246.301 C 350.235 246.118,352.011 241.696,352.004 240.159 C 352.002 239.697,352.439 238.707,352.976 237.959 C 354.559 235.755,355.636 233.163,356.034 230.600 C 356.613 226.874,356.771 226.400,357.430 226.400 C 358.786 226.400,360.373 220.455,360.392 215.301 C 360.399 213.553,360.631 212.881,361.780 211.281 C 364.107 208.042,364.098 208.148,364.289 179.335 C 364.510 145.886,364.112 140.983,360.961 138.368 C 360.618 138.083,360.400 137.134,360.400 135.928 C 360.400 130.816,359.202 126.544,357.446 125.393 C 356.681 124.892,356.459 124.298,356.241 122.169 C 355.905 118.888,354.614 115.263,353.380 114.133 C 352.763 113.569,352.216 112.331,351.811 110.586 C 351.107 107.548,350.155 105.703,349.122 105.375 C 348.709 105.244,348.238 104.458,347.985 103.476 C 347.097 100.044,346.277 98.373,345.156 97.710 C 344.536 97.344,343.928 96.581,343.803 96.015 C 343.373 94.054,341.965 92.830,339.645 92.400 C 337.254 91.956,337.163 91.957,333.878 92.437 M201.969 101.755 C 203.035 102.692,207.877 103.531,215.000 104.015 C 220.092 104.361,222.041 104.643,222.760 105.139 C 225.366 106.933,226.931 107.606,229.432 108.005 C 231.819 108.386,232.339 108.633,233.580 109.971 C 234.457 110.915,235.536 111.612,236.400 111.792 C 237.170 111.952,238.340 112.592,239.000 113.214 C 239.660 113.836,241.155 114.821,242.322 115.404 C 243.598 116.042,244.589 116.844,244.807 117.417 C 245.006 117.941,245.903 118.834,246.800 119.400 C 247.697 119.966,248.601 120.877,248.809 121.425 C 249.017 121.972,249.777 122.767,250.497 123.192 C 251.443 123.751,252.124 124.694,252.951 126.591 C 253.580 128.035,254.531 129.559,255.064 129.979 C 255.598 130.399,256.258 131.520,256.532 132.471 C 256.892 133.724,257.424 134.457,258.460 135.131 C 259.799 136.004,259.906 136.229,260.134 138.671 C 260.399 141.511,261.846 145.133,263.167 146.264 C 263.882 146.877,264.001 147.433,264.004 150.189 C 264.014 158.240,265.320 167.085,266.812 169.204 C 267.472 170.144,267.531 172.824,267.720 210.604 C 267.853 237.383,268.067 251.674,268.355 253.000 C 268.594 254.100,268.883 255.398,268.998 255.884 C 269.113 256.371,269.811 257.361,270.548 258.084 C 271.730 259.244,271.912 259.708,272.090 262.005 C 272.302 264.726,273.702 268.044,275.218 269.416 C 275.648 269.806,276.000 270.459,276.000 270.868 C 276.000 272.854,277.439 276.612,278.671 277.844 C 279.386 278.559,280.093 279.652,280.241 280.272 C 280.610 281.807,281.508 283.524,282.818 285.200 C 283.420 285.970,284.135 287.320,284.406 288.200 C 284.677 289.080,285.268 290.205,285.719 290.700 L 286.539 291.600 199.995 291.600 L 113.450 291.600 114.518 290.486 C 115.105 289.873,115.702 288.748,115.845 287.986 C 115.987 287.223,116.594 286.060,117.193 285.400 C 118.370 284.104,120.000 280.929,120.000 279.933 C 120.000 279.595,120.534 278.759,121.188 278.076 C 122.619 276.579,123.419 274.761,123.977 271.740 C 124.279 270.106,124.848 268.893,126.032 267.358 C 127.477 265.485,127.715 264.869,128.052 262.118 C 128.565 257.942,128.707 257.350,129.354 256.703 C 132.282 253.775,132.374 252.322,132.388 208.475 L 132.400 169.950 133.393 167.875 C 134.793 164.950,135.534 160.827,136.028 153.200 C 136.381 147.764,136.590 146.424,137.218 145.600 C 138.581 143.810,139.663 141.055,140.084 138.300 C 140.311 136.815,140.647 135.600,140.830 135.600 C 141.518 135.600,143.143 133.584,143.620 132.140 C 143.892 131.316,144.551 130.182,145.085 129.621 C 145.619 129.059,146.584 127.569,147.229 126.310 C 147.981 124.841,148.837 123.795,149.616 123.392 C 150.284 123.046,151.108 122.180,151.449 121.467 C 151.789 120.754,152.727 119.817,153.533 119.385 C 154.382 118.931,155.241 118.052,155.572 117.300 C 155.887 116.585,156.340 116.000,156.578 116.000 C 157.285 116.000,160.249 114.283,161.535 113.129 C 162.192 112.539,163.389 111.875,164.197 111.652 C 165.579 111.270,167.600 109.581,167.600 108.808 C 167.600 108.615,168.635 108.334,169.900 108.183 C 172.455 107.877,175.797 106.603,176.876 105.524 C 177.814 104.586,178.380 104.487,185.600 104.000 C 192.203 103.555,197.431 102.626,198.317 101.740 C 199.020 101.038,201.162 101.046,201.969 101.755 M216.400 317.350 C 216.400 319.330,215.893 320.722,214.996 321.202 C 214.490 321.473,213.743 322.316,213.337 323.074 C 212.932 323.832,212.052 324.713,211.382 325.033 C 210.713 325.352,209.865 326.121,209.498 326.742 C 207.646 329.877,193.700 329.660,190.363 326.444 C 184.929 321.210,184.273 320.397,183.993 318.551 C 183.638 316.211,182.211 316.400,200.267 316.400 L 216.400 316.400 216.400 317.350 " stroke="none" fill="#040404" fill-rule="evenodd"></path><path id="path1" d="" stroke="none" fill="#080404" fill-rule="evenodd"></path><path id="path2" d="" stroke="none" fill="#080404" fill-rule="evenodd"></path><path id="path3" d="" stroke="none" fill="#080404" fill-rule="evenodd"></path><path id="path4" d="" stroke="none" fill="#080404" fill-rule="evenodd"></path></g></svg>