<svg id="svg" version="1.1" xmlns="http://www.w3.org/2000/svg" xmlns:xlink="http://www.w3.org/1999/xlink" width="400" height="400" viewBox="0, 0, 400,400"><g id="svgg"><path id="path0" d="M75.600 22.357 C 74.828 22.572,74.520 23.014,74.247 24.298 C 73.901 25.932,73.863 25.963,72.047 26.080 L 70.200 26.200 70.078 28.100 L 69.956 30.000 68.078 30.019 C 65.601 30.045,63.540 31.083,62.848 32.654 C 62.375 33.727,62.040 33.937,60.528 34.107 C 58.377 34.349,58.385 34.342,58.114 36.367 C 57.908 37.903,57.816 38.000,56.576 38.000 C 54.883 38.000,54.000 38.901,54.000 40.629 C 54.000 41.950,53.944 42.000,52.480 42.000 C 50.569 42.000,50.000 42.564,50.000 44.458 L 50.000 45.956 48.100 46.078 L 46.200 46.200 46.079 48.079 L 45.958 49.958 44.079 50.079 L 42.200 50.200 42.079 52.079 L 41.958 53.958 40.079 54.079 L 38.200 54.200 38.079 56.079 L 37.958 57.958 36.079 58.079 L 34.200 58.200 34.078 60.100 L 33.956 62.000 32.458 62.000 C 30.564 62.000,30.000 62.569,30.000 64.480 C 30.000 65.944,29.950 66.000,28.629 66.000 C 26.703 66.000,26.000 66.864,26.000 69.229 C 26.000 70.599,25.838 71.200,25.470 71.200 C 24.847 71.200,23.200 72.857,23.200 73.483 C 23.200 73.720,22.930 74.018,22.600 74.145 C 22.077 74.345,22.004 76.892,22.032 93.887 C 22.069 116.205,22.130 116.785,24.500 117.371 L 26.000 117.741 26.000 123.242 C 26.000 129.424,26.224 130.000,28.629 130.000 L 30.000 130.000 30.031 133.900 C 30.073 139.321,30.596 140.894,32.511 141.371 L 34.000 141.741 34.000 144.645 C 34.000 148.679,34.388 149.525,36.388 149.844 L 38.000 150.102 38.000 152.825 C 38.000 156.674,38.406 157.528,40.388 157.844 C 41.966 158.097,42.000 158.137,42.010 159.751 C 42.032 163.588,43.080 165.600,45.056 165.600 C 45.862 165.600,45.971 165.823,46.079 167.700 L 46.200 169.800 48.100 169.922 L 50.000 170.044 50.000 173.393 C 50.000 177.235,50.437 178.000,52.629 178.000 C 53.951 178.000,54.000 178.055,54.000 179.525 C 54.000 181.714,55.404 184.395,56.832 184.935 C 57.868 185.326,58.000 185.566,58.000 187.059 C 58.000 189.113,58.786 190.000,60.607 190.000 C 61.933 190.000,61.958 190.033,62.078 191.900 L 62.200 193.800 64.100 193.922 L 66.000 194.044 66.000 196.796 C 66.000 200.674,66.403 201.527,68.388 201.844 C 69.931 202.091,70.000 202.165,70.000 203.571 C 70.000 205.431,70.576 206.000,72.458 206.000 L 73.956 206.000 74.078 207.900 L 74.200 209.800 76.100 209.922 L 78.000 210.044 78.047 212.322 C 78.136 216.592,78.494 217.278,80.900 217.784 C 81.840 217.982,82.000 218.214,82.000 219.379 C 82.000 221.115,82.888 222.000,84.629 222.000 C 85.950 222.000,86.000 222.056,86.000 223.520 C 86.000 225.431,86.564 226.000,88.458 226.000 L 89.956 226.000 90.078 227.900 L 90.200 229.800 92.079 229.921 L 93.958 230.042 94.079 231.917 C 94.176 233.427,94.356 233.821,95.000 233.935 C 96.145 234.139,97.997 236.003,98.019 236.975 C 98.057 238.601,99.379 240.584,100.903 241.301 C 102.186 241.906,102.400 242.194,102.400 243.323 C 102.400 244.989,103.012 245.600,104.680 245.600 C 105.812 245.600,106.000 245.739,106.000 246.574 C 106.000 248.617,106.686 249.572,108.341 249.837 C 109.808 250.072,109.920 250.187,110.120 251.677 C 110.382 253.633,110.367 253.618,112.367 253.886 C 113.903 254.092,114.000 254.184,114.000 255.424 C 114.000 257.117,114.901 258.000,116.629 258.000 C 117.924 258.000,118.000 258.076,118.000 259.371 C 118.000 261.114,118.886 262.000,120.629 262.000 C 121.950 262.000,122.000 262.056,122.000 263.520 C 122.000 265.436,122.564 266.000,124.480 266.000 C 125.973 266.000,126.000 266.027,126.000 267.520 C 126.000 269.436,126.564 270.000,128.480 270.000 C 129.973 270.000,130.000 270.027,130.000 271.520 C 130.000 273.436,130.564 274.000,132.480 274.000 C 133.973 274.000,134.000 274.027,134.000 275.520 C 134.000 277.436,134.564 278.000,136.480 278.000 C 137.944 278.000,138.000 278.050,138.000 279.371 C 138.000 281.114,138.886 282.000,140.629 282.000 C 141.924 282.000,142.000 282.076,142.000 283.371 C 142.000 285.099,142.883 286.000,144.576 286.000 C 145.816 286.000,145.908 286.097,146.114 287.633 C 146.382 289.633,146.367 289.618,148.323 289.880 C 149.813 290.080,149.928 290.192,150.163 291.659 C 150.428 293.314,151.383 294.000,153.426 294.000 C 154.261 294.000,154.400 294.188,154.400 295.320 C 154.400 296.988,155.011 297.600,156.677 297.600 C 157.806 297.600,158.094 297.814,158.699 299.097 C 159.416 300.621,161.399 301.943,163.025 301.981 C 163.997 302.003,165.861 303.855,166.065 305.000 C 166.179 305.644,166.573 305.824,168.083 305.921 L 169.958 306.042 170.079 307.921 L 170.200 309.800 172.100 309.922 L 174.000 310.044 174.000 311.542 C 174.000 313.436,174.569 314.000,176.480 314.000 C 177.944 314.000,178.000 314.050,178.000 315.371 C 178.000 317.112,178.885 318.000,180.621 318.000 C 181.786 318.000,182.018 318.160,182.216 319.100 C 182.722 321.506,183.408 321.864,187.678 321.953 L 189.956 322.000 190.078 323.900 L 190.200 325.800 192.100 325.922 L 194.000 326.044 194.000 327.542 C 194.000 329.424,194.569 330.000,196.429 330.000 C 197.835 330.000,197.909 330.069,198.156 331.612 C 198.473 333.597,199.326 334.000,203.204 334.000 L 205.956 334.000 206.078 335.900 L 206.200 337.800 208.100 337.922 C 209.967 338.042,210.000 338.067,210.000 339.393 C 210.000 341.214,210.887 342.000,212.941 342.000 C 214.434 342.000,214.674 342.132,215.065 343.168 C 215.605 344.596,218.286 346.000,220.475 346.000 C 221.945 346.000,222.000 346.049,222.000 347.371 C 222.000 349.563,222.765 350.000,226.607 350.000 L 229.956 350.000 230.078 351.900 L 230.200 353.800 232.300 353.921 C 234.177 354.029,234.400 354.138,234.400 354.944 C 234.400 356.920,236.412 357.968,240.249 357.990 C 241.863 358.000,241.903 358.034,242.156 359.612 C 242.472 361.594,243.326 362.000,247.175 362.000 L 249.898 362.000 250.156 363.612 C 250.475 365.612,251.321 366.000,255.355 366.000 L 258.259 366.000 258.629 367.489 C 259.106 369.404,260.679 369.927,266.100 369.969 L 270.000 370.000 270.000 371.371 C 270.000 373.776,270.576 374.000,276.758 374.000 L 282.259 374.000 282.629 375.500 C 283.232 377.939,283.968 378.013,306.395 377.899 C 325.435 377.802,325.792 377.785,325.933 377.000 C 326.268 375.146,327.992 374.000,330.446 374.000 C 333.157 374.000,334.000 373.377,334.000 371.371 C 334.000 370.050,334.056 370.000,335.520 370.000 C 337.431 370.000,338.000 369.436,338.000 367.542 L 338.000 366.044 339.900 365.922 L 341.800 365.800 341.921 363.921 L 342.042 362.042 343.921 361.921 L 345.800 361.800 345.921 359.921 L 346.042 358.042 347.921 357.921 L 349.800 357.800 349.921 355.921 L 350.042 354.042 351.921 353.921 L 353.800 353.800 353.922 351.900 L 354.044 350.000 355.542 350.000 C 357.436 350.000,358.000 349.431,358.000 347.520 C 358.000 346.056,358.050 346.000,359.371 346.000 C 361.099 346.000,362.000 345.117,362.000 343.423 C 362.000 342.190,362.107 342.085,363.612 341.844 C 365.344 341.568,366.000 340.638,366.000 338.462 C 366.000 337.629,366.272 337.273,367.168 336.935 C 368.591 336.397,370.000 333.717,370.000 331.547 L 370.000 330.044 371.900 329.922 L 373.800 329.800 373.921 327.919 C 374.041 326.058,374.059 326.035,375.719 325.707 C 377.858 325.284,377.892 325.133,377.953 315.622 L 378.000 308.244 379.075 307.122 L 380.150 306.000 379.075 304.878 C 378.028 303.785,377.999 303.623,377.953 298.578 C 377.885 291.207,377.738 290.768,375.153 290.230 C 374.281 290.048,374.070 289.739,373.887 288.373 C 373.603 286.256,373.615 286.264,370.617 286.073 C 367.906 285.901,366.259 284.820,365.935 283.000 C 365.820 282.354,365.427 282.176,363.896 282.078 C 362.033 281.958,362.000 281.932,362.000 280.607 C 362.000 278.624,361.150 278.000,358.446 278.000 C 355.991 278.000,354.265 276.852,353.935 275.000 C 353.820 274.354,353.427 274.176,351.896 274.078 C 350.033 273.958,350.000 273.932,350.000 272.607 C 350.000 270.624,349.150 270.000,346.446 270.000 C 343.991 270.000,342.265 268.852,341.935 267.000 C 341.821 266.358,341.427 266.176,339.946 266.080 C 338.118 265.961,338.098 265.945,337.884 264.347 C 337.595 262.193,337.645 262.220,333.587 262.061 L 330.041 261.922 329.920 260.061 L 329.800 258.200 327.950 258.080 C 326.117 257.961,326.098 257.946,325.884 256.347 C 325.595 254.193,325.645 254.220,321.587 254.061 L 318.041 253.922 317.920 252.061 L 317.800 250.200 315.950 250.080 C 314.117 249.961,314.098 249.946,313.884 248.347 C 313.595 246.193,313.645 246.220,309.587 246.061 L 306.041 245.922 305.920 244.061 L 305.800 242.200 303.900 242.078 C 302.091 241.962,302.000 241.900,302.000 240.778 C 302.000 237.960,302.225 237.995,284.500 238.040 C 266.285 238.086,266.728 238.032,266.255 240.262 L 265.910 241.888 262.707 242.135 C 259.082 242.415,258.497 242.734,258.323 244.530 C 258.205 245.743,258.114 245.805,256.279 245.923 C 255.063 246.000,254.276 246.258,254.136 246.623 C 254.014 246.940,253.695 247.200,253.427 247.200 C 252.817 247.200,251.200 248.888,251.200 249.526 C 251.200 249.832,250.448 250.000,249.080 250.000 C 246.561 250.000,246.000 250.452,246.000 252.480 L 246.000 254.000 242.629 254.000 C 239.002 254.000,238.045 254.436,237.953 256.129 C 237.918 256.768,237.837 256.682,237.649 255.803 C 237.376 254.526,236.489 254.144,233.575 254.047 C 232.028 253.996,230.196 252.462,229.935 251.000 C 229.820 250.354,229.427 250.176,227.896 250.078 L 226.000 249.956 226.000 248.458 C 226.000 246.564,225.431 246.000,223.520 246.000 C 222.027 246.000,222.000 245.973,222.000 244.480 C 222.000 242.577,221.436 242.000,219.573 242.000 C 218.158 242.000,218.097 241.941,217.886 240.367 C 217.617 238.362,217.638 238.383,215.627 238.113 C 214.261 237.930,213.952 237.719,213.770 236.847 C 213.397 235.054,212.972 234.620,211.259 234.281 C 209.856 234.004,209.600 233.802,209.600 232.976 C 209.600 231.756,208.290 230.402,207.100 230.394 C 205.928 230.386,205.492 230.045,204.883 228.662 C 204.603 228.025,203.858 227.326,203.191 227.074 C 202.536 226.827,202.000 226.484,202.000 226.312 C 202.000 226.141,201.730 226.000,201.400 226.000 C 201.070 226.000,200.800 225.761,200.800 225.470 C 200.800 224.826,199.134 223.200,198.474 223.200 C 198.213 223.200,198.000 222.930,198.000 222.600 C 198.000 222.270,197.730 222.000,197.400 222.000 C 197.070 222.000,196.800 221.761,196.800 221.470 C 196.800 220.847,195.143 219.200,194.517 219.200 C 194.280 219.200,193.982 218.930,193.855 218.600 C 193.698 218.190,193.057 218.000,191.834 218.000 L 190.044 218.000 189.922 216.100 L 189.800 214.200 187.921 214.079 L 186.042 213.958 185.921 212.079 L 185.800 210.200 183.921 210.079 L 182.042 209.958 181.921 208.083 C 181.824 206.573,181.644 206.179,181.000 206.065 C 179.794 205.850,178.000 203.973,178.000 202.925 C 178.000 202.369,177.760 202.000,177.400 202.000 C 177.070 202.000,176.800 201.761,176.800 201.470 C 176.800 200.826,175.134 199.200,174.474 199.200 C 174.213 199.200,174.000 198.930,174.000 198.600 C 174.000 198.270,173.859 198.000,173.688 198.000 C 173.516 198.000,173.167 197.449,172.913 196.775 C 172.620 195.999,172.002 195.380,171.228 195.088 C 170.360 194.761,169.873 194.216,169.550 193.213 C 168.943 191.326,168.557 190.898,167.190 190.598 C 166.226 190.386,165.983 190.076,165.713 188.713 C 165.380 187.027,164.942 186.602,163.153 186.230 C 162.281 186.048,162.070 185.739,161.887 184.373 C 161.617 182.362,161.638 182.383,159.633 182.114 C 158.059 181.903,158.000 181.842,158.000 180.427 C 158.000 178.564,157.423 178.000,155.520 178.000 C 154.027 178.000,154.000 177.973,154.000 176.480 C 154.000 174.569,153.436 174.000,151.542 174.000 L 150.044 174.000 149.922 172.100 L 149.800 170.200 147.900 170.078 L 146.000 169.956 145.953 167.478 C 145.877 163.520,145.578 162.646,144.197 162.351 C 143.318 162.163,143.232 162.082,143.871 162.047 C 145.564 161.955,146.000 160.998,146.000 157.371 L 146.000 154.000 147.520 154.000 C 149.548 154.000,150.000 153.439,150.000 150.920 C 150.000 149.426,150.157 148.800,150.530 148.800 C 151.153 148.800,152.800 147.143,152.800 146.517 C 152.800 146.280,153.070 145.982,153.400 145.855 C 153.823 145.693,154.000 145.032,154.000 143.613 C 154.000 141.685,154.047 141.600,155.100 141.594 C 157.180 141.582,157.938 140.038,157.983 135.724 C 158.000 134.075,158.028 134.042,159.698 133.711 C 161.793 133.297,161.887 132.972,161.953 125.900 C 161.989 121.955,162.120 120.800,162.530 120.800 C 165.254 120.800,165.486 114.982,162.855 112.638 C 162.052 111.922,162.000 111.504,162.000 105.738 C 162.000 98.893,161.679 98.000,159.222 98.000 C 158.100 98.000,158.038 97.909,157.922 96.100 L 157.800 94.200 155.939 94.080 L 154.078 93.959 153.939 90.413 C 153.780 86.355,153.807 86.405,151.653 86.116 C 150.055 85.902,150.039 85.882,149.920 84.054 C 149.824 82.573,149.642 82.179,149.000 82.065 C 147.148 81.735,146.000 80.009,146.000 77.554 C 146.000 74.843,145.377 74.000,143.371 74.000 C 142.011 74.000,142.000 73.985,142.000 72.187 C 142.000 70.945,141.811 70.302,141.400 70.145 C 141.070 70.018,140.800 69.695,140.800 69.427 C 140.800 68.817,139.112 67.200,138.474 67.200 C 138.173 67.200,138.000 66.482,138.000 65.229 C 138.000 62.864,137.297 62.000,135.371 62.000 C 134.049 62.000,134.000 61.945,134.000 60.475 C 134.000 58.286,132.596 55.605,131.168 55.065 C 130.132 54.674,130.000 54.434,130.000 52.941 C 130.000 50.880,129.213 50.000,127.371 50.000 C 126.011 50.000,126.000 49.985,126.000 48.187 C 126.000 46.945,125.811 46.302,125.400 46.145 C 125.070 46.018,124.800 45.695,124.800 45.427 C 124.800 44.817,123.112 43.200,122.474 43.200 C 122.173 43.200,122.000 42.482,122.000 41.229 C 122.000 38.864,121.297 38.000,119.371 38.000 C 118.011 38.000,118.000 37.985,118.000 36.187 C 118.000 34.945,117.811 34.302,117.400 34.145 C 117.070 34.018,116.800 33.695,116.800 33.427 C 116.800 32.841,115.123 31.200,114.524 31.200 C 114.290 31.200,114.017 30.210,113.917 29.000 C 113.700 26.383,113.706 26.392,111.647 26.116 C 110.121 25.911,110.008 25.803,109.701 24.251 C 109.425 22.855,109.194 22.565,108.188 22.349 C 106.569 22.002,76.851 22.010,75.600 22.357 M94.114 47.633 C 94.382 49.635,94.365 49.618,96.347 49.884 C 97.946 50.098,97.961 50.117,98.080 51.950 L 98.200 53.800 100.061 53.920 L 101.922 54.041 102.061 57.587 C 102.220 61.645,102.193 61.595,104.347 61.884 C 105.946 62.098,105.961 62.117,106.080 63.950 L 106.200 65.800 108.061 65.920 L 109.922 66.041 110.061 69.587 C 110.220 73.645,110.193 73.595,112.347 73.884 C 113.946 74.098,113.961 74.117,114.080 75.950 L 114.200 77.800 116.100 77.922 L 118.000 78.044 118.000 81.393 C 118.000 85.227,118.438 86.000,120.607 86.000 C 121.932 86.000,121.958 86.033,122.078 87.896 C 122.176 89.427,122.354 89.820,123.000 89.935 C 124.852 90.265,126.000 91.991,126.000 94.446 C 126.000 97.157,126.623 98.000,128.629 98.000 C 129.989 98.000,130.000 98.015,130.000 99.813 C 130.000 101.055,130.189 101.698,130.600 101.855 C 130.930 101.982,131.200 102.280,131.200 102.517 C 131.200 103.143,132.847 104.800,133.470 104.800 C 133.838 104.800,134.000 105.401,134.000 106.771 C 134.000 109.136,134.703 110.000,136.629 110.000 L 138.000 110.000 138.000 115.976 L 138.000 121.953 136.302 122.289 C 134.355 122.674,134.129 123.198,134.047 127.500 L 134.000 130.000 132.629 130.000 C 130.434 130.000,130.000 130.763,130.000 134.629 L 130.000 138.000 128.480 138.000 C 126.402 138.000,126.000 138.552,126.000 141.405 C 126.000 144.017,124.900 145.726,123.000 146.065 C 122.339 146.183,122.179 146.573,122.079 148.304 C 121.965 150.282,121.898 150.400,120.879 150.406 C 118.818 150.418,118.062 151.976,118.017 156.300 C 118.001 157.918,117.942 158.000,116.800 158.000 C 114.806 158.000,113.996 159.196,114.024 162.100 C 114.076 167.585,114.891 169.600,117.056 169.600 C 117.862 169.600,117.971 169.823,118.079 171.700 L 118.200 173.800 120.053 173.920 L 121.907 174.040 122.077 176.320 C 122.307 179.394,123.083 180.880,124.700 181.344 C 125.872 181.679,126.000 181.865,126.000 183.229 C 126.000 185.111,126.844 186.000,128.629 186.000 C 129.950 186.000,130.000 186.056,130.000 187.520 C 130.000 189.431,130.564 190.000,132.458 190.000 L 133.956 190.000 134.078 191.900 L 134.200 193.800 136.100 193.922 L 138.000 194.044 138.000 195.834 C 138.000 197.057,138.190 197.698,138.600 197.855 C 138.930 197.982,139.200 198.280,139.200 198.517 C 139.200 199.136,140.844 200.800,141.456 200.800 C 141.773 200.800,142.074 201.568,142.237 202.793 C 142.535 205.041,142.889 205.472,144.600 205.665 C 145.656 205.784,145.852 206.016,146.232 207.594 C 146.634 209.259,146.779 209.410,148.257 209.702 C 149.726 209.993,149.879 210.150,150.225 211.709 C 150.573 213.280,150.720 213.427,152.300 213.777 C 153.872 214.125,154.000 214.251,154.000 215.448 C 154.000 217.118,154.909 218.000,156.629 218.000 C 157.924 218.000,158.000 218.076,158.000 219.371 C 158.000 221.114,158.886 222.000,160.629 222.000 C 161.924 222.000,162.000 222.076,162.000 223.371 C 162.000 225.114,162.886 226.000,164.629 226.000 C 165.950 226.000,166.000 226.056,166.000 227.520 C 166.000 229.436,166.564 230.000,168.480 230.000 C 169.973 230.000,170.000 230.027,170.000 231.520 C 170.000 233.436,170.564 234.000,172.480 234.000 C 173.973 234.000,174.000 234.027,174.000 235.520 C 174.000 237.436,174.564 238.000,176.480 238.000 C 177.944 238.000,178.000 238.050,178.000 239.371 C 178.000 241.099,178.883 242.000,180.576 242.000 C 181.816 242.000,181.908 242.097,182.114 243.633 C 182.383 245.637,182.363 245.617,184.367 245.886 C 185.847 246.085,186.000 246.213,186.000 247.253 C 186.000 248.721,187.277 250.000,188.743 250.000 C 189.765 250.000,189.924 250.180,190.243 251.700 C 190.586 253.334,190.674 253.414,192.500 253.767 C 194.163 254.088,194.400 254.259,194.400 255.136 C 194.400 256.388,195.459 257.598,196.562 257.605 C 197.915 257.614,199.200 258.060,199.200 258.521 C 199.200 259.122,200.840 260.800,201.427 260.800 C 201.695 260.800,202.018 261.070,202.145 261.400 C 202.302 261.810,202.943 262.000,204.166 262.000 L 205.956 262.000 206.078 263.900 L 206.200 265.800 208.100 265.922 L 210.000 266.044 210.000 267.542 C 210.000 269.436,210.569 270.000,212.480 270.000 C 213.944 270.000,214.000 270.050,214.000 271.371 C 214.000 273.156,214.889 274.000,216.771 274.000 C 218.135 274.000,218.321 274.128,218.656 275.300 C 219.120 276.917,220.606 277.693,223.680 277.923 L 225.960 278.093 226.080 279.947 L 226.200 281.800 228.300 281.921 C 230.177 282.029,230.400 282.138,230.400 282.944 C 230.400 285.053,232.419 285.918,237.474 285.976 C 240.608 286.012,241.540 285.519,241.836 283.668 L 242.085 282.110 245.112 281.854 C 248.510 281.567,249.600 280.912,249.600 279.159 C 249.600 278.094,249.697 278.036,251.696 277.921 C 253.427 277.821,253.817 277.661,253.935 277.000 C 254.274 275.100,255.983 274.000,258.595 274.000 C 261.448 274.000,262.000 273.598,262.000 271.520 L 262.000 270.000 265.371 270.000 C 269.237 270.000,270.000 269.566,270.000 267.371 L 270.000 266.000 272.300 265.953 C 276.594 265.864,277.277 265.509,277.784 263.100 L 278.015 262.000 284.008 262.000 L 290.000 262.000 290.000 263.371 C 290.000 265.213,290.880 266.000,292.941 266.000 C 294.434 266.000,294.674 266.132,295.065 267.168 C 295.605 268.596,298.286 270.000,300.475 270.000 C 301.945 270.000,302.000 270.049,302.000 271.371 C 302.000 273.297,302.864 274.000,305.229 274.000 C 306.482 274.000,307.200 274.173,307.200 274.474 C 307.200 275.112,308.817 276.800,309.427 276.800 C 309.695 276.800,310.018 277.070,310.145 277.400 C 310.302 277.811,310.945 278.000,312.187 278.000 C 313.985 278.000,314.000 278.011,314.000 279.371 C 314.000 281.297,314.864 282.000,317.229 282.000 C 318.482 282.000,319.200 282.173,319.200 282.474 C 319.200 283.112,320.817 284.800,321.427 284.800 C 321.695 284.800,322.018 285.070,322.145 285.400 C 322.302 285.811,322.945 286.000,324.187 286.000 C 325.985 286.000,326.000 286.011,326.000 287.371 C 326.000 289.377,326.843 290.000,329.554 290.000 C 332.009 290.000,333.735 291.148,334.065 293.000 C 334.180 293.646,334.573 293.824,336.104 293.922 C 337.967 294.042,338.000 294.068,338.000 295.393 C 338.000 297.376,338.850 298.000,341.554 298.000 C 344.009 298.000,345.735 299.148,346.065 301.000 C 346.180 301.646,346.573 301.824,348.104 301.922 C 349.967 302.042,350.000 302.068,350.000 303.393 C 350.000 305.115,350.892 306.000,352.629 306.000 L 354.000 306.000 354.000 310.000 L 354.000 314.000 352.480 314.000 C 350.577 314.000,350.000 314.564,350.000 316.427 C 350.000 317.842,349.941 317.903,348.367 318.114 C 346.339 318.386,346.350 318.374,346.103 320.559 C 345.926 322.137,345.763 322.389,344.778 322.605 C 343.319 322.925,342.946 323.417,342.343 325.816 C 341.789 328.018,340.338 329.895,339.045 330.079 C 338.343 330.180,338.179 330.518,338.079 332.079 L 337.958 333.958 336.079 334.079 L 334.200 334.200 334.079 336.079 L 333.958 337.958 332.079 338.079 L 330.200 338.200 330.079 340.079 L 329.958 341.958 328.079 342.079 L 326.200 342.200 326.079 344.079 L 325.958 345.958 324.079 346.079 L 322.200 346.200 322.079 348.079 L 321.958 349.958 320.079 350.079 C 318.518 350.179,318.180 350.343,318.079 351.045 C 317.657 354.002,317.181 354.080,299.900 354.029 L 290.000 354.000 290.000 352.629 C 290.000 350.233,289.412 350.000,283.371 350.000 L 278.000 350.000 278.000 348.480 C 278.000 346.266,277.523 346.000,273.555 346.000 L 270.070 346.000 269.800 344.402 C 269.457 342.372,269.351 342.317,265.233 342.035 L 261.800 341.800 261.677 340.530 C 261.503 338.734,260.919 338.415,257.291 338.135 L 254.084 337.888 253.835 336.332 C 253.528 334.407,252.644 334.000,248.774 334.000 L 246.000 334.000 246.000 332.480 C 246.000 330.402,245.448 330.000,242.595 330.000 C 239.983 330.000,238.274 328.899,237.935 327.000 C 237.821 326.358,237.427 326.176,235.946 326.080 C 234.118 325.961,234.098 325.945,233.884 324.347 C 233.595 322.193,233.645 322.220,229.587 322.061 L 226.041 321.922 225.920 320.061 L 225.800 318.200 223.900 318.078 C 222.033 317.958,222.000 317.933,222.000 316.607 C 222.000 314.848,221.103 314.000,219.244 314.000 C 217.936 314.000,217.671 313.834,217.172 312.700 C 216.459 311.081,214.431 310.045,211.922 310.019 L 210.044 310.000 209.922 308.100 L 209.800 306.200 207.900 306.078 C 206.033 305.958,206.000 305.933,206.000 304.607 C 206.000 302.823,205.107 302.000,203.171 302.000 C 201.653 302.000,201.600 301.954,201.600 300.649 C 201.600 298.925,201.112 298.561,198.354 298.227 C 195.975 297.940,194.232 296.667,193.935 295.000 C 193.821 294.356,193.427 294.176,191.917 294.079 L 190.042 293.958 189.921 292.079 L 189.800 290.200 187.900 290.078 L 186.000 289.956 186.000 288.458 C 186.000 286.564,185.431 286.000,183.520 286.000 C 182.056 286.000,182.000 285.950,182.000 284.629 C 182.000 282.901,181.117 282.000,179.424 282.000 C 178.184 282.000,178.092 281.903,177.886 280.367 C 177.618 278.364,177.636 278.382,175.647 278.116 C 174.121 277.911,174.008 277.803,173.701 276.251 C 173.389 274.670,173.298 274.589,171.488 274.258 C 169.860 273.961,169.600 273.782,169.600 272.957 C 169.600 271.707,168.266 270.400,166.990 270.400 C 166.250 270.400,165.876 270.107,165.590 269.300 C 164.922 267.414,164.590 267.063,162.957 266.519 C 161.792 266.131,161.250 265.667,160.911 264.770 C 160.620 263.998,160.001 263.380,159.225 263.087 C 158.551 262.833,158.000 262.484,158.000 262.312 C 158.000 262.141,157.584 262.000,157.075 262.000 C 156.028 262.000,154.150 260.207,153.935 259.000 C 153.855 258.553,153.421 258.147,152.951 258.079 C 151.928 257.933,150.131 256.098,149.935 255.000 C 149.821 254.356,149.427 254.176,147.917 254.079 L 146.042 253.958 145.921 252.083 C 145.824 250.573,145.644 250.179,145.000 250.065 C 143.794 249.850,142.000 247.973,142.000 246.925 C 142.000 246.369,141.760 246.000,141.400 246.000 C 141.070 246.000,140.800 245.787,140.800 245.526 C 140.800 244.866,139.174 243.200,138.530 243.200 C 138.239 243.200,138.000 242.930,138.000 242.600 C 138.000 242.270,137.859 242.000,137.688 242.000 C 137.516 242.000,137.167 241.449,136.913 240.775 C 136.624 240.011,136.003 239.381,135.260 239.100 C 134.465 238.800,133.827 238.112,133.335 237.026 C 132.821 235.888,132.150 235.189,131.100 234.697 C 129.956 234.161,129.600 233.757,129.600 232.997 C 129.600 231.733,128.288 230.400,127.043 230.400 C 126.218 230.400,126.039 230.140,125.742 228.512 C 125.411 226.702,125.330 226.611,123.749 226.299 C 122.197 225.992,122.089 225.879,121.884 224.353 C 121.618 222.364,121.636 222.382,119.633 222.114 C 118.097 221.908,118.000 221.816,118.000 220.576 C 118.000 218.883,117.099 218.000,115.371 218.000 C 114.050 218.000,114.000 217.944,114.000 216.480 C 114.000 214.569,113.436 214.000,111.542 214.000 L 110.044 214.000 109.922 212.100 L 109.800 210.200 107.921 210.079 L 106.042 209.958 105.921 208.083 C 105.824 206.573,105.644 206.179,105.000 206.065 C 103.363 205.773,102.060 204.021,101.773 201.726 C 101.461 199.225,100.816 198.400,99.171 198.400 C 98.075 198.400,98.000 198.299,98.000 196.829 C 98.000 194.893,97.177 194.000,95.393 194.000 C 94.067 194.000,94.042 193.967,93.922 192.100 L 93.800 190.200 91.900 190.078 L 90.000 189.956 89.981 188.078 C 89.955 185.569,88.919 183.541,87.300 182.828 C 86.166 182.329,86.000 182.064,86.000 180.756 C 86.000 178.897,85.152 178.000,83.393 178.000 C 82.067 178.000,82.042 177.967,81.922 176.100 L 81.800 174.200 79.939 174.080 L 78.078 173.959 77.939 170.413 C 77.780 166.355,77.807 166.405,75.653 166.116 C 74.055 165.902,74.039 165.882,73.920 164.054 C 73.824 162.573,73.642 162.179,73.000 162.065 C 71.101 161.726,70.000 160.017,70.000 157.405 C 70.000 154.552,69.598 154.000,67.520 154.000 L 66.000 154.000 66.000 151.226 C 66.000 147.356,65.593 146.472,63.668 146.165 L 62.112 145.916 61.865 142.709 C 61.585 139.081,61.266 138.497,59.470 138.323 L 58.200 138.200 57.965 134.767 C 57.683 130.649,57.628 130.543,55.598 130.200 L 54.000 129.930 54.000 126.445 C 54.000 122.477,53.734 122.000,51.520 122.000 L 50.000 122.000 50.000 116.629 C 50.000 110.588,49.767 110.000,47.371 110.000 L 46.000 110.000 45.946 100.300 C 45.852 83.300,46.009 82.341,48.955 81.921 C 49.657 81.820,49.821 81.482,49.921 79.921 L 50.042 78.042 51.921 77.921 L 53.800 77.800 53.921 75.921 L 54.042 74.042 55.921 73.921 L 57.800 73.800 57.921 71.921 L 58.042 70.042 59.921 69.921 L 61.800 69.800 61.921 67.921 L 62.042 66.042 63.921 65.921 L 65.800 65.800 65.921 63.921 L 66.042 62.042 67.921 61.921 L 69.800 61.800 69.922 59.900 L 70.044 58.000 71.922 57.981 C 74.431 57.955,76.459 56.919,77.172 55.300 C 77.574 54.387,78.013 54.000,78.646 54.000 C 80.636 54.000,81.575 53.300,81.844 51.612 C 82.091 50.069,82.165 50.000,83.571 50.000 C 85.436 50.000,86.000 49.424,86.000 47.520 L 86.000 46.000 89.947 46.000 L 93.895 46.000 94.114 47.633 " stroke="none" fill="#040404" fill-rule="evenodd"></path><path id="path1" d="" stroke="none" fill="#080404" fill-rule="evenodd"></path><path id="path2" d="" stroke="none" fill="#080404" fill-rule="evenodd"></path><path id="path3" d="" stroke="none" fill="#080404" fill-rule="evenodd"></path><path id="path4" d="" stroke="none" fill="#080404" fill-rule="evenodd"></path></g></svg>