<!-- <?xml version="1.0" standalone="no"?>
<!DOCTYPE svg PUBLIC "-//W3C//DTD SVG 20010904//EN"
 "http://www.w3.org/TR/2001/REC-SVG-20010904/DTD/svg10.dtd">
<svg version="1.0" xmlns="http://www.w3.org/2000/svg"
 width="100.000000pt" height="100.000000pt" viewBox="0 0 100.000000 100.000000"
 preserveAspectRatio="xMidYMid meet">
<metadata>
Created by potrace 1.16, written by Peter Selinger 2001-2019
</metadata>
<g transform="translate(0.000000,100.000000) scale(0.100000,-0.100000)"
fill="#000000" stroke="none">
<path d="M262 657 c-78 -78 -142 -149 -142 -157 0 -20 281 -300 301 -300 19 0
79 61 79 80 0 8 -33 47 -72 87 l-72 73 262 0 262 0 0 60 0 60 -262 0 -262 0
72 73 c39 40 72 79 72 88 0 19 -61 79 -81 79 -8 0 -78 -64 -157 -143z m188 88
l24 -26 -82 -82 c-45 -45 -82 -86 -82 -90 0 -4 124 -7 275 -7 l275 0 0 -40 0
-40 -275 0 c-151 0 -275 -3 -275 -7 0 -4 37 -45 82 -90 l83 -83 -28 -27 -27
-28 -137 138 -138 137 135 135 c74 74 137 135 141 135 3 0 16 -11 29 -25z"/>
</g>
</svg> -->

<svg fill="#000000" xmlns="http://www.w3.org/2000/svg" viewBox="0 0 24 24" width="24px" height="24px">
<path d="M262 657 c-78 -78 -142 -149 -142 -157 0 -20 281 -300 301 -300 19 0
79 61 79 80 0 8 -33 47 -72 87 l-72 73 262 0 262 0 0 60 0 60 -262 0 -262 0
72 73 c39 40 72 79 72 88 0 19 -61 79 -81 79 -8 0 -78 -64 -157 -143z m188 88
l24 -26 -82 -82 c-45 -45 -82 -86 -82 -90 0 -4 124 -7 275 -7 l275 0 0 -40 0
-40 -275 0 c-151 0 -275 -3 -275 -7 0 -4 37 -45 82 -90 l83 -83 -28 -27 -27
-28 -137 138 -138 137 135 135 c74 74 137 135 141 135 3 0 16 -11 29 -25z"/></svg>