<?xml version="1.0" standalone="no"?>
<!DOCTYPE svg PUBLIC "-//W3C//DTD SVG 20010904//EN"
 "http://www.w3.org/TR/2001/REC-SVG-20010904/DTD/svg10.dtd">
<svg version="1.0" xmlns="http://www.w3.org/2000/svg"
 width="50.000000pt" height="50.000000pt" viewBox="0 0 100.000000 100.000000"
 preserveAspectRatio="xMidYMid meet">

<g transform="translate(0.000000,100.000000) scale(0.100000,-0.100000)"
fill="#000000" stroke="none">
<path d="M265 650 l-150 -150 153 -152 152 -153 42 43 43 42 -80 80 -80 80
268 0 267 0 0 60 0 60 -267 0 -268 0 80 80 79 80 -39 40 c-21 22 -42 40 -45
40 -3 0 -73 -68 -155 -150z m185 95 l24 -26 -82 -82 c-45 -45 -82 -86 -82 -90
0 -4 124 -7 275 -7 l275 0 0 -40 0 -40 -275 0 c-151 0 -275 -3 -275 -7 0 -4
37 -45 82 -90 l83 -83 -28 -27 -27 -28 -137 138 -138 137 135 135 c74 74 137
135 141 135 3 0 16 -11 29 -25z"/>
<path d="M350 665 c-30 -30 -50 -55 -44 -55 5 0 34 25 64 55 30 30 50 55 44
55 -5 0 -34 -25 -64 -55z"/>
<path d="M240 555 c-20 -24 -6 -28 15 -5 10 11 13 20 8 20 -6 0 -16 -7 -23
-15z"/>
<path d="M195 509 c-11 -17 1 -21 15 -4 8 9 8 15 2 15 -6 0 -14 -5 -17 -11z"/>
<path d="M315 370 c49 -49 94 -90 100 -90 5 0 -31 41 -80 90 -49 50 -94 90
-100 90 -5 0 31 -40 80 -90z"/>
</g>
</svg>
