<svg id="svg" version="1.1" xmlns="http://www.w3.org/2000/svg" xmlns:xlink="http://www.w3.org/1999/xlink" width="400" height="400" viewBox="0, 0, 400,400"><g id="svgg"><path id="path0" d="M161.613 71.040 C 157.738 72.082,156.611 73.159,98.562 131.285 C 45.427 184.491,41.234 188.786,40.087 191.200 C 37.412 196.824,37.474 203.544,40.254 209.256 C 42.154 213.159,154.671 325.916,158.692 327.945 C 164.482 330.868,173.874 330.553,178.760 327.271 C 180.986 325.776,205.286 301.614,206.724 299.465 C 209.768 294.918,210.747 288.872,209.388 283.012 C 208.156 277.699,207.825 277.307,186.461 255.893 C 175.537 244.945,166.546 235.743,166.481 235.445 C 166.258 234.433,168.199 234.411,257.671 234.405 C 319.156 234.402,348.121 234.266,350.271 233.971 C 356.903 233.061,359.613 230.897,361.381 225.101 L 362.426 221.674 362.312 199.337 C 362.199 177.153,362.192 176.981,361.268 174.249 C 359.712 169.654,357.448 167.823,351.400 166.270 C 350.341 165.999,318.830 165.782,258.233 165.630 C 185.467 165.447,166.632 165.297,166.500 164.900 C 166.408 164.624,175.188 155.539,186.010 144.709 C 196.832 133.879,206.171 124.295,206.763 123.409 C 210.740 117.462,211.064 108.621,207.544 102.088 C 206.174 99.545,184.170 77.037,179.869 73.779 C 175.637 70.573,167.753 69.390,161.613 71.040 M171.421 89.383 C 177.886 92.084,191.153 106.988,191.435 111.867 C 191.678 116.057,192.075 115.600,161.602 146.200 C 129.524 178.411,130.483 177.303,132.837 179.433 C 134.171 180.641,136.085 180.664,240.744 180.746 C 337.380 180.822,339.330 180.839,341.511 181.605 C 346.710 183.432,347.338 185.184,347.532 198.400 C 347.760 213.875,346.661 217.246,340.800 219.048 C 340.250 219.217,293.630 219.456,237.200 219.578 C 122.906 219.825,132.319 219.559,132.073 222.548 L 131.946 224.091 160.526 252.745 C 198.132 290.449,196.580 286.989,182.348 301.405 C 172.135 311.751,169.457 313.064,164.068 310.371 C 160.788 308.732,59.439 207.539,57.817 204.283 C 56.437 201.514,56.444 198.690,57.837 195.887 C 59.309 192.925,160.769 91.401,163.800 89.856 C 166.127 88.670,169.251 88.476,171.421 89.383 M207.684 112.000 C 207.684 113.567,207.575 114.958,207.442 115.091 C 207.309 115.224,207.200 113.833,207.200 112.000 C 207.200 110.167,207.309 108.776,207.442 108.909 C 207.575 109.042,207.684 110.433,207.684 112.000 M359.994 178.767 C 360.002 180.051,359.775 179.725,359.458 178.000 C 359.277 177.015,359.318 176.778,359.594 177.200 C 359.811 177.530,359.991 178.235,359.994 178.767 M360.276 182.700 C 360.175 183.085,360.093 182.770,360.093 182.000 C 360.093 181.230,360.175 180.915,360.276 181.300 C 360.376 181.685,360.376 182.315,360.276 182.700 M41.000 200.187 C 41.000 202.049,40.878 203.264,40.728 202.886 C 40.236 201.644,40.407 196.796,40.943 196.801 C 40.974 196.801,41.000 198.325,41.000 200.187 M360.276 219.100 C 360.175 219.485,360.093 219.170,360.093 218.400 C 360.093 217.630,360.175 217.315,360.276 217.700 C 360.376 218.085,360.376 218.715,360.276 219.100 M359.598 223.090 C 359.207 223.703,359.175 223.663,359.367 222.800 C 359.489 222.250,359.619 221.440,359.654 221.000 C 359.697 220.479,359.778 220.579,359.886 221.290 C 359.977 221.889,359.847 222.699,359.598 223.090 M207.684 288.000 C 207.684 289.567,207.575 290.958,207.442 291.091 C 207.309 291.224,207.200 289.833,207.200 288.000 C 207.200 286.167,207.309 284.776,207.442 284.909 C 207.575 285.042,207.684 286.433,207.684 288.000 " stroke="none" fill="#1f2a30" fill-rule="evenodd"></path><path id="path1" d="M163.800 89.856 C 160.769 91.401,59.309 192.925,57.837 195.887 C 56.444 198.690,56.437 201.514,57.817 204.283 C 59.439 207.539,160.788 308.732,164.068 310.371 C 169.457 313.064,172.135 311.751,182.348 301.405 C 190.399 293.249,191.640 291.402,191.435 287.867 C 191.180 283.453,191.376 283.676,160.526 252.745 L 131.946 224.091 132.073 222.548 C 132.319 219.559,122.906 219.825,237.200 219.578 C 293.630 219.456,340.250 219.217,340.800 219.048 C 346.661 217.246,347.760 213.875,347.532 198.400 C 347.338 185.184,346.710 183.432,341.511 181.605 C 339.330 180.839,337.380 180.822,240.744 180.746 C 136.085 180.664,134.171 180.641,132.837 179.433 C 130.483 177.303,129.524 178.411,161.602 146.200 C 192.075 115.600,191.678 116.057,191.435 111.867 C 191.235 108.408,189.751 106.162,183.284 99.532 C 172.771 88.752,169.325 87.041,163.800 89.856 M171.574 93.667 C 177.290 96.381,188.001 109.331,187.439 112.848 C 186.955 115.871,185.996 116.916,157.199 145.800 C 141.406 161.640,128.172 175.223,127.789 175.984 C 126.188 179.165,127.412 182.154,130.777 183.282 C 131.859 183.645,155.225 183.787,228.400 183.874 C 345.714 184.015,338.986 183.943,340.815 185.080 C 343.864 186.976,344.183 188.213,344.332 198.704 C 344.510 211.218,343.922 213.556,340.123 215.444 C 338.644 216.178,335.584 216.206,235.000 216.400 C 119.753 216.622,129.482 216.377,127.690 219.112 C 125.465 222.508,125.499 222.550,157.053 254.129 C 193.664 290.769,191.751 287.044,180.058 298.912 C 169.142 309.991,167.733 310.099,158.015 300.598 C 134.320 277.435,62.939 205.502,61.959 203.800 C 60.556 201.363,60.452 199.068,61.638 196.684 C 62.751 194.445,162.293 94.840,164.600 93.656 C 166.702 92.578,169.288 92.582,171.574 93.667 M207.200 112.000 C 207.200 113.833,207.309 115.224,207.442 115.091 C 207.575 114.958,207.684 113.567,207.684 112.000 C 207.684 110.433,207.575 109.042,207.442 108.909 C 207.309 108.776,207.200 110.167,207.200 112.000 M359.458 178.000 C 359.775 179.725,360.002 180.051,359.994 178.767 C 359.991 178.235,359.811 177.530,359.594 177.200 C 359.318 176.778,359.277 177.015,359.458 178.000 M360.093 182.000 C 360.093 182.770,360.175 183.085,360.276 182.700 C 360.376 182.315,360.376 181.685,360.276 181.300 C 360.175 180.915,360.093 181.230,360.093 182.000 M40.643 197.433 C 40.323 198.265,40.382 202.012,40.728 202.886 C 40.878 203.264,41.000 202.049,41.000 200.187 C 41.000 196.510,40.999 196.504,40.643 197.433 M360.093 218.400 C 360.093 219.170,360.175 219.485,360.276 219.100 C 360.376 218.715,360.376 218.085,360.276 217.700 C 360.175 217.315,360.093 217.630,360.093 218.400 M359.654 221.000 C 359.619 221.440,359.489 222.250,359.367 222.800 C 359.175 223.663,359.207 223.703,359.598 223.090 C 359.847 222.699,359.977 221.889,359.886 221.290 C 359.778 220.579,359.697 220.479,359.654 221.000 M207.200 288.000 C 207.200 289.833,207.309 291.224,207.442 291.091 C 207.575 290.958,207.684 289.567,207.684 288.000 C 207.684 286.433,207.575 285.042,207.442 284.909 C 207.309 284.776,207.200 286.167,207.200 288.000 " stroke="none" fill="#305454" fill-rule="evenodd"></path><path id="path2" d="M164.600 93.656 C 162.293 94.840,62.751 194.445,61.638 196.684 C 60.452 199.068,60.556 201.363,61.959 203.800 C 62.939 205.502,134.320 277.435,158.015 300.598 C 167.733 310.099,169.142 309.991,180.058 298.912 C 191.751 287.044,193.664 290.769,157.053 254.129 C 125.499 222.550,125.465 222.508,127.690 219.112 C 129.482 216.377,119.753 216.622,235.000 216.400 C 335.584 216.206,338.644 216.178,340.123 215.444 C 343.922 213.556,344.510 211.218,344.332 198.704 C 344.183 188.213,343.864 186.976,340.815 185.080 C 338.986 183.943,345.714 184.015,228.400 183.874 C 155.225 183.787,131.859 183.645,130.777 183.282 C 127.412 182.154,126.188 179.165,127.789 175.984 C 128.172 175.223,141.406 161.640,157.199 145.800 C 172.992 129.960,186.197 116.434,186.545 115.742 C 188.801 111.251,187.635 108.760,179.436 100.567 C 171.565 92.701,168.891 91.455,164.600 93.656 M171.783 98.000 C 174.078 99.595,182.159 107.935,182.993 109.567 C 185.088 113.674,185.583 113.078,153.391 145.200 C 138.509 160.050,125.836 172.920,125.230 173.800 C 121.629 179.023,122.880 183.856,128.400 186.045 C 129.577 186.512,146.306 186.632,233.400 186.800 C 348.326 187.022,338.517 186.775,340.296 189.491 C 341.360 191.114,341.358 208.888,340.294 210.512 C 338.509 213.237,348.762 212.978,234.018 213.200 C 136.546 213.389,130.485 213.441,128.600 214.106 C 123.597 215.870,121.953 219.891,124.227 224.800 C 125.098 226.681,129.389 231.153,153.780 255.600 C 169.474 271.330,182.624 284.815,183.003 285.567 C 184.640 288.823,183.074 291.763,176.217 298.309 C 170.710 303.567,168.836 304.416,165.860 303.000 C 164.220 302.220,66.288 204.517,65.373 202.749 C 64.492 201.044,64.574 198.660,65.570 197.049 C 66.894 194.907,163.841 98.281,165.641 97.309 C 167.685 96.206,169.495 96.409,171.783 98.000 M157.978 115.153 C 155.178 116.968,125.357 147.127,124.621 148.888 C 122.882 153.051,125.071 155.379,129.064 153.613 C 131.769 152.417,161.931 122.392,163.413 119.421 C 165.746 114.745,162.518 112.210,157.978 115.153 M98.600 174.735 C 94.933 176.971,92.840 181.626,94.731 183.338 C 97.429 185.779,104.182 181.039,104.182 176.704 C 104.182 174.084,101.321 173.075,98.600 174.735 M79.382 195.382 C 77.539 197.225,78.254 199.600,80.651 199.600 C 82.840 199.600,84.557 196.317,83.120 194.880 C 82.313 194.073,80.439 194.324,79.382 195.382 M96.800 218.800 C 93.972 221.628,94.305 222.024,127.340 255.062 C 160.466 288.191,160.249 288.007,163.346 285.571 C 166.623 282.993,166.366 282.685,133.442 249.736 C 100.461 216.729,99.599 216.001,96.800 218.800 " stroke="none" fill="#3c8474" fill-rule="evenodd"></path><path id="path3" d="M165.641 97.309 C 163.841 98.281,66.894 194.907,65.570 197.049 C 64.574 198.660,64.492 201.044,65.373 202.749 C 66.288 204.517,164.220 302.220,165.860 303.000 C 168.836 304.416,170.710 303.567,176.217 298.309 C 183.074 291.763,184.640 288.823,183.003 285.567 C 182.624 284.815,169.474 271.330,153.780 255.600 C 129.389 231.153,125.098 226.681,124.227 224.800 C 121.953 219.891,123.597 215.870,128.600 214.106 C 130.485 213.441,136.546 213.389,234.018 213.200 C 348.762 212.978,338.509 213.237,340.294 210.512 C 341.358 208.888,341.360 191.114,340.296 189.491 C 338.517 186.775,348.326 187.022,233.400 186.800 C 146.306 186.632,129.577 186.512,128.400 186.045 C 122.880 183.856,121.629 179.023,125.230 173.800 C 125.836 172.920,138.509 160.050,153.391 145.200 C 182.105 116.548,183.063 115.513,183.447 112.712 C 183.793 110.183,183.032 108.952,177.847 103.662 C 170.949 96.623,168.894 95.553,165.641 97.309 M170.602 100.736 C 172.044 101.615,179.134 108.769,179.859 110.077 C 181.120 112.348,179.822 115.030,175.560 118.961 C 160.063 133.254,123.336 171.052,121.633 174.460 C 119.423 178.883,120.178 184.170,123.368 186.603 C 126.781 189.206,117.291 188.979,231.800 189.200 C 345.595 189.420,336.940 189.202,338.212 191.881 C 338.757 193.030,338.841 194.471,338.731 200.817 L 338.600 208.383 337.491 209.492 L 336.382 210.600 232.691 210.800 C 117.429 211.022,126.936 210.776,123.488 213.627 C 121.014 215.674,120.277 217.571,120.477 221.380 C 120.774 227.046,119.629 225.709,151.234 257.274 C 179.992 285.995,180.400 286.426,180.400 288.095 C 180.400 291.011,171.013 300.400,168.098 300.400 C 166.779 300.400,163.716 298.121,162.096 295.933 C 159.427 292.328,159.509 291.892,163.025 290.977 C 168.614 289.523,170.362 285.454,167.738 280.006 C 165.840 276.065,105.757 216.504,101.771 214.613 C 96.737 212.224,92.683 213.827,91.172 218.803 C 90.245 221.854,89.903 222.143,88.117 221.392 C 86.477 220.703,78.501 212.990,75.509 209.200 C 74.206 207.550,72.249 205.417,71.160 204.460 C 67.799 201.507,67.344 199.975,69.201 197.860 C 71.451 195.298,72.433 195.632,73.166 199.210 C 75.163 208.948,88.751 205.053,88.791 194.731 C 88.805 191.071,87.361 189.873,81.879 188.998 C 79.021 188.543,79.552 186.459,83.457 182.806 C 87.104 179.395,88.567 179.159,89.005 181.914 C 90.372 190.522,96.486 191.426,104.035 184.138 C 110.766 177.640,110.354 170.870,103.131 169.262 C 98.676 168.270,99.257 166.703,106.940 159.003 C 116.380 149.542,117.647 148.930,119.011 153.178 C 120.700 158.434,124.765 160.059,130.183 157.643 C 134.149 155.874,165.463 124.602,167.586 120.289 C 170.270 114.836,168.502 110.457,163.131 109.262 C 159.135 108.372,159.359 106.561,163.997 102.267 C 166.743 99.725,168.338 99.355,170.602 100.736 M163.600 114.800 C 164.656 115.856,164.609 117.024,163.413 119.421 C 161.931 122.392,131.769 152.417,129.064 153.613 C 125.071 155.379,122.882 153.051,124.621 148.888 C 125.357 147.127,155.178 116.968,157.978 115.153 C 160.140 113.751,162.409 113.609,163.600 114.800 M103.414 174.561 C 105.434 176.037,103.604 180.601,100.102 182.821 C 94.751 186.215,91.765 181.884,96.073 176.978 C 98.534 174.175,101.535 173.187,103.414 174.561 M83.120 194.880 C 84.557 196.317,82.840 199.600,80.651 199.600 C 79.059 199.600,78.400 198.985,78.400 197.502 C 78.400 195.265,81.682 193.442,83.120 194.880 M102.222 219.236 C 105.364 221.199,162.480 278.566,163.542 280.826 C 165.592 285.190,163.006 287.712,158.684 285.562 C 156.345 284.399,98.012 226.064,96.840 223.716 C 94.484 218.994,97.635 216.371,102.222 219.236 " stroke="none" fill="#4cac94" fill-rule="evenodd"></path><path id="path4" d="M163.997 102.267 C 159.359 106.561,159.135 108.372,163.131 109.262 C 168.502 110.457,170.270 114.836,167.586 120.289 C 165.463 124.602,134.149 155.874,130.183 157.643 C 124.765 160.059,120.700 158.434,119.011 153.178 C 117.647 148.930,116.380 149.542,106.940 159.003 C 99.257 166.703,98.676 168.270,103.131 169.262 C 110.354 170.870,110.766 177.640,104.035 184.138 C 96.486 191.426,90.372 190.522,89.005 181.914 C 88.567 179.159,87.104 179.395,83.457 182.806 C 79.552 186.459,79.021 188.543,81.879 188.998 C 87.361 189.873,88.805 191.071,88.791 194.731 C 88.751 205.053,75.163 208.948,73.166 199.210 C 72.433 195.632,71.451 195.298,69.201 197.860 C 67.344 199.975,67.799 201.507,71.160 204.460 C 72.249 205.417,74.206 207.550,75.509 209.200 C 78.501 212.990,86.477 220.703,88.117 221.392 C 89.903 222.143,90.245 221.854,91.172 218.803 C 92.683 213.827,96.737 212.224,101.771 214.613 C 105.757 216.504,165.840 276.065,167.738 280.006 C 170.362 285.454,168.614 289.523,163.025 290.977 C 159.509 291.892,159.427 292.328,162.096 295.933 C 163.716 298.121,166.779 300.400,168.098 300.400 C 171.013 300.400,180.400 291.011,180.400 288.095 C 180.400 286.426,179.992 285.995,151.234 257.274 C 119.629 225.709,120.774 227.046,120.477 221.380 C 120.277 217.571,121.014 215.674,123.488 213.627 C 126.936 210.776,117.429 211.022,232.691 210.800 L 336.382 210.600 337.491 209.492 L 338.600 208.383 338.731 200.817 C 338.841 194.471,338.757 193.030,338.212 191.881 C 336.940 189.202,345.595 189.420,231.800 189.200 C 117.291 188.979,126.781 189.206,123.368 186.603 C 120.178 184.170,119.423 178.883,121.633 174.460 C 123.336 171.052,160.063 133.254,175.560 118.961 C 181.877 113.135,181.878 111.733,175.576 105.312 C 169.329 98.947,167.969 98.589,163.997 102.267 M173.662 105.524 C 179.252 110.844,179.702 112.492,176.426 115.650 C 172.607 119.331,171.221 119.477,171.204 116.200 C 171.183 112.224,169.833 109.931,166.366 107.981 C 163.499 106.368,163.249 105.274,165.300 103.317 C 167.842 100.891,169.158 101.238,173.662 105.524 M117.714 156.550 C 119.503 159.244,121.717 160.400,125.860 160.806 C 130.310 161.242,130.219 161.743,124.544 168.023 C 115.959 177.525,116.595 186.482,126.088 189.738 L 128.600 190.600 231.591 190.707 C 337.632 190.817,336.800 190.804,336.800 192.298 C 336.800 192.574,336.980 192.800,337.200 192.800 C 337.815 192.800,337.724 206.378,337.100 207.700 C 336.284 209.429,338.863 209.383,231.400 209.595 C 113.875 209.828,125.307 209.455,121.584 213.178 C 119.342 215.420,118.804 216.899,118.519 221.600 C 118.202 226.830,118.006 226.798,111.400 220.419 C 101.369 210.733,94.992 208.862,90.774 214.366 C 90.238 215.065,89.323 216.210,88.739 216.911 L 87.678 218.186 86.235 217.497 C 81.399 215.191,76.937 208.587,79.500 207.528 C 83.586 205.840,84.953 205.075,86.598 203.559 C 88.942 201.399,90.163 199.302,91.000 196.000 C 91.965 192.192,92.268 191.872,95.660 191.072 C 105.172 188.830,113.418 177.824,110.220 171.640 C 109.563 170.368,107.020 168.007,106.286 167.987 C 105.331 167.961,104.000 166.465,104.000 165.418 C 104.000 164.284,109.898 157.783,112.960 155.542 C 115.259 153.859,116.037 154.024,117.714 156.550 M86.000 185.400 C 86.000 185.730,85.730 186.000,85.400 186.000 C 85.070 186.000,84.800 185.730,84.800 185.400 C 84.800 185.070,85.070 184.800,85.400 184.800 C 85.730 184.800,86.000 185.070,86.000 185.400 M174.884 283.100 C 179.142 286.341,179.437 288.479,176.123 292.084 C 169.977 298.770,168.057 299.595,165.231 296.769 C 163.344 294.883,163.570 293.849,166.193 292.369 C 169.735 290.370,171.192 288.030,171.198 284.333 C 171.203 281.146,171.976 280.887,174.884 283.100 " stroke="none" fill="#4cb496" fill-rule="evenodd"></path><path id="path5" d="M112.168 159.554 C 108.217 161.964,107.626 164.444,110.387 167.027 C 114.243 170.633,114.960 175.329,112.423 180.355 C 109.964 185.225,102.227 192.228,98.178 193.247 C 95.789 193.849,94.551 195.124,93.217 198.358 C 91.710 202.012,88.927 205.553,86.055 207.469 C 82.340 209.948,82.075 210.602,84.042 212.440 C 85.646 213.937,86.461 213.902,88.299 212.255 C 94.391 206.794,101.829 207.899,109.574 215.414 C 114.271 219.971,115.318 220.503,115.998 218.676 C 118.927 210.807,120.750 209.074,127.202 208.027 C 128.973 207.740,162.356 207.605,232.100 207.603 C 322.765 207.600,334.400 207.532,334.400 207.000 C 334.400 206.670,334.670 206.400,335.000 206.400 C 335.508 206.400,335.600 205.444,335.600 200.200 C 335.600 194.956,335.508 194.000,335.000 194.000 C 334.670 194.000,334.400 193.730,334.400 193.400 C 334.400 192.868,322.962 192.799,233.900 192.790 C 174.377 192.784,131.827 192.626,129.542 192.404 C 121.849 191.655,119.428 190.026,116.694 183.758 C 115.053 179.996,116.837 173.097,120.525 168.944 C 124.366 164.618,124.385 164.319,120.915 162.762 C 119.438 162.099,117.473 160.937,116.548 160.179 C 114.626 158.604,113.897 158.500,112.168 159.554 M116.827 163.300 C 120.575 165.315,120.738 165.848,118.354 168.304 C 116.357 170.362,116.313 170.365,114.917 168.541 C 114.303 167.739,113.215 166.412,112.500 165.593 C 110.927 163.790,110.904 163.491,112.254 162.429 C 113.571 161.393,113.122 161.308,116.827 163.300 M114.857 184.300 C 117.040 189.756,118.640 191.491,122.800 192.912 L 125.400 193.800 229.700 193.905 L 334.000 194.010 334.000 200.005 L 334.000 206.000 233.300 206.013 C 133.062 206.027,126.816 206.106,122.400 207.421 C 119.689 208.227,116.485 211.296,115.628 213.906 C 114.591 217.067,113.903 217.026,110.600 213.609 C 105.820 208.663,102.333 207.200,95.327 207.200 C 90.304 207.200,90.306 207.201,92.009 204.851 C 92.674 203.933,93.673 202.151,94.228 200.891 C 95.872 197.162,97.014 195.781,98.913 195.225 C 101.129 194.576,103.425 193.227,105.400 191.415 C 108.404 188.659,111.255 185.801,112.300 184.500 C 113.576 182.911,114.280 182.856,114.857 184.300 " stroke="none" fill="#54bca4" fill-rule="evenodd"></path><path id="path6" d="M167.400 101.923 C 163.743 102.624,163.139 106.166,166.366 107.981 C 169.833 109.931,171.183 112.224,171.204 116.200 C 171.221 119.477,172.607 119.331,176.426 115.650 C 179.702 112.492,179.252 110.844,173.662 105.524 C 170.193 102.223,169.103 101.596,167.400 101.923 M112.960 155.542 C 109.898 157.783,104.000 164.284,104.000 165.418 C 104.000 166.465,105.331 167.961,106.286 167.987 C 107.020 168.007,109.563 170.368,110.220 171.640 C 113.418 177.824,105.172 188.830,95.660 191.072 C 92.268 191.872,91.965 192.192,91.000 196.000 C 90.163 199.302,88.942 201.399,86.598 203.559 C 84.953 205.075,83.586 205.840,79.500 207.528 C 76.937 208.587,81.399 215.191,86.235 217.497 L 87.678 218.186 88.739 216.911 C 89.323 216.210,90.238 215.065,90.774 214.366 C 94.992 208.862,101.369 210.733,111.400 220.419 C 118.006 226.798,118.202 226.830,118.519 221.600 C 118.804 216.899,119.342 215.420,121.584 213.178 C 125.307 209.455,113.875 209.828,231.400 209.595 C 338.863 209.383,336.284 209.429,337.100 207.700 C 337.724 206.378,337.815 192.800,337.200 192.800 C 336.980 192.800,336.800 192.574,336.800 192.298 C 336.800 190.804,337.632 190.817,231.591 190.707 L 128.600 190.600 126.088 189.738 C 116.595 186.482,115.959 177.525,124.544 168.023 C 130.219 161.743,130.310 161.242,125.860 160.806 C 121.717 160.400,119.503 159.244,117.714 156.550 C 116.037 154.024,115.259 153.859,112.960 155.542 M116.548 160.179 C 117.473 160.937,119.438 162.099,120.915 162.762 C 124.385 164.319,124.366 164.618,120.525 168.944 C 116.837 173.097,115.053 179.996,116.694 183.758 C 119.428 190.026,121.849 191.655,129.542 192.404 C 131.827 192.626,174.377 192.784,233.900 192.790 C 322.962 192.799,334.400 192.868,334.400 193.400 C 334.400 193.730,334.670 194.000,335.000 194.000 C 335.508 194.000,335.600 194.956,335.600 200.200 C 335.600 205.444,335.508 206.400,335.000 206.400 C 334.670 206.400,334.400 206.670,334.400 207.000 C 334.400 207.532,322.765 207.600,232.100 207.603 C 162.356 207.605,128.973 207.740,127.202 208.027 C 120.750 209.074,118.927 210.807,115.998 218.676 C 115.318 220.503,114.271 219.971,109.574 215.414 C 101.829 207.899,94.391 206.794,88.299 212.255 C 86.461 213.902,85.646 213.937,84.042 212.440 C 82.075 210.602,82.340 209.948,86.055 207.469 C 88.927 205.553,91.710 202.012,93.217 198.358 C 94.551 195.124,95.789 193.849,98.178 193.247 C 102.227 192.228,109.964 185.225,112.423 180.355 C 114.960 175.329,114.243 170.633,110.387 167.027 C 108.033 164.824,107.914 163.972,109.668 161.844 C 112.360 158.578,114.085 158.161,116.548 160.179 M84.800 185.400 C 84.800 185.730,85.070 186.000,85.400 186.000 C 85.730 186.000,86.000 185.730,86.000 185.400 C 86.000 185.070,85.730 184.800,85.400 184.800 C 85.070 184.800,84.800 185.070,84.800 185.400 M171.443 282.233 C 171.309 282.581,171.199 283.526,171.198 284.333 C 171.192 288.030,169.735 290.370,166.193 292.369 C 163.146 294.089,163.815 297.336,167.402 298.236 C 169.918 298.868,178.400 291.243,178.400 288.351 C 178.400 285.293,172.320 279.947,171.443 282.233 " stroke="none" fill="#54bc9c" fill-rule="evenodd"></path><path id="path7" d="M112.254 162.429 C 110.904 163.491,110.927 163.790,112.500 165.593 C 113.215 166.412,114.303 167.739,114.917 168.541 C 116.313 170.365,116.357 170.362,118.354 168.304 C 120.738 165.848,120.575 165.315,116.827 163.300 C 113.122 161.308,113.571 161.393,112.254 162.429 M112.300 184.500 C 111.255 185.801,108.404 188.659,105.400 191.415 C 103.425 193.227,101.129 194.576,98.913 195.225 C 97.014 195.781,95.872 197.162,94.228 200.891 C 93.673 202.151,92.674 203.933,92.009 204.851 C 90.306 207.201,90.304 207.200,95.327 207.200 C 102.333 207.200,105.820 208.663,110.600 213.609 C 113.903 217.026,114.591 217.067,115.628 213.906 C 116.485 211.296,119.689 208.227,122.400 207.421 C 126.816 206.106,133.062 206.027,233.300 206.013 L 334.000 206.000 334.000 200.005 L 334.000 194.010 229.700 193.905 L 125.400 193.800 122.800 192.912 C 118.640 191.491,117.040 189.756,114.857 184.300 C 114.280 182.856,113.576 182.911,112.300 184.500 " stroke="none" fill="#54c0a4" fill-rule="evenodd"></path><path id="path8" d="M112.254 162.429 C 110.904 163.491,110.927 163.790,112.500 165.593 C 113.215 166.412,114.303 167.739,114.917 168.541 C 116.313 170.365,116.357 170.362,118.354 168.304 C 120.738 165.848,120.575 165.315,116.827 163.300 C 113.122 161.308,113.571 161.393,112.254 162.429 M112.300 184.500 C 111.255 185.801,108.404 188.659,105.400 191.415 C 103.425 193.227,101.129 194.576,98.913 195.225 C 97.014 195.781,95.872 197.162,94.228 200.891 C 93.673 202.151,92.674 203.933,92.009 204.851 C 90.306 207.201,90.304 207.200,95.327 207.200 C 102.333 207.200,105.820 208.663,110.600 213.609 C 113.903 217.026,114.591 217.067,115.628 213.906 C 116.485 211.296,119.689 208.227,122.400 207.421 C 126.816 206.106,133.062 206.027,233.300 206.013 L 334.000 206.000 334.000 200.005 L 334.000 194.010 229.700 193.905 L 125.400 193.800 122.800 192.912 C 118.640 191.491,117.040 189.756,114.857 184.300 C 114.280 182.856,113.576 182.911,112.300 184.500 " stroke="none" fill="#54c0a4" fill-rule="evenodd"></path></g></svg>