<svg id="svg" version="1.1" xmlns="http://www.w3.org/2000/svg" xmlns:xlink="http://www.w3.org/1999/xlink" width="400" height="400" viewBox="0, 0, 400,400"><g id="svgg"><path id="path0" d="M178.268 30.265 C 178.121 30.413,178.000 30.830,178.000 31.192 C 178.000 32.731,175.903 34.000,173.358 34.000 C 170.561 34.000,170.000 34.411,170.000 36.458 L 170.000 37.956 168.100 38.078 L 166.200 38.200 166.078 40.100 L 165.956 42.000 164.458 42.000 C 162.566 42.000,162.000 42.569,162.000 44.472 C 162.000 45.799,161.865 46.013,160.900 46.216 C 158.494 46.722,158.136 47.408,158.047 51.676 L 158.000 53.953 156.302 54.289 C 154.232 54.698,154.115 55.072,154.047 61.500 L 154.000 66.000 152.480 66.000 C 150.564 66.000,150.000 66.564,150.000 68.480 L 150.000 70.000 132.008 70.000 L 114.017 70.000 113.908 62.100 L 113.800 54.200 76.000 54.200 L 38.200 54.200 38.000 62.200 L 37.800 70.200 36.600 70.335 C 34.989 70.517,34.470 71.017,34.323 72.530 L 34.200 73.800 30.484 74.000 C 26.425 74.218,26.017 74.460,26.006 76.642 L 26.000 77.885 22.722 78.158 C 18.949 78.473,18.400 78.789,18.400 80.649 C 18.400 81.954,18.347 82.000,16.829 82.000 C 14.886 82.000,14.000 82.824,14.000 84.629 C 14.000 85.924,13.924 86.000,12.629 86.000 C 10.901 86.000,10.000 86.883,10.000 88.577 C 10.000 89.810,9.893 89.915,8.388 90.156 C 6.403 90.473,6.000 91.326,6.000 95.204 L 6.000 97.956 4.100 98.078 L 2.200 98.200 2.086 102.100 C 1.973 105.947,1.958 106.000,0.986 106.000 L 0.000 106.000 0.000 213.000 L 0.000 320.000 0.982 320.000 C 1.924 320.000,1.970 320.119,2.082 322.896 C 2.185 325.428,2.300 325.809,3.000 325.935 C 4.853 326.266,6.000 327.991,6.000 330.446 C 6.000 333.157,6.623 334.000,8.629 334.000 C 9.950 334.000,10.000 334.056,10.000 335.520 C 10.000 337.436,10.564 338.000,12.480 338.000 C 13.973 338.000,14.000 338.027,14.000 339.520 C 14.000 341.436,14.564 342.000,16.480 342.000 C 17.944 342.000,18.000 342.050,18.000 343.371 C 18.000 345.563,18.765 346.000,22.607 346.000 L 25.956 346.000 26.078 347.900 L 26.200 349.800 30.100 349.914 L 34.000 350.029 34.000 351.534 C 34.000 352.363,34.216 353.256,34.480 353.520 C 35.180 354.220,364.820 354.220,365.520 353.520 C 365.784 353.256,366.000 352.363,366.000 351.534 L 366.000 350.029 369.900 349.914 L 373.800 349.800 373.922 347.900 L 374.044 346.000 377.393 346.000 C 381.235 346.000,382.000 345.563,382.000 343.371 C 382.000 342.050,382.056 342.000,383.520 342.000 C 385.436 342.000,386.000 341.436,386.000 339.520 C 386.000 338.027,386.027 338.000,387.520 338.000 C 389.436 338.000,390.000 337.436,390.000 335.520 C 390.000 334.056,390.050 334.000,391.371 334.000 C 393.563 334.000,394.000 333.235,394.000 329.393 L 394.000 326.044 395.900 325.922 L 397.800 325.800 397.914 321.900 C 398.027 318.053,398.042 318.000,399.014 318.000 L 400.000 318.000 400.000 212.000 L 400.000 106.000 399.014 106.000 C 398.042 106.000,398.027 105.947,397.914 102.100 L 397.800 98.200 395.900 98.078 L 394.000 97.956 394.000 94.607 C 394.000 90.765,393.563 90.000,391.371 90.000 C 390.050 90.000,390.000 89.944,390.000 88.480 C 390.000 86.564,389.436 86.000,387.520 86.000 C 386.027 86.000,386.000 85.973,386.000 84.480 C 386.000 82.564,385.436 82.000,383.520 82.000 C 382.056 82.000,382.000 81.950,382.000 80.629 C 382.000 78.623,381.157 78.000,378.446 78.000 C 375.992 78.000,374.267 76.853,373.934 75.000 C 373.804 74.274,373.429 74.189,369.895 74.086 L 366.000 73.971 366.000 72.466 C 366.000 69.904,366.722 70.000,347.520 70.000 L 330.000 70.000 330.000 68.480 C 330.000 66.564,329.436 66.000,327.520 66.000 L 326.000 66.000 325.953 61.500 C 325.885 55.072,325.768 54.698,323.698 54.289 L 322.000 53.953 321.953 51.676 C 321.864 47.408,321.506 46.722,319.100 46.216 C 318.135 46.013,318.000 45.799,318.000 44.472 C 318.000 42.569,317.434 42.000,315.542 42.000 L 314.044 42.000 313.922 40.100 L 313.800 38.200 311.900 38.078 L 310.000 37.956 310.000 36.458 C 310.000 34.403,309.442 34.000,306.595 34.000 C 303.984 34.000,302.277 32.901,301.933 31.000 C 301.787 30.191,179.071 29.462,178.268 30.265 M282.243 51.682 C 282.665 53.670,283.194 53.901,287.468 53.960 C 290.303 54.000,290.339 54.014,290.594 55.172 C 290.912 56.619,291.342 56.981,293.500 57.622 C 294.435 57.900,295.200 58.312,295.200 58.538 C 295.200 59.119,296.845 60.800,297.413 60.800 C 297.674 60.800,298.048 61.727,298.244 62.859 C 298.609 64.969,298.983 65.380,300.900 65.784 C 301.994 66.014,302.000 66.032,302.000 69.379 C 302.000 73.236,302.435 74.000,304.629 74.000 L 306.000 74.000 306.017 77.700 C 306.047 84.086,306.589 85.581,308.879 85.594 C 309.898 85.600,309.965 85.717,310.079 87.700 L 310.200 89.800 326.200 90.000 L 342.200 90.200 342.323 91.470 C 342.533 93.635,343.029 93.778,350.857 93.941 L 358.000 94.089 358.000 95.416 C 358.000 97.561,358.782 98.000,362.607 98.000 L 365.956 98.000 366.078 99.900 L 366.200 101.800 368.079 101.921 L 369.958 102.042 370.079 103.921 L 370.200 105.800 372.100 105.922 L 374.000 106.044 374.000 109.393 C 374.000 113.235,374.437 114.000,376.629 114.000 L 378.000 114.000 378.047 120.300 C 378.112 128.926,378.199 129.216,380.900 129.784 L 382.000 130.015 382.000 212.000 L 382.000 293.985 380.900 294.216 C 378.199 294.784,378.112 295.074,378.047 303.700 L 378.000 310.000 376.629 310.000 C 374.437 310.000,374.000 310.765,374.000 314.607 L 374.000 317.956 372.100 318.078 L 370.200 318.200 370.079 320.079 L 369.958 321.958 368.079 322.079 L 366.200 322.200 366.078 324.100 L 365.956 326.000 362.607 326.000 C 358.765 326.000,358.000 326.437,358.000 328.629 L 358.000 330.000 351.700 330.047 C 343.074 330.112,342.784 330.199,342.216 332.900 L 341.985 334.000 200.000 334.000 L 58.015 334.000 57.784 332.900 C 57.216 330.199,56.926 330.112,48.300 330.047 L 42.000 330.000 42.000 328.629 C 42.000 326.437,41.235 326.000,37.393 326.000 L 34.044 326.000 33.922 324.100 L 33.800 322.200 31.921 322.079 L 30.042 321.958 29.921 320.079 L 29.800 318.200 27.900 318.078 L 26.000 317.956 26.000 314.607 C 26.000 310.765,25.563 310.000,23.371 310.000 L 22.000 310.000 21.953 303.700 C 21.888 295.073,21.801 294.785,19.099 294.216 L 17.998 293.984 18.099 211.892 L 18.200 129.800 19.470 129.677 C 21.633 129.467,21.778 128.967,21.940 121.190 L 22.087 114.094 23.677 113.880 C 25.804 113.595,25.780 113.640,25.939 109.587 L 26.078 106.041 27.939 105.920 L 29.800 105.800 29.921 103.921 L 30.042 102.042 31.921 101.921 L 33.800 101.800 33.920 99.939 L 34.041 98.078 37.587 97.939 C 41.649 97.780,41.594 97.809,41.886 95.633 L 42.105 94.000 46.827 94.000 C 52.732 94.000,53.504 93.739,53.841 91.632 C 54.092 90.065,54.125 90.038,55.948 89.920 L 57.800 89.800 57.908 81.900 L 58.017 74.000 76.000 74.000 L 93.983 74.000 94.092 81.900 L 94.200 89.800 132.000 89.800 L 169.800 89.800 169.921 87.700 C 170.035 85.717,170.102 85.600,171.121 85.594 C 173.411 85.581,173.953 84.086,173.983 77.700 L 174.000 74.000 175.371 74.000 C 177.565 74.000,178.000 73.236,178.000 69.379 C 178.000 66.032,178.006 66.014,179.100 65.784 C 181.017 65.380,181.391 64.969,181.756 62.859 C 181.952 61.727,182.301 60.800,182.530 60.800 C 183.113 60.800,184.800 59.160,184.800 58.594 C 184.800 58.337,185.565 57.900,186.500 57.622 C 188.658 56.981,189.088 56.619,189.406 55.172 C 189.661 54.014,189.697 54.000,192.532 53.960 C 196.806 53.901,197.335 53.670,197.757 51.682 L 198.114 50.000 240.000 50.000 L 281.886 50.000 282.243 51.682 M210.629 102.629 C 210.283 102.974,210.000 103.874,210.000 104.629 L 210.000 106.000 204.480 106.000 C 198.322 106.000,198.000 106.122,198.000 108.466 L 198.000 109.971 194.105 110.086 C 190.571 110.189,190.196 110.274,190.066 111.000 C 189.725 112.900,188.017 114.000,185.405 114.000 C 182.552 114.000,182.000 114.402,182.000 116.480 L 182.000 118.000 180.300 118.010 C 176.397 118.031,174.400 119.069,174.400 121.076 C 174.400 121.884,174.203 122.000,172.829 122.000 C 170.886 122.000,170.000 122.824,170.000 124.629 C 170.000 125.950,169.944 126.000,168.480 126.000 C 166.569 126.000,166.000 126.564,166.000 128.458 L 166.000 129.956 164.100 130.078 L 162.200 130.200 162.078 132.100 L 161.956 134.000 160.458 134.000 C 158.564 134.000,158.000 134.569,158.000 136.480 C 158.000 137.944,157.950 138.000,156.629 138.000 C 154.824 138.000,154.000 138.886,154.000 140.829 C 154.000 142.203,153.884 142.400,153.076 142.400 C 151.069 142.400,150.031 144.397,150.010 148.300 L 150.000 150.000 148.480 150.000 C 146.402 150.000,146.000 150.552,146.000 153.405 C 146.000 156.017,144.900 157.725,143.000 158.066 C 142.274 158.196,142.189 158.571,142.086 162.105 L 141.971 166.000 140.466 166.000 C 138.122 166.000,138.000 166.322,138.000 172.480 L 138.000 178.000 136.629 178.000 C 133.835 178.000,134.000 176.118,134.000 208.000 C 134.000 239.882,133.835 238.000,136.629 238.000 L 138.000 238.000 138.000 243.520 C 138.000 249.678,138.122 250.000,140.466 250.000 L 141.971 250.000 142.086 253.900 L 142.200 257.800 144.100 257.922 L 146.000 258.044 146.000 261.542 C 146.000 265.524,146.265 266.000,148.480 266.000 L 150.000 266.000 150.010 267.700 C 150.031 271.603,151.069 273.600,153.076 273.600 C 153.884 273.600,154.000 273.797,154.000 275.171 C 154.000 277.114,154.824 278.000,156.629 278.000 C 157.950 278.000,158.000 278.056,158.000 279.520 C 158.000 281.431,158.564 282.000,160.458 282.000 L 161.956 282.000 162.078 283.900 L 162.200 285.800 164.100 285.922 L 166.000 286.044 166.000 287.542 C 166.000 289.436,166.569 290.000,168.480 290.000 C 169.944 290.000,170.000 290.050,170.000 291.371 C 170.000 293.152,170.890 294.000,172.758 294.000 C 174.157 294.000,174.284 294.101,174.629 295.489 C 175.053 297.191,176.646 297.913,180.100 297.969 L 182.000 298.000 182.000 299.520 C 182.000 301.735,182.476 302.000,186.458 302.000 L 189.956 302.000 190.078 303.900 L 190.200 305.800 194.100 305.914 L 198.000 306.029 198.000 307.534 C 198.000 309.878,198.322 310.000,204.480 310.000 L 210.000 310.000 210.000 311.371 C 210.000 314.165,208.118 314.000,240.000 314.000 C 271.882 314.000,270.000 314.165,270.000 311.371 L 270.000 310.000 275.520 310.000 C 281.678 310.000,282.000 309.878,282.000 307.534 L 282.000 306.029 285.900 305.914 L 289.800 305.800 289.922 303.900 L 290.044 302.000 293.542 302.000 C 297.524 302.000,298.000 301.735,298.000 299.520 L 298.000 298.000 299.900 297.969 C 303.354 297.913,304.947 297.191,305.371 295.489 C 305.716 294.101,305.843 294.000,307.242 294.000 C 309.110 294.000,310.000 293.152,310.000 291.371 C 310.000 290.050,310.056 290.000,311.520 290.000 C 313.431 290.000,314.000 289.436,314.000 287.542 L 314.000 286.044 315.900 285.922 L 317.800 285.800 317.922 283.900 L 318.044 282.000 319.542 282.000 C 321.436 282.000,322.000 281.431,322.000 279.520 C 322.000 278.056,322.050 278.000,323.371 278.000 C 325.152 278.000,326.000 277.110,326.000 275.242 C 326.000 273.843,326.101 273.716,327.489 273.371 C 329.191 272.947,329.913 271.354,329.969 267.900 L 330.000 266.000 331.520 266.000 C 333.735 266.000,334.000 265.524,334.000 261.542 L 334.000 258.044 335.900 257.922 L 337.800 257.800 337.914 253.900 L 338.029 250.000 339.534 250.000 C 341.878 250.000,342.000 249.678,342.000 243.520 L 342.000 238.000 343.371 238.000 C 346.165 238.000,346.000 239.882,346.000 208.000 C 346.000 176.118,346.165 178.000,343.371 178.000 L 342.000 178.000 342.000 172.480 C 342.000 166.322,341.878 166.000,339.534 166.000 L 338.029 166.000 337.914 162.100 L 337.800 158.200 335.900 158.078 L 334.000 157.956 334.000 154.458 C 334.000 150.476,333.735 150.000,331.520 150.000 L 330.000 150.000 329.969 148.100 C 329.913 144.646,329.191 143.053,327.489 142.629 C 326.101 142.284,326.000 142.157,326.000 140.758 C 326.000 138.890,325.152 138.000,323.371 138.000 C 322.050 138.000,322.000 137.944,322.000 136.480 C 322.000 134.569,321.436 134.000,319.542 134.000 L 318.044 134.000 317.922 132.100 L 317.800 130.200 315.900 130.078 L 314.000 129.956 314.000 128.458 C 314.000 126.564,313.431 126.000,311.520 126.000 C 310.056 126.000,310.000 125.950,310.000 124.629 C 310.000 122.824,309.114 122.000,307.171 122.000 C 305.797 122.000,305.600 121.884,305.600 121.076 C 305.600 119.069,303.603 118.031,299.700 118.010 L 298.000 118.000 298.000 116.480 C 298.000 114.265,297.524 114.000,293.542 114.000 L 290.044 114.000 289.922 112.100 L 289.800 110.200 285.900 110.086 L 282.000 109.971 282.000 108.466 C 282.000 106.122,281.678 106.000,275.520 106.000 L 270.000 106.000 270.000 104.629 C 270.000 101.835,271.882 102.000,240.000 102.000 C 214.403 102.000,211.188 102.069,210.629 102.629 M42.629 110.629 C 42.283 110.974,42.000 111.874,42.000 112.629 C 42.000 113.924,41.924 114.000,40.629 114.000 C 37.970 114.000,38.000 113.843,38.000 128.000 C 38.000 142.157,37.970 142.000,40.629 142.000 C 41.924 142.000,42.000 142.076,42.000 143.371 C 42.000 146.077,41.816 146.044,56.211 145.916 C 70.371 145.789,69.580 145.918,69.880 143.679 C 70.081 142.180,70.180 142.081,71.679 141.880 C 73.918 141.580,73.789 142.371,73.916 128.211 C 74.044 113.816,74.077 114.000,71.371 114.000 C 70.076 114.000,70.000 113.924,70.000 112.629 C 70.000 109.970,70.157 110.000,56.000 110.000 C 44.949 110.000,43.174 110.083,42.629 110.629 M254.863 126.000 L 262.400 126.000 262.400 127.138 C 262.400 129.263,263.442 129.701,268.999 129.915 L 274.000 130.108 274.000 131.574 C 274.000 133.733,274.493 134.000,278.480 134.000 L 282.000 134.000 282.000 135.520 C 282.000 137.434,282.564 138.000,284.472 138.000 C 285.799 138.000,286.013 138.135,286.216 139.100 C 286.722 141.506,287.408 141.864,291.678 141.953 L 293.956 142.000 294.078 143.900 L 294.200 145.800 296.079 145.921 L 297.958 146.042 298.079 147.921 L 298.200 149.800 300.079 149.921 L 301.958 150.042 302.079 151.921 L 302.200 153.800 304.100 153.922 L 306.000 154.044 306.047 156.322 C 306.136 160.592,306.494 161.278,308.900 161.784 C 309.865 161.987,310.000 162.201,310.000 163.528 C 310.000 165.436,310.566 166.000,312.480 166.000 L 314.000 166.000 314.000 169.520 C 314.000 173.525,314.263 174.000,316.480 174.000 L 318.000 174.000 318.017 177.700 C 318.047 184.070,318.591 185.581,320.859 185.594 L 321.917 185.600 322.059 196.800 C 322.136 202.960,322.136 213.040,322.059 219.200 L 321.917 230.400 320.859 230.406 C 318.591 230.419,318.047 231.930,318.017 238.300 L 318.000 242.000 316.480 242.000 C 314.265 242.000,314.000 242.476,314.000 246.458 L 314.000 249.956 312.100 250.078 L 310.200 250.200 310.078 252.098 C 309.969 253.795,309.842 254.020,308.878 254.222 C 306.497 254.721,306.136 255.417,306.047 259.678 L 306.000 261.956 304.100 262.078 L 302.200 262.200 302.079 264.079 L 301.958 265.958 300.079 266.079 L 298.200 266.200 298.079 268.079 L 297.958 269.958 296.079 270.079 L 294.200 270.200 294.078 272.100 L 293.956 274.000 291.678 274.047 C 287.417 274.136,286.721 274.497,286.222 276.878 C 286.020 277.842,285.795 277.969,284.098 278.078 L 282.200 278.200 282.078 280.100 L 281.956 282.000 278.458 282.000 C 274.476 282.000,274.000 282.265,274.000 284.480 L 274.000 286.000 270.300 286.017 C 263.933 286.047,262.419 286.592,262.406 288.855 L 262.400 289.909 251.200 290.060 C 245.040 290.143,234.960 290.143,228.800 290.060 L 217.600 289.909 217.594 288.855 C 217.581 286.592,216.067 286.047,209.700 286.017 L 206.000 286.000 206.000 284.480 C 206.000 282.265,205.524 282.000,201.542 282.000 L 198.044 282.000 197.922 280.100 L 197.800 278.200 195.919 278.079 C 194.058 277.959,194.035 277.941,193.707 276.281 C 193.327 274.360,192.791 274.129,188.522 274.047 L 186.044 274.000 185.922 272.100 L 185.800 270.200 183.921 270.079 L 182.042 269.958 181.921 268.079 L 181.800 266.200 179.921 266.079 L 178.042 265.958 177.921 264.079 L 177.800 262.200 175.900 262.078 L 174.000 261.956 173.953 259.678 C 173.864 255.408,173.506 254.722,171.100 254.216 C 170.135 254.013,170.000 253.799,170.000 252.472 C 170.000 250.564,169.434 250.000,167.520 250.000 L 166.000 250.000 166.000 246.480 C 166.000 242.493,165.733 242.000,163.574 242.000 L 162.108 242.000 161.915 236.999 C 161.702 231.469,161.260 230.400,159.183 230.400 L 158.091 230.400 157.940 219.200 C 157.857 213.040,157.857 202.960,157.940 196.800 L 158.091 185.600 158.969 185.600 C 161.215 185.600,161.975 183.613,161.990 177.700 L 162.000 174.000 163.520 174.000 C 165.737 174.000,166.000 173.525,166.000 169.520 L 166.000 166.000 167.551 166.000 C 169.415 166.000,169.899 165.499,170.070 163.395 C 170.190 161.928,170.302 161.790,171.470 161.677 C 173.268 161.503,173.585 160.919,173.867 157.268 L 174.116 154.039 175.958 153.920 L 177.800 153.800 177.921 151.921 L 178.042 150.042 179.921 149.921 L 181.800 149.800 181.921 147.921 L 182.042 146.042 183.921 145.921 L 185.800 145.800 185.920 143.958 L 186.039 142.116 189.268 141.867 C 192.919 141.585,193.503 141.268,193.677 139.470 C 193.790 138.302,193.928 138.190,195.395 138.070 C 197.499 137.899,198.000 137.415,198.000 135.551 L 198.000 134.000 201.520 134.000 C 205.525 134.000,206.000 133.737,206.000 131.520 L 206.000 130.000 209.700 129.990 C 215.644 129.975,217.600 129.218,217.600 126.931 L 217.600 126.014 227.100 125.871 C 232.325 125.792,239.013 125.789,241.963 125.864 C 244.913 125.939,250.718 126.000,254.863 126.000 " stroke="none" fill="#040404" fill-rule="evenodd"></path><path id="path1" d="" stroke="none" fill="#080404" fill-rule="evenodd"></path><path id="path2" d="" stroke="none" fill="#080404" fill-rule="evenodd"></path><path id="path3" d="" stroke="none" fill="#080404" fill-rule="evenodd"></path><path id="path4" d="" stroke="none" fill="#080404" fill-rule="evenodd"></path></g></svg>