<?xml version="1.0" standalone="no"?>
<!DOCTYPE svg PUBLIC "-//W3C//DTD SVG 20010904//EN"
 "http://www.w3.org/TR/2001/REC-SVG-20010904/DTD/svg10.dtd">
<svg version="1.0" xmlns="http://www.w3.org/2000/svg"
 width="48.000000pt" height="48.000000pt" viewBox="0 0 48.000000 48.000000"
 preserveAspectRatio="xMidYMid meet">

<g transform="translate(0.000000,48.000000) scale(0.100000,-0.100000)"
fill="#000000" stroke="none">
<path d="M295 380 c-27 -5 -86 -9 -130 -9 -116 -1 -125 -10 -124 -114 2 -137
1 -137 151 -168 51 -11 60 -10 100 10 24 11 56 21 70 21 39 0 86 20 90 38 2 9
1 33 -4 52 -4 19 -8 61 -8 93 0 46 -4 59 -17 63 -10 3 -26 10 -35 15 -19 10
-20 10 -93 -1z m80 -10 c-3 -5 -12 -7 -20 -3 -21 7 -19 13 6 13 11 0 18 -4 14
-10z m-51 -15 c7 -18 39 -20 66 -3 10 7 22 9 26 5 12 -12 26 -199 16 -209 -6
-6 -30 -13 -55 -15 l-44 -5 4 48 c4 43 1 54 -27 92 -38 50 -73 55 -119 17 -37
-32 -55 -85 -47 -137 l7 -40 -33 7 c-52 11 -61 26 -66 113 l-4 80 80 7 c44 4
123 4 174 1 51 -4 98 -3 105 1 7 5 -12 8 -44 8 -51 0 -56 2 -58 23 -2 25 10
30 19 7z m-40 -10 c4 -12 -4 -15 -42 -13 -26 1 -80 -2 -119 -6 -52 -6 -73 -5
-73 3 0 20 42 29 137 30 71 0 92 -3 97 -14z m-9 -55 c4 -6 -8 -10 -30 -10 -22
0 -34 4 -30 10 3 6 17 10 30 10 13 0 27 -4 30 -10z m35 -40 c11 -11 20 -27 20
-36 0 -12 -7 -10 -32 11 -26 22 -39 26 -79 23 -37 -2 -45 0 -37 10 17 20 105
15 128 -8z m-100 -17 c-48 -18 -63 -60 -34 -101 19 -27 78 -30 106 -5 36 33
15 93 -37 106 -18 4 -17 5 3 6 55 3 94 -86 54 -122 -40 -36 -120 -29 -142 14
-24 44 5 110 48 108 13 0 14 -2 2 -6z m64 -29 c22 -21 20 -61 -3 -74 -26 -14
-64 -13 -79 2 -13 13 -17 70 -5 81 12 13 72 7 87 -9z"/>
<path d="M70 265 c0 -11 7 -15 23 -13 12 2 22 8 22 13 0 6 -10 11 -22 13 -16
2 -23 -2 -23 -13z"/>
</g>
</svg>
