<svg id="svg" version="1.1" xmlns="http://www.w3.org/2000/svg" xmlns:xlink="http://www.w3.org/1999/xlink" width="400" height="400" viewBox="0, 0, 400,400"><g id="svgg"><path id="path0" d="M55.200 96.200 C 55.200 97.146,55.081 97.200,52.981 97.200 C 51.128 97.200,50.609 97.365,49.835 98.200 C 49.325 98.750,48.524 99.200,48.054 99.200 C 47.415 99.200,47.200 99.446,47.200 100.178 C 47.200 101.061,47.015 101.168,45.300 101.278 C 43.679 101.382,43.381 101.532,43.272 102.300 C 43.180 102.951,42.876 103.200,42.172 103.200 C 41.402 103.200,41.200 103.408,41.200 104.200 C 41.200 105.000,41.000 105.200,40.200 105.200 C 39.408 105.200,39.200 105.402,39.200 106.172 C 39.200 106.876,38.951 107.180,38.300 107.272 C 37.532 107.381,37.382 107.679,37.278 109.300 C 37.168 111.015,37.061 111.200,36.178 111.200 C 35.446 111.200,35.200 111.415,35.200 112.054 C 35.200 112.524,34.750 113.325,34.200 113.835 C 33.365 114.609,33.200 115.128,33.200 116.981 C 33.200 119.081,33.146 119.200,32.200 119.200 L 31.200 119.200 31.200 200.000 L 31.200 280.800 32.200 280.800 C 33.146 280.800,33.200 280.919,33.200 283.019 C 33.200 284.872,33.365 285.391,34.200 286.165 C 34.750 286.675,35.200 287.476,35.200 287.946 C 35.200 288.585,35.446 288.800,36.178 288.800 C 37.061 288.800,37.168 288.985,37.278 290.700 C 37.382 292.321,37.532 292.619,38.300 292.728 C 38.951 292.820,39.200 293.124,39.200 293.828 C 39.200 294.598,39.408 294.800,40.200 294.800 C 41.000 294.800,41.200 295.000,41.200 295.800 C 41.200 296.592,41.402 296.800,42.172 296.800 C 42.876 296.800,43.180 297.049,43.272 297.700 C 43.381 298.468,43.679 298.618,45.300 298.722 C 47.015 298.832,47.200 298.939,47.200 299.822 C 47.200 300.594,47.407 300.800,48.182 300.800 C 48.722 300.800,49.614 301.250,50.164 301.800 C 50.966 302.602,51.562 302.800,53.182 302.800 C 55.068 302.800,55.200 302.865,55.200 303.800 L 55.200 304.800 157.992 304.800 L 260.785 304.800 261.036 303.800 C 261.260 302.906,261.492 302.800,263.214 302.800 C 264.794 302.800,265.284 302.620,265.929 301.800 C 266.466 301.117,267.109 300.800,267.958 300.800 C 269.008 300.800,269.200 300.649,269.200 299.823 C 269.200 298.960,269.398 298.832,270.900 298.723 C 272.313 298.621,272.622 298.448,272.728 297.700 C 272.819 297.057,273.125 296.800,273.800 296.800 C 274.475 296.800,274.781 296.543,274.872 295.900 C 274.954 295.322,275.322 294.954,275.900 294.872 C 276.483 294.789,276.800 294.469,276.800 293.962 C 276.800 293.502,277.200 293.028,277.772 292.810 C 278.535 292.520,278.804 292.048,279.018 290.620 C 279.254 289.045,279.419 288.800,280.245 288.800 C 281.021 288.800,281.200 288.593,281.200 287.696 C 281.200 287.072,281.635 286.122,282.200 285.513 C 282.962 284.692,283.200 284.002,283.200 282.617 C 283.200 281.101,283.325 280.800,283.957 280.800 C 285.143 280.800,285.200 280.223,285.200 268.167 L 285.200 256.800 286.200 256.800 C 287.000 256.800,287.200 257.000,287.200 257.800 C 287.200 258.600,287.400 258.800,288.200 258.800 C 289.000 258.800,289.200 259.000,289.200 259.800 C 289.200 260.554,289.410 260.800,290.054 260.800 C 290.524 260.800,291.325 261.250,291.835 261.800 C 292.433 262.445,293.194 262.800,293.981 262.800 C 295.015 262.800,295.200 262.952,295.200 263.800 C 295.200 264.600,295.400 264.800,296.200 264.800 C 297.000 264.800,297.200 265.000,297.200 265.800 C 297.200 266.600,297.400 266.800,298.200 266.800 C 299.000 266.800,299.200 267.000,299.200 267.800 C 299.200 268.554,299.410 268.800,300.054 268.800 C 300.524 268.800,301.325 269.250,301.835 269.800 C 302.433 270.445,303.194 270.800,303.981 270.800 C 305.015 270.800,305.200 270.952,305.200 271.800 C 305.200 272.600,305.400 272.800,306.200 272.800 C 307.000 272.800,307.200 273.000,307.200 273.800 C 307.200 274.600,307.400 274.800,308.200 274.800 C 309.000 274.800,309.200 275.000,309.200 275.800 C 309.200 276.554,309.410 276.800,310.054 276.800 C 310.524 276.800,311.325 277.250,311.835 277.800 C 312.433 278.445,313.194 278.800,313.981 278.800 C 315.015 278.800,315.200 278.952,315.200 279.800 C 315.200 280.600,315.400 280.800,316.200 280.800 C 317.000 280.800,317.200 281.000,317.200 281.800 C 317.200 282.600,317.400 282.800,318.200 282.800 C 319.000 282.800,319.200 283.000,319.200 283.800 C 319.200 284.600,319.400 284.800,320.200 284.800 C 320.750 284.800,321.200 284.967,321.200 285.171 C 321.200 285.978,322.527 286.800,323.829 286.800 C 325.025 286.800,325.200 286.928,325.200 287.800 C 325.200 288.600,325.400 288.800,326.200 288.800 C 327.000 288.800,327.200 289.000,327.200 289.800 C 327.200 290.600,327.400 290.800,328.200 290.800 C 329.000 290.800,329.200 291.000,329.200 291.800 C 329.200 292.595,329.401 292.800,330.182 292.800 C 330.722 292.800,331.614 293.250,332.164 293.800 C 332.714 294.350,333.609 294.800,334.154 294.800 C 334.876 294.800,335.179 295.043,335.272 295.700 L 335.400 296.600 352.100 296.704 L 368.800 296.809 368.800 200.004 L 368.800 103.200 352.000 103.200 L 335.200 103.200 335.200 104.200 C 335.200 105.005,335.001 105.200,334.182 105.200 C 333.622 105.200,332.714 105.650,332.164 106.200 C 331.614 106.750,330.722 107.200,330.182 107.200 C 329.401 107.200,329.200 107.405,329.200 108.200 C 329.200 109.000,329.000 109.200,328.200 109.200 C 327.400 109.200,327.200 109.400,327.200 110.200 C 327.200 111.000,327.000 111.200,326.200 111.200 C 325.400 111.200,325.200 111.400,325.200 112.200 C 325.200 113.072,325.025 113.200,323.829 113.200 C 322.527 113.200,321.200 114.022,321.200 114.829 C 321.200 115.033,320.750 115.200,320.200 115.200 C 319.400 115.200,319.200 115.400,319.200 116.200 C 319.200 117.000,319.000 117.200,318.200 117.200 C 317.400 117.200,317.200 117.400,317.200 118.200 C 317.200 119.000,317.000 119.200,316.200 119.200 C 315.400 119.200,315.200 119.400,315.200 120.200 C 315.200 121.072,315.025 121.200,313.829 121.200 C 312.527 121.200,311.200 122.022,311.200 122.829 C 311.200 123.033,310.750 123.200,310.200 123.200 C 309.400 123.200,309.200 123.400,309.200 124.200 C 309.200 125.000,309.000 125.200,308.200 125.200 C 307.400 125.200,307.200 125.400,307.200 126.200 C 307.200 127.000,307.000 127.200,306.200 127.200 C 305.400 127.200,305.200 127.400,305.200 128.200 C 305.200 129.072,305.025 129.200,303.829 129.200 C 302.527 129.200,301.200 130.022,301.200 130.829 C 301.200 131.033,300.750 131.200,300.200 131.200 C 299.400 131.200,299.200 131.400,299.200 132.200 C 299.200 133.000,299.000 133.200,298.200 133.200 C 297.400 133.200,297.200 133.400,297.200 134.200 C 297.200 135.000,297.000 135.200,296.200 135.200 C 295.400 135.200,295.200 135.400,295.200 136.200 C 295.200 137.072,295.025 137.200,293.829 137.200 C 292.527 137.200,291.200 138.022,291.200 138.829 C 291.200 139.033,290.750 139.200,290.200 139.200 C 289.400 139.200,289.200 139.400,289.200 140.200 C 289.200 141.000,289.000 141.200,288.200 141.200 C 287.400 141.200,287.200 141.400,287.200 142.200 C 287.200 143.000,287.000 143.200,286.200 143.200 L 285.200 143.200 285.200 131.833 C 285.200 119.777,285.143 119.200,283.957 119.200 C 283.318 119.200,283.200 118.897,283.200 117.258 C 283.200 115.757,282.980 115.079,282.229 114.269 C 281.695 113.693,281.200 112.812,281.129 112.311 C 281.048 111.737,280.682 111.355,280.142 111.278 C 279.460 111.180,279.229 110.787,279.015 109.357 C 278.804 107.951,278.533 107.479,277.772 107.190 C 277.200 106.972,276.800 106.498,276.800 106.038 C 276.800 105.531,276.483 105.211,275.900 105.128 C 275.322 105.046,274.954 104.678,274.872 104.100 C 274.781 103.457,274.475 103.200,273.800 103.200 C 273.125 103.200,272.819 102.943,272.728 102.300 C 272.622 101.554,272.313 101.379,270.925 101.278 C 269.551 101.178,269.227 100.999,269.125 100.278 C 269.042 99.693,268.669 99.353,268.009 99.260 C 267.464 99.183,266.618 98.688,266.128 98.160 C 265.420 97.396,264.834 97.200,263.262 97.200 C 261.489 97.200,261.261 97.098,261.036 96.200 L 260.785 95.200 157.992 95.200 L 55.200 95.200 55.200 96.200 M252.496 103.563 C 254.689 103.755,256.255 104.099,256.696 104.484 C 257.083 104.822,258.112 105.227,258.982 105.383 C 259.852 105.539,261.081 106.102,261.713 106.634 C 262.345 107.165,263.116 107.600,263.427 107.600 C 263.739 107.600,264.218 107.960,264.493 108.400 C 264.768 108.840,265.205 109.200,265.464 109.200 C 266.449 109.200,272.800 116.301,272.800 117.402 C 272.800 117.663,273.156 118.199,273.592 118.593 C 274.028 118.987,274.500 119.960,274.641 120.755 C 274.782 121.550,275.280 122.830,275.749 123.600 L 276.600 125.000 276.600 200.000 L 276.600 275.000 275.700 276.447 C 275.205 277.243,274.797 278.233,274.794 278.647 C 274.791 279.061,274.525 279.850,274.203 280.400 C 273.881 280.950,273.246 282.165,272.790 283.100 C 272.335 284.035,271.701 284.800,271.381 284.800 C 271.062 284.800,270.800 285.078,270.800 285.417 C 270.800 286.215,266.280 290.800,265.493 290.800 C 265.163 290.800,264.806 291.135,264.699 291.544 C 264.592 291.952,263.986 292.416,263.352 292.573 C 262.718 292.731,261.821 293.213,261.357 293.645 C 260.894 294.078,259.814 294.544,258.957 294.682 C 258.101 294.819,256.890 295.307,256.266 295.766 L 255.133 296.600 158.000 296.600 L 60.867 296.600 59.734 295.766 C 59.110 295.307,57.899 294.819,57.043 294.682 C 56.186 294.544,55.106 294.099,54.643 293.692 C 54.179 293.285,53.300 292.740,52.689 292.480 C 52.078 292.220,51.473 291.735,51.346 291.403 C 51.219 291.072,50.878 290.800,50.589 290.800 C 49.936 290.800,45.200 286.110,45.200 285.464 C 45.200 285.205,44.840 284.768,44.400 284.493 C 43.960 284.218,43.600 283.739,43.600 283.427 C 43.600 283.116,43.176 282.353,42.658 281.731 C 42.139 281.109,41.584 279.880,41.424 279.000 C 41.264 278.120,40.848 277.083,40.501 276.696 C 39.350 275.413,39.257 269.771,39.248 200.400 C 39.239 130.978,39.342 124.595,40.500 123.305 C 40.848 122.917,41.256 121.935,41.406 121.123 C 41.557 120.311,42.112 119.061,42.640 118.346 C 43.168 117.630,43.600 116.811,43.600 116.526 C 43.600 116.240,43.960 115.782,44.400 115.507 C 44.840 115.232,45.200 114.831,45.200 114.615 C 45.200 114.086,50.066 109.200,50.592 109.200 C 50.821 109.200,51.232 108.840,51.507 108.400 C 51.782 107.960,52.240 107.600,52.526 107.600 C 52.811 107.600,53.630 107.168,54.346 106.640 C 55.061 106.112,56.311 105.557,57.123 105.406 C 57.935 105.256,58.927 104.838,59.328 104.479 C 59.811 104.046,61.154 103.742,63.328 103.575 C 68.075 103.211,248.343 103.199,252.496 103.563 M359.911 111.823 L 360.800 112.445 360.800 199.994 C 360.800 279.051,360.739 287.604,360.171 288.171 C 359.028 289.315,344.646 289.086,343.823 287.911 C 343.266 287.116,343.200 280.422,343.200 224.311 L 343.200 161.600 342.047 161.600 C 340.335 161.600,340.411 158.691,340.405 224.471 C 340.401 279.420,340.337 285.606,339.772 286.171 C 339.074 286.869,337.741 286.433,337.335 285.374 C 337.213 285.058,336.932 284.800,336.710 284.800 C 336.488 284.800,335.652 284.264,334.853 283.609 C 334.054 282.954,332.887 282.009,332.261 281.509 C 330.232 279.890,328.721 278.619,327.732 277.700 C 327.199 277.205,326.661 276.800,326.535 276.800 C 326.409 276.800,325.652 276.264,324.853 275.609 C 324.054 274.954,322.887 274.009,322.261 273.509 C 320.232 271.890,318.721 270.619,317.732 269.700 C 317.199 269.205,316.661 268.800,316.535 268.800 C 316.409 268.800,315.652 268.264,314.853 267.609 C 314.054 266.954,312.887 266.009,312.261 265.509 C 310.232 263.890,308.721 262.619,307.732 261.700 C 307.199 261.205,306.661 260.800,306.535 260.800 C 306.409 260.800,305.721 260.305,305.007 259.700 C 304.293 259.095,303.119 258.150,302.398 257.600 C 300.769 256.357,298.998 254.877,297.732 253.700 C 297.199 253.205,296.661 252.800,296.535 252.800 C 296.409 252.800,295.721 252.305,295.007 251.700 C 294.293 251.095,293.119 250.150,292.398 249.600 C 290.769 248.357,288.998 246.877,287.732 245.700 C 287.199 245.205,286.610 244.800,286.423 244.800 C 286.236 244.800,285.524 244.164,284.841 243.386 L 283.600 241.972 283.600 199.946 L 283.600 157.920 285.100 156.520 C 285.925 155.751,286.966 154.779,287.414 154.360 C 287.862 153.942,288.381 153.600,288.568 153.600 C 288.755 153.600,289.312 153.195,289.805 152.700 C 291.118 151.383,292.359 150.358,294.536 148.792 C 295.601 148.026,296.849 146.995,297.308 146.500 C 297.768 146.005,298.316 145.600,298.526 145.600 C 298.736 145.600,299.312 145.195,299.805 144.700 C 301.118 143.383,302.359 142.358,304.536 140.792 C 305.601 140.026,306.849 138.995,307.308 138.500 C 307.768 138.005,308.316 137.600,308.526 137.600 C 308.736 137.600,309.312 137.195,309.805 136.700 C 311.118 135.383,312.359 134.358,314.536 132.792 C 315.601 132.026,316.849 130.995,317.308 130.500 C 317.768 130.005,318.316 129.600,318.526 129.600 C 318.736 129.600,319.312 129.195,319.805 128.700 C 321.118 127.383,322.359 126.358,324.536 124.792 C 325.601 124.026,326.849 122.995,327.308 122.500 C 327.768 122.005,328.316 121.600,328.526 121.600 C 328.736 121.600,329.303 121.195,329.786 120.700 C 330.848 119.611,331.964 118.687,334.600 116.716 C 335.700 115.894,337.020 114.856,337.534 114.411 C 339.966 112.300,340.399 113.380,340.405 121.580 C 340.412 129.967,340.493 130.400,342.047 130.400 L 343.200 130.400 343.200 121.600 C 343.200 110.259,342.412 111.200,351.911 111.200 C 357.700 111.200,359.187 111.316,359.911 111.823 M56.800 140.000 L 56.800 142.400 58.000 142.400 L 59.200 142.400 59.200 140.000 L 59.200 137.600 58.000 137.600 L 56.800 137.600 56.800 140.000 M340.652 142.500 C 340.519 142.995,340.411 144.570,340.411 146.000 C 340.411 149.735,340.658 150.400,342.047 150.400 L 343.200 150.400 343.200 146.000 L 343.200 141.600 342.047 141.600 C 341.189 141.600,340.832 141.831,340.652 142.500 M56.800 166.000 L 56.800 174.400 58.000 174.400 L 59.200 174.400 59.200 166.000 L 59.200 157.600 58.000 157.600 L 56.800 157.600 56.800 166.000 M56.800 224.000 L 56.800 262.400 58.000 262.400 L 59.200 262.400 59.200 224.000 L 59.200 185.600 58.000 185.600 L 56.800 185.600 56.800 224.000 " stroke="none" fill="#1c242c" fill-rule="evenodd"></path><path id="path1" d="M111.300 104.700 C 136.985 104.757,179.015 104.757,204.700 104.700 C 230.385 104.643,209.370 104.597,158.000 104.597 C 106.630 104.597,85.615 104.643,111.300 104.700 M61.200 105.390 C 60.650 105.698,59.505 106.071,58.655 106.218 C 57.805 106.365,56.475 106.916,55.699 107.443 C 54.923 107.969,54.117 108.400,53.908 108.400 C 52.711 108.400,44.400 116.707,44.400 117.903 C 44.400 118.115,43.976 118.914,43.457 119.678 C 42.938 120.442,42.383 121.766,42.223 122.620 C 42.062 123.474,41.677 124.665,41.366 125.266 C 41.055 125.868,40.815 126.864,40.832 127.480 C 40.885 129.288,42.258 126.002,42.602 123.243 C 42.788 121.758,43.127 120.846,43.624 120.498 C 44.033 120.211,44.484 119.361,44.625 118.608 C 44.776 117.801,45.276 116.980,45.841 116.610 C 46.368 116.264,46.800 115.810,46.800 115.599 C 46.800 115.101,51.101 110.800,51.599 110.800 C 51.810 110.800,52.264 110.368,52.610 109.841 C 52.980 109.276,53.801 108.776,54.608 108.625 C 55.361 108.484,56.207 108.041,56.489 107.641 C 56.823 107.167,57.762 106.819,59.200 106.638 C 62.002 106.286,65.308 104.875,63.400 104.847 C 62.740 104.837,61.750 105.081,61.200 105.390 M253.042 105.563 C 253.945 105.973,255.654 106.442,256.840 106.606 C 258.204 106.793,259.181 107.166,259.499 107.619 C 259.775 108.014,260.586 108.464,261.300 108.620 C 262.015 108.775,262.960 109.245,263.400 109.664 C 265.619 111.776,266.865 112.800,267.214 112.800 C 267.426 112.800,267.600 113.019,267.600 113.286 C 267.600 113.553,268.005 114.193,268.500 114.708 C 268.995 115.222,269.777 116.038,270.238 116.522 C 270.699 117.005,271.198 117.900,271.348 118.510 C 271.498 119.121,271.947 119.947,272.345 120.345 C 272.744 120.744,273.297 122.222,273.574 123.630 C 273.851 125.038,274.330 126.678,274.639 127.275 C 275.486 128.913,275.480 271.099,274.633 272.737 C 274.321 273.340,273.861 274.961,273.611 276.338 C 273.361 277.720,272.826 279.174,272.419 279.581 C 272.013 279.987,271.558 280.878,271.408 281.563 C 271.258 282.247,270.790 282.991,270.367 283.217 C 269.945 283.443,269.600 283.859,269.600 284.142 C 269.600 284.425,269.195 285.048,268.700 285.527 C 267.560 286.631,266.631 287.560,265.527 288.700 C 265.048 289.195,264.425 289.600,264.142 289.600 C 263.859 289.600,263.443 289.945,263.217 290.367 C 262.991 290.790,262.247 291.258,261.563 291.408 C 260.878 291.558,259.987 292.013,259.581 292.419 C 259.175 292.825,257.759 293.354,256.433 293.594 C 255.108 293.834,253.394 294.294,252.625 294.615 C 250.520 295.495,65.490 295.499,63.386 294.620 C 62.622 294.301,60.889 293.822,59.534 293.555 C 58.179 293.289,56.744 292.744,56.345 292.345 C 55.947 291.947,55.121 291.498,54.510 291.348 C 53.900 291.198,53.005 290.699,52.522 290.238 C 52.038 289.777,51.222 288.995,50.708 288.500 C 50.193 288.005,49.553 287.600,49.286 287.600 C 49.019 287.600,48.800 287.426,48.800 287.214 C 48.800 286.865,47.776 285.619,45.664 283.400 C 45.245 282.960,44.775 282.015,44.620 281.300 C 44.464 280.586,44.014 279.775,43.619 279.499 C 43.160 279.177,42.796 278.206,42.608 276.798 C 42.242 274.070,40.838 270.720,40.815 272.520 C 40.807 273.136,41.065 274.152,41.389 274.778 C 41.712 275.404,42.094 276.650,42.238 277.547 C 42.381 278.444,42.927 279.758,43.449 280.467 C 43.972 281.176,44.400 281.952,44.400 282.192 C 44.400 282.789,46.133 284.840,49.000 287.635 C 52.462 291.011,53.058 291.502,54.082 291.820 C 54.587 291.977,55.478 292.441,56.062 292.852 C 56.646 293.264,57.315 293.600,57.549 293.600 C 57.784 293.600,59.354 294.050,61.039 294.600 L 64.102 295.600 158.151 295.587 C 250.100 295.574,252.249 295.557,254.400 294.800 C 255.610 294.374,256.857 294.020,257.170 294.013 C 260.250 293.943,269.783 286.308,271.516 282.523 C 271.899 281.685,272.515 280.550,272.885 280.000 C 273.254 279.450,273.755 278.107,273.998 277.016 C 274.242 275.925,274.657 274.773,274.920 274.455 C 275.288 274.012,275.425 256.934,275.507 201.039 L 275.613 128.200 274.607 125.075 C 274.053 123.357,273.600 121.716,273.600 121.429 C 273.600 121.142,273.265 120.479,272.855 119.954 C 272.445 119.429,271.971 118.550,271.801 118.000 C 271.461 116.904,271.155 116.535,267.659 113.000 C 264.769 110.078,262.774 108.400,262.192 108.400 C 261.952 108.400,261.176 107.972,260.467 107.449 C 259.758 106.927,258.444 106.381,257.547 106.238 C 256.650 106.094,255.404 105.712,254.778 105.389 C 254.152 105.065,253.136 104.804,252.520 104.809 C 251.475 104.817,251.511 104.868,253.042 105.563 M344.675 112.658 C 344.524 112.809,344.400 116.762,344.400 121.441 C 344.400 131.715,344.326 132.000,341.653 132.000 C 339.120 132.000,339.205 132.313,339.175 122.867 C 339.158 117.756,339.023 115.315,338.788 115.900 C 338.589 116.395,338.081 116.800,337.660 116.800 C 337.230 116.800,336.802 117.151,336.685 117.598 C 336.570 118.037,336.144 118.518,335.738 118.667 C 335.332 118.816,334.640 119.273,334.200 119.681 C 332.190 121.548,330.440 122.800,329.837 122.800 C 329.476 122.800,329.009 123.250,328.800 123.800 C 328.578 124.384,328.103 124.800,327.657 124.800 C 327.230 124.800,326.801 125.152,326.685 125.598 C 326.570 126.037,326.144 126.518,325.738 126.667 C 325.332 126.816,324.640 127.273,324.200 127.681 C 322.190 129.548,320.440 130.800,319.837 130.800 C 319.476 130.800,319.009 131.250,318.800 131.800 C 318.578 132.384,318.103 132.800,317.657 132.800 C 317.230 132.800,316.801 133.152,316.685 133.598 C 316.570 134.037,316.144 134.518,315.738 134.667 C 315.332 134.816,314.640 135.273,314.200 135.681 C 312.190 137.548,310.440 138.800,309.837 138.800 C 309.476 138.800,309.009 139.250,308.800 139.800 C 308.578 140.384,308.103 140.800,307.657 140.800 C 307.230 140.800,306.801 141.152,306.685 141.598 C 306.570 142.037,306.144 142.518,305.738 142.667 C 305.332 142.816,304.640 143.273,304.200 143.681 C 302.261 145.483,300.450 146.800,299.911 146.800 C 299.591 146.800,299.123 147.250,298.873 147.800 C 298.619 148.357,298.080 148.800,297.655 148.800 C 297.230 148.800,296.801 149.153,296.685 149.598 C 296.570 150.037,296.144 150.518,295.738 150.667 C 295.332 150.816,294.640 151.273,294.200 151.681 C 292.261 153.483,290.450 154.800,289.911 154.800 C 289.591 154.800,289.123 155.250,288.873 155.800 C 288.619 156.357,288.080 156.800,287.655 156.800 C 287.221 156.800,286.800 157.156,286.676 157.630 C 286.557 158.086,286.086 158.557,285.630 158.676 L 284.800 158.893 284.800 199.982 L 284.800 241.072 285.800 241.527 C 286.350 241.778,286.800 242.237,286.800 242.548 C 286.800 242.859,287.238 243.223,287.773 243.358 C 288.309 243.492,288.861 243.961,289.000 244.401 C 289.140 244.840,289.533 245.200,289.874 245.200 C 290.449 245.200,292.292 246.533,294.200 248.328 C 294.640 248.742,295.405 249.294,295.900 249.554 C 296.395 249.815,296.800 250.272,296.800 250.571 C 296.800 250.869,297.238 251.223,297.773 251.358 C 298.309 251.492,298.861 251.961,299.000 252.401 C 299.140 252.840,299.533 253.200,299.874 253.200 C 300.449 253.200,302.292 254.533,304.200 256.328 C 304.640 256.742,305.405 257.294,305.900 257.554 C 306.395 257.815,306.800 258.272,306.800 258.571 C 306.800 258.869,307.228 259.221,307.752 259.352 C 308.276 259.484,308.799 259.953,308.915 260.396 C 309.030 260.838,309.422 261.200,309.784 261.200 C 310.147 261.200,311.019 261.739,311.722 262.398 C 312.425 263.057,313.231 263.597,313.513 263.598 C 313.794 263.599,314.131 263.877,314.261 264.215 C 314.391 264.553,315.015 265.098,315.648 265.425 C 316.282 265.753,316.800 266.266,316.800 266.567 C 316.800 266.867,317.228 267.221,317.752 267.352 C 318.276 267.484,318.799 267.953,318.915 268.396 C 319.030 268.838,319.422 269.200,319.784 269.200 C 320.147 269.200,321.019 269.739,321.722 270.398 C 322.425 271.057,323.231 271.597,323.513 271.598 C 323.794 271.599,324.131 271.877,324.261 272.215 C 324.391 272.553,325.015 273.098,325.648 273.425 C 326.282 273.753,326.800 274.266,326.800 274.567 C 326.800 274.867,327.228 275.221,327.752 275.352 C 328.276 275.484,328.799 275.953,328.915 276.396 C 329.030 276.838,329.422 277.200,329.784 277.200 C 330.147 277.200,331.019 277.739,331.722 278.398 C 332.425 279.057,333.231 279.597,333.513 279.598 C 333.794 279.599,334.131 279.877,334.261 280.215 C 334.391 280.553,335.015 281.098,335.648 281.425 C 336.282 281.753,336.800 282.266,336.800 282.567 C 336.800 282.867,337.237 283.223,337.771 283.357 C 338.305 283.491,338.824 283.915,338.924 284.300 C 339.025 284.685,339.128 257.091,339.154 222.980 C 339.189 175.328,339.311 160.849,339.680 160.480 C 340.395 159.765,343.006 159.885,343.651 160.661 C 344.109 161.214,344.233 171.736,344.400 224.361 L 344.600 287.400 352.101 287.509 L 359.602 287.618 359.501 200.109 L 359.400 112.600 352.175 112.491 C 348.202 112.431,344.827 112.506,344.675 112.658 M359.200 200.000 L 359.200 287.200 352.000 287.200 L 344.800 287.200 344.794 224.100 C 344.790 187.424,344.637 160.762,344.428 160.431 C 344.230 160.119,343.288 159.759,342.334 159.631 L 340.600 159.400 340.484 156.100 L 340.368 152.800 341.784 152.800 C 344.420 152.800,344.801 151.951,344.794 146.100 C 344.787 140.238,344.675 139.944,342.334 139.631 L 340.600 139.400 340.484 136.100 L 340.368 132.800 341.784 132.800 C 344.691 132.800,344.800 132.410,344.800 122.000 L 344.800 112.800 352.000 112.800 L 359.200 112.800 359.200 200.000 M40.596 200.000 C 40.596 239.270,40.643 255.335,40.700 235.700 C 40.757 216.065,40.757 183.935,40.700 164.300 C 40.643 144.665,40.596 160.730,40.596 200.000 M56.099 136.100 C 54.986 137.498,55.251 143.679,56.458 144.444 C 57.409 145.047,59.174 144.826,60.000 144.000 C 61.055 142.945,61.181 137.238,60.171 136.229 C 59.420 135.477,56.665 135.390,56.099 136.100 M59.777 136.889 C 62.102 140.208,58.858 146.362,56.367 143.360 C 55.654 142.502,55.654 137.498,56.367 136.640 C 57.152 135.694,59.037 135.831,59.777 136.889 M343.777 140.889 C 344.501 141.922,344.669 149.240,344.010 150.974 C 343.533 152.229,339.894 152.543,339.443 151.367 C 338.976 150.150,339.175 140.985,339.680 140.480 C 340.525 139.635,343.078 139.890,343.777 140.889 M55.958 156.251 C 54.747 157.710,55.009 174.952,56.261 176.204 C 57.106 177.049,59.057 176.943,60.000 176.000 C 61.097 174.903,61.249 157.306,60.171 156.229 C 59.336 155.394,56.657 155.408,55.958 156.251 M59.777 156.889 C 60.291 157.622,60.400 159.193,60.400 165.863 C 60.400 175.170,60.225 176.000,58.259 176.000 C 55.888 176.000,55.800 175.641,55.800 166.000 C 55.800 156.527,55.917 156.000,58.026 156.000 C 58.739 156.000,59.384 156.328,59.777 156.889 M55.949 184.261 C 55.359 184.972,54.861 255.757,55.408 261.104 C 55.775 264.691,57.942 266.058,60.000 264.000 C 61.112 262.888,61.278 185.335,60.171 184.229 C 59.330 183.388,56.657 183.408,55.949 184.261 M59.777 184.889 C 60.520 185.949,60.743 261.045,60.010 262.974 C 59.541 264.207,57.259 264.435,56.349 263.339 C 55.531 262.352,55.531 185.648,56.349 184.661 C 57.150 183.697,59.030 183.822,59.777 184.889 " stroke="none" fill="#64bc94" fill-rule="evenodd"></path><path id="path2" d="M63.000 105.613 C 62.120 106.025,60.410 106.486,59.200 106.638 C 57.762 106.819,56.823 107.167,56.489 107.641 C 56.207 108.041,55.361 108.484,54.608 108.625 C 53.801 108.776,52.980 109.276,52.610 109.841 C 52.264 110.368,51.810 110.800,51.599 110.800 C 51.101 110.800,46.800 115.101,46.800 115.599 C 46.800 115.810,46.368 116.264,45.841 116.610 C 45.276 116.980,44.776 117.801,44.625 118.608 C 44.484 119.361,44.038 120.208,43.635 120.490 C 43.157 120.825,42.801 121.769,42.612 123.202 C 42.452 124.411,41.979 126.188,41.561 127.151 C 40.374 129.883,40.369 270.288,41.556 272.922 C 41.972 273.845,42.445 275.589,42.607 276.798 C 42.796 278.205,43.160 279.177,43.619 279.499 C 44.014 279.775,44.464 280.586,44.620 281.300 C 44.775 282.015,45.245 282.960,45.664 283.400 C 47.776 285.619,48.800 286.865,48.800 287.214 C 48.800 287.426,49.019 287.600,49.286 287.600 C 49.553 287.600,50.193 288.005,50.708 288.500 C 51.222 288.995,52.038 289.777,52.522 290.238 C 53.005 290.699,53.900 291.198,54.510 291.348 C 55.121 291.498,55.947 291.947,56.345 292.345 C 56.744 292.744,58.179 293.289,59.534 293.555 C 60.889 293.822,62.622 294.301,63.386 294.620 C 65.490 295.499,250.520 295.495,252.625 294.615 C 253.394 294.294,255.108 293.834,256.433 293.594 C 257.759 293.354,259.175 292.825,259.581 292.419 C 259.987 292.013,260.878 291.558,261.563 291.408 C 262.247 291.258,262.991 290.790,263.217 290.367 C 263.443 289.945,263.859 289.600,264.142 289.600 C 264.425 289.600,265.048 289.195,265.527 288.700 C 266.006 288.205,266.714 287.485,267.099 287.099 C 267.485 286.714,268.205 286.006,268.700 285.527 C 269.195 285.048,269.600 284.425,269.600 284.142 C 269.600 283.859,269.945 283.443,270.367 283.217 C 270.790 282.991,271.258 282.247,271.408 281.563 C 271.558 280.878,272.013 279.987,272.419 279.581 C 272.826 279.174,273.361 277.720,273.611 276.338 C 273.861 274.961,274.321 273.340,274.633 272.737 C 275.480 271.099,275.486 128.913,274.639 127.275 C 274.330 126.678,273.851 125.038,273.574 123.630 C 273.297 122.222,272.744 120.744,272.345 120.345 C 271.947 119.947,271.498 119.121,271.348 118.510 C 271.198 117.900,270.699 117.005,270.238 116.522 C 269.777 116.038,268.995 115.222,268.500 114.708 C 268.005 114.193,267.600 113.553,267.600 113.286 C 267.600 113.019,267.426 112.800,267.214 112.800 C 266.865 112.800,265.619 111.776,263.400 109.664 C 262.960 109.245,262.015 108.775,261.300 108.620 C 260.586 108.464,259.775 108.014,259.499 107.619 C 259.181 107.166,258.204 106.793,256.840 106.606 C 255.654 106.442,253.945 105.973,253.042 105.563 C 250.470 104.395,65.501 104.444,63.000 105.613 M344.800 122.000 C 344.800 132.410,344.691 132.800,341.784 132.800 L 340.368 132.800 340.484 136.100 L 340.600 139.400 342.334 139.631 C 344.675 139.944,344.787 140.238,344.794 146.100 C 344.801 151.951,344.420 152.800,341.784 152.800 L 340.368 152.800 340.484 156.100 L 340.600 159.400 342.334 159.631 C 343.288 159.759,344.230 160.119,344.428 160.431 C 344.637 160.762,344.790 187.424,344.794 224.100 L 344.800 287.200 352.000 287.200 L 359.200 287.200 359.200 200.000 L 359.200 112.800 352.000 112.800 L 344.800 112.800 344.800 122.000 M60.171 136.229 C 61.181 137.238,61.055 142.945,60.000 144.000 C 57.349 146.651,54.721 143.423,55.442 138.400 C 55.842 135.616,58.390 134.447,60.171 136.229 M60.171 156.229 C 61.249 157.306,61.097 174.903,60.000 176.000 C 59.057 176.943,57.106 177.049,56.261 176.204 C 55.009 174.952,54.747 157.710,55.958 156.251 C 56.657 155.408,59.336 155.394,60.171 156.229 M60.171 184.229 C 61.278 185.335,61.112 262.888,60.000 264.000 C 57.942 266.058,55.775 264.691,55.408 261.104 C 54.861 255.757,55.359 184.972,55.949 184.261 C 56.657 183.408,59.330 183.388,60.171 184.229 " stroke="none" fill="#a4d4a4" fill-rule="evenodd"></path><path id="path3" d="M111.668 104.300 C 137.115 104.357,178.875 104.357,204.468 104.300 C 230.061 104.243,209.240 104.197,158.200 104.197 C 107.160 104.197,86.221 104.243,111.668 104.300 M62.900 104.676 C 63.285 104.776,63.915 104.776,64.300 104.676 C 64.685 104.575,64.370 104.493,63.600 104.493 C 62.830 104.493,62.515 104.575,62.900 104.676 M252.600 104.811 C 253.480 104.982,254.920 105.401,255.800 105.743 C 256.680 106.085,257.760 106.369,258.200 106.374 C 258.640 106.379,257.740 105.938,256.200 105.393 C 254.660 104.849,252.860 104.425,252.200 104.452 C 251.140 104.495,251.186 104.536,252.600 104.811 M60.639 105.100 C 60.477 105.265,59.592 105.621,58.672 105.892 L 57.000 106.384 58.592 106.157 C 60.298 105.913,62.670 104.844,61.567 104.816 C 61.218 104.807,60.801 104.935,60.639 105.100 M54.800 107.444 C 51.851 109.057,48.498 111.963,45.683 115.344 C 44.477 116.792,42.149 121.106,42.918 120.468 C 43.246 120.196,43.747 119.394,44.032 118.687 C 45.238 115.690,51.697 109.230,54.687 108.030 C 55.394 107.746,56.181 107.263,56.436 106.957 C 57.028 106.244,56.955 106.265,54.800 107.444 M260.411 107.413 C 260.813 107.898,263.200 108.932,263.200 108.621 C 263.200 108.545,262.474 108.125,261.588 107.686 C 260.687 107.240,260.167 107.120,260.411 107.413 M263.600 109.120 C 263.600 109.334,264.095 109.832,264.700 110.228 C 266.174 111.193,270.000 115.043,270.000 115.560 C 270.000 115.786,270.405 116.183,270.900 116.440 C 271.776 116.896,271.773 116.877,270.809 115.754 C 267.484 111.881,263.600 108.306,263.600 109.120 M344.480 112.480 C 344.130 112.830,344.024 115.351,344.088 121.780 L 344.177 130.600 344.388 121.600 L 344.600 112.600 352.000 112.600 L 359.400 112.600 359.501 200.109 L 359.602 287.618 352.101 287.509 L 344.600 287.400 344.400 224.361 C 344.233 171.736,344.109 161.214,343.651 160.661 C 343.006 159.885,340.395 159.765,339.680 160.480 C 339.311 160.849,339.189 175.328,339.154 222.980 C 339.128 257.091,339.025 284.685,338.924 284.300 C 338.824 283.915,338.305 283.491,337.771 283.357 C 337.237 283.223,336.800 282.867,336.800 282.567 C 336.800 282.266,336.282 281.753,335.648 281.425 C 335.015 281.098,334.391 280.553,334.261 280.215 C 334.131 279.877,333.794 279.599,333.513 279.598 C 333.231 279.597,332.425 279.057,331.722 278.398 C 331.019 277.739,330.147 277.200,329.784 277.200 C 329.422 277.200,329.030 276.838,328.915 276.396 C 328.799 275.953,328.276 275.484,327.752 275.352 C 327.228 275.221,326.800 274.867,326.800 274.567 C 326.800 274.266,326.282 273.753,325.648 273.425 C 325.015 273.098,324.391 272.553,324.261 272.215 C 324.131 271.877,323.794 271.599,323.513 271.598 C 323.231 271.597,322.425 271.057,321.722 270.398 C 321.019 269.739,320.147 269.200,319.784 269.200 C 319.422 269.200,319.030 268.838,318.915 268.396 C 318.799 267.953,318.276 267.484,317.752 267.352 C 317.228 267.221,316.800 266.867,316.800 266.567 C 316.800 266.266,316.282 265.753,315.648 265.425 C 315.015 265.098,314.391 264.553,314.261 264.215 C 314.131 263.877,313.794 263.599,313.513 263.598 C 313.231 263.597,312.425 263.057,311.722 262.398 C 311.019 261.739,310.147 261.200,309.784 261.200 C 309.422 261.200,309.030 260.838,308.915 260.396 C 308.799 259.953,308.276 259.484,307.752 259.352 C 307.228 259.221,306.800 258.869,306.800 258.571 C 306.800 258.272,306.395 257.815,305.900 257.554 C 305.405 257.294,304.640 256.742,304.200 256.328 C 302.292 254.533,300.449 253.200,299.874 253.200 C 299.533 253.200,299.140 252.840,299.000 252.401 C 298.861 251.961,298.309 251.492,297.773 251.358 C 297.238 251.223,296.800 250.869,296.800 250.571 C 296.800 250.272,296.395 249.815,295.900 249.554 C 295.405 249.294,294.640 248.742,294.200 248.328 C 292.292 246.533,290.449 245.200,289.874 245.200 C 289.533 245.200,289.140 244.840,289.000 244.401 C 288.861 243.961,288.309 243.492,287.773 243.358 C 287.238 243.223,286.800 242.859,286.800 242.548 C 286.800 242.237,286.350 241.778,285.800 241.527 L 284.800 241.072 284.800 199.982 L 284.800 158.893 285.630 158.676 C 286.086 158.557,286.557 158.086,286.676 157.630 C 286.800 157.156,287.221 156.800,287.655 156.800 C 288.080 156.800,288.619 156.357,288.873 155.800 C 289.123 155.250,289.591 154.800,289.911 154.800 C 290.450 154.800,292.261 153.483,294.200 151.681 C 294.640 151.273,295.332 150.816,295.738 150.667 C 296.144 150.518,296.570 150.037,296.685 149.598 C 296.801 149.153,297.230 148.800,297.655 148.800 C 298.080 148.800,298.619 148.357,298.873 147.800 C 299.123 147.250,299.591 146.800,299.911 146.800 C 300.450 146.800,302.261 145.483,304.200 143.681 C 304.640 143.273,305.332 142.816,305.738 142.667 C 306.144 142.518,306.570 142.037,306.685 141.598 C 306.801 141.152,307.230 140.800,307.657 140.800 C 308.103 140.800,308.578 140.384,308.800 139.800 C 309.009 139.250,309.476 138.800,309.837 138.800 C 310.440 138.800,312.190 137.548,314.200 135.681 C 314.640 135.273,315.332 134.816,315.738 134.667 C 316.144 134.518,316.570 134.037,316.685 133.598 C 316.801 133.152,317.230 132.800,317.657 132.800 C 318.103 132.800,318.578 132.384,318.800 131.800 C 319.009 131.250,319.476 130.800,319.837 130.800 C 320.440 130.800,322.190 129.548,324.200 127.681 C 324.640 127.273,325.332 126.816,325.738 126.667 C 326.144 126.518,326.570 126.037,326.685 125.598 C 326.801 125.152,327.230 124.800,327.657 124.800 C 328.103 124.800,328.578 124.384,328.800 123.800 C 329.009 123.250,329.476 122.800,329.837 122.800 C 330.440 122.800,332.190 121.548,334.200 119.681 C 334.640 119.273,335.332 118.816,335.738 118.667 C 336.144 118.518,336.570 118.037,336.685 117.598 C 336.802 117.151,337.230 116.800,337.660 116.800 C 338.081 116.800,338.589 116.395,338.788 115.900 C 339.023 115.315,339.160 117.803,339.181 123.000 C 339.198 127.400,339.362 131.236,339.545 131.524 C 340.018 132.270,343.672 132.000,343.934 131.200 C 344.099 130.695,344.029 130.683,343.491 131.127 C 343.140 131.417,342.256 131.597,341.526 131.527 L 340.200 131.400 340.000 123.320 C 339.783 114.536,339.591 113.790,337.933 115.290 C 336.514 116.574,333.958 118.574,333.522 118.741 C 333.320 118.818,332.738 119.268,332.229 119.741 C 331.720 120.213,330.856 120.960,330.310 121.400 C 329.763 121.840,328.646 122.740,327.826 123.400 C 327.006 124.060,325.765 125.092,325.068 125.694 C 324.370 126.295,323.673 126.790,323.518 126.794 C 323.363 126.797,322.801 127.205,322.270 127.700 C 321.738 128.195,320.856 128.960,320.310 129.400 C 319.763 129.840,318.646 130.740,317.826 131.400 C 317.006 132.060,315.765 133.092,315.068 133.694 C 314.370 134.295,313.673 134.790,313.518 134.794 C 313.363 134.797,312.809 135.205,312.286 135.700 C 311.763 136.195,310.752 137.050,310.039 137.600 C 309.326 138.150,308.334 138.960,307.835 139.400 C 307.335 139.840,306.313 140.679,305.563 141.264 C 304.814 141.850,303.480 142.890,302.600 143.576 C 299.546 145.957,298.737 146.604,297.823 147.400 C 296.083 148.914,294.995 149.792,293.000 151.292 C 289.572 153.870,287.565 155.528,285.500 157.489 L 284.400 158.533 284.400 200.128 L 284.400 241.723 285.965 243.168 C 286.826 243.963,288.456 245.330,289.587 246.207 C 290.718 247.083,293.388 249.206,295.521 250.924 C 297.655 252.642,299.850 254.397,300.400 254.823 C 300.950 255.249,303.200 257.048,305.400 258.820 C 311.332 263.599,311.511 263.742,312.494 264.485 C 312.992 264.863,314.750 266.269,316.400 267.612 C 320.054 270.585,321.314 271.593,322.494 272.485 C 322.992 272.863,324.750 274.269,326.400 275.612 C 329.942 278.494,331.266 279.555,332.494 280.492 C 332.992 280.872,334.641 282.187,336.159 283.413 C 338.169 285.038,339.037 285.523,339.359 285.201 C 339.676 284.884,339.830 267.322,339.906 222.900 C 339.990 174.357,340.119 160.972,340.506 160.726 C 341.446 160.129,343.160 160.378,343.586 161.174 C 343.866 161.698,344.000 182.154,344.000 224.525 C 344.000 277.247,344.087 287.174,344.552 287.560 C 344.934 287.877,347.371 287.985,352.452 287.909 L 359.800 287.800 359.901 200.442 C 359.975 136.202,359.883 112.941,359.552 112.542 C 358.943 111.809,345.208 111.752,344.480 112.480 M271.827 118.000 C 271.983 118.550,272.445 119.429,272.855 119.954 C 273.265 120.479,273.608 121.199,273.619 121.554 C 273.645 122.466,275.544 127.933,275.575 127.186 C 275.589 126.849,275.240 125.548,274.800 124.296 C 274.360 123.044,274.000 121.829,274.000 121.596 C 274.000 121.363,273.447 120.233,272.772 119.086 C 272.096 117.939,271.671 117.450,271.827 118.000 M41.800 122.798 C 41.652 123.677,41.366 124.497,41.165 124.622 C 40.964 124.746,40.807 125.152,40.816 125.524 C 40.827 126.008,40.988 125.914,41.381 125.192 C 41.970 124.109,42.625 121.200,42.280 121.200 C 42.165 121.200,41.949 121.919,41.800 122.798 M40.493 127.600 C 40.493 128.370,40.575 128.685,40.676 128.300 C 40.776 127.915,40.776 127.285,40.676 126.900 C 40.575 126.515,40.493 126.830,40.493 127.600 M275.598 200.800 C 275.412 269.290,275.357 273.874,274.702 275.000 C 274.319 275.660,274.012 276.560,274.021 277.000 C 274.031 277.460,274.412 276.949,274.918 275.800 L 275.799 273.800 275.905 215.400 C 275.964 183.280,275.963 150.430,275.903 142.400 C 275.844 134.370,275.706 160.650,275.598 200.800 M40.196 200.200 C 40.196 239.140,40.243 255.011,40.300 235.468 C 40.357 215.926,40.357 184.066,40.300 164.668 C 40.243 145.271,40.196 161.260,40.196 200.200 M56.480 136.480 C 56.216 136.744,56.018 137.329,56.040 137.780 C 56.073 138.466,56.125 138.437,56.356 137.600 C 57.156 134.699,59.718 136.313,60.037 139.919 L 60.274 142.600 60.337 140.189 C 60.429 136.661,58.324 134.636,56.480 136.480 M55.693 140.000 C 55.693 140.770,55.775 141.085,55.876 140.700 C 55.976 140.315,55.976 139.685,55.876 139.300 C 55.775 138.915,55.693 139.230,55.693 140.000 M339.680 140.480 C 339.123 141.037,339.005 150.673,339.545 151.524 C 340.018 152.270,343.672 152.000,343.934 151.200 C 344.099 150.695,344.029 150.683,343.491 151.127 C 343.140 151.417,342.256 151.597,341.526 151.527 L 340.200 151.400 340.088 146.231 C 339.966 140.661,340.049 140.418,342.076 140.406 C 343.612 140.397,343.774 140.862,344.025 146.000 L 344.250 150.600 344.325 146.189 C 344.415 140.910,344.023 140.000,341.657 140.000 C 340.834 140.000,339.944 140.216,339.680 140.480 M56.025 142.451 C 55.967 143.952,59.488 144.629,59.919 143.200 C 60.065 142.716,59.998 142.696,59.570 143.100 C 58.668 143.951,56.821 143.717,56.412 142.700 C 56.168 142.091,56.043 142.010,56.025 142.451 M56.480 156.480 C 56.216 156.744,56.018 157.329,56.040 157.780 C 56.073 158.466,56.125 158.437,56.356 157.600 C 56.661 156.492,58.541 155.982,59.349 156.788 C 59.642 157.080,59.875 160.281,60.015 165.919 L 60.231 174.600 60.315 166.189 C 60.386 159.128,60.300 157.635,59.777 156.889 C 59.091 155.910,57.276 155.684,56.480 156.480 M55.766 166.000 C 55.766 170.070,55.825 171.735,55.898 169.700 C 55.971 167.665,55.971 164.335,55.898 162.300 C 55.825 160.265,55.766 161.930,55.766 166.000 M56.025 174.451 C 55.967 175.952,59.488 176.629,59.919 175.200 C 60.065 174.716,59.998 174.696,59.570 175.100 C 58.668 175.951,56.821 175.717,56.412 174.700 C 56.168 174.091,56.043 174.010,56.025 174.451 M56.480 184.480 C 56.216 184.744,56.018 185.329,56.040 185.780 C 56.073 186.466,56.125 186.437,56.356 185.600 C 56.662 184.492,58.542 183.982,59.349 184.789 C 59.675 185.115,59.857 195.982,60.004 223.920 L 60.208 262.600 60.304 224.189 C 60.390 189.970,60.332 185.681,59.777 184.889 C 59.091 183.910,57.276 183.684,56.480 184.480 M55.792 224.000 C 55.792 244.570,55.840 252.985,55.900 242.700 C 55.959 232.415,55.959 215.585,55.900 205.300 C 55.840 195.015,55.792 203.430,55.792 224.000 M56.025 262.451 C 55.967 263.952,59.488 264.629,59.919 263.200 C 60.065 262.716,59.998 262.696,59.570 263.100 C 58.668 263.951,56.821 263.717,56.412 262.700 C 56.168 262.091,56.043 262.010,56.025 262.451 M40.493 272.400 C 40.493 273.170,40.575 273.485,40.676 273.100 C 40.776 272.715,40.776 272.085,40.676 271.700 C 40.575 271.315,40.493 271.630,40.493 272.400 M40.829 274.200 C 40.827 274.420,41.189 275.590,41.633 276.800 C 42.363 278.792,42.415 278.850,42.184 277.408 C 41.948 275.933,40.836 273.300,40.829 274.200 M273.286 279.083 C 270.789 284.641,265.749 290.060,260.800 292.508 C 259.150 293.325,258.007 293.994,258.259 293.996 C 261.095 294.019,270.390 286.054,272.108 282.131 C 272.380 281.509,272.934 280.511,273.339 279.913 C 273.744 279.315,274.011 278.632,273.932 278.396 C 273.853 278.159,273.563 278.468,273.286 279.083 M43.686 281.588 C 44.125 282.474,44.545 283.200,44.621 283.200 C 44.932 283.200,43.898 280.813,43.413 280.411 C 43.120 280.167,43.240 280.687,43.686 281.588 M45.855 285.036 C 47.277 286.901,52.483 291.652,52.775 291.351 C 52.899 291.223,52.584 290.822,52.076 290.459 C 50.532 289.357,46.988 285.869,46.226 284.700 C 45.831 284.095,45.340 283.600,45.134 283.600 C 44.928 283.600,45.252 284.246,45.855 285.036 M55.086 292.772 C 56.233 293.447,57.363 294.000,57.596 294.000 C 57.829 294.000,59.044 294.360,60.296 294.800 C 61.548 295.240,62.849 295.589,63.186 295.575 C 63.871 295.546,58.510 293.648,57.662 293.619 C 57.366 293.608,56.646 293.264,56.062 292.852 C 55.478 292.441,54.550 291.979,54.000 291.824 C 53.450 291.670,53.939 292.096,55.086 292.772 M254.800 294.733 C 253.509 295.348,246.036 295.416,158.600 295.605 L 63.800 295.809 158.800 295.805 L 253.800 295.800 255.800 294.919 C 256.900 294.434,257.440 294.044,257.000 294.051 C 256.560 294.059,255.570 294.366,254.800 294.733 " stroke="none" fill="#549c7c" fill-rule="evenodd"></path><path id="path4" d="M63.328 103.575 C 61.154 103.742,59.811 104.046,59.328 104.479 C 58.927 104.838,57.935 105.256,57.123 105.406 C 56.311 105.557,55.061 106.112,54.346 106.640 C 53.630 107.168,52.811 107.600,52.526 107.600 C 52.240 107.600,51.782 107.960,51.507 108.400 C 51.232 108.840,50.821 109.200,50.592 109.200 C 50.066 109.200,45.200 114.086,45.200 114.615 C 45.200 114.831,44.840 115.232,44.400 115.507 C 43.960 115.782,43.600 116.240,43.600 116.526 C 43.600 116.811,43.168 117.630,42.640 118.346 C 42.112 119.061,41.557 120.311,41.406 121.123 C 41.256 121.935,40.848 122.917,40.500 123.305 C 39.342 124.595,39.239 130.978,39.248 200.400 C 39.257 269.771,39.350 275.413,40.501 276.696 C 40.848 277.083,41.264 278.120,41.424 279.000 C 41.584 279.880,42.139 281.109,42.658 281.731 C 43.176 282.353,43.600 283.116,43.600 283.427 C 43.600 283.739,43.960 284.218,44.400 284.493 C 44.840 284.768,45.200 285.205,45.200 285.464 C 45.200 286.110,49.936 290.800,50.589 290.800 C 50.878 290.800,51.219 291.072,51.346 291.403 C 51.473 291.735,52.078 292.220,52.689 292.480 C 53.300 292.740,54.179 293.285,54.643 293.692 C 55.106 294.099,56.186 294.544,57.043 294.682 C 57.899 294.819,59.110 295.307,59.734 295.766 L 60.867 296.600 158.000 296.600 L 255.133 296.600 256.266 295.766 C 256.890 295.307,258.101 294.819,258.957 294.682 C 259.814 294.544,260.894 294.078,261.357 293.645 C 261.821 293.213,262.718 292.731,263.352 292.573 C 263.986 292.416,264.592 291.952,264.699 291.544 C 264.806 291.135,265.163 290.800,265.493 290.800 C 266.280 290.800,270.800 286.215,270.800 285.417 C 270.800 285.078,271.062 284.800,271.381 284.800 C 271.701 284.800,272.335 284.035,272.790 283.100 C 273.246 282.165,273.881 280.950,274.203 280.400 C 274.525 279.850,274.791 279.061,274.794 278.647 C 274.797 278.233,275.205 277.243,275.700 276.447 L 276.600 275.000 276.600 200.000 L 276.600 125.000 275.749 123.600 C 275.280 122.830,274.782 121.550,274.641 120.755 C 274.500 119.960,274.028 118.987,273.592 118.593 C 273.156 118.199,272.800 117.663,272.800 117.402 C 272.800 116.301,266.449 109.200,265.464 109.200 C 265.205 109.200,264.768 108.840,264.493 108.400 C 264.218 107.960,263.739 107.600,263.427 107.600 C 263.116 107.600,262.345 107.165,261.713 106.634 C 261.081 106.102,259.852 105.539,258.982 105.383 C 258.112 105.227,257.083 104.822,256.696 104.484 C 256.255 104.099,254.689 103.755,252.496 103.563 C 248.343 103.199,68.075 103.211,63.328 103.575 M255.800 105.132 C 266.077 109.123,271.712 114.759,274.865 124.200 L 275.800 127.000 275.800 200.200 L 275.800 273.400 274.662 276.600 C 274.036 278.360,273.306 280.070,273.040 280.400 C 272.773 280.730,272.331 281.523,272.058 282.162 C 270.053 286.849,263.427 292.160,256.400 294.711 L 253.400 295.800 158.200 295.800 L 63.000 295.800 60.200 294.865 C 50.793 291.724,44.676 285.632,41.266 276.009 L 40.200 273.000 40.083 202.200 C 39.970 133.577,40.075 125.985,41.153 124.642 C 41.348 124.399,41.641 123.570,41.804 122.800 C 43.144 116.459,52.459 107.144,58.800 105.804 C 59.570 105.641,60.403 105.345,60.651 105.146 C 61.832 104.197,71.986 104.095,159.600 104.145 L 253.400 104.200 255.800 105.132 M344.000 112.000 C 343.248 112.752,343.200 113.333,343.200 121.600 L 343.200 130.400 342.047 130.400 C 340.493 130.400,340.412 129.967,340.405 121.580 C 340.399 113.380,339.966 112.300,337.534 114.411 C 337.020 114.856,335.700 115.894,334.600 116.716 C 331.964 118.687,330.848 119.611,329.786 120.700 C 329.303 121.195,328.736 121.600,328.526 121.600 C 328.316 121.600,327.768 122.005,327.308 122.500 C 326.849 122.995,325.601 124.026,324.536 124.792 C 322.359 126.358,321.118 127.383,319.805 128.700 C 319.312 129.195,318.736 129.600,318.526 129.600 C 318.316 129.600,317.768 130.005,317.308 130.500 C 316.849 130.995,315.601 132.026,314.536 132.792 C 312.359 134.358,311.118 135.383,309.805 136.700 C 309.312 137.195,308.736 137.600,308.526 137.600 C 308.316 137.600,307.768 138.005,307.308 138.500 C 306.849 138.995,305.601 140.026,304.536 140.792 C 302.359 142.358,301.118 143.383,299.805 144.700 C 299.312 145.195,298.736 145.600,298.526 145.600 C 298.316 145.600,297.768 146.005,297.308 146.500 C 296.849 146.995,295.601 148.026,294.536 148.792 C 292.359 150.358,291.118 151.383,289.805 152.700 C 289.312 153.195,288.755 153.600,288.568 153.600 C 288.381 153.600,287.862 153.942,287.414 154.360 C 286.966 154.779,285.925 155.751,285.100 156.520 L 283.600 157.920 283.600 199.946 L 283.600 241.972 284.841 243.386 C 285.524 244.164,286.236 244.800,286.423 244.800 C 286.610 244.800,287.199 245.205,287.732 245.700 C 288.998 246.877,290.769 248.357,292.398 249.600 C 293.119 250.150,294.293 251.095,295.007 251.700 C 295.721 252.305,296.409 252.800,296.535 252.800 C 296.661 252.800,297.199 253.205,297.732 253.700 C 298.998 254.877,300.769 256.357,302.398 257.600 C 303.119 258.150,304.293 259.095,305.007 259.700 C 305.721 260.305,306.409 260.800,306.535 260.800 C 306.661 260.800,307.199 261.205,307.732 261.700 C 308.721 262.619,310.232 263.890,312.261 265.509 C 312.887 266.009,314.054 266.954,314.853 267.609 C 315.652 268.264,316.409 268.800,316.535 268.800 C 316.661 268.800,317.199 269.205,317.732 269.700 C 318.721 270.619,320.232 271.890,322.261 273.509 C 322.887 274.009,324.054 274.954,324.853 275.609 C 325.652 276.264,326.409 276.800,326.535 276.800 C 326.661 276.800,327.199 277.205,327.732 277.700 C 328.721 278.619,330.232 279.890,332.261 281.509 C 332.887 282.009,334.054 282.954,334.853 283.609 C 335.652 284.264,336.488 284.800,336.710 284.800 C 336.932 284.800,337.213 285.058,337.335 285.374 C 337.741 286.433,339.074 286.869,339.772 286.171 C 340.337 285.606,340.401 279.420,340.405 224.471 C 340.411 158.691,340.335 161.600,342.047 161.600 L 343.200 161.600 343.200 224.311 C 343.200 280.422,343.266 287.116,343.823 287.911 C 344.646 289.086,359.028 289.315,360.171 288.171 C 360.739 287.604,360.800 279.051,360.800 199.994 L 360.800 112.445 359.911 111.823 C 358.405 110.768,345.084 110.916,344.000 112.000 M359.552 112.542 C 359.883 112.941,359.975 136.202,359.901 200.442 L 359.800 287.800 352.452 287.909 C 347.371 287.985,344.934 287.877,344.552 287.560 C 344.087 287.174,344.000 277.247,344.000 224.525 C 344.000 182.154,343.866 161.698,343.586 161.174 C 343.160 160.378,341.446 160.129,340.506 160.726 C 340.119 160.972,339.990 174.357,339.906 222.900 C 339.830 267.322,339.676 284.884,339.359 285.201 C 339.037 285.523,338.169 285.038,336.159 283.413 C 334.641 282.187,332.992 280.872,332.494 280.492 C 331.266 279.555,329.942 278.494,326.400 275.612 C 324.750 274.269,322.992 272.863,322.494 272.485 C 321.314 271.593,320.054 270.585,316.400 267.612 C 314.750 266.269,312.992 264.863,312.494 264.485 C 311.511 263.742,311.332 263.599,305.400 258.820 C 303.200 257.048,300.950 255.249,300.400 254.823 C 299.850 254.397,297.655 252.642,295.521 250.924 C 293.388 249.206,290.718 247.083,289.587 246.207 C 288.456 245.330,286.826 243.963,285.965 243.168 L 284.400 241.723 284.400 200.128 L 284.400 158.533 285.500 157.489 C 287.565 155.528,289.572 153.870,293.000 151.292 C 294.995 149.792,296.083 148.914,297.823 147.400 C 298.737 146.604,299.546 145.957,302.600 143.576 C 303.480 142.890,304.814 141.850,305.563 141.264 C 306.313 140.679,307.335 139.840,307.835 139.400 C 308.334 138.960,309.326 138.150,310.039 137.600 C 310.752 137.050,311.763 136.195,312.286 135.700 C 312.809 135.205,313.363 134.797,313.518 134.794 C 313.673 134.790,314.370 134.295,315.068 133.694 C 315.765 133.092,317.006 132.060,317.826 131.400 C 318.646 130.740,319.763 129.840,320.310 129.400 C 320.856 128.960,321.738 128.195,322.270 127.700 C 322.801 127.205,323.363 126.797,323.518 126.794 C 323.673 126.790,324.370 126.295,325.068 125.694 C 325.765 125.092,327.006 124.060,327.826 123.400 C 328.646 122.740,329.763 121.840,330.310 121.400 C 330.856 120.960,331.720 120.213,332.229 119.741 C 332.738 119.268,333.320 118.818,333.522 118.741 C 333.958 118.574,336.514 116.574,337.933 115.290 C 339.591 113.790,339.783 114.536,340.000 123.320 L 340.200 131.400 341.526 131.527 C 343.967 131.762,344.000 131.633,344.000 121.831 C 344.000 115.465,344.136 112.824,344.480 112.480 C 345.208 111.752,358.943 111.809,359.552 112.542 M56.594 136.810 C 54.657 139.943,57.205 145.435,59.520 143.120 C 60.108 142.532,60.156 138.239,59.586 137.174 C 59.139 136.340,57.042 136.085,56.594 136.810 M59.200 140.000 L 59.200 142.400 58.000 142.400 L 56.800 142.400 56.800 140.000 L 56.800 137.600 58.000 137.600 L 59.200 137.600 59.200 140.000 M340.488 140.737 C 340.104 140.981,340.003 142.365,340.088 146.231 L 340.200 151.400 341.526 151.527 C 343.755 151.741,344.000 151.226,344.000 146.325 C 344.000 140.767,342.985 139.153,340.488 140.737 M343.200 146.000 L 343.200 150.400 342.047 150.400 C 340.658 150.400,340.411 149.735,340.411 146.000 C 340.411 142.265,340.658 141.600,342.047 141.600 L 343.200 141.600 343.200 146.000 M56.524 156.900 C 56.019 157.679,55.876 173.223,56.362 174.500 C 56.818 175.700,58.592 176.048,59.520 175.120 C 60.139 174.501,60.199 158.319,59.586 157.174 C 59.112 156.289,57.039 156.104,56.524 156.900 M59.200 166.000 L 59.200 174.400 58.000 174.400 L 56.800 174.400 56.800 166.000 L 56.800 157.600 58.000 157.600 L 59.200 157.600 59.200 166.000 M56.524 184.900 C 56.037 185.652,55.899 261.283,56.382 262.553 C 56.819 263.701,58.615 264.025,59.520 263.120 C 60.156 262.484,60.221 186.360,59.586 185.174 C 59.112 184.289,57.039 184.104,56.524 184.900 M59.200 224.000 L 59.200 262.400 58.000 262.400 L 56.800 262.400 56.800 224.000 L 56.800 185.600 58.000 185.600 L 59.200 185.600 59.200 224.000 " stroke="none" fill="#4c5c54" fill-rule="evenodd"></path></g></svg>