<svg id="svg" version="1.1" xmlns="http://www.w3.org/2000/svg" xmlns:xlink="http://www.w3.org/1999/xlink" width="400" height="400" viewBox="0, 0, 400,400"><g id="svgg"><path id="path0" d="M176.000 18.800 C 176.000 19.559,175.733 19.600,170.814 19.600 C 166.038 19.600,165.594 19.663,165.200 20.400 C 164.827 21.097,164.362 21.200,161.582 21.200 C 158.887 21.200,158.286 21.324,157.707 22.000 C 157.148 22.653,156.527 22.800,154.325 22.800 C 152.038 22.800,151.563 22.921,151.200 23.600 C 150.845 24.263,150.362 24.400,148.386 24.400 C 146.532 24.400,146.000 24.534,146.000 25.000 C 146.000 25.365,145.628 25.600,145.050 25.600 C 143.248 25.600,141.600 26.102,141.600 26.650 C 141.600 27.051,140.994 27.200,139.363 27.200 C 137.509 27.200,137.091 27.329,136.928 27.952 C 136.778 28.528,136.254 28.751,134.699 28.900 C 133.464 29.019,132.478 29.352,132.189 29.748 C 131.918 30.118,131.153 30.400,130.418 30.400 C 129.462 30.400,129.071 30.608,128.916 31.200 C 128.759 31.801,128.370 32.000,127.353 32.000 C 126.533 32.000,125.685 32.315,125.200 32.800 C 124.697 33.303,123.867 33.600,122.963 33.600 C 121.862 33.600,121.476 33.787,121.316 34.400 C 121.157 35.006,120.770 35.200,119.716 35.200 C 118.662 35.200,118.275 35.394,118.116 36.000 C 117.957 36.606,117.570 36.800,116.516 36.800 C 115.462 36.800,115.075 36.994,114.916 37.600 C 114.761 38.194,114.370 38.400,113.400 38.400 C 112.430 38.400,112.039 38.606,111.884 39.200 C 111.769 39.640,111.341 40.000,110.934 40.000 C 110.526 40.000,109.968 40.360,109.693 40.800 C 109.410 41.252,108.760 41.600,108.197 41.600 C 107.619 41.600,107.200 41.831,107.200 42.149 C 107.200 42.480,106.565 42.799,105.600 42.954 C 104.565 43.119,104.000 43.420,104.000 43.805 C 104.000 44.132,103.668 44.400,103.262 44.400 C 102.856 44.400,102.198 44.760,101.800 45.200 C 101.402 45.640,100.727 46.000,100.301 46.000 C 99.862 46.000,99.434 46.347,99.316 46.800 C 99.200 47.243,98.770 47.600,98.353 47.600 C 97.939 47.600,97.240 47.960,96.800 48.400 C 96.360 48.840,95.742 49.200,95.427 49.200 C 95.112 49.200,94.740 49.560,94.600 50.000 C 94.460 50.440,94.071 50.800,93.736 50.800 C 93.400 50.800,93.031 51.160,92.916 51.600 C 92.759 52.201,92.370 52.400,91.353 52.400 C 90.267 52.400,90.000 52.558,90.000 53.200 C 90.000 53.733,89.733 54.000,89.200 54.000 C 88.667 54.000,88.400 54.267,88.400 54.800 C 88.400 55.333,88.133 55.600,87.600 55.600 C 87.067 55.600,86.800 55.867,86.800 56.400 C 86.800 57.020,86.533 57.200,85.614 57.200 C 84.838 57.200,84.280 57.476,84.000 58.000 C 83.765 58.440,83.303 58.800,82.973 58.800 C 82.644 58.800,82.274 59.063,82.150 59.385 C 82.027 59.706,81.583 60.079,81.163 60.212 C 80.743 60.345,80.400 60.712,80.400 61.027 C 80.400 61.342,80.113 61.600,79.763 61.600 C 79.412 61.600,79.031 61.960,78.916 62.400 C 78.801 62.840,78.441 63.200,78.116 63.200 C 77.791 63.200,77.431 63.560,77.316 64.000 C 77.201 64.440,76.870 64.800,76.580 64.800 C 76.291 64.800,75.940 65.160,75.800 65.600 C 75.660 66.040,75.288 66.400,74.973 66.400 C 74.658 66.400,74.400 66.760,74.400 67.200 C 74.400 67.733,74.133 68.000,73.600 68.000 C 73.067 68.000,72.800 68.267,72.800 68.800 C 72.800 69.333,72.533 69.600,72.000 69.600 C 71.467 69.600,71.200 69.867,71.200 70.400 C 71.200 70.933,70.933 71.200,70.400 71.200 C 69.867 71.200,69.600 71.467,69.600 72.000 C 69.600 72.533,69.333 72.800,68.800 72.800 C 68.267 72.800,68.000 73.067,68.000 73.600 C 68.000 74.133,67.733 74.400,67.200 74.400 C 66.760 74.400,66.400 74.658,66.400 74.973 C 66.400 75.288,66.040 75.660,65.600 75.800 C 65.160 75.940,64.800 76.291,64.800 76.580 C 64.800 76.870,64.440 77.201,64.000 77.316 C 63.560 77.431,63.200 77.791,63.200 78.116 C 63.200 78.441,62.840 78.801,62.400 78.916 C 61.960 79.031,61.600 79.412,61.600 79.763 C 61.600 80.113,61.342 80.400,61.027 80.400 C 60.712 80.400,60.345 80.743,60.212 81.163 C 60.079 81.583,59.706 82.027,59.385 82.150 C 59.063 82.274,58.800 82.644,58.800 82.973 C 58.800 83.303,58.440 83.765,58.000 84.000 C 57.476 84.280,57.200 84.838,57.200 85.614 C 57.200 86.533,57.020 86.800,56.400 86.800 C 55.867 86.800,55.600 87.067,55.600 87.600 C 55.600 88.133,55.333 88.400,54.800 88.400 C 54.267 88.400,54.000 88.667,54.000 89.200 C 54.000 89.733,53.733 90.000,53.200 90.000 C 52.558 90.000,52.400 90.267,52.400 91.353 C 52.400 92.370,52.201 92.759,51.600 92.916 C 51.160 93.031,50.800 93.391,50.800 93.716 C 50.800 94.041,50.440 94.401,50.000 94.516 C 49.560 94.631,49.200 95.012,49.200 95.363 C 49.200 95.713,48.840 96.360,48.400 96.800 C 47.960 97.240,47.600 97.939,47.600 98.353 C 47.600 98.770,47.243 99.200,46.800 99.316 C 46.347 99.434,46.000 99.862,46.000 100.301 C 46.000 100.727,45.640 101.402,45.200 101.800 C 44.760 102.198,44.400 102.856,44.400 103.262 C 44.400 103.668,44.146 104.000,43.835 104.000 C 43.488 104.000,43.166 104.616,43.000 105.600 C 42.834 106.584,42.512 107.200,42.165 107.200 C 41.854 107.200,41.600 107.532,41.600 107.938 C 41.600 108.344,41.240 109.002,40.800 109.400 C 40.360 109.798,40.000 110.473,40.000 110.899 C 40.000 111.338,39.653 111.766,39.200 111.884 C 38.606 112.039,38.400 112.430,38.400 113.400 C 38.400 114.370,38.194 114.761,37.600 114.916 C 36.994 115.075,36.800 115.462,36.800 116.516 C 36.800 117.570,36.606 117.957,36.000 118.116 C 35.394 118.275,35.200 118.662,35.200 119.716 C 35.200 120.770,35.006 121.157,34.400 121.316 C 33.817 121.468,33.600 121.862,33.600 122.763 C 33.600 123.467,33.255 124.345,32.800 124.800 C 32.275 125.325,32.000 126.133,32.000 127.153 C 32.000 128.370,31.827 128.752,31.200 128.916 C 30.617 129.068,30.400 129.462,30.400 130.363 C 30.400 131.067,30.055 131.945,29.600 132.400 C 29.043 132.957,28.800 133.733,28.800 134.953 C 28.800 136.370,28.647 136.747,28.000 136.916 C 27.320 137.094,27.200 137.462,27.200 139.363 C 27.200 141.001,27.052 141.600,26.647 141.600 C 26.016 141.600,25.613 142.800,25.605 144.700 C 25.602 145.586,25.409 146.000,25.000 146.000 C 24.534 146.000,24.400 146.532,24.400 148.386 C 24.400 150.362,24.263 150.845,23.600 151.200 C 22.921 151.563,22.800 152.038,22.800 154.325 C 22.800 156.527,22.653 157.148,22.000 157.707 C 21.324 158.286,21.200 158.887,21.200 161.582 C 21.200 164.362,21.097 164.827,20.400 165.200 C 19.663 165.594,19.600 166.038,19.600 170.814 C 19.600 175.733,19.559 176.000,18.800 176.000 C 18.009 176.000,18.000 176.267,18.000 199.953 C 18.000 223.570,18.011 223.910,18.800 224.116 C 19.546 224.311,19.600 224.662,19.600 229.348 C 19.600 233.962,19.665 234.407,20.400 234.800 C 21.097 235.173,21.200 235.638,21.200 238.418 C 21.200 241.113,21.324 241.714,22.000 242.293 C 22.653 242.852,22.800 243.473,22.800 245.675 C 22.800 247.962,22.921 248.437,23.600 248.800 C 24.263 249.155,24.400 249.638,24.400 251.614 C 24.400 253.468,24.534 254.000,25.000 254.000 C 25.365 254.000,25.600 254.372,25.600 254.950 C 25.600 256.752,26.102 258.400,26.650 258.400 C 27.051 258.400,27.200 259.006,27.200 260.637 C 27.200 262.538,27.320 262.906,28.000 263.084 C 28.647 263.253,28.800 263.630,28.800 265.047 C 28.800 266.267,29.043 267.043,29.600 267.600 C 30.055 268.055,30.400 268.933,30.400 269.637 C 30.400 270.512,30.620 270.933,31.152 271.072 C 31.706 271.216,31.958 271.749,32.109 273.094 C 32.232 274.185,32.574 275.066,32.958 275.280 C 33.359 275.505,33.600 276.172,33.600 277.057 C 33.600 278.138,33.790 278.525,34.400 278.684 C 35.006 278.843,35.200 279.230,35.200 280.284 C 35.200 281.338,35.394 281.725,36.000 281.884 C 36.606 282.043,36.800 282.430,36.800 283.484 C 36.800 284.538,36.994 284.925,37.600 285.084 C 38.201 285.241,38.400 285.630,38.400 286.647 C 38.400 287.733,38.558 288.000,39.200 288.000 C 39.773 288.000,40.000 288.267,40.000 288.938 C 40.000 289.454,40.360 290.202,40.800 290.600 C 41.240 290.998,41.600 291.656,41.600 292.062 C 41.600 292.468,41.854 292.800,42.165 292.800 C 42.512 292.800,42.834 293.416,43.000 294.400 C 43.166 295.384,43.488 296.000,43.835 296.000 C 44.146 296.000,44.400 296.317,44.400 296.704 C 44.400 297.091,44.760 297.632,45.200 297.907 C 45.665 298.197,46.000 298.840,46.000 299.441 C 46.000 300.138,46.260 300.543,46.800 300.684 C 47.243 300.800,47.600 301.230,47.600 301.647 C 47.600 302.061,47.960 302.760,48.400 303.200 C 48.840 303.640,49.200 304.258,49.200 304.573 C 49.200 304.888,49.541 305.254,49.957 305.386 C 50.373 305.518,50.806 305.981,50.919 306.413 C 51.033 306.846,51.412 307.200,51.763 307.200 C 52.224 307.200,52.400 307.586,52.400 308.600 C 52.400 309.733,52.552 310.000,53.200 310.000 C 53.733 310.000,54.000 310.267,54.000 310.800 C 54.000 311.333,54.267 311.600,54.800 311.600 C 55.333 311.600,55.600 311.867,55.600 312.400 C 55.600 312.933,55.867 313.200,56.400 313.200 C 57.020 313.200,57.200 313.467,57.200 314.386 C 57.200 315.162,57.476 315.720,58.000 316.000 C 58.440 316.235,58.800 316.685,58.800 317.000 C 58.800 317.315,59.160 317.765,59.600 318.000 C 60.040 318.235,60.400 318.692,60.400 319.014 C 60.400 319.336,60.670 319.600,61.000 319.600 C 61.330 319.600,61.600 319.887,61.600 320.237 C 61.600 320.588,61.960 320.969,62.400 321.084 C 62.840 321.199,63.200 321.559,63.200 321.884 C 63.200 322.209,63.560 322.569,64.000 322.684 C 64.440 322.799,64.800 323.159,64.800 323.484 C 64.800 323.809,65.160 324.169,65.600 324.284 C 66.040 324.399,66.400 324.742,66.400 325.047 C 66.400 325.351,66.760 325.600,67.200 325.600 C 67.733 325.600,68.000 325.867,68.000 326.400 C 68.000 326.933,68.267 327.200,68.800 327.200 C 69.333 327.200,69.600 327.467,69.600 328.000 C 69.600 328.533,69.867 328.800,70.400 328.800 C 70.933 328.800,71.200 329.067,71.200 329.600 C 71.200 330.133,71.467 330.400,72.000 330.400 C 72.533 330.400,72.800 330.667,72.800 331.200 C 72.800 331.733,73.067 332.000,73.600 332.000 C 74.133 332.000,74.400 332.267,74.400 332.800 C 74.400 333.240,74.658 333.600,74.973 333.600 C 75.288 333.600,75.660 333.960,75.800 334.400 C 75.940 334.840,76.312 335.200,76.627 335.200 C 76.942 335.200,77.200 335.487,77.200 335.837 C 77.200 336.188,77.560 336.569,78.000 336.684 C 78.440 336.799,78.800 337.159,78.800 337.484 C 78.800 337.809,79.160 338.169,79.600 338.284 C 80.040 338.399,80.400 338.742,80.400 339.047 C 80.400 339.351,80.664 339.600,80.986 339.600 C 81.308 339.600,81.757 339.945,81.983 340.367 C 82.209 340.790,82.947 341.257,83.624 341.405 C 84.300 341.554,84.951 341.928,85.070 342.238 C 85.188 342.547,85.626 342.800,86.043 342.800 C 86.533 342.800,86.800 343.082,86.800 343.600 C 86.800 344.133,87.067 344.400,87.600 344.400 C 88.133 344.400,88.400 344.667,88.400 345.200 C 88.400 345.717,88.667 346.000,89.153 346.000 C 89.570 346.000,90.000 346.357,90.116 346.800 C 90.268 347.383,90.662 347.600,91.563 347.600 C 92.428 347.600,92.800 347.792,92.800 348.237 C 92.800 348.588,93.154 348.967,93.587 349.081 C 94.019 349.194,94.482 349.627,94.614 350.043 C 94.776 350.554,95.227 350.800,96.000 350.800 C 96.795 350.800,97.224 351.045,97.400 351.600 C 97.540 352.040,97.981 352.400,98.380 352.400 C 98.780 352.400,99.201 352.760,99.316 353.200 C 99.476 353.813,99.862 354.000,100.963 354.000 C 102.133 354.000,102.400 354.148,102.400 354.800 C 102.400 355.333,102.667 355.600,103.200 355.600 C 103.642 355.600,104.000 355.867,104.000 356.195 C 104.000 356.580,104.565 356.881,105.600 357.046 C 106.565 357.201,107.200 357.520,107.200 357.851 C 107.200 358.208,107.673 358.400,108.553 358.400 C 109.570 358.400,109.959 358.599,110.116 359.200 C 110.236 359.660,110.662 360.000,111.116 360.000 C 111.570 360.000,111.996 360.340,112.116 360.800 C 112.266 361.374,112.662 361.600,113.516 361.600 C 114.370 361.600,114.766 361.826,114.916 362.400 C 115.075 363.006,115.462 363.200,116.516 363.200 C 117.570 363.200,117.957 363.394,118.116 364.000 C 118.276 364.613,118.662 364.800,119.763 364.800 C 120.725 364.800,121.200 364.984,121.200 365.357 C 121.200 366.002,122.052 366.400,123.433 366.400 C 123.965 366.400,124.760 366.760,125.200 367.200 C 125.685 367.685,126.533 368.000,127.353 368.000 C 128.370 368.000,128.759 368.199,128.916 368.800 C 129.075 369.410,129.462 369.600,130.543 369.600 C 131.438 369.600,132.095 369.841,132.326 370.254 C 132.561 370.674,133.413 370.976,134.712 371.101 C 136.255 371.249,136.778 371.473,136.928 372.048 C 137.091 372.671,137.509 372.800,139.363 372.800 C 141.008 372.800,141.600 372.947,141.600 373.357 C 141.600 374.072,142.477 374.400,144.390 374.400 C 145.376 374.400,145.996 374.612,146.145 375.000 C 146.314 375.442,147.012 375.600,148.787 375.600 C 150.583 375.600,151.200 375.743,151.200 376.157 C 151.200 376.941,152.103 377.200,154.833 377.200 C 156.667 377.200,157.380 377.380,158.000 378.000 C 158.657 378.657,159.333 378.800,161.786 378.800 C 164.362 378.800,164.831 378.910,165.200 379.600 C 165.594 380.337,166.038 380.400,170.814 380.400 C 175.733 380.400,176.000 380.441,176.000 381.200 C 176.000 381.991,176.267 382.000,199.953 382.000 C 223.570 382.000,223.910 381.989,224.116 381.200 C 224.311 380.454,224.662 380.400,229.348 380.400 C 233.962 380.400,234.407 380.335,234.800 379.600 C 235.173 378.903,235.638 378.800,238.418 378.800 C 241.113 378.800,241.714 378.676,242.293 378.000 C 242.852 377.347,243.473 377.200,245.675 377.200 C 247.962 377.200,248.437 377.079,248.800 376.400 C 249.155 375.737,249.638 375.600,251.614 375.600 C 253.468 375.600,254.000 375.466,254.000 375.000 C 254.000 374.545,254.493 374.400,256.037 374.400 C 257.738 374.400,258.109 374.268,258.284 373.600 C 258.461 372.923,258.830 372.800,260.684 372.800 C 262.538 372.800,262.907 372.677,263.084 372.000 C 263.253 371.353,263.630 371.200,265.047 371.200 C 266.267 371.200,267.043 370.957,267.600 370.400 C 268.055 369.945,268.933 369.600,269.637 369.600 C 270.538 369.600,270.932 369.383,271.084 368.800 C 271.248 368.173,271.630 368.000,272.847 368.000 C 273.867 368.000,274.675 367.725,275.200 367.200 C 275.655 366.745,276.533 366.400,277.237 366.400 C 278.138 366.400,278.532 366.183,278.684 365.600 C 278.843 364.994,279.230 364.800,280.284 364.800 C 281.338 364.800,281.725 364.606,281.884 364.000 C 282.043 363.394,282.430 363.200,283.484 363.200 C 284.538 363.200,284.925 363.006,285.084 362.400 C 285.239 361.806,285.630 361.600,286.600 361.600 C 287.570 361.600,287.961 361.394,288.116 360.800 C 288.257 360.260,288.662 360.000,289.359 360.000 C 289.960 360.000,290.603 359.665,290.893 359.200 C 291.168 358.760,291.709 358.400,292.096 358.400 C 292.483 358.400,292.800 358.130,292.800 357.800 C 292.800 357.432,293.174 357.200,293.767 357.200 C 295.148 357.200,296.000 356.802,296.000 356.157 C 296.000 355.851,296.332 355.600,296.738 355.600 C 297.144 355.600,297.802 355.240,298.200 354.800 C 298.598 354.360,299.273 354.000,299.699 354.000 C 300.138 354.000,300.566 353.653,300.684 353.200 C 300.800 352.757,301.230 352.400,301.647 352.400 C 302.061 352.400,302.760 352.040,303.200 351.600 C 303.640 351.160,304.287 350.800,304.637 350.800 C 304.988 350.800,305.369 350.440,305.484 350.000 C 305.600 349.557,306.030 349.200,306.447 349.200 C 306.933 349.200,307.200 348.917,307.200 348.400 C 307.200 347.752,307.467 347.600,308.600 347.600 C 309.733 347.600,310.000 347.448,310.000 346.800 C 310.000 346.267,310.267 346.000,310.800 346.000 C 311.333 346.000,311.600 345.733,311.600 345.200 C 311.600 344.667,311.867 344.400,312.400 344.400 C 312.933 344.400,313.200 344.133,313.200 343.600 C 313.200 342.980,313.467 342.800,314.386 342.800 C 315.162 342.800,315.720 342.524,316.000 342.000 C 316.235 341.560,316.697 341.200,317.027 341.200 C 317.356 341.200,317.726 340.937,317.850 340.615 C 317.973 340.294,318.417 339.921,318.837 339.788 C 319.257 339.655,319.600 339.309,319.600 339.020 C 319.600 338.730,319.960 338.399,320.400 338.284 C 320.840 338.169,321.200 337.809,321.200 337.484 C 321.200 337.159,321.560 336.799,322.000 336.684 C 322.440 336.569,322.800 336.209,322.800 335.884 C 322.800 335.559,323.160 335.199,323.600 335.084 C 324.040 334.969,324.400 334.588,324.400 334.237 C 324.400 333.887,324.670 333.600,325.000 333.600 C 325.333 333.600,325.600 333.244,325.600 332.800 C 325.600 332.267,325.867 332.000,326.400 332.000 C 326.933 332.000,327.200 331.733,327.200 331.200 C 327.200 330.667,327.467 330.400,328.000 330.400 C 328.533 330.400,328.800 330.133,328.800 329.600 C 328.800 329.067,329.067 328.800,329.600 328.800 C 330.133 328.800,330.400 328.533,330.400 328.000 C 330.400 327.467,330.667 327.200,331.200 327.200 C 331.733 327.200,332.000 326.933,332.000 326.400 C 332.000 325.867,332.267 325.600,332.800 325.600 C 333.240 325.600,333.600 325.351,333.600 325.047 C 333.600 324.742,333.960 324.399,334.400 324.284 C 334.840 324.169,335.200 323.809,335.200 323.484 C 335.200 323.159,335.560 322.799,336.000 322.684 C 336.440 322.569,336.800 322.209,336.800 321.884 C 336.800 321.559,337.160 321.199,337.600 321.084 C 338.040 320.969,338.400 320.588,338.400 320.237 C 338.400 319.887,338.658 319.600,338.973 319.600 C 339.288 319.600,339.655 319.257,339.788 318.837 C 339.921 318.417,340.294 317.973,340.615 317.850 C 340.937 317.726,341.200 317.423,341.200 317.176 C 341.200 316.928,341.560 316.269,342.000 315.709 C 342.440 315.150,342.800 314.356,342.800 313.946 C 342.800 313.467,343.086 313.200,343.600 313.200 C 344.133 313.200,344.400 312.933,344.400 312.400 C 344.400 311.867,344.667 311.600,345.200 311.600 C 345.717 311.600,346.000 311.333,346.000 310.847 C 346.000 310.430,346.357 310.000,346.800 309.884 C 347.383 309.732,347.600 309.338,347.600 308.437 C 347.600 307.572,347.792 307.200,348.237 307.200 C 348.588 307.200,348.967 306.846,349.081 306.413 C 349.194 305.981,349.627 305.518,350.043 305.386 C 350.554 305.224,350.800 304.773,350.800 304.000 C 350.800 303.205,351.045 302.776,351.600 302.600 C 352.040 302.460,352.400 302.019,352.400 301.620 C 352.400 301.220,352.760 300.799,353.200 300.684 C 353.813 300.524,354.000 300.138,354.000 299.037 C 354.000 297.867,354.148 297.600,354.800 297.600 C 355.333 297.600,355.600 297.333,355.600 296.800 C 355.600 296.358,355.867 296.000,356.195 296.000 C 356.580 296.000,356.881 295.435,357.046 294.400 C 357.201 293.435,357.520 292.800,357.851 292.800 C 358.212 292.800,358.400 292.320,358.400 291.400 C 358.400 290.267,358.552 290.000,359.200 290.000 C 359.776 290.000,360.000 289.733,360.000 289.047 C 360.000 288.430,360.282 288.019,360.800 287.884 C 361.378 287.733,361.600 287.338,361.600 286.464 C 361.600 285.605,361.832 285.180,362.400 285.000 C 362.988 284.813,363.200 284.395,363.200 283.420 C 363.200 282.430,363.403 282.040,364.000 281.884 C 364.606 281.725,364.800 281.338,364.800 280.284 C 364.800 279.230,364.994 278.843,365.600 278.684 C 366.213 278.524,366.400 278.138,366.400 277.037 C 366.400 276.133,366.697 275.303,367.200 274.800 C 367.685 274.315,368.000 273.467,368.000 272.647 C 368.000 271.630,368.199 271.241,368.800 271.084 C 369.383 270.932,369.600 270.538,369.600 269.637 C 369.600 268.933,369.945 268.055,370.400 267.600 C 370.957 267.043,371.200 266.267,371.200 265.047 C 371.200 263.630,371.353 263.253,372.000 263.084 C 372.677 262.907,372.800 262.538,372.800 260.684 C 372.800 258.830,372.923 258.461,373.600 258.284 C 374.265 258.110,374.400 257.738,374.400 256.080 C 374.400 254.676,374.578 254.017,375.000 253.855 C 375.442 253.686,375.600 252.988,375.600 251.213 C 375.600 249.417,375.743 248.800,376.157 248.800 C 376.947 248.800,377.200 247.895,377.200 245.064 C 377.200 243.026,377.340 242.505,378.000 242.093 C 378.691 241.661,378.800 241.160,378.800 238.411 C 378.800 235.638,378.903 235.173,379.600 234.800 C 380.335 234.407,380.400 233.962,380.400 229.348 C 380.400 224.662,380.454 224.311,381.200 224.116 C 381.989 223.910,382.000 223.570,382.000 199.953 C 382.000 176.267,381.991 176.000,381.200 176.000 C 380.441 176.000,380.400 175.733,380.400 170.814 C 380.400 166.038,380.337 165.594,379.600 165.200 C 378.903 164.827,378.800 164.362,378.800 161.582 C 378.800 158.887,378.676 158.286,378.000 157.707 C 377.347 157.148,377.200 156.527,377.200 154.325 C 377.200 152.038,377.079 151.563,376.400 151.200 C 375.737 150.845,375.600 150.362,375.600 148.386 C 375.600 146.532,375.466 146.000,375.000 146.000 C 374.545 146.000,374.400 145.507,374.400 143.963 C 374.400 142.262,374.268 141.891,373.600 141.716 C 372.923 141.539,372.800 141.170,372.800 139.316 C 372.800 137.462,372.677 137.093,372.000 136.916 C 371.353 136.747,371.200 136.370,371.200 134.953 C 371.200 133.733,370.957 132.957,370.400 132.400 C 369.945 131.945,369.600 131.067,369.600 130.363 C 369.600 129.462,369.383 129.068,368.800 128.916 C 368.173 128.752,368.000 128.370,368.000 127.153 C 368.000 126.133,367.725 125.325,367.200 124.800 C 366.745 124.345,366.400 123.467,366.400 122.763 C 366.400 121.862,366.183 121.468,365.600 121.316 C 364.994 121.157,364.800 120.770,364.800 119.716 C 364.800 118.662,364.606 118.275,364.000 118.116 C 363.394 117.957,363.200 117.570,363.200 116.516 C 363.200 115.462,363.006 115.075,362.400 114.916 C 361.806 114.761,361.600 114.370,361.600 113.400 C 361.600 112.430,361.394 112.039,360.800 111.884 C 360.347 111.766,360.000 111.338,360.000 110.899 C 360.000 110.473,359.640 109.798,359.200 109.400 C 358.760 109.002,358.400 108.344,358.400 107.938 C 358.400 107.532,358.130 107.200,357.800 107.200 C 357.432 107.200,357.200 106.826,357.200 106.233 C 357.200 104.852,356.802 104.000,356.157 104.000 C 355.851 104.000,355.600 103.668,355.600 103.262 C 355.600 102.856,355.240 102.198,354.800 101.800 C 354.360 101.402,354.000 100.727,354.000 100.301 C 354.000 99.862,353.653 99.434,353.200 99.316 C 352.757 99.200,352.400 98.770,352.400 98.353 C 352.400 97.939,352.040 97.240,351.600 96.800 C 351.160 96.360,350.800 95.713,350.800 95.363 C 350.800 95.012,350.457 94.635,350.037 94.526 C 349.617 94.416,349.184 93.983,349.074 93.563 C 348.965 93.143,348.588 92.800,348.237 92.800 C 347.776 92.800,347.600 92.414,347.600 91.400 C 347.600 90.267,347.448 90.000,346.800 90.000 C 346.267 90.000,346.000 89.733,346.000 89.200 C 346.000 88.667,345.733 88.400,345.200 88.400 C 344.667 88.400,344.400 88.133,344.400 87.600 C 344.400 87.067,344.133 86.800,343.600 86.800 C 342.980 86.800,342.800 86.533,342.800 85.614 C 342.800 84.838,342.524 84.280,342.000 84.000 C 341.560 83.765,341.200 83.303,341.200 82.973 C 341.200 82.644,340.937 82.274,340.615 82.150 C 340.294 82.027,339.921 81.583,339.788 81.163 C 339.655 80.743,339.309 80.400,339.020 80.400 C 338.730 80.400,338.399 80.040,338.284 79.600 C 338.169 79.160,337.809 78.800,337.484 78.800 C 337.159 78.800,336.799 78.440,336.684 78.000 C 336.569 77.560,336.188 77.200,335.837 77.200 C 335.487 77.200,335.200 76.942,335.200 76.627 C 335.200 76.312,334.840 75.940,334.400 75.800 C 333.960 75.660,333.600 75.288,333.600 74.973 C 333.600 74.658,333.240 74.400,332.800 74.400 C 332.267 74.400,332.000 74.133,332.000 73.600 C 332.000 73.067,331.733 72.800,331.200 72.800 C 330.667 72.800,330.400 72.533,330.400 72.000 C 330.400 71.467,330.133 71.200,329.600 71.200 C 329.067 71.200,328.800 70.933,328.800 70.400 C 328.800 69.867,328.533 69.600,328.000 69.600 C 327.467 69.600,327.200 69.333,327.200 68.800 C 327.200 68.267,326.933 68.000,326.400 68.000 C 325.867 68.000,325.600 67.733,325.600 67.200 C 325.600 66.760,325.351 66.400,325.047 66.400 C 324.742 66.400,324.399 66.040,324.284 65.600 C 324.169 65.160,323.809 64.800,323.484 64.800 C 323.159 64.800,322.799 64.440,322.684 64.000 C 322.569 63.560,322.188 63.200,321.837 63.200 C 321.487 63.200,321.200 62.913,321.200 62.563 C 321.200 62.212,320.840 61.831,320.400 61.716 C 319.960 61.601,319.600 61.270,319.600 60.980 C 319.600 60.691,319.257 60.345,318.837 60.212 C 318.417 60.079,317.973 59.706,317.850 59.385 C 317.726 59.063,317.356 58.800,317.027 58.800 C 316.697 58.800,316.235 58.440,316.000 58.000 C 315.720 57.476,315.162 57.200,314.386 57.200 C 313.467 57.200,313.200 57.020,313.200 56.400 C 313.200 55.867,312.933 55.600,312.400 55.600 C 311.867 55.600,311.600 55.333,311.600 54.800 C 311.600 54.267,311.333 54.000,310.800 54.000 C 310.267 54.000,310.000 53.733,310.000 53.200 C 310.000 52.552,309.733 52.400,308.600 52.400 C 307.586 52.400,307.200 52.224,307.200 51.763 C 307.200 51.412,306.857 51.035,306.437 50.926 C 306.017 50.816,305.584 50.383,305.474 49.963 C 305.365 49.543,304.988 49.200,304.637 49.200 C 304.287 49.200,303.640 48.840,303.200 48.400 C 302.760 47.960,302.061 47.600,301.647 47.600 C 301.230 47.600,300.800 47.243,300.684 46.800 C 300.543 46.260,300.138 46.000,299.441 46.000 C 298.840 46.000,298.197 45.665,297.907 45.200 C 297.632 44.760,297.091 44.400,296.704 44.400 C 296.317 44.400,296.000 44.146,296.000 43.835 C 296.000 43.488,295.384 43.166,294.400 43.000 C 293.416 42.834,292.800 42.512,292.800 42.165 C 292.800 41.854,292.483 41.600,292.096 41.600 C 291.709 41.600,291.168 41.240,290.893 40.800 C 290.603 40.335,289.960 40.000,289.359 40.000 C 288.662 40.000,288.257 39.740,288.116 39.200 C 287.961 38.606,287.570 38.400,286.600 38.400 C 285.630 38.400,285.239 38.194,285.084 37.600 C 284.925 36.994,284.538 36.800,283.484 36.800 C 282.430 36.800,282.043 36.606,281.884 36.000 C 281.725 35.394,281.338 35.200,280.284 35.200 C 279.230 35.200,278.843 35.006,278.684 34.400 C 278.532 33.817,278.138 33.600,277.237 33.600 C 276.533 33.600,275.655 33.255,275.200 32.800 C 274.675 32.275,273.867 32.000,272.847 32.000 C 271.630 32.000,271.248 31.827,271.084 31.200 C 270.932 30.617,270.538 30.400,269.637 30.400 C 268.933 30.400,268.055 30.055,267.600 29.600 C 267.043 29.043,266.267 28.800,265.047 28.800 C 263.630 28.800,263.253 28.647,263.084 28.000 C 262.906 27.320,262.538 27.200,260.637 27.200 C 258.999 27.200,258.400 27.052,258.400 26.647 C 258.400 26.016,257.200 25.613,255.300 25.605 C 254.414 25.602,254.000 25.409,254.000 25.000 C 254.000 24.534,253.468 24.400,251.614 24.400 C 249.638 24.400,249.155 24.263,248.800 23.600 C 248.437 22.921,247.962 22.800,245.675 22.800 C 243.473 22.800,242.852 22.653,242.293 22.000 C 241.714 21.324,241.113 21.200,238.418 21.200 C 235.638 21.200,235.173 21.097,234.800 20.400 C 234.407 19.665,233.962 19.600,229.348 19.600 C 224.662 19.600,224.311 19.546,224.116 18.800 C 223.910 18.011,223.570 18.000,199.953 18.000 C 176.267 18.000,176.000 18.009,176.000 18.800 M201.023 39.100 C 201.481 39.726,202.556 39.814,211.251 39.938 C 219.657 40.057,221.031 40.164,221.443 40.726 C 221.818 41.239,222.840 41.410,226.259 41.533 C 229.410 41.647,230.688 41.842,230.920 42.245 C 231.155 42.653,232.187 42.800,234.820 42.800 C 238.133 42.800,238.400 42.860,238.400 43.600 C 238.400 44.307,238.667 44.400,240.704 44.400 C 242.574 44.400,243.102 44.550,243.507 45.200 C 243.923 45.867,244.440 46.000,246.603 46.000 C 248.933 46.000,249.200 46.082,249.200 46.800 C 249.200 47.511,249.467 47.600,251.600 47.600 C 253.733 47.600,254.000 47.689,254.000 48.400 C 254.000 49.067,254.267 49.200,255.600 49.200 C 256.701 49.200,257.200 49.374,257.200 49.757 C 257.200 50.472,258.077 50.800,259.986 50.800 C 261.170 50.800,261.553 50.977,261.716 51.600 C 261.876 52.213,262.262 52.400,263.363 52.400 C 264.325 52.400,264.800 52.584,264.800 52.957 C 264.800 53.595,265.650 54.000,266.990 54.000 C 267.498 54.000,268.014 54.260,268.136 54.578 C 268.258 54.896,268.985 55.273,269.751 55.417 C 270.518 55.561,271.238 55.921,271.351 56.217 C 271.465 56.513,272.197 56.876,272.979 57.022 C 273.797 57.176,274.400 57.525,274.400 57.845 C 274.400 58.211,274.868 58.400,275.773 58.400 C 276.795 58.400,277.211 58.605,277.400 59.200 C 277.589 59.795,278.005 60.000,279.027 60.000 C 280.133 60.000,280.400 60.155,280.400 60.800 C 280.400 61.422,280.667 61.600,281.597 61.600 C 282.360 61.600,282.974 61.890,283.293 62.400 C 283.568 62.840,284.088 63.200,284.450 63.200 C 284.811 63.200,285.201 63.560,285.316 64.000 C 285.476 64.613,285.862 64.800,286.963 64.800 C 288.133 64.800,288.400 64.948,288.400 65.600 C 288.400 66.117,288.667 66.400,289.153 66.400 C 289.570 66.400,290.000 66.757,290.116 67.200 C 290.266 67.774,290.662 68.000,291.516 68.000 C 292.370 68.000,292.766 68.226,292.916 68.800 C 293.031 69.240,293.400 69.600,293.736 69.600 C 294.071 69.600,294.460 69.960,294.600 70.400 C 294.740 70.840,295.202 71.200,295.627 71.200 C 296.052 71.200,296.400 71.462,296.400 71.782 C 296.400 72.127,296.954 72.468,297.763 72.619 C 298.632 72.782,299.199 73.152,299.326 73.638 C 299.435 74.057,299.812 74.400,300.163 74.400 C 300.513 74.400,300.800 74.670,300.800 75.000 C 300.800 75.333,301.156 75.600,301.600 75.600 C 302.133 75.600,302.400 75.867,302.400 76.400 C 302.400 76.917,302.667 77.200,303.153 77.200 C 303.570 77.200,304.000 77.557,304.116 78.000 C 304.231 78.440,304.612 78.800,304.963 78.800 C 305.313 78.800,305.960 79.160,306.400 79.600 C 306.840 80.040,307.560 80.400,308.000 80.400 C 308.533 80.400,308.800 80.667,308.800 81.200 C 308.800 81.644,309.067 82.000,309.400 82.000 C 309.730 82.000,310.000 82.287,310.000 82.637 C 310.000 82.988,310.343 83.365,310.763 83.474 C 311.183 83.584,311.616 84.017,311.726 84.437 C 311.835 84.857,312.212 85.200,312.563 85.200 C 312.913 85.200,313.200 85.487,313.200 85.837 C 313.200 86.188,313.560 86.569,314.000 86.684 C 314.440 86.799,314.800 87.159,314.800 87.484 C 314.800 87.809,315.160 88.169,315.600 88.284 C 316.040 88.399,316.400 88.759,316.400 89.084 C 316.400 89.409,316.760 89.769,317.200 89.884 C 317.640 89.999,318.000 90.359,318.000 90.684 C 318.000 91.009,318.360 91.369,318.800 91.484 C 319.240 91.599,319.600 91.942,319.600 92.247 C 319.600 92.551,319.960 92.800,320.400 92.800 C 321.022 92.800,321.200 93.067,321.200 93.997 C 321.200 94.760,321.490 95.374,322.000 95.693 C 322.440 95.968,322.800 96.509,322.800 96.896 C 322.800 97.333,323.103 97.600,323.600 97.600 C 324.133 97.600,324.400 97.867,324.400 98.400 C 324.400 98.840,324.658 99.200,324.973 99.200 C 325.288 99.200,325.660 99.560,325.800 100.000 C 325.940 100.440,326.312 100.800,326.627 100.800 C 326.942 100.800,327.200 101.064,327.200 101.386 C 327.200 101.708,327.560 102.165,328.000 102.400 C 328.472 102.653,328.800 103.238,328.800 103.827 C 328.800 104.376,329.084 104.934,329.431 105.067 C 329.777 105.200,330.223 105.735,330.421 106.255 C 330.618 106.775,331.055 107.200,331.390 107.200 C 331.733 107.200,332.000 107.550,332.000 108.000 C 332.000 108.440,332.360 109.160,332.800 109.600 C 333.240 110.040,333.600 110.670,333.600 111.000 C 333.600 111.333,333.956 111.600,334.400 111.600 C 335.022 111.600,335.200 111.867,335.200 112.797 C 335.200 113.560,335.490 114.174,336.000 114.493 C 336.440 114.768,336.800 115.309,336.800 115.696 C 336.800 116.133,337.103 116.400,337.600 116.400 C 338.252 116.400,338.400 116.667,338.400 117.837 C 338.400 118.938,338.587 119.324,339.200 119.484 C 339.801 119.641,340.000 120.030,340.000 121.047 C 340.000 122.133,340.158 122.400,340.800 122.400 C 341.377 122.400,341.600 122.667,341.600 123.357 C 341.600 123.884,341.870 124.418,342.200 124.545 C 342.530 124.671,342.800 125.203,342.800 125.725 C 342.800 126.248,343.160 127.002,343.600 127.400 C 344.040 127.798,344.400 128.593,344.400 129.166 C 344.400 129.748,344.728 130.412,345.143 130.672 C 345.597 130.955,345.975 131.797,346.114 132.836 C 346.239 133.771,346.625 134.694,346.971 134.888 C 347.350 135.100,347.600 135.778,347.600 136.593 C 347.600 137.595,347.808 138.012,348.400 138.200 C 348.993 138.388,349.200 138.805,349.200 139.813 C 349.200 140.762,349.441 141.301,350.000 141.600 C 350.635 141.940,350.800 142.438,350.800 144.014 C 350.800 145.733,350.907 146.000,351.600 146.000 C 352.311 146.000,352.400 146.267,352.400 148.400 C 352.400 150.533,352.489 150.800,353.200 150.800 C 353.907 150.800,354.000 151.067,354.000 153.104 C 354.000 154.974,354.150 155.502,354.800 155.907 C 355.467 156.323,355.600 156.840,355.600 159.003 C 355.600 161.333,355.682 161.600,356.400 161.600 C 357.140 161.600,357.200 161.867,357.200 165.180 C 357.200 167.926,357.338 168.838,357.792 169.092 C 358.227 169.335,358.454 170.534,358.645 173.612 C 358.820 176.411,359.102 178.025,359.496 178.479 C 360.388 179.505,360.382 220.612,359.490 221.324 C 359.062 221.666,358.828 222.982,358.658 225.997 C 358.484 229.094,358.261 230.312,357.811 230.642 C 357.340 230.986,357.200 231.927,357.200 234.744 C 357.200 238.133,357.142 238.400,356.400 238.400 C 355.689 238.400,355.600 238.667,355.600 240.800 C 355.600 242.585,355.457 243.200,355.043 243.200 C 354.259 243.200,354.000 244.103,354.000 246.833 C 354.000 248.933,353.910 249.200,353.200 249.200 C 352.489 249.200,352.400 249.467,352.400 251.600 C 352.400 253.733,352.311 254.000,351.600 254.000 C 350.933 254.000,350.800 254.267,350.800 255.600 C 350.800 256.701,350.626 257.200,350.243 257.200 C 349.528 257.200,349.200 258.077,349.200 259.986 C 349.200 261.170,349.023 261.553,348.400 261.716 C 347.787 261.876,347.600 262.262,347.600 263.363 C 347.600 264.325,347.416 264.800,347.043 264.800 C 346.405 264.800,346.000 265.650,346.000 266.990 C 346.000 267.498,345.740 268.014,345.422 268.136 C 345.104 268.258,344.724 268.997,344.578 269.779 C 344.431 270.561,344.077 271.200,343.791 271.200 C 343.495 271.200,343.153 271.892,343.000 272.800 C 342.834 273.784,342.512 274.400,342.165 274.400 C 341.788 274.400,341.600 274.857,341.600 275.773 C 341.600 276.795,341.395 277.211,340.800 277.400 C 340.205 277.589,340.000 278.005,340.000 279.027 C 340.000 280.133,339.845 280.400,339.200 280.400 C 338.578 280.400,338.400 280.667,338.400 281.597 C 338.400 282.360,338.110 282.974,337.600 283.293 C 337.160 283.568,336.800 284.109,336.800 284.496 C 336.800 284.933,336.497 285.200,336.000 285.200 C 335.333 285.200,335.200 285.467,335.200 286.800 C 335.200 288.133,335.067 288.400,334.400 288.400 C 333.883 288.400,333.600 288.667,333.600 289.153 C 333.600 289.570,333.243 290.000,332.800 290.116 C 332.217 290.268,332.000 290.662,332.000 291.563 C 332.000 292.428,331.808 292.800,331.363 292.800 C 331.012 292.800,330.633 293.154,330.519 293.587 C 330.406 294.019,329.973 294.482,329.557 294.614 C 329.141 294.746,328.800 295.202,328.800 295.627 C 328.800 296.052,328.538 296.400,328.218 296.400 C 327.870 296.400,327.531 296.962,327.374 297.800 C 327.229 298.570,326.873 299.200,326.582 299.200 C 326.292 299.200,325.940 299.560,325.800 300.000 C 325.660 300.440,325.288 300.800,324.973 300.800 C 324.658 300.800,324.400 301.160,324.400 301.600 C 324.400 302.133,324.133 302.400,323.600 302.400 C 323.067 302.400,322.800 302.667,322.800 303.200 C 322.800 303.652,322.533 304.000,322.187 304.000 C 321.851 304.000,321.462 304.315,321.323 304.700 C 321.185 305.085,320.741 305.722,320.336 306.116 C 319.931 306.509,319.600 307.274,319.600 307.816 C 319.600 308.533,319.383 308.800,318.800 308.800 C 318.356 308.800,318.000 309.067,318.000 309.400 C 318.000 309.730,317.713 310.000,317.363 310.000 C 317.012 310.000,316.631 310.360,316.516 310.800 C 316.401 311.240,316.041 311.600,315.716 311.600 C 315.391 311.600,315.031 311.960,314.916 312.400 C 314.801 312.840,314.441 313.200,314.116 313.200 C 313.791 313.200,313.431 313.560,313.316 314.000 C 313.201 314.440,312.841 314.800,312.516 314.800 C 312.191 314.800,311.831 315.160,311.716 315.600 C 311.601 316.040,311.241 316.400,310.916 316.400 C 310.591 316.400,310.231 316.760,310.116 317.200 C 310.001 317.640,309.658 318.000,309.353 318.000 C 309.049 318.000,308.800 318.360,308.800 318.800 C 308.800 319.383,308.533 319.600,307.816 319.600 C 307.274 319.600,306.509 319.931,306.116 320.336 C 305.722 320.741,305.085 321.185,304.700 321.323 C 304.315 321.462,304.000 321.851,304.000 322.187 C 304.000 322.533,303.652 322.800,303.200 322.800 C 302.667 322.800,302.400 323.067,302.400 323.600 C 302.400 324.133,302.133 324.400,301.600 324.400 C 301.160 324.400,300.800 324.658,300.800 324.973 C 300.800 325.288,300.440 325.660,300.000 325.800 C 299.560 325.940,299.200 326.292,299.200 326.582 C 299.200 326.873,298.570 327.229,297.800 327.374 C 296.962 327.531,296.400 327.870,296.400 328.218 C 296.400 328.538,296.052 328.800,295.627 328.800 C 295.202 328.800,294.746 329.141,294.614 329.557 C 294.482 329.973,294.019 330.406,293.587 330.519 C 293.154 330.633,292.800 331.012,292.800 331.363 C 292.800 331.808,292.428 332.000,291.563 332.000 C 290.662 332.000,290.268 332.217,290.116 332.800 C 290.000 333.243,289.570 333.600,289.153 333.600 C 288.667 333.600,288.400 333.883,288.400 334.400 C 288.400 335.067,288.133 335.200,286.800 335.200 C 285.467 335.200,285.200 335.333,285.200 336.000 C 285.200 336.497,284.933 336.800,284.496 336.800 C 284.109 336.800,283.568 337.160,283.293 337.600 C 282.974 338.110,282.360 338.400,281.597 338.400 C 280.667 338.400,280.400 338.578,280.400 339.200 C 280.400 339.845,280.133 340.000,279.027 340.000 C 278.005 340.000,277.589 340.205,277.400 340.800 C 277.211 341.395,276.795 341.600,275.773 341.600 C 274.857 341.600,274.400 341.788,274.400 342.165 C 274.400 342.512,273.784 342.834,272.800 343.000 C 271.892 343.153,271.200 343.495,271.200 343.791 C 271.200 344.077,270.561 344.431,269.779 344.578 C 268.997 344.724,268.258 345.104,268.136 345.422 C 268.001 345.773,267.367 346.000,266.520 346.000 C 265.462 346.000,265.075 346.193,264.916 346.800 C 264.757 347.406,264.370 347.600,263.316 347.600 C 262.262 347.600,261.875 347.794,261.716 348.400 C 261.553 349.023,261.170 349.200,259.986 349.200 C 258.077 349.200,257.200 349.528,257.200 350.243 C 257.200 350.626,256.701 350.800,255.600 350.800 C 254.267 350.800,254.000 350.933,254.000 351.600 C 254.000 352.311,253.733 352.400,251.600 352.400 C 249.467 352.400,249.200 352.489,249.200 353.200 C 249.200 353.910,248.933 354.000,246.833 354.000 C 244.103 354.000,243.200 354.259,243.200 355.043 C 243.200 355.457,242.585 355.600,240.800 355.600 C 238.667 355.600,238.400 355.689,238.400 356.400 C 238.400 357.140,238.133 357.200,234.820 357.200 C 232.057 357.200,231.163 357.337,230.905 357.799 C 230.654 358.247,229.470 358.460,226.185 358.646 C 223.467 358.801,221.647 359.083,221.398 359.390 C 221.108 359.747,218.291 359.939,211.235 360.085 C 202.794 360.259,201.407 360.375,200.992 360.943 C 200.380 361.780,199.620 361.780,199.008 360.943 C 198.593 360.375,197.206 360.259,188.765 360.085 C 181.705 359.939,178.892 359.747,178.602 359.389 C 178.354 359.085,176.587 358.804,174.003 358.658 C 170.906 358.484,169.688 358.261,169.358 357.811 C 169.014 357.340,168.073 357.200,165.256 357.200 C 161.867 357.200,161.600 357.142,161.600 356.400 C 161.600 355.693,161.333 355.600,159.296 355.600 C 157.426 355.600,156.898 355.450,156.493 354.800 C 156.077 354.133,155.560 354.000,153.397 354.000 C 151.067 354.000,150.800 353.918,150.800 353.200 C 150.800 352.489,150.533 352.400,148.400 352.400 C 146.267 352.400,146.000 352.311,146.000 351.600 C 146.000 350.933,145.733 350.800,144.400 350.800 C 143.299 350.800,142.800 350.626,142.800 350.243 C 142.800 349.528,141.923 349.200,140.014 349.200 C 138.830 349.200,138.447 349.023,138.284 348.400 C 138.124 347.787,137.738 347.600,136.637 347.600 C 135.675 347.600,135.200 347.416,135.200 347.043 C 135.200 346.405,134.350 346.000,133.010 346.000 C 132.502 346.000,131.986 345.740,131.864 345.422 C 131.742 345.104,131.003 344.724,130.221 344.578 C 129.439 344.431,128.800 344.077,128.800 343.791 C 128.800 343.495,128.108 343.153,127.200 343.000 C 126.216 342.834,125.600 342.512,125.600 342.165 C 125.600 341.788,125.143 341.600,124.227 341.600 C 123.205 341.600,122.789 341.395,122.600 340.800 C 122.411 340.205,121.995 340.000,120.973 340.000 C 119.867 340.000,119.600 339.845,119.600 339.200 C 119.600 338.667,119.333 338.400,118.800 338.400 C 118.360 338.400,117.640 338.040,117.200 337.600 C 116.760 337.160,116.040 336.800,115.600 336.800 C 115.067 336.800,114.800 336.533,114.800 336.000 C 114.800 335.333,114.533 335.200,113.200 335.200 C 111.867 335.200,111.600 335.067,111.600 334.400 C 111.600 333.883,111.333 333.600,110.847 333.600 C 110.430 333.600,110.000 333.243,109.884 332.800 C 109.732 332.217,109.338 332.000,108.437 332.000 C 107.572 332.000,107.200 331.808,107.200 331.363 C 107.200 331.012,106.846 330.633,106.413 330.519 C 105.981 330.406,105.518 329.973,105.386 329.557 C 105.254 329.141,104.883 328.800,104.560 328.800 C 104.238 328.800,103.873 328.535,103.749 328.211 C 103.624 327.887,102.910 327.507,102.161 327.366 C 101.413 327.226,100.800 326.873,100.800 326.582 C 100.800 326.292,100.440 325.940,100.000 325.800 C 99.560 325.660,99.200 325.288,99.200 324.973 C 99.200 324.658,98.840 324.400,98.400 324.400 C 97.867 324.400,97.600 324.133,97.600 323.600 C 97.600 323.067,97.333 322.800,96.800 322.800 C 96.267 322.800,96.000 322.533,96.000 322.000 C 96.000 321.500,95.733 321.200,95.289 321.200 C 94.898 321.200,94.270 320.840,93.893 320.400 C 93.516 319.960,92.846 319.600,92.404 319.600 C 91.867 319.600,91.600 319.335,91.600 318.800 C 91.600 318.283,91.333 318.000,90.847 318.000 C 90.430 318.000,90.000 317.643,89.884 317.200 C 89.769 316.760,89.409 316.400,89.084 316.400 C 88.759 316.400,88.399 316.040,88.284 315.600 C 88.169 315.160,87.809 314.800,87.484 314.800 C 87.159 314.800,86.799 314.440,86.684 314.000 C 86.569 313.560,86.209 313.200,85.884 313.200 C 85.559 313.200,85.199 312.840,85.084 312.400 C 84.969 311.960,84.609 311.600,84.284 311.600 C 83.959 311.600,83.599 311.240,83.484 310.800 C 83.369 310.360,82.988 310.000,82.637 310.000 C 82.287 310.000,82.000 309.730,82.000 309.400 C 82.000 309.067,81.644 308.800,81.200 308.800 C 80.667 308.800,80.400 308.533,80.400 308.000 C 80.400 307.467,80.133 307.200,79.600 307.200 C 78.948 307.200,78.800 306.933,78.800 305.763 C 78.800 304.662,78.613 304.276,78.000 304.116 C 77.557 304.000,77.200 303.570,77.200 303.153 C 77.200 302.667,76.917 302.400,76.400 302.400 C 75.867 302.400,75.600 302.133,75.600 301.600 C 75.600 301.160,75.351 300.800,75.047 300.800 C 74.742 300.800,74.399 300.440,74.284 300.000 C 74.169 299.560,73.809 299.200,73.484 299.200 C 73.159 299.200,72.787 298.885,72.658 298.500 C 72.227 297.222,70.824 295.045,70.207 294.700 C 69.873 294.513,69.600 294.111,69.600 293.807 C 69.600 293.503,69.240 293.140,68.800 293.000 C 68.360 292.860,68.000 292.398,68.000 291.973 C 68.000 291.548,67.640 290.840,67.200 290.400 C 66.760 289.960,66.400 289.330,66.400 289.000 C 66.400 288.667,66.044 288.400,65.600 288.400 C 64.948 288.400,64.800 288.133,64.800 286.963 C 64.800 285.862,64.613 285.476,64.000 285.316 C 63.557 285.200,63.200 284.770,63.200 284.353 C 63.200 283.867,62.917 283.600,62.400 283.600 C 61.748 283.600,61.600 283.333,61.600 282.163 C 61.600 281.062,61.413 280.676,60.800 280.516 C 60.199 280.359,60.000 279.970,60.000 278.953 C 60.000 277.867,59.842 277.600,59.200 277.600 C 58.623 277.600,58.400 277.333,58.400 276.643 C 58.400 276.116,58.130 275.582,57.800 275.455 C 57.470 275.329,57.200 274.797,57.200 274.275 C 57.200 273.752,56.840 272.998,56.400 272.600 C 55.960 272.202,55.600 271.407,55.600 270.834 C 55.600 270.252,55.272 269.588,54.857 269.328 C 54.403 269.045,54.025 268.203,53.886 267.164 C 53.761 266.229,53.375 265.306,53.029 265.112 C 52.650 264.900,52.400 264.222,52.400 263.407 C 52.400 262.405,52.192 261.988,51.600 261.800 C 51.020 261.616,50.800 261.195,50.800 260.269 C 50.800 259.426,50.529 258.823,50.000 258.493 C 49.374 258.102,49.200 257.560,49.200 255.997 C 49.200 254.267,49.093 254.000,48.400 254.000 C 47.689 254.000,47.600 253.733,47.600 251.600 C 47.600 249.467,47.511 249.200,46.800 249.200 C 46.095 249.200,46.000 248.933,46.000 246.963 C 46.000 245.062,45.880 244.694,45.200 244.516 C 44.491 244.331,44.400 243.970,44.400 241.353 C 44.400 238.667,44.328 238.400,43.600 238.400 C 42.860 238.400,42.800 238.133,42.800 234.820 C 42.800 232.191,42.653 231.155,42.246 230.920 C 41.849 230.690,41.647 229.429,41.530 226.456 C 41.397 223.036,41.242 222.220,40.643 221.782 C 39.508 220.952,39.514 179.444,40.649 178.614 C 41.269 178.161,41.409 177.376,41.537 173.638 C 41.655 170.190,41.812 169.200,42.244 169.200 C 42.680 169.200,42.800 168.377,42.800 165.400 C 42.800 161.867,42.856 161.600,43.600 161.600 C 44.307 161.600,44.400 161.333,44.400 159.296 C 44.400 157.426,44.550 156.898,45.200 156.493 C 45.867 156.077,46.000 155.560,46.000 153.397 C 46.000 151.067,46.082 150.800,46.800 150.800 C 47.511 150.800,47.600 150.533,47.600 148.400 C 47.600 146.267,47.689 146.000,48.400 146.000 C 49.067 146.000,49.200 145.733,49.200 144.400 C 49.200 143.299,49.374 142.800,49.757 142.800 C 50.472 142.800,50.800 141.923,50.800 140.014 C 50.800 138.830,50.977 138.447,51.600 138.284 C 52.213 138.124,52.400 137.738,52.400 136.637 C 52.400 135.675,52.584 135.200,52.957 135.200 C 53.595 135.200,54.000 134.350,54.000 133.010 C 54.000 132.502,54.260 131.986,54.578 131.864 C 54.896 131.742,55.273 131.015,55.417 130.249 C 55.561 129.482,55.921 128.762,56.217 128.649 C 56.513 128.535,56.876 127.803,57.022 127.021 C 57.176 126.203,57.525 125.600,57.845 125.600 C 58.211 125.600,58.400 125.132,58.400 124.227 C 58.400 123.205,58.605 122.789,59.200 122.600 C 59.795 122.411,60.000 121.995,60.000 120.973 C 60.000 119.867,60.155 119.600,60.800 119.600 C 61.422 119.600,61.600 119.333,61.600 118.403 C 61.600 117.640,61.890 117.026,62.400 116.707 C 62.840 116.432,63.200 115.891,63.200 115.504 C 63.200 115.067,63.503 114.800,64.000 114.800 C 64.667 114.800,64.800 114.533,64.800 113.200 C 64.800 111.867,64.933 111.600,65.600 111.600 C 66.117 111.600,66.400 111.333,66.400 110.847 C 66.400 110.430,66.757 110.000,67.200 109.884 C 67.774 109.734,68.000 109.338,68.000 108.484 C 68.000 107.630,68.226 107.234,68.800 107.084 C 69.240 106.969,69.600 106.600,69.600 106.264 C 69.600 105.929,69.960 105.540,70.400 105.400 C 70.840 105.260,71.200 104.798,71.200 104.373 C 71.200 103.948,71.462 103.600,71.782 103.600 C 72.127 103.600,72.468 103.046,72.619 102.237 C 72.782 101.368,73.152 100.801,73.638 100.674 C 74.057 100.565,74.400 100.188,74.400 99.837 C 74.400 99.487,74.670 99.200,75.000 99.200 C 75.333 99.200,75.600 98.844,75.600 98.400 C 75.600 97.867,75.867 97.600,76.400 97.600 C 76.933 97.600,77.200 97.333,77.200 96.800 C 77.200 96.348,77.467 96.000,77.813 96.000 C 78.149 96.000,78.538 95.685,78.677 95.300 C 78.815 94.915,79.259 94.278,79.664 93.884 C 80.069 93.491,80.400 92.816,80.400 92.384 C 80.400 91.867,80.672 91.600,81.200 91.600 C 81.717 91.600,82.000 91.333,82.000 90.847 C 82.000 90.430,82.357 90.000,82.800 89.884 C 83.240 89.769,83.600 89.388,83.600 89.037 C 83.600 88.667,83.935 88.400,84.400 88.400 C 84.933 88.400,85.200 88.133,85.200 87.600 C 85.200 87.067,85.467 86.800,86.000 86.800 C 86.517 86.800,86.800 86.533,86.800 86.047 C 86.800 85.630,87.157 85.200,87.600 85.084 C 88.040 84.969,88.400 84.609,88.400 84.284 C 88.400 83.959,88.760 83.599,89.200 83.484 C 89.640 83.369,90.000 82.988,90.000 82.637 C 90.000 82.267,90.335 82.000,90.800 82.000 C 91.333 82.000,91.600 81.733,91.600 81.200 C 91.600 80.756,91.867 80.400,92.200 80.400 C 92.533 80.400,92.800 80.044,92.800 79.600 C 92.800 78.978,93.067 78.800,93.997 78.800 C 94.760 78.800,95.374 78.510,95.693 78.000 C 95.968 77.560,96.509 77.200,96.896 77.200 C 97.333 77.200,97.600 76.897,97.600 76.400 C 97.600 75.867,97.867 75.600,98.400 75.600 C 98.844 75.600,99.200 75.333,99.200 75.000 C 99.200 74.670,99.487 74.400,99.837 74.400 C 100.188 74.400,100.569 74.040,100.684 73.600 C 100.800 73.157,101.230 72.800,101.647 72.800 C 102.061 72.800,102.400 72.648,102.400 72.463 C 102.400 72.278,103.030 71.787,103.800 71.372 C 104.570 70.957,105.200 70.475,105.200 70.299 C 105.200 70.124,105.650 69.809,106.200 69.600 C 106.750 69.391,107.200 68.945,107.200 68.610 C 107.200 68.267,107.550 68.000,108.000 68.000 C 108.440 68.000,109.160 67.640,109.600 67.200 C 110.040 66.760,110.670 66.400,111.000 66.400 C 111.333 66.400,111.600 66.044,111.600 65.600 C 111.600 64.978,111.867 64.800,112.797 64.800 C 113.560 64.800,114.174 64.510,114.493 64.000 C 114.768 63.560,115.309 63.200,115.696 63.200 C 116.133 63.200,116.400 62.897,116.400 62.400 C 116.400 61.748,116.667 61.600,117.837 61.600 C 118.938 61.600,119.324 61.413,119.484 60.800 C 119.641 60.199,120.030 60.000,121.047 60.000 C 122.133 60.000,122.400 59.842,122.400 59.200 C 122.400 58.623,122.667 58.400,123.357 58.400 C 123.884 58.400,124.418 58.130,124.545 57.800 C 124.673 57.465,125.268 57.200,125.891 57.200 C 126.574 57.200,127.201 56.890,127.507 56.400 C 127.826 55.890,128.440 55.600,129.203 55.600 C 130.106 55.600,130.400 55.416,130.400 54.851 C 130.400 54.242,130.783 54.065,132.454 53.904 C 133.783 53.777,134.638 53.476,134.874 53.054 C 135.100 52.650,135.757 52.400,136.593 52.400 C 137.595 52.400,138.012 52.192,138.200 51.600 C 138.388 51.007,138.805 50.800,139.813 50.800 C 140.762 50.800,141.301 50.559,141.600 50.000 C 141.940 49.365,142.438 49.200,144.014 49.200 C 145.733 49.200,146.000 49.093,146.000 48.400 C 146.000 47.695,146.267 47.600,148.237 47.600 C 150.138 47.600,150.506 47.480,150.684 46.800 C 150.861 46.123,151.230 46.000,153.084 46.000 C 154.938 46.000,155.307 45.877,155.484 45.200 C 155.669 44.491,156.030 44.400,158.647 44.400 C 161.333 44.400,161.600 44.328,161.600 43.600 C 161.600 42.859,161.867 42.800,165.213 42.800 C 168.055 42.800,168.874 42.672,169.055 42.200 C 169.237 41.726,170.066 41.600,172.989 41.600 C 176.026 41.600,176.867 41.463,177.662 40.837 C 178.544 40.143,179.521 40.062,188.572 39.937 C 197.515 39.814,198.558 39.730,198.955 39.100 C 199.197 38.715,199.647 38.400,199.954 38.400 C 200.261 38.400,200.742 38.715,201.023 39.100 M152.098 148.392 C 151.826 148.828,151.157 149.296,150.612 149.433 C 149.878 149.617,149.555 150.034,149.366 151.041 C 149.183 152.017,148.898 152.400,148.355 152.400 C 147.652 152.400,147.600 152.773,147.600 157.800 C 147.600 162.827,147.652 163.200,148.355 163.200 C 148.902 163.200,149.184 163.587,149.374 164.600 C 149.524 165.401,149.874 166.000,150.191 166.000 C 150.496 166.000,150.860 166.360,151.000 166.800 C 151.140 167.240,151.512 167.600,151.827 167.600 C 152.142 167.600,152.400 167.887,152.400 168.237 C 152.400 168.588,152.760 168.969,153.200 169.084 C 153.640 169.199,154.000 169.559,154.000 169.884 C 154.000 170.209,154.343 170.565,154.763 170.674 C 155.183 170.784,155.616 171.217,155.726 171.637 C 155.835 172.057,156.212 172.400,156.563 172.400 C 156.913 172.400,157.200 172.687,157.200 173.037 C 157.200 173.388,157.543 173.765,157.963 173.874 C 158.383 173.984,158.816 174.417,158.926 174.837 C 159.035 175.257,159.412 175.600,159.763 175.600 C 160.133 175.600,160.400 175.935,160.400 176.400 C 160.400 176.933,160.667 177.200,161.200 177.200 C 161.717 177.200,162.000 177.467,162.000 177.953 C 162.000 178.370,162.357 178.800,162.800 178.916 C 163.240 179.031,163.600 179.412,163.600 179.763 C 163.600 180.113,163.858 180.400,164.173 180.400 C 164.488 180.400,164.860 180.760,165.000 181.200 C 165.140 181.640,165.491 182.000,165.780 182.000 C 166.070 182.000,166.401 182.360,166.516 182.800 C 166.631 183.240,167.012 183.600,167.363 183.600 C 167.713 183.600,168.000 183.858,168.000 184.173 C 168.000 184.488,168.360 184.860,168.800 185.000 C 169.240 185.140,169.600 185.500,169.600 185.800 C 169.600 186.100,169.960 186.460,170.400 186.600 C 170.840 186.740,171.200 187.091,171.200 187.380 C 171.200 187.670,171.560 188.001,172.000 188.116 C 172.440 188.231,172.800 188.612,172.800 188.963 C 172.800 189.333,173.135 189.600,173.600 189.600 C 174.133 189.600,174.400 189.867,174.400 190.400 C 174.400 190.933,174.667 191.200,175.200 191.200 C 175.717 191.200,176.000 191.467,176.000 191.953 C 176.000 192.370,176.357 192.800,176.800 192.916 C 177.240 193.031,177.600 193.412,177.600 193.763 C 177.600 194.113,177.858 194.400,178.173 194.400 C 178.488 194.400,178.860 194.760,179.000 195.200 C 179.140 195.640,179.512 196.000,179.827 196.000 C 180.142 196.000,180.400 196.287,180.400 196.637 C 180.400 196.988,180.760 197.369,181.200 197.484 C 181.640 197.599,182.000 197.959,182.000 198.284 C 182.000 198.609,182.360 198.969,182.800 199.084 C 183.750 199.333,183.889 200.800,182.963 200.800 C 182.612 200.800,182.231 201.160,182.116 201.600 C 182.001 202.040,181.641 202.400,181.316 202.400 C 180.991 202.400,180.631 202.760,180.516 203.200 C 180.401 203.640,180.041 204.000,179.716 204.000 C 179.391 204.000,179.031 204.360,178.916 204.800 C 178.801 205.240,178.470 205.600,178.180 205.600 C 177.891 205.600,177.540 205.960,177.400 206.400 C 177.260 206.840,176.888 207.200,176.573 207.200 C 176.258 207.200,176.000 207.560,176.000 208.000 C 176.000 208.533,175.733 208.800,175.200 208.800 C 174.760 208.800,174.400 209.058,174.400 209.373 C 174.400 209.688,174.040 210.060,173.600 210.200 C 173.160 210.340,172.800 210.712,172.800 211.027 C 172.800 211.342,172.513 211.600,172.163 211.600 C 171.812 211.600,171.431 211.960,171.316 212.400 C 171.201 212.840,170.841 213.200,170.516 213.200 C 170.191 213.200,169.831 213.560,169.716 214.000 C 169.601 214.440,169.241 214.800,168.916 214.800 C 168.591 214.800,168.231 215.160,168.116 215.600 C 168.001 216.040,167.641 216.400,167.316 216.400 C 166.991 216.400,166.631 216.760,166.516 217.200 C 166.401 217.640,166.041 218.000,165.716 218.000 C 165.391 218.000,165.035 218.343,164.926 218.763 C 164.816 219.183,164.383 219.616,163.963 219.726 C 163.543 219.835,163.200 220.191,163.200 220.516 C 163.200 220.841,162.840 221.201,162.400 221.316 C 161.960 221.431,161.600 221.812,161.600 222.163 C 161.600 222.513,161.342 222.800,161.027 222.800 C 160.712 222.800,160.340 223.160,160.200 223.600 C 160.060 224.040,159.688 224.400,159.373 224.400 C 159.058 224.400,158.800 224.687,158.800 225.037 C 158.800 225.388,158.440 225.769,158.000 225.884 C 157.560 225.999,157.200 226.321,157.200 226.600 C 157.200 226.879,156.840 227.201,156.400 227.316 C 155.960 227.431,155.600 227.791,155.600 228.116 C 155.600 228.441,155.240 228.801,154.800 228.916 C 154.360 229.031,154.000 229.412,154.000 229.763 C 154.000 230.133,153.665 230.400,153.200 230.400 C 152.667 230.400,152.400 230.667,152.400 231.200 C 152.400 231.733,152.133 232.000,151.600 232.000 C 151.067 232.000,150.800 232.267,150.800 232.800 C 150.800 233.333,150.533 233.600,150.000 233.600 C 149.467 233.600,149.200 233.867,149.200 234.400 C 149.200 234.840,148.949 235.200,148.643 235.200 C 147.085 235.200,147.047 246.611,148.600 248.164 C 149.150 248.714,149.600 249.434,149.600 249.764 C 149.600 250.133,150.139 250.465,151.000 250.626 C 152.013 250.816,152.400 251.098,152.400 251.645 C 152.400 252.348,152.773 252.400,157.800 252.400 C 162.827 252.400,163.200 252.348,163.200 251.645 C 163.200 251.098,163.587 250.816,164.600 250.626 C 165.401 250.476,166.000 250.126,166.000 249.809 C 166.000 249.504,166.360 249.140,166.800 249.000 C 167.240 248.860,167.600 248.509,167.600 248.220 C 167.600 247.930,167.960 247.599,168.400 247.484 C 168.840 247.369,169.200 247.009,169.200 246.684 C 169.200 246.359,169.560 245.999,170.000 245.884 C 170.440 245.769,170.800 245.409,170.800 245.084 C 170.800 244.759,171.160 244.399,171.600 244.284 C 172.040 244.169,172.400 243.788,172.400 243.437 C 172.400 243.087,172.664 242.800,172.986 242.800 C 173.308 242.800,173.765 242.440,174.000 242.000 C 174.235 241.560,174.692 241.200,175.014 241.200 C 175.336 241.200,175.600 240.840,175.600 240.400 C 175.600 239.867,175.867 239.600,176.400 239.600 C 176.933 239.600,177.200 239.333,177.200 238.800 C 177.200 238.267,177.467 238.000,178.000 238.000 C 178.440 238.000,178.800 237.742,178.800 237.427 C 178.800 237.112,179.160 236.740,179.600 236.600 C 180.040 236.460,180.400 236.100,180.400 235.800 C 180.400 235.500,180.760 235.140,181.200 235.000 C 181.640 234.860,182.000 234.488,182.000 234.173 C 182.000 233.858,182.287 233.600,182.637 233.600 C 182.988 233.600,183.365 233.257,183.474 232.837 C 183.584 232.417,184.017 231.984,184.437 231.874 C 184.857 231.765,185.200 231.388,185.200 231.037 C 185.200 230.687,185.458 230.400,185.773 230.400 C 186.088 230.400,186.460 230.040,186.600 229.600 C 186.740 229.160,187.112 228.800,187.427 228.800 C 187.742 228.800,188.000 228.513,188.000 228.163 C 188.000 227.812,188.360 227.431,188.800 227.316 C 189.243 227.200,189.600 226.770,189.600 226.353 C 189.600 225.867,189.883 225.600,190.400 225.600 C 190.865 225.600,191.200 225.333,191.200 224.963 C 191.200 224.612,191.560 224.231,192.000 224.116 C 192.440 224.001,192.800 223.641,192.800 223.316 C 192.800 222.991,193.160 222.631,193.600 222.516 C 194.040 222.401,194.400 222.070,194.400 221.780 C 194.400 221.491,194.760 221.140,195.200 221.000 C 195.640 220.860,196.000 220.488,196.000 220.173 C 196.000 219.858,196.287 219.600,196.637 219.600 C 196.988 219.600,197.369 219.240,197.484 218.800 C 197.599 218.360,197.959 218.000,198.284 218.000 C 198.609 218.000,198.969 217.640,199.084 217.200 C 199.199 216.760,199.611 216.400,200.000 216.400 C 200.389 216.400,200.801 216.760,200.916 217.200 C 201.031 217.640,201.391 218.000,201.716 218.000 C 202.041 218.000,202.401 218.360,202.516 218.800 C 202.631 219.240,203.012 219.600,203.363 219.600 C 203.713 219.600,204.000 219.858,204.000 220.173 C 204.000 220.488,204.360 220.860,204.800 221.000 C 205.240 221.140,205.600 221.491,205.600 221.780 C 205.600 222.070,205.960 222.401,206.400 222.516 C 206.840 222.631,207.200 222.991,207.200 223.316 C 207.200 223.641,207.560 224.001,208.000 224.116 C 208.440 224.231,208.800 224.612,208.800 224.963 C 208.800 225.333,209.135 225.600,209.600 225.600 C 210.133 225.600,210.400 225.867,210.400 226.400 C 210.400 226.840,210.658 227.200,210.973 227.200 C 211.288 227.200,211.660 227.560,211.800 228.000 C 211.940 228.440,212.312 228.800,212.627 228.800 C 212.942 228.800,213.200 229.087,213.200 229.437 C 213.200 229.788,213.543 230.165,213.963 230.274 C 214.383 230.384,214.816 230.817,214.926 231.237 C 215.035 231.657,215.412 232.000,215.763 232.000 C 216.113 232.000,216.400 232.287,216.400 232.637 C 216.400 232.988,216.760 233.369,217.200 233.484 C 217.640 233.599,218.000 233.959,218.000 234.284 C 218.000 234.609,218.360 234.969,218.800 235.084 C 219.240 235.199,219.600 235.559,219.600 235.884 C 219.600 236.209,219.960 236.569,220.400 236.684 C 220.840 236.799,221.200 237.130,221.200 237.420 C 221.200 237.709,221.560 238.060,222.000 238.200 C 222.440 238.340,222.800 238.691,222.800 238.980 C 222.800 239.270,223.160 239.601,223.600 239.716 C 224.040 239.831,224.400 240.191,224.400 240.516 C 224.400 240.841,224.760 241.201,225.200 241.316 C 225.640 241.431,226.000 241.812,226.000 242.163 C 226.000 242.513,226.258 242.800,226.573 242.800 C 226.888 242.800,227.260 243.160,227.400 243.600 C 227.540 244.040,227.891 244.400,228.180 244.400 C 228.470 244.400,228.801 244.760,228.916 245.200 C 229.031 245.640,229.391 246.000,229.716 246.000 C 230.041 246.000,230.401 246.360,230.516 246.800 C 230.631 247.240,230.991 247.600,231.316 247.600 C 231.641 247.600,232.001 247.960,232.116 248.400 C 232.231 248.840,232.591 249.200,232.916 249.200 C 233.241 249.200,233.601 249.560,233.716 250.000 C 233.876 250.613,234.262 250.800,235.363 250.800 C 236.533 250.800,236.800 250.948,236.800 251.600 C 236.800 252.359,237.067 252.400,242.037 252.400 C 246.938 252.400,247.288 252.349,247.484 251.600 C 247.600 251.157,248.030 250.800,248.447 250.800 C 248.933 250.800,249.200 250.517,249.200 250.000 C 249.200 249.467,249.467 249.200,250.000 249.200 C 250.517 249.200,250.800 248.933,250.800 248.447 C 250.800 248.030,251.157 247.600,251.600 247.484 C 252.348 247.289,252.400 246.938,252.400 242.134 C 252.400 237.426,252.333 236.950,251.600 236.493 C 251.135 236.203,250.800 235.560,250.800 234.959 C 250.800 234.278,250.539 233.857,250.037 233.726 C 249.617 233.616,249.184 233.183,249.074 232.763 C 248.965 232.343,248.609 232.000,248.284 232.000 C 247.959 232.000,247.599 231.640,247.484 231.200 C 247.369 230.760,247.009 230.400,246.684 230.400 C 246.359 230.400,245.999 230.040,245.884 229.600 C 245.769 229.160,245.388 228.800,245.037 228.800 C 244.687 228.800,244.400 228.542,244.400 228.227 C 244.400 227.912,244.040 227.540,243.600 227.400 C 243.160 227.260,242.800 226.888,242.800 226.573 C 242.800 226.258,242.542 226.000,242.227 226.000 C 241.912 226.000,241.546 225.659,241.414 225.243 C 241.282 224.827,240.819 224.394,240.387 224.281 C 239.954 224.167,239.600 223.788,239.600 223.437 C 239.600 223.087,239.351 222.800,239.047 222.800 C 238.742 222.800,238.399 222.440,238.284 222.000 C 238.169 221.560,237.809 221.200,237.484 221.200 C 237.159 221.200,236.799 220.840,236.684 220.400 C 236.569 219.960,236.209 219.600,235.884 219.600 C 235.559 219.600,235.199 219.240,235.084 218.800 C 234.969 218.360,234.609 218.000,234.284 218.000 C 233.959 218.000,233.599 217.640,233.484 217.200 C 233.369 216.760,233.009 216.400,232.684 216.400 C 232.359 216.400,231.999 216.040,231.884 215.600 C 231.769 215.160,231.409 214.800,231.084 214.800 C 230.759 214.800,230.399 214.440,230.284 214.000 C 230.169 213.560,229.788 213.200,229.437 213.200 C 229.087 213.200,228.800 212.942,228.800 212.627 C 228.800 212.312,228.440 211.940,228.000 211.800 C 227.560 211.660,227.200 211.288,227.200 210.973 C 227.200 210.658,226.913 210.400,226.563 210.400 C 226.212 210.400,225.835 210.057,225.726 209.637 C 225.616 209.217,225.183 208.784,224.763 208.674 C 224.343 208.565,224.000 208.188,224.000 207.837 C 224.000 207.487,223.742 207.200,223.427 207.200 C 223.112 207.200,222.740 206.840,222.600 206.400 C 222.460 205.960,222.109 205.600,221.820 205.600 C 221.530 205.600,221.199 205.240,221.084 204.800 C 220.969 204.360,220.609 204.000,220.284 204.000 C 219.959 204.000,219.599 203.640,219.484 203.200 C 219.369 202.760,219.009 202.400,218.684 202.400 C 218.359 202.400,217.999 202.040,217.884 201.600 C 217.769 201.160,217.388 200.800,217.037 200.800 C 216.111 200.800,216.250 199.333,217.200 199.084 C 217.640 198.969,218.000 198.609,218.000 198.284 C 218.000 197.959,218.360 197.599,218.800 197.484 C 219.240 197.369,219.600 197.009,219.600 196.684 C 219.600 196.359,219.960 195.999,220.400 195.884 C 220.840 195.769,221.200 195.388,221.200 195.037 C 221.200 194.687,221.458 194.400,221.773 194.400 C 222.088 194.400,222.460 194.040,222.600 193.600 C 222.740 193.160,223.112 192.800,223.427 192.800 C 223.742 192.800,224.000 192.542,224.000 192.227 C 224.000 191.912,224.341 191.546,224.757 191.414 C 225.173 191.282,225.606 190.819,225.719 190.387 C 225.833 189.954,226.212 189.600,226.563 189.600 C 226.913 189.600,227.200 189.342,227.200 189.027 C 227.200 188.712,227.560 188.340,228.000 188.200 C 228.440 188.060,228.800 187.688,228.800 187.373 C 228.800 187.058,229.087 186.800,229.437 186.800 C 229.788 186.800,230.169 186.440,230.284 186.000 C 230.399 185.560,230.759 185.200,231.084 185.200 C 231.409 185.200,231.769 184.840,231.884 184.400 C 231.999 183.960,232.359 183.600,232.684 183.600 C 233.009 183.600,233.369 183.240,233.484 182.800 C 233.599 182.360,233.959 182.000,234.284 182.000 C 234.609 182.000,234.969 181.640,235.084 181.200 C 235.199 180.760,235.559 180.400,235.884 180.400 C 236.209 180.400,236.569 180.040,236.684 179.600 C 236.799 179.160,237.130 178.800,237.420 178.800 C 237.709 178.800,238.060 178.440,238.200 178.000 C 238.340 177.560,238.691 177.200,238.980 177.200 C 239.270 177.200,239.601 176.840,239.716 176.400 C 239.831 175.960,240.200 175.600,240.536 175.600 C 240.871 175.600,241.260 175.240,241.400 174.800 C 241.540 174.360,241.912 174.000,242.227 174.000 C 242.542 174.000,242.800 173.742,242.800 173.427 C 242.800 173.112,243.160 172.740,243.600 172.600 C 244.040 172.460,244.400 172.088,244.400 171.773 C 244.400 171.458,244.687 171.200,245.037 171.200 C 245.388 171.200,245.769 170.840,245.884 170.400 C 245.999 169.960,246.359 169.600,246.684 169.600 C 247.009 169.600,247.369 169.240,247.484 168.800 C 247.599 168.360,247.959 168.000,248.284 168.000 C 248.609 168.000,248.965 167.657,249.074 167.237 C 249.184 166.817,249.617 166.384,250.037 166.274 C 250.609 166.125,250.800 165.715,250.800 164.637 C 250.800 163.467,250.948 163.200,251.600 163.200 C 252.360 163.200,252.400 162.933,252.400 157.800 C 252.400 152.723,252.354 152.400,251.624 152.400 C 251.017 152.400,250.821 152.075,250.724 150.903 C 250.635 149.826,250.393 149.367,249.864 149.267 C 249.459 149.190,248.784 148.784,248.364 148.364 C 247.235 147.235,236.792 147.208,235.669 148.331 C 235.268 148.732,234.638 149.177,234.269 149.318 C 233.901 149.459,233.600 149.851,233.600 150.187 C 233.600 150.524,233.313 150.800,232.963 150.800 C 232.612 150.800,232.231 151.160,232.116 151.600 C 232.001 152.040,231.641 152.400,231.316 152.400 C 230.991 152.400,230.631 152.760,230.516 153.200 C 230.401 153.640,230.041 154.000,229.716 154.000 C 229.391 154.000,229.031 154.360,228.916 154.800 C 228.801 155.240,228.470 155.600,228.180 155.600 C 227.891 155.600,227.540 155.960,227.400 156.400 C 227.260 156.840,226.888 157.200,226.573 157.200 C 226.258 157.200,226.000 157.560,226.000 158.000 C 226.000 158.533,225.733 158.800,225.200 158.800 C 224.735 158.800,224.400 159.067,224.400 159.437 C 224.400 159.788,224.040 160.169,223.600 160.284 C 223.160 160.399,222.800 160.730,222.800 161.020 C 222.800 161.309,222.440 161.660,222.000 161.800 C 221.560 161.940,221.200 162.291,221.200 162.580 C 221.200 162.870,220.840 163.201,220.400 163.316 C 219.960 163.431,219.600 163.791,219.600 164.116 C 219.600 164.441,219.240 164.801,218.800 164.916 C 218.360 165.031,218.000 165.391,218.000 165.716 C 218.000 166.041,217.640 166.401,217.200 166.516 C 216.760 166.631,216.400 166.991,216.400 167.316 C 216.400 167.641,216.040 168.001,215.600 168.116 C 215.160 168.231,214.800 168.591,214.800 168.916 C 214.800 169.241,214.440 169.601,214.000 169.716 C 213.560 169.831,213.200 170.212,213.200 170.563 C 213.200 170.913,212.942 171.200,212.627 171.200 C 212.312 171.200,211.940 171.560,211.800 172.000 C 211.660 172.440,211.288 172.800,210.973 172.800 C 210.658 172.800,210.400 173.087,210.400 173.437 C 210.400 173.788,210.040 174.169,209.600 174.284 C 209.157 174.400,208.800 174.830,208.800 175.247 C 208.800 175.733,208.517 176.000,208.000 176.000 C 207.560 176.000,207.200 176.258,207.200 176.573 C 207.200 176.888,206.840 177.260,206.400 177.400 C 205.960 177.540,205.600 177.891,205.600 178.180 C 205.600 178.470,205.240 178.801,204.800 178.916 C 204.360 179.031,204.000 179.412,204.000 179.763 C 204.000 180.113,203.713 180.400,203.363 180.400 C 203.012 180.400,202.631 180.760,202.516 181.200 C 202.401 181.640,202.041 182.000,201.716 182.000 C 201.391 182.000,201.031 182.360,200.916 182.800 C 200.801 183.240,200.389 183.600,200.000 183.600 C 199.611 183.600,199.199 183.240,199.084 182.800 C 198.969 182.360,198.609 182.000,198.284 182.000 C 197.959 182.000,197.599 181.640,197.484 181.200 C 197.369 180.760,197.009 180.400,196.684 180.400 C 196.359 180.400,195.999 180.040,195.884 179.600 C 195.769 179.160,195.388 178.800,195.037 178.800 C 194.687 178.800,194.400 178.542,194.400 178.227 C 194.400 177.912,194.040 177.540,193.600 177.400 C 193.160 177.260,192.800 176.888,192.800 176.573 C 192.800 176.258,192.542 176.000,192.227 176.000 C 191.912 176.000,191.540 175.640,191.400 175.200 C 191.260 174.760,190.900 174.400,190.600 174.400 C 190.300 174.400,189.940 174.040,189.800 173.600 C 189.660 173.160,189.288 172.800,188.973 172.800 C 188.658 172.800,188.400 172.513,188.400 172.163 C 188.400 171.812,188.040 171.431,187.600 171.316 C 187.160 171.201,186.800 170.841,186.800 170.516 C 186.800 170.191,186.440 169.831,186.000 169.716 C 185.560 169.601,185.200 169.241,185.200 168.916 C 185.200 168.591,184.840 168.231,184.400 168.116 C 183.960 168.001,183.600 167.641,183.600 167.316 C 183.600 166.991,183.240 166.631,182.800 166.516 C 182.357 166.400,182.000 165.970,182.000 165.553 C 182.000 165.067,181.717 164.800,181.200 164.800 C 180.735 164.800,180.400 164.533,180.400 164.163 C 180.400 163.812,180.057 163.435,179.637 163.326 C 179.217 163.216,178.784 162.783,178.674 162.363 C 178.565 161.943,178.188 161.600,177.837 161.600 C 177.487 161.600,177.200 161.342,177.200 161.027 C 177.200 160.712,176.840 160.340,176.400 160.200 C 175.960 160.060,175.600 159.688,175.600 159.373 C 175.600 159.058,175.351 158.800,175.047 158.800 C 174.742 158.800,174.399 158.440,174.284 158.000 C 174.169 157.560,173.809 157.200,173.484 157.200 C 173.159 157.200,172.799 156.840,172.684 156.400 C 172.569 155.960,172.188 155.600,171.837 155.600 C 171.487 155.600,171.200 155.313,171.200 154.963 C 171.200 154.612,170.840 154.231,170.400 154.116 C 169.957 154.000,169.600 153.570,169.600 153.153 C 169.600 152.667,169.317 152.400,168.800 152.400 C 168.267 152.400,168.000 152.133,168.000 151.600 C 168.000 151.067,167.733 150.800,167.200 150.800 C 166.667 150.800,166.400 150.533,166.400 150.000 C 166.400 149.467,166.133 149.200,165.600 149.200 C 165.160 149.200,164.800 148.949,164.800 148.643 C 164.800 147.247,152.959 147.013,152.098 148.392 " stroke="none" fill="#040404" fill-rule="evenodd"></path><path id="path1" d="" stroke="none" fill="#080404" fill-rule="evenodd"></path><path id="path2" d="" stroke="none" fill="#080404" fill-rule="evenodd"></path><path id="path3" d="" stroke="none" fill="#080404" fill-rule="evenodd"></path><path id="path4" d="" stroke="none" fill="#080404" fill-rule="evenodd"></path></g></svg>