<svg id="svg" version="1.1" xmlns="http://www.w3.org/2000/svg" xmlns:xlink="http://www.w3.org/1999/xlink" width="400" height="400" viewBox="0, 0, 400,400"><g id="svgg"><path id="path0" d="M85.000 28.005 C 79.623 28.330,78.644 28.619,76.245 30.584 C 75.248 31.401,73.765 32.139,72.590 32.402 C 70.445 32.883,69.304 33.689,68.761 35.107 C 68.570 35.606,67.916 36.203,67.307 36.434 C 65.953 36.947,64.400 38.352,64.400 39.065 C 64.400 39.354,63.666 40.053,62.769 40.619 C 61.802 41.230,60.903 42.214,60.558 43.039 C 60.239 43.803,59.577 44.581,59.089 44.768 C 57.707 45.297,56.883 46.446,56.427 48.480 C 56.197 49.507,55.421 51.184,54.704 52.207 C 52.428 55.453,52.309 55.869,51.996 61.683 C 51.635 68.367,52.364 67.633,45.719 68.006 C 39.584 68.350,38.667 68.600,36.245 70.584 C 35.248 71.401,33.765 72.139,32.590 72.402 C 30.445 72.883,29.304 73.689,28.761 75.107 C 28.570 75.606,27.916 76.203,27.307 76.434 C 25.953 76.947,24.400 78.352,24.400 79.065 C 24.400 79.354,23.666 80.053,22.769 80.619 C 21.802 81.230,20.903 82.214,20.558 83.039 C 20.239 83.803,19.577 84.581,19.089 84.768 C 17.707 85.297,16.883 86.446,16.427 88.480 C 16.197 89.507,15.421 91.184,14.704 92.207 C 12.392 95.504,12.317 95.791,11.933 102.768 C 11.354 113.304,11.730 293.776,12.336 295.942 C 12.604 296.900,13.531 298.523,14.396 299.549 C 15.468 300.821,16.111 302.077,16.415 303.498 C 16.820 305.386,18.502 307.600,19.531 307.600 C 19.680 307.600,20.223 308.395,20.739 309.367 C 21.306 310.435,22.131 311.323,22.825 311.610 C 23.457 311.872,24.083 312.432,24.218 312.856 C 24.570 313.967,26.268 315.552,27.414 315.839 C 27.956 315.975,28.400 316.233,28.400 316.413 C 28.400 316.592,28.856 317.280,29.413 317.943 C 30.350 319.056,31.423 319.573,34.000 320.153 C 34.550 320.277,35.709 321.014,36.575 321.791 C 39.172 324.121,39.245 324.129,60.500 324.299 L 80.000 324.454 80.000 331.701 L 80.000 338.949 78.469 340.774 C 77.626 341.778,76.735 343.187,76.488 343.904 C 75.569 346.573,70.526 351.919,67.749 353.169 C 66.840 353.578,65.790 354.427,65.414 355.056 C 65.038 355.685,64.068 356.510,63.258 356.888 C 58.868 358.942,58.210 375.785,62.400 378.862 C 66.593 381.942,99.021 380.779,102.132 377.438 C 102.828 376.690,103.688 376.420,106.480 376.073 C 110.156 375.617,111.927 374.938,113.656 373.322 C 114.237 372.779,115.497 372.163,116.456 371.953 C 118.928 371.412,121.387 370.197,122.261 369.086 C 122.673 368.563,123.488 368.014,124.074 367.867 C 125.404 367.534,127.476 365.821,127.806 364.782 C 127.942 364.352,128.308 364.000,128.618 364.000 C 130.100 364.000,133.550 362.159,134.405 360.911 C 134.905 360.181,135.911 359.300,136.640 358.954 C 137.369 358.608,138.317 357.728,138.748 356.998 C 139.179 356.267,140.152 355.375,140.911 355.015 C 141.761 354.612,142.568 353.790,143.014 352.872 C 143.413 352.053,144.268 351.113,144.914 350.783 C 145.561 350.453,146.476 349.461,146.949 348.578 C 147.421 347.695,148.320 346.439,148.946 345.787 C 149.572 345.134,150.623 343.475,151.280 342.100 C 151.938 340.725,152.610 339.600,152.775 339.600 C 153.640 339.600,155.200 337.558,155.735 335.725 C 156.069 334.584,157.062 332.738,157.943 331.625 C 159.042 330.234,159.686 328.913,159.999 327.407 C 160.249 326.201,160.667 325.076,160.927 324.907 C 161.187 324.738,196.950 324.510,240.400 324.400 C 326.991 324.181,320.830 324.374,323.494 321.787 C 324.365 320.942,325.644 320.290,327.330 319.834 C 328.930 319.401,330.070 318.836,330.430 318.298 C 331.324 316.962,332.538 315.860,333.943 315.108 C 334.654 314.728,335.410 313.918,335.623 313.308 C 335.848 312.663,336.633 311.866,337.502 311.400 C 338.428 310.903,339.265 310.025,339.708 309.083 C 340.101 308.249,340.732 307.451,341.111 307.311 C 342.546 306.779,343.418 305.258,344.154 302.000 C 344.279 301.450,344.941 300.370,345.626 299.600 C 347.683 297.288,348.063 295.921,348.298 289.972 L 348.514 284.514 353.957 284.286 C 360.080 284.029,361.592 283.629,363.600 281.735 C 364.535 280.854,365.703 280.258,367.116 279.940 C 369.237 279.464,370.882 278.369,371.310 277.147 C 371.436 276.788,372.318 276.067,373.269 275.546 C 374.295 274.984,375.219 274.103,375.536 273.383 C 375.831 272.714,376.730 271.815,377.533 271.384 C 378.423 270.907,379.271 270.013,379.700 269.100 C 380.089 268.275,380.557 267.600,380.741 267.600 C 381.743 267.600,383.208 265.591,383.818 263.381 C 384.235 261.873,384.988 260.398,385.817 259.466 C 388.374 256.593,388.200 264.077,388.200 156.800 C 388.200 50.775,388.307 55.738,385.965 52.917 C 385.090 51.863,384.277 50.550,384.159 50.000 C 383.558 47.199,382.734 45.691,381.420 44.983 C 380.542 44.510,379.851 43.711,379.461 42.718 C 379.022 41.601,378.469 41.021,377.429 40.586 C 376.643 40.258,376.000 39.741,376.000 39.437 C 376.000 38.595,373.778 36.400,372.926 36.400 C 372.499 36.400,371.843 35.837,371.411 35.100 C 370.395 33.364,369.765 32.934,367.400 32.360 C 366.169 32.061,364.708 31.293,363.600 30.361 C 362.610 29.528,360.990 28.620,360.000 28.343 C 357.983 27.779,94.107 27.455,85.000 28.005 M342.844 53.318 C 344.893 54.706,347.398 55.591,350.062 55.870 C 352.013 56.073,352.580 56.303,353.103 57.101 C 353.456 57.641,354.440 58.520,355.288 59.056 C 356.137 59.591,356.995 60.462,357.196 60.991 C 357.397 61.519,357.885 62.136,358.281 62.362 C 358.676 62.588,359.217 62.920,359.483 63.100 C 359.748 63.279,360.170 64.743,360.420 66.353 C 360.914 69.539,361.668 71.652,362.844 73.147 C 363.855 74.433,364.052 237.527,363.044 238.364 C 362.104 239.144,360.902 242.447,360.391 245.658 C 360.001 248.105,359.729 248.810,359.031 249.184 C 358.550 249.441,357.719 250.360,357.184 251.225 C 356.649 252.091,356.003 252.800,355.748 252.800 C 355.224 252.800,353.019 254.762,352.766 255.453 C 352.675 255.703,351.655 256.035,350.500 256.191 L 348.400 256.475 348.392 178.538 C 348.383 92.506,348.496 96.301,345.851 92.783 C 344.782 91.361,344.015 89.855,343.857 88.867 C 343.582 87.145,341.902 84.800,340.944 84.800 C 340.622 84.800,340.079 84.129,339.736 83.309 C 339.070 81.714,337.811 80.400,336.949 80.400 C 336.658 80.400,336.119 79.815,335.751 79.100 C 334.958 77.560,333.728 76.410,332.839 76.376 C 332.487 76.362,331.653 75.597,330.984 74.676 C 329.980 73.292,329.379 72.895,327.538 72.400 C 326.237 72.050,324.604 71.217,323.617 70.400 C 320.253 67.617,330.610 67.842,198.913 67.701 L 79.625 67.574 79.839 66.287 C 80.283 63.611,80.402 63.334,81.313 62.847 C 81.826 62.572,82.583 61.722,82.994 60.958 C 83.406 60.195,84.314 59.299,85.013 58.967 C 85.712 58.635,86.523 57.917,86.815 57.371 C 87.349 56.374,87.652 56.248,90.600 55.806 C 92.287 55.552,96.060 54.365,96.400 53.980 C 97.878 52.307,90.589 52.400,220.033 52.400 L 341.488 52.400 342.844 53.318 M302.844 93.318 C 304.890 94.704,307.397 95.591,310.046 95.868 C 312.069 96.079,312.552 96.290,313.246 97.265 C 313.695 97.896,314.567 98.673,315.183 98.991 C 315.800 99.310,316.680 100.209,317.140 100.989 C 317.600 101.769,318.414 102.606,318.948 102.849 C 319.752 103.215,319.964 103.680,320.182 105.546 C 320.533 108.562,321.410 111.187,322.612 112.816 L 323.600 114.155 323.600 195.860 L 323.600 277.564 322.627 278.999 C 321.428 280.765,320.542 283.489,320.212 286.425 C 319.997 288.333,319.794 288.749,318.792 289.341 C 318.149 289.721,317.348 290.611,317.012 291.318 C 316.672 292.034,315.847 292.849,315.150 293.158 C 314.462 293.463,313.618 294.201,313.275 294.798 C 312.727 295.754,312.265 295.943,309.441 296.376 C 306.224 296.868,304.446 297.529,303.058 298.748 C 302.380 299.344,295.634 299.419,224.258 299.619 C 167.779 299.778,145.766 299.964,144.631 300.293 C 142.212 300.993,141.082 302.056,140.407 304.265 C 140.073 305.360,139.427 306.647,138.972 307.126 C 137.545 308.626,136.328 311.554,136.104 314.024 C 135.986 315.331,135.748 316.400,135.575 316.400 C 134.608 316.400,132.854 318.563,132.418 320.293 C 132.155 321.341,131.603 322.511,131.192 322.893 C 130.781 323.276,129.790 324.761,128.988 326.194 C 128.187 327.628,127.308 328.800,127.035 328.800 C 126.372 328.800,124.959 330.381,124.618 331.504 C 124.467 332.002,123.803 332.688,123.144 333.029 C 122.484 333.370,121.585 334.257,121.147 335.000 C 120.709 335.743,119.730 336.716,118.972 337.164 C 118.214 337.611,117.387 338.429,117.135 338.983 C 116.883 339.536,115.914 340.358,114.981 340.809 C 113.930 341.318,113.105 342.063,112.814 342.766 C 112.418 343.721,111.990 343.972,110.105 344.350 C 107.345 344.905,107.546 345.244,108.036 340.854 C 108.653 335.332,108.327 305.809,107.629 304.000 C 106.047 299.898,106.005 299.891,79.485 299.622 C 64.019 299.465,57.486 299.269,57.285 298.954 C 56.701 298.039,53.574 296.803,50.733 296.364 C 48.193 295.971,47.604 295.716,46.332 294.455 C 45.524 293.655,44.534 292.682,44.132 292.292 C 40.570 288.848,40.130 288.202,39.848 285.998 C 39.499 283.275,38.535 280.588,37.323 278.962 L 36.400 277.724 36.400 196.093 L 36.400 114.461 37.333 113.331 C 38.423 112.011,39.551 108.732,39.884 105.918 C 40.104 104.059,40.550 103.242,41.742 102.509 C 42.018 102.339,42.654 101.525,43.155 100.700 C 43.655 99.875,44.287 99.200,44.557 99.200 C 45.122 99.200,46.579 97.924,47.122 96.954 C 47.354 96.539,48.360 96.164,49.845 95.939 C 52.133 95.592,55.996 94.438,56.400 93.980 C 57.878 92.307,50.589 92.400,180.033 92.400 L 301.488 92.400 302.844 93.318 " stroke="none" fill="#040404" fill-rule="evenodd"></path><path id="path1" d="" stroke="none" fill="#080404" fill-rule="evenodd"></path><path id="path2" d="" stroke="none" fill="#080404" fill-rule="evenodd"></path><path id="path3" d="" stroke="none" fill="#080404" fill-rule="evenodd"></path><path id="path4" d="" stroke="none" fill="#080404" fill-rule="evenodd"></path></g></svg>