<svg id="svg" version="1.1" xmlns="http://www.w3.org/2000/svg" xmlns:xlink="http://www.w3.org/1999/xlink" width="400" height="400" viewBox="0, 0, 400,400"><g id="svgg"><path id="path0" d="M154.800 72.815 C 99.938 73.029,93.936 73.115,91.411 73.723 C 82.186 75.946,75.971 82.158,73.715 91.411 C 72.871 94.877,72.389 235.556,73.193 243.974 C 74.359 256.180,80.464 263.776,91.117 266.276 C 95.913 267.402,244.102 267.398,248.901 266.272 C 257.721 264.203,263.691 258.451,266.073 249.726 C 267.496 244.513,268.076 95.290,266.691 90.600 C 263.686 80.423,256.492 74.295,245.800 72.806 C 244.260 72.591,236.790 72.452,229.200 72.497 C 221.610 72.542,188.130 72.685,154.800 72.815 M211.533 76.217 C 216.822 77.788,218.678 82.477,215.291 85.709 C 212.990 87.903,216.108 87.784,155.000 88.008 C 92.176 88.238,96.249 88.058,92.509 90.767 C 87.780 94.193,87.954 90.951,88.099 172.808 C 88.233 248.042,88.083 243.439,90.511 247.070 C 94.031 252.336,89.166 252.046,171.800 251.913 C 252.189 251.785,244.709 252.129,248.456 248.382 C 251.921 244.917,251.744 246.922,251.987 208.400 L 252.200 174.600 253.200 172.621 C 256.065 166.950,262.053 168.235,264.101 174.960 C 264.994 177.894,264.804 242.204,263.892 245.760 C 261.124 256.548,253.076 263.293,241.644 264.405 C 236.530 264.903,103.442 264.900,98.325 264.402 C 86.832 263.284,78.432 256.070,76.200 245.400 C 75.318 241.184,75.320 98.802,76.202 94.600 C 78.085 85.632,85.496 78.158,94.429 76.221 C 98.496 75.339,208.564 75.335,211.533 76.217 M227.965 122.414 C 236.989 127.223,237.608 136.798,229.490 146.001 C 222.985 153.377,160.263 215.364,157.908 216.744 C 152.778 219.752,148.657 220.011,143.784 217.635 C 138.687 215.149,108.185 184.242,105.852 179.200 C 102.240 171.391,108.383 161.613,117.344 160.907 C 122.889 160.471,125.450 162.164,137.540 174.253 C 144.939 181.651,147.204 183.689,148.440 184.059 C 151.862 185.085,150.620 186.173,182.514 154.204 C 201.874 134.798,212.556 124.377,214.030 123.457 C 218.920 120.405,223.546 120.058,227.965 122.414 M261.603 124.709 C 264.174 127.280,264.497 129.585,262.966 134.433 C 261.843 137.987,261.878 139.116,263.206 142.213 C 267.594 152.452,261.455 165.339,254.841 159.773 C 252.070 157.442,251.160 147.974,253.132 142.000 C 254.129 138.979,254.215 137.114,253.457 134.950 C 250.544 126.635,256.297 119.403,261.603 124.709 M219.079 130.578 C 216.176 131.613,214.171 133.517,184.202 163.685 C 152.179 195.921,152.060 196.028,149.086 195.375 C 146.998 194.916,146.266 194.270,134.800 182.749 C 127.414 175.329,123.274 171.462,122.200 170.982 C 117.043 168.677,113.106 171.889,114.624 177.163 C 115.466 180.088,142.573 207.643,146.200 209.259 C 149.011 210.512,151.698 210.421,154.443 208.979 C 157.155 207.554,222.847 142.137,224.547 139.168 C 227.690 133.680,224.487 128.648,219.079 130.578 M221.318 135.238 C 222.362 136.904,221.467 137.877,188.273 171.186 C 152.807 206.774,153.194 206.409,150.647 206.696 C 147.778 207.019,146.538 206.006,132.566 191.932 C 119.823 179.095,117.967 176.906,118.545 175.398 C 119.535 172.820,121.870 174.517,133.068 185.955 C 144.566 197.699,145.768 198.594,150.000 198.580 C 154.516 198.564,153.600 199.372,186.236 166.613 C 219.741 132.980,219.845 132.887,221.318 135.238 " stroke="none" fill="#a4d3a3" fill-rule="evenodd"></path><path id="path1" d="M86.137 50.992 C 68.168 54.252,54.545 68.036,50.944 86.600 C 50.105 90.927,50.142 249.269,50.983 253.600 C 53.998 269.125,63.485 280.820,77.796 286.655 C 83.734 289.076,87.521 289.635,100.000 289.935 L 111.000 290.200 110.871 292.000 C 110.429 298.171,110.390 310.115,110.803 312.600 C 113.865 331.030,126.966 344.890,145.153 348.943 L 149.000 349.800 229.800 349.800 C 305.928 349.800,310.804 349.759,314.125 349.082 C 331.599 345.525,344.033 333.531,348.662 315.768 L 349.800 311.400 349.800 230.400 C 349.800 140.986,349.976 147.573,347.387 139.962 C 342.200 124.711,329.439 113.753,313.648 110.987 C 309.371 110.238,296.023 110.202,292.550 110.930 L 290.099 111.444 289.882 100.022 C 289.652 88.009,289.319 85.419,287.236 79.465 C 282.024 64.570,269.221 53.715,253.648 50.987 C 248.950 50.164,90.672 50.169,86.137 50.992 M245.600 65.212 C 260.058 66.726,270.464 75.425,274.054 89.000 C 274.811 91.860,274.930 93.750,275.175 106.800 C 275.470 122.516,275.724 124.400,277.550 124.400 C 278.352 124.400,280.800 121.805,280.800 120.955 C 280.800 120.700,281.205 120.214,281.700 119.875 C 282.195 119.536,283.246 118.660,284.036 117.929 C 286.286 115.847,287.591 115.259,289.069 115.661 C 290.287 115.993,293.022 118.845,292.563 119.304 C 292.444 119.422,292.540 120.236,292.776 121.111 C 293.449 123.610,296.046 124.550,304.078 125.206 C 320.583 126.553,331.636 136.157,334.453 151.600 C 335.233 155.877,335.268 304.388,334.490 308.492 C 331.946 321.909,322.733 331.451,309.600 334.270 C 305.048 335.247,156.895 335.419,151.600 334.453 C 136.405 331.682,125.240 318.789,125.205 303.973 C 125.188 296.785,122.061 290.832,119.223 292.586 C 119.026 292.708,118.593 292.536,118.261 292.204 C 117.929 291.872,117.564 291.600,117.449 291.600 C 115.942 291.600,114.601 288.364,115.645 287.244 C 116.060 286.798,116.400 286.274,116.400 286.079 C 116.400 285.884,116.863 285.201,117.429 284.562 C 117.994 283.923,118.916 282.815,119.476 282.100 C 120.036 281.385,120.703 280.800,120.956 280.800 C 121.805 280.800,124.400 278.352,124.400 277.550 C 124.400 275.714,122.523 275.460,106.800 275.172 C 93.721 274.932,91.867 274.816,89.000 274.056 C 75.182 270.393,66.600 259.930,65.178 245.013 C 64.360 236.431,64.888 93.615,65.751 90.000 C 69.121 75.885,79.750 66.624,94.186 65.221 C 99.076 64.746,241.070 64.737,245.600 65.212 " stroke="none" fill="#1d242c" fill-rule="evenodd"></path><path id="path2" d="M287.612 127.924 C 287.605 128.212,287.438 128.347,287.239 128.224 C 286.083 127.509,286.000 131.383,285.997 186.360 C 285.993 242.254,285.857 248.692,284.568 253.774 C 279.986 271.852,265.438 284.021,246.525 285.598 C 243.729 285.831,219.176 285.998,186.400 286.006 C 155.930 286.013,130.371 286.157,129.602 286.325 C 127.667 286.750,127.569 287.795,129.329 289.246 C 132.276 291.675,133.361 294.637,133.988 301.966 C 135.147 315.531,140.869 322.846,152.400 325.508 C 156.918 326.550,303.001 326.578,307.400 325.537 C 317.633 323.115,323.115 317.633,325.537 307.400 C 326.582 302.987,326.550 156.901,325.504 152.414 C 322.797 140.808,315.570 135.151,301.966 133.988 C 294.286 133.331,290.033 131.553,288.077 128.180 C 287.827 127.749,287.619 127.634,287.612 127.924 " stroke="none" fill="#7bccd4" fill-rule="evenodd"></path><path id="path3" d="M217.817 135.415 C 216.967 135.991,202.755 150.031,186.236 166.613 C 153.600 199.372,154.516 198.564,150.000 198.580 C 145.768 198.594,144.566 197.699,133.068 185.955 C 121.870 174.517,119.535 172.820,118.545 175.398 C 117.967 176.906,119.823 179.095,132.566 191.932 C 148.531 208.014,149.545 208.652,153.877 205.338 C 157.391 202.648,221.148 138.188,221.432 137.038 C 222.038 134.577,220.240 133.770,217.817 135.415 " stroke="none" fill="#fbfbeb" fill-rule="evenodd"></path><path id="path4" d="M94.186 65.221 C 79.750 66.624,69.121 75.885,65.751 90.000 C 64.888 93.615,64.360 236.431,65.178 245.013 C 66.600 259.930,75.182 270.393,89.000 274.056 C 91.867 274.816,93.721 274.932,106.800 275.172 C 122.523 275.460,124.400 275.714,124.400 277.550 C 124.400 278.352,121.805 280.800,120.956 280.800 C 120.703 280.800,120.036 281.385,119.476 282.100 C 118.916 282.815,117.994 283.923,117.429 284.562 C 116.863 285.201,116.400 285.884,116.400 286.079 C 116.400 286.274,116.060 286.798,115.645 287.244 C 114.601 288.364,115.942 291.600,117.449 291.600 C 117.564 291.600,117.929 291.872,118.261 292.204 C 118.593 292.536,119.026 292.708,119.223 292.586 C 122.061 290.832,125.188 296.785,125.205 303.973 C 125.240 318.789,136.405 331.682,151.600 334.453 C 156.895 335.419,305.048 335.247,309.600 334.270 C 322.733 331.451,331.946 321.909,334.490 308.492 C 335.268 304.388,335.233 155.877,334.453 151.600 C 331.636 136.157,320.583 126.553,304.078 125.206 C 296.046 124.550,293.449 123.610,292.776 121.111 C 292.540 120.236,292.444 119.422,292.563 119.304 C 293.022 118.845,290.287 115.993,289.069 115.661 C 287.591 115.259,286.286 115.847,284.036 117.929 C 283.246 118.660,282.195 119.536,281.700 119.875 C 281.205 120.214,280.800 120.700,280.800 120.955 C 280.800 121.805,278.352 124.400,277.550 124.400 C 275.724 124.400,275.470 122.516,275.175 106.800 C 274.930 93.750,274.811 91.860,274.054 89.000 C 270.464 75.425,260.058 66.726,245.600 65.212 C 241.070 64.737,99.076 64.746,94.186 65.221 M243.200 67.585 C 260.422 68.663,270.786 78.448,272.450 95.200 C 273.329 104.045,273.165 244.630,272.271 248.800 C 269.598 261.275,261.334 269.587,248.884 272.322 C 245.024 273.171,103.621 273.289,95.200 272.451 C 78.712 270.811,68.757 260.479,67.592 243.800 C 67.115 236.976,67.108 103.858,67.584 96.600 C 68.711 79.435,79.236 68.668,95.919 67.615 C 102.749 67.184,236.357 67.157,243.200 67.585 M289.900 119.562 C 290.615 120.497,291.200 121.615,291.200 122.047 C 291.200 125.655,295.083 127.236,306.400 128.235 C 320.171 129.451,330.519 140.203,331.986 154.819 C 332.509 160.030,332.389 305.548,331.860 308.000 C 328.969 321.395,318.876 330.803,306.200 331.918 C 300.391 332.430,154.491 332.256,151.777 331.735 C 138.924 329.266,129.340 318.881,128.212 306.200 C 127.233 295.182,125.627 291.200,122.163 291.200 C 121.263 291.200,118.936 289.730,118.221 288.709 C 117.504 287.685,118.534 285.329,120.165 284.260 C 120.721 283.895,121.838 282.935,122.647 282.126 C 124.945 279.828,123.113 279.899,188.000 279.617 C 254.950 279.327,250.530 279.519,257.327 276.605 C 269.676 271.312,277.490 260.891,279.195 247.441 C 279.443 245.486,279.613 222.600,279.642 187.243 C 279.693 125.988,279.727 124.891,281.616 123.130 C 282.165 122.619,283.136 121.514,283.773 120.676 C 286.223 117.454,288.035 117.124,289.900 119.562 " stroke="none" fill="#546c5c" fill-rule="evenodd"></path><path id="path5" d="M95.919 67.615 C 79.236 68.668,68.711 79.435,67.584 96.600 C 67.108 103.858,67.115 236.976,67.592 243.800 C 68.757 260.479,78.712 270.811,95.200 272.451 C 103.621 273.289,245.024 273.171,248.884 272.322 C 261.334 269.587,269.598 261.275,272.271 248.800 C 273.165 244.630,273.329 104.045,272.450 95.200 C 270.786 78.448,260.422 68.663,243.200 67.585 C 236.357 67.157,102.749 67.184,95.919 67.615 M251.400 69.325 C 261.109 72.358,267.903 79.229,270.856 89.000 C 272.347 93.931,273.079 240.967,271.649 248.104 C 269.334 259.658,261.549 268.208,250.800 271.002 C 245.515 272.376,179.469 272.872,114.000 272.030 L 91.800 271.744 88.400 270.626 C 78.636 267.417,72.128 260.725,69.118 250.800 L 68.207 247.800 68.088 172.400 C 67.961 92.521,67.953 92.884,69.855 87.204 C 73.195 77.233,82.326 69.843,93.024 68.452 C 94.602 68.247,128.600 68.115,171.800 68.146 L 247.800 68.200 251.400 69.325 M288.472 118.462 C 289.061 118.978,289.916 120.030,290.370 120.800 C 290.825 121.570,291.198 121.989,291.199 121.731 C 291.201 121.045,288.702 117.892,288.000 117.694 C 287.670 117.601,287.882 117.947,288.472 118.462 M285.033 119.246 C 284.442 119.711,284.037 120.171,284.134 120.268 C 284.232 120.365,284.807 119.984,285.414 119.422 C 286.749 118.184,286.518 118.077,285.033 119.246 M283.123 121.500 C 282.418 122.321,281.890 123.200,282.101 123.200 C 282.183 123.200,282.649 122.660,283.137 122.000 C 284.101 120.696,284.092 120.372,283.123 121.500 M294.344 126.376 C 294.864 126.829,295.479 127.200,295.711 127.200 C 296.203 127.200,296.179 127.180,294.600 126.255 L 293.400 125.553 294.344 126.376 M280.093 128.000 C 280.093 128.770,280.175 129.085,280.276 128.700 C 280.376 128.315,280.376 127.685,280.276 127.300 C 280.175 126.915,280.093 127.230,280.093 128.000 M299.505 127.883 C 300.002 127.979,300.722 127.975,301.105 127.875 C 301.487 127.775,301.080 127.696,300.200 127.701 C 299.320 127.705,299.007 127.787,299.505 127.883 M303.705 128.287 C 304.314 128.379,305.214 128.377,305.705 128.282 C 306.197 128.187,305.700 128.111,304.600 128.114 C 303.500 128.117,303.097 128.195,303.705 128.287 M307.633 128.547 C 307.725 128.628,308.520 128.804,309.400 128.938 C 310.515 129.107,310.758 129.071,310.200 128.819 C 309.432 128.471,307.290 128.244,307.633 128.547 M312.400 129.800 C 314.226 130.503,314.945 130.493,313.400 129.786 C 312.740 129.483,311.930 129.242,311.600 129.248 C 311.270 129.255,311.630 129.503,312.400 129.800 M314.833 130.549 C 315.245 130.917,317.600 132.000,317.600 131.821 C 317.600 131.590,315.382 130.400,314.953 130.400 C 314.796 130.400,314.742 130.467,314.833 130.549 M279.795 188.000 C 279.795 219.570,279.842 232.485,279.900 216.700 C 279.958 200.915,279.958 175.085,279.900 159.300 C 279.842 143.515,279.795 156.430,279.795 188.000 M318.200 132.265 C 319.222 133.233,321.733 134.871,321.127 134.174 C 320.757 133.748,319.857 133.059,319.127 132.643 C 318.397 132.227,317.980 132.057,318.200 132.265 M323.613 136.603 C 324.596 137.705,325.907 139.235,326.526 140.003 C 327.488 141.197,327.469 141.131,326.394 139.550 C 325.702 138.533,324.392 137.003,323.482 136.150 L 321.827 134.600 323.613 136.603 M328.481 143.391 C 328.959 144.376,329.419 145.114,329.503 145.030 C 329.684 144.849,328.068 141.600,327.797 141.600 C 327.694 141.600,328.002 142.406,328.481 143.391 M330.653 148.600 C 330.796 149.260,331.047 150.430,331.210 151.200 C 331.500 152.561,331.508 152.567,331.524 151.400 C 331.532 150.740,331.281 149.570,330.966 148.800 C 330.444 147.525,330.416 147.507,330.653 148.600 M331.709 154.400 C 331.709 155.390,331.787 155.795,331.882 155.300 C 331.978 154.805,331.978 153.995,331.882 153.500 C 331.787 153.005,331.709 153.410,331.709 154.400 M332.196 230.000 C 332.196 270.370,332.243 286.885,332.300 266.700 C 332.357 246.515,332.357 213.485,332.300 193.300 C 332.243 173.115,332.196 189.630,332.196 230.000 M279.270 247.049 C 278.628 262.188,265.025 276.464,248.837 278.987 C 246.385 279.369,245.872 279.534,247.049 279.561 C 254.578 279.738,266.050 273.581,271.845 266.252 C 276.221 260.719,279.891 251.469,279.485 247.000 L 279.340 245.400 279.270 247.049 M159.300 279.900 C 175.085 279.958,200.915 279.958,216.700 279.900 C 232.485 279.842,219.570 279.795,188.000 279.795 C 156.430 279.795,143.515 279.842,159.300 279.900 M127.700 280.276 C 128.085 280.376,128.715 280.376,129.100 280.276 C 129.485 280.175,129.170 280.093,128.400 280.093 C 127.630 280.093,127.315 280.175,127.700 280.276 M118.391 288.990 C 118.971 289.689,121.585 291.360,121.763 291.146 C 121.829 291.066,120.985 290.412,119.888 289.694 C 118.791 288.976,118.117 288.659,118.391 288.990 M127.693 300.400 C 127.693 301.170,127.775 301.485,127.876 301.100 C 127.976 300.715,127.976 300.085,127.876 299.700 C 127.775 299.315,127.693 299.630,127.693 300.400 M128.114 304.600 C 128.117 305.700,128.195 306.103,128.287 305.495 C 128.379 304.886,128.377 303.986,128.282 303.495 C 128.187 303.003,128.111 303.500,128.114 304.600 M331.701 305.800 C 331.705 306.680,331.787 306.993,331.883 306.495 C 331.979 305.998,331.975 305.278,331.875 304.895 C 331.775 304.513,331.696 304.920,331.701 305.800 M128.428 308.433 C 128.444 308.965,128.619 309.760,128.819 310.200 C 129.071 310.758,129.107 310.515,128.938 309.400 C 128.655 307.543,128.387 307.036,128.428 308.433 M331.476 307.900 C 331.201 308.383,330.708 311.421,330.942 311.189 C 331.196 310.938,331.976 307.600,331.781 307.600 C 331.707 307.600,331.570 307.735,331.476 307.900 M129.248 311.600 C 129.242 311.930,129.483 312.740,129.786 313.400 C 130.493 314.945,130.503 314.226,129.800 312.400 C 129.503 311.630,129.255 311.270,129.248 311.600 M328.217 317.094 C 326.698 320.046,322.736 324.596,319.800 326.760 C 318.824 327.479,318.787 327.555,319.600 327.166 C 322.474 325.792,330.920 315.187,329.929 314.196 C 329.849 314.116,329.079 315.420,328.217 317.094 M130.400 314.953 C 130.400 315.382,131.590 317.600,131.821 317.600 C 131.931 317.600,131.723 317.015,131.359 316.300 C 130.617 314.840,130.400 314.536,130.400 314.953 M132.006 318.220 C 132.009 318.429,132.653 319.320,133.437 320.200 L 134.861 321.800 133.753 320.200 C 132.279 318.073,131.999 317.755,132.006 318.220 M136.150 323.482 C 137.003 324.392,138.533 325.702,139.550 326.394 C 141.131 327.469,141.197 327.488,140.003 326.526 C 139.235 325.907,137.705 324.596,136.603 323.613 L 134.600 321.827 136.150 323.482 M141.600 327.797 C 141.600 328.068,144.849 329.684,145.030 329.503 C 145.114 329.419,144.376 328.959,143.391 328.481 C 142.406 328.002,141.600 327.694,141.600 327.797 M316.000 328.800 C 314.790 329.439,313.941 329.971,314.113 329.981 C 314.538 330.007,318.400 328.036,318.400 327.793 C 318.400 327.526,318.455 327.503,316.000 328.800 M148.800 330.966 C 149.570 331.281,150.740 331.532,151.400 331.524 C 152.567 331.508,152.561 331.500,151.200 331.210 C 150.430 331.047,149.260 330.796,148.600 330.653 C 147.507 330.416,147.525 330.444,148.800 330.966 M309.200 331.088 C 308.650 331.187,308.043 331.418,307.852 331.602 C 307.660 331.786,308.285 331.761,309.240 331.546 C 311.911 330.946,311.881 330.607,309.200 331.088 M153.505 331.883 C 154.002 331.979,154.722 331.975,155.105 331.875 C 155.487 331.775,155.080 331.696,154.200 331.701 C 153.320 331.705,153.007 331.787,153.505 331.883 M305.105 331.883 C 305.602 331.979,306.322 331.975,306.705 331.875 C 307.087 331.775,306.680 331.696,305.800 331.701 C 304.920 331.705,304.607 331.787,305.105 331.883 M193.500 332.300 C 213.575 332.357,246.425 332.357,266.500 332.300 C 286.575 332.243,270.150 332.196,230.000 332.196 C 189.850 332.196,173.425 332.243,193.500 332.300 " stroke="none" fill="#5c7161" fill-rule="evenodd"></path><path id="path6" d="M93.024 68.452 C 82.326 69.843,73.195 77.233,69.855 87.204 C 67.953 92.884,67.961 92.521,68.088 172.400 L 68.207 247.800 69.118 250.800 C 72.128 260.725,78.636 267.417,88.400 270.626 L 91.800 271.744 114.000 272.030 C 179.469 272.872,245.515 272.376,250.800 271.002 C 261.549 268.208,269.334 259.658,271.649 248.104 C 273.079 240.967,272.347 93.931,270.856 89.000 C 267.903 79.229,261.109 72.358,251.400 69.325 L 247.800 68.200 171.800 68.146 C 128.600 68.115,94.602 68.247,93.024 68.452 M244.477 70.006 C 257.552 71.246,266.760 78.896,269.508 90.800 C 270.610 95.575,270.571 244.179,269.467 249.000 C 267.102 259.322,259.782 266.780,249.400 269.446 C 245.951 270.332,102.140 270.844,94.695 269.997 C 80.429 268.375,71.503 259.258,70.019 244.797 C 69.437 239.127,69.442 100.825,70.024 95.142 C 71.478 80.951,80.879 71.375,94.658 70.049 C 99.867 69.548,239.222 69.508,244.477 70.006 M99.200 79.985 C 87.437 80.829,81.141 87.181,79.979 99.377 C 79.212 107.430,79.679 241.976,80.485 245.252 C 82.268 252.494,87.172 257.480,94.506 259.510 C 98.402 260.588,241.649 260.573,245.555 259.494 C 252.792 257.495,257.494 252.778,259.510 245.494 C 260.456 242.075,260.580 178.432,259.644 176.682 C 258.418 174.391,256.718 175.226,256.025 178.459 C 255.746 179.759,255.600 191.057,255.600 211.347 C 255.600 247.460,255.702 246.555,251.134 251.142 C 246.332 255.965,252.161 255.655,168.600 255.519 L 96.200 255.400 93.901 254.472 C 89.393 252.651,85.914 248.352,84.846 243.280 C 84.211 240.261,84.214 99.717,84.850 96.720 C 85.743 92.511,88.237 88.832,91.491 86.925 C 95.740 84.435,91.293 84.619,152.618 84.400 C 205.377 84.212,208.699 84.159,209.718 83.491 C 211.185 82.529,211.101 81.385,209.500 80.510 C 208.135 79.765,108.857 79.291,99.200 79.985 M286.291 118.737 C 285.681 119.139,284.691 120.070,284.091 120.805 C 283.491 121.540,282.415 122.733,281.700 123.457 C 280.985 124.181,280.364 124.824,280.320 124.887 C 280.275 124.949,280.136 152.810,280.009 186.800 L 279.779 248.600 278.693 252.579 C 275.116 265.674,265.672 275.118,252.579 278.692 L 248.600 279.778 187.000 279.989 C 149.862 280.116,125.162 280.349,124.800 280.574 C 124.237 280.925,122.990 282.042,119.778 285.072 C 117.049 287.646,117.656 288.883,122.885 291.410 C 126.742 293.275,127.511 295.130,128.364 304.616 C 129.520 317.497,136.399 326.560,147.877 330.329 C 153.050 332.027,154.367 332.051,232.600 331.921 L 307.400 331.796 310.515 330.911 C 320.674 328.023,328.023 320.674,330.911 310.515 L 331.796 307.400 331.918 232.800 C 332.045 154.941,332.009 152.996,330.339 147.908 C 326.557 136.387,317.467 129.487,304.616 128.380 C 295.005 127.552,293.314 126.814,291.231 122.541 C 289.175 118.325,288.133 117.522,286.291 118.737 M289.019 121.628 C 289.618 122.492,290.271 123.200,290.469 123.200 C 290.667 123.200,291.165 123.965,291.576 124.900 C 292.942 128.007,296.013 129.325,303.377 129.965 C 319.754 131.387,328.902 140.504,330.006 156.502 C 330.482 163.392,330.484 296.599,330.008 303.400 C 328.913 319.082,320.050 328.416,304.766 329.984 C 299.160 330.560,160.817 330.555,155.142 329.980 C 140.268 328.471,131.399 319.207,129.989 303.705 C 129.290 296.014,127.845 292.539,124.950 291.584 C 124.177 291.328,123.453 290.883,123.342 290.593 C 123.231 290.304,122.430 289.575,121.562 288.974 C 119.586 287.604,119.720 286.978,122.611 284.086 L 124.724 281.971 182.062 281.983 C 241.248 281.995,247.885 281.846,253.388 280.388 C 266.441 276.928,276.970 266.396,280.378 253.388 C 281.852 247.763,281.998 241.321,281.989 182.067 L 281.981 124.734 284.217 122.450 C 286.931 119.678,287.590 119.565,289.019 121.628 M256.580 146.587 C 254.805 150.834,257.179 157.049,259.377 153.911 C 260.249 152.667,260.233 147.528,259.354 146.186 C 258.417 144.756,257.276 144.921,256.580 146.587 " stroke="none" fill="#64846c" fill-rule="evenodd"></path><path id="path7" d="M94.658 70.049 C 80.879 71.375,71.478 80.951,70.024 95.142 C 69.442 100.825,69.437 239.127,70.019 244.797 C 71.503 259.258,80.429 268.375,94.695 269.997 C 102.140 270.844,245.951 270.332,249.400 269.446 C 259.782 266.780,267.102 259.322,269.467 249.000 C 270.571 244.179,270.610 95.575,269.508 90.800 C 266.760 78.896,257.552 71.246,244.477 70.006 C 239.222 69.508,99.867 69.548,94.658 70.049 M245.800 72.806 C 256.492 74.295,263.686 80.423,266.691 90.600 C 268.076 95.290,267.496 244.513,266.073 249.726 C 263.691 258.451,257.721 264.203,248.901 266.272 C 244.102 267.398,95.913 267.402,91.117 266.276 C 80.464 263.776,74.359 256.180,73.193 243.974 C 72.389 235.556,72.871 94.877,73.715 91.411 C 75.971 82.158,82.186 75.946,91.411 73.723 C 93.936 73.115,99.938 73.029,154.800 72.815 C 188.130 72.685,221.610 72.542,229.200 72.497 C 236.790 72.452,244.260 72.591,245.800 72.806 M94.429 76.221 C 85.496 78.158,78.085 85.632,76.202 94.600 C 75.320 98.802,75.318 241.184,76.200 245.400 C 78.432 256.070,86.832 263.284,98.325 264.402 C 103.442 264.900,236.530 264.903,241.644 264.405 C 253.076 263.293,261.124 256.548,263.892 245.760 C 264.804 242.204,264.994 177.894,264.101 174.960 C 262.053 168.235,256.065 166.950,253.200 172.621 L 252.200 174.600 251.987 208.400 C 251.744 246.922,251.921 244.917,248.456 248.382 C 244.709 252.129,252.189 251.785,171.800 251.913 C 89.166 252.046,94.031 252.336,90.511 247.070 C 88.083 243.439,88.233 248.042,88.099 172.808 C 87.954 90.951,87.780 94.193,92.509 90.767 C 96.249 88.058,92.176 88.238,155.000 88.008 C 216.108 87.784,212.990 87.903,215.291 85.709 C 218.678 82.477,216.822 77.788,211.533 76.217 C 208.564 75.335,98.496 75.339,94.429 76.221 M209.500 80.510 C 211.101 81.385,211.185 82.529,209.718 83.491 C 208.699 84.159,205.377 84.212,152.618 84.400 C 91.293 84.619,95.740 84.435,91.491 86.925 C 88.237 88.832,85.743 92.511,84.850 96.720 C 84.214 99.717,84.211 240.261,84.846 243.280 C 85.914 248.352,89.393 252.651,93.901 254.472 L 96.200 255.400 168.600 255.519 C 252.161 255.655,246.332 255.965,251.134 251.142 C 255.702 246.555,255.600 247.460,255.600 211.347 C 255.600 191.057,255.746 179.759,256.025 178.459 C 256.718 175.226,258.418 174.391,259.644 176.682 C 260.580 178.432,260.456 242.075,259.510 245.494 C 257.494 252.778,252.792 257.495,245.555 259.494 C 241.649 260.573,98.402 260.588,94.506 259.510 C 87.172 257.480,82.268 252.494,80.485 245.252 C 79.679 241.976,79.212 107.430,79.979 99.377 C 81.141 87.181,87.437 80.829,99.200 79.985 C 108.857 79.291,208.135 79.765,209.500 80.510 M218.230 121.436 C 214.004 122.785,212.292 124.356,182.514 154.204 C 150.620 186.173,151.862 185.085,148.440 184.059 C 147.204 183.689,144.939 181.651,137.540 174.253 C 127.725 164.438,125.759 162.820,122.067 161.515 C 113.845 158.610,104.982 165.201,105.010 174.200 C 105.028 180.247,105.940 181.431,125.668 201.038 C 143.056 218.320,143.755 218.854,149.384 219.132 C 156.266 219.473,155.293 220.286,193.346 182.400 C 228.522 147.380,231.768 143.988,233.736 140.201 C 239.001 130.069,229.021 117.992,218.230 121.436 M254.602 124.570 C 252.381 126.926,251.965 130.692,253.457 134.950 C 254.215 137.114,254.129 138.979,253.132 142.000 C 251.160 147.974,252.070 157.442,254.841 159.773 C 261.455 165.339,267.594 152.452,263.206 142.213 C 261.878 139.116,261.843 137.987,262.966 134.433 C 264.124 130.767,264.185 130.081,263.554 127.809 C 262.340 123.438,257.367 121.639,254.602 124.570 M223.004 130.576 C 226.090 131.866,226.721 135.373,224.547 139.168 C 222.847 142.137,157.155 207.554,154.443 208.979 C 151.698 210.421,149.011 210.512,146.200 209.259 C 142.573 207.643,115.466 180.088,114.624 177.163 C 113.106 171.889,117.043 168.677,122.200 170.982 C 123.274 171.462,127.414 175.329,134.800 182.749 C 146.266 194.270,146.998 194.916,149.086 195.375 C 152.060 196.028,152.179 195.921,184.202 163.685 C 214.171 133.517,216.176 131.613,219.079 130.578 C 221.029 129.882,221.343 129.882,223.004 130.576 M259.354 146.186 C 260.233 147.528,260.249 152.667,259.377 153.911 C 257.842 156.104,256.000 153.971,256.000 150.000 C 256.000 145.983,257.846 143.884,259.354 146.186 " stroke="none" fill="#8c968c" fill-rule="evenodd"></path><path id="path8" d="M284.217 122.450 L 281.981 124.734 281.989 182.067 C 281.998 241.321,281.852 247.763,280.378 253.388 C 276.970 266.396,266.441 276.928,253.388 280.388 C 247.885 281.846,241.248 281.995,182.062 281.983 L 124.724 281.971 122.611 284.086 C 119.720 286.978,119.586 287.604,121.562 288.974 C 122.430 289.575,123.231 290.304,123.342 290.593 C 123.453 290.883,124.177 291.328,124.950 291.584 C 127.845 292.539,129.290 296.014,129.989 303.705 C 131.399 319.207,140.268 328.471,155.142 329.980 C 160.817 330.555,299.160 330.560,304.766 329.984 C 320.050 328.416,328.913 319.082,330.008 303.400 C 330.484 296.599,330.482 163.392,330.006 156.502 C 328.902 140.504,319.754 131.387,303.377 129.965 C 296.013 129.325,292.942 128.007,291.576 124.900 C 291.165 123.965,290.667 123.200,290.469 123.200 C 290.271 123.200,289.618 122.492,289.019 121.628 C 287.590 119.565,286.931 119.678,284.217 122.450 M289.734 129.980 C 292.972 132.722,295.023 133.394,301.966 133.988 C 315.570 135.151,322.797 140.808,325.504 152.414 C 326.550 156.901,326.582 302.987,325.537 307.400 C 323.115 317.633,317.633 323.115,307.400 325.537 C 303.001 326.578,156.918 326.550,152.400 325.508 C 140.869 322.846,135.147 315.531,133.988 301.966 C 133.361 294.637,132.276 291.675,129.329 289.246 C 127.569 287.795,127.667 286.750,129.602 286.325 C 130.371 286.157,155.930 286.013,186.400 286.006 C 219.176 285.998,243.729 285.831,246.525 285.598 C 265.438 284.021,279.986 271.852,284.568 253.774 C 285.857 248.692,285.993 242.254,285.997 186.360 C 286.000 131.383,286.083 127.509,287.239 128.224 C 287.438 128.347,287.605 128.212,287.612 127.924 C 287.619 127.634,287.827 127.749,288.077 128.180 C 288.326 128.610,289.072 129.420,289.734 129.980 " stroke="none" fill="#6eb4bc" fill-rule="evenodd"></path></g></svg>