<svg id="svg" version="1.1" xmlns="http://www.w3.org/2000/svg" xmlns:xlink="http://www.w3.org/1999/xlink" width="400" height="400" viewBox="0, 0, 400,400"><g id="svgg"><path id="path0" d="M84.464 24.053 C 82.227 24.272,79.017 24.965,76.464 25.780 C 74.119 26.530,70.408 27.516,68.218 27.971 C 65.567 28.523,63.160 29.348,61.018 30.440 C 58.024 31.965,52.054 35.487,51.600 35.995 C 51.490 36.118,50.230 37.146,48.800 38.280 C 39.304 45.806,30.221 59.764,27.822 70.517 C 27.272 72.983,26.270 76.614,25.595 78.588 C 24.815 80.870,24.211 83.708,23.937 86.388 C 23.391 91.717,23.756 135.131,24.423 144.200 C 24.942 151.259,24.746 179.557,23.984 207.600 C 23.358 230.672,23.294 307.093,23.896 314.022 C 24.249 318.091,24.720 320.611,25.785 324.122 C 26.565 326.696,27.386 330.106,27.609 331.700 C 28.231 336.138,29.053 338.958,30.594 341.935 C 31.367 343.429,32.000 344.786,32.000 344.951 C 32.000 345.848,34.484 350.303,36.934 353.800 C 43.415 363.049,53.272 370.144,62.800 372.418 C 64.890 372.917,67.728 373.747,69.107 374.262 C 76.395 376.984,87.494 377.186,220.000 377.001 C 321.222 376.859,320.328 376.877,325.800 374.945 C 327.340 374.402,330.711 373.262,333.290 372.413 C 349.602 367.045,367.254 348.945,372.318 332.394 C 372.757 330.961,373.494 329.147,373.957 328.364 C 375.351 326.000,376.412 320.968,376.990 313.978 C 377.291 310.335,377.865 306.195,378.264 304.778 C 379.272 301.205,379.248 291.132,378.226 288.200 C 376.572 283.455,376.272 174.342,377.876 160.918 C 378.516 155.567,378.515 154.306,377.869 139.318 C 377.491 130.563,377.184 117.190,377.185 109.600 C 377.190 88.894,376.515 82.129,373.941 77.085 C 373.483 76.186,372.761 74.201,372.338 72.673 C 371.468 69.532,371.068 68.677,367.727 62.800 C 359.340 48.048,348.135 38.717,330.046 31.418 C 322.529 28.386,321.801 28.194,315.600 27.606 C 313.070 27.366,308.902 26.640,306.338 25.992 C 303.774 25.344,300.174 24.602,298.338 24.345 C 294.176 23.760,90.302 23.482,84.464 24.053 M281.800 42.029 C 295.778 42.538,309.847 44.152,316.000 45.953 C 342.583 53.731,357.322 71.125,359.595 97.400 C 360.405 106.767,360.536 155.784,359.828 185.000 C 358.488 240.344,358.571 255.503,360.388 286.800 C 360.963 296.698,360.156 311.311,358.732 316.800 C 353.453 337.148,339.982 351.843,321.901 356.982 C 313.279 359.432,318.064 359.300,235.192 359.373 C 193.057 359.409,158.354 359.581,158.074 359.754 C 156.673 360.620,85.925 358.868,79.355 357.804 C 55.101 353.878,45.774 342.256,42.030 311.291 C 40.403 297.835,40.475 257.991,42.208 212.200 C 43.920 166.992,43.920 157.554,42.205 130.800 C 41.550 120.587,41.422 93.762,42.006 89.262 C 45.957 58.830,63.996 42.631,95.200 41.495 C 103.574 41.190,271.996 41.672,281.800 42.029 " stroke="none" fill="#080f0c" fill-rule="evenodd"></path><path id="path1" d="M89.243 49.637 C 69.835 51.212,57.913 60.287,51.977 78.004 C 49.286 86.036,48.802 99.696,49.962 134.800 C 50.646 155.489,50.381 196.968,49.346 231.200 C 47.909 278.754,48.667 312.414,51.420 323.346 C 55.933 341.266,63.754 348.564,80.400 350.385 C 82.490 350.613,93.560 351.069,105.000 351.397 C 116.440 351.724,130.840 352.170,137.000 352.386 C 145.199 352.674,156.506 352.622,179.200 352.190 C 219.579 351.423,242.555 351.374,271.000 351.997 C 312.084 352.897,321.313 351.735,332.400 344.266 C 343.130 337.038,351.384 321.910,353.259 306.037 C 353.881 300.772,353.441 283.062,352.413 272.000 C 351.497 262.151,350.712 238.550,351.015 230.000 C 351.121 227.030,351.391 218.750,351.615 211.600 C 351.840 204.450,352.397 190.500,352.852 180.600 C 354.284 149.484,353.656 106.479,351.583 93.600 C 347.463 68.010,329.782 53.411,299.200 50.348 C 286.895 49.115,176.745 49.495,175.466 50.774 C 174.504 51.736,183.479 53.008,195.400 53.597 C 206.635 54.153,215.235 54.676,228.200 55.593 C 234.140 56.013,241.970 56.465,245.600 56.597 C 280.700 57.874,290.727 59.325,306.153 65.356 C 329.709 74.567,337.103 89.714,340.015 134.726 C 340.938 148.982,340.578 175.418,338.982 210.600 C 338.634 218.253,338.396 232.648,338.388 246.400 C 338.369 281.684,337.891 289.006,334.942 299.190 C 327.419 325.164,310.762 340.650,285.135 345.494 C 278.601 346.729,247.231 346.346,195.600 344.400 C 180.933 343.847,168.959 343.910,149.400 344.643 C 107.254 346.221,88.584 344.598,80.215 338.626 C 72.462 333.093,65.831 318.419,63.123 300.800 C 62.287 295.362,62.415 263.602,63.325 250.800 C 64.701 231.443,64.772 218.533,63.605 199.800 C 63.372 196.060,62.909 188.590,62.575 183.200 C 61.985 173.670,61.713 170.964,60.045 158.000 C 59.607 154.590,58.960 147.840,58.609 143.000 C 58.257 138.160,57.615 130.510,57.181 126.000 C 54.359 96.649,59.113 83.000,76.807 69.646 C 85.669 62.959,107.595 55.893,126.000 53.794 C 150.626 50.985,146.904 49.623,114.000 49.403 C 102.890 49.328,91.749 49.434,89.243 49.637 M275.982 134.633 C 274.374 135.664,271.306 140.060,265.912 149.062 C 261.100 157.093,258.972 160.970,245.206 186.800 C 213.557 246.184,204.682 258.501,191.027 261.993 C 180.060 264.798,174.468 261.997,158.156 245.531 C 142.936 230.168,137.340 223.946,129.479 213.650 C 125.047 207.846,122.472 206.645,119.613 209.050 C 111.868 215.568,118.640 225.527,153.499 258.882 C 179.765 284.015,184.232 287.113,191.239 285.058 C 202.031 281.893,210.916 270.782,224.868 243.000 C 240.583 211.709,257.602 181.785,274.288 156.106 C 284.284 140.724,284.607 139.997,282.700 137.196 C 280.844 134.469,277.956 133.367,275.982 134.633 " stroke="none" fill="#3bb47c" fill-rule="evenodd"></path><path id="path2" d="M95.200 41.495 C 63.996 42.631,45.957 58.830,42.006 89.262 C 41.422 93.762,41.550 120.587,42.205 130.800 C 43.920 157.554,43.920 166.992,42.208 212.200 C 38.879 300.130,41.039 328.818,52.089 343.419 C 60.126 354.040,70.043 357.840,92.200 358.788 C 105.624 359.363,157.477 360.123,158.074 359.754 C 158.354 359.581,193.057 359.409,235.192 359.373 C 318.064 359.300,313.279 359.432,321.901 356.982 C 339.982 351.843,353.453 337.148,358.732 316.800 C 360.156 311.311,360.963 296.698,360.388 286.800 C 358.571 255.503,358.488 240.344,359.828 185.000 C 360.536 155.784,360.405 106.767,359.595 97.400 C 357.322 71.125,342.583 53.731,316.000 45.953 C 309.847 44.152,295.778 42.538,281.800 42.029 C 271.996 41.672,103.574 41.190,95.200 41.495 M223.200 45.420 C 292.493 45.670,301.011 45.943,311.200 48.240 C 336.977 54.053,351.753 69.086,355.791 93.606 C 357.422 103.510,357.639 162.708,356.177 199.200 C 355.132 225.291,355.175 254.224,356.284 271.200 C 357.569 290.877,357.715 295.860,357.225 303.399 C 355.575 328.782,341.106 348.883,320.950 353.797 C 310.075 356.448,304.753 356.643,260.707 356.010 C 230.014 355.568,220.199 355.587,185.600 356.154 C 163.710 356.513,143.910 356.714,141.600 356.603 C 139.290 356.491,129.300 356.219,119.400 355.998 C 74.843 355.005,68.804 354.094,59.903 347.019 C 45.695 335.725,42.450 308.743,45.329 225.800 C 47.018 177.164,47.121 155.603,45.788 130.200 C 44.961 114.428,45.141 90.923,46.131 85.400 C 49.173 68.432,56.883 57.000,69.600 50.599 C 76.525 47.113,80.416 46.318,96.800 45.039 C 97.790 44.961,112.820 44.966,130.200 45.048 C 147.580 45.131,189.430 45.298,223.200 45.420 M147.600 56.429 C 110.435 57.688,85.231 65.400,71.872 79.601 C 60.418 91.777,58.472 103.078,62.021 136.800 C 62.218 138.670,63.012 146.140,63.785 153.400 C 69.022 202.554,69.761 225.182,67.166 257.000 C 64.109 294.485,68.653 321.404,79.966 332.822 C 87.825 340.755,92.970 341.197,166.041 340.226 C 184.123 339.986,195.404 340.027,205.041 340.367 C 212.499 340.630,228.230 341.195,240.000 341.622 C 277.349 342.976,282.005 342.718,294.600 338.602 C 313.641 332.380,326.844 316.834,331.824 294.771 C 333.995 285.153,334.019 284.741,334.380 250.550 C 334.566 232.923,334.831 215.643,334.970 212.150 C 337.875 139.071,335.822 106.085,327.303 89.000 C 320.779 75.914,311.893 70.111,290.200 64.768 C 277.952 61.751,275.101 61.478,248.780 60.797 C 240.740 60.589,226.520 59.877,217.180 59.216 C 195.778 57.699,181.426 56.872,171.763 56.601 C 167.603 56.484,162.400 56.332,160.200 56.263 C 158.000 56.194,152.330 56.268,147.600 56.429 M182.600 65.962 C 186.120 66.196,194.040 66.669,200.200 67.013 C 206.360 67.357,216.305 67.989,222.299 68.418 C 228.294 68.847,241.884 69.467,252.499 69.796 C 278.564 70.605,285.419 71.541,298.327 76.057 C 320.733 83.895,325.967 96.980,327.421 148.800 C 327.652 157.055,326.776 198.108,326.178 207.000 C 326.045 208.980,325.787 226.350,325.604 245.600 C 325.333 274.219,325.156 281.418,324.632 285.088 C 321.271 308.652,310.556 323.506,292.272 329.953 C 280.600 334.069,274.593 334.265,224.200 332.178 C 195.518 330.990,175.903 330.772,154.328 331.403 C 89.948 333.284,85.384 332.187,79.436 313.400 C 76.354 303.666,75.542 297.834,75.308 283.726 C 75.113 271.934,75.328 266.303,76.605 249.800 C 78.526 224.969,77.380 196.225,72.809 154.600 C 67.233 103.825,67.991 96.037,79.641 84.386 C 89.491 74.537,110.686 67.746,137.000 66.010 C 140.520 65.778,144.120 65.519,145.000 65.434 C 148.041 65.142,176.222 65.537,182.600 65.962 M273.154 118.927 C 266.820 121.298,257.154 136.428,234.395 179.600 C 225.088 197.254,206.568 230.051,202.772 235.600 C 192.626 250.432,184.934 252.871,175.282 244.317 C 166.659 236.675,148.228 216.746,140.215 206.400 C 128.342 191.070,120.735 189.371,110.356 199.732 C 96.588 213.475,100.821 224.741,131.200 255.207 C 172.101 296.225,182.317 302.761,196.793 297.179 C 211.578 291.477,221.620 278.837,238.887 244.200 C 252.648 216.597,270.319 185.782,286.828 160.600 C 300.283 140.077,301.019 136.215,292.993 128.267 C 285.477 120.824,277.774 117.198,273.154 118.927 M280.678 130.175 C 285.067 132.219,288.000 135.976,288.000 139.555 C 288.000 142.218,286.926 144.195,278.416 157.200 C 261.477 183.087,245.502 211.104,229.268 243.400 C 217.832 266.150,214.567 271.307,206.415 279.498 C 196.940 289.019,189.110 291.667,181.600 287.892 C 175.060 284.604,171.085 281.289,153.002 264.043 C 113.493 226.362,107.309 216.828,115.880 206.815 C 121.083 200.736,125.670 202.100,133.316 212.000 C 144.157 226.038,167.450 250.356,174.718 255.224 C 186.981 263.439,199.580 257.394,212.301 237.192 C 216.534 230.470,231.223 204.264,241.019 185.960 C 270.526 130.824,273.397 126.785,280.678 130.175 " stroke="none" fill="#33574c" fill-rule="evenodd"></path><path id="path3" d="M138.160 72.419 C 135.278 72.583,130.958 73.090,128.560 73.546 C 126.162 74.001,121.108 74.918,117.330 75.583 C 91.474 80.135,77.699 90.288,76.334 105.800 C 75.790 111.980,76.529 127.140,77.804 135.946 C 78.893 143.467,79.722 151.727,80.398 161.800 C 80.635 165.320,81.268 171.710,81.807 176.000 C 84.773 199.648,85.262 234.803,82.982 260.600 C 80.171 292.416,84.454 318.295,93.282 322.836 C 96.906 324.700,113.413 325.137,153.200 324.424 C 187.810 323.803,212.495 324.236,256.772 326.240 C 288.556 327.678,302.663 322.151,311.602 304.756 C 317.734 292.824,318.624 285.310,319.197 240.600 C 319.423 223.000,319.808 197.890,320.052 184.800 C 321.395 112.831,318.118 93.343,303.393 85.736 C 291.366 79.524,274.655 76.416,253.200 76.401 C 235.412 76.389,213.117 75.295,195.600 73.574 C 180.528 72.094,153.426 71.549,138.160 72.419 M281.016 112.220 C 287.805 113.985,300.279 124.079,303.179 130.155 C 307.421 139.045,306.040 143.654,293.253 163.280 C 274.428 192.172,259.504 218.301,242.649 251.873 C 228.769 279.520,220.877 290.245,208.037 298.910 C 189.760 311.243,175.829 307.485,150.400 283.361 C 102.624 238.037,92.703 224.636,96.359 210.364 C 99.783 196.999,111.267 186.737,122.800 186.737 C 131.643 186.737,136.159 189.753,145.378 201.817 C 154.863 214.228,178.308 238.948,182.684 241.152 C 188.344 244.002,193.544 238.767,204.887 218.800 C 211.708 206.794,224.840 183.041,227.997 177.000 C 250.249 134.426,264.004 113.167,269.546 112.782 C 269.686 112.773,270.700 112.515,271.800 112.209 C 274.489 111.463,278.119 111.467,281.016 112.220 " stroke="none" fill="#c3e3eb" fill-rule="evenodd"></path><path id="path4" d="M96.800 45.039 C 80.416 46.318,76.525 47.113,69.600 50.599 C 56.883 57.000,49.173 68.432,46.131 85.400 C 45.141 90.923,44.961 114.428,45.788 130.200 C 47.121 155.603,47.018 177.164,45.329 225.800 C 42.450 308.743,45.695 335.725,59.903 347.019 C 68.804 354.094,74.843 355.005,119.400 355.998 C 129.300 356.219,139.290 356.491,141.600 356.603 C 143.910 356.714,163.710 356.513,185.600 356.154 C 220.199 355.587,230.014 355.568,260.707 356.010 C 304.753 356.643,310.075 356.448,320.950 353.797 C 341.106 348.883,355.575 328.782,357.225 303.399 C 357.715 295.860,357.569 290.877,356.284 271.200 C 355.175 254.224,355.132 225.291,356.177 199.200 C 357.639 162.708,357.422 103.510,355.791 93.606 C 351.753 69.086,336.977 54.053,311.200 48.240 C 301.011 45.943,292.493 45.670,223.200 45.420 C 189.430 45.298,147.580 45.131,130.200 45.048 C 112.820 44.966,97.790 44.961,96.800 45.039 M137.550 49.977 C 145.114 50.968,142.129 51.954,126.000 53.794 C 107.595 55.893,85.669 62.959,76.807 69.646 C 59.113 83.000,54.359 96.649,57.181 126.000 C 57.615 130.510,58.257 138.160,58.609 143.000 C 58.960 147.840,59.607 154.590,60.045 158.000 C 61.713 170.964,61.985 173.670,62.575 183.200 C 62.909 188.590,63.372 196.060,63.605 199.800 C 64.772 218.533,64.701 231.443,63.325 250.800 C 62.415 263.602,62.287 295.362,63.123 300.800 C 65.831 318.419,72.462 333.093,80.215 338.626 C 88.584 344.598,107.254 346.221,149.400 344.643 C 168.959 343.910,180.933 343.847,195.600 344.400 C 247.231 346.346,278.601 346.729,285.135 345.494 C 310.762 340.650,327.419 325.164,334.942 299.190 C 337.891 289.006,338.369 281.684,338.388 246.400 C 338.396 232.648,338.634 218.253,338.982 210.600 C 343.807 104.242,337.816 77.737,306.153 65.356 C 290.727 59.325,280.700 57.874,245.600 56.597 C 241.970 56.465,234.140 56.013,228.200 55.593 C 215.235 54.676,206.635 54.153,195.400 53.597 C 183.479 53.008,174.504 51.736,175.466 50.774 C 176.745 49.495,286.895 49.115,299.200 50.348 C 329.782 53.411,347.463 68.010,351.583 93.600 C 353.656 106.479,354.284 149.484,352.852 180.600 C 352.397 190.500,351.840 204.450,351.615 211.600 C 351.391 218.750,351.121 227.030,351.015 230.000 C 350.712 238.550,351.497 262.151,352.413 272.000 C 353.441 283.062,353.881 300.772,353.259 306.037 C 351.384 321.910,343.130 337.038,332.400 344.266 C 321.313 351.735,312.084 352.897,271.000 351.997 C 242.555 351.374,219.579 351.423,179.200 352.190 C 156.506 352.622,145.199 352.674,137.000 352.386 C 130.840 352.170,116.440 351.724,105.000 351.397 C 93.560 351.069,82.490 350.613,80.400 350.385 C 63.754 348.564,55.933 341.266,51.420 323.346 C 48.667 312.414,47.909 278.754,49.346 231.200 C 50.381 196.968,50.646 155.489,49.962 134.800 C 48.802 99.696,49.286 86.036,51.977 78.004 C 57.913 60.287,69.835 51.212,89.243 49.637 C 95.292 49.146,133.248 49.413,137.550 49.977 M171.763 56.601 C 181.426 56.872,195.778 57.699,217.180 59.216 C 226.520 59.877,240.740 60.589,248.780 60.797 C 275.101 61.478,277.952 61.751,290.200 64.768 C 311.893 70.111,320.779 75.914,327.303 89.000 C 335.822 106.085,337.875 139.071,334.970 212.150 C 334.831 215.643,334.566 232.923,334.380 250.550 C 334.019 284.741,333.995 285.153,331.824 294.771 C 326.844 316.834,313.641 332.380,294.600 338.602 C 282.005 342.718,277.349 342.976,240.000 341.622 C 228.230 341.195,212.499 340.630,205.041 340.367 C 195.404 340.027,184.123 339.986,166.041 340.226 C 92.970 341.197,87.825 340.755,79.966 332.822 C 68.653 321.404,64.109 294.485,67.166 257.000 C 69.761 225.182,69.022 202.554,63.785 153.400 C 63.012 146.140,62.218 138.670,62.021 136.800 C 60.201 119.507,60.116 102.596,61.818 96.259 C 63.822 88.797,69.959 80.346,78.161 73.757 C 91.691 62.887,127.554 55.239,160.200 56.263 C 162.400 56.332,167.603 56.484,171.763 56.601 M275.612 129.645 C 273.566 130.462,271.994 132.112,268.905 136.687 C 262.489 146.189,259.074 152.223,241.019 185.960 C 231.223 204.264,216.534 230.470,212.301 237.192 C 199.580 257.394,186.981 263.439,174.718 255.224 C 167.450 250.356,144.157 226.038,133.316 212.000 C 125.670 202.100,121.083 200.736,115.880 206.815 C 107.309 216.828,113.493 226.362,153.002 264.043 C 171.085 281.289,175.060 284.604,181.600 287.892 C 189.110 291.667,196.940 289.019,206.415 279.498 C 214.567 271.307,217.832 266.150,229.268 243.400 C 245.502 211.104,261.477 183.087,278.416 157.200 C 286.926 144.195,288.000 142.218,288.000 139.555 C 288.000 134.045,280.207 127.811,275.612 129.645 M280.791 135.126 C 285.382 138.526,285.082 139.495,274.288 156.106 C 257.602 181.785,240.583 211.709,224.868 243.000 C 210.916 270.782,202.031 281.893,191.239 285.058 C 184.232 287.113,179.765 284.015,153.499 258.882 C 118.640 225.527,111.868 215.568,119.613 209.050 C 122.472 206.645,125.047 207.846,129.479 213.650 C 142.794 231.089,168.054 256.776,175.695 260.648 C 185.940 265.840,198.484 261.610,208.454 249.600 C 214.343 242.507,227.485 220.049,245.206 186.800 C 258.972 160.970,261.100 157.093,265.912 149.062 C 274.848 134.149,276.889 132.238,280.791 135.126 " stroke="none" fill="#2c8a5e" fill-rule="evenodd"></path><path id="path5" d="M145.000 65.434 C 144.120 65.519,140.520 65.778,137.000 66.010 C 110.686 67.746,89.491 74.537,79.641 84.386 C 67.991 96.037,67.233 103.825,72.809 154.600 C 77.380 196.225,78.526 224.969,76.605 249.800 C 75.328 266.303,75.113 271.934,75.308 283.726 C 75.542 297.834,76.354 303.666,79.436 313.400 C 85.384 332.187,89.948 333.284,154.328 331.403 C 175.903 330.772,195.518 330.990,224.200 332.178 C 274.593 334.265,280.600 334.069,292.272 329.953 C 310.556 323.506,321.271 308.652,324.632 285.088 C 325.156 281.418,325.333 274.219,325.604 245.600 C 325.787 226.350,326.045 208.980,326.178 207.000 C 326.776 198.108,327.652 157.055,327.421 148.800 C 325.967 96.980,320.733 83.895,298.327 76.057 C 285.419 71.541,278.564 70.605,252.499 69.796 C 241.884 69.467,228.294 68.847,222.299 68.418 C 216.305 67.989,206.360 67.357,200.200 67.013 C 194.040 66.669,186.120 66.196,182.600 65.962 C 176.222 65.537,148.041 65.142,145.000 65.434 M174.800 67.608 C 184.621 68.033,192.358 68.508,217.000 70.203 C 225.140 70.762,241.081 71.477,252.424 71.792 C 277.165 72.477,283.329 73.275,296.200 77.460 C 322.905 86.144,327.082 103.155,324.571 193.000 C 324.233 205.100,323.803 229.670,323.616 247.600 C 323.339 274.152,323.158 280.975,322.637 284.375 C 318.401 312.065,306.276 325.814,281.800 330.684 C 276.813 331.676,263.389 331.568,229.400 330.261 C 190.985 328.785,178.746 328.609,157.600 329.232 C 124.662 330.201,99.999 329.824,94.200 328.261 C 80.141 324.472,74.603 298.603,78.388 254.400 C 80.775 226.534,79.625 197.331,74.192 147.823 C 71.290 121.377,70.781 104.276,72.721 98.400 C 80.169 75.834,115.882 65.062,174.800 67.608 M272.753 116.928 C 268.075 118.678,264.745 122.547,256.336 136.000 C 250.160 145.880,247.545 150.597,230.498 182.600 C 226.367 190.356,212.939 214.505,207.701 223.600 C 195.763 244.325,188.396 250.390,180.664 245.859 C 175.184 242.647,153.269 219.780,142.656 206.200 C 133.293 194.219,129.575 191.416,123.032 191.405 C 109.558 191.383,97.137 209.469,101.901 222.173 C 105.574 231.968,123.587 251.754,158.000 283.794 C 180.193 304.457,193.678 306.019,211.400 289.980 C 221.717 280.643,226.302 273.709,239.287 247.804 C 254.580 217.292,270.737 189.006,287.955 162.600 C 299.204 145.348,300.962 141.497,299.978 136.270 C 298.100 126.287,280.727 113.945,272.753 116.928 M281.408 119.707 C 287.551 122.833,294.791 129.259,296.826 133.392 C 299.767 139.366,298.515 142.774,286.828 160.600 C 270.319 185.782,252.648 216.597,238.887 244.200 C 225.193 271.670,221.300 277.728,211.077 287.474 C 194.880 302.916,182.562 302.559,163.600 286.099 C 140.383 265.944,109.919 233.748,105.177 224.354 C 100.917 215.916,102.718 207.356,110.356 199.732 C 120.735 189.371,128.342 191.070,140.215 206.400 C 148.228 216.746,166.659 236.675,175.282 244.317 C 184.934 252.871,192.626 250.432,202.772 235.600 C 206.568 230.051,225.088 197.254,234.395 179.600 C 253.785 142.819,265.168 124.126,270.474 120.348 C 273.595 118.125,277.813 117.877,281.408 119.707 " stroke="none" fill="#748c8c" fill-rule="evenodd"></path><path id="path6" d="M148.800 68.670 C 117.433 69.531,92.514 76.313,81.967 86.861 C 71.983 96.844,70.865 105.227,74.825 140.400 C 75.481 146.230,76.549 156.760,77.199 163.800 C 77.848 170.840,78.827 181.379,79.375 187.221 C 81.480 209.677,81.556 233.486,79.598 257.800 C 76.239 299.519,81.612 323.973,94.796 326.972 C 99.373 328.013,113.971 328.523,131.400 328.251 C 188.768 327.355,195.567 327.416,241.400 329.238 C 282.964 330.890,291.951 329.487,304.442 319.394 C 318.536 308.006,322.374 293.040,322.393 249.400 C 322.397 239.060,322.697 218.540,323.061 203.800 C 325.734 95.296,322.674 84.677,286.310 76.242 C 276.003 73.852,273.695 73.627,255.200 73.211 C 231.857 72.687,226.833 72.423,194.200 70.009 C 183.450 69.214,161.316 68.343,155.600 68.489 C 153.950 68.531,150.890 68.613,148.800 68.670 M172.800 70.402 C 179.510 70.615,190.310 71.235,196.800 71.781 C 216.687 73.453,227.298 74.012,250.600 74.616 C 274.462 75.234,274.637 75.250,285.726 77.753 C 320.753 85.662,324.039 96.628,321.636 197.600 C 321.361 209.150,320.987 232.010,320.804 248.400 C 320.454 279.821,320.409 280.591,318.356 290.800 C 314.285 311.037,303.215 322.771,284.200 327.007 C 276.120 328.807,272.812 328.838,238.200 327.434 C 206.579 326.152,189.813 325.884,164.000 326.248 C 115.595 326.930,98.273 326.612,93.427 324.951 C 83.176 321.439,78.032 295.075,80.986 261.200 C 83.255 235.194,83.101 206.025,80.574 182.600 C 80.028 177.540,79.132 168.090,78.584 161.600 C 78.036 155.110,77.046 145.402,76.384 140.026 C 73.155 113.791,73.624 101.020,78.069 94.167 C 85.048 83.408,96.054 77.684,117.572 73.624 C 135.885 70.168,146.303 69.561,172.800 70.402 M271.369 114.305 C 263.441 117.135,254.728 130.420,229.594 178.000 C 224.851 186.977,207.367 218.477,203.373 225.238 C 193.753 241.523,188.219 246.091,181.887 242.972 C 177.573 240.848,154.350 216.463,144.200 203.400 C 135.157 191.761,130.392 188.400,122.936 188.400 C 108.806 188.400,94.913 206.350,98.211 220.343 C 100.607 230.507,115.256 247.506,149.600 279.974 C 176.662 305.558,188.597 309.343,206.101 297.891 C 219.444 289.160,227.338 278.435,241.790 249.400 C 257.049 218.742,272.746 191.319,291.767 162.089 C 300.065 149.336,301.674 146.490,302.604 142.919 C 304.383 136.091,302.344 130.291,296.070 124.334 C 286.543 115.287,278.157 111.883,271.369 114.305 M283.222 116.895 C 291.536 121.067,299.097 128.454,300.871 134.136 C 302.959 140.824,301.805 143.792,290.200 161.600 C 271.505 190.288,256.679 216.216,240.340 248.800 C 228.514 272.383,224.775 278.328,216.222 287.146 C 200.910 302.932,188.125 306.125,173.896 297.717 C 166.165 293.149,162.828 290.318,143.642 272.057 C 115.136 244.923,102.025 229.335,99.811 219.943 C 96.715 206.808,109.563 190.200,122.821 190.200 C 130.313 190.200,133.753 192.617,142.851 204.270 C 154.620 219.346,176.727 242.344,181.818 244.809 C 188.480 248.034,194.819 242.794,204.926 225.710 C 208.840 219.093,226.891 186.560,231.398 178.000 C 254.080 134.917,264.512 118.695,271.233 116.054 C 274.804 114.652,279.395 114.973,283.222 116.895 " stroke="none" fill="#9cbcc4" fill-rule="evenodd"></path><path id="path7" d="M145.000 67.471 C 119.954 68.496,96.474 74.168,85.826 81.767 C 70.755 92.521,69.134 101.728,74.192 147.823 C 79.625 197.331,80.775 226.534,78.388 254.400 C 74.603 298.603,80.141 324.472,94.200 328.261 C 99.999 329.824,124.662 330.201,157.600 329.232 C 178.746 328.609,190.985 328.785,229.400 330.261 C 263.389 331.568,276.813 331.676,281.800 330.684 C 306.276 325.814,318.401 312.065,322.637 284.375 C 323.158 280.975,323.339 274.152,323.616 247.600 C 323.803 229.670,324.233 205.100,324.571 193.000 C 327.082 103.155,322.905 86.144,296.200 77.460 C 283.329 73.275,277.165 72.477,252.424 71.792 C 241.081 71.477,225.140 70.762,217.000 70.203 C 175.116 67.323,161.371 66.801,145.000 67.471 M171.000 68.812 C 177.820 69.031,188.260 69.570,194.200 70.009 C 226.833 72.423,231.857 72.687,255.200 73.211 C 273.695 73.627,276.003 73.852,286.310 76.242 C 322.674 84.677,325.734 95.296,323.061 203.800 C 322.697 218.540,322.397 239.060,322.393 249.400 C 322.374 293.040,318.536 308.006,304.442 319.394 C 291.951 329.487,282.964 330.890,241.400 329.238 C 195.567 327.416,188.768 327.355,131.400 328.251 C 113.971 328.523,99.373 328.013,94.796 326.972 C 81.612 323.973,76.239 299.519,79.598 257.800 C 81.556 233.486,81.480 209.677,79.375 187.221 C 78.827 181.379,77.848 170.840,77.199 163.800 C 76.549 156.760,75.481 146.230,74.825 140.400 C 70.865 105.227,71.983 96.844,81.967 86.861 C 92.514 76.313,117.433 69.531,148.800 68.670 C 150.890 68.613,153.950 68.531,155.600 68.489 C 157.250 68.447,164.180 68.592,171.000 68.812 M271.233 116.054 C 264.512 118.695,254.080 134.917,231.398 178.000 C 226.891 186.560,208.840 219.093,204.926 225.710 C 194.819 242.794,188.480 248.034,181.818 244.809 C 176.727 242.344,154.620 219.346,142.851 204.270 C 133.753 192.617,130.313 190.200,122.821 190.200 C 109.563 190.200,96.715 206.808,99.811 219.943 C 102.025 229.335,115.136 244.923,143.642 272.057 C 162.828 290.318,166.165 293.149,173.896 297.717 C 188.125 306.125,200.910 302.932,216.222 287.146 C 224.775 278.328,228.514 272.383,240.340 248.800 C 256.679 216.216,271.505 190.288,290.200 161.600 C 300.182 146.283,301.600 143.418,301.600 138.563 C 301.600 132.431,298.214 127.424,289.774 121.077 C 282.277 115.439,276.669 113.919,271.233 116.054 M282.423 117.979 C 288.718 121.177,296.599 128.101,298.608 132.200 C 302.086 139.294,300.849 142.825,287.955 162.600 C 270.737 189.006,254.580 217.292,239.287 247.804 C 226.302 273.709,221.717 280.643,211.400 289.980 C 193.678 306.019,180.193 304.457,158.000 283.794 C 123.587 251.754,105.574 231.968,101.901 222.173 C 97.137 209.469,109.558 191.383,123.032 191.405 C 129.575 191.416,133.293 194.219,142.656 206.200 C 153.269 219.780,175.184 242.647,180.664 245.859 C 188.396 250.390,195.763 244.325,207.701 223.600 C 212.939 214.505,226.367 190.356,230.498 182.600 C 250.002 145.984,254.534 138.041,262.254 126.945 C 269.449 116.603,274.923 114.170,282.423 117.979 " stroke="none" fill="#7c949c" fill-rule="evenodd"></path><path id="path8" d="M142.904 70.430 C 125.410 71.091,102.610 76.010,92.191 81.371 C 84.509 85.324,77.680 92.675,75.472 99.367 C 73.728 104.650,74.107 121.529,76.384 140.026 C 77.046 145.402,78.036 155.110,78.584 161.600 C 79.132 168.090,80.028 177.540,80.574 182.600 C 83.101 206.025,83.255 235.194,80.986 261.200 C 78.032 295.075,83.176 321.439,93.427 324.951 C 98.273 326.612,115.595 326.930,164.000 326.248 C 189.813 325.884,206.579 326.152,238.200 327.434 C 272.812 328.838,276.120 328.807,284.200 327.007 C 303.215 322.771,314.285 311.037,318.356 290.800 C 320.409 280.591,320.454 279.821,320.804 248.400 C 320.987 232.010,321.361 209.150,321.636 197.600 C 322.961 141.907,322.194 121.194,318.222 105.376 C 313.860 88.008,307.608 82.694,285.726 77.753 C 274.637 75.250,274.462 75.234,250.600 74.616 C 227.298 74.012,216.687 73.453,196.800 71.781 C 178.381 70.232,160.208 69.777,142.904 70.430 M179.400 72.393 C 183.800 72.600,191.090 73.131,195.600 73.574 C 213.117 75.295,235.412 76.389,253.200 76.401 C 274.655 76.416,291.366 79.524,303.393 85.736 C 318.118 93.343,321.395 112.831,320.052 184.800 C 319.808 197.890,319.423 223.000,319.197 240.600 C 318.624 285.310,317.734 292.824,311.602 304.756 C 302.663 322.151,288.556 327.678,256.772 326.240 C 212.495 324.236,187.810 323.803,153.200 324.424 C 113.413 325.137,96.906 324.700,93.282 322.836 C 84.454 318.295,80.171 292.416,82.982 260.600 C 85.262 234.803,84.773 199.648,81.807 176.000 C 81.268 171.710,80.635 165.320,80.398 161.800 C 79.722 151.727,78.893 143.467,77.804 135.946 C 76.529 127.140,75.790 111.980,76.334 105.800 C 77.699 90.288,91.474 80.135,117.330 75.583 C 121.108 74.918,126.162 74.001,128.560 73.546 C 136.114 72.111,161.251 71.541,179.400 72.393 M271.800 112.209 C 270.700 112.515,269.686 112.773,269.546 112.782 C 264.004 113.167,250.249 134.426,227.997 177.000 C 224.840 183.041,211.708 206.794,204.887 218.800 C 193.544 238.767,188.344 244.002,182.684 241.152 C 178.308 238.948,154.863 214.228,145.378 201.817 C 136.159 189.753,131.643 186.737,122.800 186.737 C 111.267 186.737,99.783 196.999,96.359 210.364 C 92.703 224.636,102.624 238.037,150.400 283.361 C 175.829 307.485,189.760 311.243,208.037 298.910 C 220.877 290.245,228.769 279.520,242.649 251.873 C 259.504 218.301,274.428 192.172,293.253 163.280 C 302.297 149.399,303.745 146.725,304.671 142.200 C 306.467 133.414,302.861 126.586,292.209 118.607 C 283.413 112.019,278.281 110.410,271.800 112.209 M283.200 115.062 C 291.716 119.098,300.580 127.655,302.442 133.636 C 304.682 140.834,303.437 144.154,291.767 162.089 C 272.746 191.319,257.049 218.742,241.790 249.400 C 227.338 278.435,219.444 289.160,206.101 297.891 C 188.597 309.343,176.662 305.558,149.600 279.974 C 115.256 247.506,100.607 230.507,98.211 220.343 C 94.913 206.350,108.806 188.400,122.936 188.400 C 130.392 188.400,135.157 191.761,144.200 203.400 C 154.350 216.463,177.573 240.848,181.887 242.972 C 188.219 246.091,193.753 241.523,203.373 225.238 C 207.367 218.477,224.851 186.977,229.594 178.000 C 250.619 138.198,261.133 121.054,267.287 116.536 C 271.823 113.206,278.065 112.628,283.200 115.062 " stroke="none" fill="#a4c4c4" fill-rule="evenodd"></path></g></svg>