<svg id="svg" version="1.1" xmlns="http://www.w3.org/2000/svg" xmlns:xlink="http://www.w3.org/1999/xlink" width="400" height="400" viewBox="0, 0, 400,400"><g id="svgg"><path id="path0" d="M300.800 48.027 C 297.703 48.486,293.251 50.562,290.772 52.703 C 288.315 54.826,285.409 56.593,282.736 57.588 C 280.107 58.566,278.214 59.982,275.341 63.119 C 274.208 64.355,272.410 65.828,271.345 66.391 C 270.027 67.088,268.588 68.435,266.845 70.607 C 265.435 72.363,263.543 74.268,262.641 74.839 C 260.978 75.893,258.777 78.190,256.856 80.877 C 256.275 81.689,255.417 82.530,254.949 82.746 C 253.430 83.446,251.108 85.737,248.915 88.700 C 247.734 90.295,246.592 91.600,246.375 91.600 C 245.523 91.600,242.262 95.092,240.773 97.599 C 239.908 99.055,238.525 100.759,237.700 101.386 C 236.031 102.655,233.654 105.559,232.583 107.639 C 232.197 108.388,230.749 110.225,229.365 111.722 C 227.526 113.712,226.237 115.679,224.575 119.033 C 223.108 121.994,221.877 123.936,221.105 124.510 C 219.091 126.007,216.906 128.446,216.134 130.058 C 215.730 130.901,215.265 131.593,215.100 131.595 C 214.935 131.598,214.800 131.885,214.800 132.234 C 214.800 132.582,213.636 133.951,212.213 135.277 C 210.790 136.602,209.507 138.072,209.361 138.543 C 209.215 139.014,208.777 139.852,208.389 140.404 C 208.000 140.956,207.467 142.208,207.204 143.186 C 206.655 145.224,205.408 147.132,202.271 150.733 C 201.057 152.126,199.431 154.466,198.657 155.933 C 197.797 157.564,196.486 159.260,195.282 160.299 C 192.981 162.284,191.217 165.406,190.061 169.541 C 189.086 173.026,188.471 174.046,185.997 176.275 C 184.127 177.960,182.130 181.246,181.189 184.186 C 180.910 185.058,179.628 187.107,178.341 188.740 C 177.053 190.373,176.000 191.844,176.000 192.009 C 176.000 192.174,175.214 193.995,174.253 196.055 C 173.292 198.115,172.437 200.005,172.353 200.255 C 172.269 200.505,171.253 201.733,170.095 202.983 C 168.032 205.210,165.600 209.618,165.600 211.130 C 165.600 213.792,161.126 219.927,157.941 221.632 C 156.580 222.360,153.493 219.654,150.605 215.200 C 148.986 212.703,145.238 208.800,144.460 208.800 C 144.255 208.800,143.976 208.395,143.840 207.900 C 143.483 206.598,139.793 202.130,138.052 200.890 C 137.233 200.307,135.581 198.383,134.382 196.615 C 132.934 194.482,131.539 192.958,130.235 192.087 C 128.931 191.216,127.596 189.757,126.269 187.757 C 125.169 186.098,123.635 184.259,122.859 183.670 C 122.084 183.082,120.042 180.800,118.321 178.600 C 114.349 173.523,108.893 167.986,105.800 165.892 C 104.480 164.999,102.194 163.058,100.720 161.580 C 95.754 156.597,87.656 154.566,76.859 155.594 C 62.451 156.967,57.200 163.334,55.637 181.322 C 55.303 185.166,55.136 185.801,54.131 187.063 C 53.509 187.843,52.813 188.804,52.584 189.198 C 52.356 189.592,51.969 190.159,51.726 190.457 C 51.258 191.030,49.553 195.849,48.819 198.671 C 48.113 201.388,47.638 206.096,47.213 214.600 C 46.993 219.000,46.607 224.271,46.356 226.313 C 45.209 235.613,50.271 247.462,56.763 250.676 C 59.271 251.917,62.647 254.270,64.900 256.346 C 65.726 257.107,66.896 258.035,67.500 258.409 C 69.650 259.739,80.596 271.067,82.234 273.658 C 84.946 277.947,85.538 278.735,87.800 281.068 C 89.120 282.430,90.650 284.310,91.200 285.246 C 92.010 286.624,95.088 289.989,97.560 292.200 C 97.806 292.420,98.658 293.590,99.454 294.800 C 101.217 297.479,103.062 299.491,104.402 300.194 C 104.953 300.482,106.301 302.042,107.398 303.659 C 109.733 307.101,110.104 307.508,112.109 308.816 C 112.939 309.357,114.379 310.967,115.309 312.393 C 116.239 313.819,117.270 315.279,117.600 315.636 C 121.401 319.756,125.200 324.450,125.200 325.027 C 125.200 325.580,128.866 329.935,130.566 331.400 C 131.587 332.280,132.886 333.700,133.453 334.555 C 134.020 335.411,135.770 337.345,137.342 338.854 C 138.914 340.363,140.335 341.733,140.499 341.899 C 140.664 342.065,141.650 343.280,142.691 344.600 C 143.732 345.920,145.036 347.360,145.589 347.800 C 147.161 349.051,149.287 351.256,150.600 352.997 C 154.888 358.684,161.507 361.155,171.200 360.688 C 178.191 360.352,181.287 358.619,185.102 352.911 C 185.870 351.763,186.791 350.728,187.149 350.611 C 187.725 350.424,189.546 348.756,191.415 346.705 C 191.763 346.322,192.653 344.699,193.393 343.098 C 194.133 341.497,195.340 339.560,196.075 338.793 C 198.158 336.623,200.100 333.345,201.759 329.200 C 203.007 326.081,203.667 325.020,205.444 323.280 C 207.923 320.849,209.307 318.368,209.969 315.160 C 210.805 311.112,211.670 309.441,214.060 307.258 C 216.436 305.087,218.340 301.781,219.215 298.307 C 219.502 297.167,220.346 295.678,221.416 294.424 C 224.325 291.017,225.544 289.158,227.357 285.365 C 227.892 284.246,228.840 282.896,229.465 282.365 C 230.734 281.286,233.200 278.254,233.200 277.774 C 233.200 277.603,233.436 277.179,233.724 276.831 C 234.012 276.484,234.564 275.158,234.949 273.884 C 235.632 271.630,237.240 269.325,240.537 265.874 C 241.339 265.035,242.737 263.100,243.643 261.574 C 244.550 260.048,245.458 258.800,245.663 258.800 C 246.533 258.800,250.160 254.842,251.508 252.424 C 252.312 250.981,253.404 249.454,253.935 249.031 C 255.703 247.624,258.000 245.040,258.000 244.457 C 258.000 244.274,258.360 243.798,258.800 243.400 C 259.240 243.002,259.600 242.494,259.600 242.271 C 259.600 242.048,260.747 240.771,262.149 239.433 C 263.552 238.095,265.372 236.100,266.195 235.000 C 267.018 233.900,269.291 231.324,271.246 229.275 C 273.201 227.226,274.800 225.286,274.800 224.963 C 274.800 224.379,285.247 213.699,289.810 209.618 C 291.125 208.442,293.917 205.842,296.017 203.840 C 304.067 196.162,308.870 192.000,309.679 192.000 C 310.214 192.000,312.641 190.061,315.496 187.354 C 316.763 186.151,318.684 184.707,319.764 184.144 C 320.852 183.578,323.068 181.713,324.728 179.968 C 326.378 178.233,328.464 176.432,329.364 175.964 C 331.013 175.107,332.725 173.475,335.082 170.509 C 335.787 169.622,337.344 168.343,338.543 167.667 C 339.741 166.991,341.594 165.422,342.661 164.182 C 343.727 162.941,346.040 160.925,347.800 159.700 C 354.930 154.742,358.751 149.386,360.277 142.217 C 361.824 134.950,358.575 126.228,353.726 124.631 C 353.073 124.416,351.572 122.200,348.861 117.447 C 348.344 116.541,347.608 115.440,347.225 115.000 C 345.518 113.037,344.898 111.363,344.633 108.000 C 344.227 102.845,343.295 98.892,341.774 95.868 C 341.018 94.366,340.400 92.896,340.400 92.601 C 340.400 92.307,340.265 92.007,340.100 91.933 C 338.524 91.233,336.921 87.217,336.598 83.160 C 336.052 76.322,334.484 71.463,331.861 68.482 C 329.702 66.028,327.963 62.954,327.351 60.510 C 324.790 50.287,315.389 45.868,300.800 48.027 M306.377 72.227 C 308.398 72.616,310.537 74.515,311.959 77.184 C 312.694 78.563,314.167 80.858,315.233 82.283 C 318.053 86.055,319.180 89.430,320.615 98.400 C 321.252 102.375,322.921 107.481,324.254 109.531 C 325.406 111.303,326.880 115.825,328.222 121.708 C 329.201 125.997,329.954 128.304,330.971 130.122 C 334.237 135.961,334.130 138.624,330.376 144.958 C 326.661 151.224,326.418 151.531,324.001 153.000 C 322.704 153.788,320.942 155.312,320.085 156.388 C 318.122 158.853,316.726 160.023,314.200 161.318 C 313.100 161.882,311.217 163.357,310.015 164.596 C 308.813 165.835,306.473 167.683,304.815 168.702 C 303.157 169.722,300.090 172.016,298.000 173.800 C 295.910 175.585,293.300 177.647,292.200 178.381 C 291.100 179.116,288.726 181.176,286.924 182.959 C 285.122 184.741,281.522 188.213,278.924 190.674 C 273.701 195.621,270.631 198.644,268.171 201.265 C 267.275 202.219,265.678 203.707,264.622 204.570 C 263.567 205.434,262.373 206.683,261.970 207.346 C 261.567 208.009,259.563 210.285,257.518 212.405 C 251.926 218.200,246.254 224.709,242.382 229.775 C 241.720 230.641,240.316 232.277,239.261 233.410 C 238.207 234.543,236.602 236.820,235.697 238.471 C 234.637 240.402,233.204 242.244,231.680 243.636 C 230.300 244.895,228.851 246.707,228.213 247.969 C 227.610 249.162,225.803 251.517,224.198 253.202 C 222.479 255.007,220.747 257.322,219.985 258.833 C 218.422 261.933,216.095 265.416,214.215 267.467 C 212.819 268.991,212.430 269.672,210.781 273.481 C 210.282 274.635,208.819 276.682,207.499 278.074 C 205.659 280.013,204.597 281.678,202.828 285.392 C 201.544 288.088,199.637 291.317,198.488 292.742 C 197.234 294.297,196.024 296.394,195.371 298.142 C 194.009 301.792,192.468 304.593,189.618 308.600 C 188.366 310.360,186.925 312.970,186.416 314.400 C 185.437 317.154,184.383 318.844,181.437 322.385 C 180.438 323.587,179.095 325.657,178.454 326.985 C 172.620 339.071,161.959 335.660,146.625 316.800 C 145.463 315.370,143.429 313.203,142.105 311.985 C 140.781 310.766,139.066 308.786,138.294 307.585 C 137.521 306.383,135.720 304.372,134.291 303.116 C 132.724 301.737,131.087 299.795,130.164 298.216 C 129.322 296.777,128.511 295.600,128.360 295.600 C 127.585 295.600,123.807 291.604,122.554 289.458 C 121.764 288.106,120.136 286.121,118.935 285.047 C 117.735 283.973,115.876 281.813,114.803 280.247 C 113.731 278.681,111.836 276.320,110.592 275.000 C 109.348 273.680,108.033 272.150,107.669 271.600 C 105.945 268.994,103.145 265.529,100.559 262.800 C 98.994 261.150,97.255 259.064,96.693 258.165 C 96.132 257.266,94.261 255.255,92.536 253.697 C 90.811 252.140,88.962 250.175,88.427 249.333 C 87.892 248.490,86.655 247.170,85.678 246.400 C 84.700 245.630,82.168 243.318,80.050 241.263 C 77.933 239.208,75.529 237.181,74.708 236.759 C 69.759 234.214,66.142 228.003,65.740 221.356 C 65.506 217.485,65.436 217.762,69.121 208.000 C 70.278 204.935,70.890 202.449,71.387 198.800 C 73.079 186.381,75.129 182.907,82.036 180.758 C 87.559 179.039,91.307 180.054,95.600 184.431 C 97.250 186.113,99.254 187.970,100.054 188.557 C 100.854 189.145,102.019 190.385,102.642 191.313 C 104.287 193.761,106.332 196.020,108.205 197.459 C 109.137 198.175,110.385 199.729,111.096 201.059 C 111.901 202.565,113.355 204.300,115.170 205.922 C 116.851 207.424,118.509 209.367,119.268 210.722 C 120.044 212.109,121.456 213.750,122.877 214.918 C 124.161 215.972,126.071 218.132,127.121 219.718 C 128.172 221.303,129.850 223.442,130.851 224.470 C 131.852 225.499,134.221 228.469,136.115 231.070 C 138.009 233.672,140.464 236.756,141.572 237.924 C 142.687 239.099,144.201 241.332,144.963 242.924 C 145.839 244.755,147.076 246.507,148.365 247.746 C 150.207 249.515,152.828 254.041,153.765 257.069 C 154.242 258.610,157.046 260.800,158.542 260.800 C 160.974 260.800,162.340 259.417,164.863 254.400 C 166.250 251.642,167.877 249.065,168.928 247.965 C 170.102 246.735,171.048 245.169,171.792 243.221 C 172.815 240.543,175.387 236.237,178.015 232.800 C 178.604 232.030,179.741 229.619,180.542 227.443 C 181.342 225.266,182.591 222.746,183.317 221.843 C 184.042 220.939,185.268 219.210,186.040 218.000 C 187.413 215.849,187.801 215.010,189.616 210.285 C 190.105 209.011,191.251 207.121,192.162 206.085 C 194.614 203.295,195.754 201.588,196.358 199.800 C 197.600 196.129,200.073 191.697,202.089 189.532 C 203.460 188.058,204.458 186.517,204.938 185.132 C 205.996 182.075,208.142 178.352,210.430 175.602 C 211.520 174.293,213.156 171.683,214.067 169.804 C 215.264 167.332,216.373 165.752,218.075 164.094 C 219.667 162.543,220.903 160.830,221.896 158.801 C 223.411 155.700,225.557 152.500,227.858 149.909 C 228.587 149.088,229.891 147.018,230.756 145.309 C 232.291 142.275,233.920 140.202,236.056 138.564 C 236.637 138.118,237.751 136.504,238.532 134.977 C 239.312 133.450,240.635 131.480,241.473 130.600 C 243.728 128.229,246.356 124.818,248.519 121.452 C 249.575 119.810,251.208 117.687,252.149 116.733 C 253.774 115.085,256.400 111.545,256.400 111.001 C 256.400 110.385,258.716 107.798,260.380 106.556 C 261.381 105.810,263.100 103.902,264.200 102.317 C 265.508 100.434,267.071 98.807,268.717 97.618 C 270.102 96.618,271.701 95.080,272.272 94.200 C 273.834 91.791,275.593 90.059,277.660 88.892 C 278.684 88.315,279.795 87.383,280.129 86.821 C 281.496 84.529,283.822 82.299,285.990 81.205 C 287.254 80.567,289.599 78.842,291.201 77.371 C 294.290 74.537,297.677 72.711,301.054 72.058 C 302.918 71.698,303.771 71.725,306.377 72.227 " stroke="none" fill="#050b09" fill-rule="evenodd"></path><path id="path1" d="M298.608 87.016 C 297.601 87.551,296.558 88.165,296.289 88.379 C 290.207 93.232,282.401 100.595,274.443 108.987 C 272.989 110.520,270.900 112.862,269.800 114.192 C 268.700 115.522,267.440 116.981,267.000 117.434 C 266.560 117.887,265.660 118.932,265.000 119.758 C 264.340 120.583,263.530 121.588,263.200 121.992 C 262.870 122.395,262.330 123.137,262.000 123.640 C 261.670 124.143,260.320 125.746,259.000 127.202 C 256.320 130.158,251.750 136.220,247.137 142.939 C 245.452 145.392,243.915 147.580,243.722 147.800 C 243.529 148.020,242.481 149.460,241.393 151.000 C 240.305 152.540,239.277 153.860,239.107 153.933 C 238.938 154.007,238.800 154.322,238.800 154.633 C 238.800 154.945,238.620 155.200,238.400 155.200 C 238.180 155.200,238.000 155.425,238.000 155.700 C 238.000 155.975,237.014 157.460,235.808 159.000 C 233.463 161.996,230.881 165.785,228.032 170.409 C 227.059 171.988,226.069 173.494,225.832 173.756 C 225.594 174.019,225.180 174.586,224.911 175.017 C 220.658 181.820,218.484 185.137,217.608 186.158 C 216.472 187.481,213.600 192.102,213.600 192.606 C 213.600 193.726,208.878 201.722,207.580 202.800 C 207.448 202.910,206.293 205.070,205.015 207.600 C 203.737 210.130,201.898 213.432,200.929 214.938 C 199.959 216.445,198.130 219.775,196.863 222.338 C 195.595 224.902,193.737 228.260,192.732 229.800 C 191.728 231.340,189.884 234.703,188.635 237.272 C 187.386 239.842,185.468 243.172,184.372 244.672 C 183.276 246.173,181.309 249.502,180.000 252.070 C 178.692 254.639,177.122 257.451,176.511 258.319 C 175.900 259.188,174.545 261.100,173.500 262.568 C 172.455 264.037,171.600 265.368,171.600 265.526 C 171.600 267.750,164.657 272.230,160.557 272.651 C 153.430 273.383,149.196 271.092,144.988 264.227 C 143.766 262.232,142.230 259.880,141.575 259.000 C 140.921 258.120,139.203 255.437,137.759 253.038 C 134.993 248.444,133.813 246.686,132.760 245.588 C 132.409 245.221,131.072 243.499,129.789 241.760 C 127.611 238.809,124.335 234.932,118.883 228.855 C 116.355 226.038,114.311 223.604,112.813 221.630 C 112.270 220.914,111.460 219.922,111.013 219.424 C 108.902 217.074,106.373 213.956,104.000 210.774 C 102.570 208.857,100.275 206.095,98.900 204.636 C 97.525 203.178,96.400 201.841,96.400 201.666 C 96.400 200.983,91.699 196.483,89.871 195.416 C 85.968 193.138,82.770 196.188,81.415 203.481 C 78.285 220.325,78.482 224.944,82.478 228.437 C 85.365 230.960,89.224 234.393,91.158 236.160 C 94.157 238.898,102.950 248.085,104.850 250.465 C 105.964 251.859,107.803 253.995,108.937 255.211 C 111.224 257.662,112.504 259.182,114.000 261.221 C 114.550 261.971,115.693 263.218,116.539 263.992 C 117.385 264.767,118.729 266.300,119.525 267.400 C 121.144 269.637,122.409 271.130,124.238 272.961 C 124.918 273.642,126.628 275.638,128.038 277.396 C 129.447 279.154,130.915 280.909,131.300 281.296 C 131.685 281.683,132.005 282.135,132.011 282.300 C 132.017 282.465,132.872 283.534,133.911 284.675 C 134.950 285.816,136.790 288.055,138.000 289.651 C 139.210 291.246,140.573 292.923,141.030 293.376 C 141.814 294.155,143.917 296.717,146.600 300.164 C 147.260 301.012,148.880 302.812,150.200 304.164 C 151.520 305.516,155.030 309.280,158.000 312.529 C 166.383 321.700,168.101 322.116,171.857 315.888 C 172.682 314.520,173.502 313.340,173.679 313.267 C 173.856 313.193,174.000 312.878,174.000 312.567 C 174.000 312.255,174.180 312.000,174.400 312.000 C 174.620 312.000,174.800 311.745,174.800 311.433 C 174.800 311.122,174.935 310.807,175.100 310.733 C 175.537 310.539,176.987 307.929,179.062 303.600 C 180.063 301.510,181.687 298.670,182.669 297.290 C 183.651 295.909,185.521 292.530,186.824 289.781 C 188.128 287.032,190.165 283.482,191.352 281.891 C 192.539 280.301,194.098 277.920,194.815 276.600 C 196.386 273.710,198.476 270.276,198.832 270.000 C 199.236 269.687,204.206 261.959,205.005 260.402 C 205.880 258.695,208.787 254.800,209.185 254.800 C 209.344 254.800,209.813 254.170,210.228 253.400 C 210.643 252.630,211.077 252.000,211.193 252.000 C 211.310 252.000,211.661 251.421,211.974 250.714 C 212.287 250.007,214.507 246.816,216.907 243.622 C 219.307 240.429,221.449 237.482,221.668 237.074 C 221.886 236.666,222.395 235.942,222.798 235.466 C 224.196 233.815,228.821 228.198,229.110 227.800 C 229.269 227.580,229.891 226.680,230.492 225.800 C 231.092 224.920,232.714 223.100,234.095 221.755 C 235.476 220.410,237.410 218.205,238.393 216.855 C 239.376 215.505,240.305 214.400,240.457 214.400 C 240.608 214.400,242.143 212.742,243.866 210.715 C 249.085 204.579,261.603 191.409,265.990 187.438 C 267.426 186.140,271.570 182.249,275.200 178.793 C 278.830 175.337,282.430 171.994,283.200 171.365 C 283.970 170.736,286.130 168.850,288.000 167.175 C 289.870 165.500,292.300 163.524,293.400 162.784 C 294.500 162.044,296.663 160.349,298.206 159.019 C 301.241 156.403,302.009 155.804,306.077 152.886 C 308.728 150.985,312.237 148.017,316.282 144.254 C 321.548 139.356,321.716 134.462,316.942 125.051 C 314.898 121.022,313.747 118.336,313.406 116.800 C 313.025 115.084,310.822 104.442,310.646 103.470 C 310.302 101.565,309.583 99.519,308.301 96.800 C 307.627 95.370,306.305 92.553,305.363 90.539 C 304.422 88.526,303.455 86.757,303.214 86.609 C 302.127 85.937,300.341 86.095,298.608 87.016 " stroke="none" fill="#3cb47c" fill-rule="evenodd"></path><path id="path2" d="M301.054 72.058 C 297.677 72.711,294.290 74.537,291.201 77.371 C 289.599 78.842,287.254 80.567,285.990 81.205 C 283.822 82.299,281.496 84.529,280.129 86.821 C 279.795 87.383,278.684 88.315,277.660 88.892 C 275.593 90.059,273.834 91.791,272.272 94.200 C 271.701 95.080,270.102 96.618,268.717 97.618 C 267.071 98.807,265.508 100.434,264.200 102.317 C 263.100 103.902,261.381 105.810,260.380 106.556 C 258.716 107.798,256.400 110.385,256.400 111.001 C 256.400 111.545,253.774 115.085,252.149 116.733 C 251.208 117.687,249.575 119.810,248.519 121.452 C 246.356 124.818,243.728 128.229,241.473 130.600 C 240.635 131.480,239.312 133.450,238.532 134.977 C 237.751 136.504,236.637 138.118,236.056 138.564 C 233.920 140.202,232.291 142.275,230.756 145.309 C 229.891 147.018,228.587 149.088,227.858 149.909 C 225.557 152.500,223.411 155.700,221.896 158.801 C 220.903 160.830,219.667 162.543,218.075 164.094 C 216.373 165.752,215.264 167.332,214.067 169.804 C 213.156 171.683,211.520 174.293,210.430 175.602 C 208.142 178.352,205.996 182.075,204.938 185.132 C 204.458 186.517,203.460 188.058,202.089 189.532 C 200.073 191.697,197.600 196.129,196.358 199.800 C 195.754 201.588,194.614 203.295,192.162 206.085 C 191.251 207.121,190.105 209.011,189.616 210.285 C 187.801 215.010,187.413 215.849,186.040 218.000 C 185.268 219.210,184.042 220.939,183.317 221.843 C 182.591 222.746,181.342 225.266,180.542 227.443 C 179.741 229.619,178.604 232.030,178.015 232.800 C 175.387 236.237,172.815 240.543,171.792 243.221 C 171.048 245.169,170.102 246.735,168.928 247.965 C 167.877 249.065,166.250 251.642,164.863 254.400 C 162.340 259.417,160.974 260.800,158.542 260.800 C 157.046 260.800,154.242 258.610,153.765 257.069 C 152.828 254.041,150.207 249.515,148.365 247.746 C 147.076 246.507,145.839 244.755,144.963 242.924 C 144.201 241.332,142.687 239.099,141.572 237.924 C 140.464 236.756,138.009 233.672,136.115 231.070 C 134.221 228.469,131.852 225.499,130.851 224.470 C 129.850 223.442,128.172 221.303,127.121 219.718 C 126.071 218.132,124.161 215.972,122.877 214.918 C 121.456 213.750,120.044 212.109,119.268 210.722 C 118.509 209.367,116.851 207.424,115.170 205.922 C 113.355 204.300,111.901 202.565,111.096 201.059 C 110.385 199.729,109.137 198.175,108.205 197.459 C 106.332 196.020,104.287 193.761,102.642 191.313 C 102.019 190.385,100.854 189.145,100.054 188.557 C 99.254 187.970,97.250 186.113,95.600 184.431 C 91.307 180.054,87.559 179.039,82.036 180.758 C 75.129 182.907,73.079 186.381,71.387 198.800 C 70.890 202.449,70.278 204.935,69.121 208.000 C 65.436 217.762,65.506 217.485,65.740 221.356 C 66.142 228.003,69.759 234.214,74.708 236.759 C 75.529 237.181,77.933 239.208,80.050 241.263 C 82.168 243.318,84.700 245.630,85.678 246.400 C 86.655 247.170,87.892 248.490,88.427 249.333 C 88.962 250.175,90.811 252.140,92.536 253.697 C 94.261 255.255,96.132 257.266,96.693 258.165 C 97.255 259.064,98.994 261.150,100.559 262.800 C 103.145 265.529,105.945 268.994,107.669 271.600 C 108.033 272.150,109.348 273.680,110.592 275.000 C 111.836 276.320,113.731 278.681,114.803 280.247 C 115.876 281.813,117.735 283.973,118.935 285.047 C 120.136 286.121,121.764 288.106,122.554 289.458 C 123.807 291.604,127.585 295.600,128.360 295.600 C 128.511 295.600,129.322 296.777,130.164 298.216 C 131.087 299.795,132.724 301.737,134.291 303.116 C 135.720 304.372,137.521 306.383,138.294 307.585 C 139.066 308.786,140.781 310.766,142.105 311.985 C 143.429 313.203,145.463 315.370,146.625 316.800 C 152.391 323.892,160.032 331.009,163.335 332.365 C 171.256 335.617,174.916 334.315,178.454 326.985 C 179.095 325.657,180.438 323.587,181.437 322.385 C 184.383 318.844,185.437 317.154,186.416 314.400 C 186.925 312.970,188.366 310.360,189.618 308.600 C 192.468 304.593,194.009 301.792,195.371 298.142 C 196.024 296.394,197.234 294.297,198.488 292.742 C 199.637 291.317,201.544 288.088,202.828 285.392 C 204.597 281.678,205.659 280.013,207.499 278.074 C 208.819 276.682,210.282 274.635,210.781 273.481 C 212.430 269.672,212.819 268.991,214.215 267.467 C 216.095 265.416,218.422 261.933,219.985 258.833 C 220.747 257.322,222.479 255.007,224.198 253.202 C 225.803 251.517,227.610 249.162,228.213 247.969 C 228.851 246.707,230.300 244.895,231.680 243.636 C 233.204 242.244,234.637 240.402,235.697 238.471 C 236.602 236.820,238.207 234.543,239.261 233.410 C 240.316 232.277,241.720 230.641,242.382 229.775 C 246.254 224.709,251.926 218.200,257.518 212.405 C 259.563 210.285,261.567 208.009,261.970 207.346 C 262.373 206.683,263.567 205.434,264.622 204.570 C 265.678 203.707,267.275 202.219,268.171 201.265 C 270.631 198.644,273.701 195.621,278.924 190.674 C 281.522 188.213,285.122 184.741,286.924 182.959 C 288.726 181.176,291.100 179.116,292.200 178.381 C 293.300 177.647,295.910 175.585,298.000 173.800 C 300.090 172.016,303.157 169.722,304.815 168.702 C 306.473 167.683,308.813 165.835,310.015 164.596 C 311.217 163.357,313.100 161.882,314.200 161.318 C 316.726 160.023,318.122 158.853,320.085 156.388 C 320.942 155.312,322.704 153.788,324.001 153.000 C 326.418 151.531,326.661 151.224,330.376 144.958 C 334.130 138.624,334.237 135.961,330.971 130.122 C 329.954 128.304,329.201 125.997,328.222 121.708 C 326.880 115.825,325.406 111.303,324.254 109.531 C 322.921 107.481,321.252 102.375,320.615 98.400 C 319.180 89.430,318.053 86.055,315.233 82.283 C 314.167 80.858,312.694 78.563,311.959 77.184 C 309.646 72.844,305.958 71.110,301.054 72.058 M307.094 77.459 C 308.541 78.620,309.150 79.661,314.081 89.400 C 315.548 92.298,316.541 95.893,318.197 104.307 C 318.754 107.133,319.785 110.696,320.628 112.707 C 321.434 114.628,322.508 117.190,323.016 118.400 C 323.950 120.626,327.788 132.857,328.474 135.795 C 329.222 138.995,326.730 144.913,323.168 148.400 C 318.670 152.803,314.345 156.512,310.712 159.083 C 308.671 160.528,306.100 162.471,305.000 163.402 C 303.900 164.332,301.380 166.226,299.400 167.611 C 297.420 168.996,294.630 171.236,293.200 172.589 C 291.770 173.942,289.790 175.602,288.800 176.278 C 287.810 176.953,285.885 178.652,284.522 180.053 C 283.160 181.454,279.674 184.850,276.776 187.600 C 266.370 197.474,254.657 209.501,250.089 215.000 C 248.992 216.320,247.424 218.030,246.603 218.800 C 245.782 219.570,244.114 221.460,242.897 223.000 C 241.680 224.540,239.738 226.790,238.581 228.000 C 237.425 229.210,235.166 232.090,233.561 234.400 C 231.956 236.710,230.222 239.050,229.708 239.600 C 229.193 240.150,227.653 242.204,226.286 244.163 C 224.919 246.123,222.768 248.883,221.507 250.296 C 220.247 251.708,218.301 254.378,217.183 256.228 C 216.066 258.078,214.374 260.502,213.424 261.616 C 212.474 262.729,210.910 265.081,209.948 266.843 C 207.910 270.578,206.047 273.478,203.770 276.463 C 202.873 277.639,201.529 279.770,200.783 281.200 C 200.037 282.630,198.450 285.240,197.257 287.000 C 196.063 288.760,193.956 292.540,192.574 295.400 C 191.192 298.260,189.314 301.590,188.400 302.800 C 187.486 304.010,185.609 307.340,184.229 310.200 C 182.849 313.060,180.789 316.613,179.652 318.096 C 178.515 319.579,177.029 321.739,176.350 322.896 C 173.160 328.335,171.335 329.590,167.617 328.898 C 162.815 328.005,161.782 327.277,154.813 319.866 C 151.261 316.090,147.044 311.650,145.441 310.000 C 143.839 308.350,141.438 305.650,140.106 304.000 C 138.775 302.350,137.103 300.460,136.391 299.800 C 135.679 299.140,134.141 297.340,132.974 295.800 C 131.807 294.260,130.002 292.100,128.964 291.000 C 127.925 289.900,126.275 287.920,125.297 286.600 C 124.319 285.280,122.657 283.210,121.603 282.000 C 120.548 280.790,118.646 278.450,117.375 276.800 C 115.478 274.337,110.834 268.792,110.006 268.000 C 109.891 267.890,108.722 266.450,107.409 264.800 C 106.095 263.150,104.224 260.990,103.251 260.000 C 102.278 259.010,100.530 257.030,99.367 255.600 C 95.629 251.004,82.058 237.619,78.127 234.651 C 70.986 229.259,69.102 223.517,71.615 214.805 C 72.281 212.498,73.454 207.188,74.223 203.005 C 76.390 191.218,78.140 187.470,82.493 185.296 C 86.776 183.157,89.424 183.809,93.870 188.099 C 95.228 189.410,96.714 190.745,97.172 191.066 C 97.630 191.386,98.978 192.869,100.168 194.360 C 101.358 195.851,103.228 197.978,104.325 199.086 C 105.421 200.194,107.533 202.698,109.017 204.650 C 110.502 206.603,112.402 208.920,113.241 209.800 C 114.724 211.356,118.803 216.254,125.067 224.000 C 126.757 226.090,128.885 228.612,129.796 229.604 C 130.707 230.596,132.509 232.846,133.801 234.604 C 135.093 236.362,137.177 238.970,138.432 240.400 C 139.687 241.830,141.543 244.410,142.557 246.132 C 143.570 247.855,145.220 250.375,146.223 251.732 C 147.225 253.090,148.864 255.730,149.864 257.600 C 152.934 263.343,154.029 264.411,157.416 264.974 C 161.647 265.676,164.184 263.845,167.611 257.615 C 168.757 255.533,170.296 253.040,171.032 252.076 C 171.769 251.112,173.369 248.373,174.588 245.989 C 175.807 243.605,177.449 240.811,178.236 239.780 C 180.050 237.403,182.032 233.803,183.542 230.141 C 184.190 228.569,185.823 225.659,187.171 223.675 C 188.519 221.690,190.417 218.248,191.389 216.025 C 192.361 213.802,194.137 210.592,195.335 208.892 C 196.533 207.191,198.620 203.604,199.972 200.919 C 201.325 198.235,203.151 195.085,204.032 193.919 C 204.912 192.754,206.533 190.000,207.634 187.800 C 208.734 185.600,210.695 182.365,211.990 180.610 C 213.285 178.856,215.367 175.589,216.617 173.352 C 217.868 171.114,219.689 168.320,220.665 167.142 C 221.641 165.964,223.353 163.498,224.470 161.661 C 225.587 159.825,227.527 157.035,228.781 155.461 C 230.035 153.888,232.004 151.026,233.156 149.103 C 234.308 147.179,235.962 144.749,236.832 143.703 C 237.701 142.656,239.549 140.089,240.937 137.997 C 242.326 135.905,244.382 133.196,245.507 131.976 C 246.632 130.757,248.222 128.778,249.039 127.579 C 250.895 124.859,251.430 124.165,253.713 121.521 C 254.722 120.353,256.643 117.868,257.982 115.999 C 263.109 108.845,282.836 88.411,288.400 84.490 C 289.830 83.483,292.565 81.509,294.479 80.105 C 300.777 75.482,303.832 74.841,307.094 77.459 " stroke="none" fill="#143c24" fill-rule="evenodd"></path><path id="path3" d="M299.479 76.769 C 298.642 77.199,296.392 78.700,294.479 80.105 C 292.565 81.509,289.830 83.483,288.400 84.490 C 282.836 88.411,263.109 108.845,257.982 115.999 C 256.643 117.868,254.722 120.353,253.713 121.521 C 251.430 124.165,250.895 124.859,249.039 127.579 C 248.222 128.778,246.632 130.757,245.507 131.976 C 244.382 133.196,242.326 135.905,240.937 137.997 C 239.549 140.089,237.701 142.656,236.832 143.703 C 235.962 144.749,234.308 147.179,233.156 149.103 C 232.004 151.026,230.035 153.888,228.781 155.461 C 227.527 157.035,225.587 159.825,224.470 161.661 C 223.353 163.498,221.641 165.964,220.665 167.142 C 219.689 168.320,217.868 171.114,216.617 173.352 C 215.367 175.589,213.285 178.856,211.990 180.610 C 210.695 182.365,208.734 185.600,207.634 187.800 C 206.533 190.000,204.912 192.754,204.032 193.919 C 203.151 195.085,201.325 198.235,199.972 200.919 C 198.620 203.604,196.533 207.191,195.335 208.892 C 194.137 210.592,192.361 213.802,191.389 216.025 C 190.417 218.248,188.519 221.690,187.171 223.675 C 185.823 225.659,184.190 228.569,183.542 230.141 C 182.032 233.803,180.050 237.403,178.236 239.780 C 177.449 240.811,175.807 243.605,174.588 245.989 C 173.369 248.373,171.769 251.112,171.032 252.076 C 170.296 253.040,168.757 255.533,167.611 257.615 C 164.184 263.845,161.647 265.676,157.416 264.974 C 154.029 264.411,152.934 263.343,149.864 257.600 C 148.864 255.730,147.225 253.090,146.223 251.732 C 145.220 250.375,143.570 247.855,142.557 246.132 C 141.543 244.410,139.687 241.830,138.432 240.400 C 137.177 238.970,135.093 236.362,133.801 234.604 C 132.509 232.846,130.707 230.596,129.796 229.604 C 128.885 228.612,126.757 226.090,125.067 224.000 C 118.803 216.254,114.724 211.356,113.241 209.800 C 112.402 208.920,110.502 206.603,109.017 204.650 C 107.533 202.698,105.421 200.194,104.325 199.086 C 103.228 197.978,101.358 195.851,100.168 194.360 C 98.978 192.869,97.630 191.386,97.172 191.066 C 96.714 190.745,95.228 189.410,93.870 188.099 C 89.424 183.809,86.776 183.157,82.493 185.296 C 78.140 187.470,76.390 191.218,74.223 203.005 C 73.454 207.188,72.281 212.498,71.615 214.805 C 69.102 223.517,70.986 229.259,78.127 234.651 C 82.058 237.619,95.629 251.004,99.367 255.600 C 100.530 257.030,102.278 259.010,103.251 260.000 C 104.224 260.990,106.095 263.150,107.409 264.800 C 108.722 266.450,109.891 267.890,110.006 268.000 C 110.834 268.792,115.478 274.337,117.375 276.800 C 118.646 278.450,120.548 280.790,121.603 282.000 C 122.657 283.210,124.319 285.280,125.297 286.600 C 126.275 287.920,127.925 289.900,128.964 291.000 C 130.002 292.100,131.807 294.260,132.974 295.800 C 134.141 297.340,135.679 299.140,136.391 299.800 C 137.103 300.460,138.775 302.350,140.106 304.000 C 141.438 305.650,143.839 308.350,145.441 310.000 C 147.044 311.650,151.261 316.090,154.813 319.866 C 161.782 327.277,162.815 328.005,167.617 328.898 C 171.335 329.590,173.160 328.335,176.350 322.896 C 177.029 321.739,178.515 319.579,179.652 318.096 C 180.789 316.613,182.849 313.060,184.229 310.200 C 185.609 307.340,187.486 304.010,188.400 302.800 C 189.314 301.590,191.192 298.260,192.574 295.400 C 193.956 292.540,196.063 288.760,197.257 287.000 C 198.450 285.240,200.037 282.630,200.783 281.200 C 201.529 279.770,202.873 277.639,203.770 276.463 C 206.047 273.478,207.910 270.578,209.948 266.843 C 210.910 265.081,212.474 262.729,213.424 261.616 C 214.374 260.502,216.066 258.078,217.183 256.228 C 218.301 254.378,220.247 251.708,221.507 250.296 C 222.768 248.883,224.919 246.123,226.286 244.163 C 227.653 242.204,229.193 240.150,229.708 239.600 C 230.222 239.050,231.956 236.710,233.561 234.400 C 235.166 232.090,237.425 229.210,238.581 228.000 C 239.738 226.790,241.680 224.540,242.897 223.000 C 244.114 221.460,245.782 219.570,246.603 218.800 C 247.424 218.030,248.992 216.320,250.089 215.000 C 254.657 209.501,266.370 197.474,276.776 187.600 C 279.674 184.850,283.160 181.454,284.522 180.053 C 285.885 178.652,287.810 176.953,288.800 176.278 C 289.790 175.602,291.770 173.942,293.200 172.589 C 294.630 171.236,297.420 168.996,299.400 167.611 C 301.380 166.226,303.900 164.332,305.000 163.402 C 306.100 162.471,308.671 160.528,310.712 159.083 C 314.345 156.512,318.670 152.803,323.168 148.400 C 326.730 144.913,329.222 138.995,328.474 135.795 C 327.788 132.857,323.950 120.626,323.016 118.400 C 322.508 117.190,321.434 114.628,320.628 112.707 C 319.785 110.696,318.754 107.133,318.197 104.307 C 316.541 95.893,315.548 92.298,314.081 89.400 C 309.150 79.661,308.541 78.620,307.094 77.459 C 305.126 75.880,301.796 75.578,299.479 76.769 M305.649 80.387 C 306.832 81.571,313.344 94.502,313.712 96.400 C 316.143 108.928,317.349 113.297,319.987 119.137 C 327.347 135.427,327.005 141.535,318.307 149.107 C 316.040 151.081,313.931 153.002,313.620 153.376 C 313.310 153.750,311.693 154.970,310.028 156.087 C 308.363 157.204,305.657 159.217,304.017 160.559 C 302.376 161.902,299.620 164.011,297.893 165.246 C 293.774 168.193,288.435 172.904,278.680 182.200 C 274.293 186.380,269.960 190.441,269.052 191.224 C 266.249 193.639,252.106 208.294,249.773 211.200 C 249.154 211.970,247.198 214.142,245.424 216.027 C 240.654 221.098,236.189 226.333,232.718 230.924 C 231.023 233.166,228.549 236.350,227.220 238.001 C 225.891 239.652,223.963 242.262,222.935 243.801 C 221.907 245.340,220.223 247.550,219.194 248.711 C 218.165 249.872,216.666 251.942,215.862 253.311 C 215.059 254.680,213.687 256.700,212.813 257.800 C 210.110 261.205,208.189 264.071,206.380 267.400 C 205.423 269.160,203.815 271.685,202.806 273.012 C 201.797 274.339,200.095 276.949,199.023 278.812 C 197.952 280.675,195.976 283.820,194.633 285.800 C 193.290 287.780,191.391 291.200,190.414 293.400 C 189.436 295.600,188.267 297.954,187.818 298.631 C 187.368 299.307,186.170 301.107,185.157 302.631 C 184.143 304.154,182.562 307.079,181.643 309.131 C 180.724 311.183,179.013 314.153,177.839 315.731 C 176.666 317.309,175.191 319.496,174.561 320.592 C 172.476 324.219,170.738 325.604,168.300 325.578 C 164.134 325.533,163.259 324.928,155.600 316.798 C 152.850 313.879,149.268 310.126,147.641 308.458 C 146.013 306.791,143.967 304.521,143.093 303.413 C 142.220 302.306,140.373 300.140,138.989 298.600 C 137.605 297.060,135.674 294.720,134.699 293.400 C 133.723 292.080,132.149 290.190,131.202 289.200 C 130.254 288.210,128.480 286.050,127.259 284.400 C 126.037 282.750,123.770 279.948,122.219 278.173 C 119.367 274.907,114.260 268.812,110.600 264.303 C 109.500 262.947,107.017 260.157,105.083 258.102 C 103.149 256.046,101.258 253.856,100.880 253.236 C 99.864 251.565,90.033 241.619,84.634 236.800 C 82.046 234.490,79.052 231.817,77.981 230.861 C 73.609 226.957,73.021 223.685,74.935 213.923 C 75.725 209.895,76.749 204.544,77.211 202.032 C 79.016 192.208,81.728 187.970,86.595 187.367 C 88.595 187.119,94.478 191.749,98.580 196.800 C 99.742 198.230,101.723 200.480,102.983 201.800 C 104.243 203.120,105.888 205.120,106.639 206.244 C 107.389 207.368,109.041 209.438,110.310 210.844 C 111.578 212.250,114.013 215.110,115.720 217.200 C 120.490 223.039,125.940 229.566,128.664 232.702 C 130.020 234.262,131.899 236.587,132.841 237.869 C 133.782 239.151,135.415 241.190,136.470 242.400 C 137.524 243.610,139.394 246.309,140.626 248.398 C 141.857 250.487,143.449 252.917,144.164 253.798 C 144.879 254.679,146.513 257.290,147.795 259.600 C 154.078 270.915,163.297 271.133,169.340 260.110 C 170.162 258.609,171.642 256.306,172.627 254.991 C 173.613 253.676,175.495 250.440,176.810 247.800 C 178.124 245.160,179.754 242.375,180.430 241.612 C 181.947 239.899,183.875 236.469,185.828 232.005 C 186.646 230.138,188.278 227.203,189.456 225.483 C 191.361 222.701,194.800 216.097,194.800 215.221 C 194.800 215.038,196.042 213.012,197.559 210.718 C 199.077 208.424,201.129 204.939,202.120 202.973 C 203.111 201.008,204.909 197.921,206.117 196.113 C 207.324 194.305,209.223 190.975,210.337 188.713 C 211.450 186.451,212.782 184.150,213.297 183.600 C 214.634 182.174,216.393 179.518,218.599 175.600 C 219.652 173.730,221.719 170.580,223.192 168.600 C 224.665 166.620,226.361 164.087,226.960 162.971 C 227.559 161.855,229.123 159.628,230.436 158.022 C 231.748 156.416,233.887 153.369,235.189 151.250 C 236.491 149.131,238.568 146.138,239.804 144.599 C 241.041 143.060,242.745 140.625,243.592 139.189 C 244.439 137.753,246.120 135.470,247.327 134.117 C 248.535 132.763,250.110 130.788,250.828 129.728 C 252.026 127.958,257.421 121.266,258.026 120.800 C 258.169 120.690,259.256 119.226,260.443 117.546 C 263.580 113.106,276.151 99.514,282.580 93.611 C 284.131 92.188,285.947 90.478,286.615 89.811 C 288.388 88.043,290.388 86.536,296.104 82.660 C 302.076 78.611,303.527 78.266,305.649 80.387 " stroke="none" fill="#246c4c" fill-rule="evenodd"></path><path id="path4" d="M296.104 82.660 C 290.388 86.536,288.388 88.043,286.615 89.811 C 285.947 90.478,284.131 92.188,282.580 93.611 C 276.151 99.514,263.580 113.106,260.443 117.546 C 259.256 119.226,258.169 120.690,258.026 120.800 C 257.421 121.266,252.026 127.958,250.828 129.728 C 250.110 130.788,248.535 132.763,247.327 134.117 C 246.120 135.470,244.439 137.753,243.592 139.189 C 242.745 140.625,241.041 143.060,239.804 144.599 C 238.568 146.138,236.491 149.131,235.189 151.250 C 233.887 153.369,231.748 156.416,230.436 158.022 C 229.123 159.628,227.559 161.855,226.960 162.971 C 226.361 164.087,224.665 166.620,223.192 168.600 C 221.719 170.580,219.652 173.730,218.599 175.600 C 216.393 179.518,214.634 182.174,213.297 183.600 C 212.782 184.150,211.450 186.451,210.337 188.713 C 209.223 190.975,207.324 194.305,206.117 196.113 C 204.909 197.921,203.111 201.008,202.120 202.973 C 201.129 204.939,199.077 208.424,197.559 210.718 C 196.042 213.012,194.800 215.038,194.800 215.221 C 194.800 216.097,191.361 222.701,189.456 225.483 C 188.278 227.203,186.646 230.138,185.828 232.005 C 183.875 236.469,181.947 239.899,180.430 241.612 C 179.754 242.375,178.124 245.160,176.810 247.800 C 175.495 250.440,173.613 253.676,172.627 254.991 C 171.642 256.306,170.162 258.609,169.340 260.110 C 163.297 271.133,154.078 270.915,147.795 259.600 C 146.513 257.290,144.879 254.679,144.164 253.798 C 143.449 252.917,141.857 250.487,140.626 248.398 C 139.394 246.309,137.524 243.610,136.470 242.400 C 135.415 241.190,133.782 239.151,132.841 237.869 C 131.899 236.587,130.020 234.262,128.664 232.702 C 125.940 229.566,120.490 223.039,115.720 217.200 C 114.013 215.110,111.578 212.250,110.310 210.844 C 109.041 209.438,107.389 207.368,106.639 206.244 C 105.888 205.120,104.243 203.120,102.983 201.800 C 101.723 200.480,99.742 198.230,98.580 196.800 C 94.478 191.749,88.595 187.119,86.595 187.367 C 81.728 187.970,79.016 192.208,77.211 202.032 C 76.749 204.544,75.725 209.895,74.935 213.923 C 73.021 223.685,73.609 226.957,77.981 230.861 C 79.052 231.817,82.046 234.490,84.634 236.800 C 90.033 241.619,99.864 251.565,100.880 253.236 C 101.258 253.856,103.149 256.046,105.083 258.102 C 107.017 260.157,109.500 262.947,110.600 264.303 C 114.260 268.812,119.367 274.907,122.219 278.173 C 123.770 279.948,126.037 282.750,127.259 284.400 C 128.480 286.050,130.254 288.210,131.202 289.200 C 132.149 290.190,133.723 292.080,134.699 293.400 C 135.674 294.720,137.605 297.060,138.989 298.600 C 140.373 300.140,142.220 302.306,143.093 303.413 C 143.967 304.521,146.013 306.791,147.641 308.458 C 149.268 310.126,152.850 313.879,155.600 316.798 C 163.259 324.928,164.134 325.533,168.300 325.578 C 170.738 325.604,172.476 324.219,174.561 320.592 C 175.191 319.496,176.666 317.309,177.839 315.731 C 179.013 314.153,180.724 311.183,181.643 309.131 C 182.562 307.079,184.143 304.154,185.157 302.631 C 186.170 301.107,187.368 299.307,187.818 298.631 C 188.267 297.954,189.436 295.600,190.414 293.400 C 191.391 291.200,193.290 287.780,194.633 285.800 C 195.976 283.820,197.952 280.675,199.023 278.812 C 200.095 276.949,201.797 274.339,202.806 273.012 C 203.815 271.685,205.423 269.160,206.380 267.400 C 208.189 264.071,210.110 261.205,212.813 257.800 C 213.687 256.700,215.059 254.680,215.862 253.311 C 216.666 251.942,218.165 249.872,219.194 248.711 C 220.223 247.550,221.907 245.340,222.935 243.801 C 223.963 242.262,225.891 239.652,227.220 238.001 C 228.549 236.350,231.023 233.166,232.718 230.924 C 236.189 226.333,240.654 221.098,245.424 216.027 C 247.198 214.142,249.154 211.970,249.773 211.200 C 252.106 208.294,266.249 193.639,269.052 191.224 C 269.960 190.441,274.293 186.380,278.680 182.200 C 288.435 172.904,293.774 168.193,297.893 165.246 C 299.620 164.011,302.376 161.902,304.017 160.559 C 305.657 159.217,308.363 157.204,310.028 156.087 C 311.693 154.970,313.310 153.750,313.620 153.376 C 313.931 153.002,316.040 151.081,318.307 149.107 C 327.005 141.535,327.347 135.427,319.987 119.137 C 317.349 113.297,316.143 108.928,313.712 96.400 C 313.606 95.850,312.015 92.289,310.177 88.487 C 304.830 77.425,304.207 77.167,296.104 82.660 M305.022 82.899 C 308.163 86.632,312.910 98.480,313.982 105.263 C 314.979 111.567,316.364 115.684,320.621 125.000 C 325.098 134.796,324.200 141.965,317.832 147.270 C 316.495 148.385,314.368 150.257,313.106 151.430 C 311.844 152.603,309.684 154.328,308.306 155.263 C 305.617 157.089,303.730 158.516,299.366 162.024 C 297.845 163.247,295.790 164.801,294.800 165.477 C 293.810 166.153,292.100 167.591,291.000 168.672 C 289.900 169.753,288.190 171.254,287.200 172.007 C 285.349 173.416,280.714 177.704,272.993 185.150 C 270.569 187.487,267.689 190.246,266.593 191.280 C 264.542 193.215,258.007 199.891,251.977 206.212 C 250.095 208.185,247.907 210.700,247.115 211.800 C 246.323 212.900,245.126 214.204,244.456 214.698 C 243.786 215.192,242.200 216.902,240.932 218.498 C 239.663 220.094,237.360 222.750,235.813 224.400 C 234.265 226.050,232.108 228.660,231.018 230.200 C 229.928 231.740,227.801 234.530,226.292 236.400 C 224.782 238.270,222.720 241.060,221.709 242.600 C 220.698 244.140,219.090 246.273,218.137 247.341 C 217.184 248.408,215.514 250.756,214.425 252.559 C 213.336 254.361,211.744 256.637,210.887 257.618 C 208.768 260.042,206.844 262.891,205.228 266.000 C 203.671 268.996,202.763 270.382,200.940 272.551 C 200.223 273.404,198.876 275.563,197.946 277.350 C 196.453 280.221,193.877 284.240,193.171 284.800 C 192.543 285.299,190.779 288.539,189.134 292.216 C 188.146 294.424,186.238 297.850,184.895 299.829 C 183.551 301.807,181.475 305.490,180.281 308.013 C 179.088 310.536,177.585 313.251,176.941 314.047 C 176.298 314.843,174.722 317.119,173.440 319.104 C 170.438 323.752,168.020 324.747,164.315 322.859 C 162.844 322.109,154.407 313.644,151.100 309.600 C 150.110 308.390,148.603 306.769,147.750 305.999 C 146.898 305.228,145.660 303.889,145.000 303.024 C 143.671 301.281,141.764 299.043,139.530 296.605 C 138.721 295.722,137.174 293.830,136.092 292.400 C 135.010 290.970,133.237 288.810,132.153 287.600 C 131.069 286.390,129.434 284.410,128.518 283.200 C 127.603 281.990,125.832 279.830,124.583 278.400 C 123.333 276.970,120.948 274.090,119.281 272.000 C 117.615 269.910,115.148 267.030,113.799 265.600 C 112.451 264.170,110.698 262.100,109.906 261.000 C 109.113 259.900,107.799 258.370,106.987 257.600 C 106.175 256.830,104.515 254.940,103.299 253.400 C 100.874 250.329,95.641 244.770,91.634 241.009 C 84.134 233.967,82.033 232.069,80.332 230.797 C 77.907 228.983,76.634 226.986,76.000 223.999 C 75.457 221.443,75.532 220.722,77.560 209.000 C 77.979 206.580,78.434 203.886,78.572 203.012 C 79.998 193.999,84.101 188.385,88.061 190.025 C 90.192 190.908,95.102 195.120,97.493 198.117 C 98.727 199.663,100.536 201.755,101.513 202.764 C 102.490 203.774,104.281 205.950,105.495 207.600 C 106.708 209.250,108.296 211.230,109.025 212.000 C 109.754 212.770,112.116 215.578,114.275 218.239 C 118.892 223.932,122.647 228.393,126.829 233.152 C 128.495 235.049,130.639 237.680,131.594 239.000 C 132.548 240.320,134.260 242.480,135.398 243.800 C 136.536 245.120,138.006 247.190,138.665 248.400 C 140.290 251.384,141.718 253.616,143.873 256.540 C 144.870 257.893,146.228 260.080,146.890 261.400 C 151.624 270.842,162.968 272.697,168.226 264.889 C 173.869 256.508,176.380 252.475,177.743 249.600 C 178.630 247.730,180.544 244.490,181.996 242.400 C 183.449 240.310,185.499 236.710,186.552 234.400 C 187.605 232.090,189.426 228.760,190.600 227.000 C 191.773 225.240,193.670 221.820,194.815 219.400 C 195.960 216.980,197.841 213.560,198.995 211.800 C 200.149 210.040,201.849 207.095,202.774 205.255 C 203.698 203.416,205.546 200.266,206.881 198.255 C 208.216 196.245,210.067 192.980,210.995 191.000 C 211.923 189.020,213.384 186.461,214.241 185.314 C 216.855 181.816,218.349 179.576,220.853 175.400 C 222.173 173.200,223.959 170.500,224.822 169.400 C 225.686 168.300,226.967 166.320,227.669 165.000 C 228.371 163.680,230.087 161.193,231.484 159.474 C 232.880 157.755,234.495 155.595,235.071 154.674 C 237.798 150.321,239.624 147.647,240.978 146.027 C 241.790 145.055,243.343 142.806,244.429 141.030 C 245.515 139.253,247.472 136.566,248.777 135.058 C 250.081 133.550,251.651 131.570,252.265 130.658 C 252.879 129.746,254.752 127.380,256.428 125.400 C 258.103 123.420,260.325 120.630,261.366 119.200 C 267.991 110.093,287.262 90.739,294.623 85.800 C 296.590 84.480,298.290 83.310,298.400 83.200 C 300.336 81.264,303.524 81.119,305.022 82.899 " stroke="none" fill="#2c845c" fill-rule="evenodd"></path><path id="path5" d="M299.800 82.311 C 299.140 82.690,298.510 83.090,298.400 83.200 C 298.290 83.310,296.590 84.480,294.623 85.800 C 287.262 90.739,267.991 110.093,261.366 119.200 C 260.325 120.630,258.103 123.420,256.428 125.400 C 254.752 127.380,252.879 129.746,252.265 130.658 C 251.651 131.570,250.081 133.550,248.777 135.058 C 247.472 136.566,245.515 139.253,244.429 141.030 C 243.343 142.806,241.790 145.055,240.978 146.027 C 239.624 147.647,237.798 150.321,235.071 154.674 C 234.495 155.595,232.880 157.755,231.484 159.474 C 230.087 161.193,228.371 163.680,227.669 165.000 C 226.967 166.320,225.686 168.300,224.822 169.400 C 223.959 170.500,222.173 173.200,220.853 175.400 C 218.349 179.576,216.855 181.816,214.241 185.314 C 213.384 186.461,211.923 189.020,210.995 191.000 C 210.067 192.980,208.216 196.245,206.881 198.255 C 205.546 200.266,203.698 203.416,202.774 205.255 C 201.849 207.095,200.149 210.040,198.995 211.800 C 197.841 213.560,195.960 216.980,194.815 219.400 C 193.670 221.820,191.773 225.240,190.600 227.000 C 189.426 228.760,187.605 232.090,186.552 234.400 C 185.499 236.710,183.449 240.310,181.996 242.400 C 180.544 244.490,178.630 247.730,177.743 249.600 C 176.380 252.475,173.869 256.508,168.226 264.889 C 162.968 272.697,151.624 270.842,146.890 261.400 C 146.228 260.080,144.870 257.893,143.873 256.540 C 141.718 253.616,140.290 251.384,138.665 248.400 C 138.006 247.190,136.536 245.120,135.398 243.800 C 134.260 242.480,132.548 240.320,131.594 239.000 C 130.639 237.680,128.495 235.049,126.829 233.152 C 122.647 228.393,118.892 223.932,114.275 218.239 C 112.116 215.578,109.754 212.770,109.025 212.000 C 108.296 211.230,106.708 209.250,105.495 207.600 C 104.281 205.950,102.490 203.774,101.513 202.764 C 100.536 201.755,98.727 199.663,97.493 198.117 C 95.102 195.120,90.192 190.908,88.061 190.025 C 84.101 188.385,79.998 193.999,78.572 203.012 C 78.434 203.886,77.979 206.580,77.560 209.000 C 75.532 220.722,75.457 221.443,76.000 223.999 C 76.634 226.986,77.907 228.983,80.332 230.797 C 82.033 232.069,84.134 233.967,91.634 241.009 C 95.641 244.770,100.874 250.329,103.299 253.400 C 104.515 254.940,106.175 256.830,106.987 257.600 C 107.799 258.370,109.113 259.900,109.906 261.000 C 110.698 262.100,112.451 264.170,113.799 265.600 C 115.148 267.030,117.615 269.910,119.281 272.000 C 120.948 274.090,123.333 276.970,124.583 278.400 C 125.832 279.830,127.603 281.990,128.518 283.200 C 129.434 284.410,131.069 286.390,132.153 287.600 C 133.237 288.810,135.010 290.970,136.092 292.400 C 137.174 293.830,138.721 295.722,139.530 296.605 C 141.764 299.043,143.671 301.281,145.000 303.024 C 145.660 303.889,146.898 305.228,147.750 305.999 C 148.603 306.769,150.110 308.390,151.100 309.600 C 154.407 313.644,162.844 322.109,164.315 322.859 C 168.020 324.747,170.438 323.752,173.440 319.104 C 174.722 317.119,176.298 314.843,176.941 314.047 C 177.585 313.251,179.088 310.536,180.281 308.013 C 181.475 305.490,183.551 301.807,184.895 299.829 C 186.238 297.850,188.146 294.424,189.134 292.216 C 190.779 288.539,192.543 285.299,193.171 284.800 C 193.877 284.240,196.453 280.221,197.946 277.350 C 198.876 275.563,200.223 273.404,200.940 272.551 C 202.763 270.382,203.671 268.996,205.228 266.000 C 206.844 262.891,208.768 260.042,210.887 257.618 C 211.744 256.637,213.336 254.361,214.425 252.559 C 215.514 250.756,217.184 248.408,218.137 247.341 C 219.090 246.273,220.698 244.140,221.709 242.600 C 222.720 241.060,224.782 238.270,226.292 236.400 C 227.801 234.530,229.928 231.740,231.018 230.200 C 232.108 228.660,234.265 226.050,235.813 224.400 C 237.360 222.750,239.663 220.094,240.932 218.498 C 242.200 216.902,243.786 215.192,244.456 214.698 C 245.126 214.204,246.323 212.900,247.115 211.800 C 247.907 210.700,250.095 208.185,251.977 206.212 C 258.007 199.891,264.542 193.215,266.593 191.280 C 267.689 190.246,270.569 187.487,272.993 185.150 C 280.714 177.704,285.349 173.416,287.200 172.007 C 288.190 171.254,289.900 169.753,291.000 168.672 C 292.100 167.591,293.810 166.153,294.800 165.477 C 295.790 164.801,297.845 163.247,299.366 162.024 C 303.730 158.516,305.617 157.089,308.306 155.263 C 309.684 154.328,311.844 152.603,313.106 151.430 C 314.368 150.257,316.495 148.385,317.832 147.270 C 324.200 141.965,325.098 134.796,320.621 125.000 C 316.364 115.684,314.979 111.567,313.982 105.263 C 312.910 98.480,308.163 86.632,305.022 82.899 C 303.745 81.382,301.799 81.162,299.800 82.311 M303.214 86.609 C 303.455 86.757,304.422 88.526,305.363 90.539 C 306.305 92.553,307.627 95.370,308.301 96.800 C 309.583 99.519,310.302 101.565,310.646 103.470 C 310.822 104.442,313.025 115.084,313.406 116.800 C 313.747 118.336,314.898 121.022,316.942 125.051 C 321.716 134.462,321.548 139.356,316.282 144.254 C 312.237 148.017,308.728 150.985,306.077 152.886 C 302.009 155.804,301.241 156.403,298.206 159.019 C 296.663 160.349,294.500 162.044,293.400 162.784 C 292.300 163.524,289.870 165.500,288.000 167.175 C 286.130 168.850,283.970 170.736,283.200 171.365 C 282.430 171.994,278.830 175.337,275.200 178.793 C 271.570 182.249,267.426 186.140,265.990 187.438 C 261.603 191.409,249.085 204.579,243.866 210.715 C 242.143 212.742,240.608 214.400,240.457 214.400 C 240.305 214.400,239.376 215.505,238.393 216.855 C 237.410 218.205,235.476 220.410,234.095 221.755 C 232.714 223.100,231.092 224.920,230.492 225.800 C 229.891 226.680,229.269 227.580,229.110 227.800 C 228.821 228.198,224.196 233.815,222.798 235.466 C 222.395 235.942,221.886 236.666,221.668 237.074 C 221.449 237.482,219.307 240.429,216.907 243.622 C 214.507 246.816,212.287 250.007,211.974 250.714 C 211.661 251.421,211.310 252.000,211.193 252.000 C 211.077 252.000,210.643 252.630,210.228 253.400 C 209.813 254.170,209.344 254.800,209.185 254.800 C 208.787 254.800,205.880 258.695,205.005 260.402 C 204.206 261.959,199.236 269.687,198.832 270.000 C 198.476 270.276,196.386 273.710,194.815 276.600 C 194.098 277.920,192.539 280.301,191.352 281.891 C 190.165 283.482,188.128 287.032,186.824 289.781 C 185.521 292.530,183.651 295.909,182.669 297.290 C 181.687 298.670,180.063 301.510,179.062 303.600 C 176.987 307.929,175.537 310.539,175.100 310.733 C 174.935 310.807,174.800 311.122,174.800 311.433 C 174.800 311.745,174.620 312.000,174.400 312.000 C 174.180 312.000,174.000 312.255,174.000 312.567 C 174.000 312.878,173.856 313.193,173.679 313.267 C 173.502 313.340,172.682 314.520,171.857 315.888 C 168.101 322.116,166.383 321.700,158.000 312.529 C 155.030 309.280,151.520 305.516,150.200 304.164 C 148.880 302.812,147.260 301.012,146.600 300.164 C 143.917 296.717,141.814 294.155,141.030 293.376 C 140.573 292.923,139.210 291.246,138.000 289.651 C 136.790 288.055,134.950 285.816,133.911 284.675 C 132.872 283.534,132.017 282.465,132.011 282.300 C 132.005 282.135,131.685 281.683,131.300 281.296 C 130.915 280.909,129.447 279.154,128.038 277.396 C 126.628 275.638,124.918 273.642,124.238 272.961 C 122.409 271.130,121.144 269.637,119.525 267.400 C 118.729 266.300,117.385 264.767,116.539 263.992 C 115.693 263.218,114.550 261.971,114.000 261.221 C 112.504 259.182,111.224 257.662,108.937 255.211 C 107.803 253.995,105.964 251.859,104.850 250.465 C 102.950 248.085,94.157 238.898,91.158 236.160 C 89.224 234.393,85.365 230.960,82.478 228.437 C 78.482 224.944,78.285 220.325,81.415 203.481 C 82.770 196.188,85.968 193.138,89.871 195.416 C 91.699 196.483,96.400 200.983,96.400 201.666 C 96.400 201.841,97.525 203.178,98.900 204.636 C 100.275 206.095,102.570 208.857,104.000 210.774 C 106.373 213.956,108.902 217.074,111.013 219.424 C 111.460 219.922,112.270 220.914,112.813 221.630 C 114.311 223.604,116.355 226.038,118.883 228.855 C 124.335 234.932,127.611 238.809,129.789 241.760 C 131.072 243.499,132.409 245.221,132.760 245.588 C 133.813 246.686,134.993 248.444,137.759 253.038 C 139.203 255.437,140.921 258.120,141.575 259.000 C 142.230 259.880,143.766 262.232,144.988 264.227 C 149.196 271.092,153.430 273.383,160.557 272.651 C 164.657 272.230,171.600 267.750,171.600 265.526 C 171.600 265.368,172.455 264.037,173.500 262.568 C 174.545 261.100,175.900 259.188,176.511 258.319 C 177.122 257.451,178.692 254.639,180.000 252.070 C 181.309 249.502,183.276 246.173,184.372 244.672 C 185.468 243.172,187.386 239.842,188.635 237.272 C 189.884 234.703,191.728 231.340,192.732 229.800 C 193.737 228.260,195.595 224.902,196.863 222.338 C 198.130 219.775,199.959 216.445,200.929 214.938 C 201.898 213.432,203.737 210.130,205.015 207.600 C 206.293 205.070,207.448 202.910,207.580 202.800 C 208.878 201.722,213.600 193.726,213.600 192.606 C 213.600 192.102,216.472 187.481,217.608 186.158 C 218.484 185.137,220.658 181.820,224.911 175.017 C 225.180 174.586,225.594 174.019,225.832 173.756 C 226.069 173.494,227.059 171.988,228.032 170.409 C 230.881 165.785,233.463 161.996,235.808 159.000 C 237.014 157.460,238.000 155.975,238.000 155.700 C 238.000 155.425,238.180 155.200,238.400 155.200 C 238.620 155.200,238.800 154.945,238.800 154.633 C 238.800 154.322,238.938 154.007,239.107 153.933 C 239.277 153.860,240.305 152.540,241.393 151.000 C 242.481 149.460,243.529 148.020,243.722 147.800 C 243.915 147.580,245.452 145.392,247.137 142.939 C 251.750 136.220,256.320 130.158,259.000 127.202 C 260.320 125.746,261.670 124.143,262.000 123.640 C 262.330 123.137,262.870 122.395,263.200 121.992 C 263.530 121.588,264.340 120.583,265.000 119.758 C 265.660 118.932,266.560 117.887,267.000 117.434 C 267.440 116.981,268.700 115.522,269.800 114.192 C 275.641 107.130,288.532 94.568,296.289 88.379 C 298.618 86.521,301.769 85.715,303.214 86.609 " stroke="none" fill="#2c9464" fill-rule="evenodd"></path><path id="path6" d="" stroke="none" fill="#38b868" fill-rule="evenodd"></path><path id="path7" d="" stroke="none" fill="#38b868" fill-rule="evenodd"></path><path id="path8" d="" stroke="none" fill="#38b868" fill-rule="evenodd"></path></g></svg>