<svg id="svg" version="1.1" xmlns="http://www.w3.org/2000/svg" xmlns:xlink="http://www.w3.org/1999/xlink" width="400" height="400" viewBox="0, 0, 400,400"><g id="svgg"><path id="path0" d="M74.953 95.338 C 73.828 95.626,72.047 96.365,70.996 96.981 C 68.109 98.673,38.101 128.854,36.684 131.489 C 34.484 135.584,34.451 144.120,36.618 148.473 C 37.783 150.812,185.085 298.753,189.674 302.193 C 194.857 306.077,204.683 306.298,209.922 302.649 C 213.305 300.292,362.619 150.260,363.572 148.259 C 365.578 144.049,365.549 135.868,363.513 131.649 C 361.891 128.287,331.710 98.302,328.198 96.563 C 323.348 94.161,316.095 94.235,311.400 96.735 C 309.908 97.530,295.662 111.532,255.271 151.900 C 210.411 196.737,200.960 206.000,200.075 206.000 C 199.190 206.000,189.683 196.688,144.603 151.665 C 82.631 89.769,88.764 95.242,81.048 94.962 C 78.538 94.870,76.223 95.013,74.953 95.338 M84.381 113.300 C 86.474 114.410,94.897 122.657,141.916 169.631 C 201.701 229.360,198.544 226.424,201.679 225.198 C 202.548 224.858,222.033 205.684,258.600 169.186 C 311.932 115.956,314.294 113.657,316.515 112.846 C 322.319 110.725,323.859 111.608,336.481 124.296 C 348.741 136.620,349.800 138.632,346.991 144.268 C 345.507 147.246,207.247 285.506,204.270 286.990 C 201.579 288.331,198.927 288.327,196.000 286.979 C 192.580 285.403,54.882 147.764,53.160 144.200 C 50.330 138.343,51.308 136.518,64.118 123.753 C 76.758 111.157,78.573 110.220,84.381 113.300 M358.225 128.900 L 359.400 130.200 358.100 129.025 C 357.385 128.379,356.800 127.794,356.800 127.725 C 356.800 127.416,357.130 127.688,358.225 128.900 M37.076 140.700 C 36.975 141.085,36.893 140.770,36.893 140.000 C 36.893 139.230,36.975 138.915,37.076 139.300 C 37.176 139.685,37.176 140.315,37.076 140.700 M363.076 140.700 C 362.975 141.085,362.893 140.770,362.893 140.000 C 362.893 139.230,362.975 138.915,363.076 139.300 C 363.176 139.685,363.176 140.315,363.076 140.700 M201.100 303.087 C 200.495 303.178,199.505 303.178,198.900 303.087 C 198.295 302.995,198.790 302.920,200.000 302.920 C 201.210 302.920,201.705 302.995,201.100 303.087 " stroke="none" fill="#1e272e" fill-rule="evenodd"></path><path id="path1" d="M76.800 116.878 C 74.272 118.110,58.064 134.335,56.873 136.826 C 55.792 139.087,55.779 140.869,56.826 143.200 C 57.933 145.665,194.068 281.860,196.770 283.206 C 199.244 284.438,202.018 284.183,204.421 282.503 C 207.398 280.422,342.593 144.794,343.340 143.140 C 345.306 138.788,344.225 136.912,333.656 126.344 C 324.731 117.419,322.878 116.000,320.142 116.000 C 316.666 116.000,317.691 115.034,259.400 173.224 C 201.022 231.501,203.016 229.615,199.800 229.589 C 197.039 229.566,196.331 228.891,140.200 172.821 C 102.325 134.986,84.471 117.416,83.316 116.840 C 81.157 115.763,79.063 115.775,76.800 116.878 M82.920 119.442 C 83.624 119.795,109.040 144.880,139.400 175.185 C 197.943 233.624,196.221 232.010,200.026 231.991 C 203.910 231.972,201.991 233.769,260.000 175.826 C 290.030 145.830,315.392 120.728,316.360 120.044 C 320.499 117.118,322.371 118.089,332.690 128.508 C 341.672 137.578,342.834 139.793,340.393 143.200 C 338.402 145.979,203.769 280.142,202.322 280.791 C 200.395 281.653,198.670 281.486,196.817 280.256 C 194.994 279.046,60.522 144.593,59.541 143.000 C 57.345 139.431,58.820 136.841,68.456 127.345 C 77.378 118.551,79.180 117.566,82.920 119.442 M84.279 154.938 C 83.663 156.544,86.215 159.299,114.057 187.074 C 143.221 216.168,144.052 216.919,145.493 215.478 C 146.846 214.125,145.464 212.593,118.236 185.258 C 86.341 153.238,85.291 152.301,84.279 154.938 M269.281 198.100 C 245.227 222.135,225.288 242.286,224.973 242.880 C 223.684 245.309,224.626 246.418,227.101 245.384 C 229.055 244.567,314.869 158.765,315.590 156.907 C 316.276 155.137,315.903 154.400,314.320 154.400 C 313.122 154.400,309.442 157.971,269.281 198.100 M172.279 242.938 C 171.650 244.579,177.217 251.116,179.795 251.763 C 181.174 252.109,182.110 251.385,181.758 250.244 C 180.571 246.386,173.151 240.667,172.279 242.938 " stroke="none" fill="#3f8474" fill-rule="evenodd"></path><path id="path2" d="M78.600 125.422 C 76.921 126.284,66.134 137.109,65.389 138.679 C 64.484 140.586,65.253 141.993,69.334 145.900 C 73.609 149.993,74.290 150.141,77.063 147.585 C 79.992 144.885,83.650 144.577,88.000 146.664 C 91.550 148.367,151.767 208.725,153.546 212.364 C 155.631 216.627,155.209 220.216,152.239 223.504 C 149.969 226.017,150.162 226.594,154.900 231.467 C 161.338 238.088,162.032 238.379,164.965 235.675 C 169.899 231.127,174.734 232.495,183.000 240.776 C 188.801 246.588,190.247 248.745,190.831 252.459 C 191.051 253.857,191.321 255.300,191.432 255.667 C 191.646 256.377,193.553 257.200,194.987 257.200 C 198.670 257.200,203.145 260.185,205.480 264.200 C 207.922 268.396,208.395 268.299,214.343 262.393 C 220.203 256.575,220.340 256.219,217.833 253.282 C 214.906 249.852,214.507 246.796,216.435 242.548 C 217.688 239.785,309.629 147.759,312.454 146.439 C 316.652 144.478,320.204 144.975,323.600 147.997 C 326.152 150.269,326.646 150.085,331.711 144.985 C 336.598 140.063,336.616 140.137,328.652 132.068 C 322.147 125.477,321.031 124.638,319.303 125.040 C 318.537 125.218,301.405 142.061,263.200 180.195 C 201.268 242.013,206.365 237.400,200.000 237.400 C 193.699 237.400,198.664 241.895,137.000 180.367 C 106.860 150.294,81.807 125.488,81.326 125.244 C 80.202 124.673,80.036 124.684,78.600 125.422 " stroke="none" fill="#54bca4" fill-rule="evenodd"></path><path id="path3" d="M77.178 121.947 C 74.719 123.533,61.865 136.706,61.228 138.293 C 60.113 141.069,60.693 142.028,67.733 149.057 C 77.297 158.607,79.397 159.724,79.672 155.404 C 80.036 149.692,83.673 148.393,88.679 152.187 C 92.521 155.098,148.191 211.154,149.157 213.084 C 151.370 217.505,149.495 220.400,144.420 220.400 C 140.020 220.400,142.066 223.597,154.056 235.451 C 165.160 246.429,167.600 247.930,167.600 243.780 C 167.600 236.348,172.807 236.089,180.011 243.162 C 188.029 251.035,188.195 256.400,180.420 256.400 C 177.339 256.400,177.290 256.863,179.964 260.671 C 182.220 263.884,186.098 267.560,189.000 269.237 C 191.855 270.887,192.027 270.816,191.769 268.100 C 191.253 262.678,195.498 260.228,199.429 263.679 C 204.100 267.780,202.400 272.604,196.371 272.357 C 193.533 272.242,193.357 272.370,194.178 273.957 C 195.870 277.230,198.802 279.439,200.856 278.988 C 203.372 278.435,223.219 259.267,226.749 253.981 C 229.004 250.604,228.971 250.516,225.358 250.334 C 220.537 250.090,218.962 247.750,220.826 243.600 C 221.893 241.226,309.892 152.985,313.000 151.173 C 317.219 148.714,320.400 150.513,320.400 155.360 C 320.400 159.808,323.068 158.490,332.065 149.600 C 341.882 139.899,341.933 140.365,329.740 128.335 C 321.971 120.669,321.088 120.120,318.293 121.215 C 317.462 121.541,297.262 141.418,261.800 176.803 C 201.367 237.107,204.944 233.808,200.000 233.791 C 195.104 233.773,198.256 236.684,138.000 176.542 C 107.075 145.675,82.507 121.461,81.874 121.223 C 80.103 120.558,79.090 120.714,77.178 121.947 M81.326 125.244 C 81.807 125.488,106.860 150.294,137.000 180.367 C 198.664 241.895,193.699 237.400,200.000 237.400 C 206.365 237.400,201.268 242.013,263.200 180.195 C 301.405 142.061,318.537 125.218,319.303 125.040 C 321.031 124.638,322.147 125.477,328.652 132.068 C 336.616 140.137,336.598 140.063,331.711 144.985 C 326.646 150.085,326.152 150.269,323.600 147.997 C 320.204 144.975,316.652 144.478,312.454 146.439 C 309.629 147.759,217.688 239.785,216.435 242.548 C 214.507 246.796,214.906 249.852,217.833 253.282 C 220.340 256.219,220.203 256.575,214.343 262.393 C 208.395 268.299,207.922 268.396,205.480 264.200 C 203.145 260.185,198.670 257.200,194.987 257.200 C 193.553 257.200,191.646 256.377,191.432 255.667 C 191.321 255.300,191.051 253.857,190.831 252.459 C 190.247 248.745,188.801 246.588,183.000 240.776 C 174.734 232.495,169.899 231.127,164.965 235.675 C 162.032 238.379,161.338 238.088,154.900 231.467 C 150.162 226.594,149.969 226.017,152.239 223.504 C 155.209 220.216,155.631 216.627,153.546 212.364 C 151.767 208.725,91.550 148.367,88.000 146.664 C 83.650 144.577,79.992 144.885,77.063 147.585 C 74.290 150.141,73.609 149.993,69.334 145.900 C 63.373 140.193,63.410 139.968,71.701 131.713 C 78.364 125.078,79.499 124.315,81.326 125.244 " stroke="none" fill="#4cb297" fill-rule="evenodd"></path><path id="path4" d="M76.360 120.045 C 73.861 121.812,62.650 132.948,60.556 135.744 C 58.534 138.443,58.201 140.823,59.541 143.000 C 60.522 144.593,194.994 279.046,196.817 280.256 C 198.670 281.486,200.395 281.653,202.322 280.791 C 203.769 280.142,338.402 145.979,340.393 143.200 C 342.834 139.793,341.672 137.578,332.690 128.508 C 322.371 118.089,320.499 117.118,316.360 120.044 C 315.392 120.728,290.030 145.830,260.000 175.826 C 201.991 233.769,203.910 231.972,200.026 231.991 C 196.221 232.010,197.943 233.624,139.400 175.185 C 109.040 144.880,83.624 119.795,82.920 119.442 C 80.812 118.385,78.393 118.607,76.360 120.045 M81.874 121.223 C 82.507 121.461,107.075 145.675,138.000 176.542 C 198.256 236.684,195.104 233.773,200.000 233.791 C 204.944 233.808,201.367 237.107,261.800 176.803 C 297.262 141.418,317.462 121.541,318.293 121.215 C 321.088 120.120,321.971 120.669,329.740 128.335 C 341.933 140.365,341.882 139.899,332.065 149.600 C 323.068 158.490,320.400 159.808,320.400 155.360 C 320.400 150.513,317.219 148.714,313.000 151.173 C 309.892 152.985,221.893 241.226,220.826 243.600 C 218.962 247.750,220.537 250.090,225.358 250.334 C 228.971 250.516,229.004 250.604,226.749 253.981 C 223.219 259.267,203.372 278.435,200.856 278.988 C 198.802 279.439,195.870 277.230,194.178 273.957 C 193.357 272.370,193.533 272.242,196.371 272.357 C 202.400 272.604,204.100 267.780,199.429 263.679 C 195.498 260.228,191.253 262.678,191.769 268.100 C 192.027 270.816,191.855 270.887,189.000 269.237 C 186.098 267.560,182.220 263.884,179.964 260.671 C 177.290 256.863,177.339 256.400,180.420 256.400 C 188.195 256.400,188.029 251.035,180.011 243.162 C 172.807 236.089,167.600 236.348,167.600 243.780 C 167.600 247.930,165.160 246.429,154.056 235.451 C 142.066 223.597,140.020 220.400,144.420 220.400 C 149.495 220.400,151.370 217.505,149.157 213.084 C 148.191 211.154,92.521 155.098,88.679 152.187 C 83.673 148.393,80.036 149.692,79.672 155.404 C 79.397 159.724,77.297 158.607,67.733 149.057 C 58.499 139.837,58.477 140.331,68.574 130.047 C 77.321 121.138,78.885 120.100,81.874 121.223 M89.079 156.358 C 93.864 160.396,145.070 212.192,145.596 213.526 C 146.280 215.261,145.477 216.253,143.734 215.826 C 142.158 215.441,85.808 159.236,84.794 157.038 C 83.267 153.731,85.539 153.371,89.079 156.358 M315.858 155.007 C 315.986 155.341,315.865 156.196,315.590 156.907 C 314.869 158.765,229.055 244.567,227.101 245.384 C 224.626 246.418,223.684 245.309,224.973 242.880 C 226.461 240.074,312.976 154.400,314.320 154.400 C 315.118 154.400,315.716 154.636,315.858 155.007 M176.667 244.052 C 180.181 246.763,182.617 250.590,181.447 251.561 C 180.470 252.372,178.831 251.602,176.095 249.046 C 170.705 244.012,171.185 239.822,176.667 244.052 " stroke="none" fill="#448c7c" fill-rule="evenodd"></path><path id="path5" d="M76.400 112.873 C 73.172 114.094,54.574 132.578,53.018 136.111 C 51.676 139.159,51.712 141.203,53.160 144.200 C 54.882 147.764,192.580 285.403,196.000 286.979 C 198.927 288.327,201.579 288.331,204.270 286.990 C 207.247 285.506,345.507 147.246,346.991 144.268 C 349.800 138.632,348.741 136.620,336.481 124.296 C 323.859 111.608,322.319 110.725,316.515 112.846 C 314.294 113.657,311.932 115.956,258.600 169.186 C 222.033 205.684,202.548 224.858,201.679 225.198 C 198.544 226.424,201.701 229.360,141.916 169.631 C 78.040 105.815,83.214 110.297,76.400 112.873 M83.316 116.840 C 84.471 117.416,102.325 134.986,140.200 172.821 C 196.331 228.891,197.039 229.566,199.800 229.589 C 203.016 229.615,201.022 231.501,259.400 173.224 C 317.691 115.034,316.666 116.000,320.142 116.000 C 322.878 116.000,324.731 117.419,333.656 126.344 C 344.225 136.912,345.306 138.788,343.340 143.140 C 342.593 144.794,207.398 280.422,204.421 282.503 C 202.018 284.183,199.244 284.438,196.770 283.206 C 194.068 281.860,57.933 145.665,56.826 143.200 C 54.778 138.640,55.662 137.083,66.373 126.377 C 77.085 115.671,78.911 114.643,83.316 116.840 M356.800 127.725 C 356.800 127.794,357.385 128.379,358.100 129.025 L 359.400 130.200 358.225 128.900 C 357.130 127.688,356.800 127.416,356.800 127.725 M36.893 140.000 C 36.893 140.770,36.975 141.085,37.076 140.700 C 37.176 140.315,37.176 139.685,37.076 139.300 C 36.975 138.915,36.893 139.230,36.893 140.000 M362.893 140.000 C 362.893 140.770,362.975 141.085,363.076 140.700 C 363.176 140.315,363.176 139.685,363.076 139.300 C 362.975 138.915,362.893 139.230,362.893 140.000 M198.900 303.087 C 199.505 303.178,200.495 303.178,201.100 303.087 C 201.705 302.995,201.210 302.920,200.000 302.920 C 198.790 302.920,198.295 302.995,198.900 303.087 " stroke="none" fill="#2c444c" fill-rule="evenodd"></path><path id="path6" d="" stroke="none" fill="#54c090" fill-rule="evenodd"></path><path id="path7" d="" stroke="none" fill="#54c090" fill-rule="evenodd"></path><path id="path8" d="" stroke="none" fill="#54c090" fill-rule="evenodd"></path></g></svg>