<svg id="svg" version="1.1" xmlns="http://www.w3.org/2000/svg" xmlns:xlink="http://www.w3.org/1999/xlink" width="400" height="400" viewBox="0, 0, 400,400"><g id="svgg"><path id="path0" d="M161.033 14.394 C 159.311 14.726,158.400 15.654,158.400 17.076 C 158.400 17.998,158.389 18.000,152.675 18.000 C 146.101 18.000,143.889 18.649,143.070 20.819 L 142.634 21.975 138.417 22.087 C 134.472 22.193,134.192 22.254,134.079 23.045 C 133.772 25.197,132.146 25.925,127.332 26.068 C 122.279 26.217,122.410 26.160,122.114 28.367 L 121.895 30.000 118.576 30.000 C 114.783 30.000,114.000 30.443,114.000 32.589 L 114.000 33.920 110.433 34.060 C 106.359 34.220,106.405 34.196,106.120 36.321 L 105.907 37.909 103.853 38.081 C 101.093 38.314,99.517 39.135,98.828 40.700 C 98.316 41.864,98.083 42.000,96.608 42.000 C 94.569 42.000,94.000 42.536,94.000 44.458 L 94.000 45.956 92.104 46.078 C 90.573 46.176,90.180 46.354,90.065 47.000 C 89.741 48.820,88.094 49.901,85.383 50.073 C 82.386 50.264,82.397 50.257,82.114 52.367 C 81.903 53.941,81.842 54.000,80.427 54.000 C 78.569 54.000,78.000 54.576,78.000 56.458 L 78.000 57.956 76.100 58.078 L 74.200 58.200 74.079 60.079 L 73.958 61.958 72.079 62.079 L 70.200 62.200 70.079 64.079 L 69.958 65.958 68.079 66.079 L 66.200 66.200 66.079 68.079 L 65.958 69.958 64.079 70.079 L 62.200 70.200 62.079 72.079 L 61.958 73.958 60.079 74.079 L 58.200 74.200 58.078 76.100 L 57.956 78.000 56.458 78.000 C 54.576 78.000,54.000 78.569,54.000 80.427 C 54.000 81.842,53.941 81.903,52.367 82.114 C 50.319 82.388,50.322 82.385,50.098 84.720 C 49.937 86.400,49.762 86.714,48.788 87.082 C 47.405 87.604,46.000 90.322,46.000 92.475 C 46.000 93.974,45.974 94.000,44.480 94.000 C 42.536 94.000,42.000 94.564,42.000 96.608 C 42.000 98.083,41.864 98.316,40.700 98.828 C 39.135 99.517,38.314 101.093,38.081 103.853 L 37.909 105.907 36.321 106.120 C 34.196 106.405,34.220 106.359,34.060 110.433 L 33.920 114.000 32.589 114.000 C 30.443 114.000,30.000 114.783,30.000 118.576 L 30.000 121.895 28.367 122.114 C 26.160 122.410,26.217 122.279,26.068 127.332 C 25.925 132.146,25.197 133.772,23.045 134.079 C 22.258 134.192,22.192 134.476,22.087 138.234 L 21.973 142.267 20.687 142.834 C 18.573 143.764,18.216 145.030,18.072 152.100 C 17.947 158.320,17.934 158.400,17.049 158.400 C 13.993 158.400,14.035 157.827,14.035 200.000 C 14.035 242.173,13.993 241.600,17.049 241.600 C 17.934 241.600,17.947 241.680,18.072 247.900 C 18.216 254.970,18.573 256.236,20.687 257.166 L 21.973 257.733 22.087 261.766 C 22.192 265.524,22.258 265.808,23.045 265.921 C 25.197 266.228,25.925 267.854,26.068 272.668 C 26.217 277.721,26.160 277.590,28.367 277.886 L 30.000 278.105 30.000 281.424 C 30.000 285.217,30.443 286.000,32.589 286.000 L 33.920 286.000 34.060 289.567 C 34.220 293.651,34.190 293.594,36.367 293.886 C 37.942 294.098,38.000 294.157,38.000 295.578 C 38.000 297.720,39.417 300.400,40.832 300.935 C 41.889 301.333,42.000 301.550,42.000 303.208 C 42.000 305.437,42.500 306.000,44.480 306.000 L 46.000 306.000 46.000 307.813 C 46.000 309.055,46.189 309.698,46.600 309.855 C 46.930 309.982,47.200 310.305,47.200 310.573 C 47.200 311.183,48.888 312.800,49.526 312.800 C 49.821 312.800,50.000 313.479,50.000 314.600 C 50.000 316.764,51.018 318.000,52.800 318.000 C 53.923 318.000,54.000 318.098,54.000 319.520 C 54.000 321.431,54.564 322.000,56.458 322.000 L 57.956 322.000 58.078 323.900 L 58.200 325.800 60.079 325.921 L 61.958 326.042 62.079 327.921 L 62.200 329.800 64.079 329.921 L 65.958 330.042 66.079 331.921 L 66.200 333.800 68.079 333.921 L 69.958 334.042 70.079 335.921 L 70.200 337.800 72.079 337.921 L 73.958 338.042 74.079 339.921 L 74.200 341.800 76.100 341.922 L 78.000 342.044 78.000 343.542 C 78.000 345.436,78.569 346.000,80.480 346.000 C 81.902 346.000,82.000 346.077,82.000 347.200 C 82.000 349.083,83.219 350.000,85.725 350.000 C 88.000 350.000,89.745 351.206,90.065 353.000 C 90.180 353.646,90.573 353.824,92.104 353.922 L 94.000 354.044 94.000 355.542 C 94.000 357.548,94.567 358.000,97.080 358.000 C 98.574 358.000,99.200 358.157,99.200 358.530 C 99.200 359.153,100.857 360.800,101.483 360.800 C 101.720 360.800,102.018 361.070,102.145 361.400 C 102.301 361.808,102.939 362.000,104.135 362.000 C 105.891 362.000,105.895 362.003,106.114 363.633 C 106.405 365.808,106.353 365.780,110.385 365.938 L 113.905 366.076 114.119 367.671 C 114.405 369.803,114.361 369.780,118.385 369.938 L 121.905 370.076 122.119 371.671 C 122.409 373.835,122.289 373.783,127.332 373.932 C 132.062 374.072,134.000 374.915,134.000 376.832 C 134.000 377.811,134.802 378.000,138.945 378.000 L 142.625 378.000 143.065 379.168 C 143.887 381.345,146.093 382.000,152.605 382.000 L 158.259 382.000 158.629 383.500 C 159.245 385.993,158.278 385.936,200.000 385.936 C 241.639 385.936,240.756 385.987,241.362 383.533 L 241.725 382.067 248.162 381.933 C 255.491 381.781,256.735 381.424,257.344 379.300 L 257.716 378.000 261.378 378.000 C 265.536 378.000,266.000 377.751,266.000 375.520 L 266.000 374.000 271.200 374.000 C 277.005 374.000,278.000 373.596,278.000 371.240 L 278.000 370.080 281.567 369.940 C 285.643 369.780,285.595 369.805,285.881 367.671 L 286.095 366.076 289.615 365.938 C 293.647 365.780,293.595 365.808,293.886 363.633 C 294.098 362.058,294.157 362.000,295.578 362.000 C 297.720 362.000,300.400 360.583,300.935 359.168 C 301.333 358.111,301.550 358.000,303.208 358.000 C 305.437 358.000,306.000 357.500,306.000 355.520 L 306.000 354.000 307.813 354.000 C 309.055 354.000,309.698 353.811,309.855 353.400 C 309.982 353.070,310.305 352.800,310.573 352.800 C 311.183 352.800,312.800 351.112,312.800 350.474 C 312.800 350.201,313.381 350.000,314.174 350.000 C 316.641 350.000,317.558 349.404,317.844 347.612 C 318.091 346.069,318.165 346.000,319.571 346.000 C 321.431 346.000,322.000 345.424,322.000 343.542 L 322.000 342.044 323.900 341.922 L 325.800 341.800 325.921 339.921 L 326.042 338.042 327.921 337.921 L 329.800 337.800 329.921 335.921 L 330.042 334.042 331.921 333.921 L 333.800 333.800 333.921 331.921 L 334.042 330.042 335.921 329.921 L 337.800 329.800 337.921 327.921 L 338.042 326.042 339.921 325.921 L 341.800 325.800 341.922 323.900 L 342.044 322.000 343.542 322.000 C 345.424 322.000,346.000 321.431,346.000 319.573 C 346.000 318.158,346.059 318.097,347.633 317.886 C 349.708 317.608,349.699 317.618,349.917 315.000 C 350.028 313.655,350.286 312.800,350.580 312.800 C 351.164 312.800,352.800 311.117,352.800 310.517 C 352.800 310.280,353.070 309.982,353.400 309.855 C 353.811 309.698,354.000 309.055,354.000 307.813 L 354.000 306.000 355.520 306.000 C 357.500 306.000,358.000 305.437,358.000 303.208 C 358.000 301.550,358.111 301.333,359.168 300.935 C 360.583 300.400,362.000 297.720,362.000 295.578 C 362.000 294.157,362.058 294.098,363.633 293.886 C 365.808 293.595,365.780 293.647,365.938 289.615 L 366.076 286.095 367.671 285.881 C 369.803 285.595,369.780 285.639,369.938 281.615 L 370.076 278.095 371.671 277.881 C 373.835 277.591,373.783 277.711,373.932 272.668 C 374.072 267.938,374.915 266.000,376.832 266.000 C 377.811 266.000,378.000 265.198,378.000 261.055 L 378.000 257.375 379.168 256.935 C 381.345 256.113,382.000 253.907,382.000 247.395 L 382.000 241.741 383.500 241.371 C 385.993 240.755,385.936 241.722,385.936 200.000 C 385.936 158.278,385.993 159.245,383.500 158.629 L 382.000 158.259 382.000 152.605 C 382.000 146.093,381.345 143.887,379.168 143.065 L 378.000 142.625 378.000 138.945 C 378.000 134.802,377.811 134.000,376.832 134.000 C 374.915 134.000,374.072 132.062,373.932 127.332 C 373.783 122.289,373.835 122.409,371.671 122.119 L 370.076 121.905 369.938 118.385 C 369.780 114.361,369.803 114.405,367.671 114.119 L 366.076 113.905 365.938 110.385 C 365.780 106.363,365.802 106.405,363.679 106.120 L 362.091 105.907 361.919 103.853 C 361.686 101.093,360.865 99.517,359.300 98.828 C 358.136 98.316,358.000 98.083,358.000 96.608 C 358.000 94.564,357.464 94.000,355.520 94.000 L 354.000 94.000 354.000 92.187 C 354.000 90.945,353.811 90.302,353.400 90.145 C 353.070 90.018,352.800 89.695,352.800 89.427 C 352.800 88.817,351.112 87.200,350.474 87.200 C 350.179 87.200,350.000 86.521,350.000 85.400 C 350.000 83.236,348.982 82.000,347.200 82.000 C 346.077 82.000,346.000 81.902,346.000 80.480 C 346.000 78.569,345.436 78.000,343.542 78.000 L 342.044 78.000 341.922 76.100 L 341.800 74.200 339.921 74.079 L 338.042 73.958 337.921 72.079 L 337.800 70.200 335.921 70.079 L 334.042 69.958 333.921 68.079 L 333.800 66.200 331.921 66.079 L 330.042 65.958 329.921 64.079 L 329.800 62.200 327.921 62.079 L 326.042 61.958 325.921 60.079 L 325.800 58.200 323.900 58.078 L 322.000 57.956 322.000 56.458 C 322.000 54.576,321.431 54.000,319.573 54.000 C 318.158 54.000,318.097 53.941,317.886 52.367 C 317.612 50.319,317.615 50.322,315.280 50.098 C 313.600 49.937,313.286 49.762,312.918 48.788 C 312.396 47.405,309.678 46.000,307.525 46.000 C 306.026 46.000,306.000 45.974,306.000 44.480 C 306.000 42.536,305.436 42.000,303.391 42.000 C 301.820 42.000,301.723 41.929,301.371 40.511 C 300.949 38.816,299.356 38.087,295.953 38.031 L 294.105 38.000 293.886 36.367 C 293.594 34.190,293.651 34.220,289.567 34.060 L 286.000 33.920 286.000 32.589 C 286.000 30.443,285.217 30.000,281.424 30.000 L 278.105 30.000 277.886 28.367 C 277.590 26.160,277.721 26.217,272.668 26.068 C 267.854 25.925,266.228 25.197,265.921 23.045 C 265.808 22.258,265.524 22.192,261.767 22.087 L 257.735 21.973 257.367 20.487 C 256.875 18.492,255.208 18.074,247.571 18.032 L 241.741 18.000 241.371 16.500 C 241.038 15.155,240.814 14.952,239.200 14.532 C 237.143 13.998,163.763 13.868,161.033 14.394 M220.263 38.000 L 234.000 38.000 234.000 39.371 C 234.000 41.807,234.532 42.000,241.229 42.000 C 245.566 42.000,247.200 42.130,247.200 42.474 C 247.200 43.112,248.817 44.800,249.427 44.800 C 249.695 44.800,250.018 45.070,250.145 45.400 C 250.327 45.875,251.167 46.000,254.180 46.000 L 257.985 46.000 258.216 47.100 C 258.737 49.577,259.368 49.872,264.300 49.953 C 266.243 49.984,267.200 50.157,267.200 50.474 C 267.200 51.112,268.817 52.800,269.427 52.800 C 269.695 52.800,270.018 53.070,270.145 53.400 C 270.314 53.842,271.012 54.000,272.787 54.000 C 274.381 54.000,275.200 54.161,275.200 54.474 C 275.200 55.112,276.817 56.800,277.427 56.800 C 277.695 56.800,278.018 57.070,278.145 57.400 C 278.301 57.808,278.940 58.000,280.136 58.000 C 281.884 58.000,281.900 58.012,282.156 59.612 C 282.473 61.599,283.325 62.000,287.226 62.000 L 290.000 62.000 290.000 63.520 C 290.000 65.436,290.564 66.000,292.480 66.000 C 293.902 66.000,294.000 66.077,294.000 67.200 C 294.000 68.982,295.236 70.000,297.400 70.000 C 298.521 70.000,299.200 70.179,299.200 70.474 C 299.200 71.112,300.817 72.800,301.427 72.800 C 301.695 72.800,302.018 73.070,302.145 73.400 C 302.302 73.810,302.943 74.000,304.166 74.000 L 305.956 74.000 306.078 75.900 L 306.200 77.800 308.079 77.921 L 309.958 78.042 310.079 79.921 L 310.200 81.800 312.100 81.922 L 314.000 82.044 314.000 83.542 C 314.000 85.431,314.569 86.000,316.458 86.000 L 317.956 86.000 318.078 87.900 L 318.200 89.800 320.079 89.921 L 321.958 90.042 322.079 91.921 L 322.200 93.800 324.100 93.922 L 326.000 94.044 326.000 95.834 C 326.000 97.057,326.190 97.698,326.600 97.855 C 326.930 97.982,327.200 98.280,327.200 98.517 C 327.200 99.143,328.847 100.800,329.470 100.800 C 329.832 100.800,330.000 101.372,330.000 102.600 C 330.000 104.764,331.018 106.000,332.800 106.000 C 333.923 106.000,334.000 106.098,334.000 107.520 C 334.000 109.436,334.564 110.000,336.480 110.000 L 338.000 110.000 338.000 112.774 C 338.000 116.675,338.401 117.527,340.388 117.844 C 341.932 118.091,342.000 118.164,342.000 119.576 C 342.000 121.680,343.418 124.401,344.783 124.916 C 345.823 125.308,345.916 125.528,346.092 127.992 C 346.338 131.432,347.038 132.868,348.700 133.344 C 349.991 133.713,350.000 133.734,350.047 136.358 C 350.127 140.810,350.344 141.324,352.302 141.711 L 354.000 142.047 354.000 145.548 C 354.000 149.759,354.944 152.222,356.832 152.935 L 358.000 153.375 358.000 159.059 C 358.000 165.427,358.214 166.000,360.598 166.000 L 361.939 166.000 362.070 183.000 C 362.141 192.350,362.141 207.650,362.070 217.000 L 361.939 234.000 360.598 234.000 C 358.227 234.000,358.000 234.590,358.000 240.756 L 358.000 246.256 356.700 246.828 C 354.792 247.667,354.228 249.180,354.067 253.884 L 353.928 257.967 352.266 258.296 C 350.348 258.675,350.127 259.209,350.047 263.642 C 350.000 266.266,349.991 266.287,348.700 266.656 C 347.038 267.132,346.338 268.568,346.092 272.008 C 345.916 274.472,345.823 274.692,344.783 275.084 C 343.405 275.604,342.000 278.326,342.000 280.475 C 342.000 281.903,341.923 282.000,340.800 282.000 C 338.673 282.000,338.000 283.149,338.000 286.778 L 338.000 289.956 336.100 290.078 L 334.200 290.200 334.078 292.100 C 333.962 293.909,333.900 294.000,332.778 294.000 C 331.019 294.000,330.000 295.247,330.000 297.400 C 330.000 298.521,329.821 299.200,329.526 299.200 C 328.888 299.200,327.200 300.817,327.200 301.427 C 327.200 301.695,326.930 302.018,326.600 302.145 C 326.190 302.302,326.000 302.943,326.000 304.166 L 326.000 305.956 324.100 306.078 L 322.200 306.200 322.079 308.079 L 321.958 309.958 320.079 310.079 L 318.200 310.200 318.078 312.100 L 317.956 314.000 316.458 314.000 C 314.569 314.000,314.000 314.569,314.000 316.458 L 314.000 317.956 312.100 318.078 L 310.200 318.200 310.079 320.079 L 309.958 321.958 308.079 322.079 L 306.200 322.200 306.078 324.100 L 305.956 326.000 304.166 326.000 C 302.943 326.000,302.302 326.190,302.145 326.600 C 302.018 326.930,301.720 327.200,301.483 327.200 C 300.883 327.200,299.200 328.836,299.200 329.420 C 299.200 329.714,298.345 329.972,297.000 330.083 C 294.384 330.300,294.392 330.295,294.116 332.347 C 293.902 333.946,293.883 333.961,292.050 334.080 L 290.200 334.200 290.078 336.100 L 289.956 338.000 286.778 338.000 C 283.149 338.000,282.000 338.673,282.000 340.800 C 282.000 341.923,281.903 342.000,280.475 342.000 C 278.326 342.000,275.604 343.405,275.084 344.783 C 274.692 345.823,274.472 345.916,272.008 346.092 C 268.568 346.338,267.132 347.038,266.656 348.700 C 266.287 349.991,266.266 350.000,263.642 350.047 C 259.190 350.127,258.676 350.344,258.289 352.302 L 257.953 354.000 254.164 354.000 C 251.165 354.000,250.327 354.125,250.145 354.600 C 250.018 354.930,249.720 355.200,249.483 355.200 C 248.857 355.200,247.200 356.847,247.200 357.470 C 247.200 357.886,245.921 358.000,241.229 358.000 C 234.547 358.000,234.000 358.197,234.000 360.595 L 234.000 361.933 217.000 362.066 C 207.650 362.140,192.350 362.140,183.000 362.066 L 166.000 361.933 166.000 360.595 C 166.000 358.226,165.410 358.000,159.229 358.000 L 153.716 358.000 153.344 356.700 C 152.800 354.802,151.345 354.258,146.315 354.071 L 142.030 353.913 141.703 352.258 C 141.325 350.349,140.787 350.127,136.358 350.047 C 133.734 350.000,133.713 349.991,133.344 348.700 C 132.851 346.980,131.328 346.270,127.700 346.071 C 125.995 345.978,124.800 345.735,124.800 345.482 C 124.800 344.879,123.162 343.200,122.573 343.200 C 122.305 343.200,121.982 342.930,121.855 342.600 C 121.699 342.192,121.060 342.000,119.864 342.000 C 118.116 342.000,118.100 341.988,117.844 340.388 C 117.527 338.401,116.675 338.000,112.774 338.000 L 110.000 338.000 110.000 336.480 C 110.000 334.564,109.436 334.000,107.520 334.000 C 106.098 334.000,106.000 333.923,106.000 332.800 C 106.000 331.018,104.764 330.000,102.600 330.000 C 101.479 330.000,100.800 329.821,100.800 329.526 C 100.800 328.888,99.183 327.200,98.573 327.200 C 98.305 327.200,97.982 326.930,97.855 326.600 C 97.698 326.190,97.057 326.000,95.834 326.000 L 94.044 326.000 93.922 324.100 L 93.800 322.200 91.921 322.079 L 90.042 321.958 89.921 320.079 L 89.800 318.200 87.900 318.078 L 86.000 317.956 86.000 316.458 C 86.000 314.569,85.431 314.000,83.542 314.000 L 82.044 314.000 81.922 312.100 L 81.800 310.200 79.921 310.079 L 78.042 309.958 77.921 308.079 L 77.800 306.200 75.900 306.078 L 74.000 305.956 74.000 304.166 C 74.000 302.943,73.810 302.302,73.400 302.145 C 73.070 302.018,72.800 301.720,72.800 301.483 C 72.800 300.883,71.164 299.200,70.580 299.200 C 70.286 299.200,70.028 298.345,69.917 297.000 C 69.699 294.382,69.708 294.392,67.633 294.114 C 66.059 293.903,66.000 293.842,66.000 292.427 C 66.000 290.564,65.423 290.000,63.520 290.000 L 62.000 290.000 62.000 287.226 C 62.000 283.325,61.599 282.473,59.612 282.156 C 58.012 281.900,58.000 281.884,58.000 280.136 C 58.000 278.940,57.808 278.301,57.400 278.145 C 57.070 278.018,56.800 277.720,56.800 277.483 C 56.800 276.880,55.163 275.200,54.575 275.200 C 54.259 275.200,54.034 274.260,53.927 272.500 C 53.726 269.165,52.988 267.571,51.300 266.828 C 50.048 266.277,49.998 266.165,49.953 263.828 C 49.866 259.399,49.524 258.726,47.100 258.216 C 46.001 257.985,46.000 257.982,46.000 254.468 C 46.000 250.240,45.059 247.779,43.168 247.065 L 42.000 246.625 42.000 240.941 C 42.000 234.574,41.785 234.000,39.405 234.000 L 38.067 234.000 37.934 217.000 C 37.860 207.650,37.860 192.350,37.934 183.000 L 38.067 166.000 39.405 166.000 C 41.785 166.000,42.000 165.426,42.000 159.059 L 42.000 153.375 43.168 152.935 C 45.059 152.221,46.000 149.760,46.000 145.532 C 46.000 142.018,46.001 142.015,47.100 141.784 C 49.524 141.274,49.866 140.601,49.953 136.172 C 49.998 133.835,50.048 133.723,51.300 133.172 C 52.988 132.429,53.726 130.835,53.927 127.500 C 54.021 125.946,54.272 124.800,54.519 124.800 C 55.122 124.800,56.800 123.161,56.800 122.573 C 56.800 122.305,57.070 121.982,57.400 121.855 C 57.808 121.699,58.000 121.060,58.000 119.864 C 58.000 118.116,58.012 118.100,59.612 117.844 C 61.599 117.527,62.000 116.675,62.000 112.774 L 62.000 110.000 63.520 110.000 C 65.423 110.000,66.000 109.436,66.000 107.573 C 66.000 106.158,66.059 106.097,67.633 105.886 C 69.708 105.608,69.699 105.618,69.917 103.000 C 70.017 101.790,70.290 100.800,70.524 100.800 C 71.123 100.800,72.800 99.159,72.800 98.573 C 72.800 98.305,73.070 97.982,73.400 97.855 C 73.810 97.698,74.000 97.057,74.000 95.834 L 74.000 94.044 75.900 93.922 L 77.800 93.800 77.921 91.921 L 78.042 90.042 79.921 89.921 L 81.800 89.800 81.922 87.900 L 82.044 86.000 83.542 86.000 C 85.431 86.000,86.000 85.431,86.000 83.542 L 86.000 82.044 87.900 81.922 L 89.800 81.800 89.921 79.921 L 90.042 78.042 91.921 77.921 L 93.800 77.800 93.922 75.900 L 94.044 74.000 95.834 74.000 C 97.057 74.000,97.698 73.810,97.855 73.400 C 97.982 73.070,98.280 72.800,98.517 72.800 C 99.143 72.800,100.800 71.153,100.800 70.530 C 100.800 70.193,101.300 70.000,102.174 70.000 C 104.641 70.000,105.558 69.404,105.844 67.612 C 106.091 66.069,106.165 66.000,107.571 66.000 C 109.436 66.000,110.000 65.424,110.000 63.520 L 110.000 62.000 112.774 62.000 C 116.675 62.000,117.527 61.599,117.844 59.612 C 118.100 58.012,118.116 58.000,119.864 58.000 C 121.060 58.000,121.699 57.808,121.855 57.400 C 121.982 57.070,122.280 56.800,122.517 56.800 C 123.120 56.800,124.800 55.163,124.800 54.575 C 124.800 54.259,125.740 54.034,127.500 53.927 C 130.835 53.726,132.429 52.988,133.172 51.300 C 133.723 50.048,133.835 49.998,136.172 49.953 C 140.585 49.867,141.277 49.519,141.775 47.136 C 141.995 46.080,142.026 46.072,146.098 45.933 C 150.821 45.772,152.332 45.210,153.172 43.300 L 153.744 42.000 159.244 42.000 C 165.422 42.000,166.000 41.775,166.000 39.376 L 166.000 38.009 181.500 37.872 C 190.025 37.796,199.143 37.794,201.763 37.867 C 204.382 37.940,212.707 38.000,220.263 38.000 M165.056 54.867 C 164.119 55.341,163.342 56.098,163.079 56.796 L 162.645 57.945 156.755 58.072 C 150.183 58.215,150.413 58.137,150.121 60.315 L 149.909 61.896 144.954 62.086 C 139.445 62.299,138.400 62.741,138.400 64.862 C 138.400 65.986,138.370 66.001,135.900 66.047 C 131.416 66.132,130.724 66.474,130.229 68.850 C 130.032 69.792,129.794 69.918,127.905 70.077 C 125.095 70.314,123.520 71.127,122.828 72.700 C 122.316 73.864,122.083 74.000,120.608 74.000 C 118.564 74.000,118.000 74.536,118.000 76.480 L 118.000 78.000 116.300 78.010 C 112.397 78.031,110.400 79.069,110.400 81.076 C 110.400 81.884,110.203 82.000,108.829 82.000 C 106.886 82.000,106.000 82.824,106.000 84.629 C 106.000 85.950,105.944 86.000,104.480 86.000 C 102.569 86.000,102.000 86.564,102.000 88.458 L 102.000 89.956 100.100 90.078 L 98.200 90.200 98.079 92.079 L 97.958 93.958 96.079 94.079 L 94.200 94.200 94.079 96.079 L 93.958 97.958 92.079 98.079 L 90.200 98.200 90.078 100.100 L 89.956 102.000 88.458 102.000 C 86.564 102.000,86.000 102.569,86.000 104.480 C 86.000 105.944,85.950 106.000,84.629 106.000 C 82.824 106.000,82.000 106.886,82.000 108.829 C 82.000 110.203,81.884 110.400,81.076 110.400 C 79.069 110.400,78.031 112.397,78.010 116.300 L 78.000 118.000 76.480 118.000 C 74.536 118.000,74.000 118.564,74.000 120.608 C 74.000 122.083,73.864 122.316,72.700 122.828 C 71.127 123.520,70.314 125.095,70.077 127.905 C 69.918 129.794,69.792 130.032,68.850 130.229 C 66.474 130.724,66.132 131.416,66.047 135.900 C 66.001 138.370,65.986 138.400,64.862 138.400 C 62.741 138.400,62.299 139.445,62.086 144.954 L 61.896 149.909 60.315 150.121 C 58.137 150.413,58.215 150.183,58.072 156.755 L 57.945 162.645 56.804 163.076 C 53.912 164.168,54.000 163.008,54.000 200.000 C 54.000 236.992,53.912 235.832,56.804 236.924 L 57.945 237.355 58.072 243.245 C 58.215 249.817,58.137 249.587,60.315 249.879 L 61.896 250.091 62.086 255.046 C 62.297 260.519,62.745 261.600,64.803 261.600 C 65.872 261.600,65.883 261.631,66.124 265.039 C 66.396 268.896,66.710 269.500,68.530 269.677 C 69.701 269.790,69.809 269.925,69.918 271.400 C 70.099 273.856,71.439 276.409,72.822 276.931 C 73.890 277.334,74.000 277.547,74.000 279.208 C 74.000 281.437,74.500 282.000,76.480 282.000 L 78.000 282.000 78.031 283.900 C 78.087 287.354,78.809 288.947,80.511 289.371 C 81.899 289.716,82.000 289.843,82.000 291.242 C 82.000 293.110,82.848 294.000,84.629 294.000 C 85.950 294.000,86.000 294.056,86.000 295.520 C 86.000 297.431,86.564 298.000,88.458 298.000 L 89.956 298.000 90.078 299.900 L 90.200 301.800 92.079 301.921 L 93.958 302.042 94.079 303.921 L 94.200 305.800 96.079 305.921 L 97.958 306.042 98.079 307.921 L 98.200 309.800 100.100 309.922 L 102.000 310.044 102.000 311.542 C 102.000 313.436,102.569 314.000,104.480 314.000 C 105.944 314.000,106.000 314.050,106.000 315.371 C 106.000 317.152,106.890 318.000,108.758 318.000 C 110.157 318.000,110.284 318.101,110.629 319.489 C 111.053 321.191,112.646 321.913,116.100 321.969 L 118.000 322.000 118.000 323.520 C 118.000 325.500,118.563 326.000,120.792 326.000 C 122.453 326.000,122.666 326.110,123.069 327.178 C 123.591 328.561,126.144 329.901,128.600 330.082 C 130.075 330.191,130.210 330.299,130.323 331.470 C 130.500 333.290,131.104 333.604,134.961 333.876 C 138.144 334.101,138.400 334.183,138.400 334.983 C 138.400 337.208,140.401 337.975,146.247 337.990 L 149.895 338.000 150.114 339.633 C 150.414 341.875,150.143 341.785,157.032 341.928 C 161.646 342.024,163.200 342.183,163.200 342.558 C 163.200 343.091,164.843 344.800,165.354 344.800 C 165.521 344.800,165.927 345.070,166.257 345.400 C 166.781 345.924,171.073 346.000,200.000 346.000 C 228.927 346.000,233.219 345.924,233.743 345.400 C 234.073 345.070,234.504 344.800,234.702 344.800 C 235.199 344.800,236.800 343.047,236.800 342.502 C 236.800 342.199,238.775 342.015,242.968 341.928 C 249.857 341.785,249.586 341.875,249.886 339.633 L 250.105 338.000 253.753 337.990 C 259.599 337.975,261.600 337.208,261.600 334.983 C 261.600 334.183,261.863 334.098,265.068 333.851 C 269.028 333.547,269.600 333.232,269.600 331.351 C 269.600 330.025,269.632 330.000,271.325 330.000 C 273.692 330.000,276.377 328.645,276.935 327.168 C 277.333 326.111,277.550 326.000,279.208 326.000 C 281.425 326.000,282.000 325.499,282.000 323.568 L 282.000 322.096 284.300 321.924 C 287.393 321.693,288.880 320.920,289.344 319.300 C 289.679 318.128,289.865 318.000,291.229 318.000 C 293.111 318.000,294.000 317.156,294.000 315.371 C 294.000 314.050,294.056 314.000,295.520 314.000 C 297.431 314.000,298.000 313.436,298.000 311.542 L 298.000 310.044 299.900 309.922 L 301.800 309.800 301.921 307.921 L 302.042 306.042 303.921 305.921 L 305.800 305.800 305.921 303.921 L 306.042 302.042 307.921 301.921 L 309.800 301.800 309.922 299.900 L 310.044 298.000 311.542 298.000 C 313.436 298.000,314.000 297.431,314.000 295.520 C 314.000 294.056,314.050 294.000,315.371 294.000 C 317.156 294.000,318.000 293.111,318.000 291.229 C 318.000 289.865,318.128 289.679,319.300 289.344 C 320.920 288.880,321.693 287.393,321.924 284.300 L 322.096 282.000 323.568 282.000 C 325.463 282.000,326.000 281.424,326.000 279.392 C 326.000 277.917,326.136 277.684,327.300 277.172 C 328.914 276.462,329.702 274.879,329.924 271.900 C 330.096 269.606,330.099 269.600,331.399 269.600 C 333.228 269.600,333.549 269.008,333.851 265.068 C 334.098 261.863,334.183 261.600,334.983 261.600 C 337.208 261.600,337.975 259.599,337.990 253.753 L 338.000 250.105 339.633 249.886 C 341.875 249.586,341.785 249.857,341.928 242.968 C 342.024 238.354,342.183 236.800,342.558 236.800 C 343.091 236.800,344.800 235.157,344.800 234.646 C 344.800 234.479,345.070 234.073,345.400 233.743 C 345.924 233.219,346.000 228.927,346.000 200.000 C 346.000 171.073,345.924 166.781,345.400 166.257 C 345.070 165.927,344.800 165.496,344.800 165.298 C 344.800 164.801,343.047 163.200,342.502 163.200 C 342.199 163.200,342.015 161.225,341.928 157.032 C 341.785 150.143,341.875 150.414,339.633 150.114 L 338.000 149.895 337.990 146.247 C 337.975 140.401,337.208 138.400,334.983 138.400 C 334.183 138.400,334.101 138.144,333.876 134.961 C 333.604 131.104,333.290 130.500,331.470 130.323 C 330.244 130.204,330.192 130.122,329.962 127.983 C 329.643 125.019,328.868 123.518,327.300 122.828 C 326.136 122.316,326.000 122.083,326.000 120.608 C 326.000 118.564,325.464 118.000,323.520 118.000 L 322.000 118.000 321.969 116.100 C 321.913 112.646,321.191 111.053,319.489 110.629 C 318.101 110.284,318.000 110.157,318.000 108.758 C 318.000 106.890,317.152 106.000,315.371 106.000 C 314.050 106.000,314.000 105.944,314.000 104.480 C 314.000 102.569,313.436 102.000,311.542 102.000 L 310.044 102.000 309.922 100.100 L 309.800 98.200 307.921 98.079 L 306.042 97.958 305.921 96.079 L 305.800 94.200 303.921 94.079 L 302.042 93.958 301.921 92.079 L 301.800 90.200 299.900 90.078 L 298.000 89.956 298.000 88.458 C 298.000 86.564,297.431 86.000,295.520 86.000 C 294.056 86.000,294.000 85.950,294.000 84.629 C 294.000 82.848,293.110 82.000,291.242 82.000 C 289.843 82.000,289.716 81.899,289.371 80.511 C 288.947 78.809,287.354 78.087,283.900 78.031 L 282.000 78.000 282.000 76.480 C 282.000 74.536,281.436 74.000,279.392 74.000 C 277.917 74.000,277.684 73.864,277.172 72.700 C 276.482 71.132,274.981 70.357,272.017 70.038 C 269.878 69.808,269.796 69.756,269.677 68.530 C 269.500 66.710,268.896 66.396,265.039 66.124 C 261.631 65.883,261.600 65.872,261.600 64.803 C 261.600 62.745,260.519 62.297,255.046 62.086 L 250.091 61.896 249.879 60.315 C 249.587 58.137,249.817 58.215,243.245 58.072 L 237.355 57.945 236.924 56.804 C 236.645 56.065,235.888 55.371,234.772 54.832 C 232.161 53.571,167.557 53.603,165.056 54.867 M216.300 77.847 L 230.000 78.048 230.000 79.395 C 230.000 81.765,230.599 82.000,236.629 82.000 L 242.000 82.000 242.000 83.371 C 242.000 85.563,242.765 86.000,246.605 86.000 L 249.953 86.000 250.289 87.698 C 250.673 89.640,251.200 89.871,255.449 89.953 L 257.898 90.000 258.156 91.612 C 258.473 93.599,259.325 94.000,263.226 94.000 L 266.000 94.000 266.000 95.520 C 266.000 97.430,266.564 98.000,268.456 98.000 C 269.897 98.000,269.965 98.063,270.289 99.698 C 270.673 101.643,271.199 101.871,275.478 101.953 L 277.956 102.000 278.078 103.900 L 278.200 105.800 280.079 105.921 L 281.958 106.042 282.079 107.921 L 282.200 109.800 284.079 109.921 L 285.958 110.042 286.079 111.921 L 286.200 113.800 288.079 113.921 L 289.958 114.042 290.079 115.921 L 290.200 117.800 292.079 117.921 L 293.958 118.042 294.079 119.921 L 294.200 121.800 296.100 121.922 L 298.000 122.044 298.047 124.522 C 298.129 128.801,298.357 129.327,300.302 129.711 C 301.937 130.035,302.000 130.103,302.000 131.544 C 302.000 133.427,302.570 134.000,304.440 134.000 L 305.920 134.000 306.060 137.567 C 306.220 141.651,306.190 141.594,308.367 141.886 L 310.000 142.105 310.000 144.827 C 310.000 148.674,310.406 149.528,312.388 149.844 L 314.000 150.102 314.000 153.571 C 314.000 157.522,314.268 158.000,316.480 158.000 L 318.000 158.000 318.000 160.000 L 318.000 162.000 309.400 162.000 C 303.036 162.000,300.800 161.877,300.800 161.526 C 300.800 160.888,299.183 159.200,298.573 159.200 C 298.305 159.200,297.985 158.937,297.861 158.615 C 297.689 158.168,296.711 158.002,293.718 157.915 L 289.800 157.800 289.677 156.530 C 289.493 154.636,288.818 154.335,284.228 154.101 C 279.767 153.873,278.320 153.161,277.935 151.000 C 277.818 150.344,277.428 150.179,275.762 150.081 C 273.789 149.966,273.722 149.922,273.366 148.493 C 272.949 146.819,271.342 146.087,267.957 146.031 C 266.122 146.000,266.112 145.993,265.757 144.318 C 265.338 142.344,264.796 142.100,260.700 142.040 L 258.000 142.000 258.000 140.629 C 258.000 138.434,257.237 138.000,253.371 138.000 L 250.000 138.000 250.000 136.629 C 250.000 134.441,249.232 134.000,245.424 134.000 L 242.105 134.000 241.886 132.367 C 241.587 130.135,241.809 130.216,235.568 130.070 L 230.000 129.940 230.000 128.598 C 230.000 125.815,231.900 125.973,199.797 126.092 C 183.885 126.152,170.746 126.320,170.600 126.467 C 170.453 126.614,170.234 127.469,170.114 128.367 L 169.895 130.000 165.447 130.047 C 159.075 130.115,158.698 130.234,158.289 132.302 L 157.953 134.000 155.203 134.000 C 151.326 134.000,150.473 134.403,150.156 136.388 L 149.898 138.000 147.649 138.047 C 143.419 138.136,142.720 138.501,142.222 140.878 C 142.020 141.842,141.795 141.969,140.101 142.078 C 138.573 142.176,138.180 142.355,138.065 143.000 C 137.726 144.899,136.017 146.000,133.405 146.000 C 130.552 146.000,130.000 146.402,130.000 148.480 L 130.000 150.000 126.629 150.000 C 122.763 150.000,122.000 150.434,122.000 152.629 L 122.000 154.000 118.480 154.000 C 114.475 154.000,114.000 154.263,114.000 156.480 L 114.000 158.000 108.629 158.000 C 102.588 158.000,102.000 158.233,102.000 160.629 L 102.000 162.000 92.000 162.000 L 82.000 162.000 82.000 160.000 L 82.000 158.000 83.520 158.000 C 85.732 158.000,86.000 157.522,86.000 153.571 L 86.000 150.102 87.612 149.844 C 89.599 149.527,90.000 148.675,90.000 144.774 L 90.000 142.000 91.200 142.000 C 93.331 142.000,94.000 140.853,94.000 137.200 L 94.000 134.000 95.520 134.000 C 97.422 134.000,98.000 133.436,98.000 131.577 C 98.000 130.181,98.078 130.097,99.682 129.757 C 101.654 129.339,101.899 128.795,101.960 124.722 L 102.000 122.044 103.900 121.922 L 105.800 121.800 105.921 119.921 L 106.042 118.042 107.921 117.921 L 109.800 117.800 109.921 115.921 L 110.042 114.042 111.921 113.921 L 113.800 113.800 113.921 111.921 L 114.042 110.042 115.921 109.921 L 117.800 109.800 117.921 107.921 L 118.042 106.042 119.921 105.921 L 121.800 105.800 121.922 103.900 L 122.044 102.000 124.322 101.953 C 128.592 101.864,129.278 101.506,129.784 99.100 C 129.987 98.135,130.201 98.000,131.528 98.000 C 133.436 98.000,134.000 97.434,134.000 95.520 L 134.000 94.000 136.774 94.000 C 140.675 94.000,141.527 93.599,141.844 91.612 L 142.102 90.000 144.551 89.953 C 148.800 89.871,149.327 89.640,149.711 87.698 L 150.047 86.000 153.395 86.000 C 157.235 86.000,158.000 85.563,158.000 83.371 L 158.000 82.000 163.371 82.000 C 169.412 82.000,170.000 81.767,170.000 79.371 L 170.000 78.000 182.900 77.953 C 189.995 77.927,196.340 77.761,197.000 77.584 C 197.660 77.408,199.190 77.349,200.400 77.455 C 201.610 77.560,208.765 77.737,216.300 77.847 M215.040 150.000 L 221.953 150.000 222.289 151.698 C 222.683 153.690,223.165 153.877,228.100 153.953 C 230.197 153.985,231.200 154.153,231.200 154.474 C 231.200 155.112,232.817 156.800,233.427 156.800 C 233.695 156.800,234.018 157.070,234.145 157.400 C 234.318 157.852,235.048 158.000,237.113 158.000 C 240.035 158.000,241.711 159.015,242.065 161.000 C 242.183 161.661,242.573 161.821,244.304 161.921 C 246.303 162.036,246.400 162.094,246.400 163.159 C 246.400 164.912,247.490 165.567,250.888 165.854 L 253.915 166.110 254.164 167.668 C 254.472 169.593,255.355 170.000,259.226 170.000 L 262.000 170.000 262.000 171.371 C 262.000 173.566,262.763 174.000,266.629 174.000 L 270.000 174.000 270.000 175.371 C 270.000 177.586,270.752 178.000,274.771 178.000 L 278.284 178.000 278.656 179.300 C 279.261 181.412,280.519 181.778,287.700 181.934 L 294.000 182.070 294.000 183.407 C 294.000 186.035,293.805 186.000,308.582 186.000 L 321.908 186.000 322.067 192.900 C 322.155 196.695,322.154 204.792,322.065 210.894 L 321.903 221.987 286.385 222.094 C 266.850 222.152,250.746 222.320,250.600 222.467 C 250.453 222.614,250.234 223.469,250.114 224.367 L 249.895 226.000 247.173 226.000 C 243.337 226.000,242.472 226.409,242.159 228.368 C 241.908 229.935,241.875 229.962,240.052 230.080 L 238.200 230.200 238.079 232.079 L 237.958 233.958 236.079 234.079 L 234.200 234.200 234.079 236.079 L 233.958 237.958 232.079 238.079 L 230.200 238.200 230.080 240.052 C 229.962 241.875,229.935 241.908,228.368 242.159 C 226.409 242.472,226.000 243.337,226.000 247.173 L 226.000 249.895 224.367 250.114 C 223.469 250.234,222.614 250.453,222.467 250.600 C 222.320 250.746,222.152 266.851,222.094 286.388 L 221.987 321.909 210.994 322.061 C 204.947 322.145,195.050 322.145,189.000 322.061 L 178.000 321.908 178.000 286.583 C 178.000 247.399,178.187 250.000,175.371 250.000 L 174.000 250.000 174.000 246.629 C 174.000 242.772,173.565 242.000,171.393 242.000 C 170.067 242.000,170.042 241.967,169.922 240.100 L 169.800 238.200 167.921 238.079 L 166.042 237.958 165.921 236.079 L 165.800 234.200 163.921 234.079 L 162.042 233.958 161.921 232.079 L 161.800 230.200 159.900 230.078 C 158.033 229.958,158.000 229.933,158.000 228.607 C 158.000 226.435,157.228 226.000,153.371 226.000 L 150.000 226.000 150.000 224.629 C 150.000 221.813,152.601 222.000,113.420 222.000 L 78.097 222.000 77.936 210.900 C 77.846 204.795,77.845 196.695,77.933 192.900 L 78.092 186.000 91.746 185.968 C 107.694 185.930,108.808 185.776,109.364 183.528 L 109.727 182.057 115.431 181.928 C 121.815 181.785,121.587 181.865,121.884 179.647 L 122.102 178.028 125.951 177.914 C 129.521 177.808,129.809 177.739,129.921 176.955 C 130.182 175.122,131.974 174.051,134.996 173.921 C 137.427 173.816,137.810 173.696,137.935 173.000 C 138.274 171.100,139.983 170.000,142.595 170.000 C 145.448 170.000,146.000 169.598,146.000 167.520 L 146.000 166.000 149.371 166.000 C 153.215 166.000,154.000 165.564,154.000 163.429 L 154.000 162.115 157.278 161.842 C 161.051 161.527,161.600 161.211,161.600 159.351 C 161.600 158.007,161.610 158.000,163.500 157.990 C 167.605 157.970,169.600 156.967,169.600 154.924 C 169.600 154.042,169.734 154.000,172.574 154.000 C 176.677 154.000,177.524 153.618,177.843 151.620 L 178.100 150.015 187.150 149.871 C 192.127 149.791,198.884 149.788,202.164 149.863 C 205.444 149.938,211.238 150.000,215.040 150.000 M181.200 158.464 C 179.368 158.998,178.904 159.416,178.598 160.808 C 178.364 161.875,178.193 161.969,176.273 162.080 L 174.200 162.200 174.078 164.100 L 173.956 166.000 172.166 166.000 C 170.943 166.000,170.302 166.190,170.145 166.600 C 170.018 166.930,169.695 167.200,169.427 167.200 C 168.838 167.200,167.200 168.879,167.200 169.483 C 167.200 169.720,166.930 170.018,166.600 170.145 C 166.190 170.302,166.000 170.943,166.000 172.166 L 166.000 173.956 164.100 174.078 L 162.200 174.200 162.081 176.248 C 161.969 178.170,161.884 178.318,160.681 178.662 C 158.201 179.372,158.200 179.382,158.200 200.000 C 158.200 220.618,158.201 220.628,160.681 221.338 C 161.884 221.682,161.969 221.830,162.081 223.752 L 162.200 225.800 164.100 225.922 L 166.000 226.044 166.000 227.834 C 166.000 229.057,166.190 229.698,166.600 229.855 C 166.930 229.982,167.200 230.305,167.200 230.573 C 167.200 231.162,168.879 232.800,169.483 232.800 C 169.720 232.800,170.018 233.070,170.145 233.400 C 170.302 233.810,170.943 234.000,172.166 234.000 L 173.956 234.000 174.078 235.900 L 174.200 237.800 176.248 237.919 C 178.170 238.031,178.318 238.116,178.662 239.319 C 179.372 241.799,179.382 241.800,200.000 241.800 C 220.618 241.800,220.628 241.799,221.338 239.319 C 221.682 238.116,221.830 238.031,223.752 237.919 L 225.800 237.800 225.922 235.900 L 226.044 234.000 227.834 234.000 C 229.057 234.000,229.698 233.810,229.855 233.400 C 229.982 233.070,230.305 232.800,230.573 232.800 C 231.162 232.800,232.800 231.121,232.800 230.517 C 232.800 230.280,233.070 229.982,233.400 229.855 C 233.810 229.698,234.000 229.057,234.000 227.834 L 234.000 226.044 235.900 225.922 L 237.800 225.800 237.919 223.752 C 238.031 221.830,238.116 221.682,239.319 221.338 C 241.799 220.628,241.800 220.618,241.800 200.000 C 241.800 179.382,241.799 179.372,239.319 178.662 C 238.116 178.318,238.031 178.170,237.919 176.248 L 237.800 174.200 235.900 174.078 L 234.000 173.956 234.000 172.166 C 234.000 170.943,233.810 170.302,233.400 170.145 C 233.070 170.018,232.800 169.695,232.800 169.427 C 232.800 168.838,231.121 167.200,230.517 167.200 C 230.280 167.200,229.982 166.930,229.855 166.600 C 229.698 166.190,229.057 166.000,227.834 166.000 L 226.044 166.000 225.922 164.100 L 225.800 162.200 223.752 162.081 C 221.830 161.969,221.682 161.884,221.338 160.681 C 220.633 158.219,220.541 158.208,200.600 158.128 C 189.331 158.083,182.076 158.209,181.200 158.464 M210.000 183.520 C 210.000 185.436,210.564 186.000,212.480 186.000 C 213.973 186.000,214.000 186.027,214.000 187.520 C 214.000 189.436,214.564 190.000,216.480 190.000 L 218.000 190.000 218.000 200.000 L 218.000 210.000 216.480 210.000 C 214.564 210.000,214.000 210.564,214.000 212.480 C 214.000 213.973,213.973 214.000,212.480 214.000 C 210.564 214.000,210.000 214.564,210.000 216.480 L 210.000 218.000 200.000 218.000 L 190.000 218.000 190.000 216.480 C 190.000 214.564,189.436 214.000,187.520 214.000 C 186.027 214.000,186.000 213.973,186.000 212.480 C 186.000 210.564,185.436 210.000,183.520 210.000 L 182.000 210.000 182.000 200.000 L 182.000 190.000 183.520 190.000 C 184.356 190.000,185.256 189.784,185.520 189.520 C 185.784 189.256,186.000 188.356,186.000 187.520 C 186.000 186.027,186.027 186.000,187.520 186.000 C 188.356 186.000,189.256 185.784,189.520 185.520 C 189.784 185.256,190.000 184.356,190.000 183.520 L 190.000 182.000 200.000 182.000 L 210.000 182.000 210.000 183.520 M126.323 243.470 C 126.533 245.634,127.031 245.778,134.837 245.940 L 141.960 246.088 142.080 247.944 L 142.200 249.800 144.100 249.922 C 145.967 250.042,146.000 250.067,146.000 251.393 C 146.000 253.109,146.891 254.000,148.607 254.000 C 149.933 254.000,149.958 254.033,150.078 255.900 L 150.200 257.800 152.100 257.922 L 154.000 258.044 154.047 264.322 C 154.112 272.924,154.200 273.216,156.900 273.784 L 158.000 274.015 158.000 294.488 C 158.000 310.411,157.893 314.853,157.520 314.480 C 157.220 314.180,155.736 314.000,153.571 314.000 L 150.102 314.000 149.844 312.388 C 149.528 310.406,148.674 310.000,144.827 310.000 L 142.105 310.000 141.886 308.367 C 141.594 306.191,141.649 306.220,137.587 306.061 L 134.041 305.922 133.920 304.061 L 133.800 302.200 131.948 302.080 C 130.125 301.962,130.092 301.935,129.841 300.368 C 129.527 298.405,128.664 298.000,124.796 298.000 L 122.044 298.000 121.922 296.100 L 121.800 294.200 119.921 294.079 L 118.042 293.958 117.921 292.079 L 117.800 290.200 115.921 290.079 L 114.042 289.958 113.921 288.079 L 113.800 286.200 111.921 286.079 L 110.042 285.958 109.921 284.079 L 109.800 282.200 107.921 282.079 L 106.042 281.958 105.921 280.079 L 105.800 278.200 103.900 278.078 L 102.000 277.956 102.000 275.204 C 102.000 271.336,101.595 270.473,99.632 270.159 C 98.065 269.908,98.038 269.875,97.920 268.052 L 97.800 266.200 95.939 266.080 L 94.078 265.959 93.939 262.413 C 93.780 258.351,93.809 258.406,91.633 258.114 L 90.000 257.895 89.960 255.247 C 89.899 251.206,89.651 250.661,87.682 250.243 L 86.000 249.886 86.000 246.423 C 86.000 244.248,85.820 242.780,85.516 242.476 C 85.138 242.098,89.520 242.015,105.616 242.096 L 126.200 242.200 126.323 243.470 M314.480 242.480 C 314.180 242.780,314.000 244.264,314.000 246.429 L 314.000 249.898 312.388 250.156 C 310.401 250.473,310.000 251.325,310.000 255.226 L 310.000 258.000 308.629 258.000 C 306.437 258.000,306.000 258.765,306.000 262.607 L 306.000 265.956 304.100 266.078 L 302.200 266.200 302.080 268.047 C 301.963 269.863,301.932 269.901,300.298 270.247 C 298.349 270.661,298.100 271.214,298.040 275.278 L 298.000 277.956 296.100 278.078 L 294.200 278.200 294.079 280.079 L 293.958 281.958 292.079 282.079 L 290.200 282.200 290.079 284.079 L 289.958 285.958 288.079 286.079 L 286.200 286.200 286.079 288.079 L 285.958 289.958 284.079 290.079 L 282.200 290.200 282.079 292.079 L 281.958 293.958 280.079 294.079 L 278.200 294.200 278.078 296.100 L 277.956 298.000 275.204 298.000 C 271.336 298.000,270.473 298.405,270.159 300.368 C 269.908 301.935,269.875 301.962,268.052 302.080 L 266.200 302.200 266.078 304.100 L 265.956 306.000 262.607 306.000 C 258.765 306.000,258.000 306.437,258.000 308.629 L 258.000 310.000 255.300 310.040 C 251.204 310.100,250.662 310.344,250.243 312.318 L 249.886 314.000 246.423 314.000 C 244.263 314.000,242.779 314.181,242.480 314.480 C 242.107 314.853,242.000 310.411,242.000 294.488 L 242.000 274.015 243.100 273.784 C 245.707 273.235,245.883 272.761,245.953 266.100 C 245.999 261.680,246.016 261.600,246.924 261.600 C 248.927 261.600,249.968 259.603,249.990 255.722 L 250.000 254.044 251.900 253.922 L 253.800 253.800 253.922 251.900 L 254.044 250.000 255.722 249.990 C 259.603 249.968,261.600 248.927,261.600 246.924 C 261.600 246.016,261.680 245.999,266.100 245.953 C 272.761 245.883,273.235 245.707,273.784 243.100 L 274.015 242.000 294.488 242.000 C 310.411 242.000,314.853 242.107,314.480 242.480 " stroke="none" fill="#040404" fill-rule="evenodd"></path><path id="path1" d="" stroke="none" fill="#080404" fill-rule="evenodd"></path><path id="path2" d="" stroke="none" fill="#080404" fill-rule="evenodd"></path><path id="path3" d="" stroke="none" fill="#080404" fill-rule="evenodd"></path><path id="path4" d="" stroke="none" fill="#080404" fill-rule="evenodd"></path></g></svg>