<svg id="svg" version="1.1" xmlns="http://www.w3.org/2000/svg" xmlns:xlink="http://www.w3.org/1999/xlink" width="400" height="400" viewBox="0, 0, 400,400"><g id="svgg"><path id="path0" d="M76.707 34.400 C 76.335 34.997,75.774 35.200,74.504 35.200 C 73.067 35.200,72.800 35.325,72.800 36.000 C 72.800 36.667,72.533 36.800,71.200 36.800 C 69.867 36.800,69.600 36.933,69.600 37.600 C 69.600 38.133,69.333 38.400,68.800 38.400 C 68.267 38.400,68.000 38.667,68.000 39.200 C 68.000 39.722,67.733 40.000,67.233 40.000 C 66.041 40.000,65.200 40.431,65.200 41.043 C 65.200 41.349,64.840 41.600,64.400 41.600 C 63.960 41.600,63.600 41.799,63.600 42.042 C 63.600 42.285,63.150 43.019,62.600 43.673 C 62.050 44.327,61.600 45.097,61.600 45.384 C 61.600 45.671,61.240 46.001,60.800 46.116 C 60.360 46.231,60.000 46.593,60.000 46.920 C 60.000 47.247,59.730 47.618,59.400 47.745 C 59.044 47.881,58.800 48.483,58.800 49.225 C 58.800 50.138,58.585 50.531,58.000 50.684 C 57.373 50.848,57.200 51.230,57.200 52.447 C 57.200 53.467,56.925 54.275,56.400 54.800 C 55.620 55.580,55.600 56.133,55.600 76.600 C 55.600 97.600,55.600 97.600,54.800 96.800 C 53.561 95.561,34.121 95.561,33.000 96.800 C 32.509 97.342,31.768 97.600,30.701 97.600 C 29.462 97.600,29.080 97.771,28.916 98.400 C 28.759 99.001,28.370 99.200,27.353 99.200 C 26.267 99.200,26.000 99.358,26.000 100.000 C 26.000 100.533,25.733 100.800,25.200 100.800 C 24.682 100.800,24.400 101.067,24.400 101.555 C 24.400 102.098,24.016 102.383,23.039 102.566 C 22.290 102.707,21.576 103.087,21.451 103.411 C 21.327 103.735,20.945 104.000,20.603 104.000 C 20.260 104.000,19.809 104.450,19.600 105.000 C 19.391 105.550,19.044 106.000,18.828 106.000 C 18.613 106.000,18.318 106.630,18.174 107.400 C 17.984 108.413,17.702 108.800,17.155 108.800 C 16.682 108.800,16.400 109.081,16.400 109.553 C 16.400 109.970,16.043 110.400,15.600 110.516 C 15.026 110.666,14.800 111.062,14.800 111.916 C 14.800 112.770,14.574 113.166,14.000 113.316 C 13.383 113.477,13.200 113.862,13.200 114.999 C 13.200 115.868,12.871 116.892,12.400 117.491 C 11.617 118.486,11.600 119.114,11.600 146.454 L 11.600 174.400 8.600 174.400 C 5.867 174.400,5.600 174.471,5.600 175.200 C 5.600 175.733,5.333 176.000,4.800 176.000 C 4.267 176.000,4.000 176.267,4.000 176.800 C 4.000 177.333,3.733 177.600,3.200 177.600 C 2.410 177.600,2.400 177.867,2.400 200.000 C 2.400 222.133,2.410 222.400,3.200 222.400 C 3.724 222.400,4.000 222.667,4.000 223.173 C 4.000 223.598,4.360 224.060,4.800 224.200 C 5.240 224.340,5.600 224.712,5.600 225.027 C 5.600 225.473,6.263 225.600,8.600 225.600 L 11.600 225.600 11.600 253.546 C 11.600 280.886,11.617 281.514,12.400 282.509 C 12.871 283.108,13.200 284.132,13.200 285.001 C 13.200 286.138,13.383 286.523,14.000 286.684 C 14.574 286.834,14.800 287.230,14.800 288.084 C 14.800 288.938,15.026 289.334,15.600 289.484 C 16.060 289.604,16.400 290.030,16.400 290.484 C 16.400 290.931,16.738 291.363,17.177 291.478 C 17.629 291.596,18.061 292.167,18.209 292.841 C 18.349 293.478,18.634 294.000,18.842 294.000 C 19.050 294.000,19.391 294.450,19.600 295.000 C 19.809 295.550,20.260 296.000,20.603 296.000 C 20.945 296.000,21.327 296.265,21.451 296.589 C 21.576 296.913,22.290 297.293,23.039 297.434 C 24.016 297.617,24.400 297.902,24.400 298.445 C 24.400 298.933,24.682 299.200,25.200 299.200 C 25.733 299.200,26.000 299.467,26.000 300.000 C 26.000 300.642,26.267 300.800,27.353 300.800 C 28.370 300.800,28.759 300.999,28.916 301.600 C 29.080 302.229,29.462 302.400,30.701 302.400 C 31.768 302.400,32.509 302.658,33.000 303.200 C 34.121 304.439,53.561 304.439,54.800 303.200 L 55.600 302.400 55.600 321.800 C 55.600 340.667,55.622 341.222,56.400 342.000 C 56.925 342.525,57.200 343.333,57.200 344.353 C 57.200 345.570,57.373 345.952,58.000 346.116 C 58.613 346.276,58.800 346.662,58.800 347.763 C 58.800 348.774,58.978 349.200,59.400 349.200 C 59.730 349.200,60.000 349.487,60.000 349.837 C 60.000 350.188,60.360 350.569,60.800 350.684 C 61.252 350.802,61.600 351.230,61.600 351.666 C 61.600 352.091,62.050 352.855,62.600 353.365 C 63.150 353.875,63.600 354.496,63.600 354.746 C 63.600 354.996,63.864 355.200,64.186 355.200 C 64.508 355.200,64.957 355.545,65.183 355.967 C 65.409 356.390,66.135 356.854,66.797 356.999 C 67.459 357.145,68.000 357.519,68.000 357.832 C 68.000 358.144,68.360 358.400,68.800 358.400 C 69.333 358.400,69.600 358.667,69.600 359.200 C 69.600 359.867,69.867 360.000,71.200 360.000 C 72.533 360.000,72.800 360.133,72.800 360.800 C 72.800 361.461,73.067 361.600,74.338 361.600 C 75.368 361.600,76.115 361.864,76.600 362.400 C 77.721 363.639,97.161 363.639,98.400 362.400 C 98.903 361.897,99.733 361.600,100.637 361.600 C 101.738 361.600,102.124 361.413,102.284 360.800 C 102.440 360.203,102.830 360.000,103.820 360.000 C 104.795 360.000,105.213 359.788,105.400 359.200 C 105.540 358.760,106.002 358.400,106.427 358.400 C 106.852 358.400,107.200 358.130,107.200 357.800 C 107.200 357.470,107.478 357.200,107.818 357.200 C 108.158 357.200,108.860 356.776,109.378 356.258 C 109.896 355.740,110.608 355.206,110.960 355.071 C 111.312 354.936,111.600 354.639,111.600 354.413 C 111.600 354.186,111.960 353.640,112.400 353.200 C 112.840 352.760,113.200 352.040,113.200 351.600 C 113.200 351.067,113.467 350.800,114.000 350.800 C 114.517 350.800,114.800 350.533,114.800 350.047 C 114.800 349.630,115.157 349.200,115.600 349.084 C 116.213 348.924,116.400 348.538,116.400 347.437 C 116.400 346.267,116.548 346.000,117.200 346.000 C 117.867 346.000,118.000 345.733,118.000 344.400 C 118.000 343.333,118.267 342.533,118.800 342.000 C 119.592 341.208,119.600 340.667,119.600 285.000 L 119.600 228.800 200.000 228.800 L 280.400 228.800 280.400 285.000 C 280.400 340.667,280.408 341.208,281.200 342.000 C 281.703 342.503,282.000 343.333,282.000 344.237 C 282.000 345.338,282.187 345.724,282.800 345.884 C 283.406 346.043,283.600 346.430,283.600 347.484 C 283.600 348.538,283.794 348.925,284.400 349.084 C 284.843 349.200,285.200 349.630,285.200 350.047 C 285.200 350.533,285.483 350.800,286.000 350.800 C 286.533 350.800,286.800 351.067,286.800 351.600 C 286.800 352.040,287.160 352.760,287.600 353.200 C 288.040 353.640,288.400 354.186,288.400 354.413 C 288.400 354.639,288.688 354.936,289.040 355.071 C 289.392 355.206,290.104 355.740,290.622 356.258 C 291.140 356.776,291.823 357.200,292.139 357.200 C 292.455 357.200,292.818 357.470,292.945 357.800 C 293.071 358.130,293.438 358.400,293.760 358.400 C 294.083 358.400,294.460 358.760,294.600 359.200 C 294.787 359.788,295.205 360.000,296.180 360.000 C 297.170 360.000,297.560 360.203,297.716 360.800 C 297.876 361.413,298.262 361.600,299.363 361.600 C 300.267 361.600,301.097 361.897,301.600 362.400 C 302.839 363.639,322.279 363.639,323.400 362.400 C 323.885 361.864,324.632 361.600,325.662 361.600 C 326.933 361.600,327.200 361.461,327.200 360.800 C 327.200 360.133,327.467 360.000,328.800 360.000 C 330.133 360.000,330.400 359.867,330.400 359.200 C 330.400 358.667,330.667 358.400,331.200 358.400 C 331.644 358.400,332.000 358.133,332.000 357.800 C 332.000 357.462,332.358 357.200,332.819 357.200 C 333.270 357.200,334.055 356.750,334.565 356.200 C 335.075 355.650,335.696 355.200,335.946 355.200 C 336.196 355.200,336.400 354.996,336.400 354.746 C 336.400 354.496,336.850 353.875,337.400 353.365 C 337.950 352.855,338.400 352.091,338.400 351.666 C 338.400 351.230,338.748 350.802,339.200 350.684 C 339.640 350.569,340.000 350.188,340.000 349.837 C 340.000 349.487,340.254 349.200,340.565 349.200 C 340.912 349.200,341.234 348.584,341.400 347.600 C 341.566 346.616,341.888 346.000,342.235 346.000 C 342.633 346.000,342.800 345.497,342.800 344.296 C 342.800 343.026,343.003 342.465,343.600 342.093 C 344.382 341.604,344.400 341.160,344.400 321.997 L 344.400 302.400 345.200 303.200 C 346.439 304.439,365.879 304.439,367.000 303.200 C 367.491 302.658,368.232 302.400,369.299 302.400 C 370.538 302.400,370.920 302.229,371.084 301.600 C 371.241 300.999,371.630 300.800,372.647 300.800 C 373.733 300.800,374.000 300.642,374.000 300.000 C 374.000 299.467,374.267 299.200,374.800 299.200 C 375.318 299.200,375.600 298.933,375.600 298.445 C 375.600 297.902,375.984 297.617,376.961 297.434 C 377.710 297.293,378.424 296.913,378.549 296.589 C 378.673 296.265,379.055 296.000,379.397 296.000 C 379.740 296.000,380.191 295.550,380.400 295.000 C 380.609 294.450,380.950 294.000,381.158 294.000 C 381.366 294.000,381.651 293.478,381.791 292.841 C 381.939 292.167,382.371 291.596,382.823 291.478 C 383.262 291.363,383.600 290.931,383.600 290.484 C 383.600 290.030,383.940 289.604,384.400 289.484 C 384.974 289.334,385.200 288.938,385.200 288.084 C 385.200 287.230,385.426 286.834,386.000 286.684 C 386.617 286.523,386.800 286.138,386.800 285.001 C 386.800 284.132,387.129 283.108,387.600 282.509 C 388.383 281.514,388.400 280.886,388.400 253.546 L 388.400 225.600 391.213 225.600 C 393.256 225.600,394.084 225.447,394.240 225.039 C 394.359 224.731,394.803 224.388,395.228 224.277 C 395.662 224.163,396.000 223.729,396.000 223.284 C 396.000 222.830,396.340 222.404,396.800 222.284 C 397.588 222.078,397.600 221.738,397.600 200.000 C 397.600 178.262,397.588 177.922,396.800 177.716 C 396.357 177.600,396.000 177.170,396.000 176.753 C 396.000 176.267,395.717 176.000,395.200 176.000 C 394.667 176.000,394.400 175.733,394.400 175.200 C 394.400 174.471,394.133 174.400,391.400 174.400 L 388.400 174.400 388.400 146.454 C 388.400 119.114,388.383 118.486,387.600 117.491 C 387.129 116.892,386.800 115.868,386.800 114.999 C 386.800 113.862,386.617 113.477,386.000 113.316 C 385.426 113.166,385.200 112.770,385.200 111.916 C 385.200 111.062,384.974 110.666,384.400 110.516 C 383.957 110.400,383.600 109.970,383.600 109.553 C 383.600 109.067,383.317 108.800,382.800 108.800 C 382.213 108.800,382.000 108.533,382.000 107.800 C 382.000 107.250,381.640 106.440,381.200 106.000 C 380.760 105.560,380.400 105.016,380.400 104.790 C 380.400 104.565,379.950 104.209,379.400 104.000 C 378.850 103.791,378.400 103.444,378.400 103.228 C 378.400 103.013,377.770 102.718,377.000 102.574 C 375.987 102.384,375.600 102.102,375.600 101.555 C 375.600 101.067,375.318 100.800,374.800 100.800 C 374.267 100.800,374.000 100.533,374.000 100.000 C 374.000 99.358,373.733 99.200,372.647 99.200 C 371.630 99.200,371.241 99.001,371.084 98.400 C 370.920 97.771,370.538 97.600,369.299 97.600 C 368.232 97.600,367.491 97.342,367.000 96.800 C 365.879 95.561,346.439 95.561,345.200 96.800 L 344.400 97.600 344.400 76.600 C 344.400 56.133,344.380 55.580,343.600 54.800 C 343.067 54.267,342.800 53.467,342.800 52.400 C 342.800 51.301,342.626 50.800,342.245 50.800 C 341.925 50.800,341.576 50.197,341.422 49.379 C 341.276 48.597,340.896 47.858,340.578 47.736 C 340.260 47.614,340.000 47.247,340.000 46.920 C 340.000 46.593,339.640 46.231,339.200 46.116 C 338.748 45.998,338.400 45.570,338.400 45.134 C 338.400 44.709,337.950 43.945,337.400 43.435 C 336.850 42.925,336.400 42.304,336.400 42.054 C 336.400 41.804,336.040 41.600,335.600 41.600 C 335.160 41.600,334.800 41.349,334.800 41.043 C 334.800 40.431,333.959 40.000,332.767 40.000 C 332.267 40.000,332.000 39.722,332.000 39.200 C 332.000 38.683,331.733 38.400,331.247 38.400 C 330.830 38.400,330.400 38.043,330.284 37.600 C 330.124 36.987,329.738 36.800,328.637 36.800 C 327.467 36.800,327.200 36.652,327.200 36.000 C 327.200 35.325,326.933 35.200,325.496 35.200 C 324.226 35.200,323.665 34.997,323.293 34.400 C 322.814 33.634,322.360 33.600,312.597 33.600 C 302.933 33.600,302.358 33.642,301.600 34.400 C 301.097 34.903,300.267 35.200,299.363 35.200 C 298.262 35.200,297.876 35.387,297.716 36.000 C 297.560 36.597,297.170 36.800,296.180 36.800 C 295.230 36.800,294.786 37.015,294.614 37.557 C 294.482 37.973,294.019 38.406,293.587 38.519 C 293.154 38.633,292.800 39.012,292.800 39.363 C 292.800 39.775,292.449 40.000,291.803 40.000 C 291.240 40.000,290.590 40.348,290.307 40.800 C 290.032 41.240,289.575 41.600,289.291 41.600 C 289.007 41.600,288.659 41.901,288.518 42.269 C 288.377 42.638,287.932 43.268,287.531 43.669 C 287.129 44.071,286.800 44.760,286.800 45.200 C 286.800 45.733,286.533 46.000,286.000 46.000 C 285.483 46.000,285.200 46.267,285.200 46.753 C 285.200 47.170,284.843 47.600,284.400 47.716 C 283.794 47.875,283.600 48.262,283.600 49.316 C 283.600 50.370,283.406 50.757,282.800 50.916 C 282.185 51.077,282.000 51.462,282.000 52.579 C 282.000 53.481,281.696 54.360,281.200 54.892 C 280.408 55.743,280.400 56.304,280.400 113.475 L 280.400 171.200 200.000 171.200 L 119.600 171.200 119.600 113.475 C 119.600 56.304,119.592 55.743,118.800 54.892 C 118.304 54.360,118.000 53.481,118.000 52.579 C 118.000 51.462,117.815 51.077,117.200 50.916 C 116.594 50.757,116.400 50.370,116.400 49.316 C 116.400 48.262,116.206 47.875,115.600 47.716 C 115.157 47.600,114.800 47.170,114.800 46.753 C 114.800 46.267,114.517 46.000,114.000 46.000 C 113.418 46.000,113.200 45.733,113.200 45.023 C 113.200 44.485,112.873 43.810,112.474 43.523 C 112.074 43.235,111.630 42.685,111.486 42.300 C 111.343 41.915,110.993 41.600,110.709 41.600 C 110.425 41.600,109.968 41.240,109.693 40.800 C 109.410 40.348,108.760 40.000,108.197 40.000 C 107.570 40.000,107.200 39.773,107.200 39.390 C 107.200 39.055,106.750 38.609,106.200 38.400 C 105.650 38.191,105.200 37.745,105.200 37.410 C 105.200 36.984,104.793 36.800,103.847 36.800 C 102.830 36.800,102.441 36.601,102.284 36.000 C 102.124 35.387,101.738 35.200,100.637 35.200 C 99.733 35.200,98.903 34.903,98.400 34.400 C 97.642 33.642,97.067 33.600,87.403 33.600 C 77.640 33.600,77.186 33.634,76.707 34.400 M92.354 56.460 C 92.879 56.867,93.554 57.200,93.854 57.200 C 94.154 57.200,94.400 57.470,94.400 57.800 C 94.400 58.130,94.740 58.400,95.155 58.400 C 95.698 58.400,95.983 58.784,96.166 59.761 C 96.307 60.510,96.687 61.224,97.011 61.349 C 97.408 61.501,97.600 62.156,97.600 63.355 C 97.600 65.514,97.903 66.400,98.643 66.400 C 99.694 66.400,99.452 264.450,98.400 265.107 C 97.772 265.499,97.600 266.040,97.600 267.616 C 97.600 269.016,97.422 269.694,97.011 269.851 C 96.687 269.976,96.307 270.690,96.166 271.439 C 95.983 272.416,95.698 272.800,95.155 272.800 C 94.667 272.800,94.400 273.082,94.400 273.600 C 94.400 274.180,94.133 274.400,93.429 274.400 C 92.894 274.400,92.142 274.715,91.757 275.100 C 90.725 276.132,83.730 276.132,83.152 275.100 C 82.917 274.680,82.288 274.400,81.580 274.400 C 80.667 274.400,80.400 274.219,80.400 273.600 C 80.400 273.067,80.133 272.800,79.600 272.800 C 79.078 272.800,78.800 272.533,78.800 272.033 C 78.800 270.841,78.369 270.000,77.757 270.000 C 77.342 270.000,77.200 269.379,77.200 267.563 C 77.200 265.462,77.090 265.096,76.400 264.916 C 75.607 264.709,75.600 264.370,75.600 228.153 C 75.600 195.928,75.529 191.600,75.000 191.600 C 74.667 191.600,74.400 191.244,74.400 190.800 C 74.400 190.267,74.133 190.000,73.600 190.000 C 73.067 190.000,72.800 189.733,72.800 189.200 C 72.800 188.578,72.533 188.400,71.603 188.400 C 70.840 188.400,70.226 188.110,69.907 187.600 C 69.464 186.891,68.974 186.800,65.600 186.800 C 62.226 186.800,61.736 186.891,61.293 187.600 C 61.010 188.052,60.360 188.400,59.797 188.400 C 59.067 188.400,58.800 188.614,58.800 189.200 C 58.800 189.733,58.533 190.000,58.000 190.000 C 57.467 190.000,57.200 190.267,57.200 190.800 C 57.200 191.333,56.933 191.600,56.400 191.600 C 55.640 191.600,55.600 191.867,55.600 196.953 C 55.600 201.970,55.550 202.320,54.800 202.516 C 54.132 202.691,54.000 203.062,54.000 204.763 C 54.000 206.267,53.791 207.009,53.200 207.600 C 52.760 208.040,52.400 208.739,52.400 209.153 C 52.400 209.570,52.043 210.000,51.600 210.116 C 51.160 210.231,50.800 210.612,50.800 210.963 C 50.800 211.333,50.465 211.600,50.000 211.600 C 49.560 211.600,48.840 211.960,48.400 212.400 C 47.378 213.422,39.848 213.622,39.470 212.638 C 39.351 212.328,38.702 211.954,38.027 211.806 C 37.317 211.650,36.800 211.281,36.800 210.931 C 36.800 210.598,36.450 210.234,36.023 210.122 C 35.578 210.006,35.140 209.437,34.998 208.793 C 34.862 208.173,34.492 207.567,34.176 207.446 C 33.769 207.290,33.600 206.564,33.600 204.975 C 33.600 203.062,33.480 202.694,32.800 202.516 C 31.538 202.186,31.538 129.014,32.800 128.684 C 33.475 128.508,33.600 128.138,33.600 126.326 C 33.600 124.673,33.784 124.020,34.400 123.493 C 34.840 123.116,35.200 122.446,35.200 122.004 C 35.200 121.535,35.466 121.200,35.837 121.200 C 36.188 121.200,36.569 120.840,36.684 120.400 C 36.800 119.957,37.230 119.600,37.647 119.600 C 38.061 119.600,38.760 119.240,39.200 118.800 C 39.888 118.112,40.533 118.000,43.800 118.000 C 47.067 118.000,47.712 118.112,48.400 118.800 C 48.840 119.240,49.560 119.600,50.000 119.600 C 50.533 119.600,50.800 119.867,50.800 120.400 C 50.800 120.933,51.067 121.200,51.600 121.200 C 52.186 121.200,52.400 121.467,52.400 122.197 C 52.400 122.760,52.748 123.410,53.200 123.693 C 53.838 124.091,54.000 124.626,54.000 126.334 C 54.000 128.138,54.126 128.508,54.800 128.684 C 55.584 128.889,55.600 129.230,55.600 145.884 C 55.600 162.538,55.616 162.879,56.400 163.084 C 56.843 163.200,57.200 163.630,57.200 164.047 C 57.200 164.518,57.482 164.800,57.953 164.800 C 58.370 164.800,58.800 165.157,58.916 165.600 C 59.241 166.842,71.959 166.842,72.284 165.600 C 72.399 165.160,72.820 164.800,73.220 164.800 C 73.619 164.800,74.055 164.457,74.188 164.037 C 74.321 163.617,74.694 163.173,75.015 163.050 C 75.524 162.854,75.600 156.547,75.600 114.659 C 75.600 66.830,75.606 66.492,76.400 66.284 C 77.075 66.108,77.200 65.738,77.200 63.926 C 77.200 62.273,77.384 61.620,78.000 61.093 C 78.440 60.716,78.800 59.956,78.800 59.404 C 78.800 58.667,79.013 58.400,79.600 58.400 C 80.044 58.400,80.400 58.133,80.400 57.800 C 80.400 57.467,80.756 57.200,81.200 57.200 C 81.640 57.200,82.349 56.851,82.776 56.424 C 84.139 55.061,90.581 55.085,92.354 56.460 M317.264 56.464 C 317.669 56.869,318.360 57.200,318.800 57.200 C 319.244 57.200,319.600 57.467,319.600 57.800 C 319.600 58.133,319.956 58.400,320.400 58.400 C 321.022 58.400,321.200 58.667,321.200 59.597 C 321.200 60.360,321.490 60.974,322.000 61.293 C 322.638 61.691,322.800 62.226,322.800 63.934 C 322.800 65.738,322.926 66.108,323.600 66.284 C 324.394 66.492,324.400 66.830,324.400 114.684 C 324.400 162.538,324.406 162.876,325.200 163.084 C 325.643 163.200,326.000 163.630,326.000 164.047 C 326.000 164.518,326.282 164.800,326.753 164.800 C 327.170 164.800,327.600 165.157,327.716 165.600 C 328.041 166.842,340.759 166.842,341.084 165.600 C 341.200 165.157,341.630 164.800,342.047 164.800 C 342.518 164.800,342.800 164.518,342.800 164.047 C 342.800 163.630,343.157 163.200,343.600 163.084 C 344.384 162.879,344.400 162.538,344.400 145.884 C 344.400 129.230,344.416 128.889,345.200 128.684 C 345.868 128.509,346.000 128.138,346.000 126.437 C 346.000 124.933,346.209 124.191,346.800 123.600 C 347.240 123.160,347.600 122.440,347.600 122.000 C 347.600 121.467,347.867 121.200,348.400 121.200 C 348.933 121.200,349.200 120.933,349.200 120.400 C 349.200 119.867,349.467 119.600,350.000 119.600 C 350.440 119.600,351.160 119.240,351.600 118.800 C 352.288 118.112,352.933 118.000,356.200 118.000 C 359.467 118.000,360.112 118.112,360.800 118.800 C 361.240 119.240,361.960 119.600,362.400 119.600 C 362.865 119.600,363.200 119.867,363.200 120.237 C 363.200 120.588,363.560 120.969,364.000 121.084 C 364.443 121.200,364.800 121.630,364.800 122.047 C 364.800 122.461,365.160 123.160,365.600 123.600 C 366.191 124.191,366.400 124.933,366.400 126.437 C 366.400 128.138,366.532 128.509,367.200 128.684 C 367.993 128.891,368.000 129.230,368.000 165.600 C 368.000 201.970,367.993 202.309,367.200 202.516 C 366.523 202.693,366.400 203.062,366.400 204.920 C 366.400 206.436,366.226 207.181,365.838 207.330 C 365.528 207.449,365.158 208.080,365.015 208.732 C 364.862 209.430,364.435 210.002,363.977 210.122 C 363.550 210.234,363.200 210.598,363.200 210.931 C 363.200 211.281,362.683 211.650,361.973 211.806 C 361.298 211.954,360.649 212.328,360.530 212.638 C 360.152 213.622,352.622 213.422,351.600 212.400 C 351.160 211.960,350.440 211.600,350.000 211.600 C 349.535 211.600,349.200 211.333,349.200 210.963 C 349.200 210.612,348.840 210.231,348.400 210.116 C 347.955 210.000,347.600 209.570,347.600 209.149 C 347.600 208.733,347.240 208.084,346.800 207.707 C 346.184 207.180,346.000 206.527,346.000 204.874 C 346.000 203.062,345.875 202.692,345.200 202.516 C 344.459 202.322,344.400 201.970,344.400 197.753 C 344.400 193.467,344.353 193.200,343.600 193.200 C 343.067 193.200,342.800 192.933,342.800 192.400 C 342.800 191.867,342.533 191.600,342.000 191.600 C 341.467 191.600,341.200 191.333,341.200 190.800 C 341.200 190.031,340.933 190.000,334.400 190.000 C 327.867 190.000,327.600 190.031,327.600 190.800 C 327.600 191.317,327.333 191.600,326.847 191.600 C 326.430 191.600,326.000 191.957,325.884 192.400 C 325.769 192.840,325.388 193.200,325.037 193.200 C 324.459 193.200,324.400 196.506,324.400 228.953 C 324.400 264.370,324.392 264.709,323.600 264.916 C 322.921 265.093,322.800 265.462,322.800 267.348 C 322.800 269.162,322.653 269.651,322.000 270.000 C 321.476 270.280,321.200 270.838,321.200 271.614 C 321.200 272.533,321.020 272.800,320.400 272.800 C 319.867 272.800,319.600 273.067,319.600 273.600 C 319.600 274.219,319.333 274.400,318.420 274.400 C 317.712 274.400,317.083 274.680,316.848 275.100 C 316.270 276.132,309.275 276.132,308.243 275.100 C 307.858 274.715,307.106 274.400,306.571 274.400 C 305.867 274.400,305.600 274.180,305.600 273.600 C 305.600 273.067,305.333 272.800,304.800 272.800 C 304.267 272.800,304.000 272.533,304.000 272.000 C 304.000 271.560,303.640 270.840,303.200 270.400 C 302.614 269.814,302.400 269.067,302.400 267.603 C 302.400 266.040,302.226 265.498,301.600 265.107 C 300.548 264.450,300.306 66.400,301.357 66.400 C 302.080 66.400,302.400 65.520,302.400 63.530 C 302.400 62.532,302.702 61.542,303.200 60.909 C 303.640 60.350,304.000 59.556,304.000 59.146 C 304.000 58.667,304.286 58.400,304.800 58.400 C 305.244 58.400,305.600 58.133,305.600 57.800 C 305.600 57.470,305.846 57.200,306.146 57.200 C 306.446 57.200,307.133 56.853,307.673 56.429 C 309.411 55.061,315.885 55.085,317.264 56.464 M280.400 200.000 L 280.400 208.400 211.000 208.400 L 141.600 208.400 141.600 200.000 L 141.600 191.600 211.000 191.600 L 280.400 191.600 280.400 200.000 " stroke="none" fill="#040404" fill-rule="evenodd"></path><path id="path1" d="" stroke="none" fill="#080404" fill-rule="evenodd"></path><path id="path2" d="" stroke="none" fill="#080404" fill-rule="evenodd"></path><path id="path3" d="" stroke="none" fill="#080404" fill-rule="evenodd"></path><path id="path4" d="" stroke="none" fill="#080404" fill-rule="evenodd"></path></g></svg>