<svg id="svg" version="1.1" xmlns="http://www.w3.org/2000/svg" xmlns:xlink="http://www.w3.org/1999/xlink" width="400" height="400" viewBox="0, 0, 400,400"><g id="svgg"><path id="path0" d="M86.000 1.000 C 86.000 1.891,85.835 2.000,84.480 2.000 C 81.960 2.000,82.000 1.800,82.000 14.472 L 82.000 25.985 80.900 26.216 C 78.040 26.818,78.106 26.459,78.047 41.842 L 78.000 54.284 76.700 54.656 C 74.281 55.349,74.214 55.791,74.077 71.849 L 73.955 86.297 72.677 86.663 C 70.127 87.393,70.200 86.507,70.200 116.839 C 70.200 146.782,70.092 145.441,72.530 145.677 C 73.756 145.796,73.808 145.878,74.038 148.017 C 74.357 150.981,75.132 152.482,76.700 153.172 C 77.864 153.684,78.000 153.917,78.000 155.392 C 78.000 157.431,78.536 158.000,80.458 158.000 L 81.956 158.000 82.078 159.900 L 82.200 161.800 84.100 161.922 L 86.000 162.044 86.017 163.722 C 86.062 168.001,86.824 169.582,88.848 169.594 C 89.794 169.599,89.916 169.777,90.101 171.420 C 90.350 173.628,90.337 173.614,92.367 173.886 C 93.941 174.097,94.000 174.158,94.000 175.573 C 94.000 177.436,94.577 178.000,96.480 178.000 L 98.000 178.000 98.000 222.969 L 98.000 267.938 96.338 269.360 C 93.954 271.401,94.050 268.894,94.024 329.671 C 93.997 390.731,93.780 386.000,96.607 386.000 C 97.932 386.000,97.958 386.033,98.078 387.896 C 98.176 389.427,98.354 389.820,99.000 389.935 C 100.100 390.131,101.933 391.929,102.079 392.955 C 102.180 393.657,102.518 393.821,104.079 393.921 L 105.958 394.042 106.079 395.921 L 106.200 397.800 108.700 397.919 C 111.055 398.031,111.200 398.095,111.200 399.019 L 111.200 400.000 136.000 400.000 L 160.800 400.000 160.800 399.019 C 160.800 398.095,160.945 398.031,163.300 397.919 L 165.800 397.800 165.921 395.921 L 166.042 394.042 167.921 393.921 L 169.800 393.800 169.921 391.921 L 170.042 390.042 171.921 389.921 L 173.800 389.800 173.922 387.900 C 174.042 386.033,174.067 386.000,175.393 386.000 C 178.245 386.000,178.031 390.794,177.910 329.662 C 177.788 268.456,177.957 272.118,175.210 271.081 L 174.007 270.627 173.903 226.414 C 173.847 202.096,173.854 181.255,173.921 180.100 L 174.042 178.000 175.541 178.000 C 177.424 178.000,178.000 177.431,178.000 175.571 C 178.000 174.165,178.069 174.091,179.612 173.844 C 181.300 173.575,182.000 172.636,182.000 170.645 C 182.000 169.935,182.319 169.662,183.489 169.371 C 185.188 168.948,185.913 167.355,185.969 163.922 L 186.000 162.044 187.900 161.922 L 189.800 161.800 189.922 159.900 C 190.042 158.033,190.067 158.000,191.393 158.000 C 193.297 158.000,194.000 157.129,194.000 154.771 C 194.000 153.401,194.162 152.800,194.530 152.800 C 195.153 152.800,196.800 151.143,196.800 150.517 C 196.800 150.280,197.070 149.982,197.400 149.855 C 197.823 149.693,198.000 149.032,198.000 147.613 L 198.000 145.600 199.351 145.600 C 201.918 145.600,201.800 146.981,201.800 117.039 C 201.800 87.005,201.879 87.963,199.319 86.836 L 198.037 86.272 197.919 72.036 C 197.788 56.337,197.721 55.894,195.332 54.842 L 194.065 54.283 193.932 41.003 C 193.787 26.373,193.791 26.400,191.351 26.400 L 190.000 26.400 190.000 14.680 C 190.000 1.782,190.043 2.000,187.520 2.000 C 186.165 2.000,186.000 1.891,186.000 1.000 L 186.000 0.000 136.000 0.000 L 86.000 0.000 86.000 1.000 M286.400 0.979 C 286.400 1.878,286.228 1.968,284.300 2.079 L 282.200 2.200 282.079 4.079 L 281.958 5.958 280.079 6.079 L 278.200 6.200 278.078 8.100 L 277.956 10.000 276.166 10.000 C 274.943 10.000,274.302 10.190,274.145 10.600 C 274.018 10.930,273.695 11.200,273.427 11.200 C 272.817 11.200,271.200 12.888,271.200 13.526 C 271.200 13.787,270.930 14.000,270.600 14.000 C 270.240 14.000,270.000 14.369,270.000 14.925 C 270.000 15.973,268.206 17.850,267.000 18.065 C 266.356 18.179,266.176 18.573,266.079 20.083 L 265.958 21.958 264.079 22.079 L 262.200 22.200 262.078 24.100 L 261.956 26.000 260.458 26.000 C 258.452 26.000,258.000 26.567,258.000 29.080 C 258.000 30.574,257.843 31.200,257.470 31.200 C 256.847 31.200,255.200 32.857,255.200 33.483 C 255.200 33.720,254.930 34.018,254.600 34.145 C 254.189 34.302,254.000 34.945,254.000 36.187 C 254.000 37.985,253.989 38.000,252.629 38.000 C 250.434 38.000,250.000 38.763,250.000 42.629 L 250.000 46.000 248.480 46.000 C 246.268 46.000,246.000 46.479,246.000 50.423 L 246.000 53.886 244.318 54.243 C 242.221 54.688,242.093 55.081,242.040 61.243 L 242.000 65.886 240.318 66.243 C 237.956 66.744,238.081 64.594,238.072 105.000 C 238.063 145.639,238.010 144.756,240.500 145.371 L 242.000 145.741 242.047 152.171 C 242.112 160.938,242.194 161.214,244.900 161.784 L 246.000 162.015 246.000 167.379 C 246.000 173.411,246.234 174.000,248.629 174.000 L 250.000 174.000 250.031 177.900 C 250.073 183.269,250.602 184.895,252.456 185.357 L 253.889 185.714 254.128 189.096 C 254.396 192.895,254.714 193.501,256.530 193.677 L 257.800 193.800 258.076 197.130 C 258.371 200.684,258.793 201.596,260.149 201.606 C 261.529 201.616,261.878 202.086,262.076 204.204 C 262.332 206.936,263.154 208.492,264.700 209.172 L 266.000 209.744 266.017 213.772 C 266.115 236.808,265.924 249.801,265.483 250.081 C 265.217 250.250,264.617 250.391,264.149 250.394 C 262.311 250.407,262.208 251.026,262.072 262.860 L 261.944 274.000 260.363 274.252 C 258.131 274.609,258.220 274.061,258.000 288.800 L 257.800 302.200 256.530 302.323 C 254.065 302.562,254.210 300.059,254.089 344.307 C 253.968 388.528,253.829 386.000,256.390 386.000 L 257.881 386.000 258.132 389.248 C 258.403 392.770,258.801 393.600,260.216 393.600 C 261.777 393.600,262.400 394.038,262.406 395.143 C 262.418 397.180,263.992 397.938,268.300 397.983 C 269.842 397.998,270.000 398.093,270.000 399.000 L 270.000 400.000 292.000 400.000 L 314.000 400.000 314.000 399.000 C 314.000 398.093,314.158 397.998,315.700 397.983 C 320.008 397.938,321.582 397.180,321.594 395.143 C 321.600 394.038,322.223 393.600,323.784 393.600 C 325.199 393.600,325.597 392.770,325.868 389.248 L 326.119 386.000 327.610 386.000 C 328.431 386.000,329.305 385.756,329.552 385.457 C 330.330 384.520,329.981 10.161,329.200 8.600 C 328.870 7.940,328.015 7.143,327.300 6.828 C 326.166 6.329,326.000 6.064,326.000 4.756 C 326.000 2.890,325.151 2.000,323.371 2.000 C 322.175 2.000,322.000 1.872,322.000 1.000 L 322.000 0.000 304.200 0.000 L 286.400 0.000 286.400 0.979 M110.099 73.900 L 110.200 129.800 120.000 129.800 L 129.800 129.800 129.901 73.900 L 130.003 18.000 136.000 18.000 L 141.997 18.000 142.099 73.900 L 142.200 129.800 152.000 129.800 L 161.800 129.800 161.901 73.900 L 162.003 18.000 163.951 18.000 L 165.899 18.000 166.072 24.983 C 166.264 32.714,166.550 33.600,168.862 33.600 L 170.000 33.600 170.000 46.574 C 170.000 61.153,170.049 61.470,172.358 61.840 L 173.941 62.093 174.070 77.005 C 174.214 93.541,174.224 93.600,176.862 93.600 L 178.000 93.600 178.000 113.800 L 178.000 134.000 176.629 134.000 C 174.437 134.000,174.000 134.765,174.000 138.607 L 174.000 141.956 172.100 142.078 L 170.200 142.200 170.078 144.100 C 169.958 145.967,169.933 146.000,168.607 146.000 C 166.887 146.000,166.000 146.892,166.000 148.621 C 166.000 149.786,165.840 150.018,164.900 150.216 C 162.983 150.620,162.609 151.031,162.244 153.141 C 162.048 154.273,161.699 155.200,161.470 155.200 C 160.876 155.200,159.200 156.845,159.200 157.427 C 159.200 157.695,158.930 158.018,158.600 158.145 C 158.190 158.302,158.000 158.943,158.000 160.166 L 158.000 161.956 156.100 162.078 L 154.200 162.200 154.079 164.079 L 153.958 165.958 152.079 166.079 L 150.200 166.200 150.200 218.600 C 150.200 275.888,150.073 272.952,152.568 273.420 L 153.972 273.684 154.086 320.542 C 154.149 346.314,154.141 368.885,154.070 370.700 L 153.939 374.000 152.450 374.000 C 150.576 374.000,150.000 374.571,150.000 376.430 L 150.000 377.899 143.000 378.073 C 139.150 378.168,132.850 378.168,129.000 378.073 L 122.000 377.899 122.000 376.430 C 122.000 374.572,121.424 374.000,119.552 374.000 L 118.063 374.000 117.932 370.900 C 117.859 369.195,117.853 346.629,117.917 320.753 L 118.034 273.706 119.317 273.339 C 121.956 272.583,121.800 276.025,121.800 218.400 L 121.800 166.200 119.921 166.079 L 118.042 165.958 117.921 164.079 L 117.800 162.200 115.900 162.078 L 114.000 161.956 114.000 159.978 C 114.000 158.890,113.859 158.000,113.688 158.000 C 113.516 158.000,113.167 157.449,112.913 156.775 C 112.624 156.008,112.003 155.381,111.254 155.098 C 110.265 154.725,110.002 154.340,109.729 152.866 C 109.389 151.026,108.977 150.611,107.100 150.216 C 106.160 150.018,106.000 149.786,106.000 148.621 C 106.000 146.892,105.113 146.000,103.393 146.000 C 102.067 146.000,102.042 145.967,101.922 144.100 L 101.800 142.200 99.939 142.080 L 98.078 141.959 97.939 138.413 C 97.780 134.351,97.809 134.406,95.633 134.114 L 94.000 133.895 94.000 113.818 L 94.000 93.741 95.500 93.371 C 97.780 92.807,97.930 91.737,97.968 75.757 L 98.000 62.114 99.682 61.757 C 101.953 61.275,101.914 61.540,101.960 46.500 L 102.000 33.600 102.924 33.600 C 105.388 33.600,105.957 31.723,105.983 23.500 L 106.000 18.000 107.999 18.000 L 109.997 18.000 110.099 73.900 M306.076 26.300 C 306.287 31.353,306.829 32.808,308.700 33.344 L 310.000 33.716 310.000 200.058 L 310.000 366.400 308.649 366.400 C 306.768 366.400,306.453 366.972,306.149 370.932 C 305.889 374.303,305.854 374.400,304.872 374.400 C 303.495 374.400,302.400 375.490,302.400 376.862 L 302.400 378.000 298.100 378.088 C 293.224 378.187,282.275 377.972,282.054 377.772 C 281.973 377.700,281.789 377.064,281.645 376.358 C 281.370 375.014,280.873 374.588,279.170 374.234 C 277.945 373.979,277.136 368.024,277.671 363.200 C 277.829 361.770,277.968 349.157,277.979 335.171 L 278.000 309.741 279.500 309.371 C 281.736 308.818,281.930 307.588,281.968 293.708 L 282.000 282.015 283.100 281.784 C 285.920 281.190,285.893 281.321,285.953 268.308 L 286.000 258.015 287.100 257.784 C 290.082 257.156,289.904 259.061,289.913 227.600 C 289.921 197.354,290.026 198.740,287.682 198.243 L 286.000 197.886 285.960 195.243 C 285.899 191.207,285.651 190.661,283.682 190.243 L 282.000 189.886 281.953 187.643 C 281.863 183.410,281.502 182.722,279.100 182.216 C 278.049 181.995,277.998 181.873,277.953 179.492 C 277.871 175.198,277.644 174.674,275.698 174.289 L 274.000 173.953 274.000 170.456 C 274.000 166.476,273.735 166.000,271.520 166.000 L 270.000 166.000 270.000 160.629 C 270.000 154.588,269.767 154.000,267.371 154.000 L 266.000 154.000 265.953 147.500 C 265.890 138.948,265.833 138.711,263.737 138.296 L 262.077 137.968 261.835 118.684 C 261.702 108.078,261.589 98.860,261.584 98.200 C 261.579 97.540,261.691 91.825,261.832 85.500 L 262.090 74.000 263.416 74.000 C 265.583 74.000,266.000 73.231,266.000 69.229 L 266.000 65.716 267.300 65.344 C 269.053 64.842,269.708 63.339,269.922 59.328 C 270.108 55.852,270.999 54.292,273.000 53.935 C 273.642 53.821,273.824 53.427,273.920 51.944 C 274.038 50.125,274.065 50.092,275.632 49.841 C 277.595 49.527,278.000 48.664,278.000 44.796 L 278.000 42.044 279.900 41.922 L 281.800 41.800 281.922 39.900 L 282.044 38.000 283.542 38.000 C 285.436 38.000,286.000 37.431,286.000 35.520 C 286.000 34.056,286.050 34.000,287.371 34.000 C 289.114 34.000,290.000 33.114,290.000 31.371 C 290.000 30.050,290.056 30.000,291.520 30.000 C 293.431 30.000,294.000 29.436,294.000 27.542 L 294.000 26.044 295.900 25.922 L 297.800 25.800 297.922 23.900 L 298.044 22.000 301.971 22.000 L 305.897 22.000 306.076 26.300 " stroke="none" fill="#040404" fill-rule="evenodd"></path><path id="path1" d="" stroke="none" fill="#080404" fill-rule="evenodd"></path><path id="path2" d="" stroke="none" fill="#080404" fill-rule="evenodd"></path><path id="path3" d="" stroke="none" fill="#080404" fill-rule="evenodd"></path><path id="path4" d="" stroke="none" fill="#080404" fill-rule="evenodd"></path></g></svg>