<svg id="svg" version="1.1" xmlns="http://www.w3.org/2000/svg" xmlns:xlink="http://www.w3.org/1999/xlink" width="400" height="400" viewBox="0, 0, 400,400"><g id="svgg"><path id="path0" d="M223.098 142.171 C 221.067 142.896,218.819 144.803,214.785 149.224 C 212.923 151.264,198.093 166.288,181.830 182.610 C 165.566 198.932,152.111 212.689,151.929 213.180 C 151.136 215.324,145.619 241.358,145.228 244.800 C 144.991 246.890,144.534 249.680,144.213 251.000 C 142.903 256.382,143.322 256.894,148.171 255.834 C 149.947 255.446,152.750 254.945,154.400 254.720 C 157.752 254.263,179.742 249.595,184.400 248.352 C 191.754 246.389,191.482 245.488,179.900 233.421 C 177.085 230.489,174.800 227.773,174.800 227.361 C 174.800 226.520,227.727 173.341,228.951 172.952 C 229.523 172.771,230.807 173.804,234.351 177.298 C 236.908 179.820,240.080 182.699,241.400 183.697 C 242.720 184.695,244.236 185.981,244.770 186.556 C 246.594 188.520,247.626 188.095,252.247 183.474 C 261.419 174.302,261.134 173.414,243.284 155.575 C 228.616 140.917,227.916 140.452,223.098 142.171 M229.000 143.356 C 231.191 144.395,254.233 167.234,255.929 170.048 C 258.255 173.910,257.351 176.995,252.371 182.182 C 247.373 187.388,248.200 187.654,237.685 177.448 C 234.008 173.879,230.190 170.399,229.200 169.714 C 228.210 169.030,224.205 165.248,220.300 161.310 C 211.478 152.413,211.665 153.326,217.500 147.581 C 222.989 142.177,224.974 141.448,229.000 143.356 M163.789 219.361 C 178.059 233.899,187.600 244.334,187.600 245.404 C 187.600 247.173,161.819 253.354,154.860 253.253 C 152.588 253.220,150.173 253.444,148.705 253.825 C 145.567 254.638,145.355 254.397,146.145 250.920 C 146.581 249.004,146.705 247.132,146.550 244.781 C 146.190 239.307,152.332 212.176,154.092 211.468 C 155.362 210.957,156.245 211.676,163.789 219.361 " stroke="none" fill="#33d690" fill-rule="evenodd"></path><path id="path1" d="M223.200 142.915 C 221.013 143.591,213.200 151.456,213.200 152.982 C 213.200 154.270,225.564 167.200,229.200 169.714 C 230.190 170.399,234.008 173.879,237.685 177.448 C 248.200 187.654,247.373 187.388,252.371 182.182 C 260.140 174.089,259.937 173.530,243.028 156.452 C 228.828 142.111,227.884 141.466,223.200 142.915 M154.092 211.468 C 152.332 212.176,146.190 239.307,146.550 244.781 C 146.705 247.132,146.581 249.004,146.145 250.920 C 145.355 254.397,145.567 254.638,148.705 253.825 C 150.173 253.444,152.588 253.220,154.860 253.253 C 161.819 253.354,187.600 247.173,187.600 245.404 C 187.600 244.334,178.059 233.899,163.789 219.361 C 156.245 211.676,155.362 210.957,154.092 211.468 " stroke="none" fill="#f5f5f5" fill-rule="evenodd"></path><path id="path2" d="M182.999 181.300 L 155.000 209.400 183.100 181.401 C 209.222 155.373,211.379 153.200,211.099 153.200 C 211.043 153.200,198.398 165.845,182.999 181.300 M201.703 199.703 C 185.219 216.187,174.800 226.897,174.800 227.357 C 174.800 227.773,177.074 230.485,179.900 233.440 C 186.202 240.031,188.607 242.742,189.280 244.015 C 189.791 244.982,190.321 244.477,218.412 216.300 C 234.149 200.515,246.735 187.600,246.382 187.600 C 246.029 187.600,245.303 187.129,244.770 186.553 C 244.236 185.977,242.450 184.463,240.800 183.189 C 239.150 181.914,236.003 179.056,233.808 176.836 C 231.612 174.616,229.543 172.800,229.211 172.800 C 228.879 172.800,216.500 184.906,201.703 199.703 " stroke="none" fill="#09b564" fill-rule="evenodd"></path><path id="path3" d="M220.892 132.620 C 217.463 133.543,213.767 135.700,214.257 136.492 C 214.404 136.730,214.339 136.810,214.114 136.671 C 213.657 136.388,185.743 164.248,185.900 164.830 C 185.955 165.034,185.775 165.155,185.500 165.100 C 185.225 165.045,185.049 165.238,185.110 165.530 C 185.170 165.821,185.059 165.960,184.863 165.839 C 184.380 165.541,183.120 166.979,183.499 167.397 C 183.665 167.579,183.595 167.611,183.345 167.469 C 182.794 167.154,181.886 168.140,182.303 168.601 C 182.467 168.781,182.395 168.811,182.145 168.669 C 181.594 168.354,180.686 169.340,181.103 169.801 C 181.267 169.981,181.208 170.019,180.973 169.886 C 180.432 169.578,169.462 180.529,169.886 180.953 C 170.059 181.125,169.930 181.207,169.600 181.133 C 169.268 181.060,169.049 181.236,169.110 181.530 C 169.170 181.821,169.062 181.962,168.869 181.842 C 168.364 181.530,145.548 204.793,145.862 205.300 C 146.008 205.537,145.935 205.607,145.696 205.459 C 145.143 205.118,143.452 207.837,143.834 208.455 C 144.015 208.748,143.950 208.817,143.662 208.638 C 143.234 208.374,143.165 208.535,143.040 210.100 C 143.018 210.375,142.877 210.693,142.728 210.806 C 142.319 211.117,139.175 225.636,139.428 226.046 C 139.549 226.241,139.473 226.400,139.261 226.400 C 138.921 226.400,138.227 229.561,138.207 231.200 C 138.203 231.530,138.068 231.899,137.906 232.020 C 137.745 232.140,137.547 232.969,137.467 233.860 C 137.387 234.751,137.225 235.642,137.108 235.840 C 136.713 236.509,135.566 242.099,135.780 242.314 C 135.897 242.431,135.803 242.756,135.570 243.036 C 135.337 243.317,135.114 244.187,135.073 244.971 C 135.033 245.755,134.882 246.397,134.738 246.398 C 134.493 246.400,133.824 249.855,133.807 251.200 C 133.803 251.530,133.668 251.899,133.506 252.020 C 133.345 252.140,133.141 252.950,133.053 253.820 C 132.965 254.689,132.766 255.706,132.611 256.081 C 132.456 256.455,132.463 256.978,132.626 257.243 C 132.815 257.547,132.754 257.619,132.462 257.438 C 132.136 257.237,132.000 257.754,132.000 259.200 C 132.000 260.326,132.135 261.164,132.300 261.063 C 132.465 260.962,132.620 261.414,132.644 262.069 C 132.692 263.367,134.066 265.460,134.764 265.300 C 135.004 265.245,135.155 265.399,135.100 265.643 C 134.842 266.783,140.610 268.510,142.278 267.792 C 142.675 267.621,143.405 267.521,143.900 267.569 C 144.395 267.618,144.801 267.509,144.802 267.329 C 144.803 267.148,145.568 266.956,146.501 266.902 C 147.435 266.848,148.259 266.622,148.334 266.399 C 148.408 266.177,148.612 266.084,148.787 266.192 C 149.282 266.498,155.600 265.132,155.600 264.719 C 155.600 264.518,155.759 264.451,155.953 264.571 C 156.412 264.855,162.800 263.575,162.800 263.199 C 162.800 263.040,163.250 262.997,163.800 263.102 C 164.350 263.207,164.801 263.137,164.802 262.947 C 164.803 262.756,165.557 262.557,166.476 262.504 C 167.396 262.451,168.250 262.271,168.374 262.104 C 168.498 261.937,169.317 261.742,170.194 261.671 C 171.071 261.600,171.881 261.420,171.994 261.271 C 172.107 261.122,172.917 260.942,173.794 260.871 C 174.671 260.800,175.481 260.620,175.594 260.471 C 175.707 260.322,176.070 260.197,176.400 260.193 C 177.903 260.174,181.200 259.492,181.200 259.200 C 181.200 259.021,181.560 258.969,182.000 259.084 C 182.440 259.199,182.800 259.117,182.800 258.902 C 182.800 258.687,183.250 258.597,183.800 258.702 C 184.350 258.807,184.800 258.709,184.800 258.484 C 184.800 258.259,185.160 258.169,185.600 258.284 C 186.040 258.399,186.400 258.309,186.400 258.084 C 186.400 257.859,186.760 257.769,187.200 257.884 C 187.640 257.999,188.000 257.909,188.000 257.684 C 188.000 257.459,188.333 257.362,188.740 257.469 C 189.148 257.575,189.756 257.387,190.093 257.050 C 190.429 256.714,190.808 256.541,190.934 256.668 C 191.552 257.286,198.480 252.035,198.291 251.092 C 198.241 250.841,198.470 250.620,198.800 250.600 C 199.130 250.580,199.355 250.347,199.300 250.082 C 199.245 249.817,199.425 249.645,199.700 249.700 C 199.975 249.755,200.151 249.562,200.090 249.270 C 200.030 248.979,200.134 248.835,200.321 248.951 C 200.807 249.251,205.287 244.626,204.911 244.213 C 204.740 244.025,204.794 243.982,205.032 244.117 C 205.585 244.432,209.724 240.268,209.310 239.813 C 209.140 239.625,209.201 239.586,209.447 239.726 C 209.906 239.988,211.121 238.913,211.171 238.200 C 211.187 237.980,211.335 237.797,211.500 237.794 C 212.095 237.782,212.808 237.137,212.600 236.800 C 212.483 236.610,212.598 236.325,212.855 236.166 C 213.172 235.970,213.219 236.058,213.000 236.438 C 212.822 236.747,213.238 236.477,213.924 235.839 C 214.610 235.200,215.060 234.497,214.924 234.277 C 214.788 234.057,214.854 233.986,215.070 234.120 C 215.590 234.441,219.712 230.254,219.310 229.813 C 219.140 229.625,219.201 229.586,219.447 229.726 C 219.870 229.968,221.111 228.942,221.171 228.300 C 221.187 228.135,221.335 227.985,221.500 227.966 C 222.063 227.902,222.792 227.110,222.589 226.782 C 222.478 226.602,222.598 226.325,222.855 226.166 C 223.172 225.970,223.219 226.058,223.000 226.438 C 222.822 226.747,223.238 226.477,223.924 225.839 C 224.610 225.200,225.060 224.497,224.924 224.277 C 224.788 224.057,224.854 223.986,225.070 224.120 C 225.590 224.441,229.712 220.254,229.310 219.813 C 229.140 219.625,229.201 219.586,229.447 219.726 C 229.852 219.957,231.536 218.532,231.300 218.158 C 231.245 218.071,231.262 218.045,231.339 218.100 C 231.628 218.309,232.782 217.094,232.589 216.782 C 232.478 216.602,232.598 216.325,232.855 216.166 C 233.172 215.970,233.219 216.058,233.000 216.438 C 232.822 216.747,233.238 216.477,233.924 215.839 C 234.610 215.200,235.060 214.497,234.924 214.277 C 234.788 214.057,234.854 213.986,235.070 214.120 C 235.578 214.433,239.721 210.255,239.310 209.844 C 239.140 209.673,239.270 209.593,239.600 209.667 C 239.930 209.740,240.155 209.575,240.100 209.300 C 240.045 209.025,240.217 208.845,240.482 208.900 C 240.747 208.955,240.972 208.775,240.982 208.500 C 240.992 208.225,241.180 207.985,241.400 207.966 C 242.036 207.912,242.811 207.141,242.589 206.782 C 242.478 206.602,242.598 206.325,242.855 206.166 C 243.172 205.970,243.219 206.058,243.000 206.438 C 242.822 206.747,243.238 206.477,243.924 205.839 C 244.610 205.200,245.060 204.497,244.924 204.277 C 244.788 204.057,244.854 203.986,245.070 204.120 C 245.590 204.441,249.712 200.254,249.310 199.813 C 249.140 199.625,249.201 199.586,249.447 199.726 C 249.906 199.988,251.121 198.913,251.171 198.200 C 251.187 197.980,251.335 197.797,251.500 197.794 C 252.095 197.782,252.808 197.137,252.600 196.800 C 252.483 196.610,252.598 196.325,252.855 196.166 C 253.172 195.970,253.219 196.058,253.000 196.438 C 252.822 196.747,253.238 196.477,253.924 195.839 C 254.610 195.200,255.060 194.497,254.924 194.277 C 254.788 194.057,254.854 193.986,255.070 194.120 C 255.590 194.441,259.712 190.254,259.310 189.813 C 259.140 189.625,259.201 189.586,259.447 189.726 C 259.987 190.035,261.327 188.660,260.901 188.234 C 260.735 188.069,260.848 187.993,261.151 188.067 C 261.854 188.237,265.306 184.095,264.946 183.513 C 264.798 183.273,264.858 183.189,265.080 183.326 C 265.581 183.635,266.509 181.700,266.143 181.108 C 265.985 180.851,266.064 180.792,266.338 180.962 C 266.617 181.134,266.827 180.960,266.868 180.524 C 267.013 178.994,267.094 178.578,267.378 177.919 C 267.539 177.545,267.554 177.050,267.412 176.819 C 267.269 176.589,267.367 176.400,267.629 176.400 C 268.244 176.400,267.924 170.673,267.264 169.878 C 267.013 169.574,266.902 169.232,267.018 169.116 C 269.466 166.667,234.251 131.114,231.228 132.983 C 230.993 133.128,230.800 133.036,230.800 132.777 C 230.800 132.504,230.465 132.394,230.000 132.516 C 229.560 132.631,229.200 132.562,229.200 132.363 C 229.200 131.801,223.250 131.985,220.892 132.620 M228.629 142.250 C 231.415 143.167,255.377 166.981,256.980 170.425 C 259.391 175.604,256.414 181.008,247.400 187.818 C 245.860 188.981,231.655 202.916,215.834 218.786 L 187.068 247.639 184.234 248.396 C 179.715 249.603,157.695 254.270,154.400 254.720 C 152.750 254.945,149.947 255.446,148.171 255.834 C 143.322 256.894,142.903 256.382,144.213 251.000 C 144.534 249.680,144.991 246.890,145.228 244.800 C 145.647 241.113,151.186 215.141,152.024 212.936 C 152.375 212.014,217.949 145.694,220.740 143.439 C 222.955 141.648,225.596 141.250,228.629 142.250 M178.400 172.522 C 178.400 172.588,177.725 173.263,176.900 174.022 L 175.400 175.400 176.778 173.900 C 178.062 172.504,178.400 172.216,178.400 172.522 M175.200 175.713 C 175.200 175.774,174.075 176.899,172.700 178.213 L 170.200 180.600 172.587 178.100 C 174.805 175.778,175.200 175.417,175.200 175.713 " stroke="none" fill="#434b53" fill-rule="evenodd"></path><path id="path4" d="M191.000 94.383 C 143.536 97.523,101.738 136.456,95.217 183.600 C 94.989 185.250,94.598 187.860,94.349 189.400 C 93.758 193.051,93.759 211.762,94.351 215.400 C 94.601 216.940,95.004 219.640,95.246 221.400 C 96.311 229.155,99.987 241.092,103.868 249.400 C 135.221 316.507,220.341 331.598,272.974 279.381 C 292.866 259.647,304.167 230.098,303.488 199.600 C 302.100 137.360,251.849 90.357,191.000 94.383 M205.000 102.816 C 281.504 109.316,321.369 198.015,276.272 261.393 C 244.305 306.319,183.225 315.462,140.457 281.724 C 91.947 243.457,89.157 170.468,134.584 128.089 C 153.565 110.382,180.456 100.731,205.000 102.816 M222.400 131.630 C 216.338 132.655,217.770 131.381,179.824 169.487 C 155.659 193.752,144.974 204.747,143.972 206.380 C 142.265 209.162,142.053 209.940,138.200 227.600 C 134.734 243.484,134.786 243.250,133.148 250.400 C 131.063 259.499,131.179 262.581,133.713 265.468 C 137.243 269.488,138.028 269.436,165.668 263.355 C 189.452 258.123,191.511 257.569,194.442 255.613 C 198.673 252.789,265.396 185.157,266.540 182.534 C 267.860 179.504,268.489 176.268,268.295 173.497 C 268.159 171.555,268.143 171.601,268.074 174.124 C 268.028 175.799,267.848 176.753,267.605 176.603 C 267.381 176.464,267.309 176.619,267.440 176.960 C 267.567 177.291,267.527 177.795,267.350 178.080 C 267.174 178.366,267.009 178.869,266.983 179.200 C 266.841 181.041,266.772 181.230,266.338 180.962 C 266.064 180.792,265.985 180.851,266.143 181.108 C 266.509 181.700,265.581 183.635,265.080 183.326 C 264.858 183.189,264.798 183.273,264.946 183.513 C 265.283 184.058,261.878 188.240,261.221 188.090 C 260.957 188.030,260.840 188.141,260.961 188.337 C 261.253 188.809,259.821 190.088,259.434 189.701 C 259.269 189.535,259.193 189.662,259.267 189.982 C 259.340 190.302,259.190 190.572,258.933 190.582 C 258.369 190.604,257.800 191.131,257.800 191.633 C 257.800 191.835,257.684 191.955,257.542 191.900 C 257.124 191.738,255.624 193.255,255.716 193.748 C 255.762 193.996,255.575 194.155,255.300 194.100 C 255.025 194.045,254.845 194.217,254.900 194.482 C 254.955 194.747,254.730 194.972,254.400 194.982 C 254.070 194.992,253.800 195.270,253.800 195.600 C 253.800 195.930,253.530 196.200,253.200 196.200 C 252.870 196.200,252.600 196.410,252.600 196.667 C 252.600 197.225,252.076 197.800,251.567 197.800 C 251.365 197.800,251.187 197.980,251.171 198.200 C 251.125 198.852,249.923 199.999,249.537 199.761 C 249.341 199.640,249.230 199.771,249.290 200.052 C 249.351 200.333,249.190 200.572,248.933 200.582 C 248.369 200.604,247.800 201.131,247.800 201.633 C 247.800 201.835,247.684 201.955,247.542 201.900 C 247.124 201.738,245.624 203.255,245.716 203.748 C 245.762 203.996,245.575 204.155,245.300 204.100 C 245.025 204.045,244.845 204.217,244.900 204.482 C 244.955 204.747,244.730 204.972,244.400 204.982 C 244.070 204.992,243.800 205.270,243.800 205.600 C 243.800 205.930,243.530 206.200,243.200 206.200 C 242.870 206.200,242.600 206.410,242.600 206.667 C 242.600 207.265,242.065 207.800,241.467 207.800 C 241.210 207.800,240.992 208.070,240.982 208.400 C 240.972 208.730,240.747 208.955,240.482 208.900 C 240.217 208.845,240.045 209.025,240.100 209.300 C 240.155 209.575,239.975 209.755,239.700 209.700 C 239.425 209.645,239.245 209.817,239.300 210.082 C 239.355 210.347,239.190 210.572,238.933 210.582 C 238.369 210.604,237.800 211.131,237.800 211.633 C 237.800 211.835,237.684 211.955,237.542 211.900 C 237.124 211.738,235.624 213.255,235.716 213.748 C 235.762 213.996,235.575 214.155,235.300 214.100 C 235.025 214.045,234.845 214.217,234.900 214.482 C 234.955 214.747,234.730 214.972,234.400 214.982 C 234.070 214.992,233.800 215.270,233.800 215.600 C 233.800 215.930,233.530 216.200,233.200 216.200 C 232.870 216.200,232.600 216.410,232.600 216.667 C 232.600 217.225,232.076 217.800,231.567 217.800 C 231.365 217.800,231.187 217.980,231.171 218.200 C 231.125 218.852,229.923 219.999,229.537 219.761 C 229.341 219.640,229.230 219.771,229.290 220.052 C 229.351 220.333,229.190 220.572,228.933 220.582 C 228.369 220.604,227.800 221.131,227.800 221.633 C 227.800 221.835,227.684 221.955,227.542 221.900 C 227.124 221.738,225.624 223.255,225.716 223.748 C 225.762 223.996,225.575 224.155,225.300 224.100 C 225.025 224.045,224.845 224.217,224.900 224.482 C 224.955 224.747,224.730 224.972,224.400 224.982 C 224.070 224.992,223.800 225.270,223.800 225.600 C 223.800 225.930,223.530 226.200,223.200 226.200 C 222.870 226.200,222.600 226.410,222.600 226.667 C 222.600 227.225,222.076 227.800,221.567 227.800 C 221.365 227.800,221.187 227.980,221.171 228.200 C 221.125 228.852,219.923 229.999,219.537 229.761 C 219.341 229.640,219.230 229.771,219.290 230.052 C 219.351 230.333,219.190 230.572,218.933 230.582 C 218.369 230.604,217.800 231.131,217.800 231.633 C 217.800 231.835,217.620 232.013,217.400 232.029 C 216.772 232.073,215.623 233.247,215.716 233.748 C 215.762 233.996,215.575 234.155,215.300 234.100 C 215.025 234.045,214.845 234.217,214.900 234.482 C 214.955 234.747,214.730 234.972,214.400 234.982 C 214.070 234.992,213.800 235.270,213.800 235.600 C 213.800 235.930,213.530 236.200,213.200 236.200 C 212.870 236.200,212.600 236.410,212.600 236.667 C 212.600 237.225,212.076 237.800,211.567 237.800 C 211.365 237.800,211.187 237.980,211.171 238.200 C 211.125 238.852,209.923 239.999,209.537 239.761 C 209.341 239.640,209.230 239.771,209.290 240.052 C 209.351 240.333,209.190 240.572,208.933 240.582 C 208.336 240.605,207.805 241.136,207.782 241.733 C 207.772 241.990,207.568 242.162,207.329 242.116 C 206.861 242.025,205.700 243.148,205.589 243.800 C 205.551 244.020,205.358 244.155,205.160 244.100 C 204.962 244.045,204.845 244.217,204.900 244.482 C 204.955 244.747,204.730 244.972,204.400 244.982 C 204.070 244.992,203.800 245.270,203.800 245.600 C 203.800 245.930,203.530 246.200,203.200 246.200 C 202.870 246.200,202.600 246.470,202.600 246.800 C 202.600 247.130,202.390 247.400,202.133 247.400 C 201.542 247.400,201.005 247.929,200.982 248.533 C 200.972 248.790,200.747 248.955,200.482 248.900 C 200.217 248.845,200.045 249.025,200.100 249.300 C 200.155 249.575,199.975 249.755,199.700 249.700 C 199.425 249.645,199.245 249.817,199.300 250.082 C 199.355 250.347,199.130 250.580,198.800 250.600 C 198.470 250.620,198.241 250.842,198.292 251.094 C 198.492 252.092,191.569 257.302,190.914 256.647 C 190.799 256.532,190.429 256.714,190.093 257.050 C 189.756 257.387,189.148 257.575,188.740 257.469 C 188.333 257.362,188.000 257.459,188.000 257.684 C 188.000 257.909,187.640 257.999,187.200 257.884 C 186.760 257.769,186.400 257.859,186.400 258.084 C 186.400 258.309,186.040 258.399,185.600 258.284 C 185.160 258.169,184.800 258.259,184.800 258.484 C 184.800 258.709,184.350 258.807,183.800 258.702 C 183.250 258.597,182.800 258.687,182.800 258.902 C 182.800 259.117,182.440 259.199,182.000 259.084 C 181.560 258.969,181.200 259.021,181.200 259.200 C 181.200 259.492,177.903 260.174,176.400 260.193 C 176.070 260.197,175.707 260.322,175.594 260.471 C 175.481 260.620,174.671 260.800,173.794 260.871 C 172.917 260.942,172.107 261.122,171.994 261.271 C 171.881 261.420,171.071 261.600,170.194 261.671 C 169.317 261.742,168.498 261.937,168.374 262.104 C 168.250 262.271,167.396 262.451,166.476 262.504 C 165.557 262.557,164.803 262.756,164.802 262.947 C 164.801 263.137,164.350 263.207,163.800 263.102 C 163.250 262.997,162.800 263.040,162.800 263.199 C 162.800 263.575,156.412 264.855,155.953 264.571 C 155.759 264.451,155.600 264.518,155.600 264.719 C 155.600 265.132,149.282 266.498,148.787 266.192 C 148.612 266.084,148.408 266.177,148.334 266.399 C 148.259 266.622,147.435 266.848,146.501 266.902 C 145.568 266.956,144.803 267.148,144.802 267.329 C 144.801 267.509,144.395 267.618,143.900 267.569 C 143.405 267.521,142.675 267.621,142.278 267.792 C 140.610 268.510,134.842 266.783,135.100 265.643 C 135.155 265.399,135.004 265.245,134.764 265.300 C 134.066 265.460,132.692 263.367,132.644 262.069 C 132.620 261.414,132.465 260.962,132.300 261.063 C 132.135 261.164,132.000 260.326,132.000 259.200 C 132.000 257.953,132.155 257.248,132.395 257.397 C 132.619 257.536,132.691 257.381,132.560 257.040 C 132.433 256.709,132.462 256.223,132.625 255.959 C 132.788 255.696,132.987 254.751,133.067 253.860 C 133.147 252.969,133.345 252.140,133.506 252.020 C 133.668 251.899,133.803 251.530,133.807 251.200 C 133.824 249.855,134.493 246.400,134.738 246.398 C 134.882 246.397,135.033 245.755,135.073 244.971 C 135.114 244.187,135.337 243.317,135.570 243.036 C 135.803 242.756,135.897 242.431,135.780 242.314 C 135.566 242.099,136.713 236.509,137.108 235.840 C 137.225 235.642,137.387 234.751,137.467 233.860 C 137.547 232.969,137.745 232.140,137.906 232.020 C 138.068 231.899,138.203 231.530,138.207 231.200 C 138.227 229.561,138.921 226.400,139.261 226.400 C 139.473 226.400,139.549 226.241,139.428 226.046 C 139.175 225.636,142.319 211.117,142.728 210.806 C 142.877 210.693,143.018 210.375,143.040 210.100 C 143.165 208.535,143.234 208.374,143.662 208.638 C 143.950 208.817,144.015 208.748,143.834 208.455 C 143.452 207.837,145.143 205.118,145.696 205.459 C 145.935 205.607,146.008 205.537,145.862 205.300 C 145.548 204.793,168.364 181.530,168.869 181.842 C 169.062 181.962,169.170 181.821,169.110 181.530 C 169.049 181.238,169.225 181.045,169.500 181.100 C 169.775 181.155,169.955 181.065,169.900 180.900 C 169.845 180.735,169.929 180.600,170.087 180.600 C 170.600 180.600,175.159 175.882,175.078 175.434 C 175.035 175.195,175.198 175.036,175.441 175.080 C 175.895 175.163,178.271 172.912,178.482 172.200 C 178.547 171.980,178.714 171.838,178.852 171.884 C 179.142 171.981,180.280 170.797,180.471 170.200 C 180.542 169.980,180.748 169.849,180.930 169.910 C 181.111 169.970,181.158 169.856,181.034 169.655 C 180.736 169.173,181.780 168.322,182.201 168.703 C 182.381 168.867,182.411 168.795,182.269 168.545 C 181.954 167.994,182.940 167.086,183.401 167.503 C 183.581 167.667,183.614 167.599,183.474 167.353 C 183.165 166.813,184.540 165.473,184.966 165.899 C 185.131 166.065,185.207 165.930,185.133 165.600 C 185.060 165.270,185.225 165.045,185.500 165.100 C 185.775 165.155,185.955 165.034,185.900 164.830 C 185.743 164.248,213.657 136.388,214.114 136.671 C 214.344 136.813,214.403 136.728,214.248 136.477 C 213.897 135.910,216.408 134.229,219.248 133.129 C 221.667 132.193,229.200 131.572,229.200 132.309 C 229.200 132.538,229.560 132.631,230.000 132.516 C 230.465 132.394,230.800 132.504,230.800 132.777 C 230.800 133.036,230.993 133.128,231.228 132.983 C 234.218 131.135,267.960 165.083,267.135 169.108 C 267.102 169.269,267.287 169.850,267.547 170.400 C 267.973 171.304,268.001 171.232,267.841 169.653 C 267.396 165.275,266.073 163.589,251.845 149.278 C 234.477 131.810,231.586 130.077,222.400 131.630 M178.000 172.525 C 178.000 172.594,177.415 173.179,176.700 173.825 L 175.400 175.000 176.575 173.700 C 177.670 172.488,178.000 172.216,178.000 172.525 M174.800 175.714 C 174.800 175.776,173.765 176.811,172.500 178.014 L 170.200 180.200 172.386 177.900 C 174.418 175.763,174.800 175.417,174.800 175.714 " stroke="none" fill="#040405" fill-rule="evenodd"></path></g></svg>