<svg id="svg" version="1.1" xmlns="http://www.w3.org/2000/svg" xmlns:xlink="http://www.w3.org/1999/xlink" width="400" height="420.7253886010363" viewBox="0, 0, 400,420.7253886010363"><g id="svgg"><path id="path0" d="M120.400 48.633 C 119.593 49.081,115.926 49.198,101.400 49.241 C 91.500 49.271,83.940 49.432,84.600 49.600 C 85.260 49.768,85.575 49.927,85.300 49.953 C 84.906 49.990,84.798 55.077,84.791 73.900 C 84.783 96.378,84.738 97.898,84.035 99.446 C 82.187 103.515,76.849 104.999,73.259 102.442 C 71.006 100.838,70.931 100.646,66.185 84.400 C 65.382 81.650,64.274 77.870,63.724 76.000 C 63.174 74.130,61.825 69.540,60.727 65.800 C 59.629 62.060,58.465 58.100,58.142 57.000 C 57.819 55.900,57.628 54.145,57.718 53.100 L 57.883 51.200 55.327 51.200 C 52.980 51.200,52.804 51.259,53.162 51.928 C 53.946 53.394,53.513 99.994,52.700 101.479 C 50.479 105.541,44.662 106.480,41.184 103.338 C 38.868 101.246,38.805 100.711,38.799 83.200 C 38.794 67.785,38.493 62.876,37.477 61.652 C 37.215 61.336,37.054 60.970,37.120 60.839 C 37.185 60.707,37.512 60.150,37.847 59.600 C 38.210 59.002,37.965 59.162,37.237 60.000 C 36.568 60.770,35.672 62.130,35.245 63.022 C 34.818 63.915,34.188 64.878,33.845 65.163 C 33.502 65.447,33.102 66.317,32.956 67.095 C 32.810 67.873,32.368 68.832,31.974 69.226 C 31.580 69.620,31.139 70.810,30.993 71.871 C 30.847 72.932,30.401 74.265,30.001 74.834 C 29.187 75.991,28.406 78.500,28.402 79.969 C 28.401 80.501,28.118 81.249,27.773 81.629 C 27.429 82.010,26.908 83.644,26.617 85.261 C 26.325 86.877,25.763 88.826,25.369 89.591 C 24.974 90.356,24.573 91.976,24.478 93.191 C 24.383 94.406,24.074 95.670,23.792 96.000 C 23.161 96.738,22.405 99.412,22.402 100.916 C 22.401 101.530,22.029 102.535,21.575 103.149 C 21.121 103.763,20.602 105.240,20.423 106.433 C 20.243 107.625,19.714 109.313,19.248 110.185 C 18.782 111.056,18.400 112.429,18.400 113.236 C 18.400 114.042,18.154 114.906,17.853 115.156 C 17.553 115.405,16.993 116.642,16.611 117.905 C 16.228 119.167,15.586 120.920,15.184 121.800 C 14.781 122.680,14.322 124.120,14.163 125.000 C 14.005 125.880,13.645 126.780,13.364 127.000 C 13.082 127.220,12.596 128.402,12.284 129.626 L 11.715 131.851 12.957 132.618 C 16.083 134.545,49.954 133.330,53.458 131.164 C 54.650 130.428,54.986 130.380,56.008 130.803 C 56.959 131.197,57.935 131.168,61.092 130.650 C 63.242 130.298,67.329 129.641,70.176 129.191 C 100.048 124.471,109.837 113.373,114.797 78.600 C 115.401 74.367,116.023 65.215,116.237 57.400 L 116.445 49.800 117.523 49.800 L 118.600 49.800 118.471 55.200 C 117.256 106.234,105.918 126.100,75.552 130.407 C 74.035 130.622,72.030 130.966,71.097 131.171 C 69.230 131.581,62.937 132.605,59.800 133.009 C 58.700 133.150,57.045 133.597,56.123 134.000 C 55.186 134.411,53.509 134.734,52.323 134.734 C 51.155 134.733,48.670 134.910,46.800 135.128 C 41.321 135.764,12.078 135.759,11.290 135.122 C 10.754 134.687,10.702 134.692,10.979 135.152 C 11.207 135.530,11.141 135.647,10.769 135.523 C 10.064 135.288,8.387 137.771,8.114 139.455 C 7.997 140.176,7.562 141.072,7.149 141.446 C 6.735 141.821,6.213 142.810,5.988 143.646 C 5.763 144.481,5.330 145.413,5.026 145.717 C 4.722 146.020,4.286 146.950,4.056 147.782 C 3.826 148.614,3.374 149.588,3.050 149.947 C 2.512 150.544,0.991 154.342,1.489 153.844 C 1.893 153.441,3.200 155.519,3.200 156.563 C 3.200 157.191,3.424 157.600,3.767 157.600 C 4.078 157.600,4.393 157.767,4.467 157.970 C 4.802 158.901,6.731 158.877,7.333 157.935 C 7.919 157.019,9.295 150.673,9.816 146.483 C 10.194 143.449,10.848 143.122,17.012 142.884 C 21.755 142.701,22.068 142.739,24.126 143.747 C 26.933 145.119,27.362 145.080,28.428 143.354 C 29.427 141.739,33.366 139.601,35.346 139.600 C 36.469 139.600,36.479 139.619,35.852 140.577 C 34.512 142.622,38.187 143.572,45.349 143.032 C 49.682 142.705,50.953 142.197,51.124 140.724 C 51.294 139.260,50.231 138.768,46.328 138.500 C 42.207 138.218,42.807 137.693,47.477 137.496 C 50.717 137.359,51.348 137.206,52.774 136.218 C 54.730 134.863,55.466 135.224,55.868 137.734 C 56.243 140.079,57.518 141.200,59.809 141.200 C 63.353 141.200,72.240 139.558,77.200 137.986 C 79.989 137.102,84.544 136.045,87.500 135.595 C 106.970 132.631,119.576 113.154,120.635 84.400 C 120.958 75.598,121.083 74.890,122.567 73.406 C 124.349 71.624,124.487 69.284,122.897 67.808 L 121.800 66.791 121.800 57.695 C 121.800 52.094,121.954 48.487,122.200 48.306 C 122.905 47.788,121.445 48.053,120.400 48.633 M55.637 115.496 C 56.912 118.851,55.615 130.986,54.139 129.510 C 53.408 128.780,52.918 116.474,53.571 115.254 C 54.202 114.075,55.138 114.185,55.637 115.496 M2.239 160.465 C 1.906 160.941,1.721 161.472,1.828 161.645 C 2.123 162.123,1.160 165.716,0.544 166.431 C -0.094 167.173,-0.261 180.000,0.367 180.000 C 3.018 180.000,5.065 173.316,4.705 165.834 C 4.444 160.434,3.580 158.551,2.239 160.465 " stroke="none" fill="#2b87b6" fill-rule="evenodd"></path><path id="path1" d="M280.355 2.700 C 276.375 6.871,274.071 9.732,273.401 11.335 C 273.065 12.141,272.624 12.800,272.422 12.800 C 272.219 12.800,271.953 13.115,271.829 13.500 C 271.706 13.885,271.154 14.723,270.602 15.362 C 270.051 16.001,269.600 16.741,269.600 17.006 C 269.600 17.271,269.152 18.148,268.605 18.955 C 268.058 19.761,267.494 20.911,267.353 21.510 C 267.211 22.110,266.784 22.960,266.403 23.400 C 265.566 24.368,264.801 26.540,264.797 27.960 C 264.796 28.532,264.437 29.540,264.000 30.200 C 263.563 30.860,263.204 31.704,263.203 32.075 C 263.201 32.576,262.707 32.822,261.300 33.025 C 260.255 33.175,258.770 33.591,258.000 33.948 C 256.785 34.511,253.877 34.623,236.000 34.798 C 216.905 34.985,215.298 35.054,214.000 35.745 C 213.206 36.167,211.173 36.628,209.303 36.810 C 207.195 37.015,205.536 37.417,204.703 37.924 C 203.980 38.364,202.242 38.839,200.800 38.992 C 199.370 39.143,197.519 39.612,196.688 40.034 C 195.736 40.516,194.328 40.805,192.888 40.812 C 189.181 40.832,184.888 41.524,183.723 42.289 C 182.802 42.893,181.375 43.033,174.220 43.218 C 166.880 43.408,165.620 43.536,164.400 44.214 C 163.163 44.902,161.929 45.017,153.800 45.200 C 145.271 45.393,144.475 45.473,142.888 46.304 C 141.333 47.117,140.613 47.200,135.088 47.203 C 131.739 47.204,127.830 47.316,126.400 47.452 L 123.800 47.697 123.836 55.949 C 123.856 60.487,123.901 64.519,123.936 64.910 C 124.068 66.379,125.621 66.436,137.927 65.423 C 188.291 61.276,226.487 62.290,265.200 68.801 C 285.598 72.231,300.873 80.277,306.587 90.600 C 310.925 98.437,316.989 122.013,318.006 135.000 C 318.179 137.200,318.604 139.970,318.952 141.156 C 319.299 142.342,319.775 145.672,320.010 148.556 C 320.244 151.440,320.724 156.590,321.077 160.000 C 321.429 163.410,321.776 169.710,321.847 174.000 C 321.919 178.290,322.150 185.130,322.361 189.200 C 323.663 214.300,322.971 257.498,321.007 273.800 C 320.689 276.440,320.243 280.220,320.017 282.200 C 317.894 300.761,310.956 317.243,301.228 326.830 C 290.841 337.067,276.406 341.627,243.200 345.160 C 207.519 348.957,177.809 350.087,149.288 348.733 C 137.160 348.158,138.032 347.808,137.558 353.435 C 135.661 375.908,115.478 395.305,92.962 396.291 C 85.681 396.610,83.754 395.639,85.569 392.563 C 86.026 391.788,86.400 391.088,86.400 391.006 C 86.400 390.924,85.365 390.735,84.100 390.584 C 70.434 388.960,67.831 386.306,75.916 382.239 C 92.375 373.961,101.892 362.027,101.986 349.549 C 102.005 347.011,101.795 346.918,94.996 346.437 C 78.844 345.296,67.215 342.050,55.916 335.530 C 51.613 333.046,46.542 328.628,38.322 320.200 C 27.752 309.362,19.574 290.927,18.393 275.279 C 18.166 272.265,17.809 268.270,17.599 266.400 C 16.269 254.527,16.194 236.665,17.420 223.800 C 17.734 220.500,18.179 214.470,18.408 210.400 C 18.637 206.330,19.085 200.120,19.402 196.600 C 19.720 193.080,20.161 186.238,20.383 181.395 C 20.651 175.525,21.053 171.324,21.586 168.795 C 22.601 163.984,23.485 148.740,22.845 147.093 C 22.225 145.499,20.759 145.079,16.800 145.361 C 12.424 145.672,12.338 145.778,11.465 152.003 C 11.048 154.970,10.153 158.823,9.197 161.761 C 8.328 164.431,7.421 168.053,7.182 169.808 C 5.842 179.620,3.693 184.400,0.620 184.400 C -0.364 184.400,-0.285 273.832,0.701 276.200 C 1.279 277.587,1.396 280.284,1.584 296.462 L 1.800 315.125 4.377 317.862 C 5.795 319.368,7.250 320.870,7.612 321.200 C 7.974 321.530,9.407 323.150,10.796 324.800 C 21.364 337.348,27.866 343.414,31.600 344.207 C 32.370 344.370,33.410 344.826,33.912 345.219 C 34.413 345.612,35.583 346.061,36.512 346.216 C 37.440 346.371,38.720 346.866,39.355 347.315 C 40.102 347.844,41.268 348.168,42.654 348.233 C 44.035 348.298,45.314 348.652,46.249 349.230 C 47.047 349.724,48.622 350.213,49.750 350.317 C 50.877 350.422,52.283 350.847,52.874 351.263 C 53.465 351.678,54.995 352.207,56.274 352.439 C 57.553 352.672,59.006 353.122,59.502 353.441 C 59.999 353.761,61.318 354.195,62.434 354.406 C 63.550 354.618,64.896 355.132,65.427 355.549 C 65.957 355.967,67.188 356.427,68.163 356.573 C 71.279 357.041,70.999 359.332,67.722 360.178 C 67.240 360.302,65.669 361.209,64.232 362.192 C 62.796 363.176,61.031 364.256,60.310 364.592 C 59.590 364.928,58.280 365.746,57.400 366.409 C 56.520 367.073,55.170 367.954,54.400 368.367 C 53.630 368.780,52.520 369.541,51.933 370.059 C 49.487 372.216,48.708 372.800,48.266 372.806 C 48.010 372.810,47.170 373.355,46.400 374.018 C 45.630 374.680,44.010 376.073,42.800 377.111 C 28.942 389.008,28.074 393.168,37.481 402.600 C 40.739 405.866,42.047 407.101,47.034 411.618 C 47.895 412.398,49.230 413.469,50.000 413.998 C 50.770 414.527,52.897 416.183,54.726 417.680 L 58.053 420.400 93.749 420.400 L 129.445 420.400 130.800 419.400 C 131.545 418.850,132.366 418.400,132.624 418.400 C 132.881 418.400,133.589 418.009,134.197 417.531 C 135.214 416.731,136.114 416.203,139.400 414.483 C 140.060 414.137,141.677 413.122,142.994 412.227 C 144.311 411.332,145.872 410.330,146.462 410.000 C 147.610 409.359,149.020 408.353,150.808 406.900 C 151.417 406.405,152.098 406.000,152.321 406.000 C 152.545 406.000,153.998 404.965,155.551 403.700 C 157.103 402.435,160.095 400.062,162.198 398.426 C 166.459 395.114,174.645 386.834,176.800 383.658 C 177.570 382.523,178.907 380.695,179.771 379.597 L 181.341 377.600 188.771 377.578 C 202.673 377.538,216.855 376.917,218.800 376.264 C 220.086 375.832,222.949 375.610,228.829 375.484 C 236.573 375.319,237.198 375.248,239.429 374.283 C 240.981 373.612,242.789 373.198,244.662 373.085 C 246.573 372.970,247.969 372.645,248.862 372.107 C 249.598 371.664,251.268 371.198,252.573 371.072 C 253.967 370.937,255.371 370.529,255.975 370.081 C 256.542 369.663,257.904 369.187,259.003 369.025 C 260.101 368.863,261.540 368.401,262.200 368.000 C 262.860 367.599,264.300 367.145,265.400 366.992 C 266.500 366.839,268.120 366.379,269.000 365.969 C 269.880 365.559,271.666 365.039,272.969 364.813 C 274.272 364.587,275.802 364.094,276.369 363.717 C 276.936 363.341,278.513 362.915,279.873 362.771 C 281.233 362.627,283.033 362.153,283.873 361.718 C 284.713 361.283,286.630 360.814,288.133 360.675 C 289.704 360.531,291.406 360.100,292.133 359.663 C 292.902 359.201,294.566 358.800,296.367 358.642 C 298.243 358.478,299.806 358.091,300.615 357.591 C 301.319 357.156,302.503 356.799,303.247 356.798 C 304.974 356.795,307.625 356.074,308.400 355.396 C 308.730 355.107,309.900 354.748,311.000 354.597 C 312.100 354.446,313.682 353.979,314.516 353.559 C 315.350 353.140,316.861 352.610,317.875 352.383 C 318.889 352.156,320.215 351.617,320.821 351.185 C 321.427 350.753,322.184 350.400,322.501 350.400 C 323.203 350.400,328.286 347.768,329.400 346.828 C 329.840 346.457,330.668 345.954,331.241 345.712 C 331.813 345.469,333.254 344.490,334.442 343.536 C 335.631 342.581,337.592 341.041,338.801 340.112 C 340.708 338.648,344.784 334.604,346.293 332.678 C 348.631 329.694,352.408 323.893,352.659 322.900 C 352.784 322.405,353.033 322.000,353.212 322.000 C 353.391 322.000,353.757 321.325,354.026 320.500 C 354.294 319.675,354.955 318.149,355.494 317.110 C 356.032 316.070,356.572 314.450,356.692 313.510 C 356.813 312.569,357.275 311.080,357.720 310.200 C 358.562 308.534,359.132 302.468,359.179 294.680 C 359.193 292.254,359.401 290.771,359.848 289.908 C 360.233 289.162,360.656 286.782,360.891 284.028 C 361.155 280.945,361.553 278.830,362.083 277.692 C 362.714 276.338,362.937 274.718,363.158 269.892 C 363.328 266.178,363.638 263.434,363.952 262.862 C 364.993 260.972,366.001 174.534,364.994 173.527 C 364.881 173.414,364.726 171.269,364.649 168.761 C 364.527 164.745,363.896 161.598,363.212 161.601 C 363.096 161.601,363.056 159.419,363.124 156.751 C 363.266 151.210,362.699 145.644,361.857 144.310 C 361.541 143.809,361.155 141.960,361.000 140.200 C 360.836 138.350,360.384 136.325,359.928 135.400 C 359.441 134.412,359.011 132.379,358.805 130.084 C 358.622 128.040,358.271 126.126,358.025 125.830 C 357.304 124.961,356.590 121.546,356.719 119.575 C 356.873 117.214,357.907 116.584,362.126 116.282 C 364.089 116.141,365.645 115.800,366.309 115.365 C 366.954 114.943,368.663 114.555,370.694 114.370 C 372.802 114.178,374.503 113.783,375.334 113.292 C 376.055 112.866,377.324 112.391,378.152 112.235 C 380.738 111.750,385.687 108.633,389.600 105.027 C 392.124 102.700,398.094 96.231,399.061 94.774 L 400.008 93.348 399.904 75.196 L 399.800 57.043 397.200 55.529 C 395.770 54.697,393.970 53.909,393.200 53.778 C 392.430 53.648,390.725 53.076,389.412 52.508 C 387.255 51.576,386.525 51.476,381.893 51.476 C 377.604 51.476,376.798 51.382,376.982 50.903 C 377.103 50.588,377.321 49.586,377.466 48.678 C 377.611 47.769,378.106 46.389,378.565 45.613 C 379.331 44.317,379.400 43.585,379.400 36.800 L 379.400 29.400 377.934 26.600 C 376.523 23.907,373.208 20.108,370.430 18.000 C 369.705 17.450,368.395 16.415,367.518 15.700 C 366.642 14.985,365.743 14.400,365.521 14.400 C 365.299 14.400,364.072 13.545,362.794 12.500 C 361.516 11.455,359.481 10.002,358.271 9.272 C 357.062 8.541,355.766 7.604,355.392 7.191 C 353.717 5.340,346.988 5.220,344.869 7.003 C 344.251 7.523,343.271 8.067,342.690 8.213 C 342.108 8.359,341.422 8.733,341.164 9.044 C 339.965 10.488,336.000 11.645,336.000 10.551 C 336.000 8.473,327.520 2.564,323.213 1.640 C 322.064 1.394,320.741 0.924,320.273 0.596 C 319.549 0.089,316.694 -0.000,301.177 -0.000 L 282.931 0.000 280.355 2.700 M313.809 38.231 C 316.611 39.561,317.060 44.165,315.427 54.800 C 315.106 56.890,314.550 61.480,314.191 65.000 C 313.192 74.802,310.993 78.061,306.612 76.231 C 303.210 74.809,302.944 69.776,305.427 53.800 C 305.769 51.600,306.212 47.940,306.412 45.668 C 307.008 38.882,309.628 36.247,313.809 38.231 M353.647 39.153 C 356.875 42.381,356.357 43.567,347.775 52.600 C 323.671 77.971,322.327 78.993,318.700 74.725 C 315.780 71.289,316.179 70.697,333.082 53.348 C 350.142 35.837,350.254 35.760,353.647 39.153 M62.835 49.600 C 61.198 49.785,60.098 50.125,59.795 50.539 C 59.534 50.896,59.181 51.055,59.011 50.894 C 58.840 50.732,58.808 50.960,58.940 51.400 C 59.071 51.840,59.648 53.820,60.220 55.800 C 60.793 57.780,62.072 62.190,63.062 65.600 C 64.974 72.187,68.254 83.497,70.833 92.400 C 73.316 100.968,76.389 103.439,80.582 100.241 C 82.812 98.540,82.830 98.309,82.709 72.832 C 82.613 52.476,82.674 49.600,83.200 49.456 C 84.262 49.167,65.492 49.299,62.835 49.600 M50.597 51.995 C 50.736 52.220,50.580 52.290,50.235 52.158 C 49.901 52.030,49.099 52.302,48.452 52.763 C 47.806 53.223,46.841 53.600,46.310 53.600 C 45.778 53.600,44.635 54.135,43.771 54.789 C 42.907 55.443,41.981 55.983,41.713 55.989 C 41.016 56.005,38.384 58.728,38.900 58.900 C 39.137 58.979,39.380 59.304,39.442 59.622 C 39.503 59.940,39.660 60.650,39.789 61.200 C 40.659 64.881,40.800 67.806,40.800 82.128 C 40.800 97.273,40.843 98.237,41.592 99.782 C 43.573 103.876,49.643 103.750,51.077 99.586 C 51.640 97.952,51.780 57.311,51.232 54.479 C 50.979 53.167,51.037 52.620,51.478 52.179 C 51.983 51.674,51.949 51.600,51.205 51.600 C 50.736 51.600,50.463 51.778,50.597 51.995 M175.800 71.431 C 175.140 71.513,168.390 71.855,160.800 72.192 C 149.093 72.711,132.319 73.898,126.092 74.646 C 123.966 74.902,122.990 76.134,123.408 78.036 L 123.687 79.305 126.143 79.043 C 147.721 76.747,174.618 75.420,199.800 75.410 C 221.439 75.400,223.693 75.483,238.600 76.835 C 250.163 77.883,272.233 81.249,279.200 83.026 C 288.482 85.393,290.041 85.312,283.998 82.778 C 273.945 78.563,265.592 76.853,236.099 72.974 C 227.534 71.848,181.891 70.680,175.800 71.431 M364.724 75.341 C 367.239 76.737,367.951 80.246,366.152 82.384 C 364.321 84.560,363.903 84.662,345.600 87.377 C 343.510 87.687,338.142 88.503,333.670 89.191 C 323.116 90.815,320.800 90.107,320.800 85.258 C 320.800 80.958,321.672 80.629,340.600 77.788 C 352.000 76.076,357.792 75.134,357.967 74.963 C 358.369 74.569,363.889 74.878,364.724 75.341 M88.600 153.580 C 70.699 153.888,70.540 153.983,70.693 164.329 C 70.744 167.778,70.924 193.222,71.093 220.871 C 71.444 278.360,71.012 272.708,75.164 274.107 C 77.770 274.985,79.698 274.576,81.419 272.781 L 82.600 271.549 82.855 256.675 C 82.995 248.494,83.013 236.040,82.894 229.000 C 82.562 209.378,81.921 210.676,92.082 210.400 C 101.480 210.144,103.488 209.027,103.079 204.281 C 102.730 200.232,100.438 199.203,91.754 199.194 C 82.681 199.185,82.578 199.057,82.967 188.200 C 83.101 184.460,83.217 181.220,83.224 181.000 C 83.231 180.780,83.113 178.159,82.962 175.176 C 82.389 163.893,82.097 164.183,93.914 164.299 C 102.544 164.384,103.167 164.341,104.112 163.598 C 107.086 161.259,105.849 153.960,102.400 153.495 C 101.850 153.421,95.640 153.460,88.600 153.580 M199.486 154.934 C 194.555 156.626,191.385 161.676,188.162 172.974 C 187.405 175.628,186.409 178.689,185.949 179.776 C 185.337 181.220,185.175 182.214,185.347 183.468 C 185.477 184.412,185.311 187.212,184.979 189.692 C 183.210 202.893,185.232 235.082,188.984 253.463 C 192.472 270.548,196.493 275.693,205.917 275.127 C 214.494 274.612,219.981 267.029,223.990 250.146 C 225.604 243.351,224.216 240.400,219.407 240.400 C 215.637 240.400,214.392 242.197,212.202 250.800 C 207.446 269.485,201.466 267.193,198.784 245.657 C 198.356 242.215,197.918 239.024,197.811 238.565 C 197.572 237.535,196.607 223.487,195.812 209.478 C 194.502 186.372,199.643 163.654,205.663 165.949 C 207.810 166.767,211.016 171.153,212.660 175.522 C 215.386 182.764,219.405 185.075,223.008 181.472 C 225.592 178.888,225.290 176.222,221.599 169.036 C 215.189 156.561,208.036 151.999,199.486 154.934 M246.400 154.435 C 244.970 154.633,242.028 154.904,239.861 155.038 C 234.342 155.378,232.106 157.654,233.244 161.773 C 234.260 165.454,235.778 165.995,245.100 165.998 C 254.303 166.001,254.350 166.046,253.820 174.359 C 253.657 176.911,253.546 179.360,253.573 179.800 C 253.600 180.240,253.662 200.882,253.711 225.670 C 253.800 270.705,253.801 270.741,254.637 271.870 C 257.381 275.576,261.944 275.701,264.278 272.136 C 264.964 271.089,265.002 268.469,265.034 219.614 C 265.059 180.989,265.185 167.976,265.538 167.315 C 266.293 165.904,268.354 165.573,273.088 166.103 C 279.228 166.789,282.800 164.607,282.800 160.172 C 282.800 155.898,278.524 153.701,272.189 154.720 C 270.173 155.044,267.401 155.061,262.389 154.778 C 250.187 154.092,249.054 154.067,246.400 154.435 M148.400 155.272 C 140.926 156.830,141.226 156.335,133.437 180.000 C 133.111 180.990,132.666 182.970,132.448 184.400 C 132.097 186.706,131.156 191.357,128.404 204.400 C 127.963 206.490,127.414 209.700,127.185 211.533 C 126.955 213.366,126.587 215.796,126.367 216.933 C 126.146 218.070,125.629 221.340,125.216 224.200 C 124.804 227.060,124.190 231.110,123.852 233.200 C 123.081 237.966,121.342 250.635,120.804 255.400 C 120.580 257.380,120.131 260.980,119.806 263.400 C 118.558 272.698,119.518 275.267,124.242 275.267 C 128.540 275.267,129.927 273.156,130.849 265.214 C 133.410 243.158,133.829 240.948,135.631 239.984 C 136.154 239.703,139.797 239.530,145.651 239.506 L 154.850 239.468 155.816 240.435 C 157.055 241.673,157.383 243.477,158.172 253.400 C 159.752 273.258,161.064 276.487,167.094 275.356 C 171.336 274.560,171.534 272.214,169.177 250.600 C 168.332 242.844,167.231 231.337,166.016 217.558 C 165.597 212.805,165.067 207.495,164.839 205.758 C 164.611 204.021,164.138 199.360,163.789 195.400 C 163.439 191.440,162.889 186.220,162.567 183.800 C 162.244 181.380,161.718 175.707,161.397 171.194 C 160.530 159.017,159.600 156.891,154.513 155.464 C 151.921 154.737,151.090 154.710,148.400 155.272 M29.085 172.533 C 28.662 173.620,28.739 178.000,29.182 178.000 C 29.775 178.000,30.057 175.592,29.696 173.600 C 29.456 172.271,29.296 171.992,29.085 172.533 M150.189 174.913 C 150.915 176.649,151.449 180.859,152.203 190.775 C 152.544 195.271,152.985 200.131,153.181 201.575 C 153.378 203.019,153.750 206.900,154.007 210.200 C 154.265 213.500,154.705 218.090,154.987 220.400 C 155.909 227.976,155.457 228.386,146.160 228.394 C 135.376 228.404,135.538 228.661,137.857 215.200 C 143.581 181.975,147.623 168.770,150.189 174.913 M109.240 357.640 C 109.193 358.384,106.562 364.665,105.318 367.000 C 103.915 369.634,101.948 372.175,98.041 376.399 C 95.004 379.682,94.464 380.450,95.035 380.669 C 95.800 380.962,100.518 379.486,102.321 378.389 C 106.216 376.021,110.867 363.499,109.671 358.600 C 109.456 357.720,109.262 357.288,109.240 357.640 " stroke="none" fill="#f9f9f6" fill-rule="evenodd"></path><path id="path2" d="M192.400 77.846 C 168.105 78.202,125.078 81.007,123.471 82.341 C 123.133 82.622,122.791 83.987,122.629 85.707 C 120.198 111.502,112.275 127.248,97.954 134.745 C 94.359 136.626,94.279 136.857,96.648 138.488 C 101.598 141.896,102.730 143.414,105.620 150.520 C 109.206 159.339,109.152 160.227,104.382 170.907 C 101.019 178.438,96.647 181.929,89.200 183.027 C 85.588 183.560,85.047 184.703,85.261 191.351 C 85.443 197.012,85.135 196.800,93.192 196.800 C 102.108 196.800,105.600 198.985,105.600 204.567 C 105.600 210.660,102.869 212.520,93.514 212.800 C 88.250 212.957,86.699 213.130,86.218 213.610 C 85.684 214.144,85.595 217.765,85.504 242.410 C 85.402 270.163,85.387 270.628,84.554 272.400 C 81.486 278.930,71.682 278.717,69.418 272.071 C 68.874 270.475,68.800 264.527,68.800 222.582 L 68.800 174.907 67.777 169.553 C 65.796 159.191,66.406 152.482,69.927 145.929 C 72.235 141.634,72.304 141.692,66.097 142.738 C 63.285 143.212,60.416 143.600,59.721 143.600 C 58.261 143.600,57.211 144.477,57.174 145.729 C 57.160 146.208,57.148 153.350,57.148 161.600 C 57.147 176.988,56.985 178.947,55.605 180.196 C 52.978 182.573,43.032 183.821,37.621 182.453 C 31.223 180.835,31.521 180.160,30.390 198.800 C 30.157 202.650,29.537 211.560,29.012 218.600 C 27.199 242.953,27.063 246.422,27.386 260.069 C 27.554 267.181,27.757 275.790,27.838 279.200 C 28.011 286.501,28.845 289.626,32.804 297.800 C 44.260 321.456,61.344 330.910,95.400 332.439 C 105.809 332.907,106.935 333.126,107.833 334.864 C 108.581 336.310,109.985 342.879,109.994 344.969 C 109.997 345.831,110.283 346.849,110.628 347.231 C 113.831 350.770,113.079 364.656,109.265 372.413 L 107.711 375.573 110.052 373.931 C 120.522 366.587,127.583 353.446,127.595 341.280 C 127.603 333.563,127.306 333.728,140.129 334.346 C 181.362 336.333,231.213 333.492,263.000 327.343 C 297.570 320.656,308.345 304.104,312.174 251.800 C 312.801 243.237,313.209 216.483,312.960 200.345 L 312.683 182.491 310.965 182.297 C 307.964 181.959,303.368 178.293,300.377 173.852 C 292.664 162.395,297.319 141.889,308.609 137.597 C 309.560 137.235,309.658 137.034,309.442 135.881 C 309.307 135.163,308.841 131.881,308.405 128.588 C 305.727 108.322,300.978 93.130,297.068 92.317 C 296.262 92.150,294.568 91.491,293.302 90.853 C 289.053 88.710,285.969 87.572,280.177 86.007 C 272.843 84.026,270.029 83.503,258.600 81.999 C 257.060 81.796,253.370 81.258,250.400 80.803 C 236.155 78.620,214.608 77.521,192.400 77.846 M122.386 113.974 C 122.640 114.449,122.800 118.662,122.800 124.885 C 122.800 137.767,122.874 137.898,129.200 136.200 C 138.492 133.706,149.278 139.433,152.001 148.308 C 153.026 151.649,153.220 151.911,155.334 152.805 C 156.470 153.286,158.278 154.235,159.351 154.914 C 161.364 156.188,162.400 155.923,162.400 154.132 C 162.400 152.043,165.109 145.783,167.261 142.898 C 176.315 130.760,194.914 135.100,197.391 149.928 C 197.753 152.092,198.180 152.253,202.056 151.688 C 211.152 150.363,218.070 156.283,225.779 171.991 C 227.421 175.338,227.674 175.585,229.464 175.594 C 230.159 175.597,231.869 176.140,233.264 176.800 C 234.659 177.460,236.224 178.000,236.742 178.000 C 237.261 178.000,238.791 178.288,240.142 178.641 C 242.511 179.259,245.390 179.222,248.853 178.529 C 250.807 178.139,251.597 176.427,251.599 172.580 C 251.601 168.259,251.851 168.402,244.220 168.390 C 235.122 168.377,233.586 167.886,231.610 164.365 C 228.750 159.266,231.678 153.506,237.667 152.451 C 241.760 151.730,241.719 151.030,237.446 148.640 C 225.822 142.140,225.658 126.810,237.157 121.547 C 245.458 117.747,260.800 118.937,260.800 123.380 C 260.800 125.468,259.203 125.614,253.436 124.055 C 234.739 119.001,225.299 136.817,241.883 145.857 C 251.415 151.053,256.133 152.402,264.745 152.394 C 273.800 152.386,273.370 152.675,273.512 146.501 C 273.642 140.866,273.370 140.292,270.342 139.804 C 265.796 139.071,265.579 136.426,269.997 135.596 C 273.266 134.983,273.508 134.583,273.945 129.092 C 274.357 123.902,274.950 122.400,276.587 122.400 C 278.409 122.400,278.780 123.614,278.526 128.757 C 278.215 135.035,278.401 135.280,283.691 135.583 C 287.553 135.804,288.806 136.287,288.794 137.549 C 288.779 139.104,288.118 139.393,284.016 139.636 C 278.396 139.969,278.400 139.964,278.400 146.262 C 278.400 151.664,278.538 152.023,281.119 153.358 C 286.361 156.069,286.609 163.435,281.581 167.079 C 278.185 169.541,278.267 169.396,278.526 172.489 C 278.911 177.079,280.703 178.795,285.126 178.805 C 291.236 178.820,290.772 182.448,284.578 183.087 C 278.337 183.731,274.330 180.029,273.743 173.074 C 273.447 169.582,272.924 168.843,270.531 168.536 C 267.082 168.093,267.400 162.820,267.400 220.468 C 267.400 276.267,267.556 272.318,265.252 274.943 C 262.958 277.556,257.840 277.957,254.708 275.770 C 251.452 273.495,251.637 276.393,251.618 227.344 C 251.598 177.942,251.888 181.830,248.288 182.736 C 243.904 183.840,234.339 182.566,229.668 180.257 L 227.935 179.400 227.068 180.542 C 221.252 188.193,214.568 187.227,211.219 178.250 C 209.018 172.352,206.053 168.098,204.546 168.676 C 201.739 169.753,197.989 186.864,197.989 198.595 C 197.989 224.245,201.982 259.097,205.055 260.277 C 206.405 260.795,207.898 257.501,210.426 248.429 C 213.016 239.130,215.491 236.773,221.381 237.996 C 227.292 239.223,228.264 243.232,225.341 254.341 C 220.205 273.866,211.153 281.234,198.256 276.390 C 190.997 273.664,186.118 259.556,183.802 234.600 C 183.455 230.860,182.986 226.090,182.760 224.000 C 181.960 216.590,181.840 195.548,182.567 190.047 C 183.319 184.363,183.028 183.200,180.855 183.200 C 176.900 183.200,170.452 180.325,167.404 177.204 C 164.314 174.039,163.968 175.291,165.144 185.400 C 165.630 189.580,166.196 194.890,166.401 197.200 C 166.871 202.466,167.260 206.418,168.765 221.200 C 169.426 227.690,170.332 237.050,170.779 242.000 C 171.226 246.950,172.050 255.385,172.611 260.745 C 173.923 273.287,173.184 276.228,168.377 277.607 C 162.338 279.339,157.995 275.495,157.201 267.716 C 155.994 255.885,155.508 250.634,155.321 247.400 C 154.990 241.702,155.524 242.000,145.653 242.000 C 138.180 242.000,137.258 242.073,136.681 242.711 C 136.037 243.422,135.075 249.821,133.250 265.518 C 132.081 275.581,128.381 279.559,121.977 277.640 C 116.509 276.002,116.006 272.877,118.431 255.600 C 118.848 252.630,119.457 248.040,119.785 245.400 C 120.639 238.525,122.685 224.508,123.143 222.396 C 123.357 221.408,123.746 218.890,124.008 216.800 C 124.636 211.790,128.001 193.682,129.411 187.723 C 130.184 184.459,129.766 183.200,127.910 183.200 C 122.934 183.198,119.068 181.411,118.451 178.826 C 117.655 175.494,118.133 114.959,118.962 114.042 C 119.936 112.966,121.826 112.928,122.386 113.974 M128.800 140.016 C 122.622 141.271,122.800 140.692,122.800 159.530 C 122.800 179.442,122.643 178.860,128.050 178.959 C 131.106 179.014,131.658 178.426,133.208 173.466 C 138.190 157.524,140.035 154.435,145.376 153.090 C 147.814 152.476,148.214 151.878,147.631 149.717 C 145.874 143.191,136.624 138.426,128.800 140.016 M83.400 140.353 C 81.361 140.894,77.453 143.066,76.368 144.262 C 74.495 146.328,72.761 149.357,72.883 150.351 L 73.000 151.312 85.600 151.233 C 101.143 151.136,101.547 150.996,98.787 146.644 C 95.535 141.516,89.038 138.860,83.400 140.353 M175.608 140.906 C 171.566 142.923,166.316 150.888,166.994 153.975 C 167.504 156.293,168.280 156.425,180.649 156.306 L 191.714 156.200 192.528 155.110 C 194.010 153.124,192.229 146.911,189.183 143.442 C 186.214 140.060,179.730 138.848,175.608 140.906 M307.471 143.400 C 297.721 153.404,299.332 171.031,310.587 177.489 C 311.823 178.198,312.743 178.632,312.633 178.453 C 312.522 178.275,312.243 174.905,312.012 170.964 C 311.781 167.024,311.322 159.930,310.991 155.200 C 310.660 150.470,310.346 145.250,310.294 143.600 L 310.200 140.600 307.471 143.400 M49.600 144.843 C 48.610 145.007,44.969 145.154,41.509 145.170 C 35.431 145.199,35.200 145.230,34.666 146.100 C 34.040 147.119,32.600 164.429,32.600 170.931 L 32.600 174.863 34.046 176.187 C 36.816 178.725,43.296 179.795,48.200 178.525 C 52.548 177.399,52.399 178.043,52.399 160.376 C 52.400 143.846,52.493 144.364,49.600 144.843 M167.454 160.829 C 163.200 164.175,170.254 175.993,177.836 178.221 C 182.897 179.708,184.130 178.964,185.589 173.542 C 186.084 171.704,187.181 168.258,188.026 165.885 C 188.871 163.511,189.471 161.329,189.358 161.036 C 188.824 159.643,169.198 159.457,167.454 160.829 M86.176 167.368 C 84.993 168.233,85.011 176.686,86.199 177.999 C 89.192 181.306,100.400 173.732,100.400 168.403 C 100.400 166.781,88.194 165.892,86.176 167.368 M147.691 180.636 C 146.337 183.185,142.482 201.934,139.431 220.800 C 138.810 224.644,139.054 225.569,140.714 225.659 C 143.392 225.804,152.132 225.566,152.501 225.337 C 152.966 225.050,152.770 221.130,151.814 211.600 C 151.472 208.190,150.928 202.430,150.605 198.800 C 149.173 182.734,148.571 178.979,147.691 180.636 M320.520 240.800 C 320.520 242.010,320.595 242.505,320.687 241.900 C 320.778 241.295,320.778 240.305,320.687 239.700 C 320.595 239.095,320.520 239.590,320.520 240.800 M320.131 251.800 C 320.133 253.340,320.205 253.921,320.292 253.091 C 320.379 252.261,320.377 251.001,320.289 250.291 C 320.200 249.581,320.129 250.260,320.131 251.800 M319.646 258.033 C 319.575 260.873,317.691 275.694,316.778 280.600 C 311.625 308.303,299.525 324.425,278.353 331.797 C 256.645 339.355,188.443 344.858,143.339 342.689 C 135.912 342.332,135.803 342.371,135.409 345.505 C 132.697 367.059,114.469 386.415,93.700 389.794 C 92.748 389.949,92.000 390.292,92.000 390.573 C 92.000 390.850,91.640 391.402,91.200 391.800 C 86.921 395.672,100.990 393.717,110.000 389.186 C 124.445 381.924,133.568 368.598,135.185 352.400 C 135.859 345.647,136.242 345.425,146.200 346.017 C 169.275 347.390,205.044 346.593,228.000 344.194 C 251.194 341.771,259.702 340.629,271.600 338.343 C 298.175 333.238,311.107 318.566,316.843 287.017 C 318.340 278.784,320.374 258.815,319.901 257.000 C 319.787 256.560,319.672 257.025,319.646 258.033 M55.600 332.645 C 68.295 339.948,77.955 342.561,97.400 343.954 C 102.551 344.323,102.268 344.421,101.543 342.509 C 100.885 340.774,99.796 340.528,92.400 340.443 C 80.700 340.308,65.039 336.959,56.906 332.853 C 53.904 331.338,53.107 331.211,55.600 332.645 " stroke="none" fill="#ebc93e" fill-rule="evenodd"></path><path id="path3" d="M310.882 40.448 C 309.627 40.912,308.976 42.716,308.444 47.200 C 305.220 74.362,305.225 74.000,308.088 74.000 C 310.398 74.000,310.865 72.883,311.771 65.200 C 312.121 62.230,312.870 56.047,313.436 51.460 C 314.672 41.428,314.163 39.234,310.882 40.448 M349.380 40.591 C 348.371 41.023,330.095 59.435,322.481 67.690 C 318.695 71.794,319.665 75.665,323.920 73.433 C 325.371 72.672,351.646 45.466,352.375 43.969 C 353.535 41.588,351.750 39.575,349.380 40.591 M116.409 49.873 C 116.551 55.331,115.537 73.415,114.797 78.600 C 111.848 99.274,107.522 110.090,99.161 117.689 C 91.205 124.922,84.802 127.054,59.600 130.862 C 56.270 131.366,55.546 131.865,56.336 133.111 C 56.582 133.498,57.138 133.531,58.630 133.250 C 59.714 133.045,62.130 132.660,64.000 132.393 C 65.870 132.127,68.660 131.653,70.200 131.339 C 71.740 131.025,74.195 130.599,75.655 130.392 C 105.909 126.101,117.257 106.171,118.471 55.200 L 118.600 49.800 117.500 49.673 C 116.895 49.604,116.404 49.694,116.409 49.873 M171.200 65.860 C 169.990 65.921,164.860 66.171,159.800 66.415 C 154.740 66.659,146.100 67.208,140.600 67.634 C 135.100 68.061,129.132 68.523,127.337 68.661 C 124.131 68.908,124.071 68.932,123.908 70.047 C 123.580 72.284,125.132 72.419,137.000 71.190 C 170.704 67.699,219.156 67.972,246.000 71.804 C 263.121 74.248,266.922 74.885,272.000 76.164 C 298.791 82.908,304.679 91.106,309.993 129.059 C 311.057 136.660,313.179 139.514,314.820 135.551 C 316.643 131.152,309.094 99.270,304.359 91.365 C 298.021 80.784,281.644 73.281,258.176 70.205 C 255.549 69.861,250.340 69.139,246.600 68.601 C 228.495 65.994,193.584 64.725,171.200 65.860 M359.000 77.417 C 358.780 77.501,355.540 78.030,351.800 78.591 C 323.810 82.790,323.200 82.930,323.200 85.147 C 323.200 87.864,324.578 88.045,334.278 86.596 C 359.274 82.864,363.136 82.182,364.069 81.338 C 366.567 79.077,362.622 76.025,359.000 77.417 M11.400 131.600 C 11.264 131.820,11.281 132.208,11.438 132.462 C 11.615 132.748,11.548 132.815,11.261 132.638 C 10.977 132.462,10.638 132.774,10.383 133.445 C 9.917 134.670,10.126 135.600,10.867 135.600 C 11.251 135.600,11.253 135.493,10.880 135.120 C 10.616 134.856,10.400 134.456,10.400 134.231 C 10.400 134.006,10.687 134.232,11.038 134.732 L 11.675 135.642 27.538 135.578 C 49.069 135.491,53.470 134.991,53.115 132.675 C 53.041 132.194,52.741 131.851,52.447 131.914 C 44.533 133.611,15.278 134.092,12.901 132.565 C 12.187 132.106,11.722 131.611,11.868 131.465 C 12.014 131.319,12.024 131.200,11.890 131.200 C 11.757 131.200,11.536 131.380,11.400 131.600 M312.509 139.884 C 311.616 141.249,311.621 143.667,312.539 155.400 C 312.918 160.240,313.370 167.174,313.544 170.808 C 313.951 179.283,315.379 181.933,317.936 178.959 L 318.920 177.816 318.666 170.808 C 318.434 164.403,317.173 147.714,316.570 143.083 C 316.118 139.611,313.855 137.827,312.509 139.884 M26.634 151.134 C 24.998 154.299,24.599 166.789,26.151 166.288 C 26.949 166.030,27.931 159.989,27.966 155.124 C 28.002 150.239,27.647 149.176,26.634 151.134 M0.000 162.286 C 0.000 166.270,0.082 166.884,0.548 166.386 C 1.960 164.875,2.158 161.497,0.980 159.015 C 0.026 157.004,0.000 157.090,0.000 162.286 M23.893 174.620 C 23.067 176.217,23.023 176.682,21.012 205.200 C 18.445 241.597,18.354 249.081,20.213 271.084 C 21.411 285.269,23.731 293.505,29.395 303.673 C 42.744 327.638,59.907 337.159,92.786 338.836 C 102.715 339.343,102.318 339.129,103.617 344.673 C 106.842 358.437,97.765 372.831,79.421 383.046 C 73.110 386.560,74.512 387.425,87.238 387.867 C 108.991 388.622,129.985 370.452,133.458 347.864 C 134.637 340.191,133.754 340.601,147.757 341.229 C 181.245 342.730,222.877 340.242,259.200 334.567 C 308.094 326.929,319.763 302.849,319.566 210.000 C 319.514 185.186,319.214 182.400,316.600 182.400 C 314.329 182.400,314.238 182.956,314.427 195.712 C 315.902 295.313,306.372 320.460,264.000 328.769 C 233.366 334.777,178.708 338.000,140.885 336.030 C 128.558 335.387,129.201 335.149,129.198 340.362 C 129.191 356.864,116.935 374.593,100.514 381.855 C 91.699 385.753,84.693 383.909,91.197 379.402 C 103.539 370.849,110.839 352.266,107.383 338.200 C 106.418 334.275,105.995 334.133,94.400 333.849 C 60.991 333.028,40.738 320.984,30.085 295.600 C 25.426 284.499,24.665 281.604,23.618 271.000 C 22.177 256.413,22.069 232.798,23.377 218.400 C 23.726 214.550,24.274 207.530,24.594 202.800 C 24.914 198.070,25.477 190.775,25.846 186.589 C 26.556 178.534,26.419 175.806,25.230 174.337 L 24.503 173.440 23.893 174.620 " stroke="none" fill="#7c6d66" fill-rule="evenodd"></path><path id="path4" d="M309.900 39.632 C 308.473 40.463,307.956 42.461,306.977 50.921 C 306.438 55.584,305.727 61.712,305.398 64.538 C 304.444 72.732,305.035 75.200,307.950 75.200 C 311.131 75.200,311.870 73.459,313.029 63.240 C 313.543 58.708,314.242 52.941,314.582 50.425 C 315.562 43.171,315.375 41.049,313.635 39.713 C 312.862 39.119,310.855 39.076,309.900 39.632 M347.760 40.339 C 346.902 40.965,345.317 42.450,344.237 43.639 C 343.157 44.828,338.736 49.400,334.412 53.800 C 318.223 70.274,317.733 70.913,319.376 73.420 C 320.783 75.567,322.816 75.667,325.241 73.709 C 327.536 71.855,351.722 46.842,352.900 45.103 C 355.679 41.001,351.790 37.396,347.760 40.339 M314.005 42.011 C 314.370 42.892,314.253 44.826,313.436 51.460 C 312.870 56.047,312.121 62.230,311.771 65.200 C 310.865 72.883,310.398 74.000,308.088 74.000 C 305.225 74.000,305.220 74.362,308.444 47.200 C 309.249 40.413,312.201 37.658,314.005 42.011 M352.575 41.738 C 353.213 43.523,352.317 44.615,338.400 59.008 C 323.370 74.552,322.686 75.107,320.731 73.338 C 318.645 71.450,318.452 71.697,336.581 53.048 C 349.749 39.503,351.368 38.358,352.575 41.738 M173.600 64.650 C 159.233 65.327,145.477 66.085,142.000 66.391 C 139.690 66.595,135.370 66.953,132.400 67.187 C 125.021 67.768,123.600 67.978,123.600 68.484 C 123.600 68.948,124.282 68.916,138.400 67.788 C 179.320 64.517,220.360 64.826,246.600 68.601 C 250.340 69.139,255.549 69.861,258.176 70.205 C 281.644 73.281,298.021 80.784,304.359 91.365 C 309.094 99.270,316.643 131.152,314.820 135.551 C 314.114 137.256,313.274 137.416,311.882 136.112 L 310.693 135.000 310.923 137.901 C 311.206 141.467,311.538 142.109,312.238 140.444 C 312.911 138.843,313.807 138.501,314.852 139.447 C 316.227 140.692,316.445 141.466,316.954 146.933 L 317.444 152.200 317.732 147.800 C 317.967 144.205,317.894 142.961,317.331 141.000 C 316.952 139.680,316.609 137.160,316.568 135.400 C 316.334 125.406,310.409 101.161,306.115 92.630 C 300.152 80.783,283.908 72.568,260.200 69.410 C 257.560 69.059,252.340 68.334,248.600 67.800 C 229.411 65.061,224.625 64.757,198.600 64.622 C 186.500 64.560,175.250 64.573,173.600 64.650 M183.400 68.860 C 169.255 69.102,145.310 70.305,137.000 71.190 C 135.020 71.401,131.204 71.696,128.520 71.846 C 124.985 72.043,123.583 72.267,123.433 72.659 C 123.164 73.359,124.256 73.351,133.400 72.589 C 157.060 70.617,175.539 69.798,196.000 69.813 C 221.254 69.833,229.958 70.522,259.600 74.845 C 276.435 77.300,289.477 82.202,295.600 88.375 C 300.394 93.209,300.780 93.462,299.376 90.853 C 295.375 83.414,279.950 76.769,259.800 73.804 C 237.133 70.468,235.210 70.243,222.400 69.425 C 210.373 68.656,202.221 68.538,183.400 68.860 M358.600 76.388 C 357.720 76.546,354.930 76.984,352.400 77.361 C 322.851 81.769,322.000 81.998,322.000 85.538 C 322.000 89.120,323.856 89.316,337.716 87.198 C 365.358 82.973,364.441 83.179,365.501 80.957 C 367.162 77.474,364.044 75.410,358.600 76.388 M364.069 77.862 C 365.008 78.712,365.008 80.488,364.069 81.338 C 363.136 82.182,359.274 82.864,334.278 86.596 C 324.578 88.045,323.200 87.864,323.200 85.147 C 323.200 82.930,323.810 82.790,351.800 78.591 C 355.540 78.030,358.780 77.501,359.000 77.417 C 360.164 76.970,363.396 77.253,364.069 77.862 M121.606 82.389 C 121.353 82.861,121.058 84.632,120.949 86.324 C 119.564 107.888,111.271 125.079,98.927 131.973 C 92.390 135.623,90.055 137.784,95.700 134.959 C 111.423 127.090,118.820 113.384,121.800 86.600 C 122.365 81.524,122.341 81.015,121.606 82.389 M53.742 130.986 C 53.163 131.391,52.962 131.869,53.090 132.539 C 53.192 133.071,53.078 133.628,52.838 133.777 C 51.375 134.681,53.532 135.178,55.340 134.354 C 56.127 133.996,56.312 133.625,56.287 132.454 C 56.242 130.405,55.326 129.876,53.742 130.986 M63.976 140.796 C 60.336 141.403,56.822 142.555,57.264 142.997 C 57.340 143.073,59.921 142.724,63.001 142.222 C 66.080 141.720,69.817 141.180,71.304 141.022 C 72.791 140.864,73.905 140.570,73.780 140.368 C 73.432 139.805,68.677 140.013,63.976 140.796 M41.105 143.242 C 36.926 143.508,33.802 144.125,34.466 144.551 C 35.243 145.050,52.107 143.696,51.776 143.161 C 51.522 142.750,48.442 142.773,41.105 143.242 M26.800 144.695 C 25.487 144.939,25.214 145.436,25.203 147.600 C 25.198 148.590,25.019 150.480,24.805 151.800 C 24.591 153.120,24.237 157.620,24.020 161.800 C 23.796 166.098,23.360 170.356,23.016 171.600 C 21.213 178.119,17.859 230.372,18.125 247.800 C 18.611 279.751,21.104 291.938,30.316 307.400 C 35.107 315.441,46.446 327.748,49.368 328.078 C 50.916 328.253,50.924 328.247,49.974 327.628 C 37.017 319.174,23.871 297.756,21.220 280.781 C 19.853 272.028,18.619 248.304,18.984 237.800 C 19.617 219.620,22.975 176.395,23.893 174.620 L 24.503 173.440 25.230 174.337 C 26.419 175.806,26.556 178.534,25.846 186.589 C 25.477 190.775,24.914 198.070,24.594 202.800 C 24.274 207.530,23.727 214.550,23.377 218.400 C 21.274 241.582,22.925 278.861,26.375 286.083 L 27.195 287.800 26.978 285.400 C 26.858 284.080,26.508 281.200,26.200 279.000 C 25.892 276.800,25.448 272.390,25.213 269.200 C 24.978 266.010,24.483 261.510,24.112 259.200 C 23.073 252.722,23.161 233.263,24.289 220.000 C 24.767 214.390,25.266 208.000,25.399 205.800 C 25.532 203.600,26.013 197.570,26.467 192.400 C 27.049 185.776,27.232 181.304,27.087 177.259 C 26.916 172.503,27.003 171.088,27.595 169.019 C 29.662 161.790,29.904 143.557,27.920 144.454 C 27.854 144.484,27.350 144.593,26.800 144.695 M27.966 155.124 C 27.931 159.989,26.949 166.030,26.151 166.288 C 24.599 166.789,24.998 154.299,26.634 151.134 C 27.647 149.176,28.002 150.239,27.966 155.124 M317.714 155.400 C 317.717 156.500,317.795 156.903,317.887 156.295 C 317.979 155.686,317.977 154.786,317.882 154.295 C 317.787 153.803,317.711 154.300,317.714 155.400 M1.153 154.300 C 1.127 154.465,1.127 154.735,1.153 154.900 C 1.179 155.065,1.009 155.200,0.776 155.200 C 0.543 155.200,0.456 155.368,0.583 155.572 C 0.709 155.777,0.646 156.048,0.442 156.174 C -0.038 156.471,0.067 157.025,0.992 159.095 C 2.042 161.444,3.200 160.555,3.200 157.400 C 3.200 155.263,1.425 152.576,1.153 154.300 M318.846 176.446 C 318.752 179.402,316.679 180.774,315.017 178.980 C 313.751 177.615,313.446 178.235,313.793 181.468 L 314.071 184.072 314.961 183.236 C 316.422 181.864,318.786 182.599,318.806 184.431 C 318.811 184.902,318.879 184.896,319.200 184.400 C 319.668 183.676,319.682 178.822,319.223 176.600 L 318.892 175.000 318.846 176.446 M102.877 344.990 C 102.544 345.722,102.520 346.276,102.798 346.797 C 103.968 348.982,102.618 357.204,100.352 361.699 C 96.227 369.880,87.996 377.566,77.934 382.633 C 70.382 386.436,72.510 388.108,86.297 389.203 C 90.760 389.557,91.302 389.526,92.406 388.855 L 93.618 388.118 86.909 387.867 C 74.510 387.403,73.159 386.533,79.421 383.046 C 95.612 374.030,104.075 362.645,104.133 349.800 C 104.143 347.600,103.973 345.380,103.755 344.867 L 103.358 343.935 102.877 344.990 M108.259 345.833 C 108.129 346.255,107.838 348.581,107.613 351.001 C 106.574 362.179,100.223 373.147,91.149 379.435 C 86.162 382.891,88.780 385.077,95.897 383.399 C 100.645 382.280,109.004 377.600,106.256 377.600 C 105.581 377.600,104.470 378.111,103.535 378.852 C 99.950 381.691,90.800 383.963,90.800 382.014 C 90.800 381.832,93.185 379.273,96.100 376.327 C 104.374 367.967,107.713 361.184,109.453 349.200 C 109.696 347.523,108.649 344.571,108.259 345.833 " stroke="none" fill="#94887f" fill-rule="evenodd"></path><path id="path5" d="M180.000 75.453 C 161.993 76.273,138.113 77.844,128.077 78.869 C 123.731 79.312,123.530 79.374,122.977 80.445 C 122.195 81.958,122.247 82.118,123.300 81.432 C 126.562 79.304,176.771 76.574,206.445 76.910 C 229.558 77.171,236.536 77.711,259.200 80.990 C 276.106 83.435,284.078 85.416,292.406 89.238 C 296.681 91.200,297.600 91.489,297.600 90.870 C 297.600 89.533,290.118 85.318,286.800 84.786 C 285.810 84.627,282.390 83.833,279.200 83.022 C 273.039 81.454,252.321 78.184,242.200 77.180 C 227.360 75.709,223.150 75.518,203.400 75.419 C 192.180 75.362,181.650 75.378,180.000 75.453 M316.210 129.200 C 316.381 131.510,316.486 134.390,316.444 135.601 C 316.401 136.812,316.646 138.597,316.989 139.568 C 317.717 141.634,318.535 149.087,319.382 161.400 C 319.716 166.240,320.083 171.280,320.199 172.600 C 320.315 173.920,320.199 176.378,319.941 178.062 C 319.537 180.709,319.567 181.458,320.165 183.588 C 321.543 188.500,321.709 246.822,320.394 264.200 C 316.493 315.774,304.078 333.570,267.400 340.167 C 235.059 345.983,183.066 348.919,145.320 347.061 L 138.441 346.723 137.460 347.704 C 136.646 348.518,136.436 349.222,136.224 351.842 C 134.337 375.151,114.724 394.397,92.370 394.874 C 87.276 394.983,86.653 394.342,89.401 391.820 C 91.743 389.669,91.521 389.189,88.634 390.171 C 86.902 390.759,86.325 391.196,85.619 392.451 C 83.806 395.677,85.597 396.614,92.962 396.291 C 115.478 395.305,135.661 375.908,137.558 353.435 C 138.032 347.808,137.160 348.158,149.288 348.733 C 177.809 350.087,207.519 348.957,243.200 345.160 C 276.406 341.627,290.841 337.067,301.228 326.830 C 310.956 317.243,317.894 300.761,320.017 282.200 C 320.243 280.220,320.689 276.440,321.007 273.800 C 322.971 257.498,323.663 214.300,322.361 189.200 C 322.150 185.130,321.919 178.290,321.847 174.000 C 321.776 169.710,321.429 163.410,321.077 160.000 C 320.724 156.590,320.244 151.440,320.010 148.556 C 319.775 145.672,319.299 142.342,318.952 141.156 C 318.604 139.970,318.183 137.200,318.017 135.000 C 317.669 130.413,316.875 125.984,316.295 125.400 C 316.032 125.135,316.003 126.420,316.210 129.200 M90.200 137.016 C 87.543 137.777,81.807 139.061,74.000 140.641 L 72.600 140.925 73.800 141.272 C 75.234 141.686,77.070 141.421,79.865 140.395 C 81.001 139.978,84.057 139.343,86.657 138.984 C 91.714 138.284,92.196 138.130,93.366 136.837 C 94.263 135.846,94.288 135.845,90.200 137.016 M54.640 143.266 C 51.735 143.660,51.607 143.776,53.174 144.587 C 54.367 145.204,54.494 145.189,56.048 144.263 C 58.036 143.077,57.713 142.849,54.640 143.266 M33.110 145.043 C 31.366 145.959,31.137 146.890,30.724 154.753 C 30.509 158.849,30.120 164.365,29.859 167.011 C 29.569 169.954,29.516 172.594,29.722 173.811 C 29.969 175.268,29.891 176.389,29.432 178.000 C 29.088 179.210,28.627 182.900,28.408 186.200 C 28.189 189.500,27.652 196.430,27.214 201.600 C 26.776 206.770,26.218 213.970,25.975 217.600 C 25.731 221.230,25.371 225.820,25.174 227.800 C 23.993 239.720,24.298 262.240,25.824 275.770 C 26.661 283.186,26.967 282.532,26.558 274.200 C 25.653 255.754,26.192 238.774,28.597 210.000 C 28.919 206.150,29.377 199.940,29.614 196.200 C 30.310 185.247,30.670 182.350,31.588 180.298 C 32.365 178.563,32.397 178.182,31.961 175.965 C 31.178 171.987,32.658 148.297,33.843 145.835 C 34.536 144.396,34.473 144.327,33.110 145.043 M100.800 151.400 C 99.751 151.804,96.545 151.947,88.026 151.970 C 67.349 152.025,66.631 152.720,69.033 170.370 C 69.495 173.769,69.602 183.262,69.610 221.770 C 69.615 248.679,69.776 269.675,69.983 270.569 C 71.080 275.301,76.636 277.579,80.935 275.059 C 84.366 273.049,84.173 274.878,84.400 242.120 C 84.559 219.207,84.707 213.132,85.119 212.720 C 85.485 212.352,87.654 212.136,92.519 211.983 C 101.635 211.695,103.144 210.965,104.443 206.216 C 105.996 200.536,101.729 197.606,91.900 197.602 C 84.085 197.599,84.401 197.898,84.398 190.500 C 84.397 186.354,84.562 184.538,85.069 183.124 C 85.702 181.355,85.700 181.113,85.034 178.912 C 84.162 176.032,84.240 167.754,85.149 166.660 C 85.808 165.868,98.662 165.689,101.347 166.434 C 107.010 168.007,109.456 157.322,104.609 152.182 C 103.181 150.668,102.868 150.604,100.800 151.400 M245.600 152.228 C 244.610 152.544,242.004 152.993,239.808 153.226 C 232.930 153.954,229.902 157.962,232.156 163.356 C 233.600 166.812,234.677 167.165,244.373 167.367 C 253.020 167.546,252.562 167.182,252.209 173.600 C 252.069 176.130,251.975 179.010,251.999 180.000 C 252.023 180.990,252.168 201.960,252.321 226.600 C 252.579 268.000,252.653 271.496,253.292 272.665 C 255.813 277.272,262.743 277.537,265.400 273.128 C 266.186 271.823,266.203 270.908,266.400 220.268 C 266.596 169.839,266.617 168.723,267.376 168.168 C 268.519 167.333,271.751 167.471,274.032 168.452 L 276.013 169.304 277.798 168.357 C 286.899 163.529,286.887 157.264,277.767 152.426 L 275.953 151.464 274.166 152.332 C 271.633 153.562,259.390 153.603,253.600 152.400 C 249.155 151.477,248.030 151.452,245.600 152.228 M201.400 152.800 C 200.740 152.968,199.253 153.127,198.096 153.153 C 196.618 153.186,195.823 153.408,195.423 153.900 C 195.110 154.285,194.041 155.569,193.047 156.752 C 192.054 157.936,191.119 159.466,190.971 160.152 C 190.823 160.839,190.019 163.110,189.183 165.200 C 188.348 167.290,187.187 170.800,186.603 173.000 C 186.019 175.200,184.996 177.897,184.329 178.993 C 183.150 180.933,183.131 181.044,183.621 183.089 C 184.028 184.784,184.027 185.832,183.616 188.496 C 182.891 193.195,182.629 208.327,183.150 215.400 C 184.149 228.953,184.828 236.979,185.199 239.593 C 189.357 268.909,193.355 276.449,204.800 276.561 C 213.055 276.642,219.016 271.007,222.741 259.600 C 227.096 246.266,227.104 241.796,222.776 239.588 C 218.283 237.296,213.824 239.732,212.262 245.330 C 210.087 253.127,209.575 254.840,208.836 256.800 C 204.333 268.740,200.635 258.285,198.226 226.800 C 196.424 203.257,196.552 192.645,198.766 181.800 C 202.253 164.714,206.322 163.342,211.809 177.400 C 213.762 182.402,215.900 184.396,219.316 184.399 C 225.071 184.403,227.761 179.282,225.184 173.226 C 218.766 158.145,209.996 150.613,201.400 152.800 M146.571 153.772 C 140.183 155.497,139.378 156.819,133.601 175.076 C 133.101 176.657,132.188 178.712,131.572 179.642 C 130.633 181.061,130.486 181.626,130.658 183.166 C 130.802 184.464,130.220 188.155,128.664 195.800 C 127.455 201.740,125.907 210.380,125.225 215.000 C 124.542 219.620,123.642 225.380,123.224 227.800 C 122.807 230.220,121.905 236.430,121.219 241.600 C 120.533 246.770,119.621 253.610,119.193 256.800 C 117.319 270.770,117.333 272.564,119.336 274.738 C 121.845 277.461,126.312 277.512,129.343 274.852 C 130.703 273.658,131.581 271.296,131.991 267.730 C 134.422 246.562,134.999 242.823,135.991 241.830 C 137.203 240.618,153.316 240.315,154.744 241.479 C 155.689 242.248,156.478 248.150,157.592 262.800 C 158.405 273.479,160.373 276.800,165.890 276.800 C 171.964 276.800,172.951 274.031,171.590 260.800 C 171.149 256.510,170.523 250.210,170.200 246.800 C 168.177 225.459,165.113 194.093,164.017 183.509 C 163.042 174.093,163.014 172.341,163.796 169.764 C 165.267 164.915,164.486 161.213,161.324 158.049 C 156.371 153.090,152.862 152.073,146.571 153.772 M104.286 154.621 C 106.374 156.957,106.279 161.894,104.112 163.598 C 103.167 164.341,102.544 164.384,93.914 164.299 C 82.097 164.183,82.389 163.893,82.962 175.176 C 83.113 178.159,83.231 180.780,83.224 181.000 C 83.217 181.220,83.101 184.460,82.967 188.200 C 82.578 199.057,82.681 199.185,91.754 199.194 C 100.438 199.203,102.730 200.232,103.079 204.281 C 103.488 209.027,101.480 210.144,92.082 210.400 C 81.921 210.676,82.562 209.378,82.894 229.000 C 83.013 236.040,82.995 248.494,82.855 256.675 L 82.600 271.549 81.419 272.781 C 79.698 274.576,77.770 274.985,75.164 274.107 C 71.012 272.708,71.444 278.360,71.093 220.871 C 70.924 193.222,70.744 167.778,70.693 164.329 C 70.540 153.983,70.699 153.888,88.600 153.580 C 103.344 153.327,103.116 153.312,104.286 154.621 M210.000 155.394 C 215.093 157.983,221.796 167.206,224.256 175.011 C 225.586 179.229,223.514 182.801,219.740 182.799 C 216.231 182.796,214.873 181.400,212.660 175.522 C 211.016 171.153,207.810 166.767,205.663 165.949 C 199.643 163.654,194.502 186.372,195.812 209.478 C 196.607 223.487,197.572 237.535,197.811 238.565 C 197.918 239.024,198.356 242.215,198.784 245.657 C 201.466 267.193,207.446 269.485,212.202 250.800 C 214.392 242.197,215.637 240.400,219.407 240.400 C 224.216 240.400,225.604 243.351,223.990 250.146 C 219.981 267.029,214.494 274.612,205.917 275.127 C 196.493 275.693,192.472 270.548,188.984 253.463 C 185.232 235.082,183.210 202.893,184.979 189.692 C 185.311 187.212,185.477 184.412,185.347 183.468 C 185.175 182.214,185.337 181.220,185.949 179.776 C 186.409 178.689,187.405 175.628,188.162 172.974 C 190.030 166.427,193.265 159.290,195.237 157.363 C 198.674 154.008,205.487 153.099,210.000 155.394 M262.389 154.778 C 267.401 155.061,270.173 155.044,272.189 154.720 C 278.524 153.701,282.800 155.898,282.800 160.172 C 282.800 164.607,279.228 166.789,273.088 166.103 C 268.354 165.573,266.293 165.904,265.538 167.315 C 265.185 167.976,265.059 180.989,265.034 219.614 C 265.002 268.469,264.964 271.089,264.278 272.136 C 261.944 275.701,257.381 275.576,254.637 271.870 C 253.801 270.741,253.800 270.705,253.711 225.670 C 253.662 200.882,253.600 180.240,253.573 179.800 C 253.546 179.360,253.657 176.911,253.820 174.359 C 254.350 166.046,254.303 166.001,245.100 165.998 C 235.778 165.995,234.260 165.454,233.244 161.773 C 232.106 157.654,234.342 155.378,239.861 155.038 C 242.028 154.904,244.970 154.633,246.400 154.435 C 249.054 154.067,250.187 154.092,262.389 154.778 M154.513 155.464 C 159.600 156.891,160.530 159.017,161.397 171.194 C 161.718 175.707,162.244 181.380,162.567 183.800 C 162.889 186.220,163.439 191.440,163.789 195.400 C 164.138 199.360,164.611 204.021,164.839 205.758 C 165.067 207.495,165.597 212.805,166.016 217.558 C 167.231 231.337,168.332 242.844,169.177 250.600 C 171.534 272.214,171.336 274.560,167.094 275.356 C 161.064 276.487,159.752 273.258,158.172 253.400 C 157.383 243.477,157.055 241.673,155.816 240.435 L 154.850 239.468 145.651 239.506 C 139.797 239.530,136.154 239.703,135.631 239.984 C 133.829 240.948,133.410 243.158,130.849 265.214 C 129.927 273.156,128.540 275.267,124.242 275.267 C 119.518 275.267,118.558 272.698,119.806 263.400 C 120.131 260.980,120.580 257.380,120.804 255.400 C 121.342 250.635,123.081 237.966,123.852 233.200 C 124.190 231.110,124.804 227.060,125.216 224.200 C 125.629 221.340,126.146 218.070,126.367 216.933 C 126.587 215.796,126.955 213.366,127.185 211.533 C 127.414 209.700,127.963 206.490,128.404 204.400 C 131.156 191.357,132.097 186.706,132.448 184.400 C 132.666 182.970,133.111 180.990,133.437 180.000 C 140.469 158.635,141.243 157.046,145.118 156.034 C 150.249 154.694,151.498 154.618,154.513 155.464 M147.672 174.113 C 145.492 176.739,141.870 191.902,137.857 215.200 C 135.538 228.661,135.376 228.404,146.160 228.394 C 155.457 228.386,155.909 227.976,154.987 220.400 C 154.705 218.090,154.265 213.500,154.007 210.200 C 153.750 206.900,153.378 203.019,153.181 201.575 C 152.985 200.131,152.544 195.271,152.203 190.775 C 151.019 175.197,149.971 171.343,147.672 174.113 M149.266 178.610 C 149.710 180.269,151.242 195.295,153.547 220.591 C 154.126 226.935,154.293 226.800,145.856 226.800 C 138.839 226.800,138.000 226.518,138.000 224.164 C 138.000 219.513,144.359 187.538,146.863 179.600 C 147.701 176.941,148.709 176.526,149.266 178.610 M45.600 326.970 C 45.600 327.916,52.162 333.363,55.899 335.520 C 67.216 342.051,78.835 345.295,94.996 346.437 C 98.293 346.670,101.190 347.026,101.432 347.227 C 102.008 347.705,102.400 347.285,102.400 346.190 C 102.400 345.350,102.192 345.302,97.500 345.038 C 77.452 343.910,59.999 338.423,51.600 330.608 C 48.106 327.357,45.600 325.838,45.600 326.970 M109.676 356.000 L 109.764 364.600 108.156 368.844 C 107.271 371.178,105.798 374.185,104.883 375.526 C 103.162 378.047,103.213 378.934,105.012 377.756 C 106.147 377.012,106.855 375.765,108.786 371.107 C 111.450 364.684,112.271 357.721,111.055 351.869 C 109.845 346.042,109.582 346.829,109.676 356.000 " stroke="none" fill="#f1dc8a" fill-rule="evenodd"></path><path id="path6" d="M174.600 77.223 C 148.659 78.465,125.272 80.305,123.520 81.243 C 123.124 81.455,122.800 81.914,122.800 82.263 C 122.800 82.791,122.904 82.811,123.420 82.383 C 124.150 81.777,139.023 80.319,153.600 79.424 C 194.123 76.936,228.351 77.424,250.400 80.803 C 253.370 81.258,257.060 81.796,258.600 81.999 C 270.029 83.503,272.843 84.026,280.177 86.007 C 286.045 87.592,288.294 88.423,293.589 90.965 C 296.797 92.505,298.538 92.824,298.145 91.800 C 298.018 91.470,297.637 91.200,297.297 91.200 C 296.958 91.200,294.757 90.317,292.406 89.238 C 281.230 84.109,260.862 80.224,232.200 77.755 C 223.359 76.994,186.503 76.653,174.600 77.223 M118.962 114.042 C 118.133 114.959,117.655 175.494,118.451 178.826 C 119.068 181.411,122.934 183.198,127.910 183.200 C 129.766 183.200,130.184 184.459,129.411 187.723 C 128.001 193.682,124.636 211.790,124.008 216.800 C 123.746 218.890,123.357 221.408,123.143 222.396 C 122.685 224.508,120.639 238.525,119.785 245.400 C 119.457 248.040,118.848 252.630,118.431 255.600 C 116.006 272.877,116.509 276.002,121.977 277.640 C 128.381 279.559,132.081 275.581,133.250 265.518 C 135.075 249.821,136.037 243.422,136.681 242.711 C 137.258 242.073,138.180 242.000,145.653 242.000 C 155.524 242.000,154.990 241.702,155.321 247.400 C 155.508 250.634,155.994 255.885,157.201 267.716 C 157.995 275.495,162.338 279.339,168.377 277.607 C 173.184 276.228,173.923 273.287,172.611 260.745 C 172.050 255.385,171.226 246.950,170.779 242.000 C 170.332 237.050,169.426 227.690,168.765 221.200 C 167.260 206.418,166.871 202.466,166.401 197.200 C 166.196 194.890,165.630 189.580,165.144 185.400 C 163.968 175.291,164.314 174.039,167.404 177.204 C 170.452 180.325,176.900 183.200,180.855 183.200 C 183.028 183.200,183.319 184.363,182.567 190.047 C 181.840 195.548,181.960 216.590,182.760 224.000 C 182.986 226.090,183.455 230.860,183.802 234.600 C 186.118 259.556,190.997 273.664,198.256 276.390 C 211.153 281.234,220.205 273.866,225.341 254.341 C 228.264 243.232,227.292 239.223,221.381 237.996 C 215.491 236.773,213.016 239.130,210.426 248.429 C 207.898 257.501,206.405 260.795,205.055 260.277 C 201.982 259.097,197.989 224.245,197.989 198.595 C 197.989 186.864,201.739 169.753,204.546 168.676 C 206.053 168.098,209.018 172.352,211.219 178.250 C 214.568 187.227,221.252 188.193,227.068 180.542 L 227.935 179.400 229.668 180.257 C 234.339 182.566,243.904 183.840,248.288 182.736 C 251.888 181.830,251.598 177.942,251.618 227.344 C 251.637 276.393,251.452 273.495,254.708 275.770 C 257.840 277.957,262.958 277.556,265.252 274.943 C 267.556 272.318,267.400 276.267,267.400 220.468 C 267.400 162.820,267.082 168.093,270.531 168.536 C 272.924 168.843,273.447 169.582,273.743 173.074 C 274.330 180.029,278.337 183.731,284.578 183.087 C 290.772 182.448,291.236 178.820,285.126 178.805 C 280.703 178.795,278.911 177.079,278.526 172.489 C 278.267 169.396,278.185 169.541,281.581 167.079 C 286.609 163.435,286.361 156.069,281.119 153.358 C 278.538 152.023,278.400 151.664,278.400 146.262 C 278.400 139.964,278.396 139.969,284.016 139.636 C 288.118 139.393,288.779 139.104,288.794 137.549 C 288.806 136.287,287.553 135.804,283.691 135.583 C 278.401 135.280,278.215 135.035,278.526 128.757 C 278.780 123.614,278.409 122.400,276.587 122.400 C 274.950 122.400,274.357 123.902,273.945 129.092 C 273.508 134.583,273.266 134.983,269.997 135.596 C 265.579 136.426,265.796 139.071,270.342 139.804 C 273.370 140.292,273.642 140.866,273.512 146.501 C 273.370 152.675,273.800 152.386,264.745 152.394 C 256.133 152.402,251.415 151.053,241.883 145.857 C 225.299 136.817,234.739 119.001,253.436 124.055 C 259.203 125.614,260.800 125.468,260.800 123.380 C 260.800 118.937,245.458 117.747,237.157 121.547 C 225.658 126.810,225.822 142.140,237.446 148.640 C 241.719 151.030,241.760 151.730,237.667 152.451 C 230.432 153.725,227.930 162.678,233.631 166.891 C 235.249 168.087,237.321 168.380,244.220 168.390 C 251.851 168.402,251.601 168.259,251.599 172.580 C 251.597 176.427,250.807 178.139,248.853 178.529 C 245.390 179.222,242.511 179.259,240.142 178.641 C 238.791 178.288,237.261 178.000,236.742 178.000 C 236.224 178.000,234.659 177.460,233.264 176.800 C 231.869 176.140,230.159 175.597,229.464 175.594 C 227.674 175.585,227.421 175.338,225.779 171.991 C 218.070 156.283,211.152 150.363,202.056 151.688 C 198.180 152.253,197.753 152.092,197.391 149.928 C 194.914 135.100,176.315 130.760,167.261 142.898 C 165.109 145.783,162.400 152.043,162.400 154.132 C 162.400 155.923,161.364 156.188,159.351 154.914 C 158.278 154.235,156.470 153.286,155.334 152.805 C 153.220 151.911,153.026 151.649,152.001 148.308 C 149.278 139.433,138.492 133.706,129.200 136.200 C 122.874 137.898,122.800 137.767,122.800 124.885 C 122.800 118.662,122.640 114.449,122.386 113.974 C 121.826 112.928,119.936 112.966,118.962 114.042 M93.366 136.837 C 92.196 138.130,91.714 138.284,86.657 138.984 C 84.057 139.343,80.911 140.025,79.665 140.498 C 78.291 141.021,76.377 141.380,74.800 141.412 C 71.317 141.483,71.191 141.511,71.446 142.176 C 71.568 142.494,70.855 144.249,69.861 146.076 C 66.413 152.421,65.807 159.250,67.777 169.553 L 68.800 174.907 68.800 222.603 C 68.800 264.512,68.875 270.511,69.416 272.044 C 71.775 278.733,81.472 278.961,84.554 272.400 C 85.387 270.628,85.402 270.163,85.504 242.410 C 85.595 217.765,85.684 214.144,86.218 213.610 C 86.699 213.130,88.250 212.957,93.514 212.800 C 102.869 212.520,105.600 210.660,105.600 204.567 C 105.600 198.985,102.108 196.800,93.192 196.800 C 85.135 196.800,85.443 197.012,85.261 191.351 C 85.047 184.703,85.588 183.560,89.200 183.027 C 96.647 181.929,101.019 178.438,104.382 170.907 C 109.152 160.227,109.206 159.339,105.620 150.520 C 102.729 143.412,101.599 141.897,96.641 138.483 C 95.389 137.621,94.805 136.964,94.951 136.583 C 95.287 135.709,94.235 135.878,93.366 136.837 M308.474 137.622 C 295.631 142.773,292.400 166.062,302.972 177.274 C 306.782 181.315,313.200 183.952,313.200 181.477 C 313.200 179.568,312.482 178.523,310.331 177.301 C 299.270 171.020,297.827 153.289,307.564 143.286 C 310.346 140.427,310.792 139.488,310.157 137.833 C 309.883 137.118,309.767 137.104,308.474 137.622 M138.261 140.598 C 141.929 141.702,146.732 146.376,147.631 149.717 C 148.214 151.878,147.814 152.476,145.376 153.090 C 140.035 154.435,138.190 157.524,133.208 173.466 C 131.658 178.426,131.106 179.014,128.050 178.959 C 125.085 178.904,123.385 178.023,123.053 176.367 C 122.489 173.546,122.770 144.018,123.372 142.853 C 124.821 140.052,132.554 138.881,138.261 140.598 M92.808 141.284 C 95.420 142.507,97.143 144.051,98.787 146.644 C 101.547 150.996,101.143 151.136,85.600 151.233 L 73.000 151.312 72.883 150.351 C 72.761 149.357,74.495 146.328,76.368 144.262 C 79.932 140.332,87.751 138.915,92.808 141.284 M185.904 141.027 C 190.736 143.435,194.797 152.069,192.528 155.110 L 191.714 156.200 180.649 156.306 C 165.601 156.451,165.079 156.135,168.538 148.981 C 172.460 140.867,179.298 137.735,185.904 141.027 M55.725 144.430 C 54.518 145.203,54.383 145.212,53.188 144.594 C 51.725 143.837,51.358 144.001,51.968 145.139 C 52.783 146.662,52.542 174.713,51.699 176.400 C 49.867 180.069,38.129 179.927,34.046 176.187 L 32.600 174.863 32.600 170.931 C 32.600 164.532,34.040 147.119,34.652 146.121 C 35.272 145.110,34.735 144.514,34.002 145.398 C 32.687 146.982,31.093 171.995,32.028 176.358 C 32.404 178.110,32.351 178.593,31.597 180.278 C 30.669 182.352,30.312 185.216,29.614 196.200 C 29.377 199.940,28.919 206.150,28.597 210.000 C 25.826 243.152,25.277 278.200,27.452 283.000 C 27.929 284.052,27.971 283.413,27.796 277.800 C 26.910 249.440,26.984 245.837,29.012 218.600 C 29.537 211.560,30.157 202.650,30.390 198.800 C 31.521 180.160,31.223 180.835,37.621 182.453 C 43.032 183.821,52.978 182.573,55.605 180.196 C 56.985 178.947,57.147 176.988,57.148 161.600 C 57.148 153.350,57.160 146.208,57.174 145.729 C 57.188 145.249,57.483 144.574,57.829 144.229 C 58.798 143.259,57.334 143.399,55.725 144.430 M104.609 152.182 C 109.456 157.322,107.010 168.007,101.347 166.434 C 98.662 165.689,85.808 165.868,85.149 166.660 C 84.240 167.754,84.162 176.032,85.034 178.912 C 85.700 181.113,85.702 181.355,85.069 183.124 C 84.562 184.538,84.397 186.354,84.398 190.500 C 84.401 197.898,84.085 197.599,91.900 197.602 C 101.729 197.606,105.996 200.536,104.443 206.216 C 103.144 210.965,101.635 211.695,92.519 211.983 C 87.654 212.136,85.485 212.352,85.119 212.720 C 84.707 213.132,84.559 219.207,84.400 242.120 C 84.173 274.878,84.366 273.049,80.935 275.059 C 76.636 277.579,71.080 275.301,69.983 270.569 C 69.776 269.675,69.615 248.679,69.610 221.770 C 69.602 183.262,69.495 173.769,69.033 170.370 C 66.631 152.720,67.349 152.025,88.026 151.970 C 96.545 151.947,99.751 151.804,100.800 151.400 C 102.868 150.604,103.181 150.668,104.609 152.182 M253.600 152.400 C 259.390 153.603,271.633 153.562,274.166 152.332 L 275.953 151.464 277.767 152.426 C 286.887 157.264,286.899 163.529,277.798 168.357 L 276.013 169.304 274.032 168.452 C 271.751 167.471,268.519 167.333,267.376 168.168 C 266.617 168.723,266.596 169.839,266.400 220.268 C 266.203 270.908,266.186 271.823,265.400 273.128 C 262.743 277.537,255.813 277.272,253.292 272.665 C 252.653 271.496,252.579 268.000,252.321 226.600 C 252.168 201.960,252.023 180.990,251.999 180.000 C 251.975 179.010,252.069 176.130,252.209 173.600 C 252.562 167.182,253.020 167.546,244.373 167.367 C 234.677 167.165,233.600 166.812,232.156 163.356 C 229.902 157.962,232.930 153.954,239.808 153.226 C 242.004 152.993,244.610 152.544,245.600 152.228 C 248.030 151.452,249.155 151.477,253.600 152.400 M208.289 153.004 C 214.127 154.738,220.627 162.517,225.184 173.226 C 227.761 179.282,225.071 184.403,219.316 184.399 C 215.900 184.396,213.762 182.402,211.809 177.400 C 206.322 163.342,202.253 164.714,198.766 181.800 C 196.552 192.645,196.424 203.257,198.226 226.800 C 200.635 258.285,204.333 268.740,208.836 256.800 C 209.575 254.840,210.087 253.127,212.262 245.330 C 213.824 239.732,218.283 237.296,222.776 239.588 C 227.104 241.796,227.096 246.266,222.741 259.600 C 219.016 271.007,213.055 276.642,204.800 276.561 C 193.355 276.449,189.357 268.909,185.199 239.593 C 184.828 236.979,184.149 228.953,183.150 215.400 C 182.629 208.327,182.891 193.195,183.616 188.496 C 184.027 185.832,184.028 184.784,183.621 183.089 C 183.131 181.044,183.150 180.933,184.329 178.993 C 184.996 177.897,186.019 175.200,186.603 173.000 C 187.187 170.800,188.348 167.290,189.183 165.200 C 190.019 163.110,190.823 160.839,190.971 160.152 C 191.119 159.466,192.054 157.936,193.047 156.752 C 194.041 155.569,195.110 154.285,195.423 153.900 C 195.823 153.408,196.618 153.186,198.096 153.153 C 199.253 153.127,200.740 152.968,201.400 152.800 C 203.413 152.288,206.149 152.369,208.289 153.004 M154.578 153.615 C 162.346 156.213,165.977 162.574,163.796 169.764 C 163.014 172.341,163.042 174.093,164.017 183.509 C 165.113 194.093,168.177 225.459,170.200 246.800 C 170.523 250.210,171.149 256.510,171.590 260.800 C 172.951 274.031,171.964 276.800,165.890 276.800 C 160.373 276.800,158.405 273.479,157.592 262.800 C 156.478 248.150,155.689 242.248,154.744 241.479 C 153.316 240.315,137.203 240.618,135.991 241.830 C 134.999 242.823,134.422 246.562,131.991 267.730 C 131.581 271.296,130.703 273.658,129.343 274.852 C 126.312 277.512,121.845 277.461,119.336 274.738 C 117.333 272.564,117.319 270.770,119.193 256.800 C 119.621 253.610,120.533 246.770,121.219 241.600 C 121.905 236.430,122.807 230.220,123.224 227.800 C 123.642 225.380,124.542 219.620,125.225 215.000 C 125.907 210.380,127.455 201.740,128.664 195.800 C 130.220 188.155,130.802 184.464,130.658 183.166 C 130.486 181.626,130.633 181.061,131.572 179.642 C 132.188 178.712,133.101 176.657,133.601 175.076 C 139.378 156.819,140.183 155.497,146.571 153.772 C 150.684 152.661,151.668 152.642,154.578 153.615 M187.321 160.251 C 189.771 160.587,189.808 160.882,188.026 165.885 C 187.181 168.258,186.084 171.704,185.589 173.542 C 184.130 178.964,182.897 179.708,177.836 178.221 C 170.254 175.993,163.200 164.175,167.454 160.829 C 168.548 159.969,182.333 159.568,187.321 160.251 M99.374 167.190 C 100.681 167.687,100.688 168.659,99.402 171.197 C 96.747 176.435,88.588 180.639,86.199 177.999 C 85.011 176.686,84.993 168.233,86.176 167.368 C 87.100 166.692,97.690 166.550,99.374 167.190 M147.712 177.687 C 146.006 179.834,138.000 218.145,138.000 224.164 C 138.000 226.518,138.839 226.800,145.856 226.800 C 154.293 226.800,154.126 226.935,153.547 220.591 C 149.704 178.422,149.328 175.653,147.712 177.687 M149.400 186.649 C 149.739 189.702,150.281 195.170,150.605 198.800 C 150.928 202.430,151.472 208.190,151.814 211.600 C 152.770 221.130,152.966 225.050,152.501 225.337 C 152.132 225.566,143.392 225.804,140.714 225.659 C 139.054 225.569,138.810 224.644,139.431 220.800 C 142.482 201.934,146.337 183.185,147.691 180.636 C 148.371 179.355,148.729 180.617,149.400 186.649 M320.875 216.400 C 320.759 246.979,320.266 259.433,318.555 275.000 C 314.161 314.991,301.044 332.686,271.600 338.343 C 259.702 340.629,251.194 341.771,228.000 344.194 C 205.044 346.593,169.275 347.390,146.200 346.017 C 136.242 345.425,135.859 345.647,135.185 352.400 C 133.568 368.598,124.445 381.924,110.000 389.186 C 100.990 393.717,86.921 395.672,91.200 391.800 C 91.992 391.084,92.287 390.000,91.691 390.000 C 90.526 390.000,87.477 393.648,88.112 394.283 C 88.957 395.128,94.581 395.087,98.770 394.206 C 119.381 389.871,134.533 372.732,136.224 351.842 C 136.436 349.222,136.646 348.518,137.460 347.704 L 138.441 346.723 145.320 347.061 C 172.710 348.410,211.267 347.160,239.425 344.011 C 277.845 339.714,289.944 336.062,300.407 325.605 C 317.308 308.711,322.332 280.543,321.201 209.000 L 320.961 193.800 320.875 216.400 M51.772 330.753 C 55.346 334.538,68.181 340.339,77.965 342.592 C 85.084 344.231,102.000 345.829,102.000 344.862 C 102.000 344.266,100.983 344.087,96.000 343.805 C 78.260 342.800,65.383 338.998,53.161 331.155 C 50.723 329.591,50.656 329.572,51.772 330.753 M110.109 347.600 C 110.221 348.150,110.626 350.040,111.009 351.800 C 112.380 358.107,111.457 364.941,108.230 372.375 C 106.124 377.228,107.120 376.978,109.449 372.070 C 112.431 365.785,113.518 356.091,111.897 350.235 C 111.219 347.788,109.683 345.525,110.109 347.600 " stroke="none" fill="#f3dc73" fill-rule="evenodd"></path><path id="path7" d="M122.228 82.900 C 122.125 83.395,121.929 85.060,121.792 86.600 C 119.615 111.044,111.772 126.209,97.163 134.220 C 94.497 135.681,94.089 136.014,95.194 135.823 C 99.027 135.161,107.140 128.789,110.953 123.445 C 117.284 114.573,121.323 101.396,122.644 85.300 C 122.896 82.229,122.656 80.843,122.228 82.900 M299.348 94.076 C 303.382 101.492,306.747 114.528,308.620 130.000 C 308.980 132.970,309.525 136.120,309.831 137.000 C 310.185 138.016,310.392 140.352,310.398 143.400 C 310.403 146.040,310.579 150.180,310.789 152.600 C 310.999 155.020,311.449 161.687,311.789 167.415 C 312.129 173.143,312.543 178.363,312.709 179.015 C 313.175 180.847,312.960 236.720,312.449 246.400 C 309.713 298.208,299.324 318.144,271.200 325.548 C 244.592 332.552,185.383 336.526,140.129 334.346 C 127.306 333.728,127.603 333.563,127.595 341.280 C 127.582 353.735,120.604 366.486,109.551 374.253 C 104.631 377.710,104.681 379.437,109.605 376.123 C 121.434 368.162,129.192 354.001,129.198 340.362 C 129.201 335.149,128.558 335.387,140.885 336.030 C 183.658 338.258,246.675 333.826,272.494 326.773 C 298.161 319.761,309.457 300.962,312.976 259.400 C 314.327 243.446,315.080 198.457,314.198 186.400 C 314.077 184.750,313.897 180.790,313.797 177.600 C 313.511 168.471,312.835 157.757,311.942 148.200 C 311.490 143.360,310.975 137.780,310.799 135.800 C 309.002 115.664,303.442 95.153,298.829 91.643 L 297.457 90.600 299.348 94.076 M70.800 141.057 C 60.732 142.551,58.139 142.993,57.820 143.270 C 56.689 144.253,69.937 142.477,72.000 141.369 C 72.991 140.837,72.734 140.770,70.800 141.057 M47.000 144.013 C 45.460 144.171,42.186 144.323,39.724 144.350 C 36.904 144.382,35.145 144.566,34.970 144.848 C 34.455 145.681,50.638 145.134,51.482 144.289 C 52.276 143.496,52.130 143.487,47.000 144.013 M317.601 148.820 C 317.602 150.019,317.789 153.880,318.016 157.400 C 318.243 160.920,318.595 166.770,318.798 170.400 C 319.212 177.793,319.595 180.016,320.021 177.495 C 320.483 174.763,318.663 147.735,317.969 147.020 C 317.742 146.787,317.601 147.481,317.601 148.820 M319.496 183.421 C 319.371 184.069,319.367 192.700,319.486 202.600 C 320.604 294.918,309.802 323.179,269.800 332.595 C 243.822 338.709,184.759 342.888,147.757 341.229 C 133.754 340.601,134.637 340.191,133.458 347.864 C 130.711 365.730,115.945 382.031,98.000 387.008 C 91.407 388.837,88.692 390.433,93.185 389.839 C 113.739 387.121,132.675 367.239,135.409 345.505 C 135.803 342.371,135.912 342.332,143.339 342.689 C 188.443 344.858,256.645 339.355,278.353 331.797 C 305.407 322.377,316.874 300.554,320.073 252.400 C 320.745 242.281,320.819 184.690,320.162 183.221 L 319.724 182.241 319.496 183.421 M27.040 284.942 C 27.862 295.885,39.508 314.639,49.806 321.601 C 61.516 329.517,75.606 333.387,94.400 333.849 C 104.312 334.092,105.741 334.339,106.574 335.950 C 107.086 336.939,107.352 338.109,108.464 344.247 C 108.668 345.373,109.091 346.633,109.405 347.047 C 110.792 348.880,109.367 337.831,107.833 334.864 C 106.935 333.126,105.809 332.907,95.400 332.439 C 58.231 330.770,38.393 317.799,29.266 289.200 C 28.599 287.110,27.773 284.590,27.429 283.600 L 26.804 281.800 27.040 284.942 M48.800 328.143 C 48.800 328.570,53.521 331.302,57.000 332.890 C 66.877 337.397,80.510 340.306,92.400 340.443 C 94.490 340.467,97.280 340.602,98.600 340.743 L 101.000 341.000 101.560 342.800 C 101.867 343.790,102.195 344.870,102.287 345.200 C 102.632 346.439,103.296 344.330,103.076 342.692 C 102.648 339.499,102.122 339.302,92.786 338.831 C 75.922 337.981,67.401 336.063,55.134 330.357 C 50.708 328.298,48.800 327.631,48.800 328.143 " stroke="none" fill="#b0984e" fill-rule="evenodd"></path><path id="path8" d="M309.537 38.210 C 307.599 39.262,306.809 41.148,306.412 45.668 C 306.212 47.940,305.769 51.600,305.427 53.800 C 302.944 69.776,303.210 74.809,306.612 76.231 C 310.993 78.061,313.192 74.802,314.191 65.000 C 314.550 61.480,315.106 56.890,315.427 54.800 C 316.456 48.097,316.625 41.994,315.826 40.312 C 314.704 37.948,311.803 36.978,309.537 38.210 M348.194 38.338 C 346.651 39.280,319.434 67.197,318.389 68.911 C 315.943 72.923,319.476 77.641,323.831 76.177 C 325.037 75.771,327.287 73.721,333.547 67.325 C 344.330 56.307,353.695 46.436,354.528 45.211 C 357.245 41.213,352.293 35.839,348.194 38.338 M313.635 39.713 C 315.375 41.049,315.562 43.171,314.582 50.425 C 314.242 52.941,313.543 58.708,313.029 63.240 C 311.870 73.459,311.131 75.200,307.950 75.200 C 305.035 75.200,304.444 72.732,305.398 64.538 C 305.727 61.712,306.438 55.584,306.977 50.921 C 307.956 42.461,308.473 40.463,309.900 39.632 C 310.855 39.076,312.862 39.119,313.635 39.713 M352.964 40.431 C 355.218 43.108,354.927 43.515,339.207 59.664 C 322.425 76.903,321.898 77.269,319.376 73.420 C 317.733 70.913,318.223 70.274,334.412 53.800 C 338.736 49.400,343.157 44.828,344.237 43.639 C 348.413 39.042,350.997 38.092,352.964 40.431 M122.600 48.269 C 121.503 48.489,121.339 66.309,122.424 67.395 C 123.090 68.061,121.862 68.124,142.000 66.395 C 156.859 65.120,171.408 64.625,194.400 64.613 C 222.656 64.598,228.987 64.969,248.600 67.792 C 252.340 68.331,257.560 69.059,260.200 69.410 C 283.883 72.565,300.156 80.786,306.099 92.600 C 308.790 97.948,314.485 117.747,315.438 125.066 C 315.736 127.355,315.748 127.373,316.065 126.000 C 317.058 121.701,310.739 98.101,306.587 90.600 C 300.873 80.277,285.598 72.231,265.200 68.801 C 226.487 62.290,188.291 61.276,137.927 65.423 C 122.177 66.720,123.635 67.701,123.785 55.900 C 123.840 51.555,123.776 48.025,123.643 48.054 C 123.509 48.084,123.040 48.181,122.600 48.269 M82.709 72.822 C 82.830 98.310,82.812 98.540,80.582 100.241 C 76.389 103.439,73.316 100.968,70.833 92.400 C 65.819 75.092,64.608 70.924,62.563 63.927 C 61.320 59.677,60.038 55.210,59.714 54.000 C 58.971 51.232,58.856 51.056,58.164 51.630 C 57.443 52.228,57.443 54.475,58.165 57.013 C 58.668 58.782,60.802 66.072,63.724 76.000 C 64.274 77.870,65.382 81.650,66.185 84.400 C 70.931 100.646,71.006 100.838,73.259 102.442 C 76.849 104.999,82.187 103.515,84.035 99.446 C 84.738 97.898,84.783 96.379,84.791 73.933 C 84.798 55.221,84.908 50.023,85.300 49.865 C 85.575 49.754,85.080 49.649,84.200 49.631 L 82.600 49.600 82.709 72.822 M51.478 52.179 C 51.037 52.620,50.979 53.167,51.232 54.479 C 51.780 57.311,51.640 97.952,51.077 99.586 C 49.643 103.750,43.573 103.876,41.592 99.782 C 40.843 98.237,40.800 97.273,40.800 82.128 C 40.800 67.806,40.659 64.881,39.789 61.200 C 39.660 60.650,39.503 59.940,39.442 59.622 C 39.257 58.664,38.487 58.692,37.941 59.676 C 37.320 60.795,37.256 61.270,37.653 61.814 C 38.490 62.961,38.794 68.644,38.799 83.200 C 38.805 100.711,38.868 101.246,41.184 103.338 C 44.662 106.480,50.479 105.541,52.700 101.479 C 53.392 100.214,53.987 53.873,53.333 52.169 C 53.052 51.437,52.216 51.442,51.478 52.179 M181.400 69.818 C 180.520 69.893,174.760 70.157,168.600 70.404 C 156.872 70.875,145.515 71.580,133.400 72.589 C 129.440 72.919,125.349 73.192,124.309 73.195 C 121.512 73.203,121.079 74.067,120.930 79.946 C 120.858 82.814,120.941 84.216,121.147 83.600 C 121.331 83.050,121.968 81.886,122.562 81.014 C 123.428 79.740,123.593 79.144,123.398 77.986 C 123.031 75.814,124.031 74.811,126.800 74.572 C 128.010 74.467,132.960 74.032,137.800 73.603 C 154.716 72.107,173.000 71.400,194.800 71.400 C 221.897 71.400,228.053 71.799,251.000 75.047 C 273.844 78.280,279.336 79.927,294.400 88.068 L 296.600 89.257 294.401 87.208 C 288.781 81.972,274.883 77.054,259.400 74.822 C 236.690 71.549,236.037 71.471,224.000 70.589 C 216.241 70.021,185.540 69.465,181.400 69.818 M357.967 74.963 C 357.792 75.134,352.000 76.076,340.600 77.788 C 321.672 80.629,320.800 80.958,320.800 85.258 C 320.800 90.107,323.116 90.815,333.670 89.191 C 338.142 88.503,343.510 87.687,345.600 87.377 C 363.903 84.662,364.321 84.560,366.152 82.384 C 367.951 80.246,367.239 76.737,364.724 75.341 C 363.889 74.878,358.369 74.569,357.967 74.963 M363.776 76.391 C 365.458 77.031,366.305 79.271,365.501 80.957 C 364.441 83.179,365.358 82.973,337.716 87.198 C 323.856 89.316,322.000 89.120,322.000 85.538 C 322.000 81.998,322.851 81.769,352.400 77.361 C 354.930 76.984,357.720 76.546,358.600 76.388 C 361.006 75.955,362.633 75.956,363.776 76.391 M120.514 88.600 C 120.517 89.700,120.595 90.103,120.687 89.495 C 120.779 88.886,120.777 87.986,120.682 87.495 C 120.587 87.003,120.511 87.500,120.514 88.600 M119.266 96.046 C 117.935 103.519,115.867 110.316,113.378 115.400 C 112.193 117.820,111.501 119.440,111.840 119.000 C 114.882 115.051,119.039 102.119,120.232 92.900 C 120.729 89.049,120.211 90.737,119.266 96.046 M53.571 115.254 C 52.918 116.474,53.408 128.780,54.139 129.510 C 55.346 130.717,55.793 128.996,55.927 122.636 C 56.082 115.223,55.150 112.303,53.571 115.254 M106.429 125.710 C 103.811 128.609,103.732 128.738,105.760 126.800 C 107.755 124.894,109.913 122.379,109.527 122.410 C 109.457 122.416,108.063 123.901,106.429 125.710 M93.668 134.424 C 93.155 134.630,90.365 135.159,87.468 135.600 C 84.571 136.041,79.950 137.108,77.200 137.971 C 74.450 138.834,71.840 139.609,71.400 139.692 C 70.960 139.775,71.694 139.974,73.031 140.133 C 75.434 140.421,78.409 139.912,89.258 137.360 C 91.292 136.881,96.476 133.734,94.750 134.025 C 94.668 134.039,94.181 134.219,93.668 134.424 M52.688 136.269 C 51.377 137.202,50.713 137.359,47.492 137.495 C 42.809 137.693,42.202 138.217,46.328 138.500 C 51.091 138.827,52.988 140.781,50.000 142.285 L 49.000 142.788 50.276 142.794 C 50.978 142.797,51.664 142.980,51.800 143.201 C 52.190 143.832,56.359 143.180,58.600 142.138 C 60.505 141.252,60.541 141.208,59.344 141.204 C 57.589 141.198,56.428 140.105,55.959 138.016 C 55.272 134.959,54.848 134.732,52.688 136.269 M31.783 140.744 C 28.460 142.316,27.709 143.502,28.622 145.732 C 29.931 148.927,29.309 163.023,27.595 169.019 C 27.003 171.088,26.916 172.503,27.087 177.259 C 27.232 181.304,27.049 185.776,26.467 192.400 C 26.013 197.570,25.532 203.600,25.399 205.800 C 25.266 208.000,24.765 214.390,24.286 220.000 C 23.598 228.067,23.427 232.877,23.471 243.000 C 23.552 261.808,24.175 263.345,24.525 245.600 C 24.679 237.790,24.969 229.780,25.168 227.800 C 25.368 225.820,25.731 221.230,25.975 217.600 C 26.218 213.970,26.776 206.770,27.213 201.600 C 28.398 187.594,28.861 181.048,28.982 176.600 C 29.041 174.400,29.371 170.260,29.713 167.400 C 30.056 164.540,30.512 158.849,30.726 154.753 C 31.203 145.626,32.413 143.600,37.387 143.600 C 38.164 143.600,38.800 143.420,38.800 143.200 C 38.800 142.980,38.273 142.800,37.629 142.800 C 35.823 142.800,35.038 141.818,35.852 140.577 C 36.781 139.159,34.976 139.234,31.783 140.744 M12.721 143.180 C 10.608 143.591,10.103 144.170,9.811 146.520 C 9.296 150.671,7.917 157.022,7.333 157.935 C 6.731 158.877,4.802 158.901,4.467 157.970 C 4.393 157.767,4.078 157.600,3.767 157.600 C 3.005 157.600,3.051 158.953,3.867 160.520 C 6.165 164.935,4.065 179.067,0.995 179.837 C -0.229 180.144,-0.579 184.400,0.620 184.400 C 3.693 184.400,5.842 179.620,7.182 169.808 C 7.421 168.053,8.328 164.431,9.197 161.761 C 10.153 158.823,11.048 154.970,11.465 152.003 C 12.338 145.778,12.424 145.672,16.800 145.361 C 20.759 145.079,22.225 145.499,22.845 147.093 C 23.485 148.740,22.601 163.984,21.586 168.795 C 21.053 171.324,20.651 175.525,20.383 181.395 C 20.161 186.238,19.720 193.080,19.402 196.600 C 19.085 200.120,18.637 206.330,18.408 210.400 C 18.179 214.470,17.734 220.500,17.420 223.800 C 16.194 236.665,16.269 254.527,17.599 266.400 C 17.809 268.270,18.166 272.265,18.393 275.279 C 19.739 293.120,28.489 311.066,42.109 323.922 C 46.943 328.485,46.533 326.861,41.540 321.668 C 19.463 298.708,15.016 275.562,19.741 208.200 C 21.819 178.579,22.170 174.659,23.016 171.600 C 23.357 170.366,23.792 166.151,24.008 162.000 C 24.219 157.930,24.565 153.250,24.777 151.600 C 24.990 149.950,25.255 147.643,25.366 146.473 L 25.569 144.347 23.884 143.582 C 22.111 142.777,15.936 142.554,12.721 143.180 M102.256 346.999 C 102.115 347.366,101.994 348.506,101.986 349.533 C 101.893 362.027,92.384 373.957,75.916 382.239 C 71.455 384.483,70.529 386.054,72.548 387.951 C 74.278 389.576,86.009 391.284,88.400 390.260 C 90.171 389.501,89.679 389.333,84.799 389.032 C 72.861 388.296,70.696 386.278,77.934 382.633 C 93.264 374.913,103.206 362.067,103.191 350.000 C 103.188 347.251,102.726 345.772,102.256 346.999 M108.893 351.800 C 108.648 352.680,108.246 354.542,107.999 355.938 C 106.736 363.089,103.192 369.162,96.100 376.327 C 93.185 379.273,90.800 381.832,90.800 382.014 C 90.800 383.781,99.840 381.757,102.979 379.288 C 104.719 377.919,103.546 377.970,99.977 379.417 C 96.701 380.746,95.200 381.067,94.683 380.550 C 94.545 380.412,96.078 378.521,98.088 376.348 C 103.556 370.436,104.792 368.573,107.734 361.800 C 108.992 358.905,109.337 357.570,109.495 354.985 C 109.745 350.885,109.503 349.605,108.893 351.800 " stroke="none" fill="#a1ced4" fill-rule="evenodd"></path></g></svg>