<svg id="svg" version="1.1" xmlns="http://www.w3.org/2000/svg" xmlns:xlink="http://www.w3.org/1999/xlink" width="400" height="400" viewBox="0, 0, 400,400"><g id="svgg"><path id="path0" d="M66.000 47.569 C 65.230 47.745,64.093 48.095,63.474 48.345 C 62.855 48.595,61.922 48.800,61.403 48.800 C 60.883 48.800,60.196 49.061,59.877 49.380 C 59.558 49.699,58.809 50.083,58.213 50.232 C 56.806 50.586,50.586 56.806,50.232 58.213 C 50.083 58.809,49.699 59.558,49.380 59.877 C 49.061 60.196,48.800 60.900,48.800 61.441 C 48.800 61.983,48.545 63.037,48.232 63.784 C 47.403 65.769,47.100 69.138,47.566 71.200 C 48.445 75.091,49.326 78.000,49.624 78.000 C 49.796 78.000,50.057 78.548,50.204 79.219 C 50.569 80.879,56.721 87.031,58.381 87.396 C 59.052 87.543,59.600 87.804,59.600 87.976 C 59.600 88.305,63.133 89.340,66.700 90.057 C 68.166 90.352,69.434 90.353,70.900 90.062 C 73.990 89.447,77.771 88.353,78.000 88.009 C 78.110 87.843,78.650 87.571,79.200 87.403 C 80.425 87.030,80.680 86.820,84.276 83.215 C 86.004 81.482,87.254 79.866,87.408 79.166 C 87.548 78.525,87.804 78.000,87.976 78.000 C 88.319 78.000,89.408 74.220,90.022 70.900 C 90.274 69.541,90.274 68.059,90.022 66.700 C 89.408 63.380,88.319 59.600,87.976 59.600 C 87.804 59.600,87.543 59.052,87.396 58.381 C 87.061 56.856,80.932 50.620,79.387 50.232 C 78.791 50.083,78.042 49.699,77.723 49.380 C 77.404 49.061,76.700 48.800,76.159 48.800 C 75.617 48.800,74.537 48.534,73.758 48.208 C 72.010 47.478,67.879 47.137,66.000 47.569 M328.600 47.602 C 325.996 48.158,322.741 49.152,322.254 49.540 C 322.004 49.739,321.350 50.037,320.800 50.202 C 320.250 50.367,319.530 50.751,319.200 51.057 C 318.870 51.362,317.655 52.489,316.500 53.560 C 315.345 54.631,314.400 55.714,314.400 55.966 C 314.400 56.219,314.139 56.525,313.819 56.648 C 313.500 56.770,313.036 57.485,312.788 58.235 C 312.541 58.986,312.195 59.600,312.021 59.600 C 311.847 59.600,311.493 60.674,311.234 61.987 C 310.976 63.300,310.593 64.481,310.382 64.611 C 309.743 65.006,309.917 72.149,310.598 73.454 C 310.926 74.084,311.196 74.926,311.198 75.325 C 311.201 76.319,313.207 80.526,313.866 80.920 C 314.159 81.096,314.400 81.426,314.400 81.653 C 314.400 81.994,316.664 84.289,318.944 86.257 C 320.473 87.577,326.545 89.770,329.800 90.179 C 332.554 90.525,337.386 89.457,341.200 87.658 C 343.515 86.566,349.600 80.931,349.600 79.878 C 349.600 79.565,349.960 78.850,350.400 78.291 C 350.840 77.731,351.200 76.921,351.200 76.489 C 351.200 76.057,351.560 74.577,352.000 73.200 C 352.440 71.823,352.800 69.843,352.800 68.800 C 352.800 67.757,352.440 65.777,352.000 64.400 C 351.560 63.023,351.200 61.543,351.200 61.111 C 351.200 60.679,350.840 59.869,350.400 59.309 C 349.960 58.750,349.600 58.035,349.600 57.722 C 349.600 55.917,340.626 48.800,338.350 48.800 C 337.923 48.800,336.949 48.539,336.185 48.220 C 334.395 47.471,330.643 47.166,328.600 47.602 M40.350 141.383 C 40.244 141.489,38.997 141.873,37.580 142.236 C 36.163 142.600,34.573 143.235,34.048 143.648 C 33.522 144.062,32.843 144.400,32.538 144.400 C 31.619 144.400,26.058 150.164,25.360 151.839 C 25.003 152.697,24.582 153.490,24.425 153.600 C 22.736 154.787,22.651 156.976,22.519 202.657 L 22.393 246.314 28.555 246.457 C 33.729 246.577,34.840 246.712,35.490 247.300 C 35.915 247.685,36.429 248.002,36.631 248.004 C 37.083 248.009,39.600 250.559,39.600 251.011 C 39.600 251.190,39.915 251.685,40.300 252.110 C 40.958 252.838,41.006 256.038,41.106 305.528 L 41.212 358.172 42.058 359.920 C 44.279 364.508,49.367 366.432,53.600 364.283 C 55.654 363.240,57.599 361.659,57.602 361.028 C 57.604 360.793,57.919 360.060,58.302 359.400 C 58.953 358.280,59.013 354.675,59.200 305.400 C 59.395 253.913,59.419 252.570,60.180 251.400 C 64.511 244.734,73.089 244.734,77.420 251.400 C 78.181 252.570,78.205 253.913,78.400 305.400 L 78.600 358.200 79.479 360.000 C 82.825 366.854,92.208 366.807,95.542 359.920 L 96.388 358.172 96.494 305.528 C 96.594 256.038,96.642 252.838,97.300 252.110 C 97.685 251.685,98.000 251.190,98.000 251.011 C 98.000 250.559,100.517 248.009,100.969 248.004 C 101.171 248.002,101.674 247.695,102.086 247.322 C 102.634 246.826,103.793 246.599,106.417 246.473 C 109.757 246.314,110.000 246.244,110.000 245.447 C 110.000 244.977,110.360 244.368,110.800 244.093 C 111.497 243.658,111.600 243.160,111.600 240.243 C 111.600 237.230,111.680 236.872,112.400 236.684 C 113.110 236.498,113.200 236.138,113.200 233.484 C 113.200 230.830,113.290 230.470,114.000 230.284 C 114.711 230.098,114.800 229.738,114.800 227.037 C 114.800 224.708,114.930 224.000,115.357 224.000 C 116.184 224.000,116.400 223.080,116.400 219.567 C 116.400 216.667,116.467 216.400,117.200 216.400 C 117.932 216.400,118.000 216.133,118.000 213.247 C 118.000 210.430,118.085 210.071,118.800 209.884 C 119.511 209.698,119.600 209.338,119.600 206.637 C 119.600 204.318,119.731 203.600,120.153 203.600 C 120.880 203.600,121.188 202.348,121.195 199.362 C 121.199 197.436,121.368 196.772,122.000 196.200 C 123.050 195.250,123.190 183.938,122.200 180.135 C 121.870 178.869,121.600 176.918,121.600 175.800 C 121.600 174.682,121.344 172.785,121.031 171.584 C 120.718 170.383,120.285 167.484,120.068 165.142 C 119.851 162.800,119.495 160.550,119.276 160.142 C 119.058 159.734,118.750 158.500,118.592 157.400 C 118.435 156.300,117.967 154.839,117.553 154.153 C 117.139 153.467,116.800 152.710,116.800 152.471 C 116.800 151.187,110.551 144.400,109.369 144.400 C 109.115 144.400,108.478 144.062,107.952 143.648 C 105.176 141.464,104.305 141.409,71.172 141.295 C 54.326 141.237,40.456 141.277,40.350 141.383 M299.950 141.383 C 299.844 141.489,298.597 141.870,297.179 142.229 C 295.760 142.589,294.330 143.113,294.000 143.394 C 293.670 143.675,292.977 144.034,292.461 144.192 C 291.489 144.489,291.160 144.736,288.800 146.943 C 286.571 149.028,285.171 150.771,284.570 152.209 C 284.263 152.944,283.829 153.658,283.606 153.796 C 283.383 153.934,283.200 154.480,283.200 155.009 C 283.200 155.538,282.866 156.832,282.457 157.885 C 281.946 159.200,281.637 161.379,281.468 164.845 C 281.333 167.619,281.034 170.385,280.803 170.992 C 280.573 171.598,280.214 174.998,280.006 178.547 C 279.798 182.096,279.429 186.054,279.186 187.343 C 278.466 191.158,278.829 201.562,279.700 202.049 C 280.269 202.367,280.400 202.997,280.400 205.420 C 280.400 208.081,280.481 208.400,281.160 208.400 C 281.841 208.400,281.935 208.779,282.060 212.028 C 282.174 214.974,282.332 215.730,282.900 216.048 C 283.467 216.366,283.600 216.995,283.600 219.373 C 283.600 221.970,283.692 222.331,284.400 222.516 C 285.111 222.702,285.200 223.062,285.200 225.763 C 285.200 228.267,285.340 228.940,286.000 229.600 C 286.656 230.256,286.800 230.933,286.800 233.373 C 286.800 235.995,286.895 236.376,287.600 236.600 C 288.301 236.822,288.400 237.205,288.400 239.680 C 288.400 241.966,288.546 242.633,289.165 243.170 C 289.586 243.535,289.991 244.366,290.065 245.017 L 290.200 246.200 293.650 246.436 C 297.504 246.700,299.039 247.399,301.222 249.886 C 303.602 252.596,303.600 252.584,303.600 268.990 L 303.600 284.005 331.300 283.903 L 359.000 283.800 359.200 268.200 C 359.418 251.231,359.340 251.798,361.768 249.402 C 364.356 246.848,364.988 246.657,371.600 246.421 L 377.800 246.200 377.800 202.600 C 377.800 161.860,377.754 158.921,377.102 157.800 C 376.719 157.140,376.401 156.240,376.397 155.800 C 376.392 155.360,376.132 154.550,375.818 154.000 C 375.505 153.450,374.965 152.387,374.619 151.639 C 373.845 149.965,368.458 144.595,367.152 144.196 C 366.629 144.036,365.930 143.675,365.600 143.394 C 363.394 141.514,361.569 141.406,329.972 141.295 C 313.566 141.237,300.056 141.277,299.950 141.383 M200.200 185.377 C 199.540 185.684,198.334 186.236,197.519 186.604 C 191.382 189.377,189.065 200.070,193.758 203.965 C 194.111 204.258,194.401 204.701,194.403 204.949 C 194.405 205.348,194.975 205.794,197.200 207.140 C 200.218 208.965,204.334 209.328,207.245 208.024 C 209.758 206.900,211.977 205.467,211.989 204.962 C 211.995 204.721,212.360 204.198,212.800 203.800 C 213.240 203.402,213.600 202.872,213.600 202.623 C 213.600 202.373,213.960 201.463,214.400 200.600 C 216.608 196.270,212.574 186.583,208.482 186.386 C 208.327 186.379,207.480 186.025,206.600 185.600 C 204.716 184.690,201.887 184.591,200.200 185.377 M232.241 260.369 C 231.604 260.789,230.434 261.254,229.641 261.402 C 228.849 261.550,228.020 261.816,227.800 261.994 C 227.377 262.334,223.812 263.376,220.800 264.039 C 219.810 264.257,217.650 264.743,216.000 265.118 C 212.215 265.978,193.116 266.122,190.800 265.308 C 190.030 265.037,188.125 264.637,186.567 264.418 C 185.008 264.200,183.208 263.748,182.567 263.413 C 181.925 263.079,180.977 262.804,180.460 262.802 C 179.944 262.801,178.954 262.541,178.260 262.223 C 177.567 261.906,176.243 261.451,175.317 261.213 C 174.391 260.974,173.526 260.603,173.393 260.389 C 173.261 260.175,172.713 260.000,172.176 260.000 L 171.200 260.000 171.200 268.753 C 171.200 278.573,171.003 277.980,174.271 277.995 C 174.971 277.998,175.789 278.246,176.090 278.547 C 176.391 278.848,177.013 279.214,177.473 279.360 C 177.932 279.506,178.824 280.384,179.453 281.312 C 180.083 282.241,180.777 283.127,180.995 283.283 C 181.216 283.440,181.504 286.693,181.643 290.578 C 181.789 294.674,182.074 297.807,182.329 298.114 C 182.569 298.403,182.890 299.441,183.043 300.420 C 183.196 301.399,183.654 302.629,184.060 303.154 C 184.467 303.679,184.800 304.269,184.800 304.466 C 184.800 305.083,187.965 308.860,189.514 310.090 C 190.328 310.737,191.085 311.408,191.197 311.579 C 191.309 311.751,191.850 312.028,192.400 312.193 C 192.950 312.359,193.670 312.728,194.000 313.013 C 194.330 313.299,195.320 313.666,196.200 313.829 C 197.080 313.992,198.379 314.367,199.087 314.663 C 199.795 314.958,201.646 315.200,203.200 315.200 C 204.754 315.200,206.605 314.958,207.313 314.663 C 208.021 314.367,209.320 313.992,210.200 313.829 C 211.080 313.666,212.070 313.299,212.400 313.013 C 212.730 312.728,213.450 312.361,214.000 312.198 C 215.244 311.828,221.010 306.033,221.413 304.747 C 221.576 304.226,222.045 303.371,222.455 302.846 C 222.865 302.321,223.201 301.421,223.202 300.846 C 223.204 300.271,223.498 299.260,223.856 298.600 C 224.356 297.679,224.552 295.864,224.698 290.800 C 224.962 281.619,226.959 278.600,233.300 277.793 L 235.200 277.551 235.200 268.818 C 235.200 261.224,235.118 260.054,234.567 259.843 C 233.657 259.493,233.524 259.524,232.241 260.369 " stroke="none" fill="#fafafa" fill-rule="evenodd"></path><path id="path1" d="M57.314 28.009 C 57.126 28.724,54.898 29.158,53.066 28.836 C 52.882 28.804,52.636 29.142,52.519 29.589 C 52.355 30.216,51.977 30.400,50.850 30.400 C 49.826 30.400,49.244 30.638,48.893 31.200 C 48.603 31.665,47.960 32.000,47.359 32.000 C 46.662 32.000,46.257 32.260,46.116 32.800 C 45.966 33.374,45.570 33.600,44.716 33.600 C 43.862 33.600,43.466 33.826,43.316 34.400 C 43.200 34.843,42.770 35.200,42.353 35.200 C 41.867 35.200,41.600 35.483,41.600 36.000 C 41.600 36.533,41.333 36.800,40.800 36.800 C 40.267 36.800,40.000 37.067,40.000 37.600 C 40.000 38.133,39.733 38.400,39.200 38.400 C 38.667 38.400,38.400 38.667,38.400 39.200 C 38.400 39.733,38.133 40.000,37.600 40.000 C 37.067 40.000,36.800 40.267,36.800 40.800 C 36.800 41.333,36.533 41.600,36.000 41.600 C 35.483 41.600,35.200 41.867,35.200 42.353 C 35.200 42.770,34.843 43.200,34.400 43.316 C 33.826 43.466,33.600 43.862,33.600 44.716 C 33.600 45.570,33.374 45.966,32.800 46.116 C 32.260 46.257,32.000 46.662,32.000 47.359 C 32.000 47.960,31.665 48.603,31.200 48.893 C 30.638 49.244,30.400 49.826,30.400 50.850 C 30.400 51.915,30.207 52.357,29.682 52.495 C 29.150 52.633,28.936 53.140,28.860 54.439 C 28.797 55.504,28.454 56.517,27.988 57.013 C 26.791 58.287,26.824 79.977,28.023 80.290 C 28.673 80.460,28.800 80.852,28.800 82.684 C 28.800 84.538,28.923 84.907,29.600 85.084 C 30.199 85.241,30.400 85.630,30.400 86.633 C 30.400 87.562,30.645 88.103,31.200 88.400 C 31.732 88.685,32.000 89.238,32.000 90.052 C 32.000 90.938,32.220 91.332,32.800 91.484 C 33.240 91.599,33.600 92.018,33.600 92.414 C 33.600 93.562,34.040 94.400,34.643 94.400 C 34.949 94.400,35.200 94.760,35.200 95.200 C 35.200 95.733,35.467 96.000,36.000 96.000 C 36.533 96.000,36.800 96.267,36.800 96.800 C 36.800 97.333,37.067 97.600,37.600 97.600 C 38.133 97.600,38.400 97.867,38.400 98.400 C 38.400 98.933,38.667 99.200,39.200 99.200 C 39.733 99.200,40.000 99.467,40.000 100.000 C 40.000 100.533,40.267 100.800,40.800 100.800 C 41.333 100.800,41.600 101.067,41.600 101.600 C 41.600 102.133,41.867 102.400,42.400 102.400 C 42.840 102.400,43.200 102.662,43.200 102.982 C 43.200 103.327,43.754 103.668,44.563 103.819 C 45.432 103.982,45.999 104.352,46.126 104.838 C 46.267 105.378,46.682 105.600,47.548 105.600 C 48.362 105.600,48.915 105.868,49.200 106.400 C 49.502 106.964,50.038 107.200,51.014 107.200 C 51.979 107.200,52.400 107.382,52.400 107.800 C 52.400 108.267,52.933 108.400,54.800 108.400 C 56.933 108.400,57.200 108.489,57.200 109.200 C 57.200 109.982,57.467 110.000,68.800 110.000 C 80.133 110.000,80.400 109.982,80.400 109.200 C 80.400 108.489,80.667 108.400,82.800 108.400 C 84.667 108.400,85.200 108.267,85.200 107.800 C 85.200 107.382,85.621 107.200,86.586 107.200 C 87.562 107.200,88.098 106.964,88.400 106.400 C 88.685 105.868,89.238 105.600,90.052 105.600 C 90.918 105.600,91.333 105.378,91.474 104.838 C 91.601 104.352,92.168 103.982,93.037 103.819 C 93.846 103.668,94.400 103.327,94.400 102.982 C 94.400 102.662,94.760 102.400,95.200 102.400 C 95.733 102.400,96.000 102.133,96.000 101.600 C 96.000 101.067,96.267 100.800,96.800 100.800 C 97.333 100.800,97.600 100.533,97.600 100.000 C 97.600 99.467,97.867 99.200,98.400 99.200 C 98.933 99.200,99.200 98.933,99.200 98.400 C 99.200 97.867,99.467 97.600,100.000 97.600 C 100.533 97.600,100.800 97.333,100.800 96.800 C 100.800 96.267,101.067 96.000,101.600 96.000 C 102.133 96.000,102.400 95.733,102.400 95.200 C 102.400 94.760,102.662 94.400,102.982 94.400 C 103.327 94.400,103.668 93.846,103.819 93.037 C 103.982 92.168,104.352 91.601,104.838 91.474 C 105.378 91.333,105.600 90.918,105.600 90.052 C 105.600 89.238,105.868 88.685,106.400 88.400 C 106.964 88.098,107.200 87.562,107.200 86.586 C 107.200 85.621,107.382 85.200,107.800 85.200 C 108.267 85.200,108.400 84.667,108.400 82.800 C 108.400 80.667,108.489 80.400,109.200 80.400 C 109.982 80.400,110.000 80.133,110.000 68.800 C 110.000 57.467,109.982 57.200,109.200 57.200 C 108.489 57.200,108.400 56.933,108.400 54.800 C 108.400 52.933,108.267 52.400,107.800 52.400 C 107.382 52.400,107.200 51.979,107.200 51.014 C 107.200 50.038,106.964 49.502,106.400 49.200 C 105.868 48.915,105.600 48.362,105.600 47.548 C 105.600 46.662,105.380 46.268,104.800 46.116 C 104.360 46.001,104.000 45.582,104.000 45.186 C 104.000 44.038,103.560 43.200,102.957 43.200 C 102.651 43.200,102.400 42.840,102.400 42.400 C 102.400 41.867,102.133 41.600,101.600 41.600 C 101.067 41.600,100.800 41.333,100.800 40.800 C 100.800 40.267,100.533 40.000,100.000 40.000 C 99.467 40.000,99.200 39.733,99.200 39.200 C 99.200 38.667,98.933 38.400,98.400 38.400 C 97.867 38.400,97.600 38.133,97.600 37.600 C 97.600 37.067,97.333 36.800,96.800 36.800 C 96.267 36.800,96.000 36.533,96.000 36.000 C 96.000 35.483,95.733 35.200,95.247 35.200 C 94.830 35.200,94.400 34.843,94.284 34.400 C 94.134 33.826,93.738 33.600,92.884 33.600 C 92.030 33.600,91.634 33.374,91.484 32.800 C 91.332 32.220,90.938 32.000,90.052 32.000 C 89.238 32.000,88.685 31.732,88.400 31.200 C 88.103 30.645,87.562 30.400,86.633 30.400 C 85.630 30.400,85.241 30.199,85.084 29.600 C 84.907 28.923,84.538 28.800,82.684 28.800 C 80.852 28.800,80.460 28.673,80.290 28.024 C 79.970 26.799,57.634 26.785,57.314 28.009 M319.710 28.024 C 319.527 28.724,317.277 29.155,315.466 28.836 C 315.282 28.804,315.036 29.142,314.919 29.589 C 314.759 30.200,314.377 30.400,313.367 30.400 C 312.438 30.400,311.897 30.645,311.600 31.200 C 311.320 31.724,310.762 32.000,309.986 32.000 C 309.067 32.000,308.800 32.180,308.800 32.800 C 308.800 33.452,308.533 33.600,307.363 33.600 C 306.262 33.600,305.876 33.787,305.716 34.400 C 305.600 34.843,305.170 35.200,304.753 35.200 C 304.267 35.200,304.000 35.483,304.000 36.000 C 304.000 36.533,303.733 36.800,303.200 36.800 C 302.667 36.800,302.400 37.067,302.400 37.600 C 302.400 38.133,302.133 38.400,301.600 38.400 C 301.067 38.400,300.800 38.667,300.800 39.200 C 300.800 39.733,300.533 40.000,300.000 40.000 C 299.467 40.000,299.200 40.267,299.200 40.800 C 299.200 41.333,298.933 41.600,298.400 41.600 C 297.867 41.600,297.600 41.867,297.600 42.400 C 297.600 42.840,297.338 43.200,297.018 43.200 C 296.673 43.200,296.332 43.754,296.181 44.563 C 296.025 45.390,295.644 46.000,295.212 46.113 C 294.740 46.236,294.500 46.682,294.500 47.434 C 294.500 48.147,294.184 48.778,293.650 49.133 C 293.062 49.523,292.800 50.115,292.800 51.049 C 292.800 51.983,292.615 52.400,292.200 52.400 C 291.750 52.400,291.600 52.879,291.600 54.312 C 291.600 55.765,291.408 56.362,290.800 56.800 C 290.032 57.354,290.000 57.835,290.000 68.888 C 290.000 80.133,290.019 80.400,290.800 80.400 C 291.511 80.400,291.600 80.667,291.600 82.800 C 291.600 84.667,291.733 85.200,292.200 85.200 C 292.530 85.200,292.815 85.335,292.832 85.500 C 292.850 85.665,292.902 86.311,292.947 86.936 C 292.993 87.561,293.338 88.245,293.715 88.456 C 294.115 88.680,294.400 89.320,294.400 89.993 C 294.400 90.774,294.645 91.224,295.158 91.387 C 295.628 91.536,296.015 92.155,296.176 93.014 C 296.331 93.841,296.671 94.400,297.018 94.400 C 297.338 94.400,297.600 94.760,297.600 95.200 C 297.600 95.733,297.867 96.000,298.400 96.000 C 298.933 96.000,299.200 96.267,299.200 96.800 C 299.200 97.333,299.467 97.600,300.000 97.600 C 300.533 97.600,300.800 97.867,300.800 98.400 C 300.800 98.933,301.067 99.200,301.600 99.200 C 302.133 99.200,302.400 99.467,302.400 100.000 C 302.400 100.533,302.667 100.800,303.200 100.800 C 303.733 100.800,304.000 101.067,304.000 101.600 C 304.000 102.133,304.267 102.400,304.800 102.400 C 305.242 102.400,305.600 102.667,305.600 102.995 C 305.600 103.380,306.165 103.681,307.200 103.846 C 308.406 104.039,308.800 104.287,308.800 104.851 C 308.800 105.415,309.094 105.600,309.986 105.600 C 310.762 105.600,311.320 105.876,311.600 106.400 C 311.902 106.964,312.438 107.200,313.414 107.200 C 314.379 107.200,314.800 107.382,314.800 107.800 C 314.800 108.267,315.333 108.400,317.200 108.400 C 319.333 108.400,319.600 108.489,319.600 109.200 C 319.600 109.982,319.867 110.000,331.200 110.000 C 342.533 110.000,342.800 109.982,342.800 109.200 C 342.800 108.489,343.067 108.400,345.200 108.400 C 347.067 108.400,347.600 108.267,347.600 107.800 C 347.600 107.382,348.021 107.200,348.986 107.200 C 349.962 107.200,350.498 106.964,350.800 106.400 C 351.085 105.868,351.638 105.600,352.452 105.600 C 353.318 105.600,353.733 105.378,353.874 104.838 C 354.001 104.352,354.568 103.982,355.437 103.819 C 356.246 103.668,356.800 103.327,356.800 102.982 C 356.800 102.662,357.160 102.400,357.600 102.400 C 358.133 102.400,358.400 102.133,358.400 101.600 C 358.400 101.067,358.667 100.800,359.200 100.800 C 359.733 100.800,360.000 100.533,360.000 100.000 C 360.000 99.467,360.267 99.200,360.800 99.200 C 361.333 99.200,361.600 98.933,361.600 98.400 C 361.600 97.867,361.867 97.600,362.400 97.600 C 362.933 97.600,363.200 97.333,363.200 96.800 C 363.200 96.267,363.467 96.000,364.000 96.000 C 364.517 96.000,364.800 95.733,364.800 95.247 C 364.800 94.830,365.157 94.400,365.600 94.284 C 366.174 94.134,366.400 93.738,366.400 92.884 C 366.400 92.030,366.626 91.634,367.200 91.484 C 367.780 91.332,368.000 90.938,368.000 90.052 C 368.000 89.238,368.268 88.685,368.800 88.400 C 369.355 88.103,369.600 87.562,369.600 86.633 C 369.600 85.630,369.801 85.241,370.400 85.084 C 371.077 84.907,371.200 84.538,371.200 82.684 C 371.200 80.830,371.323 80.461,372.000 80.284 C 372.776 80.081,372.800 79.738,372.800 68.800 C 372.800 57.862,372.776 57.519,372.000 57.316 C 371.323 57.139,371.200 56.770,371.200 54.916 C 371.200 53.062,371.077 52.693,370.400 52.516 C 369.785 52.355,369.600 51.970,369.600 50.850 C 369.600 49.826,369.362 49.244,368.800 48.893 C 368.335 48.603,368.000 47.960,368.000 47.359 C 368.000 46.662,367.740 46.257,367.200 46.116 C 366.626 45.966,366.400 45.570,366.400 44.716 C 366.400 43.862,366.174 43.466,365.600 43.316 C 365.157 43.200,364.800 42.770,364.800 42.353 C 364.800 41.867,364.517 41.600,364.000 41.600 C 363.467 41.600,363.200 41.333,363.200 40.800 C 363.200 40.267,362.933 40.000,362.400 40.000 C 361.867 40.000,361.600 39.733,361.600 39.200 C 361.600 38.667,361.333 38.400,360.800 38.400 C 360.267 38.400,360.000 38.133,360.000 37.600 C 360.000 37.067,359.733 36.800,359.200 36.800 C 358.667 36.800,358.400 36.533,358.400 36.000 C 358.400 35.483,358.133 35.200,357.647 35.200 C 357.230 35.200,356.800 34.843,356.684 34.400 C 356.534 33.826,356.138 33.600,355.284 33.600 C 354.430 33.600,354.034 33.374,353.884 32.800 C 353.743 32.260,353.338 32.000,352.641 32.000 C 352.040 32.000,351.397 31.665,351.107 31.200 C 350.756 30.638,350.174 30.400,349.150 30.400 C 348.023 30.400,347.645 30.216,347.481 29.589 C 347.364 29.142,347.118 28.804,346.934 28.836 C 345.102 29.158,342.874 28.724,342.686 28.009 C 342.366 26.785,320.030 26.799,319.710 28.024 M75.756 47.154 C 78.864 48.581,79.403 48.841,80.561 49.470 C 82.982 50.788,88.000 55.811,88.000 56.918 C 88.000 57.114,88.360 57.731,88.800 58.291 C 89.240 58.850,89.600 59.639,89.600 60.044 C 89.600 60.449,89.959 61.370,90.399 62.090 C 91.587 64.040,91.587 73.560,90.399 75.510 C 89.959 76.230,89.600 77.151,89.600 77.556 C 89.600 77.961,89.240 78.750,88.800 79.309 C 88.360 79.869,88.000 80.495,88.000 80.702 C 88.000 81.059,87.467 81.748,85.446 84.000 C 84.085 85.517,81.145 88.000,80.711 88.000 C 80.499 88.000,79.869 88.360,79.309 88.800 C 78.750 89.240,77.967 89.600,77.569 89.600 C 77.171 89.600,76.213 89.973,75.439 90.430 C 73.518 91.563,62.993 91.464,61.709 90.300 C 61.285 89.915,60.570 89.600,60.122 89.600 C 59.674 89.600,58.850 89.240,58.291 88.800 C 57.731 88.360,57.114 88.000,56.918 88.000 C 56.475 88.000,55.130 86.975,53.471 85.374 C 50.833 82.828,49.734 81.323,48.374 78.400 C 46.364 74.077,46.400 74.254,46.400 68.800 C 46.400 63.341,46.352 63.574,48.370 59.200 C 48.882 58.091,49.702 56.618,50.485 55.400 C 50.768 54.960,51.810 53.790,52.800 52.800 C 53.790 51.810,54.960 50.768,55.400 50.485 C 56.625 49.698,58.095 48.880,59.200 48.372 C 59.750 48.119,60.920 47.575,61.800 47.162 C 64.142 46.063,73.368 46.058,75.756 47.154 M338.104 47.200 C 338.925 47.640,339.930 48.000,340.337 48.000 C 340.743 48.000,341.402 48.360,341.800 48.800 C 342.198 49.240,342.729 49.600,342.981 49.600 C 343.946 49.600,349.200 54.208,349.200 55.055 C 349.200 55.355,349.378 55.600,349.595 55.600 C 349.812 55.600,350.243 56.208,350.554 56.951 C 350.864 57.694,351.317 58.425,351.559 58.575 C 351.802 58.725,352.000 59.154,352.000 59.530 C 352.000 59.905,352.360 60.884,352.800 61.704 C 353.990 63.924,353.990 74.004,352.800 75.800 C 352.363 76.460,352.004 77.394,352.003 77.876 C 352.001 78.358,351.802 78.875,351.559 79.025 C 351.317 79.175,350.864 79.906,350.554 80.649 C 350.243 81.392,349.812 82.000,349.595 82.000 C 349.378 82.000,349.200 82.245,349.200 82.545 C 349.200 83.392,343.946 88.000,342.981 88.000 C 342.729 88.000,342.198 88.360,341.800 88.800 C 341.402 89.240,340.743 89.600,340.337 89.600 C 339.930 89.600,338.925 89.960,338.104 90.400 C 335.892 91.586,326.390 91.586,324.600 90.400 C 323.940 89.963,323.019 89.604,322.554 89.603 C 322.089 89.601,321.250 89.240,320.691 88.800 C 320.131 88.360,319.508 88.000,319.305 88.000 C 317.821 88.000,311.149 80.155,310.544 77.698 C 310.395 77.094,309.987 76.158,309.637 75.618 C 309.128 74.833,309.000 73.458,309.000 68.800 C 309.000 64.142,309.128 62.767,309.637 61.982 C 309.987 61.442,310.395 60.506,310.544 59.902 C 311.149 57.445,317.821 49.600,319.305 49.600 C 319.508 49.600,320.131 49.240,320.691 48.800 C 321.250 48.360,322.039 48.000,322.444 48.000 C 322.849 48.000,323.770 47.641,324.490 47.201 C 326.437 46.015,335.891 46.014,338.104 47.200 M32.000 122.000 C 32.000 122.705,31.733 122.800,29.763 122.800 C 27.862 122.800,27.494 122.920,27.316 123.600 C 27.159 124.201,26.770 124.400,25.753 124.400 C 25.009 124.400,24.400 124.573,24.400 124.784 C 24.400 124.995,23.680 125.384,22.800 125.647 C 21.920 125.911,21.200 126.368,21.200 126.663 C 21.200 126.958,21.065 127.214,20.900 127.231 C 18.990 127.425,18.000 127.884,18.000 128.575 C 18.000 128.954,17.770 129.087,17.376 128.935 C 16.959 128.776,16.678 128.979,16.529 129.548 C 16.402 130.037,15.986 130.400,15.553 130.400 C 15.067 130.400,14.800 130.683,14.800 131.200 C 14.800 131.733,14.533 132.000,14.000 132.000 C 13.483 132.000,13.200 132.267,13.200 132.753 C 13.200 133.182,12.838 133.601,12.360 133.726 C 11.863 133.856,11.634 134.132,11.800 134.400 C 11.965 134.667,11.741 134.943,11.253 135.070 C 10.799 135.189,10.324 135.610,10.198 136.006 C 10.072 136.402,9.706 136.827,9.385 136.950 C 9.044 137.081,8.800 137.697,8.800 138.425 C 8.800 139.338,8.585 139.731,8.000 139.884 C 7.439 140.031,7.200 140.430,7.200 141.220 C 7.200 141.995,6.950 142.425,6.400 142.600 C 5.779 142.797,5.600 143.205,5.600 144.427 C 5.600 145.733,5.464 146.000,4.800 146.000 C 4.107 146.000,4.000 146.267,4.000 147.997 C 4.000 149.560,3.826 150.102,3.200 150.493 C 1.937 151.282,1.937 262.754,3.200 263.084 C 3.643 263.200,4.000 263.630,4.000 264.047 C 4.000 264.518,4.282 264.800,4.753 264.800 C 5.170 264.800,5.600 265.157,5.716 265.600 C 5.916 266.365,6.262 266.400,13.563 266.400 L 21.200 266.400 21.200 316.400 C 21.200 366.133,21.204 366.400,22.000 366.400 C 22.695 366.400,22.800 366.667,22.800 368.437 C 22.800 370.138,22.932 370.509,23.600 370.684 C 24.118 370.819,24.400 371.230,24.400 371.847 C 24.400 372.414,24.635 372.800,24.982 372.800 C 25.330 372.800,25.669 373.362,25.826 374.200 C 25.971 374.970,26.327 375.600,26.618 375.600 C 26.908 375.600,27.260 375.960,27.400 376.400 C 27.540 376.840,27.891 377.200,28.180 377.200 C 28.470 377.200,28.801 377.560,28.916 378.000 C 29.031 378.440,29.400 378.800,29.736 378.800 C 30.071 378.800,30.460 379.160,30.600 379.600 C 30.789 380.195,31.205 380.400,32.227 380.400 C 33.333 380.400,33.600 380.555,33.600 381.200 C 33.600 381.727,33.867 382.000,34.380 382.000 C 34.809 382.000,35.325 382.294,35.526 382.654 C 35.762 383.076,36.617 383.377,37.946 383.504 C 39.617 383.665,40.000 383.842,40.000 384.451 C 40.000 385.163,40.493 385.200,50.000 385.200 C 59.507 385.200,60.000 385.163,60.000 384.451 C 60.000 383.842,60.383 383.665,62.054 383.504 C 63.383 383.377,64.238 383.076,64.474 382.654 C 64.675 382.294,65.191 382.000,65.620 382.000 C 66.133 382.000,66.400 381.727,66.400 381.200 C 66.400 380.489,66.667 380.400,68.800 380.400 C 70.933 380.400,71.200 380.489,71.200 381.200 C 71.200 381.675,71.467 382.000,71.856 382.000 C 72.217 382.000,72.723 382.288,72.980 382.641 C 73.242 382.999,74.272 383.374,75.313 383.491 C 76.670 383.644,77.243 383.906,77.416 384.451 C 77.800 385.659,97.600 385.609,97.600 384.400 C 97.600 383.765,97.868 383.599,98.900 383.595 C 100.800 383.587,102.000 383.184,102.000 382.553 C 102.000 382.230,102.415 382.000,103.000 382.000 C 103.733 382.000,104.000 381.787,104.000 381.200 C 104.000 380.552,104.267 380.400,105.400 380.400 C 106.533 380.400,106.800 380.248,106.800 379.600 C 106.800 379.067,107.067 378.800,107.600 378.800 C 108.133 378.800,108.400 378.533,108.400 378.000 C 108.400 377.467,108.667 377.200,109.200 377.200 C 109.733 377.200,110.000 376.933,110.000 376.400 C 110.000 375.867,110.267 375.600,110.800 375.600 C 111.442 375.600,111.600 375.333,111.600 374.247 C 111.600 373.230,111.799 372.841,112.400 372.684 C 112.879 372.559,113.200 372.138,113.200 371.637 C 113.200 371.177,113.451 370.800,113.757 370.800 C 114.477 370.800,114.800 369.922,114.800 367.967 C 114.800 366.667,114.936 366.400,115.600 366.400 C 116.864 366.400,116.864 250.296,115.600 249.507 C 115.160 249.232,114.800 248.691,114.800 248.304 C 114.800 247.867,114.497 247.600,114.000 247.600 C 113.560 247.600,113.200 247.338,113.200 247.018 C 113.200 245.978,110.608 245.792,109.637 246.763 C 108.974 247.426,108.302 247.600,106.400 247.600 C 105.080 247.600,104.000 247.766,104.000 247.969 C 104.000 248.172,103.361 248.549,102.581 248.806 C 100.774 249.403,99.403 250.774,98.806 252.581 C 98.549 253.361,98.172 254.000,97.969 254.000 C 97.746 254.000,97.593 274.410,97.583 305.700 C 97.566 354.998,97.446 360.785,96.438 361.121 C 96.197 361.201,96.000 361.489,96.000 361.760 C 96.000 362.184,95.239 362.935,92.452 365.263 C 90.812 366.634,84.014 366.558,82.684 365.155 C 82.291 364.740,81.787 364.400,81.565 364.400 C 81.098 364.400,79.231 362.372,79.213 361.844 C 79.206 361.648,78.885 361.258,78.500 360.976 C 77.840 360.494,77.794 357.413,77.694 307.557 C 77.605 262.743,77.502 254.555,77.025 254.025 C 76.716 253.681,76.335 252.890,76.179 252.266 C 75.808 250.777,74.379 249.387,72.625 248.808 C 71.847 248.552,71.108 248.175,70.982 247.971 C 70.856 247.767,69.874 247.600,68.800 247.600 C 67.726 247.600,66.744 247.767,66.618 247.971 C 66.492 248.175,65.753 248.552,64.975 248.808 C 63.221 249.387,61.792 250.777,61.421 252.266 C 61.265 252.890,60.884 253.681,60.575 254.025 C 60.098 254.555,59.995 262.743,59.906 307.557 C 59.806 357.413,59.760 360.494,59.100 360.976 C 58.715 361.258,58.394 361.648,58.387 361.844 C 58.369 362.372,56.502 364.400,56.035 364.400 C 55.813 364.400,55.309 364.740,54.916 365.155 C 53.586 366.558,46.788 366.634,45.148 365.263 C 42.361 362.935,41.600 362.184,41.600 361.760 C 41.600 361.489,41.403 361.201,41.162 361.121 C 40.154 360.785,40.034 355.010,40.017 305.924 C 40.007 274.759,39.854 254.357,39.629 254.218 C 39.425 254.092,39.048 253.353,38.792 252.575 C 38.198 250.775,36.825 249.402,35.025 248.808 C 34.247 248.552,33.508 248.175,33.382 247.971 C 33.256 247.767,30.746 247.600,27.805 247.600 C 20.249 247.600,21.151 253.955,21.285 201.657 L 21.400 157.000 22.300 155.406 C 22.795 154.529,23.200 153.568,23.200 153.269 C 23.200 152.970,23.560 152.269,24.000 151.709 C 24.440 151.150,24.800 150.466,24.800 150.189 C 24.800 149.912,25.070 149.582,25.400 149.455 C 25.730 149.329,26.000 148.979,26.000 148.678 C 26.000 148.052,29.047 145.089,30.100 144.690 C 30.485 144.544,30.800 144.257,30.800 144.052 C 30.800 143.846,31.340 143.490,32.000 143.260 C 32.660 143.030,33.200 142.660,33.200 142.439 C 33.200 142.217,33.875 141.911,34.700 141.758 C 35.525 141.605,36.642 141.191,37.182 140.840 C 38.759 139.813,103.332 139.870,104.903 140.900 C 105.491 141.285,106.314 141.600,106.732 141.600 C 107.150 141.600,107.950 141.960,108.509 142.400 C 109.069 142.840,109.708 143.200,109.930 143.200 C 110.543 143.200,116.000 148.105,116.000 148.655 C 116.000 148.810,116.265 149.230,116.588 149.587 C 117.466 150.557,119.198 153.944,119.214 154.721 C 119.221 155.095,119.575 156.120,120.000 157.000 C 120.536 158.109,120.777 159.475,120.786 161.451 C 120.794 163.098,121.063 164.933,121.424 165.795 C 121.767 166.615,122.201 169.112,122.389 171.344 C 122.576 173.575,123.016 176.384,123.365 177.587 C 124.159 180.322,124.175 185.112,123.400 188.000 C 122.482 191.421,122.588 195.620,123.600 195.884 C 124.338 196.077,124.400 196.430,124.400 200.427 C 124.400 204.032,124.511 204.822,125.058 205.128 C 125.546 205.402,125.732 206.140,125.779 207.996 C 125.827 209.833,126.024 210.628,126.522 210.993 C 126.955 211.309,127.226 212.114,127.269 213.213 C 127.311 214.277,127.617 215.217,128.068 215.668 C 128.506 216.106,128.800 216.978,128.800 217.837 C 128.800 218.938,128.987 219.324,129.600 219.484 C 130.206 219.643,130.400 220.030,130.400 221.084 C 130.400 222.138,130.594 222.525,131.200 222.684 C 131.801 222.841,132.000 223.230,132.000 224.247 C 132.000 225.333,132.158 225.600,132.800 225.600 C 133.467 225.600,133.600 225.867,133.600 227.200 C 133.600 228.533,133.733 228.800,134.400 228.800 C 135.022 228.800,135.200 229.067,135.200 229.997 C 135.200 230.760,135.490 231.374,136.000 231.693 C 136.440 231.968,136.800 232.509,136.800 232.896 C 136.800 233.333,137.103 233.600,137.600 233.600 C 138.097 233.600,138.400 233.867,138.400 234.304 C 138.400 234.691,138.760 235.232,139.200 235.507 C 139.665 235.797,140.000 236.440,140.000 237.041 C 140.000 237.738,140.260 238.143,140.800 238.284 C 141.240 238.399,141.600 238.699,141.600 238.949 C 141.600 239.200,142.230 239.984,143.000 240.690 C 143.770 241.397,144.400 242.161,144.400 242.388 C 144.400 242.614,144.760 242.800,145.200 242.800 C 145.733 242.800,146.000 243.067,146.000 243.600 C 146.000 244.133,146.267 244.400,146.800 244.400 C 147.333 244.400,147.600 244.667,147.600 245.200 C 147.600 245.733,147.867 246.000,148.400 246.000 C 148.933 246.000,149.200 246.267,149.200 246.800 C 149.200 247.333,149.467 247.600,150.000 247.600 C 150.533 247.600,150.800 247.867,150.800 248.400 C 150.800 248.917,151.067 249.200,151.553 249.200 C 151.970 249.200,152.400 249.557,152.516 250.000 C 152.657 250.540,153.062 250.800,153.759 250.800 C 154.360 250.800,155.003 251.135,155.293 251.600 C 155.568 252.040,156.109 252.400,156.496 252.400 C 156.933 252.400,157.200 252.703,157.200 253.200 C 157.200 253.718,157.467 254.000,157.957 254.000 C 158.374 254.000,158.809 254.247,158.925 254.549 C 159.041 254.850,159.637 255.223,160.250 255.377 C 160.863 255.531,161.607 256.004,161.905 256.428 C 162.231 256.893,162.913 257.200,163.623 257.200 C 164.403 257.200,164.800 257.403,164.800 257.800 C 164.800 258.233,165.244 258.400,166.400 258.400 C 167.733 258.400,168.000 258.533,168.000 259.200 C 168.000 259.867,168.267 260.000,169.600 260.000 C 170.480 260.000,171.200 259.823,171.200 259.608 C 171.200 258.934,173.160 258.686,174.408 259.203 C 175.063 259.475,175.600 259.832,175.600 259.997 C 175.600 260.162,176.481 260.414,177.558 260.557 C 178.635 260.699,179.718 261.060,179.965 261.357 C 180.211 261.655,181.524 262.024,182.881 262.177 C 184.239 262.331,185.811 262.689,186.375 262.973 C 186.939 263.256,189.044 263.600,191.054 263.737 C 193.064 263.873,195.224 264.189,195.854 264.438 C 198.191 265.363,205.852 265.368,210.277 264.448 C 212.519 263.982,215.314 263.600,216.488 263.600 C 217.670 263.600,218.979 263.350,219.422 263.040 C 219.861 262.732,221.296 262.350,222.611 262.192 C 223.925 262.034,225.270 261.671,225.600 261.386 C 225.930 261.101,226.877 260.742,227.704 260.589 C 228.532 260.435,229.875 259.970,230.689 259.555 C 232.487 258.638,234.732 258.559,235.055 259.400 C 235.430 260.377,238.000 260.203,238.000 259.200 C 238.000 258.585,238.267 258.400,239.151 258.400 C 239.784 258.400,240.526 258.130,240.800 257.800 C 241.074 257.470,241.636 257.200,242.049 257.200 C 242.533 257.200,242.800 256.916,242.800 256.400 C 242.800 255.821,243.067 255.600,243.767 255.600 C 245.148 255.600,246.000 255.202,246.000 254.557 C 246.000 254.251,246.360 254.000,246.800 254.000 C 247.333 254.000,247.600 253.733,247.600 253.200 C 247.600 252.581,247.867 252.400,248.777 252.400 C 249.456 252.400,250.176 252.093,250.477 251.674 C 250.765 251.274,251.315 250.830,251.700 250.686 C 252.085 250.543,252.400 250.149,252.400 249.813 C 252.400 249.467,252.748 249.200,253.200 249.200 C 253.733 249.200,254.000 248.933,254.000 248.400 C 254.000 247.867,254.267 247.600,254.800 247.600 C 255.333 247.600,255.600 247.333,255.600 246.800 C 255.600 246.267,255.867 246.000,256.400 246.000 C 256.933 246.000,257.200 245.733,257.200 245.200 C 257.200 244.756,257.467 244.400,257.800 244.400 C 258.133 244.400,258.400 244.044,258.400 243.600 C 258.400 243.067,258.667 242.800,259.200 242.800 C 259.640 242.800,260.000 242.551,260.000 242.247 C 260.000 241.942,260.360 241.599,260.800 241.484 C 261.240 241.369,261.600 241.000,261.600 240.664 C 261.600 240.329,261.960 239.940,262.400 239.800 C 262.840 239.660,263.200 239.219,263.200 238.820 C 263.200 238.420,263.560 237.999,264.000 237.884 C 264.583 237.732,264.800 237.338,264.800 236.437 C 264.800 235.467,264.972 235.200,265.600 235.200 C 266.117 235.200,266.400 234.933,266.400 234.447 C 266.400 234.030,266.757 233.600,267.200 233.484 C 267.813 233.324,268.000 232.938,268.000 231.837 C 268.000 230.667,268.148 230.400,268.800 230.400 C 269.467 230.400,269.600 230.133,269.600 228.800 C 269.600 227.467,269.733 227.200,270.400 227.200 C 271.020 227.200,271.200 226.933,271.200 226.014 C 271.200 225.238,271.476 224.680,272.000 224.400 C 272.555 224.103,272.800 223.562,272.800 222.633 C 272.800 221.630,273.001 221.241,273.600 221.084 C 274.216 220.923,274.400 220.538,274.400 219.409 C 274.400 218.603,274.670 217.673,275.000 217.343 C 275.380 216.963,275.600 215.978,275.600 214.660 C 275.600 213.035,275.776 212.450,276.400 212.000 C 277.076 211.513,277.200 210.965,277.200 208.474 C 277.200 205.862,277.291 205.501,278.000 205.316 C 278.934 205.072,279.217 195.507,278.355 193.326 C 277.688 191.641,277.810 182.189,278.527 180.000 C 278.895 178.877,279.197 175.792,279.331 171.800 C 279.469 167.704,279.771 164.680,280.169 163.400 C 280.511 162.300,280.793 160.430,280.796 159.244 C 280.798 157.987,281.115 156.402,281.554 155.444 C 282.981 152.336,283.241 151.797,283.842 150.698 C 284.725 149.085,288.794 144.800,289.443 144.800 C 289.749 144.800,290.000 144.652,290.000 144.471 C 290.000 143.935,293.247 141.971,294.572 141.706 C 295.245 141.571,296.017 141.240,296.288 140.970 C 297.560 139.697,360.874 139.573,362.818 140.840 C 363.358 141.191,364.470 141.604,365.289 141.756 C 366.108 141.908,366.918 142.254,367.089 142.525 C 367.260 142.795,367.895 143.234,368.500 143.500 C 369.105 143.765,369.600 144.167,369.600 144.391 C 369.600 144.616,369.855 144.800,370.166 144.800 C 370.921 144.800,375.164 149.519,375.456 150.683 C 375.583 151.187,375.818 151.600,375.979 151.600 C 376.359 151.600,377.200 153.450,377.200 154.287 C 377.200 154.645,377.515 155.285,377.900 155.710 C 378.975 156.898,379.202 246.317,378.132 247.099 C 377.665 247.441,375.760 247.600,372.147 247.600 C 369.232 247.600,366.744 247.767,366.618 247.971 C 366.492 248.175,365.753 248.552,364.975 248.808 C 363.181 249.400,361.745 250.828,361.410 252.355 C 361.266 253.009,360.890 253.759,360.574 254.021 C 360.095 254.419,359.999 256.911,359.994 269.149 C 359.991 277.207,359.844 284.026,359.669 284.303 C 359.416 284.700,353.450 284.784,331.175 284.703 L 303.000 284.600 302.784 269.600 C 302.534 252.333,302.039 250.202,298.000 249.002 C 297.450 248.839,296.730 248.477,296.400 248.198 C 296.070 247.920,294.651 247.613,293.246 247.516 C 291.470 247.394,290.543 247.137,290.202 246.671 C 289.427 245.610,286.800 245.897,286.800 247.043 C 286.800 247.349,286.440 247.600,286.000 247.600 C 285.476 247.600,285.200 247.867,285.200 248.373 C 285.200 248.798,284.840 249.260,284.400 249.400 C 283.611 249.650,283.600 250.005,283.600 275.000 C 283.600 299.995,283.611 300.350,284.400 300.600 C 284.840 300.740,285.200 301.202,285.200 301.627 C 285.200 302.133,285.476 302.400,286.000 302.400 C 286.440 302.400,286.800 302.649,286.800 302.953 C 286.800 303.852,288.155 303.989,297.100 303.995 L 305.600 304.000 305.600 342.837 C 305.600 381.338,305.607 381.677,306.400 381.884 C 306.843 382.000,307.200 382.430,307.200 382.847 C 307.200 383.318,307.482 383.600,307.953 383.600 C 308.370 383.600,308.800 383.957,308.916 384.400 C 309.283 385.802,322.400 385.566,322.400 384.157 C 322.400 383.851,322.748 383.600,323.173 383.600 C 323.598 383.600,324.055 383.257,324.188 382.837 C 324.321 382.417,324.694 381.973,325.015 381.850 C 325.523 381.655,325.600 376.494,325.600 342.813 L 325.600 304.000 331.200 304.000 L 336.800 304.000 336.800 342.837 C 336.800 381.338,336.807 381.677,337.600 381.884 C 338.043 382.000,338.400 382.430,338.400 382.847 C 338.400 383.333,338.683 383.600,339.200 383.600 C 339.640 383.600,340.000 383.851,340.000 384.157 C 340.000 385.564,352.854 385.794,353.600 384.400 C 353.835 383.960,354.297 383.600,354.627 383.600 C 354.956 383.600,355.343 383.285,355.488 382.900 C 355.632 382.515,356.032 381.990,356.375 381.732 C 356.933 381.315,357.011 377.107,357.106 342.632 L 357.212 304.000 366.243 304.000 C 374.938 304.000,375.283 303.970,375.484 303.200 C 375.600 302.757,376.030 302.400,376.447 302.400 C 376.918 302.400,377.200 302.118,377.200 301.647 C 377.200 301.230,377.557 300.800,378.000 300.684 C 378.784 300.479,378.800 300.138,378.800 283.437 L 378.800 266.400 386.437 266.400 C 393.738 266.400,394.084 266.365,394.284 265.600 C 394.400 265.157,394.830 264.800,395.247 264.800 C 395.718 264.800,396.000 264.518,396.000 264.047 C 396.000 263.630,396.357 263.200,396.800 263.084 C 398.064 262.753,398.064 150.800,396.800 150.800 C 396.089 150.800,396.000 150.533,396.000 148.400 C 396.000 146.267,395.911 146.000,395.200 146.000 C 394.536 146.000,394.400 145.733,394.400 144.427 C 394.400 143.205,394.221 142.797,393.600 142.600 C 393.040 142.422,392.800 141.995,392.800 141.173 C 392.800 140.439,392.592 140.000,392.245 140.000 C 391.925 140.000,391.576 139.397,391.422 138.579 C 391.276 137.797,390.903 137.061,390.593 136.942 C 390.284 136.823,389.921 136.383,389.788 135.963 C 389.655 135.543,389.309 135.200,389.020 135.200 C 388.730 135.200,388.399 134.840,388.284 134.400 C 388.169 133.960,387.788 133.600,387.437 133.600 C 387.067 133.600,386.800 133.265,386.800 132.800 C 386.800 132.267,386.533 132.000,386.000 132.000 C 385.467 132.000,385.200 131.733,385.200 131.200 C 385.200 130.683,384.933 130.400,384.447 130.400 C 384.014 130.400,383.598 130.037,383.471 129.548 C 383.322 128.979,383.041 128.776,382.624 128.935 C 382.230 129.087,382.000 128.954,382.000 128.575 C 382.000 127.884,381.010 127.425,379.100 127.231 C 378.935 127.214,378.800 126.958,378.800 126.663 C 378.800 126.368,378.080 125.911,377.200 125.647 C 376.320 125.384,375.600 124.995,375.600 124.784 C 375.600 124.573,374.991 124.400,374.247 124.400 C 373.230 124.400,372.841 124.201,372.684 123.600 C 372.506 122.920,372.138 122.800,370.237 122.800 C 368.267 122.800,368.000 122.705,368.000 122.000 C 368.000 120.738,292.110 120.738,291.200 122.000 C 290.762 122.608,290.165 122.800,288.712 122.800 C 287.067 122.800,286.800 122.912,286.800 123.600 C 286.800 124.263,286.533 124.400,285.243 124.400 C 284.291 124.400,283.604 124.614,283.475 124.949 C 283.359 125.252,282.619 125.620,281.832 125.768 C 280.969 125.930,280.400 126.267,280.400 126.618 C 280.400 126.938,280.220 127.222,280.000 127.250 C 279.780 127.278,279.420 127.345,279.200 127.400 C 278.980 127.455,278.530 127.522,278.200 127.550 C 277.870 127.578,277.600 127.870,277.600 128.200 C 277.600 128.533,277.244 128.800,276.800 128.800 C 276.267 128.800,276.000 129.067,276.000 129.600 C 276.000 130.133,275.733 130.400,275.200 130.400 C 274.667 130.400,274.400 130.667,274.400 131.200 C 274.400 131.733,274.133 132.000,273.600 132.000 C 273.067 132.000,272.800 132.267,272.800 132.800 C 272.800 133.333,272.533 133.600,272.000 133.600 C 271.467 133.600,271.200 133.867,271.200 134.400 C 271.200 134.933,270.933 135.200,270.400 135.200 C 269.903 135.200,269.600 135.467,269.600 135.904 C 269.600 136.291,269.240 136.832,268.800 137.107 C 268.290 137.426,268.000 138.040,268.000 138.803 C 268.000 139.733,267.822 140.000,267.200 140.000 C 266.555 140.000,266.400 140.267,266.400 141.373 C 266.400 142.395,266.195 142.811,265.600 143.000 C 265.012 143.187,264.800 143.605,264.800 144.580 C 264.800 145.570,264.597 145.960,264.000 146.116 C 263.320 146.294,263.200 146.662,263.200 148.563 C 263.200 150.208,263.053 150.800,262.643 150.800 C 261.820 150.800,261.703 151.398,261.631 155.975 C 261.578 159.340,261.438 160.230,260.902 160.622 C 260.335 161.037,260.215 162.185,260.086 168.454 C 259.977 173.774,259.790 175.965,259.409 176.400 C 259.026 176.836,258.844 179.023,258.741 184.400 C 258.618 190.880,258.513 191.865,257.900 192.323 C 257.302 192.770,257.200 193.539,257.200 197.623 C 257.200 202.133,257.155 202.400,256.400 202.400 C 255.692 202.400,255.600 202.667,255.600 204.711 C 255.600 206.527,255.429 207.169,254.800 207.707 C 254.254 208.174,254.000 208.887,254.000 209.949 C 254.000 211.170,253.827 211.552,253.200 211.716 C 252.594 211.875,252.400 212.262,252.400 213.316 C 252.400 214.370,252.206 214.757,251.600 214.916 C 250.987 215.076,250.800 215.462,250.800 216.563 C 250.800 217.733,250.652 218.000,250.000 218.000 C 249.378 218.000,249.200 218.267,249.200 219.197 C 249.200 219.960,248.910 220.574,248.400 220.893 C 247.960 221.168,247.600 221.709,247.600 222.096 C 247.600 222.533,247.297 222.800,246.800 222.800 C 246.267 222.800,246.000 223.067,246.000 223.600 C 246.000 224.044,245.733 224.400,245.400 224.400 C 245.070 224.400,244.800 224.642,244.800 224.938 C 244.800 225.234,244.439 225.803,243.998 226.202 C 243.556 226.602,243.276 227.009,243.374 227.108 C 243.832 227.565,239.308 231.415,237.500 232.107 C 237.115 232.254,236.800 232.651,236.800 232.987 C 236.800 233.333,236.452 233.600,236.000 233.600 C 235.467 233.600,235.200 233.867,235.200 234.400 C 235.200 234.897,234.933 235.200,234.496 235.200 C 234.109 235.200,233.568 235.560,233.293 236.000 C 232.974 236.510,232.360 236.800,231.597 236.800 C 230.667 236.800,230.400 236.978,230.400 237.600 C 230.400 238.242,230.133 238.400,229.047 238.400 C 228.030 238.400,227.641 238.599,227.484 239.200 C 227.324 239.813,226.938 240.000,225.837 240.000 C 224.667 240.000,224.400 240.148,224.400 240.800 C 224.400 241.444,224.133 241.600,223.033 241.600 C 221.449 241.600,220.325 241.956,220.585 242.375 C 220.783 242.696,220.753 242.701,217.623 242.950 C 216.179 243.064,215.277 243.354,214.944 243.809 C 214.165 244.875,191.819 244.852,191.039 243.786 C 190.679 243.293,189.874 243.048,188.362 242.973 C 187.173 242.913,185.975 242.850,185.700 242.832 C 185.425 242.814,185.200 242.530,185.200 242.200 C 185.200 241.747,184.711 241.600,183.203 241.600 C 181.640 241.600,181.098 241.426,180.707 240.800 C 180.351 240.230,179.774 240.000,178.704 240.000 C 177.467 240.000,177.200 239.858,177.200 239.200 C 177.200 238.558,176.933 238.400,175.847 238.400 C 174.830 238.400,174.441 238.201,174.284 237.600 C 174.159 237.121,173.738 236.800,173.237 236.800 C 172.667 236.800,172.400 236.545,172.400 236.000 C 172.400 235.352,172.133 235.200,171.000 235.200 C 169.867 235.200,169.600 235.048,169.600 234.400 C 169.600 233.867,169.333 233.600,168.800 233.600 C 168.348 233.600,168.000 233.333,168.000 232.987 C 168.000 232.651,167.694 232.258,167.320 232.114 C 166.946 231.971,166.093 231.256,165.423 230.527 C 164.753 229.797,164.045 229.200,163.849 229.200 C 163.391 229.200,161.794 227.483,161.472 226.644 C 161.336 226.290,160.949 226.000,160.613 226.000 C 160.267 226.000,160.000 225.652,160.000 225.200 C 160.000 224.667,159.733 224.400,159.200 224.400 C 158.667 224.400,158.400 224.133,158.400 223.600 C 158.400 223.156,158.133 222.800,157.800 222.800 C 157.470 222.800,157.200 222.513,157.200 222.163 C 157.200 221.812,156.861 221.436,156.446 221.328 C 155.932 221.193,155.611 220.631,155.441 219.565 C 155.280 218.558,154.978 218.000,154.595 218.000 C 154.267 218.000,154.000 217.642,154.000 217.200 C 154.000 216.667,153.733 216.400,153.200 216.400 C 152.548 216.400,152.400 216.133,152.400 214.963 C 152.400 213.862,152.213 213.476,151.600 213.316 C 151.001 213.159,150.800 212.770,150.800 211.767 C 150.800 210.838,150.555 210.297,150.000 210.000 C 149.365 209.660,149.200 209.162,149.200 207.586 C 149.200 205.867,149.093 205.600,148.400 205.600 C 147.689 205.600,147.600 205.333,147.600 203.200 C 147.600 201.333,147.422 200.622,146.800 200.000 C 146.112 199.312,146.000 198.667,146.000 195.400 C 146.000 191.867,145.944 191.600,145.200 191.600 C 144.440 191.600,144.400 191.333,144.400 186.227 C 144.400 181.205,144.348 180.837,143.600 180.600 C 142.857 180.364,142.800 179.995,142.800 175.422 C 142.800 171.533,142.674 170.393,142.200 170.000 C 141.737 169.616,141.600 168.555,141.600 165.367 C 141.600 161.817,141.492 161.130,140.838 160.516 C 140.205 159.921,140.052 159.101,139.938 155.667 C 139.825 152.297,139.671 151.440,139.100 151.023 C 138.628 150.679,138.400 149.972,138.400 148.856 C 138.400 147.733,138.142 146.942,137.600 146.400 C 137.160 145.960,136.800 145.081,136.800 144.447 C 136.800 143.630,136.567 143.232,136.000 143.084 C 135.387 142.924,135.200 142.538,135.200 141.437 C 135.200 140.267,135.052 140.000,134.400 140.000 C 133.903 140.000,133.600 139.733,133.600 139.296 C 133.600 138.909,133.240 138.368,132.800 138.093 C 132.335 137.803,132.000 137.160,132.000 136.559 C 132.000 135.862,131.740 135.457,131.200 135.316 C 130.757 135.200,130.400 134.770,130.400 134.353 C 130.400 133.867,130.117 133.600,129.600 133.600 C 129.067 133.600,128.800 133.333,128.800 132.800 C 128.800 132.267,128.533 132.000,128.000 132.000 C 127.467 132.000,127.200 131.733,127.200 131.200 C 127.200 130.667,126.933 130.400,126.400 130.400 C 125.948 130.400,125.600 130.133,125.600 129.787 C 125.600 129.451,125.285 129.060,124.900 128.919 C 124.515 128.779,123.774 128.337,123.253 127.937 C 122.732 127.538,122.135 127.317,121.926 127.446 C 121.717 127.575,121.451 127.315,121.334 126.869 C 121.184 126.296,120.663 125.980,119.561 125.793 C 118.608 125.632,118.000 125.310,118.000 124.965 C 118.000 124.573,117.511 124.400,116.400 124.400 C 115.067 124.400,114.800 124.267,114.800 123.600 C 114.800 122.889,114.533 122.800,112.400 122.800 C 110.267 122.800,110.000 122.711,110.000 122.000 C 110.000 121.205,109.733 121.200,71.000 121.200 C 32.267 121.200,32.000 121.205,32.000 122.000 M192.400 165.600 C 191.867 166.133,191.067 166.400,190.000 166.400 C 188.667 166.400,188.400 166.533,188.400 167.200 C 188.400 167.852,188.133 168.000,186.963 168.000 C 185.862 168.000,185.476 168.187,185.316 168.800 C 185.200 169.243,184.770 169.600,184.353 169.600 C 183.867 169.600,183.600 169.883,183.600 170.400 C 183.600 170.933,183.333 171.200,182.800 171.200 C 182.360 171.200,181.640 171.560,181.200 172.000 C 180.760 172.440,180.130 172.800,179.800 172.800 C 179.470 172.800,179.200 173.062,179.200 173.382 C 179.200 173.702,178.750 174.414,178.200 174.964 C 177.650 175.514,177.200 176.326,177.200 176.769 C 177.200 177.287,177.004 177.500,176.652 177.364 C 176.059 177.137,175.450 178.234,175.828 178.846 C 175.956 179.052,175.911 179.194,175.730 179.163 C 174.707 178.985,174.400 179.316,174.400 180.600 C 174.400 181.733,174.248 182.000,173.600 182.000 C 172.933 182.000,172.800 182.267,172.800 183.600 C 172.800 184.667,172.533 185.467,172.000 186.000 C 171.242 186.758,171.200 187.333,171.200 196.997 C 171.200 206.760,171.234 207.214,172.000 207.693 C 172.597 208.065,172.800 208.626,172.800 209.896 C 172.800 211.333,172.925 211.600,173.600 211.600 C 174.267 211.600,174.400 211.867,174.400 213.200 C 174.400 214.322,174.571 214.800,174.973 214.800 C 175.288 214.800,175.660 215.160,175.800 215.600 C 175.940 216.040,176.312 216.400,176.627 216.400 C 176.942 216.400,177.214 216.535,177.231 216.700 C 177.366 218.026,177.671 218.677,178.378 219.149 C 178.830 219.451,179.200 219.946,179.200 220.249 C 179.200 220.552,179.404 220.800,179.654 220.800 C 179.904 220.800,180.525 221.250,181.035 221.800 C 181.545 222.350,182.309 222.800,182.734 222.800 C 183.170 222.800,183.598 223.148,183.716 223.600 C 183.831 224.040,184.212 224.400,184.563 224.400 C 184.913 224.400,185.200 224.670,185.200 225.000 C 185.200 225.433,185.644 225.600,186.800 225.600 C 188.133 225.600,188.400 225.733,188.400 226.400 C 188.400 227.075,188.667 227.200,190.104 227.200 C 191.374 227.200,191.935 227.403,192.307 228.000 C 192.786 228.766,193.240 228.800,203.003 228.800 C 212.667 228.800,213.242 228.758,214.000 228.000 C 214.533 227.467,215.333 227.200,216.400 227.200 C 217.733 227.200,218.000 227.067,218.000 226.400 C 218.000 225.752,218.267 225.600,219.400 225.600 C 220.170 225.600,220.800 225.416,220.800 225.190 C 220.800 224.965,221.250 224.609,221.800 224.400 C 222.350 224.191,222.800 223.745,222.800 223.410 C 222.800 223.074,223.078 222.800,223.418 222.800 C 223.758 222.800,224.486 222.350,225.036 221.800 C 225.586 221.250,226.214 220.800,226.431 220.800 C 226.648 220.800,226.941 220.499,227.082 220.131 C 227.223 219.762,227.668 219.132,228.069 218.731 C 228.471 218.329,228.800 217.640,228.800 217.200 C 228.800 216.667,229.067 216.400,229.600 216.400 C 230.117 216.400,230.400 216.133,230.400 215.647 C 230.400 215.230,230.757 214.800,231.200 214.684 C 231.813 214.524,232.000 214.138,232.000 213.037 C 232.000 211.867,232.148 211.600,232.800 211.600 C 233.467 211.600,233.600 211.333,233.600 210.000 C 233.600 208.933,233.867 208.133,234.400 207.600 C 235.157 206.843,235.200 206.267,235.200 196.875 C 235.200 187.504,235.155 186.903,234.400 186.092 C 233.904 185.560,233.600 184.681,233.600 183.779 C 233.600 182.662,233.415 182.277,232.800 182.116 C 232.203 181.960,232.000 181.570,232.000 180.580 C 232.000 179.630,231.785 179.186,231.243 179.014 C 230.827 178.882,230.392 178.414,230.278 177.975 C 230.163 177.536,229.828 177.227,229.534 177.289 C 229.211 177.356,228.949 176.960,228.872 176.286 C 228.802 175.673,228.397 174.955,227.972 174.690 C 227.547 174.425,227.200 173.975,227.200 173.691 C 227.200 173.407,226.899 173.059,226.531 172.918 C 226.162 172.777,225.532 172.332,225.131 171.931 C 224.729 171.529,224.061 171.200,223.647 171.200 C 223.230 171.200,222.800 170.843,222.684 170.400 C 222.569 169.960,222.200 169.600,221.864 169.600 C 221.529 169.600,221.140 169.240,221.000 168.800 C 220.813 168.212,220.395 168.000,219.420 168.000 C 218.483 168.000,218.038 167.790,217.907 167.286 C 217.776 166.787,217.269 166.541,216.227 166.471 C 215.407 166.416,214.356 166.017,213.892 165.585 C 212.579 164.362,193.625 164.375,192.400 165.600 M208.090 184.547 C 208.391 184.848,209.064 185.230,209.586 185.396 C 210.814 185.785,214.215 189.186,214.604 190.414 C 214.770 190.936,215.130 191.587,215.404 191.861 C 216.462 192.919,216.576 201.197,215.541 201.836 C 215.347 201.956,214.945 202.627,214.648 203.327 C 213.966 204.936,210.604 208.400,209.726 208.400 C 209.361 208.400,208.715 208.715,208.290 209.100 C 207.653 209.676,206.749 209.800,203.200 209.800 C 199.651 209.800,198.747 209.676,198.110 209.100 C 197.685 208.715,197.040 208.400,196.677 208.400 C 195.773 208.400,191.600 204.159,191.600 203.240 C 191.600 202.832,191.353 202.293,191.051 202.042 C 189.824 201.024,189.822 193.035,191.049 191.809 C 191.352 191.505,191.600 190.966,191.600 190.610 C 191.600 189.726,195.280 186.111,197.330 184.980 C 199.365 183.858,207.090 183.547,208.090 184.547 M165.700 277.612 C 165.205 277.811,164.800 278.160,164.800 278.387 C 164.800 278.614,164.524 278.800,164.187 278.800 C 163.851 278.800,163.457 279.115,163.312 279.500 C 163.168 279.885,162.768 280.410,162.425 280.668 C 161.331 281.486,161.313 305.200,162.405 305.486 C 163.074 305.660,163.200 306.035,163.200 307.847 C 163.200 309.733,163.299 310.000,164.000 310.000 C 164.658 310.000,164.800 310.267,164.800 311.504 C 164.800 312.574,165.030 313.151,165.600 313.507 C 166.110 313.826,166.400 314.440,166.400 315.203 C 166.400 316.133,166.578 316.400,167.200 316.400 C 167.824 316.400,168.000 316.667,168.000 317.613 C 168.000 318.348,168.248 318.920,168.631 319.067 C 168.977 319.200,169.423 319.735,169.621 320.255 C 169.818 320.775,170.255 321.200,170.590 321.200 C 170.926 321.200,171.200 321.487,171.200 321.837 C 171.200 322.188,171.543 322.565,171.963 322.674 C 172.383 322.784,172.816 323.217,172.926 323.637 C 173.035 324.057,173.412 324.400,173.763 324.400 C 174.113 324.400,174.400 324.670,174.400 325.000 C 174.400 325.333,174.756 325.600,175.200 325.600 C 175.733 325.600,176.000 325.867,176.000 326.400 C 176.000 326.844,176.267 327.200,176.600 327.200 C 177.127 327.200,177.204 330.380,177.230 353.300 C 177.261 380.433,177.283 381.143,178.132 381.800 C 178.417 382.020,178.768 382.515,178.912 382.900 C 179.057 383.285,179.407 383.600,179.691 383.600 C 179.975 383.600,180.432 383.960,180.707 384.400 C 181.576 385.792,194.400 385.564,194.400 384.157 C 194.400 383.851,194.760 383.600,195.200 383.600 C 195.717 383.600,196.000 383.333,196.000 382.847 C 196.000 382.430,196.357 382.000,196.800 381.884 C 197.588 381.678,197.600 381.338,197.600 358.437 L 197.600 335.200 202.979 335.200 L 208.358 335.200 208.479 358.177 L 208.600 381.155 209.500 381.993 C 209.995 382.454,210.400 383.004,210.400 383.216 C 210.400 383.427,210.739 383.600,211.153 383.600 C 211.570 383.600,212.000 383.957,212.116 384.400 C 212.483 385.802,225.600 385.566,225.600 384.157 C 225.600 383.851,225.960 383.600,226.400 383.600 C 226.917 383.600,227.200 383.333,227.200 382.847 C 227.200 382.430,227.557 382.000,228.000 381.884 C 228.790 381.677,228.800 381.338,228.800 354.437 C 228.800 327.467,228.808 327.200,229.600 327.200 C 230.133 327.200,230.400 326.933,230.400 326.400 C 230.400 325.867,230.667 325.600,231.200 325.600 C 231.640 325.600,232.000 325.351,232.000 325.047 C 232.000 324.742,232.360 324.399,232.800 324.284 C 233.240 324.169,233.600 323.809,233.600 323.484 C 233.600 323.159,233.960 322.799,234.400 322.684 C 234.840 322.569,235.200 322.188,235.200 321.837 C 235.200 321.487,235.474 321.200,235.810 321.200 C 236.145 321.200,236.591 320.750,236.800 320.200 C 237.009 319.650,237.356 319.200,237.572 319.200 C 237.787 319.200,238.079 318.587,238.219 317.837 C 238.382 316.968,238.752 316.401,239.238 316.274 C 239.741 316.143,240.000 315.721,240.000 315.034 C 240.000 314.461,240.360 313.684,240.800 313.307 C 241.298 312.881,241.600 312.127,241.600 311.311 C 241.600 310.412,241.789 310.000,242.200 310.000 C 242.659 310.000,242.800 309.494,242.800 307.847 C 242.800 306.030,242.925 305.661,243.600 305.484 C 244.817 305.166,244.858 280.999,243.643 280.614 C 243.227 280.482,242.788 279.996,242.667 279.535 C 242.521 278.977,242.239 278.776,241.824 278.935 C 241.389 279.102,241.200 278.936,241.200 278.387 C 241.200 277.954,241.155 277.597,241.100 277.593 C 241.045 277.589,239.774 277.475,238.275 277.339 C 235.797 277.115,235.496 277.170,234.953 277.946 C 234.624 278.416,234.043 278.800,233.662 278.800 C 233.281 278.800,232.263 279.160,231.400 279.600 C 230.537 280.040,229.599 280.400,229.315 280.400 C 229.032 280.400,228.800 280.658,228.800 280.973 C 228.800 281.288,228.459 281.654,228.042 281.787 C 227.578 281.934,227.186 282.550,227.031 283.373 C 226.892 284.114,226.514 284.940,226.189 285.209 C 225.718 285.600,225.596 286.946,225.582 291.949 C 225.569 296.607,225.407 298.608,224.945 299.800 C 224.604 300.680,224.233 301.881,224.121 302.468 C 224.010 303.056,223.577 303.903,223.159 304.352 C 222.742 304.800,222.400 305.402,222.400 305.689 C 222.400 306.432,217.651 311.600,216.968 311.600 C 216.656 311.600,216.400 311.789,216.400 312.021 C 216.400 312.252,215.860 312.630,215.200 312.860 C 214.540 313.090,214.000 313.433,214.000 313.623 C 214.000 313.813,213.235 314.190,212.300 314.461 C 211.365 314.733,210.175 315.224,209.656 315.552 C 208.280 316.423,197.543 316.416,196.514 315.544 C 196.121 315.211,195.056 314.726,194.147 314.467 C 193.239 314.208,192.272 313.727,191.998 313.398 C 191.725 313.069,191.248 312.800,190.938 312.800 C 190.629 312.800,190.271 312.530,190.145 312.200 C 190.018 311.870,189.678 311.600,189.389 311.600 C 188.836 311.600,184.000 306.457,184.000 305.869 C 184.000 305.680,183.640 305.069,183.200 304.509 C 182.760 303.950,182.400 303.156,182.400 302.745 C 182.400 302.333,182.040 301.325,181.600 300.504 C 180.901 299.200,180.798 298.231,180.786 292.806 C 180.775 287.510,180.660 286.365,180.000 285.000 C 179.575 284.120,179.221 283.097,179.214 282.727 C 179.206 282.357,178.840 281.940,178.400 281.800 C 177.960 281.660,177.600 281.296,177.600 280.991 C 177.600 280.675,177.004 280.325,176.214 280.176 C 175.452 280.033,174.620 279.665,174.365 279.358 C 174.110 279.051,173.579 278.800,173.184 278.800 C 172.037 278.800,171.200 278.360,171.200 277.757 C 171.200 277.109,167.214 277.004,165.700 277.612 " stroke="none" fill="#444c54" fill-rule="evenodd"></path><path id="path2" d="M64.900 47.076 C 65.285 47.176,65.915 47.176,66.300 47.076 C 66.685 46.975,66.370 46.893,65.600 46.893 C 64.830 46.893,64.515 46.975,64.900 47.076 M71.300 47.076 C 71.685 47.176,72.315 47.176,72.700 47.076 C 73.085 46.975,72.770 46.893,72.000 46.893 C 71.230 46.893,70.915 46.975,71.300 47.076 M333.700 47.076 C 334.085 47.176,334.715 47.176,335.100 47.076 C 335.485 46.975,335.170 46.893,334.400 46.893 C 333.630 46.893,333.315 46.975,333.700 47.076 M315.785 53.300 L 313.800 55.400 315.900 53.415 C 317.851 51.571,318.183 51.200,317.885 51.200 C 317.822 51.200,316.877 52.145,315.785 53.300 M46.893 65.600 C 46.893 66.370,46.975 66.685,47.076 66.300 C 47.176 65.915,47.176 65.285,47.076 64.900 C 46.975 64.515,46.893 64.830,46.893 65.600 M309.340 68.800 C 309.340 70.670,309.409 71.435,309.493 70.500 C 309.577 69.565,309.577 68.035,309.493 67.100 C 309.409 66.165,309.340 66.930,309.340 68.800 M46.893 72.000 C 46.893 72.770,46.975 73.085,47.076 72.700 C 47.176 72.315,47.176 71.685,47.076 71.300 C 46.975 70.915,46.893 71.230,46.893 72.000 M315.800 84.400 C 316.883 85.500,317.860 86.400,317.970 86.400 C 318.080 86.400,317.283 85.500,316.200 84.400 C 315.117 83.300,314.140 82.400,314.030 82.400 C 313.920 82.400,314.717 83.300,315.800 84.400 M327.700 90.676 C 328.085 90.776,328.715 90.776,329.100 90.676 C 329.485 90.575,329.170 90.493,328.400 90.493 C 327.630 90.493,327.315 90.575,327.700 90.676 M333.700 90.676 C 334.085 90.776,334.715 90.776,335.100 90.676 C 335.485 90.575,335.170 90.493,334.400 90.493 C 333.630 90.493,333.315 90.575,333.700 90.676 M56.700 140.700 C 64.675 140.760,77.725 140.760,85.700 140.700 C 93.675 140.639,87.150 140.590,71.200 140.590 C 55.250 140.590,48.725 140.639,56.700 140.700 M315.729 140.700 C 323.611 140.761,336.391 140.761,344.129 140.700 C 351.868 140.639,345.420 140.589,329.800 140.590 C 314.180 140.590,307.848 140.639,315.729 140.700 M285.375 149.468 C 284.759 150.276,284.459 150.811,284.709 150.656 C 285.221 150.340,286.953 148.000,286.675 148.000 C 286.576 148.000,285.991 148.661,285.375 149.468 M378.120 161.200 C 378.120 162.410,378.195 162.905,378.287 162.300 C 378.378 161.695,378.378 160.705,378.287 160.100 C 378.195 159.495,378.120 159.990,378.120 161.200 M21.697 203.620 C 21.623 236.345,21.711 246.351,22.080 246.720 C 22.413 247.053,24.155 247.175,27.780 247.118 L 33.000 247.036 27.600 246.818 L 22.200 246.600 21.997 203.800 L 21.795 161.000 21.697 203.620 M279.701 173.000 C 279.705 173.880,279.787 174.193,279.883 173.695 C 279.979 173.198,279.975 172.478,279.875 172.095 C 279.775 171.713,279.696 172.120,279.701 173.000 M279.293 179.200 C 279.293 179.970,279.375 180.285,279.476 179.900 C 279.576 179.515,279.576 178.885,279.476 178.500 C 279.375 178.115,279.293 178.430,279.293 179.200 M123.320 183.600 C 123.320 184.810,123.395 185.305,123.487 184.700 C 123.578 184.095,123.578 183.105,123.487 182.500 C 123.395 181.895,123.320 182.390,123.320 183.600 M190.501 197.000 C 190.505 197.880,190.587 198.193,190.683 197.695 C 190.779 197.198,190.775 196.478,190.675 196.095 C 190.575 195.713,190.496 196.120,190.501 197.000 M215.701 197.000 C 215.705 197.880,215.787 198.193,215.883 197.695 C 215.979 197.198,215.975 196.478,215.875 196.095 C 215.775 195.713,215.696 196.120,215.701 197.000 M201.900 209.489 C 202.615 209.578,203.785 209.578,204.500 209.489 C 205.215 209.401,204.630 209.328,203.200 209.328 C 201.770 209.328,201.185 209.401,201.900 209.489 M67.900 247.082 C 68.395 247.178,69.205 247.178,69.700 247.082 C 70.195 246.987,69.790 246.909,68.800 246.909 C 67.810 246.909,67.405 246.987,67.900 247.082 M105.500 247.082 C 105.995 247.178,106.805 247.178,107.300 247.082 C 107.795 246.987,107.390 246.909,106.400 246.909 C 105.410 246.909,105.005 246.987,105.500 247.082 M292.700 247.082 C 293.195 247.178,294.005 247.178,294.500 247.082 C 294.995 246.987,294.590 246.909,293.600 246.909 C 292.610 246.909,292.205 246.987,292.700 247.082 M369.700 247.097 C 371.185 247.174,373.615 247.174,375.100 247.097 C 376.585 247.020,375.370 246.957,372.400 246.957 C 369.430 246.957,368.215 247.020,369.700 247.097 M40.594 306.200 C 40.594 334.580,40.642 346.249,40.700 332.131 C 40.758 318.013,40.758 294.793,40.700 280.531 C 40.642 266.269,40.594 277.820,40.594 306.200 M96.994 306.200 C 96.994 334.580,97.042 346.249,97.100 332.131 C 97.158 318.013,97.158 294.793,97.100 280.531 C 97.042 266.269,96.994 277.820,96.994 306.200 M212.600 264.800 C 211.581 265.238,212.632 265.238,214.000 264.800 C 214.804 264.543,214.843 264.477,214.200 264.468 C 213.760 264.462,213.040 264.611,212.600 264.800 M196.305 265.483 C 196.802 265.579,197.522 265.575,197.905 265.475 C 198.287 265.375,197.880 265.296,197.000 265.301 C 196.120 265.305,195.807 265.387,196.305 265.483 M208.705 265.483 C 209.202 265.579,209.922 265.575,210.305 265.475 C 210.687 265.375,210.280 265.296,209.400 265.301 C 208.520 265.305,208.207 265.387,208.705 265.483 M224.914 295.000 C 224.917 296.100,224.995 296.503,225.087 295.895 C 225.179 295.286,225.177 294.386,225.082 293.895 C 224.987 293.403,224.911 293.900,224.914 295.000 M181.293 296.800 C 181.293 297.570,181.375 297.885,181.476 297.500 C 181.576 297.115,181.576 296.485,181.476 296.100 C 181.375 295.715,181.293 296.030,181.293 296.800 M187.200 308.925 C 187.200 308.994,187.785 309.579,188.500 310.225 L 189.800 311.400 188.625 310.100 C 187.530 308.888,187.200 308.616,187.200 308.925 M208.200 315.014 C 207.540 315.317,207.270 315.566,207.600 315.568 C 207.930 315.570,208.650 315.314,209.200 315.000 C 210.465 314.277,209.789 314.287,208.200 315.014 M202.305 315.883 C 202.802 315.979,203.522 315.975,203.905 315.875 C 204.287 315.775,203.880 315.696,203.000 315.701 C 202.120 315.705,201.807 315.787,202.305 315.883 M59.301 357.000 C 59.305 357.880,59.387 358.193,59.483 357.695 C 59.579 357.198,59.575 356.478,59.475 356.095 C 59.375 355.713,59.296 356.120,59.301 357.000 M78.109 357.200 C 78.109 358.190,78.187 358.595,78.282 358.100 C 78.378 357.605,78.378 356.795,78.282 356.300 C 78.187 355.805,78.109 356.210,78.109 357.200 M49.300 365.876 C 49.685 365.976,50.315 365.976,50.700 365.876 C 51.085 365.775,50.770 365.693,50.000 365.693 C 49.230 365.693,48.915 365.775,49.300 365.876 M86.900 365.876 C 87.285 365.976,87.915 365.976,88.300 365.876 C 88.685 365.775,88.370 365.693,87.600 365.693 C 86.830 365.693,86.515 365.775,86.900 365.876 " stroke="none" fill="#9ca4a4" fill-rule="evenodd"></path><path id="path3" d="M65.400 47.160 C 63.108 47.605,59.502 48.835,58.800 49.412 C 58.470 49.684,57.781 50.033,57.270 50.189 C 56.062 50.558,50.558 56.062,50.189 57.270 C 50.033 57.781,49.686 58.470,49.418 58.800 C 46.396 62.520,46.394 75.106,49.415 78.800 C 49.685 79.130,50.028 79.802,50.177 80.292 C 50.530 81.451,56.149 87.070,57.308 87.423 C 57.798 87.572,58.470 87.915,58.800 88.185 C 64.418 92.780,77.449 90.746,84.084 84.240 C 90.682 77.771,92.825 64.474,88.185 58.800 C 87.915 58.470,87.572 57.798,87.423 57.308 C 87.070 56.149,81.451 50.530,80.292 50.177 C 79.802 50.028,79.130 49.686,78.800 49.418 C 76.788 47.784,68.974 46.467,65.400 47.160 M328.200 47.069 C 322.184 48.058,314.651 53.218,312.239 58.000 C 305.662 71.038,311.344 84.783,325.400 89.836 C 328.089 90.803,334.732 90.821,336.949 89.867 C 337.801 89.500,338.811 89.200,339.195 89.200 C 339.578 89.200,340.350 88.840,340.909 88.400 C 341.469 87.960,342.209 87.600,342.554 87.600 C 342.900 87.600,344.584 86.205,346.296 84.500 C 353.684 77.142,355.119 68.175,350.471 58.400 C 349.341 56.023,343.666 50.000,342.556 50.000 C 342.210 50.000,341.469 49.640,340.909 49.200 C 340.350 48.760,339.578 48.400,339.195 48.400 C 338.811 48.400,337.866 48.136,337.093 47.813 C 335.601 47.190,330.207 46.738,328.200 47.069 M73.758 48.208 C 74.537 48.534,75.617 48.800,76.159 48.800 C 76.700 48.800,77.404 49.061,77.723 49.380 C 78.042 49.699,78.791 50.083,79.387 50.232 C 80.932 50.620,87.061 56.856,87.396 58.381 C 87.543 59.052,87.804 59.600,87.976 59.600 C 88.319 59.600,89.408 63.380,90.022 66.700 C 90.274 68.059,90.274 69.541,90.022 70.900 C 89.408 74.220,88.319 78.000,87.976 78.000 C 87.804 78.000,87.548 78.525,87.408 79.166 C 87.254 79.866,86.004 81.482,84.276 83.215 C 80.680 86.820,80.425 87.030,79.200 87.403 C 78.650 87.571,78.110 87.843,78.000 88.009 C 77.771 88.353,73.990 89.447,70.900 90.062 C 69.434 90.353,68.166 90.352,66.700 90.057 C 63.133 89.340,59.600 88.305,59.600 87.976 C 59.600 87.804,59.052 87.543,58.381 87.396 C 56.721 87.031,50.569 80.879,50.204 79.219 C 50.057 78.548,49.796 78.000,49.624 78.000 C 49.326 78.000,48.445 75.091,47.566 71.200 C 47.100 69.138,47.403 65.769,48.232 63.784 C 48.545 63.037,48.800 61.983,48.800 61.441 C 48.800 60.900,49.061 60.196,49.380 59.877 C 49.699 59.558,50.083 58.809,50.232 58.213 C 50.586 56.806,56.806 50.586,58.213 50.232 C 58.809 50.083,59.558 49.699,59.877 49.380 C 60.196 49.061,60.883 48.800,61.403 48.800 C 61.922 48.800,62.855 48.595,63.474 48.345 C 66.520 47.114,70.997 47.055,73.758 48.208 M336.185 48.220 C 336.949 48.539,337.923 48.800,338.350 48.800 C 340.626 48.800,349.600 55.917,349.600 57.722 C 349.600 58.035,349.960 58.750,350.400 59.309 C 350.840 59.869,351.200 60.679,351.200 61.111 C 351.200 61.543,351.560 63.023,352.000 64.400 C 352.440 65.777,352.800 67.757,352.800 68.800 C 352.800 69.843,352.440 71.823,352.000 73.200 C 351.560 74.577,351.200 76.057,351.200 76.489 C 351.200 76.921,350.840 77.731,350.400 78.291 C 349.960 78.850,349.600 79.565,349.600 79.878 C 349.600 80.931,343.515 86.566,341.200 87.658 C 337.386 89.457,332.554 90.525,329.800 90.179 C 326.545 89.770,320.473 87.577,318.944 86.257 C 316.664 84.289,314.400 81.994,314.400 81.653 C 314.400 81.426,314.159 81.096,313.866 80.920 C 313.207 80.526,311.201 76.319,311.198 75.325 C 311.196 74.926,310.926 74.084,310.598 73.454 C 309.917 72.149,309.743 65.006,310.382 64.611 C 310.593 64.481,310.976 63.300,311.234 61.987 C 311.493 60.674,311.847 59.600,312.021 59.600 C 312.195 59.600,312.541 58.986,312.788 58.235 C 313.036 57.485,313.500 56.770,313.819 56.648 C 314.139 56.525,314.400 56.219,314.400 55.966 C 314.400 55.714,315.345 54.631,316.500 53.560 C 317.655 52.489,318.870 51.362,319.200 51.057 C 319.530 50.751,320.250 50.367,320.800 50.202 C 321.350 50.037,322.004 49.739,322.254 49.540 C 322.741 49.152,325.996 48.158,328.600 47.602 C 330.643 47.166,334.395 47.471,336.185 48.220 M37.149 141.741 C 35.692 142.214,34.252 142.803,33.949 143.051 C 33.647 143.299,32.986 143.629,32.479 143.785 C 29.505 144.697,24.813 150.840,22.967 156.237 L 21.996 159.074 22.098 202.837 L 22.200 246.600 28.000 246.803 C 35.202 247.055,37.425 248.076,39.697 252.172 L 40.600 253.800 40.800 306.600 C 41.022 365.175,40.811 360.817,43.531 362.985 C 49.041 367.376,55.311 366.257,58.483 360.317 L 59.400 358.600 59.600 305.800 C 59.795 254.211,59.818 252.972,60.584 251.800 C 64.896 245.200,73.430 245.303,77.044 252.000 C 77.771 253.347,77.808 255.400,78.000 306.000 L 78.200 358.600 79.117 360.317 C 82.301 366.280,88.537 367.393,94.069 362.985 C 96.789 360.817,96.578 365.175,96.800 306.600 L 97.000 253.800 97.863 252.200 C 99.634 248.918,102.273 247.276,106.571 246.779 L 109.400 246.452 106.105 246.559 C 103.707 246.638,102.609 246.848,102.073 247.334 C 101.668 247.700,101.171 248.002,100.969 248.004 C 100.517 248.009,98.000 250.559,98.000 251.011 C 98.000 251.190,97.685 251.685,97.300 252.110 C 96.642 252.838,96.594 256.038,96.494 305.528 L 96.388 358.172 95.542 359.920 C 92.208 366.807,82.825 366.854,79.479 360.000 L 78.600 358.200 78.400 305.400 C 78.205 253.913,78.181 252.570,77.420 251.400 C 73.089 244.734,64.511 244.734,60.180 251.400 C 59.419 252.570,59.395 253.913,59.200 305.400 C 59.013 354.675,58.953 358.280,58.302 359.400 C 57.919 360.060,57.604 360.793,57.602 361.028 C 57.599 361.659,55.654 363.240,53.600 364.283 C 49.367 366.432,44.279 364.508,42.058 359.920 L 41.212 358.172 41.106 305.528 C 41.006 256.038,40.958 252.838,40.300 252.110 C 39.915 251.685,39.600 251.190,39.600 251.011 C 39.600 250.559,37.083 248.009,36.631 248.004 C 36.429 248.002,35.915 247.685,35.490 247.300 C 34.840 246.712,33.729 246.577,28.555 246.457 L 22.393 246.314 22.519 202.657 C 22.651 156.976,22.736 154.787,24.425 153.600 C 24.582 153.490,25.003 152.697,25.360 151.839 C 26.058 150.164,31.619 144.400,32.538 144.400 C 32.843 144.400,33.522 144.062,34.048 143.648 C 36.846 141.448,37.627 141.400,71.000 141.400 C 104.373 141.400,105.154 141.448,107.952 143.648 C 108.478 144.062,109.115 144.400,109.369 144.400 C 110.551 144.400,116.800 151.187,116.800 152.471 C 116.800 152.710,117.139 153.467,117.553 154.153 C 117.967 154.839,118.435 156.300,118.592 157.400 C 118.750 158.500,119.058 159.734,119.276 160.142 C 119.495 160.550,119.851 162.800,120.068 165.142 C 120.285 167.484,120.718 170.383,121.031 171.584 C 121.344 172.785,121.604 174.675,121.610 175.784 C 121.615 176.893,121.812 178.520,122.049 179.400 C 122.285 180.280,122.612 182.530,122.776 184.400 L 123.073 187.800 123.137 184.609 C 123.171 182.854,122.937 180.064,122.615 178.409 C 122.293 176.754,121.850 174.050,121.629 172.400 C 119.701 157.980,119.261 156.010,117.025 151.810 C 115.606 149.144,110.853 144.000,109.809 144.000 C 109.572 144.000,108.933 143.686,108.389 143.303 C 107.845 142.919,106.140 142.201,104.600 141.708 L 101.800 140.811 70.800 140.847 C 40.236 140.882,39.763 140.895,37.149 141.741 M296.800 141.741 C 288.383 144.521,282.792 151.006,281.578 159.400 C 280.745 165.150,279.967 172.216,279.576 177.564 C 279.345 180.733,278.985 184.223,278.778 185.318 C 278.570 186.413,278.418 188.320,278.440 189.555 C 278.507 193.363,279.516 186.178,279.987 178.547 C 280.205 174.998,280.573 171.598,280.803 170.992 C 281.034 170.385,281.333 167.619,281.468 164.845 C 281.637 161.379,281.946 159.200,282.457 157.885 C 282.866 156.832,283.200 155.538,283.200 155.009 C 283.200 154.480,283.383 153.934,283.606 153.796 C 283.829 153.658,284.263 152.944,284.570 152.209 C 285.171 150.771,286.571 149.028,288.800 146.943 C 291.160 144.736,291.489 144.489,292.461 144.192 C 292.977 144.034,293.670 143.675,294.000 143.394 C 296.226 141.496,297.955 141.400,329.800 141.400 C 361.645 141.400,363.374 141.496,365.600 143.394 C 365.930 143.675,366.629 144.036,367.152 144.196 C 368.458 144.595,373.845 149.965,374.619 151.639 C 374.965 152.387,375.505 153.450,375.818 154.000 C 376.132 154.550,376.392 155.360,376.397 155.800 C 376.401 156.240,376.719 157.140,377.102 157.800 C 377.754 158.921,377.800 161.860,377.800 202.600 L 377.800 246.200 371.600 246.421 C 364.988 246.657,364.356 246.848,361.768 249.402 C 359.340 251.798,359.418 251.231,359.200 268.200 L 359.000 283.800 331.300 283.903 L 303.600 284.005 303.600 268.929 C 303.600 251.731,303.630 251.903,300.116 248.809 C 297.993 246.941,296.310 246.385,293.000 246.457 L 290.600 246.509 293.423 246.807 C 297.676 247.256,300.016 248.618,302.004 251.804 L 303.000 253.400 303.200 268.800 L 303.400 284.200 330.956 284.303 C 350.978 284.377,358.660 284.282,359.056 283.954 C 359.497 283.587,359.600 280.665,359.600 268.498 C 359.600 253.777,359.616 253.467,360.474 252.047 C 363.029 247.818,364.744 247.055,372.102 246.873 C 377.770 246.732,378.012 246.692,378.222 245.856 C 378.342 245.377,378.385 225.639,378.318 201.993 L 378.195 159.000 377.231 156.200 C 376.701 154.660,376.049 153.130,375.781 152.800 C 375.514 152.470,375.164 151.771,375.004 151.248 C 374.095 148.273,367.407 143.148,362.480 141.652 C 358.093 140.319,300.870 140.397,296.800 141.741 M198.094 185.603 C 186.034 191.473,189.870 209.200,203.200 209.200 C 213.303 209.200,219.755 196.098,212.986 189.329 C 212.664 189.007,212.400 188.593,212.400 188.411 C 212.400 188.088,210.862 187.066,208.000 185.486 C 205.470 184.089,201.098 184.141,198.094 185.603 M206.600 185.600 C 207.480 186.025,208.327 186.379,208.482 186.386 C 212.574 186.583,216.608 196.270,214.400 200.600 C 213.960 201.463,213.600 202.373,213.600 202.623 C 213.600 202.872,213.240 203.402,212.800 203.800 C 212.360 204.198,211.995 204.721,211.989 204.962 C 211.977 205.467,209.758 206.900,207.245 208.024 C 204.334 209.328,200.218 208.965,197.200 207.140 C 194.975 205.794,194.405 205.348,194.403 204.949 C 194.401 204.701,194.111 204.258,193.758 203.965 C 189.065 200.070,191.382 189.377,197.519 186.604 C 198.334 186.236,199.540 185.684,200.200 185.377 C 201.887 184.591,204.716 184.690,206.600 185.600 M231.846 259.977 C 231.008 260.404,229.755 260.878,229.063 261.030 C 228.370 261.182,227.262 261.534,226.602 261.811 C 221.640 263.892,211.119 265.603,203.297 265.602 C 197.275 265.600,185.707 264.208,184.254 263.310 C 184.044 263.180,182.867 262.844,181.637 262.563 C 178.795 261.913,175.703 260.898,174.338 260.168 C 173.754 259.856,172.854 259.621,172.338 259.646 C 171.536 259.686,171.514 259.722,172.183 259.892 C 172.614 260.001,173.334 260.323,173.783 260.606 C 174.232 260.890,175.197 261.246,175.927 261.398 C 176.657 261.551,177.737 261.927,178.327 262.235 C 178.917 262.543,179.850 262.797,180.400 262.800 C 180.950 262.803,181.925 263.079,182.567 263.413 C 183.208 263.748,185.008 264.200,186.567 264.418 C 188.125 264.637,190.030 265.037,190.800 265.308 C 193.116 266.122,212.215 265.978,216.000 265.118 C 217.650 264.743,219.810 264.257,220.800 264.039 C 223.758 263.388,227.373 262.337,227.800 262.004 C 228.020 261.833,228.830 261.562,229.600 261.403 C 230.370 261.244,231.590 260.756,232.310 260.318 C 233.031 259.880,233.895 259.628,234.231 259.757 C 234.579 259.890,234.736 259.821,234.597 259.595 C 234.237 259.013,233.549 259.108,231.846 259.977 M172.000 277.956 C 172.330 278.194,173.012 278.391,173.516 278.394 C 178.210 278.425,181.187 282.919,181.229 290.035 C 181.271 297.108,181.669 299.168,183.929 304.000 C 185.071 306.442,190.396 312.098,192.025 312.598 C 192.561 312.763,193.244 313.094,193.542 313.333 C 196.995 316.103,208.112 316.237,212.400 313.559 C 212.730 313.353,213.630 312.897,214.400 312.546 C 218.998 310.450,224.952 301.154,224.742 296.400 C 224.683 295.060,224.673 295.052,224.519 296.200 C 224.431 296.860,224.098 297.967,223.779 298.660 C 223.461 299.354,223.200 300.364,223.200 300.907 C 223.200 301.449,222.865 302.321,222.455 302.846 C 222.045 303.371,221.576 304.226,221.413 304.747 C 221.010 306.033,215.244 311.828,214.000 312.198 C 213.450 312.361,212.730 312.728,212.400 313.013 C 212.070 313.299,211.080 313.666,210.200 313.829 C 209.320 313.992,208.021 314.367,207.313 314.663 C 206.605 314.958,204.754 315.200,203.200 315.200 C 201.646 315.200,199.795 314.958,199.087 314.663 C 198.379 314.367,197.080 313.992,196.200 313.829 C 195.320 313.666,194.330 313.299,194.000 313.013 C 193.670 312.728,192.950 312.359,192.400 312.193 C 191.850 312.028,191.309 311.751,191.197 311.579 C 191.085 311.408,190.328 310.737,189.514 310.090 C 187.965 308.860,184.800 305.083,184.800 304.466 C 184.800 304.269,184.467 303.679,184.060 303.154 C 183.654 302.629,183.196 301.399,183.043 300.420 C 182.890 299.441,182.569 298.403,182.329 298.114 C 182.074 297.807,181.789 294.674,181.643 290.578 C 181.504 286.693,181.216 283.440,180.995 283.283 C 180.777 283.127,180.083 282.241,179.453 281.312 C 178.824 280.384,177.932 279.506,177.473 279.360 C 177.013 279.214,176.391 278.848,176.090 278.547 C 175.789 278.246,174.940 278.000,174.204 278.000 C 173.468 278.000,172.536 277.893,172.133 277.762 C 171.523 277.565,171.501 277.597,172.000 277.956 M232.200 277.969 C 227.172 278.812,224.769 282.382,224.875 288.847 L 224.950 293.400 225.175 288.800 C 225.505 282.058,227.205 279.894,233.600 278.079 C 235.199 277.625,234.551 277.574,232.200 277.969 " stroke="none" fill="#a4a4ac" fill-rule="evenodd"></path><path id="path4" d="M61.800 47.162 C 60.920 47.575,59.750 48.119,59.200 48.372 C 58.095 48.880,56.625 49.698,55.400 50.485 C 54.960 50.768,53.790 51.810,52.800 52.800 C 51.810 53.790,50.768 54.960,50.485 55.400 C 49.702 56.618,48.882 58.091,48.370 59.200 C 46.352 63.574,46.400 63.341,46.400 68.800 C 46.400 74.254,46.364 74.077,48.374 78.400 C 49.734 81.323,50.833 82.828,53.471 85.374 C 55.130 86.975,56.475 88.000,56.918 88.000 C 57.114 88.000,57.731 88.360,58.291 88.800 C 58.850 89.240,59.674 89.600,60.122 89.600 C 60.570 89.600,61.285 89.915,61.709 90.300 C 62.993 91.464,73.518 91.563,75.439 90.430 C 76.213 89.973,77.171 89.600,77.569 89.600 C 77.967 89.600,78.750 89.240,79.309 88.800 C 79.869 88.360,80.499 88.000,80.711 88.000 C 81.145 88.000,84.085 85.517,85.446 84.000 C 87.467 81.748,88.000 81.059,88.000 80.702 C 88.000 80.495,88.360 79.869,88.800 79.309 C 89.240 78.750,89.600 77.961,89.600 77.556 C 89.600 77.151,89.959 76.230,90.399 75.510 C 91.587 73.560,91.587 64.040,90.399 62.090 C 89.959 61.370,89.600 60.449,89.600 60.044 C 89.600 59.639,89.240 58.850,88.800 58.291 C 88.360 57.731,88.000 57.114,88.000 56.918 C 88.000 55.811,82.982 50.788,80.561 49.470 C 79.403 48.841,78.864 48.581,75.756 47.154 C 73.368 46.058,64.142 46.063,61.800 47.162 M324.490 47.201 C 323.770 47.641,322.849 48.000,322.444 48.000 C 322.039 48.000,321.250 48.360,320.691 48.800 C 320.131 49.240,319.508 49.600,319.305 49.600 C 317.821 49.600,311.149 57.445,310.544 59.902 C 310.395 60.506,309.987 61.442,309.637 61.982 C 309.128 62.767,309.000 64.142,309.000 68.800 C 309.000 73.458,309.128 74.833,309.637 75.618 C 309.987 76.158,310.395 77.094,310.544 77.698 C 311.149 80.155,317.821 88.000,319.305 88.000 C 319.508 88.000,320.131 88.360,320.691 88.800 C 321.250 89.240,322.089 89.601,322.554 89.603 C 323.019 89.604,323.940 89.963,324.600 90.400 C 326.390 91.586,335.892 91.586,338.104 90.400 C 338.925 89.960,339.930 89.600,340.337 89.600 C 340.743 89.600,341.402 89.240,341.800 88.800 C 342.198 88.360,342.729 88.000,342.981 88.000 C 343.946 88.000,349.200 83.392,349.200 82.545 C 349.200 82.245,349.378 82.000,349.595 82.000 C 349.812 82.000,350.243 81.392,350.554 80.649 C 350.864 79.906,351.317 79.175,351.559 79.025 C 351.802 78.875,352.001 78.358,352.003 77.876 C 352.004 77.394,352.363 76.460,352.800 75.800 C 353.990 74.004,353.990 63.924,352.800 61.704 C 352.360 60.884,352.000 59.905,352.000 59.530 C 352.000 59.154,351.802 58.725,351.559 58.575 C 351.317 58.425,350.864 57.694,350.554 56.951 C 350.243 56.208,349.812 55.600,349.595 55.600 C 349.378 55.600,349.200 55.355,349.200 55.055 C 349.200 54.208,343.946 49.600,342.981 49.600 C 342.729 49.600,342.198 49.240,341.800 48.800 C 341.402 48.360,340.743 48.000,340.337 48.000 C 339.930 48.000,338.925 47.640,338.104 47.200 C 335.891 46.014,326.437 46.015,324.490 47.201 M75.278 47.741 C 76.750 48.257,78.409 48.976,78.964 49.339 C 79.518 49.703,80.171 50.000,80.414 50.000 C 81.007 50.000,87.600 56.615,87.600 57.210 C 87.600 57.466,87.924 58.154,88.320 58.738 C 90.521 61.982,91.735 72.472,90.138 74.448 C 89.893 74.752,89.558 75.630,89.394 76.400 C 89.230 77.170,88.759 78.229,88.348 78.754 C 87.937 79.279,87.600 79.966,87.600 80.283 C 87.600 81.011,81.042 87.600,80.318 87.600 C 80.021 87.600,79.333 87.914,78.789 88.298 C 74.190 91.546,63.410 91.546,58.811 88.298 C 58.267 87.914,57.579 87.600,57.282 87.600 C 56.638 87.600,50.000 81.051,50.000 80.414 C 50.000 80.171,49.703 79.518,49.339 78.964 C 46.012 73.885,46.069 62.164,49.439 58.369 C 49.748 58.021,50.000 57.513,50.000 57.240 C 50.000 56.592,56.592 50.000,57.240 50.000 C 57.513 50.000,58.021 49.747,58.369 49.438 C 61.197 46.921,70.320 46.005,75.278 47.741 M337.600 47.716 C 342.132 49.306,344.011 50.438,346.816 53.272 C 349.238 55.718,352.000 60.086,352.000 61.470 C 352.000 61.694,352.281 62.440,352.624 63.127 C 353.480 64.844,353.244 73.018,352.263 75.600 C 350.498 80.248,348.210 83.406,344.163 86.776 C 338.736 91.295,326.595 92.101,321.211 88.298 C 320.667 87.914,319.981 87.600,319.687 87.600 C 318.080 87.600,310.808 78.653,310.798 76.663 C 310.796 76.408,310.491 75.660,310.120 75.000 C 309.143 73.265,309.143 64.335,310.120 62.600 C 310.491 61.940,310.796 61.192,310.798 60.937 C 310.808 58.947,318.080 50.000,319.687 50.000 C 319.981 50.000,320.667 49.685,321.211 49.301 C 324.757 46.794,332.764 46.019,337.600 47.716 M39.561 140.349 C 38.330 140.487,37.070 140.802,36.761 141.048 C 36.453 141.294,35.525 141.617,34.700 141.766 C 33.875 141.915,33.200 142.217,33.200 142.439 C 33.200 142.660,32.660 143.030,32.000 143.260 C 31.340 143.490,30.800 143.846,30.800 144.052 C 30.800 144.257,30.485 144.544,30.100 144.690 C 29.047 145.089,26.000 148.052,26.000 148.678 C 26.000 148.979,25.730 149.329,25.400 149.455 C 25.070 149.582,24.800 149.912,24.800 150.189 C 24.800 150.466,24.440 151.150,24.000 151.709 C 23.560 152.269,23.200 152.970,23.200 153.269 C 23.200 153.568,22.795 154.529,22.300 155.406 L 21.400 157.000 21.285 201.657 C 21.151 253.955,20.249 247.600,27.805 247.600 C 30.746 247.600,33.256 247.767,33.382 247.971 C 33.508 248.175,34.247 248.552,35.025 248.808 C 36.825 249.402,38.198 250.775,38.792 252.575 C 39.048 253.353,39.425 254.092,39.629 254.218 C 39.854 254.357,40.007 274.759,40.017 305.924 C 40.034 355.010,40.154 360.785,41.162 361.121 C 41.403 361.201,41.600 361.489,41.600 361.760 C 41.600 362.184,42.361 362.935,45.148 365.263 C 46.788 366.634,53.586 366.558,54.916 365.155 C 55.309 364.740,55.813 364.400,56.035 364.400 C 56.502 364.400,58.369 362.372,58.387 361.844 C 58.394 361.648,58.715 361.258,59.100 360.976 C 59.760 360.494,59.806 357.413,59.906 307.557 C 59.995 262.743,60.098 254.555,60.575 254.025 C 60.884 253.681,61.265 252.890,61.421 252.266 C 61.792 250.777,63.221 249.387,64.975 248.808 C 65.753 248.552,66.492 248.175,66.618 247.971 C 66.917 247.488,70.683 247.488,70.982 247.971 C 71.108 248.175,71.847 248.552,72.625 248.808 C 74.379 249.387,75.808 250.777,76.179 252.266 C 76.335 252.890,76.716 253.681,77.025 254.025 C 77.502 254.555,77.605 262.743,77.694 307.557 C 77.794 357.413,77.840 360.494,78.500 360.976 C 78.885 361.258,79.206 361.648,79.213 361.844 C 79.231 362.372,81.098 364.400,81.565 364.400 C 81.787 364.400,82.291 364.740,82.684 365.155 C 84.014 366.558,90.812 366.634,92.452 365.263 C 95.239 362.935,96.000 362.184,96.000 361.760 C 96.000 361.489,96.197 361.201,96.438 361.121 C 97.446 360.785,97.566 354.998,97.583 305.700 C 97.593 274.410,97.746 254.000,97.969 254.000 C 98.172 254.000,98.549 253.361,98.806 252.581 C 99.403 250.774,100.774 249.403,102.581 248.806 C 103.361 248.549,104.000 248.172,104.000 247.969 C 104.000 247.766,105.046 247.600,106.324 247.600 C 107.747 247.600,108.948 247.373,109.424 247.013 C 110.132 246.477,110.077 246.460,108.803 246.813 C 108.034 247.026,106.649 247.200,105.724 247.200 C 102.887 247.200,99.850 249.120,98.242 251.930 C 97.401 253.399,97.400 253.440,97.200 306.200 L 97.000 359.000 96.139 360.600 C 92.294 367.744,82.703 367.526,78.841 360.206 L 78.000 358.612 78.000 306.490 L 78.000 254.368 77.155 252.684 C 73.599 245.598,64.360 245.327,60.661 252.200 L 59.800 253.800 59.600 306.600 L 59.400 359.400 58.348 361.000 C 53.995 367.620,45.126 367.410,41.461 360.600 L 40.600 359.000 40.400 306.200 C 40.200 253.440,40.199 253.399,39.358 251.930 C 37.154 248.079,35.047 247.200,28.028 247.200 C 23.780 247.200,22.390 247.070,22.034 246.641 C 21.687 246.222,21.601 235.044,21.693 202.141 L 21.816 158.200 22.706 155.917 C 25.226 149.448,29.231 144.919,34.600 142.466 C 38.813 140.542,37.683 140.600,70.800 140.600 L 101.800 140.600 104.800 141.562 C 106.450 142.091,108.084 142.766,108.431 143.062 C 108.779 143.358,109.204 143.600,109.376 143.600 C 109.812 143.600,113.580 146.760,114.796 148.145 C 116.384 149.956,118.740 154.266,119.035 155.904 C 119.184 156.727,119.478 157.734,119.690 158.143 C 119.901 158.552,120.214 160.082,120.385 161.543 L 120.695 164.200 120.734 161.400 C 120.762 159.388,120.555 158.149,120.000 157.000 C 119.575 156.120,119.221 155.095,119.214 154.721 C 119.198 153.944,117.466 150.557,116.588 149.587 C 116.265 149.230,116.000 148.810,116.000 148.655 C 116.000 148.105,110.543 143.200,109.930 143.200 C 109.708 143.200,109.069 142.840,108.509 142.400 C 107.950 141.960,107.150 141.600,106.732 141.600 C 106.314 141.600,105.491 141.285,104.904 140.900 C 103.801 140.177,45.473 139.685,39.561 140.349 M298.682 140.354 C 297.406 140.496,296.236 140.806,296.082 141.043 C 295.927 141.280,295.248 141.581,294.574 141.712 C 293.253 141.969,290.000 143.931,290.000 144.471 C 290.000 144.652,289.749 144.800,289.443 144.800 C 288.794 144.800,284.725 149.085,283.842 150.698 C 283.241 151.797,282.981 152.336,281.554 155.444 C 281.115 156.402,280.798 157.987,280.796 159.244 C 280.793 160.430,280.511 162.300,280.169 163.400 C 279.752 164.740,279.498 167.511,279.399 171.800 L 279.251 178.200 279.612 173.607 C 279.811 171.081,280.146 168.201,280.356 167.207 C 280.566 166.213,280.855 163.870,280.999 162.000 C 281.743 152.304,287.229 145.003,296.400 141.504 C 298.862 140.564,352.765 139.901,359.000 140.734 C 368.536 142.008,375.508 148.481,378.026 158.400 C 378.604 160.680,378.502 246.138,377.920 246.720 C 377.595 247.045,375.721 247.200,372.104 247.200 C 365.190 247.200,362.787 248.250,360.661 252.200 C 359.834 253.736,359.792 254.403,359.600 269.000 L 359.400 284.200 331.400 284.200 L 303.400 284.200 303.190 270.000 L 302.979 255.800 302.990 270.200 L 303.000 284.600 331.175 284.703 C 353.450 284.784,359.416 284.700,359.669 284.303 C 359.844 284.026,359.991 277.207,359.994 269.149 C 359.999 256.911,360.095 254.419,360.574 254.021 C 360.890 253.759,361.266 253.009,361.410 252.355 C 361.745 250.828,363.181 249.400,364.975 248.808 C 365.753 248.552,366.492 248.175,366.618 247.971 C 366.744 247.767,369.232 247.600,372.147 247.600 C 375.760 247.600,377.665 247.441,378.132 247.099 C 379.202 246.317,378.975 156.898,377.900 155.710 C 377.515 155.285,377.200 154.645,377.200 154.287 C 377.200 153.450,376.359 151.600,375.979 151.600 C 375.818 151.600,375.583 151.187,375.456 150.683 C 375.164 149.519,370.921 144.800,370.166 144.800 C 369.855 144.800,369.600 144.616,369.600 144.391 C 369.600 144.167,369.105 143.765,368.500 143.500 C 367.895 143.234,367.260 142.795,367.089 142.525 C 366.918 142.254,366.108 141.908,365.289 141.756 C 364.470 141.604,363.358 141.191,362.818 140.840 C 361.786 140.167,304.257 139.731,298.682 140.354 M120.833 165.391 C 120.815 165.826,121.061 167.536,121.380 169.191 C 121.700 170.846,122.144 173.640,122.367 175.400 C 122.591 177.160,122.978 179.590,123.227 180.800 C 123.639 182.803,123.590 184.491,123.007 188.421 C 122.869 189.347,122.997 189.142,123.393 187.800 C 124.172 185.167,124.158 180.319,123.365 177.587 C 123.016 176.384,122.577 173.581,122.390 171.357 C 122.084 167.726,120.920 163.268,120.833 165.391 M278.431 180.385 C 277.843 182.454,277.736 191.737,278.283 193.145 C 278.531 193.781,278.593 192.876,278.473 190.368 C 278.375 188.322,278.520 185.197,278.796 183.424 C 279.402 179.525,279.186 177.726,278.431 180.385 M197.330 184.980 C 195.280 186.111,191.600 189.726,191.600 190.610 C 191.600 190.966,191.352 191.505,191.049 191.809 C 189.822 193.035,189.824 201.024,191.051 202.042 C 191.353 202.293,191.600 202.832,191.600 203.240 C 191.600 204.159,195.773 208.400,196.677 208.400 C 197.040 208.400,197.685 208.715,198.110 209.100 C 198.747 209.676,199.651 209.800,203.200 209.800 C 206.749 209.800,207.653 209.676,208.290 209.100 C 208.715 208.715,209.361 208.400,209.726 208.400 C 210.604 208.400,213.966 204.936,214.648 203.327 C 214.945 202.627,215.347 201.956,215.541 201.836 C 216.576 201.197,216.462 192.919,215.404 191.861 C 215.130 191.587,214.770 190.936,214.604 190.414 C 214.215 189.186,210.814 185.785,209.586 185.396 C 209.064 185.230,208.391 184.848,208.090 184.547 C 207.090 183.547,199.365 183.858,197.330 184.980 M208.312 185.393 C 218.204 190.362,218.287 203.646,208.455 208.326 C 205.688 209.644,200.643 209.824,198.600 208.678 C 197.940 208.308,197.207 208.004,196.972 208.002 C 196.110 207.998,192.787 204.371,191.758 202.314 C 186.678 192.157,198.243 180.336,208.312 185.393 M290.321 246.881 C 290.578 247.138,291.916 247.425,293.294 247.520 C 294.672 247.614,296.070 247.920,296.400 248.198 C 296.730 248.477,297.450 248.841,298.000 249.007 C 299.762 249.538,301.195 251.472,302.438 255.000 C 302.701 255.745,302.723 255.737,302.760 254.884 C 302.910 251.451,298.236 247.200,294.313 247.200 C 293.368 247.200,291.978 247.023,291.224 246.807 C 290.180 246.507,289.965 246.525,290.321 246.881 M171.600 259.232 C 171.133 259.560,171.202 259.595,171.916 259.394 C 172.487 259.233,173.398 259.431,174.332 259.918 C 175.157 260.348,176.455 260.835,177.216 261.001 C 177.977 261.167,178.955 261.549,179.389 261.851 C 179.823 262.153,180.672 262.400,181.275 262.400 C 181.878 262.400,183.219 262.688,184.255 263.039 C 186.017 263.638,190.012 264.336,196.600 265.198 C 200.130 265.660,206.214 265.665,209.600 265.208 C 216.406 264.289,218.784 263.863,221.028 263.161 C 222.364 262.742,223.800 262.400,224.220 262.400 C 224.982 262.400,227.718 261.429,231.267 259.899 C 232.294 259.456,233.593 259.182,234.155 259.289 C 234.716 259.397,235.081 259.330,234.964 259.142 C 234.595 258.544,232.222 258.773,230.689 259.555 C 229.875 259.970,228.532 260.435,227.704 260.589 C 226.877 260.742,225.930 261.101,225.600 261.386 C 225.270 261.671,223.925 262.034,222.611 262.192 C 221.296 262.350,219.861 262.732,219.422 263.040 C 218.979 263.350,217.670 263.600,216.488 263.600 C 215.314 263.600,212.519 263.982,210.277 264.448 C 205.852 265.368,198.191 265.363,195.854 264.438 C 195.224 264.189,193.064 263.873,191.054 263.737 C 189.044 263.600,186.939 263.256,186.375 262.973 C 185.811 262.689,184.239 262.331,182.881 262.177 C 181.524 262.024,180.211 261.655,179.965 261.357 C 179.718 261.060,178.635 260.699,177.558 260.557 C 176.481 260.414,175.600 260.169,175.600 260.013 C 175.600 259.120,172.598 258.534,171.600 259.232 M171.200 277.877 C 171.200 278.373,172.118 278.800,173.184 278.800 C 173.579 278.800,174.110 279.051,174.365 279.358 C 174.620 279.665,175.452 280.033,176.214 280.176 C 177.004 280.325,177.600 280.675,177.600 280.991 C 177.600 281.296,177.960 281.660,178.400 281.800 C 178.840 281.940,179.206 282.357,179.214 282.727 C 179.221 283.097,179.575 284.120,180.000 285.000 C 180.660 286.365,180.775 287.510,180.786 292.806 C 180.798 298.231,180.901 299.200,181.600 300.504 C 182.040 301.325,182.400 302.333,182.400 302.745 C 182.400 303.156,182.760 303.950,183.200 304.509 C 183.640 305.069,184.000 305.680,184.000 305.869 C 184.000 306.457,188.836 311.600,189.389 311.600 C 189.678 311.600,190.018 311.870,190.145 312.200 C 190.271 312.530,190.629 312.800,190.938 312.800 C 191.248 312.800,191.725 313.069,191.998 313.398 C 192.272 313.727,193.239 314.208,194.147 314.467 C 195.056 314.726,196.121 315.211,196.514 315.544 C 197.543 316.416,208.280 316.423,209.656 315.552 C 210.175 315.224,211.365 314.733,212.300 314.461 C 213.235 314.190,214.000 313.813,214.000 313.623 C 214.000 313.433,214.540 313.090,215.200 312.860 C 215.860 312.630,216.400 312.252,216.400 312.021 C 216.400 311.789,216.656 311.600,216.968 311.600 C 217.651 311.600,222.400 306.432,222.400 305.689 C 222.400 305.402,222.742 304.800,223.159 304.352 C 223.577 303.903,224.010 303.056,224.121 302.468 C 224.233 301.881,224.604 300.680,224.945 299.800 C 225.407 298.608,225.569 296.607,225.582 291.949 C 225.596 286.946,225.718 285.600,226.189 285.209 C 226.514 284.940,226.892 284.114,227.031 283.373 C 227.186 282.550,227.578 281.934,228.042 281.787 C 228.459 281.654,228.800 281.288,228.800 280.973 C 228.800 280.658,229.032 280.400,229.315 280.400 C 229.599 280.400,230.537 280.040,231.400 279.600 C 232.263 279.160,233.269 278.800,233.636 278.800 C 234.002 278.800,234.517 278.541,234.780 278.224 C 235.191 277.729,235.071 277.708,233.929 278.080 C 226.528 280.491,225.371 282.293,225.117 291.800 C 224.781 304.366,220.483 310.691,209.400 314.931 C 205.183 316.544,195.981 315.667,193.200 313.387 C 192.870 313.116,192.167 312.762,191.637 312.600 C 189.313 311.890,182.809 303.992,182.798 301.867 C 182.796 301.610,182.495 300.860,182.129 300.200 C 181.614 299.274,181.400 297.402,181.191 292.000 C 180.907 284.670,180.597 283.409,178.519 281.109 C 177.560 280.048,174.259 278.400,173.093 278.400 C 172.580 278.400,171.944 278.184,171.680 277.920 C 171.359 277.599,171.200 277.585,171.200 277.877 " stroke="none" fill="#7e8489" fill-rule="evenodd"></path></g></svg>