<svg id="svg" version="1.1" xmlns="http://www.w3.org/2000/svg" xmlns:xlink="http://www.w3.org/1999/xlink" width="400" height="400" viewBox="0, 0, 400,400"><g id="svgg"><path id="path0" d="M134.953 35.338 C 131.115 36.320,129.382 37.804,113.442 53.757 C 94.315 72.901,94.070 73.296,95.197 83.173 C 95.873 89.103,92.292 85.206,151.840 144.809 C 196.662 189.672,206.000 199.202,206.000 200.084 C 206.000 200.966,196.678 210.476,151.900 255.278 C 110.604 296.595,97.536 309.898,96.684 311.486 C 94.477 315.602,94.450 324.144,96.631 328.473 C 97.831 330.854,125.461 359.056,129.674 362.200 C 134.869 366.077,144.688 366.294,149.922 362.649 C 153.305 360.292,302.619 210.260,303.572 208.259 C 305.573 204.060,305.549 195.901,303.525 191.649 C 301.872 188.178,151.776 38.348,148.140 36.540 C 144.797 34.878,138.867 34.337,134.953 35.338 M143.254 52.262 C 145.328 52.903,147.770 55.293,216.082 123.562 C 292.845 200.277,288.400 195.570,288.400 200.155 C 288.400 204.734,292.434 200.457,216.445 276.450 C 138.690 354.210,144.544 348.753,139.393 348.272 C 135.521 347.911,135.009 347.517,123.767 336.253 C 112.853 325.319,112.102 324.346,111.721 320.657 C 111.237 315.971,107.476 320.061,168.801 258.600 C 205.196 222.124,224.456 202.546,224.796 201.679 C 226.049 198.485,229.219 201.898,168.828 141.400 C 110.718 83.187,112.138 84.699,111.713 80.574 C 111.295 76.528,112.490 74.856,123.878 63.551 C 136.219 51.300,137.576 50.510,143.254 52.262 M97.076 80.700 C 96.975 81.085,96.893 80.770,96.893 80.000 C 96.893 79.230,96.975 78.915,97.076 79.300 C 97.176 79.685,97.176 80.315,97.076 80.700 M298.225 188.900 L 299.400 190.200 298.100 189.025 C 297.385 188.379,296.800 187.794,296.800 187.725 C 296.800 187.416,297.130 187.688,298.225 188.900 M303.076 200.700 C 302.975 201.085,302.893 200.770,302.893 200.000 C 302.893 199.230,302.975 198.915,303.076 199.300 C 303.176 199.685,303.176 200.315,303.076 200.700 M97.076 320.700 C 96.975 321.085,96.893 320.770,96.893 320.000 C 96.893 319.230,96.975 318.915,97.076 319.300 C 97.176 319.685,97.176 320.315,97.076 320.700 M141.100 363.087 C 140.495 363.178,139.505 363.178,138.900 363.087 C 138.295 362.995,138.790 362.920,140.000 362.920 C 141.210 362.920,141.705 362.995,141.100 363.087 " stroke="none" fill="#1e262d" fill-rule="evenodd"></path><path id="path1" d="M138.200 56.088 C 135.988 56.867,133.448 59.081,125.379 67.265 C 115.659 77.124,114.556 79.153,116.645 83.328 C 116.995 84.028,142.166 109.530,172.579 140.000 C 230.320 197.848,229.351 196.818,229.298 200.285 C 229.254 203.203,228.836 203.643,172.403 260.200 C 114.604 318.125,115.811 316.839,115.945 320.365 C 116.051 323.174,117.309 324.780,126.689 334.085 C 137.514 344.822,138.661 345.481,143.002 343.460 C 146.031 342.049,282.022 206.091,283.431 203.064 C 284.598 200.557,284.623 199.537,283.574 197.200 C 282.623 195.081,146.562 58.624,143.800 57.019 C 141.825 55.872,139.779 55.531,138.200 56.088 M143.244 59.731 C 145.392 61.207,279.947 195.937,280.671 197.337 C 281.633 199.198,281.405 201.855,280.142 203.511 C 277.641 206.791,143.741 340.129,142.279 340.796 C 138.828 342.372,137.446 341.537,128.138 332.247 C 117.955 322.083,117.136 320.475,120.044 316.360 C 120.728 315.392,145.830 290.030,175.826 260.000 C 233.837 201.923,231.982 203.904,231.982 200.000 C 231.982 196.099,233.863 198.106,175.223 139.400 C 144.897 109.040,119.796 83.624,119.443 82.920 C 117.529 79.107,118.867 76.795,128.456 67.345 C 137.588 58.345,139.667 57.274,143.244 59.731 M154.885 84.305 C 152.283 85.172,154.099 87.200,185.656 118.680 C 212.160 145.119,213.990 146.770,215.435 145.571 C 217.208 144.099,217.065 143.938,188.544 115.400 C 155.857 82.694,156.881 83.640,154.885 84.305 M242.885 172.305 C 240.738 173.021,246.074 180.183,249.814 181.605 C 251.327 182.181,252.222 181.349,251.826 179.734 C 251.207 177.204,244.616 171.728,242.885 172.305 M199.281 268.100 C 175.227 292.135,155.288 312.286,154.973 312.880 C 153.680 315.317,154.625 316.415,157.122 315.378 C 159.088 314.562,244.851 228.793,245.587 226.907 C 246.277 225.138,245.904 224.400,244.320 224.400 C 243.122 224.400,239.442 227.971,199.281 268.100 " stroke="none" fill="#408474" fill-rule="evenodd"></path><path id="path2" d="M132.110 71.700 C 125.500 78.266,124.896 79.110,125.382 81.100 C 125.566 81.851,143.004 99.574,180.386 137.000 C 240.370 197.054,237.127 193.542,237.512 198.881 C 238.028 206.053,241.428 202.221,179.730 264.012 C 118.547 325.287,123.818 319.411,126.758 323.064 C 128.483 325.207,135.943 332.584,137.754 333.938 C 139.815 335.478,141.225 335.123,144.250 332.300 C 149.435 327.463,150.000 326.088,147.802 323.655 C 144.811 320.344,144.370 316.604,146.470 312.364 C 148.183 308.906,238.811 218.060,242.200 216.405 C 246.403 214.351,250.347 214.849,253.701 217.855 C 256.156 220.055,257.024 219.685,262.442 214.135 C 268.076 208.364,268.145 208.075,264.414 205.808 C 259.962 203.104,257.989 200.249,257.006 195.094 C 256.350 191.652,256.422 191.719,252.596 190.987 C 248.215 190.148,246.561 189.056,240.573 183.046 C 232.327 174.770,230.892 169.157,235.805 164.395 C 238.135 162.136,237.529 160.757,231.744 155.157 C 226.559 150.138,226.201 150.018,223.505 152.392 C 220.241 155.264,216.555 155.732,212.486 153.789 C 209.268 152.252,147.854 90.959,146.374 87.806 C 144.431 83.668,145.002 79.112,147.805 76.395 C 149.939 74.327,149.677 73.297,146.041 69.454 C 140.472 63.566,140.266 63.600,132.110 71.700 " stroke="none" fill="#54bca4" fill-rule="evenodd"></path><path id="path3" d="M137.178 61.947 C 134.719 63.533,121.865 76.706,121.228 78.293 C 119.922 81.544,116.289 77.624,176.376 137.800 C 237.769 199.283,234.336 195.542,233.924 200.512 C 233.542 205.112,235.986 202.489,176.803 261.800 C 141.418 297.262,121.541 317.462,121.215 318.293 C 120.120 321.088,120.669 321.971,128.335 329.740 C 140.365 341.933,139.899 341.882,149.600 332.065 C 158.641 322.915,159.702 320.717,155.240 320.370 C 150.502 320.002,148.991 317.685,150.826 313.600 C 151.893 311.226,239.892 222.985,243.000 221.173 C 247.219 218.714,250.400 220.513,250.400 225.360 C 250.400 228.600,250.923 228.758,254.277 226.531 C 258.777 223.545,277.804 204.019,278.821 201.345 C 279.763 198.867,276.618 194.666,273.180 193.808 L 272.161 193.554 272.180 196.810 C 272.211 201.856,269.351 203.550,265.269 200.903 C 259.555 197.199,261.840 190.973,268.603 191.818 L 270.816 192.094 270.389 190.971 C 269.186 187.806,263.660 181.689,259.783 179.230 C 256.830 177.357,256.400 177.508,256.400 180.420 C 256.400 188.017,251.176 188.009,243.626 180.401 C 235.937 172.652,236.169 167.600,244.214 167.600 C 248.115 167.600,246.035 164.533,234.135 152.741 C 222.707 141.417,220.400 140.020,220.400 144.426 C 220.400 149.439,217.676 151.230,213.226 149.144 C 210.605 147.914,152.160 89.429,150.882 86.756 C 148.780 82.361,150.827 79.600,156.187 79.600 C 157.404 79.600,158.398 79.465,158.396 79.300 C 158.380 77.963,155.015 73.722,149.687 68.320 C 141.783 60.306,140.631 59.720,137.178 61.947 M142.640 66.354 C 144.367 67.630,147.520 70.855,148.541 72.389 C 149.534 73.879,149.345 74.902,147.805 76.395 C 145.002 79.112,144.431 83.668,146.374 87.806 C 147.854 90.959,209.268 152.252,212.486 153.789 C 216.555 155.732,220.241 155.264,223.505 152.392 C 226.201 150.018,226.559 150.138,231.744 155.157 C 237.529 160.757,238.135 162.136,235.805 164.395 C 230.892 169.157,232.327 174.770,240.573 183.046 C 246.561 189.056,248.215 190.148,252.596 190.987 C 256.422 191.719,256.350 191.652,257.006 195.094 C 257.989 200.249,259.962 203.104,264.414 205.808 C 268.145 208.075,268.076 208.364,262.442 214.135 C 257.024 219.685,256.156 220.055,253.701 217.855 C 250.347 214.849,246.403 214.351,242.200 216.405 C 238.811 218.060,148.183 308.906,146.470 312.364 C 144.370 316.604,144.811 320.344,147.802 323.655 C 150.000 326.088,149.435 327.463,144.250 332.300 C 141.225 335.123,139.815 335.478,137.754 333.938 C 135.943 332.584,128.483 325.207,126.758 323.064 C 123.818 319.411,118.547 325.287,179.730 264.012 C 241.428 202.221,238.028 206.053,237.512 198.881 C 237.127 193.542,240.370 197.054,180.386 137.000 C 143.004 99.574,125.566 81.851,125.382 81.100 C 124.896 79.110,125.500 78.266,132.110 71.700 C 139.457 64.403,139.780 64.239,142.640 66.354 " stroke="none" fill="#4cb298" fill-rule="evenodd"></path><path id="path4" d="M136.360 60.045 C 129.833 64.660,118.800 77.113,118.800 79.864 C 118.800 82.912,118.826 82.939,175.223 139.400 C 233.863 198.106,231.982 196.099,231.982 200.000 C 231.982 203.904,233.837 201.923,175.826 260.000 C 145.830 290.030,120.728 315.392,120.044 316.360 C 117.136 320.475,117.955 322.083,128.138 332.247 C 137.446 341.537,138.828 342.372,142.279 340.796 C 143.741 340.129,277.641 206.791,280.142 203.511 C 281.405 201.855,281.633 199.198,280.671 197.337 C 279.947 195.937,145.392 61.207,143.244 59.731 C 141.207 58.332,138.615 58.450,136.360 60.045 M142.186 61.420 C 145.316 62.905,158.371 77.306,158.396 79.300 C 158.398 79.465,157.404 79.600,156.187 79.600 C 150.827 79.600,148.780 82.361,150.882 86.756 C 152.160 89.429,210.605 147.914,213.226 149.144 C 217.676 151.230,220.400 149.439,220.400 144.426 C 220.400 140.020,222.707 141.417,234.135 152.741 C 246.035 164.533,248.115 167.600,244.214 167.600 C 236.169 167.600,235.937 172.652,243.626 180.401 C 251.176 188.009,256.400 188.017,256.400 180.420 C 256.400 177.508,256.830 177.357,259.783 179.230 C 263.660 181.689,269.186 187.806,270.389 190.971 L 270.816 192.094 268.603 191.818 C 261.840 190.973,259.555 197.199,265.269 200.903 C 269.351 203.550,272.211 201.856,272.180 196.810 L 272.161 193.554 273.180 193.808 C 276.618 194.666,279.763 198.867,278.821 201.345 C 277.804 204.019,258.777 223.545,254.277 226.531 C 250.923 228.758,250.400 228.600,250.400 225.360 C 250.400 220.513,247.219 218.714,243.000 221.173 C 239.892 222.985,151.893 311.226,150.826 313.600 C 148.991 317.685,150.502 320.002,155.240 320.370 C 159.702 320.717,158.641 322.915,149.600 332.065 C 139.899 341.882,140.365 341.933,128.335 329.740 C 120.669 321.971,120.120 321.088,121.215 318.293 C 121.541 317.462,141.418 297.262,176.803 261.800 C 235.986 202.489,233.542 205.112,233.924 200.512 C 234.336 195.542,237.769 199.283,176.376 137.800 C 116.289 77.624,119.922 81.544,121.228 78.293 C 121.865 76.706,134.719 63.533,137.178 61.947 C 139.194 60.647,140.309 60.530,142.186 61.420 M159.924 86.955 C 165.531 92.157,214.567 141.465,215.262 142.600 C 216.765 145.055,215.816 146.435,213.335 145.399 C 211.751 144.738,162.301 95.831,156.956 89.639 C 152.106 84.020,154.463 81.889,159.924 86.955 M248.474 175.566 C 251.701 178.750,252.561 180.411,251.521 181.450 C 250.375 182.596,247.655 180.873,244.300 176.878 C 239.755 171.464,243.216 170.377,248.474 175.566 M245.858 225.007 C 245.986 225.341,245.864 226.196,245.587 226.907 C 244.851 228.793,159.088 314.562,157.122 315.378 C 154.625 316.415,153.680 315.317,154.973 312.880 C 156.461 310.074,242.976 224.400,244.320 224.400 C 245.118 224.400,245.716 224.636,245.858 225.007 " stroke="none" fill="#448c7c" fill-rule="evenodd"></path><path id="path5" d="M137.800 51.974 C 135.183 52.611,133.430 54.068,123.878 63.551 C 112.490 74.856,111.295 76.528,111.713 80.574 C 112.138 84.699,110.718 83.187,168.828 141.400 C 229.219 201.898,226.049 198.485,224.796 201.679 C 224.456 202.546,205.196 222.124,168.801 258.600 C 107.476 320.061,111.237 315.971,111.721 320.657 C 112.102 324.346,112.853 325.319,123.767 336.253 C 135.009 347.517,135.521 347.911,139.393 348.272 C 144.544 348.753,138.690 354.210,216.445 276.450 C 292.434 200.457,288.400 204.734,288.400 200.155 C 288.400 195.570,292.845 200.277,216.082 123.562 C 147.770 55.293,145.328 52.903,143.254 52.262 C 140.986 51.562,139.758 51.497,137.800 51.974 M143.800 57.019 C 146.562 58.624,282.623 195.081,283.574 197.200 C 284.623 199.537,284.598 200.557,283.431 203.064 C 282.022 206.091,146.031 342.049,143.002 343.460 C 138.661 345.481,137.514 344.822,126.689 334.085 C 117.309 324.780,116.051 323.174,115.945 320.365 C 115.811 316.839,114.604 318.125,172.403 260.200 C 228.836 203.643,229.254 203.203,229.298 200.285 C 229.351 196.818,230.320 197.848,172.579 140.000 C 142.166 109.530,116.995 84.028,116.645 83.328 C 114.556 79.153,115.659 77.124,125.379 67.265 C 137.299 55.175,138.999 54.230,143.800 57.019 M96.893 80.000 C 96.893 80.770,96.975 81.085,97.076 80.700 C 97.176 80.315,97.176 79.685,97.076 79.300 C 96.975 78.915,96.893 79.230,96.893 80.000 M296.800 187.725 C 296.800 187.794,297.385 188.379,298.100 189.025 L 299.400 190.200 298.225 188.900 C 297.130 187.688,296.800 187.416,296.800 187.725 M302.893 200.000 C 302.893 200.770,302.975 201.085,303.076 200.700 C 303.176 200.315,303.176 199.685,303.076 199.300 C 302.975 198.915,302.893 199.230,302.893 200.000 M96.893 320.000 C 96.893 320.770,96.975 321.085,97.076 320.700 C 97.176 320.315,97.176 319.685,97.076 319.300 C 96.975 318.915,96.893 319.230,96.893 320.000 M138.900 363.087 C 139.505 363.178,140.495 363.178,141.100 363.087 C 141.705 362.995,141.210 362.920,140.000 362.920 C 138.790 362.920,138.295 362.995,138.900 363.087 " stroke="none" fill="#2c4444" fill-rule="evenodd"></path><path id="path6" d="" stroke="none" fill="#54c090" fill-rule="evenodd"></path><path id="path7" d="" stroke="none" fill="#54c090" fill-rule="evenodd"></path><path id="path8" d="" stroke="none" fill="#54c090" fill-rule="evenodd"></path></g></svg>