<svg id="svg" version="1.1" xmlns="http://www.w3.org/2000/svg" xmlns:xlink="http://www.w3.org/1999/xlink" width="400" height="400" viewBox="0, 0, 400,400"><g id="svgg"><path id="path0" d="M0.000 145.000 L 0.000 290.000 14.992 290.000 L 29.983 290.000 30.092 297.900 L 30.200 305.800 34.049 305.914 L 37.898 306.028 38.116 307.647 C 38.419 309.907,37.877 309.788,48.433 309.920 L 58.000 310.040 58.000 314.620 C 58.000 318.157,57.879 319.200,57.470 319.200 C 56.916 319.200,55.200 320.829,55.200 321.354 C 55.200 321.521,54.930 321.927,54.600 322.257 C 54.112 322.745,54.000 324.178,54.000 329.949 C 54.000 337.805,54.059 338.000,56.458 338.000 L 57.956 338.000 58.078 339.900 L 58.200 341.800 62.051 341.914 L 65.902 342.028 66.158 343.626 C 66.510 345.829,67.172 346.000,75.368 346.000 L 82.284 346.000 82.656 347.300 C 83.295 349.532,84.355 349.784,93.700 349.929 L 102.000 350.058 102.000 351.400 C 102.000 353.876,102.411 354.000,110.621 354.000 L 117.985 354.000 118.216 355.100 C 118.787 357.814,119.044 357.888,128.012 357.953 L 134.625 358.000 135.077 359.199 C 135.932 361.465,138.131 362.000,146.580 362.000 L 153.895 362.000 154.114 363.633 C 154.417 365.894,154.015 365.786,162.632 365.924 L 170.400 366.048 170.400 367.375 C 170.400 369.694,170.772 369.785,180.861 369.943 L 190.000 370.086 190.000 371.414 C 190.000 373.873,190.423 374.000,198.576 374.000 L 205.895 374.000 206.114 375.633 C 206.417 377.894,206.020 377.787,214.570 377.923 L 222.276 378.046 222.838 379.323 C 223.811 381.533,224.889 381.786,233.900 381.923 L 242.000 382.046 242.000 383.394 C 242.000 385.876,242.409 386.000,250.605 386.000 L 257.953 386.000 258.289 387.698 C 258.713 389.843,258.911 389.890,267.628 389.953 L 274.256 390.000 274.828 391.300 C 275.811 393.533,276.873 393.785,285.900 393.929 L 294.000 394.059 294.000 395.401 C 294.000 397.876,294.410 398.000,302.629 398.000 L 310.000 398.000 310.000 399.000 L 310.000 400.000 326.000 400.000 L 342.000 400.000 342.000 396.872 L 342.000 393.744 343.300 393.172 C 345.533 392.190,345.786 391.124,345.922 382.150 L 346.045 374.099 347.655 373.883 C 349.889 373.584,349.786 373.960,349.924 365.569 L 350.048 358.003 351.124 357.778 C 353.821 357.213,353.889 356.969,353.953 347.700 C 353.990 342.260,354.112 340.800,354.530 340.800 C 355.084 340.800,356.800 339.171,356.800 338.646 C 356.800 338.479,357.070 338.073,357.400 337.743 C 357.891 337.252,358.000 335.774,358.000 329.624 L 358.000 322.105 359.633 321.886 C 361.894 321.583,361.786 321.985,361.924 313.368 L 362.048 305.600 363.124 305.594 C 365.606 305.580,365.958 304.249,365.983 294.770 C 366.002 287.520,366.099 287.221,368.885 285.833 C 369.784 285.385,369.802 285.247,369.908 277.738 L 370.017 270.100 371.621 269.843 C 373.832 269.489,374.000 268.835,374.000 260.574 L 374.000 253.600 374.924 253.600 C 377.514 253.600,377.959 251.842,377.983 241.500 L 378.000 234.000 379.371 234.000 C 381.877 234.000,382.000 233.599,382.000 225.428 L 382.000 218.114 383.682 217.757 C 385.856 217.296,385.910 217.076,385.960 208.558 L 386.000 201.716 387.300 201.344 C 389.532 200.705,389.784 199.645,389.929 190.300 L 390.058 182.000 391.400 182.000 C 393.875 182.000,394.000 181.587,394.000 173.395 L 394.000 166.047 395.698 165.711 C 397.850 165.286,397.891 165.111,397.953 156.100 L 398.000 149.200 399.000 149.200 L 400.000 149.200 400.000 133.600 L 400.000 118.000 399.053 118.000 C 398.247 118.000,398.073 117.756,397.886 116.367 C 397.584 114.110,397.983 114.222,389.468 114.000 L 381.800 113.800 381.677 112.530 C 381.464 110.335,381.016 110.214,372.539 110.058 C 366.795 109.952,364.800 109.789,364.800 109.427 C 364.800 108.817,363.112 107.200,362.474 107.200 C 362.121 107.200,362.000 104.518,362.000 96.651 L 362.000 86.102 363.612 85.844 C 365.865 85.484,366.000 84.894,366.000 75.403 C 366.000 66.318,365.911 66.000,363.371 66.000 C 362.050 66.000,362.000 65.944,362.000 64.480 C 362.000 62.043,361.852 62.000,353.520 62.000 L 346.000 62.000 346.000 60.629 C 346.000 58.039,345.838 58.000,335.059 58.000 L 325.375 58.000 324.923 56.801 C 324.016 54.398,322.070 54.000,311.237 54.000 L 301.741 54.000 301.371 52.500 C 300.907 50.624,299.218 50.080,293.700 50.032 L 290.000 50.000 290.000 25.000 L 290.000 0.000 145.000 0.000 L 0.000 0.000 0.000 145.000 M270.000 144.000 L 270.000 270.000 144.000 270.000 L 18.000 270.000 18.000 144.000 L 18.000 18.000 144.000 18.000 L 270.000 18.000 270.000 144.000 M30.185 30.499 C 30.081 30.775,30.041 76.630,30.098 132.400 L 30.200 233.800 144.000 233.800 L 257.800 233.800 257.800 132.000 L 257.800 30.200 144.088 30.099 C 53.328 30.019,30.337 30.100,30.185 30.499 M238.000 132.000 L 238.000 214.000 232.000 214.000 L 226.000 214.000 226.000 206.480 C 226.000 198.148,225.957 198.000,223.520 198.000 L 222.000 198.000 222.000 194.629 C 222.000 190.763,221.566 190.000,219.371 190.000 C 218.050 190.000,218.000 189.944,218.000 188.480 C 218.000 186.564,217.436 186.000,215.520 186.000 C 214.056 186.000,214.000 185.950,214.000 184.629 C 214.000 182.787,213.120 182.000,211.059 182.000 C 209.566 182.000,209.326 181.868,208.935 180.832 C 208.334 179.242,205.698 178.000,202.925 178.000 C 201.553 178.000,200.800 177.832,200.800 177.526 C 200.800 176.888,199.183 175.200,198.573 175.200 C 198.305 175.200,197.982 174.930,197.855 174.600 C 197.673 174.125,196.832 174.000,193.813 174.000 L 190.000 174.000 190.000 172.480 C 190.000 170.268,189.522 170.000,185.571 170.000 L 182.102 170.000 181.844 168.388 C 181.527 166.401,180.675 166.000,176.774 166.000 L 174.000 166.000 174.000 162.005 L 174.000 158.009 175.609 157.752 C 177.633 157.429,177.616 157.460,177.935 153.282 L 178.200 149.800 179.470 149.677 C 181.269 149.503,181.585 148.919,181.868 145.248 L 182.119 142.000 183.431 142.000 C 185.556 142.000,186.000 141.210,186.000 137.424 L 186.000 134.105 187.633 133.886 C 189.905 133.582,189.787 134.084,189.922 124.134 C 190.057 114.119,190.029 114.000,187.551 114.000 L 186.000 114.000 186.000 112.000 L 186.000 110.000 187.371 110.000 C 190.086 110.000,190.021 110.419,189.905 93.678 L 189.800 78.623 188.885 78.167 C 186.610 77.034,186.039 76.049,185.916 73.050 C 185.815 70.571,185.698 70.190,185.000 70.065 C 183.900 69.868,182.067 68.071,181.921 67.045 C 181.820 66.343,181.482 66.179,179.921 66.079 L 178.042 65.958 177.921 64.079 L 177.800 62.200 175.581 62.082 C 173.550 61.975,173.325 61.868,172.928 60.814 C 172.304 59.160,169.694 58.000,166.600 58.000 C 163.983 58.000,162.277 56.903,161.933 55.000 C 161.792 54.215,161.433 54.198,142.440 54.096 C 121.233 53.982,122.000 53.894,122.000 56.449 L 122.000 58.000 118.480 58.000 C 114.482 58.000,114.000 58.264,114.000 60.458 L 114.000 61.956 112.100 62.078 L 110.200 62.200 110.079 64.079 L 109.958 65.958 108.079 66.079 L 106.200 66.200 106.080 68.052 C 105.962 69.875,105.935 69.908,104.368 70.159 C 102.261 70.496,102.000 71.268,102.000 77.173 L 102.000 81.895 100.367 82.114 C 98.070 82.422,98.200 81.591,98.200 96.000 C 98.200 110.409,98.070 109.578,100.367 109.886 L 102.000 110.105 102.000 112.002 L 102.000 113.898 100.388 114.156 C 98.135 114.516,98.000 115.106,98.000 124.597 C 98.000 133.682,98.089 134.000,100.629 134.000 L 102.000 134.000 102.000 137.520 C 102.000 141.525,102.263 142.000,104.480 142.000 L 106.000 142.000 106.000 145.371 C 106.000 149.222,106.435 150.000,108.589 150.000 L 109.920 150.000 110.060 153.567 C 110.220 157.651,110.190 157.594,112.367 157.886 L 114.000 158.105 114.000 162.031 L 114.000 165.956 112.100 166.078 L 110.200 166.200 110.080 168.056 L 109.960 169.913 105.680 170.072 C 100.686 170.257,99.199 170.806,98.667 172.663 L 98.305 173.926 94.585 174.063 C 90.337 174.219,90.407 174.184,90.114 176.367 L 89.895 178.000 86.576 178.000 C 82.768 178.000,82.000 178.441,82.000 180.629 C 82.000 181.973,81.966 182.000,80.300 182.017 C 75.999 182.061,74.418 182.821,74.406 184.848 C 74.401 185.794,74.223 185.916,72.580 186.101 C 70.372 186.350,70.447 186.280,70.080 188.445 C 69.808 190.046,69.672 190.211,68.521 190.323 C 66.731 190.498,66.415 191.085,66.132 194.752 L 65.881 198.000 64.569 198.000 C 62.127 198.000,62.000 198.426,62.000 206.629 L 62.000 214.000 56.000 214.000 L 50.000 214.000 50.000 132.000 L 50.000 50.000 144.000 50.000 L 238.000 50.000 238.000 132.000 M294.629 75.500 C 295.167 77.676,296.563 77.929,308.243 77.968 L 317.886 78.000 318.243 79.682 C 318.714 81.902,318.766 81.912,329.547 81.960 L 338.493 82.000 338.252 82.900 C 338.119 83.395,338.008 88.036,338.005 93.212 L 338.000 102.625 336.801 103.077 C 334.395 103.985,334.000 105.924,334.000 116.833 C 334.000 126.235,333.986 126.400,333.174 126.400 C 330.412 126.400,330.281 126.942,330.023 139.400 L 329.800 150.200 328.530 150.323 C 326.243 150.545,326.212 150.699,326.068 162.811 L 325.935 173.900 324.285 174.250 C 322.077 174.718,322.087 174.663,322.040 187.247 L 322.000 197.895 320.367 198.114 C 318.085 198.420,318.212 197.798,318.081 209.331 L 317.961 219.797 316.906 220.898 C 316.325 221.504,315.620 222.000,315.339 222.000 C 314.205 222.000,314.000 223.699,314.000 233.086 L 314.000 242.625 312.801 243.077 C 310.395 243.985,310.000 245.924,310.000 256.833 C 310.000 266.235,309.986 266.400,309.174 266.400 C 306.412 266.400,306.281 266.942,306.023 279.400 L 305.800 290.200 304.530 290.323 C 302.243 290.545,302.212 290.699,302.068 302.811 L 301.935 313.900 300.285 314.250 C 298.218 314.688,298.092 315.090,298.040 321.400 L 298.001 326.200 288.005 326.087 L 278.009 325.973 277.780 324.887 C 277.192 322.083,277.307 322.107,264.353 322.047 L 254.105 322.000 253.886 320.367 C 253.580 318.085,254.202 318.212,242.669 318.081 L 232.203 317.961 231.102 316.906 C 230.496 316.325,230.000 315.620,230.000 315.339 C 230.000 314.200,228.300 314.000,218.626 314.000 C 211.317 314.000,208.800 313.879,208.800 313.526 C 208.800 312.960,207.212 311.200,206.702 311.200 C 206.504 311.200,206.073 310.930,205.743 310.600 C 205.243 310.100,203.532 310.000,195.444 310.000 L 185.744 310.000 185.172 308.700 C 184.150 306.377,183.323 306.214,171.900 306.075 L 161.600 305.951 161.600 304.624 C 161.600 302.253,161.408 302.214,149.137 302.063 L 137.996 301.925 137.774 300.863 C 137.194 298.087,137.290 298.107,124.351 298.047 L 114.102 298.000 113.844 296.388 C 113.476 294.081,113.031 294.000,100.774 294.000 L 90.000 294.000 89.995 293.100 C 89.985 291.551,89.543 290.450,88.859 290.268 C 88.497 290.172,130.421 290.072,182.025 290.046 L 275.850 290.000 276.925 291.122 C 277.516 291.739,278.000 292.453,278.000 292.708 C 278.000 294.084,288.443 294.699,289.743 293.400 C 290.073 293.070,290.479 292.800,290.646 292.800 C 291.153 292.800,292.800 291.093,292.800 290.568 C 292.800 290.281,293.626 289.962,294.780 289.803 C 297.810 289.386,297.783 289.479,297.932 279.185 L 298.064 270.092 299.645 269.839 C 301.913 269.477,302.000 268.995,302.000 256.827 L 302.000 246.105 303.633 245.886 C 305.913 245.581,305.788 246.178,305.919 234.967 C 306.004 227.707,306.169 224.800,306.493 224.800 C 307.045 224.800,308.800 223.203,308.800 222.702 C 308.800 222.504,309.070 222.073,309.400 221.743 C 309.900 221.242,310.000 219.530,310.000 211.429 L 310.000 201.716 311.300 201.344 C 313.619 200.680,313.785 199.840,313.924 188.100 L 314.048 177.600 315.375 177.600 C 317.746 177.600,317.786 177.403,317.937 165.188 L 318.074 154.098 319.719 153.749 C 321.922 153.282,321.913 153.333,321.960 140.753 L 322.000 130.105 323.633 129.886 C 325.915 129.580,325.788 130.202,325.919 118.669 L 326.039 108.203 327.094 107.102 C 327.675 106.496,328.380 106.000,328.661 106.000 C 329.652 106.000,330.000 104.404,330.000 99.855 C 330.000 94.668,329.703 94.000,327.393 94.000 C 326.067 94.000,326.042 93.967,325.922 92.100 L 325.800 90.200 323.900 90.078 L 322.000 89.956 322.000 88.458 C 322.000 85.963,322.186 86.000,309.520 86.000 L 298.000 86.000 298.000 84.800 C 298.000 82.669,296.853 82.000,293.200 82.000 L 290.000 82.000 290.000 78.000 L 290.000 74.000 292.129 74.000 C 294.258 74.000,294.259 74.001,294.629 75.500 M154.000 79.520 C 154.000 81.737,154.475 82.000,158.480 82.000 L 162.000 82.000 162.000 83.520 C 162.000 85.436,162.564 86.000,164.480 86.000 L 166.000 86.000 166.000 95.947 L 166.000 105.895 164.367 106.114 C 162.094 106.419,162.206 105.935,162.147 115.735 C 162.119 120.611,162.074 124.973,162.047 125.428 C 162.017 125.953,161.525 126.465,160.700 126.828 C 158.762 127.681,158.224 129.167,158.066 134.100 L 157.929 138.400 156.865 138.406 C 154.819 138.418,154.062 139.987,154.017 144.300 L 154.000 146.000 152.449 146.000 C 149.869 146.000,149.925 145.629,150.069 161.717 C 150.213 177.747,150.189 177.600,152.649 177.600 C 153.974 177.600,154.000 177.633,154.000 179.320 C 154.000 181.436,154.522 182.000,156.480 182.000 C 157.979 182.000,158.000 182.022,158.000 183.551 C 158.000 185.415,158.501 185.899,160.605 186.070 C 162.072 186.190,162.210 186.302,162.323 187.470 C 162.499 189.286,163.105 189.604,166.904 189.872 L 170.286 190.111 170.643 191.544 C 171.105 193.398,172.731 193.927,178.100 193.969 L 182.000 194.000 182.000 195.371 C 182.000 197.566,182.763 198.000,186.629 198.000 L 190.000 198.000 190.000 199.371 C 190.000 201.213,190.880 202.000,192.941 202.000 C 194.452 202.000,194.672 202.126,195.087 203.225 C 195.380 204.002,195.998 204.620,196.775 204.913 C 197.449 205.167,198.000 205.516,198.000 205.688 C 198.000 205.859,198.416 206.000,198.925 206.000 C 200.847 206.000,202.000 207.921,202.000 211.122 L 202.000 214.000 144.000 214.000 L 86.000 214.000 86.000 211.800 C 86.000 209.720,86.055 209.600,87.000 209.600 C 88.284 209.600,89.600 208.284,89.600 207.000 C 89.600 206.207,89.802 206.000,90.574 206.000 C 92.637 206.000,93.572 205.317,93.844 203.612 C 94.100 202.012,94.116 202.000,95.864 202.000 C 97.060 202.000,97.699 201.808,97.855 201.400 C 97.982 201.070,98.280 200.800,98.517 200.800 C 99.143 200.800,100.800 199.153,100.800 198.530 C 100.800 198.140,101.616 197.988,103.900 197.953 C 108.835 197.877,109.317 197.690,109.711 195.698 L 110.047 194.000 113.544 194.000 C 117.524 194.000,118.000 193.735,118.000 191.520 L 118.000 190.000 121.520 190.000 C 125.518 190.000,126.000 189.736,126.000 187.542 L 126.000 186.044 127.900 185.922 L 129.800 185.800 129.921 183.921 L 130.042 182.042 131.921 181.921 L 133.800 181.800 133.920 179.948 C 134.038 178.125,134.065 178.092,135.632 177.841 C 137.968 177.468,138.000 177.246,138.000 161.403 C 138.000 145.710,138.049 146.000,135.393 146.000 C 134.067 146.000,134.042 145.967,133.922 144.100 L 133.800 142.200 131.900 142.078 L 130.000 141.956 130.000 136.607 C 130.000 130.600,129.763 130.000,127.393 130.000 C 126.067 130.000,126.042 129.967,125.922 128.100 C 125.801 126.217,125.786 126.198,124.200 125.957 C 123.112 125.791,122.936 125.695,123.651 125.657 C 125.631 125.550,125.789 124.910,125.932 116.439 C 126.087 107.206,125.933 106.527,123.612 106.156 L 122.000 105.898 122.000 97.749 L 122.000 89.600 123.351 89.600 C 125.211 89.600,125.527 89.051,125.842 85.278 L 126.115 82.000 127.578 82.000 C 129.436 82.000,130.000 81.422,130.000 79.520 L 130.000 78.000 142.000 78.000 L 154.000 78.000 154.000 79.520 M294.156 107.612 C 294.473 109.599,295.325 110.000,299.226 110.000 L 302.000 110.000 302.000 116.128 L 302.000 122.256 300.700 122.828 C 298.377 123.850,298.214 124.677,298.075 136.100 L 297.951 146.400 296.837 146.400 C 294.329 146.400,294.214 146.924,294.067 159.042 L 293.933 170.002 292.867 170.225 C 291.152 170.583,290.616 171.012,290.347 172.243 C 290.208 172.879,290.073 158.235,290.047 139.700 L 290.000 106.000 291.949 106.000 L 293.898 106.000 294.156 107.612 M358.831 133.628 C 359.144 133.826,362.659 133.991,366.643 133.994 L 373.886 134.000 374.245 135.699 C 374.580 137.287,374.713 137.420,376.301 137.755 L 378.000 138.114 378.000 140.004 L 378.000 141.895 376.367 142.114 C 374.110 142.416,374.222 142.017,374.000 150.532 L 373.800 158.200 372.530 158.323 C 370.335 158.536,370.214 158.984,370.058 167.461 C 369.962 172.646,369.773 175.200,369.483 175.200 C 368.950 175.200,367.200 176.808,367.200 177.298 C 367.200 177.496,366.930 177.927,366.600 178.257 C 366.109 178.748,366.000 180.226,366.000 186.376 L 366.000 193.895 364.367 194.114 C 362.106 194.417,362.214 194.015,362.076 202.632 L 361.952 210.400 360.876 210.406 C 358.394 210.420,358.042 211.751,358.017 221.230 C 357.998 228.480,357.901 228.779,355.115 230.167 C 354.216 230.615,354.198 230.753,354.092 238.262 L 353.983 245.900 352.379 246.157 C 350.168 246.511,350.000 247.165,350.000 255.426 L 350.000 262.400 349.076 262.400 C 346.548 262.400,346.042 264.224,346.017 273.430 C 345.998 280.455,345.889 280.785,343.115 282.167 C 342.216 282.615,342.198 282.753,342.092 290.262 L 341.983 297.900 340.379 298.157 C 338.170 298.510,338.000 299.168,338.000 307.368 L 338.000 314.284 336.700 314.656 C 334.468 315.295,334.216 316.355,334.071 325.700 L 333.942 334.000 332.600 334.000 C 330.125 334.000,330.000 334.413,330.000 342.605 L 330.000 349.953 328.302 350.289 C 326.157 350.713,326.110 350.911,326.047 359.628 L 326.000 366.256 324.700 366.828 C 322.790 367.668,322.228 369.179,322.067 373.900 L 321.927 378.000 319.987 378.000 L 318.047 378.000 317.711 376.302 C 317.285 374.145,317.127 374.109,307.900 374.047 C 302.719 374.013,300.800 373.872,300.800 373.526 C 300.800 372.960,299.212 371.200,298.702 371.200 C 298.504 371.200,298.073 370.930,297.743 370.600 C 297.252 370.109,295.768 370.000,289.571 370.000 L 282.000 370.000 282.000 368.629 C 282.000 366.112,281.624 366.000,273.171 366.000 L 265.600 366.000 265.594 364.900 C 265.580 362.391,264.271 362.042,254.775 362.017 L 248.150 362.000 247.075 360.878 C 246.484 360.261,246.000 359.470,246.000 359.121 C 246.000 358.109,245.162 358.000,237.418 358.000 L 230.102 358.000 229.844 356.388 C 229.489 354.167,228.841 354.000,220.574 354.000 L 213.600 354.000 213.600 352.862 C 213.600 350.403,212.884 350.215,202.958 350.061 L 194.000 349.923 194.000 348.590 C 194.000 346.127,193.579 346.000,185.428 346.000 L 178.114 346.000 177.757 344.318 C 177.296 342.144,177.075 342.090,168.572 342.040 L 161.744 342.000 161.172 340.700 C 160.189 338.465,159.129 338.214,150.100 338.077 L 142.000 337.954 142.000 336.606 C 142.000 334.124,141.591 334.000,133.395 334.000 L 126.047 334.000 125.711 332.302 C 125.286 330.152,125.104 330.109,116.188 330.047 L 109.375 330.000 108.923 328.801 C 108.068 326.535,105.869 326.000,97.420 326.000 L 90.105 326.000 89.886 324.367 C 89.594 322.190,89.651 322.220,85.567 322.060 L 82.000 321.920 82.019 317.860 L 82.038 313.800 82.721 315.195 C 83.917 317.642,84.621 317.786,96.049 317.924 L 106.298 318.048 106.663 319.324 C 107.319 321.612,108.193 321.785,119.837 321.929 L 130.273 322.058 130.637 323.529 C 131.166 325.673,132.598 325.929,144.292 325.968 L 153.985 326.000 154.216 327.100 C 154.809 329.919,154.684 329.893,167.643 329.953 L 177.886 330.000 178.243 331.682 C 178.720 333.928,178.631 333.913,191.300 333.960 L 202.000 334.000 202.000 335.200 C 202.000 337.930,202.319 338.000,214.800 338.000 L 226.000 338.000 226.000 339.371 C 226.000 341.978,226.098 342.000,237.554 342.000 L 247.850 342.000 248.925 343.122 C 249.516 343.739,250.000 344.453,250.000 344.708 C 250.000 345.791,251.797 346.000,261.086 346.000 L 270.625 346.000 271.077 347.199 C 271.984 349.602,273.929 350.000,284.775 350.000 L 294.284 350.000 294.656 351.300 C 295.307 353.572,296.323 353.800,305.800 353.800 C 316.587 353.800,317.928 353.151,317.981 347.908 C 317.998 346.172,318.091 345.996,319.100 345.784 C 321.533 345.272,321.867 344.606,321.953 340.100 C 321.997 337.769,322.062 337.600,322.924 337.600 C 325.443 337.600,325.977 335.772,325.990 327.100 C 325.997 322.515,326.129 320.800,326.474 320.800 C 327.040 320.800,328.800 319.212,328.800 318.702 C 328.800 318.504,329.070 318.073,329.400 317.743 C 329.891 317.252,330.000 315.768,330.000 309.571 L 330.000 302.000 331.200 302.000 C 333.768 302.000,334.000 301.254,334.000 293.000 L 334.000 285.600 334.924 285.600 C 337.514 285.600,337.959 283.842,337.983 273.500 L 338.000 266.000 339.371 266.000 C 341.877 266.000,342.000 265.599,342.000 257.428 L 342.000 250.114 343.682 249.757 C 345.856 249.296,345.910 249.075,345.960 240.572 L 346.000 233.744 347.300 233.172 C 349.535 232.189,349.786 231.129,349.923 222.100 L 350.046 214.000 351.394 214.000 C 353.877 214.000,354.000 213.592,354.000 205.379 L 354.000 198.015 355.100 197.784 C 357.825 197.210,357.889 196.983,357.953 187.700 C 357.987 182.673,358.129 180.800,358.474 180.800 C 359.040 180.800,360.800 179.212,360.800 178.702 C 360.800 178.504,361.070 178.073,361.400 177.743 C 361.891 177.252,362.000 175.774,362.000 169.624 L 362.000 162.105 363.633 161.886 C 365.907 161.581,365.800 162.049,365.800 152.426 C 365.800 142.430,365.862 142.622,362.488 142.210 C 360.056 141.914,358.000 140.520,358.000 139.168 C 358.000 138.350,357.211 138.000,355.367 138.000 L 354.000 138.000 354.000 135.800 L 354.000 133.600 355.320 133.600 C 357.000 133.600,357.587 133.000,357.650 131.220 C 357.699 129.829,357.706 129.836,357.981 131.534 C 358.136 132.488,358.519 133.430,358.831 133.628 " stroke="none" fill="#040404" fill-rule="evenodd"></path><path id="path1" d="" stroke="none" fill="#080404" fill-rule="evenodd"></path><path id="path2" d="" stroke="none" fill="#080404" fill-rule="evenodd"></path><path id="path3" d="" stroke="none" fill="#080404" fill-rule="evenodd"></path><path id="path4" d="" stroke="none" fill="#080404" fill-rule="evenodd"></path></g></svg>