<svg id="svg" version="1.1" xmlns="http://www.w3.org/2000/svg" xmlns:xlink="http://www.w3.org/1999/xlink" width="400" height="400" viewBox="0, 0, 400,400"><g id="svgg"><path id="path0" d="M186.400 28.283 C 172.867 30.643,153.454 40.123,142.827 49.560 C 128.552 62.238,119.438 85.984,123.018 101.173 C 125.037 109.738,128.832 109.450,135.363 100.238 C 139.163 94.876,140.770 93.176,145.161 89.869 C 148.671 87.224,156.967 82.643,159.000 82.225 C 160.524 81.912,163.368 80.774,165.180 79.753 C 174.364 74.575,179.417 74.216,186.102 78.264 C 189.850 80.534,190.023 80.591,195.200 81.254 C 200.415 81.922,203.355 81.575,206.630 79.905 C 208.154 79.129,210.480 78.086,211.800 77.588 C 213.120 77.089,215.130 76.164,216.266 75.531 C 223.714 71.383,229.815 72.129,235.000 77.821 C 235.704 78.593,240.702 82.400,241.013 82.400 C 241.177 82.400,241.512 82.646,241.756 82.946 C 242.354 83.681,248.818 89.359,251.800 91.770 C 264.685 102.184,267.127 87.362,255.751 67.800 C 251.093 59.791,245.367 55.924,230.993 51.081 C 217.770 46.625,214.999 44.921,213.215 40.146 C 211.253 34.894,210.181 34.095,204.463 33.622 C 199.935 33.248,199.375 33.053,195.973 30.681 C 192.502 28.261,190.051 27.647,186.400 28.283 M189.581 33.200 C 190.237 33.200,191.915 33.991,193.649 35.118 C 197.272 37.472,198.166 37.836,202.158 38.589 C 206.200 39.350,206.726 39.724,209.352 43.700 C 212.979 49.192,215.949 50.919,229.824 55.599 C 246.387 61.185,253.360 67.573,255.308 78.945 C 256.487 85.831,254.664 85.393,242.208 75.800 C 228.247 65.047,226.567 64.767,212.082 70.767 C 198.564 76.367,196.031 76.551,187.963 72.520 C 179.822 68.452,177.109 68.439,167.010 72.418 C 150.052 79.100,142.422 83.525,135.400 90.750 C 129.619 96.699,127.600 96.522,127.600 90.065 C 127.600 73.027,140.222 54.299,158.791 43.785 C 166.934 39.175,185.494 32.334,187.933 33.045 C 188.226 33.130,188.968 33.200,189.581 33.200 M289.400 69.230 C 271.079 70.232,263.568 76.951,266.405 89.800 C 267.058 92.761,267.357 95.826,267.554 101.600 C 267.866 110.732,268.176 111.625,272.534 115.922 C 275.599 118.945,288.980 125.761,296.250 128.001 C 298.792 128.785,304.982 131.936,303.000 131.437 C 302.560 131.327,301.300 131.029,300.200 130.776 C 299.100 130.523,296.310 129.454,294.000 128.400 C 291.690 127.347,287.820 125.582,285.400 124.478 C 273.704 119.141,271.246 118.517,266.956 119.791 C 261.914 121.288,260.697 125.436,263.651 131.058 C 264.559 132.786,265.910 135.370,266.653 136.800 C 267.396 138.230,268.318 140.660,268.702 142.200 C 269.608 145.834,272.220 150.146,275.897 154.078 C 277.494 155.785,278.800 157.378,278.800 157.617 C 278.800 158.821,277.700 159.634,274.275 160.961 C 269.777 162.703,267.865 164.245,265.111 168.349 C 263.985 170.027,262.026 172.661,260.758 174.203 C 255.180 180.985,255.169 184.796,260.669 203.400 C 260.817 203.902,259.996 203.337,258.467 201.886 C 254.780 198.385,252.544 197.711,249.400 199.150 C 247.124 200.192,244.159 203.514,243.597 205.653 C 243.344 206.614,242.337 209.157,241.359 211.305 C 237.842 219.030,236.996 233.086,239.322 245.143 C 242.171 259.908,250.943 268.309,266.328 271.008 C 273.693 272.300,277.199 269.430,278.559 261.000 C 279.397 255.809,279.870 253.928,280.941 251.529 L 281.891 249.400 282.426 250.600 C 286.224 259.117,290.119 260.976,304.200 260.990 L 314.200 261.000 316.304 259.834 C 320.682 257.409,324.766 251.611,324.267 248.533 C 323.260 242.328,315.358 238.507,309.322 241.306 C 305.172 243.230,301.131 243.429,295.482 241.986 C 290.752 240.778,284.814 243.553,282.163 248.211 C 281.576 249.243,279.766 244.580,277.603 236.460 C 275.840 229.844,274.351 225.912,272.408 222.745 L 271.092 220.600 273.246 222.585 C 274.431 223.677,275.490 224.679,275.600 224.811 C 275.710 224.943,277.240 226.106,279.000 227.395 C 280.760 228.683,284.540 231.662,287.400 234.014 C 294.787 240.089,293.954 239.775,303.123 239.931 C 312.001 240.081,310.714 240.503,317.056 235.364 C 319.287 233.556,322.977 230.811,325.256 229.263 C 332.624 224.259,335.023 221.444,341.676 210.000 C 348.133 198.893,351.014 192.277,353.210 183.511 C 355.324 175.071,356.393 173.957,355.876 180.732 C 355.253 188.900,346.953 205.559,336.618 219.384 C 330.038 228.188,329.140 230.482,327.649 242.320 C 326.967 247.735,326.941 248.737,327.421 251.031 C 327.719 252.456,328.333 256.092,328.786 259.111 C 330.095 267.843,331.968 270.544,338.986 273.824 C 351.264 279.562,359.068 278.532,361.896 270.800 C 363.348 266.832,366.745 244.773,367.595 233.800 C 367.834 230.720,368.212 225.860,368.435 223.000 C 368.658 220.140,369.095 215.730,369.407 213.200 C 371.945 192.605,372.908 156.275,371.068 150.577 C 368.795 143.538,363.470 145.605,359.387 155.110 C 357.805 158.792,356.901 160.400,356.412 160.400 C 356.100 160.400,348.829 149.506,347.032 146.345 C 341.294 136.254,332.038 132.474,321.803 136.044 C 317.470 137.555,317.242 137.526,310.220 134.572 C 303.995 131.953,303.682 131.577,308.710 132.757 C 312.679 133.689,316.618 133.493,319.278 132.231 C 322.956 130.486,332.261 118.042,335.049 111.142 C 336.066 108.623,337.010 107.200,337.662 107.200 C 338.414 107.200,337.892 109.102,335.784 114.038 C 331.662 123.690,332.212 128.725,338.008 134.390 C 349.223 145.355,352.559 147.167,357.182 144.809 C 365.479 140.576,366.168 108.503,358.296 93.000 C 352.752 82.082,343.813 76.927,320.800 71.379 C 315.858 70.187,299.102 68.515,295.600 68.863 C 295.270 68.896,292.480 69.061,289.400 69.230 M305.878 72.022 C 325.179 73.610,344.823 80.369,351.400 87.684 C 360.089 97.349,363.966 121.418,359.167 135.913 C 356.982 142.514,353.647 143.289,348.600 138.370 C 347.280 137.084,344.409 134.539,342.219 132.716 C 335.728 127.310,335.254 125.391,338.585 118.000 C 343.540 107.006,344.173 103.053,341.336 100.821 C 337.880 98.103,335.504 100.203,331.052 109.912 C 324.469 124.270,320.241 129.334,314.833 129.333 C 311.276 129.332,298.332 124.541,284.737 118.192 C 270.311 111.456,270.727 112.031,270.614 98.625 C 270.571 93.551,270.390 87.564,270.211 85.321 C 269.836 80.616,270.140 79.430,272.312 77.132 C 276.621 72.573,289.239 70.652,305.878 72.022 M218.600 76.612 C 217.280 76.905,214.850 77.758,213.200 78.509 C 204.548 82.443,195.397 84.041,191.000 82.385 C 176.436 76.900,172.347 77.171,158.200 84.555 C 135.983 96.151,133.830 100.280,133.357 132.200 C 133.243 139.900,133.026 147.260,132.875 148.555 L 132.600 150.909 131.600 149.365 C 126.227 141.070,117.429 148.676,119.184 160.100 C 120.931 171.474,129.566 175.953,134.299 167.940 C 136.264 164.613,138.606 168.547,142.193 181.200 C 145.389 192.474,145.966 193.777,156.906 214.400 C 160.558 221.285,164.099 225.866,172.830 235.000 L 177.800 240.200 174.400 240.436 C 167.372 240.924,166.430 242.273,165.362 253.383 C 164.167 265.820,165.494 268.375,175.931 273.731 C 189.875 280.888,204.403 282.240,218.042 277.651 C 236.322 271.499,242.696 262.620,238.464 249.200 C 237.805 247.110,236.880 243.962,236.408 242.205 C 234.824 236.303,231.809 234.124,225.748 234.503 C 223.369 234.651,222.400 234.578,222.400 234.251 C 222.400 233.577,228.384 225.986,233.000 220.805 C 237.616 215.624,238.606 214.147,240.856 209.089 C 243.407 203.353,243.887 201.750,244.591 196.600 C 244.952 193.960,245.682 189.820,246.214 187.400 C 246.745 184.980,247.632 180.480,248.185 177.400 C 249.562 169.718,251.293 163.969,252.735 162.287 C 253.311 161.616,253.455 161.681,255.199 163.399 C 261.935 170.034,268.589 162.680,268.863 148.297 C 268.949 143.772,266.399 141.010,262.129 141.003 C 258.544 140.998,256.697 143.020,255.236 148.549 C 254.735 150.447,254.145 152.000,253.925 152.000 C 253.423 152.000,253.717 130.071,254.379 118.200 C 255.453 98.919,253.027 93.333,239.000 82.794 C 230.341 76.288,225.999 74.972,218.600 76.612 M229.000 80.162 C 233.948 82.397,245.579 92.256,248.563 96.744 C 253.341 103.931,253.595 111.133,250.358 147.600 C 248.478 168.779,243.728 192.901,239.208 204.226 C 225.170 239.396,192.605 251.555,170.691 229.807 C 161.862 221.045,151.871 203.107,145.733 185.000 C 138.637 164.067,136.387 153.635,135.548 137.800 C 133.845 105.617,139.059 96.278,164.893 85.241 C 174.717 81.044,177.645 80.696,183.200 83.064 C 195.058 88.120,199.130 87.977,214.027 81.976 C 222.662 78.498,224.756 78.244,229.000 80.162 M277.512 124.819 C 290.318 130.594,294.194 132.230,301.592 134.985 C 316.600 140.573,317.862 140.781,323.032 138.528 C 331.366 134.895,336.672 137.607,346.408 150.475 C 352.009 157.877,352.206 158.413,352.173 166.200 C 352.048 196.341,327.047 234.183,305.218 237.269 C 292.244 239.104,275.103 224.329,264.180 201.895 C 256.787 186.712,256.697 181.826,263.672 174.197 C 265.282 172.435,267.489 169.861,268.575 168.476 C 271.214 165.113,273.157 163.763,277.080 162.565 C 283.457 160.618,284.056 157.751,278.940 153.669 C 276.146 151.440,275.081 149.788,273.390 145.057 C 271.696 140.316,270.222 137.359,267.765 133.770 C 264.285 128.687,263.591 125.936,265.255 123.821 C 267.288 121.237,270.069 121.463,277.512 124.819 M219.352 128.749 C 214.523 129.601,213.457 133.323,217.531 135.112 C 219.966 136.181,229.567 136.073,231.068 134.960 C 235.526 131.655,227.376 127.334,219.352 128.749 M160.761 131.180 C 156.932 131.880,154.984 133.730,155.918 135.781 C 157.465 139.176,168.814 139.192,171.035 135.802 C 173.172 132.542,167.434 129.960,160.761 131.180 M61.259 137.656 C 47.155 138.674,45.166 142.849,45.756 170.200 C 46.467 203.181,54.277 219.986,77.600 238.723 C 87.619 246.772,97.329 248.989,108.941 245.880 C 124.013 241.845,138.311 224.882,141.827 206.865 C 143.278 199.432,140.781 190.419,135.925 185.563 C 133.654 183.292,121.676 177.042,116.800 175.584 C 108.970 173.243,108.089 171.718,110.727 165.082 C 112.015 161.842,112.447 160.092,112.819 156.600 C 113.077 154.180,113.721 150.760,114.249 149.000 C 117.976 136.590,117.203 135.794,104.000 138.451 C 95.693 140.122,90.001 140.182,79.200 138.711 C 70.270 137.495,66.537 137.275,61.259 137.656 M192.955 138.019 C 190.504 138.931,189.912 141.060,188.729 153.196 C 186.239 178.745,188.605 187.151,198.300 187.191 C 202.948 187.211,203.307 184.251,199.202 179.737 C 195.424 175.582,195.089 172.056,196.551 151.881 C 197.413 139.994,196.554 136.681,192.955 138.019 M79.800 142.212 C 88.205 143.685,95.280 143.760,102.014 142.446 C 111.062 140.681,111.852 141.259,110.502 148.665 C 110.027 151.269,109.455 155.100,109.231 157.177 C 108.877 160.455,108.571 161.457,106.912 164.757 C 103.111 172.317,104.585 175.351,113.378 178.068 C 118.826 179.752,131.849 186.267,133.481 188.125 C 138.033 193.310,139.945 203.428,137.652 210.200 C 130.633 230.927,116.348 243.243,99.200 243.352 C 91.044 243.404,88.479 242.447,80.312 236.304 C 58.844 220.157,50.500 203.333,49.104 173.379 C 48.302 156.150,49.104 147.369,51.747 144.461 C 55.254 140.602,65.795 139.757,79.800 142.212 M263.904 146.100 C 267.407 149.840,265.008 161.200,260.715 161.200 C 258.749 161.200,258.200 159.944,258.204 155.457 C 258.212 147.249,260.879 142.871,263.904 146.100 M127.278 150.987 C 128.810 152.519,130.784 160.003,130.794 164.318 C 130.808 170.041,126.012 170.331,123.017 164.789 C 119.429 158.149,122.970 146.679,127.278 150.987 M368.301 155.114 C 369.327 157.295,369.157 182.193,368.019 196.490 C 365.067 233.547,362.410 257.551,360.331 265.937 C 358.280 274.214,354.594 275.499,344.000 271.630 C 334.184 268.045,332.608 265.876,331.410 254.311 C 329.811 238.877,330.721 234.367,337.041 226.400 C 346.166 214.895,356.117 196.754,358.980 186.400 C 360.220 181.918,361.235 174.388,361.594 167.000 C 362.054 157.564,362.839 154.663,365.290 153.352 C 366.494 152.708,367.424 153.253,368.301 155.114 M192.872 165.628 C 192.773 174.621,192.916 175.460,195.208 179.371 C 196.975 182.388,197.098 183.458,195.659 183.300 C 191.423 182.836,189.550 175.474,190.748 164.000 C 191.832 153.622,192.995 154.513,192.872 165.628 M324.267 157.245 C 322.636 157.682,322.000 158.351,322.000 159.633 C 322.000 162.183,325.832 163.391,328.146 161.571 C 330.729 159.539,327.820 156.295,324.267 157.245 M66.073 163.247 C 58.100 164.574,54.581 170.675,59.151 175.245 C 63.549 179.643,83.157 179.018,85.683 174.400 C 89.810 166.856,79.528 161.009,66.073 163.247 M298.279 166.409 C 295.350 168.713,292.374 187.090,294.215 191.498 C 296.024 195.828,301.047 197.433,303.891 194.589 C 305.609 192.871,305.552 191.966,303.427 187.259 C 301.794 183.643,301.559 180.332,302.600 175.600 C 304.245 168.121,302.047 163.445,298.279 166.409 M79.043 167.494 C 83.726 169.958,81.892 173.623,75.566 174.441 C 65.507 175.742,58.806 172.613,62.894 168.524 C 65.163 166.255,75.443 165.599,79.043 167.494 M91.657 175.776 C 87.800 177.026,85.985 180.579,83.369 192.000 C 80.067 206.418,86.506 216.977,98.600 216.977 C 108.397 216.977,110.928 208.079,102.761 202.348 C 98.070 199.056,97.736 197.472,99.951 189.057 C 102.659 178.773,99.251 173.317,91.657 175.776 M95.978 181.178 C 97.386 182.586,97.390 184.400,95.996 190.417 C 94.019 198.951,94.438 200.687,99.412 204.570 C 104.944 208.888,103.384 213.385,96.597 212.685 C 90.012 212.005,86.176 207.017,86.227 199.200 C 86.304 187.533,91.931 177.131,95.978 181.178 M33.671 182.348 C 32.228 183.263,32.527 187.221,34.061 187.516 C 35.750 187.842,36.644 184.698,35.377 182.889 C 34.697 181.918,34.465 181.844,33.671 182.348 M299.851 186.484 C 301.970 189.973,302.055 192.537,300.056 192.729 C 297.385 192.984,295.519 189.680,296.425 186.300 C 297.266 183.164,297.854 183.196,299.851 186.484 M203.800 202.154 C 200.764 202.648,193.462 202.696,189.777 202.245 C 186.468 201.840,184.589 202.506,184.155 204.238 C 182.550 210.631,203.164 212.894,209.100 206.976 C 212.227 203.858,209.360 201.249,203.800 202.154 M254.777 205.100 C 255.592 205.925,257.310 208.400,258.594 210.600 C 261.614 215.773,264.754 220.418,268.599 225.400 C 275.568 234.431,277.648 243.947,275.787 258.280 C 274.505 268.156,271.620 270.068,262.600 267.019 C 249.399 262.556,246.234 258.448,242.555 241.000 C 240.083 229.279,240.666 223.412,245.334 213.021 C 249.592 203.544,251.586 201.871,254.777 205.100 M295.787 209.607 C 291.997 210.766,291.740 214.394,295.332 216.025 C 300.949 218.575,308.720 214.343,305.435 210.522 C 304.380 209.295,298.599 208.747,295.787 209.607 M85.572 220.300 C 79.202 223.526,80.878 231.877,88.466 234.715 C 93.833 236.724,104.064 237.001,108.893 235.270 C 122.750 230.302,117.767 216.438,103.400 219.986 C 101.064 220.563,96.923 220.477,94.400 219.800 C 90.902 218.861,88.099 219.020,85.572 220.300 M96.000 224.372 C 97.604 224.587,100.516 224.555,103.600 224.290 C 110.308 223.713,112.000 224.227,112.000 226.843 C 112.000 233.766,92.843 235.596,87.450 229.187 C 85.788 227.212,86.087 225.089,88.160 224.148 C 89.407 223.582,90.291 223.607,96.000 224.372 M230.284 237.986 C 232.322 239.228,234.302 244.681,236.682 255.600 C 238.186 262.503,234.834 267.574,225.600 272.364 C 210.248 280.329,193.308 280.196,177.203 271.985 C 168.559 267.578,166.980 265.468,167.038 258.400 C 167.153 244.204,169.761 241.415,179.365 245.214 C 192.654 250.471,205.197 249.028,220.121 240.525 C 226.244 237.037,228.006 236.597,230.284 237.986 M319.039 244.818 C 324.349 249.716,319.863 256.676,310.534 258.014 C 298.545 259.733,289.354 257.762,287.156 253.000 C 284.764 247.817,287.599 244.533,294.000 245.073 C 300.799 245.647,307.477 245.395,310.400 244.456 C 313.979 243.305,317.561 243.455,319.039 244.818 M119.465 251.242 C 118.621 251.440,116.421 252.135,114.575 252.786 C 106.975 255.469,96.359 255.960,87.639 254.032 C 78.185 251.941,77.000 253.140,77.000 264.800 C 77.000 277.108,77.950 278.254,90.065 280.567 C 99.024 282.277,101.763 282.046,119.000 278.126 C 127.758 276.133,129.348 273.008,127.829 260.765 C 126.794 252.424,124.682 250.019,119.465 251.242 M122.213 256.110 C 123.628 257.327,124.386 260.329,124.680 265.888 L 124.918 270.376 123.348 271.946 C 121.442 273.853,120.112 274.283,109.400 276.461 C 100.556 278.260,95.277 278.414,88.991 277.056 C 81.556 275.450,80.091 273.337,80.495 264.803 C 80.854 257.241,81.649 256.635,89.373 258.033 C 98.654 259.712,105.147 259.302,115.000 256.416 C 119.882 254.986,120.858 254.944,122.213 256.110 M312.200 263.220 C 309.077 264.257,302.804 264.843,296.002 264.734 C 287.565 264.597,284.800 265.667,284.800 269.067 C 284.800 273.266,288.272 275.459,296.400 276.393 C 318.027 278.877,330.631 289.143,337.817 310.128 C 342.103 322.642,345.473 324.299,356.077 319.103 C 365.833 314.322,368.895 307.727,366.245 297.200 C 363.649 286.889,359.322 283.404,341.848 277.551 C 333.199 274.654,331.046 273.455,326.831 269.188 C 321.759 264.053,316.343 261.844,312.200 263.220 M318.947 269.352 C 319.674 269.656,321.243 271.045,322.434 272.438 C 325.824 276.405,327.118 277.547,329.695 278.848 C 332.487 280.257,341.390 283.449,347.464 285.219 C 357.034 288.006,359.894 290.408,361.650 297.130 C 364.078 306.420,361.967 311.542,354.167 315.284 C 347.466 318.499,345.078 317.410,342.936 310.161 C 337.977 293.385,329.294 282.523,316.285 276.821 C 305.465 272.078,304.605 271.035,310.290 269.553 C 313.589 268.693,317.170 268.610,318.947 269.352 " stroke="none" fill="#763c37" fill-rule="evenodd"></path><path id="path1" d="M242.180 274.331 C 241.289 274.748,238.878 276.222,236.822 277.607 C 231.382 281.270,226.244 283.750,219.712 285.862 C 209.883 289.042,209.375 290.546,215.213 299.200 C 219.742 305.914,221.610 307.594,224.551 307.598 C 231.253 307.607,255.680 286.041,255.680 280.116 C 255.680 276.063,246.701 272.216,242.180 274.331 M155.296 276.966 C 144.853 281.933,145.863 287.490,158.973 297.195 C 175.569 309.479,179.083 309.297,185.862 295.800 C 189.081 289.390,188.390 288.243,179.099 284.578 C 176.734 283.645,172.144 281.379,168.900 279.544 C 161.837 275.546,159.294 275.064,155.296 276.966 M273.400 283.356 C 271.426 284.218,269.792 285.830,266.331 290.328 C 258.476 300.538,246.384 311.122,234.073 318.563 C 222.495 325.561,219.534 325.627,213.055 319.031 C 206.841 312.706,204.707 314.073,204.674 324.400 C 204.656 330.094,205.778 331.600,210.039 331.600 C 215.207 331.600,217.879 335.890,214.830 339.294 L 213.660 340.600 209.644 340.600 C 203.757 340.600,202.961 341.946,202.547 352.600 C 202.134 363.257,202.295 363.352,221.200 363.531 C 269.254 363.987,295.018 356.049,322.457 332.333 C 331.515 324.504,332.685 320.796,329.192 311.000 C 324.711 298.434,317.753 291.265,306.228 287.342 C 298.802 284.814,276.312 282.083,273.400 283.356 M116.800 289.405 C 94.857 293.987,83.227 299.133,77.454 306.813 C 72.925 312.838,73.566 317.106,79.842 322.707 C 101.172 341.744,135.080 355.886,170.200 360.393 C 189.353 362.851,188.746 363.433,190.041 341.400 C 191.339 319.316,191.172 318.671,184.800 321.188 C 179.617 323.234,176.972 322.831,169.000 318.777 C 154.821 311.567,144.670 303.757,137.575 294.600 C 131.327 286.537,130.968 286.447,116.800 289.405 M64.906 292.658 C 57.033 296.786,52.478 300.282,52.358 302.291 C 52.174 305.367,53.099 307.072,55.551 308.178 C 58.924 309.699,61.245 308.279,64.554 302.668 C 65.744 300.651,67.816 297.581,69.158 295.847 C 71.601 292.693,72.155 291.099,70.967 290.643 C 69.807 290.197,69.239 290.386,64.906 292.658 " stroke="none" fill="#97d4d5" fill-rule="evenodd"></path><path id="path2" d="M179.600 35.543 C 148.822 45.752,132.379 61.707,128.541 85.089 C 126.917 94.978,128.824 96.141,135.844 89.540 C 143.669 82.183,153.451 76.780,169.377 71.020 C 177.727 68.000,180.169 68.144,188.326 72.139 L 193.351 74.600 196.976 74.594 C 201.165 74.588,202.638 74.160,212.800 69.994 C 226.533 64.364,228.753 64.760,242.400 75.267 C 254.525 84.603,256.922 84.731,253.970 75.887 C 250.833 66.492,244.011 60.459,232.600 56.990 C 217.641 52.443,212.677 49.660,208.648 43.560 C 206.475 40.269,205.614 39.704,201.736 39.023 C 198.509 38.456,196.664 37.656,192.418 34.977 C 189.235 32.969,187.073 33.064,179.600 35.543 M284.984 73.754 C 273.627 75.608,270.640 78.942,272.039 88.200 C 272.272 89.740,272.450 94.667,272.435 99.148 C 272.405 108.271,272.570 109.013,275.121 111.253 C 277.940 113.728,303.786 125.057,311.400 127.155 C 316.942 128.682,320.003 126.778,324.654 118.909 C 326.824 115.239,327.329 114.202,330.633 106.650 C 333.672 99.701,336.157 97.288,339.845 97.704 C 346.137 98.413,346.380 104.870,340.595 117.600 C 337.150 125.178,337.499 126.604,344.160 132.176 C 346.602 134.219,349.050 136.382,349.600 136.983 C 355.555 143.491,360.014 135.561,359.487 119.400 C 358.907 101.643,353.933 89.921,344.600 84.320 C 331.636 76.541,301.080 71.125,284.984 73.754 M365.040 163.652 C 364.917 164.613,364.629 167.290,364.400 169.600 C 362.639 187.383,352.749 209.281,338.111 227.806 C 332.270 235.197,331.616 238.431,333.005 253.036 C 334.162 265.191,335.434 266.946,345.600 270.411 C 354.409 273.414,356.947 272.352,358.800 264.887 C 361.039 255.864,364.727 221.657,366.442 194.000 C 367.203 181.729,366.015 156.027,365.040 163.652 M250.880 207.072 C 249.613 207.580,244.364 218.417,243.395 222.527 C 241.937 228.712,243.180 238.904,246.794 250.400 C 249.552 259.170,251.451 260.970,262.200 265.001 C 271.358 268.436,273.236 266.924,274.427 255.160 C 275.725 242.345,273.716 234.953,266.237 225.025 C 263.741 221.711,260.311 216.750,258.615 214.000 C 254.333 207.056,253.278 206.111,250.880 207.072 " stroke="none" fill="#e48e23" fill-rule="evenodd"></path><path id="path3" d="M221.944 83.226 C 221.143 83.415,217.813 84.636,214.544 85.940 C 200.398 91.582,193.932 91.918,183.721 87.540 C 177.146 84.721,175.059 84.958,164.200 89.756 C 142.801 99.212,138.482 106.792,139.337 133.400 C 139.967 153.004,143.754 169.884,152.401 191.626 C 166.018 225.867,181.415 239.833,201.072 235.772 C 223.764 231.085,238.412 208.657,243.376 171.000 C 243.956 166.600,244.869 159.850,245.405 156.000 C 247.362 141.957,249.222 112.945,248.526 107.326 C 247.266 97.160,229.842 81.363,221.944 83.226 M231.290 125.596 C 240.964 128.870,240.159 138.618,230.096 140.043 C 216.259 142.003,205.592 136.122,209.967 128.946 C 212.673 124.509,223.193 122.856,231.290 125.596 M172.295 127.774 C 178.630 130.424,178.468 138.379,172.024 141.152 C 167.587 143.060,158.052 143.065,154.118 141.160 C 148.526 138.453,148.388 131.232,153.877 128.576 C 157.778 126.689,168.578 126.219,172.295 127.774 M271.241 127.966 C 270.333 128.541,270.951 130.666,273.186 134.646 C 274.312 136.652,275.868 140.072,276.642 142.246 C 278.565 147.643,279.537 149.159,282.321 151.113 C 290.453 156.817,289.321 163.007,279.600 165.996 C 274.928 167.433,275.278 167.154,267.600 175.578 C 261.598 182.165,261.174 183.909,263.831 191.117 C 269.662 206.944,281.293 223.082,291.995 230.197 C 306.834 240.062,324.879 227.690,340.414 197.000 C 345.774 186.412,347.144 181.561,348.004 170.130 C 348.727 160.518,348.229 158.978,341.775 150.889 C 334.185 141.377,330.753 139.743,324.110 142.483 C 319.641 144.326,315.713 144.314,310.400 142.440 C 301.637 139.349,289.785 134.701,283.913 132.053 C 275.027 128.045,272.436 127.210,271.241 127.966 M196.600 132.756 C 201.031 134.801,202.047 138.490,201.018 148.800 C 198.590 173.131,198.614 173.491,202.947 177.466 C 207.471 181.615,208.683 184.746,207.014 187.972 C 202.794 196.134,188.110 191.254,184.833 180.600 C 183.444 176.085,183.849 156.705,185.627 142.600 C 186.641 134.559,191.351 130.333,196.600 132.756 M329.644 153.016 C 335.207 154.978,336.598 161.471,332.227 165.073 C 327.750 168.764,319.552 167.647,316.913 162.988 C 313.272 156.560,321.475 150.133,329.644 153.016 M302.674 160.825 C 306.752 162.362,308.049 166.300,306.987 173.913 C 305.959 181.271,306.056 182.576,307.932 186.676 C 310.698 192.720,310.551 195.219,307.241 198.426 C 299.952 205.488,289.435 198.215,289.534 186.181 C 289.673 169.266,295.457 158.104,302.674 160.825 M212.099 198.478 C 216.593 200.959,216.816 207.092,212.527 210.247 C 200.762 218.903,176.804 213.990,178.542 203.277 C 179.328 198.436,182.645 197.362,194.400 198.141 C 197.913 198.375,199.709 198.304,202.000 197.842 C 206.001 197.035,209.933 197.282,212.099 198.478 M306.645 205.045 C 313.479 207.900,313.258 215.628,306.240 219.197 C 296.139 224.333,282.853 216.590,288.400 208.800 C 290.827 205.392,301.982 203.096,306.645 205.045 M220.302 245.153 C 205.806 252.680,193.430 254.346,181.679 250.353 C 173.073 247.428,171.811 248.064,170.849 255.806 C 170.046 262.268,171.531 264.655,178.602 268.268 C 193.582 275.921,209.163 276.161,223.257 268.954 C 233.398 263.769,234.306 261.611,231.205 250.067 C 228.809 241.151,228.380 240.958,220.302 245.153 M308.800 249.074 C 306.445 249.466,303.679 249.575,299.800 249.428 C 292.323 249.144,290.089 250.321,293.175 252.918 C 296.881 256.036,314.020 254.851,315.351 251.384 C 316.447 248.527,315.049 248.034,308.800 249.074 " stroke="none" fill="#f8bb94" fill-rule="evenodd"></path><path id="path4" d="M185.657 33.231 C 173.006 35.711,154.189 45.242,144.920 53.865 C 134.972 63.119,127.600 78.528,127.600 90.065 C 127.600 96.522,129.619 96.699,135.400 90.750 C 142.422 83.525,150.052 79.100,167.010 72.418 C 177.109 68.439,179.822 68.452,187.963 72.520 C 196.031 76.551,198.564 76.367,212.082 70.767 C 226.567 64.767,228.247 65.047,242.208 75.800 C 254.664 85.393,256.487 85.831,255.308 78.945 C 253.360 67.573,246.387 61.185,229.824 55.599 C 215.949 50.919,212.979 49.192,209.352 43.700 C 206.726 39.724,206.200 39.350,202.158 38.589 C 198.166 37.836,197.272 37.472,193.649 35.118 C 191.915 33.991,190.237 33.200,189.581 33.200 C 188.968 33.200,188.226 33.130,187.933 33.045 C 187.640 32.959,186.616 33.043,185.657 33.231 M192.418 34.977 C 196.664 37.656,198.509 38.456,201.736 39.023 C 205.614 39.704,206.475 40.269,208.648 43.560 C 212.677 49.660,217.641 52.443,232.600 56.990 C 244.011 60.459,250.833 66.492,253.970 75.887 C 256.922 84.731,254.525 84.603,242.400 75.267 C 228.753 64.760,226.533 64.364,212.800 69.994 C 202.638 74.160,201.165 74.588,196.976 74.594 L 193.351 74.600 188.326 72.139 C 180.169 68.144,177.727 68.000,169.377 71.020 C 153.451 76.780,143.669 82.183,135.844 89.540 C 128.824 96.141,126.917 94.978,128.541 85.089 C 131.905 64.591,146.590 48.258,170.000 38.974 C 183.893 33.464,188.670 32.612,192.418 34.977 M286.600 72.002 C 274.407 73.096,269.551 77.042,270.211 85.321 C 270.390 87.564,270.571 93.551,270.614 98.625 C 270.727 112.031,270.311 111.456,284.737 118.192 C 298.332 124.541,311.276 129.332,314.833 129.333 C 320.241 129.334,324.469 124.270,331.052 109.912 C 335.504 100.203,337.880 98.103,341.336 100.821 C 344.173 103.053,343.540 107.006,338.585 118.000 C 335.254 125.391,335.728 127.310,342.219 132.716 C 344.409 134.539,347.280 137.084,348.600 138.370 C 353.647 143.289,356.982 142.514,359.167 135.913 C 363.966 121.418,360.089 97.349,351.400 87.684 C 342.112 77.354,310.964 69.816,286.600 72.002 M312.600 74.365 C 340.946 79.393,351.829 85.774,356.327 100.000 C 363.173 121.651,358.596 146.814,349.600 136.983 C 349.050 136.382,346.602 134.219,344.160 132.176 C 337.499 126.604,337.150 125.178,340.595 117.600 C 346.380 104.870,346.137 98.413,339.845 97.704 C 336.157 97.288,333.672 99.701,330.633 106.650 C 327.329 114.202,326.824 115.239,324.654 118.909 C 320.003 126.778,316.942 128.682,311.400 127.155 C 303.786 125.057,277.940 113.728,275.121 111.253 C 272.570 109.013,272.405 108.271,272.435 99.148 C 272.450 94.667,272.272 89.740,272.039 88.200 C 270.640 78.942,273.627 75.608,284.984 73.754 C 290.095 72.919,306.494 73.282,312.600 74.365 M221.726 79.204 C 220.805 79.394,217.340 80.642,214.027 81.976 C 199.130 87.977,195.058 88.120,183.200 83.064 C 177.645 80.696,174.717 81.044,164.893 85.241 C 142.421 94.842,136.900 101.836,135.560 122.400 C 134.454 139.375,136.365 154.711,141.817 172.600 C 152.789 208.602,166.337 230.842,181.420 237.609 C 203.040 247.309,227.697 233.065,239.208 204.226 C 243.728 192.901,248.478 168.779,250.358 147.600 C 254.091 105.545,253.483 100.320,243.801 91.278 C 233.945 82.073,226.787 78.159,221.726 79.204 M228.200 84.225 C 237.772 88.793,247.616 99.980,248.526 107.326 C 249.222 112.945,247.362 141.957,245.405 156.000 C 244.869 159.850,243.956 166.600,243.376 171.000 C 238.412 208.657,223.764 231.085,201.072 235.772 C 181.415 239.833,166.018 225.867,152.401 191.626 C 143.754 169.884,139.967 153.004,139.337 133.400 C 138.482 106.792,142.801 99.212,164.200 89.756 C 175.059 84.958,177.146 84.721,183.721 87.540 C 193.932 91.918,200.398 91.582,214.544 85.940 C 223.243 82.470,224.256 82.343,228.200 84.225 M266.955 122.368 C 263.345 123.929,263.614 127.706,267.765 133.770 C 270.222 137.359,271.696 140.316,273.390 145.057 C 275.081 149.788,276.146 151.440,278.940 153.669 C 284.056 157.751,283.457 160.618,277.080 162.565 C 273.157 163.763,271.214 165.113,268.575 168.476 C 267.489 169.861,265.282 172.435,263.672 174.197 C 257.814 180.604,257.218 183.675,260.160 192.295 C 267.455 213.672,286.295 235.366,299.233 237.286 C 312.141 239.202,326.613 228.612,338.653 208.443 C 348.510 191.928,352.113 180.671,352.173 166.200 C 352.206 158.413,352.009 157.877,346.408 150.475 C 336.672 137.607,331.366 134.895,323.032 138.528 C 317.862 140.781,316.600 140.573,301.592 134.985 C 294.194 132.230,290.318 130.594,277.512 124.819 C 271.913 122.295,268.798 121.571,266.955 122.368 M215.200 125.035 C 207.564 127.776,206.940 135.630,214.106 138.800 C 216.488 139.853,226.139 140.604,230.096 140.043 C 240.159 138.618,240.964 128.870,231.290 125.596 C 227.664 124.369,217.995 124.032,215.200 125.035 M157.600 127.331 C 146.313 129.937,147.236 140.789,158.882 142.409 C 172.051 144.240,181.455 136.985,175.178 129.836 C 172.820 127.150,163.894 125.879,157.600 127.331 M275.226 128.409 C 276.546 128.853,280.455 130.493,283.913 132.053 C 289.785 134.701,301.637 139.349,310.400 142.440 C 315.713 144.314,319.641 144.326,324.110 142.483 C 330.753 139.743,334.185 141.377,341.775 150.889 C 348.229 158.978,348.727 160.518,348.004 170.130 C 347.144 181.561,345.774 186.412,340.414 197.000 C 324.879 227.690,306.834 240.062,291.995 230.197 C 281.293 223.082,269.662 206.944,263.831 191.117 C 261.174 183.909,261.598 182.165,267.600 175.578 C 275.278 167.154,274.928 167.433,279.600 165.996 C 289.321 163.007,290.453 156.817,282.321 151.113 C 279.537 149.159,278.565 147.643,276.642 142.246 C 275.868 140.072,274.312 136.652,273.186 134.646 C 269.514 128.106,269.992 126.645,275.226 128.409 M228.674 129.422 C 231.023 130.085,232.506 131.597,232.319 133.139 C 231.874 136.815,217.753 137.047,215.374 133.417 C 212.881 129.611,220.858 127.215,228.674 129.422 M169.761 131.921 C 171.447 132.906,171.943 134.417,171.035 135.802 C 168.067 140.333,153.803 138.462,155.918 133.819 C 157.157 131.101,166.228 129.858,169.761 131.921 M191.917 132.395 C 186.658 133.980,185.765 137.159,184.385 159.200 C 183.323 176.163,183.676 180.013,186.732 184.829 C 192.681 194.205,207.600 194.238,207.600 184.876 C 207.600 182.451,206.537 180.759,202.947 177.466 C 198.614 173.491,198.590 173.131,201.018 148.800 C 202.047 138.490,201.031 134.801,196.600 132.756 C 194.891 131.967,193.653 131.872,191.917 132.395 M195.675 138.701 C 197.036 139.867,197.221 142.646,196.551 151.881 C 195.089 172.056,195.424 175.582,199.202 179.737 C 203.307 184.251,202.948 187.211,198.300 187.191 C 194.239 187.174,190.451 184.359,188.717 180.070 C 186.588 174.801,188.608 142.786,191.285 139.383 C 192.672 137.619,194.147 137.390,195.675 138.701 M57.700 141.396 C 49.264 143.757,47.952 148.641,49.104 173.379 C 50.500 203.333,58.844 220.157,80.312 236.304 C 88.479 242.447,91.044 243.404,99.200 243.352 C 116.348 243.243,130.633 230.927,137.652 210.200 C 139.945 203.428,138.033 193.310,133.481 188.125 C 131.849 186.267,118.826 179.752,113.378 178.068 C 104.585 175.351,103.111 172.317,106.912 164.757 C 108.571 161.457,108.877 160.455,109.231 157.177 C 109.455 155.100,110.027 151.269,110.502 148.665 C 111.852 141.259,111.062 140.681,102.014 142.446 C 95.280 143.760,88.205 143.685,79.800 142.212 C 71.906 140.828,61.149 140.431,57.700 141.396 M260.068 146.205 C 258.165 148.624,257.384 158.612,258.962 160.357 C 261.623 163.301,265.600 158.146,265.600 151.753 C 265.600 146.454,262.398 143.242,260.068 146.205 M123.885 150.804 C 120.043 153.826,121.130 164.919,125.559 167.889 C 129.779 170.718,131.904 166.739,130.201 159.200 C 128.308 150.823,126.655 148.625,123.885 150.804 M321.423 152.997 C 314.044 155.625,314.393 164.694,321.953 166.794 C 329.840 168.984,336.941 163.379,334.249 157.087 C 332.584 153.196,326.400 151.224,321.423 152.997 M365.290 153.352 C 362.839 154.663,362.054 157.564,361.594 167.000 C 361.235 174.388,360.220 181.918,358.980 186.400 C 356.117 196.754,346.166 214.895,337.041 226.400 C 330.721 234.367,329.811 238.877,331.410 254.311 C 332.608 265.876,334.184 268.045,344.000 271.630 C 354.594 275.499,358.280 274.214,360.331 265.937 C 362.410 257.551,365.067 233.547,368.019 196.490 C 369.157 182.193,369.327 157.295,368.301 155.114 C 367.424 153.253,366.494 152.708,365.290 153.352 M328.300 158.121 C 330.263 159.906,328.585 162.400,325.421 162.400 C 323.383 162.400,322.000 161.281,322.000 159.633 C 322.000 157.098,326.095 156.115,328.300 158.121 M298.317 160.795 C 292.504 162.547,287.304 182.696,290.143 192.462 C 292.363 200.100,302.032 203.473,307.241 198.426 C 310.551 195.219,310.698 192.720,307.932 186.676 C 306.056 182.576,305.959 181.271,306.987 173.913 C 308.358 164.089,304.875 158.818,298.317 160.795 M366.157 167.400 C 366.791 179.928,366.868 187.138,366.442 194.000 C 364.727 221.657,361.039 255.864,358.800 264.887 C 356.947 272.352,354.409 273.414,345.600 270.411 C 335.434 266.946,334.162 265.191,333.005 253.036 C 331.616 238.431,332.270 235.197,338.111 227.806 C 352.749 209.281,362.639 187.383,364.400 169.600 C 365.323 160.284,365.769 159.725,366.157 167.400 M77.810 163.236 C 84.499 164.472,88.225 169.755,85.683 174.400 C 83.157 179.018,63.549 179.643,59.151 175.245 C 52.011 168.105,63.646 160.617,77.810 163.236 M301.382 165.848 C 303.167 166.533,303.684 170.672,302.600 175.600 C 301.559 180.332,301.794 183.643,303.427 187.259 C 306.002 192.963,305.098 196.000,300.824 196.000 C 294.169 196.000,292.405 190.753,294.631 177.571 C 296.318 167.577,298.050 164.570,301.382 165.848 M98.299 176.461 C 101.396 178.375,101.851 181.842,99.951 189.057 C 97.736 197.472,98.070 199.056,102.761 202.348 C 110.928 208.079,108.397 216.977,98.600 216.977 C 86.506 216.977,80.067 206.418,83.369 192.000 C 86.827 176.901,91.366 172.177,98.299 176.461 M202.000 197.842 C 199.709 198.304,197.913 198.375,194.400 198.141 C 182.645 197.362,179.328 198.436,178.542 203.277 C 176.575 215.398,207.867 219.288,214.639 207.765 C 218.588 201.045,211.952 195.835,202.000 197.842 M209.629 203.026 C 214.263 207.220,200.305 212.270,190.810 209.835 C 182.272 207.645,181.398 201.220,189.777 202.245 C 193.462 202.696,200.764 202.648,203.800 202.154 C 206.523 201.711,208.503 202.007,209.629 203.026 M249.638 205.121 C 247.978 206.877,242.868 217.866,241.790 222.000 C 239.957 229.024,242.737 246.766,247.147 256.200 C 249.281 260.765,254.118 264.151,262.600 267.019 C 271.620 270.068,274.505 268.156,275.787 258.280 C 277.648 243.947,275.568 234.431,268.599 225.400 C 264.754 220.418,261.614 215.773,258.594 210.600 C 254.432 203.470,252.384 202.217,249.638 205.121 M297.757 204.773 C 288.918 206.339,285.278 210.281,287.917 215.429 C 292.410 224.194,311.600 221.530,311.600 212.142 C 311.600 206.059,306.330 203.254,297.757 204.773 M254.491 207.900 C 255.064 208.505,256.919 211.250,258.615 214.000 C 260.311 216.750,263.741 221.711,266.237 225.025 C 273.716 234.953,275.725 242.345,274.427 255.160 C 273.236 266.924,271.358 268.436,262.200 265.001 C 251.451 260.970,249.552 259.170,246.794 250.400 C 240.958 231.839,241.632 221.261,249.448 208.740 C 250.880 206.447,252.811 206.125,254.491 207.900 M305.435 210.522 C 308.720 214.343,300.949 218.575,295.332 216.025 C 292.722 214.840,291.958 212.415,293.687 210.804 C 295.866 208.774,303.769 208.585,305.435 210.522 M94.400 219.800 C 96.923 220.477,101.064 220.563,103.400 219.986 C 113.119 217.586,120.289 223.651,115.795 230.472 C 110.105 239.111,86.423 238.352,82.346 229.400 C 79.312 222.738,85.875 217.512,94.400 219.800 M225.521 237.763 C 224.708 238.054,222.278 239.296,220.121 240.525 C 205.197 249.028,192.654 250.471,179.365 245.214 C 169.761 241.415,167.153 244.204,167.038 258.400 C 166.980 265.468,168.559 267.578,177.203 271.985 C 193.308 280.196,210.248 280.329,225.600 272.364 C 234.834 267.574,238.186 262.503,236.682 255.600 C 233.110 239.211,230.984 235.813,225.521 237.763 M228.022 242.812 C 229.376 243.536,231.411 249.411,232.829 256.689 C 233.768 261.506,231.075 264.956,223.257 268.954 C 209.163 276.161,193.582 275.921,178.602 268.268 C 171.531 264.655,170.046 262.268,170.849 255.806 C 171.811 248.064,173.073 247.428,181.679 250.353 C 193.430 254.346,205.806 252.680,220.302 245.153 C 225.672 242.364,226.638 242.071,228.022 242.812 M310.400 244.456 C 307.477 245.395,300.799 245.647,294.000 245.073 C 287.599 244.533,284.764 247.817,287.156 253.000 C 289.022 257.042,291.750 258.129,300.534 258.329 C 313.035 258.613,318.271 257.012,320.437 252.242 C 323.241 246.068,318.009 242.009,310.400 244.456 M314.826 248.814 C 316.339 249.623,315.714 251.724,313.651 252.768 C 306.877 256.193,291.513 254.975,292.079 251.057 C 292.303 249.504,293.754 249.198,299.800 249.428 C 303.679 249.575,306.445 249.466,308.800 249.074 C 313.185 248.344,313.891 248.314,314.826 248.814 M115.000 256.416 C 105.147 259.302,98.654 259.712,89.373 258.033 C 81.649 256.635,80.854 257.241,80.495 264.803 C 80.091 273.337,81.556 275.450,88.991 277.056 C 95.277 278.414,100.556 278.260,109.400 276.461 C 120.112 274.283,121.442 273.853,123.348 271.946 L 124.918 270.376 124.680 265.888 C 124.126 255.431,122.798 254.131,115.000 256.416 M310.290 269.553 C 304.605 271.035,305.465 272.078,316.285 276.821 C 329.294 282.523,337.977 293.385,342.936 310.161 C 345.078 317.410,347.466 318.499,354.167 315.284 C 361.967 311.542,364.078 306.420,361.650 297.130 C 359.894 290.408,357.034 288.006,347.464 285.219 C 341.390 283.449,332.487 280.257,329.695 278.848 C 327.118 277.547,325.824 276.405,322.434 272.438 C 319.195 268.648,316.351 267.972,310.290 269.553 M241.997 273.143 C 241.005 273.532,238.493 274.993,236.414 276.390 C 230.843 280.137,225.234 282.816,218.771 284.820 C 207.838 288.209,207.441 290.353,215.610 301.873 C 222.154 311.099,225.000 311.135,237.000 302.142 C 248.294 293.678,257.577 283.227,257.082 279.533 C 256.447 274.801,247.473 270.999,241.997 273.143 M250.655 274.959 C 255.320 277.068,256.609 279.486,254.971 283.055 C 253.832 285.536,242.193 296.859,236.200 301.317 C 224.396 310.096,222.428 309.897,215.213 299.200 C 209.375 290.546,209.883 289.042,219.712 285.862 C 226.244 283.750,231.382 281.270,236.822 277.607 C 243.480 273.123,245.666 272.704,250.655 274.959 M158.148 274.825 C 156.289 275.182,151.702 277.409,149.633 278.959 C 142.851 284.043,148.316 292.217,165.911 303.303 C 176.552 310.008,179.617 309.324,185.436 298.945 C 190.730 289.502,190.209 287.504,181.600 284.256 C 176.418 282.301,175.210 281.719,169.000 278.191 C 163.295 274.950,161.078 274.262,158.148 274.825 M168.900 279.544 C 172.144 281.379,176.734 283.645,179.099 284.578 C 188.390 288.243,189.081 289.390,185.862 295.800 C 179.083 309.297,175.569 309.479,158.973 297.195 C 147.779 288.908,145.413 283.319,151.366 279.223 C 157.841 274.768,160.550 274.818,168.900 279.544 M273.977 281.979 C 271.097 282.853,270.134 283.712,265.428 289.600 C 256.686 300.539,246.748 309.374,235.200 316.472 C 221.875 324.663,219.626 324.672,212.507 316.562 C 209.184 312.776,207.735 311.958,206.169 312.984 C 203.259 314.890,202.249 326.348,204.401 333.032 L 205.302 335.826 204.191 338.013 C 202.604 341.136,202.073 343.474,201.559 349.594 C 200.789 358.757,201.586 361.934,205.087 363.658 L 207.000 364.600 224.800 364.572 C 266.461 364.505,293.522 357.153,315.000 340.066 C 329.863 328.241,332.246 325.187,331.905 318.400 C 331.192 304.225,320.797 290.953,306.702 286.222 C 299.670 283.861,277.323 280.964,273.977 281.979 M288.013 284.003 C 304.573 286.219,309.416 287.624,315.962 292.115 C 326.797 299.548,334.125 318.238,329.150 325.750 C 327.089 328.861,313.208 340.503,306.522 344.729 C 285.221 358.190,259.339 363.893,221.200 363.531 C 202.295 363.352,202.134 363.257,202.547 352.600 C 202.961 341.946,203.757 340.600,209.644 340.600 L 213.660 340.600 214.830 339.294 C 217.879 335.890,215.207 331.600,210.039 331.600 C 205.778 331.600,204.656 330.094,204.674 324.400 C 204.707 314.073,206.841 312.706,213.055 319.031 C 219.534 325.627,222.495 325.561,234.073 318.563 C 246.384 311.122,258.476 300.538,266.331 290.328 C 272.739 281.999,272.833 281.971,288.013 284.003 M69.464 286.983 C 66.157 288.162,53.405 296.566,51.440 298.861 C 48.447 302.358,48.509 305.390,51.637 308.436 C 57.105 313.762,61.645 312.386,66.927 303.800 C 68.145 301.820,70.768 298.436,72.756 296.280 C 76.850 291.840,77.498 290.331,76.113 288.464 C 74.590 286.412,72.420 285.929,69.464 286.983 M116.000 288.375 C 91.311 293.651,79.387 299.704,74.461 309.463 C 72.218 313.906,73.075 317.544,77.359 321.773 C 97.655 341.807,134.464 357.224,172.981 361.823 C 190.339 363.896,189.813 364.571,191.403 338.200 C 192.645 317.603,192.029 315.366,186.097 318.924 C 181.010 321.974,178.127 321.950,171.649 318.802 C 155.819 311.108,145.313 303.017,137.196 292.266 C 132.101 285.519,130.628 285.248,116.000 288.375 M131.074 288.025 C 132.648 288.620,134.005 289.992,137.575 294.600 C 144.670 303.757,154.821 311.567,169.000 318.777 C 176.972 322.831,179.617 323.234,184.800 321.188 C 191.172 318.671,191.339 319.316,190.041 341.400 C 188.746 363.433,189.353 362.851,170.200 360.393 C 135.080 355.886,101.172 341.744,79.842 322.707 C 70.961 314.780,73.818 305.977,87.660 298.619 C 98.462 292.877,126.079 286.138,131.074 288.025 M70.967 290.643 C 72.155 291.099,71.601 292.693,69.158 295.847 C 67.816 297.581,65.744 300.651,64.554 302.668 C 61.245 308.279,58.924 309.699,55.551 308.178 C 53.099 307.072,52.174 305.367,52.358 302.291 C 52.478 300.282,57.033 296.786,64.906 292.658 C 69.239 290.386,69.807 290.197,70.967 290.643 M213.300 334.846 C 215.266 337.213,212.237 339.771,209.279 338.241 C 207.392 337.265,206.594 336.130,207.245 335.346 C 208.753 333.528,211.985 333.261,213.300 334.846 " stroke="none" fill="#9b7956" fill-rule="evenodd"></path><path id="path5" d="M194.000 7.244 C 192.350 7.462,189.111 8.281,186.803 9.066 C 184.495 9.850,180.657 10.836,178.275 11.257 C 175.609 11.728,172.521 12.614,170.244 13.562 C 168.209 14.409,165.476 15.410,164.172 15.787 C 159.676 17.085,147.355 23.194,141.199 27.176 C 131.870 33.210,120.890 44.423,115.837 53.074 C 113.413 57.224,113.477 57.200,104.998 57.200 C 97.001 57.200,92.885 57.731,88.015 59.392 C 86.374 59.952,82.903 60.773,80.303 61.216 C 77.703 61.660,73.860 62.644,71.763 63.403 C 69.666 64.162,66.386 65.077,64.475 65.435 C 62.564 65.793,59.920 66.494,58.600 66.992 C 57.280 67.490,54.253 68.636,51.873 69.538 C 38.427 74.635,27.574 82.631,19.213 93.600 C 15.982 97.839,12.703 103.610,11.485 107.200 C 11.149 108.190,10.215 110.497,9.410 112.326 C 5.321 121.616,5.227 149.956,9.256 158.764 C 12.945 166.828,13.411 169.616,11.933 174.774 C 10.678 179.156,10.638 191.658,11.866 195.685 C 14.240 203.474,21.036 209.859,30.034 212.757 C 32.530 213.561,34.212 215.898,36.599 221.879 C 37.406 223.902,38.322 225.769,38.634 226.028 C 38.945 226.286,39.200 226.650,39.200 226.837 C 39.200 228.048,45.174 236.149,49.203 240.400 C 51.436 242.757,52.534 244.382,54.323 247.977 L 56.600 252.555 56.736 260.924 L 56.871 269.293 55.336 270.866 C 53.801 272.439,52.633 273.263,43.997 278.867 C 32.710 286.193,27.600 294.153,27.600 304.409 C 27.600 313.213,31.279 319.946,38.800 324.905 C 41.599 326.750,44.153 328.055,56.052 333.718 C 58.611 334.936,61.131 336.373,61.652 336.912 C 62.569 337.859,66.507 341.256,70.613 344.641 C 82.538 354.472,103.914 365.850,121.669 371.817 C 124.458 372.754,127.955 374.007,129.442 374.602 C 130.929 375.197,134.138 376.033,136.573 376.460 C 139.008 376.887,142.892 377.845,145.205 378.590 C 149.368 379.930,152.240 380.419,160.414 381.178 C 162.732 381.393,166.692 382.097,169.214 382.743 C 175.823 384.433,181.145 384.829,201.800 385.166 C 240.152 385.791,260.299 385.009,267.791 382.602 C 269.546 382.039,272.246 381.391,273.791 381.163 C 275.336 380.935,277.754 380.570,279.164 380.351 C 280.574 380.133,283.634 379.261,285.964 378.413 C 288.294 377.565,291.612 376.491,293.337 376.027 C 295.063 375.562,297.033 374.893,297.716 374.540 C 298.399 374.187,300.773 373.148,302.990 372.231 C 313.475 367.899,326.513 359.287,337.588 349.379 C 342.541 344.949,344.141 343.859,348.677 341.826 C 351.274 340.661,354.930 339.311,356.800 338.825 C 368.554 335.772,378.690 328.001,382.924 318.798 C 385.966 312.185,386.090 297.124,383.171 288.821 C 379.624 278.733,379.856 279.874,380.352 275.000 C 380.599 272.580,380.918 268.800,381.062 266.600 C 381.223 264.146,381.608 261.932,382.060 260.872 C 383.747 256.909,384.405 253.117,384.814 245.000 C 385.908 223.268,385.887 223.518,386.926 219.751 C 388.807 212.932,389.581 197.484,389.590 166.600 C 389.599 138.352,388.955 128.924,386.621 123.088 C 385.948 121.406,385.386 118.794,385.001 115.557 C 384.319 109.821,383.939 108.292,382.380 105.000 C 381.755 103.680,380.858 100.980,380.387 99.000 C 379.916 97.020,378.916 94.175,378.165 92.678 C 377.414 91.181,376.800 89.772,376.800 89.546 C 376.800 87.781,371.718 78.404,368.920 75.006 C 364.372 69.483,356.007 63.387,350.800 61.800 C 350.250 61.632,348.050 60.711,345.910 59.753 C 343.771 58.795,340.441 57.665,338.510 57.242 C 336.580 56.818,333.470 55.910,331.600 55.223 C 327.143 53.586,322.965 52.908,314.200 52.401 C 310.240 52.172,305.650 51.719,304.000 51.393 C 300.110 50.625,292.994 50.637,287.200 51.422 C 268.622 53.936,269.889 54.060,265.399 49.291 C 259.858 43.404,253.289 39.189,245.643 36.614 C 236.834 33.648,234.800 32.733,234.800 31.739 C 234.800 31.232,234.545 30.138,234.234 29.308 C 233.923 28.479,233.551 27.272,233.408 26.627 C 232.352 21.863,227.129 17.184,220.209 14.803 C 218.510 14.219,217.195 13.337,215.169 11.427 C 210.881 7.381,203.717 5.966,194.000 7.244 M192.387 26.000 C 193.052 26.000,194.515 26.692,195.981 27.700 C 200.756 30.983,200.610 30.928,205.441 31.252 C 211.685 31.671,213.542 32.854,214.778 37.200 C 216.426 42.994,219.127 45.139,228.409 48.022 C 247.524 53.961,253.376 58.186,259.765 70.661 C 262.949 76.877,262.989 76.889,267.931 73.211 C 276.760 66.640,289.668 65.054,313.200 67.649 C 325.035 68.955,342.310 74.500,349.816 79.403 C 362.457 87.661,367.778 105.401,365.844 132.851 C 365.371 139.565,365.664 140.473,368.476 141.015 C 369.770 141.264,371.170 142.331,372.006 143.707 C 375.455 149.377,375.248 186.775,371.602 216.800 C 371.188 220.210,370.647 225.970,370.401 229.600 C 369.805 238.378,368.581 249.265,367.588 254.639 C 367.144 257.037,366.418 261.250,365.975 264.000 C 364.814 271.210,363.930 273.844,361.597 277.043 C 359.121 280.440,359.124 280.599,361.700 283.623 C 368.433 291.527,371.111 301.636,368.651 309.865 C 366.067 318.510,351.373 326.333,342.543 323.766 C 339.978 323.020,338.911 323.451,337.747 325.702 C 335.447 330.150,328.564 336.964,318.400 344.856 C 304.238 355.853,286.899 363.390,267.400 367.026 C 250.830 370.116,247.478 370.413,227.400 370.568 C 205.937 370.733,203.040 370.457,198.676 367.829 C 195.333 365.816,195.113 365.794,192.179 367.180 C 187.612 369.338,183.166 369.432,171.800 367.608 C 169.160 367.185,165.200 366.645,163.000 366.410 C 152.803 365.317,132.963 359.830,117.800 353.908 C 98.498 346.369,74.632 330.035,68.155 319.930 C 66.010 316.584,65.110 316.086,62.272 316.680 C 55.431 318.112,45.281 312.373,44.035 306.367 C 42.933 301.063,45.465 296.596,52.244 291.884 C 60.435 286.190,67.345 281.929,69.963 280.959 C 73.974 279.472,74.235 278.995,73.603 274.294 C 73.289 271.952,73.162 267.452,73.257 262.000 C 73.425 252.297,73.465 252.144,76.583 249.172 C 79.517 246.376,79.346 245.890,73.500 240.402 C 56.700 224.629,51.513 217.426,46.999 203.600 C 43.684 193.443,42.861 192.453,38.975 193.941 C 32.151 196.552,27.226 192.033,27.698 183.593 C 28.047 177.354,30.785 174.200,35.436 174.677 C 41.980 175.349,41.764 175.704,41.327 165.000 C 40.461 143.745,42.620 137.118,51.400 134.082 C 54.678 132.949,63.830 131.842,67.380 132.149 C 79.101 133.164,79.266 133.172,80.800 132.815 C 81.577 132.633,78.334 131.538,75.376 130.983 C 65.755 129.177,54.889 130.504,48.237 134.297 C 40.542 138.685,39.153 140.813,38.404 149.357 C 36.794 167.719,25.772 156.913,25.392 136.600 C 24.910 110.904,41.279 92.071,71.000 84.122 C 72.980 83.592,77.210 82.458,80.400 81.601 C 104.370 75.162,112.743 75.693,116.803 83.913 C 118.692 87.736,119.009 87.392,122.605 77.600 C 128.318 62.047,135.290 52.220,146.668 43.684 C 152.228 39.513,164.093 33.039,168.400 31.826 C 168.950 31.671,171.470 30.754,174.000 29.788 C 180.439 27.329,188.892 25.341,190.733 25.852 C 191.026 25.933,191.770 26.000,192.387 26.000 M258.942 102.633 C 257.609 104.667,257.510 117.286,258.817 118.590 C 259.981 119.751,265.374 116.357,265.680 114.269 C 265.864 113.015,263.856 103.566,263.179 102.500 C 262.327 101.159,259.857 101.236,258.942 102.633 M118.177 106.582 C 118.028 107.374,118.221 110.431,118.604 113.376 C 119.010 116.496,119.189 119.478,119.032 120.524 C 118.366 124.969,112.919 129.882,107.200 131.197 C 105.990 131.475,104.730 131.854,104.400 132.039 C 103.276 132.670,104.769 132.433,108.728 131.355 C 116.359 129.276,120.545 130.976,122.631 137.000 C 123.582 139.746,125.242 140.762,127.493 139.977 C 129.457 139.293,129.713 138.372,130.101 130.600 C 130.790 116.801,130.399 115.001,126.240 112.794 C 123.187 111.175,122.641 110.694,120.942 108.137 C 118.902 105.067,118.503 104.843,118.177 106.582 M253.423 173.689 C 252.548 174.938,252.551 177.505,253.426 176.778 C 254.205 176.132,255.200 174.248,255.200 173.420 C 255.200 172.506,254.139 172.667,253.423 173.689 M250.508 185.100 C 249.566 187.269,249.340 191.687,250.138 192.348 C 252.140 194.010,253.900 191.604,253.270 188.068 C 252.444 183.432,251.618 182.544,250.508 185.100 M146.228 207.301 C 145.903 207.797,144.904 210.330,144.007 212.930 C 140.689 222.555,136.250 230.036,129.516 237.356 C 123.721 243.655,123.456 244.499,126.576 246.740 C 129.883 249.115,130.534 250.916,131.382 260.049 C 132.162 268.447,132.158 270.947,131.357 274.468 C 130.566 277.945,130.864 278.772,133.335 279.969 C 137.118 281.800,137.497 281.704,141.282 277.945 C 145.161 274.094,151.774 270.133,157.504 268.229 C 161.377 266.942,161.420 266.882,161.779 262.200 C 163.129 244.564,163.810 241.058,166.439 238.181 C 168.478 235.949,168.165 235.242,160.954 225.807 C 159.169 223.471,156.199 218.850,154.354 215.537 C 149.530 206.875,147.713 205.034,146.228 207.301 M282.000 236.494 C 282.000 237.521,282.949 238.417,283.600 238.004 C 284.064 237.709,284.100 237.462,283.757 236.911 C 283.209 236.031,282.000 235.744,282.000 236.494 M85.062 285.129 C 83.377 286.997,85.486 289.935,88.154 289.435 C 89.770 289.132,92.148 287.612,92.309 286.779 C 92.639 285.066,86.401 283.645,85.062 285.129 M197.219 284.977 C 196.956 285.294,196.559 286.869,196.337 288.477 C 196.115 290.084,195.573 292.390,195.132 293.600 C 194.691 294.810,193.986 296.741,193.565 297.890 C 191.843 302.595,195.024 304.868,200.467 302.820 C 205.225 301.030,205.614 299.984,203.590 294.437 C 202.924 292.613,202.273 290.013,202.142 288.660 C 201.769 284.791,199.057 282.762,197.219 284.977 " stroke="none" fill="#070605" fill-rule="evenodd"></path><path id="path6" d="M187.800 26.018 C 184.007 26.513,178.984 27.885,174.000 29.788 C 171.470 30.754,168.950 31.671,168.400 31.826 C 164.093 33.039,152.228 39.513,146.668 43.684 C 135.290 52.220,128.318 62.047,122.605 77.600 C 119.009 87.392,118.692 87.736,116.803 83.913 C 112.743 75.693,104.370 75.162,80.400 81.601 C 77.210 82.458,72.980 83.592,71.000 84.122 C 41.279 92.071,24.910 110.904,25.392 136.600 C 25.772 156.913,36.794 167.719,38.404 149.357 C 39.153 140.813,40.542 138.685,48.237 134.297 C 54.889 130.504,65.755 129.177,75.376 130.983 C 78.334 131.538,81.577 132.633,80.800 132.815 C 79.266 133.172,79.101 133.164,67.380 132.149 C 63.830 131.842,54.678 132.949,51.400 134.082 C 42.620 137.118,40.461 143.745,41.327 165.000 C 41.764 175.704,41.980 175.349,35.436 174.677 C 30.785 174.200,28.047 177.354,27.698 183.593 C 27.226 192.033,32.151 196.552,38.975 193.941 C 42.861 192.453,43.684 193.443,46.999 203.600 C 51.513 217.426,56.700 224.629,73.500 240.402 C 79.346 245.890,79.517 246.376,76.583 249.172 C 73.465 252.144,73.425 252.297,73.257 262.000 C 73.162 267.452,73.289 271.952,73.603 274.294 C 74.235 278.995,73.974 279.472,69.963 280.959 C 67.345 281.929,60.435 286.190,52.244 291.884 C 45.465 296.596,42.933 301.063,44.035 306.367 C 45.281 312.373,55.431 318.112,62.272 316.680 C 65.110 316.086,66.010 316.584,68.155 319.930 C 74.632 330.035,98.498 346.369,117.800 353.908 C 132.963 359.830,152.803 365.317,163.000 366.410 C 165.200 366.645,169.160 367.185,171.800 367.608 C 183.166 369.432,187.612 369.338,192.179 367.180 C 195.113 365.794,195.333 365.816,198.676 367.829 C 203.040 370.457,205.937 370.733,227.400 370.568 C 247.478 370.413,250.830 370.116,267.400 367.026 C 286.899 363.390,304.238 355.853,318.400 344.856 C 328.564 336.964,335.447 330.150,337.747 325.702 C 338.911 323.451,339.978 323.020,342.543 323.766 C 351.373 326.333,366.067 318.510,368.651 309.865 C 371.111 301.636,368.433 291.527,361.700 283.623 C 359.124 280.599,359.121 280.440,361.597 277.043 C 363.930 273.844,364.814 271.210,365.975 264.000 C 366.418 261.250,367.144 257.037,367.588 254.639 C 368.581 249.265,369.805 238.378,370.401 229.600 C 370.647 225.970,371.188 220.210,371.602 216.800 C 375.248 186.775,375.455 149.377,372.006 143.707 C 371.170 142.331,369.770 141.264,368.476 141.015 C 365.664 140.473,365.371 139.565,365.844 132.851 C 368.729 91.889,357.838 76.421,320.771 68.840 C 298.720 64.330,277.505 66.085,267.931 73.211 C 262.989 76.889,262.949 76.877,259.765 70.661 C 253.376 58.186,247.524 53.961,228.409 48.022 C 219.127 45.139,216.426 42.994,214.778 37.200 C 213.542 32.854,211.685 31.671,205.441 31.252 C 200.610 30.928,200.756 30.983,195.981 27.700 C 194.515 26.692,193.052 26.000,192.387 26.000 C 191.770 26.000,191.026 25.933,190.733 25.852 C 190.440 25.771,189.120 25.845,187.800 26.018 M191.800 28.446 C 192.680 28.688,194.558 29.694,195.973 30.681 C 199.375 33.053,199.935 33.248,204.463 33.622 C 210.181 34.095,211.253 34.894,213.215 40.146 C 214.999 44.921,217.770 46.625,230.993 51.081 C 245.367 55.924,251.093 59.791,255.751 67.800 C 267.127 87.362,264.685 102.184,251.800 91.770 C 248.818 89.359,242.354 83.681,241.756 82.946 C 241.512 82.646,241.177 82.400,241.013 82.400 C 240.702 82.400,235.704 78.593,235.000 77.821 C 229.815 72.129,223.714 71.383,216.266 75.531 C 215.130 76.164,213.120 77.089,211.800 77.588 C 210.480 78.086,208.154 79.129,206.630 79.905 C 203.355 81.575,200.415 81.922,195.200 81.254 C 190.023 80.591,189.850 80.534,186.102 78.264 C 179.417 74.216,174.364 74.575,165.180 79.753 C 163.368 80.774,160.524 81.912,159.000 82.225 C 156.967 82.643,148.671 87.224,145.161 89.869 C 140.770 93.176,139.163 94.876,135.363 100.238 C 130.970 106.435,128.353 108.374,126.245 106.993 C 119.103 102.313,122.404 76.983,132.087 62.175 C 141.219 48.208,153.735 39.281,174.769 31.732 C 184.245 28.331,188.445 27.521,191.800 28.446 M302.800 69.205 C 311.796 69.751,316.314 70.297,320.800 71.379 C 343.813 76.927,352.752 82.082,358.296 93.000 C 366.168 108.503,365.479 140.576,357.182 144.809 C 352.559 147.167,349.223 145.355,338.008 134.390 C 332.212 128.725,331.662 123.690,335.784 114.038 C 337.892 109.102,338.414 107.200,337.662 107.200 C 337.010 107.200,336.066 108.623,335.049 111.142 C 332.261 118.042,322.956 130.486,319.278 132.231 C 316.618 133.493,312.679 133.689,308.710 132.757 C 303.682 131.577,303.995 131.953,310.220 134.572 C 317.242 137.526,317.470 137.555,321.803 136.044 C 332.038 132.474,341.294 136.254,347.032 146.345 C 348.829 149.506,356.100 160.400,356.412 160.400 C 356.901 160.400,357.805 158.792,359.387 155.110 C 363.470 145.605,368.795 143.538,371.068 150.577 C 372.908 156.275,371.945 192.605,369.407 213.200 C 369.095 215.730,368.658 220.140,368.435 223.000 C 368.212 225.860,367.834 230.720,367.595 233.800 C 366.745 244.773,363.348 266.832,361.896 270.800 C 359.068 278.532,351.264 279.562,338.986 273.824 C 331.968 270.544,330.095 267.843,328.786 259.111 C 328.333 256.092,327.719 252.456,327.421 251.031 C 326.941 248.737,326.967 247.735,327.649 242.320 C 329.140 230.482,330.038 228.188,336.618 219.384 C 346.953 205.559,355.253 188.900,355.876 180.732 C 356.393 173.957,355.324 175.071,353.210 183.511 C 351.014 192.277,348.133 198.893,341.676 210.000 C 335.023 221.444,332.624 224.259,325.256 229.263 C 322.977 230.811,319.287 233.556,317.056 235.364 C 310.714 240.503,312.001 240.081,303.123 239.931 C 293.954 239.775,294.787 240.089,287.400 234.014 C 284.540 231.662,280.760 228.683,279.000 227.395 C 277.240 226.106,275.710 224.943,275.600 224.811 C 275.490 224.679,274.431 223.677,273.246 222.585 L 271.092 220.600 272.408 222.745 C 274.351 225.912,275.840 229.844,277.603 236.460 C 279.766 244.580,281.576 249.243,282.163 248.211 C 284.814 243.553,290.752 240.778,295.482 241.986 C 301.131 243.429,305.172 243.230,309.322 241.306 C 315.358 238.507,323.260 242.328,324.267 248.533 C 324.766 251.611,320.682 257.409,316.304 259.834 L 314.200 261.000 304.200 260.990 C 290.119 260.976,286.224 259.117,282.426 250.600 L 281.891 249.400 280.941 251.529 C 279.870 253.928,279.397 255.809,278.559 261.000 C 276.888 271.361,271.987 273.471,259.459 269.224 C 250.882 266.316,245.894 261.804,241.460 252.943 C 237.018 244.069,236.963 220.962,241.359 211.305 C 242.337 209.157,243.344 206.614,243.597 205.653 C 244.159 203.514,247.124 200.192,249.400 199.150 C 252.544 197.711,254.780 198.385,258.467 201.886 C 259.996 203.337,260.817 203.902,260.669 203.400 C 255.169 184.796,255.180 180.985,260.758 174.203 C 262.026 172.661,263.985 170.027,265.111 168.349 C 267.865 164.245,269.777 162.703,274.275 160.961 C 277.700 159.634,278.800 158.821,278.800 157.617 C 278.800 157.378,277.494 155.785,275.897 154.078 C 272.220 150.146,269.608 145.834,268.702 142.200 C 268.318 140.660,267.396 138.230,266.653 136.800 C 265.910 135.370,264.559 132.786,263.651 131.058 C 260.697 125.436,261.914 121.288,266.956 119.791 C 271.246 118.517,273.704 119.141,285.400 124.478 C 287.820 125.582,291.690 127.347,294.000 128.400 C 296.310 129.454,299.100 130.523,300.200 130.776 C 301.300 131.029,302.560 131.327,303.000 131.437 C 304.982 131.936,298.792 128.785,296.250 128.001 C 288.980 125.761,275.599 118.945,272.534 115.922 C 268.176 111.625,267.866 110.732,267.554 101.600 C 267.357 95.826,267.058 92.761,266.405 89.800 C 263.568 76.951,271.079 70.232,289.400 69.230 C 292.480 69.061,295.270 68.896,295.600 68.863 C 295.930 68.831,299.170 68.984,302.800 69.205 M227.913 76.604 C 231.451 77.438,233.089 78.353,239.000 82.794 C 253.027 93.333,255.453 98.919,254.379 118.200 C 253.717 130.071,253.423 152.000,253.925 152.000 C 254.145 152.000,254.735 150.447,255.236 148.549 C 256.697 143.020,258.544 140.998,262.129 141.003 C 266.399 141.010,268.949 143.772,268.863 148.297 C 268.589 162.680,261.935 170.034,255.199 163.399 C 253.455 161.681,253.311 161.616,252.735 162.287 C 251.293 163.969,249.562 169.718,248.185 177.400 C 247.632 180.480,246.745 184.980,246.214 187.400 C 245.682 189.820,244.952 193.960,244.591 196.600 C 243.887 201.750,243.407 203.353,240.856 209.089 C 238.606 214.147,237.616 215.624,233.000 220.805 C 228.384 225.986,222.400 233.577,222.400 234.251 C 222.400 234.578,223.369 234.651,225.748 234.503 C 231.809 234.124,234.824 236.303,236.408 242.205 C 236.880 243.962,237.805 247.110,238.464 249.200 C 240.334 255.129,240.090 259.228,237.460 266.117 C 236.245 269.301,236.400 269.492,239.676 268.851 C 250.435 266.742,259.787 270.814,262.049 278.591 C 262.499 280.136,262.936 281.625,263.021 281.900 C 263.278 282.734,264.539 282.467,266.622 281.138 C 271.795 277.839,272.039 277.786,281.600 277.921 C 288.141 278.013,291.110 278.227,294.000 278.815 C 296.090 279.241,299.765 279.965,302.166 280.426 C 315.992 283.077,325.429 290.151,331.938 302.744 C 337.967 314.408,337.719 324.360,331.238 330.796 C 315.676 346.249,300.627 355.356,280.400 361.561 C 276.770 362.674,272.180 363.870,270.200 364.217 C 268.220 364.564,263.900 365.367,260.600 366.002 C 250.812 367.883,246.034 368.175,224.800 368.188 C 200.802 368.203,201.329 368.323,197.540 361.946 C 195.975 359.312,195.106 358.626,194.693 359.702 C 194.587 359.977,193.656 361.240,192.624 362.507 C 188.913 367.063,186.349 367.493,173.800 365.664 C 169.180 364.991,164.410 364.328,163.200 364.192 C 159.603 363.788,155.125 362.899,149.294 361.433 C 146.272 360.674,142.772 359.849,141.516 359.601 C 134.605 358.236,116.567 351.263,105.801 345.796 C 86.188 335.835,71.805 324.100,69.334 316.041 C 67.757 310.902,67.719 310.881,63.632 312.900 C 59.116 315.131,55.075 314.526,50.333 310.910 C 43.827 305.948,45.161 299.363,53.848 293.562 C 63.043 287.422,67.391 284.697,68.770 284.211 C 75.687 281.770,80.216 284.333,80.995 291.129 C 81.451 295.104,82.368 295.013,95.946 289.641 C 102.499 287.048,106.050 285.872,108.800 285.383 C 110.890 285.010,115.204 284.077,118.387 283.309 C 127.701 281.060,130.703 281.431,138.373 285.774 C 140.436 286.942,140.979 286.711,141.393 284.486 C 142.269 279.775,144.702 277.087,151.340 273.496 C 157.291 270.278,158.401 270.100,167.100 270.972 C 167.815 271.043,168.400 271.052,168.400 270.990 C 168.400 270.929,167.686 269.369,166.813 267.524 C 164.759 263.180,164.572 261.280,165.390 253.014 C 166.452 242.279,167.425 240.920,174.400 240.436 L 177.800 240.200 172.830 235.000 C 164.099 225.866,160.558 221.285,156.906 214.400 C 145.966 193.777,145.389 192.474,142.193 181.200 C 138.606 168.547,136.264 164.613,134.299 167.940 C 129.566 175.953,120.931 171.474,119.184 160.100 C 117.429 148.676,126.227 141.070,131.600 149.365 L 132.600 150.909 132.875 148.555 C 133.026 147.260,133.243 139.900,133.357 132.200 C 133.830 100.280,135.983 96.151,158.200 84.555 C 172.347 77.171,176.436 76.900,191.000 82.385 C 195.397 84.041,204.548 82.443,213.200 78.509 C 218.489 76.103,223.201 75.493,227.913 76.604 M263.179 102.500 C 263.856 103.566,265.864 113.015,265.680 114.269 C 265.374 116.357,259.981 119.751,258.817 118.590 C 257.510 117.286,257.609 104.667,258.942 102.633 C 259.857 101.236,262.327 101.159,263.179 102.500 M120.942 108.137 C 122.641 110.694,123.187 111.175,126.240 112.794 C 130.399 115.001,130.790 116.801,130.101 130.600 C 129.713 138.372,129.457 139.293,127.493 139.977 C 125.242 140.762,123.582 139.746,122.631 137.000 C 120.545 130.976,116.359 129.276,108.728 131.355 C 104.769 132.433,103.276 132.670,104.400 132.039 C 104.730 131.854,105.990 131.475,107.200 131.197 C 112.919 129.882,118.366 124.969,119.032 120.524 C 119.189 119.478,119.010 116.496,118.604 113.376 C 117.513 104.995,118.052 103.787,120.942 108.137 M79.200 138.711 C 90.001 140.182,95.693 140.122,104.000 138.451 C 117.203 135.794,117.976 136.590,114.249 149.000 C 113.721 150.760,113.077 154.180,112.819 156.600 C 112.447 160.092,112.015 161.842,110.727 165.082 C 108.089 171.718,108.970 173.243,116.800 175.584 C 121.676 177.042,133.654 183.292,135.925 185.563 C 140.781 190.419,143.278 199.432,141.827 206.865 C 138.311 224.882,124.013 241.845,108.941 245.880 C 97.329 248.989,87.619 246.772,77.600 238.723 C 54.277 219.986,46.467 203.181,45.756 170.200 C 45.328 150.351,46.076 145.073,49.800 141.670 C 54.606 137.277,62.694 136.463,79.200 138.711 M191.625 158.252 C 189.198 166.820,190.372 180.053,193.777 182.500 C 196.735 184.626,197.415 183.139,195.208 179.371 C 192.916 175.460,192.773 174.621,192.872 165.628 C 192.964 157.281,192.567 154.930,191.625 158.252 M65.861 166.955 C 62.492 167.895,60.810 170.684,62.433 172.641 C 65.168 175.938,79.683 175.288,81.274 171.797 C 83.089 167.815,73.537 164.814,65.861 166.955 M255.200 173.420 C 255.200 174.248,254.205 176.132,253.426 176.778 C 252.551 177.505,252.548 174.938,253.423 173.689 C 254.139 172.667,255.200 172.506,255.200 173.420 M91.611 181.452 C 87.232 185.137,84.613 200.007,87.323 205.800 C 89.772 211.036,95.449 213.968,100.141 212.419 C 104.015 211.141,103.717 207.930,99.412 204.570 C 94.438 200.687,94.019 198.951,95.996 190.417 C 98.006 181.742,96.041 177.725,91.611 181.452 M35.377 182.889 C 36.644 184.698,35.750 187.842,34.061 187.516 C 32.057 187.130,32.440 182.051,34.477 182.006 C 34.630 182.003,35.035 182.400,35.377 182.889 M252.443 184.700 C 253.993 188.729,253.637 192.451,251.674 192.731 C 249.988 192.971,249.501 192.109,249.688 189.217 C 249.972 184.820,251.515 182.289,252.443 184.700 M297.064 184.300 C 294.958 187.751,296.834 193.037,300.056 192.729 C 301.368 192.603,301.400 192.557,301.380 190.784 C 301.349 187.894,297.969 182.817,297.064 184.300 M149.669 207.958 C 150.401 208.814,152.509 212.225,154.354 215.537 C 156.199 218.850,159.169 223.471,160.954 225.807 C 168.165 235.242,168.478 235.949,166.439 238.181 C 163.810 241.058,163.129 244.564,161.779 262.200 C 161.420 266.882,161.377 266.942,157.504 268.229 C 151.774 270.133,145.161 274.094,141.282 277.945 C 137.497 281.704,137.118 281.800,133.335 279.969 C 130.864 278.772,130.566 277.945,131.357 274.468 C 132.158 270.947,132.162 268.447,131.382 260.049 C 130.534 250.916,129.883 249.115,126.576 246.740 C 123.456 244.499,123.721 243.655,129.516 237.356 C 136.250 230.036,140.689 222.555,144.007 212.930 C 146.484 205.747,147.224 205.097,149.669 207.958 M88.160 224.148 C 86.087 225.089,85.788 227.212,87.450 229.187 C 92.843 235.596,112.000 233.766,112.000 226.843 C 112.000 224.227,110.308 223.713,103.600 224.290 C 100.516 224.555,97.604 224.587,96.000 224.372 C 90.291 223.607,89.407 223.582,88.160 224.148 M283.757 236.911 C 284.100 237.462,284.064 237.709,283.600 238.004 C 282.949 238.417,282.000 237.521,282.000 236.494 C 282.000 235.744,283.209 236.031,283.757 236.911 M124.855 252.050 C 126.360 253.106,127.175 255.494,127.829 260.765 C 129.348 273.008,127.758 276.133,119.000 278.126 C 101.763 282.046,99.024 282.277,90.065 280.567 C 77.950 278.254,77.000 277.108,77.000 264.800 C 77.000 253.140,78.185 251.941,87.639 254.032 C 96.359 255.960,106.975 255.469,114.575 252.786 C 120.590 250.663,122.664 250.515,124.855 252.050 M320.729 264.402 C 322.633 265.293,324.190 266.513,326.831 269.188 C 331.046 273.455,333.199 274.654,341.848 277.551 C 359.322 283.404,363.649 286.889,366.245 297.200 C 368.895 307.727,365.833 314.322,356.077 319.103 C 345.473 324.299,342.103 322.642,337.817 310.128 C 330.631 289.143,318.027 278.877,296.400 276.393 C 288.272 275.459,284.800 273.266,284.800 269.067 C 284.800 265.667,287.565 264.597,296.002 264.734 C 302.804 264.843,309.077 264.257,312.200 263.220 C 314.169 262.566,317.916 263.085,320.729 264.402 M192.000 280.265 C 189.908 280.552,189.849 280.852,191.383 283.399 C 194.036 287.806,193.895 290.576,190.662 297.537 C 186.395 306.723,185.978 308.999,188.674 308.373 C 191.191 307.789,192.885 307.954,195.140 309.004 C 198.026 310.347,198.532 310.280,200.717 308.256 C 203.282 305.880,204.152 305.485,207.400 305.225 L 210.200 305.000 210.157 303.526 C 210.130 302.623,209.202 300.148,207.757 297.126 C 204.800 290.946,204.600 288.554,206.709 284.608 C 208.175 281.865,208.008 281.393,205.356 280.783 C 203.512 280.358,194.004 279.989,192.000 280.265 M91.199 285.463 C 92.698 286.349,92.607 287.094,90.853 288.276 C 87.954 290.230,85.158 289.743,84.597 287.187 C 83.997 284.456,87.809 283.461,91.199 285.463 M201.343 285.300 C 201.652 285.795,202.012 287.307,202.142 288.660 C 202.273 290.013,202.924 292.613,203.590 294.437 C 205.614 299.984,205.225 301.030,200.467 302.820 C 195.024 304.868,191.843 302.595,193.565 297.890 C 193.986 296.741,194.691 294.810,195.132 293.600 C 195.573 292.390,196.115 290.084,196.337 288.477 C 196.903 284.380,199.672 282.623,201.343 285.300 M179.311 312.339 C 175.091 313.700,174.805 313.996,176.407 315.344 C 178.786 317.346,182.169 316.354,183.814 313.172 C 185.023 310.836,184.355 310.712,179.311 312.339 M217.421 313.166 C 215.972 315.510,221.433 318.534,224.371 317.015 C 227.029 315.640,226.290 314.779,221.468 313.637 C 217.354 312.662,217.707 312.703,217.421 313.166 " stroke="none" fill="#353630" fill-rule="evenodd"></path><path id="path7" d="M242.294 269.635 C 240.247 270.117,238.135 271.237,233.934 274.066 C 229.304 277.184,223.146 280.097,218.400 281.413 C 216.310 281.993,213.656 282.727,212.502 283.044 C 204.632 285.209,204.638 290.170,212.527 303.455 C 220.793 317.373,230.228 315.128,251.427 294.200 C 260.194 285.544,261.986 282.206,260.417 277.452 C 258.863 272.743,248.349 268.209,242.294 269.635 M156.800 271.976 C 155.010 272.525,149.856 275.262,147.471 276.929 C 138.691 283.066,143.358 292.721,160.600 304.089 C 177.892 315.490,183.328 313.637,191.373 293.600 C 193.461 288.398,191.205 283.892,185.660 282.191 C 181.340 280.866,176.569 278.717,171.236 275.692 C 164.453 271.845,160.522 270.833,156.800 271.976 M249.885 273.263 C 256.320 275.660,258.405 278.806,256.386 283.073 C 255.031 285.935,243.532 297.247,237.000 302.142 C 225.000 311.135,222.154 311.099,215.610 301.873 C 207.441 290.353,207.838 288.209,218.771 284.820 C 225.234 282.816,230.843 280.137,236.414 276.390 C 242.583 272.242,245.395 271.590,249.885 273.263 M163.200 275.282 C 163.970 275.507,166.580 276.817,169.000 278.191 C 175.210 281.719,176.418 282.301,181.600 284.256 C 190.209 287.504,190.730 289.502,185.436 298.945 C 179.617 309.324,176.552 310.008,165.911 303.303 C 145.313 290.324,141.806 282.609,153.748 276.539 C 157.819 274.469,159.611 274.231,163.200 275.282 M271.913 279.544 C 268.804 280.811,266.142 283.071,262.721 287.348 C 254.835 297.209,244.786 306.095,233.000 313.627 C 220.797 321.426,220.158 321.365,213.400 311.747 C 211.409 308.914,208.852 307.199,206.622 307.201 C 201.573 307.206,199.277 312.428,198.971 324.600 C 198.877 328.340,198.593 337.430,198.340 344.800 C 197.561 367.504,197.380 367.313,219.800 367.536 C 242.614 367.763,248.623 367.265,270.118 363.358 C 287.056 360.280,306.279 351.091,320.200 339.416 C 334.019 327.827,334.604 326.997,334.592 319.000 C 334.569 304.187,323.788 289.300,309.240 283.991 C 299.588 280.468,276.420 277.709,271.913 279.544 M286.688 282.602 C 314.742 286.155,324.167 292.249,330.468 310.911 C 334.391 322.529,332.455 326.179,315.000 340.066 C 293.522 357.153,266.461 364.505,224.800 364.572 L 207.000 364.600 205.087 363.658 C 201.586 361.934,200.789 358.757,201.559 349.594 C 202.073 343.474,202.604 341.136,204.191 338.013 L 205.302 335.826 204.401 333.032 C 202.249 326.348,203.259 314.890,206.169 312.984 C 207.735 311.958,209.184 312.776,212.507 316.562 C 219.626 324.672,221.875 324.663,235.200 316.472 C 246.748 309.374,256.686 300.539,265.428 289.600 C 272.407 280.867,272.569 280.814,286.688 282.602 M121.600 284.011 C 119.950 284.425,115.503 285.403,111.718 286.184 C 104.397 287.694,97.784 289.852,87.824 293.981 C 69.730 301.482,64.827 313.634,75.674 324.095 C 91.075 338.947,120.794 354.168,144.600 359.397 C 147.020 359.928,151.250 360.907,154.000 361.573 C 161.050 363.279,176.641 365.348,182.664 365.377 C 190.557 365.415,192.841 363.001,193.626 353.800 C 194.293 345.982,195.559 333.377,196.238 327.800 C 198.250 311.268,193.441 305.426,185.250 314.453 C 180.895 319.252,179.499 319.177,169.300 313.590 C 155.340 305.943,146.923 299.256,140.289 290.542 C 135.078 283.697,129.969 281.912,121.600 284.011 M70.694 284.818 C 67.482 285.612,53.351 294.580,50.539 297.608 C 46.016 302.479,46.559 307.239,52.051 310.882 C 58.505 315.164,63.384 313.501,68.715 305.200 C 69.916 303.330,72.494 300.161,74.445 298.158 C 78.101 294.404,79.200 292.589,79.200 290.307 C 79.200 286.421,75.047 283.741,70.694 284.818 M74.361 286.906 C 77.948 288.749,77.549 291.083,72.756 296.280 C 70.768 298.436,68.145 301.820,66.927 303.800 C 61.645 312.386,57.105 313.762,51.637 308.436 C 46.993 303.913,48.731 299.894,57.949 293.843 C 69.197 286.458,71.553 285.463,74.361 286.906 M132.944 287.600 C 133.760 288.150,135.674 290.250,137.196 292.266 C 145.313 303.017,155.819 311.108,171.649 318.802 C 178.127 321.950,181.010 321.974,186.097 318.924 C 192.029 315.366,192.645 317.603,191.403 338.200 C 189.813 364.571,190.339 363.896,172.981 361.823 C 134.464 357.224,97.655 341.807,77.359 321.773 C 67.073 311.619,77.288 299.192,102.000 291.795 C 117.216 287.240,129.865 285.525,132.944 287.600 M209.000 334.139 C 207.019 335.028,206.544 335.855,207.444 336.848 C 209.292 338.891,211.758 339.335,213.130 337.874 C 215.337 335.525,212.210 332.698,209.000 334.139 " stroke="none" fill="#3c545c" fill-rule="evenodd"></path><path id="path8" d="M236.062 267.243 C 231.614 272.541,219.102 278.371,209.029 279.838 C 204.598 280.484,203.369 280.800,205.289 280.800 C 205.851 280.800,206.694 281.115,207.161 281.500 L 208.011 282.200 206.721 284.600 C 204.598 288.550,204.795 290.935,207.757 297.126 C 209.202 300.148,210.130 302.623,210.157 303.526 L 210.200 305.000 207.400 305.225 C 204.152 305.485,203.282 305.880,200.717 308.256 C 198.532 310.280,198.026 310.347,195.140 309.004 C 192.885 307.954,191.191 307.789,188.674 308.373 C 185.978 308.999,186.395 306.723,190.662 297.537 C 193.890 290.587,194.035 287.804,191.398 283.424 C 189.826 280.814,189.881 280.400,191.800 280.400 C 193.889 280.400,193.818 279.722,191.696 279.416 C 184.602 278.393,170.486 271.693,167.383 267.876 L 166.346 266.600 167.373 268.687 C 168.642 271.266,168.659 271.128,167.100 270.972 C 158.401 270.100,157.291 270.278,151.340 273.496 C 144.702 277.087,142.269 279.775,141.393 284.486 C 140.979 286.711,140.436 286.942,138.373 285.774 C 130.703 281.431,127.701 281.060,118.387 283.309 C 115.204 284.077,110.890 285.010,108.800 285.383 C 106.050 285.872,102.499 287.048,95.946 289.641 C 82.368 295.013,81.451 295.104,80.995 291.129 C 80.216 284.333,75.687 281.770,68.770 284.211 C 67.391 284.697,63.043 287.422,53.848 293.562 C 45.161 299.363,43.827 305.948,50.333 310.910 C 55.075 314.526,59.116 315.131,63.632 312.900 C 67.719 310.881,67.757 310.902,69.334 316.041 C 71.805 324.100,86.188 335.835,105.801 345.796 C 116.567 351.263,134.605 358.236,141.516 359.601 C 142.772 359.849,146.272 360.674,149.294 361.433 C 155.125 362.899,159.603 363.788,163.200 364.192 C 164.410 364.328,169.180 364.991,173.800 365.664 C 186.349 367.493,188.913 367.063,192.624 362.507 C 193.656 361.240,194.587 359.977,194.693 359.702 C 195.106 358.626,195.975 359.312,197.540 361.946 C 201.329 368.323,200.802 368.203,224.800 368.188 C 246.034 368.175,250.812 367.883,260.600 366.002 C 263.900 365.367,268.220 364.564,270.200 364.217 C 279.271 362.626,294.077 357.236,303.422 352.121 C 311.973 347.442,322.950 339.026,331.238 330.796 C 337.719 324.360,337.967 314.408,331.938 302.744 C 325.429 290.151,315.992 283.077,302.166 280.426 C 299.765 279.965,296.090 279.241,294.000 278.815 C 291.110 278.227,288.141 278.013,281.600 277.921 C 272.039 277.786,271.795 277.839,266.622 281.138 C 264.539 282.467,263.278 282.734,263.021 281.900 C 262.936 281.625,262.499 280.136,262.049 278.591 C 259.787 270.814,250.435 266.742,239.676 268.851 C 236.653 269.443,236.222 269.201,236.996 267.348 C 237.818 265.381,237.642 265.362,236.062 267.243 M249.002 269.817 C 259.425 272.532,263.494 279.046,259.029 285.870 C 255.723 290.923,242.534 302.956,233.917 308.780 C 224.721 314.996,218.456 313.437,212.527 303.455 C 204.638 290.170,204.632 285.209,212.502 283.044 C 213.656 282.727,216.310 281.993,218.400 281.413 C 223.146 280.097,229.304 277.184,233.934 274.066 C 241.053 269.272,243.864 268.479,249.002 269.817 M163.848 272.125 C 164.961 272.413,168.285 274.018,171.236 275.692 C 176.569 278.717,181.340 280.866,185.660 282.191 C 191.205 283.892,193.461 288.398,191.373 293.600 C 183.328 313.637,177.892 315.490,160.600 304.089 C 143.358 292.721,138.691 283.066,147.471 276.929 C 154.205 272.222,158.907 270.843,163.848 272.125 M290.461 279.980 C 302.503 281.709,309.773 283.644,314.751 286.448 C 331.501 295.879,340.448 320.163,330.800 330.005 C 327.684 333.185,319.624 340.061,314.600 343.828 C 302.724 352.732,284.455 360.753,270.118 363.358 C 248.623 367.265,242.614 367.763,219.800 367.536 C 197.380 367.313,197.561 367.504,198.340 344.800 C 198.593 337.430,198.877 328.340,198.971 324.600 C 199.277 312.428,201.573 307.206,206.622 307.201 C 208.852 307.199,211.409 308.914,213.400 311.747 C 220.158 321.365,220.797 321.426,233.000 313.627 C 244.786 306.095,254.835 297.209,262.721 287.348 C 269.741 278.570,273.563 277.555,290.461 279.980 M132.544 284.013 C 135.123 284.978,137.720 287.167,140.289 290.542 C 146.923 299.256,155.340 305.943,169.300 313.590 C 179.499 319.177,180.895 319.252,185.250 314.453 C 193.441 305.426,198.250 311.268,196.238 327.800 C 195.559 333.377,194.293 345.982,193.626 353.800 C 192.841 363.001,190.557 365.415,182.664 365.377 C 176.641 365.348,161.050 363.279,154.000 361.573 C 151.250 360.907,147.020 359.928,144.600 359.397 C 120.794 354.168,91.075 338.947,75.674 324.095 C 64.827 313.634,69.730 301.482,87.824 293.981 C 97.784 289.852,104.397 287.694,111.718 286.184 C 115.503 285.403,119.950 284.425,121.600 284.011 C 125.700 282.983,129.792 282.984,132.544 284.013 M76.303 285.501 C 80.810 287.841,80.157 292.293,74.445 298.158 C 72.494 300.161,69.916 303.330,68.715 305.200 C 63.384 313.501,58.505 315.164,52.051 310.882 C 43.968 305.521,45.917 300.015,58.939 291.424 C 69.949 284.160,72.223 283.384,76.303 285.501 M184.400 311.620 C 184.400 313.612,181.367 316.400,179.200 316.400 C 177.376 316.400,174.840 314.606,175.587 313.844 C 176.708 312.700,184.400 310.759,184.400 311.620 M221.468 313.637 C 226.290 314.779,227.029 315.640,224.371 317.015 C 221.851 318.318,218.550 317.100,217.563 314.502 C 216.844 312.612,216.999 312.578,221.468 313.637 " stroke="none" fill="#3c4c54" fill-rule="evenodd"></path></g></svg>