<?xml version="1.0" encoding="UTF-8" standalone="no"?>
<!DOCTYPE svg PUBLIC "-//W3C//DTD SVG 1.1//EN" "http://www.w3.org/Graphics/SVG/1.1/DTD/svg11.dtd">
<svg version="1.1" xmlns="http://www.w3.org/2000/svg" xmlns:xlink="http://www.w3.org/1999/xlink" preserveAspectRatio="xMidYMid meet" viewBox="0 0 640 640" width="640" height="640"><defs><path d="M572.38 326.55C572.38 467.15 459.29 581.31 320 581.31C180.71 581.31 67.62 467.15 67.62 326.55C67.62 185.94 180.71 71.79 320 71.79C459.29 71.79 572.38 185.94 572.38 326.55Z" id="f4Mi3sEzJs"></path><path d="M489.7 290.2C489.7 328.67 460.96 359.9 425.56 359.9C390.15 359.9 361.41 328.67 361.41 290.2C361.41 251.74 390.15 220.51 425.56 220.51C460.96 220.51 489.7 251.74 489.7 290.2Z" id="a16X8tYrhT"></path><path d="M530.86 420.43C530.22 450.26 485.77 473.53 431.67 472.37C377.56 471.21 334.15 446.05 334.79 416.22C335.43 386.39 379.88 363.12 433.99 364.28C488.09 365.45 531.5 390.61 530.86 420.43Z" id="bJ6fKqkzW"></path><path d="M270.5 294.55C270.5 333.01 241.76 364.24 206.36 364.24C170.96 364.24 142.22 333.01 142.22 294.55C142.22 256.08 170.96 224.85 206.36 224.85C241.76 224.85 270.5 256.08 270.5 294.55Z" id="b1Yq6RTbLv"></path><path d="M299.35 424.97C298.71 454.79 254.26 478.07 200.15 476.91C146.04 475.74 102.63 450.58 103.27 420.76C103.92 390.93 148.36 367.66 202.47 368.82C256.58 369.98 299.99 395.14 299.35 424.97Z" id="i29zQspPRy"></path><path d="M402.63 327.92C402.63 377.82 363.02 418.33 314.24 418.33C265.46 418.33 225.86 377.82 225.86 327.92C225.86 278.03 265.46 237.52 314.24 237.52C363.02 237.52 402.63 278.03 402.63 327.92Z" id="b5BuMJ1Sj"></path><path d="M454.29 498.26C453.43 538.21 390.98 569.32 314.91 567.68C238.84 566.05 177.78 532.29 178.64 492.34C179.5 452.4 241.95 421.29 318.02 422.92C394.08 424.56 455.14 458.32 454.29 498.26Z" id="f7AHphf61"></path></defs><g><g><g><use xlink:href="#f4Mi3sEzJs" opacity="1" fill="#08c976" fill-opacity="1"></use></g><g><use xlink:href="#a16X8tYrhT" opacity="1" fill="#e4dcdc" fill-opacity="1"></use></g><g><use xlink:href="#bJ6fKqkzW" opacity="1" fill="#e4dcdc" fill-opacity="1"></use></g><g><use xlink:href="#b1Yq6RTbLv" opacity="1" fill="#e4dcdc" fill-opacity="1"></use></g><g><use xlink:href="#i29zQspPRy" opacity="1" fill="#e4dcdc" fill-opacity="1"></use></g><g><use xlink:href="#b5BuMJ1Sj" opacity="1" fill="#ffffff" fill-opacity="1"></use></g><g><use xlink:href="#f7AHphf61" opacity="1" fill="#ffffff" fill-opacity="1"></use></g></g></g></svg>