<svg id="svg" version="1.1" xmlns="http://www.w3.org/2000/svg" xmlns:xlink="http://www.w3.org/1999/xlink" width="400" height="400" viewBox="0, 0, 400,400"><g id="svgg"><path id="path0" d="M188.800 118.422 C 183.116 119.273,178.607 120.348,173.400 122.094 C 163.300 125.479,146.800 135.492,146.800 138.235 C 146.800 139.141,176.231 168.734,177.438 169.042 C 177.979 169.180,179.612 168.551,182.038 167.272 C 196.309 159.745,213.105 161.574,224.806 171.929 C 229.742 176.296,233.206 181.482,235.676 188.200 L 237.000 191.800 237.000 199.800 C 237.000 209.000,236.521 211.094,232.765 218.312 C 231.616 220.521,230.929 222.302,231.069 222.712 C 231.572 224.183,260.957 253.200,261.944 253.200 C 262.530 253.200,263.449 252.605,264.346 251.646 C 266.884 248.933,268.611 248.523,270.212 250.251 C 271.109 251.219,271.204 251.242,271.414 250.551 C 271.961 248.748,273.429 246.268,274.278 245.712 C 275.510 244.905,275.440 244.548,273.993 244.259 C 272.365 243.933,271.764 242.394,272.409 240.200 C 273.319 237.103,276.039 232.400,277.297 231.750 C 278.506 231.125,280.400 231.282,280.400 232.008 C 280.400 232.223,280.670 232.400,281.000 232.400 C 281.397 232.400,281.600 232.003,281.600 231.224 C 281.600 230.577,281.780 229.936,282.000 229.800 C 282.872 229.261,282.388 228.400,281.214 228.400 C 279.605 228.400,279.070 227.275,279.282 224.339 C 279.547 220.677,282.150 218.126,283.955 219.759 C 284.941 220.652,285.087 220.580,285.295 219.100 C 285.396 218.385,285.621 217.469,285.796 217.064 C 286.059 216.454,285.950 216.347,285.157 216.439 C 281.999 216.804,281.271 215.086,282.029 209.059 C 286.849 170.714,258.732 128.864,222.753 120.833 C 221.736 120.606,220.404 120.229,219.790 119.996 C 214.329 117.920,197.772 117.079,188.800 118.422 M135.963 148.440 C 131.936 152.802,125.237 164.550,122.631 171.820 C 98.932 237.943,162.420 301.059,228.777 277.347 C 238.669 273.812,253.200 264.719,253.200 262.064 C 253.200 260.943,224.323 231.623,222.652 231.046 C 222.160 230.877,220.745 231.419,218.530 232.627 C 206.697 239.077,188.976 238.948,182.800 232.367 C 180.687 230.116,176.699 227.092,173.610 225.400 C 162.687 219.416,159.404 196.955,167.272 182.038 C 168.551 179.612,169.180 177.979,169.042 177.438 C 168.731 176.220,139.140 146.800,138.226 146.800 C 137.814 146.800,136.796 147.538,135.963 148.440 " stroke="none" fill="#a3a3c9" fill-rule="evenodd"></path><path id="path1" d="M190.800 116.675 C 172.567 119.706,155.814 126.920,146.900 135.578 C 143.993 138.402,143.370 137.521,160.281 154.470 C 176.816 171.043,177.160 171.318,179.724 169.995 C 190.118 164.629,191.464 164.251,200.200 164.241 C 227.700 164.208,244.603 192.535,231.754 217.122 C 228.445 223.455,227.167 221.334,245.101 239.285 C 262.941 257.141,261.738 256.335,265.207 252.754 C 266.901 251.005,267.365 250.733,268.395 250.885 C 269.744 251.083,269.910 250.767,268.958 249.815 C 268.048 248.905,266.918 249.361,264.768 251.509 C 261.736 254.537,262.766 255.247,246.309 238.789 C 229.214 221.694,230.217 223.210,232.764 218.315 C 236.521 211.093,237.000 209.000,237.000 199.800 L 237.000 191.800 235.676 188.200 C 227.394 165.676,203.088 156.171,182.090 167.244 C 180.050 168.320,178.021 169.200,177.582 169.200 C 176.614 169.200,147.436 140.311,146.866 138.789 C 146.370 137.464,146.933 136.787,151.129 133.677 C 175.429 115.659,208.761 112.411,235.289 125.476 C 236.768 126.204,238.092 126.800,238.233 126.800 C 241.256 126.800,257.196 139.776,263.355 147.252 C 268.416 153.395,271.293 157.818,274.378 164.200 C 280.941 177.779,283.986 194.897,282.210 208.236 C 281.484 213.695,281.812 216.013,283.310 215.994 C 284.493 215.979,284.787 215.367,283.953 214.653 C 283.158 213.972,283.137 213.726,283.461 208.871 C 286.559 162.478,257.892 125.064,213.376 117.403 C 207.838 116.449,194.704 116.026,190.800 116.675 M135.716 146.700 C 116.822 167.056,111.048 202.809,122.132 230.800 C 142.652 282.617,208.951 300.568,251.849 265.921 C 256.742 261.969,257.532 263.267,238.916 244.700 C 221.451 227.282,223.366 228.456,217.510 231.578 C 206.997 237.184,189.418 237.577,184.981 232.305 C 181.914 228.659,184.848 227.663,192.544 229.737 C 201.476 232.144,216.800 228.858,216.800 224.535 C 216.800 223.743,176.169 183.600,175.367 183.600 C 172.655 183.600,169.460 192.470,169.460 200.000 C 169.460 206.481,171.149 211.884,175.014 217.762 C 176.764 220.424,177.069 221.731,176.235 223.003 C 174.893 225.051,172.700 223.976,169.944 219.918 C 162.474 208.918,162.021 195.292,168.693 182.303 C 170.703 178.389,170.858 177.905,170.429 176.871 C 170.171 176.246,163.073 168.865,154.658 160.468 C 137.584 143.432,138.280 143.938,135.716 146.700 M154.101 161.500 C 162.306 169.690,168.936 176.624,169.072 177.158 C 169.248 177.850,168.757 179.184,167.304 181.958 C 160.383 195.178,161.406 211.135,169.886 222.200 C 170.817 223.414,172.280 224.672,173.610 225.400 C 176.699 227.092,180.687 230.116,182.800 232.367 C 188.986 238.958,206.697 239.077,218.565 232.607 C 223.117 230.126,221.965 229.346,239.110 246.516 C 254.654 262.081,254.460 261.825,252.300 263.880 C 244.162 271.626,225.765 279.987,213.800 281.379 C 212.700 281.507,210.450 281.859,208.800 282.162 C 201.669 283.471,188.372 282.367,178.200 279.621 C 171.859 277.909,160.080 272.882,158.000 271.000 C 157.636 270.670,157.156 270.400,156.934 270.400 C 156.436 270.400,149.073 264.980,145.747 262.165 C 136.835 254.622,126.821 240.499,123.456 230.730 C 123.129 229.778,122.551 228.280,122.173 227.400 C 117.971 217.628,116.475 201.865,118.453 188.200 C 120.519 173.928,128.717 155.242,136.064 148.059 C 138.432 145.744,137.980 145.408,154.101 161.500 M196.400 169.484 C 189.388 170.709,183.600 173.370,183.600 175.367 C 183.600 176.966,224.034 216.910,225.211 216.474 C 227.658 215.569,230.800 206.291,230.800 199.969 C 230.800 182.023,213.315 166.527,196.400 169.484 M281.143 220.277 C 278.780 221.743,278.430 227.600,280.705 227.600 C 281.667 227.600,281.687 227.559,281.062 226.869 C 279.437 225.073,281.372 219.870,283.236 221.022 C 283.768 221.351,283.681 220.641,283.120 220.080 C 282.514 219.474,282.424 219.483,281.143 220.277 M276.633 232.478 C 274.236 234.559,271.395 242.795,272.900 243.302 C 273.988 243.668,274.823 243.166,274.186 242.529 C 272.462 240.805,277.248 231.793,279.235 233.022 C 279.511 233.192,279.624 233.015,279.534 232.547 C 279.326 231.454,277.854 231.419,276.633 232.478 " stroke="none" fill="#6c6ca0" fill-rule="evenodd"></path><path id="path2" d="M21.000 16.771 C 17.554 17.603,16.626 19.176,16.617 24.200 C 16.609 28.827,11.679 23.395,58.520 70.373 C 84.775 96.705,99.540 111.791,99.363 112.106 C 99.212 112.378,99.395 112.311,99.771 111.959 C 100.305 111.457,100.818 111.388,102.127 111.641 C 103.047 111.819,104.572 111.973,105.516 111.983 C 107.801 112.006,109.819 113.096,112.110 115.545 C 115.227 118.877,114.673 120.512,109.307 123.828 C 85.613 138.470,56.897 163.386,40.906 183.178 C 37.050 187.950,33.354 191.600,32.377 191.600 C 30.852 191.600,29.189 190.695,28.948 189.734 C 28.711 188.790,28.680 188.781,28.250 189.530 C 28.003 189.961,27.080 191.547,26.200 193.056 C 24.609 195.784,24.600 195.824,24.600 200.000 L 24.600 204.200 26.591 207.728 C 28.402 210.936,28.611 211.168,28.904 210.287 C 29.177 209.469,31.219 208.400,32.509 208.400 C 33.238 208.400,36.695 211.964,41.103 217.261 C 66.218 247.439,105.326 277.318,139.400 292.361 C 144.294 294.521,148.599 296.498,152.000 298.145 C 152.550 298.411,153.225 299.098,153.501 299.670 C 153.856 300.409,154.437 300.793,155.500 300.992 C 156.324 301.147,157.131 301.482,157.293 301.737 C 157.740 302.440,157.663 304.486,157.200 304.200 C 156.980 304.064,156.800 304.143,156.800 304.376 C 156.800 304.978,155.182 304.876,154.000 304.200 C 153.450 303.886,152.730 303.629,152.400 303.630 C 151.187 303.634,154.127 304.868,156.561 305.378 C 157.942 305.666,159.466 306.114,159.948 306.372 C 160.431 306.631,162.281 307.098,164.059 307.410 C 165.838 307.723,167.497 308.147,167.746 308.352 C 168.323 308.828,172.479 309.600,174.459 309.600 C 175.290 309.600,176.922 310.005,178.085 310.500 C 181.331 311.881,218.387 311.910,222.200 310.534 C 223.520 310.058,225.950 309.549,227.600 309.404 C 229.250 309.259,231.343 308.813,232.251 308.414 C 233.159 308.015,234.869 307.561,236.051 307.405 C 237.233 307.249,238.943 306.799,239.851 306.405 C 240.759 306.011,242.379 305.565,243.451 305.414 C 246.041 305.049,248.492 303.822,247.269 303.502 C 246.798 303.379,246.465 303.462,246.514 303.691 C 246.636 304.271,244.509 304.935,243.687 304.574 C 243.309 304.409,242.867 304.301,242.705 304.335 C 242.463 304.386,242.482 303.309,242.755 301.505 C 242.780 301.342,243.510 301.096,244.377 300.957 C 245.632 300.757,246.034 300.479,246.340 299.600 C 246.626 298.781,247.228 298.309,248.663 297.778 C 249.728 297.384,251.320 296.657,252.200 296.162 C 253.080 295.666,255.420 294.600,257.400 293.792 C 259.380 292.984,264.654 290.534,269.121 288.347 C 279.715 283.161,279.888 283.139,283.200 286.590 C 284.735 288.189,285.310 293.590,284.029 294.382 C 283.608 294.643,283.612 294.744,284.055 294.920 C 284.451 295.078,284.419 295.145,283.937 295.168 C 282.820 295.222,370.472 382.493,372.287 383.135 C 378.345 385.275,383.110 382.667,383.497 377.000 C 383.891 371.243,387.566 375.409,341.744 329.667 C 311.535 299.511,300.800 288.559,300.971 288.067 C 301.121 287.634,300.931 287.718,300.430 288.309 C 300.005 288.808,299.556 289.052,299.431 288.850 C 299.306 288.649,297.718 288.354,295.902 288.195 C 291.432 287.805,288.260 285.944,286.567 282.720 C 285.225 280.163,286.013 279.359,296.810 272.267 C 318.627 257.937,342.858 236.517,358.715 217.544 C 366.738 207.944,368.458 206.858,371.237 209.637 C 371.973 210.373,372.000 210.370,372.503 209.494 C 372.786 209.002,373.243 208.240,373.519 207.800 C 376.102 203.675,376.407 197.320,374.209 193.400 C 371.998 189.457,371.995 189.454,371.458 190.189 C 370.891 190.964,367.784 191.749,367.030 191.307 C 365.666 190.508,363.396 188.107,358.800 182.604 C 332.895 151.584,294.090 122.261,258.273 106.639 C 255.495 105.428,252.543 104.093,251.711 103.673 C 250.880 103.253,249.482 102.569,248.605 102.154 C 247.723 101.738,246.774 100.908,246.483 100.300 C 246.115 99.532,245.653 99.200,244.952 99.200 C 243.307 99.200,242.403 98.502,242.478 97.289 C 242.566 95.864,243.100 95.199,244.149 95.206 C 244.768 95.211,244.854 95.305,244.467 95.550 C 244.103 95.781,244.294 95.889,245.067 95.891 C 245.690 95.893,246.650 96.018,247.200 96.170 C 248.162 96.436,248.158 96.422,247.098 95.809 C 246.491 95.459,245.010 94.990,243.806 94.767 C 242.602 94.545,240.848 94.032,239.909 93.628 C 238.969 93.224,237.227 92.773,236.037 92.625 C 234.848 92.477,233.352 92.086,232.714 91.755 C 232.075 91.425,229.628 90.904,227.276 90.597 C 224.924 90.291,222.190 89.718,221.200 89.325 C 218.170 88.122,181.617 88.249,178.200 89.475 C 176.880 89.949,174.450 90.461,172.800 90.613 C 171.150 90.765,169.022 91.225,168.072 91.635 C 167.121 92.045,165.411 92.497,164.272 92.640 C 163.132 92.782,161.390 93.229,160.400 93.632 C 159.410 94.035,157.566 94.546,156.302 94.768 C 155.039 94.990,153.509 95.460,152.902 95.811 C 152.296 96.163,152.160 96.337,152.600 96.198 C 156.970 94.819,158.283 95.178,157.721 97.600 C 157.372 99.107,157.261 99.200,155.816 99.200 C 154.717 99.200,154.335 99.444,153.667 100.576 C 153.071 101.587,152.398 102.084,151.128 102.453 C 150.178 102.730,148.770 103.330,148.000 103.788 C 147.230 104.246,145.160 105.229,143.400 105.973 C 141.640 106.716,136.150 109.277,131.200 111.663 C 120.396 116.871,120.151 116.900,116.800 113.410 C 115.168 111.709,114.791 107.491,116.103 105.616 C 117.066 104.243,30.622 17.632,27.523 16.865 C 25.470 16.357,22.873 16.319,21.000 16.771 M149.505 96.683 C 150.002 96.779,150.722 96.775,151.105 96.675 C 151.487 96.575,151.080 96.496,150.200 96.501 C 149.320 96.505,149.007 96.587,149.505 96.683 M249.105 96.683 C 249.602 96.779,250.322 96.775,250.705 96.675 C 251.087 96.575,250.680 96.496,249.800 96.501 C 248.920 96.505,248.607 96.587,249.105 96.683 M211.800 99.007 C 252.612 101.194,312.330 136.614,352.758 182.614 C 364.609 196.098,366.275 199.213,363.847 203.356 C 353.380 221.217,305.655 264.026,283.949 275.026 C 280.327 276.861,280.001 276.681,271.531 268.131 C 264.664 261.201,264.104 260.376,264.522 257.802 L 264.742 256.447 262.827 256.490 C 260.208 256.550,260.735 257.009,243.300 239.500 L 228.000 224.136 228.001 222.368 C 228.002 221.260,228.325 220.078,228.865 219.200 C 235.607 208.250,236.442 195.887,231.168 185.114 C 221.947 166.278,199.821 159.898,181.600 170.820 C 177.145 173.490,177.745 173.894,160.280 156.478 C 143.678 139.923,143.385 139.578,143.732 137.047 L 143.964 135.352 141.567 135.525 L 139.171 135.698 132.808 129.349 C 123.817 120.377,123.814 120.417,133.820 115.390 C 146.416 109.062,165.083 102.516,174.800 101.020 C 175.790 100.868,178.490 100.379,180.800 99.934 C 187.298 98.683,199.140 98.329,211.800 99.007 M195.200 114.400 C 195.200 114.643,196.992 114.800,199.776 114.800 C 202.396 114.800,204.458 114.629,204.600 114.400 C 204.760 114.142,203.137 114.000,200.024 114.000 C 197.075 114.000,195.200 114.155,195.200 114.400 M120.513 124.552 C 121.221 124.855,124.927 128.273,128.748 132.147 L 135.697 139.191 135.523 141.600 L 135.348 144.008 136.672 143.760 C 139.331 143.261,139.759 143.612,155.143 158.926 C 174.064 177.760,173.396 176.864,171.325 180.640 C 163.484 194.941,163.788 210.591,172.094 220.169 C 174.440 222.874,174.954 221.414,172.786 218.200 C 165.653 207.620,165.572 190.826,172.613 182.457 C 175.095 179.507,174.109 178.731,197.318 201.900 C 208.723 213.285,218.327 223.113,218.659 223.741 C 221.682 229.451,201.049 235.376,191.037 231.674 C 187.542 230.381,184.750 230.938,187.788 232.322 C 196.698 236.381,209.232 235.002,219.200 228.865 C 220.081 228.323,221.259 228.002,222.379 228.001 L 224.157 228.000 239.872 243.682 C 256.018 259.794,257.027 260.984,256.577 263.381 L 256.318 264.763 257.737 264.533 C 260.331 264.112,261.201 264.667,267.132 270.532 C 276.721 280.013,276.719 280.019,262.316 286.629 C 205.128 312.872,152.837 304.393,92.707 259.129 C 67.032 239.802,35.992 208.075,35.308 200.460 C 34.420 190.584,90.854 137.968,116.200 125.041 C 118.535 123.850,118.804 123.819,120.513 124.552 M210.501 168.962 C 220.245 172.464,227.284 179.401,231.104 189.268 C 235.442 200.475,230.050 221.999,223.741 218.659 C 220.690 217.043,181.200 176.634,181.200 175.127 C 181.200 169.048,199.832 165.128,210.501 168.962 M114.000 200.024 C 114.000 203.137,114.142 204.760,114.400 204.600 C 114.629 204.458,114.800 202.396,114.800 199.776 C 114.800 196.992,114.643 195.200,114.400 195.200 C 114.155 195.200,114.000 197.075,114.000 200.024 M285.488 196.600 C 285.145 198.565,285.195 202.978,285.578 204.600 C 286.049 206.598,286.529 200.202,286.118 197.400 L 285.766 195.000 285.488 196.600 M196.200 285.573 C 194.862 286.102,199.244 286.519,202.513 286.173 C 204.704 285.942,205.159 285.797,204.400 285.574 C 203.054 285.178,197.200 285.177,196.200 285.573 " stroke="none" fill="#20262f" fill-rule="evenodd"></path><path id="path3" d="M146.177 97.163 C 146.300 97.362,146.062 97.437,145.647 97.328 C 145.233 97.220,144.341 97.417,143.667 97.766 C 142.992 98.115,142.071 98.400,141.620 98.400 C 141.169 98.400,140.800 98.544,140.800 98.720 C 140.800 98.896,140.182 98.967,139.426 98.879 C 137.942 98.706,133.871 99.868,134.185 100.375 C 134.290 100.545,133.931 100.599,133.388 100.496 C 132.845 100.392,132.400 100.483,132.400 100.698 C 132.400 100.913,131.944 101.002,131.387 100.895 C 130.241 100.676,126.686 101.892,126.998 102.397 C 127.110 102.578,126.841 102.631,126.401 102.516 C 125.817 102.363,125.591 102.509,125.568 103.053 C 125.551 103.475,125.449 103.582,125.335 103.300 C 124.954 102.356,119.200 103.779,119.200 104.817 C 119.200 104.939,118.525 104.974,117.700 104.894 C 116.581 104.785,116.352 104.853,116.800 105.160 C 117.130 105.386,117.422 105.757,117.450 105.985 C 117.478 106.213,117.542 106.535,117.594 106.700 C 117.646 106.865,117.661 107.367,117.627 107.815 C 117.546 108.878,119.141 111.224,120.440 111.953 C 121.413 112.499,121.928 112.296,131.305 107.663 C 136.719 104.988,141.417 102.800,141.745 102.800 C 142.073 102.800,142.769 102.255,143.290 101.588 C 143.812 100.922,144.758 100.282,145.391 100.167 C 146.964 99.882,147.388 99.565,146.743 99.156 C 146.344 98.903,146.432 98.811,147.076 98.806 C 148.088 98.799,148.645 98.165,147.902 97.866 C 147.599 97.744,147.678 97.651,148.100 97.632 C 149.454 97.571,148.783 96.800,147.376 96.800 C 146.593 96.800,146.054 96.963,146.177 97.163 M251.600 97.243 C 251.600 97.486,251.864 97.584,252.187 97.460 C 252.510 97.336,252.898 97.435,253.049 97.679 C 253.215 97.948,253.141 98.011,252.862 97.838 C 252.608 97.681,252.400 97.733,252.400 97.953 C 252.400 98.173,252.583 98.466,252.807 98.604 C 253.030 98.742,253.122 99.002,253.011 99.181 C 252.901 99.361,253.586 99.703,254.535 99.942 C 255.728 100.242,256.398 100.677,256.704 101.348 C 256.953 101.895,257.732 102.514,258.484 102.762 C 261.156 103.644,278.365 112.429,284.800 116.196 C 313.121 132.777,342.716 157.609,362.009 180.982 C 365.387 185.073,367.622 187.154,368.755 187.261 C 369.110 187.294,369.580 187.364,369.800 187.415 C 370.020 187.466,370.444 187.528,370.743 187.554 C 371.041 187.579,371.193 187.841,371.080 188.136 C 370.967 188.431,371.048 188.926,371.260 189.236 C 371.935 190.221,371.181 185.537,370.361 183.649 C 369.942 182.686,369.600 181.371,369.600 180.726 C 369.600 180.081,369.437 179.654,369.237 179.777 C 369.038 179.900,368.968 179.644,369.082 179.209 C 369.196 178.773,368.932 177.730,368.495 176.892 C 368.058 176.054,367.568 174.745,367.407 173.984 C 367.245 173.223,366.794 171.970,366.405 171.200 C 366.015 170.430,365.110 168.590,364.393 167.110 C 363.677 165.631,362.937 164.515,362.750 164.631 C 362.562 164.747,362.497 164.607,362.605 164.321 C 362.859 163.646,360.642 160.301,360.205 160.698 C 360.022 160.864,359.975 160.817,360.102 160.593 C 360.413 160.043,358.618 157.123,358.202 157.501 C 358.020 157.665,358.003 157.572,358.164 157.293 C 358.534 156.650,356.091 153.497,355.503 153.860 C 355.268 154.005,355.186 153.946,355.321 153.729 C 355.674 153.157,353.645 150.325,353.117 150.651 C 352.869 150.804,352.789 150.742,352.933 150.509 C 353.282 149.944,351.644 147.926,351.106 148.258 C 350.853 148.414,350.792 148.336,350.959 148.067 C 351.389 147.370,347.566 143.431,347.094 144.086 C 346.825 144.461,346.782 144.419,346.938 143.929 C 347.178 143.179,346.308 142.243,345.799 142.703 C 345.619 142.867,345.586 142.799,345.726 142.553 C 345.972 142.124,345.027 140.994,344.200 140.729 C 343.980 140.658,343.841 140.477,343.891 140.326 C 344.052 139.843,340.318 136.803,339.889 137.068 C 339.661 137.209,339.596 137.130,339.743 136.892 C 340.082 136.344,336.580 133.442,336.007 133.796 C 335.772 133.941,335.630 133.841,335.690 133.575 C 335.836 132.929,332.450 130.322,331.904 130.659 C 331.665 130.807,331.592 130.737,331.738 130.500 C 332.075 129.955,323.717 124.280,323.121 124.649 C 322.866 124.806,322.788 124.743,322.938 124.501 C 323.263 123.975,320.498 122.292,319.907 122.657 C 319.668 122.805,319.591 122.738,319.734 122.507 C 320.111 121.897,318.924 121.067,318.117 121.376 C 317.736 121.523,317.553 121.513,317.711 121.356 C 318.124 120.943,315.643 119.530,315.076 119.855 C 314.814 120.005,314.742 119.973,314.914 119.783 C 315.533 119.104,302.862 112.537,301.755 112.962 C 301.427 113.088,301.257 113.032,301.377 112.837 C 301.643 112.406,300.475 111.906,299.954 112.228 C 299.748 112.356,299.630 112.221,299.690 111.930 C 299.756 111.611,299.449 111.412,298.920 111.430 C 298.436 111.446,298.149 111.283,298.282 111.067 C 298.427 110.833,298.175 110.766,297.662 110.900 C 297.187 111.024,296.884 110.989,296.987 110.821 C 297.253 110.391,295.230 109.534,294.708 109.857 C 294.455 110.013,294.392 109.937,294.555 109.674 C 294.891 109.129,293.066 108.588,292.361 109.024 C 292.032 109.228,291.980 109.155,292.201 108.799 C 292.442 108.408,292.305 108.332,291.662 108.500 C 291.103 108.646,290.893 108.573,291.065 108.295 C 291.233 108.023,291.087 107.958,290.670 108.118 C 290.271 108.271,290.047 108.186,290.105 107.903 C 290.157 107.645,289.379 107.224,288.376 106.967 C 287.374 106.710,285.962 106.194,285.240 105.821 C 284.518 105.448,283.665 105.243,283.343 105.366 C 283.016 105.492,282.866 105.417,283.003 105.195 C 283.137 104.978,282.832 104.794,282.324 104.787 C 281.816 104.781,280.500 104.332,279.400 103.791 C 277.222 102.720,275.383 102.512,275.065 103.300 C 274.927 103.641,274.853 103.608,274.832 103.198 C 274.800 102.589,272.524 101.574,270.938 101.461 C 270.464 101.428,270.145 101.289,270.229 101.153 C 270.445 100.803,266.805 100.350,266.297 100.664 C 266.066 100.807,265.992 100.737,266.133 100.508 C 266.461 99.977,264.217 99.031,263.386 99.350 C 263.025 99.489,262.862 99.423,263.003 99.195 C 263.146 98.964,262.671 98.800,261.857 98.800 C 261.092 98.800,260.376 99.025,260.265 99.300 C 260.144 99.599,260.050 99.518,260.032 99.100 C 260.009 98.602,259.666 98.400,258.844 98.400 C 258.208 98.400,256.903 98.044,255.944 97.609 C 254.040 96.745,251.600 96.539,251.600 97.243 M194.000 102.011 C 172.226 103.891,151.233 109.928,133.500 119.410 C 129.766 121.406,129.820 121.636,135.306 127.107 C 140.776 132.561,140.423 132.517,145.918 128.423 C 188.563 96.646,248.185 107.784,276.405 152.800 C 281.459 160.863,285.519 170.964,288.059 181.800 L 289.372 187.400 289.386 200.200 L 289.400 213.000 288.100 215.745 C 287.013 218.039,286.799 218.958,286.796 221.345 C 286.792 224.379,286.022 226.586,283.861 229.756 C 283.083 230.896,282.800 231.815,282.800 233.197 C 282.800 235.982,279.183 243.155,276.537 245.618 C 274.730 247.301,273.118 249.942,271.981 253.084 C 271.725 253.790,270.815 255.307,269.958 256.456 C 267.719 259.458,267.713 259.445,274.099 265.886 C 280.228 272.067,280.903 272.480,283.142 271.414 C 304.926 261.038,363.060 207.064,361.055 199.076 C 360.429 196.584,351.120 185.550,340.612 174.845 C 316.603 150.384,291.682 131.900,264.837 118.641 C 257.360 114.948,255.074 113.944,247.400 110.979 C 243.132 109.331,231.519 105.798,229.000 105.383 C 228.120 105.238,226.050 104.789,224.400 104.385 C 222.750 103.981,218.790 103.358,215.600 103.000 C 202.528 101.533,200.578 101.444,194.000 102.011 M98.691 112.556 C 98.080 112.827,97.715 113.182,97.878 113.345 C 98.042 113.509,97.880 113.529,97.519 113.390 C 96.807 113.117,95.068 113.863,95.350 114.320 C 95.445 114.474,95.098 114.626,94.577 114.657 C 93.158 114.742,89.956 116.405,90.261 116.898 C 90.410 117.139,90.335 117.207,90.089 117.055 C 89.483 116.680,84.333 119.569,84.661 120.099 C 84.805 120.332,84.746 120.414,84.528 120.279 C 83.732 119.787,78.548 122.785,79.114 123.411 C 79.271 123.586,79.168 123.594,78.884 123.430 C 78.236 123.057,69.123 129.152,69.476 129.723 C 69.619 129.955,69.521 129.999,69.244 129.827 C 68.646 129.457,67.517 130.342,67.866 130.907 C 68.008 131.136,67.945 131.213,67.727 131.078 C 67.166 130.732,65.531 131.964,65.855 132.489 C 66.004 132.730,65.940 132.810,65.712 132.669 C 65.125 132.306,61.907 134.726,62.247 135.275 C 62.407 135.536,62.344 135.613,62.096 135.459 C 61.571 135.135,59.111 137.132,59.420 137.632 C 59.542 137.829,59.407 137.901,59.119 137.790 C 58.366 137.502,49.012 146.972,49.411 147.618 C 49.598 147.921,49.562 148.024,49.320 147.874 C 48.739 147.515,47.050 149.434,47.420 150.032 C 47.603 150.328,47.558 150.421,47.307 150.266 C 46.742 149.917,45.857 151.046,46.227 151.644 C 46.403 151.929,46.354 152.019,46.107 151.866 C 45.542 151.517,44.657 152.646,45.027 153.244 C 45.201 153.525,45.155 153.619,44.915 153.471 C 44.343 153.117,43.054 154.641,43.423 155.237 C 43.595 155.515,43.557 155.621,43.335 155.483 C 43.121 155.351,42.739 155.548,42.486 155.921 C 38.461 161.856,37.084 164.288,37.431 164.850 C 37.628 165.169,37.551 165.217,37.194 164.996 C 36.806 164.756,36.735 164.853,36.927 165.355 C 37.082 165.758,37.030 165.942,36.800 165.800 C 36.585 165.667,36.015 166.423,35.533 167.479 C 35.051 168.536,34.239 170.290,33.729 171.379 C 33.218 172.467,32.800 173.639,32.800 173.984 C 32.800 174.330,32.442 175.279,32.005 176.095 C 31.258 177.489,30.032 181.951,29.872 183.862 C 29.833 184.336,29.685 184.653,29.545 184.566 C 29.405 184.480,29.183 184.812,29.051 185.304 C 28.669 186.730,28.762 188.400,29.224 188.400 C 29.457 188.400,29.529 188.208,29.383 187.973 C 29.225 187.717,29.416 187.597,29.860 187.673 C 30.346 187.757,30.556 187.594,30.471 187.200 C 30.373 186.740,30.454 186.709,30.820 187.069 C 31.841 188.072,33.442 186.637,39.805 179.016 C 54.910 160.928,81.205 137.928,102.703 124.000 C 110.130 119.188,110.469 118.741,108.351 116.537 C 106.416 114.524,104.115 113.290,101.708 112.974 C 100.557 112.823,99.712 112.542,99.831 112.349 C 100.088 111.934,100.100 111.932,98.691 112.556 M112.297 131.500 C 87.289 147.450,58.476 173.171,42.730 193.600 C 37.195 200.781,37.309 201.085,51.446 216.800 C 98.205 268.781,161.937 302.240,206.200 298.045 C 228.422 295.939,243.360 291.809,263.400 282.229 C 271.036 278.579,270.979 279.077,264.493 272.700 C 259.237 267.532,259.721 267.573,254.026 271.825 C 244.139 279.207,229.799 286.005,221.200 287.387 C 220.210 287.546,217.960 288.062,216.200 288.535 C 211.312 289.847,189.120 289.841,184.000 288.527 C 182.130 288.047,179.697 287.473,178.593 287.251 C 174.344 286.398,165.556 283.189,160.462 280.631 C 109.648 255.111,94.518 191.418,128.452 145.878 C 132.616 140.290,132.762 140.918,125.670 133.883 C 118.538 126.807,119.411 126.963,112.297 131.500 M371.072 210.956 C 370.921 211.350,370.899 211.836,371.022 212.036 C 371.146 212.236,370.887 212.400,370.447 212.400 C 370.007 212.400,369.541 212.572,369.411 212.783 C 369.281 212.993,368.911 213.064,368.588 212.940 C 367.784 212.632,365.762 214.491,362.112 218.896 C 345.608 238.811,322.545 259.279,298.413 275.428 C 293.959 278.409,290.541 280.963,290.463 281.369 C 290.200 282.734,294.383 286.249,296.955 286.825 C 298.195 287.102,299.403 287.562,299.639 287.847 C 299.926 288.193,300.289 288.243,300.734 288.000 C 301.100 287.800,302.268 287.273,303.329 286.828 C 304.391 286.383,305.158 285.855,305.034 285.655 C 304.910 285.454,305.032 285.298,305.304 285.308 C 306.588 285.354,307.226 285.165,307.003 284.805 C 306.868 284.587,306.998 284.501,307.291 284.614 C 308.046 284.903,312.469 282.435,312.142 281.906 C 311.983 281.648,312.065 281.593,312.347 281.767 C 312.606 281.927,313.669 281.570,314.709 280.972 C 315.749 280.375,317.281 279.544,318.114 279.127 C 318.946 278.710,319.533 278.216,319.418 278.029 C 319.303 277.843,319.522 277.715,319.904 277.745 C 320.289 277.775,320.551 277.563,320.490 277.270 C 320.430 276.979,320.568 276.857,320.797 276.998 C 321.306 277.312,324.085 275.662,323.807 275.211 C 323.698 275.035,323.922 274.915,324.304 274.945 C 324.689 274.975,324.951 274.763,324.890 274.470 C 324.828 274.173,324.973 274.060,325.220 274.212 C 325.461 274.362,326.051 274.127,326.530 273.692 C 327.008 273.256,327.810 272.688,328.311 272.430 C 328.817 272.169,329.101 271.763,328.949 271.518 C 328.783 271.249,328.860 271.190,329.146 271.367 C 330.019 271.906,333.713 268.825,333.113 268.056 C 332.654 267.469,332.675 267.459,333.308 267.955 C 334.103 268.580,335.830 267.495,335.329 266.685 C 335.184 266.450,335.274 266.398,335.540 266.563 C 336.132 266.929,339.682 264.056,339.334 263.493 C 339.182 263.248,339.270 263.196,339.548 263.368 C 340.128 263.726,344.076 260.046,343.723 259.475 C 343.587 259.256,343.675 259.199,343.917 259.349 C 344.724 259.847,353.441 250.314,352.932 249.491 C 352.791 249.261,352.869 249.195,353.108 249.343 C 353.345 249.489,353.953 249.022,354.460 248.305 C 354.967 247.587,356.243 245.926,357.295 244.614 C 358.348 243.302,359.151 242.053,359.080 241.839 C 359.008 241.625,359.283 241.117,359.690 240.710 C 360.096 240.304,360.305 239.770,360.153 239.524 C 359.989 239.259,360.057 239.188,360.318 239.349 C 360.865 239.687,361.741 238.152,361.357 237.530 C 361.189 237.259,361.254 237.186,361.518 237.349 C 362.065 237.687,362.941 236.152,362.557 235.530 C 362.372 235.231,362.457 235.188,362.806 235.404 C 363.194 235.644,363.265 235.547,363.073 235.045 C 362.928 234.667,362.958 234.450,363.140 234.563 C 363.656 234.882,365.306 231.652,365.015 230.894 C 364.873 230.526,364.883 230.349,365.036 230.502 C 365.465 230.932,367.294 227.204,367.072 226.353 C 366.963 225.938,367.038 225.700,367.237 225.823 C 367.437 225.946,367.600 225.772,367.600 225.436 C 367.600 225.100,367.980 224.095,368.445 223.204 C 368.909 222.313,369.196 221.227,369.082 220.791 C 368.968 220.356,369.038 220.100,369.237 220.223 C 369.437 220.346,369.600 219.847,369.600 219.113 C 369.600 218.379,369.853 217.416,370.163 216.974 C 370.797 216.069,371.782 211.547,371.519 210.756 C 371.402 210.405,371.259 210.469,371.072 210.956 M28.818 212.900 C 28.827 213.615,29.115 214.920,29.457 215.800 C 29.800 216.680,30.341 218.570,30.661 220.000 C 30.982 221.430,31.497 222.988,31.807 223.463 C 32.116 223.937,32.577 225.150,32.831 226.158 C 33.103 227.239,33.463 227.885,33.708 227.733 C 33.937 227.592,34.014 227.653,33.881 227.870 C 33.603 228.319,35.423 233.095,36.218 234.001 C 36.507 234.331,36.937 235.107,37.171 235.725 C 37.434 236.416,37.776 236.738,38.061 236.562 C 38.348 236.385,38.415 236.452,38.239 236.737 C 37.933 237.232,38.921 238.945,39.296 238.571 C 39.419 238.448,39.493 238.674,39.460 239.073 C 39.422 239.529,39.624 239.750,40.000 239.667 C 40.330 239.593,40.473 239.661,40.317 239.816 C 39.653 240.481,44.758 247.965,45.688 247.690 C 45.892 247.630,45.954 247.751,45.825 247.960 C 45.203 248.965,58.648 263.188,59.640 262.575 C 59.940 262.390,60.020 262.444,59.851 262.718 C 59.558 263.191,61.837 265.075,62.478 264.890 C 62.688 264.830,62.752 264.953,62.622 265.165 C 62.324 265.647,65.783 268.073,66.213 267.684 C 66.387 267.528,66.415 267.599,66.276 267.843 C 65.850 268.590,70.887 272.241,71.673 271.755 C 71.938 271.591,72.013 271.655,71.855 271.912 C 71.448 272.569,79.305 277.677,80.249 277.369 C 80.806 277.188,80.860 277.225,80.457 277.512 C 79.793 277.987,80.552 278.600,81.262 278.162 C 81.537 277.992,81.615 278.051,81.456 278.309 C 81.306 278.552,81.583 278.868,82.086 279.027 C 82.580 279.184,83.466 279.668,84.054 280.103 C 84.674 280.562,85.334 280.764,85.624 280.585 C 85.970 280.371,86.023 280.439,85.796 280.806 C 85.551 281.203,85.658 281.264,86.222 281.047 C 86.637 280.888,86.847 280.886,86.690 281.043 C 86.274 281.460,87.918 282.498,88.463 282.161 C 88.721 282.001,88.816 282.051,88.678 282.274 C 88.354 282.797,91.461 284.533,92.060 284.163 C 92.315 284.005,92.420 284.045,92.292 284.251 C 92.165 284.456,93.442 285.230,95.131 285.970 C 96.819 286.710,98.717 287.557,99.349 287.851 C 99.980 288.146,100.683 288.272,100.910 288.132 C 101.138 287.991,101.207 288.065,101.064 288.296 C 100.921 288.527,101.088 288.825,101.435 288.958 C 102.415 289.334,102.875 289.245,102.562 288.738 C 102.379 288.443,102.453 288.385,102.765 288.578 C 103.033 288.744,103.152 288.981,103.028 289.105 C 102.658 289.476,105.251 290.866,105.870 290.629 C 106.184 290.508,106.345 290.565,106.227 290.756 C 105.963 291.184,108.322 291.696,108.903 291.336 C 109.134 291.193,109.214 291.255,109.079 291.472 C 108.821 291.890,111.207 293.200,112.227 293.200 C 112.557 293.200,113.746 293.666,114.870 294.236 C 116.022 294.819,117.321 295.194,117.845 295.093 C 118.357 294.996,118.681 295.070,118.564 295.258 C 118.380 295.556,119.547 295.764,121.096 295.708 C 121.368 295.698,121.500 295.838,121.389 296.018 C 121.087 296.507,121.712 296.774,124.264 297.246 C 125.535 297.481,127.210 297.995,127.987 298.389 C 128.764 298.783,130.367 299.236,131.549 299.397 C 132.731 299.557,134.507 300.046,135.494 300.483 C 136.536 300.944,137.847 301.212,138.617 301.122 C 139.347 301.037,139.856 301.110,139.748 301.284 C 139.641 301.458,140.097 301.600,140.762 301.600 C 141.426 301.600,142.884 301.960,144.000 302.400 C 146.817 303.510,148.000 303.466,148.000 302.249 C 148.000 300.593,145.063 299.191,144.682 300.666 C 144.531 301.253,144.484 301.217,144.446 300.487 C 144.421 299.986,144.130 299.471,143.800 299.345 C 143.470 299.218,143.200 298.909,143.200 298.657 C 143.199 298.406,138.752 296.040,133.316 293.400 C 98.204 276.347,62.457 248.463,38.192 219.200 C 34.142 214.316,32.547 212.839,31.300 212.816 C 30.805 212.807,30.400 212.609,30.400 212.376 C 30.400 212.143,30.217 212.066,29.993 212.204 C 29.770 212.342,29.708 212.651,29.855 212.889 C 30.021 213.157,29.936 213.208,29.635 213.021 C 29.366 212.855,29.242 212.467,29.360 212.160 C 29.478 211.852,29.401 211.600,29.187 211.600 C 28.974 211.600,28.808 212.185,28.818 212.900 M268.200 292.621 C 263.140 295.127,258.760 297.182,258.467 297.189 C 258.173 297.195,257.317 297.835,256.563 298.611 C 255.810 299.387,254.658 300.128,254.003 300.259 C 253.349 300.390,252.899 300.637,253.004 300.807 C 253.109 300.977,252.926 301.219,252.598 301.346 C 251.400 301.805,251.890 303.200,253.249 303.200 C 254.381 303.200,254.447 303.134,253.949 302.500 C 253.454 301.869,253.468 301.853,254.085 302.336 C 254.790 302.888,257.823 302.284,257.442 301.668 C 257.351 301.520,258.069 301.463,259.038 301.540 C 260.007 301.617,260.800 301.514,260.800 301.310 C 260.800 301.106,261.320 301.015,261.955 301.108 C 262.599 301.203,263.922 300.918,264.948 300.464 C 265.959 300.017,267.644 299.526,268.693 299.373 C 270.936 299.046,273.670 298.038,273.419 297.630 C 273.322 297.473,273.775 297.423,274.426 297.519 C 275.286 297.645,275.572 297.543,275.471 297.146 C 275.394 296.846,275.407 296.735,275.499 296.900 C 275.802 297.442,277.403 297.214,278.993 296.404 C 279.852 295.966,281.176 295.491,281.935 295.348 L 283.315 295.089 282.357 294.559 C 281.831 294.267,281.625 294.022,281.900 294.014 C 283.108 293.980,282.328 290.709,280.680 288.900 C 279.306 287.391,277.939 287.798,268.200 292.621 M249.400 303.011 L 247.800 303.539 249.433 303.569 C 250.632 303.592,251.067 303.440,251.067 303.000 C 251.067 302.670,251.052 302.419,251.033 302.442 C 251.015 302.465,250.280 302.721,249.400 303.011 M149.000 303.200 C 148.849 303.445,149.420 303.585,150.476 303.560 C 151.933 303.526,152.045 303.471,151.200 303.200 C 149.776 302.744,149.282 302.744,149.000 303.200 " stroke="none" fill="#fbfbeb" fill-rule="evenodd"></path><path id="path4" d="M156.211 95.583 C 156.081 95.793,155.710 95.864,155.387 95.740 C 155.064 95.616,154.800 95.724,154.800 95.981 C 154.800 96.237,154.620 96.336,154.400 96.200 C 154.180 96.064,154.000 96.154,154.000 96.400 C 154.000 96.646,153.832 96.744,153.628 96.617 C 153.423 96.491,153.153 96.553,153.027 96.756 C 152.902 96.959,152.394 97.039,151.900 96.935 C 151.118 96.770,151.090 96.803,151.687 97.185 C 152.203 97.515,152.314 97.948,152.131 98.913 C 151.794 100.696,151.421 101.062,149.200 101.800 C 148.134 102.154,147.053 102.695,146.799 103.001 C 146.544 103.308,145.675 103.774,144.868 104.037 C 144.061 104.300,138.647 106.829,132.837 109.657 C 120.808 115.514,120.728 115.532,118.078 113.028 C 116.085 111.145,115.382 107.967,116.482 105.808 C 116.872 105.042,116.856 105.035,116.178 105.683 C 114.747 107.049,115.118 111.657,116.800 113.410 C 120.151 116.900,120.396 116.871,131.200 111.663 C 136.150 109.277,141.640 106.716,143.400 105.973 C 145.160 105.229,147.230 104.246,148.000 103.788 C 148.770 103.330,150.174 102.731,151.119 102.456 C 152.330 102.104,153.067 101.579,153.612 100.678 C 154.201 99.706,154.740 99.352,155.866 99.200 C 157.083 99.036,157.400 98.797,157.650 97.857 C 158.071 96.274,156.914 94.445,156.211 95.583 M242.922 95.700 C 241.676 97.354,242.747 99.200,244.952 99.200 C 245.653 99.200,246.115 99.532,246.483 100.300 C 246.774 100.908,247.723 101.738,248.605 102.154 C 249.482 102.569,250.880 103.253,251.711 103.673 C 252.543 104.093,255.495 105.428,258.273 106.639 C 294.164 122.293,333.797 152.302,359.193 183.051 C 366.255 191.603,367.568 192.457,370.954 190.704 C 372.075 190.124,370.981 189.604,369.519 190.023 C 367.292 190.662,366.250 189.757,357.937 179.961 C 333.915 151.656,297.739 123.867,264.800 108.419 C 260.950 106.613,256.360 104.443,254.600 103.596 C 252.840 102.749,250.752 101.794,249.960 101.473 C 248.345 100.820,247.535 98.456,248.513 97.250 C 248.922 96.746,248.877 96.696,248.232 96.939 C 247.798 97.102,247.348 97.039,247.196 96.794 C 247.049 96.555,246.539 96.331,246.064 96.295 C 245.589 96.259,245.200 96.094,245.200 95.927 C 245.200 95.761,244.930 95.729,244.600 95.855 C 244.270 95.982,244.000 95.886,244.000 95.643 C 244.000 95.049,243.388 95.081,242.922 95.700 M192.000 98.829 C 187.868 99.004,183.279 99.457,180.800 99.934 C 178.490 100.379,175.790 100.868,174.800 101.020 C 165.083 102.516,146.416 109.062,133.820 115.390 C 123.814 120.417,123.817 120.377,132.808 129.349 L 139.171 135.698 141.567 135.525 L 143.964 135.352 143.732 137.047 C 143.385 139.578,143.678 139.923,160.280 156.478 C 177.745 173.894,177.145 173.490,181.600 170.820 C 213.664 151.599,248.519 187.276,228.865 219.200 C 228.325 220.078,228.002 221.260,228.001 222.368 L 228.000 224.136 243.300 239.500 C 260.735 257.009,260.208 256.550,262.827 256.490 L 264.742 256.447 264.522 257.802 C 264.104 260.376,264.664 261.201,271.531 268.131 C 280.001 276.681,280.327 276.861,283.949 275.026 C 305.655 264.026,353.380 221.217,363.847 203.356 C 366.275 199.213,364.609 196.098,352.758 182.614 C 321.480 147.025,277.472 116.544,240.800 105.069 C 223.536 99.667,210.769 98.034,192.000 98.829 M219.000 100.959 C 252.175 106.672,284.994 123.198,318.400 151.010 C 340.138 169.109,363.782 194.632,363.782 200.000 C 363.782 209.328,317.712 252.715,288.137 271.239 C 280.528 276.006,280.887 276.046,274.323 269.688 C 264.960 260.619,264.462 259.655,267.236 255.972 C 271.003 250.972,269.364 248.464,265.162 252.800 C 261.745 256.327,262.916 257.116,245.101 239.285 C 227.167 221.334,228.445 223.455,231.754 217.122 C 239.037 203.186,237.026 186.828,226.669 175.758 C 218.902 167.456,211.482 164.227,200.200 164.241 C 191.464 164.251,190.118 164.629,179.724 169.995 C 177.160 171.318,176.816 171.043,160.281 154.470 C 143.370 137.521,143.993 138.402,146.900 135.578 C 161.274 121.616,190.703 113.520,213.122 117.361 C 257.854 125.024,286.569 162.366,283.463 208.835 C 283.166 213.280,283.205 213.948,283.791 214.534 C 287.288 218.031,288.710 200.537,286.141 185.612 C 274.924 120.418,199.668 90.872,146.753 130.886 C 140.197 135.844,140.196 135.844,132.100 127.463 C 125.576 120.710,125.653 120.437,135.357 115.798 C 153.417 107.162,169.961 102.203,188.000 100.017 C 194.209 99.264,212.361 99.816,219.000 100.959 M104.294 112.381 C 111.343 113.884,114.879 118.735,110.890 121.428 C 110.070 121.981,106.307 124.484,102.527 126.991 C 79.678 142.141,55.309 163.839,39.570 183.048 C 34.189 189.615,32.317 190.957,29.845 190.017 C 29.046 189.713,28.882 189.749,29.051 190.189 C 29.273 190.767,31.237 191.600,32.377 191.600 C 33.354 191.600,37.050 187.950,40.906 183.178 C 56.897 163.386,85.613 138.470,109.307 123.828 C 114.673 120.512,115.227 118.877,112.110 115.545 C 109.604 112.866,108.070 112.158,104.200 111.896 L 101.000 111.678 104.294 112.381 M204.600 114.400 C 204.458 114.629,202.396 114.800,199.776 114.800 C 196.992 114.800,195.200 114.643,195.200 114.400 C 195.200 114.155,197.075 114.000,200.024 114.000 C 203.137 114.000,204.760 114.142,204.600 114.400 M116.200 125.041 C 90.854 137.968,34.420 190.584,35.308 200.460 C 35.992 208.075,67.032 239.802,92.707 259.129 C 152.837 304.393,205.128 312.872,262.316 286.629 C 276.719 280.019,276.721 280.013,267.132 270.532 C 261.201 264.667,260.331 264.112,257.737 264.533 L 256.318 264.763 256.577 263.381 C 257.027 260.984,256.018 259.794,239.872 243.682 L 224.157 228.000 222.379 228.001 C 221.259 228.002,220.081 228.323,219.200 228.865 C 209.232 235.002,196.698 236.381,187.788 232.322 C 184.750 230.938,187.542 230.381,191.037 231.674 C 201.049 235.376,221.682 229.451,218.659 223.741 C 218.327 223.113,208.723 213.285,197.318 201.900 C 174.109 178.731,175.095 179.507,172.613 182.457 C 165.572 190.826,165.653 207.620,172.786 218.200 C 174.954 221.414,174.440 222.874,172.094 220.169 C 163.788 210.591,163.484 194.941,171.325 180.640 C 173.396 176.864,174.064 177.760,155.143 158.926 C 139.759 143.612,139.331 143.261,136.672 143.760 L 135.348 144.008 135.523 141.600 L 135.697 139.191 128.748 132.147 C 120.278 123.560,119.721 123.245,116.200 125.041 M120.223 125.609 C 121.431 126.068,131.481 135.749,133.253 138.160 C 135.061 140.619,134.839 141.586,131.457 145.978 C 97.210 190.452,111.459 253.344,161.437 278.310 C 191.818 293.486,227.983 289.532,254.926 268.088 C 259.635 264.340,260.246 264.561,268.262 272.905 C 274.721 279.628,274.662 279.758,262.600 285.305 C 209.205 309.862,161.729 304.547,106.800 267.862 C 77.020 247.973,36.400 208.731,36.400 199.849 C 36.400 190.924,81.901 147.862,110.395 129.821 C 117.963 125.030,118.309 124.881,120.223 125.609 M154.658 160.468 C 163.073 168.865,170.171 176.246,170.429 176.871 C 170.858 177.905,170.703 178.389,168.693 182.303 C 162.021 195.292,162.474 208.918,169.944 219.918 C 172.700 223.976,174.893 225.051,176.235 223.003 C 177.069 221.731,176.764 220.424,175.014 217.762 C 171.149 211.884,169.460 206.481,169.460 200.000 C 169.460 192.470,172.655 183.600,175.367 183.600 C 176.169 183.600,216.800 223.743,216.800 224.535 C 216.800 228.858,201.476 232.144,192.544 229.737 C 184.848 227.663,181.914 228.659,184.981 232.305 C 189.418 237.577,206.997 237.184,217.510 231.578 C 223.366 228.456,221.451 227.282,238.916 244.700 C 257.532 263.267,256.742 261.969,251.849 265.921 C 227.066 285.937,190.987 289.410,161.978 274.571 C 116.654 251.387,102.264 193.282,131.621 152.000 C 138.229 142.709,136.060 141.912,154.658 160.468 M195.200 167.586 C 188.235 168.456,181.200 172.245,181.200 175.127 C 181.200 176.634,220.690 217.043,223.741 218.659 C 230.050 221.999,235.442 200.475,231.104 189.268 C 225.216 174.058,211.191 165.589,195.200 167.586 M207.155 170.208 C 223.863 174.255,234.019 190.965,229.772 207.418 C 228.575 212.059,226.611 215.956,225.211 216.474 C 224.034 216.910,183.600 176.966,183.600 175.367 C 183.600 173.753,187.152 171.732,192.239 170.453 C 198.476 168.885,201.490 168.835,207.155 170.208 M114.800 199.776 C 114.800 202.396,114.629 204.458,114.400 204.600 C 114.142 204.760,114.000 203.137,114.000 200.024 C 114.000 197.075,114.155 195.200,114.400 195.200 C 114.643 195.200,114.800 196.992,114.800 199.776 M286.166 202.800 C 285.919 205.228,285.807 205.571,285.578 204.600 C 285.195 202.978,285.145 198.565,285.488 196.600 L 285.766 195.000 286.118 197.400 C 286.312 198.720,286.333 201.150,286.166 202.800 M30.523 208.892 C 28.422 209.567,28.628 210.219,30.891 210.059 C 33.331 209.885,33.732 210.234,41.173 219.000 C 66.474 248.806,104.200 277.724,137.200 292.606 C 139.950 293.846,143.640 295.555,145.400 296.403 C 147.160 297.251,149.257 298.211,150.060 298.535 C 151.636 299.173,152.539 301.221,151.640 302.120 C 151.081 302.679,151.064 303.331,151.618 302.989 C 151.847 302.847,152.289 302.942,152.600 303.200 C 152.911 303.458,153.353 303.553,153.582 303.411 C 153.812 303.269,154.000 303.354,154.000 303.600 C 154.000 303.846,154.180 303.936,154.400 303.800 C 154.620 303.664,154.800 303.773,154.800 304.043 C 154.800 304.313,154.918 304.415,155.063 304.270 C 155.208 304.125,155.597 304.230,155.928 304.503 C 156.408 304.899,156.564 304.898,156.699 304.498 C 156.792 304.221,157.033 304.097,157.234 304.221 C 157.669 304.490,157.718 302.404,157.293 301.737 C 157.131 301.482,156.324 301.147,155.500 300.992 C 154.437 300.793,153.856 300.409,153.501 299.670 C 153.225 299.098,152.550 298.411,152.000 298.145 C 148.599 296.498,144.294 294.521,139.400 292.361 C 105.326 277.318,66.218 247.439,41.103 217.261 C 36.141 211.299,33.194 208.358,32.262 208.441 C 32.008 208.463,31.225 208.666,30.523 208.892 M364.372 211.073 C 362.926 212.573,359.957 215.960,357.773 218.600 C 343.230 236.184,318.205 258.214,296.810 272.267 C 286.013 279.359,285.225 280.163,286.567 282.720 C 288.242 285.911,291.420 287.794,295.800 288.190 C 297.560 288.350,299.270 288.687,299.600 288.940 C 300.122 289.340,300.129 289.309,299.651 288.700 C 299.349 288.315,298.719 287.996,298.251 287.992 C 294.251 287.952,290.121 285.972,288.172 283.159 C 286.349 280.529,286.420 280.451,297.140 273.358 C 320.247 258.068,345.267 235.859,360.400 217.207 C 363.413 213.494,367.244 209.600,367.886 209.600 C 368.061 209.600,368.765 209.761,369.449 209.957 C 371.010 210.404,372.084 209.887,370.904 209.256 C 368.294 207.859,367.168 208.172,364.372 211.073 M282.092 221.068 C 280.047 221.890,279.869 227.200,281.886 227.200 C 283.471 227.200,284.818 221.600,283.367 221.043 C 283.019 220.909,282.704 220.814,282.667 220.832 C 282.630 220.849,282.371 220.955,282.092 221.068 M277.577 233.189 C 276.508 233.814,273.477 240.657,273.764 241.798 C 274.398 244.324,276.422 242.897,278.569 238.411 C 280.640 234.085,280.181 231.665,277.577 233.189 M276.600 284.727 C 275.720 285.102,271.850 286.961,268.000 288.856 C 264.150 290.752,259.380 292.969,257.400 293.782 C 255.420 294.596,253.080 295.666,252.200 296.162 C 251.320 296.657,249.728 297.384,248.663 297.778 C 247.228 298.309,246.626 298.781,246.340 299.600 C 246.034 300.479,245.632 300.757,244.377 300.957 C 243.510 301.096,242.780 301.342,242.755 301.505 C 242.463 303.435,242.470 304.404,242.775 304.215 C 242.979 304.090,243.263 304.179,243.408 304.413 C 243.591 304.708,243.825 304.712,244.172 304.423 C 244.448 304.194,244.792 304.125,244.937 304.270 C 245.082 304.415,245.200 304.313,245.200 304.043 C 245.200 303.773,245.368 303.656,245.572 303.783 C 245.777 303.909,246.060 303.827,246.200 303.600 C 246.340 303.373,246.602 303.278,246.782 303.389 C 247.267 303.689,247.813 302.763,247.956 301.400 C 248.148 299.564,248.657 298.908,250.297 298.384 C 251.124 298.119,252.340 297.579,253.000 297.184 C 253.660 296.789,255.730 295.801,257.600 294.988 C 259.470 294.176,264.856 291.627,269.569 289.324 C 279.450 284.496,279.652 284.466,282.359 287.401 C 284.106 289.297,284.519 291.383,283.617 293.755 C 283.313 294.556,283.348 294.718,283.793 294.548 C 285.547 293.874,284.927 288.266,282.882 286.311 C 280.284 283.828,279.291 283.578,276.600 284.727 M204.400 285.574 C 205.159 285.797,204.704 285.942,202.513 286.173 C 199.244 286.519,194.862 286.102,196.200 285.573 C 197.200 285.177,203.054 285.178,204.400 285.574 " stroke="none" fill="#515470" fill-rule="evenodd"></path><path id="path5" d="M149.369 99.024 C 149.226 99.787,148.814 100.583,148.454 100.793 C 147.896 101.120,147.928 101.177,148.676 101.188 C 149.652 101.201,149.911 100.904,150.395 99.216 C 150.639 98.366,150.582 98.002,150.179 97.847 C 149.802 97.703,149.547 98.074,149.369 99.024 M249.795 98.008 C 249.120 99.100,250.410 101.099,251.947 101.345 C 252.782 101.479,253.779 101.934,254.162 102.358 C 254.545 102.782,255.341 103.247,255.929 103.393 C 258.276 103.975,278.253 114.135,285.400 118.381 C 313.331 134.978,340.524 157.905,360.667 181.840 C 366.806 189.134,368.995 190.750,370.167 188.854 C 370.285 188.663,369.811 188.574,369.114 188.655 C 367.516 188.841,367.147 188.498,359.811 180.000 C 339.199 156.124,313.680 134.674,286.654 118.509 C 279.692 114.345,258.058 103.203,256.931 103.201 C 256.673 103.200,255.953 102.776,255.331 102.258 C 254.709 101.739,253.516 101.190,252.679 101.036 C 251.110 100.747,250.757 100.322,250.658 98.602 C 250.598 97.560,250.229 97.306,249.795 98.008 M190.400 100.652 C 176.268 102.369,170.019 103.690,158.224 107.457 C 148.185 110.662,130.844 118.308,129.064 120.313 C 127.941 121.578,128.475 122.514,132.952 127.135 C 140.411 134.835,140.124 134.775,146.545 129.955 C 174.035 109.319,209.799 106.055,240.000 121.425 C 261.451 132.343,277.567 151.625,284.619 174.808 C 288.559 187.762,289.516 210.824,286.300 215.340 C 285.732 216.138,285.647 216.455,286.033 216.334 C 289.093 215.376,289.744 195.776,287.140 183.021 C 279.858 147.357,253.333 120.696,217.400 112.925 C 209.405 111.196,190.465 111.210,182.600 112.951 C 168.673 116.034,157.241 121.232,146.316 129.446 C 140.235 134.018,140.687 134.085,134.306 127.656 C 127.486 120.786,127.401 121.222,136.400 116.824 C 195.428 87.975,252.283 98.746,316.066 150.861 C 335.789 166.976,362.400 194.990,362.400 199.638 C 362.400 209.153,310.629 257.119,284.357 271.946 C 280.666 274.029,280.696 274.043,273.526 266.874 C 266.244 259.592,266.222 259.542,268.798 256.203 C 270.719 253.712,271.508 251.748,270.850 251.090 C 270.517 250.757,270.400 250.961,270.400 251.876 C 270.400 252.707,269.826 253.892,268.647 255.494 C 265.476 259.801,265.489 259.832,274.005 268.162 C 280.130 274.154,280.778 274.506,283.296 273.204 C 304.894 262.044,350.981 220.782,361.956 202.779 C 364.015 199.402,362.425 196.547,351.628 184.229 C 320.703 148.946,276.882 118.422,240.800 107.030 C 224.697 101.946,202.681 99.160,190.400 100.652 M144.931 102.145 C 144.309 102.665,143.350 103.228,142.800 103.396 C 142.250 103.564,137.434 105.839,132.098 108.451 C 120.515 114.121,120.243 114.162,117.851 110.638 C 117.162 109.621,116.800 109.332,116.800 109.797 C 116.800 110.789,120.116 114.000,121.141 114.000 C 121.607 114.000,126.535 111.781,132.094 109.070 C 137.652 106.358,142.830 103.899,143.600 103.605 C 144.370 103.311,145.360 102.763,145.800 102.386 C 146.240 102.010,146.870 101.603,147.200 101.482 C 147.603 101.335,147.514 101.253,146.931 101.232 C 146.453 101.214,145.553 101.625,144.931 102.145 M106.800 114.043 C 112.619 117.537,112.412 118.871,105.346 123.427 C 81.414 138.859,56.114 161.070,38.625 182.000 C 33.987 187.550,32.493 188.924,31.139 188.886 C 30.512 188.868,30.000 188.991,30.000 189.159 C 30.000 189.327,30.585 189.435,31.300 189.401 C 32.852 189.325,34.419 187.902,39.007 182.400 C 55.886 162.160,80.636 140.251,103.400 125.398 C 112.340 119.565,112.575 119.293,110.799 116.799 C 109.976 115.643,106.601 113.199,105.831 113.201 C 105.594 113.202,106.030 113.581,106.800 114.043 M114.000 128.527 C 87.703 144.869,56.410 172.672,40.758 193.602 C 35.821 200.203,35.952 200.908,43.898 210.515 C 63.831 234.617,92.963 259.334,120.000 275.085 C 171.956 305.352,216.923 307.507,267.310 282.144 C 272.894 279.333,272.877 278.903,266.941 272.790 C 259.830 265.467,259.657 265.411,255.200 268.983 C 242.575 279.103,229.353 284.684,210.606 287.806 C 202.504 289.155,184.619 287.563,175.000 284.635 C 127.258 270.107,100.745 219.511,116.243 172.507 C 119.404 162.921,123.720 154.796,130.237 146.163 C 134.820 140.090,134.958 140.547,125.873 131.700 C 119.251 125.251,119.265 125.255,114.000 128.527 M120.320 127.368 C 120.914 127.680,123.965 130.529,127.100 133.699 C 134.144 140.821,134.031 140.183,129.355 146.411 C 121.292 157.153,116.006 168.704,113.083 181.973 L 111.800 187.800 111.809 200.200 L 111.818 212.600 113.112 218.200 C 128.168 283.359,202.089 310.206,255.090 269.765 C 259.722 266.231,259.477 266.172,265.689 272.338 C 272.448 279.047,272.446 278.870,265.780 282.228 C 212.982 308.827,163.501 303.960,107.600 266.672 C 83.314 250.471,57.778 227.420,42.513 207.918 C 36.485 200.218,36.478 199.962,42.062 192.794 C 58.917 171.160,87.812 145.586,113.762 129.334 C 118.055 126.645,118.622 126.475,120.320 127.368 M30.600 210.827 C 29.425 211.100,29.579 211.180,31.600 211.349 C 32.756 211.445,33.998 212.632,38.272 217.724 C 62.784 246.929,96.747 274.004,129.174 290.187 C 137.928 294.556,142.280 296.624,143.447 296.970 C 143.913 297.108,144.616 297.576,145.009 298.010 C 145.402 298.445,146.048 298.800,146.443 298.800 C 147.357 298.800,149.184 299.623,149.250 300.064 C 149.278 300.249,149.322 300.732,149.350 301.139 C 149.409 302.013,150.319 303.200,150.929 303.200 C 151.210 303.200,151.193 303.033,150.880 302.720 C 150.616 302.456,150.400 301.764,150.400 301.182 C 150.400 299.908,149.441 298.983,147.749 298.624 C 147.061 298.478,145.901 297.918,145.172 297.379 C 144.442 296.841,143.696 296.400,143.514 296.400 C 143.071 296.400,137.674 293.845,129.400 289.718 C 97.014 273.566,62.711 246.169,38.353 217.000 C 33.190 210.818,32.616 210.360,30.600 210.827 M367.894 210.710 C 367.048 210.891,364.397 213.658,360.205 218.734 C 344.670 237.545,319.261 259.930,296.725 274.658 C 287.532 280.666,287.432 280.785,289.414 283.383 C 290.476 284.775,293.235 286.800,294.070 286.800 C 294.338 286.800,293.744 286.284,292.750 285.654 C 287.306 282.202,287.662 281.359,297.263 274.956 C 321.572 258.744,346.113 236.961,361.880 217.600 C 365.918 212.642,367.617 211.171,369.108 211.345 C 369.808 211.426,370.298 211.359,370.197 211.195 C 369.941 210.781,368.740 210.528,367.894 210.710 M285.133 220.201 C 284.995 220.338,284.973 221.126,285.084 221.952 C 285.312 223.648,283.930 227.375,282.850 227.980 C 282.496 228.178,282.356 228.488,282.539 228.670 C 283.599 229.722,286.271 223.269,285.684 221.075 C 285.518 220.457,285.270 220.063,285.133 220.201 M280.909 233.976 C 280.909 235.962,277.923 242.057,276.267 243.450 C 275.625 243.991,275.214 244.547,275.354 244.687 C 275.888 245.221,277.960 242.619,279.597 239.360 C 281.239 236.092,282.146 232.400,281.307 232.400 C 281.088 232.400,280.909 233.109,280.909 233.976 M270.200 289.927 C 261.596 294.186,255.934 296.800,255.312 296.800 C 255.098 296.800,254.607 297.150,254.221 297.577 C 253.834 298.005,252.951 298.475,252.259 298.622 C 250.541 298.986,249.600 299.909,249.600 301.229 C 249.600 301.836,249.375 302.414,249.100 302.512 C 248.825 302.610,248.723 302.823,248.874 302.986 C 249.333 303.480,250.637 302.259,250.675 301.300 C 250.695 300.805,250.731 300.249,250.756 300.064 C 250.814 299.626,252.639 298.800,253.549 298.800 C 253.940 298.800,254.669 298.365,255.168 297.834 C 255.667 297.302,256.541 296.751,257.109 296.608 C 258.436 296.275,261.687 294.757,270.509 290.351 C 279.259 285.981,280.166 285.923,282.361 289.600 C 282.910 290.520,283.198 290.755,283.199 290.285 C 283.201 289.310,280.434 286.482,279.200 286.197 C 278.451 286.024,276.190 286.961,270.200 289.927 " stroke="none" fill="#b0b1aa" fill-rule="evenodd"></path><path id="path6" d="M153.300 96.088 C 152.805 96.327,152.400 96.697,152.400 96.910 C 152.400 97.132,152.630 97.107,152.937 96.852 C 153.232 96.607,153.592 96.525,153.737 96.670 C 153.882 96.815,154.000 96.713,154.000 96.443 C 154.000 96.173,154.180 96.064,154.400 96.200 C 154.620 96.336,154.800 96.257,154.800 96.024 C 154.800 95.508,154.474 95.522,153.300 96.088 M149.193 97.096 C 151.388 97.957,150.730 100.775,148.213 101.296 C 147.341 101.476,146.261 101.949,145.813 102.347 C 145.366 102.745,144.370 103.311,143.600 103.605 C 142.830 103.899,137.652 106.358,132.094 109.070 C 126.535 111.781,121.607 114.000,121.141 114.000 C 120.066 114.000,116.816 110.783,116.750 109.653 C 116.722 109.184,116.668 108.575,116.629 108.300 C 116.590 108.025,116.690 107.305,116.851 106.700 C 117.145 105.597,116.667 105.128,116.279 106.138 C 115.440 108.325,116.206 111.259,118.078 113.028 C 120.728 115.532,120.808 115.514,132.837 109.657 C 138.647 106.829,144.061 104.300,144.868 104.037 C 145.675 103.774,146.544 103.308,146.799 103.001 C 147.053 102.695,148.134 102.154,149.200 101.800 C 153.113 100.500,153.513 96.725,149.726 96.832 C 149.078 96.850,148.851 96.962,149.193 97.096 M248.462 97.325 C 247.531 98.447,248.395 100.840,249.960 101.473 C 250.752 101.794,252.840 102.749,254.600 103.596 C 256.360 104.443,260.950 106.613,264.800 108.419 C 297.744 123.870,333.997 151.719,357.937 179.968 C 364.403 187.599,366.873 190.074,368.018 190.074 C 369.961 190.074,371.790 189.866,371.300 189.702 C 371.025 189.609,370.800 189.242,370.800 188.887 C 370.800 188.384,370.693 188.347,370.320 188.720 C 368.553 190.487,367.032 189.404,360.667 181.840 C 340.524 157.905,313.331 134.978,285.400 118.381 C 278.253 114.135,258.276 103.975,255.929 103.393 C 255.341 103.247,254.545 102.782,254.162 102.358 C 253.779 101.934,252.782 101.479,251.947 101.345 C 249.530 100.959,248.825 98.051,250.941 97.197 C 251.666 96.905,251.573 96.847,250.349 96.825 C 249.551 96.811,248.702 97.036,248.462 97.325 M188.000 100.017 C 169.961 102.203,153.417 107.162,135.357 115.798 C 125.653 120.437,125.576 120.710,132.100 127.463 C 140.196 135.844,140.197 135.844,146.753 130.886 C 196.413 93.333,267.020 116.726,284.165 176.412 C 288.842 192.693,288.444 215.944,283.486 216.006 C 283.148 216.010,283.166 216.117,283.544 216.357 C 289.215 219.950,289.931 192.273,284.619 174.808 C 270.081 127.013,219.156 100.606,172.019 116.420 C 162.712 119.543,154.853 123.719,146.545 129.955 C 140.124 134.775,140.411 134.835,132.952 127.135 C 126.853 120.840,126.824 120.947,135.800 116.534 C 184.109 92.780,228.872 95.311,279.523 124.662 C 307.821 141.059,340.001 168.675,358.455 192.400 C 364.205 199.792,364.209 200.093,358.664 207.379 C 344.353 226.184,316.382 251.529,292.400 267.420 C 280.092 275.576,281.525 275.519,274.005 268.162 C 265.489 259.832,265.476 259.801,268.647 255.494 C 270.656 252.765,271.053 250.378,269.626 249.614 C 268.514 249.019,268.247 249.104,268.966 249.823 C 269.993 250.851,269.426 253.001,267.414 255.709 C 264.446 259.704,264.841 260.504,274.323 269.688 C 280.887 276.046,280.528 276.006,288.137 271.239 C 314.299 254.852,348.388 224.015,361.502 204.872 C 365.208 199.464,364.686 198.122,354.084 185.800 C 321.344 147.746,275.901 116.353,237.200 105.052 C 221.802 100.556,201.064 98.434,188.000 100.017 M104.067 112.758 C 109.268 114.099,112.874 117.850,111.100 120.074 C 110.825 120.419,107.360 122.815,103.400 125.398 C 80.636 140.251,55.872 162.173,39.008 182.400 C 33.294 189.253,30.583 190.991,29.144 188.722 C 28.896 188.333,28.811 188.380,28.806 188.910 C 28.800 189.647,30.243 190.400,31.661 190.400 C 32.827 190.400,35.845 187.594,39.570 183.048 C 55.309 163.839,79.678 142.141,102.527 126.991 C 106.307 124.484,110.070 121.981,110.890 121.428 C 114.630 118.903,111.373 113.910,105.110 112.567 C 101.572 111.808,100.876 111.935,104.067 112.758 M198.291 117.489 C 199.001 117.577,200.261 117.579,201.091 117.492 C 201.921 117.405,201.340 117.333,199.800 117.331 C 198.260 117.329,197.581 117.400,198.291 117.489 M116.594 126.053 C 91.041 139.723,36.400 190.005,36.400 199.849 C 36.400 207.093,68.468 239.798,94.600 259.205 C 154.463 303.665,205.455 311.587,262.600 285.305 C 274.662 279.758,274.721 279.628,268.262 272.905 C 260.246 264.561,259.635 264.340,254.926 268.088 C 227.983 289.532,191.818 293.486,161.437 278.310 C 111.459 253.344,97.210 190.452,131.457 145.978 C 135.835 140.292,135.816 140.232,126.703 131.309 C 120.132 124.875,119.454 124.523,116.594 126.053 M125.873 131.700 C 134.958 140.547,134.820 140.090,130.237 146.163 C 112.244 169.999,107.137 199.774,116.271 227.600 C 125.215 254.850,147.162 276.164,175.000 284.635 C 184.619 287.563,202.504 289.155,210.606 287.806 C 229.353 284.684,242.575 279.103,255.200 268.983 C 259.657 265.411,259.830 265.467,266.941 272.790 C 272.877 278.903,272.894 279.333,267.310 282.144 C 209.204 311.393,155.690 303.899,94.252 257.910 C 70.199 239.905,38.531 208.045,37.329 200.642 C 36.090 193.004,76.985 153.226,106.389 133.469 C 119.717 124.513,118.598 124.615,125.873 131.700 M151.000 143.600 C 153.192 145.800,155.075 147.600,155.185 147.600 C 155.295 147.600,153.592 145.800,151.400 143.600 C 149.208 141.400,147.325 139.600,147.215 139.600 C 147.105 139.600,148.808 141.400,151.000 143.600 M154.000 161.800 C 162.028 169.830,168.686 176.400,168.796 176.400 C 168.906 176.400,162.428 169.830,154.400 161.800 C 146.372 153.770,139.714 147.200,139.604 147.200 C 139.494 147.200,145.972 153.770,154.000 161.800 M117.328 200.000 C 117.328 201.430,117.401 202.015,117.489 201.300 C 117.578 200.585,117.578 199.415,117.489 198.700 C 117.401 197.985,117.328 198.570,117.328 200.000 M282.493 204.000 C 282.493 204.770,282.575 205.085,282.676 204.700 C 282.776 204.315,282.776 203.685,282.676 203.300 C 282.575 202.915,282.493 203.230,282.493 204.000 M365.570 211.460 C 364.425 212.527,362.099 215.113,360.400 217.207 C 345.267 235.859,320.247 258.068,297.140 273.358 C 286.420 280.451,286.349 280.529,288.172 283.159 C 289.930 285.696,293.366 287.680,295.797 287.561 C 296.239 287.539,295.874 287.314,294.987 287.061 C 291.809 286.153,288.400 283.169,288.400 281.296 C 288.400 280.233,289.334 279.488,296.725 274.658 C 319.261 259.930,344.670 237.545,360.205 218.734 C 365.904 211.833,367.125 210.705,368.866 210.729 C 369.710 210.740,370.400 210.581,370.400 210.375 C 370.400 210.169,370.175 209.998,369.900 209.995 C 369.625 209.992,369.007 209.884,368.526 209.755 C 367.857 209.575,367.161 209.977,365.570 211.460 M29.067 210.267 C 28.920 210.413,28.803 210.818,28.806 211.167 C 28.811 211.633,28.896 211.668,29.130 211.300 C 30.519 209.112,33.095 210.704,38.353 217.000 C 62.711 246.169,97.014 273.566,129.400 289.718 C 137.674 293.845,143.071 296.400,143.514 296.400 C 143.696 296.400,144.442 296.841,145.172 297.379 C 145.901 297.918,147.061 298.478,147.749 298.624 C 149.463 298.987,150.400 299.912,150.400 301.238 C 150.400 302.575,150.929 303.008,151.590 302.212 C 152.493 301.124,151.690 299.195,150.060 298.535 C 149.257 298.211,147.160 297.251,145.400 296.403 C 143.640 295.555,139.950 293.846,137.200 292.606 C 104.682 277.941,65.923 248.360,42.082 220.013 C 34.732 211.274,33.345 210.000,31.178 210.000 C 30.164 210.000,29.213 210.120,29.067 210.267 M283.171 220.254 C 285.210 222.847,283.419 227.600,280.403 227.600 C 279.935 227.600,279.664 227.780,279.800 228.000 C 280.080 228.454,281.598 228.529,282.614 228.139 C 285.451 227.051,285.739 219.200,282.942 219.200 C 282.467 219.200,282.514 219.419,283.171 220.254 M278.660 231.598 C 282.216 233.032,277.482 243.300,273.265 243.300 C 272.305 243.300,272.290 243.330,273.001 243.850 C 274.732 245.116,276.462 244.003,278.524 240.297 C 281.664 234.652,281.693 231.157,278.600 231.231 C 277.843 231.250,277.846 231.269,278.660 231.598 M238.600 246.400 C 246.518 254.320,253.086 260.800,253.196 260.800 C 253.306 260.800,246.918 254.320,239.000 246.400 C 231.082 238.480,224.514 232.000,224.404 232.000 C 224.294 232.000,230.682 238.480,238.600 246.400 M256.600 249.200 C 258.350 250.960,259.871 252.400,259.981 252.400 C 260.091 252.400,258.750 250.960,257.000 249.200 C 255.250 247.440,253.729 246.000,253.619 246.000 C 253.509 246.000,254.850 247.440,256.600 249.200 M273.400 287.443 C 270.980 288.696,266.300 290.961,263.000 292.475 C 259.700 293.989,255.740 295.842,254.200 296.592 C 252.660 297.342,250.731 298.223,249.914 298.551 C 248.481 299.126,248.186 299.599,247.886 301.800 C 247.826 302.240,247.636 302.825,247.465 303.100 C 247.289 303.382,247.338 303.600,247.576 303.600 C 247.809 303.600,248.000 303.409,248.000 303.176 C 248.000 302.943,248.208 302.881,248.462 303.038 C 248.748 303.215,248.815 303.148,248.638 302.862 C 248.469 302.588,248.607 302.400,248.976 302.400 C 249.395 302.400,249.600 302.026,249.600 301.262 C 249.600 299.911,250.528 298.989,252.259 298.622 C 252.951 298.475,253.834 298.005,254.221 297.577 C 254.607 297.150,255.098 296.800,255.312 296.800 C 255.934 296.800,261.596 294.186,270.200 289.927 C 279.007 285.567,279.231 285.523,281.508 287.714 C 282.984 289.134,283.702 291.241,283.393 293.246 C 283.231 294.297,283.270 294.421,283.564 293.800 C 284.567 291.687,284.087 289.245,282.300 287.363 C 279.722 284.649,278.778 284.657,273.400 287.443 M153.431 303.551 C 153.170 303.972,155.508 305.025,155.879 304.654 C 156.019 304.514,155.846 304.400,155.495 304.400 C 155.144 304.400,154.586 304.129,154.254 303.797 C 153.922 303.465,153.552 303.354,153.431 303.551 M245.200 304.056 C 245.200 304.213,244.975 304.418,244.700 304.512 C 244.425 304.606,244.650 304.607,245.200 304.513 C 246.489 304.294,247.207 303.619,246.060 303.705 C 245.587 303.741,245.200 303.899,245.200 304.056 " stroke="none" fill="#848484" fill-rule="evenodd"></path><path id="path7" d="M148.200 97.600 C 147.760 97.789,147.636 97.956,147.924 97.972 C 148.805 98.019,148.012 98.800,147.076 98.806 C 146.432 98.811,146.344 98.903,146.743 99.156 C 147.388 99.565,146.964 99.882,145.391 100.167 C 144.758 100.282,143.812 100.922,143.290 101.588 C 142.769 102.255,142.073 102.800,141.745 102.800 C 141.417 102.800,136.719 104.988,131.305 107.663 C 121.928 112.296,121.413 112.499,120.440 111.953 C 119.011 111.151,117.508 108.796,117.719 107.690 C 117.935 106.560,117.346 106.109,117.015 107.152 C 116.430 108.994,119.339 113.200,121.197 113.200 C 121.602 113.200,126.507 110.950,132.098 108.200 C 137.688 105.450,142.532 103.200,142.861 103.200 C 143.191 103.200,143.883 102.750,144.400 102.200 C 144.917 101.650,145.677 101.200,146.090 101.200 C 147.399 101.200,149.195 100.053,148.938 99.382 C 148.809 99.045,149.023 98.417,149.413 97.985 C 150.196 97.121,149.689 96.960,148.200 97.600 M250.805 98.214 C 251.017 98.772,251.148 99.427,251.095 99.670 C 251.043 99.913,251.982 100.459,253.182 100.884 C 254.382 101.308,255.607 102.003,255.904 102.428 C 256.202 102.852,256.731 103.200,257.081 103.200 C 257.799 103.200,260.574 104.495,271.239 109.811 C 303.048 125.663,337.372 152.975,361.463 181.603 C 366.693 187.818,367.378 188.400,369.459 188.400 C 370.979 188.400,372.039 187.677,370.700 187.554 C 370.425 187.528,370.020 187.466,369.800 187.415 C 369.580 187.364,369.110 187.294,368.755 187.261 C 367.622 187.154,365.387 185.073,362.009 180.982 C 342.716 157.609,313.121 132.777,284.800 116.196 C 278.365 112.429,261.156 103.644,258.484 102.762 C 257.732 102.514,256.953 101.895,256.704 101.348 C 256.398 100.677,255.728 100.242,254.535 99.942 C 253.586 99.703,252.891 99.376,252.991 99.214 C 253.252 98.792,251.674 97.200,250.994 97.200 C 250.545 97.200,250.504 97.420,250.805 98.214 M195.400 101.062 C 176.730 102.018,156.161 107.585,136.600 116.975 C 127.835 121.183,127.873 120.938,134.919 127.904 C 140.868 133.785,140.268 133.713,146.248 129.264 C 157.102 121.189,169.120 115.589,180.800 113.164 C 182.890 112.730,185.590 112.158,186.800 111.892 C 191.917 110.769,210.659 111.278,217.400 112.725 C 260.256 121.918,288.600 156.821,288.600 200.400 C 288.600 213.712,288.541 214.089,285.962 217.264 C 285.208 218.192,285.155 218.495,285.548 219.624 C 286.591 222.615,285.575 226.449,283.105 228.846 C 281.572 230.334,281.531 230.443,281.792 232.344 C 282.288 235.949,278.583 243.235,275.264 245.182 C 273.293 246.338,271.609 248.823,271.593 250.600 C 271.580 252.068,270.468 254.588,269.121 256.200 C 266.418 259.436,266.479 259.570,274.068 267.051 C 280.788 273.676,280.842 273.703,283.913 271.974 C 309.834 257.381,362.000 209.312,362.000 200.021 C 362.000 196.924,351.783 184.612,337.540 170.545 C 291.342 124.918,238.073 98.878,195.400 101.062 M206.000 101.989 C 215.028 102.844,221.605 103.701,224.400 104.385 C 226.050 104.789,228.120 105.238,229.000 105.383 C 231.519 105.798,243.132 109.331,247.400 110.979 C 255.074 113.944,257.360 114.948,264.837 118.641 C 291.682 131.900,316.603 150.384,340.612 174.845 C 351.120 185.550,360.429 196.584,361.055 199.076 C 363.060 207.064,304.926 261.038,283.142 271.414 C 280.903 272.480,280.228 272.067,274.099 265.886 C 267.713 259.445,267.719 259.458,269.958 256.456 C 270.815 255.307,271.725 253.790,271.981 253.084 C 273.118 249.942,274.730 247.301,276.537 245.618 C 279.183 243.155,282.800 235.982,282.800 233.197 C 282.800 231.815,283.083 230.896,283.861 229.756 C 286.022 226.586,286.792 224.379,286.796 221.345 C 286.799 218.958,287.013 218.039,288.100 215.745 L 289.400 213.000 289.386 200.200 L 289.372 187.400 288.059 181.800 C 272.756 116.529,199.032 88.845,145.918 128.423 C 140.423 132.517,140.776 132.561,135.306 127.107 C 129.820 121.636,129.766 121.406,133.500 119.410 C 155.242 107.784,186.896 100.178,206.000 101.989 M105.622 114.346 C 111.183 117.931,110.967 118.646,102.703 124.000 C 81.205 137.928,54.910 160.928,39.805 179.016 C 33.442 186.637,31.841 188.072,30.820 187.069 C 30.558 186.811,30.401 186.780,30.471 187.000 C 30.542 187.220,30.436 187.429,30.236 187.464 C 29.739 187.552,29.070 188.804,29.363 189.097 C 29.494 189.227,29.600 189.118,29.600 188.854 C 29.600 188.558,30.119 188.410,30.961 188.467 C 32.680 188.582,33.109 188.189,39.321 180.800 C 55.115 162.013,79.975 140.038,101.600 125.748 C 109.664 120.419,110.800 119.538,110.800 118.615 C 110.800 117.699,108.066 114.850,106.343 113.971 C 104.063 112.808,103.605 113.046,105.622 114.346 M116.645 127.724 C 85.879 147.134,49.936 179.425,38.844 197.621 C 36.631 201.250,41.690 208.342,59.190 226.145 C 114.372 282.280,174.026 307.315,226.000 296.150 C 243.440 292.404,270.800 281.536,270.800 278.355 C 270.800 277.668,261.190 267.998,260.074 267.562 C 258.930 267.115,258.224 267.471,254.800 270.218 C 244.925 278.142,231.538 284.339,217.958 287.271 L 211.800 288.600 200.200 288.600 C 149.957 288.600,111.433 250.149,111.433 200.000 C 111.433 178.831,116.601 163.250,129.261 146.248 C 133.797 140.157,133.983 141.010,126.486 133.514 C 119.762 126.790,118.915 126.291,116.645 127.724 M125.670 133.883 C 132.762 140.918,132.616 140.290,128.452 145.878 C 94.518 191.418,109.648 255.111,160.462 280.631 C 165.556 283.189,174.344 286.398,178.593 287.251 C 179.697 287.473,182.130 288.047,184.000 288.527 C 189.120 289.841,211.312 289.847,216.200 288.535 C 217.960 288.062,220.210 287.546,221.200 287.387 C 229.799 286.005,244.139 279.207,254.026 271.825 C 259.721 267.573,259.237 267.532,264.493 272.700 C 270.979 279.077,271.036 278.579,263.400 282.229 C 243.360 291.809,228.422 295.939,206.200 298.045 C 161.937 302.240,98.205 268.781,51.446 216.800 C 37.309 201.085,37.195 200.781,42.730 193.600 C 58.476 173.171,87.289 147.450,112.297 131.500 C 119.411 126.963,118.538 126.807,125.670 133.883 M29.762 212.062 C 29.585 212.348,29.652 212.415,29.938 212.238 C 30.192 212.081,30.400 212.143,30.400 212.376 C 30.400 212.609,30.805 212.807,31.300 212.816 C 32.547 212.839,34.142 214.316,38.192 219.200 C 62.457 248.463,98.204 276.347,133.316 293.400 C 138.752 296.040,143.199 298.406,143.200 298.657 C 143.200 298.909,143.470 299.218,143.800 299.345 C 144.130 299.471,144.421 299.986,144.446 300.487 C 144.484 301.217,144.531 301.253,144.682 300.666 C 145.023 299.347,148.000 300.549,148.000 302.006 C 148.000 302.396,148.270 302.818,148.600 302.945 C 148.930 303.071,149.200 302.990,149.200 302.764 C 149.200 302.538,149.411 302.483,149.669 302.643 C 149.927 302.802,149.851 302.522,149.499 302.020 C 149.148 301.519,148.942 300.895,149.042 300.634 C 149.223 300.163,146.850 298.800,145.849 298.800 C 145.560 298.800,144.801 298.350,144.162 297.800 C 143.523 297.251,142.757 296.801,142.459 296.800 C 142.161 296.800,141.081 296.350,140.059 295.799 C 139.037 295.249,135.719 293.633,132.687 292.208 C 100.395 277.033,63.575 248.156,38.576 218.400 C 33.127 211.915,30.860 210.284,29.762 212.062 M366.374 212.946 C 365.590 213.636,363.535 215.910,361.808 218.000 C 345.270 238.012,320.687 259.810,297.400 275.111 C 288.147 281.191,288.298 281.000,290.673 283.628 C 292.287 285.415,294.083 286.468,296.727 287.180 C 297.675 287.436,298.738 287.755,299.091 287.890 C 299.466 288.034,299.629 287.971,299.484 287.736 C 299.348 287.516,298.216 287.107,296.969 286.828 C 294.384 286.249,290.199 282.739,290.463 281.369 C 290.541 280.963,293.959 278.409,298.413 275.428 C 322.545 259.279,345.608 238.811,362.112 218.896 C 365.762 214.491,367.784 212.632,368.588 212.940 C 368.911 213.064,369.281 212.993,369.411 212.783 C 369.541 212.572,370.007 212.400,370.447 212.400 C 370.887 212.400,371.143 212.231,371.016 212.025 C 370.477 211.154,367.809 211.684,366.374 212.946 M272.364 289.700 C 264.214 293.798,257.791 296.800,257.172 296.800 C 256.882 296.800,256.184 297.220,255.622 297.734 C 255.060 298.248,253.733 298.987,252.674 299.377 C 251.381 299.853,250.816 300.265,250.956 300.630 C 251.071 300.930,250.984 301.286,250.763 301.423 C 250.496 301.588,250.500 301.839,250.777 302.172 C 251.006 302.448,251.065 302.802,250.909 302.958 C 250.752 303.114,250.934 303.124,251.312 302.978 C 251.690 302.833,252.000 302.458,252.000 302.145 C 252.000 301.831,252.269 301.472,252.598 301.346 C 252.926 301.219,253.109 300.977,253.004 300.807 C 252.899 300.637,253.349 300.390,254.003 300.259 C 254.658 300.128,255.810 299.387,256.563 298.611 C 257.317 297.835,258.149 297.200,258.413 297.200 C 258.677 297.200,263.124 295.130,268.294 292.600 C 278.139 287.783,279.337 287.425,280.680 288.900 C 282.354 290.738,283.039 293.676,281.900 294.135 C 281.583 294.263,281.640 294.348,282.055 294.368 C 284.053 294.465,282.665 289.038,280.327 287.612 C 278.533 286.518,278.863 286.432,272.364 289.700 " stroke="none" fill="#c4c4bd" fill-rule="evenodd"></path><path id="path8" d="M250.800 100.231 C 250.800 100.501,252.878 101.256,253.076 101.057 C 253.167 100.967,252.692 100.701,252.020 100.467 C 251.349 100.233,250.800 100.127,250.800 100.231 M194.707 101.090 C 195.426 101.179,196.506 101.177,197.107 101.086 C 197.708 100.995,197.120 100.922,195.800 100.924 C 194.480 100.926,193.988 101.001,194.707 101.090 M203.907 101.090 C 204.626 101.179,205.706 101.177,206.307 101.086 C 206.908 100.995,206.320 100.922,205.000 100.924 C 203.680 100.926,203.188 101.001,203.907 101.090 M144.370 102.300 L 143.400 103.400 144.600 102.400 C 145.260 101.850,145.875 101.355,145.967 101.300 C 146.058 101.245,145.955 101.200,145.736 101.200 C 145.518 101.200,144.903 101.695,144.370 102.300 M195.700 111.498 C 198.065 111.569,201.935 111.569,204.300 111.498 C 206.665 111.428,204.730 111.370,200.000 111.370 C 195.270 111.370,193.335 111.428,195.700 111.498 M108.000 114.925 C 108.000 114.994,108.585 115.579,109.300 116.225 L 110.600 117.400 109.425 116.100 C 108.330 114.888,108.000 114.616,108.000 114.925 M139.200 115.400 C 138.650 115.714,138.380 115.972,138.600 115.972 C 138.820 115.972,139.450 115.714,140.000 115.400 C 140.550 115.086,140.820 114.828,140.600 114.828 C 140.380 114.828,139.750 115.086,139.200 115.400 M129.862 120.331 C 129.138 121.132,128.992 122.224,129.563 122.577 C 129.762 122.700,129.830 122.435,129.713 121.987 C 129.588 121.513,129.796 120.846,130.212 120.387 C 130.604 119.954,130.834 119.600,130.724 119.600 C 130.614 119.600,130.226 119.929,129.862 120.331 M134.400 127.800 C 136.923 130.330,139.077 132.400,139.187 132.400 C 139.297 132.400,137.323 130.330,134.800 127.800 C 132.277 125.270,130.123 123.200,130.013 123.200 C 129.903 123.200,131.877 125.270,134.400 127.800 M126.400 133.400 C 129.584 136.590,132.280 139.200,132.390 139.200 C 132.500 139.200,129.984 136.590,126.800 133.400 C 123.616 130.210,120.920 127.600,120.810 127.600 C 120.700 127.600,123.216 130.210,126.400 133.400 M262.600 137.200 C 264.571 139.180,266.273 140.800,266.383 140.800 C 266.493 140.800,264.971 139.180,263.000 137.200 C 261.029 135.220,259.327 133.600,259.217 133.600 C 259.107 133.600,260.629 135.220,262.600 137.200 M71.775 148.500 L 70.600 149.800 71.900 148.625 C 72.615 147.979,73.200 147.394,73.200 147.325 C 73.200 147.016,72.870 147.288,71.775 148.500 M332.600 152.400 C 333.459 153.280,334.252 154.000,334.362 154.000 C 334.472 154.000,333.859 153.280,333.000 152.400 C 332.141 151.520,331.348 150.800,331.238 150.800 C 331.128 150.800,331.741 151.520,332.600 152.400 M337.183 156.500 C 338.164 157.545,339.019 158.400,339.083 158.400 C 339.384 158.400,339.066 158.041,337.300 156.383 L 335.400 154.600 337.183 156.500 M59.193 159.900 L 55.000 164.200 59.300 160.007 C 61.665 157.701,63.600 155.766,63.600 155.707 C 63.600 155.418,63.087 155.906,59.193 159.900 M324.600 158.400 C 325.459 159.280,326.252 160.000,326.362 160.000 C 326.472 160.000,325.859 159.280,325.000 158.400 C 324.141 157.520,323.348 156.800,323.238 156.800 C 323.128 156.800,323.741 157.520,324.600 158.400 M74.175 159.300 L 73.000 160.600 74.300 159.425 C 75.512 158.330,75.784 158.000,75.475 158.000 C 75.406 158.000,74.821 158.585,74.175 159.300 M345.200 164.200 C 347.723 166.730,349.877 168.800,349.987 168.800 C 350.097 168.800,348.123 166.730,345.600 164.200 C 343.077 161.670,340.923 159.600,340.813 159.600 C 340.703 159.600,342.677 161.670,345.200 164.200 M328.400 161.800 C 329.146 162.570,329.847 163.200,329.957 163.200 C 330.067 163.200,329.546 162.570,328.800 161.800 C 328.054 161.030,327.353 160.400,327.243 160.400 C 327.133 160.400,327.654 161.030,328.400 161.800 M69.188 163.900 L 66.600 166.600 69.300 164.012 C 70.785 162.588,72.000 161.373,72.000 161.312 C 72.000 161.017,71.593 161.392,69.188 163.900 M338.800 171.800 C 342.866 175.870,346.282 179.200,346.392 179.200 C 346.502 179.200,343.266 175.870,339.200 171.800 C 335.134 167.730,331.718 164.400,331.608 164.400 C 331.498 164.400,334.734 167.730,338.800 171.800 M60.593 172.100 L 56.200 176.600 60.700 172.207 C 63.175 169.791,65.200 167.766,65.200 167.707 C 65.200 167.418,64.674 167.920,60.593 172.100 M48.800 170.200 C 47.828 171.190,47.123 172.000,47.233 172.000 C 47.343 172.000,48.228 171.190,49.200 170.200 C 50.172 169.210,50.877 168.400,50.767 168.400 C 50.657 168.400,49.772 169.210,48.800 170.200 M353.000 172.400 C 353.859 173.280,354.652 174.000,354.762 174.000 C 354.872 174.000,354.259 173.280,353.400 172.400 C 352.541 171.520,351.748 170.800,351.638 170.800 C 351.528 170.800,352.141 171.520,353.000 172.400 M44.000 175.400 C 43.028 176.390,42.323 177.200,42.433 177.200 C 42.543 177.200,43.428 176.390,44.400 175.400 C 45.372 174.410,46.077 173.600,45.967 173.600 C 45.857 173.600,44.972 174.410,44.000 175.400 M356.000 175.725 C 356.000 175.794,356.585 176.379,357.300 177.025 L 358.600 178.200 357.425 176.900 C 356.330 175.688,356.000 175.416,356.000 175.725 M52.000 181.000 C 51.028 181.990,50.323 182.800,50.433 182.800 C 50.543 182.800,51.428 181.990,52.400 181.000 C 53.372 180.010,54.077 179.200,53.967 179.200 C 53.857 179.200,52.972 180.010,52.000 181.000 M347.600 180.925 C 347.600 180.994,348.185 181.579,348.900 182.225 L 350.200 183.400 349.025 182.100 C 347.930 180.888,347.600 180.616,347.600 180.925 M350.800 184.525 C 350.800 184.594,351.385 185.179,352.100 185.825 L 353.400 187.000 352.225 185.700 C 351.130 184.488,350.800 184.216,350.800 184.525 M29.600 188.700 C 29.600 188.865,30.050 189.000,30.600 189.000 C 31.150 189.000,31.600 188.865,31.600 188.700 C 31.600 188.535,31.150 188.400,30.600 188.400 C 30.050 188.400,29.600 188.535,29.600 188.700 M288.528 192.800 C 288.528 194.230,288.601 194.815,288.689 194.100 C 288.778 193.385,288.778 192.215,288.689 191.500 C 288.601 190.785,288.528 191.370,288.528 192.800 M111.370 200.000 C 111.370 204.730,111.428 206.665,111.498 204.300 C 111.569 201.935,111.569 198.065,111.498 195.700 C 111.428 193.335,111.370 195.270,111.370 200.000 M288.514 207.800 C 288.517 208.900,288.595 209.303,288.687 208.695 C 288.779 208.086,288.777 207.186,288.682 206.695 C 288.587 206.203,288.511 206.700,288.514 207.800 M366.548 212.528 L 365.400 213.800 366.676 212.648 C 367.378 212.014,368.204 211.593,368.512 211.711 C 368.820 211.829,369.292 211.790,369.560 211.625 C 369.852 211.444,369.575 211.310,368.872 211.290 C 368.032 211.266,367.368 211.620,366.548 212.528 M46.800 213.325 C 46.800 213.394,47.385 213.979,48.100 214.625 L 49.400 215.800 48.225 214.500 C 47.130 213.288,46.800 213.016,46.800 213.325 M348.975 217.700 L 347.800 219.000 349.100 217.825 C 349.815 217.179,350.400 216.594,350.400 216.525 C 350.400 216.216,350.070 216.488,348.975 217.700 M50.000 216.925 C 50.000 216.994,50.585 217.579,51.300 218.225 L 52.600 219.400 51.425 218.100 C 50.330 216.888,50.000 216.616,50.000 216.925 M343.392 223.700 L 339.800 227.400 343.500 223.808 C 346.936 220.472,347.382 220.000,347.092 220.000 C 347.032 220.000,345.367 221.665,343.392 223.700 M60.800 228.200 C 64.866 232.270,68.282 235.600,68.392 235.600 C 68.502 235.600,65.266 232.270,61.200 228.200 C 57.134 224.130,53.718 220.800,53.608 220.800 C 53.498 220.800,56.734 224.130,60.800 228.200 M357.381 222.900 L 355.800 224.600 357.500 223.019 C 359.081 221.548,359.384 221.200,359.081 221.200 C 359.016 221.200,358.251 221.965,357.381 222.900 M42.800 223.400 C 43.546 224.170,44.247 224.800,44.357 224.800 C 44.467 224.800,43.946 224.170,43.200 223.400 C 42.454 222.630,41.753 222.000,41.643 222.000 C 41.533 222.000,42.054 222.630,42.800 223.400 M46.783 227.700 C 48.441 229.466,48.800 229.784,48.800 229.483 C 48.800 229.419,47.945 228.564,46.900 227.583 L 45.000 225.800 46.783 227.700 M352.981 227.700 L 351.400 229.400 353.100 227.819 C 354.681 226.348,354.984 226.000,354.681 226.000 C 354.616 226.000,353.851 226.765,352.981 227.700 M334.187 232.900 L 331.800 235.400 334.300 233.013 C 336.622 230.795,336.983 230.400,336.687 230.400 C 336.626 230.400,335.501 231.525,334.187 232.900 M346.592 234.500 L 343.000 238.200 346.700 234.608 C 348.735 232.633,350.400 230.968,350.400 230.908 C 350.400 230.618,349.928 231.064,346.592 234.500 M54.600 236.000 C 57.012 238.420,59.076 240.400,59.186 240.400 C 59.296 240.400,57.412 238.420,55.000 236.000 C 52.588 233.580,50.524 231.600,50.414 231.600 C 50.304 231.600,52.188 233.580,54.600 236.000 M281.693 233.600 C 281.693 234.370,281.775 234.685,281.876 234.300 C 281.976 233.915,281.976 233.285,281.876 232.900 C 281.775 232.515,281.693 232.830,281.693 233.600 M328.185 238.500 L 326.200 240.600 328.300 238.615 C 330.251 236.771,330.583 236.400,330.285 236.400 C 330.222 236.400,329.277 237.345,328.185 238.500 M71.200 238.200 C 71.946 238.970,72.647 239.600,72.757 239.600 C 72.867 239.600,72.346 238.970,71.600 238.200 C 70.854 237.430,70.153 236.800,70.043 236.800 C 69.933 236.800,70.454 237.430,71.200 238.200 M73.600 240.125 C 73.600 240.194,74.185 240.779,74.900 241.425 L 76.200 242.600 75.025 241.300 C 73.930 240.088,73.600 239.816,73.600 240.125 M278.600 241.200 C 278.259 241.860,278.069 242.400,278.179 242.400 C 278.289 242.400,278.659 241.860,279.000 241.200 C 279.341 240.540,279.531 240.000,279.421 240.000 C 279.311 240.000,278.941 240.540,278.600 241.200 M336.989 243.700 L 334.200 246.600 337.100 243.811 C 339.794 241.220,340.183 240.800,339.889 240.800 C 339.828 240.800,338.523 242.105,336.989 243.700 M61.983 242.900 C 62.964 243.945,63.819 244.800,63.883 244.800 C 64.184 244.800,63.866 244.441,62.100 242.783 L 60.200 241.000 61.983 242.900 M77.200 243.325 C 77.200 243.394,77.785 243.979,78.500 244.625 L 79.800 245.800 78.625 244.500 C 77.530 243.288,77.200 243.016,77.200 243.325 M66.783 247.300 C 67.764 248.345,68.619 249.200,68.683 249.200 C 68.984 249.200,68.666 248.841,66.900 247.183 L 65.000 245.400 66.783 247.300 M331.978 248.300 L 330.600 249.800 332.100 248.422 C 333.496 247.138,333.784 246.800,333.478 246.800 C 333.412 246.800,332.737 247.475,331.978 248.300 M328.575 251.300 L 327.400 252.600 328.700 251.425 C 329.415 250.779,330.000 250.194,330.000 250.125 C 330.000 249.816,329.670 250.088,328.575 251.300 M137.000 262.800 C 138.971 264.780,140.673 266.400,140.783 266.400 C 140.893 266.400,139.371 264.780,137.400 262.800 C 135.429 260.820,133.727 259.200,133.617 259.200 C 133.507 259.200,135.029 260.820,137.000 262.800 M273.400 266.800 C 276.474 269.880,279.079 272.400,279.189 272.400 C 279.299 272.400,276.874 269.880,273.800 266.800 C 270.726 263.720,268.121 261.200,268.011 261.200 C 267.901 261.200,270.326 263.720,273.400 266.800 M265.600 272.600 C 268.123 275.130,270.277 277.200,270.387 277.200 C 270.497 277.200,268.523 275.130,266.000 272.600 C 263.477 270.070,261.323 268.000,261.213 268.000 C 261.103 268.000,263.077 270.070,265.600 272.600 M289.600 282.925 C 289.600 282.994,290.185 283.579,290.900 284.225 L 292.200 285.400 291.025 284.100 C 289.930 282.888,289.600 282.616,289.600 282.925 M124.800 288.187 C 124.800 288.297,125.700 288.843,126.800 289.400 C 127.900 289.957,128.800 290.323,128.800 290.213 C 128.800 290.103,127.900 289.557,126.800 289.000 C 125.700 288.443,124.800 288.077,124.800 288.187 M191.500 288.689 C 192.215 288.778,193.385 288.778,194.100 288.689 C 194.815 288.601,194.230 288.528,192.800 288.528 C 191.370 288.528,190.785 288.601,191.500 288.689 M206.500 288.687 C 207.105 288.778,208.095 288.778,208.700 288.687 C 209.305 288.595,208.810 288.520,207.600 288.520 C 206.390 288.520,205.895 288.595,206.500 288.687 M131.200 291.396 C 131.200 291.670,133.649 292.884,133.832 292.701 C 133.919 292.614,133.362 292.244,132.595 291.878 C 131.828 291.512,131.200 291.295,131.200 291.396 M144.162 297.762 C 144.801 298.333,145.408 298.800,145.511 298.800 C 145.904 298.800,144.627 297.537,143.833 297.140 C 143.277 296.862,143.387 297.069,144.162 297.762 M147.600 299.400 C 148.150 299.714,148.780 299.972,149.000 299.972 C 149.220 299.972,148.950 299.714,148.400 299.400 C 147.850 299.086,147.220 298.828,147.000 298.828 C 146.780 298.828,147.050 299.086,147.600 299.400 M192.700 299.082 C 193.195 299.178,194.005 299.178,194.500 299.082 C 194.995 298.987,194.590 298.909,193.600 298.909 C 192.610 298.909,192.205 298.987,192.700 299.082 M204.900 299.087 C 205.505 299.178,206.495 299.178,207.100 299.087 C 207.705 298.995,207.210 298.920,206.000 298.920 C 204.790 298.920,204.295 298.995,204.900 299.087 M251.600 299.400 C 250.294 300.147,250.751 300.155,252.454 299.416 C 253.194 299.094,253.530 298.831,253.200 298.830 C 252.870 298.829,252.150 299.086,251.600 299.400 " stroke="none" fill="#bcbcb4" fill-rule="evenodd"></path></g></svg>