<svg id="svg" version="1.1" xmlns="http://www.w3.org/2000/svg" xmlns:xlink="http://www.w3.org/1999/xlink" width="400" height="400" viewBox="0, 0, 400,400"><g id="svgg"><path id="path0" d="M214.773 53.171 C 212.045 53.705,208.792 56.670,186.467 78.973 C 19.276 245.992,37.418 227.166,37.445 233.614 C 37.467 239.076,37.656 239.328,54.362 256.076 C 70.840 272.596,71.745 273.289,76.957 273.364 C 82.294 273.442,83.249 272.789,95.319 260.825 L 106.039 250.200 106.576 247.800 C 106.872 246.480,107.426 244.050,107.808 242.400 L 108.502 239.400 162.351 185.661 C 217.629 130.497,217.565 130.557,219.729 131.022 C 221.123 131.322,317.862 227.636,319.545 230.400 L 320.397 231.800 320.399 294.520 C 320.400 365.425,320.762 358.656,316.855 360.739 C 310.656 364.042,307.648 367.236,304.200 374.172 C 301.004 380.601,303.180 380.094,280.013 379.800 C 260.846 379.557,197.917 379.506,147.711 379.694 L 119.222 379.800 118.311 378.889 L 117.400 377.978 117.200 335.289 L 117.000 292.600 115.983 290.600 C 115.108 288.880,114.571 288.392,112.146 287.113 C 109.580 285.760,106.374 282.923,105.940 281.621 C 105.422 280.066,100.572 283.049,98.320 286.308 L 97.013 288.200 97.143 301.200 C 97.214 308.350,97.146 314.074,96.990 313.921 C 96.330 313.267,88.460 316.866,83.808 319.950 C 76.418 324.849,68.226 336.050,67.027 342.895 C 66.763 344.404,65.902 345.198,64.526 345.202 C 61.992 345.209,52.582 350.639,47.954 354.765 C 43.429 358.800,36.975 368.878,36.021 373.400 L 35.768 374.600 21.521 374.800 L 7.273 375.000 4.952 376.600 C 0.961 379.350,0.220 381.029,0.152 387.474 L 0.096 392.825 1.604 395.158 C 2.705 396.862,3.703 397.829,5.303 398.744 L 7.494 399.998 161.029 399.998 L 314.565 399.998 316.668 398.723 C 317.954 397.944,319.327 396.642,320.199 395.376 C 321.585 393.363,322.738 390.544,321.984 391.010 C 321.783 391.134,320.601 390.249,319.357 389.044 L 317.094 386.852 317.282 383.613 C 318.085 369.736,338.210 370.024,339.117 383.925 L 339.308 386.850 337.045 389.042 C 335.799 390.248,334.617 391.134,334.416 391.010 C 333.689 390.561,334.808 393.382,336.169 395.433 C 337.102 396.837,338.248 397.912,339.697 398.741 L 341.845 399.970 351.600 399.970 L 361.355 399.970 363.522 398.730 C 372.605 393.533,370.443 377.054,360.406 374.983 C 358.962 374.685,358.035 373.840,358.012 372.800 C 357.920 368.750,349.202 358.979,342.900 355.864 L 340.400 354.628 340.400 307.098 C 340.400 264.454,340.463 259.621,341.013 260.084 C 341.350 260.368,343.981 262.916,346.861 265.747 C 354.730 273.483,359.186 275.042,365.400 272.232 C 369.636 270.316,397.485 242.051,398.994 238.136 C 400.458 234.338,400.311 231.349,398.470 227.524 C 397.086 224.648,231.742 58.745,226.683 55.156 C 223.624 52.986,219.355 52.275,214.773 53.171 M222.561 80.298 C 225.661 83.177,366.075 223.609,370.519 228.275 C 376.037 234.070,376.113 233.616,368.320 241.468 C 361.928 247.908,360.788 248.637,358.742 247.593 C 358.224 247.328,327.560 216.919,290.600 180.016 C 221.347 110.871,221.996 111.491,218.800 111.491 C 215.605 111.491,216.248 110.877,147.000 180.017 C 110.040 216.920,79.376 247.329,78.858 247.593 C 76.811 248.636,75.672 247.907,69.280 241.468 C 62.940 235.080,62.305 234.032,63.568 232.037 C 64.279 230.915,215.833 79.497,217.000 78.744 C 218.696 77.648,220.143 78.053,222.561 80.298 M100.618 336.582 L 101.600 337.564 101.600 357.560 L 101.600 377.555 100.635 378.678 L 99.670 379.800 80.735 379.919 C 60.623 380.044,59.592 379.992,58.378 378.778 C 54.362 374.762,65.886 365.073,75.925 364.026 C 83.271 363.259,85.190 361.324,85.948 353.919 C 86.973 343.902,96.582 332.546,100.618 336.582 M382.600 375.209 C 373.649 378.028,371.873 392.685,379.792 398.377 L 381.772 399.800 387.162 399.903 L 392.552 400.005 394.736 398.703 C 396.267 397.790,397.370 396.711,398.422 395.097 L 399.923 392.795 399.935 387.636 C 399.950 381.329,399.086 379.372,395.065 376.608 L 392.730 375.003 388.265 374.917 C 385.809 374.870,383.260 375.001,382.600 375.209 " stroke="none" fill="#434b53" fill-rule="evenodd"></path><path id="path1" d="M180.352 242.318 C 174.881 245.176,175.200 240.740,175.200 313.923 C 175.200 371.443,175.147 376.596,174.543 377.263 C 173.908 377.965,175.431 377.990,218.800 377.990 C 262.169 377.990,263.692 377.965,263.057 377.263 C 262.454 376.596,262.399 371.478,262.387 314.569 C 262.371 240.936,262.669 245.075,257.188 242.315 L 255.000 241.213 218.746 241.207 L 182.491 241.200 180.352 242.318 " stroke="none" fill="#3cdc9c" fill-rule="evenodd"></path><path id="path2" d="M217.000 78.744 C 215.833 79.497,64.279 230.915,63.568 232.037 C 62.305 234.032,62.940 235.080,69.280 241.468 C 75.672 247.907,76.811 248.636,78.858 247.593 C 79.376 247.329,110.040 216.920,147.000 180.017 C 216.248 110.877,215.605 111.491,218.800 111.491 C 221.996 111.491,221.347 110.871,290.600 180.016 C 327.560 216.919,358.224 247.328,358.742 247.593 C 360.788 248.637,361.928 247.908,368.320 241.468 C 376.113 233.616,376.037 234.070,370.519 228.275 C 366.075 223.609,225.661 83.177,222.561 80.298 C 220.143 78.053,218.696 77.648,217.000 78.744 M290.911 151.100 C 369.044 229.185,372.100 232.299,372.100 233.849 C 372.100 235.480,361.864 245.600,360.214 245.600 C 359.157 245.600,351.191 237.782,291.809 178.456 C 219.656 106.373,223.078 109.600,218.800 109.600 C 214.523 109.600,217.941 106.376,145.793 178.456 C 86.381 237.812,78.446 245.600,77.387 245.600 C 75.716 245.600,65.500 235.480,65.500 233.825 C 65.500 232.459,58.990 239.072,144.739 153.332 C 210.468 87.610,217.801 80.400,218.923 80.400 C 220.044 80.400,227.177 87.405,290.911 151.100 M217.000 131.547 C 213.506 133.714,108.446 239.400,108.195 241.000 C 108.057 241.880,107.576 243.825,107.126 245.321 C 105.946 249.253,106.461 249.003,107.983 244.907 L 109.285 241.400 163.484 187.300 C 212.443 138.431,217.805 133.200,218.941 133.197 C 220.762 133.193,317.642 230.042,318.377 232.600 C 318.716 233.781,318.805 250.226,318.718 295.458 C 318.583 365.311,319.070 357.356,314.792 359.636 C 308.911 362.771,304.447 368.025,301.432 375.359 C 301.080 376.216,300.478 377.155,300.096 377.444 C 299.017 378.260,120.890 378.247,119.774 377.430 C 119.019 376.879,118.995 375.801,118.800 334.132 L 118.600 291.400 117.647 289.464 C 116.515 287.164,114.279 285.420,111.384 284.578 C 110.248 284.248,108.571 283.338,107.659 282.558 C 106.746 281.777,106.000 281.336,106.000 281.578 C 106.000 282.564,109.504 285.720,112.146 287.113 C 114.571 288.392,115.108 288.880,115.983 290.600 L 117.000 292.600 117.200 335.289 L 117.400 377.978 118.311 378.889 L 119.222 379.800 147.711 379.694 C 197.917 379.506,260.846 379.557,280.013 379.800 C 303.180 380.094,301.004 380.601,304.200 374.172 C 307.648 367.236,310.656 364.042,316.855 360.739 C 320.762 358.656,320.400 365.425,320.399 294.520 L 320.397 231.800 319.544 230.400 C 318.283 228.330,221.575 131.723,220.265 131.225 C 218.750 130.649,218.392 130.684,217.000 131.547 M340.594 307.200 C 340.594 333.490,340.641 344.245,340.700 331.100 C 340.758 317.955,340.758 296.445,340.700 283.300 C 340.641 270.155,340.594 280.910,340.594 307.200 M96.975 303.600 C 96.975 309.430,97.031 311.815,97.099 308.900 C 97.167 305.985,97.167 301.215,97.099 298.300 C 97.031 295.385,96.975 297.770,96.975 303.600 M96.800 336.377 C 91.123 339.386,86.704 346.529,85.948 353.919 C 85.190 361.324,83.271 363.259,75.925 364.026 C 65.886 365.073,54.362 374.762,58.378 378.778 C 59.592 379.992,60.623 380.044,80.735 379.919 L 99.670 379.800 100.635 378.678 L 101.600 377.555 101.600 357.560 L 101.600 337.564 100.618 336.582 C 99.456 335.420,98.685 335.378,96.800 336.377 M99.200 338.391 C 100.127 338.977,100.319 375.654,99.402 377.052 L 98.782 378.000 79.840 378.000 C 57.385 378.000,57.556 378.050,62.201 372.884 C 65.926 368.740,70.140 366.744,77.076 365.837 C 84.059 364.924,87.580 361.652,87.607 356.050 C 87.645 348.123,95.549 336.084,99.200 338.391 M325.659 373.618 C 317.059 375.366,314.163 385.736,320.947 390.490 C 322.352 391.475,322.087 390.956,320.020 388.673 C 316.411 384.687,320.941 376.065,327.023 375.347 C 334.789 374.430,340.547 383.826,335.642 389.413 C 334.093 391.178,334.065 391.493,335.553 390.433 C 338.572 388.283,339.313 386.910,339.111 383.831 C 338.647 376.723,332.679 372.192,325.659 373.618 M0.114 387.400 C 0.117 388.500,0.195 388.903,0.287 388.295 C 0.379 387.686,0.377 386.786,0.282 386.295 C 0.187 385.803,0.111 386.300,0.114 387.400 " stroke="none" fill="#686f74" fill-rule="evenodd"></path><path id="path3" d="M217.769 83.182 C 215.634 84.529,67.600 232.963,67.600 233.756 C 67.600 235.330,76.711 243.925,77.741 243.323 C 78.045 243.145,108.244 213.166,144.851 176.702 C 181.458 140.238,212.089 109.942,212.919 109.378 C 216.191 107.154,221.385 107.138,224.627 109.341 C 226.319 110.491,245.352 129.339,311.810 195.677 C 338.216 222.034,360.077 243.600,360.391 243.600 C 361.271 243.600,370.000 234.682,370.000 233.783 C 370.000 233.065,221.184 83.700,219.569 82.798 C 219.146 82.562,218.551 82.689,217.769 83.182 M217.769 135.982 C 214.064 138.318,109.251 244.242,108.040 246.874 C 107.363 248.344,106.627 249.660,106.405 249.797 C 105.760 250.195,105.855 281.318,106.500 281.090 C 106.775 280.993,107.490 281.257,108.089 281.676 C 108.687 282.095,110.184 282.602,111.414 282.802 C 114.057 283.232,115.781 284.218,117.800 286.453 C 120.811 289.785,120.587 286.176,120.717 333.387 C 120.807 365.950,120.946 375.845,121.317 376.081 C 122.175 376.626,172.571 376.469,173.120 375.920 C 173.489 375.551,173.600 360.852,173.600 312.193 C 173.600 257.224,173.678 248.682,174.198 246.931 C 174.949 244.402,177.373 241.599,179.892 240.348 L 181.800 239.400 218.800 239.400 C 253.188 239.400,255.905 239.449,257.285 240.099 C 259.521 241.152,261.528 243.093,262.726 245.364 L 263.800 247.400 263.906 311.366 C 263.982 357.417,264.136 375.482,264.455 375.866 C 264.944 376.455,297.790 376.674,298.621 376.094 C 298.852 375.932,299.993 373.840,301.155 371.444 C 303.729 366.139,308.204 361.284,313.200 358.374 C 314.850 357.413,316.332 356.440,316.494 356.213 C 316.656 355.986,316.791 328.083,316.794 294.207 L 316.800 232.614 268.500 184.282 C 215.406 131.151,219.399 134.954,217.769 135.982 M94.899 342.933 C 91.554 346.469,90.407 349.272,89.393 356.383 C 88.338 363.778,85.383 366.658,77.893 367.588 C 70.504 368.507,61.943 373.190,62.934 375.772 C 63.348 376.852,97.405 376.711,97.986 375.626 C 98.432 374.793,98.582 343.320,98.148 341.700 C 97.783 340.339,97.111 340.594,94.899 342.933 M324.699 378.028 C 322.459 379.210,321.152 381.455,320.903 384.547 C 320.701 387.064,321.322 389.600,322.140 389.600 C 322.330 389.600,322.382 389.870,322.255 390.200 C 322.057 390.717,322.880 390.800,328.236 390.800 C 332.691 390.800,334.370 390.674,334.172 390.355 C 334.021 390.111,334.056 389.796,334.249 389.655 C 335.867 388.479,336.056 384.395,334.632 381.338 C 332.884 377.583,328.383 376.083,324.699 378.028 " stroke="none" fill="#fbfbfb" fill-rule="evenodd"></path><path id="path4" d="M144.739 153.332 C 58.990 239.072,65.500 232.459,65.500 233.825 C 65.500 235.480,75.716 245.600,77.387 245.600 C 78.446 245.600,86.381 237.812,145.793 178.456 C 217.941 106.376,214.523 109.600,218.800 109.600 C 223.078 109.600,219.656 106.373,291.809 178.456 C 351.191 237.782,359.157 245.600,360.214 245.600 C 361.864 245.600,372.100 235.480,372.100 233.849 C 372.100 232.299,369.044 229.185,290.911 151.100 C 227.177 87.405,220.044 80.400,218.923 80.400 C 217.801 80.400,210.468 87.610,144.739 153.332 M295.100 158.078 C 343.367 206.363,370.000 233.282,370.000 233.783 C 370.000 234.682,361.271 243.600,360.391 243.600 C 360.077 243.600,338.216 222.034,311.810 195.677 C 245.352 129.339,226.319 110.491,224.627 109.341 C 221.385 107.138,216.191 107.154,212.919 109.378 C 212.089 109.942,181.458 140.238,144.851 176.702 C 108.244 213.166,78.045 243.145,77.741 243.323 C 76.711 243.925,67.600 235.330,67.600 233.756 C 67.600 232.963,215.634 84.529,217.769 83.182 C 219.404 82.151,213.013 75.961,295.100 158.078 M163.491 187.300 L 109.299 241.400 107.804 245.322 C 106.058 249.904,106.184 250.902,108.009 246.940 C 109.309 244.117,215.007 137.405,218.159 135.733 L 219.318 135.118 268.059 183.864 L 316.800 232.610 316.794 294.205 C 316.791 328.082,316.656 355.986,316.494 356.213 C 316.332 356.440,314.850 357.413,313.200 358.374 C 308.204 361.284,303.729 366.139,301.155 371.444 C 299.993 373.840,298.852 375.932,298.621 376.094 C 297.790 376.674,264.944 376.455,264.455 375.866 C 264.136 375.482,263.982 357.417,263.906 311.366 L 263.800 247.400 262.726 245.364 C 261.528 243.093,259.521 241.152,257.285 240.099 C 255.905 239.449,253.188 239.400,218.800 239.400 L 181.800 239.400 179.892 240.348 C 177.373 241.599,174.949 244.402,174.198 246.931 C 173.678 248.682,173.600 257.224,173.600 312.193 C 173.600 360.852,173.489 375.551,173.120 375.920 C 172.571 376.469,122.175 376.626,121.317 376.081 C 120.946 375.845,120.807 365.950,120.717 333.387 C 120.587 286.176,120.811 289.785,117.800 286.453 C 115.781 284.218,114.057 283.232,111.414 282.802 C 110.184 282.602,108.655 282.066,108.017 281.612 C 107.378 281.157,106.752 280.954,106.624 281.161 C 106.233 281.795,109.260 283.961,111.413 284.587 C 114.280 285.420,116.518 287.171,117.647 289.464 L 118.600 291.400 118.800 334.132 C 118.995 375.850,119.018 376.878,119.776 377.432 C 121.120 378.415,173.636 378.265,174.531 377.276 C 175.131 376.614,175.195 371.168,175.293 312.548 L 175.400 248.543 176.606 246.185 C 177.529 244.380,178.273 243.542,179.775 242.613 L 181.737 241.400 218.368 241.303 L 255.000 241.207 257.188 242.312 C 262.670 245.080,262.371 240.929,262.387 314.638 C 262.399 374.222,262.429 376.702,263.131 377.338 C 263.790 377.934,265.648 377.999,281.631 377.987 C 301.232 377.973,300.307 378.096,301.432 375.359 C 304.447 368.025,308.911 362.771,314.792 359.636 C 319.070 357.356,318.583 365.311,318.718 295.458 C 318.805 250.226,318.716 233.781,318.377 232.600 C 317.642 230.042,220.762 133.193,218.941 133.197 C 217.805 133.200,212.445 138.429,163.491 187.300 M96.136 339.147 C 91.332 342.628,87.636 349.951,87.607 356.050 C 87.580 361.652,84.059 364.924,77.076 365.837 C 70.140 366.744,65.926 368.740,62.201 372.884 C 57.556 378.050,57.385 378.000,79.840 378.000 L 98.782 378.000 99.402 377.052 C 100.319 375.654,100.127 338.977,99.200 338.391 C 98.272 337.805,97.842 337.911,96.136 339.147 M98.148 341.700 C 98.582 343.320,98.432 374.793,97.986 375.626 C 97.405 376.711,63.348 376.852,62.934 375.772 C 61.943 373.190,70.504 368.507,77.893 367.588 C 85.383 366.658,88.338 363.778,89.393 356.383 C 90.407 349.272,91.554 346.469,94.899 342.933 C 97.111 340.594,97.783 340.339,98.148 341.700 M325.154 375.752 C 319.637 377.723,317.023 385.056,320.400 389.085 C 321.323 390.186,321.935 390.621,322.197 390.361 C 322.459 390.100,322.459 389.871,322.196 389.683 C 317.821 386.563,322.361 377.200,328.249 377.200 C 333.958 377.200,338.478 386.582,334.249 389.655 C 334.056 389.796,334.019 390.107,334.168 390.348 C 334.588 391.028,336.838 388.207,337.217 386.522 C 338.762 379.676,331.733 373.401,325.154 375.752 " stroke="none" fill="#dce4e4" fill-rule="evenodd"></path></g></svg>