<?xml version="1.0" encoding="UTF-8" standalone="no"?>
<!DOCTYPE svg PUBLIC "-//W3C//DTD SVG 1.1//EN" "http://www.w3.org/Graphics/SVG/1.1/DTD/svg11.dtd">
<svg version="1.1" xmlns="http://www.w3.org/2000/svg" xmlns:xlink="http://www.w3.org/1999/xlink" preserveAspectRatio="xMidYMid meet" viewBox="0 0 640 640" width="640" height="640"><defs><path d="M572.38 326.55C572.38 467.15 459.29 581.31 320 581.31C180.71 581.31 67.62 467.15 67.62 326.55C67.62 185.94 180.71 71.79 320 71.79C459.29 71.79 572.38 185.94 572.38 326.55Z" id="f4Mi3sEzJs"></path><path d="M437.79 224.5C437.79 282.92 389.27 330.35 329.51 330.35C269.75 330.35 221.24 282.92 221.24 224.5C221.24 166.07 269.75 118.64 329.51 118.64C389.27 118.64 437.79 166.07 437.79 224.5Z" id="e8E3Zbk3l"></path><path d="M484.04 441.43C482.9 494.54 411.05 536.14 323.69 534.26C236.32 532.38 166.32 487.74 167.46 434.63C168.6 381.52 240.46 339.92 327.82 341.8C415.18 343.68 485.19 388.32 484.04 441.43Z" id="bzo5IFXNg"></path></defs><g><g><g><use xlink:href="#f4Mi3sEzJs" opacity="1" fill="#08c976" fill-opacity="1"></use></g><g><use xlink:href="#e8E3Zbk3l" opacity="1" fill="#ffffff" fill-opacity="1"></use></g><g><use xlink:href="#bzo5IFXNg" opacity="1" fill="#ffffff" fill-opacity="1"></use></g></g></g></svg>