<svg id="svg" version="1.1" xmlns="http://www.w3.org/2000/svg" xmlns:xlink="http://www.w3.org/1999/xlink" width="400" height="400" viewBox="0, 0, 400,400"><g id="svgg"><path id="path0" d="M196.400 45.057 C 180.793 48.198,171.429 54.523,165.666 65.815 C 148.551 99.350,183.315 135.485,216.878 119.049 C 246.221 104.681,246.269 63.484,216.960 49.032 C 211.195 46.189,200.780 44.176,196.400 45.057 M204.818 55.603 C 207.404 56.094,208.402 56.919,208.394 58.562 C 208.381 61.080,206.800 61.832,202.938 61.160 C 201.042 60.830,199.565 60.827,197.396 61.150 C 193.419 61.741,191.600 60.998,191.600 58.782 C 191.600 55.747,197.761 54.265,204.818 55.603 M218.093 61.606 C 224.810 66.792,228.494 74.086,228.560 82.330 C 228.605 87.841,228.348 88.400,225.773 88.400 C 223.969 88.400,223.527 87.631,223.186 83.891 C 222.419 75.494,220.424 71.889,212.345 64.300 C 211.418 63.429,211.373 61.313,212.262 60.331 C 213.456 59.012,215.238 59.402,218.093 61.606 " stroke="none" fill="#f05b6b" fill-rule="evenodd"></path><path id="path1" d="M189.301 132.223 C 188.587 132.745,187.920 326.827,188.612 332.710 C 188.861 334.831,197.809 349.214,199.451 350.133 C 200.541 350.743,201.097 350.107,206.267 342.325 L 211.400 334.600 211.400 233.485 C 211.400 125.162,211.504 131.039,209.600 131.870 C 208.577 132.317,194.318 132.499,192.101 132.094 C 190.521 131.805,189.830 131.836,189.301 132.223 " stroke="none" fill="#b4b4c4" fill-rule="evenodd"></path><path id="path2" d="M195.600 44.004 C 168.822 46.258,151.607 77.233,163.701 101.400 C 180.613 135.195,228.746 130.524,239.062 94.087 C 245.990 69.617,224.247 41.839,199.600 43.673 C 199.270 43.698,197.470 43.847,195.600 44.004 M208.947 46.185 C 244.527 54.688,249.780 102.938,216.878 119.049 C 180.540 136.844,144.638 92.987,169.022 60.588 C 175.565 51.894,182.787 47.797,196.400 45.057 C 198.527 44.629,204.793 45.192,208.947 46.185 M194.800 55.635 C 188.661 56.821,191.137 62.080,197.396 61.150 C 199.565 60.827,201.042 60.830,202.938 61.160 C 206.800 61.832,208.381 61.080,208.394 58.562 C 208.408 55.707,201.797 54.284,194.800 55.635 M205.678 57.186 C 206.946 57.800,207.387 58.693,206.782 59.422 C 206.024 60.334,193.710 60.153,193.212 59.222 C 191.981 56.921,201.816 55.316,205.678 57.186 M212.262 60.331 C 211.373 61.313,211.418 63.429,212.345 64.300 C 220.424 71.889,222.419 75.494,223.186 83.891 C 223.585 88.261,225.277 89.699,227.824 87.830 C 229.141 86.864,228.890 78.348,227.433 74.600 C 223.791 65.231,215.168 57.121,212.262 60.331 M217.524 62.777 C 223.230 67.288,227.011 74.674,227.477 82.221 C 227.667 85.290,227.597 85.946,227.022 86.521 C 225.336 88.207,224.605 87.105,224.256 82.352 C 223.799 76.117,221.121 70.680,216.267 66.129 C 212.932 63.002,212.708 62.705,213.041 61.836 C 213.479 60.695,215.400 61.098,217.524 62.777 M188.925 130.714 C 188.664 130.880,188.259 131.519,188.025 132.134 C 187.448 133.652,187.430 332.792,188.007 334.800 C 188.228 335.570,190.712 339.620,193.527 343.800 C 200.565 354.251,199.543 354.325,207.251 342.800 L 212.200 335.400 212.200 233.514 C 212.200 138.916,212.152 131.581,211.533 130.961 C 210.912 130.340,210.641 130.339,207.625 130.947 C 203.576 131.763,196.339 131.785,192.600 130.993 C 189.367 130.308,189.543 130.322,188.925 130.714 M201.600 132.305 C 205.670 132.210,209.270 132.014,209.600 131.870 C 211.504 131.039,211.400 125.162,211.400 233.485 L 211.400 334.600 206.267 342.325 C 201.097 350.107,200.541 350.743,199.451 350.133 C 197.809 349.214,188.861 334.831,188.612 332.710 C 187.920 326.827,188.587 132.745,189.301 132.223 C 189.830 131.836,190.521 131.805,192.101 132.094 C 193.256 132.305,197.530 132.400,201.600 132.305 " stroke="none" fill="#8e4959" fill-rule="evenodd"></path><path id="path3" d="M191.800 43.481 C 188.342 44.295,181.084 47.128,179.200 48.400 C 178.650 48.771,177.395 49.598,176.411 50.237 C 160.643 60.487,154.436 83.527,162.629 101.400 C 169.381 116.128,183.335 124.911,200.000 124.923 L 207.800 124.928 212.000 123.522 C 225.648 118.954,234.954 109.648,239.522 96.000 L 240.928 91.800 240.920 84.000 C 240.901 64.846,229.908 50.161,211.251 44.365 C 207.628 43.239,195.222 42.676,191.800 43.481 M204.000 43.970 C 241.307 47.319,253.603 97.235,222.161 117.690 C 188.434 139.631,146.665 103.684,163.493 67.200 C 170.042 53.002,182.394 44.954,199.600 43.673 C 199.930 43.649,201.910 43.782,204.000 43.970 M195.457 56.790 C 193.680 57.356,192.751 58.362,193.212 59.222 C 194.157 60.989,207.670 60.090,206.985 58.305 C 206.420 56.834,198.562 55.801,195.457 56.790 M204.624 58.020 C 205.592 58.823,204.343 59.120,200.000 59.120 C 195.269 59.120,194.096 58.746,196.000 57.845 C 197.747 57.019,203.559 57.136,204.624 58.020 M213.041 61.836 C 212.708 62.705,212.932 63.002,216.267 66.129 C 221.121 70.680,223.799 76.117,224.256 82.352 C 224.527 86.035,224.894 87.200,225.786 87.200 C 228.728 87.200,227.981 78.294,224.453 71.305 C 221.279 65.017,214.105 59.064,213.041 61.836 M218.997 65.721 C 222.111 68.966,224.694 73.263,225.033 75.762 C 225.315 77.843,224.424 76.944,223.321 74.035 C 222.292 71.320,220.620 68.946,217.451 65.700 C 215.312 63.509,214.812 62.800,215.407 62.800 C 215.862 62.800,217.377 64.033,218.997 65.721 M226.576 82.800 C 226.595 84.855,226.474 85.400,226.000 85.400 C 225.512 85.400,225.386 84.655,225.324 81.400 C 225.249 77.421,225.252 77.407,225.900 78.800 C 226.280 79.616,226.562 81.285,226.576 82.800 M187.823 130.489 C 187.263 131.288,187.200 141.731,187.200 233.623 L 187.200 335.868 192.635 344.034 C 200.342 355.613,199.807 355.611,207.474 344.099 L 213.000 335.800 213.104 234.457 C 213.175 164.900,213.077 132.627,212.790 131.561 C 212.241 129.524,211.234 129.285,206.788 130.137 C 202.544 130.951,197.002 130.981,193.800 130.208 C 190.228 129.345,188.569 129.423,187.823 130.489 M192.600 130.993 C 196.339 131.785,203.576 131.763,207.625 130.947 C 210.641 130.339,210.912 130.340,211.533 130.961 C 212.152 131.581,212.200 138.916,212.200 233.514 L 212.200 335.400 207.251 342.800 C 199.543 354.325,200.565 354.251,193.527 343.800 C 190.712 339.620,188.228 335.570,188.007 334.800 C 187.430 332.792,187.448 133.652,188.025 132.134 C 188.745 130.241,188.884 130.206,192.600 130.993 " stroke="none" fill="#4c2c3c" fill-rule="evenodd"></path><path id="path4" d="M191.200 33.568 C 187.804 33.756,186.723 33.972,185.553 34.700 C 184.757 35.195,183.601 35.600,182.984 35.600 C 182.020 35.600,177.865 37.279,176.000 38.422 C 175.670 38.624,174.860 39.087,174.200 39.451 C 173.540 39.815,172.491 40.537,171.869 41.056 C 171.247 41.575,170.552 42.000,170.324 42.000 C 168.899 42.000,159.527 51.425,157.993 54.400 C 157.710 54.950,157.136 55.850,156.718 56.400 C 155.193 58.405,154.004 60.446,153.739 61.510 C 153.590 62.110,153.133 63.056,152.723 63.613 C 152.313 64.170,151.879 65.340,151.758 66.213 C 151.637 67.086,151.063 68.779,150.483 69.975 L 149.429 72.150 149.429 83.996 L 149.429 95.841 150.468 98.021 C 151.040 99.219,151.613 100.914,151.743 101.787 C 151.872 102.660,152.313 103.830,152.723 104.387 C 153.133 104.944,153.599 105.925,153.759 106.567 C 153.918 107.209,154.938 109.057,156.024 110.675 C 157.111 112.292,158.000 113.763,158.000 113.944 C 158.000 114.694,166.825 124.000,167.536 124.000 C 167.769 124.000,168.107 124.263,168.287 124.584 C 168.467 124.905,169.346 125.580,170.240 126.084 C 171.134 126.588,173.066 127.781,174.533 128.736 L 177.200 130.472 177.229 233.536 C 177.260 341.956,177.233 340.267,178.932 341.842 C 179.519 342.387,180.000 343.031,180.000 343.275 C 180.000 343.902,182.770 348.000,183.194 348.000 C 183.388 348.000,183.669 348.405,183.818 348.900 C 184.187 350.119,186.756 354.000,187.194 354.000 C 187.388 354.000,187.669 354.405,187.818 354.900 C 188.185 356.113,190.755 360.000,191.190 360.000 C 191.382 360.000,191.733 360.590,191.970 361.310 C 192.872 364.042,195.515 366.274,198.200 366.571 C 201.406 366.926,204.793 366.262,205.708 365.100 C 206.098 364.605,206.773 363.780,207.208 363.266 C 207.644 362.752,208.000 362.102,208.000 361.821 C 208.000 361.347,209.302 359.496,211.204 357.266 C 211.642 356.752,212.000 356.102,212.000 355.821 C 212.000 355.347,213.302 353.496,215.204 351.266 C 215.642 350.752,216.000 350.102,216.000 349.821 C 216.000 349.344,217.666 346.958,218.948 345.600 C 219.259 345.270,219.799 344.370,220.146 343.600 C 220.494 342.830,221.188 341.692,221.689 341.071 L 222.600 339.941 222.800 235.201 L 223.000 130.460 224.518 129.430 C 225.353 128.863,226.194 128.400,226.387 128.400 C 226.580 128.400,227.247 127.975,227.869 127.456 C 228.491 126.937,229.580 126.215,230.290 125.851 C 232.293 124.824,242.000 114.953,242.000 113.943 C 242.000 113.729,242.828 112.369,243.840 110.921 C 244.852 109.473,245.870 107.729,246.101 107.044 C 246.333 106.360,246.866 105.307,247.286 104.704 C 247.706 104.101,248.142 102.931,248.256 102.104 C 248.369 101.277,248.915 99.664,249.468 98.521 C 251.368 94.594,251.229 72.338,249.285 69.100 C 248.855 68.385,248.395 67.086,248.263 66.213 C 248.130 65.340,247.687 64.170,247.277 63.613 C 246.867 63.056,246.398 62.060,246.235 61.400 C 246.072 60.740,245.278 59.241,244.470 58.068 C 243.661 56.896,242.640 55.348,242.200 54.629 C 240.551 51.936,239.718 50.918,236.600 47.788 C 233.137 44.311,230.830 42.436,229.100 41.691 C 228.495 41.430,228.000 41.036,228.000 40.814 C 228.000 40.592,227.415 40.135,226.700 39.798 C 225.985 39.461,224.950 38.928,224.400 38.613 C 222.026 37.253,218.061 35.600,217.168 35.599 C 216.636 35.598,215.570 35.210,214.800 34.736 C 212.677 33.430,202.670 32.935,191.200 33.568 M194.494 34.283 C 193.971 34.384,193.701 34.640,193.856 34.890 C 194.031 35.173,193.933 35.206,193.575 34.985 C 193.274 34.798,192.391 34.521,191.614 34.369 C 190.503 34.151,190.758 34.094,192.800 34.100 C 194.230 34.105,194.992 34.187,194.494 34.283 M208.034 34.404 C 207.283 34.581,206.293 34.574,205.834 34.388 C 205.237 34.146,205.624 34.055,207.200 34.066 C 209.191 34.080,209.270 34.112,208.034 34.404 M212.724 42.922 C 213.858 43.515,215.138 44.000,215.568 44.000 C 216.276 44.000,219.088 45.339,222.762 47.426 C 224.392 48.352,229.344 52.437,230.933 54.166 C 233.203 56.637,235.818 59.917,236.574 61.243 C 238.579 64.761,239.933 67.586,240.204 68.818 C 240.367 69.561,240.883 70.895,241.350 71.784 C 242.646 74.248,242.658 93.720,241.366 96.200 C 240.908 97.080,240.313 98.684,240.044 99.765 C 239.775 100.846,239.206 102.175,238.778 102.719 C 238.350 103.263,238.000 103.893,238.000 104.119 C 238.000 106.582,228.569 116.972,223.400 120.203 C 220.085 122.275,217.317 123.660,215.649 124.080 C 214.632 124.336,213.170 124.918,212.400 125.373 C 210.204 126.670,189.729 126.646,187.600 125.343 C 186.830 124.872,185.585 124.356,184.834 124.197 C 183.585 123.932,180.700 122.554,177.253 120.574 C 173.115 118.197,165.668 110.745,163.445 106.755 C 161.059 102.473,160.000 100.314,160.000 99.733 C 160.000 99.372,159.505 98.070,158.900 96.839 L 157.800 94.600 157.800 84.000 L 157.800 73.400 158.900 71.307 C 159.505 70.156,160.005 68.896,160.010 68.507 C 160.019 67.871,161.154 65.533,163.953 60.378 C 166.843 55.058,180.727 44.000,184.518 44.000 C 185.010 44.000,186.129 43.604,187.006 43.121 C 190.548 41.168,209.095 41.024,212.724 42.922 M247.919 68.044 C 247.830 68.309,247.536 68.198,247.185 67.767 C 246.833 67.333,246.799 67.166,247.100 67.347 C 247.396 67.524,247.613 67.433,247.632 67.124 C 247.656 66.721,247.710 66.715,247.865 67.100 C 247.976 67.375,248.000 67.800,247.919 68.044 M249.988 75.300 C 249.978 76.625,249.888 76.849,249.576 76.315 C 249.224 75.711,249.432 73.600,249.843 73.600 C 249.930 73.600,249.995 74.365,249.988 75.300 M150.985 77.575 C 151.205 77.932,151.173 78.030,150.892 77.857 C 150.655 77.710,150.378 77.907,150.277 78.295 C 150.176 78.683,150.093 77.920,150.092 76.600 C 150.092 74.617,150.140 74.446,150.369 75.614 C 150.521 76.391,150.798 77.274,150.985 77.575 M150.929 90.529 C 151.289 90.313,151.290 90.383,150.933 90.825 C 150.676 91.143,150.389 92.032,150.297 92.802 C 150.204 93.571,150.124 93.030,150.118 91.600 C 150.113 90.170,150.187 89.408,150.283 89.906 C 150.392 90.470,150.635 90.705,150.929 90.529 M249.928 93.700 C 249.824 94.430,249.713 94.317,249.337 93.099 C 249.083 92.274,249.038 91.700,249.237 91.823 C 249.437 91.946,249.625 91.812,249.654 91.524 C 249.684 91.236,249.787 91.405,249.882 91.900 C 249.978 92.395,249.998 93.205,249.928 93.700 M247.968 100.500 C 247.951 100.995,247.846 101.174,247.734 100.898 C 247.623 100.621,247.322 100.521,247.066 100.674 C 246.810 100.828,246.847 100.649,247.149 100.277 C 247.872 99.386,248.006 99.422,247.968 100.500 M235.652 119.337 C 235.407 119.632,235.300 119.966,235.413 120.080 C 235.527 120.193,235.300 120.537,234.910 120.843 C 234.280 121.338,234.256 121.329,234.697 120.763 C 234.970 120.413,235.087 120.020,234.956 119.890 C 234.637 119.570,235.143 118.800,235.673 118.800 C 235.963 118.800,235.957 118.970,235.652 119.337 M197.100 129.026 C 199.861 129.697,200.138 129.698,202.882 129.035 C 209.922 127.336,213.287 127.750,214.001 130.404 C 214.273 131.413,214.373 165.952,214.304 234.482 L 214.200 337.051 212.600 339.328 C 211.720 340.581,210.550 342.323,210.000 343.200 C 209.450 344.077,208.325 345.786,207.500 346.997 C 206.675 348.209,205.326 350.211,204.502 351.446 C 201.330 356.201,198.696 356.129,195.453 351.200 C 194.657 349.990,193.329 348.022,192.503 346.826 C 191.676 345.630,190.749 344.190,190.443 343.626 C 190.136 343.062,189.095 341.554,188.128 340.276 C 186.923 338.683,186.249 337.313,185.985 335.921 C 185.498 333.354,185.493 133.737,185.979 131.215 C 186.645 127.763,189.552 127.190,197.100 129.026 M221.100 284.100 C 221.043 312.315,220.997 289.230,220.997 232.800 C 220.997 176.370,221.043 153.285,221.100 181.500 C 221.157 209.715,221.157 255.885,221.100 284.100 M178.934 337.326 C 179.190 337.172,179.136 337.396,178.813 337.823 C 178.490 338.250,178.175 338.675,178.113 338.767 C 178.051 338.858,178.014 338.408,178.032 337.767 C 178.049 337.125,178.154 336.826,178.266 337.102 C 178.377 337.379,178.678 337.479,178.934 337.326 " stroke="none" fill="#1c242c" fill-rule="evenodd"></path><path id="path5" d="M188.127 129.004 C 186.321 129.763,186.411 124.288,186.405 233.861 L 186.400 336.323 192.100 344.861 C 200.239 357.054,199.926 357.053,208.022 344.936 C 212.807 337.776,213.311 336.850,213.632 334.634 C 214.070 331.608,214.073 134.536,213.636 131.874 C 213.080 128.496,211.186 127.951,204.995 129.387 C 201.706 130.149,198.406 130.167,195.125 129.441 C 191.160 128.563,189.432 128.455,188.127 129.004 M194.000 130.035 C 198.672 130.962,202.660 130.885,207.450 129.774 C 210.546 129.056,211.742 129.234,212.597 130.540 C 213.137 131.364,213.193 142.850,213.102 233.841 L 213.000 336.216 211.400 338.558 C 210.520 339.847,209.123 341.980,208.295 343.298 C 207.468 344.617,206.388 346.207,205.895 346.831 C 205.403 347.456,204.385 348.956,203.632 350.163 C 202.024 352.745,200.582 353.553,198.900 352.814 C 197.752 352.309,188.027 338.146,187.203 335.779 C 186.325 333.255,186.874 131.023,187.762 130.042 C 188.699 129.007,188.813 129.007,194.000 130.035 " stroke="none" fill="#242c34" fill-rule="evenodd"></path><path id="path6" d="M190.600 43.223 C 176.851 47.126,165.296 57.072,161.375 68.378 C 161.027 69.380,160.364 71.100,159.900 72.200 C 158.936 74.491,158.367 89.583,159.121 92.891 C 162.444 107.479,173.086 118.955,188.000 124.036 L 191.800 125.330 200.200 125.331 C 207.220 125.332,208.896 125.218,210.400 124.637 C 211.390 124.255,212.990 123.686,213.955 123.374 C 215.929 122.734,219.689 120.974,221.200 119.982 C 221.750 119.621,223.007 118.802,223.994 118.163 C 230.823 113.738,236.711 105.612,240.053 96.000 L 241.375 92.200 241.350 84.000 C 241.290 63.880,228.825 48.049,209.200 43.167 C 207.419 42.724,192.196 42.769,190.600 43.223 M211.251 44.365 C 229.908 50.161,240.901 64.846,240.920 84.000 L 240.928 91.800 239.522 96.000 C 234.954 109.648,225.648 118.954,212.000 123.522 L 207.800 124.928 200.000 124.923 C 191.553 124.917,188.997 124.394,182.400 121.319 C 158.954 110.391,151.652 80.252,167.289 58.951 C 169.109 56.472,173.984 51.815,176.411 50.237 C 177.395 49.598,178.650 48.771,179.200 48.400 C 181.084 47.128,188.342 44.295,191.800 43.481 C 195.222 42.676,207.628 43.239,211.251 44.365 M196.000 57.845 C 194.096 58.746,195.269 59.120,200.000 59.120 C 204.343 59.120,205.592 58.823,204.624 58.020 C 203.559 57.136,197.747 57.019,196.000 57.845 M202.400 58.000 C 202.815 58.268,202.076 58.381,200.000 58.366 C 197.957 58.351,197.255 58.234,197.800 58.000 C 198.898 57.528,201.670 57.528,202.400 58.000 M217.451 65.700 C 220.620 68.946,222.292 71.320,223.321 74.035 C 224.424 76.944,225.315 77.843,225.033 75.762 C 224.542 72.142,217.604 62.800,215.407 62.800 C 214.812 62.800,215.312 63.509,217.451 65.700 M225.324 81.400 C 225.386 84.655,225.512 85.400,226.000 85.400 C 226.848 85.400,226.777 80.684,225.900 78.800 C 225.252 77.407,225.249 77.421,225.324 81.400 M226.400 83.424 C 226.400 84.181,226.220 84.800,226.000 84.800 C 225.780 84.800,225.600 84.069,225.600 83.176 C 225.600 82.196,225.758 81.651,226.000 81.800 C 226.220 81.936,226.400 82.667,226.400 83.424 M187.862 129.931 C 187.498 130.334,187.200 130.824,187.200 131.020 C 187.200 131.217,187.472 130.989,187.805 130.514 C 188.150 130.022,188.968 129.581,189.705 129.489 L 191.000 129.328 189.762 129.264 C 189.005 129.225,188.267 129.484,187.862 129.931 M186.997 233.600 C 186.997 289.590,187.043 312.495,187.100 284.500 C 187.157 256.505,187.157 210.695,187.100 182.700 C 187.043 154.705,186.997 177.610,186.997 233.600 " stroke="none" fill="#342434" fill-rule="evenodd"></path><path id="path7" d="M193.026 34.358 C 192.904 34.555,193.083 34.823,193.423 34.954 C 193.763 35.084,193.940 35.026,193.815 34.824 C 193.690 34.622,193.996 34.379,194.494 34.283 C 195.295 34.129,195.275 34.103,194.324 34.054 C 193.732 34.025,193.148 34.161,193.026 34.358 M205.800 34.400 C 206.901 34.873,207.292 34.873,207.000 34.400 C 206.864 34.180,206.358 34.013,205.876 34.028 C 205.031 34.055,205.029 34.069,205.800 34.400 M190.600 41.953 C 189.500 42.112,187.883 42.638,187.006 43.121 C 186.129 43.604,185.010 44.000,184.518 44.000 C 180.727 44.000,166.843 55.058,163.953 60.378 C 161.154 65.533,160.019 67.871,160.010 68.507 C 160.005 68.896,159.505 70.156,158.900 71.307 L 157.800 73.400 157.800 84.000 L 157.800 94.600 158.900 96.839 C 159.505 98.070,160.000 99.372,160.000 99.733 C 160.000 100.314,161.059 102.473,163.445 106.755 C 165.668 110.745,173.115 118.197,177.253 120.574 C 180.700 122.554,183.585 123.932,184.834 124.197 C 185.585 124.356,186.830 124.872,187.600 125.343 C 189.729 126.646,210.204 126.670,212.400 125.373 C 213.170 124.918,214.632 124.336,215.649 124.080 C 217.317 123.660,220.085 122.275,223.400 120.203 C 228.569 116.972,238.000 106.582,238.000 104.119 C 238.000 103.893,238.350 103.263,238.778 102.719 C 239.206 102.175,239.775 100.846,240.044 99.765 C 240.313 98.684,240.908 97.080,241.366 96.200 C 242.658 93.720,242.646 74.248,241.350 71.784 C 240.883 70.895,240.367 69.561,240.204 68.818 C 239.933 67.586,238.579 64.761,236.574 61.243 C 235.818 59.917,233.203 56.637,230.933 54.166 C 229.344 52.437,224.392 48.352,222.762 47.426 C 219.088 45.339,216.276 44.000,215.568 44.000 C 215.138 44.000,213.858 43.515,212.724 42.922 C 210.552 41.787,196.120 41.154,190.600 41.953 M209.600 42.790 C 223.549 46.486,236.382 58.045,239.810 70.000 C 240.093 70.990,240.628 72.610,240.998 73.600 C 241.985 76.241,241.985 91.759,240.998 94.400 C 240.628 95.390,240.077 97.076,239.773 98.147 C 238.296 103.353,232.797 111.433,227.786 115.759 C 223.910 119.105,216.344 123.600,214.587 123.600 C 214.240 123.600,213.111 123.987,212.078 124.460 C 208.184 126.242,191.837 126.239,188.000 124.455 C 187.010 123.994,185.881 123.614,185.491 123.609 C 184.799 123.600,180.352 121.393,176.850 119.321 C 170.876 115.785,160.400 102.361,160.400 98.242 C 160.400 97.871,159.995 96.810,159.500 95.884 C 158.634 94.264,158.600 93.812,158.600 84.000 C 158.600 74.188,158.634 73.736,159.500 72.116 C 159.995 71.190,160.400 70.143,160.400 69.791 C 160.400 67.212,166.126 58.378,170.665 53.954 C 175.074 49.656,183.385 44.400,185.770 44.400 C 186.138 44.400,187.016 44.098,187.720 43.728 C 190.101 42.480,205.875 41.803,209.600 42.790 M249.212 75.200 C 249.212 75.530,249.387 76.070,249.600 76.400 C 249.945 76.933,249.988 76.933,249.988 76.400 C 249.988 76.070,249.813 75.530,249.600 75.200 C 249.255 74.667,249.212 74.667,249.212 75.200 M150.150 77.387 C 150.026 77.710,150.017 78.205,150.131 78.487 C 150.257 78.800,150.349 78.718,150.368 78.276 C 150.386 77.878,150.578 77.663,150.795 77.797 C 151.022 77.937,151.089 77.777,150.953 77.421 C 150.655 76.645,150.438 76.636,150.150 77.387 M150.054 89.876 C 149.992 90.888,150.608 91.434,151.034 90.745 C 151.208 90.463,151.151 90.383,150.890 90.544 C 150.640 90.699,150.384 90.429,150.283 89.906 C 150.110 89.007,150.109 89.007,150.054 89.876 M249.632 91.524 C 249.614 91.812,249.437 91.946,249.237 91.823 C 249.038 91.700,248.974 91.980,249.096 92.445 C 249.291 93.192,249.361 93.213,249.687 92.631 C 249.890 92.267,249.968 91.752,249.860 91.485 C 249.716 91.130,249.655 91.141,249.632 91.524 M187.262 128.666 C 185.646 129.980,185.635 130.679,185.617 233.445 C 185.598 342.875,185.454 336.741,188.128 340.276 C 189.095 341.554,190.136 343.062,190.443 343.626 C 190.749 344.190,191.676 345.630,192.503 346.826 C 193.329 348.022,194.657 349.990,195.453 351.200 C 198.696 356.129,201.330 356.201,204.502 351.446 C 205.326 350.211,206.675 348.209,207.500 346.997 C 208.325 345.786,209.450 344.077,210.000 343.200 C 210.550 342.323,211.720 340.581,212.600 339.328 L 214.200 337.051 214.304 234.482 C 214.373 165.952,214.273 131.413,214.001 130.404 C 213.287 127.750,209.922 127.336,202.882 129.035 C 200.138 129.698,199.861 129.697,197.100 129.026 C 192.421 127.888,188.400 127.741,187.262 128.666 M195.125 129.441 C 198.406 130.167,201.706 130.149,204.995 129.387 C 211.186 127.951,213.080 128.496,213.636 131.874 C 214.073 134.536,214.070 331.608,213.632 334.634 C 213.311 336.850,212.807 337.776,208.022 344.936 C 199.926 357.053,200.239 357.054,192.100 344.861 L 186.400 336.323 186.405 233.861 C 186.408 177.508,186.525 130.975,186.664 130.456 C 187.184 128.513,189.618 128.221,195.125 129.441 M220.997 232.800 C 220.997 289.230,221.043 312.315,221.100 284.100 C 221.157 255.885,221.157 209.715,221.100 181.500 C 221.043 153.285,220.997 176.370,220.997 232.800 " stroke="none" fill="#24242c" fill-rule="evenodd"></path><path id="path8" d="M190.400 42.774 C 189.630 42.930,188.424 43.359,187.720 43.728 C 187.016 44.098,186.138 44.400,185.770 44.400 C 183.385 44.400,175.074 49.656,170.665 53.954 C 166.126 58.378,160.400 67.212,160.400 69.791 C 160.400 70.143,159.995 71.190,159.500 72.116 C 158.634 73.736,158.600 74.188,158.600 84.000 C 158.600 93.812,158.634 94.264,159.500 95.884 C 159.995 96.810,160.400 97.871,160.400 98.242 C 160.400 102.362,170.877 115.786,176.850 119.321 C 180.483 121.470,184.207 123.301,185.972 123.804 C 186.977 124.091,188.520 124.605,189.400 124.945 C 190.317 125.301,192.110 125.547,193.600 125.524 L 196.200 125.483 193.400 125.212 C 184.776 124.379,174.193 118.258,167.635 110.312 C 164.403 106.395,160.475 98.457,159.167 93.200 C 158.700 91.320,158.722 76.563,159.195 74.800 C 162.844 61.196,173.010 49.317,184.378 45.375 C 185.380 45.027,187.100 44.364,188.200 43.900 C 189.968 43.156,191.183 43.039,198.691 42.895 C 209.371 42.689,210.835 42.991,219.071 47.094 C 230.715 52.895,240.083 65.718,241.212 77.400 L 241.483 80.200 241.524 77.600 C 241.547 76.110,241.301 74.317,240.945 73.400 C 240.605 72.520,240.094 70.990,239.810 70.000 C 236.381 58.043,223.549 46.486,209.600 42.790 C 207.990 42.364,192.499 42.351,190.400 42.774 M197.800 58.000 C 197.255 58.234,197.957 58.351,200.000 58.366 C 202.076 58.381,202.815 58.268,202.400 58.000 C 201.670 57.528,198.898 57.528,197.800 58.000 M225.600 83.176 C 225.600 84.069,225.780 84.800,226.000 84.800 C 226.220 84.800,226.400 84.181,226.400 83.424 C 226.400 82.667,226.220 81.936,226.000 81.800 C 225.758 81.651,225.600 82.196,225.600 83.176 M241.709 84.000 C 241.709 84.990,241.787 85.395,241.882 84.900 C 241.978 84.405,241.978 83.595,241.882 83.100 C 241.787 82.605,241.709 83.010,241.709 84.000 M241.276 90.415 C 240.987 98.856,232.325 112.765,223.994 118.163 C 223.007 118.802,221.750 119.622,221.200 119.985 C 219.745 120.945,214.939 123.199,214.325 123.209 C 214.036 123.214,212.990 123.592,212.000 124.051 C 211.010 124.509,208.850 125.033,207.200 125.215 L 204.200 125.547 207.200 125.435 C 209.228 125.359,210.808 125.044,212.078 124.462 C 213.111 123.988,214.240 123.600,214.587 123.600 C 216.344 123.600,223.910 119.105,227.786 115.759 C 232.797 111.433,238.296 103.353,239.773 98.147 C 240.077 97.076,240.620 95.409,240.981 94.441 C 241.396 93.327,241.584 91.862,241.494 90.441 L 241.351 88.200 241.276 90.415 M198.900 125.887 C 199.505 125.978,200.495 125.978,201.100 125.887 C 201.705 125.795,201.210 125.720,200.000 125.720 C 198.790 125.720,198.295 125.795,198.900 125.887 " stroke="none" fill="#2c242e" fill-rule="evenodd"></path></g></svg>