<svg id="svg" version="1.1" xmlns="http://www.w3.org/2000/svg" xmlns:xlink="http://www.w3.org/1999/xlink" width="400" height="400" viewBox="0, 0, 400,400"><g id="svgg"><path id="path0" d="M180.800 43.074 C 180.250 43.174,179.615 43.494,179.389 43.784 C 179.121 44.126,177.744 44.361,175.456 44.455 C 172.677 44.570,171.828 44.748,171.424 45.300 C 171.041 45.823,170.343 46.000,168.656 46.000 C 166.933 46.000,166.211 46.189,165.600 46.800 C 165.009 47.391,164.267 47.600,162.763 47.600 C 161.062 47.600,160.691 47.732,160.516 48.400 C 160.348 49.044,159.970 49.200,158.586 49.200 C 156.484 49.200,155.600 49.509,155.600 50.243 C 155.600 50.626,155.101 50.800,154.000 50.800 C 152.667 50.800,152.400 50.933,152.400 51.600 C 152.400 52.267,152.133 52.400,150.796 52.400 C 149.687 52.400,148.981 52.647,148.507 53.200 C 148.074 53.706,147.327 54.000,146.474 54.000 C 145.462 54.000,145.073 54.200,144.916 54.800 C 144.757 55.406,144.370 55.600,143.316 55.600 C 142.262 55.600,141.875 55.794,141.716 56.400 C 141.601 56.840,141.245 57.200,140.925 57.200 C 140.605 57.200,140.064 57.479,139.723 57.820 C 139.382 58.160,138.585 58.543,137.952 58.670 C 137.318 58.796,136.800 59.132,136.800 59.415 C 136.800 59.704,136.098 60.048,135.200 60.200 C 134.216 60.366,133.600 60.688,133.600 61.035 C 133.600 61.346,133.313 61.600,132.963 61.600 C 132.612 61.600,132.231 61.960,132.116 62.400 C 131.969 62.962,131.570 63.200,130.776 63.200 C 130.142 63.200,129.416 63.519,129.123 63.926 C 128.835 64.326,128.285 64.770,127.900 64.914 C 127.515 65.057,127.200 65.451,127.200 65.787 C 127.200 66.133,126.852 66.400,126.400 66.400 C 125.960 66.400,125.240 66.760,124.800 67.200 C 124.360 67.640,123.730 68.000,123.400 68.000 C 123.067 68.000,122.800 68.356,122.800 68.800 C 122.800 69.333,122.533 69.600,122.000 69.600 C 121.467 69.600,121.200 69.867,121.200 70.400 C 121.200 70.933,120.933 71.200,120.400 71.200 C 119.867 71.200,119.600 71.467,119.600 72.000 C 119.600 72.533,119.333 72.800,118.800 72.800 C 118.267 72.800,118.000 73.067,118.000 73.600 C 118.000 74.133,117.733 74.400,117.200 74.400 C 116.760 74.400,116.400 74.575,116.400 74.790 C 116.400 75.004,115.839 75.470,115.152 75.825 C 113.497 76.681,110.444 79.865,109.887 81.317 C 109.743 81.693,109.439 82.000,109.213 82.000 C 108.986 82.000,108.800 82.360,108.800 82.800 C 108.800 83.333,108.533 83.600,108.000 83.600 C 107.467 83.600,107.200 83.867,107.200 84.400 C 107.200 84.933,106.933 85.200,106.400 85.200 C 105.867 85.200,105.600 85.467,105.600 86.000 C 105.600 86.533,105.333 86.800,104.800 86.800 C 104.267 86.800,104.000 87.067,104.000 87.600 C 104.000 88.133,103.733 88.400,103.200 88.400 C 102.663 88.400,102.400 88.667,102.400 89.213 C 102.400 89.659,102.141 90.124,101.824 90.246 C 101.508 90.367,101.135 90.984,100.997 91.615 C 100.857 92.249,100.398 92.874,99.972 93.009 C 99.547 93.144,99.200 93.505,99.200 93.813 C 99.200 94.120,98.840 94.565,98.400 94.800 C 97.876 95.080,97.600 95.638,97.600 96.414 C 97.600 97.212,97.400 97.600,96.987 97.600 C 96.651 97.600,96.259 97.901,96.118 98.269 C 95.977 98.638,95.532 99.268,95.131 99.669 C 94.729 100.071,94.400 100.850,94.400 101.400 C 94.400 101.988,94.170 102.400,93.843 102.400 C 93.198 102.400,92.800 103.252,92.800 104.633 C 92.800 105.226,92.568 105.600,92.200 105.600 C 91.844 105.600,91.600 105.967,91.600 106.504 C 91.600 107.001,91.240 107.632,90.800 107.907 C 90.360 108.182,90.000 108.765,90.000 109.203 C 90.000 109.642,89.640 110.360,89.200 110.800 C 88.667 111.333,88.400 112.133,88.400 113.200 C 88.400 114.533,88.267 114.800,87.600 114.800 C 86.933 114.800,86.800 115.067,86.800 116.400 C 86.800 117.733,86.667 118.000,86.000 118.000 C 85.335 118.000,85.200 118.267,85.200 119.580 C 85.200 120.626,84.979 121.284,84.546 121.526 C 84.124 121.762,83.823 122.617,83.696 123.946 C 83.572 125.232,83.309 126.000,82.992 126.000 C 82.262 126.000,82.000 126.949,82.000 129.586 C 82.000 131.570,81.884 131.937,81.200 132.116 C 80.490 132.302,80.400 132.662,80.400 135.316 C 80.400 137.970,80.310 138.330,79.600 138.516 C 78.873 138.706,78.800 139.062,78.800 142.418 C 78.800 145.474,78.679 146.200,78.100 146.624 C 77.023 147.411,77.023 179.899,78.100 181.089 C 78.664 181.713,78.800 182.607,78.800 185.705 C 78.800 189.195,78.873 189.569,79.600 189.800 C 80.303 190.023,80.400 190.405,80.400 192.952 C 80.400 195.296,80.553 196.013,81.200 196.708 C 81.804 197.356,82.000 198.119,82.000 199.821 C 82.000 201.738,82.119 202.106,82.800 202.284 C 83.475 202.461,83.600 202.830,83.600 204.647 C 83.600 206.533,83.699 206.800,84.400 206.800 C 85.093 206.800,85.200 207.067,85.200 208.797 C 85.200 210.360,85.374 210.902,86.000 211.293 C 86.542 211.631,86.800 212.226,86.800 213.134 C 86.800 214.138,87.001 214.527,87.600 214.684 C 88.227 214.848,88.400 215.230,88.400 216.447 C 88.400 217.733,88.537 218.000,89.200 218.000 C 89.867 218.000,90.000 218.267,90.000 219.600 C 90.000 220.933,90.133 221.200,90.800 221.200 C 91.443 221.200,91.600 221.467,91.600 222.557 C 91.600 223.372,91.831 224.003,92.178 224.136 C 92.496 224.258,92.876 224.997,93.022 225.779 C 93.176 226.597,93.525 227.200,93.845 227.200 C 94.150 227.200,94.400 227.560,94.400 228.000 C 94.400 228.533,94.667 228.800,95.200 228.800 C 95.852 228.800,96.000 229.067,96.000 230.237 C 96.000 231.338,96.187 231.724,96.800 231.884 C 97.240 231.999,97.600 232.389,97.600 232.750 C 97.600 233.112,97.960 233.632,98.400 233.907 C 98.865 234.197,99.200 234.840,99.200 235.441 C 99.200 236.138,99.460 236.543,100.000 236.684 C 100.443 236.800,100.800 237.230,100.800 237.647 C 100.800 238.133,101.083 238.400,101.600 238.400 C 102.228 238.400,102.400 238.667,102.400 239.637 C 102.400 240.538,102.617 240.932,103.200 241.084 C 103.643 241.200,104.000 241.630,104.000 242.047 C 104.000 242.533,104.283 242.800,104.800 242.800 C 105.333 242.800,105.600 243.067,105.600 243.600 C 105.600 244.133,105.867 244.400,106.400 244.400 C 107.052 244.400,107.200 244.667,107.200 245.837 C 107.200 246.938,107.387 247.324,108.000 247.484 C 108.443 247.600,108.800 248.030,108.800 248.447 C 108.800 248.861,109.049 249.200,109.353 249.200 C 109.658 249.200,110.001 249.560,110.116 250.000 C 110.231 250.440,110.592 250.800,110.918 250.800 C 111.279 250.800,111.614 251.348,111.774 252.200 C 111.931 253.038,112.270 253.600,112.618 253.600 C 112.942 253.600,113.200 253.971,113.200 254.437 C 113.200 254.925,113.519 255.358,113.963 255.474 C 114.383 255.584,114.816 256.017,114.926 256.437 C 115.035 256.857,115.412 257.200,115.763 257.200 C 116.124 257.200,116.400 257.532,116.400 257.967 C 116.400 259.159,116.831 260.000,117.443 260.000 C 117.749 260.000,118.000 260.360,118.000 260.800 C 118.000 261.333,118.267 261.600,118.800 261.600 C 119.333 261.600,119.600 261.867,119.600 262.400 C 119.600 262.933,119.867 263.200,120.400 263.200 C 121.045 263.200,121.200 263.467,121.200 264.573 C 121.200 265.595,121.405 266.011,122.000 266.200 C 122.440 266.340,122.800 266.802,122.800 267.227 C 122.800 267.733,123.076 268.000,123.600 268.000 C 124.133 268.000,124.400 268.267,124.400 268.800 C 124.400 269.240,124.656 269.600,124.968 269.600 C 125.281 269.600,125.658 270.152,125.806 270.827 C 125.954 271.502,126.328 272.151,126.638 272.270 C 126.947 272.388,127.200 272.730,127.200 273.029 C 127.200 273.327,127.560 273.765,128.000 274.000 C 128.440 274.235,128.800 274.692,128.800 275.014 C 128.800 275.336,129.140 275.600,129.555 275.600 C 130.104 275.600,130.384 275.989,130.578 277.021 C 130.724 277.803,131.104 278.542,131.422 278.664 C 131.740 278.786,132.000 279.226,132.000 279.643 C 132.000 280.133,132.282 280.400,132.800 280.400 C 133.333 280.400,133.600 280.667,133.600 281.200 C 133.600 281.733,133.867 282.000,134.400 282.000 C 134.922 282.000,135.200 282.267,135.200 282.767 C 135.200 283.959,135.631 284.800,136.243 284.800 C 136.549 284.800,136.800 285.177,136.800 285.637 C 136.800 286.138,137.121 286.559,137.600 286.684 C 138.043 286.800,138.400 287.230,138.400 287.647 C 138.400 288.133,138.683 288.400,139.200 288.400 C 139.722 288.400,140.000 288.667,140.000 289.167 C 140.000 290.359,140.431 291.200,141.043 291.200 C 141.349 291.200,141.600 291.560,141.600 292.000 C 141.600 292.440,141.849 292.800,142.153 292.800 C 142.458 292.800,142.801 293.160,142.916 293.600 C 143.031 294.040,143.412 294.400,143.763 294.400 C 144.133 294.400,144.400 294.735,144.400 295.200 C 144.400 295.640,144.760 296.360,145.200 296.800 C 145.640 297.240,146.000 297.887,146.000 298.237 C 146.000 298.588,146.360 298.969,146.800 299.084 C 147.243 299.200,147.600 299.630,147.600 300.047 C 147.600 300.533,147.883 300.800,148.400 300.800 C 148.911 300.800,149.200 301.067,149.200 301.538 C 149.200 301.944,149.560 302.602,150.000 303.000 C 150.440 303.398,150.800 304.044,150.800 304.435 C 150.800 304.826,151.141 305.254,151.557 305.386 C 151.973 305.518,152.406 305.981,152.519 306.413 C 152.633 306.846,153.012 307.200,153.363 307.200 C 153.713 307.200,154.000 307.470,154.000 307.800 C 154.000 308.130,154.360 308.760,154.800 309.200 C 155.240 309.640,155.600 310.360,155.600 310.800 C 155.600 311.333,155.867 311.600,156.400 311.600 C 156.933 311.600,157.200 311.867,157.200 312.400 C 157.200 312.933,157.467 313.200,158.000 313.200 C 158.440 313.200,158.797 313.425,158.793 313.700 C 158.781 314.563,160.578 317.968,161.053 317.984 C 161.303 317.993,161.601 318.360,161.716 318.800 C 161.831 319.240,162.212 319.600,162.563 319.600 C 162.932 319.600,163.200 319.934,163.200 320.397 C 163.200 320.835,163.560 321.418,164.000 321.693 C 164.440 321.968,164.800 322.526,164.800 322.934 C 164.800 323.341,165.160 323.769,165.600 323.884 C 166.043 324.000,166.400 324.430,166.400 324.847 C 166.400 325.333,166.683 325.600,167.200 325.600 C 167.697 325.600,168.000 325.867,168.000 326.304 C 168.000 326.691,168.360 327.232,168.800 327.507 C 169.310 327.826,169.600 328.440,169.600 329.203 C 169.600 330.133,169.778 330.400,170.400 330.400 C 170.933 330.400,171.200 330.667,171.200 331.200 C 171.200 331.733,171.467 332.000,172.000 332.000 C 172.497 332.000,172.800 332.267,172.800 332.704 C 172.800 333.091,173.160 333.632,173.600 333.907 C 174.047 334.187,174.400 334.840,174.400 335.389 C 174.400 335.962,174.733 336.550,175.200 336.800 C 175.640 337.035,176.000 337.492,176.000 337.814 C 176.000 338.136,176.270 338.400,176.600 338.400 C 176.930 338.400,177.200 338.664,177.200 338.986 C 177.200 339.308,177.536 339.752,177.947 339.972 C 178.358 340.192,178.804 340.918,178.937 341.586 C 179.080 342.301,179.431 342.800,179.790 342.800 C 180.133 342.800,180.400 343.150,180.400 343.600 C 180.400 344.133,180.667 344.400,181.200 344.400 C 181.697 344.400,182.000 344.667,182.000 345.104 C 182.000 345.491,182.360 346.032,182.800 346.307 C 183.265 346.597,183.600 347.240,183.600 347.841 C 183.600 348.538,183.860 348.943,184.400 349.084 C 184.843 349.200,185.200 349.630,185.200 350.047 C 185.200 350.533,185.483 350.800,186.000 350.800 C 186.533 350.800,186.800 351.067,186.800 351.600 C 186.800 352.133,187.067 352.400,187.600 352.400 C 188.133 352.400,188.400 352.667,188.400 353.200 C 188.400 353.717,188.667 354.000,189.153 354.000 C 189.570 354.000,190.000 354.357,190.116 354.800 C 190.276 355.413,190.662 355.600,191.763 355.600 C 192.725 355.600,193.200 355.784,193.200 356.157 C 193.200 357.050,194.150 357.200,199.733 357.195 C 205.396 357.189,206.800 356.992,206.800 356.204 C 206.800 355.928,207.519 355.587,208.400 355.446 C 209.435 355.281,210.000 354.980,210.000 354.595 C 210.000 354.267,210.358 354.000,210.800 354.000 C 211.333 354.000,211.600 353.733,211.600 353.200 C 211.600 352.667,211.867 352.400,212.400 352.400 C 212.933 352.400,213.200 352.133,213.200 351.600 C 213.200 351.067,213.467 350.800,214.000 350.800 C 214.517 350.800,214.800 350.533,214.800 350.047 C 214.800 349.630,215.157 349.200,215.600 349.084 C 216.140 348.943,216.400 348.538,216.400 347.841 C 216.400 347.240,216.735 346.597,217.200 346.307 C 217.640 346.032,218.000 345.491,218.000 345.104 C 218.000 344.667,218.303 344.400,218.800 344.400 C 219.317 344.400,219.600 344.133,219.600 343.647 C 219.600 343.230,219.957 342.800,220.400 342.684 C 220.937 342.544,221.200 342.138,221.200 341.452 C 221.200 340.838,221.520 340.257,222.000 340.000 C 222.440 339.765,222.800 339.329,222.800 339.033 C 222.800 338.736,223.160 338.399,223.600 338.284 C 224.040 338.169,224.400 337.807,224.400 337.480 C 224.400 337.153,224.670 336.782,225.000 336.655 C 225.330 336.529,225.600 335.971,225.600 335.416 C 225.600 334.840,225.943 334.192,226.400 333.907 C 226.840 333.632,227.200 333.091,227.200 332.704 C 227.200 332.267,227.503 332.000,228.000 332.000 C 228.533 332.000,228.800 331.733,228.800 331.200 C 228.800 330.667,229.067 330.400,229.600 330.400 C 230.222 330.400,230.400 330.133,230.400 329.203 C 230.400 328.440,230.690 327.826,231.200 327.507 C 231.640 327.232,232.000 326.691,232.000 326.304 C 232.000 325.867,232.303 325.600,232.800 325.600 C 233.317 325.600,233.600 325.333,233.600 324.847 C 233.600 324.430,233.957 324.000,234.400 323.884 C 234.950 323.740,235.200 323.338,235.200 322.600 C 235.200 321.862,235.450 321.460,236.000 321.316 C 236.443 321.200,236.800 320.770,236.800 320.353 C 236.800 319.931,237.080 319.600,237.437 319.600 C 237.788 319.600,238.166 319.252,238.277 318.828 C 238.388 318.403,238.721 317.962,239.017 317.849 C 239.314 317.735,239.676 317.003,239.822 316.221 C 240.016 315.189,240.296 314.800,240.845 314.800 C 241.333 314.800,241.600 314.518,241.600 314.000 C 241.600 313.556,241.867 313.200,242.200 313.200 C 242.533 313.200,242.800 312.844,242.800 312.400 C 242.800 311.867,243.067 311.600,243.600 311.600 C 244.267 311.600,244.400 311.333,244.400 310.000 C 244.400 308.667,244.533 308.400,245.200 308.400 C 245.644 308.400,246.000 308.133,246.000 307.800 C 246.000 307.470,246.274 307.200,246.610 307.200 C 246.945 307.200,247.391 306.750,247.600 306.200 C 247.809 305.650,248.255 305.200,248.590 305.200 C 249.020 305.200,249.200 304.788,249.200 303.800 C 249.200 302.667,249.352 302.400,250.000 302.400 C 250.533 302.400,250.800 302.133,250.800 301.600 C 250.800 301.067,251.067 300.800,251.600 300.800 C 252.133 300.800,252.400 300.533,252.400 300.000 C 252.400 299.560,252.651 299.200,252.957 299.200 C 253.602 299.200,254.000 298.348,254.000 296.967 C 254.000 296.267,254.221 296.000,254.800 296.000 C 255.333 296.000,255.600 295.733,255.600 295.200 C 255.600 294.735,255.867 294.400,256.237 294.400 C 256.588 294.400,256.969 294.040,257.084 293.600 C 257.199 293.160,257.542 292.800,257.847 292.800 C 258.212 292.800,258.400 292.325,258.400 291.400 C 258.400 290.267,258.552 290.000,259.200 290.000 C 259.733 290.000,260.000 289.733,260.000 289.200 C 260.000 288.667,260.267 288.400,260.800 288.400 C 261.324 288.400,261.600 288.133,261.600 287.627 C 261.600 287.202,261.960 286.740,262.400 286.600 C 262.995 286.411,263.200 285.995,263.200 284.973 C 263.200 283.867,263.355 283.600,264.000 283.600 C 264.533 283.600,264.800 283.333,264.800 282.800 C 264.800 282.267,265.067 282.000,265.600 282.000 C 266.117 282.000,266.400 281.733,266.400 281.247 C 266.400 280.830,266.757 280.400,267.200 280.284 C 267.813 280.124,268.000 279.738,268.000 278.637 C 268.000 277.467,268.148 277.200,268.800 277.200 C 269.333 277.200,269.600 276.933,269.600 276.400 C 269.600 275.867,269.867 275.600,270.400 275.600 C 270.933 275.600,271.200 275.333,271.200 274.800 C 271.200 274.360,271.462 274.000,271.782 274.000 C 272.130 274.000,272.469 273.438,272.626 272.600 C 272.786 271.748,273.121 271.200,273.482 271.200 C 273.808 271.200,274.169 270.840,274.284 270.400 C 274.399 269.960,274.742 269.600,275.047 269.600 C 275.351 269.600,275.600 269.261,275.600 268.847 C 275.600 268.430,275.957 268.000,276.400 267.884 C 277.013 267.724,277.200 267.338,277.200 266.237 C 277.200 265.067,277.348 264.800,278.000 264.800 C 278.533 264.800,278.800 264.533,278.800 264.000 C 278.800 263.467,279.067 263.200,279.600 263.200 C 280.117 263.200,280.400 262.933,280.400 262.447 C 280.400 262.030,280.757 261.600,281.200 261.484 C 281.813 261.324,282.000 260.938,282.000 259.837 C 282.000 258.667,282.148 258.400,282.800 258.400 C 283.244 258.400,283.600 258.133,283.600 257.800 C 283.600 257.470,283.874 257.200,284.210 257.200 C 284.545 257.200,284.982 256.775,285.179 256.255 C 285.377 255.735,285.823 255.200,286.169 255.067 C 286.552 254.920,286.800 254.348,286.800 253.613 C 286.800 252.667,286.976 252.400,287.600 252.400 C 288.133 252.400,288.400 252.133,288.400 251.600 C 288.400 251.135,288.667 250.800,289.037 250.800 C 289.388 250.800,289.769 250.440,289.884 250.000 C 289.999 249.560,290.326 249.200,290.611 249.200 C 290.904 249.200,291.247 248.504,291.400 247.600 C 291.566 246.616,291.888 246.000,292.235 246.000 C 292.546 246.000,292.800 245.640,292.800 245.200 C 292.800 244.667,293.067 244.400,293.600 244.400 C 294.133 244.400,294.400 244.133,294.400 243.600 C 294.400 243.067,294.667 242.800,295.200 242.800 C 295.848 242.800,296.000 242.533,296.000 241.400 C 296.000 240.267,296.152 240.000,296.800 240.000 C 297.317 240.000,297.600 239.733,297.600 239.247 C 297.600 238.830,297.957 238.400,298.400 238.284 C 298.840 238.169,299.200 237.809,299.200 237.484 C 299.200 237.159,299.560 236.799,300.000 236.684 C 300.540 236.543,300.800 236.138,300.800 235.441 C 300.800 234.840,301.135 234.197,301.600 233.907 C 302.040 233.632,302.400 233.112,302.400 232.750 C 302.400 232.389,302.760 231.999,303.200 231.884 C 303.813 231.724,304.000 231.338,304.000 230.237 C 304.000 229.067,304.148 228.800,304.800 228.800 C 305.333 228.800,305.600 228.533,305.600 228.000 C 305.600 227.560,305.854 227.200,306.165 227.200 C 306.512 227.200,306.834 226.584,307.000 225.600 C 307.166 224.616,307.488 224.000,307.835 224.000 C 308.210 224.000,308.400 223.546,308.400 222.647 C 308.400 221.630,308.599 221.241,309.200 221.084 C 309.813 220.924,310.000 220.538,310.000 219.437 C 310.000 218.267,310.148 218.000,310.800 218.000 C 311.463 218.000,311.600 217.733,311.600 216.447 C 311.600 215.230,311.773 214.848,312.400 214.684 C 313.053 214.513,313.200 214.138,313.200 212.641 C 313.200 211.240,313.389 210.689,314.000 210.307 C 314.570 209.951,314.800 209.374,314.800 208.304 C 314.800 207.285,314.980 206.800,315.357 206.800 C 316.067 206.800,316.400 205.925,316.400 204.064 C 316.400 203.026,316.636 202.445,317.200 202.093 C 317.874 201.672,318.000 201.160,318.000 198.843 C 318.000 196.430,318.098 196.068,318.800 195.884 C 319.511 195.698,319.600 195.338,319.600 192.637 C 319.600 190.318,319.731 189.600,320.153 189.600 C 320.947 189.600,321.188 188.310,321.195 184.031 C 321.199 181.009,321.339 180.110,321.900 179.490 C 322.953 178.326,322.977 149.924,321.925 149.117 C 321.374 148.694,321.228 147.736,321.125 143.871 C 321.019 139.865,320.893 139.083,320.300 138.751 C 319.738 138.437,319.600 137.812,319.600 135.584 C 319.600 133.240,319.475 132.729,318.800 132.307 C 318.167 131.912,318.000 131.374,318.000 129.731 C 318.000 128.005,317.865 127.611,317.200 127.400 C 316.529 127.187,316.400 126.795,316.400 124.973 C 316.400 123.067,316.302 122.800,315.600 122.800 C 314.895 122.800,314.800 122.533,314.800 120.563 C 314.800 118.662,314.680 118.294,314.000 118.116 C 313.373 117.952,313.200 117.570,313.200 116.353 C 313.200 115.067,313.063 114.800,312.400 114.800 C 311.733 114.800,311.600 114.533,311.600 113.200 C 311.600 111.867,311.467 111.600,310.800 111.600 C 310.152 111.600,310.000 111.333,310.000 110.200 C 310.000 109.067,309.848 108.800,309.200 108.800 C 308.533 108.800,308.400 108.533,308.400 107.200 C 308.400 106.044,308.233 105.600,307.800 105.600 C 307.432 105.600,307.200 105.226,307.200 104.633 C 307.200 103.282,306.806 102.400,306.202 102.400 C 305.920 102.400,305.571 101.770,305.426 101.000 C 305.282 100.230,304.987 99.600,304.772 99.600 C 304.556 99.600,304.209 99.150,304.000 98.600 C 303.791 98.050,303.345 97.600,303.010 97.600 C 302.674 97.600,302.400 97.255,302.400 96.833 C 302.400 95.641,301.969 94.800,301.357 94.800 C 301.051 94.800,300.800 94.452,300.800 94.027 C 300.800 93.602,300.440 93.140,300.000 93.000 C 299.560 92.860,299.200 92.532,299.200 92.269 C 299.200 92.007,298.840 91.568,298.400 91.293 C 297.935 91.003,297.600 90.360,297.600 89.759 C 297.600 89.062,297.340 88.657,296.800 88.516 C 296.357 88.400,296.000 87.970,296.000 87.553 C 296.000 87.067,295.717 86.800,295.200 86.800 C 294.667 86.800,294.400 86.533,294.400 86.000 C 294.400 85.467,294.133 85.200,293.600 85.200 C 293.067 85.200,292.800 84.933,292.800 84.400 C 292.800 83.956,292.533 83.600,292.200 83.600 C 291.870 83.600,291.600 83.313,291.600 82.963 C 291.600 82.612,291.240 82.231,290.800 82.116 C 290.360 82.001,290.000 81.664,290.000 81.367 C 290.000 81.071,289.640 80.635,289.200 80.400 C 288.760 80.165,288.400 79.790,288.400 79.568 C 288.400 79.043,286.557 77.200,286.032 77.200 C 285.810 77.200,285.435 76.840,285.200 76.400 C 284.965 75.960,284.508 75.600,284.186 75.600 C 283.864 75.600,283.600 75.330,283.600 75.000 C 283.600 74.667,283.244 74.400,282.800 74.400 C 282.267 74.400,282.000 74.133,282.000 73.600 C 282.000 73.067,281.733 72.800,281.200 72.800 C 280.667 72.800,280.400 72.533,280.400 72.000 C 280.400 71.467,280.133 71.200,279.600 71.200 C 279.067 71.200,278.800 70.933,278.800 70.400 C 278.800 69.867,278.533 69.600,278.000 69.600 C 277.467 69.600,277.200 69.333,277.200 68.800 C 277.200 68.300,276.933 68.000,276.489 68.000 C 276.098 68.000,275.470 67.640,275.093 67.200 C 274.716 66.760,274.046 66.400,273.604 66.400 C 273.149 66.400,272.800 66.134,272.800 65.787 C 272.800 65.451,272.485 65.057,272.100 64.914 C 271.715 64.770,271.165 64.326,270.877 63.926 C 270.584 63.519,269.858 63.200,269.224 63.200 C 268.430 63.200,268.031 62.962,267.884 62.400 C 267.769 61.960,267.388 61.600,267.037 61.600 C 266.687 61.600,266.400 61.346,266.400 61.035 C 266.400 60.688,265.784 60.366,264.800 60.200 C 263.816 60.034,263.200 59.712,263.200 59.365 C 263.200 59.034,262.799 58.800,262.233 58.800 C 260.852 58.800,260.000 58.402,260.000 57.757 C 260.000 57.451,259.683 57.200,259.296 57.200 C 258.909 57.200,258.368 56.840,258.093 56.400 C 257.781 55.901,257.160 55.600,256.443 55.600 C 255.630 55.600,255.232 55.366,255.084 54.800 C 254.927 54.200,254.538 54.000,253.526 54.000 C 252.673 54.000,251.926 53.706,251.493 53.200 C 251.019 52.647,250.313 52.400,249.204 52.400 C 247.867 52.400,247.600 52.267,247.600 51.600 C 247.600 50.933,247.333 50.800,246.000 50.800 C 244.899 50.800,244.400 50.626,244.400 50.243 C 244.400 49.509,243.516 49.200,241.414 49.200 C 240.030 49.200,239.652 49.044,239.484 48.400 C 239.309 47.732,238.938 47.600,237.237 47.600 C 235.733 47.600,234.991 47.391,234.400 46.800 C 233.789 46.189,233.067 46.000,231.344 46.000 C 229.657 46.000,228.959 45.823,228.576 45.300 C 228.172 44.748,227.323 44.570,224.544 44.455 C 221.863 44.345,220.909 44.154,220.544 43.655 C 220.079 43.020,183.985 42.492,180.800 43.074 M200.916 64.000 C 201.116 64.764,201.462 64.800,208.666 64.800 C 215.774 64.800,216.236 64.846,216.707 65.600 C 217.147 66.304,217.640 66.400,220.803 66.400 C 224.133 66.400,224.400 66.459,224.400 67.200 C 224.400 67.911,224.667 68.000,226.800 68.000 C 228.577 68.000,229.200 68.144,229.200 68.553 C 229.200 69.167,230.391 69.586,232.156 69.595 C 232.792 69.598,233.526 69.894,233.789 70.252 C 234.078 70.648,235.064 70.981,236.299 71.100 C 237.854 71.249,238.378 71.472,238.528 72.048 C 238.675 72.608,239.092 72.800,240.163 72.800 C 241.154 72.800,241.600 72.981,241.600 73.382 C 241.600 73.733,242.169 74.070,243.032 74.232 C 243.819 74.380,244.559 74.748,244.675 75.051 C 244.796 75.367,245.461 75.600,246.243 75.600 C 247.333 75.600,247.600 75.757,247.600 76.400 C 247.600 77.067,247.867 77.200,249.200 77.200 C 250.533 77.200,250.800 77.333,250.800 78.000 C 250.800 78.587,251.067 78.800,251.800 78.800 C 252.408 78.800,252.800 79.028,252.800 79.382 C 252.800 79.730,253.362 80.069,254.200 80.226 C 255.213 80.416,255.600 80.698,255.600 81.245 C 255.600 81.660,255.870 82.000,256.200 82.000 C 256.530 82.000,257.160 82.360,257.600 82.800 C 258.040 83.240,258.739 83.600,259.153 83.600 C 259.570 83.600,260.000 83.957,260.116 84.400 C 260.231 84.840,260.600 85.200,260.936 85.200 C 261.271 85.200,261.660 85.560,261.800 86.000 C 261.940 86.440,262.402 86.800,262.827 86.800 C 263.252 86.800,263.600 87.056,263.600 87.368 C 263.600 87.681,264.141 88.055,264.803 88.201 C 265.465 88.346,266.191 88.810,266.417 89.233 C 266.643 89.655,267.092 90.000,267.414 90.000 C 267.736 90.000,268.000 90.287,268.000 90.637 C 268.000 90.988,268.360 91.369,268.800 91.484 C 269.240 91.599,269.600 91.942,269.600 92.247 C 269.600 92.551,269.960 92.800,270.400 92.800 C 270.933 92.800,271.200 93.067,271.200 93.600 C 271.200 94.133,271.467 94.400,272.000 94.400 C 272.533 94.400,272.800 94.667,272.800 95.200 C 272.800 95.733,273.067 96.000,273.600 96.000 C 274.133 96.000,274.400 96.267,274.400 96.800 C 274.400 97.244,274.667 97.600,275.000 97.600 C 275.330 97.600,275.600 97.808,275.600 98.062 C 275.600 98.316,276.018 99.081,276.529 99.762 C 277.041 100.443,277.575 101.315,277.717 101.700 C 277.859 102.085,278.140 102.400,278.341 102.400 C 278.542 102.400,278.801 102.760,278.916 103.200 C 279.031 103.640,279.391 104.000,279.716 104.000 C 280.041 104.000,280.401 104.360,280.516 104.800 C 280.631 105.240,281.012 105.600,281.363 105.600 C 281.808 105.600,282.000 105.972,282.000 106.837 C 282.000 107.738,282.217 108.132,282.800 108.284 C 283.243 108.400,283.600 108.830,283.600 109.247 C 283.600 109.733,283.883 110.000,284.400 110.000 C 285.052 110.000,285.200 110.267,285.200 111.437 C 285.200 112.538,285.387 112.924,286.000 113.084 C 286.440 113.199,286.800 113.589,286.800 113.950 C 286.800 114.312,287.160 114.832,287.600 115.107 C 288.110 115.426,288.400 116.040,288.400 116.803 C 288.400 117.733,288.578 118.000,289.200 118.000 C 289.867 118.000,290.000 118.267,290.000 119.600 C 290.000 120.933,290.133 121.200,290.800 121.200 C 291.445 121.200,291.600 121.467,291.600 122.580 C 291.600 123.339,291.844 124.104,292.141 124.280 C 292.439 124.456,292.787 125.404,292.915 126.386 C 293.042 127.368,293.429 128.378,293.773 128.630 C 294.119 128.882,294.400 129.669,294.400 130.382 C 294.400 131.338,294.608 131.729,295.200 131.884 C 295.872 132.060,296.000 132.430,296.000 134.193 C 296.000 135.686,296.231 136.586,296.800 137.309 C 297.374 138.038,297.600 138.932,297.600 140.467 C 297.600 142.174,297.762 142.709,298.400 143.107 C 299.113 143.552,299.200 144.040,299.200 147.589 C 299.200 151.162,299.282 151.616,300.000 152.000 C 300.774 152.414,300.800 152.838,300.800 164.967 C 300.800 177.170,300.779 177.512,300.000 177.716 C 299.267 177.908,299.200 178.262,299.200 181.959 C 299.200 185.560,299.114 186.047,298.400 186.493 C 297.750 186.898,297.600 187.426,297.600 189.296 C 297.600 190.991,297.454 191.600,297.047 191.600 C 296.416 191.600,296.013 192.800,296.005 194.700 C 296.002 195.461,295.668 196.332,295.200 196.800 C 294.667 197.333,294.400 198.133,294.400 199.200 C 294.400 200.311,294.227 200.800,293.835 200.800 C 293.486 200.800,293.165 201.422,292.995 202.428 C 292.844 203.323,292.468 204.152,292.160 204.271 C 291.776 204.418,291.600 205.163,291.600 206.643 C 291.600 208.533,291.501 208.800,290.800 208.800 C 290.289 208.800,290.000 209.067,290.000 209.538 C 290.000 209.944,289.640 210.602,289.200 211.000 C 288.760 211.398,288.400 212.125,288.400 212.615 C 288.400 213.170,288.098 213.586,287.600 213.716 C 287.017 213.868,286.800 214.262,286.800 215.163 C 286.800 216.133,286.628 216.400,286.000 216.400 C 285.333 216.400,285.200 216.667,285.200 218.000 C 285.200 219.333,285.067 219.600,284.400 219.600 C 283.883 219.600,283.600 219.867,283.600 220.353 C 283.600 220.770,283.243 221.200,282.800 221.316 C 282.187 221.476,282.000 221.862,282.000 222.963 C 282.000 224.133,281.852 224.400,281.200 224.400 C 280.735 224.400,280.400 224.667,280.400 225.037 C 280.400 225.388,280.040 225.769,279.600 225.884 C 279.157 226.000,278.800 226.430,278.800 226.847 C 278.800 227.261,278.538 227.600,278.218 227.600 C 277.870 227.600,277.531 228.162,277.374 229.000 C 277.229 229.770,276.873 230.400,276.582 230.400 C 276.292 230.400,275.940 230.760,275.800 231.200 C 275.660 231.640,275.288 232.000,274.973 232.000 C 274.658 232.000,274.400 232.339,274.400 232.753 C 274.400 233.170,274.043 233.600,273.600 233.716 C 272.987 233.876,272.800 234.262,272.800 235.363 C 272.800 236.533,272.652 236.800,272.000 236.800 C 271.467 236.800,271.200 237.067,271.200 237.600 C 271.200 238.133,270.933 238.400,270.400 238.400 C 269.867 238.400,269.600 238.667,269.600 239.200 C 269.600 239.733,269.333 240.000,268.800 240.000 C 268.158 240.000,268.000 240.267,268.000 241.353 C 268.000 242.370,267.801 242.759,267.200 242.916 C 266.760 243.031,266.400 243.412,266.400 243.763 C 266.400 244.113,266.124 244.400,265.787 244.400 C 265.451 244.400,265.057 244.715,264.914 245.100 C 264.770 245.485,264.326 246.035,263.926 246.323 C 263.507 246.624,263.200 247.344,263.200 248.023 C 263.200 248.933,263.019 249.200,262.400 249.200 C 261.883 249.200,261.600 249.467,261.600 249.953 C 261.600 250.370,261.243 250.800,260.800 250.916 C 260.360 251.031,260.000 251.412,260.000 251.763 C 260.000 252.113,259.730 252.400,259.400 252.400 C 258.978 252.400,258.800 252.826,258.800 253.837 C 258.800 254.938,258.613 255.324,258.000 255.484 C 257.557 255.600,257.200 256.030,257.200 256.447 C 257.200 256.933,256.917 257.200,256.400 257.200 C 255.867 257.200,255.600 257.467,255.600 258.000 C 255.600 258.533,255.333 258.800,254.800 258.800 C 254.152 258.800,254.000 259.067,254.000 260.200 C 254.000 261.333,253.848 261.600,253.200 261.600 C 252.667 261.600,252.400 261.867,252.400 262.400 C 252.400 262.933,252.133 263.200,251.600 263.200 C 251.083 263.200,250.800 263.467,250.800 263.953 C 250.800 264.370,250.443 264.800,250.000 264.916 C 249.387 265.076,249.200 265.462,249.200 266.563 C 249.200 267.733,249.052 268.000,248.400 268.000 C 247.867 268.000,247.600 268.267,247.600 268.800 C 247.600 269.333,247.333 269.600,246.800 269.600 C 246.267 269.600,246.000 269.867,246.000 270.400 C 246.000 270.842,245.733 271.200,245.405 271.200 C 245.020 271.200,244.719 271.765,244.554 272.800 C 244.361 274.006,244.113 274.400,243.549 274.400 C 243.067 274.400,242.800 274.685,242.800 275.200 C 242.800 275.640,242.551 276.000,242.247 276.000 C 241.942 276.000,241.599 276.360,241.484 276.800 C 241.369 277.240,240.988 277.600,240.637 277.600 C 240.176 277.600,240.000 277.986,240.000 279.000 C 240.000 280.133,239.848 280.400,239.200 280.400 C 238.667 280.400,238.400 280.667,238.400 281.200 C 238.400 281.733,238.133 282.000,237.600 282.000 C 237.083 282.000,236.800 282.267,236.800 282.753 C 236.800 283.170,236.443 283.600,236.000 283.716 C 235.387 283.876,235.200 284.262,235.200 285.363 C 235.200 286.533,235.052 286.800,234.400 286.800 C 233.867 286.800,233.600 287.067,233.600 287.600 C 233.600 288.133,233.333 288.400,232.800 288.400 C 232.283 288.400,232.000 288.667,232.000 289.153 C 232.000 289.570,231.643 290.000,231.200 290.116 C 230.617 290.268,230.400 290.662,230.400 291.563 C 230.400 292.428,230.208 292.800,229.763 292.800 C 229.412 292.800,229.031 293.160,228.916 293.600 C 228.801 294.040,228.452 294.400,228.141 294.400 C 227.830 294.400,227.459 294.715,227.318 295.100 C 227.176 295.485,226.842 295.932,226.576 296.094 C 226.309 296.256,225.972 297.021,225.827 297.794 C 225.669 298.637,225.331 299.200,224.982 299.200 C 224.662 299.200,224.400 299.560,224.400 300.000 C 224.400 300.533,224.133 300.800,223.600 300.800 C 223.083 300.800,222.800 301.067,222.800 301.553 C 222.800 301.970,222.443 302.400,222.000 302.516 C 221.387 302.676,221.200 303.062,221.200 304.163 C 221.200 305.333,221.052 305.600,220.400 305.600 C 219.867 305.600,219.600 305.867,219.600 306.400 C 219.600 306.933,219.333 307.200,218.800 307.200 C 218.283 307.200,218.000 307.467,218.000 307.953 C 218.000 308.370,217.643 308.800,217.200 308.916 C 216.617 309.068,216.400 309.462,216.400 310.363 C 216.400 311.333,216.228 311.600,215.600 311.600 C 215.067 311.600,214.800 311.867,214.800 312.400 C 214.800 312.852,214.533 313.200,214.187 313.200 C 213.851 313.200,213.459 313.501,213.318 313.869 C 213.177 314.238,212.732 314.868,212.331 315.269 C 211.929 315.671,211.600 316.450,211.600 317.000 C 211.600 317.648,211.376 318.000,210.963 318.000 C 210.612 318.000,210.231 318.360,210.116 318.800 C 210.001 319.240,209.658 319.600,209.353 319.600 C 209.049 319.600,208.800 319.960,208.800 320.400 C 208.800 320.933,208.533 321.200,208.000 321.200 C 207.333 321.200,207.200 321.467,207.200 322.800 C 207.200 324.100,207.059 324.400,206.447 324.400 C 206.030 324.400,205.600 324.757,205.484 325.200 C 205.369 325.640,204.988 326.000,204.637 326.000 C 204.267 326.000,204.000 326.335,204.000 326.800 C 204.000 327.333,203.733 327.600,203.200 327.600 C 202.552 327.600,202.400 327.867,202.400 329.000 C 202.400 330.133,202.248 330.400,201.600 330.400 C 201.067 330.400,200.800 330.667,200.800 331.200 C 200.800 331.733,200.533 332.000,200.000 332.000 C 199.503 332.000,199.200 331.733,199.200 331.296 C 199.200 330.909,198.840 330.368,198.400 330.093 C 197.948 329.810,197.600 329.160,197.600 328.597 C 197.600 327.951,197.375 327.600,196.963 327.600 C 196.612 327.600,196.231 327.240,196.116 326.800 C 196.001 326.360,195.652 326.000,195.341 326.000 C 195.030 326.000,194.658 325.685,194.515 325.300 C 194.372 324.915,193.928 324.309,193.528 323.953 C 193.127 323.597,192.800 322.832,192.800 322.253 C 192.800 321.623,192.578 321.200,192.247 321.200 C 191.942 321.200,191.599 320.840,191.484 320.400 C 191.369 319.960,190.988 319.600,190.637 319.600 C 190.287 319.600,190.000 319.324,190.000 318.987 C 190.000 318.651,189.732 318.272,189.404 318.146 C 189.077 318.021,188.620 317.216,188.389 316.359 C 188.158 315.501,187.727 314.800,187.431 314.800 C 187.135 314.800,186.799 314.440,186.684 314.000 C 186.569 313.560,186.188 313.200,185.837 313.200 C 185.480 313.200,185.200 312.869,185.200 312.447 C 185.200 312.030,184.843 311.600,184.400 311.484 C 183.817 311.332,183.600 310.938,183.600 310.037 C 183.600 309.067,183.428 308.800,182.800 308.800 C 182.267 308.800,182.000 308.533,182.000 308.000 C 182.000 307.467,181.733 307.200,181.200 307.200 C 180.703 307.200,180.400 306.933,180.400 306.496 C 180.400 306.109,180.040 305.568,179.600 305.293 C 179.090 304.974,178.800 304.360,178.800 303.597 C 178.800 302.667,178.622 302.400,178.000 302.400 C 177.467 302.400,177.200 302.133,177.200 301.600 C 177.200 301.067,176.933 300.800,176.400 300.800 C 175.882 300.800,175.600 300.533,175.600 300.043 C 175.600 299.626,175.347 299.188,175.038 299.070 C 174.728 298.951,174.354 298.303,174.206 297.629 C 174.059 296.956,173.713 296.269,173.439 296.102 C 173.164 295.936,172.824 295.485,172.682 295.100 C 172.541 294.715,172.149 294.400,171.813 294.400 C 171.476 294.400,171.200 294.136,171.200 293.814 C 171.200 293.492,170.840 293.035,170.400 292.800 C 169.920 292.543,169.600 291.962,169.600 291.348 C 169.600 290.662,169.337 290.256,168.800 290.116 C 168.357 290.000,168.000 289.570,168.000 289.153 C 168.000 288.667,167.717 288.400,167.200 288.400 C 166.703 288.400,166.400 288.133,166.400 287.696 C 166.400 287.309,166.040 286.768,165.600 286.493 C 165.135 286.203,164.800 285.560,164.800 284.959 C 164.800 284.262,164.540 283.857,164.000 283.716 C 163.557 283.600,163.200 283.170,163.200 282.753 C 163.200 282.267,162.917 282.000,162.400 282.000 C 161.903 282.000,161.600 281.733,161.600 281.296 C 161.600 280.909,161.240 280.368,160.800 280.093 C 160.348 279.810,160.000 279.160,160.000 278.597 C 160.000 277.968,159.774 277.600,159.387 277.600 C 159.051 277.600,158.659 277.285,158.518 276.900 C 158.376 276.515,158.022 276.056,157.730 275.880 C 157.439 275.704,157.200 275.342,157.200 275.076 C 157.200 274.810,156.865 274.383,156.456 274.128 C 156.047 273.873,155.602 273.109,155.466 272.432 C 155.320 271.702,154.971 271.200,154.610 271.200 C 154.267 271.200,154.000 270.850,154.000 270.400 C 154.000 269.867,153.733 269.600,153.200 269.600 C 152.703 269.600,152.400 269.333,152.400 268.896 C 152.400 268.509,152.040 267.968,151.600 267.693 C 151.135 267.403,150.800 266.760,150.800 266.159 C 150.800 265.462,150.540 265.057,150.000 264.916 C 149.557 264.800,149.200 264.370,149.200 263.953 C 149.200 263.467,148.917 263.200,148.400 263.200 C 147.903 263.200,147.600 262.933,147.600 262.496 C 147.600 262.109,147.240 261.568,146.800 261.293 C 146.348 261.010,146.000 260.360,146.000 259.797 C 146.000 259.067,145.786 258.800,145.200 258.800 C 144.667 258.800,144.400 258.533,144.400 258.000 C 144.400 257.467,144.133 257.200,143.600 257.200 C 143.067 257.200,142.800 256.933,142.800 256.400 C 142.800 255.960,142.627 255.600,142.416 255.600 C 142.205 255.600,141.816 254.880,141.553 254.000 C 141.289 253.120,140.832 252.400,140.537 252.400 C 140.242 252.400,140.000 252.113,140.000 251.763 C 140.000 251.412,139.640 251.031,139.200 250.916 C 138.760 250.801,138.400 250.389,138.400 250.000 C 138.400 249.611,138.040 249.199,137.600 249.084 C 137.065 248.944,136.800 248.538,136.800 247.860 C 136.800 247.302,136.473 246.610,136.074 246.323 C 135.674 246.035,135.230 245.485,135.086 245.100 C 134.943 244.715,134.549 244.400,134.213 244.400 C 133.868 244.400,133.600 244.052,133.600 243.603 C 133.600 243.165,133.240 242.582,132.800 242.307 C 132.360 242.032,132.000 241.401,132.000 240.904 C 132.000 240.267,131.764 240.000,131.200 240.000 C 130.667 240.000,130.400 239.733,130.400 239.200 C 130.400 238.667,130.133 238.400,129.600 238.400 C 129.067 238.400,128.800 238.133,128.800 237.600 C 128.800 237.160,128.440 236.440,128.000 236.000 C 127.560 235.560,127.200 234.840,127.200 234.400 C 127.200 233.867,126.933 233.600,126.400 233.600 C 125.867 233.600,125.600 233.333,125.600 232.800 C 125.600 232.356,125.333 232.000,125.000 232.000 C 124.670 232.000,124.400 231.764,124.400 231.475 C 124.400 231.187,124.062 230.588,123.649 230.145 C 123.236 229.701,122.779 228.964,122.634 228.506 C 122.488 228.048,122.106 227.573,121.785 227.450 C 121.463 227.326,121.200 226.949,121.200 226.613 C 121.200 226.276,120.938 226.000,120.619 226.000 C 120.299 226.000,119.739 225.370,119.373 224.600 C 119.008 223.830,118.569 223.200,118.398 223.200 C 118.227 223.200,117.974 222.750,117.836 222.200 C 117.698 221.650,117.318 221.200,116.992 221.200 C 116.667 221.200,116.400 220.840,116.400 220.400 C 116.400 219.867,116.133 219.600,115.600 219.600 C 114.948 219.600,114.800 219.333,114.800 218.163 C 114.800 217.062,114.613 216.676,114.000 216.516 C 113.560 216.401,113.200 216.011,113.200 215.650 C 113.200 215.288,112.840 214.768,112.400 214.493 C 111.890 214.174,111.600 213.560,111.600 212.797 C 111.600 211.867,111.422 211.600,110.800 211.600 C 110.152 211.600,110.000 211.333,110.000 210.200 C 110.000 209.067,109.848 208.800,109.200 208.800 C 108.533 208.800,108.400 208.533,108.400 207.200 C 108.400 206.112,108.225 205.600,107.852 205.600 C 107.496 205.600,107.230 204.943,107.093 203.724 C 106.974 202.673,106.600 201.643,106.241 201.380 C 105.851 201.095,105.600 200.326,105.600 199.418 C 105.600 198.262,105.420 197.878,104.800 197.716 C 104.128 197.540,104.000 197.170,104.000 195.400 C 104.000 193.630,103.872 193.260,103.200 193.084 C 102.512 192.904,102.400 192.538,102.400 190.470 C 102.400 187.704,102.143 186.800,101.357 186.800 C 100.928 186.800,100.800 186.073,100.800 183.633 C 100.800 180.120,100.584 179.200,99.757 179.200 C 99.291 179.200,99.200 176.842,99.200 164.800 C 99.200 152.806,99.292 150.400,99.753 150.400 C 100.507 150.400,100.788 149.133,100.795 145.700 C 100.799 143.490,100.933 142.800,101.357 142.800 C 102.138 142.800,102.400 141.898,102.400 139.214 C 102.400 137.230,102.516 136.863,103.200 136.684 C 103.880 136.506,104.000 136.138,104.000 134.237 C 104.000 132.592,104.147 132.000,104.557 132.000 C 105.255 132.000,105.600 131.130,105.600 129.371 C 105.600 128.440,105.854 127.848,106.400 127.507 C 106.925 127.179,107.200 126.574,107.200 125.747 C 107.200 124.995,107.442 124.393,107.800 124.255 C 108.171 124.113,108.400 123.504,108.400 122.659 C 108.400 121.630,108.597 121.242,109.200 121.084 C 109.813 120.924,110.000 120.538,110.000 119.437 C 110.000 118.267,110.148 118.000,110.800 118.000 C 111.467 118.000,111.600 117.733,111.600 116.400 C 111.600 115.067,111.733 114.800,112.400 114.800 C 112.897 114.800,113.200 114.533,113.200 114.096 C 113.200 113.709,113.560 113.168,114.000 112.893 C 114.510 112.574,114.800 111.960,114.800 111.197 C 114.800 110.267,114.978 110.000,115.600 110.000 C 116.044 110.000,116.400 109.733,116.400 109.400 C 116.400 109.070,116.760 108.440,117.200 108.000 C 117.640 107.560,118.000 106.840,118.000 106.400 C 118.000 105.935,118.267 105.600,118.637 105.600 C 118.988 105.600,119.369 105.240,119.484 104.800 C 119.599 104.360,119.947 104.000,120.257 104.000 C 120.566 104.000,120.991 103.550,121.200 103.000 C 121.409 102.450,121.765 102.000,121.990 102.000 C 122.216 102.000,122.400 101.773,122.400 101.496 C 122.400 101.219,122.850 100.507,123.400 99.913 C 123.950 99.320,124.400 98.557,124.400 98.217 C 124.400 97.878,124.670 97.600,125.000 97.600 C 125.333 97.600,125.600 97.244,125.600 96.800 C 125.600 96.267,125.867 96.000,126.400 96.000 C 126.933 96.000,127.200 95.733,127.200 95.200 C 127.200 94.667,127.467 94.400,128.000 94.400 C 128.533 94.400,128.800 94.133,128.800 93.600 C 128.800 93.067,129.067 92.800,129.600 92.800 C 130.044 92.800,130.400 92.533,130.400 92.200 C 130.400 91.867,130.756 91.600,131.200 91.600 C 131.717 91.600,132.000 91.333,132.000 90.847 C 132.000 90.430,132.357 90.000,132.800 89.884 C 133.240 89.769,133.600 89.408,133.600 89.082 C 133.600 88.721,134.148 88.386,135.000 88.226 C 135.838 88.069,136.400 87.730,136.400 87.382 C 136.400 87.062,136.748 86.800,137.173 86.800 C 137.598 86.800,138.054 86.459,138.186 86.043 C 138.318 85.627,138.781 85.194,139.213 85.081 C 139.646 84.967,140.000 84.588,140.000 84.237 C 140.000 83.866,140.335 83.600,140.804 83.600 C 141.246 83.600,141.916 83.240,142.293 82.800 C 142.670 82.360,143.298 82.000,143.689 82.000 C 144.119 82.000,144.400 81.702,144.400 81.245 C 144.400 80.698,144.787 80.416,145.800 80.226 C 146.638 80.069,147.200 79.730,147.200 79.382 C 147.200 79.028,147.592 78.800,148.200 78.800 C 148.933 78.800,149.200 78.587,149.200 78.000 C 149.200 77.333,149.467 77.200,150.800 77.200 C 152.133 77.200,152.400 77.067,152.400 76.400 C 152.400 75.757,152.667 75.600,153.757 75.600 C 154.595 75.600,155.203 75.370,155.345 75.000 C 155.471 74.670,155.926 74.400,156.355 74.400 C 157.559 74.400,158.400 73.971,158.400 73.357 C 158.400 72.984,158.875 72.800,159.837 72.800 C 160.938 72.800,161.324 72.613,161.484 72.000 C 161.653 71.353,162.030 71.200,163.447 71.200 C 164.667 71.200,165.443 70.957,166.000 70.400 C 166.440 69.960,167.295 69.598,167.900 69.595 C 169.613 69.586,170.800 69.160,170.800 68.553 C 170.800 68.144,171.423 68.000,173.200 68.000 C 175.333 68.000,175.600 67.911,175.600 67.200 C 175.600 66.459,175.867 66.400,179.197 66.400 C 182.360 66.400,182.853 66.304,183.293 65.600 C 183.764 64.846,184.226 64.800,191.334 64.800 C 198.538 64.800,198.884 64.764,199.084 64.000 C 199.199 63.560,199.611 63.200,200.000 63.200 C 200.389 63.200,200.801 63.560,200.916 64.000 M186.800 103.200 C 186.800 103.930,186.533 104.000,183.763 104.000 C 181.062 104.000,180.702 104.089,180.516 104.800 C 180.339 105.475,179.970 105.600,178.153 105.600 C 176.267 105.600,176.000 105.699,176.000 106.400 C 176.000 107.063,175.733 107.200,174.447 107.200 C 173.230 107.200,172.848 107.373,172.684 108.000 C 172.524 108.613,172.138 108.800,171.037 108.800 C 170.078 108.800,169.600 108.985,169.600 109.355 C 169.600 109.675,168.997 110.024,168.179 110.178 C 167.397 110.324,166.658 110.704,166.536 111.022 C 166.414 111.340,166.047 111.600,165.720 111.600 C 165.393 111.600,165.031 111.960,164.916 112.400 C 164.800 112.843,164.370 113.200,163.953 113.200 C 163.539 113.200,162.840 113.560,162.400 114.000 C 161.960 114.440,161.342 114.800,161.027 114.800 C 160.712 114.800,160.340 115.160,160.200 115.600 C 160.060 116.040,159.688 116.400,159.373 116.400 C 159.058 116.400,158.800 116.760,158.800 117.200 C 158.800 117.733,158.533 118.000,158.000 118.000 C 157.467 118.000,157.200 118.267,157.200 118.800 C 157.200 119.333,156.933 119.600,156.400 119.600 C 155.867 119.600,155.600 119.867,155.600 120.400 C 155.600 120.933,155.333 121.200,154.800 121.200 C 154.267 121.200,154.000 121.467,154.000 122.000 C 154.000 122.533,153.733 122.800,153.200 122.800 C 152.667 122.800,152.400 123.067,152.400 123.600 C 152.400 124.133,152.133 124.400,151.600 124.400 C 150.972 124.400,150.800 124.667,150.800 125.637 C 150.800 126.538,150.583 126.932,150.000 127.084 C 149.560 127.199,149.200 127.611,149.200 128.000 C 149.200 128.389,148.840 128.801,148.400 128.916 C 147.787 129.076,147.600 129.462,147.600 130.563 C 147.600 131.733,147.452 132.000,146.800 132.000 C 146.133 132.000,146.000 132.267,146.000 133.600 C 146.000 134.933,145.867 135.200,145.200 135.200 C 144.533 135.200,144.400 135.467,144.400 136.800 C 144.400 137.901,144.226 138.400,143.843 138.400 C 143.205 138.400,142.800 139.250,142.800 140.590 C 142.800 141.098,142.530 141.618,142.200 141.745 C 141.747 141.919,141.600 142.651,141.600 144.741 C 141.600 147.170,141.503 147.532,140.800 147.716 C 140.022 147.919,140.000 148.262,140.000 160.366 C 140.000 172.313,140.032 172.835,140.800 173.493 C 141.429 174.031,141.600 174.673,141.600 176.489 C 141.600 178.277,141.736 178.800,142.200 178.800 C 142.594 178.800,142.800 179.194,142.800 179.950 C 142.800 181.937,143.279 183.600,143.850 183.600 C 144.165 183.600,144.400 184.013,144.400 184.567 C 144.400 185.948,144.798 186.800,145.443 186.800 C 145.811 186.800,146.000 187.266,146.000 188.173 C 146.000 189.195,146.205 189.611,146.800 189.800 C 147.240 189.940,147.600 190.402,147.600 190.827 C 147.600 191.252,147.960 191.960,148.400 192.400 C 148.840 192.840,149.200 193.470,149.200 193.800 C 149.200 194.133,149.556 194.400,150.000 194.400 C 150.533 194.400,150.800 194.667,150.800 195.200 C 150.800 195.733,151.067 196.000,151.600 196.000 C 152.252 196.000,152.400 196.267,152.400 197.437 C 152.400 198.538,152.587 198.924,153.200 199.084 C 153.640 199.199,154.000 199.559,154.000 199.884 C 154.000 200.209,154.360 200.569,154.800 200.684 C 155.240 200.799,155.600 201.159,155.600 201.484 C 155.600 201.809,155.960 202.169,156.400 202.284 C 156.840 202.399,157.200 202.759,157.200 203.084 C 157.200 203.409,157.560 203.769,158.000 203.884 C 158.440 203.999,158.800 204.342,158.800 204.647 C 158.800 204.951,159.064 205.200,159.386 205.200 C 159.708 205.200,160.157 205.545,160.383 205.967 C 160.609 206.390,161.335 206.854,161.997 206.999 C 162.659 207.145,163.200 207.519,163.200 207.832 C 163.200 208.144,163.560 208.400,164.000 208.400 C 164.533 208.400,164.800 208.667,164.800 209.200 C 164.800 209.867,165.067 210.000,166.400 210.000 C 167.733 210.000,168.000 210.133,168.000 210.800 C 168.000 211.387,168.267 211.600,169.000 211.600 C 169.588 211.600,170.000 211.830,170.000 212.157 C 170.000 212.830,170.862 213.200,172.429 213.200 C 173.160 213.200,173.779 213.498,174.093 214.000 C 174.423 214.529,175.026 214.800,175.869 214.800 C 176.795 214.800,177.216 215.020,177.400 215.600 C 177.612 216.268,178.005 216.400,179.780 216.400 C 181.570 216.400,181.940 216.527,182.116 217.200 C 182.300 217.905,182.662 218.000,185.163 218.000 C 187.467 218.000,188.150 218.150,188.800 218.800 C 189.559 219.559,190.133 219.600,200.000 219.600 C 209.867 219.600,210.441 219.559,211.200 218.800 C 211.850 218.150,212.533 218.000,214.837 218.000 C 217.338 218.000,217.700 217.905,217.884 217.200 C 218.060 216.527,218.430 216.400,220.220 216.400 C 221.995 216.400,222.388 216.268,222.600 215.600 C 222.789 215.005,223.205 214.800,224.227 214.800 C 225.067 214.800,225.911 214.489,226.400 214.000 C 226.843 213.557,227.733 213.200,228.397 213.200 C 229.160 213.200,229.774 212.910,230.093 212.400 C 230.368 211.960,230.909 211.600,231.296 211.600 C 231.733 211.600,232.000 211.297,232.000 210.800 C 232.000 210.133,232.267 210.000,233.600 210.000 C 234.933 210.000,235.200 209.867,235.200 209.200 C 235.200 208.667,235.467 208.400,236.000 208.400 C 236.440 208.400,236.800 208.150,236.800 207.845 C 236.800 207.526,237.398 207.177,238.200 207.026 C 239.001 206.876,239.600 206.526,239.600 206.209 C 239.600 205.904,239.943 205.545,240.363 205.412 C 240.783 205.279,241.227 204.906,241.350 204.585 C 241.474 204.263,241.851 204.000,242.187 204.000 C 242.533 204.000,242.800 203.652,242.800 203.200 C 242.800 202.667,243.067 202.400,243.600 202.400 C 244.133 202.400,244.400 202.133,244.400 201.600 C 244.400 201.067,244.667 200.800,245.200 200.800 C 245.717 200.800,246.000 200.533,246.000 200.047 C 246.000 199.630,246.357 199.200,246.800 199.084 C 247.240 198.969,247.600 198.588,247.600 198.237 C 247.600 197.887,247.960 197.240,248.400 196.800 C 248.840 196.360,249.200 195.640,249.200 195.200 C 249.200 194.667,249.467 194.400,250.000 194.400 C 250.517 194.400,250.800 194.133,250.800 193.647 C 250.800 193.230,251.157 192.800,251.600 192.684 C 252.174 192.534,252.400 192.138,252.400 191.284 C 252.400 190.430,252.626 190.034,253.200 189.884 C 253.806 189.725,254.000 189.338,254.000 188.284 C 254.000 187.230,254.194 186.843,254.800 186.684 C 255.413 186.524,255.600 186.138,255.600 185.037 C 255.600 184.075,255.784 183.600,256.157 183.600 C 256.852 183.600,257.200 182.731,257.200 180.996 C 257.200 180.260,257.470 179.387,257.800 179.057 C 258.187 178.670,258.400 177.681,258.400 176.275 C 258.400 174.430,258.523 174.061,259.200 173.884 C 259.979 173.680,260.000 173.338,260.000 161.052 C 260.000 148.838,259.974 148.414,259.200 148.000 C 258.553 147.654,258.400 147.162,258.400 145.435 C 258.400 144.023,258.196 143.129,257.800 142.800 C 257.470 142.526,257.200 141.709,257.200 140.984 C 257.200 139.269,256.849 138.400,256.157 138.400 C 255.784 138.400,255.600 137.925,255.600 136.963 C 255.600 135.862,255.413 135.476,254.800 135.316 C 254.194 135.157,254.000 134.770,254.000 133.716 C 254.000 132.662,253.806 132.275,253.200 132.116 C 252.638 131.969,252.400 131.570,252.400 130.776 C 252.400 130.142,252.081 129.416,251.674 129.123 C 251.274 128.835,250.830 128.285,250.686 127.900 C 250.543 127.515,250.149 127.200,249.813 127.200 C 249.475 127.200,249.200 126.855,249.200 126.433 C 249.200 125.241,248.769 124.400,248.157 124.400 C 247.851 124.400,247.600 124.040,247.600 123.600 C 247.600 123.067,247.333 122.800,246.800 122.800 C 246.267 122.800,246.000 122.533,246.000 122.000 C 246.000 121.467,245.733 121.200,245.200 121.200 C 244.667 121.200,244.400 120.933,244.400 120.400 C 244.400 119.867,244.133 119.600,243.600 119.600 C 243.067 119.600,242.800 119.333,242.800 118.800 C 242.800 118.360,242.542 118.000,242.227 118.000 C 241.912 118.000,241.546 117.659,241.414 117.243 C 241.282 116.827,240.819 116.394,240.387 116.281 C 239.954 116.167,239.600 115.788,239.600 115.437 C 239.600 115.085,239.271 114.800,238.862 114.800 C 238.456 114.800,237.798 114.440,237.400 114.000 C 237.002 113.560,236.365 113.200,235.985 113.200 C 235.604 113.200,235.199 112.840,235.084 112.400 C 234.969 111.960,234.588 111.600,234.237 111.600 C 233.887 111.600,233.240 111.240,232.800 110.800 C 232.360 110.360,231.640 110.000,231.200 110.000 C 230.756 110.000,230.400 109.733,230.400 109.400 C 230.400 108.978,229.974 108.800,228.963 108.800 C 227.862 108.800,227.476 108.613,227.316 108.000 C 227.153 107.379,226.770 107.200,225.600 107.200 C 224.430 107.200,224.047 107.021,223.884 106.400 C 223.710 105.735,223.338 105.600,221.684 105.600 C 220.030 105.600,219.658 105.465,219.484 104.800 C 219.298 104.090,218.938 104.000,216.284 104.000 C 213.630 104.000,213.270 103.910,213.084 103.200 C 212.880 102.421,212.538 102.400,199.837 102.400 C 187.067 102.400,186.800 102.416,186.800 103.200 M208.800 125.000 C 208.800 125.465,209.328 125.600,211.153 125.600 C 213.170 125.600,213.537 125.714,213.716 126.400 C 213.891 127.068,214.262 127.200,215.963 127.200 C 217.733 127.200,218.000 127.305,218.000 128.000 C 218.000 128.497,218.267 128.800,218.704 128.800 C 219.091 128.800,219.632 129.160,219.907 129.600 C 220.226 130.110,220.840 130.400,221.603 130.400 C 222.533 130.400,222.800 130.578,222.800 131.200 C 222.800 131.733,223.067 132.000,223.600 132.000 C 224.133 132.000,224.400 132.267,224.400 132.800 C 224.400 133.333,224.667 133.600,225.200 133.600 C 225.644 133.600,226.000 133.867,226.000 134.200 C 226.000 134.530,226.194 134.800,226.431 134.800 C 226.991 134.800,229.200 137.009,229.200 137.569 C 229.200 137.806,229.470 138.000,229.800 138.000 C 230.130 138.000,230.400 138.348,230.400 138.773 C 230.400 139.198,230.741 139.654,231.157 139.786 C 231.573 139.918,232.006 140.381,232.119 140.813 C 232.233 141.246,232.612 141.600,232.963 141.600 C 233.424 141.600,233.600 141.986,233.600 143.000 C 233.600 144.133,233.752 144.400,234.400 144.400 C 235.067 144.400,235.200 144.667,235.200 146.000 C 235.200 147.333,235.333 147.600,236.000 147.600 C 236.705 147.600,236.800 147.867,236.800 149.837 C 236.800 151.738,236.920 152.106,237.600 152.284 C 238.365 152.484,238.400 152.830,238.400 160.247 C 238.400 167.467,238.345 168.055,237.600 168.800 C 237.067 169.333,236.800 170.133,236.800 171.200 C 236.800 172.267,236.533 173.067,236.000 173.600 C 235.505 174.095,235.200 174.933,235.200 175.800 C 235.200 176.788,235.020 177.200,234.590 177.200 C 234.255 177.200,233.818 177.625,233.621 178.145 C 233.423 178.665,232.977 179.200,232.631 179.333 C 232.248 179.480,232.000 180.052,232.000 180.787 C 232.000 181.733,231.824 182.000,231.200 182.000 C 230.667 182.000,230.400 182.267,230.400 182.800 C 230.400 183.265,230.133 183.600,229.763 183.600 C 229.412 183.600,229.031 183.960,228.916 184.400 C 228.801 184.840,228.470 185.200,228.180 185.200 C 227.891 185.200,227.540 185.560,227.400 186.000 C 227.260 186.440,226.888 186.800,226.573 186.800 C 226.258 186.800,226.000 187.160,226.000 187.600 C 226.000 188.133,225.733 188.400,225.200 188.400 C 224.667 188.400,224.400 188.667,224.400 189.200 C 224.400 189.733,224.133 190.000,223.600 190.000 C 223.160 190.000,222.440 190.360,222.000 190.800 C 221.560 191.240,220.840 191.600,220.400 191.600 C 219.960 191.600,219.600 191.854,219.600 192.165 C 219.600 192.512,218.984 192.834,218.000 193.000 C 217.016 193.166,216.400 193.488,216.400 193.835 C 216.400 194.217,215.934 194.400,214.963 194.400 C 213.862 194.400,213.476 194.587,213.316 195.200 C 213.148 195.842,212.770 196.000,211.403 196.000 C 208.901 196.000,207.200 196.425,207.200 197.050 C 207.200 197.966,193.267 197.844,192.592 196.922 C 192.241 196.441,191.337 196.196,189.483 196.078 C 187.339 195.941,186.835 195.776,186.672 195.156 C 186.525 194.592,186.110 194.400,185.037 194.400 C 184.066 194.400,183.600 194.217,183.600 193.835 C 183.600 193.488,182.984 193.166,182.000 193.000 C 181.016 192.834,180.400 192.512,180.400 192.165 C 180.400 191.773,179.911 191.600,178.800 191.600 C 177.467 191.600,177.200 191.467,177.200 190.800 C 177.200 190.267,176.933 190.000,176.400 190.000 C 175.867 190.000,175.600 189.733,175.600 189.200 C 175.600 188.760,175.342 188.400,175.027 188.400 C 174.712 188.400,174.340 188.040,174.200 187.600 C 174.060 187.160,173.700 186.800,173.400 186.800 C 173.100 186.800,172.740 186.440,172.600 186.000 C 172.460 185.560,172.109 185.200,171.820 185.200 C 171.530 185.200,171.199 184.840,171.084 184.400 C 170.969 183.960,170.588 183.600,170.237 183.600 C 169.867 183.600,169.600 183.265,169.600 182.800 C 169.600 182.267,169.333 182.000,168.800 182.000 C 168.267 182.000,168.000 181.733,168.000 181.200 C 168.000 180.760,167.640 180.040,167.200 179.600 C 166.760 179.160,166.400 178.513,166.400 178.163 C 166.400 177.812,166.040 177.431,165.600 177.316 C 164.999 177.159,164.800 176.770,164.800 175.753 C 164.800 174.667,164.642 174.400,164.000 174.400 C 163.289 174.400,163.200 174.133,163.200 172.000 C 163.200 169.867,163.111 169.600,162.400 169.600 C 161.625 169.600,161.600 169.333,161.600 161.000 C 161.600 152.667,161.625 152.400,162.400 152.400 C 163.111 152.400,163.200 152.133,163.200 150.000 C 163.200 147.867,163.289 147.600,164.000 147.600 C 164.667 147.600,164.800 147.333,164.800 146.000 C 164.800 144.667,164.933 144.400,165.600 144.400 C 166.164 144.400,166.400 144.133,166.400 143.496 C 166.400 142.999,166.760 142.368,167.200 142.093 C 167.640 141.818,168.000 141.235,168.000 140.797 C 168.000 140.348,168.268 140.000,168.613 140.000 C 168.949 140.000,169.341 139.685,169.483 139.300 C 169.625 138.915,170.339 138.027,171.070 137.327 C 171.802 136.627,172.400 135.883,172.400 135.674 C 172.400 135.464,172.760 135.199,173.200 135.084 C 173.640 134.969,174.000 134.588,174.000 134.237 C 174.000 133.867,174.335 133.600,174.800 133.600 C 175.333 133.600,175.600 133.333,175.600 132.800 C 175.600 132.267,175.867 132.000,176.400 132.000 C 176.933 132.000,177.200 131.733,177.200 131.200 C 177.200 130.548,177.467 130.400,178.637 130.400 C 179.738 130.400,180.124 130.213,180.284 129.600 C 180.399 129.160,180.789 128.800,181.150 128.800 C 181.512 128.800,182.032 128.440,182.307 128.000 C 182.683 127.398,183.240 127.200,184.557 127.200 C 185.970 127.200,186.347 127.046,186.516 126.400 C 186.694 125.720,187.062 125.600,188.963 125.600 C 190.685 125.600,191.200 125.462,191.200 125.000 C 191.200 124.485,192.444 124.400,200.000 124.400 C 207.556 124.400,208.800 124.485,208.800 125.000 " stroke="none" fill="#040404" fill-rule="evenodd"></path><path id="path1" d="" stroke="none" fill="#080404" fill-rule="evenodd"></path><path id="path2" d="" stroke="none" fill="#080404" fill-rule="evenodd"></path><path id="path3" d="" stroke="none" fill="#080404" fill-rule="evenodd"></path><path id="path4" d="" stroke="none" fill="#080404" fill-rule="evenodd"></path></g></svg>