<svg id="svg" version="1.1" xmlns="http://www.w3.org/2000/svg" xmlns:xlink="http://www.w3.org/1999/xlink" width="400" height="400" viewBox="0, 0, 400,400"><g id="svgg"><path id="path0" d="M171.141 22.264 C 170.456 22.450,170.015 23.552,170.005 25.100 C 170.000 25.983,169.909 26.000,165.226 26.000 C 159.252 26.000,158.497 26.255,158.156 28.388 L 157.898 30.000 154.577 30.000 C 150.786 30.000,150.000 30.443,150.000 32.580 L 150.000 33.904 147.700 34.076 C 144.607 34.307,143.120 35.080,142.656 36.700 C 142.313 37.898,142.154 38.000,140.622 38.000 C 138.569 38.000,138.000 38.534,138.000 40.458 L 138.000 41.956 136.100 42.078 L 134.200 42.200 134.079 44.079 L 133.958 45.958 132.079 46.079 L 130.200 46.200 130.079 48.079 L 129.958 49.958 128.079 50.079 L 126.200 50.200 126.079 52.079 L 125.958 53.958 124.079 54.079 L 122.200 54.200 122.078 56.100 L 121.956 58.000 120.458 58.000 C 118.536 58.000,118.000 58.569,118.000 60.609 C 118.000 62.180,117.929 62.277,116.511 62.629 C 114.809 63.053,114.087 64.646,114.031 68.100 C 114.000 69.991,113.994 70.000,112.629 70.000 C 110.441 70.000,110.000 70.767,110.000 74.577 L 110.000 77.898 108.388 78.156 C 106.258 78.496,106.000 79.255,106.000 85.173 L 106.000 89.895 104.367 90.114 C 103.469 90.234,102.614 90.453,102.467 90.600 C 102.320 90.746,102.152 105.972,102.093 124.433 L 101.987 158.000 80.093 158.031 C 55.465 158.065,55.233 158.088,54.641 160.466 C 54.307 161.804,54.153 161.924,52.521 162.108 C 50.357 162.352,50.352 162.357,50.108 164.521 C 49.924 166.153,49.804 166.307,48.466 166.641 C 45.903 167.279,46.061 159.810,46.061 280.000 C 46.061 400.190,45.903 392.721,48.466 393.359 C 49.804 393.693,49.924 393.847,50.108 395.479 C 50.352 397.649,50.351 397.648,52.580 397.899 C 54.170 398.078,54.400 398.224,54.400 399.052 L 54.400 400.000 200.000 400.000 L 345.600 400.000 345.600 399.052 C 345.600 398.224,345.830 398.078,347.420 397.899 C 349.651 397.647,349.647 397.651,349.894 395.464 C 350.072 393.886,350.233 393.649,351.347 393.330 C 354.002 392.570,353.800 401.910,353.800 280.000 C 353.800 158.090,354.002 167.430,351.347 166.670 C 350.233 166.351,350.072 166.114,349.894 164.536 C 349.648 162.355,349.645 162.352,347.479 162.108 C 345.847 161.924,345.693 161.804,345.359 160.466 C 344.767 158.088,344.535 158.065,319.907 158.031 L 298.013 158.000 297.907 124.433 C 297.848 105.972,297.680 90.746,297.533 90.600 C 297.386 90.453,296.531 90.234,295.633 90.114 L 294.000 89.895 294.000 85.173 C 294.000 79.280,293.737 78.495,291.651 78.162 L 290.076 77.910 289.938 74.388 C 289.780 70.362,289.803 70.405,287.678 70.120 L 286.089 69.907 285.921 67.653 C 285.693 64.605,284.913 63.118,283.300 62.656 C 282.128 62.321,282.000 62.135,282.000 60.771 C 282.000 58.896,281.157 58.000,279.393 58.000 C 278.067 58.000,278.042 57.967,277.922 56.100 L 277.800 54.200 275.921 54.079 L 274.042 53.958 273.921 52.079 L 273.800 50.200 271.921 50.079 L 270.042 49.958 269.921 48.079 L 269.800 46.200 267.921 46.079 L 266.042 45.958 265.921 44.079 L 265.800 42.200 263.900 42.078 L 262.000 41.956 262.000 40.458 C 262.000 38.522,261.431 38.000,259.320 38.000 C 257.790 38.000,257.600 37.898,257.600 37.076 C 257.600 35.079,255.603 34.032,251.753 34.010 C 250.130 34.000,250.102 33.976,249.886 32.367 C 249.595 30.192,249.647 30.220,245.612 30.062 L 242.090 29.924 241.838 28.349 C 241.505 26.263,240.720 26.000,234.827 26.000 L 230.105 26.000 229.886 24.367 C 229.766 23.469,229.547 22.614,229.400 22.467 C 229.107 22.174,172.204 21.975,171.141 22.264 M214.611 46.000 L 221.895 46.000 222.114 47.633 C 222.406 49.816,222.338 49.781,226.576 49.937 L 230.287 50.073 230.844 51.337 C 231.520 52.872,233.112 53.688,235.886 53.921 C 237.971 54.097,237.972 54.098,238.298 55.747 C 238.672 57.637,239.224 57.871,243.478 57.953 L 245.956 58.000 246.078 59.900 L 246.200 61.800 248.100 61.922 L 250.000 62.044 250.000 63.542 C 250.000 65.436,250.569 66.000,252.480 66.000 C 253.973 66.000,254.000 66.027,254.000 67.520 C 254.000 69.431,254.564 70.000,256.458 70.000 L 257.956 70.000 258.078 71.900 L 258.200 73.800 260.100 73.922 L 262.000 74.044 262.047 76.522 C 262.129 80.801,262.357 81.327,264.302 81.711 C 265.938 82.035,266.000 82.102,266.000 83.548 C 266.000 85.688,267.410 88.398,268.797 88.921 C 269.919 89.345,269.931 89.384,270.065 93.242 C 270.219 97.676,270.177 97.593,272.367 97.886 L 274.000 98.105 274.024 107.353 C 274.056 119.979,274.404 121.600,277.076 121.600 L 278.000 121.600 278.000 139.800 L 278.000 158.000 200.000 158.000 L 122.000 158.000 122.000 139.845 L 122.000 121.689 123.418 121.423 C 125.588 121.016,125.727 120.298,125.912 108.548 L 126.077 98.095 127.671 97.881 C 129.811 97.594,129.781 97.653,129.937 93.424 L 130.073 89.713 131.337 89.156 C 132.872 88.480,133.688 86.888,133.921 84.114 C 134.097 82.029,134.098 82.028,135.747 81.702 C 137.637 81.328,137.871 80.776,137.953 76.522 L 138.000 74.044 139.900 73.922 L 141.800 73.800 141.922 71.900 L 142.044 70.000 143.542 70.000 C 145.436 70.000,146.000 69.431,146.000 67.520 C 146.000 66.027,146.027 66.000,147.520 66.000 C 149.431 66.000,150.000 65.436,150.000 63.542 L 150.000 62.044 151.900 61.922 L 153.800 61.800 153.922 59.900 L 154.044 58.000 156.322 57.953 C 160.592 57.864,161.278 57.506,161.784 55.100 C 161.987 54.134,162.200 54.000,163.532 54.000 C 165.715 54.000,168.396 52.594,168.935 51.168 L 169.375 50.000 172.888 50.000 C 176.873 50.000,178.000 49.384,178.000 47.207 L 178.000 46.015 187.300 45.871 C 192.415 45.792,199.013 45.789,201.963 45.864 C 204.913 45.939,210.604 46.000,214.611 46.000 M326.114 179.633 C 326.383 181.637,326.363 181.617,328.367 181.886 C 329.903 182.092,330.000 182.184,330.000 183.424 C 330.000 185.117,330.901 186.000,332.629 186.000 L 334.000 186.000 334.000 280.000 L 334.000 374.000 332.629 374.000 C 330.886 374.000,330.000 374.886,330.000 376.629 C 330.000 377.924,329.924 378.000,328.629 378.000 C 326.886 378.000,326.000 378.886,326.000 380.629 L 326.000 382.000 200.053 382.000 L 74.105 382.000 73.886 380.367 C 73.618 378.367,73.632 378.382,71.679 378.120 C 70.180 377.919,70.081 377.820,69.880 376.321 C 69.618 374.368,69.633 374.382,67.633 374.114 L 66.000 373.895 66.000 280.000 L 66.000 186.105 67.633 185.886 C 69.633 185.618,69.618 185.632,69.880 183.679 C 70.081 182.180,70.180 182.081,71.679 181.880 C 73.632 181.618,73.618 181.633,73.886 179.633 L 74.105 178.000 200.000 178.000 L 325.895 178.000 326.114 179.633 M184.530 238.273 C 183.008 238.481,182.516 239.002,182.335 240.600 C 182.214 241.680,182.030 241.823,180.507 242.026 C 178.415 242.305,178.305 242.415,178.026 244.507 C 177.819 246.060,177.695 246.210,176.530 246.323 C 174.166 246.552,174.200 246.307,174.200 262.961 C 174.200 279.765,174.244 280.091,176.642 281.147 C 177.668 281.599,177.946 282.016,178.242 283.547 C 178.584 285.320,178.674 285.415,180.300 285.757 L 182.000 286.114 182.000 301.428 C 182.000 318.391,181.939 318.000,184.576 318.000 C 185.816 318.000,185.908 318.097,186.114 319.633 C 186.421 321.926,185.599 321.789,199.789 321.916 C 214.184 322.044,214.000 322.077,214.000 319.371 C 214.000 318.076,214.076 318.000,215.371 318.000 C 218.068 318.000,218.000 318.430,218.000 301.428 L 218.000 286.114 219.700 285.757 C 221.326 285.415,221.416 285.320,221.758 283.547 C 222.054 282.016,222.332 281.599,223.358 281.147 C 225.756 280.091,225.800 279.765,225.800 262.961 C 225.800 246.162,225.835 246.400,223.351 246.400 C 222.046 246.400,222.000 246.347,222.000 244.829 C 222.000 242.822,221.178 242.000,219.171 242.000 C 217.653 242.000,217.600 241.954,217.600 240.649 C 217.600 238.171,217.827 238.205,201.039 238.150 C 192.658 238.122,185.228 238.177,184.530 238.273 " stroke="none" fill="#040404" fill-rule="evenodd"></path><path id="path1" d="" stroke="none" fill="#080404" fill-rule="evenodd"></path><path id="path2" d="" stroke="none" fill="#080404" fill-rule="evenodd"></path><path id="path3" d="" stroke="none" fill="#080404" fill-rule="evenodd"></path><path id="path4" d="" stroke="none" fill="#080404" fill-rule="evenodd"></path></g></svg>