<svg id="svg" version="1.1" xmlns="http://www.w3.org/2000/svg" xmlns:xlink="http://www.w3.org/1999/xlink" width="400" height="400" viewBox="0, 0, 400,400"><g id="svgg"><path id="path0" d="M177.400 18.800 C 177.163 19.546,176.795 19.600,171.936 19.600 C 167.062 19.600,166.712 19.652,166.516 20.400 C 166.325 21.128,165.970 21.200,162.553 21.200 C 159.067 21.200,158.800 21.257,158.800 22.000 C 158.800 22.733,158.533 22.800,155.600 22.800 C 152.667 22.800,152.400 22.867,152.400 23.600 C 152.400 24.329,152.133 24.400,149.400 24.400 C 147.126 24.400,146.400 24.533,146.400 24.948 C 146.400 25.322,145.634 25.583,144.000 25.768 C 142.295 25.961,141.600 26.208,141.600 26.620 C 141.600 26.992,141.188 27.200,140.450 27.200 C 138.463 27.200,136.800 27.679,136.800 28.250 C 136.800 28.615,136.316 28.800,135.363 28.800 C 134.262 28.800,133.876 28.987,133.716 29.600 C 133.540 30.273,133.170 30.400,131.380 30.400 C 129.605 30.400,129.212 30.532,129.000 31.200 C 128.813 31.788,128.395 32.000,127.420 32.000 C 126.464 32.000,126.039 32.208,125.899 32.742 C 125.756 33.291,125.208 33.540,123.792 33.700 C 122.629 33.831,121.738 34.167,121.520 34.558 C 121.322 34.911,120.809 35.200,120.380 35.200 C 119.951 35.200,119.240 35.560,118.800 36.000 C 118.345 36.455,117.467 36.800,116.763 36.800 C 115.862 36.800,115.468 37.017,115.316 37.600 C 115.180 38.119,114.770 38.400,114.149 38.400 C 113.623 38.400,112.884 38.760,112.507 39.200 C 112.130 39.640,111.485 40.000,111.074 40.000 C 110.662 40.000,110.231 40.360,110.116 40.800 C 109.959 41.401,109.570 41.600,108.553 41.600 C 107.654 41.600,107.200 41.790,107.200 42.165 C 107.200 42.512,106.584 42.834,105.600 43.000 C 104.616 43.166,104.000 43.488,104.000 43.835 C 104.000 44.146,103.640 44.400,103.200 44.400 C 102.667 44.400,102.400 44.667,102.400 45.200 C 102.400 45.852,102.133 46.000,100.963 46.000 C 99.862 46.000,99.476 46.187,99.316 46.800 C 99.200 47.243,98.770 47.600,98.353 47.600 C 97.867 47.600,97.600 47.883,97.600 48.400 C 97.600 49.048,97.333 49.200,96.200 49.200 C 95.212 49.200,94.800 49.380,94.800 49.810 C 94.800 50.145,94.350 50.591,93.800 50.800 C 93.250 51.009,92.800 51.455,92.800 51.790 C 92.800 52.205,92.405 52.400,91.563 52.400 C 90.662 52.400,90.268 52.617,90.116 53.200 C 90.000 53.643,89.570 54.000,89.153 54.000 C 88.667 54.000,88.400 54.283,88.400 54.800 C 88.400 55.333,88.133 55.600,87.600 55.600 C 87.067 55.600,86.800 55.867,86.800 56.400 C 86.800 56.844,86.533 57.200,86.200 57.200 C 85.870 57.200,85.240 57.560,84.800 58.000 C 84.360 58.440,83.646 58.800,83.214 58.800 C 82.782 58.800,82.235 59.160,82.000 59.600 C 81.765 60.040,81.308 60.400,80.986 60.400 C 80.664 60.400,80.400 60.670,80.400 61.000 C 80.400 61.330,80.113 61.600,79.763 61.600 C 79.412 61.600,79.031 61.960,78.916 62.400 C 78.801 62.840,78.441 63.200,78.116 63.200 C 77.791 63.200,77.431 63.560,77.316 64.000 C 77.201 64.440,76.870 64.800,76.580 64.800 C 76.291 64.800,75.940 65.160,75.800 65.600 C 75.660 66.040,75.288 66.400,74.973 66.400 C 74.658 66.400,74.400 66.760,74.400 67.200 C 74.400 67.733,74.133 68.000,73.600 68.000 C 73.067 68.000,72.800 68.267,72.800 68.800 C 72.800 69.333,72.533 69.600,72.000 69.600 C 71.467 69.600,71.200 69.867,71.200 70.400 C 71.200 70.933,70.933 71.200,70.400 71.200 C 69.867 71.200,69.600 71.467,69.600 72.000 C 69.600 72.533,69.333 72.800,68.800 72.800 C 68.267 72.800,68.000 73.067,68.000 73.600 C 68.000 74.133,67.733 74.400,67.200 74.400 C 66.760 74.400,66.400 74.658,66.400 74.973 C 66.400 75.288,66.040 75.660,65.600 75.800 C 65.160 75.940,64.800 76.291,64.800 76.580 C 64.800 76.870,64.440 77.201,64.000 77.316 C 63.560 77.431,63.200 77.791,63.200 78.116 C 63.200 78.441,62.840 78.801,62.400 78.916 C 61.960 79.031,61.600 79.412,61.600 79.763 C 61.600 80.113,61.330 80.400,61.000 80.400 C 60.670 80.400,60.400 80.664,60.400 80.986 C 60.400 81.308,60.040 81.765,59.600 82.000 C 59.160 82.235,58.800 82.692,58.800 83.014 C 58.800 83.336,58.440 83.960,58.000 84.400 C 57.560 84.840,57.200 85.560,57.200 86.000 C 57.200 86.533,56.933 86.800,56.400 86.800 C 55.867 86.800,55.600 87.067,55.600 87.600 C 55.600 88.133,55.333 88.400,54.800 88.400 C 54.283 88.400,54.000 88.667,54.000 89.153 C 54.000 89.570,53.643 90.000,53.200 90.116 C 52.626 90.266,52.400 90.662,52.400 91.516 C 52.400 92.370,52.174 92.766,51.600 92.916 C 51.160 93.031,50.800 93.400,50.800 93.736 C 50.800 94.071,50.440 94.460,50.000 94.600 C 49.405 94.789,49.200 95.205,49.200 96.227 C 49.200 97.333,49.045 97.600,48.400 97.600 C 47.883 97.600,47.600 97.867,47.600 98.353 C 47.600 98.770,47.243 99.200,46.800 99.316 C 46.187 99.476,46.000 99.862,46.000 100.963 C 46.000 102.133,45.852 102.400,45.200 102.400 C 44.667 102.400,44.400 102.667,44.400 103.200 C 44.400 103.640,44.146 104.000,43.835 104.000 C 43.488 104.000,43.166 104.616,43.000 105.600 C 42.834 106.584,42.512 107.200,42.165 107.200 C 41.790 107.200,41.600 107.654,41.600 108.553 C 41.600 109.570,41.401 109.959,40.800 110.116 C 40.360 110.231,40.000 110.662,40.000 111.074 C 40.000 111.485,39.640 112.130,39.200 112.507 C 38.760 112.884,38.400 113.623,38.400 114.149 C 38.400 114.770,38.119 115.180,37.600 115.316 C 37.017 115.468,36.800 115.862,36.800 116.763 C 36.800 117.467,36.455 118.345,36.000 118.800 C 35.560 119.240,35.200 119.951,35.200 120.380 C 35.200 120.809,34.911 121.322,34.558 121.520 C 34.167 121.738,33.831 122.629,33.700 123.792 C 33.540 125.208,33.291 125.756,32.742 125.899 C 32.208 126.039,32.000 126.464,32.000 127.420 C 32.000 128.395,31.788 128.813,31.200 129.000 C 30.582 129.196,30.400 129.605,30.400 130.794 C 30.400 132.723,30.074 133.600,29.357 133.600 C 28.974 133.600,28.800 134.099,28.800 135.200 C 28.800 136.291,28.625 136.800,28.250 136.800 C 27.679 136.800,27.200 138.463,27.200 140.450 C 27.200 141.180,26.991 141.600,26.629 141.600 C 26.235 141.600,25.971 142.295,25.779 143.832 C 25.615 145.141,25.273 146.151,24.950 146.275 C 24.552 146.427,24.400 147.303,24.400 149.443 C 24.400 152.133,24.328 152.400,23.600 152.400 C 22.867 152.400,22.800 152.667,22.800 155.600 C 22.800 158.533,22.733 158.800,22.000 158.800 C 21.257 158.800,21.200 159.067,21.200 162.553 C 21.200 165.970,21.128 166.325,20.400 166.516 C 19.654 166.711,19.600 167.062,19.600 171.666 C 19.600 176.174,19.530 176.651,18.800 177.107 C 17.543 177.892,17.543 222.108,18.800 222.893 C 19.530 223.349,19.600 223.826,19.600 228.334 C 19.600 232.938,19.654 233.289,20.400 233.484 C 21.128 233.675,21.200 234.030,21.200 237.447 C 21.200 240.933,21.257 241.200,22.000 241.200 C 22.733 241.200,22.800 241.467,22.800 244.400 C 22.800 247.333,22.867 247.600,23.600 247.600 C 24.329 247.600,24.400 247.867,24.400 250.600 C 24.400 252.874,24.533 253.600,24.948 253.600 C 25.322 253.600,25.583 254.366,25.768 256.000 C 25.961 257.705,26.208 258.400,26.620 258.400 C 26.992 258.400,27.200 258.812,27.200 259.550 C 27.200 261.537,27.679 263.200,28.250 263.200 C 28.625 263.200,28.800 263.709,28.800 264.800 C 28.800 265.901,28.974 266.400,29.357 266.400 C 30.074 266.400,30.400 267.277,30.400 269.206 C 30.400 270.395,30.582 270.804,31.200 271.000 C 31.791 271.188,32.000 271.605,32.000 272.600 C 32.000 273.564,32.212 274.014,32.749 274.184 C 33.293 274.356,33.556 274.929,33.707 276.271 C 33.832 277.382,34.172 278.265,34.558 278.480 C 34.911 278.678,35.200 279.191,35.200 279.620 C 35.200 280.049,35.560 280.760,36.000 281.200 C 36.440 281.640,36.800 282.345,36.800 282.767 C 36.800 283.959,37.231 284.800,37.843 284.800 C 38.155 284.800,38.400 285.198,38.400 285.704 C 38.400 286.201,38.760 286.832,39.200 287.107 C 39.665 287.397,40.000 288.040,40.000 288.641 C 40.000 289.338,40.260 289.743,40.800 289.884 C 41.401 290.041,41.600 290.430,41.600 291.447 C 41.600 292.346,41.790 292.800,42.165 292.800 C 42.512 292.800,42.834 293.416,43.000 294.400 C 43.166 295.384,43.488 296.000,43.835 296.000 C 44.146 296.000,44.400 296.360,44.400 296.800 C 44.400 297.333,44.667 297.600,45.200 297.600 C 45.852 297.600,46.000 297.867,46.000 299.037 C 46.000 300.138,46.187 300.524,46.800 300.684 C 47.243 300.800,47.600 301.230,47.600 301.647 C 47.600 302.133,47.883 302.400,48.400 302.400 C 49.048 302.400,49.200 302.667,49.200 303.800 C 49.200 304.788,49.380 305.200,49.810 305.200 C 50.145 305.200,50.591 305.650,50.800 306.200 C 51.009 306.750,51.455 307.200,51.790 307.200 C 52.205 307.200,52.400 307.595,52.400 308.437 C 52.400 309.338,52.617 309.732,53.200 309.884 C 53.643 310.000,54.000 310.430,54.000 310.847 C 54.000 311.333,54.283 311.600,54.800 311.600 C 55.333 311.600,55.600 311.867,55.600 312.400 C 55.600 312.933,55.867 313.200,56.400 313.200 C 56.933 313.200,57.200 313.467,57.200 314.000 C 57.200 314.440,57.560 315.160,58.000 315.600 C 58.440 316.040,58.800 316.664,58.800 316.986 C 58.800 317.308,59.160 317.765,59.600 318.000 C 60.040 318.235,60.400 318.692,60.400 319.014 C 60.400 319.336,60.670 319.600,61.000 319.600 C 61.330 319.600,61.600 319.887,61.600 320.237 C 61.600 320.588,61.960 320.969,62.400 321.084 C 62.840 321.199,63.200 321.559,63.200 321.884 C 63.200 322.209,63.560 322.569,64.000 322.684 C 64.440 322.799,64.800 323.159,64.800 323.484 C 64.800 323.809,65.160 324.169,65.600 324.284 C 66.040 324.399,66.400 324.742,66.400 325.047 C 66.400 325.351,66.760 325.600,67.200 325.600 C 67.733 325.600,68.000 325.867,68.000 326.400 C 68.000 326.933,68.267 327.200,68.800 327.200 C 69.333 327.200,69.600 327.467,69.600 328.000 C 69.600 328.533,69.867 328.800,70.400 328.800 C 70.933 328.800,71.200 329.067,71.200 329.600 C 71.200 330.133,71.467 330.400,72.000 330.400 C 72.533 330.400,72.800 330.667,72.800 331.200 C 72.800 331.733,73.067 332.000,73.600 332.000 C 74.133 332.000,74.400 332.267,74.400 332.800 C 74.400 333.240,74.658 333.600,74.973 333.600 C 75.288 333.600,75.660 333.960,75.800 334.400 C 75.940 334.840,76.312 335.200,76.627 335.200 C 76.942 335.200,77.200 335.487,77.200 335.837 C 77.200 336.188,77.560 336.569,78.000 336.684 C 78.440 336.799,78.800 337.159,78.800 337.484 C 78.800 337.809,79.160 338.169,79.600 338.284 C 80.040 338.399,80.400 338.742,80.400 339.047 C 80.400 339.351,80.664 339.600,80.986 339.600 C 81.308 339.600,81.757 339.945,81.983 340.367 C 82.209 340.790,82.947 341.257,83.624 341.405 C 84.300 341.554,84.951 341.928,85.070 342.238 C 85.188 342.547,85.626 342.800,86.043 342.800 C 86.533 342.800,86.800 343.082,86.800 343.600 C 86.800 344.133,87.067 344.400,87.600 344.400 C 88.133 344.400,88.400 344.667,88.400 345.200 C 88.400 345.717,88.667 346.000,89.153 346.000 C 89.570 346.000,90.000 346.357,90.116 346.800 C 90.268 347.383,90.662 347.600,91.563 347.600 C 92.428 347.600,92.800 347.792,92.800 348.237 C 92.800 348.588,93.154 348.967,93.587 349.081 C 94.019 349.194,94.482 349.627,94.614 350.043 C 94.788 350.592,95.231 350.800,96.227 350.800 C 97.333 350.800,97.600 350.955,97.600 351.600 C 97.600 352.117,97.867 352.400,98.353 352.400 C 98.770 352.400,99.200 352.757,99.316 353.200 C 99.476 353.813,99.862 354.000,100.963 354.000 C 102.133 354.000,102.400 354.148,102.400 354.800 C 102.400 355.333,102.667 355.600,103.200 355.600 C 103.640 355.600,104.000 355.854,104.000 356.165 C 104.000 356.512,104.616 356.834,105.600 357.000 C 106.584 357.166,107.200 357.488,107.200 357.835 C 107.200 358.210,107.654 358.400,108.553 358.400 C 109.570 358.400,109.959 358.599,110.116 359.200 C 110.231 359.640,110.612 360.000,110.963 360.000 C 111.313 360.000,111.960 360.360,112.400 360.800 C 112.840 361.240,113.548 361.600,113.973 361.600 C 114.398 361.600,114.860 361.960,115.000 362.400 C 115.184 362.980,115.605 363.200,116.531 363.200 C 117.374 363.200,117.977 363.471,118.307 364.000 C 118.610 364.485,119.240 364.800,119.907 364.800 C 120.574 364.800,121.204 365.115,121.507 365.600 C 121.889 366.211,122.440 366.400,123.841 366.400 C 125.338 366.400,125.713 366.547,125.884 367.200 C 126.039 367.794,126.430 368.000,127.400 368.000 C 128.370 368.000,128.761 368.206,128.916 368.800 C 129.076 369.413,129.462 369.600,130.563 369.600 C 131.467 369.600,132.297 369.897,132.800 370.400 C 133.333 370.933,134.133 371.200,135.200 371.200 C 136.301 371.200,136.800 371.374,136.800 371.757 C 136.800 372.496,137.686 372.800,139.833 372.800 C 141.071 372.800,141.600 372.966,141.600 373.353 C 141.600 373.979,142.797 374.386,144.657 374.395 C 145.402 374.398,146.008 374.645,146.145 375.000 C 146.321 375.460,147.079 375.600,149.387 375.600 C 152.133 375.600,152.400 375.671,152.400 376.400 C 152.400 377.133,152.667 377.200,155.600 377.200 C 158.533 377.200,158.800 377.267,158.800 378.000 C 158.800 378.729,159.067 378.800,161.800 378.800 C 164.267 378.800,164.942 378.942,165.600 379.600 C 166.311 380.311,166.933 380.400,171.200 380.400 C 175.733 380.400,176.000 380.444,176.000 381.200 C 176.000 381.991,176.267 382.000,200.000 382.000 C 223.733 382.000,224.000 381.991,224.000 381.200 C 224.000 380.444,224.267 380.400,228.800 380.400 C 233.067 380.400,233.689 380.311,234.400 379.600 C 235.060 378.940,235.733 378.800,238.237 378.800 C 240.938 378.800,241.298 378.711,241.484 378.000 C 241.669 377.291,242.030 377.200,244.647 377.200 C 247.333 377.200,247.600 377.128,247.600 376.400 C 247.600 375.671,247.867 375.600,250.613 375.600 C 252.921 375.600,253.679 375.460,253.855 375.000 C 254.004 374.612,254.624 374.400,255.610 374.400 C 257.523 374.400,258.400 374.072,258.400 373.357 C 258.400 372.981,258.887 372.798,259.900 372.795 C 261.989 372.787,263.200 372.405,263.200 371.753 C 263.200 371.397,263.662 371.198,264.500 371.195 C 266.400 371.187,267.600 370.784,267.600 370.153 C 267.600 369.772,268.110 369.600,269.237 369.600 C 270.538 369.600,270.918 369.436,271.084 368.800 C 271.241 368.201,271.630 368.000,272.633 368.000 C 273.562 368.000,274.103 367.755,274.400 367.200 C 274.717 366.607,275.238 366.400,276.411 366.400 C 277.560 366.400,278.130 366.181,278.493 365.600 C 278.823 365.071,279.426 364.800,280.269 364.800 C 281.195 364.800,281.616 364.580,281.800 364.000 C 281.977 363.442,282.405 363.200,283.213 363.200 C 283.962 363.200,284.523 362.917,284.800 362.400 C 285.035 361.960,285.582 361.600,286.014 361.600 C 286.446 361.600,287.160 361.240,287.600 360.800 C 288.040 360.360,288.760 360.000,289.200 360.000 C 289.733 360.000,290.000 359.733,290.000 359.200 C 290.000 358.552,290.267 358.400,291.400 358.400 C 292.339 358.400,292.800 358.214,292.800 357.835 C 292.800 357.488,293.416 357.166,294.400 357.000 C 295.384 356.834,296.000 356.512,296.000 356.165 C 296.000 355.854,296.360 355.600,296.800 355.600 C 297.333 355.600,297.600 355.333,297.600 354.800 C 297.600 354.148,297.867 354.000,299.037 354.000 C 300.138 354.000,300.524 353.813,300.684 353.200 C 300.800 352.757,301.230 352.400,301.647 352.400 C 302.133 352.400,302.400 352.117,302.400 351.600 C 302.400 350.955,302.667 350.800,303.773 350.800 C 304.769 350.800,305.212 350.592,305.386 350.043 C 305.518 349.627,305.981 349.194,306.413 349.081 C 306.846 348.967,307.200 348.588,307.200 348.237 C 307.200 347.792,307.572 347.600,308.437 347.600 C 309.338 347.600,309.732 347.383,309.884 346.800 C 310.000 346.357,310.430 346.000,310.847 346.000 C 311.333 346.000,311.600 345.717,311.600 345.200 C 311.600 344.667,311.867 344.400,312.400 344.400 C 312.933 344.400,313.200 344.133,313.200 343.600 C 313.200 343.086,313.467 342.800,313.946 342.800 C 314.356 342.800,315.150 342.440,315.709 342.000 C 316.269 341.560,316.916 341.200,317.149 341.200 C 317.382 341.200,317.765 340.840,318.000 340.400 C 318.235 339.960,318.692 339.600,319.014 339.600 C 319.336 339.600,319.600 339.351,319.600 339.047 C 319.600 338.742,319.960 338.399,320.400 338.284 C 320.840 338.169,321.200 337.809,321.200 337.484 C 321.200 337.159,321.560 336.799,322.000 336.684 C 322.440 336.569,322.800 336.209,322.800 335.884 C 322.800 335.559,323.160 335.199,323.600 335.084 C 324.040 334.969,324.400 334.588,324.400 334.237 C 324.400 333.887,324.670 333.600,325.000 333.600 C 325.333 333.600,325.600 333.244,325.600 332.800 C 325.600 332.267,325.867 332.000,326.400 332.000 C 326.933 332.000,327.200 331.733,327.200 331.200 C 327.200 330.667,327.467 330.400,328.000 330.400 C 328.533 330.400,328.800 330.133,328.800 329.600 C 328.800 329.067,329.067 328.800,329.600 328.800 C 330.133 328.800,330.400 328.533,330.400 328.000 C 330.400 327.467,330.667 327.200,331.200 327.200 C 331.733 327.200,332.000 326.933,332.000 326.400 C 332.000 325.867,332.267 325.600,332.800 325.600 C 333.240 325.600,333.600 325.351,333.600 325.047 C 333.600 324.742,333.960 324.399,334.400 324.284 C 334.840 324.169,335.200 323.809,335.200 323.484 C 335.200 323.159,335.560 322.799,336.000 322.684 C 336.440 322.569,336.800 322.209,336.800 321.884 C 336.800 321.559,337.160 321.199,337.600 321.084 C 338.040 320.969,338.400 320.588,338.400 320.237 C 338.400 319.887,338.670 319.600,339.000 319.600 C 339.330 319.600,339.600 319.336,339.600 319.014 C 339.600 318.692,339.945 318.243,340.367 318.017 C 340.790 317.791,341.257 317.053,341.405 316.376 C 341.554 315.700,341.928 315.049,342.238 314.930 C 342.547 314.812,342.800 314.374,342.800 313.957 C 342.800 313.467,343.082 313.200,343.600 313.200 C 344.133 313.200,344.400 312.933,344.400 312.400 C 344.400 311.867,344.667 311.600,345.200 311.600 C 345.733 311.600,346.000 311.333,346.000 310.800 C 346.000 310.360,346.251 310.000,346.557 310.000 C 347.169 310.000,347.600 309.159,347.600 307.967 C 347.600 307.545,347.874 307.200,348.210 307.200 C 348.545 307.200,348.991 306.750,349.200 306.200 C 349.409 305.650,349.855 305.200,350.190 305.200 C 350.620 305.200,350.800 304.788,350.800 303.800 C 350.800 302.667,350.952 302.400,351.600 302.400 C 352.117 302.400,352.400 302.133,352.400 301.647 C 352.400 301.230,352.757 300.800,353.200 300.684 C 353.813 300.524,354.000 300.138,354.000 299.037 C 354.000 297.989,354.172 297.600,354.637 297.600 C 354.988 297.600,355.366 297.252,355.477 296.828 C 355.588 296.403,355.921 295.962,356.217 295.849 C 356.514 295.735,356.876 295.003,357.022 294.221 C 357.176 293.403,357.525 292.800,357.845 292.800 C 358.209 292.800,358.400 292.335,358.400 291.447 C 358.400 290.430,358.599 290.041,359.200 289.884 C 359.740 289.743,360.000 289.338,360.000 288.641 C 360.000 288.040,360.335 287.397,360.800 287.107 C 361.240 286.832,361.600 286.291,361.600 285.904 C 361.600 285.517,361.960 284.840,362.400 284.400 C 362.840 283.960,363.200 283.240,363.200 282.800 C 363.200 282.360,363.560 281.640,364.000 281.200 C 364.440 280.760,364.800 280.040,364.800 279.600 C 364.800 279.160,365.160 278.440,365.600 278.000 C 366.085 277.515,366.400 276.667,366.400 275.847 C 366.400 274.830,366.599 274.441,367.200 274.284 C 367.809 274.125,368.000 273.738,368.000 272.664 C 368.000 271.605,368.199 271.191,368.800 271.000 C 369.418 270.804,369.600 270.395,369.600 269.206 C 369.600 267.277,369.926 266.400,370.643 266.400 C 371.017 266.400,371.200 265.922,371.200 264.944 C 371.200 264.060,371.456 263.301,371.852 263.011 C 372.251 262.720,372.582 261.730,372.703 260.467 C 372.826 259.188,373.092 258.400,373.401 258.400 C 373.923 258.400,374.400 256.679,374.400 254.793 C 374.400 254.178,374.667 253.583,375.000 253.455 C 375.455 253.281,375.600 252.544,375.600 250.413 C 375.600 247.867,375.676 247.600,376.400 247.600 C 377.133 247.600,377.200 247.333,377.200 244.400 C 377.200 241.467,377.267 241.200,378.000 241.200 C 378.743 241.200,378.800 240.933,378.800 237.447 C 378.800 234.030,378.872 233.675,379.600 233.484 C 380.349 233.288,380.400 232.938,380.400 228.000 C 380.400 223.062,380.451 222.712,381.200 222.516 C 382.460 222.186,382.460 177.814,381.200 177.484 C 380.451 177.288,380.400 176.938,380.400 172.000 C 380.400 167.062,380.349 166.712,379.600 166.516 C 378.872 166.325,378.800 165.970,378.800 162.553 C 378.800 159.067,378.743 158.800,378.000 158.800 C 377.267 158.800,377.200 158.533,377.200 155.600 C 377.200 152.667,377.133 152.400,376.400 152.400 C 375.671 152.400,375.600 152.133,375.600 149.400 C 375.600 147.000,375.480 146.400,375.000 146.400 C 374.606 146.400,374.400 146.006,374.400 145.250 C 374.400 143.263,373.921 141.600,373.350 141.600 C 373.011 141.600,372.800 141.159,372.800 140.450 C 372.800 138.463,372.321 136.800,371.750 136.800 C 371.375 136.800,371.200 136.291,371.200 135.200 C 371.200 134.099,371.026 133.600,370.643 133.600 C 369.926 133.600,369.600 132.723,369.600 130.794 C 369.600 129.605,369.418 129.196,368.800 129.000 C 368.212 128.813,368.000 128.395,368.000 127.420 C 368.000 126.430,367.797 126.040,367.200 125.884 C 366.587 125.724,366.400 125.338,366.400 124.237 C 366.400 123.333,366.103 122.503,365.600 122.000 C 365.160 121.560,364.800 120.748,364.800 120.196 C 364.800 119.644,364.440 118.884,364.000 118.507 C 363.560 118.130,363.200 117.517,363.200 117.144 C 363.200 116.035,362.752 115.200,362.157 115.200 C 361.845 115.200,361.600 114.802,361.600 114.296 C 361.600 113.799,361.240 113.168,360.800 112.893 C 360.335 112.603,360.000 111.960,360.000 111.359 C 360.000 110.662,359.740 110.257,359.200 110.116 C 358.599 109.959,358.400 109.570,358.400 108.553 C 358.400 107.654,358.210 107.200,357.835 107.200 C 357.488 107.200,357.166 106.584,357.000 105.600 C 356.834 104.616,356.512 104.000,356.165 104.000 C 355.854 104.000,355.600 103.640,355.600 103.200 C 355.600 102.667,355.333 102.400,354.800 102.400 C 354.148 102.400,354.000 102.133,354.000 100.963 C 354.000 99.862,353.813 99.476,353.200 99.316 C 352.757 99.200,352.400 98.770,352.400 98.353 C 352.400 97.867,352.117 97.600,351.600 97.600 C 350.955 97.600,350.800 97.333,350.800 96.227 C 350.800 95.231,350.592 94.788,350.043 94.614 C 349.627 94.482,349.194 94.019,349.081 93.587 C 348.967 93.154,348.588 92.800,348.237 92.800 C 347.876 92.800,347.600 92.468,347.600 92.033 C 347.600 90.841,347.169 90.000,346.557 90.000 C 346.251 90.000,346.000 89.640,346.000 89.200 C 346.000 88.667,345.733 88.400,345.200 88.400 C 344.667 88.400,344.400 88.133,344.400 87.600 C 344.400 87.067,344.133 86.800,343.600 86.800 C 343.086 86.800,342.800 86.533,342.800 86.054 C 342.800 85.644,342.440 84.850,342.000 84.291 C 341.560 83.731,341.200 83.084,341.200 82.851 C 341.200 82.618,340.840 82.235,340.400 82.000 C 339.960 81.765,339.600 81.308,339.600 80.986 C 339.600 80.664,339.351 80.400,339.047 80.400 C 338.742 80.400,338.399 80.040,338.284 79.600 C 338.169 79.160,337.809 78.800,337.484 78.800 C 337.159 78.800,336.799 78.440,336.684 78.000 C 336.569 77.560,336.188 77.200,335.837 77.200 C 335.487 77.200,335.200 76.942,335.200 76.627 C 335.200 76.312,334.840 75.940,334.400 75.800 C 333.960 75.660,333.600 75.288,333.600 74.973 C 333.600 74.658,333.240 74.400,332.800 74.400 C 332.267 74.400,332.000 74.133,332.000 73.600 C 332.000 73.067,331.733 72.800,331.200 72.800 C 330.667 72.800,330.400 72.533,330.400 72.000 C 330.400 71.467,330.133 71.200,329.600 71.200 C 329.067 71.200,328.800 70.933,328.800 70.400 C 328.800 69.867,328.533 69.600,328.000 69.600 C 327.467 69.600,327.200 69.333,327.200 68.800 C 327.200 68.267,326.933 68.000,326.400 68.000 C 325.867 68.000,325.600 67.733,325.600 67.200 C 325.600 66.760,325.351 66.400,325.047 66.400 C 324.742 66.400,324.399 66.040,324.284 65.600 C 324.169 65.160,323.788 64.800,323.437 64.800 C 323.087 64.800,322.800 64.513,322.800 64.163 C 322.800 63.812,322.440 63.431,322.000 63.316 C 321.560 63.201,321.200 62.841,321.200 62.516 C 321.200 62.191,320.840 61.831,320.400 61.716 C 319.960 61.601,319.600 61.258,319.600 60.953 C 319.600 60.649,319.336 60.400,319.014 60.400 C 318.692 60.400,318.235 60.040,318.000 59.600 C 317.765 59.160,317.308 58.800,316.986 58.800 C 316.664 58.800,316.040 58.440,315.600 58.000 C 315.160 57.560,314.440 57.200,314.000 57.200 C 313.467 57.200,313.200 56.933,313.200 56.400 C 313.200 55.867,312.933 55.600,312.400 55.600 C 311.867 55.600,311.600 55.333,311.600 54.800 C 311.600 54.283,311.333 54.000,310.847 54.000 C 310.430 54.000,310.000 53.643,309.884 53.200 C 309.732 52.617,309.338 52.400,308.437 52.400 C 307.572 52.400,307.200 52.208,307.200 51.763 C 307.200 51.412,306.846 51.033,306.413 50.919 C 305.981 50.806,305.518 50.373,305.386 49.957 C 305.212 49.408,304.769 49.200,303.773 49.200 C 302.667 49.200,302.400 49.045,302.400 48.400 C 302.400 47.883,302.133 47.600,301.647 47.600 C 301.230 47.600,300.800 47.243,300.684 46.800 C 300.524 46.187,300.138 46.000,299.037 46.000 C 297.867 46.000,297.600 45.852,297.600 45.200 C 297.600 44.667,297.333 44.400,296.800 44.400 C 296.360 44.400,296.000 44.146,296.000 43.835 C 296.000 43.488,295.384 43.166,294.400 43.000 C 293.416 42.834,292.800 42.512,292.800 42.165 C 292.800 41.790,292.346 41.600,291.447 41.600 C 290.430 41.600,290.041 41.401,289.884 40.800 C 289.743 40.260,289.338 40.000,288.641 40.000 C 288.040 40.000,287.397 39.665,287.107 39.200 C 286.832 38.760,286.201 38.400,285.704 38.400 C 285.198 38.400,284.800 38.155,284.800 37.843 C 284.800 37.248,283.965 36.800,282.856 36.800 C 282.483 36.800,281.870 36.440,281.493 36.000 C 281.116 35.560,280.356 35.200,279.804 35.200 C 279.252 35.200,278.440 34.840,278.000 34.400 C 277.515 33.915,276.667 33.600,275.847 33.600 C 274.830 33.600,274.441 33.401,274.284 32.800 C 274.125 32.191,273.738 32.000,272.664 32.000 C 271.605 32.000,271.191 31.801,271.000 31.200 C 270.804 30.582,270.395 30.400,269.206 30.400 C 267.277 30.400,266.400 30.074,266.400 29.357 C 266.400 28.974,265.901 28.800,264.800 28.800 C 263.709 28.800,263.200 28.625,263.200 28.250 C 263.200 27.679,261.537 27.200,259.550 27.200 C 258.812 27.200,258.400 26.992,258.400 26.620 C 258.400 26.208,257.705 25.961,256.000 25.768 C 254.366 25.583,253.600 25.322,253.600 24.948 C 253.600 24.533,252.874 24.400,250.600 24.400 C 247.867 24.400,247.600 24.329,247.600 23.600 C 247.600 22.867,247.333 22.800,244.400 22.800 C 241.467 22.800,241.200 22.733,241.200 22.000 C 241.200 21.257,240.933 21.200,237.447 21.200 C 234.030 21.200,233.675 21.128,233.484 20.400 C 233.288 19.652,232.938 19.600,228.064 19.600 C 223.205 19.600,222.837 19.546,222.600 18.800 C 222.200 17.541,177.800 17.541,177.400 18.800 M201.023 39.100 C 201.481 39.726,202.556 39.814,211.251 39.938 C 219.630 40.057,221.032 40.165,221.440 40.722 C 221.807 41.224,222.836 41.404,226.056 41.530 C 229.029 41.647,230.290 41.849,230.520 42.246 C 230.757 42.656,231.821 42.800,234.620 42.800 C 238.133 42.800,238.400 42.856,238.400 43.600 C 238.400 44.309,238.667 44.400,240.753 44.400 C 242.770 44.400,243.137 44.514,243.316 45.200 C 243.496 45.889,243.862 46.000,245.959 46.000 C 247.960 46.000,248.482 46.142,248.893 46.800 C 249.298 47.450,249.826 47.600,251.696 47.600 C 253.733 47.600,254.000 47.693,254.000 48.400 C 254.000 49.063,254.267 49.200,255.553 49.200 C 256.770 49.200,257.152 49.373,257.316 50.000 C 257.490 50.665,257.862 50.800,259.516 50.800 C 261.170 50.800,261.542 50.935,261.716 51.600 C 261.875 52.206,262.262 52.400,263.316 52.400 C 264.370 52.400,264.757 52.594,264.916 53.200 C 265.076 53.813,265.462 54.000,266.563 54.000 C 267.569 54.000,268.000 54.179,268.000 54.595 C 268.000 54.980,268.565 55.281,269.600 55.446 C 270.503 55.591,271.200 55.926,271.200 56.216 C 271.200 56.504,271.904 56.849,272.800 57.000 C 273.784 57.166,274.400 57.488,274.400 57.835 C 274.400 58.212,274.857 58.400,275.773 58.400 C 276.795 58.400,277.211 58.605,277.400 59.200 C 277.589 59.795,278.005 60.000,279.027 60.000 C 280.133 60.000,280.400 60.155,280.400 60.800 C 280.400 61.422,280.667 61.600,281.597 61.600 C 282.360 61.600,282.974 61.890,283.293 62.400 C 283.568 62.840,284.109 63.200,284.496 63.200 C 284.933 63.200,285.200 63.503,285.200 64.000 C 285.200 64.667,285.467 64.800,286.800 64.800 C 288.133 64.800,288.400 64.933,288.400 65.600 C 288.400 66.133,288.667 66.400,289.200 66.400 C 289.733 66.400,290.000 66.667,290.000 67.200 C 290.000 67.842,290.267 68.000,291.353 68.000 C 292.370 68.000,292.759 68.199,292.916 68.800 C 293.031 69.240,293.400 69.600,293.736 69.600 C 294.071 69.600,294.460 69.960,294.600 70.400 C 294.740 70.840,295.202 71.200,295.627 71.200 C 296.052 71.200,296.400 71.462,296.400 71.782 C 296.400 72.127,296.954 72.468,297.763 72.619 C 298.632 72.782,299.199 73.152,299.326 73.638 C 299.435 74.057,299.812 74.400,300.163 74.400 C 300.513 74.400,300.800 74.670,300.800 75.000 C 300.800 75.333,301.156 75.600,301.600 75.600 C 302.133 75.600,302.400 75.867,302.400 76.400 C 302.400 76.917,302.667 77.200,303.153 77.200 C 303.570 77.200,304.000 77.557,304.116 78.000 C 304.231 78.440,304.612 78.800,304.963 78.800 C 305.313 78.800,305.960 79.160,306.400 79.600 C 306.840 80.040,307.560 80.400,308.000 80.400 C 308.533 80.400,308.800 80.667,308.800 81.200 C 308.800 81.644,309.067 82.000,309.400 82.000 C 309.730 82.000,310.000 82.287,310.000 82.637 C 310.000 82.988,310.343 83.365,310.763 83.474 C 311.183 83.584,311.616 84.017,311.726 84.437 C 311.835 84.857,312.212 85.200,312.563 85.200 C 312.913 85.200,313.200 85.487,313.200 85.837 C 313.200 86.188,313.560 86.569,314.000 86.684 C 314.440 86.799,314.800 87.159,314.800 87.484 C 314.800 87.809,315.160 88.169,315.600 88.284 C 316.040 88.399,316.400 88.759,316.400 89.084 C 316.400 89.409,316.760 89.769,317.200 89.884 C 317.640 89.999,318.000 90.359,318.000 90.684 C 318.000 91.009,318.360 91.369,318.800 91.484 C 319.240 91.599,319.600 91.899,319.600 92.150 C 319.600 92.402,319.960 92.832,320.400 93.107 C 320.865 93.397,321.200 94.040,321.200 94.641 C 321.200 95.338,321.460 95.743,322.000 95.884 C 322.443 96.000,322.800 96.430,322.800 96.847 C 322.800 97.333,323.083 97.600,323.600 97.600 C 324.133 97.600,324.400 97.867,324.400 98.400 C 324.400 98.840,324.658 99.200,324.973 99.200 C 325.288 99.200,325.660 99.560,325.800 100.000 C 325.940 100.440,326.312 100.800,326.627 100.800 C 326.942 100.800,327.200 101.160,327.200 101.600 C 327.200 102.040,327.560 102.760,328.000 103.200 C 328.440 103.640,328.800 104.170,328.800 104.377 C 328.800 104.585,329.127 104.990,329.526 105.277 C 329.926 105.565,330.370 106.115,330.514 106.500 C 330.657 106.885,331.051 107.200,331.387 107.200 C 331.806 107.200,332.000 107.593,332.000 108.437 C 332.000 109.338,332.217 109.732,332.800 109.884 C 333.243 110.000,333.600 110.430,333.600 110.847 C 333.600 111.333,333.883 111.600,334.400 111.600 C 335.052 111.600,335.200 111.867,335.200 113.037 C 335.200 114.138,335.387 114.524,336.000 114.684 C 336.443 114.800,336.800 115.230,336.800 115.647 C 336.800 116.133,337.083 116.400,337.600 116.400 C 338.267 116.400,338.400 116.667,338.400 118.000 C 338.400 119.333,338.533 119.600,339.200 119.600 C 339.842 119.600,340.000 119.867,340.000 120.953 C 340.000 121.970,340.199 122.359,340.800 122.516 C 341.385 122.669,341.600 123.062,341.600 123.975 C 341.600 124.678,341.845 125.319,342.161 125.440 C 342.469 125.559,342.839 126.282,342.983 127.049 C 343.127 127.815,343.487 128.535,343.783 128.649 C 344.079 128.762,344.434 129.456,344.572 130.189 C 344.709 130.923,345.087 131.624,345.411 131.749 C 345.750 131.879,346.000 132.488,346.000 133.184 C 346.000 133.960,346.287 134.572,346.800 134.893 C 347.342 135.231,347.600 135.826,347.600 136.734 C 347.600 137.738,347.801 138.127,348.400 138.284 C 349.027 138.448,349.200 138.830,349.200 140.047 C 349.200 141.067,349.475 141.875,350.000 142.400 C 350.495 142.895,350.800 143.733,350.800 144.600 C 350.800 145.733,350.952 146.000,351.600 146.000 C 352.311 146.000,352.400 146.267,352.400 148.400 C 352.400 150.533,352.489 150.800,353.200 150.800 C 353.909 150.800,354.000 151.067,354.000 153.138 C 354.000 154.968,354.174 155.633,354.800 156.200 C 355.426 156.767,355.600 157.432,355.600 159.262 C 355.600 161.333,355.691 161.600,356.400 161.600 C 357.140 161.600,357.200 161.867,357.200 165.180 C 357.200 167.887,357.341 168.839,357.778 169.084 C 358.184 169.311,358.442 170.541,358.643 173.197 C 358.800 175.281,359.145 177.202,359.410 177.467 C 359.744 177.802,359.948 180.764,360.082 187.233 C 360.247 195.277,360.362 196.583,360.936 197.003 C 361.880 197.693,361.882 202.305,360.939 202.995 C 360.368 203.412,360.251 204.719,360.084 212.536 C 359.935 219.508,359.765 221.697,359.345 222.046 C 359.042 222.297,358.800 223.250,358.800 224.190 C 358.800 227.681,358.301 230.800,357.743 230.800 C 357.324 230.800,357.200 231.666,357.200 234.600 C 357.200 238.133,357.144 238.400,356.400 238.400 C 355.697 238.400,355.600 238.667,355.600 240.600 C 355.600 242.267,355.406 242.994,354.800 243.600 C 354.178 244.222,354.000 244.933,354.000 246.800 C 354.000 248.933,353.911 249.200,353.200 249.200 C 352.489 249.200,352.400 249.467,352.400 251.600 C 352.400 253.733,352.311 254.000,351.600 254.000 C 350.933 254.000,350.800 254.267,350.800 255.600 C 350.800 256.701,350.626 257.200,350.243 257.200 C 349.528 257.200,349.200 258.077,349.200 259.986 C 349.200 261.170,349.023 261.553,348.400 261.716 C 347.787 261.876,347.600 262.262,347.600 263.363 C 347.600 264.325,347.416 264.800,347.043 264.800 C 346.405 264.800,346.000 265.650,346.000 266.990 C 346.000 267.498,345.740 268.014,345.422 268.136 C 345.104 268.258,344.724 268.997,344.578 269.779 C 344.431 270.561,344.077 271.200,343.791 271.200 C 343.495 271.200,343.153 271.892,343.000 272.800 C 342.834 273.784,342.512 274.400,342.165 274.400 C 341.788 274.400,341.600 274.857,341.600 275.773 C 341.600 276.795,341.395 277.211,340.800 277.400 C 340.205 277.589,340.000 278.005,340.000 279.027 C 340.000 280.133,339.845 280.400,339.200 280.400 C 338.667 280.400,338.400 280.667,338.400 281.200 C 338.400 281.640,338.040 282.360,337.600 282.800 C 337.160 283.240,336.800 283.960,336.800 284.400 C 336.800 284.933,336.533 285.200,336.000 285.200 C 335.333 285.200,335.200 285.467,335.200 286.800 C 335.200 288.133,335.067 288.400,334.400 288.400 C 333.867 288.400,333.600 288.667,333.600 289.200 C 333.600 289.733,333.333 290.000,332.800 290.000 C 332.180 290.000,332.000 290.267,332.000 291.186 C 332.000 291.962,331.724 292.520,331.200 292.800 C 330.760 293.035,330.400 293.492,330.400 293.814 C 330.400 294.136,330.126 294.400,329.790 294.400 C 329.455 294.400,329.009 294.850,328.800 295.400 C 328.591 295.950,328.250 296.400,328.042 296.400 C 327.834 296.400,327.545 296.941,327.399 297.603 C 327.254 298.265,326.790 298.991,326.367 299.217 C 325.945 299.443,325.600 299.892,325.600 300.214 C 325.600 300.536,325.330 300.800,325.000 300.800 C 324.667 300.800,324.400 301.156,324.400 301.600 C 324.400 302.133,324.133 302.400,323.600 302.400 C 323.067 302.400,322.800 302.667,322.800 303.200 C 322.800 303.733,322.533 304.000,322.000 304.000 C 321.467 304.000,321.200 304.267,321.200 304.800 C 321.200 305.265,320.933 305.600,320.563 305.600 C 320.212 305.600,319.831 305.960,319.716 306.400 C 319.601 306.840,319.339 307.200,319.133 307.200 C 318.927 307.200,318.496 307.830,318.174 308.600 C 317.852 309.370,317.343 310.000,317.041 310.000 C 316.740 310.000,316.399 310.360,316.284 310.800 C 316.169 311.240,315.788 311.600,315.437 311.600 C 315.067 311.600,314.800 311.935,314.800 312.400 C 314.800 312.933,314.533 313.200,314.000 313.200 C 313.467 313.200,313.200 313.467,313.200 314.000 C 313.200 314.533,312.933 314.800,312.400 314.800 C 311.950 314.800,311.600 315.067,311.600 315.410 C 311.600 315.745,311.148 316.192,310.595 316.402 C 310.042 316.612,309.008 317.418,308.298 318.192 C 307.587 318.966,306.689 319.600,306.303 319.600 C 305.867 319.600,305.600 319.904,305.600 320.400 C 305.600 320.933,305.333 321.200,304.800 321.200 C 304.267 321.200,304.000 321.467,304.000 322.000 C 304.000 322.533,303.733 322.800,303.200 322.800 C 302.667 322.800,302.400 323.067,302.400 323.600 C 302.400 324.133,302.133 324.400,301.600 324.400 C 301.160 324.400,300.800 324.650,300.800 324.957 C 300.800 325.263,300.306 325.637,299.703 325.789 C 299.100 325.940,298.335 326.311,298.003 326.613 C 296.057 328.386,295.677 328.685,295.069 328.918 C 294.701 329.059,294.400 329.451,294.400 329.787 C 294.400 330.133,294.052 330.400,293.600 330.400 C 293.160 330.400,292.440 330.760,292.000 331.200 C 291.560 331.640,290.930 332.000,290.600 332.000 C 290.267 332.000,290.000 332.356,290.000 332.800 C 290.000 333.333,289.733 333.600,289.200 333.600 C 288.760 333.600,288.040 333.960,287.600 334.400 C 287.160 334.840,286.440 335.200,286.000 335.200 C 285.467 335.200,285.200 335.467,285.200 336.000 C 285.200 336.645,284.933 336.800,283.827 336.800 C 282.805 336.800,282.389 337.005,282.200 337.600 C 282.060 338.040,281.642 338.400,281.269 338.400 C 280.897 338.400,280.368 338.760,280.093 339.200 C 279.803 339.665,279.160 340.000,278.559 340.000 C 277.862 340.000,277.457 340.260,277.316 340.800 C 277.159 341.401,276.770 341.600,275.753 341.600 C 274.873 341.600,274.400 341.792,274.400 342.149 C 274.400 342.480,273.765 342.799,272.800 342.954 C 271.765 343.119,271.200 343.420,271.200 343.805 C 271.200 344.221,270.769 344.400,269.763 344.400 C 268.662 344.400,268.276 344.587,268.116 345.200 C 267.957 345.806,267.570 346.000,266.516 346.000 C 265.462 346.000,265.075 346.194,264.916 346.800 C 264.752 347.426,264.370 347.600,263.157 347.600 C 262.040 347.600,261.467 347.824,261.107 348.400 C 260.735 348.997,260.174 349.200,258.904 349.200 C 257.467 349.200,257.200 349.325,257.200 350.000 C 257.200 350.705,256.933 350.800,254.963 350.800 C 253.062 350.800,252.694 350.920,252.516 351.600 C 252.339 352.277,251.970 352.400,250.116 352.400 C 248.262 352.400,247.893 352.523,247.716 353.200 C 247.540 353.872,247.170 354.000,245.400 354.000 C 243.630 354.000,243.260 354.128,243.084 354.800 C 242.898 355.511,242.538 355.600,239.837 355.600 C 237.067 355.600,236.800 355.670,236.800 356.400 C 236.800 357.140,236.533 357.200,233.220 357.200 C 230.426 357.200,229.565 357.334,229.298 357.810 C 229.036 358.279,227.868 358.479,224.278 358.672 C 220.747 358.861,219.600 359.054,219.600 359.461 C 219.600 359.906,216.166 360.000,200.000 360.000 C 183.834 360.000,180.400 359.906,180.400 359.461 C 180.400 359.054,179.253 358.861,175.722 358.672 C 172.132 358.479,170.964 358.279,170.702 357.810 C 170.435 357.334,169.574 357.200,166.780 357.200 C 163.467 357.200,163.200 357.140,163.200 356.400 C 163.200 355.672,162.933 355.600,160.247 355.600 C 157.630 355.600,157.269 355.509,157.084 354.800 C 156.907 354.123,156.538 354.000,154.684 354.000 C 152.830 354.000,152.461 353.877,152.284 353.200 C 152.107 352.523,151.738 352.400,149.884 352.400 C 148.030 352.400,147.661 352.277,147.484 351.600 C 147.306 350.920,146.938 350.800,145.037 350.800 C 143.067 350.800,142.800 350.705,142.800 350.000 C 142.800 349.333,142.533 349.200,141.200 349.200 C 140.099 349.200,139.600 349.026,139.600 348.643 C 139.600 347.928,138.723 347.600,136.814 347.600 C 135.630 347.600,135.247 347.423,135.084 346.800 C 134.925 346.194,134.538 346.000,133.484 346.000 C 132.430 346.000,132.043 345.806,131.884 345.200 C 131.724 344.587,131.338 344.400,130.237 344.400 C 129.275 344.400,128.800 344.216,128.800 343.843 C 128.800 343.198,127.948 342.800,126.567 342.800 C 125.974 342.800,125.600 342.568,125.600 342.200 C 125.600 341.781,125.178 341.600,124.200 341.600 C 123.067 341.600,122.800 341.448,122.800 340.800 C 122.800 340.236,122.533 340.000,121.896 340.000 C 121.399 340.000,120.768 339.640,120.493 339.200 C 120.218 338.760,119.566 338.400,119.043 338.400 C 118.430 338.400,118.019 338.117,117.884 337.600 C 117.724 336.987,117.338 336.800,116.237 336.800 C 115.067 336.800,114.800 336.652,114.800 336.000 C 114.800 335.503,114.533 335.200,114.096 335.200 C 113.709 335.200,113.168 334.840,112.893 334.400 C 112.574 333.890,111.960 333.600,111.197 333.600 C 110.267 333.600,110.000 333.422,110.000 332.800 C 110.000 332.283,109.733 332.000,109.247 332.000 C 108.830 332.000,108.400 331.643,108.284 331.200 C 108.132 330.617,107.738 330.400,106.837 330.400 C 105.972 330.400,105.600 330.208,105.600 329.763 C 105.600 329.412,105.240 329.031,104.800 328.916 C 104.360 328.801,104.000 328.458,104.000 328.153 C 104.000 327.849,103.827 327.600,103.616 327.600 C 103.404 327.600,102.909 327.261,102.516 326.847 C 102.122 326.432,101.215 325.968,100.500 325.815 C 99.774 325.659,99.200 325.286,99.200 324.968 C 99.200 324.656,98.840 324.400,98.400 324.400 C 97.867 324.400,97.600 324.133,97.600 323.600 C 97.600 323.067,97.333 322.800,96.800 322.800 C 96.267 322.800,96.000 322.533,96.000 322.000 C 96.000 321.467,95.733 321.200,95.200 321.200 C 94.667 321.200,94.400 320.933,94.400 320.400 C 94.400 319.867,94.133 319.600,93.600 319.600 C 93.067 319.600,92.800 319.333,92.800 318.800 C 92.800 318.283,92.533 318.000,92.047 318.000 C 91.630 318.000,91.200 317.643,91.084 317.200 C 90.969 316.760,90.609 316.400,90.284 316.400 C 89.959 316.400,89.599 316.040,89.484 315.600 C 89.369 315.160,88.988 314.800,88.637 314.800 C 88.287 314.800,88.000 314.530,88.000 314.200 C 88.000 313.870,87.713 313.600,87.363 313.600 C 87.012 313.600,86.631 313.240,86.516 312.800 C 86.401 312.360,86.079 312.000,85.800 312.000 C 85.521 312.000,85.199 311.640,85.084 311.200 C 84.969 310.760,84.609 310.400,84.284 310.400 C 83.959 310.400,83.599 310.040,83.484 309.600 C 83.369 309.160,82.988 308.800,82.637 308.800 C 82.267 308.800,82.000 308.465,82.000 308.000 C 82.000 307.467,81.733 307.200,81.200 307.200 C 80.667 307.200,80.400 306.933,80.400 306.400 C 80.400 305.867,80.133 305.600,79.600 305.600 C 79.067 305.600,78.800 305.333,78.800 304.800 C 78.800 304.267,78.533 304.000,78.000 304.000 C 77.467 304.000,77.200 303.733,77.200 303.200 C 77.200 302.667,76.933 302.400,76.400 302.400 C 75.867 302.400,75.600 302.133,75.600 301.600 C 75.600 301.160,75.350 300.800,75.045 300.800 C 74.725 300.800,74.376 300.197,74.222 299.379 C 74.076 298.597,73.703 297.861,73.393 297.742 C 73.084 297.623,72.721 297.183,72.588 296.763 C 72.455 296.343,72.109 296.000,71.820 296.000 C 71.530 296.000,71.199 295.640,71.084 295.200 C 70.969 294.760,70.588 294.400,70.237 294.400 C 69.792 294.400,69.600 294.028,69.600 293.163 C 69.600 292.262,69.383 291.868,68.800 291.716 C 68.357 291.600,68.000 291.170,68.000 290.753 C 68.000 290.267,67.717 290.000,67.200 290.000 C 66.621 290.000,66.400 289.733,66.400 289.033 C 66.400 287.652,66.002 286.800,65.357 286.800 C 65.051 286.800,64.800 286.440,64.800 286.000 C 64.800 285.467,64.533 285.200,64.000 285.200 C 63.348 285.200,63.200 284.933,63.200 283.763 C 63.200 282.662,63.013 282.276,62.400 282.116 C 61.955 282.000,61.600 281.570,61.600 281.149 C 61.600 280.733,61.240 280.084,60.800 279.707 C 60.360 279.330,60.000 278.612,60.000 278.111 C 60.000 277.467,59.766 277.200,59.200 277.200 C 58.552 277.200,58.400 276.933,58.400 275.800 C 58.400 274.822,58.219 274.400,57.800 274.400 C 57.378 274.400,57.200 273.974,57.200 272.963 C 57.200 271.862,57.013 271.476,56.400 271.316 C 55.794 271.157,55.600 270.770,55.600 269.716 C 55.600 268.662,55.406 268.275,54.800 268.116 C 54.194 267.957,54.000 267.570,54.000 266.516 C 54.000 265.462,53.806 265.075,53.200 264.916 C 52.616 264.763,52.399 264.368,52.395 263.453 C 52.386 261.597,51.978 260.400,51.353 260.400 C 50.974 260.400,50.800 259.896,50.800 258.800 C 50.800 257.467,50.667 257.200,50.000 257.200 C 49.295 257.200,49.200 256.933,49.200 254.963 C 49.200 253.062,49.080 252.694,48.400 252.516 C 47.723 252.339,47.600 251.970,47.600 250.116 C 47.600 248.262,47.477 247.893,46.800 247.716 C 46.128 247.540,46.000 247.170,46.000 245.400 C 46.000 243.630,45.872 243.260,45.200 243.084 C 44.489 242.898,44.400 242.538,44.400 239.837 C 44.400 237.067,44.330 236.800,43.600 236.800 C 42.864 236.800,42.800 236.533,42.800 233.449 C 42.800 231.076,42.638 229.963,42.244 229.636 C 41.849 229.309,41.644 227.889,41.536 224.750 C 41.412 221.131,41.259 220.232,40.692 219.818 C 39.619 219.033,39.626 180.562,40.699 179.777 C 41.283 179.350,41.423 178.466,41.542 174.433 C 41.654 170.634,41.804 169.600,42.242 169.600 C 42.672 169.600,42.800 168.877,42.800 166.447 C 42.800 163.630,42.885 163.271,43.600 163.084 C 44.306 162.899,44.400 162.538,44.400 160.000 C 44.400 157.462,44.494 157.101,45.200 156.916 C 45.886 156.737,46.000 156.370,46.000 154.353 C 46.000 152.608,46.144 152.000,46.557 152.000 C 47.277 152.000,47.600 151.122,47.600 149.167 C 47.600 148.133,47.872 147.328,48.400 146.800 C 48.933 146.267,49.200 145.467,49.200 144.400 C 49.200 143.067,49.333 142.800,50.000 142.800 C 50.701 142.800,50.800 142.533,50.800 140.647 C 50.800 138.830,50.925 138.461,51.600 138.284 C 52.206 138.125,52.400 137.738,52.400 136.684 C 52.400 135.630,52.594 135.243,53.200 135.084 C 53.813 134.924,54.000 134.538,54.000 133.437 C 54.000 132.431,54.179 132.000,54.595 132.000 C 54.980 132.000,55.281 131.435,55.446 130.400 C 55.591 129.497,55.926 128.800,56.216 128.800 C 56.504 128.800,56.849 128.096,57.000 127.200 C 57.166 126.216,57.488 125.600,57.835 125.600 C 58.210 125.600,58.400 125.146,58.400 124.247 C 58.400 123.230,58.599 122.841,59.200 122.684 C 59.813 122.524,60.000 122.138,60.000 121.037 C 60.000 119.867,60.148 119.600,60.800 119.600 C 61.333 119.600,61.600 119.333,61.600 118.800 C 61.600 118.360,61.960 117.640,62.400 117.200 C 62.840 116.760,63.200 116.040,63.200 115.600 C 63.200 115.067,63.467 114.800,64.000 114.800 C 64.667 114.800,64.800 114.533,64.800 113.200 C 64.800 111.867,64.933 111.600,65.600 111.600 C 66.117 111.600,66.400 111.333,66.400 110.847 C 66.400 110.430,66.757 110.000,67.200 109.884 C 67.774 109.734,68.000 109.338,68.000 108.484 C 68.000 107.630,68.226 107.234,68.800 107.084 C 69.240 106.969,69.600 106.600,69.600 106.264 C 69.600 105.929,69.960 105.540,70.400 105.400 C 70.840 105.260,71.200 104.798,71.200 104.373 C 71.200 103.948,71.462 103.600,71.782 103.600 C 72.127 103.600,72.468 103.046,72.619 102.237 C 72.782 101.368,73.152 100.801,73.638 100.674 C 74.057 100.565,74.400 100.188,74.400 99.837 C 74.400 99.487,74.670 99.200,75.000 99.200 C 75.333 99.200,75.600 98.844,75.600 98.400 C 75.600 97.867,75.867 97.600,76.400 97.600 C 76.917 97.600,77.200 97.333,77.200 96.847 C 77.200 96.430,77.557 96.000,78.000 95.884 C 78.440 95.769,78.800 95.388,78.800 95.037 C 78.800 94.687,79.160 94.040,79.600 93.600 C 80.040 93.160,80.400 92.530,80.400 92.200 C 80.400 91.867,80.756 91.600,81.200 91.600 C 81.717 91.600,82.000 91.333,82.000 90.847 C 82.000 90.430,82.357 90.000,82.800 89.884 C 83.240 89.769,83.600 89.388,83.600 89.037 C 83.600 88.667,83.935 88.400,84.400 88.400 C 84.933 88.400,85.200 88.133,85.200 87.600 C 85.200 87.067,85.467 86.800,86.000 86.800 C 86.517 86.800,86.800 86.533,86.800 86.047 C 86.800 85.630,87.157 85.200,87.600 85.084 C 88.040 84.969,88.400 84.609,88.400 84.284 C 88.400 83.959,88.760 83.599,89.200 83.484 C 89.640 83.369,90.000 82.988,90.000 82.637 C 90.000 82.267,90.335 82.000,90.800 82.000 C 91.333 82.000,91.600 81.733,91.600 81.200 C 91.600 80.756,91.867 80.400,92.200 80.400 C 92.530 80.400,93.160 80.040,93.600 79.600 C 94.040 79.160,94.687 78.800,95.037 78.800 C 95.388 78.800,95.769 78.440,95.884 78.000 C 96.000 77.557,96.430 77.200,96.847 77.200 C 97.333 77.200,97.600 76.917,97.600 76.400 C 97.600 75.867,97.867 75.600,98.400 75.600 C 98.844 75.600,99.200 75.333,99.200 75.000 C 99.200 74.670,99.487 74.400,99.837 74.400 C 100.188 74.400,100.565 74.057,100.674 73.638 C 100.800 73.158,101.364 72.783,102.198 72.627 C 102.927 72.490,103.624 72.113,103.749 71.789 C 103.873 71.465,104.238 71.200,104.560 71.200 C 104.883 71.200,105.260 70.840,105.400 70.400 C 105.540 69.960,105.929 69.600,106.264 69.600 C 106.600 69.600,106.969 69.240,107.084 68.800 C 107.241 68.199,107.630 68.000,108.647 68.000 C 109.733 68.000,110.000 67.842,110.000 67.200 C 110.000 66.667,110.267 66.400,110.800 66.400 C 111.333 66.400,111.600 66.133,111.600 65.600 C 111.600 64.933,111.867 64.800,113.200 64.800 C 114.533 64.800,114.800 64.667,114.800 64.000 C 114.800 63.467,115.067 63.200,115.600 63.200 C 116.040 63.200,116.760 62.840,117.200 62.400 C 117.640 61.960,118.360 61.600,118.800 61.600 C 119.333 61.600,119.600 61.333,119.600 60.800 C 119.600 60.148,119.867 60.000,121.037 60.000 C 122.138 60.000,122.524 59.813,122.684 59.200 C 122.841 58.599,123.230 58.400,124.247 58.400 C 125.146 58.400,125.600 58.210,125.600 57.835 C 125.600 57.488,126.216 57.166,127.200 57.000 C 128.096 56.849,128.800 56.504,128.800 56.216 C 128.800 55.926,129.497 55.591,130.400 55.446 C 131.435 55.281,132.000 54.980,132.000 54.595 C 132.000 54.179,132.431 54.000,133.437 54.000 C 134.538 54.000,134.924 53.813,135.084 53.200 C 135.243 52.594,135.630 52.400,136.684 52.400 C 137.738 52.400,138.125 52.206,138.284 51.600 C 138.458 50.935,138.830 50.800,140.484 50.800 C 142.138 50.800,142.510 50.665,142.684 50.000 C 142.845 49.385,143.230 49.200,144.350 49.200 C 145.374 49.200,145.956 48.962,146.307 48.400 C 146.693 47.782,147.240 47.600,148.707 47.600 C 150.174 47.600,150.721 47.418,151.107 46.800 C 151.518 46.142,152.040 46.000,154.041 46.000 C 156.138 46.000,156.504 45.889,156.684 45.200 C 156.862 44.519,157.230 44.400,159.150 44.400 C 160.974 44.400,161.503 44.246,161.907 43.600 C 162.343 42.903,162.840 42.800,165.784 42.800 C 168.239 42.800,169.248 42.649,169.480 42.246 C 169.710 41.849,170.971 41.647,173.944 41.530 C 177.164 41.404,178.193 41.224,178.560 40.722 C 178.968 40.165,180.372 40.057,188.773 39.938 C 197.524 39.814,198.558 39.729,198.955 39.100 C 199.197 38.715,199.647 38.400,199.954 38.400 C 200.261 38.400,200.742 38.715,201.023 39.100 M136.916 190.800 C 136.800 191.243,136.370 191.600,135.953 191.600 C 135.482 191.600,135.200 191.882,135.200 192.353 C 135.200 192.770,134.843 193.200,134.400 193.316 C 133.642 193.514,133.600 193.862,133.600 200.000 C 133.600 206.138,133.642 206.486,134.400 206.684 C 134.843 206.800,135.200 207.230,135.200 207.647 C 135.200 208.118,135.482 208.400,135.953 208.400 C 136.370 208.400,136.800 208.757,136.916 209.200 C 137.124 209.996,137.462 210.000,203.136 210.000 C 268.795 210.000,269.147 209.996,269.400 209.200 C 269.540 208.760,270.002 208.400,270.427 208.400 C 270.933 208.400,271.200 208.124,271.200 207.600 C 271.200 207.160,271.447 206.800,271.750 206.800 C 272.533 206.800,272.801 204.970,272.795 199.650 C 272.788 194.508,272.577 193.200,271.753 193.200 C 271.449 193.200,271.200 192.840,271.200 192.400 C 271.200 191.876,270.933 191.600,270.427 191.600 C 270.002 191.600,269.540 191.240,269.400 190.800 C 268.999 189.536,137.247 189.536,136.916 190.800 " stroke="none" fill="#040404" fill-rule="evenodd"></path><path id="path1" d="" stroke="none" fill="#080404" fill-rule="evenodd"></path><path id="path2" d="" stroke="none" fill="#080404" fill-rule="evenodd"></path><path id="path3" d="" stroke="none" fill="#080404" fill-rule="evenodd"></path><path id="path4" d="" stroke="none" fill="#080404" fill-rule="evenodd"></path></g></svg>