<svg id="svg" version="1.1" xmlns="http://www.w3.org/2000/svg" xmlns:xlink="http://www.w3.org/1999/xlink" width="400" height="400" viewBox="0, 0, 400,400"><g id="svgg"><path id="path0" d="M147.454 29.491 C 146.763 29.594,146.231 29.960,146.112 30.414 C 146.004 30.827,145.300 31.369,144.548 31.617 C 142.532 32.282,140.945 33.795,140.191 35.767 L 139.525 37.511 131.121 37.663 C 121.103 37.844,121.204 37.796,121.194 42.344 C 121.185 46.049,121.530 45.875,113.800 46.077 C 104.887 46.310,104.914 46.294,104.510 51.500 L 104.285 54.400 100.622 54.400 C 96.046 54.400,96.000 54.444,96.000 58.827 L 96.000 62.293 91.960 62.488 C 89.738 62.595,87.803 62.863,87.660 63.083 C 87.517 63.303,86.475 63.703,85.344 63.971 C 82.342 64.683,80.400 66.951,80.400 69.744 C 80.400 70.886,79.950 71.097,76.471 71.590 C 72.955 72.088,72.085 72.971,71.577 76.561 C 71.081 80.060,70.730 80.649,68.939 80.985 C 67.005 81.348,65.024 83.352,64.356 85.620 C 64.068 86.599,63.564 87.604,63.236 87.853 C 62.806 88.180,62.595 89.370,62.473 92.153 L 62.305 96.000 58.832 96.000 C 54.444 96.000,54.400 96.045,54.400 100.621 L 54.400 104.283 51.459 104.531 C 46.382 104.960,46.356 105.007,46.092 114.000 C 45.871 121.505,46.038 121.185,42.344 121.194 C 37.796 121.204,37.844 121.103,37.663 131.121 L 37.511 139.525 35.767 140.191 C 33.795 140.945,32.282 142.532,31.617 144.548 C 31.369 145.300,30.841 146.001,30.444 146.104 C 29.236 146.420,29.209 147.586,29.209 200.000 C 29.209 252.222,29.239 253.581,30.420 253.889 C 30.805 253.990,31.420 254.861,31.788 255.825 C 32.544 257.804,34.130 259.317,36.145 259.982 L 37.510 260.432 37.662 268.857 C 37.844 278.891,37.671 278.546,42.742 278.995 L 45.900 279.274 46.077 285.937 C 46.308 294.620,46.469 294.959,50.574 295.398 C 54.622 295.831,54.400 295.591,54.400 299.547 C 54.400 303.934,54.466 304.000,58.832 304.000 L 62.305 304.000 62.473 307.847 C 62.595 310.630,62.806 311.820,63.236 312.147 C 63.564 312.396,64.068 313.401,64.356 314.380 C 65.024 316.648,67.005 318.652,68.939 319.015 C 70.730 319.351,71.081 319.940,71.577 323.439 C 72.085 327.029,72.955 327.912,76.471 328.410 C 79.950 328.903,80.400 329.114,80.400 330.256 C 80.400 333.043,82.339 335.314,85.334 336.032 C 86.459 336.302,87.622 336.765,87.919 337.062 C 88.294 337.437,89.601 337.600,92.229 337.600 L 96.000 337.600 96.000 341.151 C 96.000 345.613,96.141 345.753,100.813 345.938 L 104.304 346.076 104.581 348.885 C 104.884 351.961,105.918 353.551,107.682 353.653 C 108.187 353.682,111.390 353.817,114.800 353.953 L 121.000 354.200 121.214 357.494 C 121.524 362.251,121.727 362.336,132.846 362.376 L 139.491 362.400 140.174 364.189 C 140.943 366.202,142.519 367.713,144.548 368.383 C 145.300 368.631,146.001 369.159,146.104 369.556 C 146.420 370.765,147.579 370.791,200.250 370.796 C 252.615 370.800,253.576 370.778,253.895 369.556 C 253.999 369.159,254.700 368.631,255.452 368.383 C 257.481 367.713,259.057 366.202,259.826 364.189 L 260.509 362.400 267.154 362.376 C 278.260 362.336,278.327 362.308,278.932 357.426 L 279.356 354.000 284.178 353.966 C 293.991 353.898,294.716 353.584,295.387 349.111 L 295.824 346.200 299.200 346.082 C 303.780 345.923,304.000 345.696,304.000 341.138 L 304.000 337.600 307.973 337.600 C 311.442 337.600,311.975 337.509,312.174 336.883 C 312.313 336.445,313.122 335.973,314.253 335.670 C 316.598 335.043,318.640 333.060,319.018 331.043 C 319.342 329.317,320.048 328.922,323.770 328.384 C 326.637 327.969,327.930 326.867,328.236 324.578 C 328.732 320.871,329.249 319.600,330.265 319.600 C 333.050 319.600,335.319 317.653,336.027 314.656 C 336.295 313.525,336.758 312.456,337.057 312.280 C 337.457 312.045,337.600 310.910,337.600 307.980 L 337.600 304.000 341.138 304.000 C 345.696 304.000,345.923 303.780,346.082 299.200 L 346.200 295.824 349.111 295.387 C 353.593 294.714,353.915 293.983,353.971 284.359 L 354.000 279.317 357.020 279.062 C 362.235 278.621,362.070 278.950,362.307 268.537 L 362.491 260.474 364.234 259.808 C 366.205 259.055,367.718 257.467,368.383 255.452 C 368.631 254.700,369.172 253.996,369.586 253.888 C 370.821 253.565,370.843 252.504,370.719 198.542 C 370.612 152.187,370.535 146.808,369.969 146.142 C 369.622 145.734,369.110 144.601,368.830 143.624 C 368.192 141.393,366.547 139.833,364.212 139.245 L 362.400 138.788 362.383 132.294 C 362.354 121.773,362.244 121.523,357.494 121.214 L 354.200 121.000 353.971 114.000 C 353.674 104.928,353.677 104.935,348.738 104.516 L 346.076 104.290 345.938 100.806 C 345.753 96.142,345.612 96.000,341.151 96.000 L 337.600 96.000 337.600 92.229 C 337.600 89.601,337.437 88.294,337.062 87.919 C 336.765 87.622,336.302 86.459,336.032 85.334 C 335.314 82.339,333.043 80.400,330.256 80.400 C 329.114 80.400,328.903 79.950,328.410 76.471 C 327.916 72.980,327.020 72.084,323.529 71.590 C 320.050 71.097,319.600 70.886,319.600 69.744 C 319.600 66.951,317.658 64.683,314.656 63.971 C 313.525 63.703,312.483 63.303,312.340 63.083 C 312.197 62.863,310.262 62.595,308.040 62.488 L 304.000 62.293 304.000 58.827 C 304.000 54.466,303.933 54.400,299.547 54.400 C 295.591 54.400,295.831 54.622,295.398 50.574 C 294.959 46.472,294.616 46.308,285.972 46.078 L 279.344 45.901 278.925 42.524 C 278.326 37.683,278.237 37.645,267.354 37.617 L 260.509 37.600 259.826 35.811 C 259.057 33.798,257.481 32.287,255.452 31.617 C 254.700 31.369,253.999 30.841,253.896 30.444 C 253.772 29.970,253.174 29.634,252.153 29.465 C 250.464 29.186,149.330 29.211,147.454 29.491 M270.800 199.948 L 270.800 203.895 269.300 204.143 C 267.366 204.463,131.292 204.467,130.100 204.148 C 129.244 203.918,129.200 203.715,129.200 199.953 L 129.200 196.000 200.000 196.000 L 270.800 196.000 270.800 199.948 " stroke="none" fill="#040404" fill-rule="evenodd"></path><path id="path1" d="" stroke="none" fill="#080404" fill-rule="evenodd"></path><path id="path2" d="" stroke="none" fill="#080404" fill-rule="evenodd"></path><path id="path3" d="" stroke="none" fill="#080404" fill-rule="evenodd"></path><path id="path4" d="" stroke="none" fill="#080404" fill-rule="evenodd"></path></g></svg>