<svg id="svg" version="1.1" xmlns="http://www.w3.org/2000/svg" xmlns:xlink="http://www.w3.org/1999/xlink" width="400" height="400" viewBox="0, 0, 400,400"><g id="svgg"><path id="path0" d="M12.850 2.101 C 11.887 3.224,10.807 4.786,10.450 5.572 C 9.466 7.735,9.231 357.474,10.209 364.000 C 12.676 380.464,23.297 392.407,40.267 397.800 C 42.064 398.371,43.751 399.100,44.016 399.419 C 44.436 399.925,66.437 399.999,214.949 399.990 L 385.400 399.980 387.484 397.532 C 390.705 393.748,390.455 409.798,390.321 215.371 L 390.200 39.742 389.126 38.119 C 387.035 34.959,386.249 34.800,372.733 34.800 C 360.344 34.800,358.785 34.617,357.892 33.058 C 357.544 32.452,357.340 28.497,357.195 19.600 C 356.966 5.487,356.944 5.368,354.025 2.330 C 353.131 1.400,352.400 0.495,352.400 0.319 C 352.400 0.144,276.395 0.013,183.500 0.029 L 14.600 0.059 12.850 2.101 M341.081 16.101 C 343.307 17.318,343.195 8.491,343.198 183.640 C 343.200 360.587,343.347 349.645,340.959 350.643 C 339.198 351.379,27.475 351.490,25.863 350.756 C 23.914 349.868,24.000 357.589,24.000 183.568 C 24.000 3.327,23.824 16.321,26.274 15.779 C 26.893 15.642,27.580 15.469,27.800 15.395 C 29.661 14.767,339.920 15.466,341.081 16.101 M46.983 35.747 C 42.707 37.738,42.724 37.565,42.878 77.699 L 43.000 109.400 44.000 111.400 C 46.107 115.614,51.889 116.637,54.886 113.326 C 56.972 111.021,56.989 110.843,57.126 89.423 C 57.260 68.573,57.311 68.000,59.040 68.000 C 60.645 68.000,61.438 68.628,63.471 71.505 C 64.518 72.987,66.922 76.180,68.814 78.600 C 70.705 81.020,73.409 84.620,74.822 86.600 C 76.236 88.580,79.014 92.298,80.996 94.862 C 82.978 97.427,86.130 101.634,88.000 104.213 C 95.274 114.241,96.665 115.422,100.858 115.118 C 102.867 114.973,103.411 114.753,104.597 113.603 C 107.090 111.186,107.000 112.638,107.000 75.000 L 107.000 40.600 106.000 38.621 C 104.174 35.007,100.007 33.948,96.260 36.144 C 92.876 38.127,93.026 37.069,92.800 60.486 C 92.577 83.579,92.601 83.389,90.090 81.982 C 88.870 81.299,83.261 74.462,79.480 69.050 C 78.116 67.097,75.200 63.203,73.000 60.397 C 70.800 57.591,67.514 53.249,65.698 50.748 C 57.004 38.775,55.371 36.843,53.015 35.746 C 50.490 34.570,49.510 34.570,46.983 35.747 M130.600 35.552 C 126.227 37.560,126.435 35.584,126.435 75.200 C 126.435 111.377,126.429 111.243,128.261 113.267 C 130.174 115.382,130.326 115.400,145.800 115.400 L 160.200 115.400 161.853 114.453 C 166.528 111.774,166.426 104.639,161.679 102.341 C 160.082 101.568,159.044 101.463,151.276 101.283 C 139.936 101.022,140.800 101.801,140.800 91.840 C 140.800 84.601,140.820 84.421,141.765 83.322 L 142.729 82.200 151.465 81.969 C 160.366 81.734,160.968 81.646,162.906 80.303 C 166.012 78.151,166.133 72.864,163.138 70.150 C 161.114 68.316,160.553 68.213,151.465 68.002 L 142.729 67.800 141.765 66.678 C 140.719 65.461,140.251 52.174,141.192 50.416 C 141.898 49.096,143.853 48.800,151.880 48.800 C 158.233 48.800,159.872 48.683,160.920 48.153 C 167.051 45.055,166.767 37.407,160.440 35.261 C 157.921 34.407,132.556 34.654,130.600 35.552 M180.388 35.700 C 176.839 37.493,175.880 40.443,177.148 45.669 C 177.592 47.501,178.326 50.620,178.779 52.600 C 180.037 58.104,182.582 68.453,183.991 73.800 C 184.687 76.440,185.950 81.300,186.798 84.600 C 187.646 87.900,188.784 92.310,189.328 94.400 C 189.872 96.490,190.982 101.034,191.796 104.497 C 193.365 111.172,194.110 112.768,196.369 114.290 C 199.013 116.073,203.466 115.294,205.643 112.669 C 206.039 112.191,208.019 106.850,210.044 100.800 C 214.394 87.798,214.897 86.550,215.914 86.227 C 217.762 85.641,218.347 86.505,220.619 93.185 C 227.917 114.639,228.252 115.202,233.726 115.199 C 237.606 115.196,239.365 113.171,241.195 106.600 C 243.058 99.908,245.238 91.082,246.978 83.181 C 247.638 80.183,250.176 69.971,251.944 63.200 C 252.604 60.670,253.705 56.440,254.389 53.800 C 255.073 51.160,255.881 48.190,256.185 47.200 C 258.590 39.348,254.825 33.470,248.485 35.177 C 244.412 36.274,243.933 37.202,240.635 50.400 C 239.178 56.230,237.709 61.990,237.371 63.200 C 237.033 64.410,236.225 67.455,235.576 69.966 C 232.933 80.196,231.510 79.900,227.409 68.267 C 222.030 53.010,221.620 52.400,216.739 52.400 C 211.575 52.400,209.213 56.381,204.596 72.872 C 203.550 76.607,201.150 78.468,199.673 76.688 C 199.193 76.110,196.340 65.006,194.204 55.400 C 191.287 42.288,190.293 39.140,188.459 37.218 C 186.124 34.770,183.285 34.236,180.388 35.700 M292.000 35.446 C 281.482 37.732,276.211 45.818,276.473 59.262 C 276.760 74.022,283.606 81.079,298.473 81.941 C 308.232 82.507,309.974 84.458,309.421 94.200 C 308.995 101.716,310.172 101.159,294.400 101.308 C 283.864 101.408,282.438 101.499,281.089 102.160 C 275.637 104.834,276.291 113.268,282.084 114.988 C 284.992 115.851,307.689 115.864,311.748 115.004 C 316.250 114.050,320.094 111.054,322.273 106.800 C 323.580 104.249,324.193 88.922,323.193 83.813 C 321.411 74.712,313.213 68.663,301.811 68.036 C 292.659 67.534,290.457 65.670,290.420 58.400 C 290.376 49.750,292.116 48.803,308.077 48.793 C 318.244 48.787,318.654 48.756,320.188 47.887 C 325.535 44.859,324.771 36.851,318.981 35.243 C 316.561 34.572,295.287 34.731,292.000 35.446 M373.949 49.242 C 374.646 49.485,375.393 50.013,375.608 50.416 C 375.862 50.890,376.000 109.494,376.000 216.751 L 376.000 382.355 375.035 383.478 L 374.069 384.600 210.135 384.600 C 54.831 384.600,46.066 384.563,43.650 383.895 C 35.133 381.542,25.382 372.109,26.571 367.374 C 27.156 365.042,15.255 365.200,190.502 365.200 L 351.430 365.200 353.192 364.300 C 355.267 363.240,356.316 361.928,356.817 359.769 C 357.032 358.842,357.185 295.465,357.190 204.789 C 357.199 67.103,357.263 51.288,357.818 50.496 C 358.926 48.914,370.441 48.019,373.949 49.242 M47.400 135.556 C 45.566 136.402,44.284 137.675,43.527 139.400 C 42.884 140.864,42.523 235.447,43.139 241.047 C 43.435 243.746,43.723 244.685,44.606 245.844 C 46.877 248.821,41.752 248.600,108.400 248.600 L 168.200 248.600 170.101 247.483 C 173.927 245.234,173.600 250.429,173.600 191.842 C 173.600 138.341,173.626 139.159,171.873 137.247 C 169.484 134.641,174.103 134.818,108.400 134.818 C 51.495 134.818,48.933 134.849,47.400 135.556 M205.793 135.355 C 200.539 137.655,200.258 145.132,205.321 147.900 C 206.840 148.732,306.977 149.214,309.983 148.405 C 315.688 146.868,317.002 139.296,312.135 136.000 L 310.659 135.000 258.829 134.913 C 216.605 134.843,206.776 134.924,205.793 135.355 M158.431 149.969 L 159.600 151.138 159.600 191.600 L 159.600 232.062 158.426 233.235 L 157.252 234.409 108.191 234.305 L 59.131 234.200 58.165 233.078 L 57.200 231.955 57.200 191.547 L 57.200 151.138 58.369 149.969 L 59.538 148.800 108.400 148.800 L 157.262 148.800 158.431 149.969 M208.400 167.959 C 201.172 168.753,198.925 177.940,205.186 181.100 L 206.970 182.000 258.298 182.000 C 314.758 182.000,311.117 182.167,313.487 179.468 C 317.523 174.871,314.338 168.544,307.683 167.938 C 303.947 167.597,211.512 167.617,208.400 167.959 M205.272 202.273 C 199.720 205.009,200.651 213.067,206.760 215.139 C 208.656 215.782,307.480 215.795,309.800 215.152 C 315.903 213.462,317.150 205.550,311.792 202.515 L 310.200 201.613 258.400 201.616 C 211.250 201.618,206.481 201.677,205.272 202.273 M205.572 235.500 C 199.470 238.590,200.585 247.139,207.257 248.428 C 209.534 248.868,307.266 248.868,309.543 248.428 C 316.788 247.029,317.147 237.235,310.040 234.855 C 309.052 234.525,294.877 234.400,258.212 234.400 L 207.743 234.400 205.572 235.500 M57.075 268.412 C 51.489 269.366,49.444 275.461,53.254 279.800 C 55.293 282.123,53.255 282.046,109.231 281.918 L 161.062 281.800 162.475 280.723 C 166.514 277.642,166.248 271.624,161.967 269.200 L 160.200 268.200 109.600 268.142 C 81.770 268.110,58.134 268.232,57.075 268.412 M207.074 268.387 C 200.846 269.592,199.636 279.018,205.401 281.426 C 207.646 282.364,309.468 282.290,311.451 281.349 C 317.331 278.559,315.837 269.435,309.325 268.364 C 306.898 267.965,209.142 267.987,207.074 268.387 M56.475 301.486 C 55.020 301.763,52.145 304.792,51.603 306.616 C 50.636 309.876,52.495 313.353,55.911 314.671 C 58.844 315.803,157.956 315.803,160.889 314.671 C 167.123 312.266,166.650 303.439,160.191 301.646 C 158.641 301.216,58.698 301.061,56.475 301.486 M206.262 301.783 C 200.574 303.812,199.939 311.446,205.212 314.399 L 207.000 315.400 258.211 315.400 L 309.421 315.400 311.384 314.390 C 316.481 311.767,316.315 304.573,311.100 302.048 L 309.347 301.200 258.574 301.218 C 216.615 301.232,207.533 301.330,206.262 301.783 " stroke="none" fill="#090909" fill-rule="evenodd"></path><path id="path1" d="M0.000 200.000 L 0.000 400.000 19.300 399.987 L 38.600 399.973 35.200 398.679 C 20.423 393.053,10.263 380.748,7.593 365.242 C 6.800 360.642,6.794 358.993,6.897 183.600 L 7.000 6.600 7.842 4.780 C 8.306 3.779,9.269 2.294,9.984 1.480 L 11.283 0.000 5.641 0.000 L 0.000 0.000 0.000 200.000 M356.947 1.647 C 359.568 4.709,359.730 5.632,359.977 18.989 L 360.200 30.978 361.200 31.483 C 361.935 31.854,365.275 31.992,373.800 32.003 C 387.959 32.021,389.274 32.433,392.115 37.746 L 393.000 39.400 393.000 216.800 C 393.000 387.113,392.971 394.253,392.277 395.524 C 391.880 396.252,390.914 397.557,390.131 398.424 L 388.707 400.000 394.353 400.000 L 400.000 400.000 400.000 200.000 L 400.000 0.000 377.769 -0.000 L 355.538 -0.000 356.947 1.647 M26.880 18.880 C 26.180 19.580,26.180 347.620,26.880 348.320 C 27.520 348.960,338.031 349.025,339.226 348.386 C 340.186 347.872,340.479 19.839,339.520 18.880 C 338.820 18.180,27.580 18.180,26.880 18.880 M53.426 32.756 C 56.364 34.091,57.940 35.962,72.301 55.180 C 86.703 74.452,88.566 76.800,89.450 76.800 C 89.831 76.800,89.974 72.694,90.083 58.700 C 90.220 40.983,90.242 40.552,91.131 38.324 C 94.683 29.423,106.955 30.405,109.383 39.784 C 110.267 43.200,110.305 107.018,109.425 110.325 C 107.741 116.651,101.770 119.685,96.200 117.044 C 93.824 115.918,92.357 114.409,88.182 108.800 C 65.937 78.919,61.117 72.750,60.498 73.369 C 60.334 73.532,60.103 81.796,59.985 91.733 C 59.742 112.257,59.741 112.262,56.597 115.160 C 51.344 120.002,43.786 118.300,41.125 111.676 L 40.211 109.400 40.082 77.917 C 39.943 44.355,40.102 40.346,41.691 37.259 C 43.911 32.944,49.294 30.879,53.426 32.756 M162.312 33.031 C 168.440 36.085,169.879 43.659,165.218 48.321 C 162.656 50.882,162.242 50.977,152.685 51.198 C 142.324 51.438,143.214 50.798,143.206 58.011 C 143.198 65.610,142.558 65.086,152.097 65.296 C 163.978 65.558,168.014 68.115,167.996 75.371 C 167.980 82.042,163.986 84.471,152.520 84.781 C 142.657 85.048,143.437 84.475,143.270 91.589 C 143.092 99.228,142.555 98.799,152.300 98.802 C 161.335 98.805,162.280 99.024,164.976 101.736 C 169.910 106.700,168.728 113.813,162.455 116.902 L 159.818 118.200 145.809 118.200 C 130.000 118.200,129.133 118.052,126.347 114.879 C 123.638 111.794,123.800 114.324,123.800 75.000 L 123.800 39.400 124.685 37.746 C 127.626 32.248,128.467 32.019,145.821 32.009 L 160.243 32.000 162.312 33.031 M187.528 33.227 C 191.756 35.340,191.979 35.858,196.579 54.189 C 201.001 71.814,200.706 70.800,201.413 70.800 C 202.190 70.800,202.588 69.941,205.002 63.048 C 207.819 55.003,207.900 54.806,209.051 53.298 C 212.154 49.230,220.050 48.911,223.679 52.708 C 225.534 54.648,225.543 54.668,228.345 62.827 C 231.378 71.659,231.186 71.200,231.853 71.200 C 232.643 71.200,232.702 71.001,236.383 56.000 C 240.453 39.411,240.669 38.684,242.177 36.442 C 247.893 27.944,260.625 32.903,259.436 43.165 C 259.019 46.760,243.230 109.572,242.105 112.111 C 238.948 119.235,229.735 120.037,225.383 113.567 C 224.655 112.485,223.075 108.471,221.457 103.592 C 218.581 94.923,217.290 91.600,216.800 91.600 C 216.165 91.600,215.642 92.872,212.611 101.800 C 210.894 106.860,209.160 111.654,208.760 112.454 C 205.682 118.594,197.551 119.785,193.012 114.761 C 191.011 112.546,190.787 111.859,186.796 95.662 C 184.809 87.598,182.832 79.650,182.403 78.000 C 172.573 40.187,172.420 38.867,177.369 34.511 C 180.570 31.693,183.674 31.301,187.528 33.227 M320.600 32.943 C 327.752 36.288,328.525 45.239,322.056 49.789 L 320.333 51.000 308.467 51.204 C 293.168 51.467,293.199 51.452,293.201 58.280 C 293.204 64.223,294.088 64.952,301.800 65.362 C 313.593 65.990,321.614 71.493,325.279 81.472 C 326.321 84.310,326.853 100.577,326.013 103.915 C 324.415 110.261,320.027 114.979,313.600 117.261 C 309.559 118.695,283.706 118.709,280.600 117.279 C 273.925 114.203,272.378 106.765,277.378 101.786 C 280.278 98.898,280.823 98.800,293.946 98.800 C 307.768 98.800,306.800 99.251,306.800 92.819 C 306.800 85.802,306.328 85.357,298.281 84.783 C 286.321 83.930,279.109 79.232,275.339 69.840 C 274.041 66.603,273.433 53.498,274.401 49.609 C 276.358 41.751,282.820 35.197,291.000 32.773 C 295.172 31.536,317.871 31.667,320.600 32.943 M360.800 51.592 C 360.269 51.927,360.177 69.653,360.000 205.885 C 359.809 352.662,359.767 359.883,359.083 361.599 C 358.178 363.869,356.362 365.773,353.800 367.136 L 351.800 368.200 190.941 368.304 C 43.062 368.399,30.063 368.460,29.834 369.056 C 28.844 371.635,36.876 378.761,43.200 380.915 L 45.800 381.800 209.016 381.906 C 350.223 381.997,372.337 381.934,373.016 381.438 C 374.102 380.644,374.475 53.785,373.392 52.132 C 372.733 51.126,362.249 50.676,360.800 51.592 M169.636 132.548 C 171.787 133.317,173.909 135.103,175.120 137.163 L 176.200 139.000 176.324 190.400 C 176.461 247.057,176.553 244.805,173.974 247.735 C 170.613 251.553,177.278 251.200,108.461 251.200 C 41.681 251.200,46.489 251.387,43.665 248.680 C 41.760 246.854,40.831 244.809,40.400 241.493 C 39.893 237.589,39.904 145.927,40.412 142.012 C 41.061 137.013,43.215 133.955,47.051 132.587 C 49.265 131.798,167.432 131.761,169.636 132.548 M312.600 133.063 C 319.902 137.004,319.676 147.059,312.209 150.452 C 310.677 151.147,308.094 151.183,258.400 151.187 L 206.200 151.192 204.153 150.239 C 196.893 146.859,197.150 136.417,204.578 132.946 L 206.600 132.001 258.800 132.101 L 311.000 132.200 312.600 133.063 M61.600 151.478 C 59.974 152.059,60.000 151.413,60.000 191.600 C 60.000 224.345,60.087 230.366,60.568 231.024 C 61.216 231.911,153.475 232.484,155.761 231.615 L 156.800 231.220 156.800 191.833 L 156.800 152.445 155.911 151.823 C 155.028 151.204,63.304 150.869,61.600 151.478 M312.502 166.530 C 320.508 170.462,319.441 181.618,310.800 184.314 C 308.770 184.947,304.683 185.000,258.000 185.000 L 207.400 185.000 205.113 184.076 C 196.412 180.561,196.843 169.028,205.792 165.917 C 207.667 165.264,211.180 165.224,259.000 165.309 L 310.200 165.400 312.502 166.530 M311.249 199.207 C 320.014 201.642,320.091 214.076,311.361 217.443 C 308.492 218.550,207.554 218.633,205.124 217.531 C 196.716 213.716,196.934 201.766,205.459 199.211 C 207.128 198.710,309.449 198.707,311.249 199.207 M311.826 232.756 C 319.365 236.180,320.133 245.745,313.203 249.900 L 311.035 251.200 258.418 251.196 L 205.800 251.192 203.678 249.976 C 196.902 246.090,197.351 236.587,204.479 233.035 L 206.557 232.000 258.379 232.009 C 307.900 232.017,310.272 232.050,311.826 232.756 M160.833 265.841 C 170.127 268.449,170.340 281.449,161.133 284.183 C 157.986 285.117,58.814 285.117,55.667 284.183 C 46.355 281.417,46.682 268.060,56.118 265.773 C 59.638 264.920,157.777 264.984,160.833 265.841 M310.662 265.796 C 320.309 268.661,320.428 281.466,310.833 284.159 C 307.512 285.091,208.885 285.140,205.773 284.211 C 196.480 281.439,196.464 269.144,205.749 265.935 C 208.644 264.934,307.320 264.804,310.662 265.796 M161.400 299.241 C 170.123 301.619,169.761 315.074,160.904 317.647 C 158.002 318.490,58.722 318.467,55.800 317.622 C 46.813 315.026,46.603 301.879,55.506 299.198 C 57.239 298.676,159.481 298.717,161.400 299.241 M311.226 299.201 C 318.084 301.106,320.147 310.522,314.770 315.379 C 311.376 318.446,316.295 318.200,258.400 318.200 L 206.600 318.200 204.705 317.266 C 196.723 313.335,197.000 302.266,205.154 299.352 C 206.981 298.699,308.897 298.554,311.226 299.201 " stroke="none" fill="#fbfbfb" fill-rule="evenodd"></path><path id="path2" d="M9.984 1.480 C 9.269 2.294,8.306 3.779,7.842 4.780 L 7.000 6.600 6.897 183.600 C 6.794 358.993,6.800 360.642,7.593 365.242 C 10.283 380.862,20.730 393.397,35.573 398.814 C 38.775 399.982,41.066 400.353,40.619 399.631 C 40.494 399.428,39.839 399.140,39.166 398.992 C 27.761 396.487,15.201 384.892,10.623 372.642 C 7.761 364.985,7.981 381.381,8.096 183.600 L 8.200 6.600 9.116 4.759 C 9.620 3.747,10.565 2.408,11.216 1.785 C 12.512 0.543,12.702 -0.000,11.841 0.000 C 11.534 0.000,10.698 0.666,9.984 1.480 M355.399 1.651 C 358.484 5.066,358.568 5.503,358.796 19.287 C 358.980 30.380,359.069 31.643,359.714 32.287 C 360.359 32.932,361.635 33.019,373.114 33.200 C 387.316 33.424,387.129 33.388,389.713 36.406 C 390.479 37.301,391.312 38.791,391.565 39.717 C 391.909 40.976,391.997 85.800,391.912 217.600 L 391.800 393.800 390.937 395.400 C 390.462 396.280,389.517 397.529,388.837 398.175 C 387.494 399.450,387.288 400.000,388.153 400.000 C 388.831 400.000,391.292 397.328,392.277 395.524 C 392.971 394.253,393.000 387.113,393.000 216.800 L 393.000 39.400 392.115 37.746 C 389.274 32.433,387.959 32.021,373.800 32.003 C 365.275 31.992,361.935 31.854,361.200 31.483 L 360.200 30.978 359.977 18.989 C 359.791 8.926,359.643 6.702,359.056 5.147 C 358.177 2.818,355.804 -0.000,354.722 0.000 C 354.011 0.000,354.097 0.211,355.399 1.651 M25.949 17.861 C 25.486 18.419,25.384 44.332,25.299 183.278 L 25.197 348.033 26.180 349.017 L 27.164 350.000 182.482 349.998 C 288.170 349.996,338.276 349.863,339.289 349.582 C 341.751 348.898,341.612 359.374,341.502 182.415 L 341.400 18.729 340.456 17.965 C 339.081 16.852,26.872 16.749,25.949 17.861 M339.520 18.880 C 340.479 19.839,340.186 347.872,339.226 348.386 C 338.031 349.025,27.520 348.960,26.880 348.320 C 26.180 347.620,26.180 19.580,26.880 18.880 C 27.580 18.180,338.820 18.180,339.520 18.880 M47.051 32.587 C 40.040 35.086,39.909 35.943,40.082 77.917 L 40.211 109.400 41.125 111.676 C 43.786 118.300,51.344 120.002,56.597 115.160 C 59.741 112.262,59.742 112.257,59.985 91.733 C 60.103 81.796,60.334 73.532,60.498 73.369 C 61.117 72.750,65.937 78.919,88.182 108.800 C 92.357 114.409,93.824 115.918,96.200 117.044 C 101.770 119.685,107.741 116.651,109.425 110.325 C 110.305 107.018,110.267 43.200,109.383 39.784 C 106.955 30.405,94.683 29.423,91.131 38.324 C 90.242 40.552,90.220 40.983,90.083 58.700 C 89.974 72.694,89.831 76.800,89.450 76.800 C 88.566 76.800,86.703 74.452,72.301 55.180 C 54.410 31.239,53.391 30.327,47.051 32.587 M129.791 32.748 C 127.807 33.650,125.852 35.563,124.685 37.746 L 123.800 39.400 123.800 75.000 C 123.800 114.324,123.638 111.794,126.347 114.879 C 129.133 118.052,130.000 118.200,145.809 118.200 L 159.818 118.200 162.455 116.902 C 168.728 113.813,169.910 106.700,164.976 101.736 C 162.280 99.024,161.335 98.805,152.300 98.802 C 142.555 98.799,143.092 99.228,143.270 91.589 C 143.437 84.475,142.657 85.048,152.520 84.781 C 163.986 84.471,167.980 82.042,167.996 75.371 C 168.014 68.115,163.978 65.558,152.097 65.296 C 142.558 65.086,143.198 65.610,143.206 58.011 C 143.214 50.798,142.324 51.438,152.685 51.198 C 162.242 50.977,162.656 50.882,165.218 48.321 C 169.879 43.659,168.440 36.085,162.312 33.031 L 160.243 32.000 145.821 32.009 C 132.720 32.017,131.253 32.084,129.791 32.748 M180.486 32.503 C 178.720 33.069,175.748 35.742,174.783 37.633 C 173.113 40.908,174.046 45.853,182.403 78.000 C 182.832 79.650,184.809 87.598,186.796 95.662 C 190.787 111.859,191.011 112.546,193.012 114.761 C 197.551 119.785,205.682 118.594,208.760 112.454 C 209.160 111.654,210.894 106.860,212.611 101.800 C 215.642 92.872,216.165 91.600,216.800 91.600 C 217.290 91.600,218.581 94.923,221.457 103.592 C 223.075 108.471,224.655 112.485,225.383 113.567 C 229.735 120.037,238.948 119.235,242.105 112.111 C 243.230 109.572,259.019 46.760,259.436 43.165 C 260.625 32.903,247.893 27.944,242.177 36.442 C 240.669 38.684,240.453 39.411,236.383 56.000 C 232.702 71.001,232.643 71.200,231.853 71.200 C 231.186 71.200,231.378 71.659,228.345 62.827 C 225.543 54.668,225.534 54.648,223.679 52.708 C 220.050 48.911,212.154 49.230,209.051 53.298 C 207.900 54.806,207.819 55.003,205.002 63.048 C 202.588 69.941,202.190 70.800,201.413 70.800 C 200.706 70.800,201.001 71.814,196.579 54.189 C 191.979 35.858,191.756 35.340,187.528 33.227 C 184.930 31.929,182.922 31.722,180.486 32.503 M291.000 32.773 C 282.820 35.197,276.358 41.751,274.401 49.609 C 273.433 53.498,274.041 66.603,275.339 69.840 C 279.109 79.232,286.321 83.930,298.281 84.783 C 306.328 85.357,306.800 85.802,306.800 92.819 C 306.800 99.251,307.768 98.800,293.946 98.800 C 280.823 98.800,280.278 98.898,277.378 101.786 C 272.378 106.765,273.925 114.203,280.600 117.279 C 283.706 118.709,309.559 118.695,313.600 117.261 C 320.027 114.979,324.415 110.261,326.013 103.915 C 326.853 100.577,326.321 84.310,325.279 81.472 C 321.614 71.493,313.593 65.990,301.800 65.362 C 294.088 64.952,293.204 64.223,293.201 58.280 C 293.199 51.452,293.168 51.467,308.467 51.204 L 320.333 51.000 322.056 49.789 C 328.525 45.239,327.752 36.288,320.600 32.943 C 317.871 31.667,295.172 31.536,291.000 32.773 M53.400 34.141 C 56.117 35.409,56.298 35.629,72.588 57.386 C 87.470 77.264,89.326 79.600,90.239 79.600 C 91.132 79.600,91.186 78.594,91.322 59.200 C 91.462 39.335,91.521 38.705,93.499 36.355 C 97.678 31.388,105.886 32.929,108.066 39.090 C 108.496 40.305,108.600 47.353,108.600 75.200 L 108.600 109.800 107.461 112.120 C 105.982 115.132,104.023 116.489,100.821 116.721 C 96.239 117.052,94.608 115.687,86.523 104.753 C 65.690 76.576,61.166 70.800,59.933 70.800 C 58.840 70.800,58.813 71.248,58.703 91.200 C 58.590 111.623,58.607 111.473,56.079 114.137 C 51.684 118.767,43.883 116.929,42.057 110.831 C 41.410 108.673,41.409 41.090,42.055 39.160 C 43.673 34.329,48.873 32.029,53.400 34.141 M162.026 34.300 C 169.583 38.132,167.804 48.626,159.363 50.008 C 158.063 50.221,153.917 50.396,150.149 50.398 C 141.537 50.401,142.200 49.741,142.200 58.298 C 142.200 66.932,141.610 66.397,151.144 66.410 C 162.785 66.426,166.800 68.620,166.800 74.967 C 166.800 81.434,163.685 83.335,152.800 83.510 C 141.806 83.686,142.006 83.527,142.002 92.113 C 141.998 100.168,141.765 100.000,152.971 100.000 C 160.008 100.000,160.311 100.034,162.339 101.044 C 168.406 104.068,168.238 113.044,162.059 115.941 L 159.800 117.000 146.000 117.000 C 130.283 117.000,129.561 116.884,127.046 113.945 C 124.775 111.292,124.800 111.718,124.802 75.123 C 124.805 35.552,124.662 36.735,129.724 34.213 L 131.757 33.200 145.807 33.200 L 159.857 33.200 162.026 34.300 M186.071 33.818 C 190.161 35.211,191.253 37.187,193.914 48.000 C 195.024 52.510,196.870 60.021,198.016 64.691 C 201.120 77.344,201.266 77.357,205.380 65.389 C 209.865 52.343,210.782 51.200,216.761 51.200 C 222.530 51.200,223.463 52.345,227.685 64.600 C 232.509 78.600,231.840 79.309,238.242 53.400 C 242.403 36.563,242.564 36.186,246.442 34.254 C 249.050 32.954,250.810 32.929,253.400 34.153 C 258.710 36.664,259.505 40.088,256.999 49.653 C 256.228 52.594,253.437 63.730,250.795 74.400 C 242.765 106.841,241.838 110.365,240.812 112.377 C 237.869 118.145,229.519 118.300,226.207 112.648 C 225.636 111.674,223.844 107.035,222.225 102.339 C 218.466 91.436,217.644 89.274,217.134 88.959 C 216.159 88.357,215.032 90.810,211.637 100.923 C 206.963 114.846,205.576 116.786,200.287 116.796 C 193.548 116.809,192.975 115.719,186.842 91.200 C 184.172 80.530,181.456 69.730,180.805 67.200 C 174.302 41.935,174.034 39.531,177.325 36.051 C 179.824 33.408,182.707 32.672,186.071 33.818 M319.162 33.589 C 326.574 35.715,327.483 45.663,320.600 49.330 C 319.101 50.129,318.255 50.196,307.200 50.391 C 292.204 50.656,291.999 50.763,292.001 58.260 C 292.002 64.327,294.003 66.400,299.856 66.400 C 312.561 66.400,321.900 72.812,324.593 83.384 C 325.479 86.864,325.454 101.798,324.556 104.827 C 322.734 110.979,317.914 115.227,311.159 116.635 C 306.621 117.582,283.281 117.307,281.005 116.281 C 275.650 113.866,273.997 107.164,277.713 102.932 C 280.160 100.145,280.832 100.019,293.250 100.009 C 308.861 99.996,308.192 100.361,307.940 92.000 C 307.722 84.787,306.898 84.049,298.517 83.569 C 283.614 82.716,275.473 74.868,274.898 60.800 C 274.299 46.126,279.882 36.995,291.281 34.009 C 294.572 33.147,316.469 32.817,319.162 33.589 M359.465 51.128 C 358.856 51.801,358.798 63.493,358.703 205.828 C 358.616 335.844,358.514 360.018,358.046 361.200 C 357.387 362.867,355.465 365.010,353.800 365.934 C 352.688 366.551,340.789 366.615,191.200 366.800 C 102.430 366.910,29.485 367.154,29.100 367.343 C 25.147 369.279,34.542 379.227,43.000 382.062 L 45.800 383.000 209.312 383.106 L 372.825 383.211 373.812 382.224 L 374.800 381.236 374.800 216.480 C 374.800 57.375,374.775 51.701,374.069 51.062 C 372.920 50.023,360.414 50.079,359.465 51.128 M373.392 52.132 C 374.475 53.785,374.102 380.644,373.016 381.438 C 372.337 381.934,350.223 381.997,209.016 381.906 L 45.800 381.800 43.200 380.915 C 36.876 378.761,28.844 371.635,29.834 369.056 C 30.063 368.460,43.062 368.399,190.941 368.304 L 351.800 368.200 353.800 367.136 C 356.362 365.773,358.178 363.869,359.083 361.599 C 359.767 359.883,359.809 352.662,360.000 205.885 C 360.177 69.653,360.269 51.927,360.800 51.592 C 362.249 50.676,372.733 51.126,373.392 52.132 M47.051 132.587 C 43.215 133.955,41.061 137.013,40.412 142.012 C 39.904 145.927,39.893 237.589,40.400 241.493 C 40.831 244.809,41.760 246.854,43.665 248.680 C 46.489 251.387,41.681 251.200,108.461 251.200 C 177.278 251.200,170.613 251.553,173.974 247.735 C 176.553 244.805,176.461 247.057,176.324 190.400 L 176.200 139.000 175.120 137.163 C 173.909 135.103,171.787 133.317,169.636 132.548 C 167.432 131.761,49.265 131.798,47.051 132.587 M204.578 132.946 C 197.150 136.417,196.893 146.859,204.153 150.239 L 206.200 151.192 258.400 151.187 C 308.094 151.183,310.677 151.147,312.209 150.452 C 319.676 147.059,319.902 137.004,312.600 133.063 L 311.000 132.200 258.800 132.101 L 206.600 132.001 204.578 132.946 M169.074 133.622 C 171.324 134.466,173.177 136.098,174.187 138.124 L 175.200 140.157 175.198 191.379 C 175.196 225.887,175.059 243.093,174.776 244.111 C 174.251 246.003,172.342 248.209,170.354 249.224 C 167.967 250.441,48.833 250.441,46.446 249.224 C 44.458 248.209,42.549 246.003,42.024 244.111 C 41.456 242.065,41.439 141.596,42.006 139.553 C 42.658 137.207,44.063 135.513,46.349 134.319 L 48.491 133.200 108.220 133.200 C 149.168 133.200,168.302 133.333,169.074 133.622 M312.026 134.300 C 317.539 137.095,318.448 143.564,313.935 147.875 C 311.618 150.089,313.957 150.000,258.237 150.000 L 206.126 150.000 204.363 149.069 C 199.586 146.546,198.601 139.357,202.526 135.669 C 205.320 133.045,201.030 133.234,258.228 133.216 L 309.857 133.200 312.026 134.300 M61.104 150.283 C 58.677 150.658,58.800 148.442,58.800 191.689 C 58.800 236.365,58.531 232.798,61.900 232.802 C 141.253 232.898,156.545 232.792,157.265 232.141 C 157.969 231.504,158.000 229.790,158.000 191.600 L 158.000 151.724 157.158 150.962 C 156.365 150.244,65.509 149.602,61.104 150.283 M155.911 151.823 L 156.800 152.445 156.800 191.833 L 156.800 231.220 155.761 231.615 C 153.475 232.484,61.216 231.911,60.568 231.024 C 59.776 229.940,59.710 153.319,60.500 152.322 C 61.346 151.255,60.963 151.264,108.611 151.232 C 150.003 151.203,155.118 151.267,155.911 151.823 M205.792 165.917 C 196.843 169.028,196.412 180.561,205.113 184.076 L 207.400 185.000 258.000 185.000 C 304.683 185.000,308.770 184.947,310.800 184.314 C 319.441 181.618,320.508 170.462,312.502 166.530 L 310.200 165.400 259.000 165.309 C 211.180 165.224,207.667 165.264,205.792 165.917 M311.955 167.339 C 318.390 170.847,318.301 179.599,311.800 182.653 L 309.800 183.592 258.571 183.596 C 201.336 183.600,204.939 183.780,202.245 180.797 C 197.918 176.007,200.077 168.712,206.397 166.771 C 208.881 166.008,310.517 166.555,311.955 167.339 M205.459 199.211 C 196.934 201.766,196.716 213.716,205.124 217.531 C 207.554 218.633,308.492 218.550,311.361 217.443 C 320.091 214.076,320.014 201.642,311.249 199.207 C 309.449 198.707,207.128 198.710,205.459 199.211 M311.513 200.621 C 317.326 203.049,318.578 210.551,313.861 214.693 C 310.846 217.340,313.507 217.226,257.372 217.107 L 206.600 217.000 204.962 216.124 C 198.391 212.607,198.413 203.808,205.000 200.758 C 207.272 199.706,309.009 199.575,311.513 200.621 M204.479 233.035 C 197.351 236.587,196.902 246.090,203.678 249.976 L 205.800 251.192 258.418 251.196 L 311.035 251.200 313.203 249.900 C 320.133 245.745,319.365 236.180,311.826 232.756 C 310.272 232.050,307.900 232.017,258.379 232.009 L 206.557 232.000 204.479 233.035 M309.598 233.237 C 317.132 234.853,319.350 244.578,313.123 248.698 L 311.458 249.800 258.395 249.800 L 205.332 249.800 203.670 248.649 C 197.682 244.499,199.496 235.302,206.685 233.369 C 209.239 232.682,306.430 232.558,309.598 233.237 M56.118 265.773 C 46.682 268.060,46.355 281.417,55.667 284.183 C 58.814 285.117,157.986 285.117,161.133 284.183 C 170.340 281.449,170.127 268.449,160.833 265.841 C 157.777 264.984,59.638 264.920,56.118 265.773 M205.749 265.935 C 196.464 269.144,196.480 281.439,205.773 284.211 C 208.885 285.140,307.512 285.091,310.833 284.159 C 320.428 281.466,320.309 268.661,310.662 265.796 C 307.320 264.804,208.644 264.934,205.749 265.935 M162.197 267.600 C 168.350 270.680,168.339 279.340,162.179 282.572 C 160.351 283.530,59.400 284.116,55.954 283.188 C 49.053 281.329,47.835 271.011,54.131 267.736 C 56.413 266.549,59.533 266.481,109.400 266.540 L 160.200 266.600 162.197 267.600 M312.211 267.620 C 319.001 271.099,317.807 281.357,310.400 283.184 C 309.116 283.501,293.859 283.595,257.171 283.514 L 205.741 283.400 204.074 282.297 C 197.724 278.094,199.072 268.923,206.328 266.954 C 207.802 266.554,219.039 266.463,259.211 266.523 L 310.222 266.600 312.211 267.620 M55.506 299.198 C 46.603 301.879,46.813 315.026,55.800 317.622 C 58.722 318.467,158.002 318.490,160.904 317.647 C 169.761 315.074,170.123 301.619,161.400 299.241 C 159.481 298.717,57.239 298.676,55.506 299.198 M205.154 299.352 C 197.000 302.266,196.723 313.335,204.705 317.266 L 206.600 318.200 258.400 318.200 C 316.295 318.200,311.376 318.446,314.770 315.379 C 320.147 310.522,318.084 301.106,311.226 299.201 C 308.897 298.554,206.981 298.699,205.154 299.352 M161.330 300.373 C 168.653 303.158,168.391 313.822,160.934 316.458 C 158.659 317.262,58.141 317.262,55.866 316.458 C 48.563 313.876,47.995 303.606,54.986 300.560 C 56.464 299.916,159.651 299.735,161.330 300.373 M311.966 300.782 C 318.685 304.210,318.246 313.143,311.200 316.361 C 309.246 317.253,208.379 317.346,205.866 316.458 C 198.581 313.883,198.035 303.983,205.000 300.758 C 207.570 299.568,309.631 299.591,311.966 300.782 " stroke="none" fill="#a9a9a9" fill-rule="evenodd"></path><path id="path3" d="M11.782 1.700 C 10.968 2.635,9.919 4.210,9.451 5.200 L 8.600 7.000 8.600 184.600 C 8.600 353.579,8.635 362.378,9.316 365.876 C 11.980 379.561,19.818 389.632,32.636 395.839 C 35.545 397.248,38.173 398.400,38.478 398.400 C 38.782 398.400,39.737 398.760,40.600 399.200 C 41.463 399.640,42.693 400.000,43.334 400.000 C 45.343 400.000,43.875 398.947,40.267 397.800 C 23.297 392.407,12.676 380.464,10.209 364.000 C 9.214 357.360,9.468 7.732,10.469 5.524 C 10.838 4.712,11.873 3.252,12.769 2.279 C 14.535 0.364,14.705 0.000,13.831 -0.000 C 13.518 -0.000,12.596 0.765,11.782 1.700 M352.400 0.319 C 352.400 0.495,353.131 1.400,354.025 2.330 C 356.944 5.368,356.966 5.487,357.195 19.600 C 357.340 28.497,357.544 32.452,357.892 33.058 C 358.785 34.617,360.344 34.800,372.733 34.800 C 386.249 34.800,387.035 34.959,389.126 38.119 L 390.200 39.742 390.321 215.371 C 390.455 409.757,390.701 393.818,387.513 397.460 C 385.990 399.201,385.629 399.832,386.105 399.924 C 386.935 400.085,389.341 397.496,390.495 395.200 L 391.400 393.400 391.400 216.569 L 391.400 39.737 390.184 37.769 C 387.808 33.924,387.418 33.832,372.664 33.600 L 359.928 33.400 359.164 32.456 C 358.455 31.579,358.400 30.747,358.400 20.829 C 358.400 10.341,358.070 6.469,356.999 4.399 C 355.808 2.095,352.400 -0.928,352.400 0.319 M27.800 15.395 C 27.580 15.469,26.893 15.642,26.274 15.779 C 23.824 16.321,24.000 3.327,24.000 183.568 C 24.000 357.589,23.914 349.868,25.863 350.756 C 27.475 351.490,339.198 351.379,340.959 350.643 C 343.347 349.645,343.200 360.587,343.198 183.640 C 343.195 8.491,343.307 17.318,341.081 16.101 C 339.920 15.466,29.661 14.767,27.800 15.395 M339.257 16.809 C 340.058 17.032,340.958 17.508,341.257 17.868 C 341.712 18.418,341.800 45.087,341.800 183.450 L 341.800 348.378 340.889 349.289 L 339.978 350.200 183.203 350.200 C 33.233 350.200,26.398 350.169,25.714 349.486 C 24.712 348.484,24.585 19.023,25.586 17.817 C 25.908 17.428,26.538 16.962,26.986 16.781 C 28.211 16.284,337.469 16.312,339.257 16.809 M47.324 34.257 C 45.279 34.981,43.002 37.407,42.429 39.472 C 41.844 41.577,41.840 108.407,42.424 110.511 C 44.091 116.514,52.498 118.379,56.091 113.544 C 58.139 110.788,58.149 110.682,58.382 89.919 C 58.642 66.681,58.575 66.903,63.433 73.281 C 66.377 77.146,74.803 88.341,76.622 90.803 C 85.404 102.694,94.219 114.098,95.107 114.717 C 99.913 118.063,106.046 116.096,107.689 110.682 C 108.459 108.145,108.429 42.189,107.657 39.532 C 105.966 33.715,99.297 31.949,94.608 36.076 C 91.862 38.494,91.883 38.323,91.726 59.600 C 91.574 80.178,91.560 80.400,90.423 80.400 C 89.444 80.400,87.571 78.164,79.702 67.600 C 76.179 62.870,72.400 57.830,71.304 56.400 C 70.209 54.970,66.664 50.254,63.428 45.919 C 54.412 33.843,52.467 32.435,47.324 34.257 M131.000 34.083 C 129.081 34.753,127.263 36.316,126.296 38.123 L 125.400 39.800 125.400 75.231 L 125.400 110.663 126.602 112.631 C 127.481 114.070,128.342 114.869,129.802 115.600 L 131.800 116.600 145.600 116.600 C 156.093 116.600,159.762 116.472,160.910 116.066 C 167.539 113.720,168.330 104.643,162.200 101.262 C 161.224 100.724,159.377 100.563,152.310 100.400 C 140.997 100.140,141.800 100.801,141.800 91.753 L 141.800 85.130 142.922 84.165 C 144.016 83.225,144.225 83.200,151.122 83.190 C 162.473 83.175,165.771 81.609,166.311 75.981 C 166.959 69.241,163.548 67.136,151.467 66.819 C 140.904 66.541,141.425 67.058,141.668 57.106 C 141.851 49.589,141.110 50.117,151.726 49.927 C 159.425 49.790,160.346 49.698,161.800 48.927 C 168.318 45.468,167.738 36.558,160.841 34.208 C 158.672 33.469,133.064 33.361,131.000 34.083 M180.407 34.409 C 173.962 37.411,173.991 38.502,181.276 67.200 C 185.319 83.123,190.560 104.096,191.414 107.768 C 193.059 114.835,198.031 118.094,203.428 115.643 C 206.449 114.271,207.231 112.810,211.024 101.448 C 216.873 83.928,216.239 83.985,222.029 100.462 C 227.100 114.894,228.371 116.596,233.853 116.300 C 239.942 115.972,240.847 114.013,247.023 87.800 C 248.724 80.578,253.104 63.017,255.603 53.400 C 256.517 49.880,257.427 46.370,257.623 45.600 C 259.538 38.105,254.075 31.884,247.606 34.191 C 243.602 35.619,242.721 37.248,240.031 48.200 C 238.896 52.820,237.407 58.760,236.721 61.400 C 236.036 64.040,235.073 67.776,234.583 69.701 C 232.490 77.913,231.629 77.322,227.237 64.657 C 223.144 52.854,222.148 51.600,216.866 51.600 C 210.989 51.600,210.049 52.782,205.789 65.522 C 200.939 80.029,201.166 80.250,195.224 55.200 C 192.029 41.728,191.277 39.128,190.076 37.400 C 187.859 34.209,183.639 32.904,180.407 34.409 M291.200 34.521 C 281.230 37.099,275.783 44.601,275.313 56.400 C 274.630 73.547,282.232 82.131,299.010 83.158 C 307.450 83.675,308.558 84.891,308.333 93.384 C 308.137 100.738,309.347 100.153,293.823 100.400 L 281.267 100.600 279.569 101.800 C 273.626 106.001,275.844 115.005,283.164 116.393 C 285.968 116.925,307.046 116.914,310.400 116.379 C 316.173 115.459,320.915 111.978,323.323 106.896 L 324.600 104.200 324.727 95.115 C 324.906 82.308,323.978 79.119,318.503 73.714 C 313.435 68.712,308.208 66.800,299.595 66.800 C 293.726 66.800,291.800 64.675,291.800 58.200 C 291.800 50.279,292.295 50.005,306.600 49.991 C 312.320 49.985,317.687 49.821,318.526 49.627 C 326.026 47.886,327.179 37.789,320.247 34.561 C 317.219 33.151,296.606 33.123,291.200 34.521 M53.015 35.746 C 55.371 36.843,57.004 38.775,65.698 50.748 C 67.514 53.249,70.800 57.591,73.000 60.397 C 75.200 63.203,78.116 67.097,79.480 69.050 C 83.261 74.462,88.870 81.299,90.090 81.982 C 92.601 83.389,92.577 83.579,92.800 60.486 C 93.026 37.069,92.876 38.127,96.260 36.144 C 100.007 33.948,104.174 35.007,106.000 38.621 L 107.000 40.600 107.000 75.000 C 107.000 112.638,107.090 111.186,104.597 113.603 C 103.411 114.753,102.867 114.973,100.858 115.118 C 96.665 115.422,95.274 114.241,88.000 104.213 C 86.130 101.634,82.978 97.427,80.996 94.862 C 79.014 92.298,76.236 88.580,74.822 86.600 C 73.409 84.620,70.705 81.020,68.814 78.600 C 66.922 76.180,64.518 72.987,63.471 71.505 C 61.438 68.628,60.645 68.000,59.040 68.000 C 57.311 68.000,57.260 68.573,57.126 89.423 C 56.989 110.843,56.972 111.021,54.886 113.326 C 51.889 116.637,46.107 115.614,44.000 111.400 L 43.000 109.400 42.878 77.699 C 42.724 37.565,42.707 37.738,46.983 35.747 C 49.510 34.570,50.490 34.570,53.015 35.746 M160.440 35.261 C 166.767 37.407,167.051 45.055,160.920 48.153 C 159.872 48.683,158.233 48.800,151.880 48.800 C 143.853 48.800,141.898 49.096,141.192 50.416 C 140.251 52.174,140.719 65.461,141.765 66.678 L 142.729 67.800 151.465 68.002 C 160.553 68.213,161.114 68.316,163.138 70.150 C 166.133 72.864,166.012 78.151,162.906 80.303 C 160.968 81.646,160.366 81.734,151.465 81.969 L 142.729 82.200 141.765 83.322 C 140.820 84.421,140.800 84.601,140.800 91.840 C 140.800 101.801,139.936 101.022,151.276 101.283 C 159.044 101.463,160.082 101.568,161.679 102.341 C 166.426 104.639,166.528 111.774,161.853 114.453 L 160.200 115.400 145.800 115.400 C 130.326 115.400,130.174 115.382,128.261 113.267 C 126.429 111.243,126.435 111.377,126.435 75.200 C 126.435 35.584,126.227 37.560,130.600 35.552 C 132.556 34.654,157.921 34.407,160.440 35.261 M185.400 35.246 C 187.507 35.829,189.757 38.221,190.506 40.674 C 191.560 44.125,192.753 48.879,194.204 55.400 C 196.340 65.006,199.193 76.110,199.673 76.688 C 201.150 78.468,203.550 76.607,204.596 72.872 C 209.213 56.381,211.575 52.400,216.739 52.400 C 221.620 52.400,222.030 53.010,227.409 68.267 C 231.510 79.900,232.933 80.196,235.576 69.966 C 236.225 67.455,237.033 64.410,237.371 63.200 C 237.709 61.990,239.178 56.230,240.635 50.400 C 243.933 37.202,244.412 36.274,248.485 35.177 C 254.825 33.470,258.590 39.348,256.185 47.200 C 255.881 48.190,255.073 51.160,254.389 53.800 C 253.705 56.440,252.604 60.670,251.944 63.200 C 250.176 69.971,247.638 80.183,246.978 83.181 C 245.238 91.082,243.058 99.908,241.195 106.600 C 239.365 113.171,237.606 115.196,233.726 115.199 C 228.252 115.202,227.917 114.639,220.619 93.185 C 218.347 86.505,217.762 85.641,215.914 86.227 C 214.897 86.550,214.394 87.798,210.044 100.800 C 208.019 106.850,206.039 112.191,205.643 112.669 C 203.466 115.294,199.013 116.073,196.369 114.290 C 194.110 112.768,193.365 111.172,191.796 104.497 C 190.982 101.034,189.872 96.490,189.328 94.400 C 188.784 92.310,187.646 87.900,186.798 84.600 C 185.950 81.300,184.687 76.440,183.991 73.800 C 182.582 68.453,180.037 58.104,178.779 52.600 C 178.326 50.620,177.592 47.501,177.148 45.669 C 175.380 38.379,179.213 33.537,185.400 35.246 M318.981 35.243 C 324.771 36.851,325.535 44.859,320.188 47.887 C 318.654 48.756,318.244 48.787,308.077 48.793 C 292.116 48.803,290.376 49.750,290.420 58.400 C 290.457 65.670,292.659 67.534,301.811 68.036 C 313.213 68.663,321.411 74.712,323.193 83.813 C 324.193 88.922,323.580 104.249,322.273 106.800 C 320.094 111.054,316.250 114.050,311.748 115.004 C 307.689 115.864,284.992 115.851,282.084 114.988 C 276.291 113.268,275.637 104.834,281.089 102.160 C 282.438 101.499,283.864 101.408,294.400 101.308 C 310.172 101.159,308.995 101.716,309.421 94.200 C 309.974 84.458,308.232 82.507,298.473 81.941 C 283.606 81.079,276.760 74.022,276.473 59.262 C 276.211 45.818,281.482 37.732,292.000 35.446 C 295.287 34.731,316.561 34.572,318.981 35.243 M359.718 49.243 C 359.013 49.447,358.158 50.011,357.818 50.496 C 357.263 51.288,357.199 67.103,357.190 204.789 C 357.185 295.465,357.032 358.842,356.817 359.769 C 356.316 361.928,355.267 363.240,353.192 364.300 L 351.430 365.200 190.502 365.200 C 15.255 365.200,27.156 365.042,26.571 367.374 C 25.382 372.109,35.133 381.542,43.650 383.895 C 46.066 384.563,54.831 384.600,210.135 384.600 L 374.069 384.600 375.035 383.478 L 376.000 382.355 376.000 216.751 C 376.000 109.494,375.862 50.890,375.608 50.416 C 374.797 48.899,363.731 48.083,359.718 49.243 M374.592 50.932 C 375.138 51.764,375.192 69.489,375.101 216.967 L 375.000 382.071 374.049 382.841 C 373.113 383.599,370.480 383.610,209.249 383.506 L 45.400 383.400 42.800 382.511 C 33.133 379.204,23.685 367.843,29.615 366.657 C 30.322 366.516,103.013 366.398,191.150 366.396 L 351.400 366.392 353.400 365.453 C 355.708 364.369,356.490 363.590,357.485 361.385 C 358.167 359.874,358.209 352.604,358.400 205.468 C 358.597 53.277,358.611 51.128,359.376 50.568 C 360.892 49.460,373.831 49.770,374.592 50.932 M47.624 134.121 C 45.601 134.766,42.964 137.479,42.435 139.459 C 42.118 140.643,42.021 155.828,42.096 192.459 C 42.214 250.752,41.893 245.603,45.570 248.200 L 47.269 249.400 108.369 249.400 L 169.468 249.400 171.034 248.306 C 171.895 247.705,173.050 246.548,173.600 245.736 L 174.600 244.259 174.706 192.694 C 174.782 155.795,174.685 140.656,174.367 139.465 C 173.806 137.369,171.170 134.757,168.940 134.089 C 166.721 133.424,49.712 133.455,47.624 134.121 M205.397 134.346 C 199.241 137.142,198.872 145.776,204.779 148.789 C 206.351 149.591,206.918 149.600,258.484 149.593 L 310.600 149.587 312.183 148.690 C 318.290 145.231,317.236 135.891,310.528 134.029 C 307.454 133.175,207.309 133.477,205.397 134.346 M169.400 135.556 C 171.251 136.410,172.567 137.725,173.173 139.326 C 173.467 140.102,173.600 156.413,173.600 191.842 C 173.600 250.429,173.927 245.234,170.101 247.483 L 168.200 248.600 108.400 248.600 C 41.752 248.600,46.877 248.821,44.606 245.844 C 42.831 243.516,42.761 241.233,42.885 189.145 C 43.008 137.400,42.928 139.428,44.927 137.247 C 47.316 134.641,42.697 134.818,108.400 134.818 C 165.305 134.818,167.867 134.849,169.400 135.556 M312.135 136.000 C 317.002 139.296,315.688 146.868,309.983 148.405 C 306.977 149.214,206.840 148.732,205.321 147.900 C 201.372 145.741,200.397 140.654,203.298 137.349 C 205.667 134.651,201.866 134.818,258.829 134.913 L 310.659 135.000 312.135 136.000 M58.369 149.969 L 57.200 151.138 57.200 191.547 L 57.200 231.955 58.165 233.078 L 59.131 234.200 108.191 234.305 L 157.252 234.409 158.426 233.235 L 159.600 232.062 159.600 191.600 L 159.600 151.138 158.431 149.969 L 157.262 148.800 108.400 148.800 L 59.538 148.800 58.369 149.969 M157.635 150.744 C 158.377 151.660,158.400 152.903,158.400 191.782 L 158.400 231.876 157.558 232.638 C 156.693 233.421,69.554 234.107,62.464 233.386 C 57.950 232.928,58.400 237.541,58.400 191.676 C 58.400 148.492,58.282 150.721,60.600 150.023 C 61.290 149.816,82.004 149.691,109.335 149.731 L 156.871 149.800 157.635 150.744 M205.800 167.401 C 198.508 169.980,198.894 180.722,206.353 182.794 C 208.396 183.361,308.465 183.344,310.511 182.776 C 318.019 180.691,318.002 169.305,310.488 167.218 C 307.950 166.513,207.815 166.688,205.800 167.401 M307.683 167.938 C 314.338 168.544,317.523 174.871,313.487 179.468 C 311.117 182.167,314.758 182.000,258.298 182.000 L 206.970 182.000 205.186 181.100 C 198.925 177.940,201.172 168.753,208.400 167.959 C 211.512 167.617,303.947 167.597,307.683 167.938 M205.685 200.849 C 198.470 202.946,199.021 213.972,206.451 216.178 C 209.063 216.954,305.997 217.135,309.560 216.371 C 316.801 214.818,318.785 205.991,312.835 201.800 L 311.131 200.600 259.066 200.533 C 226.929 200.492,206.496 200.613,205.685 200.849 M311.792 202.515 C 317.150 205.550,315.903 213.462,309.800 215.152 C 307.480 215.795,208.656 215.782,206.760 215.139 C 201.970 213.514,200.030 208.058,202.902 204.292 C 205.099 201.413,200.833 201.618,258.400 201.616 L 310.200 201.613 311.792 202.515 M207.370 233.572 C 199.452 235.495,197.865 245.239,204.884 248.839 C 206.320 249.576,208.042 249.600,258.400 249.600 C 308.758 249.600,310.480 249.576,311.916 248.839 C 317.799 245.822,317.846 237.957,312.000 234.646 L 309.800 233.400 259.200 233.336 C 231.370 233.301,208.046 233.407,207.370 233.572 M310.040 234.855 C 317.147 237.235,316.788 247.029,309.543 248.428 C 307.266 248.868,209.534 248.868,207.257 248.428 C 200.585 247.139,199.470 238.590,205.572 235.500 L 207.743 234.400 258.212 234.400 C 294.877 234.400,309.052 234.525,310.040 234.855 M57.322 267.203 C 48.653 268.471,47.795 280.374,56.200 282.780 C 57.375 283.116,71.469 283.206,109.200 283.119 L 160.600 283.000 162.420 281.930 C 169.021 278.049,167.052 268.451,159.398 267.197 C 156.563 266.733,60.501 266.739,57.322 267.203 M207.400 267.170 C 199.169 268.605,197.934 279.851,205.699 282.667 C 207.505 283.322,308.251 283.404,310.599 282.752 C 317.717 280.775,318.245 270.808,311.395 267.719 C 309.731 266.969,211.529 266.450,207.400 267.170 M161.967 269.200 C 166.248 271.624,166.514 277.642,162.475 280.723 L 161.062 281.800 109.231 281.918 C 73.630 282.000,56.942 281.904,55.937 281.613 C 50.940 280.168,49.787 272.255,54.156 269.392 C 56.044 268.155,59.200 268.084,109.600 268.142 L 160.200 268.200 161.967 269.200 M309.325 268.364 C 315.837 269.435,317.331 278.559,311.451 281.349 C 309.468 282.290,207.646 282.364,205.401 281.426 C 199.636 279.018,200.846 269.592,207.074 268.387 C 209.142 267.987,306.898 267.965,309.325 268.364 M55.000 301.029 C 48.405 304.459,48.994 313.612,55.960 315.945 C 57.898 316.594,158.902 316.594,160.840 315.945 C 167.641 313.668,168.372 304.518,162.010 301.300 L 160.230 300.400 108.215 300.402 C 61.869 300.405,56.069 300.473,55.000 301.029 M204.790 301.300 C 199.018 304.219,199.061 312.492,204.863 315.432 L 206.773 316.400 258.341 316.400 L 309.909 316.400 312.041 315.286 C 317.652 312.355,317.650 304.296,312.037 301.331 L 310.274 300.400 258.422 300.400 L 206.570 300.400 204.790 301.300 M160.191 301.646 C 166.650 303.439,167.123 312.266,160.889 314.671 C 157.956 315.803,58.844 315.803,55.911 314.671 C 52.495 313.353,50.636 309.876,51.603 306.616 C 52.145 304.792,55.020 301.763,56.475 301.486 C 58.698 301.061,158.641 301.216,160.191 301.646 M311.100 302.048 C 316.315 304.573,316.481 311.767,311.384 314.390 L 309.421 315.400 258.211 315.400 L 207.000 315.400 205.212 314.399 C 199.939 311.446,200.574 303.812,206.262 301.783 C 207.533 301.330,216.615 301.232,258.574 301.218 L 309.347 301.200 311.100 302.048 " stroke="none" fill="#747474" fill-rule="evenodd"></path><path id="path4" d="M11.275 1.610 C 10.547 2.458,9.557 3.928,9.075 4.876 L 8.200 6.600 8.096 183.600 C 7.994 359.010,8.000 360.642,8.793 365.242 C 11.281 379.686,20.281 391.000,34.086 397.038 C 36.302 398.007,38.315 398.801,38.558 398.802 C 38.801 398.804,39.522 399.077,40.160 399.410 C 40.797 399.742,41.410 399.923,41.521 399.812 C 41.744 399.590,39.094 398.400,38.375 398.400 C 38.127 398.400,35.545 397.248,32.636 395.839 C 19.818 389.632,11.980 379.561,9.316 365.876 C 8.351 360.921,8.183 8.581,9.144 5.862 C 9.442 5.016,10.480 3.351,11.448 2.162 C 13.445 -0.290,13.302 -0.749,11.275 1.610 M353.600 0.043 C 353.600 0.154,354.246 0.949,355.036 1.812 C 358.069 5.122,358.400 6.996,358.400 20.829 C 358.400 30.747,358.455 31.579,359.164 32.456 L 359.928 33.400 372.664 33.600 C 387.418 33.832,387.808 33.924,390.184 37.769 L 391.400 39.737 391.502 215.760 C 391.615 411.634,391.873 394.214,388.808 397.696 C 387.923 398.701,387.200 399.626,387.200 399.752 C 387.200 400.236,390.329 396.532,391.046 395.200 C 391.972 393.481,392.483 43.078,391.565 39.717 C 391.312 38.791,390.479 37.301,389.713 36.406 C 387.129 33.388,387.316 33.424,373.114 33.200 C 361.635 33.019,360.359 32.932,359.714 32.287 C 359.069 31.643,358.981 30.383,358.800 19.287 L 358.600 7.000 357.517 4.795 C 356.632 2.992,353.600 -0.685,353.600 0.043 M27.200 16.684 C 26.192 17.054,25.200 18.089,25.206 18.762 C 25.210 19.160,25.402 19.024,25.718 18.400 L 26.224 17.400 182.867 17.299 C 336.615 17.201,339.528 17.213,340.455 17.964 L 341.400 18.729 341.502 182.415 C 341.606 349.400,341.612 348.715,340.096 349.459 C 339.713 349.646,269.200 349.891,183.400 350.003 L 27.400 350.206 183.689 350.203 L 339.978 350.200 340.889 349.289 L 341.800 348.378 341.800 183.450 C 341.800 45.087,341.712 18.418,341.257 17.868 C 340.958 17.508,340.058 17.032,339.257 16.809 C 337.724 16.383,28.355 16.259,27.200 16.684 M24.905 183.600 C 24.806 357.716,24.723 349.583,26.610 349.944 C 27.289 350.073,27.260 349.981,26.400 349.283 L 25.400 348.471 25.199 183.935 L 24.998 19.400 24.905 183.600 M46.553 34.161 C 44.382 35.172,42.803 36.927,42.055 39.160 C 41.409 41.090,41.410 108.673,42.057 110.831 C 43.883 116.929,51.684 118.767,56.079 114.137 C 58.607 111.473,58.590 111.623,58.703 91.200 C 58.813 71.248,58.840 70.800,59.933 70.800 C 61.166 70.800,65.690 76.576,86.523 104.753 C 94.608 115.687,96.239 117.052,100.821 116.721 C 104.023 116.489,105.982 115.132,107.461 112.120 L 108.600 109.800 108.600 75.200 C 108.600 47.353,108.496 40.305,108.066 39.090 C 105.886 32.929,97.678 31.388,93.499 36.355 C 91.521 38.705,91.462 39.335,91.322 59.200 C 91.186 78.594,91.132 79.600,90.239 79.600 C 89.326 79.600,87.470 77.264,72.588 57.386 C 53.166 31.446,52.898 31.206,46.553 34.161 M129.724 34.213 C 124.662 36.735,124.805 35.552,124.802 75.123 C 124.800 111.718,124.775 111.292,127.046 113.945 C 129.561 116.884,130.283 117.000,146.000 117.000 L 159.800 117.000 162.059 115.941 C 168.238 113.044,168.406 104.068,162.339 101.044 C 160.311 100.034,160.008 100.000,152.971 100.000 C 141.765 100.000,141.998 100.168,142.002 92.113 C 142.006 83.527,141.806 83.686,152.800 83.510 C 163.685 83.335,166.800 81.434,166.800 74.967 C 166.800 68.620,162.785 66.426,151.144 66.410 C 141.688 66.397,142.237 66.861,142.087 58.736 C 142.005 54.264,142.116 52.329,142.498 51.600 L 143.022 50.600 150.611 50.387 L 158.200 50.173 150.762 50.087 C 141.295 49.976,141.852 49.546,141.668 57.106 C 141.425 67.058,140.904 66.541,151.467 66.819 C 163.548 67.136,166.959 69.241,166.311 75.981 C 165.771 81.609,162.473 83.175,151.122 83.190 C 144.225 83.200,144.016 83.225,142.922 84.165 L 141.800 85.130 141.800 91.753 C 141.800 100.801,140.997 100.140,152.310 100.400 C 159.377 100.563,161.224 100.724,162.200 101.262 C 168.330 104.643,167.539 113.720,160.910 116.066 C 159.762 116.472,156.093 116.600,145.600 116.600 L 131.800 116.600 129.802 115.600 C 128.342 114.869,127.481 114.070,126.602 112.631 L 125.400 110.663 125.400 75.231 L 125.400 39.800 126.296 38.123 C 127.294 36.258,129.103 34.744,131.160 34.055 C 133.397 33.306,158.575 33.436,160.841 34.208 C 168.816 36.925,167.944 47.779,159.600 49.658 C 158.287 49.954,158.308 49.964,159.929 49.821 C 167.724 49.133,169.234 37.955,162.026 34.300 L 159.857 33.200 145.807 33.200 L 131.757 33.200 129.724 34.213 M180.200 33.960 C 173.621 37.012,173.666 39.463,180.805 67.200 C 181.456 69.730,184.172 80.530,186.842 91.200 C 192.975 115.719,193.548 116.809,200.287 116.796 C 205.576 116.786,206.963 114.846,211.637 100.923 C 215.032 90.810,216.159 88.357,217.134 88.959 C 217.644 89.274,218.466 91.436,222.225 102.339 C 223.844 107.035,225.636 111.674,226.207 112.648 C 229.519 118.300,237.869 118.145,240.812 112.377 C 241.838 110.365,242.765 106.841,250.795 74.400 C 253.437 63.730,256.228 52.594,256.999 49.653 C 259.505 40.088,258.710 36.664,253.400 34.153 C 250.810 32.929,249.050 32.954,246.442 34.254 C 242.564 36.186,242.403 36.563,238.242 53.400 C 231.840 79.309,232.509 78.600,227.685 64.600 C 223.463 52.345,222.530 51.200,216.761 51.200 C 210.782 51.200,209.865 52.343,205.380 65.389 C 201.266 77.357,201.120 77.344,198.016 64.691 C 191.141 36.673,191.553 38.022,189.175 35.697 C 186.777 33.353,183.059 32.633,180.200 33.960 M291.281 34.009 C 279.882 36.995,274.299 46.126,274.898 60.800 C 275.473 74.868,283.614 82.716,298.517 83.569 C 306.898 84.049,307.722 84.787,307.940 92.000 C 308.192 100.361,308.861 99.996,293.250 100.009 C 280.832 100.019,280.160 100.145,277.713 102.932 C 273.997 107.164,275.650 113.866,281.005 116.281 C 283.281 117.307,306.621 117.582,311.159 116.635 C 317.914 115.227,322.734 110.979,324.556 104.827 C 325.454 101.798,325.479 86.864,324.593 83.384 C 321.900 72.812,312.561 66.400,299.856 66.400 C 294.003 66.400,292.002 64.327,292.001 58.260 C 291.999 50.835,292.318 50.660,306.400 50.385 L 317.400 50.170 306.800 50.085 C 292.280 49.970,291.800 50.230,291.800 58.200 C 291.800 64.675,293.726 66.800,299.595 66.800 C 308.208 66.800,313.435 68.712,318.503 73.714 C 323.978 79.119,324.906 82.308,324.727 95.115 L 324.600 104.200 323.323 106.896 C 320.915 111.978,316.173 115.459,310.400 116.379 C 307.046 116.914,285.968 116.925,283.164 116.393 C 275.844 115.005,273.626 106.001,279.569 101.800 L 281.267 100.600 293.823 100.400 C 309.347 100.153,308.137 100.738,308.333 93.384 C 308.558 84.891,307.450 83.675,299.010 83.158 C 292.686 82.771,290.648 82.349,287.213 80.714 C 271.459 73.218,270.842 44.626,286.254 36.309 C 291.642 33.401,315.158 32.192,320.247 34.561 C 327.070 37.738,326.033 47.871,318.708 49.608 C 317.732 49.839,317.632 49.928,318.316 49.959 C 326.748 50.336,327.490 35.978,319.162 33.589 C 316.469 32.817,294.572 33.147,291.281 34.009 M52.514 34.233 C 55.038 35.092,56.570 36.733,63.428 45.919 C 66.664 50.254,70.209 54.970,71.304 56.400 C 72.400 57.830,76.179 62.870,79.702 67.600 C 87.571 78.164,89.444 80.400,90.423 80.400 C 91.560 80.400,91.574 80.178,91.726 59.600 C 91.883 38.323,91.862 38.494,94.608 36.076 C 99.297 31.949,105.966 33.715,107.657 39.532 C 108.429 42.189,108.459 108.145,107.689 110.682 C 106.046 116.096,99.913 118.063,95.107 114.717 C 94.219 114.098,85.404 102.694,76.622 90.803 C 74.803 88.341,66.377 77.146,63.433 73.281 C 58.575 66.903,58.642 66.681,58.382 89.919 C 58.149 110.682,58.139 110.788,56.091 113.544 C 52.498 118.379,44.091 116.514,42.424 110.511 C 41.840 108.407,41.844 41.577,42.429 39.472 C 43.609 35.222,48.287 32.792,52.514 34.233 M187.336 34.900 C 190.655 36.735,191.141 37.985,195.224 55.200 C 201.166 80.250,200.939 80.029,205.789 65.522 C 210.049 52.782,210.989 51.600,216.866 51.600 C 222.148 51.600,223.144 52.854,227.237 64.657 C 231.629 77.322,232.490 77.913,234.583 69.701 C 235.073 67.776,236.036 64.040,236.721 61.400 C 237.407 58.760,238.896 52.820,240.031 48.200 C 242.721 37.248,243.602 35.619,247.606 34.191 C 254.075 31.884,259.538 38.105,257.623 45.600 C 257.427 46.370,256.517 49.880,255.603 53.400 C 253.104 63.017,248.724 80.578,247.023 87.800 C 240.847 114.013,239.942 115.972,233.853 116.300 C 228.371 116.596,227.100 114.894,222.029 100.462 C 216.239 83.985,216.873 83.928,211.024 101.448 C 207.231 112.810,206.449 114.271,203.428 115.643 C 198.031 118.094,193.059 114.835,191.414 107.768 C 190.560 104.096,185.319 83.123,181.276 67.200 C 175.167 43.133,174.822 41.093,176.357 38.084 C 178.446 33.991,183.199 32.613,187.336 34.900 M359.376 50.568 C 358.611 51.128,358.597 53.277,358.400 205.468 C 358.209 352.604,358.167 359.874,357.485 361.385 C 356.490 363.590,355.708 364.369,353.400 365.453 L 351.400 366.392 191.150 366.396 C 103.013 366.398,30.322 366.516,29.615 366.657 C 23.685 367.843,33.133 379.204,42.800 382.511 L 45.400 383.400 209.249 383.506 C 370.480 383.610,373.113 383.599,374.049 382.841 L 375.000 382.071 375.101 216.967 C 375.192 69.489,375.138 51.764,374.592 50.932 C 373.831 49.770,360.892 49.460,359.376 50.568 M374.069 51.062 C 374.775 51.701,374.800 57.375,374.800 216.480 L 374.800 381.236 373.812 382.224 L 372.825 383.211 209.312 383.106 L 45.800 383.000 43.000 382.062 C 34.542 379.227,25.147 369.279,29.100 367.343 C 29.485 367.154,102.430 366.910,191.200 366.800 C 340.789 366.615,352.688 366.551,353.800 365.934 C 355.465 365.010,357.387 362.867,358.046 361.200 C 358.514 360.018,358.616 335.844,358.703 205.828 C 358.798 63.493,358.856 51.801,359.465 51.128 C 360.414 50.079,372.920 50.023,374.069 51.062 M46.349 134.319 C 44.063 135.513,42.658 137.207,42.006 139.553 C 41.439 141.596,41.456 242.065,42.024 244.111 C 42.549 246.003,44.458 248.209,46.446 249.224 C 48.833 250.441,167.967 250.441,170.354 249.224 C 172.342 248.209,174.251 246.003,174.776 244.111 C 175.059 243.093,175.196 225.887,175.198 191.379 L 175.200 140.157 174.187 138.124 C 173.177 136.098,171.324 134.466,169.074 133.622 C 168.302 133.333,149.168 133.200,108.220 133.200 L 48.491 133.200 46.349 134.319 M205.023 134.019 C 198.706 137.170,198.324 145.880,204.363 149.069 L 206.126 150.000 258.237 150.000 C 313.957 150.000,311.618 150.089,313.935 147.875 C 318.448 143.564,317.539 137.095,312.026 134.300 L 309.857 133.200 258.228 133.216 C 207.705 133.232,206.566 133.249,205.023 134.019 M168.940 134.089 C 171.170 134.757,173.806 137.369,174.367 139.465 C 174.685 140.656,174.782 155.795,174.706 192.694 L 174.600 244.259 173.600 245.736 C 173.050 246.548,171.895 247.705,171.034 248.306 L 169.468 249.400 108.369 249.400 L 47.269 249.400 45.570 248.200 C 41.893 245.603,42.214 250.752,42.096 192.459 C 42.021 155.828,42.118 140.643,42.435 139.459 C 42.964 137.479,45.601 134.766,47.624 134.121 C 49.712 133.455,166.721 133.424,168.940 134.089 M310.528 134.029 C 317.236 135.891,318.290 145.231,312.183 148.690 L 310.600 149.587 258.484 149.593 C 206.918 149.600,206.351 149.591,204.779 148.789 C 198.872 145.776,199.241 137.142,205.397 134.346 C 207.309 133.477,307.454 133.175,310.528 134.029 M60.600 150.023 C 58.282 150.721,58.400 148.492,58.400 191.676 C 58.400 237.541,57.950 232.928,62.464 233.386 C 69.554 234.107,156.693 233.421,157.558 232.638 L 158.400 231.876 158.400 191.782 C 158.400 152.903,158.377 151.660,157.635 150.744 L 156.871 149.800 109.335 149.731 C 82.004 149.691,61.290 149.816,60.600 150.023 M157.158 150.962 L 158.000 151.724 158.000 191.600 C 158.000 229.790,157.969 231.504,157.265 232.141 C 156.545 232.792,141.253 232.898,61.900 232.802 C 58.531 232.798,58.800 236.365,58.800 191.689 C 58.800 148.442,58.677 150.658,61.104 150.283 C 65.509 149.602,156.365 150.244,157.158 150.962 M206.397 166.771 C 200.077 168.712,197.918 176.007,202.245 180.797 C 204.939 183.780,201.336 183.600,258.571 183.596 L 309.800 183.592 311.800 182.653 C 318.301 179.599,318.390 170.847,311.955 167.339 C 310.517 166.555,208.881 166.008,206.397 166.771 M310.488 167.218 C 318.002 169.305,318.019 180.691,310.511 182.776 C 308.465 183.344,208.396 183.361,206.353 182.794 C 198.894 180.722,198.508 169.980,205.800 167.401 C 207.815 166.688,307.950 166.513,310.488 167.218 M205.000 200.758 C 198.413 203.808,198.391 212.607,204.962 216.124 L 206.600 217.000 257.372 217.107 C 313.507 217.226,310.846 217.340,313.861 214.693 C 318.578 210.551,317.326 203.049,311.513 200.621 C 309.009 199.575,207.272 199.706,205.000 200.758 M312.835 201.800 C 318.785 205.991,316.801 214.818,309.560 216.371 C 305.997 217.135,209.063 216.954,206.451 216.178 C 200.421 214.387,198.453 207.147,202.811 202.789 C 205.232 200.368,202.922 200.461,259.066 200.533 L 311.131 200.600 312.835 201.800 M206.685 233.369 C 199.496 235.302,197.682 244.499,203.670 248.649 L 205.332 249.800 258.395 249.800 L 311.458 249.800 313.123 248.698 C 319.350 244.578,317.132 234.853,309.598 233.237 C 306.430 232.558,209.239 232.682,206.685 233.369 M312.000 234.646 C 317.846 237.957,317.799 245.822,311.916 248.839 C 310.480 249.576,308.758 249.600,258.400 249.600 C 208.042 249.600,206.320 249.576,204.884 248.839 C 197.865 245.239,199.452 235.495,207.370 233.572 C 208.046 233.407,231.370 233.301,259.200 233.336 L 309.800 233.400 312.000 234.646 M56.931 266.814 C 48.209 268.558,47.473 280.904,55.954 283.188 C 59.400 284.116,160.351 283.530,162.179 282.572 C 168.339 279.340,168.350 270.680,162.197 267.600 L 160.200 266.600 109.400 266.540 C 81.460 266.507,57.849 266.630,56.931 266.814 M206.328 266.954 C 199.072 268.923,197.724 278.094,204.074 282.297 L 205.741 283.400 257.171 283.514 C 293.859 283.595,309.116 283.501,310.400 283.184 C 317.807 281.357,319.001 271.099,312.211 267.620 L 310.222 266.600 259.211 266.523 C 219.039 266.463,207.802 266.554,206.328 266.954 M159.398 267.197 C 167.052 268.451,169.021 278.049,162.420 281.930 L 160.600 283.000 109.200 283.119 C 71.469 283.206,57.375 283.116,56.200 282.780 C 47.795 280.374,48.653 268.471,57.322 267.203 C 60.501 266.739,156.563 266.733,159.398 267.197 M311.395 267.719 C 318.245 270.808,317.717 280.775,310.599 282.752 C 308.251 283.404,207.505 283.322,205.699 282.667 C 197.934 279.851,199.169 268.605,207.400 267.170 C 211.529 266.450,309.731 266.969,311.395 267.719 M54.986 300.560 C 47.995 303.606,48.563 313.876,55.866 316.458 C 58.141 317.262,158.659 317.262,160.934 316.458 C 168.391 313.822,168.653 303.158,161.330 300.373 C 159.651 299.735,56.464 299.916,54.986 300.560 M205.000 300.758 C 198.035 303.983,198.581 313.883,205.866 316.458 C 208.379 317.346,309.246 317.253,311.200 316.361 C 318.246 313.143,318.685 304.210,311.966 300.782 C 309.631 299.591,207.570 299.568,205.000 300.758 M162.010 301.300 C 168.372 304.518,167.641 313.668,160.840 315.945 C 158.902 316.594,57.898 316.594,55.960 315.945 C 48.994 313.612,48.405 304.459,55.000 301.029 C 56.069 300.473,61.869 300.405,108.215 300.402 L 160.230 300.400 162.010 301.300 M312.037 301.331 C 317.650 304.296,317.652 312.355,312.041 315.286 L 309.909 316.400 258.341 316.400 L 206.773 316.400 204.863 315.432 C 199.061 312.492,199.018 304.219,204.790 301.300 L 206.570 300.400 258.422 300.400 L 310.274 300.400 312.037 301.331 " stroke="none" fill="#848484" fill-rule="evenodd"></path></g></svg>