<svg id="svg" version="1.1" xmlns="http://www.w3.org/2000/svg" xmlns:xlink="http://www.w3.org/1999/xlink" width="400" height="400" viewBox="0, 0, 400,400"><g id="svgg"><path id="path0" d="M225.613 71.040 C 221.988 72.015,220.335 73.424,206.569 87.281 C 190.141 103.818,188.881 105.994,190.380 115.230 C 191.464 121.905,191.148 121.514,213.792 144.214 C 224.924 155.374,233.965 164.706,233.883 164.952 C 233.773 165.280,209.225 165.459,142.167 165.619 C 41.449 165.860,47.635 165.697,43.324 168.224 C 38.222 171.213,37.800 173.625,37.800 199.800 C 37.800 228.526,38.320 230.579,46.275 233.276 L 49.000 234.200 141.400 234.406 C 192.220 234.519,233.845 234.654,233.900 234.706 C 234.415 235.190,231.386 238.406,213.666 256.191 C 195.328 274.596,193.209 276.855,192.091 279.200 C 189.424 284.788,189.475 291.544,192.225 297.196 C 194.075 300.997,218.854 326.008,222.687 327.943 C 228.522 330.889,237.803 330.559,242.832 327.228 C 245.041 325.765,357.265 213.648,358.764 211.408 C 362.736 205.467,363.063 196.647,359.553 190.088 C 358.212 187.582,248.582 77.366,243.869 73.784 C 239.643 70.573,231.760 69.388,225.613 71.040 M235.421 89.383 C 238.323 90.596,242.663 94.799,291.260 143.467 C 345.810 198.098,343.336 195.403,343.379 200.216 C 343.397 202.281,343.201 202.959,342.028 204.895 C 340.152 207.991,240.225 307.952,237.013 309.945 C 231.504 313.365,228.895 312.229,218.486 301.874 C 209.936 293.368,208.800 291.754,208.800 288.108 C 208.800 283.851,208.507 284.187,238.973 253.600 C 271.265 221.181,269.919 222.759,267.071 220.640 L 265.941 219.800 163.071 219.600 L 60.200 219.400 58.139 218.468 C 53.173 216.221,52.710 214.532,52.874 199.235 L 53.000 187.400 54.104 185.304 C 54.983 183.638,55.638 182.983,57.304 182.104 L 59.400 181.000 69.400 180.900 C 74.900 180.845,121.070 180.743,172.000 180.674 C 222.930 180.605,265.027 180.431,265.550 180.288 C 271.298 178.708,271.637 179.140,239.052 146.509 C 208.750 116.166,208.800 116.222,208.800 112.141 C 208.800 108.434,210.012 106.683,218.348 98.348 C 227.849 88.848,230.637 87.384,235.421 89.383 M193.000 112.187 C 193.000 114.049,192.878 115.264,192.728 114.886 C 192.236 113.644,192.407 108.796,192.943 108.801 C 192.974 108.801,193.000 110.325,193.000 112.187 M40.500 179.700 C 40.391 180.965,40.179 182.000,40.031 182.000 C 39.757 182.000,39.874 179.782,40.239 178.053 C 40.578 176.449,40.710 177.282,40.500 179.700 M359.684 200.000 C 359.684 201.567,359.575 202.958,359.442 203.091 C 359.309 203.224,359.200 201.833,359.200 200.000 C 359.200 198.167,359.309 196.776,359.442 196.909 C 359.575 197.042,359.684 198.433,359.684 200.000 M40.522 220.557 C 40.653 221.887,40.603 222.758,40.408 222.557 C 40.118 222.258,39.834 219.504,39.963 218.233 C 40.054 217.334,40.309 218.392,40.522 220.557 M193.000 288.187 C 193.000 290.049,192.878 291.264,192.728 290.886 C 192.236 289.644,192.407 284.796,192.943 284.801 C 192.974 284.801,193.000 286.325,193.000 288.187 " stroke="none" fill="#1f2a30" fill-rule="evenodd"></path><path id="path1" d="M227.800 89.867 C 224.937 91.341,211.265 105.065,209.848 107.887 C 208.400 110.769,208.418 113.595,209.900 116.364 C 210.716 117.888,218.236 125.665,239.052 146.509 C 271.637 179.140,271.298 178.708,265.550 180.288 C 265.027 180.431,222.930 180.605,172.000 180.674 C 121.070 180.743,74.900 180.845,69.400 180.900 L 59.400 181.000 57.304 182.104 C 55.638 182.983,54.983 183.638,54.104 185.304 L 53.000 187.400 52.874 199.235 C 52.710 214.532,53.173 216.221,58.139 218.468 L 60.200 219.400 163.071 219.600 L 265.941 219.800 267.071 220.640 C 269.919 222.759,271.265 221.181,238.973 253.600 C 208.507 284.187,208.800 283.851,208.800 288.108 C 208.800 291.754,209.936 293.368,218.486 301.874 C 228.895 312.229,231.504 313.365,237.013 309.945 C 240.225 307.952,340.152 207.991,342.028 204.895 C 343.849 201.891,343.916 198.900,342.238 195.600 C 341.049 193.262,244.101 95.637,239.108 91.750 C 234.921 88.491,231.560 87.931,227.800 89.867 M236.887 94.511 C 241.147 97.458,337.361 194.320,338.598 196.906 C 339.802 199.427,339.789 201.261,338.548 203.742 C 337.693 205.452,238.694 304.511,236.287 306.065 C 231.844 308.934,229.522 307.972,221.259 299.842 C 212.802 291.521,211.510 288.949,213.642 284.684 C 214.206 283.555,223.963 273.501,243.224 254.200 C 263.221 234.161,272.152 224.948,272.582 223.913 C 273.798 220.986,273.036 218.809,270.265 217.292 C 269.078 216.643,262.636 216.588,165.400 216.400 L 61.800 216.200 59.851 215.240 C 56.249 213.468,55.939 212.169,56.081 199.493 L 56.200 188.939 57.274 187.318 C 57.915 186.349,59.041 185.362,60.074 184.864 L 61.800 184.032 165.000 183.916 C 279.678 183.787,270.271 184.016,272.407 181.300 C 275.131 177.837,275.036 177.722,243.259 145.899 C 210.485 113.075,211.070 113.811,213.646 108.684 C 214.701 106.585,226.407 94.811,228.600 93.642 C 231.098 92.311,234.173 92.634,236.887 94.511 M192.643 109.433 C 192.323 110.265,192.382 114.012,192.728 114.886 C 192.878 115.264,193.000 114.049,193.000 112.187 C 193.000 108.510,192.999 108.504,192.643 109.433 M40.239 178.053 C 39.874 179.782,39.757 182.000,40.031 182.000 C 40.179 182.000,40.391 180.965,40.500 179.700 C 40.710 177.282,40.578 176.449,40.239 178.053 M359.200 200.000 C 359.200 201.833,359.309 203.224,359.442 203.091 C 359.575 202.958,359.684 201.567,359.684 200.000 C 359.684 198.433,359.575 197.042,359.442 196.909 C 359.309 196.776,359.200 198.167,359.200 200.000 M39.963 218.233 C 39.834 219.504,40.118 222.258,40.408 222.557 C 40.603 222.758,40.653 221.887,40.522 220.557 C 40.309 218.392,40.054 217.334,39.963 218.233 M192.643 285.433 C 192.323 286.265,192.382 290.012,192.728 290.886 C 192.878 291.264,193.000 290.049,193.000 288.187 C 193.000 284.510,192.999 284.504,192.643 285.433 " stroke="none" fill="#2e5454" fill-rule="evenodd"></path><path id="path2" d="M228.600 93.642 C 226.407 94.811,214.701 106.585,213.646 108.684 C 211.070 113.811,210.485 113.075,243.259 145.899 C 275.036 177.722,275.131 177.837,272.407 181.300 C 270.271 184.016,279.678 183.787,165.000 183.916 L 61.800 184.032 60.074 184.864 C 59.041 185.362,57.915 186.349,57.274 187.318 L 56.200 188.939 56.081 199.493 C 55.939 212.169,56.249 213.468,59.851 215.240 L 61.800 216.200 165.400 216.400 C 262.636 216.588,269.078 216.643,270.265 217.292 C 273.036 218.809,273.798 220.986,272.582 223.913 C 272.152 224.948,263.221 234.161,243.224 254.200 C 223.963 273.501,214.206 283.555,213.642 284.684 C 211.510 288.949,212.802 291.521,221.259 299.842 C 229.522 307.972,231.844 308.934,236.287 306.065 C 238.694 304.511,337.693 205.452,338.548 203.742 C 339.789 201.261,339.802 199.427,338.598 196.906 C 337.361 194.320,241.147 97.458,236.887 94.511 C 234.173 92.634,231.098 92.311,228.600 93.642 M235.394 97.706 C 237.825 99.373,333.974 195.760,334.847 197.406 C 336.155 199.872,335.698 202.054,333.285 204.866 C 329.890 208.822,236.025 302.181,234.696 302.924 C 231.594 304.658,228.870 303.223,222.150 296.315 C 216.790 290.806,215.724 288.451,217.245 285.477 C 217.492 284.995,230.507 271.730,246.167 256.000 C 268.299 233.771,274.894 226.919,275.777 225.243 C 278.408 220.245,276.613 215.756,271.247 213.911 C 270.114 213.521,247.353 213.369,166.400 213.207 C 52.225 212.978,61.466 213.218,59.854 210.449 C 58.222 207.648,58.442 192.045,60.148 189.510 C 61.981 186.787,52.761 187.021,167.000 186.800 C 265.675 186.610,270.676 186.566,272.200 185.880 C 277.067 183.689,278.360 179.205,275.509 174.400 C 275.052 173.630,261.946 160.220,246.383 144.600 C 230.820 128.980,217.770 115.570,217.382 114.801 C 215.636 111.337,216.501 109.627,223.494 102.714 C 230.070 96.215,232.021 95.394,235.394 97.706 M236.800 114.800 C 234.346 117.254,235.439 118.698,253.366 136.712 C 271.557 154.992,272.561 155.762,275.346 153.571 C 278.449 151.130,276.857 148.971,258.534 130.766 C 241.070 113.414,239.407 112.193,236.800 114.800 M296.800 174.800 C 295.246 176.354,296.242 179.480,299.119 182.079 C 304.472 186.915,308.968 182.645,304.373 177.088 C 302.043 174.271,298.423 173.177,296.800 174.800 M317.029 195.029 C 315.462 196.595,317.243 199.600,319.738 199.600 C 321.227 199.600,321.600 199.118,321.600 197.196 C 321.600 195.061,318.477 193.580,317.029 195.029 M298.600 218.858 C 296.311 220.035,237.948 278.460,236.840 280.684 C 234.682 285.012,237.201 287.596,241.574 285.542 C 244.215 284.301,302.312 226.207,303.545 223.574 C 305.652 219.075,303.034 216.578,298.600 218.858 " stroke="none" fill="#3c8474" fill-rule="evenodd"></path><path id="path3" d="M228.112 102.004 C 218.620 109.684,218.089 112.890,225.239 119.353 C 234.722 127.923,275.150 169.039,277.610 172.615 C 282.038 179.050,280.087 186.078,273.200 188.499 C 272.112 188.882,248.749 189.037,168.200 189.196 C 88.219 189.353,64.408 189.510,63.757 189.884 C 61.615 191.112,61.400 192.037,61.400 200.039 C 61.400 207.898,61.587 208.866,63.324 210.019 C 64.082 210.522,78.091 210.628,167.600 210.806 C 278.675 211.028,272.163 210.893,275.889 213.046 C 280.005 215.423,281.087 221.174,278.441 226.608 C 277.090 229.382,243.040 264.263,227.688 278.600 C 217.840 287.797,217.793 288.304,226.046 296.241 C 231.690 301.668,234.203 301.529,238.606 295.549 C 241.123 292.130,240.892 291.708,235.907 290.626 C 231.516 289.672,230.090 284.515,232.857 279.598 C 235.282 275.290,294.528 216.604,298.402 214.674 C 303.391 212.188,307.577 213.811,309.039 218.800 C 310.373 223.348,311.386 223.014,318.797 215.582 C 332.554 201.785,333.711 199.985,330.586 197.241 C 328.161 195.112,327.516 195.482,326.976 199.311 C 325.683 208.464,312.485 205.390,311.333 195.667 C 310.873 191.778,312.510 189.986,317.215 189.228 C 320.932 188.630,321.130 188.081,318.796 184.858 C 315.266 179.985,311.887 178.847,311.198 182.300 C 309.901 188.799,306.680 190.505,300.838 187.786 C 290.369 182.913,288.334 171.055,297.652 169.222 C 301.771 168.411,300.991 166.576,293.229 158.814 C 283.769 149.354,282.390 148.712,281.170 153.200 C 279.646 158.806,274.296 160.409,268.672 156.944 C 266.296 155.481,235.203 124.265,233.444 121.578 C 229.466 115.498,231.168 110.497,237.652 109.222 C 241.168 108.530,241.084 107.179,237.270 103.102 C 233.683 99.268,231.776 99.039,228.112 102.004 M235.396 103.669 C 236.746 105.272,236.676 106.286,235.160 107.119 C 230.864 109.479,229.363 111.519,228.940 115.573 C 228.636 118.478,228.051 118.821,225.922 117.346 C 220.523 113.604,220.562 111.726,226.151 106.184 C 231.203 101.174,232.907 100.710,235.396 103.669 M288.279 156.338 C 291.705 159.197,295.945 163.843,296.254 165.075 C 296.550 166.251,296.512 166.292,293.012 168.529 C 284.816 173.767,291.604 187.502,304.134 191.038 C 307.845 192.085,308.574 192.743,308.934 195.370 C 309.647 200.575,313.620 204.941,319.700 207.202 C 323.030 208.440,322.588 209.880,317.358 214.833 C 313.561 218.428,312.426 218.706,311.050 216.377 C 306.607 208.855,299.906 209.784,290.153 219.273 C 282.174 227.036,281.909 227.089,281.569 220.985 C 281.284 215.867,280.209 213.742,276.901 211.758 C 273.140 209.502,278.044 209.600,168.382 209.600 C 55.022 209.600,64.035 209.831,63.222 206.903 C 62.673 204.928,62.679 194.865,63.230 193.286 C 64.173 190.579,54.971 190.801,166.886 190.792 C 232.019 190.787,269.185 190.642,270.957 190.386 C 282.800 188.674,285.228 178.399,276.156 168.385 C 270.462 162.099,270.246 161.347,274.031 160.953 C 278.500 160.488,280.654 159.319,282.808 156.188 C 284.426 153.836,285.312 153.860,288.279 156.338 M228.708 283.400 C 229.129 288.091,230.562 290.535,233.952 292.342 C 236.909 293.918,237.052 294.642,234.847 296.847 C 232.268 299.426,231.081 298.990,225.700 293.490 C 220.725 288.405,220.679 286.817,225.400 283.223 C 227.411 281.692,228.560 281.753,228.708 283.400 " stroke="none" fill="#4cb498" fill-rule="evenodd"></path><path id="path4" d="M230.020 97.040 C 228.516 97.682,218.828 107.029,217.574 109.049 C 214.993 113.204,214.521 112.620,246.383 144.600 C 261.946 160.220,275.052 173.630,275.509 174.400 C 278.360 179.205,277.067 183.689,272.200 185.880 C 270.676 186.566,265.675 186.610,167.000 186.800 C 52.761 187.021,61.981 186.787,60.148 189.510 C 58.442 192.045,58.222 207.648,59.854 210.449 C 61.466 213.218,52.225 212.978,166.400 213.207 C 247.353 213.369,270.114 213.521,271.247 213.911 C 276.613 215.756,278.408 220.245,275.777 225.243 C 274.894 226.919,268.299 233.771,246.167 256.000 C 216.429 285.870,216.832 285.434,216.736 287.878 C 216.584 291.758,227.418 303.033,231.724 303.476 C 234.456 303.757,233.997 304.189,283.696 254.631 C 336.294 202.183,335.050 203.476,335.443 200.856 C 335.920 197.672,336.412 198.200,285.289 147.151 C 229.590 91.533,233.858 95.403,230.020 97.040 M234.332 100.565 C 236.736 101.808,240.729 106.966,240.251 108.212 C 240.137 108.508,238.967 108.963,237.652 109.222 C 231.168 110.497,229.466 115.498,233.444 121.578 C 235.203 124.265,266.296 155.481,268.672 156.944 C 274.296 160.409,279.646 158.806,281.170 153.200 C 282.390 148.712,283.769 149.354,293.229 158.814 C 300.991 166.576,301.771 168.411,297.652 169.222 C 288.334 171.055,290.369 182.913,300.838 187.786 C 306.680 190.505,309.901 188.799,311.198 182.300 C 311.887 178.847,315.266 179.985,318.796 184.858 C 321.130 188.081,320.932 188.630,317.215 189.228 C 312.510 189.986,310.873 191.778,311.333 195.667 C 312.485 205.390,325.683 208.464,326.976 199.311 C 327.516 195.482,328.161 195.112,330.586 197.241 C 333.711 199.985,332.554 201.785,318.797 215.582 C 311.386 223.014,310.373 223.348,309.039 218.800 C 307.577 213.811,303.391 212.188,298.402 214.674 C 294.528 216.604,235.282 275.290,232.857 279.598 C 230.090 284.515,231.516 289.672,235.907 290.626 C 240.892 291.708,241.123 292.130,238.606 295.549 C 234.203 301.529,231.690 301.668,226.046 296.241 C 217.793 288.304,217.840 287.797,227.688 278.600 C 243.040 264.263,277.090 229.382,278.441 226.608 C 281.087 221.174,280.005 215.423,275.889 213.046 C 272.163 210.893,278.675 211.028,167.600 210.806 C 78.091 210.628,64.082 210.522,63.324 210.019 C 61.587 208.866,61.400 207.898,61.400 200.039 C 61.400 192.037,61.615 191.112,63.757 189.884 C 64.408 189.510,88.219 189.353,168.200 189.196 C 248.749 189.037,272.112 188.882,273.200 188.499 C 280.087 186.078,282.038 179.050,277.610 172.615 C 275.150 169.039,234.722 127.923,225.239 119.353 C 218.999 113.713,218.667 112.058,222.818 107.263 C 228.351 100.871,231.444 99.071,234.332 100.565 M241.540 114.666 C 243.589 115.601,273.707 145.578,275.230 148.200 C 277.824 152.663,275.430 155.745,271.026 153.612 C 268.878 152.571,237.602 121.194,236.666 119.140 C 234.846 115.147,237.417 112.786,241.540 114.666 M301.577 174.788 C 304.672 176.367,307.037 180.485,306.069 182.609 C 305.022 184.906,301.991 184.674,299.119 182.079 C 293.993 177.449,295.872 171.878,301.577 174.788 M320.546 195.229 C 321.590 196.050,321.910 197.526,321.357 198.967 C 320.947 200.036,318.525 199.776,317.381 198.542 C 314.933 195.900,317.707 192.996,320.546 195.229 M303.600 218.800 C 306.420 221.620,306.158 221.932,273.045 255.042 C 239.840 288.243,240.134 287.994,237.054 285.571 C 233.756 282.977,234.035 282.644,267.340 249.341 C 300.286 216.395,300.780 215.980,303.600 218.800 " stroke="none" fill="#4cac94" fill-rule="evenodd"></path><path id="path5" d="M283.783 160.015 C 282.757 160.903,280.766 162.152,279.359 162.790 C 276.236 164.206,276.229 164.358,279.103 168.046 C 285.286 175.977,285.673 184.299,280.086 189.217 C 275.854 192.942,281.101 192.777,166.500 192.789 C 77.438 192.799,66.000 192.868,66.000 193.400 C 66.000 193.730,65.730 194.000,65.400 194.000 C 64.892 194.000,64.800 194.956,64.800 200.200 C 64.800 205.444,64.892 206.400,65.400 206.400 C 65.730 206.400,66.000 206.670,66.000 207.000 C 66.000 207.532,77.612 207.600,168.100 207.603 C 234.544 207.605,271.108 207.747,272.800 208.008 C 278.412 208.877,282.708 212.304,283.413 216.475 C 283.570 217.407,283.902 218.536,284.149 218.985 C 284.397 219.433,284.620 219.850,284.645 219.911 C 284.875 220.488,287.585 218.538,290.431 215.748 C 298.322 208.010,304.716 206.817,311.420 211.832 C 314.261 213.956,314.503 213.977,316.240 212.240 C 318.002 210.478,317.965 210.230,315.700 208.699 C 312.252 206.368,308.859 202.625,307.541 199.697 C 305.580 195.341,305.476 195.165,304.414 194.426 C 303.856 194.038,302.575 193.444,301.566 193.107 C 296.583 191.441,289.904 184.982,287.313 179.322 C 285.238 174.789,286.387 169.746,290.210 166.613 C 292.889 164.418,291.797 161.341,287.573 159.186 C 285.635 158.198,285.966 158.125,283.783 160.015 M288.069 162.262 C 289.208 163.293,288.942 164.499,287.200 166.200 C 286.320 167.059,285.594 167.951,285.587 168.181 C 285.542 169.685,283.678 169.983,282.395 168.690 C 279.303 165.574,279.320 165.485,283.475 163.176 C 286.595 161.442,287.060 161.349,288.069 162.262 M288.472 185.100 C 293.630 190.902,299.829 195.593,302.354 195.603 C 303.060 195.605,303.947 196.922,305.709 200.585 C 306.340 201.897,307.474 203.811,308.228 204.839 C 308.983 205.866,309.600 206.801,309.600 206.915 C 309.600 207.030,307.125 207.187,304.100 207.265 C 297.043 207.448,295.502 208.091,290.414 212.986 C 286.591 216.664,285.823 217.001,285.143 215.300 C 283.507 211.214,282.178 209.517,279.576 208.192 C 275.610 206.173,280.275 206.261,169.700 206.117 L 66.000 205.981 66.000 199.990 L 66.000 194.000 168.900 193.986 C 280.624 193.971,275.763 194.067,279.961 191.783 C 282.404 190.453,285.600 185.649,285.600 183.306 C 285.600 182.635,287.133 183.593,288.472 185.100 " stroke="none" fill="#54bca4" fill-rule="evenodd"></path><path id="path6" d="M231.251 101.918 C 230.707 102.004,228.528 103.827,226.151 106.184 C 220.562 111.726,220.523 113.604,225.922 117.346 C 228.051 118.821,228.636 118.478,228.940 115.573 C 229.363 111.519,230.864 109.479,235.160 107.119 C 237.926 105.599,234.743 101.366,231.251 101.918 M282.808 156.188 C 280.654 159.319,278.500 160.488,274.031 160.953 C 270.246 161.347,270.462 162.099,276.156 168.385 C 285.228 178.399,282.800 188.674,270.957 190.386 C 269.185 190.642,232.019 190.787,166.886 190.792 C 54.971 190.801,64.173 190.579,63.230 193.286 C 62.679 194.865,62.673 204.928,63.222 206.903 C 64.035 209.831,55.022 209.600,168.382 209.600 C 278.044 209.600,273.140 209.502,276.901 211.758 C 280.209 213.742,281.284 215.867,281.569 220.985 C 281.909 227.089,282.174 227.036,290.153 219.273 C 299.906 209.784,306.607 208.855,311.050 216.377 C 312.426 218.706,313.561 218.428,317.358 214.833 C 322.588 209.880,323.030 208.440,319.700 207.202 C 313.620 204.941,309.647 200.575,308.934 195.370 C 308.574 192.743,307.845 192.085,304.134 191.038 C 291.604 187.502,284.816 173.767,293.012 168.529 C 296.512 166.292,296.550 166.251,296.254 165.075 C 295.945 163.843,291.705 159.197,288.279 156.338 C 285.312 153.860,284.426 153.836,282.808 156.188 M287.573 159.186 C 291.797 161.341,292.889 164.418,290.210 166.613 C 286.387 169.746,285.238 174.789,287.313 179.322 C 289.904 184.982,296.583 191.441,301.566 193.107 C 302.575 193.444,303.856 194.038,304.414 194.426 C 305.476 195.165,305.580 195.341,307.541 199.697 C 308.859 202.625,312.252 206.368,315.700 208.699 C 317.965 210.230,318.002 210.478,316.240 212.240 C 314.503 213.977,314.261 213.956,311.420 211.832 C 304.716 206.817,298.322 208.010,290.431 215.748 C 287.585 218.538,284.875 220.488,284.645 219.911 C 284.620 219.850,284.397 219.433,284.149 218.985 C 283.902 218.536,283.570 217.407,283.413 216.475 C 282.708 212.304,278.412 208.877,272.800 208.008 C 271.108 207.747,234.544 207.605,168.100 207.603 C 77.612 207.600,66.000 207.532,66.000 207.000 C 66.000 206.670,65.730 206.400,65.400 206.400 C 64.892 206.400,64.800 205.444,64.800 200.200 C 64.800 194.956,64.892 194.000,65.400 194.000 C 65.730 194.000,66.000 193.730,66.000 193.400 C 66.000 192.868,77.438 192.799,166.500 192.789 C 281.101 192.777,275.854 192.942,280.086 189.217 C 285.673 184.299,285.286 175.977,279.103 168.046 C 276.229 164.358,276.236 164.206,279.359 162.790 C 280.766 162.152,282.757 160.903,283.783 160.015 C 285.966 158.125,285.635 158.198,287.573 159.186 M225.400 283.223 C 220.679 286.817,220.725 288.405,225.700 293.490 C 231.081 298.990,232.268 299.426,234.847 296.847 C 237.052 294.642,236.909 293.918,233.952 292.342 C 230.562 290.535,229.129 288.091,228.708 283.400 C 228.560 281.753,227.411 281.692,225.400 283.223 " stroke="none" fill="#54bc9c" fill-rule="evenodd"></path><path id="path7" d="M283.475 163.176 C 279.320 165.485,279.303 165.574,282.395 168.690 C 283.678 169.983,285.542 169.685,285.587 168.181 C 285.594 167.951,286.320 167.059,287.200 166.200 C 290.911 162.576,288.327 160.479,283.475 163.176 M285.600 183.306 C 285.600 185.649,282.404 190.453,279.961 191.783 C 275.763 194.067,280.624 193.971,168.900 193.986 L 66.000 194.000 66.000 199.990 L 66.000 205.981 169.700 206.117 C 280.275 206.261,275.610 206.173,279.576 208.192 C 282.178 209.517,283.507 211.214,285.143 215.300 C 285.823 217.001,286.591 216.664,290.414 212.986 C 295.502 208.091,297.043 207.448,304.100 207.265 C 307.125 207.187,309.600 207.030,309.600 206.915 C 309.600 206.801,308.983 205.866,308.228 204.839 C 307.474 203.811,306.340 201.897,305.709 200.585 C 303.947 196.922,303.060 195.605,302.354 195.603 C 299.829 195.593,293.630 190.902,288.472 185.100 C 287.133 183.593,285.600 182.635,285.600 183.306 " stroke="none" fill="#54c0a4" fill-rule="evenodd"></path><path id="path8" d="M283.475 163.176 C 279.320 165.485,279.303 165.574,282.395 168.690 C 283.678 169.983,285.542 169.685,285.587 168.181 C 285.594 167.951,286.320 167.059,287.200 166.200 C 290.911 162.576,288.327 160.479,283.475 163.176 M285.600 183.306 C 285.600 185.649,282.404 190.453,279.961 191.783 C 275.763 194.067,280.624 193.971,168.900 193.986 L 66.000 194.000 66.000 199.990 L 66.000 205.981 169.700 206.117 C 280.275 206.261,275.610 206.173,279.576 208.192 C 282.178 209.517,283.507 211.214,285.143 215.300 C 285.823 217.001,286.591 216.664,290.414 212.986 C 295.502 208.091,297.043 207.448,304.100 207.265 C 307.125 207.187,309.600 207.030,309.600 206.915 C 309.600 206.801,308.983 205.866,308.228 204.839 C 307.474 203.811,306.340 201.897,305.709 200.585 C 303.947 196.922,303.060 195.605,302.354 195.603 C 299.829 195.593,293.630 190.902,288.472 185.100 C 287.133 183.593,285.600 182.635,285.600 183.306 " stroke="none" fill="#54c0a4" fill-rule="evenodd"></path></g></svg>