<svg id="svg" version="1.1" xmlns="http://www.w3.org/2000/svg" xmlns:xlink="http://www.w3.org/1999/xlink" width="400" height="400" viewBox="0, 0, 400,400"><g id="svgg"><path id="path0" d="M214.783 53.169 C 211.968 53.721,208.739 56.787,165.335 100.118 C 141.100 124.313,121.030 144.262,120.735 144.448 C 120.441 144.635,120.385 144.791,120.611 144.794 C 120.844 144.797,120.958 145.457,120.876 146.327 C 120.534 149.905,121.105 150.737,128.078 156.832 L 134.527 162.468 175.968 121.034 C 215.053 81.956,217.488 79.600,218.799 79.600 C 220.108 79.600,222.155 81.566,253.888 113.290 L 287.586 146.980 289.293 145.368 C 290.232 144.481,293.044 141.883,295.542 139.595 C 300.487 135.063,300.819 134.542,300.858 131.245 C 300.877 129.685,301.080 128.873,301.542 128.512 C 302.138 128.047,302.130 128.023,301.461 128.257 C 300.873 128.463,293.295 121.100,264.461 92.311 C 244.517 72.398,227.366 55.547,226.346 54.865 C 223.517 52.973,219.097 52.324,214.783 53.169 M216.200 110.658 C 214.406 111.199,150.000 174.416,150.000 175.636 C 150.000 175.855,159.450 184.198,161.920 186.159 L 162.875 186.917 190.144 159.659 C 215.725 134.088,217.499 132.400,218.798 132.400 C 220.090 132.400,221.486 133.704,240.054 152.258 L 259.927 172.117 266.164 166.395 C 269.594 163.248,272.400 160.564,272.400 160.429 C 272.400 160.295,261.375 149.179,247.900 135.727 C 219.809 107.684,221.537 109.050,216.200 110.658 M308.000 141.108 C 306.614 141.336,294.618 151.491,294.052 152.917 C 293.970 153.122,311.637 171.045,333.311 192.745 C 354.986 214.445,372.837 232.596,372.980 233.080 C 373.565 235.053,362.978 246.407,360.566 246.394 C 358.942 246.385,362.338 249.649,318.852 206.300 C 297.058 184.575,279.073 166.800,278.886 166.800 C 278.698 166.800,275.716 169.359,272.259 172.486 L 265.974 178.172 292.145 204.386 C 306.540 218.804,318.518 230.997,318.763 231.483 C 319.085 232.118,319.206 245.064,319.195 277.591 L 319.180 322.816 327.026 329.623 C 336.445 337.794,336.381 337.748,338.084 337.405 C 341.105 336.797,340.800 341.152,340.800 298.573 C 340.800 275.541,340.946 260.400,341.169 260.400 C 341.372 260.400,343.913 262.761,346.817 265.647 C 353.204 271.994,355.565 273.350,360.200 273.329 C 365.589 273.306,365.819 273.130,382.845 256.073 C 400.002 238.884,400.312 238.461,399.928 232.736 C 399.533 226.853,401.924 229.516,355.147 182.866 L 313.168 141.000 311.084 140.972 C 309.938 140.956,308.550 141.018,308.000 141.108 M108.120 156.670 C 108.253 156.886,92.975 172.425,74.169 191.201 C 35.504 229.802,37.420 227.589,37.445 233.614 C 37.467 239.076,37.656 239.328,54.362 256.076 C 72.678 274.439,74.211 275.346,82.000 272.425 C 84.872 271.348,106.400 250.785,106.400 249.119 C 106.400 248.714,107.030 246.771,107.800 244.800 C 108.570 242.829,109.200 241.008,109.200 240.753 C 109.200 240.497,119.652 229.928,132.427 217.266 C 145.203 204.605,155.822 193.933,156.026 193.552 C 156.367 192.914,144.673 182.000,143.648 182.000 C 143.488 182.000,128.756 196.490,110.909 214.200 C 81.318 243.564,78.347 246.400,77.165 246.400 C 74.625 246.400,64.012 235.132,64.619 233.080 C 64.763 232.596,79.182 217.878,96.663 200.374 L 128.445 168.548 122.205 163.178 C 114.597 156.633,114.830 156.771,111.600 156.884 C 110.170 156.934,108.747 156.818,108.438 156.626 C 108.089 156.408,107.968 156.425,108.120 156.670 M193.953 243.487 C 192.467 244.912,190.449 246.730,188.098 248.761 C 186.723 249.950,184.727 251.750,183.663 252.761 C 182.600 253.773,180.815 255.449,179.697 256.486 C 177.607 258.425,176.312 260.051,178.035 258.572 C 179.291 257.495,193.101 244.975,194.391 243.745 C 194.936 243.225,195.206 242.815,194.991 242.833 C 194.776 242.852,194.309 243.146,193.953 243.487 M214.014 243.338 C 214.336 243.633,221.337 249.708,229.571 256.838 C 237.805 263.967,247.975 272.795,252.171 276.457 C 256.367 280.118,259.883 283.034,259.986 282.938 C 260.196 282.739,258.047 280.644,256.270 279.315 C 255.619 278.829,253.987 277.440,252.643 276.230 C 250.144 273.978,242.884 267.532,240.437 265.392 C 239.687 264.736,238.607 263.772,238.037 263.249 C 237.467 262.726,236.034 261.580,234.853 260.702 C 233.672 259.823,231.780 258.181,230.649 257.053 C 229.518 255.924,227.965 254.528,227.196 253.951 C 226.428 253.375,225.350 252.452,224.800 251.901 C 224.250 251.350,222.990 250.277,222.000 249.517 C 221.010 248.757,219.390 247.371,218.400 246.437 C 214.826 243.064,214.504 242.800,213.970 242.800 C 213.536 242.800,213.545 242.907,214.014 243.338 M228.400 243.827 C 228.400 244.263,233.672 249.147,236.575 251.400 C 238.173 252.640,240.577 254.718,245.602 259.200 C 247.205 260.630,248.857 262.040,249.273 262.333 C 249.689 262.626,250.968 263.765,252.115 264.864 C 253.262 265.963,254.830 267.338,255.600 267.920 C 256.370 268.502,257.430 269.388,257.955 269.889 C 258.480 270.390,259.101 270.800,259.335 270.800 C 259.859 270.800,261.344 272.134,246.400 259.185 C 239.470 253.180,232.585 247.198,231.100 245.892 C 229.615 244.586,228.400 243.657,228.400 243.827 M103.651 281.631 C 102.056 282.269,99.651 284.382,98.291 286.340 L 97.000 288.200 96.800 300.930 L 96.600 313.660 93.749 314.769 C 81.745 319.437,73.655 327.225,68.164 339.400 C 67.767 340.280,67.385 341.123,67.315 341.272 C 67.244 341.422,67.398 341.675,67.655 341.834 C 67.948 342.015,68.016 341.950,67.838 341.662 C 67.667 341.385,67.813 341.200,68.200 341.200 C 68.556 341.200,68.760 341.342,68.652 341.515 C 68.136 342.351,70.742 342.851,72.076 342.171 C 74.247 341.066,93.886 323.477,97.986 318.965 C 98.969 317.884,100.349 316.640,101.053 316.200 C 101.757 315.760,105.636 312.403,109.673 308.740 C 113.709 305.077,117.393 301.747,117.857 301.340 C 118.660 300.637,118.685 300.397,118.356 296.600 C 117.752 289.643,116.172 287.005,111.631 285.372 C 110.434 284.942,108.705 283.863,107.675 282.904 C 105.787 281.146,105.270 280.982,103.651 281.631 M108.383 321.551 C 103.424 326.088,84.524 343.291,66.383 359.779 C 31.899 391.123,26.799 395.863,26.802 396.571 C 26.803 396.807,26.992 397.675,27.221 398.500 L 27.638 400.000 171.137 400.000 L 314.637 400.000 316.692 398.700 C 321.559 395.622,322.990 391.904,320.332 389.246 C 315.702 384.616,319.384 375.928,326.526 374.631 C 335.259 373.045,341.850 384.283,335.472 389.883 C 333.311 391.781,335.506 396.343,339.747 398.770 L 341.897 400.000 351.600 400.000 L 361.303 400.000 363.453 398.770 C 365.699 397.485,367.734 395.002,368.657 392.419 C 369.407 390.322,369.366 383.436,368.600 382.800 C 368.270 382.526,368.000 382.117,368.000 381.890 C 368.000 380.742,361.708 375.600,360.303 375.600 C 359.816 375.600,358.686 374.291,357.022 371.800 C 354.154 367.507,347.338 360.952,341.886 357.244 C 340.346 356.196,339.709 355.381,338.629 353.071 C 337.762 351.218,336.597 349.546,335.343 348.355 C 332.301 345.467,320.333 335.200,320.008 335.200 C 319.504 335.200,319.206 340.291,319.203 348.931 L 319.200 357.262 318.067 358.331 C 317.444 358.919,315.779 360.026,314.367 360.792 C 309.917 363.206,306.078 367.469,303.333 373.047 C 300.190 379.432,302.640 378.866,279.400 378.580 C 254.716 378.275,186.186 378.287,149.232 378.601 C 119.463 378.854,119.002 378.831,118.597 377.049 C 118.490 376.582,118.358 362.214,118.302 345.120 C 118.236 325.044,118.058 313.909,117.800 313.671 C 117.545 313.437,114.123 316.300,108.383 321.551 M100.277 338.800 C 100.907 340.645,100.992 374.291,100.374 376.519 C 99.741 378.797,99.715 378.800,79.593 378.800 C 59.536 378.800,59.200 378.765,59.200 376.679 C 59.200 372.181,69.788 365.200,76.611 365.200 C 82.990 365.200,86.144 362.037,87.042 354.739 C 88.330 344.273,98.122 332.480,100.277 338.800 M61.492 346.037 C 61.102 346.264,60.886 346.616,61.012 346.820 C 61.138 347.024,60.981 347.091,60.662 346.969 C 57.648 345.812,44.913 356.556,40.258 364.184 C 38.520 367.032,37.882 368.182,38.194 367.903 C 38.377 367.740,38.723 367.761,38.963 367.949 C 41.620 370.029,43.406 369.015,53.872 359.482 C 63.219 350.968,63.956 349.949,62.620 347.374 C 62.302 346.760,62.132 346.109,62.244 345.929 C 62.504 345.508,62.365 345.528,61.492 346.037 M7.400 375.229 C 2.398 376.790,0.009 380.800,0.004 387.638 L -0.000 392.676 1.577 395.116 C 2.444 396.458,3.704 397.840,4.377 398.188 C 5.050 398.536,5.603 399.041,5.606 399.310 C 5.610 399.622,5.750 399.581,5.992 399.200 C 6.200 398.870,6.512 398.593,6.685 398.585 C 8.234 398.513,13.067 396.545,14.289 395.489 C 18.760 391.626,30.723 380.487,31.464 379.497 C 32.355 378.306,32.231 376.472,31.188 375.427 C 30.642 374.881,9.090 374.701,7.400 375.229 M385.758 375.080 C 383.255 376.892,384.208 379.125,389.495 383.837 C 395.368 389.070,395.968 389.410,398.080 388.708 L 399.800 388.136 399.913 385.368 C 400.146 379.681,395.673 375.186,389.504 374.909 C 387.687 374.827,386.001 374.904,385.758 375.080 M376.864 386.945 C 370.710 389.173,377.639 399.646,385.460 399.938 L 389.149 400.075 389.589 398.439 C 389.889 397.326,389.901 396.563,389.627 396.050 C 388.775 394.459,379.331 386.326,378.456 386.430 C 378.315 386.447,377.599 386.679,376.864 386.945 " stroke="none" fill="#444c54" fill-rule="evenodd"></path><path id="path1" d="M-0.000 52.546 L -0.000 62.692 2.900 65.102 C 5.856 67.557,6.874 68.431,9.000 70.336 C 9.660 70.927,12.900 73.739,16.200 76.586 C 19.500 79.432,22.290 81.863,22.400 81.989 C 22.510 82.115,24.580 83.924,27.000 86.009 C 29.420 88.094,32.935 91.150,34.812 92.800 C 36.689 94.450,39.379 96.790,40.789 98.000 C 42.200 99.210,44.997 101.640,47.005 103.400 C 49.013 105.160,53.057 108.670,55.992 111.200 C 58.927 113.730,61.524 115.982,61.764 116.205 C 62.004 116.428,64.180 118.308,66.600 120.384 C 69.020 122.459,71.814 124.886,72.808 125.778 C 73.803 126.670,75.683 128.300,76.987 129.400 C 78.290 130.500,80.446 132.390,81.778 133.600 C 83.110 134.810,85.280 136.700,86.600 137.799 C 87.920 138.898,91.261 141.778,94.025 144.199 C 99.355 148.867,102.770 151.849,106.472 155.067 L 108.743 157.042 111.314 156.878 C 114.610 156.668,114.682 156.709,121.992 162.992 C 126.277 166.675,128.523 168.329,129.717 168.682 C 132.335 169.457,142.963 178.825,143.514 180.844 C 143.938 182.397,155.722 192.502,157.820 193.113 C 159.504 193.603,159.408 193.523,184.482 215.299 C 198.722 227.667,198.933 227.909,197.616 230.370 C 197.074 231.383,187.519 239.947,184.400 242.216 C 182.970 243.256,179.460 246.479,176.600 249.378 C 166.976 259.132,121.225 300.359,119.708 300.644 C 118.748 300.824,116.969 302.155,113.482 305.301 C 110.797 307.725,107.046 311.105,105.147 312.814 C 103.248 314.523,101.269 316.149,100.748 316.428 C 100.227 316.706,98.991 317.837,98.001 318.940 C 94.078 323.310,74.284 341.047,72.076 342.171 C 70.742 342.851,68.136 342.351,68.652 341.515 C 69.274 340.510,67.575 341.525,65.078 343.651 C 62.472 345.870,61.491 346.766,61.954 346.506 C 62.249 346.340,63.200 348.463,63.200 349.288 C 63.200 350.864,51.808 362.095,44.983 367.248 C 42.485 369.134,37.775 369.177,39.255 367.299 C 39.555 366.919,37.854 368.406,35.477 370.604 C 33.099 372.802,30.849 374.722,30.477 374.872 C 29.841 375.127,29.841 375.145,30.476 375.172 C 31.994 375.235,32.616 377.957,31.464 379.497 C 30.723 380.487,18.760 391.626,14.289 395.489 C 13.033 396.574,8.188 398.527,6.605 398.585 C 6.388 398.593,6.150 398.915,6.076 399.300 C 5.950 399.953,6.674 400.000,16.798 400.000 C 26.950 400.000,27.640 399.955,27.446 399.300 C 26.391 395.749,21.873 400.354,64.383 361.651 C 83.623 344.133,103.413 326.110,108.360 321.600 C 114.977 315.567,117.608 312.906,118.316 311.530 C 119.033 310.136,121.739 307.427,128.939 300.894 C 134.252 296.073,146.160 285.242,155.400 276.826 C 164.640 268.409,173.215 260.827,174.455 259.977 C 177.362 257.984,194.280 242.487,197.364 238.992 C 203.134 232.452,206.785 232.662,212.263 239.848 C 213.682 241.710,260.163 282.134,262.881 283.871 C 264.636 284.992,271.799 291.124,301.348 316.800 C 305.525 320.430,311.022 325.204,313.562 327.409 C 316.576 330.025,318.602 332.134,319.391 333.477 C 320.255 334.948,322.426 337.101,327.000 341.025 C 336.410 349.096,337.108 349.820,338.629 353.071 C 339.709 355.381,340.346 356.196,341.886 357.244 C 347.338 360.952,354.154 367.507,357.022 371.800 C 358.686 374.291,359.816 375.600,360.303 375.600 C 361.697 375.600,368.000 380.739,368.000 381.876 C 368.000 382.095,368.853 382.977,369.895 383.837 C 370.937 384.697,372.537 386.079,373.449 386.908 C 374.597 387.952,375.170 388.254,375.311 387.889 C 376.387 385.083,380.095 386.713,386.458 392.792 C 390.363 396.523,390.253 396.275,389.354 399.300 C 389.163 399.942,389.592 400.000,394.573 400.000 L 400.000 400.000 400.000 394.024 L 400.000 388.049 398.184 388.667 C 395.961 389.425,395.443 389.136,389.495 383.837 C 384.482 379.369,384.203 378.950,384.838 376.831 C 385.107 375.934,385.492 375.200,385.694 375.200 C 385.896 375.200,385.463 374.707,384.731 374.104 C 382.722 372.448,377.746 368.160,374.600 365.373 C 373.060 364.009,370.155 361.477,368.145 359.747 C 366.134 358.016,361.388 353.900,357.597 350.600 C 353.806 347.300,349.961 343.979,349.052 343.220 C 348.143 342.460,345.959 340.548,344.197 338.970 C 341.709 336.741,340.892 336.211,340.535 336.594 C 339.748 337.436,336.818 337.704,335.786 337.027 C 335.283 336.698,331.337 333.362,327.017 329.615 C 321.991 325.255,318.844 322.799,318.281 322.797 C 317.064 322.794,316.106 322.096,309.784 316.600 C 306.747 313.960,301.278 309.208,297.631 306.040 C 293.984 302.872,288.570 298.167,285.600 295.583 C 282.630 293.000,276.420 287.612,271.800 283.610 C 267.180 279.608,262.542 275.372,261.493 274.197 C 259.112 271.528,228.280 244.728,224.761 242.268 C 222.123 240.424,214.094 233.666,211.714 231.287 C 210.416 229.989,210.059 228.553,210.651 227.010 C 210.844 226.509,239.761 199.976,261.516 180.340 C 262.743 179.232,264.179 178.328,264.936 178.186 C 266.846 177.827,278.356 167.345,279.047 165.334 C 279.323 164.530,279.876 163.564,280.275 163.186 C 287.686 156.169,291.924 152.800,293.342 152.800 C 293.662 152.800,296.325 150.615,299.261 147.945 C 307.024 140.883,306.711 141.082,310.168 141.030 L 313.094 140.986 317.047 137.426 C 319.221 135.468,322.890 132.121,325.200 129.989 C 327.510 127.856,331.380 124.350,333.800 122.198 C 336.220 120.046,339.460 117.093,341.000 115.636 C 342.540 114.180,345.510 111.463,347.600 109.600 C 349.690 107.736,353.650 104.137,356.400 101.602 C 359.150 99.066,362.120 96.347,363.000 95.559 C 364.569 94.153,377.255 82.620,380.800 79.377 C 381.790 78.471,384.850 75.687,387.600 73.191 C 390.350 70.694,394.265 67.119,396.300 65.246 L 400.000 61.840 400.000 53.784 L 400.000 45.728 398.981 45.264 C 395.321 43.596,392.939 44.961,383.000 54.421 C 381.460 55.887,377.218 59.767,373.574 63.043 C 366.967 68.982,356.809 78.198,349.600 84.792 C 347.510 86.703,343.550 90.303,340.800 92.791 C 338.050 95.279,333.820 99.145,331.400 101.382 C 328.980 103.618,324.030 108.123,320.400 111.391 C 316.770 114.660,313.080 118.027,312.200 118.874 C 311.320 119.721,308.418 122.345,305.751 124.707 L 300.903 129.000 300.873 131.218 C 300.826 134.627,300.488 135.109,293.878 141.154 C 289.351 145.295,287.637 147.117,287.466 147.969 C 287.071 149.946,276.017 159.839,273.630 160.353 C 271.902 160.724,260.519 171.285,259.736 173.244 C 259.251 174.454,253.704 179.701,233.461 198.099 C 203.951 224.917,205.970 223.200,203.951 223.200 C 202.138 223.200,203.793 224.534,180.524 204.318 C 164.195 190.131,162.800 188.815,162.800 187.589 C 162.800 186.503,150.141 175.849,148.424 175.491 C 146.112 175.008,135.073 165.259,134.592 163.275 C 134.415 162.543,132.308 160.447,127.981 156.699 C 121.110 150.746,120.534 149.906,120.876 146.327 C 120.956 145.487,120.917 144.800,120.790 144.800 C 120.662 144.800,118.570 143.045,116.140 140.900 C 113.710 138.755,110.138 135.650,108.203 134.000 C 106.267 132.350,103.765 130.169,102.642 129.153 C 101.519 128.137,99.046 125.977,97.147 124.353 C 90.215 118.425,82.483 111.736,77.574 107.419 C 74.810 104.989,70.147 100.930,67.212 98.400 C 64.277 95.870,60.133 92.270,58.003 90.400 C 55.873 88.530,52.548 85.650,50.614 84.000 C 46.358 80.369,46.641 80.616,44.183 78.400 C 43.085 77.410,41.022 75.610,39.600 74.400 C 38.178 73.190,36.201 71.477,35.207 70.594 C 33.302 68.902,29.908 65.966,24.600 61.421 C 22.840 59.913,20.590 57.939,19.600 57.032 C 18.610 56.125,16.630 54.399,15.200 53.197 C 13.770 51.994,11.160 49.741,9.400 48.191 C 3.228 42.754,2.735 42.400,1.328 42.400 L 0.000 42.400 -0.000 52.546 " stroke="none" fill="#e62b0d" fill-rule="evenodd"></path><path id="path2" d="M197.380 241.400 C 195.712 242.424,176.072 260.319,175.553 261.288 C 175.304 261.752,175.169 282.590,175.180 318.709 C 175.194 363.312,175.092 375.582,174.699 376.251 C 174.425 376.719,173.973 377.476,173.696 377.933 C 173.203 378.744,173.241 378.757,175.296 378.482 C 178.049 378.113,259.560 378.114,262.315 378.483 L 264.430 378.766 263.515 377.483 L 262.600 376.200 262.518 331.079 C 262.441 288.369,262.398 285.907,261.718 284.999 C 261.323 284.471,258.743 282.096,255.985 279.720 C 253.226 277.344,244.965 270.180,237.625 263.800 C 216.385 245.337,212.123 241.694,211.155 241.176 C 209.466 240.272,198.939 240.444,197.380 241.400 M226.800 241.146 C 226.800 242.020,247.858 260.909,259.531 270.506 C 262.432 272.891,262.400 273.003,262.400 260.271 C 262.400 240.830,262.366 240.800,240.529 240.800 C 232.978 240.800,226.800 240.956,226.800 241.146 M179.422 242.507 C 177.918 243.359,176.051 245.785,176.531 246.264 C 176.912 246.645,179.557 244.803,180.609 243.424 C 182.205 241.331,181.907 241.100,179.422 242.507 " stroke="none" fill="#3cdb9b" fill-rule="evenodd"></path><path id="path3" d="M216.960 81.958 C 212.339 85.389,137.200 161.434,137.200 162.680 C 137.200 164.005,145.811 172.076,148.179 172.970 C 149.773 173.572,149.443 173.877,181.759 141.800 C 215.031 108.774,214.700 109.067,218.761 109.067 C 223.163 109.067,222.884 108.829,248.626 134.468 C 268.022 153.786,272.443 158.000,273.319 158.000 C 274.119 158.000,275.663 156.842,279.493 153.371 C 285.132 148.260,285.365 147.976,284.984 146.692 C 284.671 145.634,221.491 82.207,219.920 81.373 C 218.555 80.649,218.785 80.603,216.960 81.958 M217.400 134.360 C 215.149 135.780,165.199 186.167,165.209 187.007 C 165.223 188.245,165.824 188.821,179.200 200.410 C 186.130 206.415,194.099 213.323,196.910 215.764 C 204.787 222.602,203.016 222.990,215.400 211.718 C 261.608 169.659,258.013 173.142,257.064 171.354 C 256.346 170.001,221.014 134.693,219.726 134.042 C 218.636 133.490,218.818 133.466,217.400 134.360 M289.710 157.542 C 284.470 162.069,281.200 165.394,281.200 166.195 C 281.200 167.049,358.435 244.628,359.680 245.025 C 361.431 245.582,371.600 235.952,371.600 233.735 C 371.600 232.256,294.781 155.200,293.306 155.200 C 292.802 155.200,291.254 156.208,289.710 157.542 M127.400 171.559 C 124.272 173.531,66.000 232.606,66.000 233.806 C 66.000 235.773,76.323 245.533,77.880 245.037 C 79.085 244.654,141.200 182.268,141.200 181.441 C 141.200 180.603,140.018 179.421,134.092 174.329 C 129.714 170.567,129.267 170.382,127.400 171.559 M264.000 181.085 C 262.546 182.103,213.890 226.351,213.255 227.232 C 212.217 228.673,213.067 229.832,218.775 234.750 C 226.488 241.396,224.345 240.800,240.509 240.800 C 262.413 240.800,262.400 240.789,262.400 260.513 L 262.400 272.083 265.100 274.748 C 266.585 276.214,275.177 283.800,284.193 291.607 C 293.209 299.413,304.174 308.912,308.560 312.716 C 316.977 320.017,317.570 320.335,318.091 317.825 C 318.695 314.918,318.280 233.148,317.656 232.000 C 316.903 230.616,268.056 181.681,266.720 180.973 C 265.352 180.247,265.187 180.254,264.000 181.085 M155.799 195.963 C 153.070 197.680,109.665 241.747,108.877 243.600 C 108.457 244.590,107.682 246.300,107.156 247.400 C 106.003 249.812,105.402 280.266,106.487 281.337 C 107.610 282.447,110.231 284.000,110.993 284.009 C 115.017 284.053,118.546 288.199,119.235 293.694 C 119.886 298.879,119.457 299.032,129.220 290.122 C 133.279 286.417,144.790 275.943,154.800 266.847 C 171.608 251.572,175.504 247.694,177.250 244.499 C 177.686 243.701,178.976 242.736,181.166 241.569 C 184.076 240.019,191.990 233.419,194.947 230.077 C 196.154 228.714,195.512 227.643,191.316 224.012 C 189.162 222.148,181.280 215.325,173.800 208.850 C 166.320 202.375,159.840 196.765,159.400 196.384 C 158.108 195.266,157.095 195.147,155.799 195.963 M201.601 237.847 C 198.970 240.224,199.468 240.803,204.133 240.795 C 209.258 240.785,209.720 240.352,207.183 237.938 C 205.063 235.921,203.756 235.900,201.601 237.847 M171.683 264.927 C 170.647 265.877,159.000 276.473,145.800 288.473 C 117.904 313.833,120.113 311.643,119.590 314.470 C 118.731 319.119,119.271 376.370,120.180 377.035 C 120.841 377.518,125.045 377.590,147.569 377.503 L 174.176 377.400 174.682 376.400 C 175.220 375.337,175.479 267.094,174.950 264.450 C 174.614 262.771,173.923 262.872,171.683 264.927 M262.650 288.450 C 262.124 291.082,262.380 375.337,262.918 376.400 L 263.423 377.400 280.812 377.511 C 301.953 377.646,299.446 378.233,302.222 372.499 C 305.003 366.754,309.252 362.150,314.507 359.185 C 317.291 357.615,317.659 357.267,318.043 355.840 C 318.670 353.510,318.330 335.737,317.631 334.331 C 317.203 333.470,271.429 293.288,265.426 288.504 C 263.398 286.887,262.964 286.879,262.650 288.450 M95.071 340.805 C 90.911 344.606,89.094 348.424,88.194 355.247 C 87.166 363.037,84.670 365.508,76.945 366.384 C 70.645 367.097,66.273 369.199,62.605 373.279 C 58.647 377.681,58.319 377.600,80.210 377.600 L 98.355 377.600 98.977 376.711 C 99.715 375.658,99.929 341.718,99.210 339.826 C 98.628 338.294,97.535 338.553,95.071 340.805 M325.554 376.152 C 320.120 378.094,317.534 385.169,320.815 389.119 L 322.200 390.786 328.233 390.793 L 334.266 390.800 335.533 389.223 C 340.294 383.299,332.848 373.545,325.554 376.152 " stroke="none" fill="#fafafa" fill-rule="evenodd"></path><path id="path4" d="M175.908 121.094 C 131.836 165.158,133.915 162.898,135.531 165.000 C 137.127 167.076,146.819 175.022,148.185 175.375 L 149.638 175.750 181.919 143.505 C 213.982 111.477,214.216 111.255,216.500 110.601 C 221.605 109.140,219.937 107.804,248.007 135.831 C 264.012 151.810,272.892 160.399,273.407 160.399 C 275.200 160.395,286.949 150.138,287.451 148.138 C 287.867 146.484,220.872 79.600,218.800 79.600 C 217.488 79.600,215.057 81.952,175.908 121.094 M219.920 81.373 C 221.491 82.207,284.671 145.634,284.984 146.692 C 285.365 147.976,285.132 148.260,279.493 153.371 C 275.663 156.842,274.119 158.000,273.319 158.000 C 272.443 158.000,268.022 153.786,248.626 134.468 C 222.884 108.829,223.163 109.067,218.761 109.067 C 214.700 109.067,215.031 108.774,181.759 141.800 C 149.443 173.877,149.773 173.572,148.179 172.970 C 145.811 172.076,137.200 164.005,137.200 162.680 C 137.200 160.993,217.001 80.800,218.680 80.800 C 218.768 80.800,219.326 81.058,219.920 81.373 M190.107 159.696 C 175.088 174.709,162.800 187.269,162.800 187.607 C 162.800 188.812,164.245 190.175,180.524 204.318 C 203.793 224.534,202.138 223.200,203.951 223.200 C 204.932 223.200,205.912 222.876,206.646 222.310 C 210.971 218.973,259.187 174.597,259.618 173.557 L 260.129 172.322 240.156 152.361 C 221.487 133.703,220.093 132.400,218.799 132.400 C 217.499 132.400,215.731 134.082,190.107 159.696 M219.726 134.042 C 221.014 134.693,256.346 170.001,257.064 171.354 C 258.013 173.142,261.608 169.659,215.400 211.718 C 203.016 222.990,204.787 222.602,196.910 215.764 C 194.099 213.323,186.130 206.415,179.200 200.410 C 165.824 188.821,165.223 188.245,165.209 187.007 C 165.194 185.722,217.408 133.617,218.726 133.601 C 218.796 133.601,219.246 133.799,219.726 134.042 M291.227 153.640 C 289.350 154.784,280.365 162.960,279.502 164.309 C 278.342 166.122,278.581 166.490,284.777 172.450 C 288.064 175.613,306.117 193.545,324.894 212.300 C 356.654 244.023,359.127 246.400,360.383 246.400 C 361.579 246.400,362.341 245.799,367.041 241.144 C 372.850 235.392,373.586 234.288,372.714 232.625 C 372.058 231.372,293.601 152.799,293.009 152.801 C 292.784 152.802,291.982 153.180,291.227 153.640 M332.896 193.904 C 365.912 226.921,371.600 232.774,371.600 233.735 C 371.600 235.952,361.431 245.582,359.680 245.025 C 358.435 244.628,281.200 167.049,281.200 166.195 C 281.200 164.822,291.794 155.200,293.306 155.200 C 293.947 155.200,304.872 165.880,332.896 193.904 M96.740 200.287 C 79.217 217.839,64.763 232.596,64.619 233.080 C 64.012 235.132,74.625 246.400,77.165 246.400 C 78.556 246.400,143.246 182.894,143.518 181.262 C 143.795 179.592,132.474 169.304,129.600 168.614 C 128.702 168.398,125.363 171.616,96.740 200.287 M134.092 174.329 C 140.018 179.421,141.200 180.603,141.200 181.441 C 141.200 182.268,79.085 244.654,77.880 245.037 C 76.323 245.533,66.000 235.773,66.000 233.806 C 66.000 232.606,124.272 173.531,127.400 171.559 C 129.267 170.382,129.714 170.567,134.092 174.329 M263.723 178.700 C 262.210 179.538,211.350 225.772,210.790 226.819 C 210.007 228.282,210.346 229.919,211.714 231.287 C 214.094 233.666,222.123 240.424,224.761 242.268 C 228.280 244.728,259.112 271.528,261.493 274.197 C 262.542 275.372,267.180 279.608,271.800 283.610 C 276.420 287.612,282.630 293.000,285.600 295.583 C 288.570 298.167,293.984 302.872,297.631 306.040 C 301.278 309.208,306.747 313.960,309.784 316.600 C 317.195 323.042,318.352 323.744,318.957 322.167 C 319.426 320.946,319.232 232.410,318.758 231.474 C 318.197 230.362,265.942 178.000,265.395 178.000 C 265.171 178.000,264.419 178.315,263.723 178.700 M266.720 180.973 C 268.056 181.681,316.903 230.616,317.656 232.000 C 318.280 233.148,318.695 314.918,318.091 317.825 C 317.570 320.335,316.977 320.017,308.560 312.716 C 304.174 308.912,293.209 299.416,284.193 291.613 C 275.177 283.810,266.532 276.156,264.982 274.604 C 263.074 272.693,261.616 271.601,260.467 271.222 C 259.535 270.914,258.373 270.284,257.886 269.820 C 257.399 269.357,256.370 268.502,255.600 267.920 C 254.830 267.338,253.262 265.963,252.115 264.864 C 250.968 263.765,249.689 262.626,249.273 262.333 C 248.857 262.040,247.205 260.630,245.602 259.200 C 240.577 254.718,238.173 252.640,236.575 251.400 C 233.884 249.311,228.400 244.271,228.400 243.886 C 228.400 243.199,226.225 240.565,225.090 239.879 C 222.539 238.337,213.198 229.931,212.954 228.958 C 212.814 228.401,212.942 227.666,213.255 227.232 C 213.890 226.351,262.546 182.103,264.000 181.085 C 265.187 180.254,265.352 180.247,266.720 180.973 M133.005 216.579 C 120.027 229.571,109.341 240.470,109.258 240.800 C 109.174 241.130,108.582 242.730,107.942 244.356 C 107.303 245.982,106.869 247.402,106.978 247.512 C 107.088 247.621,107.345 247.281,107.550 246.755 C 109.409 241.991,109.040 242.404,132.321 219.073 C 144.794 206.573,155.485 196.088,156.078 195.774 C 157.753 194.886,157.991 195.061,173.800 208.813 C 181.940 215.894,190.091 222.964,191.913 224.525 C 195.514 227.610,196.131 228.740,194.947 230.076 C 193.147 232.107,184.530 239.700,183.135 240.484 C 182.291 240.959,181.600 241.543,181.600 241.783 C 181.600 242.652,179.177 245.128,177.526 245.944 C 176.596 246.405,175.197 247.573,174.417 248.540 C 173.638 249.508,164.810 257.744,154.800 266.843 C 144.790 275.942,133.279 286.417,129.220 290.122 C 119.457 299.032,119.886 298.879,119.235 293.694 C 118.546 288.199,115.017 284.053,110.993 284.009 C 110.185 284.000,107.259 282.240,106.706 281.430 C 106.504 281.134,106.410 281.148,106.406 281.473 C 106.396 282.221,109.618 284.620,111.653 285.380 C 116.143 287.058,117.821 289.732,118.235 295.865 C 118.552 300.561,118.701 300.940,120.095 300.591 C 121.313 300.285,169.154 256.925,176.600 249.378 C 179.460 246.479,182.970 243.256,184.400 242.216 C 187.519 239.947,197.074 231.383,197.616 230.370 C 198.917 227.939,198.588 227.552,185.873 216.514 C 180.113 211.514,171.894 204.376,167.608 200.652 C 160.667 194.622,157.919 192.625,156.913 192.879 C 156.741 192.923,145.982 203.588,133.005 216.579 M201.324 235.156 C 200.447 235.792,198.665 237.518,197.364 238.992 C 194.280 242.487,177.362 257.984,174.455 259.977 C 173.215 260.827,164.640 268.409,155.400 276.826 C 146.160 285.242,134.238 296.086,128.908 300.922 C 117.889 310.919,117.479 311.463,118.009 315.400 C 118.187 316.720,118.348 331.152,118.366 347.471 C 118.403 379.687,118.291 378.068,120.528 378.610 C 122.549 379.099,173.330 378.610,173.500 378.100 C 173.632 377.703,168.217 377.600,147.310 377.600 C 125.181 377.600,120.828 377.509,120.176 377.032 C 119.422 376.481,119.397 375.634,119.290 346.577 C 119.172 314.436,119.243 313.047,121.101 311.075 C 123.928 308.076,172.962 263.755,173.820 263.424 C 174.356 263.217,174.893 262.738,175.013 262.359 C 175.198 261.777,176.680 259.665,177.932 258.200 C 178.471 257.570,186.806 249.853,188.800 248.139 C 189.790 247.288,191.072 246.143,191.648 245.596 C 193.939 243.420,196.014 241.989,198.496 240.873 C 199.319 240.503,199.994 239.996,199.996 239.747 C 200.004 238.857,203.171 236.400,204.310 236.400 C 205.545 236.400,208.212 238.378,208.592 239.576 C 208.725 239.992,209.373 240.522,210.034 240.752 C 210.695 240.982,211.750 241.537,212.379 241.985 C 213.009 242.433,213.746 242.800,214.018 242.800 C 214.505 242.800,214.842 243.080,218.400 246.437 C 219.390 247.371,221.010 248.757,222.000 249.517 C 222.990 250.277,224.250 251.350,224.800 251.901 C 225.350 252.452,226.428 253.375,227.196 253.951 C 227.965 254.528,229.518 255.924,230.649 257.053 C 231.780 258.181,233.672 259.823,234.853 260.702 C 236.034 261.580,237.467 262.726,238.037 263.249 C 238.607 263.772,239.687 264.736,240.437 265.392 C 242.884 267.532,250.144 273.978,252.643 276.230 C 253.987 277.440,255.697 278.881,256.443 279.432 C 258.216 280.739,261.359 284.189,262.210 285.760 C 262.579 286.442,263.406 287.270,264.047 287.600 C 265.919 288.563,317.042 333.146,317.630 334.328 C 318.330 335.737,318.672 353.506,318.043 355.840 C 317.659 357.267,317.291 357.615,314.507 359.185 C 309.266 362.141,305.002 366.756,302.241 372.460 C 301.000 375.023,299.704 377.228,299.360 377.360 C 299.016 377.492,290.807 377.600,281.118 377.600 C 265.505 377.600,263.559 377.668,264.000 378.200 C 264.676 379.015,298.384 379.097,300.000 378.287 C 300.693 377.940,301.716 376.331,303.333 373.047 C 306.078 367.469,309.917 363.206,314.367 360.792 C 315.779 360.026,317.444 358.919,318.067 358.331 L 319.200 357.262 319.234 348.331 C 319.252 343.419,319.410 338.320,319.585 337.000 C 320.033 333.606,319.229 332.326,313.572 327.416 C 311.026 325.207,305.525 320.430,301.348 316.800 C 271.799 291.124,264.636 284.992,262.881 283.871 C 260.163 282.134,213.682 241.710,212.263 239.848 C 208.343 234.706,204.325 232.982,201.324 235.156 M96.600 337.932 C 91.434 341.154,87.963 347.257,87.042 354.739 C 86.144 362.037,82.990 365.200,76.611 365.200 C 68.215 365.200,54.866 375.897,60.219 378.336 C 61.500 378.920,97.430 378.997,98.950 378.419 C 100.665 377.767,100.797 376.266,100.775 357.600 C 100.751 336.483,100.537 335.477,96.600 337.932 M99.210 339.826 C 99.929 341.718,99.715 375.658,98.977 376.711 L 98.355 377.600 80.210 377.600 C 58.319 377.600,58.647 377.681,62.605 373.279 C 66.273 369.199,70.645 367.097,76.945 366.384 C 84.670 365.508,87.166 363.037,88.194 355.247 C 89.094 348.424,90.911 344.606,95.071 340.805 C 97.535 338.553,98.628 338.294,99.210 339.826 M325.800 374.755 C 319.187 376.470,315.973 384.703,320.191 389.123 C 322.245 391.277,322.640 391.156,320.714 388.964 C 319.530 387.614,319.435 387.300,319.504 384.957 C 319.872 372.534,336.800 372.826,336.800 385.255 C 336.800 386.739,336.628 388.059,336.419 388.188 C 336.209 388.318,335.638 389.004,335.150 389.712 L 334.264 391.000 335.568 389.800 C 342.051 383.833,334.665 372.457,325.800 374.755 " stroke="none" fill="#f79581" fill-rule="evenodd"></path></g></svg>