<svg id="svg" version="1.1" xmlns="http://www.w3.org/2000/svg" xmlns:xlink="http://www.w3.org/1999/xlink" width="400" height="400" viewBox="0, 0, 400,400"><g id="svgg"><path id="path0" d="M357.963 45.605 C 355.845 45.963,341.257 50.655,340.622 51.182 C 340.389 51.375,338.398 52.248,336.199 53.121 C 330.388 55.427,321.953 58.997,320.369 59.820 C 319.616 60.211,317.380 61.199,315.400 62.016 C 307.974 65.080,302.031 67.607,296.600 70.010 C 293.520 71.373,289.290 73.176,287.200 74.016 C 281.025 76.501,273.105 79.802,271.600 80.519 C 270.830 80.886,268.490 81.889,266.400 82.749 C 255.693 87.151,250.543 89.332,246.000 91.386 C 243.250 92.629,239.363 94.248,237.362 94.983 C 235.361 95.719,232.998 96.691,232.112 97.143 C 231.226 97.595,228.903 98.584,226.950 99.340 C 222.802 100.947,216.285 103.897,207.600 108.099 C 192.342 115.482,188.670 117.271,183.600 119.797 C 177.369 122.901,170.338 126.153,164.571 128.597 C 162.356 129.536,160.196 130.504,159.771 130.748 C 158.712 131.358,147.536 136.098,144.667 137.154 C 143.385 137.627,141.765 138.309,141.067 138.670 C 140.370 139.031,138.000 140.003,135.800 140.829 C 133.600 141.655,128.920 143.534,125.400 145.005 C 121.880 146.477,117.290 148.369,115.200 149.210 C 113.110 150.051,109.016 151.746,106.103 152.976 C 103.189 154.206,98.419 156.221,95.503 157.453 C 92.586 158.685,88.580 160.309,86.600 161.062 C 84.620 161.815,81.650 163.049,80.000 163.805 C 78.350 164.560,76.010 165.524,74.800 165.947 C 73.590 166.369,71.700 167.117,70.600 167.608 C 67.794 168.861,59.924 171.797,53.942 173.823 C 51.160 174.765,48.340 175.817,47.676 176.161 C 47.012 176.504,44.438 177.337,41.957 178.012 C 22.577 183.281,13.818 193.306,17.183 206.365 C 19.006 213.439,22.042 216.604,31.600 221.396 C 38.724 224.968,53.031 234.044,61.605 240.431 C 63.252 241.659,66.940 244.259,69.800 246.209 C 72.660 248.160,75.813 250.322,76.807 251.015 C 79.390 252.816,88.602 258.031,91.200 259.164 C 95.222 260.917,97.431 264.225,99.368 271.400 C 99.962 273.600,100.872 276.302,101.390 277.404 C 101.909 278.507,102.609 280.847,102.946 282.604 C 103.583 285.923,104.680 289.427,105.710 291.435 C 106.039 292.076,106.675 294.522,107.124 296.870 C 107.573 299.219,108.570 302.729,109.340 304.670 C 110.110 306.612,111.036 309.730,111.398 311.600 C 111.761 313.470,112.513 316.080,113.069 317.400 C 114.463 320.707,115.031 322.451,116.000 326.400 C 116.458 328.270,117.351 330.970,117.984 332.400 C 118.617 333.830,119.522 336.710,119.997 338.800 C 120.471 340.890,121.313 343.500,121.868 344.600 C 122.422 345.700,123.310 348.091,123.840 349.914 C 124.371 351.736,125.359 354.436,126.036 355.914 C 126.714 357.391,127.802 360.040,128.455 361.800 C 129.107 363.560,130.055 365.630,130.560 366.400 C 131.065 367.170,132.116 369.271,132.896 371.069 C 135.276 376.561,136.933 378.172,142.477 380.382 C 153.663 384.840,162.112 382.194,167.320 372.600 C 168.983 369.536,170.036 368.269,176.124 362.000 C 180.751 357.236,187.540 349.859,188.323 348.743 C 188.611 348.334,189.388 347.414,190.051 346.699 C 190.714 345.985,192.998 343.247,195.128 340.615 C 205.214 328.151,204.200 328.554,213.658 333.244 C 217.256 335.029,227.551 339.984,236.536 344.257 C 245.521 348.529,259.381 355.310,267.336 359.326 C 284.808 368.146,288.097 369.028,295.258 366.814 C 304.476 363.965,309.105 357.102,309.430 345.800 C 310.056 324.029,310.461 318.321,311.616 314.937 C 312.967 310.981,313.879 305.693,314.228 299.800 C 314.440 296.230,314.776 294.532,316.013 290.800 C 316.852 288.270,317.751 284.670,318.011 282.800 C 318.428 279.811,319.163 277.301,320.413 274.600 C 321.224 272.849,321.687 271.246,322.386 267.770 C 322.788 265.772,323.575 263.234,324.134 262.130 C 325.105 260.214,326.800 254.409,326.800 253.000 C 326.800 252.634,327.345 251.093,328.010 249.577 C 329.297 246.644,330.784 241.292,330.794 239.552 C 330.801 238.341,332.065 234.209,332.954 232.489 C 333.621 231.199,335.197 223.948,335.204 222.137 C 335.207 221.512,335.907 219.108,336.759 216.796 C 337.612 214.484,338.616 210.794,338.990 208.596 C 339.365 206.398,340.109 203.674,340.645 202.543 C 341.907 199.873,342.615 197.412,343.356 193.105 C 343.687 191.183,344.348 188.753,344.824 187.705 C 345.790 185.578,347.600 179.416,347.600 178.253 C 347.600 177.839,348.226 176.114,348.991 174.420 C 349.756 172.726,350.753 169.733,351.206 167.770 C 351.659 165.806,352.552 163.030,353.191 161.600 C 353.830 160.170,354.750 157.380,355.235 155.400 C 355.719 153.420,356.706 150.450,357.427 148.800 C 358.148 147.150,359.121 144.180,359.590 142.200 C 360.059 140.220,360.962 137.430,361.598 136.000 C 362.233 134.570,363.150 131.780,363.635 129.800 C 364.119 127.820,365.112 124.850,365.842 123.200 C 366.571 121.550,367.540 118.513,367.996 116.451 C 368.451 114.389,369.253 111.959,369.777 111.051 C 370.302 110.143,371.282 107.192,371.955 104.493 C 372.628 101.794,373.373 99.224,373.610 98.781 C 374.485 97.147,376.083 91.702,376.658 88.400 C 376.984 86.530,377.755 83.920,378.372 82.600 C 378.989 81.280,379.805 78.760,380.186 77.000 C 380.567 75.240,381.306 72.450,381.830 70.800 C 386.553 55.912,374.189 42.860,357.963 45.605 M331.333 78.101 C 332.979 79.305,332.653 81.211,330.044 85.624 C 327.136 90.542,327.076 90.862,329.100 90.605 C 331.493 90.302,332.800 89.960,332.800 89.635 C 332.800 89.470,333.404 89.149,334.143 88.922 C 336.517 88.193,337.378 89.266,337.383 92.962 C 337.386 95.017,337.548 96.048,337.890 96.179 C 338.377 96.366,342.191 93.424,343.784 91.633 C 344.216 91.148,345.746 89.881,347.184 88.818 C 355.807 82.445,359.205 88.081,355.010 101.800 C 352.753 109.184,345.813 130.578,338.792 151.800 C 332.434 171.017,330.808 176.220,326.605 190.800 C 325.368 195.090,323.572 201.300,322.612 204.600 C 321.653 207.900,320.749 211.230,320.605 212.000 C 319.742 216.591,312.653 242.478,309.377 253.000 C 302.652 274.602,300.589 281.897,299.388 288.312 C 298.865 291.110,297.902 295.920,297.250 299.000 C 296.597 302.080,295.855 306.760,295.600 309.400 C 295.345 312.040,294.526 317.980,293.781 322.600 C 293.035 327.220,292.232 332.890,291.996 335.200 C 291.051 344.453,288.810 347.565,283.413 347.118 C 281.584 346.966,278.915 345.798,266.915 339.897 C 259.042 336.025,246.840 330.128,239.800 326.793 C 232.760 323.457,220.700 317.533,213.000 313.627 C 194.522 304.255,192.102 303.572,193.129 308.021 C 194.360 313.353,193.350 315.630,186.023 324.042 C 164.720 348.501,163.176 350.000,159.286 350.000 C 155.797 350.000,154.638 348.195,153.818 341.489 C 153.454 338.509,153.055 338.517,150.674 341.547 C 144.537 349.359,140.693 345.795,134.457 326.511 C 130.464 314.163,127.632 305.115,126.598 301.400 C 120.859 280.777,115.271 262.753,112.564 256.127 C 110.914 252.090,110.387 248.983,110.685 245.046 C 110.971 241.269,110.810 241.179,106.336 242.607 C 99.208 244.883,95.237 243.103,74.595 228.384 C 68.030 223.703,62.606 220.024,57.200 216.586 C 53.244 214.069,46.831 210.042,45.573 209.285 C 36.837 204.021,38.146 197.519,48.685 193.827 C 60.308 189.754,65.986 187.666,73.000 184.882 C 86.030 179.710,86.577 179.488,103.000 172.698 C 105.640 171.607,110.230 169.760,113.200 168.594 C 122.504 164.942,126.663 163.268,128.461 162.451 C 130.641 161.460,138.928 158.028,144.192 155.937 C 146.387 155.064,148.727 154.102,149.392 153.799 C 150.056 153.496,152.220 152.621,154.200 151.855 C 159.493 149.808,167.439 146.509,170.301 145.170 C 171.677 144.527,172.897 144.000,173.012 144.000 C 173.598 144.000,183.972 139.042,199.400 131.389 C 208.860 126.696,218.940 121.782,221.800 120.468 C 224.660 119.155,228.350 117.448,230.000 116.674 C 231.650 115.901,234.530 114.639,236.400 113.871 C 238.270 113.102,241.780 111.636,244.200 110.614 C 246.620 109.592,251.030 107.757,254.000 106.538 C 256.970 105.318,259.940 104.086,260.600 103.798 C 261.260 103.511,264.950 102.010,268.800 100.464 C 276.490 97.375,288.487 92.376,291.000 91.214 C 291.880 90.808,295.480 89.269,299.000 87.794 C 302.520 86.320,306.840 84.509,308.600 83.770 C 311.691 82.472,316.997 80.462,322.400 78.544 C 325.341 77.500,330.182 77.260,331.333 78.101 M166.536 285.402 C 163.426 288.648,161.263 294.191,160.643 300.500 C 160.316 303.826,160.436 303.830,163.334 300.589 C 165.752 297.886,168.253 296.318,170.921 295.832 C 172.941 295.465,173.116 294.768,171.867 292.064 C 170.689 289.514,170.077 287.309,169.934 285.100 C 169.799 283.019,168.728 283.114,166.536 285.402 " stroke="none" fill="#080808" fill-rule="evenodd"></path><path id="path1" d="M294.000 99.425 C 292.350 99.914,289.650 100.849,288.000 101.503 C 281.141 104.220,259.356 113.082,253.600 115.496 C 250.190 116.927,245.779 118.765,243.797 119.582 C 234.655 123.350,222.857 128.844,207.400 136.531 C 183.610 148.362,176.717 151.505,157.200 159.424 C 151.590 161.700,143.220 165.117,138.600 167.017 C 133.980 168.917,126.060 172.147,121.000 174.196 C 115.940 176.244,110.270 178.547,108.400 179.314 C 88.050 187.659,69.997 194.865,62.133 197.783 C 51.028 201.903,50.720 203.004,59.200 208.283 C 63.993 211.266,74.896 218.569,78.150 220.976 C 79.793 222.191,84.167 225.214,87.869 227.693 C 101.330 236.708,101.430 236.711,110.800 228.427 C 124.075 216.692,147.689 200.284,173.075 185.155 C 178.314 182.033,187.910 176.327,194.400 172.476 C 200.890 168.624,206.830 165.068,207.600 164.574 C 208.370 164.079,211.610 162.102,214.800 160.180 C 231.751 149.969,242.840 142.159,279.200 114.825 C 299.167 99.814,301.747 97.130,294.000 99.425 M340.766 110.302 C 339.440 111.198,336.016 114.946,330.993 121.000 C 322.759 130.925,317.512 136.602,303.452 150.800 C 295.500 158.830,288.355 166.120,287.575 167.000 C 284.145 170.869,278.515 177.149,276.995 178.800 C 276.084 179.790,273.384 182.760,270.995 185.400 C 265.860 191.074,263.919 193.151,253.600 204.019 C 237.231 221.258,230.039 229.091,222.400 237.998 C 216.179 245.252,205.708 256.635,195.355 267.400 C 179.960 283.406,178.823 285.138,181.700 288.192 C 182.922 289.489,227.425 312.226,241.800 318.896 C 250.832 323.088,253.416 324.325,266.178 330.566 C 284.530 339.542,282.936 340.092,285.225 324.000 C 285.678 320.810,286.301 316.940,286.607 315.400 C 286.914 313.860,287.526 309.540,287.968 305.800 C 288.409 302.060,289.327 296.480,290.007 293.400 C 290.687 290.320,291.434 286.810,291.668 285.600 C 292.690 280.299,294.611 273.283,298.183 261.800 C 303.998 243.106,307.740 230.215,309.388 223.200 C 310.964 216.490,314.385 203.533,315.777 199.000 C 316.520 196.580,317.257 193.970,317.416 193.200 C 317.574 192.430,318.133 190.450,318.658 188.800 C 319.183 187.150,320.166 183.820,320.842 181.400 C 322.597 175.119,325.653 165.552,332.407 145.200 C 343.472 111.859,344.440 107.821,340.766 110.302 " stroke="none" fill="#cdd8d8" fill-rule="evenodd"></path><path id="path2" d="M321.182 82.189 C 318.862 82.695,315.622 83.658,313.982 84.329 C 312.342 85.001,309.380 86.168,307.400 86.924 C 305.420 87.680,301.370 89.331,298.400 90.594 C 286.994 95.442,282.483 97.339,279.200 98.669 C 277.330 99.427,274.990 100.423,274.000 100.883 C 273.010 101.343,270.220 102.492,267.800 103.437 C 260.416 106.320,256.330 107.973,253.400 109.265 C 251.860 109.944,249.520 110.910,248.200 111.412 C 246.880 111.914,244.450 112.947,242.800 113.709 C 241.150 114.471,239.350 115.229,238.800 115.395 C 237.864 115.676,234.494 117.179,223.800 122.082 C 221.380 123.192,210.568 128.478,199.774 133.829 C 188.979 139.180,178.629 144.174,176.774 144.926 C 174.918 145.679,172.410 146.766,171.200 147.342 C 169.082 148.350,167.519 148.993,157.000 153.186 C 154.360 154.239,151.120 155.565,149.800 156.134 C 148.480 156.703,146.050 157.706,144.400 158.364 C 142.750 159.022,138.970 160.574,136.000 161.812 C 130.579 164.073,126.090 165.903,119.400 168.581 C 117.420 169.373,114.450 170.573,112.800 171.247 C 111.150 171.920,108.090 173.159,106.000 173.999 C 103.910 174.839,99.500 176.645,96.200 178.012 C 92.900 179.378,88.040 181.354,85.400 182.401 C 82.760 183.448,79.700 184.684,78.600 185.146 C 73.822 187.155,67.186 189.745,64.600 190.612 C 63.060 191.128,60.630 192.033,59.200 192.624 C 57.770 193.214,55.070 194.141,53.200 194.683 C 40.891 198.253,39.855 203.090,50.066 209.319 C 51.240 210.035,53.010 211.145,54.000 211.785 C 54.990 212.425,57.330 213.931,59.200 215.131 C 63.938 218.171,72.027 223.646,75.600 226.232 C 99.489 243.516,101.830 244.073,112.200 234.924 C 122.319 225.997,135.880 215.783,148.330 207.713 C 151.118 205.906,154.210 203.875,155.200 203.201 C 156.190 202.526,159.160 200.607,161.800 198.935 C 164.440 197.263,167.500 195.316,168.600 194.608 C 169.700 193.901,172.400 192.271,174.600 190.987 C 176.800 189.703,180.310 187.633,182.400 186.387 C 184.490 185.141,188.000 183.083,190.200 181.814 C 192.400 180.544,195.100 178.925,196.200 178.216 C 197.300 177.506,200.450 175.604,203.200 173.988 C 205.950 172.373,209.100 170.489,210.200 169.801 C 211.300 169.114,214.540 167.148,217.400 165.434 C 226.451 160.007,237.355 152.892,246.000 146.771 C 247.870 145.447,250.480 143.622,251.800 142.715 C 253.120 141.809,254.759 140.602,255.441 140.034 C 256.715 138.973,258.540 137.587,267.168 131.122 C 273.023 126.735,275.802 124.634,277.881 123.021 C 278.716 122.372,280.660 120.919,282.200 119.790 C 283.740 118.662,287.790 115.671,291.200 113.145 C 294.610 110.619,298.629 107.663,300.131 106.576 C 301.633 105.489,303.905 103.790,305.179 102.800 C 306.454 101.810,308.546 100.190,309.829 99.200 C 321.568 90.142,324.628 87.012,327.130 81.500 C 327.351 81.015,325.674 81.209,321.182 82.189 M322.279 83.847 C 325.744 84.776,316.604 93.554,299.003 106.200 C 296.860 107.740,294.217 109.698,293.131 110.552 C 292.044 111.406,287.948 114.466,284.029 117.352 C 280.109 120.238,271.173 126.920,264.170 132.200 C 243.373 147.881,229.232 157.441,209.600 169.092 C 207.730 170.202,203.590 172.689,200.400 174.619 C 197.210 176.549,193.430 178.783,192.000 179.585 C 190.570 180.386,188.680 181.504,187.800 182.068 C 186.920 182.632,183.950 184.409,181.200 186.018 C 170.966 192.005,164.339 196.082,156.200 201.400 C 153.120 203.412,148.710 206.277,146.400 207.766 C 144.090 209.255,140.490 211.720,138.400 213.244 C 136.310 214.768,133.671 216.686,132.535 217.507 C 126.744 221.695,118.886 227.902,113.340 232.670 C 103.414 241.205,102.233 241.580,95.642 238.285 C 92.206 236.568,82.562 230.275,76.400 225.729 C 73.240 223.397,59.702 214.403,52.727 210.000 C 41.129 202.679,41.493 199.376,54.355 195.189 C 58.926 193.702,66.736 190.805,74.600 187.681 C 76.800 186.808,80.940 185.164,83.800 184.028 C 86.660 182.893,90.170 181.442,91.600 180.805 C 93.030 180.167,95.370 179.204,96.800 178.665 C 98.230 178.126,102.280 176.481,105.800 175.010 C 109.320 173.539,113.820 171.738,115.800 171.008 C 117.780 170.278,120.480 169.196,121.800 168.603 C 123.120 168.011,125.730 166.921,127.600 166.181 C 129.470 165.441,133.430 163.825,136.400 162.590 C 139.370 161.355,143.600 159.630,145.800 158.757 C 148.000 157.884,150.970 156.648,152.400 156.011 C 153.830 155.373,156.620 154.230,158.600 153.471 C 163.503 151.592,168.873 149.370,172.000 147.928 C 173.430 147.269,175.680 146.276,177.000 145.722 C 180.573 144.222,186.495 141.367,204.000 132.706 C 212.690 128.406,222.140 123.809,225.000 122.491 C 227.860 121.173,231.280 119.598,232.600 118.991 C 233.920 118.384,237.070 117.029,239.600 115.979 C 242.130 114.930,246.180 113.235,248.600 112.213 C 254.343 109.788,262.598 106.402,268.600 104.011 C 273.990 101.863,280.624 99.088,299.200 91.210 C 312.926 85.389,319.823 83.188,322.279 83.847 M350.452 90.466 C 348.276 91.543,344.871 94.669,341.771 98.436 C 340.467 100.020,338.770 102.071,338.000 102.994 C 337.230 103.917,334.890 106.802,332.800 109.405 C 319.395 126.104,315.708 130.198,300.205 145.600 C 294.115 151.650,283.178 163.170,275.901 171.200 C 259.965 188.786,252.836 196.460,240.603 209.200 C 237.277 212.664,228.848 221.761,225.779 225.200 C 225.092 225.970,223.634 227.590,222.540 228.800 C 221.445 230.010,218.231 233.700,215.396 237.000 C 210.040 243.236,203.152 250.913,201.028 253.016 C 200.353 253.685,196.097 258.095,191.572 262.816 C 166.530 288.941,166.487 288.533,195.800 302.425 C 202.254 305.484,203.371 306.040,217.600 313.290 C 224.750 316.934,234.110 321.571,238.400 323.596 C 250.654 329.380,253.036 330.529,265.821 336.829 C 286.637 347.086,287.966 347.070,289.258 336.551 C 289.498 334.598,290.382 328.860,291.221 323.800 C 292.061 318.740,292.952 312.260,293.202 309.400 C 293.452 306.532,294.369 300.931,295.246 296.911 C 296.120 292.902,297.098 287.996,297.420 286.010 C 297.741 284.023,298.533 280.733,299.179 278.699 C 299.826 276.665,300.704 273.650,301.132 272.000 C 301.948 268.848,304.573 260.295,307.207 252.200 C 308.066 249.560,309.146 245.870,309.608 244.000 C 310.069 242.130,311.075 238.640,311.844 236.245 C 312.612 233.849,313.517 230.519,313.856 228.845 C 314.194 227.170,315.089 223.740,315.844 221.222 C 316.599 218.703,317.584 214.833,318.034 212.622 C 318.483 210.410,319.365 207.070,319.995 205.200 C 320.624 203.330,321.435 200.540,321.795 199.000 C 322.156 197.460,323.153 194.010,324.009 191.332 C 324.866 188.655,325.851 185.244,326.197 183.751 C 326.802 181.141,329.377 172.669,331.469 166.400 C 332.020 164.750,333.102 161.420,333.872 159.000 C 334.643 156.580,335.798 153.188,336.438 151.463 C 337.078 149.738,338.038 146.858,338.570 145.063 C 339.103 143.268,340.255 139.730,341.130 137.200 C 342.006 134.670,343.839 129.090,345.204 124.800 C 346.569 120.510,348.375 114.930,349.219 112.400 C 353.442 99.730,354.642 93.257,353.204 90.900 C 352.264 89.358,352.587 89.409,350.452 90.466 M352.631 93.823 C 352.947 95.512,350.788 104.849,348.426 112.000 C 347.591 114.530,345.779 120.110,344.401 124.400 C 343.022 128.690,339.150 140.480,335.797 150.600 C 328.612 172.283,326.731 178.212,325.586 182.800 C 325.119 184.670,324.203 187.820,323.551 189.800 C 322.899 191.780,321.931 195.110,321.399 197.200 C 320.867 199.290,320.053 202.080,319.590 203.400 C 319.127 204.720,318.044 208.826,317.183 212.524 C 316.322 216.222,315.512 219.419,315.383 219.628 C 315.253 219.837,314.265 223.472,313.187 227.704 C 311.113 235.845,310.026 239.736,307.744 247.200 C 306.970 249.730,305.731 253.911,304.990 256.491 C 304.249 259.072,303.195 262.427,302.646 263.947 C 302.098 265.467,301.172 268.486,300.588 270.656 C 300.004 272.825,299.088 275.950,298.553 277.600 C 298.018 279.250,297.143 282.949,296.610 285.820 C 296.076 288.691,295.197 292.921,294.657 295.220 C 293.560 299.889,293.099 302.826,292.179 311.000 C 291.832 314.080,291.120 318.940,290.597 321.800 C 290.074 324.660,289.448 328.620,289.206 330.600 C 287.239 346.730,287.707 346.607,267.000 336.410 C 260.400 333.159,248.880 327.593,241.400 324.040 C 233.920 320.488,224.470 315.875,220.400 313.790 C 216.330 311.705,205.208 306.124,195.685 301.387 C 175.551 291.372,174.400 290.586,174.400 286.854 C 174.400 282.516,176.297 280.110,195.407 260.200 C 204.816 250.397,210.297 244.390,218.397 235.000 C 225.293 227.006,231.807 219.869,241.767 209.390 C 254.043 196.475,264.841 184.871,270.418 178.600 C 282.734 164.751,288.328 158.790,299.359 147.767 C 316.922 130.215,319.657 127.178,335.200 107.972 C 347.411 92.883,351.788 89.330,352.631 93.823 M325.660 98.243 C 325.155 98.597,323.810 99.374,322.671 99.970 C 320.002 101.367,314.246 105.079,310.302 107.947 C 308.598 109.186,305.088 111.721,302.502 113.580 C 299.916 115.439,295.912 118.409,293.604 120.180 C 289.343 123.450,282.525 128.600,275.359 133.962 C 273.182 135.591,270.410 137.672,269.200 138.586 C 267.990 139.500,264.930 141.725,262.400 143.530 C 259.870 145.336,257.080 147.331,256.200 147.964 C 253.715 149.751,244.984 155.991,242.045 158.081 C 240.590 159.116,238.230 160.678,236.800 161.552 C 235.370 162.427,231.905 164.640,229.101 166.471 C 226.296 168.302,222.556 170.700,220.790 171.800 C 219.024 172.900,215.829 174.891,213.690 176.224 C 208.165 179.668,205.715 181.141,203.200 182.530 C 201.990 183.198,200.100 184.318,199.000 185.018 C 197.900 185.718,196.024 186.784,194.831 187.387 C 193.638 187.990,191.748 189.068,190.631 189.783 C 189.514 190.497,187.261 191.874,185.624 192.841 C 183.987 193.809,181.895 195.050,180.975 195.600 C 180.055 196.150,177.975 197.390,176.352 198.356 C 174.728 199.322,172.500 200.695,171.400 201.406 C 169.654 202.536,167.885 203.615,162.284 206.969 C 158.253 209.383,146.408 217.267,142.400 220.204 C 140.750 221.414,138.339 223.142,137.042 224.044 C 133.841 226.272,129.081 230.114,122.429 235.839 C 115.274 241.996,113.686 244.076,113.337 247.745 C 113.123 250.002,113.175 250.191,116.617 259.600 C 117.864 263.010,119.324 267.330,119.860 269.200 C 120.397 271.070,121.386 274.276,122.059 276.323 C 122.731 278.371,123.864 282.241,124.577 284.923 C 126.389 291.744,131.634 309.239,134.794 319.000 C 135.649 321.640,136.814 325.371,137.384 327.290 C 138.620 331.456,142.052 338.734,143.360 339.962 C 146.226 342.655,149.242 337.597,150.850 327.400 C 151.301 324.540,152.017 320.940,152.440 319.400 C 152.864 317.860,153.670 314.350,154.231 311.600 C 158.686 289.778,161.095 284.999,175.597 269.229 C 177.909 266.716,180.340 264.096,181.000 263.408 C 181.660 262.720,186.250 257.934,191.200 252.773 C 196.150 247.611,202.535 240.691,205.388 237.394 C 208.241 234.097,211.931 229.864,213.588 227.988 C 215.245 226.111,217.590 223.416,218.800 221.998 C 222.292 217.907,229.893 209.699,241.019 198.004 C 244.215 194.645,246.873 191.796,258.600 179.158 C 260.140 177.498,262.930 174.453,264.800 172.390 C 266.670 170.327,270.000 166.660,272.200 164.240 C 274.400 161.820,282.860 153.080,291.000 144.817 C 316.473 118.960,328.800 103.967,328.800 98.842 C 328.800 97.385,327.295 97.098,325.660 98.243 M324.858 102.798 C 324.585 104.719,321.598 109.534,318.019 113.820 C 317.458 114.491,316.370 115.834,315.600 116.806 C 311.484 122.001,304.432 129.598,292.403 141.800 C 278.934 155.461,271.744 163.008,264.773 170.800 C 262.706 173.110,259.917 176.170,258.575 177.600 C 257.233 179.030,254.710 181.727,252.967 183.594 C 251.225 185.461,248.526 188.341,246.970 189.994 C 231.435 206.491,223.691 214.792,221.000 217.832 C 215.624 223.905,205.046 236.060,202.925 238.600 C 201.823 239.920,194.814 247.400,187.350 255.223 C 160.695 283.155,157.223 288.609,153.998 307.600 C 153.755 309.030,152.941 312.720,152.189 315.800 C 151.438 318.880,150.445 323.560,149.983 326.200 C 148.456 334.929,146.957 338.155,144.400 338.214 C 143.093 338.243,139.750 331.828,138.003 325.940 C 137.328 323.663,136.162 319.910,135.412 317.600 C 132.222 307.774,127.656 292.555,125.630 284.994 C 124.804 281.910,123.658 277.950,123.084 276.194 C 122.509 274.437,121.596 271.470,121.053 269.600 C 120.226 266.749,116.403 255.836,114.843 251.874 C 113.497 248.454,114.552 245.025,118.089 241.331 C 121.316 237.961,133.323 227.850,137.246 225.200 C 138.060 224.650,140.858 222.672,143.463 220.806 C 149.761 216.293,158.362 210.627,166.200 205.830 C 174.122 200.981,189.640 191.657,193.400 189.488 C 194.940 188.599,197.460 187.122,199.000 186.204 C 200.540 185.287,203.780 183.392,206.200 181.992 C 208.620 180.592,211.950 178.607,213.600 177.580 C 219.023 174.205,232.167 165.897,233.800 164.813 C 240.982 160.045,244.487 157.669,246.200 156.410 C 247.300 155.601,252.340 152.001,257.400 148.411 C 265.043 142.987,281.351 130.862,294.527 120.807 C 303.050 114.303,314.253 106.542,320.073 103.111 C 323.128 101.310,325.088 101.182,324.858 102.798 M168.125 300.353 C 165.811 301.813,163.327 308.184,161.791 316.600 C 161.430 318.580,160.505 322.900,159.735 326.200 C 155.293 345.255,158.243 350.719,167.656 340.867 C 170.308 338.090,179.081 328.236,182.470 324.226 C 183.202 323.361,184.756 321.561,185.925 320.226 C 193.234 311.880,192.269 308.966,180.200 302.937 C 173.241 299.461,170.478 298.870,168.125 300.353 M179.922 304.020 C 191.003 309.596,191.672 311.812,184.753 320.005 C 173.556 333.263,165.719 341.767,163.345 343.234 C 158.511 346.221,157.576 340.057,160.792 326.400 C 161.439 323.650,162.430 319.015,162.992 316.100 C 166.073 300.138,168.610 298.328,179.922 304.020 " stroke="none" fill="#5d6262" fill-rule="evenodd"></path><path id="path3" d="M322.400 78.544 C 316.997 80.462,311.691 82.472,308.600 83.770 C 306.840 84.509,302.520 86.320,299.000 87.794 C 295.480 89.269,291.880 90.808,291.000 91.214 C 288.487 92.376,276.490 97.375,268.800 100.464 C 264.950 102.010,261.260 103.511,260.600 103.798 C 259.940 104.086,256.970 105.318,254.000 106.538 C 251.030 107.757,246.620 109.592,244.200 110.614 C 241.780 111.636,238.270 113.102,236.400 113.871 C 234.530 114.639,231.650 115.901,230.000 116.674 C 228.350 117.448,224.660 119.155,221.800 120.468 C 218.940 121.782,208.860 126.696,199.400 131.389 C 183.972 139.042,173.598 144.000,173.012 144.000 C 172.897 144.000,171.677 144.527,170.301 145.170 C 167.439 146.509,159.493 149.808,154.200 151.855 C 152.220 152.621,150.056 153.496,149.392 153.799 C 148.727 154.102,146.387 155.064,144.192 155.937 C 138.928 158.028,130.641 161.460,128.461 162.451 C 126.663 163.268,122.504 164.942,113.200 168.594 C 110.230 169.760,105.640 171.607,103.000 172.698 C 86.577 179.488,86.030 179.710,73.000 184.882 C 65.986 187.666,60.308 189.754,48.685 193.827 C 38.146 197.519,36.837 204.021,45.573 209.285 C 46.831 210.042,53.244 214.069,57.200 216.586 C 62.606 220.024,68.030 223.703,74.595 228.384 C 95.237 243.103,99.208 244.883,106.336 242.607 C 110.810 241.179,110.971 241.269,110.685 245.046 C 110.387 248.983,110.914 252.090,112.564 256.127 C 115.271 262.753,120.859 280.777,126.598 301.400 C 127.632 305.115,130.464 314.163,134.457 326.511 C 140.693 345.795,144.537 349.359,150.674 341.547 C 153.055 338.517,153.454 338.509,153.818 341.489 C 154.638 348.195,155.797 350.000,159.286 350.000 C 163.176 350.000,164.720 348.501,186.023 324.042 C 193.350 315.630,194.360 313.353,193.129 308.021 C 192.102 303.572,194.522 304.255,213.000 313.627 C 220.700 317.533,232.760 323.457,239.800 326.793 C 246.840 330.128,259.042 336.025,266.915 339.897 C 278.915 345.798,281.584 346.966,283.413 347.118 C 288.810 347.565,291.051 344.453,291.996 335.200 C 292.232 332.890,293.035 327.220,293.781 322.600 C 294.526 317.980,295.345 312.040,295.600 309.400 C 295.855 306.760,296.597 302.080,297.250 299.000 C 297.902 295.920,298.865 291.110,299.388 288.312 C 300.589 281.897,302.652 274.602,309.377 253.000 C 312.653 242.478,319.742 216.591,320.605 212.000 C 320.749 211.230,321.653 207.900,322.612 204.600 C 323.572 201.300,325.368 195.090,326.605 190.800 C 330.808 176.220,332.434 171.017,338.792 151.800 C 345.813 130.578,352.753 109.184,355.010 101.800 C 359.205 88.081,355.807 82.445,347.184 88.818 C 345.746 89.881,344.216 91.148,343.784 91.633 C 342.191 93.424,338.377 96.366,337.890 96.179 C 337.548 96.048,337.386 95.017,337.383 92.962 C 337.378 89.266,336.517 88.193,334.143 88.922 C 333.404 89.149,332.800 89.470,332.800 89.635 C 332.800 89.960,331.493 90.302,329.100 90.605 C 327.076 90.862,327.136 90.542,330.044 85.624 C 334.383 78.285,331.264 75.396,322.400 78.544 M327.130 81.500 C 324.628 87.012,321.568 90.142,309.829 99.200 C 308.546 100.190,306.454 101.810,305.179 102.800 C 303.905 103.790,301.633 105.489,300.131 106.576 C 298.629 107.663,294.610 110.619,291.200 113.145 C 287.790 115.671,283.740 118.662,282.200 119.790 C 280.660 120.919,278.716 122.372,277.881 123.021 C 275.802 124.634,273.023 126.735,267.168 131.122 C 258.540 137.587,256.715 138.973,255.441 140.034 C 254.759 140.602,253.120 141.809,251.800 142.715 C 250.480 143.622,247.870 145.447,246.000 146.771 C 237.355 152.892,226.451 160.007,217.400 165.434 C 214.540 167.148,211.300 169.114,210.200 169.801 C 209.100 170.489,205.950 172.373,203.200 173.988 C 200.450 175.604,197.300 177.506,196.200 178.216 C 195.100 178.925,192.400 180.544,190.200 181.814 C 188.000 183.083,184.490 185.141,182.400 186.387 C 180.310 187.633,176.800 189.703,174.600 190.987 C 172.400 192.271,169.700 193.901,168.600 194.608 C 167.500 195.316,164.440 197.263,161.800 198.935 C 159.160 200.607,156.190 202.526,155.200 203.201 C 154.210 203.875,151.118 205.906,148.330 207.713 C 135.880 215.783,122.319 225.997,112.200 234.924 C 102.980 243.058,100.582 242.997,87.172 234.287 C 83.455 231.873,81.891 230.784,75.600 226.232 C 72.027 223.646,63.938 218.171,59.200 215.131 C 57.330 213.931,54.990 212.425,54.000 211.785 C 53.010 211.145,51.240 210.035,50.066 209.319 C 39.855 203.090,40.891 198.253,53.200 194.683 C 55.070 194.141,57.770 193.214,59.200 192.624 C 60.630 192.033,63.060 191.128,64.600 190.612 C 67.186 189.745,73.822 187.155,78.600 185.146 C 79.700 184.684,82.760 183.448,85.400 182.401 C 88.040 181.354,92.900 179.378,96.200 178.012 C 99.500 176.645,103.910 174.839,106.000 173.999 C 108.090 173.159,111.150 171.920,112.800 171.247 C 114.450 170.573,117.420 169.373,119.400 168.581 C 126.090 165.903,130.579 164.073,136.000 161.812 C 138.970 160.574,142.750 159.022,144.400 158.364 C 146.050 157.706,148.480 156.703,149.800 156.134 C 151.120 155.565,154.360 154.239,157.000 153.186 C 167.519 148.993,169.082 148.350,171.200 147.342 C 172.410 146.766,174.918 145.679,176.774 144.926 C 178.629 144.174,188.979 139.180,199.774 133.829 C 210.568 128.478,221.380 123.192,223.800 122.082 C 234.494 117.179,237.864 115.676,238.800 115.395 C 239.350 115.229,241.150 114.471,242.800 113.709 C 244.450 112.947,246.880 111.914,248.200 111.412 C 249.520 110.910,251.860 109.944,253.400 109.265 C 256.330 107.973,260.416 106.320,267.800 103.437 C 270.220 102.492,273.010 101.343,274.000 100.883 C 274.990 100.423,277.330 99.427,279.200 98.669 C 282.483 97.339,286.994 95.442,298.400 90.594 C 301.370 89.331,305.420 87.680,307.400 86.924 C 309.380 86.168,312.342 85.001,313.982 84.329 C 318.142 82.626,327.537 80.605,327.130 81.500 M353.204 90.900 C 354.642 93.257,353.442 99.730,349.219 112.400 C 348.375 114.930,346.569 120.510,345.204 124.800 C 343.839 129.090,342.006 134.670,341.130 137.200 C 340.255 139.730,339.103 143.268,338.570 145.063 C 338.038 146.858,337.078 149.738,336.438 151.463 C 335.798 153.188,334.643 156.580,333.872 159.000 C 333.102 161.420,332.020 164.750,331.469 166.400 C 329.377 172.669,326.802 181.141,326.197 183.751 C 325.851 185.244,324.866 188.655,324.009 191.332 C 323.153 194.010,322.156 197.460,321.795 199.000 C 321.435 200.540,320.624 203.330,319.995 205.200 C 319.365 207.070,318.483 210.410,318.034 212.622 C 317.584 214.833,316.599 218.703,315.844 221.222 C 315.089 223.740,314.194 227.170,313.856 228.845 C 313.517 230.519,312.612 233.849,311.844 236.245 C 311.075 238.640,310.069 242.130,309.608 244.000 C 309.146 245.870,308.066 249.560,307.207 252.200 C 304.573 260.295,301.948 268.848,301.132 272.000 C 300.704 273.650,299.826 276.665,299.179 278.699 C 298.533 280.733,297.741 284.023,297.420 286.010 C 297.098 287.996,296.120 292.902,295.246 296.911 C 294.369 300.931,293.452 306.532,293.202 309.400 C 292.952 312.260,292.061 318.740,291.221 323.800 C 290.382 328.860,289.498 334.598,289.258 336.551 C 287.966 347.070,286.637 347.086,265.821 336.829 C 253.036 330.529,250.654 329.380,238.400 323.596 C 234.110 321.571,224.750 316.934,217.600 313.290 C 203.371 306.040,202.254 305.484,195.800 302.425 C 166.487 288.533,166.530 288.941,191.572 262.816 C 196.097 258.095,200.353 253.685,201.028 253.016 C 203.152 250.913,210.040 243.236,215.396 237.000 C 218.231 233.700,221.445 230.010,222.540 228.800 C 223.634 227.590,225.092 225.970,225.779 225.200 C 228.848 221.761,237.277 212.664,240.603 209.200 C 252.836 196.460,259.965 188.786,275.901 171.200 C 283.178 163.170,294.115 151.650,300.205 145.600 C 315.708 130.198,319.395 126.104,332.800 109.405 C 334.890 106.802,337.230 103.917,338.000 102.994 C 338.770 102.071,340.467 100.020,341.771 98.436 C 344.871 94.669,348.276 91.543,350.452 90.466 C 352.587 89.409,352.264 89.358,353.204 90.900 M328.800 98.842 C 328.800 103.967,316.473 118.960,291.000 144.817 C 282.860 153.080,274.400 161.820,272.200 164.240 C 270.000 166.660,266.670 170.327,264.800 172.390 C 262.930 174.453,260.140 177.498,258.600 179.158 C 246.873 191.796,244.215 194.645,241.019 198.004 C 229.893 209.699,222.292 217.907,218.800 221.998 C 217.590 223.416,215.245 226.111,213.588 227.988 C 211.931 229.864,208.241 234.097,205.388 237.394 C 202.535 240.691,196.150 247.611,191.200 252.773 C 186.250 257.934,181.660 262.720,181.000 263.408 C 165.798 279.255,160.855 286.363,157.778 296.800 C 156.233 302.041,155.894 303.454,154.231 311.600 C 153.670 314.350,152.864 317.860,152.440 319.400 C 152.017 320.940,151.301 324.540,150.850 327.400 C 149.242 337.597,146.226 342.655,143.360 339.962 C 142.052 338.734,138.620 331.456,137.384 327.290 C 136.814 325.371,135.649 321.640,134.794 319.000 C 131.634 309.239,126.389 291.744,124.577 284.923 C 123.864 282.241,122.731 278.371,122.059 276.323 C 121.386 274.276,120.397 271.070,119.860 269.200 C 119.324 267.330,117.864 263.010,116.617 259.600 C 113.175 250.191,113.123 250.002,113.337 247.745 C 113.576 245.239,114.354 243.669,116.534 241.293 C 119.486 238.077,131.990 227.561,137.042 224.044 C 138.339 223.142,140.750 221.414,142.400 220.204 C 146.408 217.267,158.253 209.383,162.284 206.969 C 167.885 203.615,169.654 202.536,171.400 201.406 C 172.500 200.695,174.728 199.322,176.352 198.356 C 177.975 197.390,180.055 196.150,180.975 195.600 C 181.895 195.050,183.987 193.809,185.624 192.841 C 187.261 191.874,189.514 190.497,190.631 189.783 C 191.748 189.068,193.638 187.990,194.831 187.387 C 196.024 186.784,197.900 185.718,199.000 185.018 C 200.100 184.318,201.990 183.198,203.200 182.530 C 205.715 181.141,208.165 179.668,213.690 176.224 C 215.829 174.891,219.024 172.900,220.790 171.800 C 222.556 170.700,226.296 168.302,229.101 166.471 C 231.905 164.640,235.370 162.427,236.800 161.552 C 238.230 160.678,240.590 159.116,242.045 158.081 C 244.984 155.991,253.715 149.751,256.200 147.964 C 257.080 147.331,259.870 145.336,262.400 143.530 C 264.930 141.725,267.990 139.500,269.200 138.586 C 270.410 137.672,273.182 135.591,275.359 133.962 C 282.525 128.600,289.343 123.450,293.604 120.180 C 295.912 118.409,299.916 115.439,302.502 113.580 C 305.088 111.721,308.598 109.186,310.302 107.947 C 314.246 105.079,320.002 101.367,322.671 99.970 C 323.810 99.374,325.155 98.597,325.660 98.243 C 327.295 97.098,328.800 97.385,328.800 98.842 M169.934 285.100 C 170.077 287.309,170.689 289.514,171.867 292.064 C 173.116 294.768,172.941 295.465,170.921 295.832 C 168.253 296.318,165.752 297.886,163.334 300.589 C 162.051 302.025,160.860 303.200,160.689 303.200 C 160.233 303.200,160.796 298.246,161.627 294.943 C 163.453 287.682,169.627 280.367,169.934 285.100 M180.200 302.937 C 192.269 308.966,193.234 311.880,185.925 320.226 C 184.756 321.561,183.202 323.361,182.470 324.226 C 179.081 328.236,170.308 338.090,167.656 340.867 C 158.243 350.719,155.293 345.255,159.735 326.200 C 160.505 322.900,161.430 318.580,161.791 316.600 C 164.988 299.081,168.002 296.844,180.200 302.937 " stroke="none" fill="#484c4c" fill-rule="evenodd"></path><path id="path4" d="M311.400 87.389 C 304.552 89.779,300.578 91.395,280.400 100.000 C 277.210 101.360,272.170 103.432,269.200 104.604 C 266.230 105.776,261.550 107.665,258.800 108.801 C 256.050 109.938,251.910 111.637,249.600 112.577 C 247.290 113.517,243.931 114.942,242.135 115.743 C 240.340 116.545,238.734 117.200,238.568 117.200 C 238.402 117.200,236.361 118.080,234.033 119.155 C 231.705 120.230,227.550 122.136,224.800 123.391 C 222.050 124.645,211.340 129.872,201.000 135.006 C 190.660 140.140,180.040 145.269,177.400 146.403 C 174.760 147.537,170.080 149.548,167.000 150.871 C 163.920 152.195,159.870 153.873,158.000 154.601 C 153.455 156.370,139.020 162.268,127.000 167.269 C 124.360 168.367,120.220 170.039,117.800 170.985 C 113.411 172.699,107.960 174.913,96.600 179.595 C 93.300 180.954,88.601 182.842,86.159 183.788 C 83.716 184.735,81.336 185.713,80.869 185.963 C 79.192 186.861,64.906 192.290,55.484 195.610 C 49.282 197.796,47.637 198.680,46.152 200.627 L 45.121 201.978 46.013 203.421 C 47.089 205.163,49.324 206.948,54.750 210.400 C 64.063 216.325,73.210 222.419,76.400 224.823 C 86.200 232.208,96.652 238.487,100.324 239.195 C 103.039 239.718,105.944 238.237,111.005 233.750 C 117.653 227.857,118.843 226.903,131.400 217.397 C 136.346 213.652,145.815 207.146,153.200 202.417 C 155.070 201.220,157.680 199.534,159.000 198.672 C 164.673 194.965,170.374 191.483,180.400 185.604 C 183.150 183.991,186.480 182.010,187.800 181.201 C 189.120 180.392,193.800 177.597,198.200 174.990 C 212.685 166.407,225.677 158.368,233.800 152.962 C 246.172 144.729,246.392 144.571,269.014 127.607 C 279.141 120.013,290.728 111.370,294.761 108.400 C 322.238 88.166,327.226 81.868,311.400 87.389 M315.380 89.092 C 315.953 90.586,304.204 100.470,287.849 112.253 C 286.282 113.382,282.642 116.082,279.761 118.253 C 252.084 139.106,246.044 143.544,236.800 149.820 C 229.106 155.044,214.545 164.162,204.321 170.159 C 202.407 171.282,199.167 173.206,197.121 174.436 C 195.074 175.666,190.340 178.476,186.600 180.681 C 179.602 184.806,179.126 185.091,171.000 190.016 C 162.203 195.348,159.968 196.772,143.733 207.393 C 134.742 213.275,117.391 226.536,110.262 232.975 C 104.226 238.426,102.054 239.076,96.999 236.943 C 94.049 235.698,83.647 228.985,77.161 224.141 C 73.457 221.374,63.221 214.541,54.846 209.244 C 45.304 203.209,45.161 200.187,54.273 197.194 C 58.136 195.925,62.498 194.312,70.000 191.378 C 72.090 190.560,75.330 189.296,77.200 188.569 C 79.070 187.842,83.930 185.871,88.000 184.189 C 92.070 182.506,96.570 180.689,98.000 180.150 C 99.430 179.611,101.770 178.646,103.200 178.004 C 106.744 176.415,114.235 173.409,118.600 171.825 C 120.580 171.107,122.942 170.140,123.850 169.677 C 124.757 169.214,127.097 168.212,129.050 167.452 C 131.002 166.691,135.480 164.871,139.000 163.408 C 145.114 160.867,148.838 159.357,160.000 154.892 C 175.194 148.815,186.209 143.673,212.074 130.583 C 215.744 128.725,220.334 126.502,222.274 125.642 C 224.213 124.782,228.230 122.962,231.200 121.597 C 234.170 120.233,238.490 118.341,240.800 117.393 C 243.110 116.446,247.430 114.643,250.400 113.388 C 256.239 110.920,264.011 107.755,271.000 104.997 C 273.420 104.043,276.840 102.638,278.600 101.875 C 280.360 101.113,284.050 99.548,286.800 98.397 C 289.550 97.247,293.420 95.617,295.400 94.775 C 308.879 89.040,314.722 87.378,315.380 89.092 M346.874 95.979 C 344.792 97.625,341.173 101.818,330.805 114.600 C 320.851 126.871,317.442 130.612,302.193 146.000 C 289.447 158.862,281.600 167.232,268.630 181.800 C 264.897 185.993,258.654 192.671,246.575 205.391 C 233.571 219.086,225.803 227.595,216.990 237.800 C 210.232 245.624,205.128 251.205,197.976 258.588 C 173.358 284.003,171.555 287.041,178.419 291.534 C 180.722 293.042,229.309 317.538,239.711 322.437 C 250.067 327.313,253.047 328.751,267.200 335.703 C 286.229 345.051,286.766 344.978,288.179 332.856 C 288.520 329.929,289.332 324.443,289.983 320.667 C 290.635 316.890,291.449 311.190,291.792 308.000 C 292.136 304.810,292.765 300.580,293.190 298.600 C 293.615 296.620,294.432 292.660,295.004 289.800 C 296.660 281.527,297.002 280.093,298.578 274.800 C 300.882 267.064,304.330 255.840,305.828 251.200 C 306.574 248.890,307.708 245.020,308.349 242.600 C 308.989 240.180,310.148 236.040,310.924 233.400 C 311.700 230.760,312.782 226.800,313.328 224.600 C 316.984 209.864,317.021 209.724,320.785 196.600 C 321.857 192.860,323.301 187.820,323.992 185.400 C 326.535 176.503,329.413 167.422,334.705 151.600 C 337.686 142.690,340.468 134.320,340.889 133.000 C 341.310 131.680,342.523 127.900,343.585 124.600 C 351.744 99.247,352.703 94.400,349.556 94.400 C 349.180 94.400,347.973 95.110,346.874 95.979 M349.019 98.960 C 349.386 100.915,348.595 105.392,346.976 110.536 C 343.909 120.276,340.422 130.991,334.785 148.000 C 326.853 171.934,325.404 176.460,324.405 180.422 C 323.937 182.280,322.948 185.690,322.208 188.000 C 321.468 190.310,320.405 194.000,319.846 196.200 C 319.286 198.400,318.378 201.520,317.827 203.132 C 317.276 204.745,316.362 208.165,315.795 210.732 C 315.228 213.300,314.413 216.480,313.984 217.800 C 313.555 219.120,312.593 222.810,311.846 226.000 C 311.099 229.190,310.026 233.240,309.460 235.000 C 308.894 236.760,308.051 239.730,307.585 241.600 C 307.120 243.470,306.131 246.800,305.387 249.000 C 304.644 251.200,303.752 254.129,303.405 255.508 C 303.058 256.887,302.145 259.857,301.376 262.108 C 300.607 264.359,299.538 267.820,299.000 269.800 C 298.463 271.780,297.500 275.110,296.862 277.200 C 296.224 279.290,295.391 282.710,295.011 284.800 C 294.631 286.890,293.786 290.850,293.134 293.600 C 292.481 296.350,291.424 302.740,290.784 307.800 C 290.145 312.860,289.179 319.520,288.637 322.600 C 288.096 325.680,287.453 330.090,287.209 332.400 C 285.980 344.044,285.171 343.998,259.600 330.804 C 258.830 330.406,252.980 327.613,246.600 324.597 C 240.220 321.581,230.950 317.090,226.000 314.617 C 179.697 291.488,177.707 290.431,176.836 288.520 C 175.046 284.590,177.181 281.678,197.009 261.000 C 206.826 250.762,213.859 243.073,220.948 234.826 C 228.928 225.544,231.770 222.464,253.247 199.824 C 259.103 193.651,268.259 183.740,273.593 177.800 C 287.954 161.808,288.455 161.276,302.263 147.397 C 318.373 131.204,323.605 125.370,336.311 109.431 C 344.210 99.522,348.466 96.015,349.019 98.960 M316.735 106.713 C 312.517 109.170,310.814 110.271,307.060 112.969 C 304.892 114.526,302.102 116.508,300.860 117.372 C 299.617 118.237,297.340 119.916,295.800 121.104 C 290.083 125.512,275.897 136.245,274.080 137.537 C 273.046 138.272,270.850 139.883,269.200 141.117 C 264.472 144.653,262.675 145.950,255.000 151.359 C 251.040 154.151,247.474 156.704,247.077 157.033 C 245.814 158.079,234.500 165.560,227.104 170.241 C 225.401 171.318,223.168 172.740,222.141 173.400 C 217.846 176.161,208.736 181.710,205.200 183.719 C 203.110 184.907,199.330 187.103,196.800 188.600 C 194.270 190.097,190.760 192.166,189.000 193.198 C 185.845 195.048,175.434 201.369,168.800 205.461 C 166.930 206.615,164.410 208.143,163.200 208.857 C 149.746 216.799,127.871 233.018,119.577 241.200 C 114.982 245.733,114.414 248.149,116.617 253.791 C 119.437 261.013,124.959 278.263,126.223 283.800 C 126.574 285.340,127.462 288.490,128.196 290.800 C 128.930 293.110,129.825 296.080,130.185 297.400 C 130.545 298.720,131.631 302.320,132.597 305.400 C 133.564 308.480,134.830 312.530,135.412 314.400 C 135.994 316.270,137.325 320.531,138.371 323.869 C 143.127 339.054,146.634 339.486,149.182 325.200 C 149.633 322.670,150.522 318.530,151.158 316.000 C 151.795 313.470,152.703 309.330,153.177 306.800 C 153.651 304.270,154.748 299.837,155.613 296.948 C 159.557 283.789,162.350 279.952,185.855 255.400 C 196.147 244.650,197.953 242.697,203.795 236.000 C 206.194 233.250,208.976 230.096,209.978 228.991 C 210.980 227.886,212.700 225.910,213.800 224.600 C 217.733 219.915,224.862 212.059,233.030 203.409 C 246.308 189.347,259.148 175.554,265.807 168.200 C 274.266 158.857,281.017 151.800,293.170 139.600 C 316.565 116.114,328.006 100.146,316.735 106.713 M314.593 111.588 C 315.742 113.448,304.727 126.229,285.797 145.000 C 278.703 152.034,272.848 158.253,260.740 171.611 C 256.857 175.895,252.987 180.121,252.140 181.003 C 250.360 182.855,246.565 186.882,238.400 195.585 C 235.210 198.985,230.890 203.575,228.800 205.785 C 226.710 207.995,223.920 210.979,222.600 212.415 C 220.230 214.994,219.277 216.081,212.733 223.662 C 206.215 231.215,197.845 240.644,195.036 243.600 C 186.528 252.552,182.991 256.258,178.815 260.600 C 170.546 269.199,163.116 277.903,160.934 281.549 C 157.969 286.504,156.994 288.442,155.625 292.104 C 154.783 294.357,153.623 298.270,153.048 300.800 C 150.518 311.916,149.493 316.553,148.407 321.800 C 146.243 332.255,144.859 333.980,142.235 329.493 C 140.804 327.044,140.624 326.516,134.184 305.800 C 131.739 297.934,129.267 289.490,127.275 282.200 C 124.620 272.482,122.100 264.598,118.579 255.000 C 115.826 247.495,116.840 244.587,124.225 238.800 C 124.927 238.250,127.008 236.529,128.851 234.975 C 131.931 232.377,137.326 228.228,142.800 224.246 C 144.010 223.366,145.900 221.984,147.000 221.176 C 153.891 216.112,173.744 203.828,198.200 189.496 C 211.240 181.854,216.631 178.613,221.105 175.724 C 223.583 174.124,226.193 172.517,226.905 172.152 C 227.617 171.787,228.290 171.374,228.400 171.233 C 228.510 171.093,231.120 169.368,234.200 167.400 C 239.847 163.791,243.628 161.244,248.400 157.834 C 249.830 156.812,253.880 153.923,257.400 151.413 C 264.497 146.353,264.466 146.376,273.200 139.949 C 279.726 135.147,279.866 135.042,288.575 128.400 C 295.039 123.470,296.579 122.336,301.853 118.618 C 304.024 117.088,305.890 115.730,306.000 115.599 C 307.191 114.185,314.181 110.922,314.593 111.588 M169.340 302.470 C 167.365 303.426,165.234 309.397,163.386 319.150 C 162.819 322.148,162.076 325.680,161.737 327.000 C 161.081 329.556,161.027 329.805,160.403 333.173 C 158.698 342.373,161.701 344.441,167.600 338.128 C 169.925 335.641,178.807 325.545,182.443 321.257 C 190.651 311.578,190.249 310.082,177.831 304.119 C 173.299 301.942,171.252 301.545,169.340 302.470 M178.608 306.139 C 189.406 311.382,189.441 311.259,171.444 331.787 C 163.192 341.199,160.352 340.563,162.573 329.800 C 162.709 329.140,163.165 326.980,163.587 325.000 C 164.008 323.020,164.745 319.431,165.226 317.025 C 167.970 303.271,169.738 301.833,178.608 306.139 " stroke="none" fill="#7e8484" fill-rule="evenodd"></path><path id="path5" d="M310.000 89.189 C 307.367 89.915,301.963 91.982,295.400 94.775 C 293.420 95.617,289.550 97.247,286.800 98.397 C 284.050 99.548,280.360 101.113,278.600 101.875 C 276.840 102.638,273.420 104.043,271.000 104.997 C 264.011 107.755,256.239 110.920,250.400 113.388 C 247.430 114.643,243.110 116.446,240.800 117.393 C 238.490 118.341,234.170 120.233,231.200 121.597 C 228.230 122.962,224.213 124.782,222.274 125.642 C 220.334 126.502,215.744 128.725,212.074 130.583 C 186.209 143.673,175.194 148.815,160.000 154.892 C 148.838 159.357,145.114 160.867,139.000 163.408 C 135.480 164.871,131.002 166.691,129.050 167.452 C 127.097 168.212,124.757 169.214,123.850 169.677 C 122.942 170.140,120.580 171.107,118.600 171.825 C 114.235 173.409,106.744 176.415,103.200 178.004 C 101.770 178.646,99.430 179.611,98.000 180.150 C 96.570 180.689,92.070 182.506,88.000 184.189 C 83.930 185.871,79.070 187.842,77.200 188.569 C 75.330 189.296,72.090 190.560,70.000 191.378 C 62.498 194.312,58.136 195.925,54.273 197.194 C 45.161 200.187,45.304 203.209,54.846 209.244 C 63.221 214.541,73.457 221.374,77.161 224.141 C 83.647 228.985,94.049 235.698,96.999 236.943 C 102.054 239.076,104.226 238.426,110.262 232.975 C 117.391 226.536,134.742 213.275,143.733 207.393 C 159.968 196.772,162.203 195.348,171.000 190.016 C 179.126 185.091,179.602 184.806,186.600 180.681 C 190.340 178.476,195.074 175.666,197.121 174.436 C 199.167 173.206,202.407 171.282,204.321 170.159 C 230.245 154.954,239.508 148.581,279.761 118.253 C 282.642 116.082,286.282 113.382,287.849 112.253 C 304.204 100.470,315.953 90.586,315.380 89.092 C 315.041 88.210,313.448 88.238,310.000 89.189 M309.200 92.752 C 309.200 94.436,301.816 100.458,279.938 116.616 C 279.355 117.047,273.235 121.639,266.338 126.820 C 244.634 143.127,244.568 143.175,231.931 151.532 C 221.103 158.692,220.296 159.194,203.200 169.407 C 195.170 174.204,187.430 178.836,186.000 179.701 C 181.344 182.517,174.720 186.400,174.572 186.400 C 174.173 186.400,154.837 198.665,145.200 205.031 C 133.269 212.913,120.555 222.472,111.743 230.187 C 105.063 236.035,103.482 236.967,100.694 236.699 C 97.543 236.397,89.644 231.740,78.800 223.792 C 75.783 221.580,64.956 214.304,56.392 208.732 C 47.122 202.701,47.323 200.737,57.558 197.349 C 61.866 195.923,73.854 191.243,88.400 185.309 C 91.370 184.097,95.330 182.512,97.200 181.787 C 100.485 180.513,103.293 179.340,105.799 178.195 C 106.460 177.893,111.320 175.934,116.600 173.840 C 121.880 171.746,127.550 169.470,129.200 168.783 C 130.850 168.095,135.025 166.383,138.478 164.978 C 141.932 163.574,145.532 162.075,146.478 161.648 C 148.427 160.769,157.374 157.157,161.000 155.786 C 162.320 155.287,164.817 154.231,166.550 153.439 C 168.282 152.648,169.861 152.000,170.059 152.000 C 170.256 152.000,171.988 151.266,173.909 150.370 C 175.829 149.473,178.850 148.139,180.623 147.404 C 182.395 146.669,192.295 141.867,202.623 136.733 C 212.950 131.599,222.660 126.832,224.200 126.140 C 225.740 125.448,229.430 123.768,232.400 122.405 C 235.370 121.042,239.690 119.147,242.000 118.195 C 244.310 117.242,248.180 115.629,250.600 114.610 C 258.727 111.189,267.779 107.493,270.400 106.524 C 272.751 105.655,275.948 104.321,287.000 99.595 C 288.980 98.748,291.770 97.605,293.200 97.054 C 294.630 96.504,297.060 95.534,298.600 94.899 C 301.063 93.884,304.997 92.718,307.400 92.290 C 308.309 92.128,309.200 92.357,309.200 92.752 M346.160 98.730 C 344.573 99.880,339.732 105.140,336.311 109.431 C 323.605 125.370,318.373 131.204,302.263 147.397 C 288.455 161.276,287.954 161.808,273.593 177.800 C 268.259 183.740,259.103 193.651,253.247 199.824 C 231.770 222.464,228.928 225.544,220.948 234.826 C 213.859 243.073,206.826 250.762,197.009 261.000 C 177.181 281.678,175.046 284.590,176.836 288.520 C 177.707 290.431,179.697 291.488,226.000 314.617 C 230.950 317.090,240.220 321.581,246.600 324.597 C 252.980 327.613,258.830 330.406,259.600 330.804 C 285.171 343.998,285.980 344.044,287.209 332.400 C 287.453 330.090,288.096 325.680,288.637 322.600 C 289.179 319.520,290.145 312.860,290.784 307.800 C 291.424 302.740,292.481 296.350,293.134 293.600 C 293.786 290.850,294.631 286.890,295.011 284.800 C 295.391 282.710,296.224 279.290,296.862 277.200 C 297.500 275.110,298.463 271.780,299.000 269.800 C 299.538 267.820,300.607 264.359,301.376 262.108 C 302.145 259.857,303.058 256.887,303.405 255.508 C 303.752 254.129,304.644 251.200,305.387 249.000 C 306.131 246.800,307.120 243.470,307.585 241.600 C 308.051 239.730,308.894 236.760,309.460 235.000 C 310.026 233.240,311.099 229.190,311.846 226.000 C 312.593 222.810,313.555 219.120,313.984 217.800 C 314.413 216.480,315.228 213.300,315.795 210.732 C 316.362 208.165,317.276 204.745,317.827 203.132 C 318.378 201.520,319.286 198.400,319.846 196.200 C 320.405 194.000,321.468 190.310,322.208 188.000 C 322.948 185.690,323.937 182.280,324.405 180.422 C 325.404 176.460,326.853 171.934,334.785 148.000 C 340.422 130.991,343.909 120.276,346.976 110.536 C 350.163 100.415,349.861 96.049,346.160 98.730 M346.723 104.138 C 346.906 107.000,342.596 121.149,331.902 152.800 C 329.932 158.630,327.915 164.750,327.420 166.400 C 326.925 168.050,325.877 171.470,325.090 174.000 C 324.304 176.530,323.117 180.490,322.453 182.800 C 319.394 193.447,318.630 196.064,317.493 199.800 C 316.823 202.000,315.512 206.860,314.580 210.600 C 311.706 222.131,308.878 232.945,308.430 234.123 C 308.195 234.741,307.541 237.081,306.978 239.323 C 306.034 243.078,304.469 248.251,300.956 259.227 C 296.957 271.718,295.255 278.109,292.441 291.200 C 290.773 298.959,290.227 302.094,289.797 306.400 C 289.485 309.525,288.081 318.908,287.812 319.663 C 287.596 320.270,286.179 330.490,285.782 334.299 C 285.094 340.905,283.164 341.099,272.200 335.666 C 262.537 330.878,256.822 328.131,241.005 320.672 C 237.051 318.808,207.248 303.905,187.913 294.124 C 173.509 286.837,173.395 287.185,198.800 261.000 C 205.611 253.981,212.004 246.944,222.421 235.000 C 227.923 228.691,237.497 218.183,243.200 212.192 C 246.650 208.568,253.056 201.790,260.600 193.781 C 265.387 188.699,266.998 186.954,270.000 183.599 C 271.870 181.510,274.488 178.630,275.818 177.200 C 277.148 175.770,280.381 172.170,283.003 169.200 C 285.626 166.230,294.529 156.960,302.789 148.600 C 311.049 140.240,318.816 132.230,320.048 130.800 C 321.280 129.370,323.631 126.670,325.271 124.800 C 326.911 122.930,329.850 119.420,331.802 117.000 C 344.036 101.835,346.444 99.759,346.723 104.138 M313.200 111.477 C 312.438 111.750,306.267 115.282,306.000 115.599 C 305.890 115.730,304.024 117.088,301.853 118.618 C 296.579 122.336,295.039 123.470,288.575 128.400 C 279.866 135.042,279.726 135.147,273.200 139.949 C 264.466 146.376,264.497 146.353,257.400 151.413 C 253.880 153.923,249.830 156.812,248.400 157.834 C 243.628 161.244,239.847 163.791,234.200 167.400 C 231.120 169.368,228.510 171.093,228.400 171.233 C 228.290 171.374,227.617 171.787,226.905 172.152 C 226.193 172.517,223.583 174.124,221.105 175.724 C 216.631 178.613,211.240 181.854,198.200 189.496 C 173.744 203.828,153.891 216.112,147.000 221.176 C 145.900 221.984,144.010 223.366,142.800 224.246 C 137.326 228.228,131.931 232.377,128.851 234.975 C 127.008 236.529,124.927 238.250,124.225 238.800 C 116.840 244.587,115.826 247.495,118.579 255.000 C 122.100 264.598,124.620 272.482,127.275 282.200 C 129.267 289.490,131.739 297.934,134.184 305.800 C 140.624 326.516,140.804 327.044,142.235 329.493 C 144.859 333.980,146.243 332.255,148.407 321.800 C 149.493 316.553,150.518 311.916,153.048 300.800 C 153.623 298.270,154.783 294.357,155.625 292.104 C 156.994 288.442,157.969 286.504,160.934 281.549 C 163.116 277.903,170.546 269.199,178.815 260.600 C 182.991 256.258,186.528 252.552,195.036 243.600 C 197.845 240.644,206.215 231.215,212.733 223.662 C 219.277 216.081,220.230 214.994,222.600 212.415 C 223.920 210.979,226.710 207.995,228.800 205.785 C 230.890 203.575,235.210 198.985,238.400 195.585 C 246.565 186.882,250.360 182.855,252.140 181.003 C 252.987 180.121,256.857 175.895,260.740 171.611 C 272.848 158.253,278.703 152.034,285.797 145.000 C 307.905 123.078,319.114 109.366,313.200 111.477 M302.000 123.217 C 302.000 123.666,301.826 124.251,301.614 124.517 C 298.737 128.117,293.510 133.810,286.442 141.044 C 275.683 152.055,269.383 158.737,261.778 167.200 C 258.516 170.830,251.876 178.027,247.023 183.193 C 242.171 188.359,235.238 195.739,231.617 199.593 C 225.420 206.189,223.003 208.786,218.192 214.017 C 217.088 215.218,215.199 217.370,213.995 218.800 C 207.807 226.148,192.782 242.817,184.813 251.176 C 169.151 267.603,168.276 268.555,164.368 273.428 C 155.658 284.290,152.754 290.620,149.794 305.200 C 146.806 319.916,144.695 326.056,143.153 324.513 C 142.652 324.012,140.227 317.719,139.024 313.800 C 138.417 311.820,137.051 307.410,135.989 304.000 C 132.584 293.070,129.501 282.470,128.999 279.968 C 128.636 278.158,124.046 263.874,120.398 253.200 C 118.329 247.146,118.830 246.211,128.426 238.204 C 131.684 235.486,135.396 232.491,136.675 231.549 C 137.954 230.606,139.180 229.695,139.400 229.524 C 141.474 227.909,142.744 226.979,146.200 224.547 C 154.773 218.514,156.884 217.113,165.207 211.923 C 169.941 208.972,174.081 206.430,174.407 206.274 C 174.733 206.119,175.482 205.678,176.071 205.296 C 177.677 204.253,182.914 201.045,183.600 200.684 C 183.930 200.510,184.562 200.150,185.004 199.884 C 185.446 199.618,187.929 198.140,190.521 196.600 C 193.114 195.060,195.722 193.510,196.317 193.155 C 199.408 191.312,207.207 186.752,211.800 184.103 C 214.660 182.453,217.270 180.873,217.600 180.592 C 217.930 180.311,218.830 179.727,219.600 179.293 C 225.041 176.231,241.379 165.497,251.212 158.524 C 254.616 156.110,258.907 153.070,260.748 151.768 C 263.888 149.547,275.322 141.216,276.200 140.509 C 277.014 139.854,278.734 138.582,279.592 138.000 C 280.453 137.416,284.395 134.449,285.600 133.478 C 290.324 129.670,300.595 122.728,300.962 123.096 C 301.093 123.226,301.200 123.123,301.200 122.867 C 301.200 122.610,301.380 122.400,301.600 122.400 C 301.820 122.400,302.000 122.768,302.000 123.217 M170.526 304.170 C 168.501 305.075,166.775 309.263,165.226 317.025 C 164.745 319.431,164.008 323.020,163.587 325.000 C 163.165 326.980,162.709 329.140,162.573 329.800 C 160.352 340.563,163.192 341.199,171.444 331.787 C 189.441 311.259,189.406 311.382,178.608 306.139 C 173.548 303.683,172.297 303.378,170.526 304.170 M177.800 308.361 C 185.166 311.879,185.108 312.490,176.447 322.600 C 164.714 336.296,163.811 336.147,166.764 321.000 C 169.737 305.756,170.504 304.877,177.800 308.361 " stroke="none" fill="#9ca0a0" fill-rule="evenodd"></path><path id="path6" d="M317.200 84.407 C 313.749 85.382,306.340 88.182,299.200 91.210 C 280.624 99.088,273.990 101.863,268.600 104.011 C 262.598 106.402,254.343 109.788,248.600 112.213 C 246.180 113.235,242.130 114.930,239.600 115.979 C 237.070 117.029,233.920 118.384,232.600 118.991 C 231.280 119.598,227.860 121.173,225.000 122.491 C 222.140 123.809,212.690 128.406,204.000 132.706 C 186.495 141.367,180.573 144.222,177.000 145.722 C 175.680 146.276,173.430 147.269,172.000 147.928 C 168.873 149.370,163.503 151.592,158.600 153.471 C 156.620 154.230,153.830 155.373,152.400 156.011 C 150.970 156.648,148.000 157.884,145.800 158.757 C 143.600 159.630,139.370 161.355,136.400 162.590 C 133.430 163.825,129.470 165.441,127.600 166.181 C 125.730 166.921,123.120 168.011,121.800 168.603 C 120.480 169.196,117.780 170.278,115.800 171.008 C 113.820 171.738,109.320 173.539,105.800 175.010 C 102.280 176.481,98.230 178.126,96.800 178.665 C 95.370 179.204,93.030 180.167,91.600 180.805 C 90.170 181.442,86.660 182.893,83.800 184.028 C 80.940 185.164,76.800 186.808,74.600 187.681 C 66.736 190.805,58.926 193.702,54.355 195.189 C 41.493 199.376,41.129 202.679,52.727 210.000 C 59.702 214.403,73.240 223.397,76.400 225.729 C 82.562 230.275,92.206 236.568,95.642 238.285 C 102.233 241.580,103.414 241.205,113.340 232.670 C 118.886 227.902,126.744 221.695,132.535 217.507 C 133.671 216.686,136.310 214.768,138.400 213.244 C 140.490 211.720,144.090 209.255,146.400 207.766 C 148.710 206.277,153.120 203.412,156.200 201.400 C 164.339 196.082,170.966 192.005,181.200 186.018 C 183.950 184.409,186.920 182.632,187.800 182.068 C 188.680 181.504,190.570 180.386,192.000 179.585 C 193.430 178.783,197.210 176.549,200.400 174.619 C 203.590 172.689,207.730 170.202,209.600 169.092 C 229.232 157.441,243.373 147.881,264.170 132.200 C 271.173 126.920,280.109 120.238,284.029 117.352 C 287.948 114.466,292.044 111.406,293.131 110.552 C 294.217 109.698,296.860 107.740,299.003 106.200 C 312.744 96.327,323.702 86.648,323.297 84.741 C 323.021 83.443,321.003 83.332,317.200 84.407 M320.149 86.300 C 319.427 89.286,312.345 95.451,294.761 108.400 C 290.728 111.370,279.141 120.013,269.014 127.607 C 246.392 144.571,246.172 144.729,233.800 152.962 C 225.677 158.368,212.685 166.407,198.200 174.990 C 193.800 177.597,189.120 180.392,187.800 181.201 C 186.480 182.010,183.150 183.991,180.400 185.604 C 170.374 191.483,164.673 194.965,159.000 198.672 C 157.680 199.534,155.070 201.220,153.200 202.417 C 145.815 207.146,136.346 213.652,131.400 217.397 C 118.843 226.903,117.653 227.857,111.005 233.750 C 105.944 238.237,103.039 239.718,100.324 239.195 C 96.652 238.487,86.200 232.208,76.400 224.823 C 73.210 222.419,64.063 216.325,54.750 210.400 C 49.324 206.948,47.089 205.163,46.013 203.421 L 45.121 201.978 46.152 200.627 C 47.637 198.680,49.282 197.796,55.484 195.610 C 64.906 192.290,79.192 186.861,80.869 185.963 C 81.336 185.713,83.716 184.735,86.159 183.788 C 88.601 182.842,93.300 180.954,96.600 179.595 C 107.960 174.913,113.411 172.699,117.800 170.985 C 120.220 170.039,124.360 168.367,127.000 167.269 C 139.020 162.268,153.455 156.370,158.000 154.601 C 159.870 153.873,163.920 152.195,167.000 150.871 C 170.080 149.548,174.760 147.537,177.400 146.403 C 180.040 145.269,190.660 140.140,201.000 135.006 C 211.340 129.872,222.050 124.645,224.800 123.391 C 227.550 122.136,231.705 120.230,234.033 119.155 C 236.361 118.080,238.402 117.200,238.568 117.200 C 238.734 117.200,240.340 116.545,242.135 115.743 C 243.931 114.942,247.290 113.517,249.600 112.577 C 251.910 111.637,256.050 109.938,258.800 108.801 C 261.550 107.665,266.230 105.776,269.200 104.604 C 272.170 103.432,277.210 101.360,280.400 100.000 C 300.578 91.395,304.552 89.779,311.400 87.389 C 318.575 84.886,320.551 84.640,320.149 86.300 M348.600 93.141 C 346.722 94.295,342.371 99.111,335.200 107.972 C 319.657 127.178,316.922 130.215,299.359 147.767 C 288.328 158.790,282.734 164.751,270.418 178.600 C 264.841 184.871,254.043 196.475,241.767 209.390 C 231.807 219.869,225.293 227.006,218.397 235.000 C 210.297 244.390,204.816 250.397,195.407 260.200 C 176.297 280.110,174.400 282.516,174.400 286.854 C 174.400 290.586,175.551 291.372,195.685 301.387 C 205.208 306.124,216.330 311.705,220.400 313.790 C 224.470 315.875,233.920 320.488,241.400 324.040 C 248.880 327.593,260.400 333.159,267.000 336.410 C 287.707 346.607,287.239 346.730,289.206 330.600 C 289.448 328.620,290.074 324.660,290.597 321.800 C 291.120 318.940,291.832 314.080,292.179 311.000 C 293.099 302.826,293.560 299.889,294.657 295.220 C 295.197 292.921,296.076 288.691,296.610 285.820 C 297.143 282.949,298.018 279.250,298.553 277.600 C 299.088 275.950,300.004 272.825,300.588 270.656 C 301.172 268.486,302.098 265.467,302.646 263.947 C 303.195 262.427,304.249 259.072,304.990 256.491 C 305.731 253.911,306.970 249.730,307.744 247.200 C 310.026 239.736,311.113 235.845,313.187 227.704 C 314.265 223.472,315.253 219.837,315.383 219.628 C 315.512 219.419,316.322 216.222,317.183 212.524 C 318.044 208.826,319.127 204.720,319.590 203.400 C 320.053 202.080,320.867 199.290,321.399 197.200 C 321.931 195.110,322.899 191.780,323.551 189.800 C 324.203 187.820,325.119 184.670,325.586 182.800 C 326.731 178.212,328.612 172.283,335.797 150.600 C 339.150 140.480,343.022 128.690,344.401 124.400 C 345.779 120.110,347.591 114.530,348.426 112.000 C 353.706 96.010,353.762 89.967,348.600 93.141 M350.720 94.880 C 352.186 96.346,350.739 102.370,343.585 124.600 C 342.523 127.900,341.310 131.680,340.889 133.000 C 340.468 134.320,337.686 142.690,334.705 151.600 C 329.413 167.422,326.535 176.503,323.992 185.400 C 323.301 187.820,321.857 192.860,320.785 196.600 C 317.021 209.724,316.984 209.864,313.328 224.600 C 312.782 226.800,311.700 230.760,310.924 233.400 C 310.148 236.040,308.989 240.180,308.349 242.600 C 307.708 245.020,306.574 248.890,305.828 251.200 C 304.330 255.840,300.882 267.064,298.578 274.800 C 297.002 280.093,296.660 281.527,295.004 289.800 C 294.432 292.660,293.615 296.620,293.190 298.600 C 292.765 300.580,292.136 304.810,291.792 308.000 C 291.449 311.190,290.635 316.890,289.983 320.667 C 289.332 324.443,288.520 329.929,288.179 332.856 C 286.766 344.978,286.229 345.051,267.200 335.703 C 253.047 328.751,250.067 327.313,239.711 322.437 C 229.309 317.538,180.722 293.042,178.419 291.534 C 171.555 287.041,173.358 284.003,197.976 258.588 C 205.128 251.205,210.232 245.624,216.990 237.800 C 225.803 227.595,233.571 219.086,246.575 205.391 C 258.654 192.671,264.897 185.993,268.630 181.800 C 281.600 167.232,289.447 158.862,302.193 146.000 C 317.442 130.612,320.851 126.871,330.805 114.600 C 346.173 95.655,348.847 93.007,350.720 94.880 M320.073 103.111 C 314.253 106.542,303.050 114.303,294.527 120.807 C 281.351 130.862,265.043 142.987,257.400 148.411 C 252.340 152.001,247.300 155.601,246.200 156.410 C 244.487 157.669,240.982 160.045,233.800 164.813 C 232.167 165.897,219.023 174.205,213.600 177.580 C 211.950 178.607,208.620 180.592,206.200 181.992 C 203.780 183.392,200.540 185.287,199.000 186.204 C 197.460 187.122,194.940 188.599,193.400 189.488 C 189.640 191.657,174.122 200.981,166.200 205.830 C 158.362 210.627,149.761 216.293,143.463 220.806 C 140.858 222.672,138.060 224.650,137.246 225.200 C 133.323 227.850,121.316 237.961,118.089 241.331 C 114.552 245.025,113.497 248.454,114.843 251.874 C 116.403 255.836,120.226 266.749,121.053 269.600 C 121.596 271.470,122.509 274.437,123.084 276.194 C 123.658 277.950,124.804 281.910,125.630 284.994 C 127.656 292.555,132.222 307.774,135.412 317.600 C 136.162 319.910,137.328 323.663,138.003 325.940 C 139.750 331.828,143.093 338.243,144.400 338.214 C 146.957 338.155,148.456 334.929,149.983 326.200 C 150.445 323.560,151.438 318.880,152.189 315.800 C 152.941 312.720,153.755 309.030,153.998 307.600 C 157.223 288.609,160.695 283.155,187.350 255.223 C 194.814 247.400,201.823 239.920,202.925 238.600 C 205.046 236.060,215.624 223.905,221.000 217.832 C 223.691 214.792,231.435 206.491,246.970 189.994 C 248.526 188.341,251.225 185.461,252.967 183.594 C 254.710 181.727,257.233 179.030,258.575 177.600 C 259.917 176.170,262.706 173.110,264.773 170.800 C 271.744 163.008,278.934 155.461,292.403 141.800 C 304.432 129.598,311.484 122.001,315.600 116.806 C 316.370 115.834,317.458 114.491,318.019 113.820 C 325.996 104.267,327.002 99.026,320.073 103.111 M321.200 106.013 C 321.200 109.205,309.596 123.109,293.170 139.600 C 281.017 151.800,274.266 158.857,265.807 168.200 C 259.148 175.554,246.308 189.347,233.030 203.409 C 224.862 212.059,217.733 219.915,213.800 224.600 C 212.700 225.910,210.980 227.886,209.978 228.991 C 208.976 230.096,206.194 233.250,203.795 236.000 C 197.953 242.697,196.147 244.650,185.855 255.400 C 162.350 279.952,159.557 283.789,155.613 296.948 C 154.748 299.837,153.651 304.270,153.177 306.800 C 152.703 309.330,151.795 313.470,151.158 316.000 C 150.522 318.530,149.633 322.670,149.182 325.200 C 146.634 339.486,143.127 339.054,138.371 323.869 C 137.325 320.531,135.994 316.270,135.412 314.400 C 134.830 312.530,133.564 308.480,132.597 305.400 C 131.631 302.320,130.545 298.720,130.185 297.400 C 129.825 296.080,128.930 293.110,128.196 290.800 C 127.462 288.490,126.574 285.340,126.223 283.800 C 124.959 278.263,119.437 261.013,116.617 253.791 C 114.414 248.149,114.982 245.733,119.577 241.200 C 127.871 233.018,149.746 216.799,163.200 208.857 C 164.410 208.143,166.930 206.615,168.800 205.461 C 175.434 201.369,185.845 195.048,189.000 193.198 C 190.760 192.166,194.270 190.097,196.800 188.600 C 199.330 187.103,203.110 184.907,205.200 183.719 C 208.736 181.710,217.846 176.161,222.141 173.400 C 223.168 172.740,225.401 171.318,227.104 170.241 C 234.500 165.560,245.814 158.079,247.077 157.033 C 247.474 156.704,251.040 154.151,255.000 151.359 C 262.675 145.950,264.472 144.653,269.200 141.117 C 270.850 139.883,273.046 138.272,274.080 137.537 C 275.897 136.245,290.083 125.512,295.800 121.104 C 297.340 119.916,299.617 118.237,300.860 117.372 C 302.102 116.508,304.892 114.526,307.060 112.969 C 310.814 110.271,312.517 109.170,316.735 106.713 C 318.589 105.633,321.200 105.224,321.200 106.013 M169.367 301.166 C 166.912 302.223,164.646 307.530,162.992 316.100 C 162.430 319.015,161.439 323.650,160.792 326.400 C 157.576 340.057,158.511 346.221,163.345 343.234 C 165.719 341.767,173.556 333.263,184.753 320.005 C 191.672 311.812,191.003 309.596,179.922 304.020 C 173.979 301.030,171.340 300.316,169.367 301.166 M177.831 304.119 C 190.249 310.082,190.651 311.578,182.443 321.257 C 178.807 325.545,169.925 335.641,167.600 338.128 C 161.701 344.441,158.698 342.373,160.403 333.173 C 161.027 329.805,161.081 329.556,161.737 327.000 C 162.076 325.680,162.819 322.148,163.386 319.150 C 166.677 301.781,168.662 299.715,177.831 304.119 " stroke="none" fill="#6c7474" fill-rule="evenodd"></path><path id="path7" d="M299.970 96.207 C 298.744 96.456,297.394 96.811,296.970 96.996 C 296.547 97.180,296.110 97.352,296.000 97.379 C 295.443 97.512,291.648 98.931,290.600 99.397 C 285.987 101.450,284.652 102.000,284.278 102.000 C 284.044 102.000,283.121 102.345,282.226 102.766 C 280.261 103.691,277.565 104.840,275.400 105.676 C 274.520 106.016,272.450 106.870,270.800 107.575 C 269.150 108.279,267.530 108.922,267.200 109.003 C 266.870 109.083,265.160 109.765,263.400 110.517 C 259.529 112.173,258.718 112.509,256.400 113.421 C 255.410 113.810,253.160 114.742,251.400 115.492 C 249.640 116.242,247.750 117.045,247.200 117.277 C 246.650 117.508,245.750 117.921,245.200 118.194 C 244.650 118.468,243.691 118.813,243.068 118.961 C 241.990 119.218,241.038 119.634,233.261 123.248 C 231.424 124.102,229.832 124.800,229.723 124.800 C 229.614 124.800,227.426 125.804,224.862 127.031 C 222.298 128.258,219.210 129.724,218.000 130.287 C 216.790 130.851,215.350 131.554,214.800 131.850 C 214.250 132.145,212.270 133.126,210.400 134.029 C 208.530 134.932,206.730 135.827,206.400 136.016 C 205.374 136.606,185.489 146.448,183.800 147.203 C 182.920 147.596,180.795 148.566,179.079 149.359 C 177.362 150.151,175.733 150.800,175.459 150.800 C 175.184 150.800,174.789 150.956,174.580 151.147 C 174.371 151.338,173.300 151.826,172.200 152.231 C 171.100 152.635,169.660 153.263,169.000 153.626 C 168.340 153.989,166.270 154.884,164.400 155.615 C 162.530 156.346,159.894 157.451,158.543 158.072 C 157.191 158.692,155.931 159.201,155.743 159.201 C 155.430 159.203,151.415 160.781,148.272 162.138 C 146.053 163.096,144.727 163.646,139.400 165.816 C 131.878 168.879,124.324 171.967,123.400 172.356 C 119.967 173.802,116.340 175.261,115.000 175.735 C 114.120 176.047,111.150 177.242,108.400 178.392 C 105.650 179.542,102.680 180.743,101.800 181.062 C 100.399 181.568,94.884 183.812,92.600 184.804 C 88.281 186.681,85.141 187.968,83.861 188.385 C 83.015 188.662,81.845 189.137,81.261 189.441 C 80.678 189.746,79.967 189.996,79.682 189.998 C 79.397 189.999,78.318 190.450,77.285 191.000 C 76.252 191.550,75.185 192.000,74.914 192.000 C 74.643 192.000,73.652 192.344,72.711 192.765 C 70.924 193.563,64.812 195.951,62.400 196.792 C 61.630 197.061,60.640 197.430,60.200 197.612 C 59.760 197.795,58.680 198.161,57.800 198.426 C 51.924 200.196,50.389 202.295,53.100 204.853 C 54.517 206.190,66.134 213.978,68.500 215.178 C 69.105 215.484,69.600 215.885,69.600 216.068 C 69.600 216.250,69.825 216.400,70.100 216.401 C 70.375 216.401,71.230 216.941,72.000 217.600 C 72.770 218.259,73.616 218.799,73.880 218.799 C 74.144 218.800,74.504 219.027,74.680 219.304 C 74.856 219.581,75.720 220.295,76.600 220.890 C 80.786 223.720,84.580 226.412,85.448 227.167 C 85.975 227.625,86.570 228.000,86.770 228.000 C 86.970 228.000,87.193 228.139,87.267 228.308 C 87.412 228.644,91.800 231.600,92.154 231.600 C 92.274 231.600,93.693 232.402,95.308 233.383 C 101.261 236.997,102.862 236.579,111.151 229.254 C 112.553 228.014,114.533 226.264,115.551 225.365 C 117.057 224.033,119.536 222.115,123.400 219.292 C 123.620 219.131,124.360 218.549,125.044 218.000 C 125.729 217.450,126.696 216.730,127.195 216.400 C 127.693 216.070,129.415 214.810,131.022 213.600 C 132.629 212.390,134.440 211.040,135.046 210.600 C 135.653 210.160,136.610 209.430,137.174 208.978 C 138.569 207.861,148.718 201.200,149.027 201.200 C 149.162 201.200,149.752 200.833,150.337 200.385 C 150.922 199.937,153.125 198.452,155.233 197.085 C 159.467 194.340,159.431 194.363,163.400 191.973 C 164.940 191.046,167.100 189.712,168.200 189.008 C 171.527 186.880,178.438 182.771,181.200 181.280 C 182.630 180.507,184.337 179.498,184.994 179.038 C 186.141 178.233,186.758 177.867,189.400 176.421 C 190.060 176.059,191.361 175.277,192.292 174.682 C 193.223 174.087,194.060 173.600,194.152 173.600 C 194.244 173.600,195.463 172.892,196.860 172.026 C 198.257 171.160,202.010 168.899,205.200 167.002 C 210.872 163.628,213.576 161.987,216.400 160.203 C 217.170 159.716,219.066 158.527,220.614 157.559 C 224.336 155.232,224.500 155.127,225.844 154.218 C 226.480 153.789,230.167 151.340,234.038 148.777 C 237.909 146.214,242.528 143.056,244.303 141.759 C 246.077 140.461,248.441 138.770,249.557 138.000 C 250.672 137.230,252.983 135.557,254.692 134.282 C 256.402 133.007,258.220 131.657,258.733 131.282 C 259.247 130.907,261.497 129.184,263.733 127.454 C 265.970 125.723,268.568 123.778,269.506 123.130 C 270.444 122.483,273.081 120.479,275.365 118.677 C 277.648 116.874,280.800 114.500,282.368 113.400 C 283.937 112.300,285.800 110.908,286.510 110.306 C 287.219 109.705,287.924 109.210,288.076 109.206 C 288.227 109.203,289.183 108.480,290.200 107.600 C 291.217 106.720,292.173 105.998,292.324 105.997 C 292.476 105.995,293.230 105.403,294.000 104.682 C 294.770 103.961,296.030 102.934,296.800 102.400 C 299.304 100.664,302.695 97.037,302.438 96.370 C 302.233 95.839,301.889 95.816,299.970 96.207 M298.000 99.158 C 298.000 100.596,292.628 104.845,259.843 129.340 C 242.450 142.336,228.006 152.225,214.800 160.180 C 211.610 162.102,208.370 164.079,207.600 164.574 C 206.830 165.068,200.890 168.624,194.400 172.476 C 187.910 176.327,178.314 182.033,173.075 185.155 C 147.689 200.284,124.075 216.692,110.800 228.427 C 101.430 236.711,101.330 236.708,87.869 227.693 C 84.167 225.214,79.793 222.191,78.150 220.976 C 74.896 218.569,63.993 211.266,59.200 208.283 C 50.720 203.004,51.028 201.903,62.133 197.783 C 69.997 194.865,88.050 187.659,108.400 179.314 C 110.270 178.547,115.940 176.244,121.000 174.196 C 126.060 172.147,133.980 168.917,138.600 167.017 C 143.220 165.117,151.590 161.700,157.200 159.424 C 176.717 151.505,183.610 148.362,207.400 136.531 C 222.857 128.844,234.655 123.350,243.797 119.582 C 245.779 118.765,250.190 116.927,253.600 115.496 C 259.356 113.082,281.141 104.220,288.000 101.503 C 293.907 99.163,298.000 98.203,298.000 99.158 M341.025 108.212 C 338.311 110.951,335.449 114.217,332.620 117.800 C 331.751 118.900,330.852 119.980,330.620 120.200 C 330.389 120.420,329.727 121.230,329.148 122.000 C 328.570 122.770,327.580 123.942,326.948 124.604 C 326.317 125.265,324.810 126.971,323.600 128.393 C 319.249 133.508,318.029 134.791,304.581 148.400 C 297.080 155.990,290.120 163.100,289.113 164.200 C 288.106 165.300,286.769 166.757,286.141 167.438 C 285.514 168.119,283.650 170.189,282.001 172.038 C 280.351 173.887,277.913 176.570,276.583 178.000 C 275.252 179.430,272.294 182.670,270.008 185.200 C 264.916 190.837,257.104 199.219,251.939 204.587 C 249.816 206.794,246.846 209.943,245.339 211.584 C 243.833 213.226,241.899 215.284,241.041 216.158 C 240.184 217.032,238.114 219.286,236.441 221.167 C 234.769 223.049,232.860 225.160,232.200 225.860 C 229.020 229.233,224.646 234.093,222.354 236.800 C 220.957 238.450,219.535 240.070,219.193 240.400 C 218.851 240.730,218.171 241.521,217.682 242.159 C 217.193 242.796,215.849 244.338,214.696 245.585 C 213.543 246.833,211.070 249.545,209.200 251.614 C 207.330 253.682,203.442 257.810,200.561 260.787 C 192.225 269.398,190.154 271.574,186.673 275.372 C 184.873 277.336,183.085 279.271,182.700 279.672 C 182.315 280.072,182.000 280.558,182.000 280.751 C 182.000 280.944,181.705 281.347,181.345 281.645 C 177.428 284.896,179.002 288.401,185.904 291.794 C 188.047 292.848,189.932 293.910,190.094 294.155 C 190.256 294.400,190.391 294.487,190.394 294.348 C 190.397 294.209,195.395 296.614,201.500 299.691 C 229.785 313.950,235.196 316.626,246.600 321.999 C 248.360 322.828,252.500 324.817,255.800 326.420 C 259.100 328.022,261.935 329.303,262.100 329.267 C 262.265 329.230,262.400 329.410,262.400 329.667 C 262.400 329.923,262.495 330.039,262.610 329.923 C 262.726 329.807,266.371 331.502,270.710 333.688 C 278.354 337.539,279.293 337.947,281.000 338.154 C 283.035 338.400,284.339 336.670,284.800 333.114 C 284.979 331.731,285.330 328.980,285.580 327.000 C 286.080 323.050,286.090 322.986,287.001 317.800 C 287.608 314.348,287.762 313.275,288.195 309.500 C 288.612 305.858,289.518 300.018,290.661 293.600 C 290.759 293.050,291.176 291.250,291.588 289.600 C 292.000 287.950,292.633 285.160,292.994 283.400 C 293.903 278.965,294.798 275.260,295.205 274.251 C 295.393 273.783,296.025 271.780,296.609 269.800 C 297.872 265.518,298.909 262.207,300.427 257.600 C 301.043 255.730,301.672 253.570,301.824 252.800 C 301.977 252.030,302.791 249.330,303.634 246.800 C 304.478 244.270,305.452 240.973,305.799 239.474 C 306.146 237.974,306.877 235.274,307.424 233.474 C 308.836 228.825,311.275 219.522,312.215 215.200 C 312.334 214.650,312.681 213.480,312.984 212.600 C 313.288 211.720,314.012 208.930,314.593 206.400 C 315.175 203.870,316.016 200.810,316.463 199.600 C 316.909 198.390,317.343 197.130,317.428 196.800 C 318.791 191.463,320.748 184.553,321.562 182.200 C 321.791 181.540,322.636 178.570,323.440 175.600 C 324.244 172.630,325.218 169.390,325.604 168.400 C 325.990 167.410,326.530 165.790,326.805 164.800 C 327.080 163.810,327.649 162.010,328.070 160.800 C 328.491 159.590,329.345 157.070,329.967 155.200 C 330.590 153.330,331.677 150.090,332.382 148.000 C 333.087 145.910,334.121 142.760,334.678 141.000 C 335.236 139.240,336.554 135.280,337.608 132.200 C 338.661 129.120,340.019 124.890,340.625 122.800 C 341.231 120.710,341.953 118.460,342.229 117.800 C 343.049 115.841,344.688 108.393,344.507 107.447 C 344.244 106.071,342.840 106.380,341.025 108.212 M342.543 112.149 C 341.757 116.684,340.376 121.189,332.407 145.200 C 325.653 165.552,322.597 175.119,320.842 181.400 C 320.166 183.820,319.183 187.150,318.658 188.800 C 318.133 190.450,317.574 192.430,317.416 193.200 C 317.257 193.970,316.520 196.580,315.777 199.000 C 314.385 203.533,310.964 216.490,309.388 223.200 C 307.740 230.215,303.998 243.106,298.183 261.800 C 294.611 273.283,292.690 280.299,291.668 285.600 C 291.434 286.810,290.687 290.320,290.007 293.400 C 289.327 296.480,288.409 302.060,287.968 305.800 C 287.526 309.540,286.914 313.860,286.607 315.400 C 286.301 316.940,285.678 320.810,285.225 324.000 C 282.936 340.092,284.530 339.542,266.178 330.566 C 253.416 324.325,250.832 323.088,241.800 318.896 C 227.425 312.226,182.922 289.489,181.700 288.192 C 178.823 285.138,179.960 283.406,195.355 267.400 C 205.708 256.635,216.179 245.252,222.400 237.998 C 230.039 229.091,237.231 221.258,253.600 204.019 C 263.919 193.151,265.860 191.074,270.995 185.400 C 273.384 182.760,276.084 179.790,276.995 178.800 C 278.515 177.149,284.145 170.869,287.575 167.000 C 288.355 166.120,295.500 158.830,303.452 150.800 C 317.512 136.602,322.759 130.925,330.993 121.000 C 340.422 109.636,343.371 107.376,342.543 112.149 M301.200 122.867 C 301.200 123.123,301.093 123.226,300.962 123.096 C 300.595 122.728,290.324 129.670,285.600 133.478 C 284.395 134.449,280.453 137.416,279.592 138.000 C 278.734 138.582,277.014 139.854,276.200 140.509 C 275.322 141.216,263.888 149.547,260.748 151.768 C 258.907 153.070,254.616 156.110,251.212 158.524 C 241.379 165.497,225.041 176.231,219.600 179.293 C 218.830 179.727,217.930 180.311,217.600 180.592 C 217.270 180.873,214.660 182.453,211.800 184.103 C 207.207 186.752,199.408 191.312,196.317 193.155 C 195.722 193.510,193.114 195.060,190.521 196.600 C 187.929 198.140,185.446 199.618,185.004 199.884 C 184.562 200.150,183.930 200.510,183.600 200.684 C 182.914 201.045,177.677 204.253,176.071 205.296 C 175.482 205.678,174.733 206.119,174.407 206.274 C 174.081 206.430,169.941 208.972,165.207 211.923 C 156.884 217.113,154.773 218.514,146.200 224.547 C 142.744 226.979,141.474 227.909,139.400 229.524 C 139.180 229.695,137.954 230.606,136.675 231.549 C 135.396 232.491,131.684 235.486,128.426 238.204 C 118.830 246.211,118.329 247.146,120.398 253.200 C 124.046 263.874,128.636 278.158,128.999 279.968 C 129.501 282.470,132.584 293.070,135.989 304.000 C 137.051 307.410,138.417 311.820,139.024 313.800 C 140.227 317.719,142.652 324.012,143.153 324.513 C 144.695 326.056,146.806 319.916,149.794 305.200 C 152.754 290.620,155.658 284.290,164.368 273.428 C 168.276 268.555,169.151 267.603,184.813 251.176 C 192.782 242.817,207.807 226.148,213.995 218.800 C 215.199 217.370,217.088 215.218,218.192 214.017 C 223.003 208.786,225.420 206.189,231.617 199.593 C 235.238 195.739,242.171 188.359,247.023 183.193 C 251.876 178.027,258.516 170.830,261.778 167.200 C 269.383 158.737,275.683 152.055,286.442 141.044 C 293.510 133.810,298.737 128.117,301.614 124.517 C 302.121 123.883,302.111 122.400,301.600 122.400 C 301.380 122.400,301.200 122.610,301.200 122.867 M171.786 306.772 C 169.890 307.561,168.761 310.759,166.764 321.000 C 163.811 336.147,164.714 336.296,176.447 322.600 C 185.108 312.490,185.166 311.879,177.800 308.361 C 174.139 306.613,172.934 306.295,171.786 306.772 " stroke="none" fill="#b2b2b2" fill-rule="evenodd"></path><path id="path8" d="M307.400 92.290 C 304.997 92.718,301.063 93.884,298.600 94.899 C 297.060 95.534,294.630 96.504,293.200 97.054 C 291.770 97.605,288.980 98.748,287.000 99.595 C 275.948 104.321,272.751 105.655,270.400 106.524 C 267.779 107.493,258.727 111.189,250.600 114.610 C 248.180 115.629,244.310 117.242,242.000 118.195 C 239.690 119.147,235.370 121.042,232.400 122.405 C 229.430 123.768,225.740 125.448,224.200 126.140 C 222.660 126.832,212.950 131.599,202.623 136.733 C 192.295 141.867,182.395 146.669,180.623 147.404 C 178.850 148.139,175.829 149.473,173.909 150.370 C 171.988 151.266,170.256 152.000,170.059 152.000 C 169.861 152.000,168.282 152.648,166.550 153.439 C 164.817 154.231,162.320 155.287,161.000 155.786 C 157.374 157.157,148.427 160.769,146.478 161.648 C 145.532 162.075,141.932 163.574,138.478 164.978 C 135.025 166.383,130.850 168.095,129.200 168.783 C 127.550 169.470,121.880 171.746,116.600 173.840 C 111.320 175.934,106.460 177.893,105.799 178.195 C 103.293 179.340,100.485 180.513,97.200 181.787 C 95.330 182.512,91.370 184.097,88.400 185.309 C 73.854 191.243,61.866 195.923,57.558 197.349 C 47.323 200.737,47.122 202.701,56.392 208.732 C 64.956 214.304,75.783 221.580,78.800 223.792 C 89.644 231.740,97.543 236.397,100.694 236.699 C 103.482 236.967,105.063 236.035,111.743 230.187 C 120.555 222.472,133.269 212.913,145.200 205.031 C 154.837 198.665,174.173 186.400,174.572 186.400 C 174.720 186.400,181.344 182.517,186.000 179.701 C 187.430 178.836,195.170 174.204,203.200 169.407 C 220.296 159.194,221.103 158.692,231.931 151.532 C 244.568 143.175,244.634 143.127,266.338 126.820 C 273.235 121.639,279.355 117.047,279.938 116.616 C 306.865 96.729,313.001 91.293,307.400 92.290 M300.438 99.208 C 299.207 100.430,297.570 101.866,296.800 102.400 C 296.030 102.934,294.770 103.961,294.000 104.682 C 293.230 105.403,292.476 105.995,292.324 105.997 C 292.173 105.998,291.217 106.720,290.200 107.600 C 289.183 108.480,288.227 109.203,288.076 109.206 C 287.924 109.210,287.219 109.705,286.510 110.306 C 285.800 110.908,283.937 112.300,282.368 113.400 C 280.800 114.500,277.648 116.874,275.365 118.677 C 273.081 120.479,270.444 122.483,269.506 123.130 C 268.568 123.778,265.970 125.723,263.733 127.454 C 261.497 129.184,259.247 130.907,258.733 131.282 C 258.220 131.657,256.402 133.007,254.692 134.282 C 252.983 135.557,250.672 137.230,249.557 138.000 C 248.441 138.770,246.077 140.461,244.303 141.759 C 242.528 143.056,237.909 146.214,234.038 148.777 C 230.167 151.340,226.480 153.789,225.844 154.218 C 224.500 155.127,224.336 155.232,220.614 157.559 C 219.066 158.527,217.170 159.716,216.400 160.203 C 213.576 161.987,210.872 163.628,205.200 167.002 C 202.010 168.899,198.257 171.160,196.860 172.026 C 195.463 172.892,194.244 173.600,194.152 173.600 C 194.060 173.600,193.223 174.087,192.292 174.682 C 191.361 175.277,190.060 176.059,189.400 176.421 C 186.758 177.867,186.141 178.233,184.994 179.038 C 184.337 179.498,182.630 180.507,181.200 181.280 C 178.438 182.771,171.527 186.880,168.200 189.008 C 167.100 189.712,164.940 191.046,163.400 191.973 C 159.431 194.363,159.467 194.340,155.233 197.085 C 153.125 198.452,150.922 199.937,150.337 200.385 C 149.752 200.833,149.162 201.200,149.027 201.200 C 148.718 201.200,138.569 207.861,137.174 208.978 C 136.610 209.430,135.653 210.160,135.046 210.600 C 134.440 211.040,132.629 212.390,131.022 213.600 C 129.415 214.810,127.693 216.070,127.195 216.400 C 126.696 216.730,125.729 217.450,125.044 218.000 C 124.360 218.549,123.620 219.131,123.400 219.292 C 119.536 222.115,117.057 224.033,115.551 225.365 C 114.533 226.264,112.553 228.014,111.151 229.254 C 102.862 236.579,101.261 236.997,95.308 233.383 C 93.693 232.402,92.274 231.600,92.154 231.600 C 91.800 231.600,87.412 228.644,87.267 228.308 C 87.193 228.139,86.970 228.000,86.770 228.000 C 86.570 228.000,85.975 227.625,85.448 227.167 C 84.580 226.412,80.786 223.720,76.600 220.890 C 75.720 220.295,74.856 219.581,74.680 219.304 C 74.504 219.027,74.144 218.800,73.880 218.799 C 73.616 218.799,72.770 218.259,72.000 217.600 C 71.230 216.941,70.375 216.401,70.100 216.401 C 69.825 216.400,69.600 216.250,69.600 216.068 C 69.600 215.885,69.105 215.484,68.500 215.178 C 66.134 213.978,54.517 206.190,53.100 204.853 C 50.389 202.295,51.924 200.196,57.800 198.426 C 58.680 198.161,59.760 197.795,60.200 197.612 C 60.640 197.430,61.630 197.061,62.400 196.792 C 64.812 195.951,70.924 193.563,72.711 192.765 C 73.652 192.344,74.643 192.000,74.914 192.000 C 75.185 192.000,76.252 191.550,77.285 191.000 C 78.318 190.450,79.397 189.999,79.682 189.998 C 79.967 189.996,80.678 189.746,81.261 189.441 C 81.845 189.137,83.015 188.662,83.861 188.385 C 85.141 187.968,88.281 186.681,92.600 184.804 C 94.884 183.812,100.399 181.568,101.800 181.062 C 102.680 180.743,105.650 179.542,108.400 178.392 C 111.150 177.242,114.120 176.047,115.000 175.735 C 116.340 175.261,119.967 173.802,123.400 172.356 C 124.324 171.967,131.878 168.879,139.400 165.816 C 144.727 163.646,146.053 163.096,148.272 162.138 C 151.415 160.781,155.430 159.203,155.743 159.201 C 155.931 159.201,157.191 158.692,158.543 158.072 C 159.894 157.451,162.530 156.346,164.400 155.615 C 166.270 154.884,168.340 153.989,169.000 153.626 C 169.660 153.263,171.100 152.635,172.200 152.231 C 173.300 151.826,174.371 151.338,174.580 151.147 C 174.789 150.956,175.184 150.800,175.459 150.800 C 175.733 150.800,177.362 150.151,179.079 149.359 C 180.795 148.566,182.920 147.596,183.800 147.203 C 185.489 146.448,205.374 136.606,206.400 136.016 C 206.730 135.827,208.530 134.932,210.400 134.029 C 212.270 133.126,214.250 132.145,214.800 131.850 C 215.350 131.554,216.790 130.851,218.000 130.287 C 219.210 129.724,222.298 128.258,224.862 127.031 C 227.426 125.804,229.614 124.800,229.723 124.800 C 229.832 124.800,231.424 124.102,233.261 123.248 C 241.038 119.634,241.990 119.218,243.068 118.961 C 243.691 118.813,244.650 118.468,245.200 118.194 C 245.750 117.921,246.650 117.508,247.200 117.277 C 247.750 117.045,249.640 116.242,251.400 115.492 C 253.160 114.742,255.410 113.810,256.400 113.421 C 258.718 112.509,259.529 112.173,263.400 110.517 C 265.160 109.765,266.870 109.083,267.200 109.003 C 267.530 108.922,269.150 108.279,270.800 107.575 C 272.450 106.870,274.520 106.016,275.400 105.676 C 277.565 104.840,280.261 103.691,282.226 102.766 C 283.121 102.345,284.044 102.000,284.278 102.000 C 284.652 102.000,285.987 101.450,290.600 99.397 C 291.648 98.931,295.443 97.512,296.000 97.379 C 296.110 97.352,296.547 97.180,296.970 96.996 C 301.915 94.844,303.693 95.979,300.438 99.208 M344.720 102.415 C 343.265 103.276,338.879 108.227,331.802 117.000 C 329.850 119.420,326.911 122.930,325.271 124.800 C 323.631 126.670,321.280 129.370,320.048 130.800 C 318.816 132.230,311.049 140.240,302.789 148.600 C 294.529 156.960,285.626 166.230,283.003 169.200 C 280.381 172.170,277.148 175.770,275.818 177.200 C 274.488 178.630,271.870 181.510,270.000 183.599 C 266.998 186.954,265.387 188.699,260.600 193.781 C 253.056 201.790,246.650 208.568,243.200 212.192 C 237.497 218.183,227.923 228.691,222.421 235.000 C 212.004 246.944,205.611 253.981,198.800 261.000 C 173.395 287.185,173.509 286.837,187.913 294.124 C 207.248 303.905,237.051 318.808,241.005 320.672 C 256.822 328.131,262.537 330.878,272.200 335.666 C 283.164 341.099,285.094 340.905,285.782 334.299 C 286.179 330.490,287.596 320.270,287.812 319.663 C 288.081 318.908,289.485 309.525,289.797 306.400 C 290.227 302.094,290.773 298.959,292.441 291.200 C 295.255 278.109,296.957 271.718,300.956 259.227 C 304.469 248.251,306.034 243.078,306.978 239.323 C 307.541 237.081,308.195 234.741,308.430 234.123 C 308.878 232.945,311.706 222.131,314.580 210.600 C 315.512 206.860,316.823 202.000,317.493 199.800 C 318.630 196.064,319.394 193.447,322.453 182.800 C 323.117 180.490,324.304 176.530,325.090 174.000 C 325.877 171.470,326.925 168.050,327.420 166.400 C 327.915 164.750,329.932 158.630,331.902 152.800 C 346.886 108.455,349.077 99.840,344.720 102.415 M344.507 107.447 C 344.688 108.393,343.049 115.841,342.229 117.800 C 341.953 118.460,341.231 120.710,340.625 122.800 C 340.019 124.890,338.661 129.120,337.608 132.200 C 336.554 135.280,335.236 139.240,334.678 141.000 C 334.121 142.760,333.087 145.910,332.382 148.000 C 331.677 150.090,330.590 153.330,329.967 155.200 C 329.345 157.070,328.491 159.590,328.070 160.800 C 327.649 162.010,327.080 163.810,326.805 164.800 C 326.530 165.790,325.990 167.410,325.604 168.400 C 325.218 169.390,324.244 172.630,323.440 175.600 C 322.636 178.570,321.791 181.540,321.562 182.200 C 320.748 184.553,318.791 191.463,317.428 196.800 C 317.343 197.130,316.909 198.390,316.463 199.600 C 316.016 200.810,315.175 203.870,314.593 206.400 C 314.012 208.930,313.288 211.720,312.984 212.600 C 312.681 213.480,312.334 214.650,312.215 215.200 C 311.275 219.522,308.836 228.825,307.424 233.474 C 306.877 235.274,306.146 237.974,305.799 239.474 C 305.452 240.973,304.478 244.270,303.634 246.800 C 302.791 249.330,301.977 252.030,301.824 252.800 C 301.672 253.570,301.043 255.730,300.427 257.600 C 298.909 262.207,297.872 265.518,296.609 269.800 C 296.025 271.780,295.393 273.783,295.205 274.251 C 294.798 275.260,293.903 278.965,292.994 283.400 C 292.633 285.160,292.000 287.950,291.588 289.600 C 291.176 291.250,290.759 293.050,290.661 293.600 C 289.518 300.018,288.612 305.858,288.195 309.500 C 287.762 313.275,287.608 314.348,287.001 317.800 C 286.090 322.986,286.080 323.050,285.580 327.000 C 285.330 328.980,284.979 331.731,284.800 333.114 C 284.339 336.670,283.035 338.400,281.000 338.154 C 279.293 337.947,278.354 337.539,270.710 333.688 C 266.371 331.502,262.726 329.807,262.610 329.923 C 262.495 330.039,262.400 329.923,262.400 329.667 C 262.400 329.410,262.265 329.230,262.100 329.267 C 261.935 329.303,259.100 328.022,255.800 326.420 C 252.500 324.817,248.360 322.828,246.600 321.999 C 235.196 316.626,229.785 313.950,201.500 299.691 C 195.395 296.614,190.397 294.209,190.394 294.348 C 190.391 294.487,190.256 294.400,190.094 294.155 C 189.932 293.910,188.047 292.848,185.904 291.794 C 179.002 288.401,177.428 284.896,181.345 281.645 C 181.705 281.347,182.000 280.944,182.000 280.751 C 182.000 280.558,182.315 280.072,182.700 279.672 C 183.085 279.271,184.873 277.336,186.673 275.372 C 190.154 271.574,192.225 269.398,200.561 260.787 C 203.442 257.810,207.330 253.682,209.200 251.614 C 211.070 249.545,213.543 246.833,214.696 245.585 C 215.849 244.338,217.193 242.796,217.682 242.159 C 218.171 241.521,218.851 240.730,219.193 240.400 C 219.535 240.070,220.957 238.450,222.354 236.800 C 224.646 234.093,229.020 229.233,232.200 225.860 C 232.860 225.160,234.769 223.049,236.441 221.167 C 238.114 219.286,240.184 217.032,241.041 216.158 C 241.899 215.284,243.833 213.226,245.339 211.584 C 246.846 209.943,249.816 206.794,251.939 204.587 C 257.104 199.219,264.916 190.837,270.008 185.200 C 272.294 182.670,275.252 179.430,276.583 178.000 C 277.913 176.570,280.351 173.887,282.001 172.038 C 283.650 170.189,285.514 168.119,286.141 167.438 C 286.769 166.757,288.106 165.300,289.113 164.200 C 290.120 163.100,297.080 155.990,304.581 148.400 C 318.029 134.791,319.249 133.508,323.600 128.393 C 324.810 126.971,326.317 125.265,326.948 124.604 C 327.580 123.942,328.570 122.770,329.148 122.000 C 329.727 121.230,330.389 120.420,330.620 120.200 C 330.852 119.980,331.751 118.900,332.620 117.800 C 340.074 108.358,344.023 104.918,344.507 107.447 " stroke="none" fill="#a4b4b4" fill-rule="evenodd"></path></g></svg>