<svg id="svg" version="1.1" xmlns="http://www.w3.org/2000/svg" xmlns:xlink="http://www.w3.org/1999/xlink" width="400" height="400" viewBox="0, 0, 400,400"><g id="svgg"><path id="path0" d="M94.201 28.854 C 91.731 29.855,91.734 29.852,93.200 29.933 C 95.409 30.056,95.635 30.131,95.430 30.667 C 95.316 30.962,95.487 31.200,95.813 31.200 C 96.136 31.200,96.400 30.930,96.400 30.600 C 96.400 30.270,96.592 30.000,96.827 30.000 C 97.072 30.000,97.146 29.659,97.000 29.200 C 96.854 28.741,96.928 28.400,97.173 28.400 C 97.408 28.400,97.579 28.535,97.553 28.700 C 97.435 29.448,97.644 29.591,98.158 29.116 C 99.582 27.799,97.193 27.641,94.201 28.854 M107.212 28.245 C 107.257 29.603,111.200 32.145,111.200 30.815 C 111.200 30.604,111.965 30.221,112.900 29.965 L 114.600 29.498 113.024 28.944 C 111.018 28.238,107.196 27.778,107.212 28.245 M116.190 30.016 C 116.032 30.273,116.291 30.372,116.866 30.274 C 117.380 30.188,117.575 30.194,117.300 30.288 C 116.714 30.488,116.624 31.200,117.184 31.200 C 117.396 31.200,117.948 31.605,118.412 32.100 C 119.178 32.917,119.301 32.940,119.738 32.347 C 120.003 31.987,120.561 31.627,120.977 31.547 C 122.526 31.247,122.025 30.472,120.001 30.038 C 117.451 29.491,116.518 29.486,116.190 30.016 M89.633 30.763 C 88.854 31.177,88.210 31.858,88.135 32.347 C 88.019 33.111,88.091 33.150,88.802 32.706 C 89.241 32.432,89.603 31.936,89.606 31.604 C 89.612 31.068,89.656 31.068,90.000 31.600 C 90.337 32.121,90.389 32.114,90.394 31.544 C 90.397 31.184,90.625 30.914,90.900 30.944 C 91.460 31.007,91.846 30.272,91.330 30.128 C 91.149 30.077,90.385 30.363,89.633 30.763 M122.900 31.076 C 123.285 31.176,123.915 31.176,124.300 31.076 C 124.685 30.975,124.370 30.893,123.600 30.893 C 122.830 30.893,122.515 30.975,122.900 31.076 M126.122 31.858 C 125.973 32.248,126.141 32.714,126.535 33.002 C 126.901 33.269,127.200 33.691,127.200 33.940 C 127.200 34.188,127.650 34.354,128.200 34.308 C 128.750 34.263,129.200 33.995,129.200 33.713 C 129.200 33.431,129.481 33.200,129.824 33.200 C 130.167 33.200,130.336 33.020,130.200 32.800 C 129.900 32.314,130.889 32.265,131.420 32.739 C 131.629 32.926,132.250 32.944,132.800 32.779 L 133.800 32.480 132.750 32.440 C 132.173 32.418,130.935 32.130,130.000 31.800 C 127.787 31.019,126.437 31.039,126.122 31.858 M85.965 33.111 C 83.232 35.185,81.790 36.640,79.622 39.514 L 77.443 42.400 64.776 42.400 C 57.663 42.400,51.164 42.582,49.955 42.816 C 48.770 43.044,46.540 43.399,45.000 43.605 C 32.780 45.236,21.479 55.477,16.536 69.400 L 15.400 72.600 15.400 204.800 C 15.400 331.674,15.429 337.073,16.127 338.800 C 16.527 339.790,17.002 341.140,17.183 341.800 C 17.608 343.355,19.138 346.724,20.000 348.000 C 20.371 348.550,21.198 349.807,21.837 350.793 C 26.177 357.487,36.435 364.359,44.000 365.641 C 53.849 367.309,47.517 367.221,164.267 367.313 C 225.243 367.361,275.051 367.317,274.950 367.216 C 274.849 367.115,274.034 367.085,273.138 367.150 C 272.087 367.226,271.602 367.120,271.768 366.851 C 271.910 366.622,272.267 366.528,272.563 366.641 C 272.891 366.767,273.098 366.566,273.095 366.124 C 273.070 362.216,272.859 362.266,290.600 361.960 C 309.281 361.638,313.107 360.793,320.724 355.309 C 324.101 352.878,325.512 352.000,326.040 352.000 C 326.591 352.000,329.030 354.452,328.900 354.874 C 328.845 355.053,328.980 355.200,329.200 355.200 C 329.420 355.200,329.600 355.374,329.600 355.587 C 329.600 355.801,329.285 355.874,328.900 355.750 C 328.309 355.560,328.294 355.592,328.800 355.956 C 329.317 356.328,329.302 356.389,328.690 356.394 C 327.891 356.401,327.100 358.073,327.456 359.001 C 327.626 359.445,327.507 359.539,327.015 359.350 C 326.569 359.179,326.366 359.279,326.417 359.646 C 326.572 360.756,326.388 361.170,325.834 360.958 C 325.189 360.710,320.400 365.333,320.400 366.204 C 320.400 366.506,320.192 366.881,319.938 367.038 C 319.652 367.215,319.585 367.148,319.762 366.862 C 319.919 366.608,319.857 366.400,319.624 366.400 C 319.391 366.400,319.200 366.659,319.200 366.976 C 319.200 367.293,318.992 367.681,318.738 367.838 C 318.452 368.015,318.385 367.948,318.562 367.662 C 318.719 367.408,318.637 367.200,318.381 367.200 C 318.124 367.200,318.018 367.470,318.145 367.800 C 318.271 368.130,318.201 368.400,317.987 368.400 C 317.774 368.400,317.600 368.243,317.600 368.051 C 317.600 367.614,314.831 368.879,314.813 369.324 C 314.806 369.502,315.008 369.519,315.262 369.362 C 315.557 369.179,315.615 369.253,315.421 369.565 C 315.255 369.834,314.879 369.962,314.585 369.850 C 314.292 369.737,313.950 369.860,313.826 370.122 C 313.686 370.418,313.523 370.446,313.399 370.197 C 313.063 369.523,309.724 370.000,308.973 370.830 C 308.329 371.541,308.332 371.599,309.018 371.862 C 310.809 372.550,322.150 367.213,321.417 366.027 C 321.308 365.851,321.620 365.368,322.109 364.953 L 323.000 364.200 322.238 365.100 C 320.818 366.777,322.219 366.012,324.068 364.100 C 326.557 361.528,328.896 357.970,330.781 353.889 C 331.644 352.022,332.963 349.528,333.713 348.347 C 334.462 347.166,335.411 345.300,335.822 344.200 C 336.233 343.100,336.800 341.750,337.082 341.200 C 337.364 340.650,337.596 339.728,337.598 339.150 C 337.599 338.573,337.901 337.313,338.268 336.350 C 338.825 334.889,338.984 332.156,339.230 319.800 C 339.465 307.944,339.651 304.609,340.162 303.036 C 341.200 299.841,340.954 298.006,339.660 299.300 C 339.151 299.809,338.986 299.862,337.627 299.950 C 336.039 300.053,336.140 303.449,337.738 303.677 C 338.380 303.769,338.597 304.074,338.587 304.870 C 338.579 305.459,338.714 305.853,338.887 305.747 C 339.059 305.640,339.173 306.238,339.140 307.076 C 339.093 308.282,339.045 308.370,338.913 307.500 C 338.822 306.895,338.568 306.400,338.350 306.400 C 338.131 306.400,338.057 306.568,338.184 306.774 C 338.542 307.354,335.931 306.503,335.244 305.815 C 334.132 304.704,334.047 296.337,334.003 184.040 L 333.959 72.281 335.258 70.940 C 335.972 70.203,336.802 69.600,337.102 69.600 C 337.402 69.600,337.536 69.420,337.400 69.200 C 337.264 68.980,337.478 68.789,337.876 68.775 C 338.457 68.754,338.422 68.678,337.697 68.386 C 337.200 68.187,336.598 67.523,336.358 66.912 C 332.917 58.127,326.833 51.252,318.815 47.088 C 315.596 45.416,310.539 43.600,309.104 43.600 C 308.421 43.600,306.408 43.332,304.631 43.004 C 301.203 42.372,186.400 41.858,186.400 42.475 C 186.400 42.626,186.985 42.695,187.700 42.627 C 188.415 42.560,188.609 42.582,188.131 42.676 C 187.473 42.806,187.196 43.238,186.990 44.461 C 186.457 47.612,190.368 47.400,132.742 47.400 C 76.577 47.400,79.508 47.526,80.131 45.142 C 80.230 44.762,80.045 44.072,79.720 43.607 C 79.395 43.143,79.237 42.481,79.369 42.137 C 79.536 41.701,79.431 41.579,79.025 41.735 C 78.642 41.882,78.514 41.768,78.653 41.405 C 78.770 41.100,79.103 40.941,79.393 41.053 C 79.682 41.164,80.038 41.062,80.183 40.827 C 80.328 40.592,80.262 40.400,80.036 40.400 C 79.810 40.400,79.724 40.141,79.846 39.825 C 79.973 39.493,80.334 39.353,80.703 39.495 C 81.168 39.673,81.272 39.566,81.092 39.096 C 80.919 38.646,81.262 38.207,82.229 37.636 C 82.990 37.187,83.786 36.364,83.997 35.807 C 84.209 35.250,84.521 34.817,84.691 34.844 C 85.599 34.992,86.061 34.693,86.433 33.714 C 86.730 32.933,86.936 32.774,87.167 33.147 C 87.404 33.531,87.546 33.448,87.707 32.834 C 87.991 31.748,87.701 31.794,85.965 33.111 M135.004 33.612 C 135.604 35.503,138.000 36.739,138.000 35.157 C 138.000 34.961,138.255 34.800,138.567 34.800 C 138.878 34.800,139.216 34.575,139.317 34.300 C 139.454 33.926,139.622 33.914,139.984 34.254 C 140.250 34.503,140.842 34.609,141.301 34.490 C 142.251 34.241,139.499 33.355,136.455 32.930 C 134.771 32.694,134.720 32.718,135.004 33.612 M143.481 34.653 C 143.025 35.108,144.011 36.400,144.814 36.400 C 145.246 36.400,145.555 36.625,145.500 36.900 C 145.445 37.175,145.670 37.400,146.000 37.400 C 146.330 37.400,146.555 37.175,146.500 36.900 C 146.441 36.604,146.818 36.400,147.424 36.400 C 148.004 36.400,148.340 36.227,148.200 36.000 C 148.064 35.780,148.188 35.586,148.476 35.570 C 148.764 35.553,148.370 35.297,147.600 35.000 C 146.103 34.423,143.896 34.237,143.481 34.653 M150.705 35.883 C 151.202 35.979,151.922 35.975,152.305 35.875 C 152.687 35.775,152.280 35.696,151.400 35.701 C 150.520 35.705,150.207 35.787,150.705 35.883 M152.900 36.265 C 152.625 36.376,152.400 36.662,152.400 36.900 C 152.400 37.138,152.511 37.222,152.648 37.086 C 152.784 36.950,153.157 37.100,153.476 37.419 C 154.136 38.079,157.800 38.248,157.400 37.600 C 157.264 37.380,157.388 37.186,157.676 37.170 C 157.964 37.153,157.570 36.897,156.800 36.600 C 155.360 36.045,153.780 35.910,152.900 36.265 M159.505 37.483 C 160.002 37.579,160.722 37.575,161.105 37.475 C 161.487 37.375,161.080 37.296,160.200 37.301 C 159.320 37.305,159.007 37.387,159.505 37.483 M161.600 38.000 C 161.200 38.258,161.167 38.390,161.500 38.394 C 161.775 38.397,162.000 38.670,162.000 39.000 C 162.000 39.736,163.713 39.798,165.626 39.131 L 166.972 38.662 165.586 38.161 C 163.884 37.547,162.395 37.486,161.600 38.000 M154.000 38.797 C 154.000 39.016,154.355 39.141,154.790 39.074 C 156.042 38.883,156.241 38.400,155.067 38.400 C 154.480 38.400,154.000 38.579,154.000 38.797 M168.900 39.076 C 169.285 39.176,169.915 39.176,170.300 39.076 C 170.685 38.975,170.370 38.893,169.600 38.893 C 168.830 38.893,168.515 38.975,168.900 39.076 M170.900 39.465 C 170.209 39.744,170.272 40.776,170.998 41.054 C 171.326 41.181,171.507 41.426,171.400 41.600 C 171.081 42.116,172.414 42.433,173.134 42.013 C 173.725 41.668,173.710 41.621,173.000 41.595 C 172.364 41.571,174.703 40.488,175.600 40.390 C 175.710 40.378,175.194 40.106,174.454 39.784 C 173.108 39.200,171.840 39.086,170.900 39.465 M177.200 40.731 C 177.200 40.913,177.740 40.982,178.400 40.885 C 179.060 40.788,179.600 40.640,179.600 40.555 C 179.600 40.470,179.060 40.400,178.400 40.400 C 177.740 40.400,177.200 40.549,177.200 40.731 M179.636 41.169 C 179.326 41.365,178.786 41.418,178.436 41.285 C 177.932 41.095,177.952 41.198,178.533 41.784 C 178.937 42.191,179.427 42.946,179.624 43.462 C 180.099 44.713,182.366 44.815,182.684 43.600 C 182.810 43.118,183.233 42.798,183.747 42.794 C 184.444 42.789,184.490 42.717,184.000 42.400 C 183.467 42.055,183.467 42.008,184.000 41.974 C 184.940 41.913,182.320 40.838,181.200 40.824 C 180.650 40.818,179.946 40.973,179.636 41.169 M304.622 64.524 C 309.072 65.458,313.403 68.713,315.495 72.699 C 317.964 77.403,317.800 67.983,317.800 205.000 L 317.800 330.600 316.914 333.415 C 314.936 339.704,309.996 344.046,303.567 345.149 C 299.083 345.917,53.808 345.779,49.764 345.006 C 44.475 343.994,40.181 340.650,37.687 335.600 L 36.600 333.400 36.600 204.800 L 36.600 76.200 37.684 73.888 C 39.845 69.276,44.374 65.602,49.200 64.548 C 52.505 63.826,301.181 63.803,304.622 64.524 M338.349 69.477 C 337.976 69.937,337.960 70.057,338.300 69.853 C 338.615 69.664,338.800 69.784,338.800 70.176 C 338.800 70.519,338.980 70.800,339.200 70.800 C 339.420 70.800,339.600 71.070,339.600 71.400 C 339.600 71.775,339.979 72.000,340.613 72.000 C 341.169 72.000,341.729 71.730,341.855 71.400 C 341.982 71.070,342.347 70.800,342.666 70.800 C 342.986 70.800,343.136 70.620,343.000 70.400 C 342.864 70.180,342.988 69.985,343.276 69.968 C 343.564 69.950,343.260 69.688,342.600 69.386 C 340.934 68.623,339.008 68.664,338.349 69.477 M345.300 70.276 C 345.685 70.376,346.315 70.376,346.700 70.276 C 347.085 70.175,346.770 70.093,346.000 70.093 C 345.230 70.093,344.915 70.175,345.300 70.276 M347.481 70.653 C 347.085 71.048,347.962 72.400,348.614 72.400 C 348.936 72.400,349.155 72.535,349.100 72.700 C 348.990 73.031,349.337 73.203,350.100 73.194 C 350.433 73.190,350.400 73.058,350.000 72.800 C 349.546 72.507,349.722 72.411,350.724 72.406 C 351.503 72.403,351.946 72.236,351.800 72.000 C 351.664 71.780,351.788 71.585,352.076 71.568 C 352.364 71.550,352.060 71.288,351.400 70.986 C 350.143 70.410,347.913 70.220,347.481 70.653 M354.876 72.344 C 354.027 72.883,355.996 73.918,357.675 73.816 C 358.555 73.762,359.088 73.899,359.028 74.164 C 358.975 74.404,359.007 74.465,359.099 74.300 C 359.437 73.695,359.968 74.021,359.750 74.700 C 359.560 75.291,359.592 75.306,359.956 74.800 C 360.327 74.285,360.389 74.303,360.394 74.927 C 360.398 75.470,360.602 75.590,361.197 75.401 C 361.744 75.227,361.953 75.313,361.863 75.674 C 361.790 75.963,361.806 76.066,361.898 75.903 C 362.184 75.394,363.600 76.392,363.600 77.103 C 363.600 77.893,368.199 82.400,369.005 82.400 C 369.306 82.400,369.681 82.608,369.838 82.862 C 370.024 83.162,369.947 83.214,369.619 83.012 C 369.240 82.778,369.188 82.937,369.411 83.650 C 369.729 84.667,370.378 85.261,370.853 84.967 C 371.014 84.868,371.275 84.998,371.434 85.255 C 371.615 85.548,371.550 85.616,371.262 85.438 C 370.659 85.066,370.679 85.337,371.380 87.013 C 371.956 88.392,372.535 88.752,372.992 88.014 C 373.471 87.238,369.528 80.950,368.832 81.380 C 368.644 81.496,368.245 81.278,367.945 80.896 C 367.452 80.266,367.467 80.252,368.100 80.749 C 369.471 81.824,368.771 80.538,367.085 78.883 C 365.174 77.008,364.118 76.585,365.630 78.300 L 366.600 79.400 365.512 78.442 C 364.914 77.915,364.518 77.333,364.631 77.149 C 364.895 76.723,361.166 74.329,358.187 73.011 C 355.639 71.884,355.611 71.879,354.876 72.344 M15.900 268.500 C 15.844 303.535,15.798 274.870,15.798 204.800 C 15.798 134.730,15.844 106.065,15.900 141.100 C 15.956 176.135,15.956 233.465,15.900 268.500 M373.602 89.924 C 373.601 90.212,373.465 90.364,373.300 90.262 C 372.735 89.913,373.282 93.799,373.895 94.491 C 374.793 95.503,375.320 94.914,375.047 93.203 C 374.804 91.682,373.607 88.965,373.602 89.924 M373.870 104.199 C 373.121 104.746,372.603 108.231,373.213 108.608 C 373.385 108.714,373.431 109.161,373.316 109.600 C 372.841 111.416,374.018 110.235,374.585 108.327 C 375.630 104.805,375.339 103.124,373.870 104.199 M372.245 113.792 C 371.835 114.338,371.311 114.669,371.082 114.527 C 370.827 114.370,370.760 114.519,370.910 114.909 C 371.332 116.011,372.020 118.733,371.961 119.074 C 371.748 120.315,372.144 120.773,372.416 119.600 C 372.594 118.830,372.929 117.480,373.160 116.600 C 374.041 113.252,373.620 111.961,372.245 113.792 M370.654 122.603 C 369.937 123.320,369.866 124.279,370.284 127.600 C 370.556 129.766,370.565 129.779,370.865 128.400 C 371.032 127.630,371.391 126.055,371.663 124.899 C 372.233 122.483,371.787 121.470,370.654 122.603 M369.100 131.585 C 368.335 132.330,368.056 136.260,368.800 135.800 C 369.020 135.664,369.219 135.788,369.242 136.076 C 369.310 136.920,370.336 133.505,370.369 132.324 C 370.408 130.959,369.991 130.716,369.100 131.585 M368.715 138.800 C 368.861 139.800,368.754 140.000,368.072 140.000 C 367.605 140.000,367.145 140.343,367.000 140.800 C 366.860 141.240,366.578 141.600,366.373 141.600 C 366.168 141.600,366.000 141.849,366.000 142.154 C 366.000 142.789,367.191 145.209,367.204 144.600 C 367.208 144.380,367.368 144.447,367.559 144.748 C 367.814 145.150,368.018 144.938,368.326 143.948 C 368.943 141.962,369.344 137.600,368.909 137.600 C 368.705 137.600,368.618 138.140,368.715 138.800 M367.115 147.600 C 367.230 148.387,367.119 148.800,366.791 148.800 C 366.114 148.800,364.400 150.696,364.400 151.444 C 364.400 151.776,364.580 151.936,364.800 151.800 C 365.034 151.655,365.200 152.070,365.200 152.800 C 365.200 153.530,365.366 153.945,365.600 153.800 C 365.820 153.664,366.013 153.788,366.028 154.076 C 366.044 154.364,366.288 153.970,366.572 153.200 C 367.242 151.379,367.776 146.400,367.301 146.400 C 367.102 146.400,367.018 146.940,367.115 147.600 M365.524 156.600 C 365.614 157.370,365.758 158.000,365.844 158.000 C 365.930 158.000,366.000 157.370,366.000 156.600 C 366.000 155.830,365.856 155.200,365.680 155.200 C 365.504 155.200,365.434 155.830,365.524 156.600 M364.100 158.267 C 363.448 158.527,363.481 161.134,364.151 162.342 C 364.661 163.263,364.684 163.244,365.175 161.490 C 365.909 158.867,365.519 157.699,364.100 158.267 M363.902 165.800 C 364.055 166.602,363.932 166.800,363.278 166.800 C 362.368 166.800,361.956 168.029,362.062 170.433 C 362.138 172.177,363.001 172.347,363.565 170.729 C 364.184 168.952,364.564 164.800,364.107 164.800 C 363.889 164.800,363.797 165.250,363.902 165.800 M362.323 174.857 C 362.455 175.753,362.372 176.030,362.036 175.822 C 360.671 174.978,359.765 178.579,360.939 180.185 C 361.444 180.874,361.508 180.840,361.920 179.657 C 362.562 177.816,362.980 173.600,362.521 173.600 C 362.311 173.600,362.222 174.166,362.323 174.857 M360.661 184.300 C 360.790 185.242,360.757 185.285,360.434 184.600 C 360.226 184.160,360.044 184.036,360.028 184.324 C 360.013 184.612,359.835 184.745,359.633 184.620 C 358.800 184.106,358.677 188.429,359.486 189.740 C 359.818 190.276,360.714 187.643,361.042 185.166 C 361.202 183.960,361.150 183.200,360.907 183.200 C 360.689 183.200,360.578 183.695,360.661 184.300 M358.070 193.326 C 357.081 194.378,356.950 196.328,357.741 198.185 L 358.247 199.370 358.923 196.959 C 360.085 192.820,359.777 191.509,358.070 193.326 M356.609 202.098 C 355.780 203.066,355.717 204.247,356.322 207.400 C 356.580 208.745,356.721 209.031,356.753 208.274 C 356.779 207.654,356.976 206.818,357.192 206.416 C 357.746 205.379,358.189 201.200,357.744 201.200 C 357.543 201.200,357.032 201.604,356.609 202.098 M354.900 211.065 C 354.625 211.176,354.400 211.457,354.400 211.689 C 354.400 211.922,354.085 212.351,353.700 212.643 C 353.097 213.101,353.087 213.176,353.633 213.187 C 353.982 213.194,354.279 213.425,354.293 213.700 C 354.437 216.421,355.200 219.631,355.200 217.517 C 355.200 216.958,355.470 215.735,355.800 214.800 C 356.877 211.748,356.552 210.398,354.900 211.065 M352.829 220.654 C 351.902 221.832,351.800 222.440,352.421 223.061 C 352.653 223.293,352.913 224.249,352.999 225.185 C 353.171 227.064,353.597 227.893,353.606 226.367 C 353.609 225.835,353.871 224.680,354.188 223.800 C 355.451 220.295,354.621 218.375,352.829 220.654 M352.121 228.258 C 352.272 228.510,352.126 228.819,351.798 228.946 C 350.941 229.274,350.943 233.467,351.800 233.467 C 353.026 233.467,353.623 229.241,352.523 228.349 C 352.151 228.047,351.970 228.006,352.121 228.258 M351.701 236.200 C 351.705 237.080,351.787 237.393,351.883 236.895 C 351.979 236.398,351.975 235.678,351.875 235.295 C 351.775 234.913,351.696 235.320,351.701 236.200 M349.952 238.364 C 349.658 239.029,349.306 239.372,349.161 239.137 C 348.984 238.851,348.818 238.847,348.646 239.125 C 348.507 239.351,348.664 239.807,348.996 240.139 C 349.328 240.471,349.600 241.126,349.600 241.595 C 349.600 242.064,349.780 242.336,350.000 242.200 C 350.220 242.064,350.414 242.188,350.430 242.476 C 350.482 243.356,351.537 240.272,351.570 239.149 C 351.619 237.426,350.588 236.926,349.952 238.364 M350.101 245.000 C 350.105 245.880,350.187 246.193,350.283 245.695 C 350.379 245.198,350.375 244.478,350.275 244.095 C 350.175 243.713,350.096 244.120,350.101 245.000 M348.691 246.853 C 347.839 247.330,347.772 249.865,348.584 250.937 C 349.101 251.620,349.173 251.562,349.569 250.137 C 350.364 247.275,350.048 246.094,348.691 246.853 M348.372 254.500 C 348.348 255.589,348.288 255.670,348.000 255.000 C 347.706 254.316,347.652 254.301,347.628 254.900 C 347.613 255.285,347.414 255.600,347.187 255.600 C 346.960 255.600,346.611 256.005,346.412 256.500 C 346.213 256.995,346.039 257.164,346.025 256.876 C 346.011 256.588,345.828 256.459,345.617 256.589 C 345.407 256.719,345.336 257.089,345.459 257.411 C 345.583 257.732,345.845 257.896,346.042 257.774 C 346.239 257.652,346.423 257.833,346.450 258.176 C 346.512 258.948,346.582 259.199,347.004 260.171 C 347.295 260.839,347.407 260.746,347.851 259.466 C 348.441 257.761,349.024 253.200,348.652 253.200 C 348.513 253.200,348.387 253.785,348.372 254.500 M346.800 263.400 C 346.800 264.052,346.576 264.400,346.156 264.400 C 345.251 264.400,343.643 266.047,343.899 266.713 C 344.074 267.171,344.170 267.175,344.450 266.734 C 344.700 266.338,344.793 266.407,344.808 267.000 C 344.860 269.043,345.824 269.767,346.308 268.127 C 346.889 266.157,347.377 262.400,347.052 262.400 C 346.913 262.400,346.800 262.850,346.800 263.400 M345.156 271.100 C 345.131 271.265,345.144 271.805,345.184 272.300 C 345.224 272.795,345.054 273.200,344.805 273.200 C 344.556 273.200,344.480 272.975,344.635 272.700 C 344.860 272.302,344.808 272.301,344.383 272.696 C 343.421 273.588,343.111 276.192,343.774 277.813 L 344.256 278.993 344.717 277.165 C 345.319 274.773,345.780 270.800,345.455 270.800 C 345.315 270.800,345.180 270.935,345.156 271.100 M342.446 281.820 C 341.608 282.702,341.521 283.077,341.735 284.882 C 342.088 287.865,342.584 287.993,343.341 285.295 C 344.501 281.163,344.195 279.976,342.446 281.820 M340.892 290.667 C 339.911 291.768,339.731 293.645,340.431 295.474 L 340.862 296.600 341.420 295.281 C 342.879 291.830,342.535 288.822,340.892 290.667 M278.100 365.398 C 277.825 365.711,277.600 366.154,277.600 366.383 C 277.600 366.612,277.319 366.800,276.976 366.800 C 276.633 366.800,276.455 366.965,276.579 367.166 C 276.703 367.367,276.579 367.612,276.302 367.710 C 276.026 367.807,276.549 368.116,277.464 368.396 C 279.289 368.954,281.189 368.690,281.026 367.901 C 280.761 366.617,280.000 365.286,279.398 365.055 C 278.590 364.744,278.702 364.715,278.100 365.398 M282.200 368.800 L 281.000 369.105 282.300 369.153 C 283.015 369.179,283.600 369.020,283.600 368.800 C 283.600 368.580,283.555 368.421,283.500 368.447 C 283.445 368.473,282.860 368.632,282.200 368.800 M284.979 368.766 C 285.103 368.967,284.979 369.211,284.702 369.307 C 284.426 369.404,285.220 369.714,286.466 369.997 C 289.228 370.625,290.228 370.373,289.603 369.206 C 289.251 368.547,288.768 368.400,286.962 368.400 C 285.729 368.400,284.853 368.562,284.979 368.766 M295.600 369.600 C 295.600 369.820,295.229 370.000,294.776 370.000 C 294.323 370.000,294.064 370.180,294.200 370.400 C 294.336 370.620,294.167 370.800,293.824 370.800 C 293.481 370.800,293.200 370.645,293.200 370.455 C 293.200 370.266,292.721 370.203,292.135 370.314 C 291.274 370.479,291.598 370.657,293.835 371.248 C 298.384 372.450,300.063 371.975,297.765 370.136 C 296.542 369.157,295.600 368.924,295.600 369.600 M302.112 372.295 C 303.164 372.377,304.784 372.376,305.712 372.292 C 306.640 372.208,305.780 372.141,303.800 372.142 C 301.820 372.143,301.060 372.212,302.112 372.295 " stroke="none" fill="#445458" fill-rule="evenodd"></path><path id="path1" d="M100.600 32.430 C 99.940 32.628,98.275 32.831,96.900 32.880 C 95.525 32.929,94.400 33.121,94.400 33.305 C 94.400 33.490,93.746 33.914,92.946 34.248 C 91.653 34.788,90.002 35.815,88.522 37.000 C 88.247 37.220,87.334 37.934,86.493 38.586 C 84.402 40.208,81.725 44.374,82.461 44.861 C 83.500 45.548,174.371 45.094,174.802 44.400 C 175.316 43.571,174.765 43.458,172.500 43.926 C 169.578 44.531,165.776 43.334,166.564 42.058 C 166.664 41.896,165.591 41.936,164.179 42.147 C 161.076 42.611,158.591 42.032,158.185 40.752 C 157.972 40.081,157.718 39.975,156.861 40.199 C 153.111 41.179,149.878 40.706,149.462 39.116 C 149.287 38.445,149.045 38.347,148.124 38.569 C 144.035 39.557,140.690 39.145,140.198 37.593 C 140.000 36.969,139.774 36.927,138.499 37.279 C 135.951 37.982,132.800 37.495,131.803 36.244 C 131.045 35.294,130.811 35.215,129.845 35.583 C 127.035 36.651,122.800 35.714,122.800 34.023 C 122.800 33.816,122.395 33.740,121.900 33.855 C 118.347 34.680,115.261 34.507,114.260 33.427 C 113.315 32.407,113.158 32.371,111.174 32.732 C 109.043 33.119,108.074 33.068,104.680 32.386 C 102.465 31.941,102.217 31.943,100.600 32.430 M50.840 65.633 C 45.643 66.306,41.373 69.457,39.070 74.320 L 37.800 77.000 37.800 204.800 L 37.800 332.600 39.096 335.249 C 40.738 338.604,42.971 340.840,46.335 342.496 L 48.983 343.800 176.097 343.902 L 303.211 344.005 305.672 343.176 C 311.379 341.253,315.033 336.990,315.980 331.148 C 316.530 327.764,316.559 81.602,316.011 78.254 C 314.868 71.275,309.542 66.464,301.999 65.597 C 297.800 65.114,54.575 65.149,50.840 65.633 M305.303 66.722 C 309.804 68.271,313.772 72.566,315.014 77.234 C 315.921 80.640,315.887 328.728,314.980 332.212 C 313.410 338.239,308.632 342.376,302.289 343.200 C 298.241 343.726,55.084 343.712,51.443 343.186 C 43.968 342.105,39.195 337.019,38.379 329.265 C 37.890 324.624,37.895 84.930,38.384 80.287 C 39.134 73.154,43.398 67.976,49.639 66.617 C 53.306 65.819,302.976 65.921,305.303 66.722 M342.664 73.069 C 342.503 73.230,341.019 73.461,339.366 73.581 L 336.362 73.800 336.389 179.893 C 336.405 238.244,336.523 286.517,336.653 287.165 L 336.889 288.345 338.269 287.687 C 339.347 287.173,339.600 286.851,339.426 286.214 C 338.449 282.648,339.076 278.400,340.580 278.400 C 341.321 278.400,341.332 278.231,340.745 275.688 C 340.178 273.233,340.550 271.111,341.781 269.783 C 342.617 268.881,342.679 268.595,342.320 267.296 C 341.655 264.885,342.121 261.987,343.329 261.023 C 344.272 260.272,344.329 260.061,343.990 258.600 C 343.185 255.128,343.741 252.266,345.301 251.858 C 345.887 251.705,346.027 251.452,345.819 250.924 C 344.805 248.348,345.352 243.200,346.639 243.200 C 347.119 243.200,347.172 242.573,346.953 239.455 C 346.683 235.608,347.038 234.521,348.751 233.950 C 349.073 233.842,349.088 233.403,348.801 232.402 C 348.041 229.752,348.288 226.865,349.361 225.871 C 350.272 225.027,350.311 224.796,350.107 221.526 C 349.901 218.216,349.935 218.029,350.916 217.048 C 351.881 216.082,351.927 215.853,351.716 213.056 C 351.430 209.276,351.723 208.085,353.018 207.760 C 353.845 207.552,353.969 207.355,353.712 206.654 C 352.957 204.589,353.347 199.593,354.320 198.860 C 355.183 198.209,355.213 198.043,354.800 196.198 C 354.229 193.650,354.638 191.312,355.852 190.187 C 356.762 189.344,356.789 189.186,356.362 187.197 C 355.767 184.423,356.121 182.404,357.380 181.391 C 358.362 180.601,358.374 180.523,357.925 178.106 C 357.381 175.182,357.931 172.603,359.182 172.206 C 359.730 172.032,359.887 171.712,359.737 171.081 C 358.870 167.439,359.292 163.957,360.664 163.431 C 361.148 163.245,361.207 162.640,360.992 160.102 C 360.696 156.618,361.109 155.010,362.406 154.598 C 363.000 154.410,363.177 154.127,362.992 153.664 C 361.984 151.149,362.559 145.600,363.827 145.600 C 364.289 145.600,364.346 144.958,364.139 142.039 C 363.893 138.583,363.916 138.447,364.923 137.440 C 365.919 136.444,365.952 136.269,365.728 133.095 C 365.508 129.987,365.554 129.715,366.487 128.593 C 367.417 127.476,367.468 127.179,367.291 123.926 C 367.109 120.577,367.140 120.417,368.153 119.479 C 369.145 118.559,369.186 118.375,368.883 116.153 C 368.482 113.201,368.869 111.253,370.029 110.378 C 370.884 109.733,370.907 109.582,370.475 107.432 C 370.115 105.641,370.137 104.552,370.580 102.239 C 370.992 100.087,371.034 98.847,370.739 97.556 C 370.518 96.590,370.326 94.770,370.312 93.511 C 370.293 91.810,370.095 91.048,369.543 90.549 C 369.134 90.179,368.800 89.566,368.800 89.187 C 368.800 88.808,368.520 88.265,368.177 87.981 C 367.834 87.696,367.319 86.901,367.031 86.214 C 366.172 84.158,362.271 80.305,359.733 79.006 C 358.450 78.350,357.130 77.609,356.800 77.360 C 356.470 77.112,355.499 76.801,354.643 76.670 C 353.786 76.539,352.675 76.046,352.174 75.575 C 351.419 74.866,350.982 74.767,349.631 74.995 C 347.274 75.393,344.910 74.883,343.859 73.750 C 343.362 73.215,342.825 72.909,342.664 73.069 M214.944 166.500 C 214.277 167.215,212.477 169.510,210.944 171.600 C 206.272 177.972,202.311 183.458,200.000 186.759 C 198.790 188.487,195.820 192.625,193.400 195.954 C 190.980 199.283,188.068 203.311,186.929 204.904 C 185.790 206.497,184.214 208.700,183.428 209.800 C 182.641 210.900,180.742 213.510,179.208 215.600 C 177.674 217.690,175.289 220.993,173.909 222.939 C 172.529 224.886,170.320 227.963,169.000 229.778 C 167.680 231.593,165.610 234.480,164.400 236.195 C 157.698 245.694,157.965 245.644,152.124 238.484 C 150.202 236.128,147.537 232.940,146.200 231.400 C 144.864 229.860,142.697 227.288,141.385 225.685 C 128.527 209.971,120.113 200.098,118.898 199.299 C 117.267 198.226,115.909 199.247,111.903 204.558 C 104.146 214.840,93.215 229.308,87.995 236.200 C 66.424 264.685,67.483 263.117,68.698 264.744 C 70.641 267.347,73.735 267.385,213.200 266.549 L 281.400 266.140 283.891 265.236 C 287.458 263.942,288.975 262.825,289.118 261.387 C 289.242 260.135,287.076 257.067,273.918 239.861 C 272.884 238.507,270.155 234.880,267.854 231.800 C 265.553 228.720,258.510 219.360,252.201 211.000 C 245.893 202.640,238.041 192.200,234.753 187.800 C 231.464 183.400,227.796 178.540,226.602 177.000 C 225.407 175.460,223.226 172.580,221.755 170.600 C 217.186 164.452,216.974 164.324,214.944 166.500 M125.092 208.900 C 159.333 249.840,156.464 246.164,155.570 247.949 C 154.022 251.044,143.728 264.795,142.512 265.393 C 141.362 265.958,137.611 266.014,107.512 265.911 C 64.900 265.766,67.454 266.377,73.875 257.871 C 75.506 255.710,81.814 247.340,87.893 239.271 C 93.972 231.202,102.539 219.830,106.931 214.000 C 116.060 201.883,116.640 201.200,117.801 201.200 C 118.417 201.200,120.433 203.330,125.092 208.900 M318.200 359.616 C 310.908 363.216,300.972 364.798,288.077 364.412 C 285.964 364.349,284.800 364.688,284.800 365.366 C 284.800 365.766,285.306 365.798,287.100 365.512 C 289.820 365.079,292.170 365.622,292.819 366.835 C 293.196 367.540,293.486 367.605,295.125 367.349 C 297.748 366.939,300.426 367.075,302.275 367.712 C 303.552 368.152,304.110 368.161,305.225 367.758 C 305.981 367.484,307.742 367.247,309.137 367.230 C 311.035 367.208,311.930 366.999,312.691 366.400 C 313.250 365.960,314.049 365.600,314.466 365.600 C 314.884 365.600,315.326 365.337,315.450 365.015 C 315.573 364.694,316.062 364.311,316.537 364.165 C 318.417 363.587,324.778 356.867,323.108 357.223 C 323.049 357.236,320.840 358.313,318.200 359.616 " stroke="none" fill="#64c3b3" fill-rule="evenodd"></path><path id="path2" d="M49.639 66.617 C 43.398 67.976,39.134 73.154,38.384 80.287 C 37.895 84.930,37.890 324.624,38.379 329.265 C 39.195 337.019,43.968 342.105,51.443 343.186 C 55.084 343.712,298.241 343.726,302.289 343.200 C 308.632 342.376,313.410 338.239,314.980 332.212 C 315.887 328.728,315.921 80.640,315.014 77.234 C 313.772 72.566,309.804 68.271,305.303 66.722 C 302.976 65.921,53.306 65.819,49.639 66.617 M306.012 68.486 C 309.381 70.141,311.412 72.100,312.891 75.123 L 314.200 77.800 314.200 204.621 L 314.200 331.441 312.668 334.541 C 310.999 337.917,309.563 339.260,305.600 341.151 L 303.400 342.200 177.400 342.200 C 33.548 342.200,48.649 342.620,44.328 338.499 C 41.194 335.509,40.436 334.176,39.780 330.498 C 39.092 326.637,38.932 84.567,39.614 79.843 C 40.506 73.673,43.902 69.546,49.400 67.950 C 51.661 67.294,59.091 67.258,177.800 67.327 L 303.800 67.400 306.012 68.486 M72.604 81.430 C 65.828 82.775,59.173 88.023,55.905 94.600 C 53.174 100.094,53.400 92.959,53.400 173.800 L 53.400 246.600 54.308 249.400 C 55.448 252.913,59.042 258.298,61.733 260.524 C 62.847 261.446,64.848 263.306,66.179 264.657 C 70.732 269.279,60.192 268.941,186.000 268.496 L 281.800 268.157 284.448 267.147 C 288.693 265.528,290.590 264.231,291.818 262.108 C 292.425 261.059,293.585 259.471,294.396 258.580 C 296.794 255.942,299.120 251.640,299.994 248.222 C 301.246 243.327,301.261 104.330,300.010 99.438 C 297.737 90.551,290.204 83.250,281.400 81.402 C 277.319 80.545,76.927 80.572,72.604 81.430 M162.294 131.966 C 179.792 136.510,182.170 159.934,165.951 167.971 C 156.393 172.707,145.296 168.980,140.292 159.353 C 132.736 144.816,146.381 127.832,162.294 131.966 M218.270 166.100 C 218.715 166.595,220.283 168.620,221.755 170.600 C 223.226 172.580,225.407 175.460,226.602 177.000 C 227.796 178.540,231.464 183.400,234.753 187.800 C 238.041 192.200,245.893 202.640,252.201 211.000 C 258.510 219.360,265.553 228.720,267.854 231.800 C 270.155 234.880,272.884 238.507,273.918 239.861 C 287.076 257.067,289.242 260.135,289.118 261.387 C 288.975 262.825,287.458 263.942,283.891 265.236 L 281.400 266.140 213.200 266.549 C 73.735 267.385,70.641 267.347,68.698 264.744 C 67.483 263.117,66.424 264.685,87.995 236.200 C 93.215 229.308,104.146 214.840,111.903 204.558 C 115.909 199.247,117.267 198.226,118.898 199.299 C 120.113 200.098,128.527 209.971,141.385 225.685 C 142.697 227.288,144.864 229.860,146.200 231.400 C 147.537 232.940,150.202 236.128,152.124 238.484 C 157.965 245.644,157.698 245.694,164.400 236.195 C 165.610 234.480,167.680 231.593,169.000 229.778 C 170.320 227.963,172.529 224.886,173.909 222.939 C 175.289 220.993,177.674 217.690,179.208 215.600 C 180.742 213.510,182.641 210.900,183.428 209.800 C 184.214 208.700,185.790 206.497,186.929 204.904 C 188.068 203.311,190.980 199.283,193.400 195.954 C 195.820 192.625,198.790 188.487,200.000 186.759 C 214.208 166.465,216.385 164.004,218.270 166.100 " stroke="none" fill="#bcfbdc" fill-rule="evenodd"></path><path id="path3" d="M99.300 28.276 C 99.685 28.376,100.315 28.376,100.700 28.276 C 101.085 28.175,100.770 28.093,100.000 28.093 C 99.230 28.093,98.915 28.175,99.300 28.276 M104.705 28.283 C 105.202 28.379,105.922 28.375,106.305 28.275 C 106.687 28.175,106.280 28.096,105.400 28.101 C 104.520 28.105,104.207 28.187,104.705 28.283 M49.400 67.950 C 43.902 69.546,40.506 73.673,39.614 79.843 C 38.932 84.567,39.092 326.637,39.780 330.498 C 40.436 334.176,41.194 335.509,44.328 338.499 C 48.649 342.620,33.548 342.200,177.400 342.200 L 303.400 342.200 305.600 341.151 C 309.563 339.260,310.999 337.917,312.668 334.541 L 314.200 331.441 314.200 204.621 L 314.200 77.800 312.891 75.123 C 311.412 72.100,309.381 70.141,306.012 68.486 L 303.800 67.400 177.800 67.327 C 59.091 67.258,51.661 67.294,49.400 67.950 M281.400 81.402 C 290.204 83.250,297.737 90.551,300.010 99.438 C 301.261 104.330,301.246 243.327,299.994 248.222 C 299.120 251.640,296.794 255.942,294.396 258.580 C 293.585 259.471,292.425 261.059,291.818 262.108 C 290.590 264.231,288.693 265.528,284.448 267.147 L 281.800 268.157 186.000 268.496 C 60.192 268.941,70.732 269.279,66.179 264.657 C 64.848 263.306,62.847 261.446,61.733 260.524 C 59.042 258.298,55.448 252.913,54.308 249.400 L 53.400 246.600 53.400 173.800 C 53.400 92.959,53.174 100.094,55.905 94.600 C 59.173 88.023,65.828 82.775,72.604 81.430 C 76.927 80.572,277.319 80.545,281.400 81.402 M153.400 131.760 C 140.971 134.814,134.556 148.317,140.292 159.353 C 149.918 177.873,177.507 170.656,176.736 149.819 C 176.293 137.851,164.801 128.957,153.400 131.760 " stroke="none" fill="#e4fcf4" fill-rule="evenodd"></path><path id="path4" d="M98.499 28.200 C 98.619 28.420,98.465 28.832,98.158 29.116 C 97.644 29.591,97.435 29.448,97.553 28.700 C 97.579 28.535,97.408 28.400,97.173 28.400 C 96.928 28.400,96.854 28.741,97.000 29.200 C 97.146 29.659,97.072 30.000,96.827 30.000 C 96.592 30.000,96.400 30.270,96.400 30.600 C 96.400 30.930,96.136 31.200,95.813 31.200 C 95.424 31.200,95.310 30.963,95.476 30.500 C 95.614 30.115,95.590 29.924,95.423 30.074 C 95.255 30.225,94.678 30.182,94.140 29.977 C 92.850 29.487,90.402 30.468,90.394 31.480 C 90.389 32.091,90.329 32.109,90.000 31.600 C 89.656 31.068,89.612 31.068,89.606 31.604 C 89.603 31.936,89.214 32.449,88.742 32.743 C 87.985 33.216,87.914 33.201,88.137 32.619 C 88.286 32.232,88.227 32.060,87.995 32.203 C 87.778 32.337,87.597 32.752,87.594 33.124 C 87.589 33.694,87.530 33.708,87.217 33.214 C 86.917 32.740,86.770 32.826,86.454 33.659 C 86.238 34.227,85.743 34.813,85.353 34.963 C 84.717 35.207,84.724 35.141,85.422 34.317 L 86.200 33.400 85.254 34.200 C 84.734 34.640,84.152 35.409,83.960 35.910 C 83.769 36.410,82.994 37.185,82.238 37.631 C 80.476 38.670,77.634 42.269,78.984 41.751 C 79.432 41.579,79.541 41.688,79.369 42.137 C 79.237 42.481,79.395 43.143,79.720 43.607 C 80.045 44.072,80.230 44.762,80.131 45.142 C 79.508 47.526,76.577 47.400,132.742 47.400 C 190.368 47.400,186.457 47.612,186.990 44.461 C 187.196 43.238,187.473 42.806,188.131 42.676 C 188.609 42.582,188.426 42.558,187.724 42.624 C 187.016 42.689,186.361 42.532,186.254 42.271 C 186.114 41.928,185.957 41.948,185.680 42.343 C 185.415 42.722,185.218 42.752,185.026 42.443 C 184.876 42.199,184.448 42.003,184.076 42.006 C 183.493 42.011,183.483 42.066,184.000 42.400 C 184.490 42.717,184.444 42.789,183.747 42.794 C 183.233 42.798,182.810 43.118,182.684 43.600 C 182.366 44.815,180.099 44.713,179.624 43.462 C 179.427 42.946,178.937 42.191,178.533 41.784 C 177.952 41.198,177.932 41.095,178.436 41.285 C 178.786 41.418,179.326 41.351,179.636 41.137 C 180.034 40.863,179.761 40.791,178.706 40.893 C 177.885 40.973,177.133 40.849,177.037 40.619 C 176.928 40.359,176.716 40.407,176.479 40.745 C 176.192 41.155,176.056 41.169,175.934 40.801 C 175.809 40.428,175.348 40.460,173.985 40.937 C 173.003 41.281,172.560 41.576,173.000 41.593 C 173.710 41.621,173.725 41.668,173.134 42.013 C 172.414 42.433,171.081 42.116,171.400 41.600 C 171.507 41.426,171.326 41.181,170.998 41.054 C 170.274 40.777,170.199 39.620,170.900 39.550 C 171.175 39.522,170.590 39.367,169.600 39.205 C 168.527 39.029,167.698 39.068,167.548 39.300 C 167.400 39.531,167.227 39.481,167.126 39.179 C 166.991 38.774,166.676 38.765,165.618 39.134 C 163.712 39.798,162.000 39.735,162.000 39.000 C 162.000 38.670,161.775 38.397,161.500 38.394 C 161.138 38.389,161.153 38.291,161.552 38.038 C 161.925 37.802,161.503 37.641,160.253 37.542 C 159.235 37.461,158.326 37.576,158.233 37.797 C 158.139 38.019,158.049 37.975,158.032 37.700 C 158.014 37.425,157.809 37.200,157.576 37.200 C 157.343 37.200,157.264 37.380,157.400 37.600 C 157.800 38.248,154.136 38.079,153.476 37.419 C 153.157 37.100,152.784 36.950,152.648 37.086 C 152.511 37.222,152.400 37.123,152.400 36.867 C 152.400 36.610,152.625 36.373,152.900 36.340 C 153.175 36.307,152.590 36.172,151.600 36.040 C 150.610 35.908,149.688 35.954,149.550 36.143 C 149.412 36.331,149.177 36.286,149.026 36.043 C 148.876 35.799,148.573 35.600,148.353 35.600 C 148.133 35.600,148.064 35.780,148.200 36.000 C 148.340 36.227,148.004 36.400,147.424 36.400 C 146.818 36.400,146.441 36.604,146.500 36.900 C 146.555 37.175,146.330 37.400,146.000 37.400 C 145.670 37.400,145.445 37.175,145.500 36.900 C 145.555 36.625,145.246 36.400,144.814 36.400 C 144.057 36.400,143.014 35.119,143.432 34.702 C 143.543 34.590,142.942 34.508,142.095 34.521 C 141.248 34.533,140.306 34.389,140.001 34.201 C 139.657 33.988,139.388 34.036,139.290 34.329 C 139.204 34.588,138.878 34.800,138.567 34.800 C 138.255 34.800,138.000 34.961,138.000 35.157 C 138.000 36.681,135.609 35.520,135.038 33.719 C 134.831 33.069,134.450 32.904,133.195 32.922 C 132.324 32.935,131.489 32.823,131.339 32.673 C 130.911 32.244,129.925 32.354,130.200 32.800 C 130.336 33.020,130.167 33.200,129.824 33.200 C 129.481 33.200,129.200 33.431,129.200 33.713 C 129.200 33.995,128.750 34.263,128.200 34.308 C 127.576 34.360,127.200 34.183,127.200 33.838 C 127.200 33.534,126.910 33.174,126.555 33.038 C 126.169 32.890,125.986 32.496,126.101 32.058 C 126.262 31.443,126.029 31.315,124.646 31.261 C 123.741 31.226,122.590 31.117,122.089 31.019 C 121.577 30.920,121.281 31.008,121.413 31.221 C 121.542 31.429,121.341 31.600,120.968 31.600 C 120.594 31.600,120.056 31.915,119.772 32.300 C 119.287 32.957,119.205 32.945,118.412 32.100 C 117.948 31.605,117.396 31.200,117.184 31.200 C 116.624 31.200,116.714 30.488,117.300 30.288 C 117.575 30.194,117.380 30.188,116.866 30.274 C 116.186 30.389,116.017 30.292,116.243 29.916 C 116.491 29.503,116.432 29.498,115.947 29.890 C 115.524 30.233,115.214 30.254,114.921 29.961 C 114.423 29.463,111.200 30.203,111.200 30.815 C 111.200 31.809,109.306 31.042,108.129 29.571 C 107.430 28.698,106.759 28.142,106.639 28.336 C 106.515 28.538,105.566 28.520,104.420 28.293 C 103.093 28.031,101.887 28.033,100.840 28.299 C 99.717 28.584,99.118 28.570,98.771 28.250 C 98.502 28.002,98.380 27.980,98.499 28.200 M104.680 32.386 C 108.074 33.068,109.043 33.119,111.174 32.732 C 113.158 32.371,113.315 32.407,114.260 33.427 C 115.261 34.507,118.347 34.680,121.900 33.855 C 122.395 33.740,122.800 33.816,122.800 34.023 C 122.800 35.714,127.035 36.651,129.845 35.583 C 130.811 35.215,131.045 35.294,131.803 36.244 C 132.800 37.495,135.951 37.982,138.499 37.279 C 139.774 36.927,140.000 36.969,140.198 37.593 C 140.690 39.145,144.035 39.557,148.124 38.569 C 149.045 38.347,149.287 38.445,149.462 39.116 C 149.878 40.706,153.111 41.179,156.861 40.199 C 157.718 39.975,157.972 40.081,158.185 40.752 C 158.591 42.032,161.076 42.611,164.179 42.147 C 165.591 41.936,166.664 41.896,166.564 42.058 C 165.776 43.334,169.578 44.531,172.500 43.926 C 174.765 43.458,175.316 43.571,174.802 44.400 C 174.371 45.094,83.500 45.548,82.461 44.861 C 81.725 44.374,84.402 40.208,86.493 38.586 C 87.334 37.934,88.247 37.220,88.522 37.000 C 90.002 35.815,91.653 34.788,92.946 34.248 C 93.746 33.914,94.400 33.490,94.400 33.305 C 94.400 33.121,95.525 32.929,96.900 32.880 C 98.275 32.831,99.940 32.628,100.600 32.430 C 102.217 31.943,102.465 31.941,104.680 32.386 M155.856 38.677 C 155.399 39.134,154.000 39.225,154.000 38.797 C 154.000 38.579,154.480 38.400,155.067 38.400 C 155.653 38.400,156.009 38.525,155.856 38.677 M49.200 64.548 C 44.374 65.602,39.845 69.276,37.684 73.888 L 36.600 76.200 36.600 204.800 L 36.600 333.400 37.687 335.600 C 40.181 340.650,44.475 343.994,49.764 345.006 C 53.808 345.779,299.083 345.917,303.567 345.149 C 309.996 344.046,314.936 339.704,316.914 333.415 L 317.800 330.600 317.800 205.000 C 317.800 67.983,317.964 77.403,315.495 72.699 C 313.403 68.713,309.072 65.458,304.622 64.524 C 301.181 63.803,52.505 63.826,49.200 64.548 M301.999 65.597 C 309.542 66.464,314.868 71.275,316.011 78.254 C 316.559 81.602,316.530 327.764,315.980 331.148 C 315.033 336.990,311.379 341.253,305.672 343.176 L 303.211 344.005 176.097 343.902 L 48.983 343.800 46.335 342.496 C 42.971 340.840,40.738 338.604,39.096 335.249 L 37.800 332.600 37.800 204.800 L 37.800 77.000 39.070 74.320 C 41.373 69.457,45.643 66.306,50.840 65.633 C 54.575 65.149,297.800 65.114,301.999 65.597 M337.400 69.200 C 337.536 69.420,337.402 69.600,337.102 69.600 C 336.802 69.600,335.972 70.203,335.258 70.940 L 333.959 72.281 334.003 184.040 C 334.047 296.337,334.132 304.704,335.244 305.815 C 335.931 306.503,338.542 307.354,338.184 306.774 C 338.057 306.568,338.131 306.400,338.350 306.400 C 338.568 306.400,338.822 306.895,338.913 307.500 C 339.045 308.370,339.093 308.282,339.140 307.076 C 339.173 306.238,339.059 305.640,338.887 305.747 C 338.714 305.853,338.579 305.459,338.587 304.870 C 338.597 304.074,338.380 303.769,337.738 303.677 C 336.140 303.449,336.039 300.053,337.627 299.950 C 340.504 299.764,340.868 298.883,340.183 293.768 C 339.917 291.779,341.297 289.031,342.140 289.873 C 342.283 290.016,342.400 289.923,342.400 289.667 C 342.400 289.410,342.198 289.200,341.951 289.200 C 341.631 289.200,341.639 289.035,341.977 288.627 C 342.330 288.203,342.343 287.659,342.029 286.527 C 341.289 283.865,341.480 282.684,342.841 281.489 C 343.524 280.890,343.877 280.400,343.627 280.400 C 343.291 280.400,343.288 280.184,343.615 279.572 C 343.907 279.026,343.933 278.377,343.690 277.672 C 343.130 276.045,343.480 273.533,344.383 272.696 C 344.808 272.301,344.860 272.302,344.635 272.700 C 344.480 272.975,344.556 273.200,344.805 273.200 C 345.054 273.200,345.205 272.795,345.141 272.300 C 345.077 271.805,345.182 271.147,345.374 270.838 C 345.613 270.454,345.578 270.367,345.262 270.562 C 345.008 270.719,344.800 270.672,344.800 270.457 C 344.800 270.242,345.000 270.000,345.244 269.919 C 345.553 269.816,345.498 269.228,345.063 267.985 C 344.719 267.003,344.427 266.470,344.413 266.800 C 344.391 267.315,344.336 267.319,344.024 266.825 C 343.590 266.139,345.035 264.418,346.055 264.407 C 346.769 264.399,347.386 261.908,346.734 261.661 C 346.532 261.585,346.576 261.270,346.832 260.961 C 347.190 260.530,347.171 260.247,346.749 259.739 C 346.447 259.375,346.245 259.015,346.300 258.939 C 346.571 258.563,346.354 257.581,346.042 257.774 C 345.845 257.896,345.583 257.732,345.459 257.411 C 345.336 257.089,345.407 256.719,345.617 256.589 C 345.828 256.459,346.011 256.588,346.025 256.876 C 346.039 257.164,346.213 256.995,346.412 256.500 C 346.611 256.005,346.960 255.600,347.187 255.600 C 347.414 255.600,347.613 255.285,347.628 254.900 C 347.652 254.307,347.704 254.323,347.971 255.000 C 348.227 255.652,348.318 255.523,348.462 254.300 C 348.560 253.475,348.494 252.800,348.316 252.800 C 348.139 252.800,348.215 252.444,348.487 252.010 C 348.876 251.387,348.877 251.117,348.490 250.730 C 347.699 249.939,347.873 247.296,348.747 246.828 C 349.158 246.608,349.608 246.542,349.747 246.681 C 349.886 246.820,350.000 246.386,350.000 245.717 C 350.000 245.047,350.118 243.910,350.262 243.188 C 350.451 242.245,350.395 241.956,350.062 242.161 C 349.768 242.344,349.600 242.138,349.600 241.595 C 349.600 241.126,349.328 240.471,348.996 240.139 C 348.664 239.807,348.507 239.351,348.646 239.125 C 348.818 238.847,348.984 238.851,349.161 239.137 C 349.306 239.372,349.658 239.029,349.952 238.364 C 350.355 237.453,350.604 237.271,350.999 237.599 C 351.408 237.938,351.548 237.646,351.661 236.216 C 351.741 235.218,351.624 234.326,351.403 234.233 C 351.181 234.139,351.225 234.049,351.500 234.032 C 351.775 234.014,352.000 233.809,352.000 233.576 C 352.000 233.343,351.820 233.264,351.600 233.400 C 351.352 233.554,351.200 232.800,351.200 231.411 C 351.200 229.796,351.366 229.111,351.798 228.946 C 352.126 228.819,352.272 228.510,352.121 228.258 C 351.964 227.996,352.123 228.024,352.491 228.322 C 353.328 229.000,353.243 224.297,352.395 222.939 C 351.764 221.931,352.707 220.054,354.015 219.712 C 354.719 219.528,354.800 217.943,354.323 213.700 C 354.292 213.425,353.982 213.194,353.633 213.187 C 353.087 213.176,353.097 213.101,353.700 212.643 C 354.085 212.351,354.400 211.910,354.400 211.664 C 354.400 211.417,354.842 211.104,355.382 210.969 C 356.336 210.729,356.357 210.643,356.150 207.861 C 355.796 203.107,355.826 202.853,356.850 201.899 C 357.872 200.946,357.940 200.221,357.388 196.173 C 357.130 194.277,357.187 194.082,358.256 193.173 C 359.464 192.146,359.648 190.950,359.047 188.034 C 358.721 186.454,359.093 184.287,359.633 184.620 C 359.835 184.745,360.013 184.612,360.028 184.324 C 360.044 184.036,360.226 184.160,360.434 184.600 C 360.757 185.285,360.790 185.242,360.661 184.300 C 360.578 183.695,360.666 183.200,360.855 183.200 C 361.045 183.200,361.200 183.009,361.200 182.776 C 361.200 182.543,360.989 182.483,360.732 182.642 C 360.400 182.847,360.359 182.708,360.590 182.166 C 360.939 181.344,360.938 181.109,360.561 178.492 C 360.292 176.629,360.905 175.401,361.910 175.787 C 362.361 175.960,362.452 175.739,362.315 174.805 C 362.212 174.103,362.318 173.597,362.569 173.594 C 362.806 173.591,362.756 173.433,362.457 173.244 C 362.079 173.004,362.049 172.817,362.357 172.626 C 362.601 172.476,362.800 172.173,362.800 171.953 C 362.800 171.733,362.649 171.646,362.464 171.760 C 362.061 172.010,361.906 169.442,362.231 167.900 C 362.393 167.136,362.712 166.800,363.278 166.800 C 363.929 166.800,364.055 166.601,363.905 165.814 C 363.801 165.272,363.915 164.746,364.158 164.646 C 364.416 164.539,364.371 164.450,364.051 164.432 C 363.604 164.406,363.596 164.287,364.010 163.788 C 364.402 163.316,364.413 162.947,364.059 162.169 C 363.040 159.934,363.844 157.362,365.283 158.251 C 365.548 158.415,365.638 157.917,365.536 156.853 C 365.450 155.944,365.519 155.200,365.689 155.200 C 365.860 155.200,366.000 154.829,366.000 154.376 C 366.000 153.923,365.820 153.664,365.600 153.800 C 365.366 153.945,365.200 153.530,365.200 152.800 C 365.200 152.070,365.034 151.655,364.800 151.800 C 364.580 151.936,364.400 151.776,364.400 151.444 C 364.400 150.696,366.114 148.800,366.791 148.800 C 367.119 148.800,367.230 148.387,367.115 147.600 C 367.018 146.940,367.087 146.400,367.269 146.400 C 367.451 146.400,367.600 145.920,367.600 145.333 C 367.600 144.747,367.483 144.384,367.339 144.527 C 367.040 144.827,366.000 142.984,366.000 142.154 C 366.000 141.849,366.168 141.600,366.373 141.600 C 366.578 141.600,366.860 141.240,367.000 140.800 C 367.145 140.343,367.605 140.000,368.072 140.000 C 368.754 140.000,368.861 139.800,368.715 138.800 C 368.618 138.140,368.687 137.600,368.869 137.600 C 369.051 137.600,369.200 137.139,369.200 136.576 C 369.200 135.996,369.027 135.660,368.800 135.800 C 367.994 136.298,368.342 132.227,369.166 131.522 C 369.588 131.161,370.037 130.970,370.165 131.098 C 370.293 131.226,370.305 129.517,370.192 127.301 C 369.989 123.339,370.484 121.510,371.575 122.185 C 372.315 122.642,371.841 117.335,370.929 114.959 C 370.804 114.633,370.866 114.420,371.066 114.484 C 372.525 114.950,374.146 110.365,373.145 108.600 C 372.355 107.206,373.746 103.156,374.796 103.796 C 375.183 104.032,375.201 98.054,374.816 97.042 C 374.569 96.393,374.569 95.943,374.815 95.791 C 375.027 95.660,375.200 95.373,375.200 95.153 C 375.200 94.933,375.044 94.849,374.853 94.967 C 374.185 95.380,373.281 93.782,373.141 91.938 C 373.064 90.914,373.135 90.160,373.300 90.262 C 373.465 90.364,373.600 90.156,373.600 89.800 C 373.600 89.444,373.437 89.254,373.237 89.377 C 373.038 89.500,372.964 89.261,373.072 88.846 C 373.181 88.430,373.046 87.952,372.773 87.783 C 372.453 87.585,372.378 87.641,372.562 87.938 C 372.719 88.192,372.647 88.400,372.403 88.400 C 372.159 88.400,371.698 87.776,371.380 87.013 C 370.679 85.337,370.659 85.066,371.262 85.438 C 371.550 85.616,371.615 85.548,371.434 85.255 C 371.275 84.998,371.014 84.868,370.853 84.967 C 370.378 85.261,369.729 84.667,369.411 83.650 C 369.188 82.937,369.240 82.778,369.619 83.012 C 369.947 83.214,370.024 83.162,369.838 82.862 C 369.681 82.608,369.306 82.400,369.005 82.400 C 368.256 82.400,363.705 77.974,363.536 77.081 C 363.461 76.686,362.780 75.971,362.021 75.492 C 361.263 75.013,360.779 74.842,360.945 75.111 C 361.111 75.380,361.057 75.600,360.824 75.600 C 360.591 75.600,360.400 75.336,360.400 75.014 C 360.400 74.190,359.255 73.718,357.513 73.825 C 356.406 73.893,355.756 73.666,354.966 72.934 C 354.383 72.393,353.657 72.046,353.353 72.163 C 353.049 72.279,352.800 72.201,352.800 71.987 C 352.800 71.774,352.519 71.600,352.176 71.600 C 351.833 71.600,351.664 71.780,351.800 72.000 C 351.946 72.236,351.503 72.403,350.724 72.406 C 349.722 72.411,349.546 72.507,350.000 72.800 C 350.400 73.058,350.433 73.190,350.100 73.194 C 349.337 73.203,348.990 73.031,349.100 72.700 C 349.155 72.535,348.926 72.400,348.591 72.400 C 348.257 72.400,347.778 71.950,347.527 71.400 C 347.223 70.733,346.726 70.385,346.036 70.354 C 345.466 70.329,344.501 70.250,343.891 70.178 C 343.269 70.104,342.884 70.212,343.014 70.423 C 343.142 70.630,342.986 70.800,342.666 70.800 C 342.347 70.800,341.982 71.070,341.855 71.400 C 341.729 71.730,341.169 72.000,340.613 72.000 C 339.979 72.000,339.600 71.775,339.600 71.400 C 339.600 71.070,339.420 70.800,339.200 70.800 C 338.980 70.800,338.800 70.519,338.800 70.176 C 338.800 69.784,338.615 69.664,338.300 69.853 C 337.960 70.057,337.976 69.937,338.349 69.477 C 338.833 68.880,338.795 68.800,338.025 68.800 C 337.545 68.800,337.264 68.980,337.400 69.200 M346.381 74.997 C 347.271 75.147,348.734 75.146,349.631 74.995 C 350.982 74.767,351.419 74.866,352.174 75.575 C 352.675 76.046,353.786 76.539,354.643 76.670 C 355.499 76.801,356.470 77.112,356.800 77.360 C 357.130 77.609,358.450 78.350,359.733 79.006 C 362.271 80.305,366.172 84.158,367.031 86.214 C 367.319 86.901,367.834 87.696,368.177 87.981 C 368.520 88.265,368.800 88.808,368.800 89.187 C 368.800 89.566,369.134 90.179,369.543 90.549 C 370.095 91.048,370.293 91.810,370.312 93.511 C 370.326 94.770,370.518 96.590,370.739 97.556 C 371.034 98.847,370.992 100.087,370.580 102.239 C 370.137 104.552,370.115 105.641,370.475 107.432 C 370.907 109.582,370.884 109.733,370.029 110.378 C 368.869 111.253,368.482 113.201,368.883 116.153 C 369.186 118.375,369.145 118.559,368.153 119.479 C 367.140 120.417,367.109 120.577,367.291 123.926 C 367.468 127.179,367.417 127.476,366.487 128.593 C 365.554 129.715,365.508 129.987,365.728 133.095 C 365.952 136.269,365.919 136.444,364.923 137.440 C 363.916 138.447,363.893 138.583,364.139 142.039 C 364.346 144.958,364.289 145.600,363.827 145.600 C 362.559 145.600,361.984 151.149,362.992 153.664 C 363.177 154.127,363.000 154.410,362.406 154.598 C 361.109 155.010,360.696 156.618,360.992 160.102 C 361.207 162.640,361.148 163.245,360.664 163.431 C 359.292 163.957,358.870 167.439,359.737 171.081 C 359.887 171.712,359.730 172.032,359.182 172.206 C 357.931 172.603,357.381 175.182,357.925 178.106 C 358.374 180.523,358.362 180.601,357.380 181.391 C 356.121 182.404,355.767 184.423,356.362 187.197 C 356.789 189.186,356.762 189.344,355.852 190.187 C 354.638 191.312,354.229 193.650,354.800 196.198 C 355.213 198.043,355.183 198.209,354.320 198.860 C 353.347 199.593,352.957 204.589,353.712 206.654 C 353.969 207.355,353.845 207.552,353.018 207.760 C 351.723 208.085,351.430 209.276,351.716 213.056 C 351.927 215.853,351.881 216.082,350.916 217.048 C 349.935 218.029,349.901 218.216,350.107 221.526 C 350.311 224.796,350.272 225.027,349.361 225.871 C 348.288 226.865,348.041 229.752,348.801 232.402 C 349.088 233.403,349.073 233.842,348.751 233.950 C 347.038 234.521,346.683 235.608,346.953 239.455 C 347.172 242.573,347.119 243.200,346.639 243.200 C 345.352 243.200,344.805 248.348,345.819 250.924 C 346.027 251.452,345.887 251.705,345.301 251.858 C 343.741 252.266,343.185 255.128,343.990 258.600 C 344.329 260.061,344.272 260.272,343.329 261.023 C 342.121 261.987,341.655 264.885,342.320 267.296 C 342.679 268.595,342.617 268.881,341.781 269.783 C 340.550 271.111,340.178 273.233,340.745 275.688 C 341.332 278.231,341.321 278.400,340.580 278.400 C 339.076 278.400,338.449 282.648,339.426 286.214 C 339.600 286.851,339.347 287.173,338.269 287.687 L 336.889 288.345 336.653 287.165 C 336.523 286.517,336.405 238.244,336.389 179.893 L 336.362 73.800 339.366 73.581 C 341.019 73.461,342.503 73.230,342.664 73.069 C 342.825 72.909,343.362 73.215,343.859 73.750 C 344.380 74.312,345.446 74.839,346.381 74.997 M15.798 204.800 C 15.798 274.870,15.844 303.535,15.900 268.500 C 15.956 233.465,15.956 176.135,15.900 141.100 C 15.844 106.065,15.798 134.730,15.798 204.800 M115.933 202.300 C 115.374 202.905,111.323 208.170,106.931 214.000 C 102.539 219.830,93.972 231.202,87.893 239.271 C 81.814 247.340,75.506 255.710,73.875 257.871 C 69.421 263.772,69.364 264.056,72.400 265.247 C 74.675 266.140,140.714 266.277,142.512 265.393 C 143.728 264.795,154.022 251.044,155.570 247.949 C 156.464 246.164,159.333 249.840,125.092 208.900 C 118.140 200.587,117.765 200.317,115.933 202.300 M324.388 352.729 C 323.831 353.098,322.182 354.259,320.724 355.309 C 313.109 360.793,309.281 361.638,290.600 361.960 C 272.859 362.266,273.070 362.216,273.095 366.124 C 273.098 366.566,272.891 366.767,272.563 366.641 C 272.267 366.528,271.910 366.622,271.768 366.851 C 271.602 367.120,272.087 367.226,273.138 367.150 C 274.034 367.085,274.894 367.160,275.050 367.316 C 275.489 367.755,276.879 367.651,276.600 367.200 C 276.464 366.980,276.633 366.800,276.976 366.800 C 277.319 366.800,277.600 366.607,277.600 366.371 C 277.600 365.613,278.720 364.795,279.401 365.056 C 280.480 365.470,281.347 367.950,280.613 368.524 C 280.386 368.702,280.965 368.787,281.900 368.713 C 282.835 368.639,283.600 368.719,283.600 368.889 C 283.600 369.060,283.971 369.200,284.424 369.200 C 284.877 369.200,285.136 369.020,285.000 368.800 C 284.847 368.552,285.591 368.400,286.962 368.400 C 289.038 368.400,290.546 369.321,289.758 370.108 C 289.641 370.226,290.368 370.294,291.373 370.261 C 292.378 370.227,293.201 370.335,293.200 370.500 C 293.200 370.665,293.481 370.800,293.824 370.800 C 294.167 370.800,294.336 370.620,294.200 370.400 C 294.064 370.180,294.323 370.000,294.776 370.000 C 295.229 370.000,295.600 369.820,295.600 369.600 C 295.600 368.964,296.381 369.132,297.664 370.045 C 298.317 370.510,298.759 371.130,298.647 371.422 C 298.484 371.846,299.482 371.952,303.628 371.948 C 306.480 371.946,308.724 371.801,308.616 371.626 C 308.507 371.450,308.730 371.032,309.109 370.697 C 309.926 369.975,313.104 369.600,313.397 370.190 C 313.526 370.451,313.682 370.426,313.826 370.122 C 313.950 369.860,314.292 369.737,314.585 369.850 C 314.879 369.962,315.255 369.834,315.421 369.565 C 315.615 369.253,315.557 369.179,315.262 369.362 C 315.008 369.519,314.806 369.502,314.813 369.324 C 314.831 368.879,317.600 367.614,317.600 368.051 C 317.600 368.243,317.390 368.400,317.133 368.400 C 316.877 368.400,316.781 368.514,316.921 368.654 C 317.309 369.042,319.200 367.662,319.200 366.991 C 319.200 366.666,319.391 366.400,319.624 366.400 C 319.857 366.400,319.919 366.608,319.762 366.862 C 319.585 367.148,319.652 367.215,319.938 367.038 C 320.192 366.881,320.400 366.506,320.400 366.204 C 320.400 365.405,325.179 360.706,325.763 360.930 C 326.035 361.035,326.483 360.759,326.758 360.318 C 327.042 359.863,327.073 359.631,326.830 359.782 C 326.593 359.928,326.400 359.857,326.400 359.624 C 326.400 359.391,326.664 359.200,326.986 359.200 C 327.308 359.200,327.768 358.795,328.008 358.300 C 328.437 357.414,328.433 357.413,327.768 358.200 C 327.169 358.909,327.121 358.917,327.346 358.267 C 327.486 357.864,327.600 357.365,327.600 357.157 C 327.600 356.950,328.050 356.609,328.600 356.400 C 329.578 356.028,329.992 355.200,329.200 355.200 C 328.980 355.200,328.845 355.053,328.900 354.874 C 329.048 354.392,326.547 351.995,325.931 352.029 C 325.639 352.045,324.944 352.360,324.388 352.729 M322.422 358.757 C 321.577 360.414,317.976 363.722,316.537 364.165 C 316.062 364.311,315.573 364.694,315.450 365.015 C 315.326 365.337,314.884 365.600,314.466 365.600 C 314.049 365.600,313.250 365.960,312.691 366.400 C 311.930 366.999,311.035 367.208,309.137 367.230 C 307.742 367.247,305.981 367.484,305.225 367.758 C 304.110 368.161,303.552 368.152,302.275 367.712 C 300.426 367.075,297.748 366.939,295.125 367.349 C 293.486 367.605,293.196 367.540,292.819 366.835 C 292.170 365.622,289.820 365.079,287.100 365.512 C 285.306 365.798,284.800 365.766,284.800 365.366 C 284.800 364.688,285.964 364.349,288.077 364.412 C 300.972 364.798,310.908 363.216,318.200 359.616 C 320.840 358.313,323.049 357.236,323.108 357.223 C 323.168 357.210,322.859 357.901,322.422 358.757 " stroke="none" fill="#7b7786" fill-rule="evenodd"></path></g></svg>