<svg id="svg" version="1.1" xmlns="http://www.w3.org/2000/svg" xmlns:xlink="http://www.w3.org/1999/xlink" width="400" height="400" viewBox="0, 0, 400,400"><g id="svgg"><path id="path0" d="M176.600 57.982 C 176.160 58.164,175.350 58.797,174.800 59.388 L 173.800 60.464 173.600 116.412 C 173.439 161.573,173.300 172.460,172.880 172.880 C 172.460 173.300,161.569 173.439,116.388 173.600 L 60.415 173.800 59.108 175.107 L 57.800 176.415 57.679 199.107 C 57.546 223.932,57.576 224.309,59.722 225.618 C 60.972 226.380,62.193 226.397,116.246 226.399 L 171.492 226.400 172.546 227.229 L 173.600 228.058 173.600 283.242 C 173.600 330.030,173.686 338.633,174.168 339.786 C 175.303 342.501,174.571 342.431,200.589 342.309 L 223.982 342.200 225.091 341.091 L 226.200 339.982 226.400 284.005 C 226.590 230.955,226.637 227.991,227.314 227.314 C 227.991 226.637,230.955 226.590,284.005 226.400 L 339.982 226.200 341.091 225.091 L 342.200 223.982 342.309 200.589 C 342.431 174.571,342.501 175.303,339.786 174.168 C 338.633 173.686,330.030 173.600,283.242 173.600 L 228.058 173.600 227.229 172.546 L 226.400 171.492 226.400 116.326 C 226.400 55.158,226.588 59.339,223.786 58.168 C 222.247 57.525,178.126 57.351,176.600 57.982 M216.900 67.665 C 217.559 68.441,217.600 71.763,217.606 124.944 C 217.609 155.995,217.752 181.620,217.923 181.889 C 218.160 182.263,223.195 182.405,239.153 182.489 L 260.071 182.600 260.836 183.544 C 261.958 184.931,261.853 187.383,260.618 188.618 L 259.636 189.600 236.062 189.600 C 213.448 189.600,212.450 189.569,211.544 188.835 L 210.600 188.071 210.495 128.735 C 210.418 85.819,210.513 69.101,210.835 68.320 C 211.655 66.333,215.423 65.926,216.900 67.665 M312.836 183.544 C 313.958 184.931,313.853 187.383,312.618 188.618 L 311.636 189.600 290.107 189.600 C 266.339 189.600,267.130 189.685,266.642 187.082 C 265.761 182.390,265.546 182.431,290.536 182.522 L 312.071 182.600 312.836 183.544 M332.836 183.544 C 333.958 184.931,333.852 187.384,332.618 188.618 C 331.397 189.839,321.355 190.144,319.735 189.010 C 318.019 187.808,318.271 183.790,320.121 182.863 C 321.984 181.930,331.963 182.465,332.836 183.544 " stroke="none" fill="#64bc94" fill-rule="evenodd"></path><path id="path1" d="M171.783 45.548 C 170.088 45.725,168.980 46.099,168.076 46.800 C 167.367 47.350,166.295 48.183,165.693 48.652 C 165.092 49.120,163.880 50.548,163.000 51.826 L 161.400 54.149 161.285 107.674 L 161.170 161.200 110.085 161.225 C 55.089 161.251,54.015 161.281,52.072 162.809 C 51.380 163.354,50.315 164.182,49.707 164.649 C 49.098 165.116,47.880 166.544,47.000 167.823 L 45.400 170.149 45.400 200.030 L 45.400 229.910 46.700 231.721 C 47.415 232.716,48.000 233.695,48.000 233.896 C 48.000 234.303,49.705 236.000,50.114 236.000 C 50.258 236.000,51.206 236.585,52.221 237.300 L 54.065 238.600 107.619 238.710 L 161.172 238.820 161.286 292.365 L 161.400 345.911 162.700 347.721 C 163.415 348.716,164.000 349.695,164.000 349.896 C 164.000 350.303,165.705 352.000,166.114 352.000 C 166.258 352.000,167.207 352.585,168.221 353.300 L 170.065 354.600 200.150 354.600 C 227.950 354.600,230.310 354.548,231.218 353.912 C 234.771 351.425,235.437 350.883,235.803 350.183 C 236.028 349.752,236.750 348.603,237.406 347.629 L 238.600 345.859 238.710 292.340 L 238.820 238.822 292.528 238.711 C 342.558 238.608,346.303 238.553,347.218 237.912 C 350.773 235.423,351.437 234.883,351.803 234.183 C 352.028 233.752,352.750 232.603,353.406 231.629 L 354.600 229.858 354.600 199.974 L 354.600 170.090 353.300 168.279 C 352.585 167.284,352.000 166.305,352.000 166.104 C 352.000 165.616,350.439 164.265,349.200 163.682 C 348.650 163.423,347.692 162.804,347.071 162.306 L 345.942 161.400 292.381 161.285 L 238.820 161.170 238.710 107.630 L 238.600 54.089 237.300 52.279 C 236.585 51.284,236.000 50.305,236.000 50.104 C 236.000 49.616,234.439 48.265,233.200 47.682 C 232.650 47.423,231.692 46.804,231.071 46.306 L 229.942 45.400 202.071 45.348 C 186.742 45.319,173.112 45.409,171.783 45.548 M226.494 57.167 L 227.800 58.334 228.000 114.599 C 228.196 169.714,228.216 170.876,228.976 171.432 C 229.638 171.916,237.990 172.000,285.516 172.000 L 341.280 172.000 342.640 173.360 L 344.000 174.720 344.000 199.954 L 344.000 225.187 342.833 226.494 L 341.666 227.800 285.453 228.000 C 240.075 228.161,229.140 228.300,228.720 228.720 C 228.300 229.140,228.161 240.075,228.000 285.453 L 227.800 341.666 226.494 342.833 L 225.187 344.000 199.954 344.000 L 174.720 344.000 173.360 342.640 L 172.000 341.280 172.000 285.516 C 172.000 237.990,171.916 229.638,171.432 228.976 C 170.876 228.216,169.714 228.196,114.599 228.000 L 58.334 227.800 57.158 226.484 L 55.983 225.168 56.091 199.793 L 56.200 174.418 57.309 173.309 L 58.418 172.200 114.589 172.000 C 159.933 171.839,170.860 171.700,171.280 171.280 C 171.700 170.860,171.839 159.939,172.000 114.622 C 172.197 59.190,172.210 58.473,173.000 57.595 C 174.367 56.075,174.778 56.051,200.294 56.025 L 225.187 56.000 226.494 57.167 M212.749 69.461 C 211.784 70.624,211.947 186.118,212.914 187.086 C 214.073 188.244,258.183 188.185,259.032 187.024 C 259.688 186.126,259.706 185.986,259.252 185.271 C 258.570 184.195,255.371 184.019,236.380 184.010 C 221.820 184.002,216.840 183.880,216.480 183.520 C 216.111 183.151,216.000 170.041,216.000 126.946 C 216.000 91.467,215.857 70.475,215.610 69.826 C 215.152 68.622,213.609 68.425,212.749 69.461 M270.800 184.284 C 268.589 184.710,267.949 186.896,269.826 187.610 C 271.153 188.114,308.796 188.134,310.119 187.631 C 311.734 187.017,311.933 185.253,310.469 184.532 C 309.764 184.185,272.522 183.952,270.800 184.284 M322.800 184.268 C 320.583 184.731,319.952 186.897,321.826 187.610 C 325.673 189.073,332.183 187.584,331.357 185.431 C 330.964 184.408,325.609 183.680,322.800 184.268 " stroke="none" fill="#1c242c" fill-rule="evenodd"></path><path id="path2" d="M174.600 56.378 C 171.994 57.445,172.222 52.331,172.000 114.622 C 171.839 159.939,171.700 170.860,171.280 171.280 C 170.860 171.700,159.933 171.839,114.589 172.000 L 58.418 172.200 57.309 173.309 L 56.200 174.418 56.091 199.793 L 55.983 225.168 57.158 226.484 L 58.334 227.800 114.599 228.000 C 169.714 228.196,170.876 228.216,171.432 228.976 C 171.916 229.638,172.000 237.990,172.000 285.516 L 172.000 341.280 173.360 342.640 L 174.720 344.000 199.954 344.000 L 225.187 344.000 226.494 342.833 L 227.800 341.666 228.000 285.453 C 228.161 240.075,228.300 229.140,228.720 228.720 C 229.140 228.300,240.075 228.161,285.453 228.000 L 341.666 227.800 342.833 226.494 L 344.000 225.187 344.000 199.954 L 344.000 174.720 342.640 173.360 L 341.280 172.000 285.516 172.000 C 237.990 172.000,229.638 171.916,228.976 171.432 C 228.216 170.876,228.196 169.714,228.000 114.599 L 227.800 58.334 226.494 57.167 L 225.187 56.000 200.294 56.025 C 186.602 56.039,175.040 56.198,174.600 56.378 M223.786 58.168 C 226.588 59.339,226.400 55.158,226.400 116.326 L 226.400 171.492 227.229 172.546 L 228.058 173.600 283.242 173.600 C 330.030 173.600,338.633 173.686,339.786 174.168 C 342.501 175.303,342.431 174.571,342.309 200.589 L 342.200 223.982 341.091 225.091 L 339.982 226.200 284.005 226.400 C 230.955 226.590,227.991 226.637,227.314 227.314 C 226.637 227.991,226.590 230.955,226.400 284.005 L 226.200 339.982 225.091 341.091 L 223.982 342.200 200.589 342.309 C 174.571 342.431,175.303 342.501,174.168 339.786 C 173.686 338.633,173.600 330.030,173.600 283.242 L 173.600 228.058 172.546 227.229 L 171.492 226.400 116.246 226.399 C 62.193 226.397,60.972 226.380,59.722 225.618 C 57.576 224.309,57.546 223.932,57.679 199.107 L 57.800 176.415 59.108 175.107 L 60.415 173.800 116.388 173.600 C 161.569 173.439,172.460 173.300,172.880 172.880 C 173.300 172.460,173.439 161.573,173.600 116.412 L 173.800 60.464 174.800 59.388 C 175.350 58.797,176.160 58.164,176.600 57.982 C 178.126 57.351,222.247 57.525,223.786 58.168 M212.340 66.839 C 210.324 67.602,210.383 65.640,210.495 128.735 L 210.600 188.071 211.544 188.835 C 212.450 189.569,213.448 189.600,236.062 189.600 L 259.636 189.600 260.618 188.618 C 261.853 187.383,261.958 184.931,260.836 183.544 L 260.071 182.600 239.153 182.489 C 223.195 182.405,218.160 182.263,217.923 181.889 C 217.752 181.620,217.609 155.995,217.606 124.944 C 217.600 71.763,217.559 68.441,216.900 67.665 C 216.068 66.685,213.821 66.278,212.340 66.839 M215.610 69.826 C 215.857 70.475,216.000 91.467,216.000 126.946 C 216.000 170.041,216.111 183.151,216.480 183.520 C 216.840 183.880,221.820 184.002,236.380 184.010 C 255.371 184.019,258.570 184.195,259.252 185.271 C 259.706 185.986,259.688 186.126,259.032 187.024 C 258.183 188.185,214.073 188.244,212.914 187.086 C 211.947 186.118,211.784 70.624,212.749 69.461 C 213.609 68.425,215.152 68.622,215.610 69.826 M268.121 182.873 C 266.272 183.778,266.019 187.807,267.735 189.010 C 268.453 189.512,271.776 189.600,290.107 189.600 L 311.636 189.600 312.618 188.618 C 313.853 187.383,313.958 184.931,312.836 183.544 L 312.071 182.600 290.536 182.522 C 275.834 182.468,268.721 182.580,268.121 182.873 M320.121 182.863 C 318.271 183.790,318.019 187.808,319.735 189.010 C 321.355 190.144,331.397 189.839,332.618 188.618 C 333.852 187.384,333.958 184.931,332.836 183.544 C 331.963 182.465,321.984 181.930,320.121 182.863 M310.469 184.532 C 311.933 185.253,311.734 187.017,310.119 187.631 C 308.796 188.134,271.153 188.114,269.826 187.610 C 267.949 186.896,268.589 184.710,270.800 184.284 C 272.522 183.952,309.764 184.185,310.469 184.532 M330.469 184.595 C 331.942 185.182,331.730 187.018,330.119 187.631 C 325.797 189.274,318.662 187.054,321.300 184.887 C 322.316 184.053,328.606 183.852,330.469 184.595 " stroke="none" fill="#5cac84" fill-rule="evenodd"></path><path id="path3" d="" stroke="none" fill="#40c090" fill-rule="evenodd"></path><path id="path4" d="" stroke="none" fill="#40c090" fill-rule="evenodd"></path><path id="path5" d="" stroke="none" fill="#40c090" fill-rule="evenodd"></path><path id="path6" d="" stroke="none" fill="#40c090" fill-rule="evenodd"></path><path id="path7" d="" stroke="none" fill="#40c090" fill-rule="evenodd"></path><path id="path8" d="" stroke="none" fill="#40c090" fill-rule="evenodd"></path></g></svg>