<svg id="svg" version="1.1" xmlns="http://www.w3.org/2000/svg" xmlns:xlink="http://www.w3.org/1999/xlink" width="400" height="400" viewBox="0, 0, 400,400"><g id="svgg"><path id="path0" d="M161.000 14.293 C 159.384 14.527,158.400 15.489,158.400 16.834 L 158.400 17.945 152.100 18.072 C 145.021 18.216,143.764 18.572,142.828 20.700 L 142.256 22.000 138.315 22.000 C 135.182 22.000,134.328 22.123,134.145 22.600 C 134.018 22.930,133.695 23.200,133.427 23.200 C 132.817 23.200,131.200 24.888,131.200 25.526 C 131.200 25.860,130.024 26.000,127.229 26.000 C 122.714 26.000,122.000 26.359,122.000 28.629 L 122.000 30.000 118.629 30.000 C 114.763 30.000,114.000 30.434,114.000 32.629 L 114.000 34.000 110.629 34.000 C 106.782 34.000,106.000 34.436,106.000 36.580 L 106.000 37.904 103.700 38.076 C 100.620 38.306,99.120 39.081,98.662 40.681 C 98.318 41.884,98.170 41.969,96.248 42.081 L 94.200 42.200 94.078 44.100 L 93.956 46.000 92.078 46.019 C 89.569 46.045,87.541 47.081,86.828 48.700 C 86.329 49.834,86.064 50.000,84.756 50.000 C 82.897 50.000,82.000 50.848,82.000 52.607 C 82.000 53.933,81.967 53.958,80.100 54.078 L 78.200 54.200 78.079 56.079 L 77.958 57.958 76.079 58.079 L 74.200 58.200 74.079 60.079 L 73.958 61.958 72.079 62.079 L 70.200 62.200 70.079 64.079 L 69.958 65.958 68.079 66.079 L 66.200 66.200 66.079 68.079 L 65.958 69.958 64.079 70.079 L 62.200 70.200 62.079 72.079 L 61.958 73.958 60.079 74.079 L 58.200 74.200 58.079 76.079 L 57.958 77.958 56.079 78.079 L 54.200 78.200 54.078 80.100 C 53.958 81.967,53.933 82.000,52.607 82.000 C 50.843 82.000,50.000 82.896,50.000 84.771 C 50.000 86.135,49.872 86.321,48.700 86.656 C 47.083 87.120,46.307 88.606,46.077 91.680 L 45.907 93.960 44.053 94.080 L 42.200 94.200 42.081 96.234 C 41.966 98.212,41.922 98.278,40.493 98.634 C 38.810 99.053,38.086 100.660,38.031 104.100 C 38.000 105.991,37.994 106.000,36.629 106.000 C 34.434 106.000,34.000 106.763,34.000 110.629 L 34.000 114.000 32.629 114.000 C 30.434 114.000,30.000 114.763,30.000 118.629 L 30.000 122.000 28.629 122.000 C 26.359 122.000,26.000 122.714,26.000 127.229 C 26.000 130.260,25.874 131.200,25.470 131.200 C 24.847 131.200,23.200 132.857,23.200 133.483 C 23.200 133.720,22.930 134.018,22.600 134.145 C 22.123 134.328,22.000 135.182,22.000 138.317 L 22.000 142.259 20.500 142.629 C 18.487 143.127,18.074 144.777,18.032 152.500 L 18.000 158.400 16.862 158.400 C 14.013 158.400,14.200 155.479,14.200 200.000 C 14.200 244.463,14.019 241.600,16.828 241.600 L 17.931 241.600 18.066 248.100 C 18.219 255.496,18.572 256.734,20.700 257.344 L 22.000 257.716 22.000 261.670 C 22.000 264.817,22.123 265.672,22.600 265.855 C 22.930 265.982,23.200 266.305,23.200 266.573 C 23.200 267.165,24.880 268.800,25.489 268.800 C 25.770 268.800,25.976 270.299,26.064 272.968 C 26.218 277.698,26.169 277.591,28.367 277.886 L 30.000 278.105 30.000 281.424 C 30.000 285.232,30.441 286.000,32.629 286.000 L 34.000 286.000 34.000 289.371 C 34.000 293.237,34.434 294.000,36.629 294.000 C 37.994 294.000,38.000 294.009,38.031 295.900 C 38.087 299.354,38.809 300.947,40.511 301.371 C 41.929 301.723,42.000 301.820,42.000 303.391 C 42.000 305.436,42.536 306.000,44.480 306.000 L 46.000 306.000 46.019 307.900 C 46.045 310.429,47.076 312.457,48.700 313.172 C 49.834 313.671,50.000 313.936,50.000 315.244 C 50.000 317.103,50.848 318.000,52.607 318.000 C 53.933 318.000,53.958 318.033,54.078 319.900 L 54.200 321.800 56.079 321.921 L 57.958 322.042 58.079 323.921 L 58.200 325.800 60.079 325.921 L 61.958 326.042 62.079 327.921 L 62.200 329.800 64.079 329.921 L 65.958 330.042 66.079 331.921 L 66.200 333.800 68.079 333.921 L 69.958 334.042 70.079 335.921 L 70.200 337.800 72.079 337.921 L 73.958 338.042 74.079 339.921 L 74.200 341.800 76.079 341.921 L 77.958 342.042 78.079 343.921 L 78.200 345.800 80.100 345.922 C 81.967 346.042,82.000 346.067,82.000 347.393 C 82.000 349.152,82.897 350.000,84.756 350.000 C 86.064 350.000,86.329 350.166,86.828 351.300 C 87.543 352.924,89.571 353.955,92.100 353.981 L 94.000 354.000 94.000 355.520 C 94.000 357.467,94.564 358.000,96.622 358.000 C 98.154 358.000,98.313 358.102,98.656 359.300 C 99.120 360.920,100.607 361.693,103.700 361.924 L 106.000 362.096 106.000 363.420 C 106.000 365.564,106.782 366.000,110.629 366.000 L 114.000 366.000 114.000 367.371 C 114.000 369.559,114.768 370.000,118.576 370.000 L 121.895 370.000 122.114 371.633 C 122.409 373.831,122.302 373.782,127.032 373.936 C 129.999 374.033,131.200 374.215,131.200 374.567 C 131.200 375.161,132.876 376.800,133.483 376.800 C 133.720 376.800,134.018 377.070,134.145 377.400 C 134.329 377.880,135.202 378.000,138.500 378.000 L 142.625 378.000 143.065 379.168 C 143.887 381.345,146.093 382.000,152.605 382.000 L 158.259 382.000 158.629 383.500 C 159.245 385.993,158.278 385.936,200.000 385.936 C 241.722 385.936,240.755 385.993,241.371 383.500 L 241.741 382.000 247.571 381.968 C 255.223 381.926,256.874 381.510,257.371 379.500 L 257.741 378.000 261.683 378.000 C 264.818 378.000,265.672 377.877,265.855 377.400 C 265.982 377.070,266.305 376.800,266.573 376.800 C 267.165 376.800,268.800 375.120,268.800 374.511 C 268.800 374.230,270.299 374.024,272.968 373.936 C 277.698 373.782,277.591 373.831,277.886 371.633 L 278.105 370.000 281.424 370.000 C 285.232 370.000,286.000 369.559,286.000 367.371 L 286.000 366.000 289.371 366.000 C 293.237 366.000,294.000 365.566,294.000 363.371 C 294.000 362.026,294.032 362.000,295.700 361.990 C 299.603 361.969,301.600 360.931,301.600 358.924 C 301.600 358.102,301.790 358.000,303.320 358.000 C 305.425 358.000,306.000 357.478,306.000 355.568 L 306.000 354.096 308.300 353.924 C 311.393 353.693,312.880 352.920,313.344 351.300 C 313.679 350.128,313.865 350.000,315.229 350.000 C 317.104 350.000,318.000 349.157,318.000 347.393 C 318.000 346.067,318.033 346.042,319.900 345.922 L 321.800 345.800 321.921 343.921 L 322.042 342.042 323.921 341.921 L 325.800 341.800 325.921 339.921 L 326.042 338.042 327.921 337.921 L 329.800 337.800 329.921 335.921 L 330.042 334.042 331.921 333.921 L 333.800 333.800 333.921 331.921 L 334.042 330.042 335.921 329.921 L 337.800 329.800 337.921 327.921 L 338.042 326.042 339.921 325.921 L 341.800 325.800 341.921 323.921 L 342.042 322.042 343.921 321.921 L 345.800 321.800 345.922 319.900 C 346.042 318.033,346.067 318.000,347.393 318.000 C 349.157 318.000,350.000 317.104,350.000 315.229 C 350.000 313.865,350.128 313.679,351.300 313.344 C 352.920 312.880,353.693 311.393,353.924 308.300 L 354.096 306.000 355.568 306.000 C 357.466 306.000,358.000 305.424,358.000 303.378 C 358.000 301.846,358.102 301.687,359.300 301.344 C 360.920 300.880,361.693 299.393,361.924 296.300 L 362.096 294.000 363.420 294.000 C 365.564 294.000,366.000 293.218,366.000 289.371 L 366.000 286.000 367.371 286.000 C 369.559 286.000,370.000 285.232,370.000 281.424 L 370.000 278.105 371.633 277.886 C 373.831 277.591,373.782 277.698,373.936 272.968 C 374.033 270.001,374.215 268.800,374.567 268.800 C 375.161 268.800,376.800 267.124,376.800 266.517 C 376.800 266.280,377.070 265.982,377.400 265.855 C 377.877 265.672,378.000 264.818,378.000 261.685 L 378.000 257.744 379.300 257.172 C 381.428 256.236,381.784 254.979,381.928 247.900 C 382.053 241.680,382.066 241.600,382.951 241.600 C 386.007 241.600,385.965 242.173,385.965 200.000 C 385.965 157.841,386.006 158.400,382.958 158.400 C 382.081 158.400,382.067 158.310,381.934 151.900 C 381.781 144.504,381.428 143.266,379.300 142.656 L 378.000 142.284 378.000 138.330 C 378.000 135.183,377.877 134.328,377.400 134.145 C 377.070 134.018,376.800 133.695,376.800 133.427 C 376.800 132.817,375.112 131.200,374.474 131.200 C 374.140 131.200,374.000 130.024,374.000 127.229 C 374.000 122.714,373.641 122.000,371.371 122.000 L 370.000 122.000 370.000 118.629 C 370.000 114.763,369.566 114.000,367.371 114.000 L 366.000 114.000 366.000 110.629 C 366.000 106.763,365.566 106.000,363.371 106.000 C 362.026 106.000,362.000 105.968,361.990 104.300 C 361.969 100.397,360.931 98.400,358.924 98.400 C 358.102 98.400,358.000 98.210,358.000 96.680 C 358.000 94.564,357.478 94.000,355.520 94.000 L 354.000 94.000 353.969 92.100 C 353.913 88.646,353.191 87.053,351.489 86.629 C 350.101 86.284,350.000 86.157,350.000 84.758 C 350.000 82.897,349.153 82.000,347.393 82.000 C 346.067 82.000,346.042 81.967,345.922 80.100 L 345.800 78.200 343.921 78.079 L 342.042 77.958 341.921 76.079 L 341.800 74.200 339.921 74.079 L 338.042 73.958 337.921 72.079 L 337.800 70.200 335.921 70.079 L 334.042 69.958 333.921 68.079 L 333.800 66.200 331.921 66.079 L 330.042 65.958 329.921 64.079 L 329.800 62.200 327.921 62.079 L 326.042 61.958 325.921 60.079 L 325.800 58.200 323.921 58.079 L 322.042 57.958 321.921 56.079 L 321.800 54.200 319.900 54.078 C 318.033 53.958,318.000 53.933,318.000 52.607 C 318.000 50.847,317.103 50.000,315.242 50.000 C 313.843 50.000,313.716 49.899,313.371 48.511 C 312.947 46.809,311.354 46.087,307.900 46.031 L 306.000 46.000 306.000 44.480 C 306.000 42.522,305.436 42.000,303.320 42.000 C 301.790 42.000,301.600 41.898,301.600 41.076 C 301.600 39.069,299.603 38.031,295.700 38.010 C 294.032 38.000,294.000 37.974,294.000 36.629 C 294.000 34.434,293.237 34.000,289.371 34.000 L 286.000 34.000 286.000 32.629 C 286.000 30.441,285.232 30.000,281.424 30.000 L 278.105 30.000 277.886 28.367 C 277.591 26.169,277.698 26.218,272.968 26.064 C 270.001 25.967,268.800 25.785,268.800 25.433 C 268.800 24.839,267.124 23.200,266.517 23.200 C 266.280 23.200,265.982 22.930,265.855 22.600 C 265.672 22.122,264.810 22.000,261.613 22.000 C 257.688 22.000,257.600 21.980,257.600 21.076 C 257.600 18.585,255.750 18.023,247.500 18.010 C 241.606 18.000,241.600 17.999,241.600 17.076 C 241.600 15.614,240.694 14.748,238.776 14.378 C 237.019 14.039,163.315 13.959,161.000 14.293 M206.000 150.000 L 206.000 194.000 250.000 194.000 L 294.000 194.000 294.000 200.000 L 294.000 206.000 250.000 206.000 L 206.000 206.000 206.000 250.000 L 206.000 294.000 200.000 294.000 L 194.000 294.000 194.000 250.000 L 194.000 206.000 150.000 206.000 L 106.000 206.000 106.000 200.000 L 106.000 194.000 150.000 194.000 L 194.000 194.000 194.000 150.000 L 194.000 106.000 200.000 106.000 L 206.000 106.000 206.000 150.000 " stroke="none" fill="#040404" fill-rule="evenodd"></path><path id="path1" d="" stroke="none" fill="#080404" fill-rule="evenodd"></path><path id="path2" d="" stroke="none" fill="#080404" fill-rule="evenodd"></path><path id="path3" d="" stroke="none" fill="#080404" fill-rule="evenodd"></path><path id="path4" d="" stroke="none" fill="#080404" fill-rule="evenodd"></path></g></svg>