<svg id="svg" version="1.1" xmlns="http://www.w3.org/2000/svg" xmlns:xlink="http://www.w3.org/1999/xlink" width="400" height="400" viewBox="0, 0, 400,400"><g id="svgg"><path id="path0" d="M184.400 15.586 C 181.650 15.757,178.833 16.083,178.139 16.310 C 177.446 16.536,175.286 16.845,173.339 16.995 C 171.393 17.145,169.080 17.459,168.200 17.692 C 167.320 17.925,165.250 18.336,163.600 18.605 C 160.122 19.172,156.092 20.116,152.400 21.228 C 150.970 21.659,149.530 22.015,149.200 22.020 C 148.870 22.024,147.070 22.575,145.200 23.244 C 143.330 23.913,140.878 24.716,139.752 25.029 C 137.748 25.586,135.048 26.606,127.809 29.543 C 104.382 39.048,75.126 60.148,60.600 78.016 C 60.160 78.557,58.630 80.440,57.200 82.200 C 55.770 83.960,54.493 85.490,54.362 85.600 C 54.139 85.788,49.400 92.248,46.880 95.800 C 46.255 96.680,44.601 99.290,43.203 101.600 C 41.805 103.910,40.438 106.070,40.165 106.400 C 39.401 107.324,31.825 122.269,30.635 125.200 C 30.055 126.630,29.387 128.141,29.150 128.558 C 28.914 128.975,28.400 130.235,28.008 131.358 C 27.234 133.579,24.126 142.587,23.025 145.800 C 22.648 146.900,22.152 148.790,21.922 150.000 C 21.692 151.210,21.362 152.380,21.189 152.600 C 21.017 152.820,20.662 154.170,20.401 155.600 C 20.141 157.030,19.686 158.849,19.390 159.642 C 19.095 160.435,18.732 162.235,18.585 163.642 C 18.437 165.049,18.088 166.920,17.808 167.800 C 17.528 168.680,17.174 171.110,17.021 173.200 C 16.869 175.290,16.446 177.990,16.083 179.200 C 15.098 182.480,15.112 217.389,16.099 221.000 C 16.460 222.320,16.879 225.020,17.029 227.000 C 17.180 228.980,17.531 231.320,17.810 232.200 C 18.089 233.080,18.439 234.962,18.588 236.383 C 18.737 237.803,19.089 239.516,19.370 240.189 C 19.651 240.863,20.008 242.310,20.163 243.407 C 20.318 244.503,20.795 246.436,21.222 247.702 C 21.650 248.967,22.000 250.380,22.000 250.841 C 22.000 251.302,22.245 252.246,22.544 252.940 C 22.843 253.633,24.032 256.990,25.188 260.400 C 28.268 269.492,28.762 270.867,29.123 271.357 C 29.302 271.601,29.967 273.150,30.600 274.800 C 31.233 276.450,31.877 277.980,32.032 278.200 C 32.187 278.420,33.932 281.765,35.910 285.633 C 39.597 292.841,41.198 295.552,46.365 303.334 C 48.955 307.235,54.922 315.434,55.583 316.000 C 55.711 316.110,57.461 318.180,59.472 320.600 C 63.413 325.343,75.366 337.372,79.603 340.858 C 93.417 352.226,105.078 359.837,119.269 366.750 C 122.487 368.317,125.216 369.600,125.332 369.600 C 125.449 369.600,126.711 370.140,128.137 370.800 C 129.563 371.460,130.836 372.000,130.967 372.000 C 131.098 372.000,132.779 372.606,134.703 373.347 C 139.555 375.216,147.878 377.911,149.800 378.236 C 150.680 378.385,151.850 378.734,152.400 379.011 C 152.950 379.289,154.480 379.703,155.800 379.933 C 157.120 380.163,159.184 380.632,160.387 380.975 C 161.590 381.319,163.142 381.600,163.837 381.600 C 164.531 381.600,165.837 381.860,166.738 382.178 C 167.640 382.496,169.957 382.875,171.889 383.020 C 173.820 383.164,176.390 383.579,177.600 383.941 C 180.907 384.932,219.093 384.932,222.400 383.941 C 223.610 383.579,226.180 383.164,228.111 383.020 C 230.043 382.875,232.360 382.496,233.262 382.178 C 234.163 381.860,235.469 381.600,236.163 381.600 C 236.858 381.600,238.410 381.329,239.613 380.997 C 240.816 380.665,242.880 380.192,244.200 379.945 C 245.520 379.698,247.050 379.271,247.600 378.995 C 248.150 378.720,249.384 378.364,250.342 378.205 C 252.785 377.799,264.204 374.010,269.400 371.880 C 302.776 358.205,333.870 333.317,352.207 305.600 C 352.862 304.610,353.513 303.710,353.653 303.600 C 354.429 302.992,362.417 289.191,365.140 283.754 C 368.921 276.207,373.600 265.493,373.600 264.386 C 373.600 264.130,373.851 263.354,374.157 262.660 C 374.908 260.960,375.944 257.838,376.575 255.373 C 376.861 254.258,377.277 252.998,377.501 252.573 C 377.724 252.148,378.039 250.990,378.200 250.000 C 378.361 249.010,378.687 247.840,378.925 247.400 C 379.162 246.960,379.581 245.340,379.856 243.800 C 380.131 242.260,380.636 240.016,380.978 238.813 C 381.320 237.610,381.600 236.058,381.600 235.363 C 381.600 234.669,381.864 233.352,382.187 232.438 C 382.509 231.524,382.879 229.116,383.009 227.088 C 383.139 225.060,383.550 222.410,383.923 221.200 C 384.934 217.913,384.945 182.040,383.936 179.000 C 383.570 177.900,383.170 175.380,383.047 173.400 C 382.923 171.420,382.549 168.900,382.216 167.800 C 381.882 166.700,381.607 165.254,381.604 164.587 C 381.602 163.920,381.323 162.390,380.984 161.187 C 380.645 159.984,380.124 157.719,379.827 156.153 C 379.529 154.588,379.107 152.968,378.889 152.553 C 378.671 152.139,378.361 150.990,378.200 150.000 C 378.039 149.010,377.724 147.852,377.501 147.427 C 377.277 147.002,376.862 145.742,376.578 144.627 C 376.106 142.776,373.561 135.394,372.457 132.674 C 372.206 132.055,372.000 131.359,372.000 131.128 C 372.000 130.898,371.649 130.054,371.219 129.254 C 370.790 128.455,369.880 126.450,369.198 124.800 C 356.134 93.199,328.598 61.688,297.043 42.229 C 284.760 34.655,266.553 26.437,255.267 23.372 C 254.094 23.054,252.801 22.615,252.394 22.397 C 251.986 22.178,251.326 22.003,250.926 22.006 C 250.527 22.009,249.030 21.659,247.600 21.228 C 243.908 20.116,239.878 19.172,236.400 18.605 C 234.750 18.336,232.680 17.926,231.800 17.695 C 230.920 17.463,228.670 17.152,226.800 17.003 C 224.930 16.854,222.410 16.470,221.200 16.148 C 218.610 15.460,192.755 15.065,184.400 15.586 M220.400 37.587 C 253.997 42.175,282.870 55.233,307.600 77.024 C 387.538 147.460,380.705 272.641,293.549 334.436 C 252.963 363.212,199.170 371.369,150.400 356.144 C 96.544 339.330,53.714 293.306,41.013 238.600 C 21.678 155.323,66.799 72.931,146.887 45.266 C 169.784 37.357,197.506 34.461,220.400 37.587 " stroke="none" fill="#434b53" fill-rule="evenodd"></path><path id="path1" d="M196.584 132.947 C 191.187 135.460,191.200 135.382,191.200 165.003 L 191.200 189.461 190.274 190.330 L 189.348 191.200 164.947 191.200 C 144.246 191.200,140.234 191.292,138.492 191.810 C 130.790 194.097,129.872 203.903,137.000 207.739 C 138.578 208.588,138.949 208.603,164.136 208.800 L 189.671 209.000 190.436 209.944 C 191.169 210.851,191.200 211.862,191.200 235.172 C 191.200 255.767,191.293 259.767,191.810 261.508 C 194.023 268.959,203.598 270.248,207.356 263.600 L 208.600 261.400 208.800 235.864 L 209.000 210.329 209.944 209.564 C 210.851 208.830,211.871 208.800,235.782 208.800 L 260.676 208.800 263.238 207.500 C 269.518 204.314,269.522 195.585,263.246 192.503 L 261.000 191.400 235.714 191.200 C 212.132 191.013,210.380 190.952,209.714 190.286 C 209.048 189.620,208.987 187.860,208.800 164.086 L 208.600 138.600 207.436 136.499 C 205.283 132.614,200.594 131.079,196.584 132.947 " stroke="none" fill="#3cdc9c" fill-rule="evenodd"></path><path id="path2" d="M184.600 39.601 C 95.493 48.416,31.206 126.618,39.756 215.800 C 42.357 242.926,52.244 270.042,67.531 291.974 C 136.138 390.404,283.903 382.440,341.442 277.212 C 348.276 264.714,354.204 248.906,357.162 235.293 C 380.477 127.985,293.078 28.871,184.600 39.601 M204.862 132.270 C 209.908 135.011,210.000 135.592,210.000 164.743 C 210.000 183.248,210.113 188.796,210.500 189.307 C 210.954 189.906,213.335 189.978,236.200 190.084 L 261.400 190.200 263.690 191.324 C 271.812 195.312,270.600 206.772,261.775 209.427 C 260.215 209.897,255.501 210.000,235.565 210.000 C 214.000 210.000,211.186 210.071,210.629 210.629 C 210.071 211.186,210.000 214.000,210.000 235.565 C 210.000 255.501,209.897 260.215,209.427 261.775 C 206.772 270.600,195.312 271.812,191.324 263.690 L 190.200 261.400 190.078 236.200 C 190.001 220.178,189.812 210.854,189.559 210.600 C 189.306 210.346,179.920 210.127,163.851 210.000 L 138.542 209.800 136.171 208.589 C 129.015 204.932,129.237 195.140,136.564 191.274 L 138.600 190.200 163.871 190.076 C 183.114 189.981,189.239 189.835,189.546 189.465 C 189.806 189.152,189.995 179.981,190.075 163.789 L 190.200 138.600 191.263 136.600 C 194.134 131.197,199.652 129.440,204.862 132.270 " stroke="none" fill="#fbfbfb" fill-rule="evenodd"></path><path id="path3" d="M187.000 36.789 C 77.350 45.740,7.441 158.464,48.073 260.800 C 78.141 336.527,158.075 377.769,238.745 359.175 C 299.715 345.123,348.623 293.579,360.555 230.800 C 380.673 124.953,293.992 28.055,187.000 36.789 M218.000 38.590 C 311.437 49.830,375.836 135.869,359.772 228.000 C 343.547 321.054,252.066 380.518,160.400 357.597 C 60.406 332.593,8.917 221.151,54.412 128.200 C 80.027 75.864,129.043 43.199,190.000 37.844 C 194.187 37.476,212.880 37.974,218.000 38.590 " stroke="none" fill="#909498" fill-rule="evenodd"></path><path id="path4" d="M190.000 37.844 C 89.101 46.709,21.721 134.708,41.030 232.400 C 63.154 344.336,193.101 398.745,288.758 336.125 C 388.775 270.651,385.845 123.031,283.292 60.705 C 256.473 44.407,219.216 35.277,190.000 37.844 M213.531 39.423 C 306.919 47.655,374.003 133.484,358.964 225.493 C 357.392 235.108,356.513 238.875,353.714 248.000 C 333.100 315.186,270.490 361.346,200.000 361.325 C 123.771 361.303,57.292 307.319,42.464 233.400 C 40.814 225.177,40.392 222.429,39.756 215.800 C 30.126 115.354,113.615 30.616,213.531 39.423 M196.637 131.580 C 194.193 132.564,192.632 134.022,191.263 136.600 L 190.200 138.600 190.075 163.789 C 189.995 179.981,189.806 189.152,189.546 189.465 C 189.239 189.835,183.114 189.981,163.871 190.076 L 138.600 190.200 136.564 191.274 C 129.237 195.140,129.015 204.932,136.171 208.589 L 138.542 209.800 163.851 210.000 C 179.920 210.127,189.306 210.346,189.559 210.600 C 189.812 210.854,190.001 220.178,190.078 236.200 L 190.200 261.400 191.324 263.690 C 195.312 271.812,206.772 270.600,209.427 261.775 C 209.897 260.215,210.000 255.501,210.000 235.565 C 210.000 214.000,210.071 211.186,210.629 210.629 C 211.186 210.071,214.000 210.000,235.565 210.000 C 255.501 210.000,260.215 209.897,261.775 209.427 C 270.600 206.772,271.812 195.312,263.690 191.324 L 261.400 190.200 236.200 190.084 C 213.335 189.978,210.954 189.906,210.500 189.307 C 210.113 188.796,210.000 183.248,210.000 164.743 C 210.000 149.390,209.848 140.131,209.575 138.859 C 208.288 132.856,202.105 129.377,196.637 131.580 M203.872 133.199 C 205.867 134.196,206.468 134.753,207.436 136.499 L 208.600 138.600 208.800 164.086 C 208.987 187.860,209.048 189.620,209.714 190.286 C 210.380 190.952,212.132 191.013,235.714 191.200 L 261.000 191.400 263.246 192.503 C 269.522 195.585,269.518 204.314,263.238 207.500 L 260.676 208.800 235.782 208.800 C 211.871 208.800,210.851 208.830,209.944 209.564 L 209.000 210.329 208.800 235.864 L 208.600 261.400 207.356 263.600 C 203.598 270.248,194.023 268.959,191.810 261.508 C 191.293 259.767,191.200 255.767,191.200 235.172 C 191.200 211.862,191.169 210.851,190.436 209.944 L 189.671 209.000 164.136 208.800 C 138.949 208.603,138.578 208.588,137.000 207.739 C 129.872 203.903,130.790 194.097,138.492 191.810 C 140.234 191.292,144.246 191.200,164.947 191.200 L 189.348 191.200 190.274 190.330 L 191.200 189.461 191.200 165.003 C 191.200 144.252,191.292 140.234,191.810 138.492 C 193.437 133.013,198.795 130.662,203.872 133.199 " stroke="none" fill="#b0b9c0" fill-rule="evenodd"></path></g></svg>