<svg id="svg" version="1.1" xmlns="http://www.w3.org/2000/svg" xmlns:xlink="http://www.w3.org/1999/xlink" width="400" height="400" viewBox="0, 0, 400,400"><g id="svgg"><path id="path0" d="M253.860 56.173 C 253.220 56.864,252.442 57.183,251.179 57.273 C 249.685 57.380,249.380 57.544,249.272 58.300 C 249.180 58.951,248.876 59.200,248.172 59.200 C 247.402 59.200,247.200 59.408,247.200 60.200 C 247.200 60.920,246.985 61.200,246.431 61.200 C 246.008 61.200,245.063 61.741,244.331 62.403 C 243.599 63.065,242.595 63.959,242.100 64.389 C 241.605 64.819,241.200 65.628,241.200 66.186 C 241.200 67.001,241.004 67.200,240.200 67.200 C 239.408 67.200,239.200 67.402,239.200 68.172 C 239.200 68.876,238.951 69.180,238.300 69.272 C 237.544 69.380,237.380 69.685,237.273 71.179 C 237.183 72.442,236.864 73.220,236.173 73.860 L 235.200 74.762 235.200 86.000 L 235.200 97.238 236.173 98.140 C 236.864 98.780,237.183 99.558,237.273 100.821 C 237.380 102.315,237.544 102.620,238.300 102.728 C 238.951 102.820,239.200 103.124,239.200 103.828 C 239.200 104.598,239.408 104.800,240.200 104.800 C 240.914 104.800,241.200 105.016,241.200 105.557 C 241.200 106.540,245.460 110.800,246.443 110.800 C 246.984 110.800,247.200 111.086,247.200 111.800 C 247.200 112.592,247.402 112.800,248.172 112.800 C 248.876 112.800,249.180 113.049,249.272 113.700 C 249.381 114.468,249.679 114.618,251.304 114.722 C 252.682 114.810,253.478 115.114,254.186 115.822 L 255.164 116.800 266.153 116.800 L 277.142 116.800 277.909 115.824 C 278.502 115.072,279.124 114.820,280.638 114.724 C 282.323 114.618,282.618 114.473,282.728 113.700 C 282.827 113.000,283.117 112.800,284.028 112.800 C 285.011 112.800,285.200 112.639,285.200 111.800 C 285.200 111.013,285.403 110.800,286.153 110.800 C 286.782 110.800,287.181 110.517,287.324 109.970 C 287.443 109.514,287.897 109.047,288.333 108.933 C 288.769 108.819,289.219 108.369,289.333 107.933 C 289.447 107.497,289.914 107.043,290.370 106.924 C 290.917 106.781,291.200 106.382,291.200 105.753 C 291.200 105.003,291.413 104.800,292.200 104.800 C 292.987 104.800,293.200 104.597,293.200 103.847 C 293.200 103.238,293.482 102.820,293.981 102.689 C 294.572 102.534,294.825 102.002,295.026 100.490 C 295.195 99.212,295.634 98.124,296.245 97.465 L 297.200 96.435 297.200 86.155 C 297.200 75.978,297.191 75.863,296.259 74.638 C 295.741 73.957,295.187 72.524,295.027 71.454 C 294.817 70.042,294.533 69.455,293.991 69.314 C 293.581 69.206,293.190 68.732,293.122 68.259 C 293.046 67.721,292.663 67.352,292.100 67.272 C 291.463 67.182,291.200 66.874,291.200 66.219 C 291.200 65.630,290.909 65.217,290.402 65.085 C 289.963 64.970,289.478 64.548,289.325 64.148 C 288.813 62.815,287.080 61.200,286.162 61.200 C 285.527 61.200,285.217 60.931,285.128 60.300 C 285.037 59.662,284.687 59.364,283.925 59.276 C 283.172 59.189,282.812 58.889,282.725 58.276 C 282.621 57.548,282.299 57.379,280.821 57.273 C 279.558 57.183,278.780 56.864,278.140 56.173 L 277.238 55.200 266.000 55.200 L 254.762 55.200 253.860 56.173 M273.200 67.800 C 273.200 68.733,273.333 68.800,275.200 68.800 C 277.067 68.800,277.200 68.867,277.200 69.800 C 277.200 70.600,277.400 70.800,278.200 70.800 C 279.000 70.800,279.200 71.000,279.200 71.800 C 279.200 72.600,279.400 72.800,280.200 72.800 C 281.000 72.800,281.200 73.000,281.200 73.800 C 281.200 74.600,281.400 74.800,282.200 74.800 C 283.133 74.800,283.200 74.933,283.200 76.800 C 283.200 78.667,283.267 78.800,284.200 78.800 L 285.200 78.800 285.200 86.000 L 285.200 93.200 284.200 93.200 C 283.267 93.200,283.200 93.333,283.200 95.200 C 283.200 97.067,283.133 97.200,282.200 97.200 C 281.400 97.200,281.200 97.400,281.200 98.200 C 281.200 99.000,281.000 99.200,280.200 99.200 C 279.400 99.200,279.200 99.400,279.200 100.200 C 279.200 101.000,279.000 101.200,278.200 101.200 C 277.400 101.200,277.200 101.400,277.200 102.200 C 277.200 103.133,277.067 103.200,275.200 103.200 C 273.333 103.200,273.200 103.267,273.200 104.200 L 273.200 105.200 266.000 105.200 L 258.800 105.200 258.800 104.200 C 258.800 103.284,258.651 103.200,257.028 103.200 C 255.495 103.200,255.238 103.079,255.128 102.300 C 255.036 101.656,254.688 101.364,253.900 101.273 C 253.036 101.174,252.800 100.938,252.800 100.173 C 252.800 99.402,252.593 99.200,251.800 99.200 C 251.000 99.200,250.800 99.000,250.800 98.200 C 250.800 97.400,250.600 97.200,249.800 97.200 C 248.867 97.200,248.800 97.067,248.800 95.200 C 248.800 93.333,248.733 93.200,247.800 93.200 L 246.800 93.200 246.800 86.000 L 246.800 78.800 247.800 78.800 C 248.733 78.800,248.800 78.667,248.800 76.800 C 248.800 74.933,248.867 74.800,249.800 74.800 C 250.600 74.800,250.800 74.600,250.800 73.800 C 250.800 73.000,251.000 72.800,251.800 72.800 C 252.593 72.800,252.800 72.598,252.800 71.827 C 252.800 71.062,253.036 70.826,253.900 70.727 C 254.688 70.636,255.036 70.344,255.128 69.700 C 255.238 68.921,255.495 68.800,257.028 68.800 C 258.651 68.800,258.800 68.716,258.800 67.800 L 258.800 66.800 266.000 66.800 L 273.200 66.800 273.200 67.800 M161.467 99.467 C 161.320 99.613,161.200 100.063,161.200 100.467 C 161.200 101.090,160.866 101.200,158.981 101.200 C 157.128 101.200,156.609 101.365,155.835 102.200 C 155.103 102.990,154.518 103.200,153.054 103.200 C 151.343 103.200,151.200 103.277,151.200 104.200 C 151.200 105.178,151.133 105.200,148.200 105.200 C 145.281 105.200,145.200 105.227,145.200 106.182 C 145.200 107.125,145.081 107.170,142.300 107.282 C 139.639 107.390,139.389 107.474,139.272 108.300 C 139.157 109.108,138.921 109.200,136.953 109.200 C 135.130 109.200,134.606 109.368,133.835 110.200 C 133.103 110.990,132.518 111.200,131.054 111.200 C 129.343 111.200,129.200 111.277,129.200 112.200 C 129.200 113.178,129.133 113.200,126.200 113.200 C 123.267 113.200,123.200 113.222,123.200 114.200 C 123.200 115.154,123.091 115.200,120.829 115.200 C 118.551 115.200,117.200 115.806,117.200 116.829 C 117.200 117.033,116.750 117.200,116.200 117.200 C 115.400 117.200,115.200 117.400,115.200 118.200 C 115.200 118.920,114.985 119.200,114.431 119.200 C 113.435 119.200,111.200 121.435,111.200 122.431 C 111.200 122.985,110.920 123.200,110.200 123.200 C 109.428 123.200,109.200 123.406,109.200 124.105 C 109.200 124.660,108.852 125.163,108.300 125.405 C 107.408 125.796,107.399 125.886,107.287 135.200 C 107.163 145.522,107.233 146.229,108.401 146.600 C 108.911 146.762,109.200 147.206,109.200 147.827 C 109.200 148.598,109.407 148.800,110.200 148.800 C 110.920 148.800,111.200 149.015,111.200 149.569 C 111.200 149.992,111.754 150.892,112.431 151.569 C 113.108 152.246,114.008 152.800,114.431 152.800 C 114.985 152.800,115.200 153.080,115.200 153.800 C 115.200 154.572,115.406 154.800,116.105 154.800 C 116.660 154.800,117.163 155.148,117.405 155.700 L 117.800 156.600 128.200 156.600 L 138.600 156.600 138.728 155.700 C 138.843 154.892,139.079 154.800,141.047 154.800 C 142.870 154.800,143.394 154.632,144.165 153.800 C 144.897 153.010,145.482 152.800,146.946 152.800 C 148.657 152.800,148.800 152.723,148.800 151.800 C 148.800 150.822,148.867 150.800,151.800 150.800 C 154.719 150.800,154.800 150.773,154.800 149.818 C 154.800 148.875,154.919 148.830,157.700 148.718 C 160.361 148.610,160.611 148.526,160.728 147.700 C 160.843 146.892,161.079 146.800,163.047 146.800 C 164.870 146.800,165.394 146.632,166.165 145.800 C 166.897 145.010,167.482 144.800,168.946 144.800 C 170.657 144.800,170.800 144.723,170.800 143.800 C 170.800 142.903,170.962 142.800,172.371 142.800 C 173.570 142.800,174.128 143.037,174.729 143.800 C 175.436 144.699,175.802 144.800,178.358 144.800 C 181.123 144.800,181.200 144.827,181.200 145.800 C 181.200 146.778,181.267 146.800,184.200 146.800 C 187.111 146.800,187.200 146.829,187.200 147.773 C 187.200 148.528,187.447 148.784,188.300 148.913 L 189.400 149.080 188.300 149.140 C 187.255 149.197,187.200 149.299,187.200 151.200 C 187.200 153.067,187.133 153.200,186.200 153.200 C 185.267 153.200,185.200 153.333,185.200 155.200 C 185.200 157.067,185.133 157.200,184.200 157.200 C 183.267 157.200,183.200 157.333,183.200 159.200 C 183.200 161.067,183.133 161.200,182.200 161.200 C 181.267 161.200,181.200 161.333,181.200 163.200 C 181.200 165.067,181.133 165.200,180.200 165.200 C 179.267 165.200,179.200 165.333,179.200 167.200 C 179.200 169.067,179.133 169.200,178.200 169.200 C 177.267 169.200,177.200 169.333,177.200 171.200 C 177.200 173.067,177.133 173.200,176.200 173.200 C 175.328 173.200,175.200 173.375,175.200 174.571 C 175.200 175.557,174.919 176.163,174.200 176.729 C 173.650 177.161,173.200 177.886,173.200 178.339 C 173.200 178.793,172.750 179.614,172.200 180.164 C 171.650 180.714,171.200 181.556,171.200 182.036 C 171.200 182.516,170.750 183.325,170.200 183.835 C 169.590 184.400,169.200 185.201,169.200 185.886 C 169.200 186.668,168.926 187.130,168.300 187.405 C 167.608 187.709,167.372 188.188,167.278 189.475 C 167.178 190.849,166.999 191.173,166.278 191.275 C 165.538 191.380,165.381 191.694,165.279 193.275 C 165.177 194.856,165.021 195.169,164.279 195.275 C 163.536 195.381,163.381 195.693,163.278 197.300 C 163.168 199.015,163.061 199.200,162.178 199.200 C 161.429 199.200,161.200 199.412,161.200 200.105 C 161.200 200.660,160.852 201.163,160.300 201.405 C 159.605 201.710,159.372 202.187,159.277 203.500 C 159.168 205.002,159.040 205.200,158.177 205.200 C 157.402 205.200,157.200 205.406,157.200 206.200 C 157.200 207.000,157.000 207.200,156.200 207.200 C 155.405 207.200,155.200 207.401,155.200 208.182 C 155.200 208.722,154.750 209.614,154.200 210.164 C 153.650 210.714,153.200 211.622,153.200 212.182 C 153.200 213.001,153.005 213.200,152.200 213.200 C 151.400 213.200,151.200 213.400,151.200 214.200 C 151.200 215.000,151.000 215.200,150.200 215.200 C 149.267 215.200,149.200 215.333,149.200 217.200 C 149.200 219.067,149.133 219.200,148.200 219.200 C 147.400 219.200,147.200 219.400,147.200 220.200 C 147.200 221.000,147.000 221.200,146.200 221.200 C 145.408 221.200,145.200 221.402,145.200 222.172 C 145.200 222.876,144.951 223.180,144.300 223.272 C 143.532 223.381,143.382 223.679,143.278 225.300 C 143.168 227.015,143.061 227.200,142.178 227.200 C 141.401 227.200,141.200 227.406,141.200 228.200 C 141.200 229.000,141.000 229.200,140.200 229.200 C 139.405 229.200,139.200 229.401,139.200 230.182 C 139.200 230.722,138.750 231.614,138.200 232.164 C 137.650 232.714,137.200 233.621,137.200 234.179 L 137.200 235.195 105.500 235.298 L 73.800 235.400 73.405 236.300 C 73.163 236.852,72.660 237.200,72.105 237.200 C 71.406 237.200,71.200 237.428,71.200 238.200 C 71.200 239.005,71.001 239.200,70.182 239.200 C 68.871 239.200,67.200 240.871,67.200 242.182 C 67.200 243.001,67.005 243.200,66.200 243.200 C 65.428 243.200,65.200 243.406,65.200 244.105 C 65.200 244.660,64.852 245.163,64.300 245.405 C 63.401 245.800,63.400 245.806,63.400 256.000 C 63.400 266.194,63.401 266.200,64.300 266.595 C 64.852 266.837,65.200 267.340,65.200 267.895 C 65.200 268.594,65.428 268.800,66.200 268.800 C 67.005 268.800,67.200 268.999,67.200 269.818 C 67.200 271.129,68.871 272.800,70.182 272.800 C 71.001 272.800,71.200 272.995,71.200 273.800 C 71.200 274.572,71.406 274.800,72.105 274.800 C 72.660 274.800,73.163 275.148,73.405 275.700 L 73.800 276.600 115.200 276.710 C 158.909 276.826,158.205 276.844,158.600 275.599 C 158.762 275.089,159.206 274.800,159.827 274.800 C 160.598 274.800,160.800 274.593,160.800 273.800 C 160.800 273.028,161.006 272.800,161.704 272.800 C 162.201 272.800,162.831 272.442,163.104 272.005 C 163.377 271.568,164.230 270.947,165.000 270.626 C 165.770 270.304,166.400 269.847,166.400 269.611 C 166.400 269.374,166.867 269.002,167.439 268.785 C 168.010 268.568,168.568 268.043,168.679 267.618 C 168.791 267.193,169.268 266.790,169.741 266.722 C 170.270 266.647,170.648 266.264,170.725 265.725 C 170.802 265.179,171.179 264.802,171.725 264.725 C 172.270 264.647,172.647 264.270,172.725 263.725 C 172.802 263.179,173.179 262.802,173.725 262.725 C 174.279 262.646,174.647 262.270,174.728 261.700 C 174.820 261.049,175.124 260.800,175.828 260.800 C 176.598 260.800,176.800 260.592,176.800 259.800 C 176.800 259.000,177.000 258.800,177.800 258.800 C 178.600 258.800,178.800 258.600,178.800 257.800 C 178.800 257.000,179.000 256.800,179.800 256.800 C 180.600 256.800,180.800 256.600,180.800 255.800 C 180.800 255.000,181.000 254.800,181.800 254.800 C 182.600 254.800,182.800 254.600,182.800 253.800 C 182.800 252.855,182.920 252.800,185.000 252.800 C 187.080 252.800,187.200 252.855,187.200 253.800 C 187.200 254.595,187.401 254.800,188.182 254.800 C 188.722 254.800,189.614 255.250,190.164 255.800 C 190.714 256.350,191.622 256.800,192.182 256.800 C 193.001 256.800,193.200 256.995,193.200 257.800 C 193.200 258.733,193.333 258.800,195.200 258.800 C 197.067 258.800,197.200 258.867,197.200 259.800 C 197.200 260.600,197.400 260.800,198.200 260.800 C 198.750 260.800,199.200 260.967,199.200 261.171 C 199.200 261.978,200.527 262.800,201.829 262.800 C 203.025 262.800,203.200 262.928,203.200 263.800 C 203.200 264.733,203.333 264.800,205.200 264.800 C 207.067 264.800,207.200 264.867,207.200 265.800 C 207.200 266.592,207.402 266.800,208.172 266.800 C 208.876 266.800,209.180 267.049,209.272 267.700 C 209.381 268.468,209.679 268.618,211.300 268.722 C 213.015 268.832,213.200 268.939,213.200 269.822 C 213.200 270.729,213.345 270.800,215.200 270.800 C 217.067 270.800,217.200 270.867,217.200 271.800 C 217.200 272.600,217.400 272.800,218.200 272.800 C 219.044 272.800,219.200 272.987,219.200 274.000 C 219.200 275.013,219.044 275.200,218.200 275.200 C 217.267 275.200,217.200 275.333,217.200 277.200 C 217.200 279.067,217.133 279.200,216.200 279.200 C 215.405 279.200,215.200 279.401,215.200 280.182 C 215.200 280.722,214.750 281.614,214.200 282.164 C 213.650 282.714,213.200 283.609,213.200 284.154 C 213.200 284.876,212.957 285.179,212.300 285.272 C 211.532 285.381,211.382 285.679,211.278 287.300 C 211.168 289.015,211.061 289.200,210.178 289.200 C 209.271 289.200,209.200 289.345,209.200 291.200 C 209.200 293.067,209.133 293.200,208.200 293.200 C 207.405 293.200,207.200 293.401,207.200 294.182 C 207.200 294.722,206.750 295.614,206.200 296.164 C 205.650 296.714,205.200 297.609,205.200 298.154 C 205.200 298.876,204.957 299.179,204.300 299.272 C 203.532 299.381,203.382 299.679,203.278 301.300 C 203.168 303.015,203.061 303.200,202.178 303.200 C 201.271 303.200,201.200 303.345,201.200 305.200 C 201.200 307.067,201.133 307.200,200.200 307.200 C 199.405 307.200,199.200 307.401,199.200 308.182 C 199.200 308.722,198.750 309.614,198.200 310.164 C 197.650 310.714,197.200 311.610,197.200 312.155 C 197.200 312.794,196.916 313.236,196.401 313.400 C 195.233 313.771,195.163 314.478,195.287 324.800 C 195.399 334.114,195.408 334.204,196.300 334.595 C 196.852 334.837,197.200 335.340,197.200 335.895 C 197.200 336.594,197.428 336.800,198.200 336.800 C 198.920 336.800,199.200 337.015,199.200 337.569 C 199.200 338.565,201.435 340.800,202.431 340.800 C 202.985 340.800,203.200 341.080,203.200 341.800 C 203.200 342.572,203.406 342.800,204.105 342.800 C 204.660 342.800,205.163 343.148,205.405 343.700 C 205.800 344.599,205.806 344.600,216.000 344.600 C 226.194 344.600,226.200 344.599,226.595 343.700 C 226.837 343.148,227.340 342.800,227.895 342.800 C 228.594 342.800,228.800 342.572,228.800 341.800 C 228.800 340.995,228.999 340.800,229.818 340.800 C 231.129 340.800,232.800 339.129,232.800 337.818 C 232.800 336.999,232.995 336.800,233.800 336.800 C 234.592 336.800,234.800 336.598,234.800 335.828 C 234.800 335.124,235.049 334.820,235.700 334.728 C 236.468 334.619,236.618 334.321,236.722 332.700 C 236.832 330.985,236.939 330.800,237.822 330.800 C 238.729 330.800,238.800 330.655,238.800 328.800 C 238.800 326.933,238.867 326.800,239.800 326.800 C 240.595 326.800,240.800 326.599,240.800 325.818 C 240.800 325.278,241.250 324.386,241.800 323.836 C 242.350 323.286,242.800 322.378,242.800 321.818 C 242.800 320.999,242.995 320.800,243.800 320.800 C 244.733 320.800,244.800 320.667,244.800 318.800 C 244.800 316.933,244.867 316.800,245.800 316.800 C 246.733 316.800,246.800 316.667,246.800 314.800 C 246.800 312.933,246.867 312.800,247.800 312.800 C 248.595 312.800,248.800 312.599,248.800 311.818 C 248.800 311.278,249.250 310.386,249.800 309.836 C 250.350 309.286,250.800 308.378,250.800 307.818 C 250.800 306.999,250.995 306.800,251.800 306.800 C 252.733 306.800,252.800 306.667,252.800 304.800 C 252.800 302.957,252.875 302.800,253.757 302.800 C 254.837 302.800,255.200 302.144,255.200 300.195 C 255.200 299.112,255.372 298.831,256.097 298.728 C 256.707 298.641,257.060 298.255,257.197 297.525 C 257.309 296.934,257.805 295.988,258.300 295.422 C 258.795 294.857,259.200 294.035,259.200 293.597 C 259.200 293.080,259.468 292.800,259.962 292.800 C 260.574 292.800,260.779 292.404,261.000 290.800 C 261.214 289.243,261.434 288.800,261.995 288.800 C 262.845 288.800,263.200 288.033,263.200 286.195 C 263.200 285.112,263.372 284.831,264.097 284.728 C 264.707 284.641,265.060 284.255,265.197 283.525 C 265.309 282.934,265.805 281.988,266.300 281.422 C 266.795 280.857,267.200 280.044,267.200 279.617 C 267.200 279.189,267.444 278.696,267.742 278.520 C 269.013 277.769,269.200 276.423,269.200 268.000 C 269.200 259.634,269.035 258.411,267.768 257.400 C 267.493 257.180,267.205 256.640,267.130 256.200 C 267.049 255.732,266.620 255.347,266.096 255.272 C 265.463 255.182,265.200 254.873,265.200 254.219 C 265.200 253.619,264.908 253.217,264.370 253.076 C 263.914 252.957,263.447 252.503,263.333 252.067 C 263.219 251.631,262.769 251.181,262.333 251.067 C 261.897 250.953,261.443 250.486,261.324 250.030 C 261.181 249.483,260.782 249.200,260.153 249.200 C 259.403 249.200,259.200 248.987,259.200 248.200 C 259.200 247.400,259.000 247.200,258.200 247.200 C 257.400 247.200,257.200 247.000,257.200 246.200 C 257.200 245.400,257.000 245.200,256.200 245.200 C 255.400 245.200,255.200 245.000,255.200 244.200 C 255.200 243.356,255.013 243.200,254.000 243.200 C 252.987 243.200,252.800 243.044,252.800 242.200 C 252.800 241.400,252.600 241.200,251.800 241.200 C 251.000 241.200,250.800 241.000,250.800 240.200 C 250.800 239.400,250.600 239.200,249.800 239.200 C 249.000 239.200,248.800 239.000,248.800 238.200 C 248.800 237.400,248.600 237.200,247.800 237.200 C 247.000 237.200,246.800 237.000,246.800 236.200 C 246.800 235.400,246.600 235.200,245.800 235.200 C 245.000 235.200,244.800 235.000,244.800 234.200 C 244.800 233.400,244.600 233.200,243.800 233.200 C 243.000 233.200,242.800 233.000,242.800 232.200 C 242.800 231.400,242.600 231.200,241.800 231.200 C 241.000 231.200,240.800 231.000,240.800 230.200 C 240.800 229.408,240.598 229.200,239.828 229.200 C 239.124 229.200,238.820 228.951,238.728 228.300 C 238.648 227.737,238.279 227.354,237.741 227.278 C 237.268 227.210,236.787 226.792,236.670 226.348 C 236.554 225.904,236.092 225.445,235.643 225.327 C 235.194 225.210,234.716 224.766,234.581 224.340 C 234.440 223.897,233.832 223.466,233.156 223.331 C 232.507 223.201,231.640 222.669,231.230 222.148 C 230.820 221.626,230.106 221.200,229.642 221.200 C 229.017 221.200,228.800 220.950,228.800 220.227 C 228.800 219.472,228.553 219.216,227.700 219.087 L 226.600 218.920 227.700 218.860 C 228.745 218.803,228.800 218.701,228.800 216.800 C 228.800 214.933,228.867 214.800,229.800 214.800 C 230.672 214.800,230.800 214.625,230.800 213.429 C 230.800 212.443,231.081 211.837,231.800 211.271 C 232.350 210.839,232.800 210.118,232.800 209.670 C 232.800 209.130,233.103 208.813,233.700 208.728 C 234.468 208.619,234.618 208.321,234.722 206.700 C 234.832 204.985,234.939 204.800,235.822 204.800 C 236.729 204.800,236.800 204.655,236.800 202.800 C 236.800 200.933,236.867 200.800,237.800 200.800 C 238.733 200.800,238.800 200.667,238.800 198.800 C 238.800 196.933,238.867 196.800,239.800 196.800 C 240.672 196.800,240.800 196.625,240.800 195.429 C 240.800 194.443,241.081 193.837,241.800 193.271 C 242.350 192.839,242.800 192.106,242.800 191.642 C 242.800 190.973,243.047 190.800,244.000 190.800 C 245.013 190.800,245.200 190.956,245.200 191.800 C 245.200 192.600,245.400 192.800,246.200 192.800 C 247.133 192.800,247.200 192.933,247.200 194.800 C 247.200 196.667,247.267 196.800,248.200 196.800 C 249.000 196.800,249.200 197.000,249.200 197.800 C 249.200 198.600,249.400 198.800,250.200 198.800 C 251.133 198.800,251.200 198.933,251.200 200.800 C 251.200 202.667,251.267 202.800,252.200 202.800 C 253.000 202.800,253.200 203.000,253.200 203.800 C 253.200 204.600,253.400 204.800,254.200 204.800 C 255.005 204.800,255.200 204.999,255.200 205.818 C 255.200 206.378,255.642 207.278,256.182 207.818 C 256.722 208.358,257.622 208.800,258.182 208.800 C 259.001 208.800,259.200 208.995,259.200 209.800 C 259.200 210.572,259.406 210.800,260.105 210.800 C 260.660 210.800,261.163 211.148,261.405 211.700 L 261.800 212.600 294.000 212.600 L 326.200 212.600 326.595 211.700 C 326.837 211.148,327.340 210.800,327.895 210.800 C 328.594 210.800,328.800 210.572,328.800 209.800 C 328.800 208.995,328.999 208.800,329.818 208.800 C 330.378 208.800,331.278 208.358,331.818 207.818 C 332.358 207.278,332.800 206.378,332.800 205.818 C 332.800 204.999,332.995 204.800,333.800 204.800 C 334.572 204.800,334.800 204.594,334.800 203.895 C 334.800 203.340,335.148 202.837,335.700 202.595 C 336.599 202.200,336.600 202.194,336.600 192.000 C 336.600 181.806,336.599 181.800,335.700 181.405 C 335.148 181.163,334.800 180.660,334.800 180.105 C 334.800 179.406,334.572 179.200,333.800 179.200 C 332.995 179.200,332.800 179.001,332.800 178.182 C 332.800 176.871,331.129 175.200,329.818 175.200 C 328.999 175.200,328.800 175.005,328.800 174.200 C 328.800 173.428,328.594 173.200,327.895 173.200 C 327.340 173.200,326.837 172.852,326.595 172.300 L 326.200 171.400 305.742 171.296 L 285.285 171.193 285.035 170.196 C 284.874 169.554,284.503 169.200,283.992 169.200 C 283.427 169.200,283.200 168.930,283.200 168.258 C 283.200 167.741,282.774 166.857,282.252 166.294 C 281.731 165.732,281.188 164.806,281.045 164.236 C 280.882 163.588,280.507 163.200,280.044 163.200 C 279.490 163.200,279.238 162.801,279.050 161.622 C 278.911 160.754,278.460 159.807,278.047 159.518 C 277.634 159.228,277.227 158.633,277.144 158.196 C 277.059 157.754,276.614 157.346,276.144 157.278 C 275.499 157.186,275.236 156.783,275.046 155.600 C 274.910 154.744,274.460 153.807,274.047 153.518 C 273.634 153.228,273.227 152.633,273.144 152.196 C 273.059 151.752,272.614 151.346,272.138 151.278 C 271.459 151.180,271.228 150.782,271.011 149.332 C 270.816 148.031,270.524 147.453,269.991 147.314 C 269.581 147.206,269.190 146.732,269.122 146.259 C 269.048 145.733,268.664 145.352,268.134 145.277 C 267.426 145.176,267.219 144.795,266.997 143.177 C 266.783 141.624,266.567 141.200,265.990 141.200 C 265.533 141.200,265.207 140.860,265.128 140.300 C 265.048 139.740,264.679 139.354,264.149 139.279 C 263.455 139.180,263.249 138.791,263.035 137.179 C 262.825 135.595,262.621 135.200,262.014 135.200 C 261.532 135.200,261.209 134.872,261.128 134.300 C 261.048 133.737,260.679 133.354,260.142 133.278 C 259.458 133.180,259.229 132.786,259.011 131.332 C 258.812 130.004,258.527 129.454,257.964 129.307 C 257.539 129.195,257.084 128.676,256.952 128.152 C 256.807 127.573,256.420 127.200,255.964 127.200 C 255.499 127.200,255.120 126.821,254.964 126.200 C 254.784 125.482,254.443 125.200,253.757 125.200 C 253.003 125.200,252.800 124.988,252.800 124.200 C 252.800 123.267,252.667 123.200,250.800 123.200 C 248.933 123.200,248.800 123.133,248.800 122.200 C 248.800 121.400,248.600 121.200,247.800 121.200 C 247.000 121.200,246.800 121.000,246.800 120.200 C 246.800 119.246,246.691 119.200,244.429 119.200 C 242.376 119.200,241.952 119.066,241.271 118.200 C 240.602 117.349,240.156 117.200,238.271 117.200 C 236.387 117.200,235.941 117.051,235.271 116.200 C 234.564 115.301,234.198 115.200,231.642 115.200 C 228.877 115.200,228.800 115.173,228.800 114.200 C 228.800 113.222,228.733 113.200,225.800 113.200 C 222.867 113.200,222.800 113.178,222.800 112.200 C 222.800 111.227,222.724 111.200,219.946 111.200 C 217.415 111.200,216.987 111.087,216.165 110.200 C 215.324 109.293,214.939 109.200,212.019 109.200 C 208.852 109.200,208.800 109.184,208.800 108.200 C 208.800 107.222,208.733 107.200,205.800 107.200 C 202.867 107.200,202.800 107.178,202.800 106.200 C 202.800 105.225,202.727 105.200,199.895 105.200 C 197.266 105.200,196.952 105.114,196.595 104.300 C 196.232 103.473,195.898 103.391,192.500 103.285 C 188.866 103.172,188.800 103.152,188.800 102.185 C 188.800 101.226,188.721 101.200,185.800 101.200 C 182.867 101.200,182.800 101.178,182.800 100.200 L 182.800 99.200 172.267 99.200 C 166.473 99.200,161.613 99.320,161.467 99.467 M179.200 111.800 C 179.200 112.775,179.276 112.801,182.300 112.860 C 184.005 112.893,184.905 112.995,184.300 113.087 C 183.271 113.242,183.200 113.381,183.200 115.227 C 183.200 117.065,183.132 117.200,182.200 117.200 C 181.268 117.200,181.200 117.335,181.200 119.182 C 181.200 120.762,180.998 121.366,180.200 122.164 C 179.398 122.966,179.200 123.562,179.200 125.182 C 179.200 127.068,179.135 127.200,178.200 127.200 C 177.267 127.200,177.200 127.333,177.200 129.200 L 177.200 131.200 172.200 131.200 L 167.200 131.200 167.200 132.182 C 167.200 133.125,167.081 133.170,164.300 133.282 C 161.639 133.390,161.389 133.474,161.272 134.300 C 161.159 135.096,160.914 135.200,159.154 135.200 C 157.564 135.200,156.962 135.401,156.164 136.200 C 155.366 136.998,154.762 137.200,153.182 137.200 C 151.335 137.200,151.200 137.268,151.200 138.200 C 151.200 139.178,151.133 139.200,148.200 139.200 C 145.281 139.200,145.200 139.227,145.200 140.182 C 145.200 141.125,145.081 141.170,142.300 141.282 C 139.639 141.390,139.389 141.474,139.272 142.300 C 139.159 143.096,138.914 143.200,137.154 143.200 C 135.564 143.200,134.962 143.401,134.164 144.200 C 133.200 145.164,132.976 145.200,127.982 145.200 L 122.800 145.200 122.800 144.200 C 122.800 143.400,122.600 143.200,121.800 143.200 C 121.000 143.200,120.800 143.000,120.800 142.200 C 120.800 141.400,120.600 141.200,119.800 141.200 L 118.800 141.200 118.800 136.000 L 118.800 130.800 119.800 130.800 C 120.600 130.800,120.800 130.600,120.800 129.800 C 120.800 129.000,121.000 128.800,121.800 128.800 C 122.600 128.800,122.800 128.600,122.800 127.800 C 122.800 126.867,122.933 126.800,124.800 126.800 C 126.667 126.800,126.800 126.733,126.800 125.800 C 126.800 124.822,126.867 124.800,129.800 124.800 C 132.719 124.800,132.800 124.773,132.800 123.818 C 132.800 122.875,132.919 122.830,135.700 122.718 C 138.361 122.610,138.611 122.526,138.728 121.700 C 138.841 120.904,139.086 120.800,140.846 120.800 C 142.436 120.800,143.038 120.599,143.836 119.800 C 144.634 119.002,145.238 118.800,146.818 118.800 C 148.665 118.800,148.800 118.732,148.800 117.800 C 148.800 116.822,148.867 116.800,151.800 116.800 C 154.719 116.800,154.800 116.773,154.800 115.818 C 154.800 114.875,154.919 114.830,157.700 114.718 C 160.361 114.610,160.611 114.526,160.728 113.700 C 160.841 112.905,161.087 112.800,162.842 112.800 C 164.424 112.800,165.009 112.605,165.714 111.842 C 166.573 110.914,166.793 110.883,172.900 110.842 L 179.200 110.800 179.200 111.800 M199.200 117.830 C 199.200 118.770,199.292 118.800,202.200 118.800 C 205.133 118.800,205.200 118.822,205.200 119.800 C 205.200 120.773,205.276 120.800,208.054 120.800 C 210.585 120.800,211.013 120.913,211.835 121.800 C 212.676 122.707,213.061 122.800,215.981 122.800 C 219.148 122.800,219.200 122.816,219.200 123.800 C 219.200 124.778,219.267 124.800,222.200 124.800 C 225.133 124.800,225.200 124.822,225.200 125.800 C 225.200 126.775,225.273 126.800,228.105 126.800 C 230.734 126.800,231.048 126.886,231.405 127.700 C 231.750 128.486,232.143 128.615,234.500 128.718 C 237.068 128.831,237.200 128.885,237.200 129.818 C 237.200 130.730,237.343 130.800,239.200 130.800 C 241.067 130.800,241.200 130.867,241.200 131.800 C 241.200 132.592,241.402 132.800,242.172 132.800 C 242.874 132.800,243.180 133.049,243.272 133.696 C 243.344 134.202,243.737 134.656,244.174 134.740 C 245.288 134.952,247.200 136.993,247.200 137.969 C 247.200 138.589,247.454 138.800,248.200 138.800 C 249.000 138.800,249.200 139.000,249.200 139.800 C 249.200 140.594,249.402 140.800,250.177 140.800 C 251.040 140.800,251.168 140.998,251.277 142.500 C 251.372 143.813,251.605 144.290,252.300 144.595 C 252.852 144.837,253.200 145.340,253.200 145.895 C 253.200 146.588,253.429 146.800,254.178 146.800 C 255.061 146.800,255.168 146.985,255.278 148.700 C 255.382 150.321,255.532 150.619,256.300 150.728 C 256.951 150.820,257.200 151.124,257.200 151.828 C 257.200 152.598,257.408 152.800,258.200 152.800 C 259.133 152.800,259.200 152.933,259.200 154.800 C 259.200 156.667,259.267 156.800,260.200 156.800 C 261.000 156.800,261.200 157.000,261.200 157.800 C 261.200 158.600,261.400 158.800,262.200 158.800 C 263.133 158.800,263.200 158.933,263.200 160.800 C 263.200 162.667,263.267 162.800,264.200 162.800 C 265.000 162.800,265.200 163.000,265.200 163.800 C 265.200 164.600,265.400 164.800,266.200 164.800 C 267.133 164.800,267.200 164.933,267.200 166.800 C 267.200 168.667,267.267 168.800,268.200 168.800 C 269.000 168.800,269.200 169.000,269.200 169.800 C 269.200 170.600,269.400 170.800,270.200 170.800 C 271.044 170.800,271.200 170.987,271.200 172.000 C 271.200 173.173,271.156 173.200,269.200 173.200 C 267.333 173.200,267.200 173.267,267.200 174.200 C 267.200 175.000,267.000 175.200,266.200 175.200 C 265.400 175.200,265.200 175.400,265.200 176.200 C 265.200 177.133,265.067 177.200,263.200 177.200 C 261.333 177.200,261.200 177.267,261.200 178.200 C 261.200 179.000,261.000 179.200,260.200 179.200 C 259.406 179.200,259.200 179.401,259.200 180.178 C 259.200 181.061,259.015 181.168,257.300 181.278 C 255.624 181.386,255.381 181.518,255.239 182.400 L 255.078 183.400 254.823 182.400 C 254.663 181.777,254.234 181.352,253.684 181.272 C 253.050 181.180,252.800 180.870,252.800 180.172 C 252.800 179.402,252.592 179.200,251.800 179.200 C 250.867 179.200,250.800 179.067,250.800 177.200 C 250.800 175.333,250.733 175.200,249.800 175.200 C 249.000 175.200,248.800 175.000,248.800 174.200 C 248.800 173.428,248.594 173.200,247.895 173.200 C 247.340 173.200,246.837 172.852,246.595 172.300 C 245.946 170.821,241.200 170.717,241.200 172.181 C 241.200 173.006,241.006 173.200,240.182 173.200 C 238.883 173.200,237.200 174.867,237.200 176.154 C 237.200 176.876,236.957 177.179,236.300 177.272 C 235.532 177.381,235.382 177.679,235.278 179.300 C 235.168 181.015,235.061 181.200,234.178 181.200 C 233.271 181.200,233.200 181.345,233.200 183.200 C 233.200 185.067,233.133 185.200,232.200 185.200 C 231.267 185.200,231.200 185.333,231.200 187.200 C 231.200 189.067,231.133 189.200,230.200 189.200 C 229.328 189.200,229.200 189.375,229.200 190.571 C 229.200 191.557,228.919 192.163,228.200 192.729 C 227.650 193.161,227.200 193.882,227.200 194.330 C 227.200 194.870,226.897 195.187,226.300 195.272 C 225.532 195.381,225.382 195.679,225.278 197.300 C 225.168 199.015,225.061 199.200,224.178 199.200 C 223.271 199.200,223.200 199.345,223.200 201.200 C 223.200 203.067,223.133 203.200,222.200 203.200 C 221.267 203.200,221.200 203.333,221.200 205.200 C 221.200 207.067,221.133 207.200,220.200 207.200 C 219.328 207.200,219.200 207.375,219.200 208.571 C 219.200 209.557,218.919 210.163,218.200 210.729 C 217.650 211.161,217.200 211.873,217.200 212.311 C 217.200 212.770,216.862 213.195,216.401 213.316 C 215.962 213.431,215.433 213.947,215.226 214.462 C 214.855 215.390,214.850 215.389,214.825 214.300 C 214.805 213.406,214.616 213.200,213.818 213.200 C 213.278 213.200,212.386 212.750,211.836 212.200 C 211.286 211.650,210.378 211.200,209.818 211.200 C 208.999 211.200,208.800 211.005,208.800 210.200 C 208.800 209.267,208.667 209.200,206.800 209.200 C 204.933 209.200,204.800 209.133,204.800 208.200 C 204.800 207.428,204.594 207.200,203.895 207.200 C 203.340 207.200,202.837 206.852,202.595 206.300 C 202.290 205.605,201.813 205.372,200.500 205.277 C 198.998 205.168,198.800 205.040,198.800 204.177 C 198.800 203.271,198.654 203.200,196.800 203.200 C 194.933 203.200,194.800 203.133,194.800 202.200 C 194.800 201.400,194.600 201.200,193.800 201.200 C 193.000 201.200,192.800 201.000,192.800 200.200 C 192.800 199.267,192.667 199.200,190.800 199.200 C 188.933 199.200,188.800 199.133,188.800 198.200 C 188.800 197.405,188.599 197.200,187.818 197.200 C 187.278 197.200,186.386 196.750,185.836 196.200 C 185.286 195.650,184.378 195.200,183.818 195.200 C 182.999 195.200,182.800 195.005,182.800 194.200 C 182.800 193.268,182.657 193.196,180.700 193.140 C 179.545 193.107,179.095 193.005,179.700 192.913 C 180.729 192.758,180.800 192.619,180.800 190.773 C 180.800 188.935,180.868 188.800,181.800 188.800 C 182.733 188.800,182.800 188.667,182.800 186.800 C 182.800 184.933,182.867 184.800,183.800 184.800 C 184.733 184.800,184.800 184.667,184.800 182.800 C 184.800 180.933,184.867 180.800,185.800 180.800 C 186.733 180.800,186.800 180.667,186.800 178.800 C 186.800 176.933,186.867 176.800,187.800 176.800 C 188.733 176.800,188.800 176.667,188.800 174.800 C 188.800 172.933,188.867 172.800,189.800 172.800 C 190.733 172.800,190.800 172.667,190.800 170.800 C 190.800 168.933,190.867 168.800,191.800 168.800 C 192.672 168.800,192.800 168.625,192.800 167.429 C 192.800 166.443,193.081 165.837,193.800 165.271 C 194.474 164.741,194.800 164.089,194.800 163.271 C 194.800 162.454,195.126 161.802,195.800 161.271 C 196.350 160.839,196.800 160.114,196.800 159.661 C 196.800 159.207,197.250 158.386,197.800 157.836 C 198.350 157.286,198.800 156.378,198.800 155.818 C 198.800 155.258,198.967 154.800,199.171 154.800 C 199.957 154.800,200.800 153.488,200.800 152.266 C 200.800 151.326,201.037 150.886,201.700 150.595 C 202.562 150.217,202.605 149.969,202.711 144.700 L 202.823 139.200 200.811 139.200 C 199.705 139.200,198.800 139.033,198.800 138.829 C 198.800 137.670,197.463 137.200,194.171 137.200 C 190.842 137.200,190.800 137.188,190.800 136.200 C 190.800 135.222,190.733 135.200,187.800 135.200 L 184.800 135.200 184.800 133.000 C 184.800 130.920,184.855 130.800,185.800 130.800 C 186.732 130.800,186.800 130.665,186.800 128.818 C 186.800 127.238,187.002 126.634,187.800 125.836 C 188.602 125.034,188.800 124.438,188.800 122.818 C 188.800 120.932,188.865 120.800,189.800 120.800 C 190.732 120.800,190.800 120.665,190.800 118.827 C 190.800 116.526,190.843 116.509,196.100 116.730 C 199.078 116.856,199.200 116.899,199.200 117.830 M295.206 180.800 L 315.144 180.800 315.272 181.700 C 315.389 182.526,315.639 182.610,318.300 182.718 C 321.081 182.830,321.200 182.875,321.200 183.818 C 321.200 184.599,321.405 184.800,322.200 184.800 C 323.000 184.800,323.200 185.000,323.200 185.800 C 323.200 186.600,323.400 186.800,324.200 186.800 L 325.200 186.800 325.200 192.000 L 325.200 197.200 324.200 197.200 C 323.400 197.200,323.200 197.400,323.200 198.200 C 323.200 199.000,323.000 199.200,322.200 199.200 C 321.405 199.200,321.200 199.401,321.200 200.182 C 321.200 201.125,321.081 201.170,318.300 201.282 C 315.635 201.390,315.390 201.473,315.272 202.304 L 315.143 203.207 294.072 203.104 L 273.000 203.000 272.872 202.100 C 272.754 201.267,272.541 201.200,270.000 201.200 C 267.459 201.200,267.246 201.133,267.128 200.300 C 267.047 199.730,266.679 199.354,266.125 199.275 C 265.579 199.198,265.202 198.821,265.125 198.275 C 265.046 197.721,264.670 197.353,264.100 197.272 C 263.510 197.188,263.200 196.869,263.200 196.346 C 263.200 195.427,262.498 193.983,261.768 193.400 C 261.493 193.180,261.205 192.640,261.130 192.200 C 261.047 191.719,260.618 191.347,260.054 191.267 L 259.117 191.133 259.958 190.544 C 260.421 190.220,260.800 189.707,260.800 189.404 C 260.800 189.100,261.294 188.796,261.900 188.727 C 262.688 188.636,263.036 188.344,263.128 187.700 C 263.221 187.043,263.523 186.800,264.247 186.800 C 264.792 186.800,265.639 186.368,266.128 185.840 C 266.618 185.312,267.464 184.817,268.009 184.740 C 268.678 184.645,269.042 184.307,269.128 183.700 C 269.216 183.079,269.528 182.800,270.133 182.800 C 270.659 182.800,271.168 182.440,271.405 181.900 C 271.695 181.238,272.197 180.967,273.300 180.876 C 274.125 180.808,274.814 180.538,274.832 180.276 C 274.854 179.934,274.920 179.940,275.065 180.300 C 275.223 180.691,279.629 180.800,295.206 180.800 M179.200 201.800 C 179.200 202.600,179.400 202.800,180.200 202.800 C 181.000 202.800,181.200 203.000,181.200 203.800 C 181.200 204.733,181.333 204.800,183.200 204.800 C 185.067 204.800,185.200 204.867,185.200 205.800 C 185.200 206.595,185.401 206.800,186.182 206.800 C 186.722 206.800,187.614 207.250,188.164 207.800 C 188.714 208.350,189.622 208.800,190.182 208.800 C 191.001 208.800,191.200 208.995,191.200 209.800 C 191.200 210.733,191.333 210.800,193.200 210.800 C 195.067 210.800,195.200 210.867,195.200 211.800 C 195.200 212.572,195.406 212.800,196.105 212.800 C 196.660 212.800,197.163 213.148,197.405 213.700 C 197.710 214.395,198.187 214.628,199.500 214.723 C 201.002 214.832,201.200 214.960,201.200 215.823 C 201.200 216.729,201.346 216.800,203.200 216.800 C 205.067 216.800,205.200 216.867,205.200 217.800 C 205.200 218.600,205.400 218.800,206.200 218.800 C 207.000 218.800,207.200 219.000,207.200 219.800 C 207.200 220.733,207.333 220.800,209.200 220.800 C 211.067 220.800,211.200 220.867,211.200 221.800 C 211.200 222.595,211.401 222.800,212.182 222.800 C 212.722 222.800,213.614 223.250,214.164 223.800 C 214.714 224.350,215.622 224.800,216.182 224.800 C 217.001 224.800,217.200 224.995,217.200 225.800 C 217.200 226.600,217.400 226.800,218.200 226.800 C 219.000 226.800,219.200 227.000,219.200 227.800 C 219.200 228.600,219.400 228.800,220.200 228.800 C 221.000 228.800,221.200 229.000,221.200 229.800 C 221.200 230.600,221.400 230.800,222.200 230.800 C 223.000 230.800,223.200 231.000,223.200 231.800 C 223.200 232.600,223.400 232.800,224.200 232.800 C 225.000 232.800,225.200 233.000,225.200 233.800 C 225.200 234.600,225.400 234.800,226.200 234.800 C 227.000 234.800,227.200 235.000,227.200 235.800 C 227.200 236.600,227.400 236.800,228.200 236.800 C 229.000 236.800,229.200 237.000,229.200 237.800 C 229.200 238.592,229.402 238.800,230.172 238.800 C 230.876 238.800,231.180 239.049,231.272 239.700 C 231.354 240.278,231.722 240.646,232.300 240.728 C 233.696 240.926,233.604 243.200,232.200 243.200 C 231.400 243.200,231.200 243.400,231.200 244.200 C 231.200 245.000,231.000 245.200,230.200 245.200 C 229.400 245.200,229.200 245.400,229.200 246.200 C 229.200 247.000,229.000 247.200,228.200 247.200 C 227.400 247.200,227.200 247.400,227.200 248.200 C 227.200 249.000,227.000 249.200,226.200 249.200 C 225.408 249.200,225.200 249.402,225.200 250.172 C 225.200 250.876,224.951 251.180,224.300 251.272 C 223.612 251.370,223.371 251.704,223.275 252.690 C 223.199 253.477,222.770 254.280,222.175 254.748 C 221.639 255.170,221.200 255.894,221.200 256.358 C 221.200 256.989,220.950 257.200,220.200 257.200 C 219.390 257.200,219.189 257.409,219.140 258.300 L 219.080 259.400 218.913 258.300 C 218.758 257.271,218.619 257.200,216.773 257.200 C 214.935 257.200,214.800 257.132,214.800 256.200 C 214.800 255.405,214.599 255.200,213.818 255.200 C 213.278 255.200,212.386 254.750,211.836 254.200 C 211.286 253.650,210.378 253.200,209.818 253.200 C 208.999 253.200,208.800 253.005,208.800 252.200 C 208.800 251.267,208.667 251.200,206.800 251.200 C 204.933 251.200,204.800 251.133,204.800 250.200 C 204.800 249.400,204.600 249.200,203.800 249.200 C 203.250 249.200,202.800 249.033,202.800 248.829 C 202.800 248.022,201.473 247.200,200.171 247.200 C 198.975 247.200,198.800 247.072,198.800 246.200 C 198.800 245.267,198.667 245.200,196.800 245.200 C 194.933 245.200,194.800 245.133,194.800 244.200 C 194.800 243.408,194.598 243.200,193.828 243.200 C 193.124 243.200,192.820 242.951,192.728 242.300 C 192.619 241.532,192.321 241.382,190.700 241.278 C 188.985 241.168,188.800 241.061,188.800 240.178 C 188.800 239.271,188.655 239.200,186.800 239.200 C 184.933 239.200,184.800 239.133,184.800 238.200 C 184.800 237.408,184.598 237.200,183.828 237.200 C 183.124 237.200,182.820 236.951,182.728 236.300 C 182.619 235.532,182.321 235.382,180.700 235.278 C 178.985 235.168,178.800 235.061,178.800 234.178 C 178.800 233.401,178.594 233.200,177.800 233.200 C 177.000 233.200,176.800 233.000,176.800 232.200 C 176.800 231.400,176.600 231.200,175.800 231.200 C 175.000 231.200,174.800 231.000,174.800 230.200 C 174.800 229.400,174.600 229.200,173.800 229.200 C 172.867 229.200,172.800 229.067,172.800 227.200 C 172.800 225.333,172.733 225.200,171.800 225.200 L 170.800 225.200 170.800 217.000 L 170.800 208.800 171.800 208.800 C 172.733 208.800,172.800 208.667,172.800 206.800 C 172.800 204.933,172.867 204.800,173.800 204.800 C 174.733 204.800,174.800 204.667,174.800 202.800 L 174.800 200.800 177.000 200.800 C 179.080 200.800,179.200 200.855,179.200 201.800 M160.221 228.800 C 161.129 228.800,161.200 228.945,161.200 230.800 C 161.200 232.667,161.267 232.800,162.200 232.800 C 163.133 232.800,163.200 232.933,163.200 234.800 C 163.200 236.667,163.267 236.800,164.200 236.800 C 165.000 236.800,165.200 237.000,165.200 237.800 C 165.200 238.600,165.400 238.800,166.200 238.800 C 167.000 238.800,167.200 239.000,167.200 239.800 C 167.200 240.600,167.400 240.800,168.200 240.800 C 169.000 240.800,169.200 241.000,169.200 241.800 C 169.200 242.600,169.400 242.800,170.200 242.800 C 171.000 242.800,171.200 243.000,171.200 243.800 C 171.200 244.615,171.404 244.807,172.300 244.840 L 173.400 244.880 172.400 245.156 C 171.798 245.323,171.350 245.774,171.275 246.292 C 171.199 246.820,170.814 247.199,170.275 247.275 C 169.730 247.353,169.353 247.730,169.275 248.275 C 169.198 248.821,168.821 249.198,168.275 249.275 C 167.721 249.354,167.353 249.730,167.272 250.300 C 167.180 250.951,166.876 251.200,166.172 251.200 C 165.380 251.200,165.199 251.403,165.194 252.300 L 165.188 253.400 164.685 252.400 C 164.371 251.776,163.774 251.353,163.100 251.274 C 162.504 251.205,161.673 250.710,161.251 250.174 C 160.830 249.638,160.106 249.200,159.642 249.200 C 159.011 249.200,158.800 248.950,158.800 248.200 C 158.800 247.400,158.600 247.200,157.800 247.200 C 157.000 247.200,156.800 247.000,156.800 246.200 C 156.800 245.400,156.600 245.200,155.800 245.200 C 155.000 245.200,154.800 245.000,154.800 244.200 C 154.800 243.400,154.600 243.200,153.800 243.200 C 153.000 243.200,152.800 243.000,152.800 242.200 C 152.800 241.400,152.600 241.200,151.800 241.200 C 151.000 241.200,150.800 241.000,150.800 240.200 C 150.800 239.400,150.600 239.200,149.800 239.200 C 149.250 239.200,148.800 239.118,148.800 239.018 C 148.800 238.918,149.250 238.386,149.800 237.836 C 150.350 237.286,150.800 236.378,150.800 235.818 C 150.800 234.999,150.995 234.800,151.800 234.800 C 152.600 234.800,152.800 234.600,152.800 233.800 C 152.800 233.000,153.000 232.800,153.800 232.800 C 154.733 232.800,154.800 232.667,154.800 230.800 C 154.800 228.933,154.867 228.800,155.800 228.800 C 156.600 228.800,156.800 228.600,156.800 227.800 C 156.800 227.000,157.000 226.800,157.800 226.800 C 158.606 226.800,158.814 226.587,158.874 225.700 C 158.915 225.095,159.014 225.545,159.095 226.700 C 159.229 228.621,159.325 228.800,160.221 228.800 M143.405 245.698 C 143.622 246.191,144.121 246.656,144.514 246.730 C 144.906 246.804,145.663 247.300,146.196 247.832 C 146.728 248.364,147.622 248.800,148.182 248.800 C 149.001 248.800,149.200 248.995,149.200 249.800 C 149.200 250.600,149.400 250.800,150.200 250.800 C 151.000 250.800,151.200 251.000,151.200 251.800 C 151.200 252.600,151.400 252.800,152.200 252.800 C 153.000 252.800,153.200 253.000,153.200 253.800 C 153.200 254.600,153.400 254.800,154.200 254.800 C 155.000 254.800,155.200 255.000,155.200 255.800 C 155.200 256.600,155.400 256.800,156.200 256.800 C 157.000 256.800,157.200 257.000,157.200 257.800 C 157.200 258.610,157.409 258.811,158.300 258.860 L 159.400 258.920 158.300 259.087 C 157.447 259.216,157.200 259.472,157.200 260.227 C 157.200 260.998,156.993 261.200,156.200 261.200 C 155.400 261.200,155.200 261.400,155.200 262.200 C 155.200 263.000,155.000 263.200,154.200 263.200 C 153.405 263.200,153.200 263.401,153.200 264.182 C 153.200 265.125,153.081 265.170,150.300 265.282 C 147.639 265.390,147.389 265.474,147.272 266.300 L 147.144 267.200 116.000 267.200 L 84.856 267.200 84.728 266.300 C 84.611 265.474,84.361 265.390,81.700 265.282 C 78.919 265.170,78.800 265.125,78.800 264.182 C 78.800 263.401,78.595 263.200,77.800 263.200 C 77.000 263.200,76.800 263.000,76.800 262.200 C 76.800 261.400,76.600 261.200,75.800 261.200 L 74.800 261.200 74.800 256.000 L 74.800 250.800 75.800 250.800 C 76.600 250.800,76.800 250.600,76.800 249.800 C 76.800 249.000,77.000 248.800,77.800 248.800 C 78.595 248.800,78.800 248.599,78.800 247.818 C 78.800 246.875,78.919 246.830,81.700 246.718 C 84.361 246.610,84.611 246.526,84.728 245.700 L 84.856 244.800 113.933 244.800 L 143.010 244.800 143.405 245.698 M241.200 247.800 C 241.200 248.600,241.400 248.800,242.200 248.800 C 243.000 248.800,243.200 249.000,243.200 249.800 C 243.200 250.600,243.400 250.800,244.200 250.800 C 245.000 250.800,245.200 251.000,245.200 251.800 C 245.200 252.600,245.400 252.800,246.200 252.800 C 247.000 252.800,247.200 253.000,247.200 253.800 C 247.200 254.600,247.400 254.800,248.200 254.800 C 249.000 254.800,249.200 255.000,249.200 255.800 C 249.200 256.600,249.400 256.800,250.200 256.800 C 251.000 256.800,251.200 257.000,251.200 257.800 C 251.200 258.600,251.400 258.800,252.200 258.800 C 253.000 258.800,253.200 259.000,253.200 259.800 C 253.200 260.600,253.400 260.800,254.200 260.800 C 255.000 260.800,255.200 261.000,255.200 261.800 C 255.200 262.600,255.400 262.800,256.200 262.800 L 257.200 262.800 257.200 268.000 L 257.200 273.200 256.200 273.200 C 255.267 273.200,255.200 273.333,255.200 275.200 C 255.200 277.067,255.133 277.200,254.200 277.200 C 253.405 277.200,253.200 277.401,253.200 278.182 C 253.200 278.722,252.750 279.614,252.200 280.164 C 251.650 280.714,251.200 281.609,251.200 282.154 C 251.200 282.876,250.957 283.179,250.300 283.272 C 249.532 283.381,249.382 283.679,249.278 285.300 C 249.168 287.015,249.061 287.200,248.178 287.200 C 247.271 287.200,247.200 287.345,247.200 289.200 C 247.200 291.067,247.133 291.200,246.200 291.200 C 245.405 291.200,245.200 291.401,245.200 292.182 C 245.200 292.722,244.750 293.614,244.200 294.164 C 243.650 294.714,243.200 295.609,243.200 296.154 C 243.200 296.876,242.957 297.179,242.300 297.272 C 241.532 297.381,241.382 297.679,241.278 299.300 C 241.168 301.015,241.061 301.200,240.178 301.200 C 239.271 301.200,239.200 301.345,239.200 303.200 C 239.200 305.067,239.133 305.200,238.200 305.200 C 237.405 305.200,237.200 305.401,237.200 306.182 C 237.200 306.722,236.750 307.614,236.200 308.164 C 235.650 308.714,235.200 309.609,235.200 310.154 C 235.200 310.876,234.957 311.179,234.300 311.272 C 233.532 311.381,233.382 311.679,233.278 313.300 C 233.168 315.015,233.061 315.200,232.178 315.200 C 231.271 315.200,231.200 315.345,231.200 317.200 C 231.200 319.067,231.133 319.200,230.200 319.200 C 229.405 319.200,229.200 319.401,229.200 320.182 C 229.200 320.722,228.750 321.614,228.200 322.164 C 227.650 322.714,227.200 323.609,227.200 324.154 C 227.200 324.876,226.957 325.179,226.300 325.272 C 225.532 325.381,225.382 325.679,225.278 327.300 C 225.168 329.015,225.061 329.200,224.178 329.200 C 223.401 329.200,223.200 329.406,223.200 330.200 C 223.200 331.000,223.000 331.200,222.200 331.200 C 221.400 331.200,221.200 331.400,221.200 332.200 L 221.200 333.200 216.000 333.200 L 210.800 333.200 210.800 332.200 C 210.800 331.400,210.600 331.200,209.800 331.200 C 209.000 331.200,208.800 331.000,208.800 330.200 C 208.800 329.400,208.600 329.200,207.800 329.200 L 206.800 329.200 206.800 324.000 L 206.800 318.800 207.800 318.800 C 208.733 318.800,208.800 318.667,208.800 316.800 C 208.800 314.933,208.867 314.800,209.800 314.800 C 210.595 314.800,210.800 314.599,210.800 313.818 C 210.800 313.278,211.250 312.386,211.800 311.836 C 212.350 311.286,212.800 310.378,212.800 309.818 C 212.800 308.999,212.995 308.800,213.800 308.800 C 214.733 308.800,214.800 308.667,214.800 306.800 C 214.800 304.933,214.867 304.800,215.800 304.800 C 216.733 304.800,216.800 304.667,216.800 302.800 C 216.800 300.933,216.867 300.800,217.800 300.800 C 218.595 300.800,218.800 300.599,218.800 299.818 C 218.800 299.278,219.250 298.386,219.800 297.836 C 220.350 297.286,220.800 296.378,220.800 295.818 C 220.800 294.999,220.995 294.800,221.800 294.800 C 222.733 294.800,222.800 294.667,222.800 292.800 C 222.800 290.933,222.867 290.800,223.800 290.800 C 224.733 290.800,224.800 290.667,224.800 288.800 C 224.800 286.933,224.867 286.800,225.800 286.800 C 226.595 286.800,226.800 286.599,226.800 285.818 C 226.800 285.278,227.250 284.386,227.800 283.836 C 228.350 283.286,228.800 282.378,228.800 281.818 C 228.800 280.999,228.995 280.800,229.800 280.800 C 230.733 280.800,230.800 280.667,230.800 278.800 C 230.800 276.933,230.867 276.800,231.800 276.800 L 232.800 276.800 232.800 272.000 L 232.800 267.200 231.800 267.200 C 231.000 267.200,230.800 267.000,230.800 266.200 C 230.800 265.408,230.598 265.200,229.828 265.200 C 229.124 265.200,228.820 264.951,228.728 264.300 C 228.620 263.543,228.283 263.362,226.600 263.163 C 225.500 263.032,225.095 262.897,225.700 262.863 C 226.590 262.812,226.800 262.609,226.800 261.800 C 226.800 261.000,227.000 260.800,227.800 260.800 C 228.600 260.800,228.800 260.600,228.800 259.800 C 228.800 259.000,229.000 258.800,229.800 258.800 C 230.600 258.800,230.800 258.600,230.800 257.800 C 230.800 257.000,231.000 256.800,231.800 256.800 C 232.592 256.800,232.800 256.598,232.800 255.828 C 232.800 255.124,233.049 254.820,233.700 254.728 C 234.388 254.630,234.629 254.296,234.725 253.310 C 234.801 252.523,235.230 251.720,235.825 251.252 C 236.361 250.830,236.800 250.106,236.800 249.642 C 236.800 249.011,237.050 248.800,237.800 248.800 C 238.600 248.800,238.800 248.600,238.800 247.800 C 238.800 246.956,238.987 246.800,240.000 246.800 C 241.013 246.800,241.200 246.956,241.200 247.800 " stroke="none" fill="#040404" fill-rule="evenodd"></path><path id="path1" d="" stroke="none" fill="#080404" fill-rule="evenodd"></path><path id="path2" d="" stroke="none" fill="#080404" fill-rule="evenodd"></path><path id="path3" d="" stroke="none" fill="#080404" fill-rule="evenodd"></path><path id="path4" d="" stroke="none" fill="#080404" fill-rule="evenodd"></path></g></svg>