<svg id="svg" version="1.1" xmlns="http://www.w3.org/2000/svg" xmlns:xlink="http://www.w3.org/1999/xlink" width="400" height="400" viewBox="0, 0, 400,400"><g id="svgg"><path id="path0" d="M156.000 43.063 C 155.230 43.163,154.405 43.499,154.166 43.809 C 153.833 44.241,152.442 44.385,148.200 44.424 C 142.264 44.479,141.600 44.582,141.600 45.443 C 141.600 45.875,140.844 46.000,138.233 46.000 C 134.524 46.000,133.600 46.208,133.600 47.043 C 133.600 47.456,132.989 47.600,131.233 47.600 C 128.503 47.600,127.600 47.859,127.600 48.643 C 127.600 49.053,127.008 49.200,125.363 49.200 C 123.462 49.200,123.094 49.320,122.916 50.000 C 122.752 50.627,122.370 50.800,121.153 50.800 C 120.133 50.800,119.325 51.075,118.800 51.600 C 118.297 52.103,117.467 52.400,116.563 52.400 C 115.475 52.400,115.076 52.589,114.922 53.178 C 114.775 53.737,114.307 53.991,113.259 54.078 C 112.156 54.170,111.814 54.371,111.856 54.900 C 111.900 55.456,111.592 55.600,110.356 55.600 C 109.067 55.600,108.800 55.737,108.800 56.400 C 108.800 57.063,108.533 57.200,107.247 57.200 C 106.030 57.200,105.648 57.373,105.484 58.000 C 105.325 58.609,104.938 58.800,103.867 58.800 C 102.844 58.800,102.422 58.992,102.324 59.499 C 102.250 59.884,101.922 60.216,101.595 60.238 C 99.847 60.355,99.600 60.449,99.600 61.000 C 99.600 61.342,99.240 61.600,98.763 61.600 C 98.262 61.600,97.841 61.921,97.716 62.400 C 97.601 62.840,97.182 63.200,96.786 63.200 C 95.638 63.200,94.800 63.640,94.800 64.243 C 94.800 64.549,94.452 64.800,94.027 64.800 C 93.602 64.800,93.140 65.160,93.000 65.600 C 92.860 66.040,92.488 66.400,92.173 66.400 C 91.858 66.400,91.240 66.760,90.800 67.200 C 90.360 67.640,89.640 68.000,89.200 68.000 C 88.667 68.000,88.400 68.267,88.400 68.800 C 88.400 69.333,88.133 69.600,87.600 69.600 C 87.067 69.600,86.800 69.867,86.800 70.400 C 86.800 70.933,86.533 71.200,86.000 71.200 C 85.467 71.200,85.200 71.467,85.200 72.000 C 85.200 72.533,84.933 72.800,84.400 72.800 C 83.867 72.800,83.600 73.067,83.600 73.600 C 83.600 74.044,83.333 74.400,83.000 74.400 C 81.706 74.400,74.400 81.706,74.400 83.000 C 74.400 83.333,74.044 83.600,73.600 83.600 C 73.067 83.600,72.800 83.867,72.800 84.400 C 72.800 84.933,72.533 85.200,72.000 85.200 C 71.467 85.200,71.200 85.467,71.200 86.000 C 71.200 86.533,70.933 86.800,70.400 86.800 C 69.867 86.800,69.600 87.067,69.600 87.600 C 69.600 88.133,69.333 88.400,68.800 88.400 C 68.263 88.400,68.000 88.667,68.000 89.213 C 68.000 89.659,67.741 90.124,67.424 90.246 C 67.108 90.367,66.735 90.984,66.597 91.615 C 66.457 92.249,65.998 92.874,65.572 93.009 C 65.147 93.144,64.800 93.505,64.800 93.813 C 64.800 94.120,64.440 94.565,64.000 94.800 C 63.487 95.074,63.200 95.638,63.200 96.367 C 63.200 97.188,62.965 97.568,62.360 97.726 C 61.898 97.847,61.633 98.129,61.771 98.353 C 61.909 98.577,61.665 98.951,61.228 99.185 C 60.781 99.424,60.320 100.218,60.173 101.005 C 60.023 101.803,59.673 102.400,59.355 102.400 C 59.035 102.400,58.800 102.809,58.800 103.367 C 58.800 104.748,58.402 105.600,57.757 105.600 C 57.416 105.600,57.200 106.027,57.200 106.704 C 57.200 107.374,56.886 108.004,56.400 108.307 C 55.848 108.652,55.600 109.240,55.600 110.203 C 55.600 111.333,55.447 111.600,54.800 111.600 C 54.133 111.600,54.000 111.867,54.000 113.200 C 54.000 114.533,53.867 114.800,53.200 114.800 C 52.537 114.800,52.400 115.067,52.400 116.353 C 52.400 117.570,52.227 117.952,51.600 118.116 C 50.920 118.294,50.800 118.662,50.800 120.563 C 50.800 122.533,50.705 122.800,50.000 122.800 C 49.560 122.800,49.221 122.935,49.247 123.100 C 49.546 124.994,49.117 127.172,48.400 127.400 C 47.729 127.613,47.600 128.005,47.600 129.827 C 47.600 131.467,47.404 132.196,46.800 132.800 C 46.133 133.467,46.000 134.133,46.000 136.800 C 46.000 139.359,45.881 140.000,45.408 140.000 C 44.859 140.000,44.256 141.362,44.423 142.226 C 44.787 144.118,44.327 150.800,43.832 150.800 C 42.530 150.800,42.392 175.245,43.686 176.675 C 44.238 177.284,44.384 178.292,44.430 181.816 C 44.478 185.412,44.624 186.391,45.244 187.262 C 45.784 188.020,46.000 189.011,46.000 190.729 C 46.000 193.496,46.257 194.400,47.043 194.400 C 47.456 194.400,47.600 195.006,47.600 196.738 C 47.600 198.568,47.774 199.233,48.400 199.800 C 48.958 200.305,49.200 201.032,49.200 202.200 C 49.200 203.368,49.442 204.095,50.000 204.600 C 50.536 205.085,50.800 205.832,50.800 206.862 C 50.800 208.099,50.947 208.400,51.549 208.400 C 52.158 208.400,52.335 208.783,52.496 210.454 C 52.623 211.783,52.924 212.638,53.346 212.874 C 53.759 213.105,54.000 213.762,54.000 214.657 C 54.000 215.738,54.190 216.125,54.800 216.284 C 55.406 216.443,55.600 216.830,55.600 217.884 C 55.600 218.938,55.794 219.325,56.400 219.484 C 56.994 219.639,57.200 220.030,57.200 221.000 C 57.200 221.970,57.406 222.361,58.000 222.516 C 58.440 222.631,58.800 223.059,58.800 223.466 C 58.800 223.874,59.145 224.423,59.567 224.687 C 60.081 225.007,60.261 225.443,60.114 226.006 C 59.953 226.625,60.113 226.904,60.719 227.063 C 61.306 227.216,61.619 227.728,61.807 228.839 C 61.968 229.792,62.290 230.400,62.635 230.400 C 62.946 230.400,63.200 230.760,63.200 231.200 C 63.200 231.733,63.467 232.000,64.000 232.000 C 64.583 232.000,64.800 232.267,64.800 232.984 C 64.800 233.526,65.131 234.291,65.536 234.684 C 65.941 235.078,66.385 235.715,66.523 236.100 C 66.662 236.485,67.051 236.800,67.387 236.800 C 67.733 236.800,68.000 237.148,68.000 237.600 C 68.000 238.133,68.267 238.400,68.800 238.400 C 69.324 238.400,69.600 238.667,69.600 239.173 C 69.600 239.598,69.960 240.060,70.400 240.200 C 70.922 240.366,71.200 240.805,71.200 241.464 C 71.200 242.138,71.466 242.545,72.000 242.684 C 72.443 242.800,72.800 243.230,72.800 243.647 C 72.800 244.133,73.083 244.400,73.600 244.400 C 74.133 244.400,74.400 244.667,74.400 245.200 C 74.400 245.733,74.667 246.000,75.200 246.000 C 75.733 246.000,76.000 246.267,76.000 246.800 C 76.000 247.240,76.249 247.600,76.553 247.600 C 76.858 247.600,77.201 247.960,77.316 248.400 C 77.440 248.874,77.862 249.200,78.350 249.200 C 78.933 249.200,79.105 249.383,78.935 249.824 C 78.777 250.236,78.973 250.520,79.511 250.661 C 79.959 250.778,80.416 251.217,80.526 251.637 C 80.635 252.057,80.991 252.400,81.316 252.400 C 81.641 252.400,82.001 252.760,82.116 253.200 C 82.231 253.640,82.593 254.000,82.920 254.000 C 83.247 254.000,83.618 254.270,83.745 254.600 C 83.871 254.930,84.219 255.200,84.518 255.200 C 84.816 255.200,85.483 255.650,86.000 256.200 C 86.517 256.750,87.268 257.200,87.670 257.200 C 88.071 257.200,88.400 257.470,88.400 257.800 C 88.400 258.133,88.756 258.400,89.200 258.400 C 89.733 258.400,90.000 258.667,90.000 259.200 C 90.000 259.717,90.267 260.000,90.753 260.000 C 91.168 260.000,91.597 260.347,91.708 260.771 C 91.847 261.302,92.329 261.583,93.255 261.671 C 94.277 261.769,94.572 261.968,94.482 262.500 C 94.404 262.970,94.624 263.200,95.156 263.200 C 95.595 263.200,96.059 263.555,96.200 264.000 C 96.389 264.595,96.805 264.800,97.827 264.800 C 98.933 264.800,99.200 264.955,99.200 265.600 C 99.200 266.187,99.467 266.400,100.200 266.400 C 100.808 266.400,101.200 266.628,101.200 266.982 C 101.200 267.327,101.754 267.668,102.563 267.819 C 103.432 267.982,103.999 268.352,104.126 268.838 C 104.274 269.403,104.684 269.600,105.716 269.600 C 106.770 269.600,107.157 269.794,107.316 270.400 C 107.476 271.013,107.862 271.200,108.963 271.200 C 109.925 271.200,110.400 271.384,110.400 271.757 C 110.400 272.402,111.252 272.800,112.633 272.800 C 113.216 272.800,113.600 273.033,113.600 273.386 C 113.600 273.789,114.237 274.057,115.634 274.242 C 116.767 274.393,117.761 274.753,117.877 275.056 C 118.002 275.382,118.692 275.600,119.596 275.600 C 120.770 275.600,121.153 275.778,121.316 276.400 C 121.494 277.080,121.862 277.200,123.763 277.200 C 125.733 277.200,126.000 277.295,126.000 278.000 C 126.000 278.729,126.267 278.800,129.000 278.800 C 131.733 278.800,132.000 278.871,132.000 279.600 C 132.000 280.333,132.267 280.400,135.200 280.400 C 138.133 280.400,138.400 280.467,138.400 281.200 C 138.400 281.953,138.667 282.000,142.986 282.000 C 147.162 282.000,147.610 282.071,148.000 282.800 C 148.671 284.055,178.356 284.055,178.684 282.800 C 178.878 282.059,179.230 282.000,183.484 282.000 C 187.738 282.000,188.090 281.941,188.284 281.200 C 188.471 280.485,188.830 280.400,191.647 280.400 C 194.267 280.400,194.935 280.265,195.600 279.600 C 196.206 278.994,196.933 278.800,198.600 278.800 C 200.533 278.800,200.800 278.703,200.800 278.000 C 200.800 277.295,201.067 277.200,203.037 277.200 C 204.938 277.200,205.306 277.080,205.484 276.400 C 205.658 275.737,206.030 275.600,207.659 275.600 C 209.038 275.600,209.694 275.421,209.855 275.000 C 209.982 274.670,210.502 274.400,211.010 274.400 C 212.350 274.400,213.200 273.995,213.200 273.357 C 213.200 272.984,213.675 272.800,214.637 272.800 C 215.738 272.800,216.124 272.613,216.284 272.000 C 216.443 271.394,216.830 271.200,217.884 271.200 C 218.938 271.200,219.325 271.006,219.484 270.400 C 219.640 269.803,220.030 269.600,221.020 269.600 C 221.995 269.600,222.413 269.388,222.600 268.800 C 222.780 268.232,223.205 268.000,224.064 268.000 C 224.938 268.000,225.333 267.778,225.484 267.200 C 225.600 266.757,226.030 266.400,226.447 266.400 C 226.933 266.400,227.200 266.117,227.200 265.600 C 227.200 264.933,227.467 264.800,228.800 264.800 C 230.133 264.800,230.400 264.667,230.400 264.000 C 230.400 263.503,230.667 263.200,231.104 263.200 C 231.491 263.200,232.032 262.840,232.307 262.400 C 232.597 261.935,233.240 261.600,233.841 261.600 C 234.538 261.600,234.943 261.340,235.084 260.800 C 235.200 260.357,235.630 260.000,236.047 260.000 C 236.533 260.000,236.800 259.717,236.800 259.200 C 236.800 258.682,237.067 258.400,237.557 258.400 C 237.974 258.400,238.412 258.147,238.530 257.838 C 238.649 257.528,239.298 257.154,239.973 257.006 C 240.648 256.858,241.200 256.481,241.200 256.168 C 241.200 255.856,241.487 255.600,241.837 255.600 C 242.188 255.600,242.569 255.240,242.684 254.800 C 242.800 254.357,243.230 254.000,243.647 254.000 C 244.133 254.000,244.400 253.717,244.400 253.200 C 244.400 252.667,244.667 252.400,245.200 252.400 C 245.733 252.400,246.000 252.133,246.000 251.600 C 246.000 251.067,246.267 250.800,246.800 250.800 C 247.333 250.800,247.600 250.533,247.600 250.000 C 247.600 249.467,247.867 249.200,248.400 249.200 C 248.933 249.200,249.200 248.933,249.200 248.400 C 249.200 247.867,249.467 247.600,250.000 247.600 C 250.533 247.600,250.800 247.333,250.800 246.800 C 250.800 246.267,251.067 246.000,251.600 246.000 C 252.133 246.000,252.400 245.733,252.400 245.200 C 252.400 244.667,252.667 244.400,253.200 244.400 C 253.717 244.400,254.000 244.133,254.000 243.647 C 254.000 243.230,254.357 242.800,254.800 242.684 C 255.240 242.569,255.600 242.188,255.600 241.837 C 255.600 241.487,255.856 241.200,256.168 241.200 C 256.481 241.200,256.858 240.648,257.006 239.973 C 257.154 239.298,257.528 238.649,257.838 238.530 C 258.147 238.412,258.400 237.974,258.400 237.557 C 258.400 237.067,258.682 236.800,259.200 236.800 C 259.717 236.800,260.000 236.533,260.000 236.047 C 260.000 235.630,260.357 235.200,260.800 235.084 C 261.340 234.943,261.600 234.538,261.600 233.841 C 261.600 233.240,261.935 232.597,262.400 232.307 C 262.840 232.032,263.200 231.491,263.200 231.104 C 263.200 230.667,263.503 230.400,264.000 230.400 C 264.667 230.400,264.800 230.133,264.800 228.800 C 264.800 227.467,264.933 227.200,265.600 227.200 C 266.117 227.200,266.400 226.933,266.400 226.447 C 266.400 226.030,266.757 225.600,267.200 225.484 C 267.778 225.333,268.000 224.938,268.000 224.064 C 268.000 223.205,268.232 222.780,268.800 222.600 C 269.388 222.413,269.600 221.995,269.600 221.020 C 269.600 220.030,269.803 219.640,270.400 219.484 C 271.006 219.325,271.200 218.938,271.200 217.884 C 271.200 216.830,271.394 216.443,272.000 216.284 C 272.613 216.124,272.800 215.738,272.800 214.637 C 272.800 213.675,272.984 213.200,273.357 213.200 C 273.995 213.200,274.400 212.350,274.400 211.010 C 274.400 210.502,274.670 209.982,275.000 209.855 C 275.421 209.694,275.600 209.038,275.600 207.659 C 275.600 206.030,275.737 205.658,276.400 205.484 C 277.080 205.306,277.200 204.938,277.200 203.037 C 277.200 201.067,277.295 200.800,278.000 200.800 C 278.703 200.800,278.800 200.533,278.800 198.600 C 278.800 196.933,278.994 196.206,279.600 195.600 C 280.265 194.935,280.400 194.267,280.400 191.647 C 280.400 188.830,280.485 188.471,281.200 188.284 C 281.941 188.090,282.000 187.738,282.000 183.484 C 282.000 179.230,282.059 178.878,282.800 178.684 C 283.581 178.480,283.600 178.138,283.600 164.099 C 283.600 150.232,283.572 149.698,282.800 149.000 C 282.085 148.353,282.000 147.768,282.000 143.501 C 282.000 139.062,281.944 138.710,281.200 138.516 C 280.490 138.330,280.400 137.970,280.400 135.316 C 280.400 132.662,280.310 132.302,279.600 132.116 C 278.917 131.937,278.800 131.570,278.800 129.615 C 278.800 127.832,278.623 127.163,278.000 126.600 C 277.480 126.130,277.200 125.368,277.200 124.426 C 277.200 123.435,276.947 122.794,276.400 122.400 C 275.792 121.962,275.600 121.365,275.600 119.912 C 275.600 118.479,275.450 118.000,275.000 118.000 C 274.582 118.000,274.400 117.579,274.400 116.614 C 274.400 115.671,274.162 115.101,273.655 114.829 C 273.180 114.575,272.827 113.813,272.681 112.729 C 272.556 111.794,272.195 110.839,271.879 110.608 C 271.563 110.377,271.174 109.594,271.015 108.867 C 270.855 108.141,270.472 107.449,270.162 107.330 C 269.853 107.212,269.600 106.817,269.600 106.453 C 269.600 106.090,269.240 105.568,268.800 105.293 C 268.290 104.974,268.000 104.360,268.000 103.597 C 268.000 102.667,267.822 102.400,267.200 102.400 C 266.548 102.400,266.400 102.133,266.400 100.963 C 266.400 99.862,266.213 99.476,265.600 99.316 C 265.157 99.200,264.800 98.770,264.800 98.353 C 264.800 97.867,264.517 97.600,264.000 97.600 C 263.355 97.600,263.200 97.333,263.200 96.227 C 263.200 95.205,262.995 94.789,262.400 94.600 C 261.960 94.460,261.600 94.071,261.600 93.736 C 261.600 93.400,261.240 93.031,260.800 92.916 C 260.226 92.766,260.000 92.370,260.000 91.516 C 260.000 90.662,259.774 90.266,259.200 90.116 C 258.757 90.000,258.400 89.570,258.400 89.153 C 258.400 88.739,258.151 88.400,257.847 88.400 C 257.542 88.400,257.199 88.040,257.084 87.600 C 256.969 87.160,256.588 86.800,256.237 86.800 C 255.867 86.800,255.600 86.465,255.600 86.000 C 255.600 85.467,255.333 85.200,254.800 85.200 C 254.267 85.200,254.000 84.933,254.000 84.400 C 254.000 83.867,253.733 83.600,253.200 83.600 C 252.684 83.600,252.400 83.333,252.400 82.849 C 252.400 81.981,251.468 81.066,251.030 81.503 C 250.867 81.667,250.787 81.620,250.852 81.400 C 251.046 80.744,250.017 79.200,249.386 79.200 C 249.064 79.200,248.821 79.065,248.847 78.900 C 248.977 78.080,248.743 77.600,248.214 77.600 C 247.892 77.600,247.449 77.265,247.229 76.855 C 247.010 76.445,246.284 75.883,245.615 75.606 C 244.947 75.329,244.400 74.945,244.400 74.751 C 244.400 74.558,244.040 74.400,243.600 74.400 C 243.067 74.400,242.800 74.133,242.800 73.600 C 242.800 73.160,242.551 72.800,242.247 72.800 C 241.942 72.800,241.599 72.440,241.484 72.000 C 241.369 71.560,241.009 71.200,240.684 71.200 C 240.359 71.200,239.999 70.840,239.884 70.400 C 239.769 69.960,239.400 69.600,239.064 69.600 C 238.729 69.600,238.340 69.240,238.200 68.800 C 238.038 68.290,237.595 68.000,236.976 68.000 C 236.440 68.000,235.784 67.643,235.507 67.200 C 235.232 66.760,234.691 66.400,234.304 66.400 C 233.867 66.400,233.600 66.097,233.600 65.600 C 233.600 65.156,233.333 64.800,233.000 64.800 C 232.670 64.800,232.040 64.440,231.600 64.000 C 231.160 63.560,230.350 63.200,229.800 63.200 C 229.060 63.200,228.800 62.988,228.800 62.382 C 228.800 61.882,228.576 61.611,228.222 61.682 C 227.905 61.747,227.400 61.468,227.100 61.063 C 226.801 60.657,226.069 60.297,225.474 60.263 C 224.833 60.226,224.300 59.914,224.169 59.500 C 224.021 59.037,223.537 58.800,222.736 58.800 C 221.862 58.800,221.467 58.578,221.316 58.000 C 221.152 57.373,220.770 57.200,219.553 57.200 C 218.267 57.200,218.000 57.063,218.000 56.400 C 218.000 55.733,217.733 55.600,216.400 55.600 C 215.067 55.600,214.800 55.467,214.800 54.800 C 214.800 54.133,214.533 54.000,213.200 54.000 C 211.867 54.000,211.600 53.867,211.600 53.200 C 211.600 52.533,211.333 52.400,210.000 52.400 C 208.933 52.400,208.133 52.133,207.600 51.600 C 207.127 51.127,206.267 50.800,205.496 50.800 C 204.626 50.800,204.026 50.534,203.693 50.000 C 203.314 49.393,202.760 49.200,201.397 49.200 C 200.133 49.200,199.363 48.963,198.800 48.400 C 198.167 47.767,197.467 47.600,195.447 47.600 C 193.230 47.600,192.866 47.495,192.684 46.800 C 192.494 46.074,192.138 46.000,188.837 46.000 C 185.997 46.000,185.200 45.878,185.200 45.443 C 185.200 44.649,184.090 44.490,178.025 44.415 C 173.568 44.360,172.569 44.237,172.173 43.696 C 171.693 43.039,159.771 42.572,156.000 43.063 M174.896 63.808 C 177.039 63.916,179.469 64.257,180.296 64.567 C 181.123 64.877,182.937 65.235,184.328 65.362 C 185.718 65.489,187.243 65.865,187.717 66.197 C 188.190 66.529,189.306 66.800,190.195 66.800 C 191.084 66.800,192.484 67.160,193.304 67.600 C 194.125 68.040,195.205 68.400,195.704 68.400 C 196.204 68.400,197.284 68.760,198.104 69.200 C 198.925 69.640,199.868 70.000,200.200 70.000 C 200.532 70.000,201.475 70.360,202.296 70.800 C 203.116 71.240,204.032 71.600,204.331 71.600 C 204.630 71.600,205.331 71.960,205.891 72.400 C 206.450 72.840,207.219 73.200,207.600 73.200 C 207.981 73.200,208.750 73.560,209.309 74.000 C 209.869 74.440,210.530 74.800,210.779 74.800 C 211.028 74.800,211.720 75.122,212.316 75.516 C 214.037 76.653,214.909 77.147,216.300 77.774 C 217.015 78.096,217.600 78.548,217.600 78.780 C 217.600 79.011,217.800 79.200,218.044 79.200 C 218.662 79.200,222.400 81.660,222.400 82.067 C 222.400 82.250,222.599 82.400,222.842 82.400 C 223.085 82.400,223.850 82.849,224.542 83.397 C 227.282 85.568,228.556 86.647,229.624 87.700 C 230.237 88.305,230.826 88.800,230.933 88.800 C 231.104 88.800,235.415 93.093,239.375 97.207 C 240.120 97.980,241.548 99.690,242.549 101.007 C 243.550 102.323,244.611 103.670,244.907 104.000 C 245.858 105.059,249.184 110.221,250.062 112.000 C 250.333 112.550,250.793 113.288,251.085 113.640 C 251.906 114.631,255.200 121.234,255.200 121.890 C 255.200 122.211,255.560 122.931,256.000 123.491 C 256.440 124.050,256.800 124.874,256.800 125.322 C 256.800 125.770,257.078 126.444,257.417 126.819 C 257.757 127.194,258.141 128.198,258.271 129.050 C 258.402 129.903,258.734 130.870,259.011 131.200 C 259.287 131.530,259.643 132.610,259.802 133.600 C 259.961 134.590,260.262 135.613,260.472 135.873 C 260.681 136.133,261.024 137.559,261.234 139.041 C 261.444 140.524,261.814 141.976,262.056 142.268 C 262.298 142.559,262.630 144.655,262.795 146.925 C 262.959 149.196,263.342 151.491,263.647 152.027 C 264.552 153.619,264.427 173.149,263.495 175.714 C 263.113 176.767,262.800 178.678,262.800 179.962 C 262.800 181.246,262.440 183.423,262.000 184.800 C 261.560 186.177,261.194 187.866,261.186 188.552 C 261.179 189.238,260.825 190.520,260.400 191.400 C 259.975 192.280,259.621 193.455,259.614 194.011 C 259.606 194.567,259.353 195.377,259.050 195.811 C 258.748 196.245,258.374 197.355,258.219 198.277 C 258.064 199.199,257.682 200.166,257.369 200.426 C 257.056 200.686,256.800 201.157,256.800 201.474 C 256.800 202.312,253.581 209.232,251.810 212.200 C 251.285 213.080,250.568 214.340,250.217 215.000 C 249.105 217.090,248.548 217.974,247.864 218.729 C 247.499 219.133,247.200 219.665,247.200 219.912 C 247.200 220.158,246.975 220.504,246.699 220.680 C 246.424 220.856,245.959 221.467,245.665 222.037 C 245.372 222.608,244.562 223.737,243.866 224.547 C 243.170 225.358,242.240 226.471,241.800 227.022 C 237.284 232.676,230.903 238.975,226.873 241.754 C 225.953 242.389,225.200 243.034,225.200 243.187 C 225.200 243.340,224.255 244.071,223.100 244.810 C 221.945 245.550,220.910 246.256,220.800 246.379 C 220.608 246.593,218.270 248.105,216.600 249.094 C 210.414 252.757,205.701 255.183,204.749 255.193 C 204.391 255.197,203.883 255.458,203.621 255.774 C 203.359 256.090,202.575 256.474,201.878 256.627 C 201.182 256.780,200.249 257.138,199.806 257.423 C 199.363 257.708,198.280 258.070,197.400 258.227 C 196.520 258.385,195.445 258.758,195.011 259.057 C 194.577 259.356,193.903 259.600,193.513 259.600 C 193.122 259.600,191.767 259.945,190.502 260.367 C 189.236 260.788,187.300 261.255,186.200 261.404 C 185.100 261.553,183.987 261.850,183.727 262.064 C 183.467 262.278,181.307 262.603,178.927 262.785 C 176.547 262.968,174.060 263.335,173.400 263.602 C 171.680 264.297,154.530 264.363,153.307 263.679 C 152.816 263.404,150.656 263.072,148.507 262.940 C 146.358 262.808,144.060 262.466,143.400 262.179 C 142.740 261.892,141.210 261.534,140.000 261.382 C 138.790 261.230,137.350 260.879,136.800 260.600 C 136.250 260.322,135.052 259.970,134.137 259.818 C 133.222 259.666,132.142 259.291,131.737 258.984 C 131.332 258.677,130.543 258.420,129.985 258.413 C 129.426 258.406,128.263 258.040,127.400 257.600 C 126.537 257.160,125.533 256.800,125.169 256.800 C 124.806 256.800,124.050 256.440,123.491 256.000 C 122.931 255.560,122.195 255.200,121.854 255.200 C 121.222 255.200,114.689 251.902,113.600 251.033 C 113.270 250.770,112.550 250.333,112.000 250.062 C 110.623 249.382,109.926 248.951,105.797 246.224 C 101.976 243.701,101.942 243.674,99.267 241.202 C 98.314 240.321,97.435 239.600,97.314 239.600 C 96.781 239.600,87.200 229.984,87.200 229.450 C 87.200 229.327,86.615 228.636,85.900 227.913 C 84.693 226.694,83.570 225.236,82.600 223.632 C 82.380 223.268,81.978 222.707,81.706 222.385 C 79.887 220.230,79.200 219.204,79.200 218.642 C 79.200 218.289,79.052 218.000,78.871 218.000 C 78.421 218.000,76.450 214.937,76.162 213.790 C 76.033 213.277,75.674 212.761,75.364 212.641 C 75.054 212.522,74.800 212.084,74.800 211.666 C 74.800 211.249,74.451 210.464,74.025 209.922 C 73.598 209.380,73.131 208.463,72.986 207.885 C 72.840 207.306,72.469 206.623,72.161 206.367 C 71.852 206.111,71.600 205.606,71.600 205.245 C 71.600 204.884,71.240 203.916,70.800 203.096 C 70.360 202.275,69.999 201.287,69.997 200.901 C 69.996 200.516,69.637 199.660,69.200 199.000 C 68.763 198.340,68.404 197.394,68.403 196.899 C 68.401 196.403,68.040 195.325,67.600 194.504 C 67.160 193.684,66.794 192.289,66.787 191.406 C 66.780 190.523,66.521 189.465,66.210 189.055 C 65.900 188.646,65.533 187.296,65.394 186.055 C 65.254 184.815,64.885 183.124,64.573 182.297 C 62.728 177.420,62.726 150.606,64.569 145.703 C 64.880 144.876,65.249 143.227,65.389 142.037 C 65.529 140.848,65.904 139.372,66.222 138.757 C 66.540 138.143,66.800 137.043,66.800 136.314 C 66.800 135.585,67.160 134.316,67.600 133.496 C 68.040 132.675,68.401 131.597,68.401 131.101 C 68.402 130.606,68.735 129.656,69.140 128.992 C 69.545 128.327,70.002 127.112,70.156 126.292 C 70.310 125.471,70.587 124.800,70.771 124.800 C 70.955 124.800,71.309 123.990,71.558 123.000 C 71.808 122.010,72.175 121.200,72.374 121.200 C 72.573 121.200,72.852 120.672,72.994 120.028 C 73.136 119.383,73.498 118.650,73.800 118.400 C 74.102 118.150,74.467 117.405,74.612 116.745 C 74.757 116.086,75.128 115.449,75.438 115.330 C 75.747 115.212,76.000 114.774,76.000 114.357 C 76.000 113.941,76.315 113.283,76.700 112.895 C 77.085 112.506,77.627 111.741,77.904 111.195 C 78.182 110.648,78.722 109.727,79.104 109.149 C 81.057 106.199,83.065 103.333,83.600 102.732 C 84.553 101.661,85.276 100.789,87.211 98.378 C 89.612 95.385,95.521 89.500,98.561 87.075 C 99.902 86.004,101.144 84.874,101.320 84.564 C 101.496 84.254,101.901 84.000,102.220 84.000 C 102.539 84.000,102.800 83.838,102.800 83.640 C 102.800 83.306,104.439 82.139,106.674 80.878 C 107.183 80.591,107.600 80.198,107.600 80.005 C 107.600 79.812,107.989 79.531,108.464 79.380 C 108.939 79.229,110.334 78.407,111.564 77.553 C 112.794 76.700,114.096 76.001,114.457 76.001 C 114.819 76.000,115.212 75.747,115.330 75.438 C 115.449 75.128,116.086 74.757,116.745 74.612 C 117.405 74.467,118.150 74.102,118.400 73.800 C 118.650 73.498,119.383 73.136,120.028 72.994 C 120.672 72.852,121.200 72.578,121.200 72.384 C 121.200 72.190,121.960 71.826,122.888 71.576 C 123.817 71.326,124.937 70.869,125.377 70.561 C 125.818 70.252,126.543 69.999,126.989 69.997 C 127.435 69.996,128.340 69.637,129.000 69.200 C 129.660 68.763,130.606 68.404,131.101 68.403 C 131.597 68.401,132.675 68.040,133.496 67.600 C 134.316 67.160,135.672 66.800,136.508 66.800 C 137.344 66.800,138.439 66.531,138.942 66.201 C 139.444 65.872,141.013 65.496,142.428 65.366 C 143.842 65.235,145.900 64.845,147.000 64.498 C 150.324 63.450,161.998 63.161,174.896 63.808 M254.116 251.600 C 254.000 252.043,253.570 252.400,253.153 252.400 C 252.667 252.400,252.400 252.683,252.400 253.200 C 252.400 253.733,252.133 254.000,251.600 254.000 C 250.933 254.000,250.800 254.267,250.800 255.600 C 250.800 256.701,250.626 257.200,250.243 257.200 C 249.449 257.200,249.200 258.107,249.200 261.000 C 249.200 263.893,249.449 264.800,250.243 264.800 C 250.616 264.800,250.800 265.275,250.800 266.237 C 250.800 267.338,250.987 267.724,251.600 267.884 C 252.043 268.000,252.400 268.430,252.400 268.847 C 252.400 269.333,252.683 269.600,253.200 269.600 C 253.665 269.600,254.000 269.867,254.000 270.237 C 254.000 270.588,254.360 270.969,254.800 271.084 C 255.240 271.199,255.600 271.559,255.600 271.884 C 255.600 272.209,255.943 272.565,256.363 272.674 C 256.783 272.784,257.216 273.217,257.326 273.637 C 257.435 274.057,257.812 274.400,258.163 274.400 C 258.513 274.400,258.800 274.670,258.800 275.000 C 258.800 275.330,259.115 275.605,259.500 275.612 C 260.134 275.623,260.138 275.660,259.548 276.005 C 259.066 276.287,258.821 277.285,258.610 279.820 C 258.412 282.194,258.150 283.321,257.762 283.470 C 256.948 283.782,256.944 291.200,257.758 291.200 C 258.172 291.200,258.388 292.126,258.600 294.804 C 258.805 297.393,259.057 298.504,259.495 298.749 C 260.048 299.058,260.193 299.561,260.349 301.700 C 260.377 302.085,260.670 302.400,261.000 302.400 C 261.330 302.400,261.600 302.670,261.600 303.000 C 261.600 303.330,261.960 303.960,262.400 304.400 C 262.840 304.840,263.200 305.487,263.200 305.837 C 263.200 306.188,263.560 306.569,264.000 306.684 C 264.443 306.800,264.800 307.230,264.800 307.647 C 264.800 308.133,265.083 308.400,265.600 308.400 C 266.133 308.400,266.400 308.667,266.400 309.200 C 266.400 309.733,266.667 310.000,267.200 310.000 C 267.733 310.000,268.000 310.267,268.000 310.800 C 268.000 311.333,268.267 311.600,268.800 311.600 C 269.333 311.600,269.600 311.867,269.600 312.400 C 269.600 312.933,269.867 313.200,270.400 313.200 C 270.933 313.200,271.200 313.467,271.200 314.000 C 271.200 314.533,271.467 314.800,272.000 314.800 C 272.533 314.800,272.800 315.067,272.800 315.600 C 272.800 316.133,273.067 316.400,273.600 316.400 C 274.133 316.400,274.400 316.667,274.400 317.200 C 274.400 317.733,274.667 318.000,275.200 318.000 C 275.733 318.000,276.000 318.267,276.000 318.800 C 276.000 319.240,276.258 319.600,276.573 319.600 C 276.888 319.600,277.260 319.960,277.400 320.400 C 277.540 320.840,277.912 321.200,278.227 321.200 C 278.542 321.200,278.800 321.458,278.800 321.773 C 278.800 322.088,279.160 322.460,279.600 322.600 C 280.040 322.740,280.400 323.100,280.400 323.400 C 280.400 323.700,280.760 324.060,281.200 324.200 C 281.640 324.340,282.000 324.712,282.000 325.027 C 282.000 325.342,282.360 325.600,282.800 325.600 C 283.333 325.600,283.600 325.867,283.600 326.400 C 283.600 326.933,283.867 327.200,284.400 327.200 C 284.933 327.200,285.200 327.467,285.200 328.000 C 285.200 328.533,285.467 328.800,286.000 328.800 C 286.533 328.800,286.800 329.067,286.800 329.600 C 286.800 330.133,287.067 330.400,287.600 330.400 C 288.133 330.400,288.400 330.667,288.400 331.200 C 288.400 331.733,288.667 332.000,289.200 332.000 C 289.733 332.000,290.000 332.267,290.000 332.800 C 290.000 333.333,290.267 333.600,290.800 333.600 C 291.333 333.600,291.600 333.867,291.600 334.400 C 291.600 334.933,291.867 335.200,292.400 335.200 C 292.933 335.200,293.200 335.467,293.200 336.000 C 293.200 336.440,293.357 336.800,293.550 336.800 C 294.034 336.800,297.600 340.257,297.600 340.726 C 297.600 340.935,297.960 341.201,298.400 341.316 C 298.840 341.431,299.200 341.812,299.200 342.163 C 299.200 342.533,299.535 342.800,300.000 342.800 C 300.533 342.800,300.800 343.067,300.800 343.600 C 300.800 344.133,301.067 344.400,301.600 344.400 C 302.133 344.400,302.400 344.667,302.400 345.200 C 302.400 345.733,302.667 346.000,303.200 346.000 C 303.733 346.000,304.000 346.267,304.000 346.800 C 304.000 347.333,304.267 347.600,304.800 347.600 C 305.333 347.600,305.600 347.867,305.600 348.400 C 305.600 348.917,305.867 349.200,306.353 349.200 C 306.770 349.200,307.200 349.557,307.316 350.000 C 307.475 350.607,307.862 350.800,308.918 350.800 C 309.999 350.800,310.299 350.957,310.256 351.500 C 310.220 351.943,310.530 352.247,311.100 352.328 C 311.595 352.398,312.000 352.694,312.000 352.985 C 312.000 353.578,312.860 354.000,314.070 354.000 C 314.512 354.000,315.331 354.360,315.891 354.800 C 316.699 355.436,317.514 355.600,319.854 355.600 C 322.105 355.600,322.800 355.731,322.800 356.157 C 322.800 356.961,323.711 357.200,326.783 357.200 C 330.246 357.200,332.000 356.847,332.000 356.150 C 332.000 355.736,332.690 355.600,334.797 355.600 C 337.160 355.600,337.671 355.476,338.093 354.800 C 338.431 354.258,339.026 354.000,339.934 354.000 C 340.938 354.000,341.327 353.799,341.484 353.200 C 341.641 352.599,342.030 352.400,343.047 352.400 C 344.133 352.400,344.400 352.242,344.400 351.600 C 344.400 351.067,344.667 350.800,345.200 350.800 C 345.733 350.800,346.000 350.533,346.000 350.000 C 346.000 349.417,346.267 349.200,346.984 349.200 C 347.526 349.200,348.158 348.975,348.390 348.700 C 348.623 348.425,349.260 347.696,349.806 347.079 C 350.353 346.463,350.800 345.608,350.800 345.179 C 350.800 344.667,351.074 344.400,351.600 344.400 C 352.133 344.400,352.400 344.133,352.400 343.600 C 352.400 343.160,352.662 342.800,352.982 342.800 C 353.338 342.800,353.673 342.217,353.844 341.300 C 353.999 340.475,354.402 339.597,354.740 339.348 C 355.151 339.047,355.412 338.014,355.525 336.248 C 355.645 334.360,355.850 333.600,356.239 333.600 C 357.498 333.600,357.598 321.564,356.351 320.141 C 355.994 319.733,355.607 318.511,355.491 317.424 C 355.369 316.277,355.012 315.252,354.641 314.980 C 354.288 314.723,354.000 314.031,354.000 313.443 C 354.000 312.840,353.726 312.270,353.369 312.133 C 353.023 312.000,352.570 311.447,352.364 310.905 C 352.121 310.266,351.779 309.999,351.394 310.147 C 350.937 310.322,350.800 310.046,350.800 308.950 C 350.800 307.862,350.611 307.476,350.000 307.316 C 349.557 307.200,349.200 306.770,349.200 306.353 C 349.200 305.867,348.917 305.600,348.400 305.600 C 347.867 305.600,347.600 305.333,347.600 304.800 C 347.600 304.267,347.333 304.000,346.800 304.000 C 346.267 304.000,346.000 303.733,346.000 303.200 C 346.000 302.667,345.733 302.400,345.200 302.400 C 344.667 302.400,344.400 302.133,344.400 301.600 C 344.400 301.067,344.133 300.800,343.600 300.800 C 343.067 300.800,342.800 300.533,342.800 300.000 C 342.800 299.535,342.533 299.200,342.163 299.200 C 341.812 299.200,341.431 298.840,341.316 298.400 C 341.201 297.960,340.932 297.600,340.719 297.600 C 340.505 297.600,339.380 296.610,338.217 295.400 C 337.054 294.190,335.900 293.200,335.652 293.200 C 335.403 293.200,335.200 292.840,335.200 292.400 C 335.200 291.867,334.933 291.600,334.400 291.600 C 333.867 291.600,333.600 291.333,333.600 290.800 C 333.600 290.267,333.333 290.000,332.800 290.000 C 332.267 290.000,332.000 289.733,332.000 289.200 C 332.000 288.667,331.733 288.400,331.200 288.400 C 330.667 288.400,330.400 288.133,330.400 287.600 C 330.400 287.067,330.133 286.800,329.600 286.800 C 329.067 286.800,328.800 286.533,328.800 286.000 C 328.800 285.467,328.533 285.200,328.000 285.200 C 327.467 285.200,327.200 284.933,327.200 284.400 C 327.200 283.867,326.933 283.600,326.400 283.600 C 325.867 283.600,325.600 283.333,325.600 282.800 C 325.600 282.360,325.406 282.000,325.168 282.000 C 324.930 282.000,323.420 280.650,321.813 279.000 C 320.205 277.350,318.689 276.000,318.445 276.000 C 318.200 276.000,318.000 275.640,318.000 275.200 C 318.000 274.667,317.733 274.400,317.200 274.400 C 316.667 274.400,316.400 274.133,316.400 273.600 C 316.400 273.067,316.133 272.800,315.600 272.800 C 315.067 272.800,314.800 272.533,314.800 272.000 C 314.800 271.467,314.533 271.200,314.000 271.200 C 313.467 271.200,313.200 270.933,313.200 270.400 C 313.200 269.867,312.933 269.600,312.400 269.600 C 311.867 269.600,311.600 269.333,311.600 268.800 C 311.600 268.267,311.333 268.000,310.800 268.000 C 310.253 268.000,310.000 267.733,310.000 267.157 C 310.000 266.565,309.818 266.384,309.387 266.550 C 308.980 266.706,308.648 266.452,308.397 265.792 C 308.190 265.247,307.745 264.800,307.410 264.800 C 307.074 264.800,306.800 264.538,306.800 264.218 C 306.800 263.873,306.246 263.532,305.437 263.381 C 304.568 263.218,304.001 262.848,303.874 262.362 C 303.765 261.943,303.371 261.600,302.999 261.600 C 302.628 261.600,301.812 261.236,301.188 260.791 C 300.563 260.347,299.905 260.008,299.726 260.039 C 298.661 260.222,297.600 259.922,297.600 259.438 C 297.600 258.114,278.342 258.044,277.376 259.366 C 276.790 260.167,275.757 260.186,275.455 259.400 C 275.329 259.070,274.970 258.800,274.659 258.800 C 274.348 258.800,273.999 258.440,273.884 258.000 C 273.769 257.560,273.388 257.200,273.037 257.200 C 272.687 257.200,272.400 256.913,272.400 256.563 C 272.400 256.212,272.040 255.831,271.600 255.716 C 271.160 255.601,270.800 255.241,270.800 254.916 C 270.800 254.591,270.440 254.231,270.000 254.116 C 269.560 254.001,269.200 253.677,269.200 253.396 C 269.200 252.826,268.330 252.400,267.167 252.400 C 266.667 252.400,266.400 252.122,266.400 251.600 C 266.400 250.835,266.133 250.800,260.363 250.800 C 254.662 250.800,254.313 250.845,254.116 251.600 M291.579 278.581 C 291.955 278.921,292.432 279.200,292.638 279.200 C 292.844 279.200,296.688 282.890,301.180 287.399 C 305.672 291.909,309.809 296.020,310.374 296.535 C 310.938 297.049,311.866 297.995,312.435 298.635 C 313.004 299.276,314.084 300.359,314.835 301.043 C 315.586 301.727,317.394 303.527,318.854 305.043 C 320.313 306.559,322.023 308.267,322.654 308.839 C 323.284 309.410,324.347 310.490,325.015 311.239 C 325.683 311.987,326.763 313.066,327.415 313.635 C 328.067 314.205,329.084 315.195,329.675 315.835 C 330.266 316.476,330.986 317.201,331.275 317.446 C 332.248 318.273,335.179 321.596,335.883 322.671 C 337.118 324.555,336.875 330.671,335.486 332.676 C 333.140 336.061,328.347 338.147,325.455 337.042 C 324.530 336.689,323.466 336.400,323.091 336.400 C 322.716 336.400,316.077 330.100,308.337 322.400 C 300.598 314.700,294.128 308.400,293.960 308.400 C 293.792 308.400,293.540 308.040,293.400 307.600 C 293.260 307.160,292.888 306.800,292.573 306.800 C 292.258 306.800,292.000 306.633,292.000 306.429 C 292.000 306.224,291.749 305.819,291.441 305.529 C 286.968 301.295,279.578 293.829,278.824 292.782 C 277.688 291.205,277.168 285.788,277.980 284.000 C 279.085 281.567,281.174 279.200,282.216 279.200 C 282.490 279.200,282.813 278.943,282.934 278.629 C 283.380 277.466,290.305 277.428,291.579 278.581 " stroke="none" fill="#454d55" fill-rule="evenodd"></path><path id="path1" d="M154.105 64.687 C 154.714 64.779,155.614 64.777,156.105 64.682 C 156.597 64.587,156.100 64.511,155.000 64.514 C 153.900 64.517,153.497 64.595,154.105 64.687 M170.905 64.687 C 171.514 64.779,172.414 64.777,172.905 64.682 C 173.397 64.587,172.900 64.511,171.800 64.514 C 170.700 64.517,170.297 64.595,170.905 64.687 M151.106 65.028 C 150.981 65.153,150.006 65.402,148.939 65.581 C 147.289 65.857,147.208 65.908,148.400 65.922 C 149.956 65.940,153.544 64.911,152.167 64.842 C 151.708 64.819,151.231 64.902,151.106 65.028 M174.920 65.214 C 175.316 65.460,176.666 65.730,177.920 65.814 C 179.871 65.944,179.969 65.921,178.600 65.653 C 177.720 65.481,176.370 65.211,175.600 65.053 C 174.480 64.823,174.344 64.855,174.920 65.214 M183.800 66.612 C 185.873 67.358,186.594 67.340,184.854 66.584 C 184.114 66.263,183.214 66.008,182.854 66.018 C 182.494 66.027,182.920 66.295,183.800 66.612 M140.000 67.054 L 138.200 67.603 139.962 67.387 C 141.658 67.179,143.793 66.371,142.400 66.464 C 142.070 66.486,140.990 66.752,140.000 67.054 M191.000 68.362 C 191.880 68.808,192.960 69.171,193.400 69.169 C 193.856 69.167,193.512 68.903,192.600 68.556 C 190.028 67.578,189.272 67.486,191.000 68.362 M130.576 69.787 C 130.149 70.110,129.980 70.375,130.200 70.375 C 130.420 70.375,130.949 70.110,131.376 69.787 C 131.804 69.464,131.973 69.200,131.753 69.200 C 131.533 69.200,131.004 69.464,130.576 69.787 M196.200 70.000 C 196.860 70.437,197.663 70.796,197.985 70.797 C 198.306 70.799,197.863 70.440,197.000 70.000 C 195.001 68.981,194.661 68.981,196.200 70.000 M200.000 71.202 C 200.000 71.540,202.347 72.593,202.566 72.354 C 202.644 72.269,202.098 71.908,201.354 71.551 C 200.609 71.193,200.000 71.037,200.000 71.202 M110.441 79.434 C 109.693 79.965,109.253 80.400,109.463 80.400 C 109.673 80.400,110.455 79.950,111.200 79.400 C 112.935 78.120,112.247 78.151,110.441 79.434 M215.200 78.820 C 216.672 79.819,217.413 80.057,216.456 79.223 C 215.936 78.770,215.306 78.403,215.056 78.406 C 214.805 78.409,214.870 78.596,215.200 78.820 M218.293 80.800 C 218.670 81.240,219.116 81.600,219.285 81.600 C 219.454 81.600,219.284 81.240,218.907 80.800 C 218.530 80.360,218.084 80.000,217.915 80.000 C 217.746 80.000,217.916 80.360,218.293 80.800 M106.703 82.100 C 106.185 82.595,106.040 82.800,106.380 82.556 C 106.721 82.312,107.360 81.912,107.800 81.668 C 108.240 81.424,108.385 81.219,108.122 81.212 C 107.860 81.205,107.221 81.605,106.703 82.100 M220.600 82.400 C 220.998 82.840,221.504 83.200,221.723 83.200 C 221.943 83.200,221.707 82.840,221.200 82.400 C 220.693 81.960,220.187 81.600,220.077 81.600 C 219.966 81.600,220.202 81.960,220.600 82.400 M102.800 84.800 C 101.810 85.667,101.135 86.381,101.300 86.388 C 101.465 86.395,101.929 86.085,102.330 85.700 C 102.732 85.315,103.581 84.595,104.217 84.100 C 104.853 83.605,105.200 83.205,104.987 83.212 C 104.774 83.219,103.790 83.933,102.800 84.800 M222.400 83.328 C 222.400 83.428,223.705 84.547,225.300 85.816 C 230.745 90.145,230.754 90.177,226.657 90.542 C 215.340 91.550,216.636 109.200,228.027 109.200 C 232.929 109.200,236.961 105.538,237.461 100.631 C 237.794 97.355,237.875 97.337,239.988 100.055 C 241.075 101.455,242.333 103.034,242.783 103.563 C 243.232 104.093,243.600 104.659,243.600 104.821 C 243.600 104.982,243.905 105.231,244.278 105.374 C 244.891 105.610,244.897 105.566,244.347 104.917 C 244.013 104.523,242.597 102.781,241.200 101.046 C 238.793 98.057,229.635 88.685,227.998 87.536 C 227.578 87.241,226.147 86.133,224.817 85.073 C 223.488 84.014,222.400 83.229,222.400 83.328 M95.404 91.273 C 93.724 92.854,92.163 94.496,91.934 94.923 C 91.706 95.349,92.302 94.891,93.260 93.904 C 94.217 92.918,95.893 91.275,96.985 90.255 C 98.077 89.235,98.856 88.400,98.715 88.400 C 98.574 88.400,97.085 89.693,95.404 91.273 M89.150 97.700 C 88.488 98.415,87.768 99.360,87.551 99.800 L 87.156 100.600 87.790 99.800 C 88.139 99.360,88.974 98.415,89.645 97.700 C 90.316 96.985,90.750 96.400,90.610 96.400 C 90.470 96.400,89.813 96.985,89.150 97.700 M85.391 102.221 C 84.956 102.755,84.285 103.582,83.900 104.057 C 83.515 104.533,83.206 105.030,83.213 105.161 C 83.220 105.293,83.672 104.860,84.219 104.200 C 84.765 103.540,85.510 102.686,85.874 102.302 C 86.239 101.918,86.457 101.523,86.359 101.426 C 86.262 101.328,85.826 101.686,85.391 102.221 M244.813 106.256 C 244.831 106.744,245.957 108.176,246.161 107.971 C 246.255 107.877,245.987 107.375,245.566 106.856 C 245.145 106.336,244.806 106.066,244.813 106.256 M80.810 108.500 C 80.153 109.280,78.400 112.011,78.400 112.255 C 78.400 112.375,78.040 112.931,77.600 113.491 C 77.160 114.050,76.800 114.699,76.800 114.932 C 76.800 115.165,77.250 114.745,77.800 114.000 C 78.350 113.255,78.800 112.498,78.800 112.318 C 78.800 112.139,79.431 111.094,80.203 109.996 C 81.477 108.183,81.849 107.268,80.810 108.500 M248.012 110.926 C 247.988 111.578,248.840 112.800,249.314 112.794 C 249.649 112.790,249.665 112.696,249.366 112.494 C 249.127 112.332,248.727 111.840,248.478 111.400 C 248.228 110.960,248.019 110.747,248.012 110.926 M249.602 113.656 C 249.601 114.016,249.974 114.736,250.430 115.256 C 250.887 115.775,251.146 115.974,251.006 115.699 C 249.841 113.407,249.605 113.063,249.602 113.656 M251.205 116.600 C 251.205 116.820,251.563 117.540,252.000 118.200 C 252.437 118.860,252.795 119.220,252.795 119.000 C 252.795 118.780,252.437 118.060,252.000 117.400 C 251.563 116.740,251.205 116.380,251.205 116.600 M74.457 119.257 C 74.175 119.709,74.032 120.166,74.140 120.273 C 74.247 120.381,74.544 120.078,74.800 119.600 C 75.405 118.470,75.124 118.190,74.457 119.257 M252.800 119.847 C 252.800 120.067,253.064 120.596,253.387 121.024 C 253.710 121.451,253.975 121.620,253.975 121.400 C 253.975 121.180,253.710 120.651,253.387 120.224 C 253.064 119.796,252.800 119.627,252.800 119.847 M72.800 122.600 C 72.517 122.941,72.376 123.309,72.486 123.419 C 72.596 123.529,72.917 123.341,73.200 123.000 C 73.483 122.659,73.624 122.291,73.514 122.181 C 73.404 122.071,73.083 122.259,72.800 122.600 M254.404 123.400 C 254.405 123.620,254.763 124.340,255.200 125.000 C 256.236 126.564,256.237 126.008,255.201 124.310 C 254.762 123.589,254.404 123.180,254.404 123.400 M256.000 127.107 C 256.000 127.380,256.360 128.275,256.800 129.096 C 257.240 129.916,257.600 130.365,257.600 130.093 C 257.600 129.820,257.240 128.925,256.800 128.104 C 256.360 127.284,256.000 126.835,256.000 127.107 M69.993 129.872 C 69.093 132.207,69.095 132.329,70.007 130.672 C 70.470 129.831,70.788 128.964,70.715 128.744 C 70.641 128.524,70.316 129.031,69.993 129.872 M257.632 131.624 C 257.614 131.966,257.880 132.596,258.222 133.024 C 258.834 133.788,258.838 133.787,258.476 133.000 C 258.274 132.560,258.008 131.930,257.886 131.600 C 257.693 131.082,257.659 131.085,257.632 131.624 M68.559 134.075 C 68.317 134.804,67.991 135.760,67.836 136.200 C 67.680 136.640,67.934 136.312,68.400 135.472 C 68.867 134.632,69.192 133.675,69.124 133.347 C 69.056 133.018,68.802 133.346,68.559 134.075 M248.149 134.027 C 243.282 136.268,241.201 141.424,242.984 146.829 C 244.450 151.273,245.179 164.439,244.366 171.800 C 243.576 178.956,241.037 189.954,239.753 191.789 C 239.449 192.223,239.200 192.833,239.200 193.145 C 239.200 193.706,238.678 194.914,236.582 199.200 C 235.480 201.454,234.923 202.446,232.279 206.861 C 229.299 211.838,224.890 217.222,220.239 221.566 C 219.159 222.575,217.800 223.850,217.220 224.400 C 208.899 232.289,193.025 240.552,182.699 242.368 C 181.433 242.591,180.083 242.936,179.699 243.134 C 179.314 243.332,175.670 243.797,171.600 244.167 C 156.443 245.543,154.600 246.633,154.600 254.222 L 154.600 257.911 156.297 259.924 C 157.439 261.278,157.831 262.011,157.497 262.166 C 157.223 262.293,161.898 262.335,167.886 262.260 C 175.351 262.165,178.946 261.977,179.329 261.659 C 179.635 261.405,181.397 261.003,183.243 260.766 C 185.089 260.530,187.050 260.101,187.600 259.813 C 188.150 259.525,189.590 259.157,190.800 258.995 C 192.010 258.833,193.355 258.453,193.789 258.150 C 194.223 257.848,194.946 257.600,195.395 257.600 C 195.844 257.600,196.839 257.266,197.606 256.859 C 198.373 256.451,199.657 255.996,200.460 255.848 C 201.263 255.700,202.124 255.332,202.374 255.031 C 202.624 254.730,203.434 254.370,204.174 254.231 C 204.914 254.092,205.740 253.714,206.009 253.389 C 206.278 253.065,206.812 252.800,207.195 252.800 C 207.578 252.800,208.350 252.440,208.909 252.000 C 209.469 251.560,210.200 251.200,210.535 251.200 C 210.869 251.200,211.382 250.961,211.675 250.668 C 212.167 250.176,213.024 249.662,215.595 248.320 C 216.141 248.034,216.906 247.485,217.295 247.100 C 217.683 246.715,218.197 246.400,218.437 246.400 C 218.677 246.400,219.352 246.037,219.937 245.593 C 220.522 245.150,221.360 244.518,221.800 244.190 C 222.240 243.862,223.166 243.145,223.858 242.596 C 224.550 242.048,225.207 241.600,225.319 241.600 C 226.219 241.600,241.600 226.237,241.600 225.338 C 241.600 225.170,243.634 222.472,244.600 221.359 C 244.820 221.105,245.221 220.561,245.492 220.149 C 245.762 219.737,246.752 218.229,247.692 216.798 C 248.631 215.367,249.935 213.117,250.588 211.798 C 251.241 210.479,252.006 209.162,252.288 208.871 C 252.570 208.581,252.800 208.018,252.800 207.620 C 252.800 207.223,253.065 206.678,253.389 206.409 C 253.714 206.140,254.092 205.314,254.231 204.574 C 254.370 203.834,254.723 203.030,255.016 202.787 C 255.309 202.544,255.674 201.772,255.828 201.072 C 255.981 200.373,256.443 199.173,256.853 198.406 C 257.264 197.639,257.600 196.685,257.600 196.286 C 257.600 195.887,257.853 195.072,258.161 194.475 C 258.470 193.878,258.850 192.492,259.005 191.395 C 259.160 190.298,259.511 189.040,259.786 188.600 C 260.060 188.160,260.419 186.723,260.583 185.407 C 260.747 184.091,261.126 182.381,261.426 181.607 C 263.122 177.228,263.121 149.991,261.424 145.593 C 261.125 144.819,260.749 143.128,260.587 141.836 C 260.426 140.544,260.049 139.017,259.749 138.443 C 259.450 137.869,259.183 136.680,259.155 135.800 C 259.110 134.350,259.082 134.309,258.853 135.363 C 258.618 136.444,258.559 136.476,258.016 135.820 C 256.162 133.583,251.108 132.665,248.149 134.027 M67.123 139.600 C 66.983 140.370,66.760 141.360,66.628 141.800 C 66.496 142.240,66.671 141.993,67.015 141.251 C 67.360 140.508,67.583 139.518,67.511 139.051 C 67.417 138.445,67.305 138.603,67.123 139.600 M65.466 147.687 C 65.334 148.629,65.115 149.940,64.981 150.600 C 64.799 151.496,64.842 151.649,65.152 151.203 C 65.608 150.548,66.213 146.480,65.902 146.169 C 65.795 146.061,65.599 146.745,65.466 147.687 M64.120 164.000 C 64.120 165.210,64.195 165.705,64.287 165.100 C 64.378 164.495,64.378 163.505,64.287 162.900 C 64.195 162.295,64.120 162.790,64.120 164.000 M64.493 174.800 C 64.493 175.570,64.575 175.885,64.676 175.500 C 64.776 175.115,64.776 174.485,64.676 174.100 C 64.575 173.715,64.493 174.030,64.493 174.800 M65.022 177.600 C 65.895 182.039,65.972 182.270,65.773 179.847 C 65.667 178.553,65.393 177.203,65.164 176.847 C 64.853 176.365,64.817 176.557,65.022 177.600 M66.418 185.620 C 66.427 185.719,66.700 186.700,67.024 187.800 L 67.614 189.800 67.386 188.000 C 67.261 187.010,66.988 186.029,66.780 185.820 C 66.571 185.611,66.408 185.521,66.418 185.620 M67.749 191.400 C 68.182 193.145,69.165 195.361,69.169 194.600 C 69.171 194.160,68.808 193.080,68.362 192.200 C 67.916 191.320,67.640 190.960,67.749 191.400 M69.200 196.247 C 69.200 196.467,69.464 196.996,69.787 197.424 C 70.110 197.851,70.375 198.020,70.375 197.800 C 70.375 197.580,70.110 197.051,69.787 196.624 C 69.464 196.196,69.200 196.027,69.200 196.247 M72.884 205.003 C 73.040 205.245,73.344 205.883,73.559 206.422 C 73.806 207.040,73.959 207.159,73.975 206.744 C 73.989 206.384,73.685 205.745,73.300 205.325 C 72.915 204.906,72.728 204.760,72.884 205.003 M76.356 212.077 C 77.528 214.313,78.797 216.224,78.799 215.754 C 78.799 215.509,78.465 214.879,78.055 214.354 C 77.645 213.829,77.188 213.011,77.040 212.536 C 76.891 212.061,76.520 211.466,76.216 211.213 C 75.837 210.899,75.881 211.170,76.356 212.077 M84.396 224.394 C 85.090 225.271,85.867 226.118,86.123 226.276 C 86.378 226.434,85.893 225.716,85.045 224.681 C 84.197 223.647,83.420 222.800,83.318 222.800 C 83.216 222.800,83.701 223.518,84.396 224.394 M94.800 236.068 C 95.802 237.045,96.310 237.225,95.818 236.429 C 95.673 236.195,95.160 235.799,94.678 235.549 C 93.883 235.136,93.894 235.185,94.800 236.068 M105.633 244.921 C 105.725 244.988,106.340 245.358,107.000 245.745 L 108.200 246.447 107.256 245.624 C 106.736 245.171,106.121 244.800,105.889 244.800 C 105.657 244.800,105.542 244.854,105.633 244.921 M110.833 248.104 C 110.925 248.162,111.405 248.550,111.900 248.966 C 112.395 249.383,112.800 249.619,112.800 249.491 C 112.800 249.087,111.563 248.000,111.105 248.000 C 110.864 248.000,110.742 248.047,110.833 248.104 M117.400 252.000 C 118.060 252.437,118.780 252.795,119.000 252.795 C 119.220 252.795,118.860 252.437,118.200 252.000 C 117.540 251.563,116.820 251.205,116.600 251.205 C 116.380 251.205,116.740 251.563,117.400 252.000 M120.224 253.387 C 120.651 253.710,121.180 253.975,121.400 253.975 C 121.620 253.975,121.451 253.710,121.024 253.387 C 120.596 253.064,120.067 252.800,119.847 252.800 C 119.627 252.800,119.796 253.064,120.224 253.387 M123.600 254.684 C 123.930 254.805,124.505 255.169,124.877 255.493 C 125.249 255.817,125.789 255.988,126.077 255.873 C 126.438 255.728,126.398 255.653,125.949 255.632 C 125.591 255.614,125.074 255.330,124.800 255.000 C 124.526 254.670,124.009 254.414,123.651 254.432 C 123.107 254.458,123.098 254.499,123.600 254.684 M128.504 256.800 C 129.325 257.240,130.220 257.600,130.493 257.600 C 130.765 257.600,130.316 257.240,129.496 256.800 C 128.675 256.360,127.780 256.000,127.507 256.000 C 127.235 256.000,127.684 256.360,128.504 256.800 M132.000 257.886 C 132.330 258.008,132.960 258.274,133.400 258.476 C 134.187 258.838,134.188 258.834,133.424 258.222 C 132.996 257.880,132.366 257.614,132.024 257.632 C 131.485 257.659,131.482 257.693,132.000 257.886 M137.800 259.485 C 138.240 259.591,138.771 259.840,138.980 260.039 C 139.189 260.237,139.549 260.394,139.780 260.387 C 140.011 260.380,139.851 260.110,139.424 259.787 C 138.996 259.464,138.276 259.221,137.824 259.246 C 137.020 259.292,137.020 259.297,137.800 259.485 M145.600 261.387 C 147.717 262.094,148.319 262.158,147.780 261.620 C 147.571 261.412,146.590 261.138,145.600 261.013 L 143.800 260.785 145.600 261.387 M150.300 262.282 C 150.795 262.378,151.605 262.378,152.100 262.282 C 152.595 262.187,152.190 262.109,151.200 262.109 C 150.210 262.109,149.805 262.187,150.300 262.282 M283.824 279.413 C 283.396 279.736,283.227 280.000,283.447 280.000 C 283.667 280.000,284.196 279.736,284.624 279.413 C 285.051 279.090,285.220 278.825,285.000 278.825 C 284.780 278.825,284.251 279.090,283.824 279.413 M290.600 279.656 C 291.565 280.150,300.537 288.761,313.192 301.338 C 324.738 312.812,333.378 321.327,332.392 320.261 C 331.407 319.194,322.020 309.757,311.533 299.288 C 294.439 282.224,290.768 278.831,289.400 278.834 C 289.180 278.835,289.720 279.204,290.600 279.656 M280.093 282.300 C 278.960 283.936,278.622 284.745,279.549 283.600 C 279.994 283.050,280.638 282.285,280.979 281.900 C 281.321 281.515,281.432 281.200,281.227 281.200 C 281.022 281.200,280.512 281.695,280.093 282.300 M278.531 287.400 C 278.533 288.940,278.605 289.521,278.692 288.691 C 278.779 287.861,278.777 286.601,278.689 285.891 C 278.600 285.181,278.529 285.860,278.531 287.400 M286.800 299.717 C 287.130 300.003,287.647 300.498,287.949 300.818 C 288.419 301.316,288.435 301.277,288.060 300.547 C 287.819 300.078,287.302 299.583,286.911 299.446 C 286.292 299.230,286.278 299.265,286.800 299.717 M293.600 306.147 C 293.600 306.484,299.926 312.800,300.264 312.800 C 300.409 312.800,299.824 312.106,298.964 311.257 C 298.104 310.409,296.545 308.855,295.500 307.805 C 294.455 306.754,293.600 306.008,293.600 306.147 M334.000 322.583 C 334.000 322.743,334.360 323.331,334.800 323.891 C 335.240 324.450,335.600 324.777,335.600 324.617 C 335.600 324.457,335.240 323.869,334.800 323.309 C 334.360 322.750,334.000 322.423,334.000 322.583 M322.174 334.358 C 322.323 334.599,322.816 334.995,323.271 335.238 C 323.862 335.554,324.020 335.556,323.826 335.242 C 323.677 335.001,323.184 334.605,322.729 334.362 C 322.138 334.046,321.980 334.044,322.174 334.358 M331.144 334.823 C 330.250 335.602,330.246 335.623,331.078 335.220 C 331.560 334.987,332.066 334.617,332.201 334.398 C 332.595 333.762,332.163 333.935,331.144 334.823 M325.907 335.890 C 326.626 335.979,327.706 335.977,328.307 335.886 C 328.908 335.795,328.320 335.722,327.000 335.724 C 325.680 335.726,325.188 335.801,325.907 335.890 " stroke="none" fill="#adf7d2" fill-rule="evenodd"></path><path id="path2" d="M154.600 64.790 C 153.280 64.975,151.571 65.323,150.803 65.563 C 150.034 65.804,148.393 66.000,147.155 66.000 C 145.917 66.000,143.777 66.360,142.400 66.800 C 141.023 67.240,139.334 67.606,138.648 67.614 C 137.962 67.621,136.680 67.975,135.800 68.400 C 134.920 68.825,133.794 69.179,133.299 69.186 C 132.803 69.194,131.725 69.560,130.904 70.000 C 130.084 70.440,128.936 70.800,128.355 70.800 C 127.774 70.800,127.078 71.065,126.809 71.389 C 126.540 71.714,125.714 72.092,124.974 72.231 C 124.234 72.370,123.420 72.735,123.165 73.042 C 122.910 73.349,122.499 73.606,122.251 73.613 C 122.003 73.619,120.900 74.068,119.800 74.609 C 118.700 75.150,117.594 75.594,117.343 75.596 C 117.091 75.598,116.791 75.847,116.675 76.149 C 116.559 76.450,115.985 76.818,115.398 76.965 C 114.811 77.112,114.122 77.408,113.866 77.624 C 112.739 78.570,109.757 80.386,109.320 80.393 C 109.056 80.397,108.696 80.626,108.520 80.901 C 108.344 81.177,107.394 81.942,106.408 82.601 C 104.343 83.983,103.379 84.717,102.340 85.700 C 101.933 86.085,101.480 86.400,101.334 86.400 C 101.001 86.400,100.918 86.478,94.600 92.731 C 88.946 98.327,86.400 101.038,86.400 101.461 C 86.400 101.611,86.126 102.018,85.791 102.366 C 83.582 104.664,78.764 111.875,77.016 115.500 C 76.671 116.215,76.212 116.800,75.995 116.800 C 75.778 116.800,75.598 117.025,75.596 117.300 C 75.594 117.575,75.150 118.700,74.609 119.800 C 74.068 120.900,73.619 122.003,73.613 122.251 C 73.606 122.499,73.349 122.910,73.042 123.165 C 72.735 123.420,72.370 124.234,72.231 124.974 C 72.092 125.714,71.714 126.540,71.389 126.809 C 71.065 127.078,70.800 127.733,70.800 128.265 C 70.800 128.797,70.440 129.938,70.000 130.800 C 69.560 131.662,69.200 132.742,69.200 133.200 C 69.200 133.658,68.840 134.738,68.400 135.600 C 67.960 136.462,67.600 137.811,67.600 138.597 C 67.600 139.383,67.316 140.695,66.969 141.513 C 66.622 142.331,66.176 144.669,65.978 146.709 C 65.781 148.748,65.390 150.818,65.109 151.309 C 64.378 152.588,64.378 175.412,65.109 176.691 C 65.390 177.182,65.782 179.308,65.982 181.417 C 66.181 183.526,66.533 185.479,66.764 185.757 C 66.995 186.035,67.351 187.418,67.555 188.831 C 67.759 190.244,68.211 191.940,68.560 192.600 C 68.909 193.260,69.196 194.206,69.198 194.701 C 69.199 195.197,69.560 196.275,70.000 197.096 C 70.440 197.916,70.800 199.064,70.800 199.645 C 70.800 200.226,71.058 200.917,71.374 201.179 C 71.690 201.441,72.074 202.228,72.226 202.928 C 72.379 203.627,72.841 204.629,73.252 205.154 C 73.663 205.679,74.000 206.312,74.000 206.562 C 74.000 206.812,74.540 208.002,75.200 209.208 C 75.860 210.414,76.685 211.940,77.035 212.600 C 79.067 216.442,81.919 220.843,82.686 221.320 C 82.969 221.496,83.200 221.823,83.200 222.047 C 83.200 222.425,86.030 226.190,87.399 227.634 C 87.730 227.982,88.000 228.477,88.000 228.734 C 88.000 228.990,88.270 229.200,88.600 229.200 C 88.930 229.200,89.200 229.374,89.200 229.588 C 89.200 230.408,99.847 240.489,102.352 242.041 C 102.928 242.398,103.904 243.165,104.521 243.745 C 105.137 244.325,105.742 244.800,105.865 244.800 C 106.325 244.800,110.000 247.348,110.000 247.667 C 110.000 247.850,110.353 248.000,110.784 248.000 C 111.216 248.000,111.891 248.338,112.284 248.750 C 112.678 249.163,113.450 249.635,114.000 249.799 C 114.550 249.964,115.210 250.265,115.466 250.470 C 116.475 251.274,122.946 254.400,123.604 254.400 C 123.988 254.400,124.522 254.665,124.791 254.989 C 125.060 255.314,125.937 255.700,126.740 255.848 C 127.543 255.996,128.827 256.451,129.594 256.859 C 130.361 257.266,131.356 257.600,131.805 257.600 C 132.254 257.600,132.977 257.848,133.411 258.150 C 133.845 258.453,135.190 258.833,136.400 258.995 C 137.610 259.157,139.050 259.531,139.600 259.827 C 140.150 260.122,142.111 260.551,143.958 260.781 C 145.805 261.011,147.515 261.357,147.758 261.550 C 148.328 262.003,156.119 262.543,157.188 262.204 C 157.943 261.964,157.880 261.801,156.301 259.928 L 154.600 257.911 154.600 254.227 C 154.600 246.636,156.447 245.543,171.600 244.167 C 175.670 243.797,179.314 243.332,179.699 243.134 C 180.083 242.936,181.433 242.591,182.699 242.368 C 193.025 240.552,208.899 232.289,217.220 224.400 C 217.800 223.850,219.159 222.575,220.239 221.566 C 224.890 217.222,229.299 211.838,232.279 206.861 C 234.923 202.446,235.480 201.454,236.582 199.200 C 238.678 194.914,239.200 193.706,239.200 193.145 C 239.200 192.833,239.449 192.223,239.753 191.789 C 241.037 189.954,243.576 178.956,244.366 171.800 C 245.179 164.439,244.450 151.273,242.984 146.829 C 239.735 136.980,250.500 128.961,257.900 135.718 L 258.800 136.539 258.787 135.170 C 258.780 134.416,258.510 133.451,258.187 133.024 C 257.864 132.596,257.600 131.874,257.600 131.418 C 257.600 130.961,257.240 129.916,256.800 129.096 C 256.360 128.275,256.000 127.323,256.000 126.981 C 256.000 126.638,255.658 125.693,255.239 124.879 C 254.821 124.066,253.699 121.780,252.747 119.800 C 251.795 117.820,250.697 115.771,250.308 115.246 C 249.919 114.721,249.600 113.956,249.600 113.546 C 249.600 113.136,249.411 112.800,249.181 112.800 C 248.950 112.800,248.544 112.305,248.279 111.700 C 247.705 110.389,246.477 108.498,245.503 107.425 C 245.116 106.998,244.800 106.453,244.800 106.213 C 244.800 105.974,244.485 105.488,244.100 105.134 C 243.715 104.781,243.080 104.066,242.688 103.546 C 237.753 96.994,237.827 97.035,237.461 100.631 C 236.961 105.538,232.929 109.200,228.027 109.200 C 216.636 109.200,215.340 91.550,226.657 90.542 C 230.057 90.240,230.189 90.160,229.121 89.071 C 227.695 87.616,222.107 83.200,221.693 83.200 C 221.490 83.200,220.998 82.840,220.600 82.400 C 220.202 81.960,219.643 81.600,219.358 81.600 C 219.073 81.600,218.696 81.360,218.520 81.067 C 218.344 80.774,217.210 80.009,216.000 79.367 C 214.790 78.725,213.664 77.989,213.498 77.731 C 213.331 77.473,212.644 77.141,211.971 76.994 C 211.297 76.846,210.653 76.483,210.540 76.187 C 210.426 75.891,209.821 75.536,209.194 75.399 C 208.568 75.261,207.856 74.909,207.613 74.616 C 207.370 74.323,206.566 73.970,205.826 73.831 C 205.086 73.692,204.260 73.314,203.991 72.989 C 203.722 72.665,203.173 72.400,202.770 72.400 C 201.821 72.400,200.000 71.569,200.000 71.136 C 200.000 70.951,199.415 70.799,198.700 70.797 C 197.985 70.796,196.860 70.437,196.200 70.000 C 195.540 69.563,194.460 69.198,193.800 69.189 C 193.140 69.180,191.880 68.825,191.000 68.400 C 190.120 67.975,188.838 67.621,188.152 67.614 C 187.466 67.606,185.777 67.240,184.400 66.800 C 183.023 66.360,180.794 65.992,179.448 65.982 C 178.102 65.973,176.280 65.694,175.400 65.363 C 173.512 64.653,158.521 64.240,154.600 64.790 M283.762 279.754 C 279.158 282.131,277.319 287.431,279.694 291.477 C 280.798 293.358,320.298 332.805,322.702 334.427 C 326.539 337.016,332.115 335.605,334.565 331.424 C 335.911 329.128,336.026 325.449,334.800 323.891 C 334.360 323.331,334.000 322.722,334.000 322.535 C 334.000 321.742,292.137 280.442,290.516 279.637 C 288.406 278.589,285.937 278.632,283.762 279.754 " stroke="none" fill="#fbfbfb" fill-rule="evenodd"></path><path id="path3" d="M155.600 63.598 C 151.413 63.769,148.269 64.098,147.000 64.498 C 145.900 64.845,143.867 65.233,142.482 65.360 C 140.045 65.584,138.103 66.237,138.548 66.682 C 138.667 66.801,139.898 66.619,141.282 66.278 C 142.667 65.936,145.060 65.466,146.600 65.233 C 148.140 64.999,150.480 64.615,151.800 64.379 C 155.631 63.695,174.592 64.079,179.000 64.931 C 188.238 66.715,195.531 68.616,198.000 69.882 C 198.550 70.164,199.202 70.396,199.449 70.398 C 200.078 70.401,206.701 73.211,208.000 74.026 C 208.330 74.233,209.050 74.581,209.600 74.801 C 210.150 75.020,210.870 75.383,211.200 75.607 C 211.530 75.832,212.250 76.237,212.800 76.509 C 213.859 77.032,214.238 77.270,219.600 80.776 C 226.588 85.346,237.940 95.673,241.831 101.000 C 242.474 101.880,243.180 102.795,243.400 103.034 C 244.498 104.226,248.279 109.799,249.521 112.058 C 250.115 113.136,251.002 114.690,251.494 115.509 C 251.986 116.329,252.726 117.720,253.138 118.600 C 253.551 119.480,254.453 121.407,255.144 122.883 C 255.835 124.359,256.401 125.709,256.402 125.883 C 256.404 126.057,256.636 126.650,256.918 127.200 C 257.879 129.074,260.791 138.955,260.818 140.435 C 260.827 140.966,261.102 142.120,261.428 143.000 C 261.754 143.880,262.188 146.400,262.394 148.600 C 262.599 150.800,262.951 153.770,263.175 155.200 C 263.695 158.508,263.695 168.147,263.175 171.800 C 262.956 173.340,262.607 176.400,262.399 178.600 C 262.191 180.800,261.754 183.320,261.428 184.200 C 261.102 185.080,260.827 186.175,260.818 186.633 C 260.788 188.029,257.271 199.509,256.780 199.812 C 256.620 199.911,256.365 200.489,256.213 201.096 C 255.768 202.882,251.589 211.619,250.616 212.800 C 250.344 213.130,250.002 213.736,249.856 214.146 C 249.572 214.943,245.586 221.104,244.222 222.854 C 241.587 226.235,240.679 227.315,237.560 230.779 C 233.783 234.975,228.825 239.566,224.800 242.595 C 223.370 243.672,221.536 245.058,220.723 245.676 C 219.911 246.294,219.148 246.800,219.028 246.800 C 218.907 246.800,217.772 247.520,216.504 248.399 C 215.237 249.279,213.988 249.999,213.729 249.999 C 213.469 250.000,213.019 250.225,212.729 250.500 C 212.251 250.952,207.971 253.114,203.800 255.011 C 199.467 256.982,191.122 259.614,184.200 261.192 C 177.138 262.803,164.009 263.795,157.367 263.221 C 147.993 262.409,144.834 262.068,144.438 261.823 C 144.222 261.690,143.001 261.397,141.723 261.172 C 140.445 260.948,138.590 260.516,137.600 260.213 C 127.481 257.117,128.698 257.551,121.861 254.595 C 115.782 251.966,107.214 246.892,102.200 242.950 C 101.540 242.431,100.370 241.513,99.600 240.910 C 89.260 232.813,76.284 215.400,71.332 202.974 C 67.913 194.396,66.544 189.337,64.358 177.200 C 63.781 173.998,63.766 153.456,64.338 150.600 C 64.558 149.500,65.020 146.980,65.364 145.000 C 65.708 143.020,66.165 140.950,66.378 140.400 C 66.591 139.850,66.946 138.369,67.167 137.110 C 67.388 135.850,67.846 134.284,68.185 133.630 C 68.523 132.975,68.806 132.116,68.814 131.720 C 68.821 131.324,69.175 130.280,69.600 129.400 C 70.025 128.520,70.379 127.647,70.386 127.460 C 70.450 125.867,78.399 110.620,80.555 107.956 C 81.020 107.381,81.670 106.499,82.000 105.995 C 84.616 102.000,91.472 94.238,96.014 90.128 C 102.501 84.258,103.532 83.459,110.750 78.723 C 114.003 76.588,126.516 70.400,127.580 70.400 C 127.833 70.400,128.592 70.114,129.268 69.765 C 129.943 69.416,131.419 68.863,132.548 68.538 C 133.677 68.212,135.410 67.700,136.400 67.400 L 138.200 66.854 136.594 66.827 C 135.704 66.812,134.323 67.157,133.496 67.600 C 132.675 68.040,131.597 68.401,131.101 68.403 C 130.606 68.404,129.660 68.763,129.000 69.200 C 128.340 69.637,127.435 69.996,126.989 69.997 C 126.543 69.999,125.818 70.252,125.377 70.561 C 124.937 70.869,123.817 71.326,122.888 71.576 C 121.960 71.826,121.200 72.190,121.200 72.384 C 121.200 72.578,120.672 72.852,120.028 72.994 C 119.383 73.136,118.650 73.498,118.400 73.800 C 118.150 74.102,117.405 74.467,116.745 74.612 C 116.086 74.757,115.449 75.128,115.330 75.438 C 115.212 75.747,114.819 76.000,114.457 76.001 C 114.096 76.001,112.794 76.700,111.564 77.553 C 110.334 78.407,108.939 79.229,108.464 79.380 C 107.989 79.531,107.600 79.812,107.600 80.005 C 107.600 80.198,107.183 80.591,106.674 80.878 C 104.439 82.139,102.800 83.306,102.800 83.640 C 102.800 83.838,102.539 84.000,102.220 84.000 C 101.901 84.000,101.496 84.254,101.320 84.564 C 101.144 84.874,99.902 86.004,98.561 87.075 C 95.521 89.500,89.612 95.385,87.211 98.378 C 85.276 100.789,84.553 101.661,83.600 102.732 C 83.065 103.333,81.057 106.199,79.104 109.149 C 78.722 109.727,78.182 110.648,77.904 111.195 C 77.627 111.741,77.085 112.506,76.700 112.895 C 76.315 113.283,76.000 113.941,76.000 114.357 C 76.000 114.774,75.747 115.212,75.438 115.330 C 75.128 115.449,74.757 116.086,74.612 116.745 C 74.467 117.405,74.102 118.150,73.800 118.400 C 73.498 118.650,73.136 119.383,72.994 120.028 C 72.852 120.672,72.573 121.200,72.374 121.200 C 72.175 121.200,71.808 122.010,71.558 123.000 C 71.309 123.990,70.955 124.800,70.771 124.800 C 70.587 124.800,70.310 125.471,70.156 126.292 C 70.002 127.112,69.545 128.327,69.140 128.992 C 68.735 129.656,68.402 130.606,68.401 131.101 C 68.401 131.597,68.040 132.675,67.600 133.496 C 67.160 134.316,66.800 135.585,66.800 136.314 C 66.800 137.043,66.540 138.143,66.222 138.757 C 65.904 139.372,65.529 140.848,65.389 142.037 C 65.249 143.227,64.880 144.876,64.569 145.703 C 62.726 150.606,62.728 177.420,64.573 182.297 C 64.885 183.124,65.254 184.815,65.394 186.055 C 65.533 187.296,65.900 188.646,66.210 189.055 C 66.521 189.465,66.780 190.523,66.787 191.406 C 66.794 192.289,67.160 193.684,67.600 194.504 C 68.040 195.325,68.401 196.403,68.403 196.899 C 68.404 197.394,68.763 198.340,69.200 199.000 C 69.637 199.660,69.996 200.516,69.997 200.901 C 69.999 201.287,70.360 202.275,70.800 203.096 C 71.240 203.916,71.600 204.884,71.600 205.245 C 71.600 205.606,71.852 206.111,72.161 206.367 C 72.469 206.623,72.840 207.306,72.986 207.885 C 73.131 208.463,73.598 209.380,74.025 209.922 C 74.451 210.464,74.800 211.249,74.800 211.666 C 74.800 212.084,75.054 212.522,75.364 212.641 C 75.674 212.761,76.033 213.277,76.162 213.790 C 76.450 214.937,78.421 218.000,78.871 218.000 C 79.052 218.000,79.200 218.289,79.200 218.642 C 79.200 219.204,79.887 220.230,81.706 222.385 C 81.978 222.707,82.380 223.268,82.600 223.632 C 83.570 225.236,84.693 226.694,85.900 227.913 C 86.615 228.636,87.200 229.327,87.200 229.450 C 87.200 229.984,96.781 239.600,97.314 239.600 C 97.435 239.600,98.314 240.321,99.267 241.202 C 101.942 243.674,101.976 243.701,105.797 246.224 C 109.926 248.951,110.623 249.382,112.000 250.062 C 112.550 250.333,113.270 250.770,113.600 251.033 C 114.689 251.902,121.222 255.200,121.854 255.200 C 122.195 255.200,122.931 255.560,123.491 256.000 C 124.050 256.440,124.806 256.800,125.169 256.800 C 125.533 256.800,126.537 257.160,127.400 257.600 C 128.263 258.040,129.426 258.406,129.985 258.413 C 130.543 258.420,131.332 258.677,131.737 258.984 C 132.142 259.291,133.222 259.666,134.137 259.818 C 135.052 259.970,136.250 260.322,136.800 260.600 C 137.350 260.879,138.790 261.230,140.000 261.382 C 141.210 261.534,142.740 261.892,143.400 262.179 C 144.060 262.466,146.358 262.808,148.507 262.940 C 150.656 263.072,152.816 263.404,153.307 263.679 C 154.530 264.363,171.680 264.297,173.400 263.602 C 174.060 263.335,176.547 262.968,178.927 262.785 C 181.307 262.603,183.467 262.278,183.727 262.064 C 183.987 261.850,185.100 261.553,186.200 261.404 C 187.300 261.255,189.236 260.788,190.502 260.367 C 191.767 259.945,193.122 259.600,193.513 259.600 C 193.903 259.600,194.577 259.356,195.011 259.057 C 195.445 258.758,196.520 258.385,197.400 258.227 C 198.280 258.070,199.363 257.708,199.806 257.423 C 200.249 257.138,201.182 256.780,201.878 256.627 C 202.575 256.474,203.359 256.090,203.621 255.774 C 203.883 255.458,204.391 255.197,204.749 255.193 C 205.701 255.183,210.414 252.757,216.600 249.094 C 218.270 248.105,220.608 246.593,220.800 246.379 C 220.910 246.256,221.945 245.550,223.100 244.810 C 224.255 244.071,225.200 243.340,225.200 243.187 C 225.200 243.034,225.953 242.389,226.873 241.754 C 230.903 238.975,237.284 232.676,241.800 227.022 C 242.240 226.471,243.170 225.358,243.866 224.547 C 244.562 223.737,245.372 222.608,245.665 222.037 C 245.959 221.467,246.424 220.856,246.699 220.680 C 246.975 220.504,247.200 220.158,247.200 219.912 C 247.200 219.665,247.499 219.133,247.864 218.729 C 248.548 217.974,249.105 217.090,250.217 215.000 C 250.568 214.340,251.285 213.080,251.810 212.200 C 253.581 209.232,256.800 202.312,256.800 201.474 C 256.800 201.157,257.056 200.686,257.369 200.426 C 257.682 200.166,258.064 199.199,258.219 198.277 C 258.374 197.355,258.748 196.245,259.050 195.811 C 259.353 195.377,259.606 194.567,259.614 194.011 C 259.621 193.455,259.975 192.280,260.400 191.400 C 260.825 190.520,261.179 189.238,261.186 188.552 C 261.194 187.866,261.560 186.177,262.000 184.800 C 262.440 183.423,262.800 181.246,262.800 179.962 C 262.800 178.678,263.113 176.767,263.495 175.714 C 264.427 173.149,264.552 153.619,263.647 152.027 C 263.342 151.491,262.959 149.196,262.795 146.925 C 262.630 144.655,262.298 142.559,262.056 142.268 C 261.814 141.976,261.444 140.524,261.234 139.041 C 261.024 137.559,260.681 136.133,260.472 135.873 C 260.262 135.613,259.961 134.590,259.802 133.600 C 259.643 132.610,259.287 131.530,259.011 131.200 C 258.734 130.870,258.402 129.903,258.271 129.050 C 258.141 128.198,257.757 127.194,257.417 126.819 C 257.078 126.444,256.800 125.770,256.800 125.322 C 256.800 124.874,256.440 124.050,256.000 123.491 C 255.560 122.931,255.200 122.211,255.200 121.890 C 255.200 121.234,251.906 114.631,251.085 113.640 C 250.793 113.288,250.333 112.550,250.062 112.000 C 249.184 110.221,245.858 105.059,244.907 104.000 C 244.611 103.670,243.550 102.323,242.549 101.007 C 241.548 99.690,240.120 97.980,239.375 97.207 C 235.415 93.093,231.104 88.800,230.933 88.800 C 230.826 88.800,230.237 88.305,229.624 87.700 C 228.556 86.647,227.282 85.568,224.542 83.397 C 223.850 82.849,223.085 82.400,222.842 82.400 C 222.599 82.400,222.400 82.250,222.400 82.067 C 222.400 81.660,218.662 79.200,218.044 79.200 C 217.800 79.200,217.600 79.011,217.600 78.780 C 217.600 78.548,217.015 78.096,216.300 77.774 C 214.909 77.147,214.037 76.653,212.316 75.516 C 211.720 75.122,211.028 74.800,210.779 74.800 C 210.530 74.800,209.869 74.440,209.309 74.000 C 208.750 73.560,207.981 73.200,207.600 73.200 C 207.219 73.200,206.450 72.840,205.891 72.400 C 205.331 71.960,204.630 71.600,204.331 71.600 C 204.032 71.600,203.116 71.240,202.296 70.800 C 201.475 70.360,200.532 70.000,200.200 70.000 C 199.868 70.000,198.925 69.640,198.104 69.200 C 197.284 68.760,196.204 68.400,195.704 68.400 C 195.205 68.400,194.125 68.040,193.304 67.600 C 192.484 67.160,191.084 66.800,190.195 66.800 C 189.306 66.800,188.190 66.529,187.717 66.197 C 187.243 65.865,185.718 65.489,184.328 65.362 C 182.937 65.235,181.123 64.877,180.296 64.567 C 177.912 63.673,165.606 63.190,155.600 63.598 M42.914 163.400 C 42.917 164.500,42.995 164.903,43.087 164.295 C 43.179 163.686,43.177 162.786,43.082 162.295 C 42.987 161.803,42.911 162.300,42.914 163.400 M284.276 277.864 C 283.658 277.971,283.054 278.315,282.934 278.629 C 282.813 278.943,282.490 279.200,282.216 279.200 C 281.174 279.200,279.085 281.567,277.980 284.000 C 277.168 285.788,277.688 291.205,278.824 292.782 C 279.578 293.829,286.968 301.295,291.441 305.529 C 291.749 305.819,292.000 306.224,292.000 306.429 C 292.000 306.633,292.258 306.800,292.573 306.800 C 292.888 306.800,293.260 307.160,293.400 307.600 C 293.540 308.040,293.792 308.400,293.960 308.400 C 294.128 308.400,300.598 314.700,308.337 322.400 C 316.077 330.100,322.716 336.400,323.091 336.400 C 323.466 336.400,324.530 336.689,325.455 337.042 C 328.347 338.147,333.140 336.061,335.486 332.676 C 336.875 330.671,337.118 324.555,335.883 322.671 C 335.179 321.596,332.248 318.273,331.275 317.446 C 330.986 317.201,330.266 316.476,329.675 315.835 C 329.084 315.195,328.067 314.205,327.415 313.635 C 326.763 313.066,325.683 311.987,325.015 311.239 C 324.347 310.490,323.284 309.410,322.654 308.839 C 322.023 308.267,320.313 306.559,318.854 305.043 C 317.394 303.527,315.586 301.727,314.835 301.043 C 314.084 300.359,313.004 299.276,312.435 298.635 C 311.866 297.995,310.938 297.049,310.374 296.535 C 309.809 296.020,305.672 291.909,301.180 287.399 C 296.688 282.890,292.844 279.200,292.638 279.200 C 292.432 279.200,291.955 278.921,291.579 278.581 C 290.866 277.936,286.402 277.498,284.276 277.864 M291.395 279.080 C 293.142 279.954,333.825 320.654,335.081 322.785 C 339.440 330.179,332.444 338.345,323.800 335.953 C 322.438 335.576,289.472 303.587,280.846 294.271 C 273.587 286.432,281.966 274.365,291.395 279.080 " stroke="none" fill="#8e9496" fill-rule="evenodd"></path><path id="path4" d="M151.400 64.399 C 150.520 64.578,148.540 64.928,147.000 65.176 C 140.298 66.257,133.376 68.047,129.689 69.654 C 128.748 70.064,127.786 70.400,127.550 70.400 C 126.513 70.400,113.942 76.628,110.750 78.723 C 103.532 83.459,102.501 84.258,96.014 90.128 C 91.472 94.238,84.616 102.000,82.000 105.995 C 81.670 106.499,81.020 107.381,80.555 107.956 C 78.399 110.620,70.450 125.867,70.386 127.460 C 70.379 127.647,70.025 128.520,69.600 129.400 C 69.175 130.280,68.821 131.324,68.814 131.720 C 68.806 132.116,68.523 132.975,68.185 133.630 C 67.846 134.284,67.388 135.850,67.167 137.110 C 66.946 138.369,66.591 139.850,66.378 140.400 C 66.165 140.950,65.708 143.020,65.364 145.000 C 65.020 146.980,64.558 149.500,64.338 150.600 C 63.766 153.456,63.781 173.998,64.358 177.200 C 66.544 189.337,67.913 194.396,71.332 202.974 C 76.284 215.400,89.260 232.813,99.600 240.910 C 100.370 241.513,101.540 242.431,102.200 242.950 C 107.214 246.892,115.782 251.966,121.861 254.595 C 128.033 257.264,128.215 257.333,132.200 258.557 C 134.180 259.165,136.610 259.910,137.600 260.214 C 138.590 260.517,140.120 260.881,141.000 261.022 C 141.880 261.163,143.488 261.531,144.573 261.839 C 145.658 262.148,147.278 262.379,148.173 262.353 L 149.800 262.306 147.920 261.989 C 146.886 261.815,145.872 261.568,145.667 261.441 C 145.461 261.314,143.981 261.024,142.377 260.797 C 140.774 260.569,139.268 260.223,139.031 260.027 C 138.794 259.832,137.880 259.551,137.000 259.403 C 135.005 259.068,130.732 257.720,128.556 256.740 C 127.652 256.333,126.549 256.000,126.105 256.000 C 125.661 256.000,125.098 255.759,124.854 255.465 C 124.609 255.170,123.715 254.721,122.866 254.467 C 121.492 254.055,120.207 253.432,114.222 250.271 C 112.005 249.101,106.572 245.540,104.234 243.726 C 103.152 242.887,101.958 242.020,101.580 241.800 C 99.284 240.464,86.400 227.887,86.400 226.982 C 86.400 226.876,85.635 225.831,84.700 224.660 C 83.765 223.489,82.730 222.116,82.400 221.610 C 82.070 221.103,81.426 220.219,80.968 219.644 C 80.511 219.070,80.013 218.330,79.862 218.000 C 79.711 217.670,79.066 216.590,78.429 215.600 C 76.574 212.716,71.082 201.492,70.600 199.600 C 70.460 199.050,70.099 198.060,69.799 197.400 C 68.951 195.539,68.006 192.453,67.411 189.600 C 67.112 188.170,66.698 186.550,66.490 186.000 C 66.282 185.450,65.983 183.830,65.825 182.400 C 65.667 180.970,65.272 178.810,64.948 177.600 C 64.100 174.436,64.100 153.564,64.948 150.400 C 65.272 149.190,65.667 147.030,65.825 145.600 C 65.983 144.170,66.282 142.550,66.490 142.000 C 66.698 141.450,67.112 139.830,67.411 138.400 C 68.087 135.159,69.997 129.362,71.429 126.200 C 71.728 125.540,72.086 124.512,72.225 123.916 C 72.365 123.320,72.731 122.623,73.039 122.367 C 73.348 122.111,73.600 121.737,73.600 121.534 C 73.600 120.868,76.745 114.749,78.398 112.200 C 78.826 111.540,79.476 110.460,79.842 109.800 C 80.209 109.140,80.754 108.456,81.054 108.280 C 81.354 108.104,81.600 107.770,81.600 107.538 C 81.600 107.306,82.005 106.620,82.500 106.013 C 82.995 105.407,83.670 104.501,84.000 103.999 C 84.330 103.497,84.960 102.672,85.400 102.166 C 85.840 101.659,86.830 100.484,87.600 99.553 C 89.200 97.619,97.112 89.600,99.203 87.793 C 102.225 85.181,104.725 83.200,104.998 83.200 C 105.155 83.200,105.780 82.795,106.387 82.300 C 106.993 81.805,107.829 81.178,108.244 80.907 C 108.660 80.636,109.630 79.998,110.400 79.488 C 111.170 78.978,112.070 78.426,112.400 78.262 C 112.730 78.097,113.720 77.525,114.600 76.991 C 115.480 76.457,117.190 75.556,118.400 74.989 C 127.039 70.939,127.176 70.879,128.600 70.551 C 129.260 70.398,130.160 70.052,130.600 69.782 C 131.040 69.511,132.067 69.173,132.883 69.030 C 133.699 68.887,134.869 68.508,135.483 68.188 C 136.097 67.867,136.881 67.604,137.225 67.602 C 137.568 67.601,139.188 67.260,140.825 66.844 C 142.461 66.428,145.032 65.971,146.538 65.829 C 148.044 65.686,150.287 65.307,151.522 64.985 C 154.675 64.164,171.963 64.167,175.450 64.990 C 176.798 65.308,179.138 65.680,180.650 65.817 C 182.163 65.954,184.057 66.313,184.861 66.614 C 185.664 66.916,187.284 67.285,188.461 67.435 C 189.637 67.586,191.056 67.939,191.614 68.220 C 192.171 68.501,193.298 68.857,194.118 69.011 C 194.938 69.165,196.275 69.630,197.089 70.045 C 197.903 70.460,198.834 70.800,199.158 70.800 C 199.482 70.800,200.524 71.160,201.474 71.600 C 202.423 72.040,203.965 72.740,204.900 73.155 C 207.911 74.493,210.959 76.011,212.600 76.990 C 213.480 77.515,214.740 78.234,215.400 78.587 C 218.262 80.118,218.800 80.461,218.800 80.758 C 218.800 80.930,219.257 81.280,219.815 81.534 C 220.373 81.788,221.048 82.176,221.315 82.395 C 221.582 82.613,223.330 83.964,225.200 85.396 C 232.473 90.966,241.228 100.335,246.221 107.893 C 249.154 112.331,250.000 113.490,250.000 113.067 C 250.000 112.430,245.084 104.973,243.400 103.055 C 243.180 102.805,242.474 101.880,241.831 101.000 C 237.940 95.673,226.588 85.346,219.600 80.776 C 214.238 77.270,213.859 77.032,212.800 76.509 C 212.250 76.237,211.530 75.832,211.200 75.607 C 210.870 75.383,210.150 75.020,209.600 74.801 C 209.050 74.581,208.330 74.233,208.000 74.026 C 206.701 73.211,200.078 70.401,199.449 70.398 C 199.202 70.396,198.550 70.164,198.000 69.882 C 195.533 68.617,188.272 66.724,179.000 64.929 C 175.040 64.163,154.496 63.768,151.400 64.399 M250.000 113.759 C 250.000 113.872,250.505 114.828,251.123 115.882 C 251.741 116.937,252.660 118.700,253.166 119.800 C 253.672 120.900,254.517 122.718,255.043 123.840 C 255.569 124.962,256.000 126.022,256.000 126.196 C 256.000 126.370,256.333 127.252,256.740 128.156 C 257.957 130.857,259.200 134.918,259.203 136.200 C 259.204 136.860,259.450 137.869,259.749 138.443 C 260.049 139.017,260.425 140.535,260.585 141.817 C 260.745 143.099,261.072 144.610,261.311 145.174 C 261.550 145.738,261.865 147.370,262.010 148.800 L 262.274 151.400 262.328 149.000 C 262.357 147.680,262.212 145.970,262.007 145.200 C 261.801 144.430,261.432 142.900,261.186 141.800 C 259.987 136.420,257.753 128.614,257.180 127.800 C 257.025 127.580,256.764 126.950,256.600 126.400 C 256.222 125.135,253.290 118.769,251.593 115.531 C 250.905 114.218,250.000 113.212,250.000 113.759 M262.666 156.800 C 262.969 163.266,262.969 163.535,262.659 170.400 C 262.456 174.880,262.494 175.527,262.881 174.200 C 263.522 172.004,263.527 155.149,262.888 153.000 C 262.490 151.660,262.454 152.277,262.666 156.800 M262.074 178.051 C 262.033 179.289,261.748 180.909,261.439 181.651 C 261.130 182.393,260.745 184.080,260.581 185.400 C 260.418 186.720,260.060 188.160,259.786 188.600 C 259.511 189.040,259.160 190.298,259.005 191.395 C 258.850 192.492,258.470 193.878,258.161 194.475 C 257.853 195.072,257.600 195.887,257.600 196.286 C 257.600 196.685,257.264 197.639,256.853 198.406 C 256.443 199.173,255.981 200.373,255.828 201.072 C 255.674 201.772,255.309 202.544,255.016 202.787 C 254.723 203.030,254.370 203.834,254.231 204.574 C 254.092 205.314,253.714 206.140,253.389 206.409 C 253.065 206.678,252.800 207.223,252.800 207.620 C 252.800 208.018,252.570 208.581,252.288 208.871 C 252.006 209.162,251.241 210.479,250.588 211.798 C 249.935 213.117,248.631 215.367,247.692 216.798 C 246.752 218.229,245.762 219.737,245.492 220.149 C 245.221 220.561,244.820 221.105,244.600 221.359 C 243.634 222.472,241.600 225.170,241.600 225.338 C 241.600 226.237,226.219 241.600,225.319 241.600 C 225.207 241.600,224.550 242.048,223.858 242.596 C 223.166 243.145,222.240 243.862,221.800 244.190 C 221.360 244.518,220.522 245.150,219.937 245.593 C 219.352 246.037,218.677 246.400,218.437 246.400 C 218.197 246.400,217.683 246.715,217.295 247.100 C 216.906 247.485,216.141 248.034,215.595 248.320 C 213.024 249.662,212.167 250.176,211.675 250.668 C 211.382 250.961,210.869 251.200,210.535 251.200 C 210.200 251.200,209.469 251.560,208.909 252.000 C 208.350 252.440,207.578 252.800,207.195 252.800 C 206.812 252.800,206.278 253.065,206.009 253.389 C 205.740 253.714,204.914 254.092,204.174 254.231 C 203.434 254.370,202.624 254.730,202.374 255.031 C 202.124 255.332,201.263 255.700,200.460 255.848 C 199.657 255.996,198.373 256.451,197.606 256.859 C 196.839 257.266,195.844 257.600,195.395 257.600 C 194.946 257.600,194.223 257.848,193.789 258.150 C 193.355 258.453,192.010 258.833,190.800 258.995 C 189.590 259.157,188.150 259.525,187.600 259.813 C 187.050 260.101,185.089 260.530,183.243 260.766 C 181.397 261.003,179.621 261.417,179.297 261.686 C 178.866 262.043,174.954 262.218,164.735 262.336 C 157.051 262.424,150.817 262.547,150.882 262.608 C 152.156 263.811,171.132 263.414,180.000 261.999 C 186.747 260.923,198.188 257.564,203.800 255.011 C 207.971 253.114,212.251 250.952,212.729 250.500 C 213.019 250.225,213.469 250.000,213.729 249.999 C 213.988 249.999,215.237 249.279,216.504 248.399 C 217.772 247.520,218.907 246.800,219.028 246.800 C 219.148 246.800,219.911 246.294,220.723 245.676 C 221.536 245.058,223.370 243.672,224.800 242.595 C 228.825 239.566,233.783 234.975,237.560 230.779 C 240.679 227.315,241.587 226.235,244.222 222.854 C 245.586 221.104,249.572 214.943,249.856 214.146 C 250.002 213.736,250.344 213.130,250.616 212.800 C 251.505 211.721,255.627 203.164,256.204 201.200 C 256.366 200.650,256.640 200.020,256.813 199.800 C 257.642 198.746,259.294 193.053,261.994 181.946 C 262.242 180.927,262.378 179.127,262.297 177.946 L 262.148 175.800 262.074 178.051 M285.400 278.338 C 278.007 279.952,275.549 288.551,280.846 294.271 C 289.472 303.587,322.438 335.576,323.800 335.953 C 332.444 338.345,339.440 330.179,335.081 322.785 C 333.825 320.654,293.142 279.954,291.395 279.080 C 289.922 278.344,287.020 277.984,285.400 278.338 M291.084 279.542 C 292.791 280.418,332.741 320.204,334.438 322.718 C 339.469 330.172,329.881 339.779,322.507 334.673 C 320.775 333.474,280.368 293.416,279.865 292.400 C 279.702 292.070,279.308 291.350,278.990 290.800 C 275.244 284.323,284.183 276.002,291.084 279.542 " stroke="none" fill="#a0acac" fill-rule="evenodd"></path></g></svg>