<svg id="svg" version="1.1" xmlns="http://www.w3.org/2000/svg" xmlns:xlink="http://www.w3.org/1999/xlink" width="400" height="400" viewBox="0, 0, 400,400"><g id="svgg"><path id="path0" d="M30.097 28.900 L 30.200 57.800 74.100 57.902 L 118.000 58.004 118.000 59.980 L 118.000 61.956 116.100 62.078 L 114.200 62.200 114.079 64.079 L 113.958 65.958 112.079 66.079 L 110.200 66.200 110.078 68.100 L 109.956 70.000 108.458 70.000 C 106.576 70.000,106.000 70.569,106.000 72.427 C 106.000 73.842,105.941 73.903,104.367 74.114 C 102.337 74.386,102.350 74.372,102.101 76.580 C 101.912 78.258,101.808 78.400,100.777 78.400 C 99.185 78.400,98.536 79.246,98.227 81.726 C 97.940 84.021,96.637 85.773,95.000 86.065 C 94.356 86.179,94.176 86.573,94.079 88.083 L 93.958 89.958 92.079 90.079 L 90.200 90.200 90.078 92.100 L 89.956 94.000 88.458 94.000 C 86.564 94.000,86.000 94.569,86.000 96.480 C 86.000 97.944,85.950 98.000,84.629 98.000 C 82.901 98.000,82.000 98.883,82.000 100.577 C 82.000 101.810,81.893 101.915,80.388 102.156 C 78.697 102.426,78.000 103.364,78.000 105.368 C 78.000 106.059,77.680 106.376,76.700 106.656 C 75.083 107.120,74.307 108.606,74.077 111.680 L 73.907 113.960 72.053 114.080 L 70.200 114.200 70.079 116.079 L 69.958 117.958 68.079 118.079 L 66.200 118.200 66.078 120.100 L 65.956 122.000 64.458 122.000 C 62.576 122.000,62.000 122.569,62.000 124.427 C 62.000 125.842,61.941 125.903,60.367 126.114 C 58.337 126.386,58.350 126.372,58.101 128.580 C 57.906 130.314,57.836 130.400,56.628 130.400 C 55.096 130.400,54.402 131.015,54.395 132.380 C 54.386 133.954,53.957 135.200,53.423 135.200 C 52.837 135.200,51.200 136.881,51.200 137.483 C 51.200 137.720,50.930 138.018,50.600 138.145 C 50.190 138.302,50.000 138.943,50.000 140.166 L 50.000 141.956 48.100 142.078 L 46.200 142.200 46.078 144.100 L 45.956 146.000 44.458 146.000 C 42.564 146.000,42.000 146.569,42.000 148.480 C 42.000 149.973,41.973 150.000,40.480 150.000 C 38.576 150.000,38.000 150.564,38.000 152.429 C 38.000 153.835,37.931 153.909,36.388 154.156 C 34.683 154.428,34.000 155.363,34.000 157.426 C 34.000 158.198,33.793 158.400,33.000 158.400 C 31.518 158.400,30.523 159.653,30.212 161.912 C 29.921 164.030,28.563 165.786,27.000 166.065 C 26.356 166.179,26.176 166.573,26.079 168.083 L 25.958 169.958 24.079 170.079 L 22.200 170.200 22.200 198.000 L 22.200 225.800 119.558 225.901 C 191.464 225.975,217.058 225.883,217.461 225.550 C 217.913 225.175,217.988 220.097,217.903 195.649 L 217.800 166.200 169.900 166.098 C 127.692 166.009,122.000 165.926,122.000 165.398 C 122.000 165.069,122.239 164.800,122.530 164.800 C 123.153 164.800,124.800 163.143,124.800 162.517 C 124.800 162.280,125.070 161.982,125.400 161.855 C 125.810 161.698,126.000 161.057,126.000 159.834 L 126.000 158.044 127.900 157.922 L 129.800 157.800 129.921 155.921 L 130.042 154.042 131.921 153.921 L 133.800 153.800 133.922 151.900 L 134.044 150.000 135.542 150.000 C 137.436 150.000,138.000 149.431,138.000 147.520 C 138.000 146.056,138.050 146.000,139.371 146.000 C 141.099 146.000,142.000 145.117,142.000 143.424 C 142.000 142.184,142.097 142.092,143.633 141.886 C 145.634 141.618,145.557 141.696,145.921 139.555 C 146.195 137.946,146.332 137.783,147.569 137.600 C 149.059 137.379,149.449 136.883,149.780 134.787 C 149.956 133.673,150.262 133.276,151.227 132.912 C 152.002 132.620,152.620 132.002,152.913 131.225 C 153.167 130.551,153.516 130.000,153.688 130.000 C 153.859 130.000,154.000 129.110,154.000 128.022 L 154.000 126.044 155.900 125.922 L 157.800 125.800 157.921 123.921 L 158.042 122.042 159.921 121.921 L 161.800 121.800 161.922 119.900 L 162.044 118.000 163.542 118.000 C 165.436 118.000,166.000 117.431,166.000 115.520 C 166.000 114.056,166.050 114.000,167.371 114.000 C 169.099 114.000,170.000 113.117,170.000 111.424 C 170.000 110.184,170.097 110.092,171.633 109.886 C 173.634 109.618,173.557 109.696,173.921 107.555 C 174.195 105.946,174.332 105.783,175.569 105.600 C 177.059 105.379,177.449 104.883,177.780 102.787 C 177.956 101.673,178.262 101.276,179.227 100.912 C 180.002 100.620,180.620 100.002,180.913 99.225 C 181.167 98.551,181.516 98.000,181.688 98.000 C 181.859 98.000,182.000 97.110,182.000 96.022 L 182.000 94.044 183.900 93.922 L 185.800 93.800 185.921 91.921 L 186.042 90.042 187.921 89.921 L 189.800 89.800 189.922 87.900 L 190.044 86.000 191.542 86.000 C 193.436 86.000,194.000 85.431,194.000 83.520 C 194.000 82.056,194.050 82.000,195.371 82.000 C 197.099 82.000,198.000 81.117,198.000 79.424 C 198.000 78.184,198.097 78.092,199.633 77.886 C 201.634 77.618,201.557 77.696,201.920 75.555 C 202.186 73.986,202.344 73.786,203.409 73.665 C 204.988 73.485,205.599 72.925,205.606 71.651 C 205.614 70.295,205.934 69.849,207.398 69.157 C 208.918 68.439,209.956 66.334,209.981 63.922 L 210.000 62.044 211.900 61.922 L 213.800 61.800 213.921 59.921 L 214.042 58.042 215.921 57.921 L 217.800 57.800 217.903 28.900 L 218.005 -0.000 124.000 -0.000 L 29.995 -0.000 30.097 28.900 M198.000 30.000 L 198.000 42.000 196.480 42.000 C 194.564 42.000,194.000 42.564,194.000 44.480 C 194.000 45.973,193.973 46.000,192.480 46.000 C 190.577 46.000,190.000 46.564,190.000 48.427 C 190.000 49.842,189.941 49.903,188.367 50.114 C 186.337 50.386,186.350 50.372,186.101 52.580 C 185.906 54.314,185.836 54.400,184.628 54.400 C 183.038 54.400,182.402 55.020,182.394 56.580 C 182.386 58.080,182.115 58.478,180.662 59.117 C 180.025 59.397,179.326 60.142,179.074 60.809 C 178.827 61.464,178.484 62.000,178.312 62.000 C 178.141 62.000,178.000 62.890,178.000 63.978 L 178.000 65.956 176.100 66.078 L 174.200 66.200 174.079 68.079 L 173.958 69.958 172.079 70.079 L 170.200 70.200 170.078 72.100 L 169.956 74.000 168.458 74.000 C 166.564 74.000,166.000 74.569,166.000 76.480 C 166.000 77.973,165.973 78.000,164.480 78.000 C 162.576 78.000,162.000 78.564,162.000 80.429 C 162.000 81.835,161.931 81.909,160.388 82.156 C 158.683 82.428,158.000 83.363,158.000 85.426 C 158.000 86.261,157.812 86.400,156.680 86.400 C 155.039 86.400,154.402 87.008,154.394 88.580 C 154.386 90.080,154.115 90.478,152.662 91.117 C 152.025 91.397,151.326 92.142,151.074 92.809 C 150.827 93.464,150.484 94.000,150.312 94.000 C 150.141 94.000,150.000 94.890,150.000 95.978 L 150.000 97.956 148.100 98.078 L 146.200 98.200 146.079 100.079 L 145.958 101.958 144.079 102.079 L 142.200 102.200 142.078 104.100 L 141.956 106.000 140.458 106.000 C 138.564 106.000,138.000 106.569,138.000 108.480 C 138.000 109.973,137.973 110.000,136.480 110.000 C 134.582 110.000,134.000 110.564,134.000 112.403 C 134.000 113.775,133.916 113.865,132.300 114.223 C 130.708 114.576,130.573 114.714,130.168 116.400 C 129.780 118.016,129.600 118.220,128.409 118.400 C 126.941 118.621,126.550 119.123,126.220 121.213 C 126.044 122.327,125.738 122.724,124.773 123.088 C 123.998 123.380,123.380 123.998,123.087 124.775 C 122.833 125.449,122.484 126.000,122.312 126.000 C 122.141 126.000,122.000 126.890,122.000 127.978 L 122.000 129.956 120.100 130.078 L 118.200 130.200 118.079 132.079 L 117.958 133.958 116.079 134.079 L 114.200 134.200 114.078 136.100 L 113.956 138.000 112.458 138.000 C 110.564 138.000,110.000 138.569,110.000 140.480 C 110.000 141.973,109.973 142.000,108.480 142.000 C 106.582 142.000,106.000 142.564,106.000 144.403 C 106.000 145.775,105.916 145.865,104.300 146.223 C 102.708 146.576,102.573 146.714,102.168 148.400 C 101.780 150.016,101.600 150.220,100.409 150.400 C 98.941 150.621,98.550 151.123,98.220 153.213 C 98.044 154.327,97.738 154.724,96.773 155.088 C 95.998 155.380,95.380 155.998,95.087 156.775 C 94.833 157.449,94.484 158.000,94.312 158.000 C 94.141 158.000,94.000 158.890,94.000 159.978 L 94.000 161.956 92.100 162.078 L 90.200 162.200 90.079 164.079 L 89.958 165.958 88.079 166.079 L 86.200 166.200 86.200 176.000 L 86.200 185.800 140.100 185.901 L 194.000 186.003 194.000 196.001 L 194.000 206.000 118.000 206.000 L 42.000 206.000 42.000 196.000 L 42.000 186.000 43.520 186.000 C 45.436 186.000,46.000 185.436,46.000 183.520 C 46.000 182.056,46.050 182.000,47.371 182.000 C 49.097 182.000,50.000 181.117,50.000 179.428 C 50.000 178.204,50.117 178.089,51.700 177.757 C 53.327 177.415,53.415 177.321,53.759 175.541 C 54.071 173.930,54.284 173.634,55.359 173.326 C 56.913 172.882,57.697 171.351,57.923 168.320 L 58.093 166.040 59.947 165.920 L 61.800 165.800 61.921 163.921 L 62.042 162.042 63.921 161.921 L 65.800 161.800 65.922 159.900 L 66.044 158.000 67.542 158.000 C 69.424 158.000,70.000 157.431,70.000 155.573 C 70.000 154.158,70.059 154.097,71.633 153.886 C 73.634 153.618,73.557 153.696,73.921 151.555 C 74.195 149.946,74.332 149.783,75.569 149.600 C 77.059 149.379,77.449 148.883,77.780 146.787 C 77.953 145.692,78.266 145.275,79.170 144.934 C 80.591 144.397,82.000 141.715,82.000 139.547 L 82.000 138.044 83.900 137.922 L 85.800 137.800 85.921 135.921 L 86.042 134.042 87.921 133.921 L 89.800 133.800 89.922 131.900 C 90.042 130.033,90.067 130.000,91.393 130.000 C 93.100 130.000,94.000 129.110,94.000 127.423 C 94.000 126.190,94.107 126.085,95.612 125.844 C 97.317 125.572,98.000 124.637,98.000 122.574 C 98.000 121.823,98.212 121.600,98.924 121.600 C 100.927 121.600,101.968 119.603,101.990 115.722 L 102.000 114.044 103.900 113.922 L 105.800 113.800 105.921 111.921 L 106.042 110.042 107.921 109.921 L 109.800 109.800 109.922 107.900 L 110.044 106.000 111.542 106.000 C 113.436 106.000,114.000 105.431,114.000 103.520 C 114.000 102.056,114.050 102.000,115.371 102.000 C 117.107 102.000,118.000 101.115,118.000 99.395 C 118.000 98.128,118.103 98.027,119.700 97.712 C 121.365 97.384,121.407 97.336,121.744 95.360 C 122.039 93.632,122.259 93.278,123.270 92.896 C 124.003 92.619,124.626 91.986,124.913 91.225 C 125.167 90.551,125.516 90.000,125.688 90.000 C 125.859 90.000,126.000 89.110,126.000 88.022 L 126.000 86.044 127.900 85.922 L 129.800 85.800 129.921 83.921 L 130.042 82.042 131.921 81.921 L 133.800 81.800 133.922 79.900 L 134.044 78.000 135.542 78.000 C 137.436 78.000,138.000 77.431,138.000 75.520 C 138.000 74.098,138.077 74.000,139.200 74.000 C 140.830 74.000,142.000 72.747,142.000 71.000 C 142.000 69.773,142.124 69.600,143.000 69.600 C 144.482 69.600,145.477 68.347,145.788 66.088 C 146.079 63.970,147.437 62.214,149.000 61.935 C 149.644 61.821,149.824 61.427,149.921 59.917 L 150.042 58.042 151.921 57.921 L 153.800 57.800 153.800 48.000 L 153.800 38.200 103.900 38.098 L 54.000 37.997 54.000 27.998 L 54.000 18.000 126.000 18.000 L 198.000 18.000 198.000 30.000 M238.184 118.499 C 238.079 118.774,238.039 130.430,238.096 144.400 L 238.200 169.800 264.200 169.903 L 290.200 170.005 290.063 171.982 L 289.926 173.959 288.063 174.080 L 286.200 174.200 286.079 176.079 L 285.958 177.958 284.079 178.079 L 282.200 178.200 282.079 180.079 L 281.958 181.958 280.079 182.079 L 278.200 182.200 278.079 184.079 L 277.958 185.958 276.079 186.079 L 274.200 186.200 274.079 188.079 L 273.958 189.958 272.079 190.079 L 270.200 190.200 270.079 192.079 L 269.958 193.958 268.079 194.079 L 266.200 194.200 266.079 196.079 L 265.958 197.958 264.079 198.079 L 262.200 198.200 262.079 200.079 L 261.958 201.958 260.079 202.079 L 258.200 202.200 258.079 204.079 L 257.958 205.958 256.079 206.079 L 254.200 206.200 254.079 208.079 L 253.958 209.958 252.079 210.079 L 250.200 210.200 250.079 212.079 L 249.958 213.958 248.079 214.079 L 246.200 214.200 246.079 216.079 L 245.958 217.958 244.079 218.079 L 242.200 218.200 242.079 220.079 L 241.958 221.958 240.079 222.079 L 238.200 222.200 238.079 224.079 L 237.958 225.958 236.079 226.079 L 234.200 226.200 234.079 228.079 L 233.958 229.958 232.079 230.079 L 230.200 230.200 230.200 256.000 L 230.200 281.800 304.000 281.800 L 377.800 281.800 377.800 256.000 L 377.800 230.200 347.800 230.098 L 317.800 229.996 317.937 228.018 L 318.074 226.041 319.937 225.920 L 321.800 225.800 321.921 223.921 L 322.042 222.042 323.921 221.921 L 325.800 221.800 325.921 219.921 L 326.042 218.042 327.921 217.921 L 329.800 217.800 329.921 215.921 L 330.042 214.042 331.921 213.921 L 333.800 213.800 333.921 211.921 L 334.042 210.042 335.921 209.921 L 337.800 209.800 337.921 207.921 L 338.042 206.042 339.921 205.921 L 341.800 205.800 341.921 203.921 L 342.042 202.042 343.921 201.921 L 345.800 201.800 345.921 199.921 L 346.042 198.042 347.921 197.921 L 349.800 197.800 349.921 195.921 L 350.042 194.042 351.921 193.921 L 353.800 193.800 353.921 191.921 L 354.042 190.042 355.921 189.921 L 357.800 189.800 357.921 187.921 L 358.042 186.042 359.921 185.921 L 361.800 185.800 361.921 183.921 L 362.042 182.042 363.921 181.921 L 365.800 181.800 365.921 179.921 L 366.042 178.042 367.921 177.921 L 369.800 177.800 369.921 175.921 L 370.042 174.042 371.921 173.921 L 373.800 173.800 373.921 171.921 L 374.042 170.042 375.921 169.921 L 377.800 169.800 377.800 144.000 L 377.800 118.200 308.088 118.099 C 252.529 118.018,238.337 118.099,238.184 118.499 M358.000 145.978 L 358.000 153.956 356.100 154.078 L 354.200 154.200 354.079 156.079 L 353.958 157.958 352.079 158.079 L 350.200 158.200 350.079 160.079 L 349.958 161.958 348.079 162.079 L 346.200 162.200 346.079 164.079 L 345.958 165.958 344.079 166.079 L 342.200 166.200 342.079 168.079 L 341.958 169.958 340.079 170.079 L 338.200 170.200 338.079 172.079 L 337.958 173.958 336.079 174.079 L 334.200 174.200 334.079 176.079 L 333.958 177.958 332.079 178.079 L 330.200 178.200 330.079 180.079 L 329.958 181.958 328.079 182.079 L 326.200 182.200 326.079 184.079 L 325.958 185.958 324.079 186.079 L 322.200 186.200 322.079 188.079 L 321.958 189.958 320.079 190.079 L 318.200 190.200 318.079 192.079 L 317.958 193.958 316.079 194.079 L 314.200 194.200 314.079 196.079 L 313.958 197.958 312.079 198.079 L 310.200 198.200 310.079 200.079 L 309.958 201.958 308.079 202.079 L 306.200 202.200 306.079 204.079 L 305.958 205.958 304.079 206.079 L 302.200 206.200 302.079 208.079 L 301.958 209.958 300.079 210.079 L 298.200 210.200 298.079 212.079 L 297.958 213.958 296.079 214.079 L 294.200 214.200 294.079 216.079 L 293.958 217.958 292.079 218.079 L 290.200 218.200 290.079 220.079 L 289.958 221.958 288.079 222.079 L 286.200 222.200 286.079 224.079 L 285.958 225.958 284.079 226.079 L 282.200 226.200 282.079 228.079 L 281.958 229.958 280.079 230.079 L 278.200 230.200 278.081 232.700 C 278.000 234.400,277.798 235.200,277.451 235.200 C 274.225 235.200,273.799 244.232,276.986 245.032 C 277.857 245.251,277.975 245.520,278.081 247.539 L 278.200 249.800 318.100 249.902 L 358.000 250.004 358.000 256.002 L 358.000 262.000 304.000 262.000 L 250.000 262.000 250.000 254.022 L 250.000 246.044 251.900 245.922 L 253.800 245.800 253.921 243.921 L 254.042 242.042 255.921 241.921 L 257.800 241.800 257.921 239.921 L 258.042 238.042 259.921 237.921 L 261.800 237.800 261.921 235.921 L 262.042 234.042 263.921 233.921 L 265.800 233.800 265.921 231.921 L 266.042 230.042 267.921 229.921 L 269.800 229.800 269.921 227.921 L 270.042 226.042 271.921 225.921 L 273.800 225.800 273.921 223.921 L 274.042 222.042 275.921 221.921 L 277.800 221.800 277.921 219.921 L 278.042 218.042 279.921 217.921 L 281.800 217.800 281.921 215.921 L 282.042 214.042 283.921 213.921 L 285.800 213.800 285.921 211.921 L 286.042 210.042 287.921 209.921 L 289.800 209.800 289.921 207.921 L 290.042 206.042 291.921 205.921 L 293.800 205.800 293.921 203.921 L 294.042 202.042 295.921 201.921 L 297.800 201.800 297.921 199.921 L 298.042 198.042 299.921 197.921 L 301.800 197.800 301.921 195.921 L 302.042 194.042 303.921 193.921 L 305.800 193.800 305.921 191.921 L 306.042 190.042 307.921 189.921 L 309.800 189.800 309.921 187.921 L 310.042 186.042 311.921 185.921 L 313.800 185.800 313.921 183.921 L 314.042 182.042 315.921 181.921 L 317.800 181.800 317.921 179.921 L 318.042 178.042 319.921 177.921 L 321.800 177.800 321.921 175.921 L 322.042 174.042 323.921 173.921 L 325.800 173.800 325.921 171.921 L 326.042 170.042 327.921 169.921 L 329.800 169.800 329.921 167.000 C 330.020 164.695,330.209 164.024,330.995 163.200 C 333.512 160.561,333.213 155.200,330.549 155.200 C 330.202 155.200,330.000 154.400,329.919 152.700 L 329.800 150.200 293.900 150.098 L 258.000 149.996 258.000 143.998 L 258.000 138.000 308.000 138.000 L 358.000 138.000 358.000 145.978 M86.184 246.499 C 86.078 246.774,86.039 256.630,86.096 268.400 L 86.200 289.800 114.200 289.902 L 142.200 290.005 142.063 291.982 L 141.926 293.959 140.063 294.080 L 138.200 294.200 138.078 296.100 L 137.956 298.000 136.458 298.000 C 134.577 298.000,134.000 298.569,134.000 300.423 C 134.000 301.822,133.925 301.902,132.300 302.243 C 130.640 302.592,130.592 302.647,130.238 304.636 C 129.929 306.367,129.701 306.737,128.712 307.111 C 127.997 307.381,127.372 308.021,127.087 308.775 C 126.833 309.449,126.484 310.000,126.312 310.000 C 126.141 310.000,126.000 310.890,126.000 311.978 L 126.000 313.956 124.100 314.078 L 122.200 314.200 122.078 316.100 L 121.956 318.000 120.458 318.000 C 118.576 318.000,118.000 318.569,118.000 320.427 C 118.000 321.842,117.941 321.903,116.367 322.114 C 114.337 322.386,114.350 322.372,114.101 324.580 C 113.914 326.243,113.802 326.400,112.810 326.400 C 111.085 326.400,110.432 327.505,110.144 330.911 L 109.886 333.961 108.043 334.080 L 106.200 334.200 106.079 336.079 L 105.958 337.958 104.079 338.079 L 102.200 338.200 102.078 340.100 C 101.958 341.967,101.933 342.000,100.607 342.000 C 98.891 342.000,98.000 342.891,98.000 344.605 C 98.000 345.872,97.898 345.973,96.300 346.286 L 94.600 346.619 94.235 348.910 C 94.034 350.176,93.662 351.200,93.405 351.200 C 92.833 351.200,91.200 352.891,91.200 353.483 C 91.200 353.720,90.930 354.018,90.600 354.145 C 90.190 354.302,90.000 354.943,90.000 356.166 L 90.000 357.956 88.100 358.078 L 86.200 358.200 86.096 379.100 L 85.993 400.000 152.000 400.000 L 218.007 400.000 217.904 379.100 L 217.800 358.200 189.800 358.098 L 161.800 357.995 161.937 356.018 L 162.074 354.041 163.937 353.920 L 165.800 353.800 165.922 351.900 L 166.044 350.000 167.542 350.000 C 169.424 350.000,170.000 349.431,170.000 347.571 C 170.000 346.165,170.069 346.091,171.612 345.844 C 173.300 345.575,174.000 344.636,174.000 342.646 C 174.000 342.013,174.387 341.574,175.300 341.172 C 176.919 340.459,177.955 338.431,177.981 335.922 L 178.000 334.044 179.900 333.922 L 181.800 333.800 181.922 331.900 L 182.044 330.000 183.542 330.000 C 185.424 330.000,186.000 329.431,186.000 327.573 C 186.000 326.158,186.059 326.097,187.633 325.886 C 189.663 325.614,189.650 325.628,189.899 323.420 C 190.096 321.676,190.158 321.600,191.403 321.600 C 193.206 321.600,193.529 321.030,193.840 317.298 L 194.112 314.039 195.956 313.920 L 197.800 313.800 197.921 311.921 L 198.042 310.042 199.921 309.921 L 201.800 309.800 201.922 307.900 L 202.044 306.000 203.542 306.000 C 205.423 306.000,206.000 305.431,206.000 303.577 C 206.000 302.178,206.075 302.098,207.700 301.757 C 209.360 301.408,209.408 301.353,209.762 299.364 C 210.065 297.664,210.307 297.260,211.230 296.911 C 212.589 296.398,214.000 293.666,214.000 291.547 L 214.000 290.044 215.900 289.922 L 217.800 289.800 217.800 268.000 L 217.800 246.200 152.088 246.099 C 99.729 246.018,86.337 246.099,86.184 246.499 M198.000 270.000 L 198.000 274.000 196.480 274.000 C 194.577 274.000,194.000 274.564,194.000 276.427 C 194.000 277.842,193.941 277.903,192.367 278.114 C 190.342 278.385,190.349 278.378,190.108 280.521 C 189.924 282.153,189.804 282.307,188.466 282.641 C 186.816 283.051,186.086 284.680,186.031 288.078 L 186.000 289.956 184.100 290.078 L 182.200 290.200 182.079 292.079 L 181.958 293.958 180.079 294.079 L 178.200 294.200 178.078 296.100 C 177.958 297.967,177.933 298.000,176.607 298.000 C 174.887 298.000,174.000 298.892,174.000 300.621 C 174.000 301.786,173.840 302.018,172.900 302.216 C 170.983 302.620,170.609 303.031,170.244 305.141 C 170.048 306.273,169.699 307.200,169.470 307.200 C 168.876 307.200,167.200 308.845,167.200 309.427 C 167.200 309.695,166.930 310.018,166.600 310.145 C 166.190 310.302,166.000 310.943,166.000 312.166 L 166.000 313.956 164.100 314.078 L 162.200 314.200 162.078 316.100 L 161.956 318.000 160.458 318.000 C 158.576 318.000,158.000 318.569,158.000 320.427 C 158.000 321.842,157.941 321.903,156.367 322.114 C 154.342 322.385,154.349 322.378,154.108 324.521 C 153.924 326.153,153.804 326.307,152.466 326.641 C 150.816 327.051,150.086 328.680,150.031 332.078 L 150.000 333.956 148.100 334.078 L 146.200 334.200 146.079 336.079 L 145.958 337.958 144.079 338.079 L 142.200 338.200 142.078 340.100 C 141.958 341.967,141.933 342.000,140.607 342.000 C 138.887 342.000,138.000 342.892,138.000 344.621 C 138.000 345.786,137.840 346.018,136.900 346.216 C 134.983 346.620,134.609 347.031,134.244 349.141 C 134.048 350.273,133.699 351.200,133.470 351.200 C 132.876 351.200,131.200 352.845,131.200 353.427 C 131.200 353.695,130.930 354.018,130.600 354.145 C 130.190 354.302,130.000 354.943,130.000 356.166 L 130.000 357.956 128.100 358.078 L 126.200 358.200 126.200 368.000 L 126.200 377.800 162.100 377.902 L 198.000 378.004 198.000 380.002 L 198.000 382.000 152.000 382.000 L 106.000 382.000 106.000 378.000 L 106.000 374.000 107.520 374.000 C 109.423 374.000,110.000 373.436,110.000 371.573 C 110.000 370.158,110.059 370.097,111.633 369.886 C 113.658 369.615,113.651 369.622,113.892 367.479 C 114.076 365.847,114.196 365.693,115.534 365.359 C 117.184 364.949,117.914 363.320,117.969 359.922 L 118.000 358.044 119.900 357.922 L 121.800 357.800 121.921 355.921 L 122.042 354.042 123.921 353.921 L 125.800 353.800 125.922 351.900 C 126.042 350.033,126.067 350.000,127.393 350.000 C 129.109 350.000,130.000 349.109,130.000 347.395 C 130.000 346.128,130.103 346.027,131.700 345.712 C 133.365 345.384,133.407 345.336,133.744 343.360 C 134.034 341.661,134.267 341.275,135.212 340.918 C 136.590 340.398,138.000 337.681,138.000 335.547 L 138.000 334.044 139.900 333.922 L 141.800 333.800 141.922 331.900 L 142.044 330.000 143.542 330.000 C 145.424 330.000,146.000 329.431,146.000 327.573 C 146.000 326.158,146.059 326.097,147.633 325.886 C 149.663 325.614,149.650 325.628,149.899 323.420 C 150.073 321.880,150.238 321.600,150.976 321.600 C 152.925 321.600,153.969 319.565,153.990 315.722 L 154.000 314.044 155.900 313.922 L 157.800 313.800 157.921 311.921 L 158.042 310.042 159.921 309.921 L 161.800 309.800 161.922 307.900 C 162.042 306.033,162.067 306.000,163.393 306.000 C 165.099 306.000,166.000 305.111,166.000 303.428 C 166.000 302.204,166.117 302.089,167.700 301.757 C 169.360 301.408,169.408 301.353,169.762 299.364 C 170.065 297.664,170.307 297.260,171.230 296.911 C 172.589 296.398,174.000 293.666,174.000 291.547 L 174.000 290.044 175.900 289.922 L 177.800 289.800 177.800 280.000 L 177.800 270.200 141.900 270.098 L 106.000 269.996 106.000 267.998 L 106.000 266.000 152.000 266.000 L 198.000 266.000 198.000 270.000 " stroke="none" fill="#040404" fill-rule="evenodd"></path><path id="path1" d="" stroke="none" fill="#080404" fill-rule="evenodd"></path><path id="path2" d="" stroke="none" fill="#080404" fill-rule="evenodd"></path><path id="path3" d="" stroke="none" fill="#080404" fill-rule="evenodd"></path><path id="path4" d="" stroke="none" fill="#080404" fill-rule="evenodd"></path></g></svg>