<svg id="svg" version="1.1" xmlns="http://www.w3.org/2000/svg" xmlns:xlink="http://www.w3.org/1999/xlink" width="400" height="400" viewBox="0, 0, 400,400"><g id="svgg"><path id="path0" d="M269.160 41.538 C 265.059 42.175,257.928 46.798,255.489 50.400 C 253.301 53.631,252.783 54.529,252.538 55.510 C 252.389 56.110,251.941 57.320,251.542 58.200 C 250.927 59.558,250.816 60.926,250.809 67.251 C 250.802 73.319,250.691 74.793,250.211 75.191 C 249.886 75.460,249.506 76.294,249.365 77.045 C 249.224 77.795,248.960 78.501,248.778 78.613 C 248.596 78.726,247.798 80.119,247.005 81.709 C 245.318 85.093,243.517 88.002,241.700 90.283 C 240.985 91.181,240.400 92.055,240.400 92.227 C 240.400 94.485,223.606 109.996,217.200 113.653 C 213.092 115.999,210.090 117.631,209.200 118.003 C 207.570 118.684,205.914 119.430,204.000 120.343 C 203.010 120.816,201.840 121.203,201.400 121.204 C 200.960 121.205,200.060 121.563,199.400 122.000 C 198.740 122.437,197.660 122.797,197.000 122.800 C 196.340 122.803,195.260 123.087,194.600 123.432 C 193.940 123.777,192.092 124.206,190.493 124.386 C 188.895 124.566,187.328 124.928,187.012 125.190 C 186.652 125.489,184.138 125.751,180.270 125.892 L 174.102 126.117 173.070 124.355 C 171.341 121.405,167.498 118.285,162.892 116.091 L 160.600 115.000 116.800 115.000 L 73.000 115.000 70.800 115.937 C 66.619 117.717,62.897 120.575,60.600 123.770 L 59.000 125.996 50.600 126.007 C 45.980 126.014,41.480 126.208,40.600 126.440 C 39.720 126.671,37.428 127.078,35.507 127.343 C 33.586 127.608,31.795 128.045,31.527 128.313 C 31.259 128.581,30.747 128.800,30.388 128.800 C 25.777 128.800,12.873 140.252,10.556 146.400 C 10.431 146.730,9.985 147.655,9.565 148.454 C 9.144 149.254,8.800 150.119,8.800 150.376 C 8.800 150.634,8.395 151.689,7.900 152.722 L 7.000 154.600 7.000 188.000 C 7.000 221.284,7.003 221.406,7.855 223.200 C 8.325 224.190,8.831 225.573,8.980 226.272 C 9.129 226.972,9.510 227.759,9.826 228.021 C 10.142 228.283,10.399 228.791,10.398 229.149 C 10.386 233.873,26.632 247.540,32.348 247.614 C 32.927 247.621,34.120 247.975,35.000 248.400 C 36.461 249.106,37.565 249.174,47.700 249.186 C 54.419 249.195,58.800 249.350,58.800 249.579 C 58.800 252.381,68.707 259.585,73.400 260.195 C 74.500 260.338,75.760 260.609,76.200 260.796 C 76.640 260.984,77.495 261.245,78.100 261.377 L 79.200 261.615 79.200 302.420 C 79.200 337.787,79.280 343.417,79.800 344.662 C 80.130 345.451,80.400 346.500,80.400 346.993 C 80.400 349.488,84.740 355.326,87.572 356.640 C 88.357 357.004,89.334 357.594,89.742 357.951 C 91.127 359.163,115.449 358.900,118.600 357.640 C 127.065 354.253,132.052 350.663,136.711 344.600 C 138.590 342.155,141.200 337.536,141.200 336.656 C 141.200 336.388,141.573 335.456,142.030 334.585 C 142.486 333.713,142.946 331.920,143.052 330.600 C 143.158 329.280,143.491 327.300,143.792 326.200 C 144.092 325.100,144.449 322.090,144.585 319.511 C 144.720 316.933,145.071 314.233,145.364 313.511 C 145.658 312.790,146.019 309.906,146.168 307.103 C 146.317 304.300,146.676 301.420,146.967 300.703 C 147.258 299.986,147.614 297.205,147.758 294.522 C 147.902 291.839,148.286 288.891,148.610 287.972 C 148.976 286.935,149.200 284.813,149.200 282.385 C 149.200 279.597,149.429 277.742,149.995 275.936 C 150.555 274.149,150.791 272.262,150.795 269.546 C 150.798 267.068,151.036 264.961,151.461 263.646 L 152.122 261.600 154.561 261.598 C 155.949 261.596,157.497 261.336,158.153 260.994 C 158.787 260.663,160.047 260.279,160.953 260.140 C 164.088 259.660,169.115 256.261,172.046 252.640 C 173.132 251.298,174.225 249.952,174.474 249.649 C 175.065 248.930,181.497 249.280,183.800 250.156 C 184.680 250.491,186.428 250.773,187.685 250.782 C 188.987 250.792,190.844 251.144,192.000 251.600 C 193.116 252.040,194.564 252.400,195.216 252.400 C 195.869 252.400,197.075 252.760,197.896 253.200 C 198.716 253.640,199.751 254.000,200.194 253.999 C 200.637 253.998,201.720 254.349,202.600 254.779 C 203.480 255.209,205.280 255.972,206.600 256.475 C 207.920 256.978,210.020 257.977,211.267 258.695 C 212.514 259.413,213.672 260.000,213.839 260.000 C 215.358 260.000,226.564 268.491,231.734 273.559 C 235.500 277.252,243.200 286.519,243.200 287.360 C 243.200 287.457,244.073 288.946,245.140 290.668 C 246.208 292.391,247.918 295.533,248.940 297.652 L 250.800 301.504 250.800 308.858 C 250.800 315.448,250.883 316.367,251.600 317.704 C 252.040 318.525,252.400 319.533,252.400 319.945 C 252.400 320.356,252.735 321.121,253.145 321.646 C 253.555 322.171,254.005 322.969,254.146 323.420 C 255.063 326.350,264.417 333.595,267.293 333.602 C 267.792 333.604,268.740 333.910,269.400 334.284 C 271.079 335.233,278.858 335.281,280.600 334.353 C 281.260 334.001,282.446 333.614,283.235 333.492 C 286.613 332.972,294.297 326.890,295.732 323.600 C 295.972 323.050,296.490 322.171,296.884 321.646 C 297.278 321.121,297.606 320.401,297.614 320.046 C 297.621 319.691,297.975 318.680,298.400 317.800 C 299.159 316.229,299.173 313.864,299.186 187.874 L 299.200 59.548 298.376 57.474 C 295.709 50.763,288.941 43.200,285.602 43.200 C 285.323 43.200,284.481 42.821,283.732 42.358 C 282.245 41.439,273.105 40.925,269.160 41.538 M355.800 93.155 C 354.920 93.323,353.300 93.920,352.200 94.481 C 351.100 95.043,348.425 96.408,346.256 97.516 C 344.088 98.623,342.018 99.630,341.656 99.753 C 341.295 99.876,340.730 100.162,340.400 100.389 C 340.070 100.615,339.350 100.980,338.800 101.199 C 338.250 101.419,337.530 101.749,337.200 101.934 C 336.490 102.333,336.007 102.583,328.200 106.598 C 324.900 108.295,321.568 110.048,320.795 110.494 C 318.989 111.536,316.879 114.288,316.546 116.035 C 316.403 116.786,316.041 117.886,315.743 118.480 C 313.990 121.968,316.927 128.239,321.556 130.889 C 324.383 132.507,331.507 132.737,334.236 131.299 C 335.096 130.845,342.320 127.230,350.288 123.265 C 366.373 115.260,367.762 114.432,369.671 111.701 L 371.000 109.800 371.000 104.760 L 371.000 99.719 369.138 97.540 C 365.588 93.386,361.544 92.056,355.800 93.155 M250.800 177.033 L 250.800 234.866 246.700 231.122 C 240.945 225.868,240.447 225.440,238.200 223.830 C 236.170 222.376,232.047 219.657,228.304 217.305 C 225.331 215.437,214.999 210.400,214.134 210.397 C 213.730 210.396,212.860 210.037,212.200 209.600 C 211.540 209.163,210.637 208.804,210.194 208.803 C 209.751 208.801,208.716 208.440,207.896 208.000 C 207.075 207.560,205.907 207.196,205.301 207.191 C 204.696 207.186,203.415 206.826,202.456 206.391 C 201.497 205.956,200.032 205.600,199.200 205.600 C 198.368 205.600,196.903 205.244,195.944 204.809 C 194.827 204.302,193.320 204.014,191.752 204.009 C 190.406 204.004,188.177 203.640,186.800 203.200 C 185.120 202.663,183.194 202.400,180.948 202.400 L 177.600 202.400 177.600 176.600 L 177.600 150.800 182.114 150.800 C 185.602 150.800,187.145 150.618,188.904 150.000 C 190.163 149.557,192.212 149.199,193.490 149.198 C 194.775 149.196,196.318 148.925,196.967 148.586 C 197.609 148.252,199.229 147.819,200.567 147.626 C 201.905 147.433,203.540 146.989,204.200 146.640 C 204.860 146.291,205.806 146.004,206.301 146.002 C 206.797 146.001,207.875 145.640,208.696 145.200 C 209.516 144.760,210.483 144.400,210.843 144.400 C 211.751 144.400,217.364 142.008,221.100 140.029 C 221.485 139.825,222.070 139.556,222.400 139.431 C 223.714 138.932,229.158 135.803,231.800 134.027 C 236.619 130.790,240.177 128.239,240.800 127.575 C 241.130 127.224,242.930 125.662,244.800 124.105 C 246.670 122.549,248.636 120.808,249.170 120.237 C 249.703 119.667,250.288 119.200,250.470 119.200 C 250.651 119.200,250.800 145.225,250.800 177.033 M151.502 138.653 L 152.403 138.894 152.302 187.747 L 152.200 236.600 117.200 236.710 C 97.950 236.770,81.795 236.722,81.300 236.602 L 80.400 236.385 80.400 187.812 C 80.400 141.975,80.439 139.217,81.100 138.832 C 81.859 138.390,149.875 138.217,151.502 138.653 M55.600 187.800 L 55.600 224.400 48.375 224.400 C 41.521 224.400,41.043 224.349,39.060 223.411 C 36.809 222.346,33.600 219.813,33.600 219.100 C 33.600 218.860,33.289 218.319,32.908 217.898 C 30.981 215.769,29.827 167.639,31.553 161.400 C 32.940 156.391,36.323 152.880,40.413 152.205 C 41.396 152.043,42.470 151.756,42.800 151.567 C 43.130 151.379,46.145 151.219,49.500 151.212 L 55.600 151.200 55.600 187.800 M324.000 174.369 C 318.867 175.444,316.600 179.008,316.600 186.000 L 316.600 191.400 317.954 193.268 C 318.699 194.295,320.229 195.735,321.354 196.468 L 323.400 197.800 351.608 197.800 L 379.816 197.800 382.136 196.260 C 383.412 195.413,384.569 194.423,384.708 194.060 C 384.847 193.697,385.375 192.790,385.881 192.044 C 388.754 187.807,386.644 178.732,382.081 175.703 L 379.817 174.200 352.608 174.138 C 337.644 174.104,324.770 174.208,324.000 174.369 M324.200 239.870 C 318.481 240.835,315.100 247.945,316.588 255.877 C 316.862 257.336,321.818 262.791,322.886 262.809 C 323.169 262.813,324.570 263.438,326.000 264.196 C 327.430 264.954,329.050 265.760,329.600 265.987 C 330.150 266.214,330.870 266.577,331.200 266.794 C 331.530 267.011,332.970 267.737,334.400 268.407 C 335.830 269.078,337.270 269.789,337.600 269.987 C 337.930 270.186,339.190 270.822,340.400 271.400 C 343.079 272.680,346.715 274.506,347.800 275.118 C 357.610 280.646,364.466 280.460,369.306 274.534 C 371.206 272.208,371.302 271.790,371.136 266.529 C 370.899 258.983,371.006 259.072,348.800 247.897 L 333.000 239.946 329.200 239.807 C 327.110 239.730,324.860 239.758,324.200 239.870 M123.996 281.300 C 123.993 281.795,123.723 283.084,123.396 284.164 C 123.021 285.399,122.800 287.783,122.800 290.591 C 122.800 293.767,122.572 295.911,122.009 298.027 C 121.453 300.119,121.216 302.312,121.209 305.427 C 121.203 308.542,120.966 310.735,120.409 312.827 C 119.864 314.876,119.616 317.112,119.609 320.024 C 119.603 323.106,119.441 324.457,119.013 325.024 C 118.690 325.451,118.420 326.045,118.413 326.344 C 118.357 328.733,113.224 333.313,110.041 333.814 C 109.073 333.966,107.684 334.340,106.954 334.645 C 103.706 336.002,104.000 338.675,104.000 307.800 L 104.000 280.400 114.000 280.400 L 124.000 280.400 123.996 281.300 " stroke="none" fill="#040404" fill-rule="evenodd"></path><path id="path1" d="" stroke="none" fill="#080404" fill-rule="evenodd"></path><path id="path2" d="" stroke="none" fill="#080404" fill-rule="evenodd"></path><path id="path3" d="" stroke="none" fill="#080404" fill-rule="evenodd"></path><path id="path4" d="" stroke="none" fill="#080404" fill-rule="evenodd"></path></g></svg>