<svg id="svg" version="1.1" xmlns="http://www.w3.org/2000/svg" xmlns:xlink="http://www.w3.org/1999/xlink" width="400" height="400" viewBox="0, 0, 400,400"><g id="svgg"><path id="path0" d="M97.618 160.011 C 96.638 160.217,94.928 160.824,93.818 161.358 C 92.708 161.893,90.630 162.855,89.200 163.495 C 86.264 164.810,82.041 168.970,80.769 171.802 C 78.527 176.793,78.851 187.854,81.348 191.572 C 82.944 193.948,86.725 197.891,88.309 198.830 C 89.129 199.316,90.880 200.388,92.200 201.212 C 93.520 202.036,95.522 203.008,96.649 203.370 C 97.775 203.733,99.671 204.616,100.861 205.333 C 102.050 206.049,104.022 207.041,105.243 207.536 C 113.547 210.907,116.145 221.576,110.000 227.076 C 103.929 232.509,92.856 228.979,91.218 221.088 C 90.369 216.997,88.519 216.223,81.406 216.985 C 76.306 217.531,75.941 219.120,79.312 226.105 C 82.866 233.468,85.582 235.581,96.800 239.703 C 99.599 240.732,107.563 240.834,110.400 239.878 C 114.849 238.378,119.105 236.173,121.293 234.233 C 129.091 227.318,129.359 212.088,121.822 204.041 C 120.039 202.136,118.933 201.276,114.452 198.302 C 113.873 197.918,112.500 197.313,111.400 196.959 C 110.300 196.605,108.222 195.616,106.782 194.761 C 105.342 193.907,103.342 192.927,102.337 192.585 C 98.027 191.116,92.942 185.334,92.498 181.397 C 92.128 178.111,95.930 172.222,99.109 171.156 C 104.623 169.308,112.094 173.111,113.024 178.239 C 113.748 182.233,114.364 182.551,120.959 182.342 C 128.031 182.117,128.314 181.572,125.266 174.045 C 122.283 166.677,119.532 164.331,109.400 160.516 C 107.477 159.792,100.148 159.478,97.618 160.011 M135.429 160.228 C 134.516 161.141,134.294 162.426,134.464 165.798 C 134.705 170.578,134.661 170.556,144.403 170.800 C 156.308 171.098,155.200 167.259,155.200 208.226 L 155.200 239.142 156.254 239.971 C 157.786 241.176,167.386 241.225,168.856 240.036 L 169.800 239.271 170.000 206.736 C 170.147 182.872,170.327 173.918,170.675 173.140 C 171.643 170.980,172.356 170.800,179.989 170.798 C 190.465 170.794,190.800 170.602,190.800 164.581 C 190.800 159.066,193.820 159.600,162.629 159.600 C 139.017 159.600,135.987 159.670,135.429 160.228 M223.600 160.130 C 222.390 160.413,220.608 161.058,219.639 161.562 C 218.670 162.066,217.140 162.738,216.239 163.056 C 212.016 164.543,206.301 170.592,204.661 175.311 C 204.108 176.900,203.177 179.348,202.592 180.750 C 200.699 185.287,200.107 211.297,201.753 217.600 C 204.114 226.635,210.082 235.053,215.477 236.957 C 216.329 237.257,218.249 238.075,219.742 238.773 C 225.649 241.535,232.636 241.286,240.169 238.047 C 249.277 234.130,252.852 229.484,256.673 216.600 C 258.418 210.714,257.715 186.617,255.646 181.452 C 254.995 179.825,254.077 177.202,253.607 175.622 C 252.246 171.054,246.561 164.944,241.800 162.931 C 240.480 162.374,238.320 161.460,237.000 160.902 C 234.090 159.671,227.244 159.276,223.600 160.130 M271.804 160.560 L 270.800 161.564 270.800 200.182 C 270.800 238.101,270.814 238.814,271.590 239.590 C 273.302 241.302,281.568 241.321,283.382 239.617 L 284.400 238.661 284.401 227.030 C 284.403 211.694,284.451 211.612,293.260 211.588 C 307.781 211.548,316.785 206.959,321.169 197.363 C 325.099 188.764,325.082 183.248,321.100 174.453 C 317.631 166.792,315.438 164.933,304.600 160.467 C 303.231 159.903,300.817 159.789,287.904 159.682 L 272.808 159.556 271.804 160.560 M233.028 171.386 C 236.729 172.932,240.420 177.065,241.877 181.294 C 243.299 185.422,243.392 214.396,241.999 219.270 C 238.603 231.150,222.680 232.922,217.228 222.027 C 214.100 215.776,214.146 184.844,217.293 178.629 C 220.357 172.579,227.744 169.178,233.028 171.386 M301.088 172.007 C 306.770 174.847,308.982 178.764,308.993 186.011 C 309.007 195.637,304.231 200.087,293.800 200.166 C 285.413 200.231,284.400 198.640,284.400 185.400 C 284.400 171.992,285.115 170.889,293.836 170.832 C 298.447 170.801,298.785 170.856,301.088 172.007 " stroke="none" fill="#fcefea" fill-rule="evenodd"></path><path id="path1" d="M129.874 45.984 C 127.945 46.361,126.353 47.519,125.664 49.045 C 125.369 49.698,124.469 50.585,123.664 51.016 C 122.859 51.447,121.959 52.347,121.664 53.016 C 121.369 53.685,120.469 54.585,119.664 55.017 C 118.859 55.448,117.862 56.431,117.448 57.201 C 117.000 58.033,116.078 58.892,115.171 59.322 C 114.082 59.837,113.520 60.431,113.199 61.402 C 112.931 62.216,112.399 62.869,111.875 63.028 C 110.605 63.415,109.610 64.401,108.987 65.892 C 108.687 66.611,108.175 67.200,107.851 67.200 C 106.976 67.200,104.921 69.064,104.657 70.099 C 104.529 70.598,103.751 71.357,102.913 71.800 C 102.026 72.269,101.167 73.128,100.838 73.877 C 100.528 74.580,99.781 75.359,99.177 75.610 C 97.897 76.140,96.599 77.460,96.239 78.600 C 96.100 79.040,95.280 79.725,94.417 80.122 C 93.265 80.651,92.727 81.210,92.393 82.222 C 92.095 83.124,91.616 83.681,91.007 83.834 C 89.907 84.110,88.599 85.446,88.228 86.673 C 88.077 87.172,87.208 87.912,86.204 88.398 C 84.892 89.033,84.332 89.594,83.998 90.605 C 83.731 91.416,83.199 92.069,82.675 92.228 C 81.515 92.581,80.385 93.600,79.981 94.656 C 79.801 95.126,78.877 96.029,77.927 96.662 C 76.977 97.295,75.959 98.358,75.664 99.023 C 75.369 99.688,74.469 100.585,73.664 101.016 C 72.859 101.447,71.959 102.347,71.664 103.016 C 71.369 103.685,70.469 104.585,69.664 105.017 C 68.859 105.448,67.862 106.431,67.448 107.201 C 67.000 108.033,66.078 108.892,65.171 109.322 C 64.082 109.837,63.520 110.431,63.199 111.402 C 62.931 112.216,62.399 112.869,61.875 113.028 C 60.605 113.415,59.610 114.401,58.987 115.892 C 58.687 116.611,58.175 117.200,57.851 117.200 C 56.976 117.200,54.921 119.064,54.657 120.099 C 54.529 120.598,53.751 121.357,52.913 121.800 C 52.026 122.269,51.167 123.128,50.838 123.877 C 50.528 124.580,49.781 125.359,49.177 125.610 C 45.362 127.190,45.570 122.663,45.692 201.432 C 45.814 279.500,45.518 272.726,48.884 274.443 C 49.852 274.937,50.607 275.674,50.845 276.359 C 51.071 277.005,51.887 277.839,52.794 278.348 C 53.652 278.831,54.458 279.551,54.584 279.949 C 54.860 280.818,56.420 282.337,57.685 282.967 C 58.188 283.218,58.854 283.958,59.164 284.612 C 59.813 285.978,61.081 287.200,61.851 287.200 C 62.142 287.200,62.677 287.776,63.042 288.480 C 63.878 290.098,64.480 290.698,65.754 291.182 C 66.314 291.395,67.129 292.278,67.577 293.156 C 68.137 294.252,68.809 294.896,69.749 295.236 C 70.627 295.554,71.304 296.165,71.655 296.957 C 71.955 297.633,72.819 298.599,73.575 299.103 C 74.331 299.608,75.362 300.713,75.867 301.559 C 76.371 302.404,77.336 303.325,78.011 303.604 C 78.685 303.884,79.523 304.664,79.871 305.337 C 80.672 306.885,81.212 307.423,82.323 307.776 C 82.810 307.930,83.500 308.620,83.856 309.309 C 84.673 310.887,85.113 311.324,86.603 312.032 C 87.261 312.344,88.058 313.186,88.373 313.902 C 88.739 314.734,89.492 315.456,90.458 315.902 C 91.427 316.349,92.118 317.013,92.382 317.750 C 92.832 319.009,94.225 320.400,95.036 320.400 C 95.318 320.400,95.964 321.139,96.471 322.041 C 97.032 323.039,97.994 323.989,98.926 324.464 C 99.857 324.939,100.610 325.682,100.845 326.359 C 101.071 327.005,101.887 327.839,102.794 328.348 C 103.652 328.831,104.458 329.551,104.584 329.949 C 104.860 330.818,106.420 332.337,107.685 332.967 C 108.188 333.218,108.854 333.958,109.164 334.612 C 109.813 335.978,111.081 337.200,111.851 337.200 C 112.142 337.200,112.677 337.776,113.042 338.480 C 113.878 340.098,114.480 340.698,115.754 341.182 C 116.314 341.395,117.129 342.278,117.577 343.156 C 118.137 344.252,118.809 344.896,119.749 345.236 C 120.627 345.554,121.304 346.165,121.655 346.957 C 121.955 347.633,122.819 348.599,123.575 349.103 C 124.331 349.608,125.356 350.703,125.853 351.537 C 127.837 354.863,125.729 354.771,200.200 354.771 C 274.538 354.771,273.059 354.837,274.446 351.489 C 274.710 350.852,275.623 349.890,276.476 349.352 C 277.328 348.814,278.305 347.795,278.646 347.087 C 279.025 346.303,279.870 345.518,280.810 345.078 C 281.917 344.561,282.478 343.977,282.797 343.010 C 283.083 342.144,283.626 341.517,284.320 341.251 C 285.814 340.678,286.634 339.953,286.965 338.909 C 287.120 338.421,288.002 337.518,288.924 336.904 C 289.846 336.289,290.848 335.227,291.150 334.544 C 291.459 333.846,292.245 333.059,292.941 332.750 C 293.622 332.448,294.635 331.533,295.190 330.719 C 295.746 329.904,296.830 328.821,297.600 328.311 C 298.370 327.802,299.241 326.849,299.536 326.193 C 299.851 325.490,300.683 324.714,301.560 324.303 C 302.507 323.860,303.294 323.092,303.722 322.194 C 304.093 321.417,304.802 320.612,305.298 320.405 C 306.693 319.821,307.391 319.115,307.967 317.700 C 308.259 316.985,308.731 316.400,309.018 316.400 C 309.866 316.400,311.893 314.480,312.157 313.428 C 312.292 312.892,312.806 312.330,313.301 312.179 C 314.483 311.819,315.612 310.807,316.019 309.744 C 316.199 309.274,317.123 308.371,318.073 307.738 C 319.023 307.105,320.041 306.050,320.336 305.393 C 320.655 304.682,321.486 303.912,322.392 303.488 C 323.348 303.040,324.101 302.321,324.419 301.553 C 324.698 300.881,325.623 299.890,326.476 299.352 C 327.328 298.814,328.305 297.795,328.646 297.087 C 329.025 296.303,329.870 295.518,330.810 295.078 C 331.917 294.561,332.478 293.977,332.797 293.010 C 333.083 292.144,333.626 291.517,334.320 291.251 C 335.814 290.678,336.634 289.953,336.965 288.909 C 337.120 288.421,338.002 287.518,338.924 286.904 C 339.846 286.289,340.848 285.227,341.150 284.544 C 341.459 283.846,342.245 283.059,342.941 282.750 C 343.622 282.448,344.635 281.533,345.190 280.719 C 345.746 279.904,346.830 278.821,347.600 278.311 C 348.370 277.802,349.241 276.849,349.536 276.193 C 349.853 275.487,350.685 274.713,351.573 274.297 C 354.919 272.731,354.848 274.475,354.714 196.780 L 354.600 130.200 353.725 128.305 C 353.110 126.973,352.442 126.216,351.475 125.755 C 350.669 125.371,349.833 124.539,349.455 123.745 C 349.065 122.928,348.237 122.118,347.365 121.703 C 346.462 121.272,345.628 120.440,345.138 119.478 C 344.662 118.545,343.866 117.737,343.110 117.419 C 342.376 117.111,341.604 116.342,341.229 115.548 C 340.874 114.795,339.962 113.861,339.164 113.433 C 338.378 113.011,337.389 112.022,336.967 111.236 C 336.531 110.423,335.537 109.459,334.663 109.003 C 333.714 108.507,332.919 107.704,332.584 106.903 C 332.253 106.114,331.506 105.351,330.671 104.953 C 329.877 104.575,329.033 103.738,328.664 102.965 C 328.287 102.174,327.407 101.314,326.506 100.854 C 325.560 100.371,324.726 99.533,324.297 98.635 C 323.882 97.763,323.072 96.935,322.255 96.546 C 321.477 96.175,320.667 95.369,320.351 94.651 C 320.024 93.910,319.123 93.032,318.136 92.491 C 317.089 91.918,316.320 91.146,316.065 90.414 C 315.814 89.694,315.089 88.957,314.168 88.484 C 313.281 88.029,312.416 87.168,312.035 86.360 C 311.674 85.595,310.768 84.664,309.964 84.233 C 309.178 83.811,308.189 82.821,307.767 82.033 C 307.345 81.245,306.376 80.288,305.613 79.908 C 304.829 79.517,303.907 78.596,303.496 77.793 C 303.083 76.988,302.187 76.095,301.433 75.735 C 300.675 75.374,299.826 74.524,299.464 73.765 C 299.087 72.974,298.207 72.114,297.306 71.654 C 296.353 71.168,295.526 70.333,295.089 69.418 C 294.658 68.515,293.912 67.756,293.129 67.427 C 292.377 67.111,291.608 66.350,291.229 65.548 C 290.874 64.795,289.962 63.861,289.164 63.433 C 288.378 63.011,287.389 62.022,286.967 61.236 C 286.531 60.423,285.537 59.459,284.663 59.003 C 283.714 58.507,282.919 57.704,282.584 56.903 C 282.253 56.114,281.506 55.351,280.671 54.953 C 279.877 54.575,279.033 53.738,278.664 52.965 C 278.287 52.174,277.407 51.314,276.506 50.854 C 275.553 50.368,274.726 49.533,274.289 48.617 C 272.835 45.569,278.896 45.807,201.000 45.743 C 162.720 45.712,130.713 45.821,129.874 45.984 M113.481 157.791 C 114.626 158.137,116.066 158.840,116.681 159.354 C 117.296 159.867,118.430 160.608,119.200 161.001 C 121.299 162.070,125.263 165.888,126.432 167.966 C 126.999 168.975,128.030 170.700,128.723 171.800 C 129.637 173.251,130.100 174.623,130.407 176.800 C 131.457 184.231,129.731 185.456,118.662 185.142 C 112.673 184.972,112.109 184.683,109.988 180.687 C 107.263 175.554,104.642 174.073,100.559 175.360 C 95.624 176.916,95.297 183.648,100.000 186.897 C 104.007 189.665,104.584 189.993,106.600 190.645 C 107.700 191.002,109.433 191.817,110.452 192.457 C 111.471 193.098,113.428 194.062,114.802 194.601 C 119.241 196.341,124.320 200.654,126.889 204.867 C 127.783 206.333,128.849 208.060,129.257 208.704 C 131.041 211.514,131.317 224.889,129.665 228.474 C 127.978 232.136,124.653 236.556,122.503 237.996 C 114.856 243.116,114.555 243.201,104.080 243.198 C 94.061 243.195,92.884 242.966,87.651 240.011 C 76.236 233.564,70.033 220.105,75.601 213.867 L 76.732 212.600 83.066 212.486 C 91.476 212.336,91.013 212.058,94.369 219.257 C 96.787 224.444,102.031 227.067,105.920 225.036 C 112.714 221.486,109.640 212.448,100.594 209.377 C 99.497 209.005,97.826 208.168,96.880 207.517 C 95.934 206.866,94.134 205.987,92.880 205.563 C 91.626 205.139,90.135 204.479,89.566 204.096 C 88.998 203.713,87.456 202.680,86.140 201.800 C 82.688 199.491,78.775 195.048,77.839 192.374 C 77.421 191.178,76.633 189.307,76.090 188.216 C 70.522 177.040,81.401 159.115,94.917 157.195 C 98.758 156.650,111.003 157.043,113.481 157.791 M191.003 157.428 C 192.922 158.339,193.400 159.849,193.400 165.000 C 193.400 173.994,192.788 174.538,182.373 174.800 C 175.446 174.974,174.336 175.092,173.714 175.714 C 173.044 176.384,172.988 178.403,172.800 208.332 C 172.555 247.437,173.729 243.400,162.600 243.400 C 150.913 243.400,152.000 246.984,152.000 208.446 C 152.000 191.516,151.888 177.374,151.752 177.018 C 151.170 175.503,149.255 175.080,142.084 174.881 C 132.808 174.625,132.038 174.022,131.684 166.741 C 131.372 160.301,132.281 157.594,134.931 157.078 C 137.858 156.508,189.746 156.832,191.003 157.428 M236.600 157.213 C 239.519 157.543,240.578 157.858,242.200 158.876 C 243.300 159.567,245.322 160.764,246.693 161.536 C 252.306 164.699,258.662 174.740,259.672 182.039 C 261.016 191.750,260.088 220.810,258.326 224.200 C 257.868 225.080,256.716 227.330,255.764 229.200 C 252.995 234.643,249.488 237.722,241.000 242.163 C 238.280 243.586,219.844 243.436,216.999 241.969 C 207.541 237.089,204.872 234.339,199.976 224.432 C 196.484 217.365,197.053 180.579,200.744 174.750 C 201.354 173.787,202.320 171.977,202.892 170.727 C 203.943 168.427,208.101 163.525,209.978 162.372 C 214.515 159.586,217.211 158.050,218.032 157.784 C 220.882 156.862,230.795 156.557,236.600 157.213 M305.104 157.186 C 315.019 158.326,325.245 168.732,326.411 178.866 C 327.278 186.413,326.636 195.848,325.075 198.468 C 322.108 203.450,321.079 204.869,319.025 206.812 C 317.764 208.004,315.869 209.452,314.813 210.029 C 313.757 210.607,312.354 211.463,311.696 211.932 C 309.598 213.425,306.317 213.981,297.944 214.261 C 293.600 214.406,289.810 214.670,289.523 214.847 C 289.118 215.097,288.955 217.963,288.800 227.556 C 288.538 243.755,288.873 243.265,278.000 243.353 C 271.266 243.408,268.899 242.908,267.389 241.114 L 266.400 239.939 266.400 200.349 C 266.400 154.069,265.816 158.931,271.600 157.057 C 272.725 156.693,301.788 156.805,305.104 157.186 M290.967 175.246 C 289.002 175.791,288.800 176.768,288.800 185.743 C 288.800 196.240,288.492 195.782,295.364 195.515 C 301.612 195.273,302.425 194.880,304.134 191.272 C 306.298 186.704,304.917 178.175,301.739 176.474 C 299.985 175.536,292.853 174.723,290.967 175.246 M225.151 175.825 C 222.950 176.503,223.007 176.439,220.544 181.000 L 218.600 184.600 218.600 200.400 C 218.600 217.992,218.410 216.616,221.523 221.600 C 224.553 226.452,236.800 226.017,236.800 221.058 C 236.800 220.794,237.441 219.240,238.224 217.606 C 241.128 211.546,241.299 189.372,238.485 183.748 C 237.839 182.457,237.083 180.680,236.806 179.800 C 235.556 175.834,230.606 174.145,225.151 175.825 " stroke="none" fill="#fc3c04" fill-rule="evenodd"></path><path id="path2" d="M96.641 158.455 C 92.430 158.996,85.780 162.664,82.273 166.381 C 71.232 178.086,78.016 199.095,94.600 204.557 C 95.700 204.919,97.590 205.821,98.800 206.562 C 100.010 207.303,101.990 208.245,103.200 208.655 C 111.424 211.441,114.167 220.960,108.150 225.834 C 102.656 230.283,95.337 227.123,92.403 219.035 C 90.875 214.822,90.399 214.587,83.560 214.659 C 74.301 214.758,72.701 218.199,77.615 227.447 C 87.400 245.863,116.842 247.673,126.491 230.450 C 133.628 217.710,127.181 201.072,112.975 195.571 C 111.421 194.969,109.271 193.920,108.196 193.239 C 107.122 192.557,106.054 191.998,105.822 191.996 C 104.673 191.985,100.781 189.730,98.588 187.805 C 92.263 182.252,94.972 172.800,102.889 172.800 C 105.978 172.800,109.720 175.433,110.960 178.478 C 113.103 183.738,113.504 183.979,120.000 183.911 L 124.200 183.866 119.324 183.625 C 113.584 183.342,112.987 182.998,111.825 179.311 C 109.412 171.657,99.572 169.728,95.797 176.170 C 92.458 181.866,96.038 188.680,104.011 191.804 C 105.378 192.340,107.329 193.302,108.348 193.943 C 109.367 194.583,111.138 195.410,112.283 195.780 C 113.429 196.150,115.049 196.922,115.883 197.495 C 116.718 198.068,118.126 199.033,119.014 199.639 C 121.999 201.676,124.560 204.828,126.623 209.000 L 128.600 213.000 128.600 219.200 L 128.600 225.400 126.504 229.420 C 120.247 241.421,103.849 245.436,89.600 238.455 C 82.415 234.935,76.282 227.144,75.707 220.806 C 75.276 216.049,76.937 215.048,84.897 215.268 C 90.523 215.424,91.104 215.806,92.291 220.130 C 93.834 225.751,101.231 229.939,106.001 227.893 C 114.852 224.098,113.482 211.983,103.800 208.426 C 102.480 207.942,100.590 207.029,99.600 206.399 C 98.610 205.769,96.630 204.823,95.200 204.297 C 73.913 196.474,70.891 171.011,90.102 161.354 C 103.877 154.429,120.392 159.583,126.384 172.675 C 129.630 179.767,129.472 182.493,125.775 183.205 C 124.495 183.451,124.410 183.517,125.320 183.554 C 129.873 183.741,130.384 179.687,126.753 172.179 C 121.484 161.285,111.181 156.589,96.641 158.455 M135.600 158.282 C 134.381 158.728,133.200 160.162,133.223 161.170 C 133.243 162.092,133.295 162.055,133.723 160.810 C 134.580 158.315,133.591 158.393,163.058 158.501 C 192.814 158.611,191.527 158.491,191.646 161.162 C 191.681 161.929,191.743 162.003,191.886 161.447 C 192.176 160.315,191.234 158.890,189.883 158.419 C 188.633 157.983,136.775 157.853,135.600 158.282 M228.000 158.270 C 238.642 158.861,243.970 161.067,249.775 167.288 C 253.294 171.060,253.380 171.190,255.012 175.200 C 257.939 182.394,258.098 183.073,258.422 189.800 L 258.730 196.200 258.617 189.600 C 258.516 183.747,258.390 182.683,257.503 180.200 C 254.701 172.351,253.006 169.485,248.722 165.353 C 246.853 163.550,245.141 162.463,239.600 159.558 C 238.017 158.728,232.294 157.971,228.400 158.077 C 225.802 158.148,225.802 158.148,228.000 158.270 M271.400 158.612 C 270.520 158.929,269.760 159.191,269.710 159.194 C 268.209 159.295,267.542 237.797,269.024 239.913 C 269.844 241.083,271.681 242.010,273.080 241.960 C 274.027 241.926,273.954 241.862,272.613 241.548 C 271.741 241.344,270.616 240.790,270.113 240.319 L 269.200 239.461 269.200 200.363 C 269.200 178.859,269.312 160.974,269.448 160.618 C 270.159 158.766,271.351 158.612,286.800 158.388 L 301.400 158.176 287.200 158.106 C 275.708 158.049,272.695 158.145,271.400 158.612 M220.200 158.968 C 207.947 162.909,200.673 173.308,199.547 188.493 C 197.316 218.602,201.681 232.160,215.895 239.279 L 220.928 241.800 229.198 241.800 L 237.467 241.800 242.233 239.409 C 247.840 236.596,252.395 232.428,254.243 228.419 C 254.806 227.199,255.780 225.120,256.408 223.800 C 258.176 220.085,258.439 218.661,258.592 212.000 L 258.735 205.800 258.416 211.800 C 258.072 218.283,257.876 219.060,254.800 226.114 C 252.223 232.025,248.398 235.832,241.800 239.055 L 237.000 241.400 229.189 241.400 L 221.379 241.400 216.444 239.004 C 202.144 232.063,197.885 219.157,199.941 189.000 C 201.044 172.821,210.573 160.471,223.217 158.836 C 225.773 158.505,225.779 158.501,223.800 158.477 C 222.700 158.464,221.080 158.685,220.200 158.968 M303.800 158.812 C 313.376 160.326,323.249 170.333,324.772 180.071 L 325.168 182.600 324.998 179.889 C 324.416 170.603,313.104 159.127,304.000 158.587 L 301.400 158.433 303.800 158.812 M132.928 164.800 C 132.928 166.230,133.001 166.815,133.089 166.100 C 133.178 165.385,133.178 164.215,133.089 163.500 C 133.001 162.785,132.928 163.370,132.928 164.800 M192.128 164.800 C 192.128 166.230,192.201 166.815,192.289 166.100 C 192.378 165.385,192.378 164.215,192.289 163.500 C 192.201 162.785,192.128 163.370,192.128 164.800 M133.395 168.978 C 133.771 172.272,134.535 172.571,143.127 172.800 C 154.749 173.109,153.600 169.157,153.600 208.808 L 153.600 239.662 154.769 240.831 C 155.420 241.482,156.351 241.990,156.869 241.977 C 157.610 241.959,157.516 241.857,156.410 241.477 C 153.921 240.622,154.015 241.920,153.975 208.000 C 153.929 168.552,155.056 172.371,143.374 172.078 C 135.005 171.869,134.313 171.637,133.576 168.794 L 133.214 167.400 133.395 168.978 M191.600 168.315 C 191.600 171.530,190.443 171.955,181.308 172.088 L 173.617 172.200 172.564 173.253 C 171.782 174.036,171.475 174.805,171.368 176.253 L 171.224 178.200 171.605 176.418 C 172.314 173.101,172.515 173.028,181.579 172.800 C 189.307 172.606,189.568 172.572,190.563 171.636 C 191.548 170.709,192.362 168.228,191.848 167.715 C 191.712 167.578,191.600 167.848,191.600 168.315 M290.600 172.248 C 286.871 173.148,286.400 174.616,286.400 185.339 C 286.400 197.936,286.792 198.573,294.400 198.329 C 303.571 198.035,307.738 194.192,307.774 185.995 C 307.815 176.909,299.353 170.136,290.600 172.248 M224.364 173.593 C 217.844 176.961,216.437 181.670,216.417 200.200 C 216.399 216.394,216.984 219.824,220.430 223.740 C 228.334 232.718,240.920 226.474,241.405 213.335 L 241.551 209.400 241.210 213.176 C 239.951 227.124,226.780 232.409,219.659 221.823 C 217.367 218.414,217.183 217.232,216.928 204.200 C 216.512 182.903,217.877 177.530,224.554 174.181 C 230.515 171.191,235.345 173.217,238.993 180.240 C 240.742 183.607,240.906 184.176,241.184 187.840 C 241.452 191.376,241.490 191.518,241.542 189.167 C 241.801 177.445,232.766 169.254,224.364 173.593 M299.364 173.792 C 309.753 177.458,310.333 193.544,300.200 196.968 C 294.831 198.782,289.143 198.127,287.727 195.532 C 286.819 193.869,286.423 179.685,287.203 176.789 C 288.317 172.652,292.919 171.518,299.364 173.792 M170.800 209.124 C 170.800 242.357,170.900 240.888,168.600 241.574 C 167.583 241.877,167.540 241.936,168.318 241.966 C 168.823 241.985,169.678 241.558,170.218 241.018 L 171.200 240.036 171.200 209.218 C 171.200 192.268,171.110 178.400,171.000 178.400 C 170.890 178.400,170.800 192.226,170.800 209.124 M325.340 186.000 C 325.340 187.870,325.409 188.635,325.493 187.700 C 325.577 186.765,325.577 185.235,325.493 184.300 C 325.409 183.365,325.340 184.130,325.340 186.000 M324.665 191.980 C 323.959 198.735,318.317 206.144,311.400 209.397 C 306.200 211.843,305.697 211.991,301.200 212.400 L 297.400 212.746 301.708 212.616 C 311.466 212.320,318.729 207.018,324.078 196.285 C 324.766 194.904,325.589 189.600,325.115 189.600 C 325.004 189.600,324.802 190.671,324.665 191.980 M241.769 200.600 C 241.770 205.220,241.828 207.055,241.899 204.678 C 241.970 202.301,241.969 198.521,241.898 196.278 C 241.827 194.035,241.769 195.980,241.769 200.600 M287.569 213.969 L 286.400 215.138 286.400 226.750 C 286.400 240.714,286.379 240.788,282.112 241.615 C 280.731 241.883,280.704 241.911,281.800 241.945 C 282.771 241.975,286.158 240.799,286.480 240.320 C 286.525 240.254,286.660 234.580,286.780 227.710 C 287.049 212.446,286.582 213.518,293.109 213.173 L 297.400 212.947 293.069 212.873 C 288.774 212.801,288.729 212.810,287.569 213.969 M160.300 242.295 C 161.455 242.376,163.345 242.376,164.500 242.295 C 165.655 242.214,164.710 242.148,162.400 242.148 C 160.090 242.148,159.145 242.214,160.300 242.295 M275.900 242.289 C 276.615 242.378,277.785 242.378,278.500 242.289 C 279.215 242.201,278.630 242.128,277.200 242.128 C 275.770 242.128,275.185 242.201,275.900 242.289 " stroke="none" fill="#fc9c74" fill-rule="evenodd"></path><path id="path3" d="M94.917 157.195 C 81.401 159.115,70.522 177.040,76.090 188.216 C 76.633 189.307,77.421 191.178,77.839 192.374 C 78.775 195.048,82.688 199.491,86.140 201.800 C 87.456 202.680,88.998 203.713,89.566 204.096 C 90.135 204.479,91.626 205.139,92.880 205.563 C 94.134 205.987,95.934 206.866,96.880 207.517 C 97.826 208.168,99.497 209.005,100.594 209.377 C 109.640 212.448,112.714 221.486,105.920 225.036 C 102.031 227.067,96.787 224.444,94.369 219.257 C 91.013 212.058,91.476 212.336,83.066 212.486 L 76.732 212.600 75.601 213.867 C 70.033 220.105,76.236 233.564,87.651 240.011 C 92.884 242.966,94.061 243.195,104.080 243.198 C 114.555 243.201,114.856 243.116,122.503 237.996 C 124.653 236.556,127.978 232.136,129.665 228.474 C 131.317 224.889,131.041 211.514,129.257 208.704 C 128.849 208.060,127.783 206.333,126.889 204.867 C 124.320 200.654,119.241 196.341,114.802 194.601 C 113.428 194.062,111.471 193.098,110.452 192.457 C 109.433 191.817,107.700 191.002,106.600 190.645 C 104.584 189.993,104.007 189.665,100.000 186.897 C 95.297 183.648,95.624 176.916,100.559 175.360 C 104.642 174.073,107.263 175.554,109.988 180.687 C 112.109 184.683,112.673 184.972,118.662 185.142 C 129.731 185.456,131.457 184.231,130.407 176.800 C 130.100 174.623,129.637 173.251,128.723 171.800 C 128.030 170.700,126.999 168.975,126.432 167.966 C 125.263 165.888,121.299 162.070,119.200 161.001 C 118.430 160.608,117.296 159.867,116.681 159.354 C 114.248 157.323,102.334 156.142,94.917 157.195 M134.931 157.078 C 132.281 157.594,131.372 160.301,131.684 166.741 C 132.038 174.022,132.808 174.625,142.084 174.881 C 149.255 175.080,151.170 175.503,151.752 177.018 C 151.888 177.374,152.000 191.516,152.000 208.446 C 152.000 246.984,150.913 243.400,162.600 243.400 C 173.729 243.400,172.555 247.437,172.800 208.332 C 172.988 178.403,173.044 176.384,173.714 175.714 C 174.336 175.092,175.446 174.974,182.373 174.800 C 192.788 174.538,193.400 173.994,193.400 165.000 C 193.400 159.849,192.922 158.339,191.003 157.428 C 189.746 156.832,137.858 156.508,134.931 157.078 M221.400 157.190 C 217.795 157.612,217.539 157.728,209.978 162.372 C 208.101 163.525,203.943 168.427,202.892 170.727 C 202.320 171.977,201.354 173.787,200.744 174.750 C 197.053 180.579,196.484 217.365,199.976 224.432 C 204.872 234.339,207.541 237.089,216.999 241.969 C 219.844 243.436,238.280 243.586,241.000 242.163 C 249.488 237.722,252.995 234.643,255.764 229.200 C 256.716 227.330,257.868 225.080,258.326 224.200 C 260.088 220.810,261.016 191.750,259.672 182.039 C 258.662 174.740,252.306 164.699,246.693 161.536 C 245.322 160.764,243.300 159.567,242.200 158.876 C 239.233 157.013,229.594 156.232,221.400 157.190 M271.600 157.057 C 265.816 158.931,266.400 154.069,266.400 200.349 L 266.400 239.939 267.389 241.114 C 268.899 242.908,271.266 243.408,278.000 243.353 C 288.873 243.265,288.538 243.755,288.800 227.556 C 288.955 217.963,289.118 215.097,289.523 214.847 C 289.810 214.670,293.600 214.406,297.944 214.261 C 306.317 213.981,309.598 213.425,311.696 211.932 C 312.354 211.463,313.757 210.607,314.813 210.029 C 315.869 209.452,317.764 208.004,319.025 206.812 C 321.079 204.869,322.108 203.450,325.075 198.468 C 326.636 195.848,327.278 186.413,326.411 178.866 C 325.245 168.732,315.019 158.326,305.104 157.186 C 301.788 156.805,272.725 156.693,271.600 157.057 M107.800 158.388 C 115.821 159.221,123.019 164.459,126.753 172.179 C 131.236 181.449,130.244 183.549,121.224 183.888 C 113.618 184.175,113.188 183.948,110.960 178.478 C 109.720 175.433,105.978 172.800,102.889 172.800 C 94.972 172.800,92.263 182.252,98.588 187.805 C 100.781 189.730,104.673 191.985,105.822 191.996 C 106.054 191.998,107.122 192.557,108.196 193.239 C 109.271 193.920,111.421 194.969,112.975 195.571 C 129.648 202.027,134.978 223.911,122.691 235.468 C 112.522 245.032,92.111 244.259,82.158 233.934 C 77.229 228.821,74.276 221.411,75.585 217.444 C 76.385 215.022,77.231 214.727,83.560 214.659 C 90.399 214.587,90.875 214.822,92.403 219.035 C 95.337 227.123,102.656 230.283,108.150 225.834 C 114.167 220.960,111.424 211.441,103.200 208.655 C 101.990 208.245,100.010 207.303,98.800 206.562 C 97.590 205.821,95.700 204.919,94.600 204.557 C 84.541 201.244,76.830 191.075,76.807 181.093 C 76.773 165.969,89.690 156.507,107.800 158.388 M189.849 158.407 C 192.020 159.164,192.950 163.320,192.040 168.195 C 191.241 172.468,191.024 172.564,181.602 172.800 C 170.079 173.089,171.200 169.145,171.200 209.410 C 171.200 244.131,171.485 241.419,167.774 242.028 C 162.255 242.934,155.926 242.260,154.512 240.615 L 153.600 239.555 153.600 208.755 C 153.600 169.166,154.749 173.109,143.127 172.800 C 134.242 172.563,133.952 172.429,133.160 168.195 C 132.259 163.371,133.192 159.282,135.400 158.378 C 136.602 157.886,188.433 157.914,189.849 158.407 M234.600 158.415 C 236.580 158.640,238.830 159.156,239.600 159.562 C 246.428 163.158,247.241 163.719,250.129 166.827 C 253.181 170.112,253.770 171.068,256.154 176.600 C 258.654 182.399,258.600 181.870,258.600 200.600 C 258.600 219.108,258.588 219.231,256.410 223.800 C 255.781 225.120,254.806 227.199,254.243 228.419 C 252.395 232.428,247.840 236.596,242.233 239.409 L 237.467 241.800 229.198 241.800 L 220.928 241.800 215.895 239.279 C 203.658 233.151,199.813 225.234,199.343 205.200 C 198.917 187.039,199.586 181.388,203.004 174.279 C 208.938 161.938,219.393 156.688,234.600 158.415 M303.200 158.386 C 314.326 159.631,324.077 169.880,325.268 181.579 C 325.815 186.944,325.246 193.942,324.073 196.295 C 319.950 204.568,317.721 206.887,310.636 210.276 L 305.983 212.502 297.891 212.878 C 285.957 213.432,286.814 212.284,286.806 227.726 C 286.802 234.545,286.638 239.554,286.405 239.991 C 284.727 243.126,271.232 243.065,269.024 239.913 C 267.542 237.797,268.209 159.295,269.710 159.194 C 269.760 159.191,270.520 158.929,271.400 158.612 C 273.311 157.923,297.526 157.752,303.200 158.386 M224.554 174.181 C 217.877 177.530,216.512 182.903,216.928 204.200 C 217.212 218.679,218.130 222.081,222.581 225.131 C 231.441 231.201,240.183 224.964,241.263 211.800 C 241.767 205.659,241.460 187.506,240.803 184.600 C 238.736 175.460,231.393 170.751,224.554 174.181 M288.802 173.937 C 287.021 175.717,286.726 177.611,286.871 186.352 C 287.052 197.335,287.747 198.346,294.800 197.872 C 301.053 197.452,303.850 195.974,305.991 191.956 C 308.623 187.018,307.468 179.942,303.381 175.982 C 300.196 172.894,291.118 171.621,288.802 173.937 M298.600 175.658 C 302.855 176.405,305.318 180.093,305.373 185.800 C 305.439 192.708,302.847 195.225,295.364 195.515 C 288.492 195.782,288.800 196.240,288.800 185.743 C 288.800 174.212,289.028 173.977,298.600 175.658 M232.878 175.820 C 235.057 176.563,236.127 177.648,236.806 179.800 C 237.083 180.680,237.839 182.457,238.485 183.748 C 241.299 189.372,241.128 211.546,238.224 217.606 C 237.441 219.240,236.800 220.794,236.800 221.058 C 236.800 226.017,224.553 226.452,221.523 221.600 C 218.410 216.616,218.600 217.992,218.600 200.400 L 218.600 184.600 220.544 181.000 C 223.007 176.439,222.950 176.503,225.151 175.825 C 227.621 175.064,230.654 175.063,232.878 175.820 " stroke="none" fill="#fc8059" fill-rule="evenodd"></path><path id="path4" d="M96.870 158.861 C 89.052 159.981,81.006 166.474,78.835 173.416 C 74.632 186.851,81.139 199.130,95.200 204.297 C 96.630 204.823,98.610 205.769,99.600 206.399 C 100.590 207.029,102.480 207.942,103.800 208.426 C 113.482 211.983,114.852 224.098,106.001 227.893 C 101.231 229.939,93.834 225.751,92.291 220.130 C 91.104 215.806,90.523 215.424,84.897 215.268 C 74.746 214.987,73.138 217.869,78.178 227.307 C 88.058 245.808,117.293 247.087,126.504 229.420 L 128.600 225.400 128.600 219.200 L 128.600 213.000 126.623 209.000 C 124.560 204.828,121.999 201.676,119.014 199.639 C 118.126 199.033,116.718 198.068,115.883 197.495 C 115.049 196.922,113.429 196.150,112.283 195.780 C 111.138 195.410,109.367 194.583,108.348 193.943 C 107.329 193.302,105.378 192.340,104.011 191.804 C 96.038 188.680,92.458 181.866,95.797 176.170 C 99.572 169.728,109.412 171.657,111.825 179.311 C 112.919 182.783,113.706 183.320,117.993 183.525 C 129.342 184.068,130.759 182.235,126.384 172.675 C 121.442 161.878,110.750 156.873,96.870 158.861 M135.200 158.912 C 132.651 160.209,132.463 168.910,134.938 171.046 C 135.841 171.825,136.508 171.906,143.374 172.078 C 155.056 172.371,153.929 168.552,153.975 208.000 C 154.015 241.920,153.921 240.622,156.410 241.477 C 158.137 242.071,166.474 242.142,168.495 241.580 C 170.883 240.917,170.799 242.076,170.808 209.526 C 170.819 168.582,169.789 172.256,181.308 172.088 C 191.665 171.937,191.800 171.840,191.800 164.511 C 191.800 160.789,191.718 160.340,190.889 159.511 L 189.978 158.600 163.089 158.501 C 141.956 158.424,135.986 158.512,135.200 158.912 M223.217 158.836 C 210.573 160.471,201.044 172.821,199.941 189.000 C 197.885 219.157,202.144 232.063,216.444 239.004 L 221.379 241.400 229.189 241.400 L 237.000 241.400 241.800 239.055 C 249.949 235.075,253.446 230.774,257.290 220.004 C 258.418 216.846,258.963 203.966,258.464 192.286 C 258.056 182.717,258.041 182.642,255.012 175.200 C 253.380 171.190,253.294 171.060,249.775 167.288 C 242.966 159.991,234.677 157.353,223.217 158.836 M271.361 159.162 C 269.058 160.208,269.200 157.497,269.200 200.363 L 269.200 239.461 270.110 240.315 C 272.037 242.126,280.844 242.566,284.113 241.015 C 286.324 239.965,286.400 239.494,286.400 226.750 L 286.400 215.138 287.504 214.035 C 288.601 212.938,288.648 212.930,295.744 212.653 C 304.455 212.313,305.707 212.057,311.121 209.516 C 333.443 199.039,327.844 162.268,303.400 158.812 C 297.916 158.036,273.245 158.306,271.361 159.162 M109.400 160.516 C 119.532 164.331,122.283 166.677,125.266 174.045 C 128.314 181.572,128.031 182.117,120.959 182.342 C 114.364 182.551,113.748 182.233,113.024 178.239 C 112.094 173.111,104.623 169.308,99.109 171.156 C 95.930 172.222,92.128 178.111,92.498 181.397 C 92.942 185.334,98.027 191.116,102.337 192.585 C 103.342 192.927,105.342 193.907,106.782 194.761 C 108.222 195.616,110.300 196.605,111.400 196.959 C 112.500 197.313,113.873 197.918,114.452 198.302 C 118.933 201.276,120.039 202.136,121.822 204.041 C 129.359 212.088,129.091 227.318,121.293 234.233 C 119.105 236.173,114.849 238.378,110.400 239.878 C 107.563 240.834,99.599 240.732,96.800 239.703 C 85.582 235.581,82.866 233.468,79.312 226.105 C 75.941 219.120,76.306 217.531,81.406 216.985 C 88.519 216.223,90.369 216.997,91.218 221.088 C 92.856 228.979,103.929 232.509,110.000 227.076 C 116.145 221.576,113.547 210.907,105.243 207.536 C 104.022 207.041,102.050 206.049,100.861 205.333 C 99.671 204.616,97.775 203.733,96.649 203.370 C 95.522 203.008,93.520 202.036,92.200 201.212 C 90.880 200.388,89.129 199.316,88.309 198.830 C 86.725 197.891,82.944 193.948,81.348 191.572 C 78.851 187.854,78.527 176.793,80.769 171.802 C 82.041 168.970,86.264 164.810,89.200 163.495 C 90.630 162.855,92.708 161.893,93.818 161.358 C 97.597 159.538,105.646 159.103,109.400 160.516 M190.000 160.400 C 190.674 161.074,190.800 161.733,190.800 164.581 C 190.800 170.602,190.465 170.794,179.989 170.798 C 172.356 170.800,171.643 170.980,170.675 173.140 C 170.327 173.918,170.147 182.872,170.000 206.736 L 169.800 239.271 168.856 240.036 C 167.386 241.225,157.786 241.176,156.254 239.971 L 155.200 239.142 155.200 208.226 C 155.200 167.259,156.308 171.098,144.403 170.800 C 134.661 170.556,134.705 170.578,134.464 165.798 C 134.294 162.426,134.516 161.141,135.429 160.228 C 136.531 159.126,188.891 159.291,190.000 160.400 M237.000 160.902 C 238.320 161.460,240.480 162.374,241.800 162.931 C 246.561 164.944,252.246 171.054,253.607 175.622 C 254.077 177.202,254.995 179.825,255.646 181.452 C 257.715 186.617,258.418 210.714,256.673 216.600 C 252.852 229.484,249.277 234.130,240.169 238.047 C 232.636 241.286,225.649 241.535,219.742 238.773 C 218.249 238.075,216.329 237.257,215.477 236.957 C 210.082 235.053,204.114 226.635,201.753 217.600 C 200.107 211.297,200.699 185.287,202.592 180.750 C 203.177 179.348,204.108 176.900,204.661 175.311 C 206.301 170.592,212.016 164.543,216.239 163.056 C 217.140 162.738,218.670 162.066,219.639 161.562 C 223.958 159.314,232.481 158.990,237.000 160.902 M304.600 160.467 C 315.438 164.933,317.631 166.792,321.100 174.453 C 325.082 183.248,325.099 188.764,321.169 197.363 C 316.785 206.959,307.781 211.548,293.260 211.588 C 284.451 211.612,284.403 211.694,284.401 227.030 L 284.400 238.661 283.382 239.617 C 281.568 241.321,273.302 241.302,271.590 239.590 C 270.814 238.814,270.800 238.101,270.800 200.182 L 270.800 161.564 271.804 160.560 L 272.808 159.556 287.904 159.682 C 300.817 159.789,303.231 159.903,304.600 160.467 M224.124 171.813 C 221.815 172.964,218.474 176.298,217.293 178.629 C 214.146 184.844,214.100 215.776,217.228 222.027 C 222.680 232.922,238.603 231.150,241.999 219.270 C 243.392 214.396,243.299 185.422,241.877 181.294 C 239.007 172.963,230.709 168.532,224.124 171.813 M288.400 171.081 C 285.222 172.238,284.400 175.180,284.400 185.400 C 284.400 198.640,285.413 200.231,293.800 200.166 C 304.231 200.087,309.007 195.637,308.993 186.011 C 308.982 178.764,306.770 174.847,301.088 172.007 C 298.724 170.826,290.710 170.241,288.400 171.081 M299.795 173.302 C 308.020 176.278,310.740 188.689,304.542 194.963 C 299.996 199.565,288.816 199.808,286.952 195.346 C 285.979 193.018,286.176 177.115,287.204 174.992 C 288.719 171.862,293.895 171.167,299.795 173.302 M234.154 173.911 C 239.861 177.017,241.497 181.707,241.856 196.000 C 242.378 216.791,240.801 222.998,234.102 226.519 C 228.094 229.676,221.308 227.033,218.029 220.259 C 216.529 217.162,215.819 197.748,216.805 186.806 C 217.829 175.436,225.914 169.427,234.154 173.911 " stroke="none" fill="#fc9c84" fill-rule="evenodd"></path></g></svg>