<svg id="svg" version="1.1" xmlns="http://www.w3.org/2000/svg" xmlns:xlink="http://www.w3.org/1999/xlink" width="400" height="400" viewBox="0, 0, 400,400"><g id="svgg"><path id="path0" d="M170.191 1.288 C 169.316 1.996,168.455 2.807,168.279 3.091 C 167.399 4.500,165.034 5.086,159.200 5.343 C 147.831 5.842,143.901 7.521,140.048 13.526 C 139.347 14.618,138.072 15.975,137.215 16.543 C 134.574 18.290,130.800 23.824,130.800 25.948 C 130.800 26.175,129.982 27.224,128.983 28.280 C 124.340 33.186,122.619 39.808,121.988 55.200 C 121.646 63.535,121.454 65.389,120.708 67.600 C 119.567 70.981,119.554 78.501,120.684 81.501 C 121.342 83.247,121.409 85.625,121.510 111.056 L 121.621 138.712 112.110 138.701 C 96.724 138.682,91.474 140.291,85.408 146.881 C 84.712 147.637,82.810 151.550,82.804 152.239 C 82.802 152.480,82.543 153.200,82.229 153.839 C 81.592 155.136,80.400 160.595,80.400 162.216 C 80.400 163.372,78.194 168.764,77.461 169.400 C 77.207 169.620,76.754 170.340,76.453 171.000 C 76.153 171.660,75.745 172.517,75.547 172.905 C 72.213 179.438,71.331 199.886,71.973 255.800 C 72.525 303.901,72.968 307.971,78.309 314.010 L 79.910 315.820 80.381 323.010 C 80.938 331.495,81.599 334.841,83.441 338.500 C 84.188 339.986,84.800 341.471,84.800 341.800 C 84.800 342.130,84.936 342.400,85.103 342.400 C 85.831 342.400,88.813 347.526,89.176 349.400 C 90.286 355.134,93.550 361.900,96.270 364.105 C 96.748 364.493,97.440 365.716,97.808 366.823 C 98.716 369.559,100.242 372.245,102.102 374.388 C 104.076 376.659,107.011 381.097,107.403 382.400 C 108.343 385.526,110.774 388.751,114.822 392.244 C 115.995 393.256,117.602 395.163,117.594 395.534 C 117.591 395.680,118.626 396.743,119.894 397.896 L 122.200 399.993 197.800 399.993 L 273.400 399.992 275.029 398.696 C 275.925 397.983,276.983 397.075,277.380 396.678 C 278.235 395.822,283.841 392.000,284.241 392.000 C 285.833 392.000,291.471 385.510,292.408 382.600 C 293.560 379.023,295.355 375.764,296.912 374.422 C 299.086 372.547,300.980 369.470,301.732 366.592 C 302.435 363.899,303.600 357.902,303.600 356.975 C 303.600 356.640,303.978 355.969,304.439 355.483 C 306.057 353.781,307.973 350.414,308.632 348.118 C 308.997 346.843,309.431 345.620,309.596 345.400 C 310.193 344.603,311.209 338.073,311.619 332.400 C 312.115 325.525,312.487 323.904,313.810 322.864 C 314.354 322.435,314.800 321.972,314.800 321.834 C 314.800 321.696,315.234 320.912,315.765 320.091 C 317.723 317.065,318.929 310.682,319.638 299.600 C 320.278 289.601,320.576 224.747,320.044 211.473 C 319.406 195.559,319.164 193.789,316.388 184.686 C 315.995 183.399,314.719 181.208,313.191 179.200 L 312.126 177.800 311.637 164.800 C 310.585 136.836,309.710 131.013,305.356 123.000 L 303.834 120.200 303.541 106.400 C 303.155 88.175,302.266 77.034,300.966 74.140 C 300.655 73.446,300.400 72.761,300.400 72.616 C 300.400 72.294,297.465 66.405,296.205 64.200 C 295.703 63.320,295.162 61.700,295.004 60.600 C 293.124 47.503,285.664 40.099,273.085 38.846 C 269.186 38.458,268.216 37.913,267.775 35.859 C 267.283 33.571,265.299 29.826,263.679 28.128 C 262.507 26.900,261.795 25.588,260.993 23.179 C 260.393 21.377,259.655 19.429,259.353 18.851 C 259.052 18.273,258.804 17.648,258.802 17.463 C 258.801 17.277,258.065 16.017,257.166 14.663 C 253.558 9.226,247.182 6.112,238.200 5.401 C 233.879 5.059,232.043 4.318,229.423 1.857 L 227.445 -0.000 199.614 -0.000 L 171.782 0.000 170.191 1.288 M207.077 7.116 C 208.817 8.026,210.460 9.855,211.138 11.636 C 211.353 12.204,212.431 14.048,213.533 15.736 C 214.634 17.423,215.816 19.567,216.160 20.502 C 216.504 21.436,217.108 23.095,217.502 24.190 C 218.519 27.018,219.855 27.724,221.901 26.513 C 228.091 22.853,231.325 22.190,237.224 23.374 C 242.956 24.525,244.280 26.141,245.356 33.306 C 245.970 37.394,246.363 38.370,248.796 41.842 C 250.731 44.606,251.829 47.435,252.196 50.607 C 253.662 63.263,254.302 64.420,257.952 61.006 C 260.705 58.431,262.879 57.579,266.681 57.584 C 274.609 57.594,276.684 59.715,278.186 69.347 C 278.994 74.526,280.067 78.776,281.242 81.448 C 286.312 92.977,288.109 107.875,285.453 116.370 C 284.193 120.403,284.154 121.777,285.203 125.200 C 285.641 126.630,286.538 130.593,287.196 134.007 C 287.854 137.420,288.855 141.740,289.420 143.607 C 293.561 157.271,294.587 163.195,294.995 175.800 C 295.430 189.258,295.778 191.094,299.181 197.913 C 303.078 205.724,303.250 207.872,303.269 249.000 C 303.289 291.929,303.102 294.276,298.805 305.026 C 296.144 311.685,295.685 313.831,295.004 322.800 C 294.292 332.187,293.644 334.968,291.422 338.192 C 288.236 342.812,287.350 345.048,286.650 350.233 C 285.825 356.337,285.144 358.321,283.053 360.698 C 280.821 363.235,279.651 365.166,278.023 369.000 C 275.950 373.883,274.976 375.119,271.657 377.075 C 270.039 378.030,267.619 379.802,266.280 381.014 C 263.673 383.373,260.994 384.865,257.548 385.879 C 254.453 386.789,228.352 387.093,217.800 386.341 C 209.527 385.752,196.441 385.745,184.800 386.324 C 172.942 386.913,141.471 386.700,138.800 386.012 C 135.695 385.212,133.977 384.021,131.956 381.268 C 130.990 379.952,129.300 378.280,128.200 377.553 C 124.966 375.416,124.408 374.780,122.566 371.122 C 121.602 369.209,120.294 367.049,119.659 366.322 C 117.023 363.304,115.185 360.158,114.015 356.663 C 112.970 353.542,112.469 352.665,110.621 350.737 C 107.491 347.468,106.656 345.554,105.212 338.339 C 104.889 336.728,104.116 335.123,102.518 332.749 C 98.492 326.769,97.866 324.661,97.190 314.800 C 96.357 302.658,96.216 302.102,92.108 294.777 C 89.056 289.335,88.614 283.124,88.604 245.600 C 88.591 196.071,88.662 195.144,93.221 185.220 C 95.940 179.301,95.753 179.971,96.959 171.800 C 98.453 161.680,100.001 158.863,104.978 157.207 C 112.258 154.785,115.279 155.611,121.282 161.665 C 126.221 166.646,126.739 167.514,128.450 173.680 C 131.407 184.332,135.500 187.858,136.946 180.998 C 137.794 176.978,139.565 113.311,139.138 102.200 C 138.630 88.965,139.028 54.471,139.726 51.200 C 140.398 48.053,142.112 44.231,143.451 42.892 C 144.941 41.402,146.155 39.379,147.619 35.950 C 152.811 23.790,165.213 18.732,174.404 25.027 C 178.769 28.016,179.791 27.634,181.175 22.494 C 182.060 19.206,183.305 17.083,185.657 14.855 C 186.965 13.615,188.574 11.765,189.231 10.744 C 192.098 6.294,201.750 4.331,207.077 7.116 M211.234 175.700 C 210.735 177.021,211.413 178.000,212.827 178.000 C 214.239 178.000,214.698 177.172,214.061 175.774 C 213.469 174.476,211.714 174.429,211.234 175.700 " stroke="none" fill="#17120e" fill-rule="evenodd"></path><path id="path1" d="M196.943 9.558 C 194.767 10.118,192.950 11.526,190.551 14.510 C 189.274 16.099,187.981 17.654,187.679 17.964 C 182.404 23.379,180.519 36.039,180.586 65.600 L 180.633 86.600 181.784 90.200 C 183.627 95.965,183.606 96.202,180.667 102.400 C 176.540 111.101,175.144 109.644,176.065 97.600 C 176.433 92.780,176.599 82.688,176.597 65.200 C 176.593 36.811,176.621 37.133,173.555 30.864 C 168.781 21.103,156.604 25.504,149.709 39.482 C 148.429 42.077,146.589 45.545,145.621 47.189 C 142.037 53.275,141.561 56.962,141.598 78.400 C 141.624 93.879,141.720 95.506,142.963 101.417 C 143.622 104.554,143.617 104.724,142.775 108.217 C 141.972 111.549,141.889 113.288,141.591 133.000 C 141.414 144.660,141.085 158.520,140.860 163.800 C 140.325 176.330,140.200 195.048,140.588 204.600 C 140.837 210.718,140.772 213.058,140.257 216.600 C 139.904 219.020,139.435 223.160,139.214 225.800 C 138.758 231.250,138.028 234.466,136.558 237.500 C 135.307 240.084,134.753 240.145,131.443 238.063 C 130.099 237.217,127.020 235.492,124.600 234.229 C 116.446 229.974,116.368 228.489,124.168 226.050 C 133.429 223.156,133.896 222.385,134.247 209.429 C 134.562 197.808,134.404 196.938,130.610 189.400 C 128.213 184.637,127.300 182.287,126.178 178.000 C 124.202 170.449,123.543 169.193,119.463 165.199 C 113.937 159.788,112.010 159.169,107.176 161.248 C 102.584 163.224,100.628 167.025,99.210 176.729 C 98.278 183.112,96.945 188.694,95.461 192.429 C 94.225 195.539,92.936 200.279,92.586 203.000 C 92.445 204.100,92.246 205.450,92.145 206.000 C 91.410 209.981,91.757 256.255,92.592 265.600 C 92.680 266.590,92.862 270.328,92.997 273.906 C 93.272 281.217,94.055 287.222,95.029 289.484 C 97.611 295.480,98.866 300.813,99.811 309.800 C 100.657 317.849,101.563 321.460,104.040 326.642 C 105.185 329.039,106.988 333.583,108.046 336.740 C 109.548 341.220,110.496 343.293,112.365 346.178 C 113.682 348.211,115.595 351.771,116.616 354.088 C 117.636 356.405,119.166 359.142,120.015 360.170 C 120.865 361.197,122.760 364.105,124.227 366.631 C 126.878 371.196,131.032 375.680,136.957 380.370 C 141.494 383.962,161.905 384.666,188.600 382.151 C 199.216 381.151,206.406 381.019,211.400 381.731 C 213.820 382.077,216.745 382.459,217.900 382.580 C 219.055 382.701,220.945 382.909,222.100 383.043 C 231.247 384.100,251.120 383.765,255.098 382.487 C 262.727 380.037,272.752 371.759,275.816 365.380 C 276.868 363.191,278.512 360.202,279.470 358.737 C 281.935 354.969,282.643 353.176,283.969 347.342 C 285.398 341.056,286.008 339.212,288.185 334.600 C 291.114 328.391,291.156 328.223,292.577 316.902 C 293.694 308.010,294.682 302.980,296.428 297.308 C 299.542 287.194,300.037 281.519,300.277 253.200 C 300.555 220.467,300.108 214.512,296.605 204.200 C 293.669 195.557,293.209 193.132,292.204 181.000 C 291.416 171.495,290.726 166.991,289.202 161.400 C 287.178 153.979,286.480 150.500,285.421 142.569 C 283.713 129.772,282.483 126.521,278.167 123.394 C 275.301 121.318,275.301 121.268,278.207 118.669 C 284.045 113.448,284.560 105.692,279.977 91.999 C 278.556 87.753,277.514 83.276,276.400 76.634 C 274.729 66.673,272.953 63.459,268.548 62.425 C 263.266 61.185,260.018 64.328,258.476 72.169 C 257.701 76.110,257.674 107.907,258.438 116.800 C 258.801 121.017,258.793 122.989,258.404 125.800 C 257.716 130.766,257.354 169.466,257.948 174.501 C 258.189 176.546,258.839 179.551,259.393 181.180 C 261.671 187.878,258.610 191.574,251.621 190.562 C 246.162 189.771,245.187 187.311,248.163 181.841 C 251.393 175.903,251.400 175.849,251.400 158.400 C 251.400 132.334,250.888 70.235,250.667 69.600 C 250.553 69.270,250.348 67.560,250.212 65.800 C 249.514 56.739,248.470 51.743,246.241 46.800 C 245.298 44.710,243.767 40.717,242.839 37.926 C 238.761 25.668,231.018 23.003,223.400 31.236 C 222.300 32.425,220.207 34.430,218.749 35.692 C 215.031 38.910,214.761 39.615,215.252 44.803 C 215.471 47.111,215.823 60.340,216.034 74.200 C 216.245 88.060,216.519 100.816,216.642 102.546 C 216.823 105.088,216.687 106.356,215.933 109.146 C 215.006 112.579,215.001 112.724,215.115 132.600 C 215.315 167.176,215.529 169.303,219.362 174.746 C 223.361 180.425,221.298 183.106,213.229 182.715 C 204.832 182.307,203.194 179.999,206.544 173.292 C 209.514 167.347,209.400 168.842,209.400 135.800 L 209.400 106.200 207.900 101.938 C 206.142 96.944,206.067 95.605,207.361 92.419 C 208.857 88.737,209.197 86.468,209.611 77.419 C 210.607 55.619,211.556 46.879,213.442 42.144 L 214.420 39.688 213.834 34.944 C 213.512 32.335,213.139 29.045,213.005 27.633 C 212.294 20.108,208.647 12.159,205.066 10.331 C 203.247 9.402,199.088 9.006,196.943 9.558 M203.829 10.829 C 210.164 12.819,213.291 26.197,211.070 41.800 C 209.973 49.502,209.447 56.841,208.806 73.400 C 208.229 88.296,207.937 89.795,204.797 94.005 C 202.848 96.616,202.848 96.370,204.807 99.106 C 208.263 103.931,208.159 102.881,208.313 134.600 C 208.472 167.459,208.482 167.318,205.532 173.093 C 201.511 180.964,203.560 183.400,214.200 183.400 C 222.783 183.400,224.883 180.967,220.995 175.526 C 216.462 169.182,216.504 169.534,216.327 136.600 L 216.200 113.000 217.300 109.325 C 218.581 105.043,218.650 103.445,217.714 99.725 C 216.933 96.620,216.872 47.916,217.643 42.850 C 218.405 37.848,225.445 29.119,229.625 27.993 C 234.870 26.581,239.369 30.334,241.974 38.297 C 242.677 40.444,244.152 44.507,245.253 47.327 C 249.230 57.516,249.985 64.831,250.042 93.756 C 250.065 105.440,250.202 126.430,250.345 140.400 C 250.697 174.612,250.631 175.480,247.235 181.290 C 243.206 188.186,245.034 191.389,253.000 191.387 C 260.429 191.386,263.053 188.313,260.789 182.263 C 258.908 177.235,258.814 175.865,258.806 153.200 C 258.799 135.646,258.916 130.865,259.457 126.600 C 260.029 122.097,260.047 120.944,259.591 118.000 C 258.907 113.584,258.559 78.783,259.156 74.422 C 260.213 66.692,262.263 63.800,266.685 63.800 C 272.061 63.800,273.824 66.453,275.654 77.294 C 276.769 83.906,277.600 87.584,280.376 98.200 C 283.564 110.394,282.037 115.745,274.621 118.363 C 269.863 120.042,269.514 122.615,273.884 123.792 C 281.478 125.836,282.709 128.060,284.605 143.161 C 285.720 152.044,286.558 156.483,288.351 163.000 C 289.958 168.843,290.645 173.112,291.407 182.000 C 292.149 190.651,293.165 196.856,294.617 201.600 C 299.440 217.370,299.761 220.655,299.489 251.600 C 299.311 271.934,298.862 281.045,297.809 285.711 C 297.699 286.200,297.532 287.050,297.439 287.600 C 297.194 289.039,296.537 291.925,295.206 297.400 C 293.455 304.606,292.943 307.442,291.814 316.200 C 290.713 324.742,289.765 328.911,288.238 331.924 C 286.303 335.743,285.122 339.159,283.578 345.400 C 281.684 353.054,281.570 353.359,279.148 357.258 C 278.103 358.939,276.504 361.909,275.596 363.858 C 271.437 372.779,260.211 380.931,250.038 382.419 C 243.979 383.305,220.048 382.332,214.664 380.980 C 209.765 379.751,201.826 379.514,194.200 380.371 C 166.615 383.470,145.204 383.463,139.107 380.353 C 136.136 378.837,128.332 371.524,126.600 368.633 C 125.720 367.164,123.882 364.306,122.516 362.281 C 121.150 360.256,118.715 355.990,117.105 352.800 C 115.496 349.610,113.624 346.190,112.945 345.200 C 111.101 342.507,110.662 341.523,108.407 335.021 C 107.269 331.740,105.531 327.333,104.543 325.228 C 102.397 320.649,101.461 316.891,100.604 309.400 C 99.682 301.352,98.945 297.633,97.195 292.200 C 96.344 289.560,95.459 286.320,95.227 285.000 C 94.110 278.623,92.694 247.611,92.643 228.400 C 92.585 206.378,92.848 203.835,96.227 193.800 C 97.986 188.576,98.968 184.279,99.995 177.317 C 101.578 166.579,103.927 162.819,109.814 161.597 C 115.545 160.407,122.936 168.012,125.175 177.400 C 126.524 183.058,127.545 185.856,130.063 190.800 C 133.096 196.754,133.321 198.099,133.111 209.000 C 132.868 221.683,132.500 222.283,123.168 225.225 C 113.656 228.224,113.521 229.949,122.452 234.426 C 131.045 238.734,132.416 240.654,133.204 249.494 C 134.181 260.452,139.356 270.293,142.687 267.528 C 143.843 266.568,142.347 255.583,139.945 247.400 C 138.361 242.003,138.279 239.288,139.484 232.200 C 141.308 221.473,142.195 209.039,141.664 201.624 C 141.084 193.517,141.068 174.529,141.631 162.400 C 141.861 157.450,142.183 144.220,142.346 133.000 L 142.644 112.600 143.965 108.534 L 145.286 104.467 144.012 100.534 C 142.319 95.304,141.648 81.967,142.348 67.432 C 142.880 56.393,143.383 53.779,145.895 49.005 C 146.938 47.022,148.810 43.330,150.054 40.800 C 155.514 29.700,162.833 24.614,169.029 27.614 C 174.609 30.315,175.413 36.160,175.077 71.600 C 174.843 96.303,174.665 98.382,172.477 101.961 C 170.857 104.610,170.517 104.694,168.075 103.051 C 162.028 98.981,150.431 99.982,150.878 104.533 C 151.282 108.645,161.675 109.835,168.288 106.526 C 170.747 105.296,170.990 105.410,172.485 108.492 C 175.282 114.259,175.068 124.082,171.585 149.800 C 169.453 165.545,168.539 168.588,164.475 173.471 C 159.184 179.829,161.371 183.200,170.789 183.200 C 181.436 183.200,183.719 180.045,179.473 171.200 C 175.408 162.732,175.003 154.550,177.571 132.800 C 180.309 109.619,180.991 106.012,183.693 100.435 L 185.711 96.271 185.072 94.435 C 184.720 93.426,183.930 91.250,183.316 89.600 L 182.200 86.600 182.220 62.600 C 182.249 27.260,183.544 21.765,194.133 12.041 C 196.131 10.206,200.220 9.695,203.829 10.829 M193.544 95.175 C 191.944 96.488,193.860 98.382,196.800 98.393 C 198.511 98.400,201.000 97.219,201.000 96.400 C 201.000 94.661,195.309 93.726,193.544 95.175 M228.785 102.100 C 224.284 104.370,228.267 108.636,233.556 107.212 C 236.893 106.313,237.306 103.354,234.286 101.983 C 232.083 100.983,230.952 101.007,228.785 102.100 M163.909 102.672 C 166.790 104.823,164.319 107.271,159.267 107.271 C 153.470 107.271,150.747 104.059,154.931 102.159 C 156.857 101.284,162.481 101.606,163.909 102.672 M233.515 103.772 C 234.968 105.144,231.980 106.603,230.159 105.410 C 228.987 104.642,229.071 103.999,230.432 103.309 C 231.458 102.788,232.665 102.969,233.515 103.772 M174.139 164.628 C 178.734 171.910,180.827 176.826,180.151 178.748 C 178.661 182.983,165.967 183.774,163.360 179.795 C 162.434 178.382,162.799 177.478,165.994 173.264 C 167.549 171.213,169.377 168.425,170.056 167.068 C 172.140 162.900,172.800 162.506,174.139 164.628 M176.598 225.765 C 173.890 228.473,178.020 232.604,184.400 233.568 C 185.830 233.785,189.880 234.158,193.400 234.397 C 199.652 234.823,203.721 235.360,210.200 236.614 C 211.960 236.955,217.000 237.761,221.400 238.405 C 225.800 239.050,231.830 240.018,234.800 240.558 C 237.770 241.098,242.835 241.899,246.055 242.338 C 252.495 243.218,253.714 243.680,257.182 246.562 C 258.382 247.560,260.916 249.199,262.812 250.206 C 264.708 251.213,267.326 252.924,268.630 254.008 C 272.709 257.401,277.446 258.190,279.487 255.817 C 281.380 253.616,280.213 251.912,275.057 249.343 C 273.046 248.341,270.120 246.549,268.555 245.360 C 266.991 244.172,264.111 242.456,262.155 241.547 C 260.200 240.638,257.472 239.097,256.092 238.122 C 249.884 233.732,246.853 233.163,228.600 232.955 C 207.092 232.711,203.896 232.283,191.200 227.950 C 181.190 224.534,178.267 224.096,176.598 225.765 M186.117 227.811 C 191.737 230.061,191.601 232.007,185.824 231.991 C 182.181 231.981,179.687 231.115,178.622 229.490 C 176.677 226.521,180.664 225.628,186.117 227.811 M246.112 234.989 C 250.694 235.960,254.902 238.915,254.223 240.685 C 253.302 243.083,228.800 238.920,228.800 236.365 C 228.800 234.641,240.197 233.735,246.112 234.989 M263.581 243.990 C 264.448 244.433,266.183 245.780,267.436 246.984 C 269.313 248.787,270.276 249.360,272.906 250.235 C 277.847 251.881,279.948 254.506,277.080 255.448 C 274.719 256.224,272.053 255.082,269.527 252.212 C 268.444 250.982,267.237 250.181,265.305 249.411 C 260.609 247.538,257.552 244.944,258.164 243.351 C 258.491 242.499,261.309 242.831,263.581 243.990 M137.990 247.472 C 140.752 252.154,141.715 262.000,139.410 262.000 C 137.221 262.000,134.996 256.538,135.010 251.200 C 135.025 245.662,136.116 244.297,137.990 247.472 " stroke="none" fill="#846450" fill-rule="evenodd"></path><path id="path2" d="M195.237 6.458 C 192.778 7.035,190.635 8.565,189.231 10.744 C 188.574 11.765,186.965 13.615,185.657 14.855 C 183.305 17.083,182.060 19.206,181.175 22.494 C 179.791 27.634,178.769 28.016,174.404 25.027 C 170.054 22.047,163.405 21.398,158.782 23.500 C 155.328 25.071,149.479 31.594,147.619 35.950 C 146.155 39.379,144.941 41.402,143.451 42.892 C 142.112 44.231,140.398 48.053,139.726 51.200 C 139.028 54.471,138.630 88.965,139.138 102.200 C 139.565 113.311,137.794 176.978,136.946 180.998 C 135.500 187.858,131.407 184.332,128.450 173.680 C 126.739 167.514,126.221 166.646,121.282 161.665 C 115.279 155.611,112.258 154.785,104.978 157.207 C 100.001 158.863,98.453 161.680,96.959 171.800 C 95.753 179.971,95.940 179.301,93.221 185.220 C 88.662 195.144,88.591 196.071,88.604 245.600 C 88.614 283.124,89.056 289.335,92.108 294.777 C 96.216 302.102,96.357 302.658,97.190 314.800 C 97.866 324.661,98.492 326.769,102.518 332.749 C 104.116 335.123,104.889 336.728,105.212 338.339 C 106.656 345.554,107.491 347.468,110.621 350.737 C 112.469 352.665,112.970 353.542,114.015 356.663 C 115.185 360.158,117.023 363.304,119.659 366.322 C 120.294 367.049,121.602 369.209,122.566 371.122 C 124.408 374.780,124.966 375.416,128.200 377.553 C 129.300 378.280,130.990 379.952,131.956 381.268 C 133.977 384.021,135.695 385.212,138.800 386.012 C 141.471 386.700,172.942 386.913,184.800 386.324 C 196.441 385.745,209.527 385.752,217.800 386.341 C 228.352 387.093,254.453 386.789,257.548 385.879 C 260.994 384.865,263.673 383.373,266.280 381.014 C 267.619 379.802,270.039 378.030,271.657 377.075 C 274.976 375.119,275.950 373.883,278.023 369.000 C 279.651 365.166,280.821 363.235,283.053 360.698 C 285.144 358.321,285.825 356.337,286.650 350.233 C 287.350 345.048,288.236 342.812,291.422 338.192 C 293.644 334.968,294.292 332.187,295.004 322.800 C 295.685 313.831,296.144 311.685,298.805 305.026 C 303.102 294.276,303.289 291.929,303.269 249.000 C 303.250 207.872,303.078 205.724,299.181 197.913 C 295.778 191.094,295.430 189.258,294.995 175.800 C 294.587 163.195,293.561 157.271,289.420 143.607 C 288.855 141.740,287.854 137.420,287.196 134.007 C 286.538 130.593,285.641 126.630,285.203 125.200 C 284.154 121.777,284.193 120.403,285.453 116.370 C 288.109 107.875,286.312 92.977,281.242 81.448 C 280.067 78.776,278.994 74.526,278.186 69.347 C 276.684 59.715,274.609 57.594,266.681 57.584 C 262.879 57.579,260.705 58.431,257.952 61.006 C 254.302 64.420,253.662 63.263,252.196 50.607 C 251.829 47.435,250.731 44.606,248.796 41.842 C 246.363 38.370,245.970 37.394,245.356 33.306 C 244.280 26.141,242.956 24.525,237.224 23.374 C 231.325 22.190,228.091 22.853,221.901 26.513 C 219.855 27.724,218.519 27.018,217.502 24.190 C 217.108 23.095,216.504 21.436,216.160 20.502 C 215.816 19.567,214.634 17.423,213.533 15.736 C 212.431 14.048,211.353 12.204,211.138 11.636 C 209.373 6.994,202.494 4.754,195.237 6.458 M205.066 10.331 C 208.647 12.159,212.294 20.108,213.005 27.633 C 213.139 29.045,213.512 32.335,213.834 34.944 L 214.420 39.688 213.442 42.144 C 211.556 46.879,210.607 55.619,209.611 77.419 C 209.197 86.468,208.857 88.737,207.361 92.419 C 206.067 95.605,206.142 96.944,207.900 101.938 L 209.400 106.200 209.400 135.800 C 209.400 168.842,209.514 167.347,206.544 173.292 C 203.194 179.999,204.832 182.307,213.229 182.715 C 221.298 183.106,223.361 180.425,219.362 174.746 C 215.529 169.303,215.315 167.176,215.115 132.600 C 215.001 112.724,215.006 112.579,215.933 109.146 C 216.687 106.356,216.823 105.088,216.642 102.546 C 216.519 100.816,216.245 88.060,216.034 74.200 C 215.823 60.340,215.471 47.111,215.252 44.803 C 214.761 39.615,215.031 38.910,218.749 35.692 C 220.207 34.430,222.300 32.425,223.400 31.236 C 231.018 23.003,238.761 25.668,242.839 37.926 C 243.767 40.717,245.298 44.710,246.241 46.800 C 248.470 51.743,249.514 56.739,250.212 65.800 C 250.348 67.560,250.553 69.270,250.667 69.600 C 250.888 70.235,251.400 132.334,251.400 158.400 C 251.400 175.849,251.393 175.903,248.163 181.841 C 245.187 187.311,246.162 189.771,251.621 190.562 C 258.610 191.574,261.671 187.878,259.393 181.180 C 258.839 179.551,258.189 176.546,257.948 174.501 C 257.354 169.466,257.716 130.766,258.404 125.800 C 258.793 122.989,258.801 121.017,258.438 116.800 C 257.674 107.907,257.701 76.110,258.476 72.169 C 260.018 64.328,263.266 61.185,268.548 62.425 C 272.953 63.459,274.729 66.673,276.400 76.634 C 277.514 83.276,278.556 87.753,279.977 91.999 C 284.560 105.692,284.045 113.448,278.207 118.669 C 275.301 121.268,275.301 121.318,278.167 123.394 C 282.483 126.521,283.713 129.772,285.421 142.569 C 286.480 150.500,287.178 153.979,289.202 161.400 C 290.726 166.991,291.416 171.495,292.204 181.000 C 293.209 193.132,293.669 195.557,296.605 204.200 C 300.108 214.512,300.555 220.467,300.277 253.200 C 300.037 281.519,299.542 287.194,296.428 297.308 C 294.682 302.980,293.694 308.010,292.577 316.902 C 291.156 328.223,291.114 328.391,288.185 334.600 C 286.008 339.212,285.398 341.056,283.969 347.342 C 282.643 353.176,281.935 354.969,279.470 358.737 C 278.512 360.202,276.868 363.191,275.816 365.380 C 272.752 371.759,262.727 380.037,255.098 382.487 C 251.120 383.765,231.247 384.100,222.100 383.043 C 220.945 382.909,219.055 382.701,217.900 382.580 C 216.745 382.459,213.820 382.077,211.400 381.731 C 206.406 381.019,199.216 381.151,188.600 382.151 C 161.905 384.666,141.494 383.962,136.957 380.370 C 131.032 375.680,126.878 371.196,124.227 366.631 C 122.760 364.105,120.865 361.197,120.015 360.170 C 119.166 359.142,117.636 356.405,116.616 354.088 C 115.595 351.771,113.682 348.211,112.365 346.178 C 110.496 343.293,109.548 341.220,108.046 336.740 C 106.988 333.583,105.185 329.039,104.040 326.642 C 101.563 321.460,100.657 317.849,99.811 309.800 C 98.866 300.813,97.611 295.480,95.029 289.484 C 94.055 287.222,93.272 281.217,92.997 273.906 C 92.862 270.328,92.680 266.590,92.592 265.600 C 91.757 256.255,91.410 209.981,92.145 206.000 C 92.246 205.450,92.445 204.100,92.586 203.000 C 92.936 200.279,94.225 195.539,95.461 192.429 C 96.945 188.694,98.278 183.112,99.210 176.729 C 100.628 167.025,102.584 163.224,107.176 161.248 C 112.010 159.169,113.937 159.788,119.463 165.199 C 123.543 169.193,124.202 170.449,126.178 178.000 C 127.300 182.287,128.213 184.637,130.610 189.400 C 134.404 196.938,134.562 197.808,134.247 209.429 C 133.896 222.385,133.429 223.156,124.168 226.050 C 116.368 228.489,116.446 229.974,124.600 234.229 C 127.020 235.492,130.099 237.217,131.443 238.063 C 134.753 240.145,135.307 240.084,136.558 237.500 C 138.028 234.466,138.758 231.250,139.214 225.800 C 139.435 223.160,139.904 219.020,140.257 216.600 C 140.772 213.058,140.837 210.718,140.588 204.600 C 140.200 195.048,140.325 176.330,140.860 163.800 C 141.085 158.520,141.414 144.660,141.591 133.000 C 141.889 113.288,141.972 111.549,142.775 108.217 C 143.617 104.724,143.622 104.554,142.963 101.417 C 141.720 95.506,141.624 93.879,141.598 78.400 C 141.561 56.962,142.037 53.275,145.621 47.189 C 146.589 45.545,148.429 42.077,149.709 39.482 C 156.604 25.504,168.781 21.103,173.555 30.864 C 176.621 37.133,176.593 36.811,176.597 65.200 C 176.599 82.688,176.433 92.780,176.065 97.600 C 175.144 109.644,176.540 111.101,180.667 102.400 C 183.606 96.202,183.627 95.965,181.784 90.200 L 180.633 86.600 180.586 65.600 C 180.519 36.039,182.404 23.379,187.679 17.964 C 187.981 17.654,189.274 16.099,190.551 14.510 C 194.742 9.296,200.048 7.769,205.066 10.331 M154.931 102.159 C 150.747 104.059,153.470 107.271,159.267 107.271 C 164.319 107.271,166.790 104.823,163.909 102.672 C 162.481 101.606,156.857 101.284,154.931 102.159 M230.432 103.309 C 229.071 103.999,228.987 104.642,230.159 105.410 C 231.347 106.188,233.399 105.902,233.781 104.905 C 234.285 103.591,232.011 102.508,230.432 103.309 M171.916 163.890 C 171.571 164.281,170.734 165.710,170.056 167.068 C 169.377 168.425,167.549 171.213,165.994 173.264 C 161.290 179.469,162.207 181.789,169.561 182.292 C 180.151 183.016,182.491 179.482,177.438 170.400 C 173.208 162.797,173.047 162.607,171.916 163.890 M214.061 175.774 C 214.698 177.172,214.239 178.000,212.827 178.000 C 211.413 178.000,210.735 177.021,211.234 175.700 C 211.714 174.429,213.469 174.476,214.061 175.774 M179.356 226.771 C 177.298 227.654,178.108 229.943,180.931 231.225 C 183.026 232.176,188.628 232.307,189.824 231.432 C 192.093 229.773,182.409 225.460,179.356 226.771 M232.119 234.820 C 227.719 235.689,227.759 236.859,232.244 238.430 C 238.475 240.613,253.653 242.170,254.223 240.685 C 255.759 236.682,241.648 232.937,232.119 234.820 M258.164 243.351 C 257.552 244.944,260.609 247.538,265.305 249.411 C 267.237 250.181,268.444 250.982,269.527 252.212 C 272.053 255.082,274.719 256.224,277.080 255.448 C 279.948 254.506,277.847 251.881,272.906 250.235 C 270.276 249.360,269.313 248.787,267.436 246.984 C 263.917 243.602,258.832 241.610,258.164 243.351 M135.516 246.515 C 133.962 249.287,135.286 257.903,137.686 260.637 C 139.212 262.375,139.821 262.356,140.416 260.552 C 141.986 255.793,137.507 242.962,135.516 246.515 " stroke="none" fill="#6c5444" fill-rule="evenodd"></path><path id="path3" d="M198.031 20.965 C 195.125 22.575,191.126 29.143,190.409 33.483 C 189.832 36.982,189.533 78.780,190.064 81.797 C 190.569 84.661,191.416 85.341,194.714 85.527 C 201.623 85.918,201.652 85.840,202.055 65.600 C 202.233 56.690,202.565 45.530,202.794 40.800 C 203.685 22.358,202.726 18.364,198.031 20.965 M230.499 40.100 C 228.289 42.870,225.108 63.331,223.922 82.400 C 223.238 93.407,223.588 93.975,231.080 94.034 C 233.456 94.052,236.480 94.206,237.800 94.375 C 242.820 95.019,243.200 94.269,243.200 83.709 C 243.200 74.027,242.773 70.384,241.004 64.985 C 238.825 58.332,238.133 55.777,236.787 49.404 C 235.548 43.535,234.927 41.712,233.690 40.300 C 232.979 39.489,231.081 39.370,230.499 40.100 M159.900 41.500 C 157.906 43.035,156.494 45.669,153.602 53.246 C 148.808 65.807,149.036 64.619,149.017 77.200 C 148.993 93.115,149.130 93.423,156.229 93.370 C 164.750 93.306,164.555 93.860,164.733 69.200 C 164.935 41.203,164.385 38.047,159.900 41.500 M266.581 79.708 C 265.522 81.460,265.367 106.538,266.403 108.600 C 267.205 110.196,268.719 110.375,270.252 109.056 C 271.590 107.905,271.798 104.929,270.897 99.800 C 270.626 98.260,270.037 93.670,269.588 89.600 C 268.448 79.259,267.914 77.504,266.581 79.708 M191.331 108.575 C 189.560 109.853,189.365 111.544,188.791 130.600 C 188.572 137.860,188.200 147.594,187.966 152.232 C 187.371 163.975,188.237 169.073,191.356 172.193 C 194.194 175.031,199.056 170.202,200.008 163.600 C 200.812 158.019,198.944 113.013,197.818 110.834 C 196.611 108.501,193.118 107.284,191.331 108.575 M238.691 114.242 C 238.558 114.375,235.559 114.604,232.026 114.751 C 224.694 115.056,224.186 115.279,223.572 118.457 C 223.176 120.503,223.158 138.521,223.535 155.031 L 223.801 166.663 224.906 168.113 C 225.515 168.910,227.068 170.375,228.358 171.368 C 229.649 172.361,231.657 174.458,232.821 176.028 C 234.854 178.770,234.991 178.874,236.306 178.660 C 239.417 178.155,242.429 174.461,243.162 170.249 C 243.708 167.116,243.751 119.333,243.210 117.000 C 242.680 114.713,239.910 113.023,238.691 114.242 M153.206 115.641 C 150.226 116.275,150.000 117.012,149.998 126.122 C 149.997 130.565,149.640 138.684,149.205 144.164 C 147.778 162.123,148.025 173.170,149.899 175.132 C 150.593 175.858,150.467 175.956,155.272 170.941 C 161.309 164.640,161.030 166.157,162.019 134.333 C 162.491 119.141,162.452 118.394,161.090 116.906 C 159.961 115.673,156.028 115.041,153.206 115.641 M268.100 134.615 C 266.404 135.803,266.279 137.504,266.573 155.321 C 266.888 174.448,266.966 175.159,269.271 180.127 C 274.939 192.345,267.771 199.229,250.389 198.263 C 242.649 197.833,238.647 195.949,235.002 191.020 C 232.353 187.439,232.193 187.404,227.589 189.429 C 224.319 190.866,221.114 191.613,219.221 191.379 C 218.660 191.309,216.760 191.063,215.000 190.830 C 213.240 190.598,210.090 190.223,208.000 189.996 C 202.779 189.429,200.719 188.758,197.016 186.415 C 193.173 183.983,192.589 183.952,189.186 186.009 C 181.783 190.482,165.508 191.621,157.800 188.205 C 155.932 187.378,151.565 184.249,151.267 183.524 C 150.964 182.790,149.975 183.283,149.310 184.500 C 148.671 185.670,148.610 186.897,148.704 196.800 C 148.761 202.850,148.514 214.010,148.154 221.600 C 147.116 243.538,147.546 247.947,151.530 256.163 C 160.105 273.848,151.951 288.081,137.562 280.547 C 132.228 277.755,130.025 274.371,128.220 266.200 C 126.884 260.153,125.969 257.169,124.260 253.281 C 123.515 251.587,122.409 248.940,121.802 247.400 C 119.888 242.545,118.412 241.131,113.600 239.546 C 108.580 237.891,105.460 235.997,103.602 233.475 C 101.532 230.664,101.160 234.381,102.350 246.000 C 103.526 257.476,103.971 263.817,104.217 272.600 C 104.334 276.780,104.601 281.820,104.811 283.800 C 105.022 285.780,105.465 290.100,105.797 293.400 C 107.255 307.886,107.344 308.300,110.564 315.697 C 111.574 318.016,112.400 320.107,112.400 320.345 C 112.400 323.274,116.028 333.470,118.539 337.600 C 119.409 339.030,120.986 342.155,122.043 344.544 C 123.101 346.933,125.213 350.893,126.735 353.344 C 128.258 355.795,130.230 359.060,131.117 360.600 C 133.004 363.878,136.590 367.964,138.709 369.252 C 139.529 369.750,140.292 370.288,140.404 370.447 C 140.727 370.905,144.734 372.396,146.131 372.578 C 146.829 372.670,148.570 372.935,150.000 373.169 C 153.999 373.823,161.482 373.681,169.200 372.806 C 196.725 369.684,212.072 369.750,229.400 373.064 C 237.032 374.524,243.359 374.731,247.412 373.655 C 249.166 373.189,251.680 372.522,253.000 372.172 C 261.965 369.796,267.358 364.783,270.607 355.809 C 271.398 353.622,273.039 349.981,274.254 347.718 C 276.187 344.112,276.608 342.896,277.647 337.901 C 279.816 327.474,280.306 325.929,284.021 317.800 C 284.850 315.984,285.506 311.400,286.195 302.600 C 286.315 301.060,286.589 298.090,286.804 296.000 C 287.019 293.910,287.291 290.940,287.408 289.400 C 287.724 285.237,288.748 277.942,289.592 273.829 C 292.113 261.553,291.604 259.494,286.714 262.182 C 278.900 266.475,268.961 265.508,260.938 259.673 C 258.456 257.867,251.463 253.908,245.200 250.762 C 240.905 248.605,236.431 248.135,211.200 247.194 C 193.452 246.531,189.381 245.898,183.286 242.853 C 181.589 242.005,178.233 240.534,175.828 239.584 C 168.117 236.538,164.746 233.106,163.364 226.898 C 160.497 214.010,170.690 208.988,184.602 216.435 C 189.775 219.205,191.443 219.489,207.800 220.393 C 231.184 221.686,233.188 221.940,242.000 224.732 C 244.750 225.604,248.979 226.716,251.398 227.203 C 258.159 228.566,261.147 229.818,267.800 234.076 C 277.663 240.387,286.405 246.312,288.054 247.801 C 291.429 250.850,292.207 249.342,292.182 239.800 C 292.165 233.215,292.112 232.785,290.505 226.200 C 288.858 219.449,288.214 216.256,287.805 212.800 C 287.687 211.810,287.327 208.930,287.004 206.400 C 286.681 203.870,286.137 198.920,285.796 195.400 C 285.076 187.960,284.589 184.951,283.804 183.071 C 282.932 180.983,280.507 172.791,280.232 171.000 C 280.096 170.120,279.786 168.320,279.542 167.000 C 278.832 163.162,278.490 159.551,277.588 146.400 C 277.108 139.388,276.702 137.411,275.464 136.048 C 273.697 134.103,269.889 133.362,268.100 134.615 M108.945 173.580 C 107.364 175.062,106.977 176.697,106.190 185.200 C 105.598 191.593,104.780 197.512,104.015 200.938 C 103.811 201.852,103.534 203.230,103.400 204.000 C 103.266 204.770,102.591 207.470,101.901 210.000 C 99.675 218.158,100.505 234.856,102.821 228.500 C 104.720 223.285,107.780 221.041,115.239 219.391 C 122.123 217.869,123.798 216.724,124.984 212.727 C 126.621 207.216,126.214 203.653,123.207 197.180 C 121.287 193.044,120.112 188.991,119.216 183.400 C 117.971 175.631,112.419 170.323,108.945 173.580 " stroke="none" fill="#fbbb93" fill-rule="evenodd"></path><path id="path4" d="M197.088 10.553 C 194.835 11.177,194.054 11.848,190.142 16.518 C 183.022 25.018,182.247 29.527,182.220 62.600 L 182.200 86.600 183.316 89.600 C 183.930 91.250,184.720 93.426,185.072 94.435 L 185.711 96.271 183.693 100.435 C 180.991 106.012,180.309 109.619,177.571 132.800 C 175.003 154.550,175.408 162.732,179.473 171.200 C 183.719 180.045,181.436 183.200,170.789 183.200 C 161.371 183.200,159.184 179.829,164.475 173.471 C 168.539 168.588,169.453 165.545,171.585 149.800 C 175.068 124.082,175.282 114.259,172.485 108.492 C 170.990 105.410,170.747 105.296,168.288 106.526 C 161.675 109.835,151.282 108.645,150.878 104.533 C 150.431 99.982,162.028 98.981,168.075 103.051 C 170.517 104.694,170.857 104.610,172.477 101.961 C 174.665 98.382,174.843 96.303,175.077 71.600 C 175.413 36.160,174.609 30.315,169.029 27.614 C 162.833 24.614,155.514 29.700,150.054 40.800 C 148.810 43.330,146.938 47.022,145.895 49.005 C 143.383 53.779,142.880 56.393,142.348 67.432 C 141.648 81.967,142.319 95.304,144.012 100.534 L 145.286 104.467 143.965 108.534 L 142.644 112.600 142.346 133.000 C 142.183 144.220,141.861 157.450,141.631 162.400 C 141.068 174.529,141.084 193.517,141.664 201.624 C 142.195 209.039,141.308 221.473,139.484 232.200 C 138.279 239.288,138.361 242.003,139.945 247.400 C 142.347 255.583,143.843 266.568,142.687 267.528 C 139.356 270.293,134.181 260.452,133.204 249.494 C 132.416 240.654,131.045 238.734,122.452 234.426 C 113.521 229.949,113.656 228.224,123.168 225.225 C 132.500 222.283,132.868 221.683,133.111 209.000 C 133.321 198.099,133.096 196.754,130.063 190.800 C 127.545 185.856,126.524 183.058,125.175 177.400 C 122.936 168.012,115.545 160.407,109.814 161.597 C 103.927 162.819,101.578 166.579,99.995 177.317 C 98.968 184.279,97.986 188.576,96.227 193.800 C 92.848 203.835,92.585 206.378,92.643 228.400 C 92.694 247.611,94.110 278.623,95.227 285.000 C 95.459 286.320,96.344 289.560,97.195 292.200 C 98.945 297.633,99.682 301.352,100.604 309.400 C 101.461 316.891,102.397 320.649,104.543 325.228 C 105.531 327.333,107.269 331.740,108.407 335.021 C 110.662 341.523,111.101 342.507,112.945 345.200 C 113.624 346.190,115.496 349.610,117.105 352.800 C 118.715 355.990,121.150 360.256,122.516 362.281 C 123.882 364.306,125.720 367.164,126.600 368.633 C 128.332 371.524,136.136 378.837,139.107 380.353 C 145.204 383.463,166.615 383.470,194.200 380.371 C 201.826 379.514,209.765 379.751,214.664 380.980 C 220.048 382.332,243.979 383.305,250.038 382.419 C 260.211 380.931,271.437 372.779,275.596 363.858 C 276.504 361.909,278.103 358.939,279.148 357.258 C 281.570 353.359,281.684 353.054,283.578 345.400 C 285.122 339.159,286.303 335.743,288.238 331.924 C 289.765 328.911,290.713 324.742,291.814 316.200 C 292.943 307.442,293.455 304.606,295.206 297.400 C 296.537 291.925,297.194 289.039,297.439 287.600 C 297.532 287.050,297.699 286.200,297.809 285.711 C 298.862 281.045,299.311 271.934,299.489 251.600 C 299.761 220.655,299.440 217.370,294.617 201.600 C 293.165 196.856,292.149 190.651,291.407 182.000 C 290.645 173.112,289.958 168.843,288.351 163.000 C 286.558 156.483,285.720 152.044,284.605 143.161 C 282.709 128.060,281.478 125.836,273.884 123.792 C 269.514 122.615,269.863 120.042,274.621 118.363 C 282.037 115.745,283.564 110.394,280.376 98.200 C 277.600 87.584,276.769 83.906,275.654 77.294 C 273.824 66.453,272.061 63.800,266.685 63.800 C 262.263 63.800,260.213 66.692,259.156 74.422 C 258.559 78.783,258.907 113.584,259.591 118.000 C 260.047 120.944,260.029 122.097,259.457 126.600 C 258.916 130.865,258.799 135.646,258.806 153.200 C 258.814 175.865,258.908 177.235,260.789 182.263 C 263.053 188.313,260.429 191.386,253.000 191.387 C 245.034 191.389,243.206 188.186,247.235 181.290 C 250.631 175.480,250.697 174.612,250.345 140.400 C 250.202 126.430,250.065 105.440,250.042 93.756 C 249.985 64.831,249.230 57.516,245.253 47.327 C 244.152 44.507,242.677 40.444,241.974 38.297 C 239.369 30.334,234.870 26.581,229.625 27.993 C 225.445 29.119,218.405 37.848,217.643 42.850 C 216.872 47.916,216.933 96.620,217.714 99.725 C 218.650 103.445,218.581 105.043,217.300 109.325 L 216.200 113.000 216.327 136.600 C 216.504 169.534,216.462 169.182,220.995 175.526 C 224.883 180.967,222.783 183.400,214.200 183.400 C 203.560 183.400,201.511 180.964,205.532 173.093 C 208.482 167.318,208.472 167.459,208.313 134.600 C 208.159 102.881,208.263 103.931,204.807 99.106 C 202.848 96.370,202.848 96.616,204.797 94.005 C 207.937 89.795,208.229 88.296,208.806 73.400 C 209.447 56.841,209.973 49.502,211.070 41.800 C 214.063 20.777,208.122 7.498,197.088 10.553 M203.886 12.787 C 208.859 15.819,210.739 25.516,209.048 39.410 C 208.291 45.623,207.723 55.819,207.388 69.200 C 206.862 90.161,206.122 92.121,198.800 91.953 C 196.930 91.910,193.823 92.020,191.895 92.197 L 188.389 92.519 186.886 90.939 C 184.221 88.137,184.263 88.530,184.094 64.600 C 183.840 28.677,184.432 25.509,193.267 15.454 C 196.354 11.940,200.705 10.848,203.886 12.787 M166.840 28.854 C 172.483 30.736,172.942 33.813,172.700 68.163 C 172.512 94.783,172.432 95.750,170.238 97.944 L 169.181 99.000 161.891 99.007 C 155.599 99.013,154.170 99.135,151.461 99.897 C 144.384 101.889,143.381 98.639,143.717 74.800 C 143.954 58.042,144.230 56.340,147.895 49.000 C 149.213 46.360,151.121 42.490,152.136 40.400 C 154.727 35.062,160.009 29.573,163.310 28.788 C 165.162 28.348,165.335 28.352,166.840 28.854 M234.800 30.810 C 237.939 32.407,238.826 34.110,242.925 46.400 C 248.738 63.833,248.494 59.622,248.572 143.800 C 248.604 177.962,248.798 175.840,245.144 181.336 C 240.266 188.677,243.408 193.094,253.400 192.938 C 262.579 192.796,265.421 189.397,262.597 181.940 C 260.559 176.559,260.445 175.009,260.429 152.400 C 260.415 132.449,260.580 129.666,262.075 124.521 L 262.936 121.555 262.062 118.478 C 260.528 113.075,260.418 111.500,260.340 93.888 C 260.235 70.262,261.223 66.000,266.800 66.000 C 271.323 66.000,272.808 68.891,274.793 81.558 C 275.454 85.771,276.810 92.499,277.806 96.509 C 281.238 110.319,280.621 113.753,274.337 115.811 C 263.994 119.198,263.896 124.445,274.136 126.552 C 280.693 127.901,281.748 130.148,283.389 146.265 C 284.178 154.024,284.897 158.144,286.588 164.600 C 288.616 172.347,289.109 175.123,290.215 185.015 C 291.420 195.798,291.872 198.301,294.402 208.200 C 300.017 230.175,299.868 265.497,294.043 293.400 C 292.558 300.516,291.454 307.305,290.401 315.800 C 289.513 322.965,289.012 324.784,285.665 333.002 C 284.769 335.203,283.489 339.253,282.821 342.002 C 280.899 349.910,280.460 351.168,278.212 355.200 C 277.047 357.290,275.447 360.411,274.656 362.136 C 271.259 369.548,267.522 372.961,256.850 378.399 C 249.682 382.051,235.653 382.243,216.000 378.957 C 207.716 377.572,201.633 377.344,194.600 378.157 C 162.950 381.813,146.491 381.957,140.062 378.632 C 135.828 376.443,129.253 369.934,126.495 365.203 C 125.276 363.112,123.422 360.230,122.376 358.800 C 121.329 357.370,119.403 353.950,118.096 351.200 C 116.789 348.450,114.801 344.700,113.679 342.866 C 112.278 340.576,111.055 337.760,109.772 333.873 C 108.745 330.760,107.135 326.410,106.194 324.206 C 103.496 317.887,102.900 315.652,102.008 308.501 C 100.962 300.121,100.256 296.182,98.800 290.600 C 97.552 285.817,96.958 282.077,96.606 276.800 C 92.908 221.366,93.005 211.786,97.409 197.052 C 99.557 189.869,100.099 187.307,101.232 179.000 C 102.231 171.677,103.094 168.964,105.148 166.685 C 111.614 159.514,120.899 165.881,124.177 179.735 C 125.506 185.351,126.139 187.136,128.601 192.200 C 131.242 197.634,131.602 199.358,131.592 206.520 C 131.574 219.740,130.550 221.464,121.216 223.998 C 110.551 226.893,109.299 230.843,117.914 234.417 C 127.331 238.324,128.886 240.319,131.191 251.444 C 134.179 265.871,136.995 271.438,141.937 272.693 C 147.269 274.046,148.742 269.955,145.824 261.893 C 142.511 252.742,140.603 240.722,141.382 233.907 C 143.347 216.706,143.492 212.552,143.012 187.234 C 142.797 175.903,142.853 166.423,143.191 157.234 C 143.462 149.845,143.818 136.870,143.981 128.400 C 144.371 108.176,144.913 106.839,151.836 109.018 C 152.964 109.373,156.554 109.787,160.265 109.990 C 171.703 110.616,171.529 110.188,169.657 133.000 C 168.989 141.140,168.243 150.500,168.000 153.800 C 167.057 166.581,166.568 168.188,161.970 173.600 C 156.013 180.612,159.295 184.608,171.000 184.594 C 182.947 184.580,186.299 181.010,182.431 172.421 C 179.049 164.911,178.823 161.983,180.347 145.400 C 180.812 140.340,181.646 129.990,182.201 122.400 C 183.793 100.609,184.814 98.690,193.800 100.593 C 195.340 100.919,197.770 101.190,199.200 101.195 C 206.291 101.218,206.305 101.289,206.471 138.200 C 206.611 169.523,206.775 167.708,203.272 173.736 C 198.989 181.108,201.957 184.488,213.227 185.074 C 224.348 185.653,228.265 181.296,222.614 174.634 C 218.037 169.238,218.088 169.651,217.967 137.550 C 217.875 113.087,217.903 112.662,219.847 109.304 C 221.182 106.999,222.208 106.804,225.982 108.140 C 231.826 110.208,237.152 109.281,239.000 105.875 L 239.800 104.400 239.000 102.931 C 237.313 99.832,231.758 98.661,227.000 100.400 C 222.878 101.906,221.862 101.896,220.704 100.337 C 218.330 97.142,218.201 95.275,218.766 72.200 C 219.450 44.212,219.746 41.897,223.317 36.525 C 227.617 30.057,230.500 28.622,234.800 30.810 M199.600 95.101 C 200.370 95.485,201.000 96.070,201.000 96.400 C 201.000 98.727,194.420 98.954,193.039 96.675 C 191.883 94.767,196.645 93.624,199.600 95.101 M234.286 101.983 C 237.306 103.354,236.893 106.313,233.556 107.212 C 228.267 108.636,224.284 104.370,228.785 102.100 C 230.952 101.007,232.083 100.983,234.286 101.983 M173.664 222.640 C 170.368 224.949,172.916 231.298,178.114 233.732 C 184.044 236.509,199.593 239.288,217.759 240.818 C 242.314 242.886,249.426 244.242,254.844 247.890 C 256.470 248.985,259.150 250.644,260.800 251.577 C 262.450 252.509,264.992 254.156,266.449 255.236 C 272.881 260.004,280.388 260.456,282.331 256.191 C 283.844 252.870,282.266 250.748,275.594 247.131 C 274.161 246.354,271.641 244.774,269.994 243.620 C 267.288 241.723,261.997 238.588,255.366 234.951 C 251.099 232.611,244.623 231.483,227.000 230.008 C 215.677 229.061,215.341 229.026,205.000 227.749 C 195.928 226.628,192.388 225.920,184.370 223.619 C 178.250 221.863,175.175 221.582,173.664 222.640 M191.200 227.950 C 203.896 232.283,207.092 232.711,228.600 232.955 C 246.853 233.163,249.884 233.732,256.092 238.122 C 257.472 239.097,260.200 240.638,262.155 241.547 C 264.111 242.456,266.991 244.172,268.555 245.360 C 270.120 246.549,273.046 248.341,275.057 249.343 C 280.213 251.912,281.380 253.616,279.487 255.817 C 277.446 258.190,272.709 257.401,268.630 254.008 C 267.326 252.924,264.708 251.213,262.812 250.206 C 260.916 249.199,258.382 247.560,257.182 246.562 C 253.714 243.680,252.495 243.218,246.055 242.338 C 242.835 241.899,237.770 241.098,234.800 240.558 C 231.830 240.018,225.800 239.050,221.400 238.405 C 217.000 237.761,211.960 236.955,210.200 236.614 C 203.721 235.360,199.652 234.823,193.400 234.397 C 189.880 234.158,185.830 233.785,184.400 233.568 C 178.020 232.604,173.890 228.473,176.598 225.765 C 178.267 224.096,181.190 224.534,191.200 227.950 " stroke="none" fill="#8c6c54" fill-rule="evenodd"></path><path id="path5" d="M197.247 14.847 C 196.080 15.439,194.635 16.815,192.921 18.968 C 186.145 27.476,185.890 29.101,186.075 62.600 C 186.235 91.819,185.657 90.277,196.257 89.748 C 205.736 89.276,205.030 91.560,206.015 58.197 C 206.230 50.935,206.676 42.205,207.007 38.797 C 208.831 19.997,205.107 10.859,197.247 14.847 M203.064 16.854 C 206.150 19.734,207.122 25.438,206.189 35.200 C 205.863 38.610,205.411 47.970,205.185 56.000 C 204.212 90.508,204.813 88.559,195.135 88.586 C 186.507 88.610,187.000 90.329,187.001 60.200 C 187.003 29.225,187.091 28.638,192.942 20.871 C 196.948 15.553,200.261 14.238,203.064 16.854 M161.800 31.940 C 159.285 33.483,155.280 38.280,153.659 41.691 C 145.097 59.703,145.009 60.112,145.273 80.745 C 145.505 98.946,144.879 98.152,158.301 97.266 C 170.928 96.432,170.049 98.581,170.295 67.948 C 170.531 38.484,170.186 34.263,167.356 32.037 C 166.013 30.980,163.437 30.935,161.800 31.940 M229.333 32.914 C 223.816 36.007,221.939 43.567,220.771 67.400 C 219.274 97.936,219.609 99.231,228.650 97.924 C 234.295 97.108,238.754 98.417,242.255 101.919 C 245.808 105.471,246.534 102.585,246.660 84.400 C 246.777 67.586,246.449 64.919,242.820 53.200 C 241.969 50.450,240.800 46.527,240.224 44.483 C 237.345 34.272,233.741 30.443,229.333 32.914 M166.022 33.212 C 168.646 34.616,168.868 37.036,168.842 64.000 C 168.811 96.706,169.203 95.204,160.478 96.033 C 145.846 97.424,146.246 97.931,146.218 78.000 C 146.195 61.595,146.284 61.085,151.068 50.000 C 155.148 40.546,157.181 37.299,160.818 34.424 C 162.935 32.750,164.485 32.389,166.022 33.212 M234.828 35.473 C 236.990 37.427,237.657 38.859,239.172 44.800 C 239.873 47.550,241.350 52.841,242.454 56.557 C 245.532 66.916,245.629 67.596,245.877 80.623 C 246.233 99.333,245.727 100.790,239.730 98.300 C 236.637 97.015,236.523 97.000,230.109 97.000 C 222.249 97.000,221.820 96.777,221.194 92.370 C 220.633 88.417,222.020 59.662,223.238 50.000 C 224.846 37.245,229.849 30.974,234.828 35.473 M264.866 69.805 C 262.167 72.077,261.616 77.604,261.976 98.800 C 262.286 117.044,262.589 117.604,270.614 114.774 C 278.241 112.084,278.666 110.870,276.024 99.304 C 275.359 96.392,274.191 89.732,273.428 84.504 C 271.324 70.076,269.094 66.248,264.866 69.805 M268.741 71.412 C 270.675 73.039,271.267 75.436,272.987 88.600 C 273.534 92.780,274.435 98.430,274.990 101.155 C 276.839 110.229,276.252 111.634,269.717 113.772 C 263.324 115.863,262.799 114.319,262.802 93.445 C 262.805 75.634,263.284 72.260,266.000 70.909 C 267.336 70.245,267.359 70.249,268.741 71.412 M187.854 103.785 C 185.701 105.780,185.368 107.696,184.620 122.402 C 184.278 129.111,183.620 139.820,183.156 146.200 C 182.024 161.760,182.179 165.453,184.164 170.200 C 189.181 182.203,185.667 186.386,170.555 186.397 C 156.897 186.407,152.835 180.714,160.432 172.211 C 164.806 167.316,164.952 166.672,166.013 147.600 C 166.448 139.790,166.982 130.970,167.200 128.000 C 168.345 112.410,168.252 112.294,153.764 111.384 C 145.601 110.871,145.914 110.139,145.557 130.600 C 145.408 139.180,145.064 150.666,144.794 156.124 C 144.446 163.142,144.393 171.457,144.613 184.524 C 145.047 210.316,145.012 213.370,144.157 224.000 C 142.703 242.065,143.436 249.133,147.910 260.196 C 152.513 271.577,149.678 278.281,141.311 275.796 C 136.261 274.296,133.796 270.373,130.981 259.350 C 126.525 241.907,124.991 239.241,117.875 236.573 C 111.528 234.193,109.600 232.491,109.600 229.267 C 109.600 225.938,111.890 224.394,119.783 222.403 C 127.497 220.457,128.750 219.131,129.629 211.984 C 130.606 204.035,129.803 199.164,126.400 192.400 C 125.173 189.962,124.207 187.064,122.984 182.157 C 120.723 173.083,119.857 171.463,115.510 168.196 C 108.912 163.236,104.185 167.626,102.802 180.000 C 101.862 188.411,100.709 194.154,98.226 202.800 C 95.804 211.232,94.804 228.968,96.185 239.000 C 96.276 239.660,96.548 242.630,96.789 245.600 C 97.399 253.117,97.539 254.783,97.979 259.800 C 98.192 262.220,98.557 267.440,98.792 271.400 C 99.346 280.772,99.852 285.141,101.057 290.978 C 101.599 293.606,102.488 299.276,103.031 303.578 C 104.230 313.068,104.571 314.471,107.339 321.263 C 108.535 324.198,109.991 328.220,110.576 330.200 C 112.363 336.257,113.210 338.243,115.891 342.666 C 116.941 344.398,118.507 347.432,119.371 349.408 C 120.236 351.383,122.017 354.620,123.330 356.600 C 124.642 358.580,126.617 361.730,127.718 363.600 C 129.006 365.788,130.881 368.153,132.977 370.235 C 142.335 379.530,148.625 380.575,177.000 377.548 C 183.160 376.891,190.630 376.097,193.600 375.785 C 201.505 374.953,208.689 375.086,214.230 376.165 C 215.981 376.507,228.387 378.451,232.200 378.982 C 250.976 381.596,267.822 373.910,273.566 360.108 C 274.185 358.618,275.764 355.326,277.074 352.791 C 279.114 348.844,279.700 347.180,281.163 341.191 C 282.103 337.346,283.593 332.400,284.476 330.200 C 287.927 321.594,288.294 320.044,289.592 308.600 C 290.345 301.954,292.864 286.010,294.204 279.400 C 295.732 271.866,296.065 267.900,296.408 253.200 C 296.601 244.950,296.682 237.300,296.588 236.200 C 296.495 235.100,296.322 232.670,296.203 230.800 C 295.964 227.018,294.624 219.573,292.605 210.800 C 291.064 204.105,289.824 196.805,289.207 190.800 C 288.276 181.736,287.459 177.340,284.827 167.259 C 283.291 161.374,282.607 156.930,281.616 146.400 C 280.161 130.938,279.739 130.178,271.600 128.349 C 261.749 126.135,262.155 125.040,262.316 153.400 C 262.442 175.675,262.551 176.970,264.681 181.527 C 268.629 189.976,264.542 194.542,253.000 194.575 C 241.393 194.609,236.949 188.916,242.675 181.350 C 247.281 175.262,247.186 176.051,247.186 144.000 C 247.186 108.782,246.420 102.417,242.668 106.490 C 240.859 108.453,238.564 109.839,235.820 110.623 C 233.444 111.302,232.202 111.293,225.117 110.545 C 219.569 109.959,219.430 110.765,219.718 141.800 C 219.985 170.482,219.754 168.793,224.027 173.401 C 233.072 183.156,223.737 189.713,206.200 185.924 C 198.809 184.326,197.016 179.695,201.263 173.169 C 204.823 167.697,204.616 169.576,204.475 144.000 C 204.249 103.098,204.522 104.536,196.761 103.370 C 191.055 102.514,189.129 102.603,187.854 103.785 M197.512 104.811 C 202.664 105.934,202.658 105.907,203.178 128.560 C 204.015 164.984,203.904 167.097,200.924 171.527 C 194.935 180.428,197.197 185.591,207.800 187.223 C 226.243 190.061,234.893 183.023,225.220 173.048 C 220.775 168.463,221.087 170.446,220.713 144.400 C 220.213 109.567,219.580 111.800,229.962 111.800 L 236.600 111.800 239.935 110.424 C 246.314 107.791,246.118 106.781,246.164 142.600 C 246.206 175.761,246.291 174.935,242.333 179.698 C 234.839 188.716,239.297 195.403,252.800 195.398 C 266.136 195.393,270.194 190.773,265.608 180.818 L 263.866 177.036 263.513 168.418 C 263.319 163.678,263.215 153.680,263.283 146.200 C 263.446 128.085,263.359 128.282,270.666 129.595 C 278.735 131.044,279.727 132.721,280.605 146.400 C 281.196 155.597,282.392 163.110,284.755 172.455 C 286.055 177.595,287.318 183.420,287.562 185.400 C 288.229 190.808,289.977 204.006,290.237 205.600 C 290.363 206.370,291.329 211.050,292.384 216.000 C 293.438 220.950,294.548 226.260,294.850 227.800 C 295.274 229.959,295.378 234.492,295.306 247.600 C 295.202 266.257,295.319 264.943,292.062 284.000 C 290.247 294.615,290.261 294.519,289.190 303.800 C 287.487 318.556,287.227 319.810,284.427 326.734 C 283.385 329.310,281.942 333.844,281.220 336.809 C 279.032 345.801,278.452 347.490,275.615 353.152 C 274.113 356.148,272.757 359.050,272.601 359.600 C 270.893 365.613,264.678 371.293,255.580 375.154 C 245.494 379.435,240.217 379.408,216.000 374.947 C 206.926 373.275,196.811 373.731,169.400 377.044 C 147.411 379.703,136.244 375.766,128.425 362.600 C 127.380 360.840,125.454 357.772,124.145 355.782 C 122.837 353.793,121.112 350.643,120.312 348.782 C 119.513 346.922,117.677 343.341,116.232 340.824 C 113.833 336.647,112.562 333.417,110.318 325.800 C 110.058 324.920,108.975 322.040,107.911 319.400 C 105.418 313.219,105.011 311.568,104.011 303.600 C 103.304 297.960,102.354 291.546,101.405 286.000 C 101.273 285.230,100.914 280.640,100.606 275.800 C 99.969 265.781,99.241 257.123,97.779 242.200 C 95.870 222.720,96.305 215.093,100.145 200.723 C 102.136 193.268,102.005 193.983,103.404 183.000 C 104.822 171.864,105.596 169.859,109.053 168.377 C 114.294 166.131,119.991 172.254,122.040 182.338 C 123.174 187.917,123.926 190.244,125.820 194.028 C 128.592 199.566,128.928 201.202,128.688 207.966 C 128.320 218.324,127.353 219.547,117.641 221.942 C 110.640 223.668,108.005 225.685,108.001 229.320 C 107.999 231.927,110.179 234.785,113.022 235.901 C 113.670 236.155,115.662 236.915,117.448 237.591 C 123.716 239.959,125.802 243.705,130.043 260.200 C 132.960 271.548,134.734 274.600,139.685 276.790 C 148.596 280.732,154.565 272.578,150.219 262.400 C 147.050 254.976,146.377 253.057,145.593 249.200 C 144.273 242.708,144.200 238.028,145.200 223.800 C 145.937 213.302,146.044 209.525,145.798 202.800 C 145.275 188.573,145.208 170.553,145.640 160.400 C 145.869 155.010,146.191 142.950,146.356 133.600 C 146.755 110.886,146.250 111.992,155.957 112.562 C 164.995 113.092,166.944 114.786,166.236 121.498 C 166.007 123.668,165.122 140.637,164.593 153.000 C 164.086 164.854,163.478 167.078,159.547 171.461 C 150.605 181.433,155.535 187.540,172.180 187.112 C 182.719 186.841,187.699 184.378,188.283 179.146 C 188.482 177.363,188.369 176.985,185.653 170.336 C 183.680 165.504,183.437 162.513,184.163 152.028 C 184.884 141.616,185.463 130.946,185.804 121.800 C 186.470 103.933,187.386 102.604,197.512 104.811 M171.096 217.372 C 164.053 219.885,166.547 231.423,175.064 235.729 C 185.956 241.236,196.590 243.314,219.400 244.394 C 236.696 245.213,245.217 246.404,248.949 248.524 C 257.312 253.277,261.532 255.814,264.311 257.762 C 272.220 263.304,282.176 263.338,285.401 257.835 C 287.882 253.601,286.075 249.780,279.800 245.995 C 278.260 245.066,275.650 243.366,274.000 242.217 C 262.666 234.325,256.039 231.115,247.892 229.569 C 245.421 229.100,241.507 228.292,239.194 227.774 C 232.062 226.176,227.987 225.668,210.600 224.208 C 191.671 222.618,189.652 222.287,183.200 219.707 C 176.111 216.872,173.765 216.420,171.096 217.372 M182.000 220.630 C 190.983 223.715,191.638 223.825,213.000 225.809 C 232.362 227.608,249.948 230.416,255.243 232.555 C 258.047 233.687,265.406 237.986,272.400 242.576 C 275.150 244.381,278.455 246.475,279.745 247.229 C 288.520 252.359,286.255 260.764,276.090 260.791 C 271.790 260.803,269.252 259.905,265.056 256.889 C 263.265 255.602,260.900 254.044,259.800 253.427 C 258.700 252.810,255.730 251.069,253.200 249.557 C 246.403 245.496,241.920 244.631,221.223 243.387 C 199.380 242.075,195.634 241.534,184.810 238.123 C 172.535 234.256,169.280 231.444,168.869 224.353 C 168.519 218.302,172.190 217.262,182.000 220.630 " stroke="none" fill="#c89474" fill-rule="evenodd"></path><path id="path6" d="M196.564 12.569 C 194.329 13.543,188.109 21.252,186.829 24.637 C 184.400 31.060,183.908 38.248,184.094 64.600 C 184.263 88.530,184.221 88.137,186.886 90.939 L 188.389 92.519 191.895 92.197 C 193.823 92.020,196.930 91.910,198.800 91.953 C 206.122 92.121,206.862 90.161,207.388 69.200 C 207.723 55.819,208.291 45.623,209.048 39.410 C 211.446 19.713,206.177 8.384,196.564 12.569 M203.016 14.974 C 207.185 17.705,208.368 24.767,207.007 38.797 C 206.676 42.205,206.230 50.935,206.015 58.197 C 205.030 91.560,205.736 89.276,196.257 89.748 C 185.657 90.277,186.235 91.819,186.075 62.600 C 185.890 29.101,186.145 27.476,192.921 18.968 C 196.698 14.225,199.925 12.948,203.016 14.974 M163.310 28.788 C 160.009 29.573,154.727 35.062,152.136 40.400 C 151.121 42.490,149.213 46.360,147.895 49.000 C 144.230 56.340,143.954 58.042,143.717 74.800 C 143.381 98.639,144.384 101.889,151.461 99.897 C 154.170 99.135,155.599 99.013,161.891 99.007 L 169.181 99.000 170.238 97.944 C 172.432 95.750,172.512 94.783,172.700 68.163 C 172.942 33.813,172.483 30.736,166.840 28.854 C 165.335 28.352,165.162 28.348,163.310 28.788 M229.791 30.020 C 227.141 30.800,222.114 37.279,220.744 41.680 C 218.864 47.722,217.659 92.875,219.251 97.630 C 220.622 101.720,222.019 102.220,227.000 100.400 C 231.758 98.661,237.313 99.832,239.000 102.931 L 239.800 104.400 239.000 105.875 C 237.152 109.281,231.826 110.208,225.982 108.140 C 222.208 106.804,221.182 106.999,219.847 109.304 C 217.903 112.662,217.875 113.087,217.967 137.550 C 218.088 169.651,218.037 169.238,222.614 174.634 C 228.265 181.296,224.348 185.653,213.227 185.074 C 201.957 184.488,198.989 181.108,203.272 173.736 C 206.775 167.708,206.611 169.523,206.471 138.200 C 206.305 101.289,206.291 101.218,199.200 101.195 C 197.770 101.190,195.340 100.919,193.800 100.593 C 184.814 98.690,183.793 100.609,182.201 122.400 C 181.646 129.990,180.812 140.340,180.347 145.400 C 178.823 161.983,179.049 164.911,182.431 172.421 C 186.299 181.010,182.947 184.580,171.000 184.594 C 159.295 184.608,156.013 180.612,161.970 173.600 C 166.568 168.188,167.057 166.581,168.000 153.800 C 168.243 150.500,168.989 141.140,169.657 133.000 C 171.529 110.188,171.703 110.616,160.265 109.990 C 156.554 109.787,152.964 109.373,151.836 109.018 C 144.913 106.839,144.371 108.176,143.981 128.400 C 143.818 136.870,143.462 149.845,143.191 157.234 C 142.853 166.423,142.797 175.903,143.012 187.234 C 143.492 212.552,143.347 216.706,141.382 233.907 C 140.603 240.722,142.511 252.742,145.824 261.893 C 148.742 269.955,147.269 274.046,141.937 272.693 C 136.995 271.438,134.179 265.871,131.191 251.444 C 128.886 240.319,127.331 238.324,117.914 234.417 C 109.299 230.843,110.551 226.893,121.216 223.998 C 130.550 221.464,131.574 219.740,131.592 206.520 C 131.602 199.358,131.242 197.634,128.601 192.200 C 126.139 187.136,125.506 185.351,124.177 179.735 C 121.465 168.275,114.437 161.506,108.200 164.346 C 104.153 166.189,102.508 169.649,101.232 179.000 C 100.099 187.307,99.557 189.869,97.409 197.052 C 93.005 211.786,92.908 221.366,96.606 276.800 C 96.958 282.077,97.552 285.817,98.800 290.600 C 100.256 296.182,100.962 300.121,102.008 308.501 C 102.900 315.652,103.496 317.887,106.194 324.206 C 107.135 326.410,108.745 330.760,109.772 333.873 C 111.055 337.760,112.278 340.576,113.679 342.866 C 114.801 344.700,116.789 348.450,118.096 351.200 C 119.403 353.950,121.329 357.370,122.376 358.800 C 123.422 360.230,125.276 363.112,126.495 365.203 C 129.253 369.934,135.828 376.443,140.062 378.632 C 146.491 381.957,162.950 381.813,194.600 378.157 C 201.633 377.344,207.716 377.572,216.000 378.957 C 235.653 382.243,249.682 382.051,256.850 378.399 C 267.522 372.961,271.259 369.548,274.656 362.136 C 275.447 360.411,277.047 357.290,278.212 355.200 C 280.460 351.168,280.899 349.910,282.821 342.002 C 283.489 339.253,284.769 335.203,285.665 333.002 C 289.012 324.784,289.513 322.965,290.401 315.800 C 291.454 307.305,292.558 300.516,294.043 293.400 C 299.868 265.497,300.017 230.175,294.402 208.200 C 291.872 198.301,291.420 195.798,290.215 185.015 C 289.109 175.123,288.616 172.347,286.588 164.600 C 284.897 158.144,284.178 154.024,283.389 146.265 C 281.748 130.148,280.693 127.901,274.136 126.552 C 263.896 124.445,263.994 119.198,274.337 115.811 C 280.621 113.753,281.238 110.319,277.806 96.509 C 276.810 92.499,275.454 85.771,274.793 81.558 C 272.808 68.891,271.323 66.000,266.800 66.000 C 261.223 66.000,260.235 70.262,260.340 93.888 C 260.418 111.500,260.528 113.075,262.062 118.478 L 262.936 121.555 262.075 124.521 C 260.580 129.666,260.415 132.449,260.429 152.400 C 260.445 175.009,260.559 176.559,262.597 181.940 C 265.421 189.397,262.579 192.796,253.400 192.938 C 243.408 193.094,240.266 188.677,245.144 181.336 C 248.798 175.840,248.604 177.962,248.572 143.800 C 248.494 59.622,248.738 63.833,242.925 46.400 C 238.013 31.670,235.373 28.377,229.791 30.020 M167.356 32.037 C 170.186 34.263,170.531 38.484,170.295 67.948 C 170.049 98.581,170.928 96.432,158.301 97.266 C 144.879 98.152,145.505 98.946,145.273 80.745 C 145.009 60.112,145.097 59.703,153.659 41.691 C 157.331 33.966,163.912 29.328,167.356 32.037 M233.960 32.980 C 236.677 34.384,238.128 37.049,240.224 44.483 C 240.800 46.527,241.969 50.450,242.820 53.200 C 246.449 64.919,246.777 67.586,246.660 84.400 C 246.534 102.585,245.808 105.471,242.255 101.919 C 238.754 98.417,234.295 97.108,228.650 97.924 C 223.002 98.741,222.366 98.582,220.961 96.000 C 219.798 93.862,220.148 71.606,221.638 53.000 C 222.806 38.413,228.036 29.916,233.960 32.980 M269.505 70.101 C 271.356 72.012,271.894 73.986,273.428 84.504 C 274.191 89.732,275.359 96.392,276.024 99.304 C 278.666 110.870,278.241 112.084,270.614 114.774 C 262.589 117.604,262.286 117.044,261.976 98.800 C 261.616 77.604,262.167 72.077,264.866 69.805 C 266.518 68.416,267.960 68.508,269.505 70.101 M196.761 103.370 C 204.522 104.536,204.249 103.098,204.475 144.000 C 204.616 169.576,204.823 167.697,201.263 173.169 C 197.016 179.695,198.809 184.326,206.200 185.924 C 223.737 189.713,233.072 183.156,224.027 173.401 C 219.754 168.793,219.985 170.482,219.718 141.800 C 219.430 110.765,219.569 109.959,225.117 110.545 C 232.202 111.293,233.444 111.302,235.820 110.623 C 238.564 109.839,240.859 108.453,242.668 106.490 C 246.420 102.417,247.186 108.782,247.186 144.000 C 247.186 176.051,247.281 175.262,242.675 181.350 C 236.949 188.916,241.393 194.609,253.000 194.575 C 264.542 194.542,268.629 189.976,264.681 181.527 C 262.551 176.970,262.442 175.675,262.316 153.400 C 262.155 125.040,261.749 126.135,271.600 128.349 C 279.739 130.178,280.161 130.938,281.616 146.400 C 282.607 156.930,283.291 161.374,284.827 167.259 C 287.459 177.340,288.276 181.736,289.207 190.800 C 289.824 196.805,291.064 204.105,292.605 210.800 C 294.624 219.573,295.964 227.018,296.203 230.800 C 296.322 232.670,296.495 235.100,296.588 236.200 C 296.682 237.300,296.601 244.950,296.408 253.200 C 296.065 267.900,295.732 271.866,294.204 279.400 C 292.864 286.010,290.345 301.954,289.592 308.600 C 288.294 320.044,287.927 321.594,284.476 330.200 C 283.593 332.400,282.103 337.346,281.163 341.191 C 279.700 347.180,279.114 348.844,277.074 352.791 C 275.764 355.326,274.185 358.618,273.566 360.108 C 267.822 373.910,250.976 381.596,232.200 378.982 C 228.387 378.451,215.981 376.507,214.230 376.165 C 208.689 375.086,201.505 374.953,193.600 375.785 C 190.630 376.097,183.160 376.891,177.000 377.548 C 148.625 380.575,142.335 379.530,132.977 370.235 C 130.881 368.153,129.006 365.788,127.718 363.600 C 126.617 361.730,124.642 358.580,123.330 356.600 C 122.017 354.620,120.236 351.383,119.371 349.408 C 118.507 347.432,116.941 344.398,115.891 342.666 C 113.210 338.243,112.363 336.257,110.576 330.200 C 109.991 328.220,108.535 324.198,107.339 321.263 C 104.571 314.471,104.230 313.068,103.031 303.578 C 102.488 299.276,101.599 293.606,101.057 290.978 C 99.852 285.141,99.346 280.772,98.792 271.400 C 98.557 267.440,98.192 262.220,97.979 259.800 C 97.539 254.783,97.399 253.117,96.789 245.600 C 96.548 242.630,96.276 239.660,96.185 239.000 C 94.804 228.968,95.804 211.232,98.226 202.800 C 100.709 194.154,101.862 188.411,102.802 180.000 C 104.185 167.626,108.912 163.236,115.510 168.196 C 119.857 171.463,120.723 173.083,122.984 182.157 C 124.207 187.064,125.173 189.962,126.400 192.400 C 129.803 199.164,130.606 204.035,129.629 211.984 C 128.750 219.131,127.497 220.457,119.783 222.403 C 111.890 224.394,109.600 225.938,109.600 229.267 C 109.600 232.491,111.528 234.193,117.875 236.573 C 124.991 239.241,126.525 241.907,130.981 259.350 C 133.796 270.373,136.261 274.296,141.311 275.796 C 149.678 278.281,152.513 271.577,147.910 260.196 C 143.436 249.133,142.703 242.065,144.157 224.000 C 145.012 213.370,145.047 210.316,144.613 184.524 C 144.393 171.457,144.446 163.142,144.794 156.124 C 145.064 150.666,145.408 139.180,145.557 130.600 C 145.914 110.139,145.601 110.871,153.764 111.384 C 168.252 112.294,168.345 112.410,167.200 128.000 C 166.982 130.970,166.448 139.790,166.013 147.600 C 164.952 166.672,164.806 167.316,160.432 172.211 C 152.835 180.714,156.897 186.407,170.555 186.397 C 185.667 186.386,189.181 182.203,184.164 170.200 C 182.179 165.453,182.024 161.760,183.156 146.200 C 183.620 139.820,184.278 129.111,184.620 122.402 C 185.653 102.102,185.885 101.737,196.761 103.370 M172.406 218.816 C 166.089 220.273,168.446 231.172,175.893 234.946 C 178.278 236.154,190.760 240.113,194.803 240.943 C 198.513 241.704,208.330 242.613,221.223 243.387 C 241.920 244.631,246.403 245.496,253.200 249.557 C 255.730 251.069,258.700 252.810,259.800 253.427 C 260.900 254.044,263.265 255.602,265.056 256.889 C 269.252 259.905,271.790 260.803,276.090 260.791 C 286.255 260.764,288.520 252.359,279.745 247.229 C 278.455 246.475,275.150 244.381,272.400 242.576 C 265.406 237.986,258.047 233.687,255.243 232.555 C 249.948 230.416,232.362 227.608,213.000 225.809 C 191.638 223.825,190.983 223.715,182.000 220.630 C 176.425 218.716,174.455 218.343,172.406 218.816 M184.370 223.619 C 192.388 225.920,195.928 226.628,205.000 227.749 C 215.341 229.026,215.677 229.061,227.000 230.008 C 244.623 231.483,251.099 232.611,255.366 234.951 C 261.997 238.588,267.288 241.723,269.994 243.620 C 271.641 244.774,274.161 246.354,275.594 247.131 C 282.266 250.748,283.844 252.870,282.331 256.191 C 280.388 260.456,272.881 260.004,266.449 255.236 C 264.992 254.156,262.450 252.509,260.800 251.577 C 259.150 250.644,256.470 248.985,254.844 247.890 C 249.426 244.242,242.314 242.886,217.759 240.818 C 199.593 239.288,184.044 236.509,178.114 233.732 C 172.916 231.298,170.368 224.949,173.664 222.640 C 175.175 221.582,178.250 221.863,184.370 223.619 " stroke="none" fill="#bc8c6c" fill-rule="evenodd"></path><path id="path7" d="M198.080 17.478 C 196.659 18.168,194.277 20.792,191.664 24.544 C 190.201 26.645,189.482 28.410,188.548 32.200 C 187.854 35.017,187.914 82.859,188.614 84.692 C 189.599 87.272,190.761 87.717,196.041 87.536 C 203.615 87.277,203.426 87.861,203.987 63.000 C 204.210 53.100,204.667 41.016,205.002 36.148 C 206.044 20.986,203.727 14.737,198.080 17.478 M201.323 21.115 C 203.336 23.339,203.519 25.794,202.794 40.800 C 202.565 45.530,202.233 56.690,202.055 65.600 C 201.652 85.840,201.623 85.918,194.714 85.527 C 191.416 85.341,190.569 84.661,190.064 81.797 C 189.533 78.780,189.832 36.982,190.409 33.483 C 191.608 26.221,198.685 18.200,201.323 21.115 M161.989 35.460 C 157.445 38.491,154.711 43.218,149.531 57.000 C 147.198 63.208,146.244 74.866,147.107 86.624 C 147.752 95.415,148.384 95.944,157.453 95.285 C 168.075 94.513,167.400 96.569,167.400 65.000 C 167.400 39.111,167.337 38.045,165.666 35.742 C 164.873 34.650,163.375 34.535,161.989 35.460 M230.044 36.286 C 227.283 37.647,224.992 44.834,224.017 55.200 C 222.219 74.296,221.512 90.710,222.374 93.320 C 223.129 95.608,224.187 95.955,230.228 95.895 C 234.440 95.853,236.019 96.009,238.732 96.738 C 244.880 98.390,245.017 98.089,244.952 83.000 C 244.901 71.145,244.349 66.266,242.430 60.689 C 241.251 57.260,239.198 49.851,238.180 45.351 C 236.345 37.231,233.824 34.424,230.044 36.286 M233.690 40.300 C 234.927 41.712,235.548 43.535,236.787 49.404 C 238.133 55.777,238.825 58.332,241.004 64.985 C 242.773 70.384,243.200 74.027,243.200 83.709 C 243.200 94.269,242.820 95.019,237.800 94.375 C 236.480 94.206,233.456 94.052,231.080 94.034 C 223.588 93.975,223.238 93.407,223.922 82.400 C 224.386 74.932,227.252 50.416,228.183 45.953 C 229.333 40.436,231.689 38.018,233.690 40.300 M163.406 41.353 C 165.127 43.980,165.470 86.850,163.796 90.189 C 162.281 93.212,154.328 94.810,151.146 92.730 C 148.635 91.090,147.864 69.821,150.067 63.000 C 155.701 45.560,160.771 37.332,163.406 41.353 M265.681 73.406 C 263.952 75.407,263.825 76.721,263.812 92.800 C 263.797 112.113,263.930 112.800,267.674 112.800 C 273.589 112.800,275.254 109.509,273.643 100.999 C 273.227 98.800,272.492 93.670,272.011 89.600 C 270.384 75.845,269.621 73.082,267.400 72.903 C 266.723 72.848,265.974 73.068,265.681 73.406 M268.386 80.800 C 268.598 81.570,269.139 85.530,269.588 89.600 C 270.037 93.670,270.626 98.260,270.897 99.800 C 271.798 104.929,271.590 107.905,270.252 109.056 C 268.719 110.375,267.205 110.196,266.403 108.600 C 265.367 106.538,265.522 81.460,266.581 79.708 C 267.445 78.281,267.741 78.460,268.386 80.800 M190.439 105.685 C 187.771 107.114,187.395 109.157,186.806 125.400 C 186.575 131.780,186.099 141.770,185.748 147.600 C 184.780 163.722,185.066 166.370,188.555 173.589 C 193.020 182.825,186.721 188.048,171.000 188.143 C 162.124 188.197,158.835 187.306,155.894 184.052 C 152.437 180.225,153.073 176.881,158.357 171.096 C 162.698 166.345,162.995 165.145,163.595 150.000 C 163.808 144.610,164.200 135.206,164.466 129.102 C 165.101 114.549,164.990 114.296,157.697 113.656 C 147.626 112.773,147.932 112.273,147.557 130.200 C 147.400 137.680,147.067 147.310,146.816 151.600 C 146.309 160.277,146.230 179.180,146.615 199.800 C 146.808 210.156,146.718 215.738,146.236 223.200 C 144.942 243.257,145.711 250.286,150.168 259.137 C 156.739 272.185,150.249 283.323,139.112 278.111 C 133.739 275.597,132.202 273.049,129.391 262.000 C 127.693 255.324,124.851 247.221,122.794 243.189 C 121.685 241.015,119.540 239.424,116.050 238.188 C 102.439 233.366,102.903 224.322,116.931 221.007 C 125.889 218.891,127.193 217.438,127.836 208.868 C 128.235 203.555,127.566 200.299,125.029 195.188 C 123.545 192.198,122.609 189.639,122.008 186.928 C 119.402 175.169,118.418 173.123,114.022 170.330 C 108.420 166.771,105.829 170.260,104.407 183.279 C 103.484 191.731,102.608 196.583,100.738 203.600 C 100.064 206.130,99.263 209.190,98.957 210.400 C 97.422 216.479,97.429 229.979,98.973 242.034 C 100.251 252.014,101.354 264.853,101.804 275.000 C 102.166 283.153,102.365 285.218,103.406 291.600 C 103.711 293.470,104.245 297.520,104.591 300.601 C 105.361 307.435,106.436 312.835,107.502 315.215 C 109.386 319.423,109.913 320.794,110.954 324.200 C 114.394 335.456,114.477 335.657,118.152 341.753 C 118.566 342.439,119.833 345.070,120.968 347.600 C 122.103 350.130,123.957 353.569,125.088 355.241 C 126.220 356.914,128.066 359.841,129.191 361.746 C 134.474 370.691,140.817 374.842,151.348 376.245 C 156.197 376.892,158.304 376.814,169.600 375.575 C 204.410 371.755,206.857 371.802,234.400 376.824 C 249.966 379.662,267.002 371.068,272.236 357.737 C 272.983 355.833,274.427 352.736,275.445 350.854 C 277.837 346.430,278.179 345.418,279.797 337.995 C 281.179 331.652,282.570 327.247,284.238 323.936 C 285.676 321.082,286.759 316.495,287.418 310.471 C 289.909 287.709,290.521 283.264,292.412 274.200 C 293.525 268.871,293.711 266.992,294.075 257.400 C 294.919 235.220,294.769 232.665,291.887 220.000 C 290.225 212.699,289.101 206.214,288.231 198.900 C 287.884 195.985,287.322 191.280,286.982 188.444 C 286.642 185.608,285.922 181.693,285.381 179.744 C 281.476 165.664,280.476 159.930,279.602 146.600 C 278.723 133.185,277.444 131.227,269.453 131.064 C 264.004 130.953,263.891 131.547,264.385 157.693 C 264.751 177.014,264.706 176.649,267.321 181.758 C 271.899 190.703,266.290 196.400,252.905 196.400 C 238.241 196.400,232.994 188.942,240.958 179.417 C 245.706 173.739,245.819 172.631,245.310 136.800 C 244.914 108.872,245.290 110.289,238.726 112.018 C 235.643 112.830,234.058 113.000,229.544 113.000 C 220.872 113.000,221.510 110.660,221.692 141.800 C 221.859 170.228,221.485 167.770,226.399 172.722 C 237.605 184.013,224.307 192.891,204.202 187.542 C 195.902 185.333,193.743 179.362,198.794 172.586 C 202.977 166.976,202.974 167.005,202.191 137.000 C 201.494 110.350,201.370 108.950,199.556 107.425 C 197.596 105.775,192.194 104.744,190.439 105.685 M196.207 108.968 C 198.621 110.550,198.716 111.432,199.809 142.600 C 200.530 163.149,200.409 165.214,198.288 168.740 C 192.004 179.182,187.005 171.188,187.966 152.232 C 188.200 147.594,188.572 137.860,188.791 130.600 C 189.365 111.544,189.560 109.853,191.331 108.575 C 192.369 107.825,194.757 108.018,196.207 108.968 M241.975 114.700 C 243.466 115.907,243.581 117.936,243.590 143.167 C 243.602 173.078,243.479 174.011,239.079 177.367 C 236.271 179.509,235.237 179.288,232.821 176.028 C 231.657 174.458,229.649 172.361,228.358 171.368 C 227.068 170.375,225.515 168.910,224.906 168.113 L 223.801 166.663 223.535 155.031 C 223.158 138.521,223.176 120.503,223.572 118.457 C 224.186 115.279,224.694 115.056,232.026 114.751 C 235.559 114.604,238.558 114.375,238.691 114.242 C 239.184 113.749,241.138 114.022,241.975 114.700 M159.036 115.792 C 162.423 116.395,162.552 117.198,162.019 134.333 C 161.030 166.157,161.309 164.640,155.272 170.941 C 150.467 175.956,150.593 175.858,149.899 175.132 C 148.025 173.170,147.778 162.123,149.205 144.164 C 149.640 138.684,149.997 130.565,149.998 126.122 C 150.001 115.345,150.881 114.339,159.036 115.792 M273.313 134.548 C 276.384 135.857,276.979 137.506,277.588 146.400 C 278.490 159.551,278.832 163.162,279.542 167.000 C 279.786 168.320,280.096 170.120,280.232 171.000 C 280.507 172.791,282.932 180.983,283.804 183.071 C 284.589 184.951,285.076 187.960,285.796 195.400 C 286.137 198.920,286.681 203.870,287.004 206.400 C 287.327 208.930,287.687 211.810,287.805 212.800 C 288.214 216.256,288.858 219.449,290.505 226.200 C 292.112 232.785,292.165 233.215,292.182 239.800 C 292.207 249.342,291.429 250.850,288.054 247.801 C 286.405 246.312,277.663 240.387,267.800 234.076 C 261.147 229.818,258.159 228.566,251.398 227.203 C 248.979 226.716,244.750 225.604,242.000 224.732 C 233.188 221.940,231.184 221.686,207.800 220.393 C 191.443 219.489,189.775 219.205,184.602 216.435 C 170.690 208.988,160.497 214.010,163.364 226.898 C 164.746 233.106,168.117 236.538,175.828 239.584 C 178.233 240.534,181.589 242.005,183.286 242.853 C 189.381 245.898,193.452 246.531,211.200 247.194 C 236.431 248.135,240.905 248.605,245.200 250.762 C 251.463 253.908,258.456 257.867,260.938 259.673 C 268.961 265.508,278.900 266.475,286.714 262.182 C 291.604 259.494,292.113 261.553,289.592 273.829 C 288.748 277.942,287.724 285.237,287.408 289.400 C 287.291 290.940,287.019 293.910,286.804 296.000 C 286.589 298.090,286.315 301.060,286.195 302.600 C 285.506 311.400,284.850 315.984,284.021 317.800 C 280.306 325.929,279.816 327.474,277.647 337.901 C 276.608 342.896,276.187 344.112,274.254 347.718 C 273.039 349.981,271.398 353.622,270.607 355.809 C 267.358 364.783,261.965 369.796,253.000 372.172 C 251.680 372.522,249.166 373.189,247.412 373.655 C 243.359 374.731,237.032 374.524,229.400 373.064 C 212.072 369.750,196.725 369.684,169.200 372.806 C 161.482 373.681,153.999 373.823,150.000 373.169 C 148.570 372.935,146.829 372.670,146.131 372.578 C 144.734 372.396,140.727 370.905,140.404 370.447 C 140.292 370.288,139.529 369.750,138.709 369.252 C 136.590 367.964,133.004 363.878,131.117 360.600 C 130.230 359.060,128.258 355.795,126.735 353.344 C 125.213 350.893,123.101 346.933,122.043 344.544 C 120.986 342.155,119.409 339.030,118.539 337.600 C 116.028 333.470,112.400 323.274,112.400 320.345 C 112.400 320.107,111.574 318.016,110.564 315.697 C 107.344 308.300,107.255 307.886,105.797 293.400 C 105.465 290.100,105.022 285.780,104.811 283.800 C 104.601 281.820,104.334 276.780,104.217 272.600 C 103.971 263.817,103.526 257.476,102.350 246.000 C 101.160 234.381,101.532 230.664,103.602 233.475 C 105.460 235.997,108.580 237.891,113.600 239.546 C 118.412 241.131,119.888 242.545,121.802 247.400 C 122.409 248.940,123.515 251.587,124.260 253.281 C 125.969 257.169,126.884 260.153,128.220 266.200 C 130.025 274.371,132.228 277.755,137.562 280.547 C 151.951 288.081,160.105 273.848,151.530 256.163 C 147.546 247.947,147.116 243.538,148.154 221.600 C 148.514 214.010,148.761 202.850,148.704 196.800 C 148.610 186.897,148.671 185.670,149.310 184.500 C 149.975 183.283,150.964 182.790,151.267 183.524 C 151.565 184.249,155.932 187.378,157.800 188.205 C 165.508 191.621,181.783 190.482,189.186 186.009 C 192.589 183.952,193.173 183.983,197.016 186.415 C 200.719 188.758,202.779 189.429,208.000 189.996 C 210.090 190.223,213.240 190.598,215.000 190.830 C 216.760 191.063,218.660 191.309,219.221 191.379 C 221.114 191.613,224.319 190.866,227.589 189.429 C 232.193 187.404,232.353 187.439,235.002 191.020 C 238.647 195.949,242.649 197.833,250.389 198.263 C 267.771 199.229,274.939 192.345,269.271 180.127 C 266.966 175.159,266.888 174.448,266.573 155.321 C 266.279 137.504,266.404 135.803,268.100 134.615 C 269.189 133.852,271.607 133.822,273.313 134.548 M114.696 174.300 C 117.096 176.639,118.626 179.720,119.216 183.400 C 120.112 188.991,121.287 193.044,123.207 197.180 C 126.214 203.653,126.621 207.216,124.984 212.727 C 123.798 216.724,122.123 217.869,115.239 219.391 C 107.780 221.041,104.720 223.285,102.821 228.500 C 100.505 234.856,99.675 218.158,101.901 210.000 C 102.591 207.470,103.266 204.770,103.400 204.000 C 103.534 203.230,103.811 201.852,104.015 200.938 C 104.780 197.512,105.598 191.593,106.190 185.200 C 107.365 172.496,109.733 169.462,114.696 174.300 M182.400 218.068 C 189.998 221.447,190.477 221.529,211.400 223.020 C 228.880 224.266,231.228 224.550,238.182 226.261 C 241.272 227.021,246.320 228.169,249.400 228.811 C 256.666 230.327,258.627 231.132,265.602 235.466 C 284.928 247.471,287.692 249.843,287.692 254.416 C 287.692 263.431,273.529 265.905,263.522 258.637 C 260.079 256.137,248.272 249.378,245.519 248.332 C 241.478 246.797,235.785 246.244,213.200 245.192 C 195.483 244.366,192.899 243.923,182.663 239.947 C 169.287 234.753,166.180 231.870,165.687 224.200 C 165.134 215.578,171.528 213.232,182.400 218.068 " stroke="none" fill="#dea684" fill-rule="evenodd"></path><path id="path8" d="M197.176 16.366 C 195.377 17.345,190.493 23.770,189.092 27.000 C 187.205 31.350,187.003 34.568,187.001 60.200 C 187.000 90.329,186.507 88.610,195.135 88.586 C 204.813 88.559,204.212 90.508,205.185 56.000 C 205.411 47.970,205.863 38.610,206.189 35.200 C 207.576 20.692,203.783 12.768,197.176 16.366 M202.254 17.827 C 205.056 19.571,205.800 24.532,205.002 36.148 C 204.667 41.016,204.210 53.100,203.987 63.000 C 203.426 87.861,203.615 87.277,196.041 87.536 C 190.761 87.717,189.599 87.272,188.614 84.692 C 187.914 82.859,187.854 35.017,188.548 32.200 C 189.799 27.123,190.981 24.927,195.028 20.160 C 197.720 16.989,199.819 16.311,202.254 17.827 M160.818 34.424 C 157.181 37.299,155.148 40.546,151.068 50.000 C 146.284 61.085,146.195 61.595,146.218 78.000 C 146.244 96.011,146.469 96.639,152.856 96.490 C 165.387 96.196,167.926 95.132,168.562 89.911 C 169.010 86.234,168.904 40.396,168.443 38.100 C 167.331 32.567,164.744 31.320,160.818 34.424 M228.626 35.349 C 224.049 39.667,222.515 48.991,221.218 80.400 C 220.534 96.960,220.555 97.000,230.109 97.000 C 236.523 97.000,236.637 97.015,239.730 98.300 C 245.727 100.790,246.233 99.333,245.877 80.623 C 245.629 67.596,245.532 66.916,242.454 56.557 C 241.350 52.841,239.873 47.550,239.172 44.800 C 236.682 35.033,232.723 31.485,228.626 35.349 M165.666 35.742 C 167.337 38.045,167.400 39.111,167.400 65.000 C 167.400 96.569,168.075 94.513,157.453 95.285 C 148.384 95.944,147.752 95.415,147.107 86.624 C 146.635 80.199,147.011 66.786,147.768 63.000 C 148.688 58.403,154.521 43.897,156.724 40.729 C 160.135 35.824,164.114 33.605,165.666 35.742 M234.159 36.439 C 235.746 37.687,237.153 40.805,238.180 45.351 C 239.198 49.851,241.251 57.260,242.430 60.689 C 244.349 66.266,244.901 71.145,244.952 83.000 C 245.017 98.089,244.880 98.390,238.732 96.738 C 236.019 96.009,234.440 95.853,230.228 95.895 C 224.187 95.955,223.129 95.608,222.374 93.320 C 221.208 89.787,223.237 56.727,225.241 46.600 C 226.976 37.838,230.636 33.668,234.159 36.439 M266.000 70.909 C 263.284 72.260,262.805 75.634,262.802 93.445 C 262.799 114.319,263.324 115.863,269.717 113.772 C 276.252 111.634,276.839 110.229,274.990 101.155 C 274.435 98.430,273.534 92.780,272.987 88.600 C 270.884 72.503,269.556 69.141,266.000 70.909 M269.315 74.462 C 270.206 76.285,270.890 80.128,272.011 89.600 C 272.492 93.670,273.227 98.800,273.643 100.999 C 275.047 108.418,274.618 110.249,271.072 111.965 C 267.494 113.697,264.778 112.821,264.122 109.722 C 263.443 106.514,263.759 77.567,264.493 75.703 C 265.834 72.301,267.987 71.747,269.315 74.462 M189.092 104.791 C 186.798 106.612,186.268 109.355,185.804 121.800 C 185.463 130.946,184.884 141.616,184.163 152.028 C 183.437 162.513,183.680 165.504,185.653 170.336 C 188.369 176.985,188.482 177.363,188.283 179.146 C 187.699 184.378,182.719 186.841,172.180 187.112 C 155.535 187.540,150.605 181.433,159.547 171.461 C 163.478 167.078,164.086 164.854,164.593 153.000 C 165.122 140.637,166.007 123.668,166.236 121.498 C 166.944 114.786,164.995 113.092,155.957 112.562 C 146.250 111.992,146.755 110.886,146.356 133.600 C 146.191 142.950,145.869 155.010,145.640 160.400 C 145.208 170.553,145.275 188.573,145.798 202.800 C 146.044 209.525,145.937 213.302,145.200 223.800 C 144.200 238.028,144.273 242.708,145.593 249.200 C 146.377 253.057,147.050 254.976,150.219 262.400 C 154.565 272.578,148.596 280.732,139.685 276.790 C 134.734 274.600,132.960 271.548,130.043 260.200 C 125.802 243.705,123.716 239.959,117.448 237.591 C 115.662 236.915,113.670 236.155,113.022 235.901 C 110.179 234.785,107.999 231.927,108.001 229.320 C 108.005 225.685,110.640 223.668,117.641 221.942 C 127.353 219.547,128.320 218.324,128.688 207.966 C 128.928 201.202,128.592 199.566,125.820 194.028 C 123.926 190.244,123.174 187.917,122.040 182.338 C 119.991 172.254,114.294 166.131,109.053 168.377 C 105.596 169.859,104.822 171.864,103.404 183.000 C 102.005 193.983,102.136 193.268,100.145 200.723 C 96.305 215.093,95.870 222.720,97.779 242.200 C 99.241 257.123,99.969 265.781,100.606 275.800 C 100.914 280.640,101.273 285.230,101.405 286.000 C 102.354 291.546,103.304 297.960,104.011 303.600 C 105.011 311.568,105.418 313.219,107.911 319.400 C 108.975 322.040,110.058 324.920,110.318 325.800 C 112.562 333.417,113.833 336.647,116.232 340.824 C 117.677 343.341,119.513 346.922,120.312 348.782 C 121.112 350.643,122.837 353.793,124.145 355.782 C 125.454 357.772,127.380 360.840,128.425 362.600 C 136.244 375.766,147.411 379.703,169.400 377.044 C 196.811 373.731,206.926 373.275,216.000 374.947 C 240.217 379.408,245.494 379.435,255.580 375.154 C 264.678 371.293,270.893 365.613,272.601 359.600 C 272.757 359.050,274.113 356.148,275.615 353.152 C 278.452 347.490,279.032 345.801,281.220 336.809 C 281.942 333.844,283.385 329.310,284.427 326.734 C 287.227 319.810,287.487 318.556,289.190 303.800 C 290.261 294.519,290.247 294.615,292.062 284.000 C 295.319 264.943,295.202 266.257,295.306 247.600 C 295.378 234.492,295.274 229.959,294.850 227.800 C 294.548 226.260,293.438 220.950,292.384 216.000 C 291.329 211.050,290.363 206.370,290.237 205.600 C 289.977 204.006,288.229 190.808,287.562 185.400 C 287.318 183.420,286.055 177.595,284.755 172.455 C 282.392 163.110,281.196 155.597,280.605 146.400 C 279.727 132.721,278.735 131.044,270.666 129.595 C 263.359 128.282,263.446 128.085,263.283 146.200 C 263.215 153.680,263.319 163.678,263.513 168.418 L 263.866 177.036 265.608 180.818 C 270.194 190.773,266.136 195.393,252.800 195.398 C 239.297 195.403,234.839 188.716,242.333 179.698 C 246.291 174.935,246.206 175.761,246.164 142.600 C 246.118 106.781,246.314 107.791,239.935 110.424 L 236.600 111.800 229.962 111.800 C 219.580 111.800,220.213 109.567,220.713 144.400 C 221.087 170.446,220.775 168.463,225.220 173.048 C 234.893 183.023,226.243 190.061,207.800 187.223 C 197.197 185.591,194.935 180.428,200.924 171.527 C 203.904 167.097,204.015 164.984,203.178 128.560 C 202.726 108.875,202.610 107.784,200.804 106.265 C 198.496 104.323,190.887 103.365,189.092 104.791 M196.882 106.030 C 201.457 107.237,201.405 106.933,202.191 137.000 C 202.974 167.005,202.977 166.976,198.794 172.586 C 194.403 178.476,195.248 183.364,201.181 186.390 C 206.897 189.306,221.210 189.819,225.748 187.271 C 232.153 183.674,232.374 178.742,226.399 172.722 C 221.485 167.770,221.859 170.228,221.692 141.800 C 221.510 110.660,220.872 113.000,229.544 113.000 C 234.058 113.000,235.643 112.830,238.726 112.018 C 245.290 110.289,244.914 108.872,245.310 136.800 C 245.819 172.631,245.706 173.739,240.958 179.417 C 232.994 188.942,238.241 196.400,252.905 196.400 C 266.290 196.400,271.899 190.703,267.321 181.758 C 264.706 176.649,264.751 177.014,264.385 157.693 C 263.891 131.547,264.004 130.953,269.453 131.064 C 277.444 131.227,278.723 133.185,279.602 146.600 C 280.476 159.930,281.476 165.664,285.381 179.744 C 285.922 181.693,286.642 185.608,286.982 188.444 C 287.322 191.280,287.884 195.985,288.231 198.900 C 289.101 206.214,290.225 212.699,291.887 220.000 C 294.769 232.665,294.919 235.220,294.075 257.400 C 293.711 266.992,293.525 268.871,292.412 274.200 C 290.521 283.264,289.909 287.709,287.418 310.471 C 286.759 316.495,285.676 321.082,284.238 323.936 C 282.570 327.247,281.179 331.652,279.797 337.995 C 278.179 345.418,277.837 346.430,275.445 350.854 C 274.427 352.736,272.983 355.833,272.236 357.737 C 267.002 371.068,249.966 379.662,234.400 376.824 C 206.857 371.802,204.410 371.755,169.600 375.575 C 158.304 376.814,156.197 376.892,151.348 376.245 C 140.817 374.842,134.474 370.691,129.191 361.746 C 128.066 359.841,126.220 356.914,125.088 355.241 C 123.957 353.569,122.103 350.130,120.968 347.600 C 119.833 345.070,118.566 342.439,118.152 341.753 C 114.477 335.657,114.394 335.456,110.954 324.200 C 109.913 320.794,109.386 319.423,107.502 315.215 C 106.436 312.835,105.361 307.435,104.591 300.601 C 104.245 297.520,103.711 293.470,103.406 291.600 C 102.365 285.218,102.166 283.153,101.804 275.000 C 101.354 264.853,100.251 252.014,98.973 242.034 C 97.429 229.979,97.422 216.479,98.957 210.400 C 99.263 209.190,100.064 206.130,100.738 203.600 C 102.608 196.583,103.484 191.731,104.407 183.279 C 105.829 170.260,108.420 166.771,114.022 170.330 C 118.418 173.123,119.402 175.169,122.008 186.928 C 122.609 189.639,123.545 192.198,125.029 195.188 C 127.566 200.299,128.235 203.555,127.836 208.868 C 127.193 217.438,125.889 218.891,116.931 221.007 C 102.903 224.322,102.439 233.366,116.050 238.188 C 119.540 239.424,121.685 241.015,122.794 243.189 C 124.851 247.221,127.693 255.324,129.391 262.000 C 132.202 273.049,133.739 275.597,139.112 278.111 C 150.249 283.323,156.739 272.185,150.168 259.137 C 145.711 250.286,144.942 243.257,146.236 223.200 C 146.718 215.738,146.808 210.156,146.615 199.800 C 146.230 179.180,146.309 160.277,146.816 151.600 C 147.067 147.310,147.400 137.680,147.557 130.200 C 147.932 112.273,147.626 112.773,157.697 113.656 C 164.990 114.296,165.101 114.549,164.466 129.102 C 164.200 135.206,163.808 144.610,163.595 150.000 C 162.995 165.145,162.698 166.345,158.357 171.096 C 153.073 176.881,152.437 180.225,155.894 184.052 C 158.835 187.306,162.124 188.197,171.000 188.143 C 186.721 188.048,193.020 182.825,188.555 173.589 C 185.066 166.370,184.780 163.722,185.748 147.600 C 186.099 141.770,186.575 131.780,186.806 125.400 C 187.548 104.921,188.168 103.730,196.882 106.030 M168.935 216.580 C 162.786 220.360,165.539 232.115,173.520 236.160 C 185.830 242.397,194.222 244.308,213.200 245.192 C 235.785 246.244,241.478 246.797,245.519 248.332 C 248.272 249.378,260.079 256.137,263.522 258.637 C 273.529 265.905,287.692 263.431,287.692 254.416 C 287.692 249.843,284.928 247.471,265.602 235.466 C 258.627 231.132,256.666 230.327,249.400 228.811 C 246.320 228.169,241.272 227.021,238.182 226.261 C 231.228 224.550,228.880 224.266,211.400 223.020 C 190.477 221.529,189.998 221.447,182.400 218.068 C 176.075 215.255,171.851 214.788,168.935 216.580 M176.400 217.340 C 177.610 217.630,180.670 218.695,183.200 219.707 C 189.652 222.287,191.671 222.618,210.600 224.208 C 227.987 225.668,232.062 226.176,239.194 227.774 C 241.507 228.292,245.421 229.100,247.892 229.569 C 256.039 231.115,262.666 234.325,274.000 242.217 C 275.650 243.366,278.260 245.066,279.800 245.995 C 286.075 249.780,287.882 253.601,285.401 257.835 C 282.176 263.338,272.220 263.304,264.311 257.762 C 261.532 255.814,257.312 253.277,248.949 248.524 C 245.217 246.404,236.696 245.213,219.400 244.394 C 196.590 243.314,185.956 241.236,175.064 235.729 C 163.561 229.913,164.679 214.530,176.400 217.340 " stroke="none" fill="#d4a47c" fill-rule="evenodd"></path></g></svg>