<svg id="svg" version="1.1" xmlns="http://www.w3.org/2000/svg" xmlns:xlink="http://www.w3.org/1999/xlink" width="400" height="400" viewBox="0, 0, 400,400"><g id="svgg"><path id="path0" d="M45.873 157.344 C 43.571 157.795,41.600 159.111,41.600 160.197 C 41.600 160.502,40.833 160.822,39.700 160.988 C 36.695 161.428,34.617 162.511,34.022 163.946 C 33.622 164.911,33.256 165.200,32.428 165.200 C 30.970 165.200,29.924 166.043,29.382 167.655 C 29.075 168.568,28.620 169.064,27.965 169.200 C 26.303 169.544,25.534 170.228,25.251 171.611 C 25.043 172.629,24.711 173.020,23.863 173.246 C 22.249 173.678,21.655 174.301,21.360 175.871 C 21.163 176.923,20.781 177.413,19.789 177.886 C 18.240 178.625,17.785 179.501,17.142 182.995 C 16.869 184.475,16.456 185.600,16.185 185.600 C 13.392 185.600,12.799 189.580,12.803 208.316 C 12.807 226.416,13.167 229.128,15.723 230.292 C 16.446 230.622,16.747 231.276,17.178 233.454 C 17.819 236.695,18.421 237.746,20.019 238.408 C 20.811 238.736,21.200 239.182,21.200 239.760 C 21.200 241.025,22.265 242.333,23.827 242.985 C 24.681 243.342,25.200 243.835,25.200 244.291 C 25.200 245.539,26.361 246.756,27.811 247.029 C 28.769 247.208,29.200 247.507,29.200 247.991 C 29.200 249.183,30.755 250.755,32.202 251.027 C 33.162 251.207,33.793 251.659,34.315 252.542 C 35.100 253.870,37.988 255.206,40.067 255.202 C 40.846 255.201,41.357 255.560,41.958 256.531 C 43.575 259.148,46.778 259.593,64.000 259.593 C 81.053 259.593,83.744 259.232,86.200 256.611 C 87.103 255.648,87.872 255.266,89.307 255.072 C 91.840 254.729,93.452 253.847,94.204 252.393 C 94.543 251.737,95.014 251.200,95.250 251.200 C 96.542 251.200,98.394 249.829,98.812 248.563 C 99.124 247.617,99.507 247.200,100.062 247.200 C 101.074 247.200,103.200 245.105,103.200 244.108 C 103.200 243.613,103.748 243.112,104.791 242.652 C 106.066 242.090,106.477 241.636,106.854 240.377 C 107.177 239.300,107.739 238.561,108.639 238.030 C 109.942 237.261,111.190 234.441,111.206 232.227 C 111.214 231.170,111.579 230.636,112.696 230.048 C 115.050 228.808,115.593 224.681,115.596 208.000 C 115.598 193.104,114.875 186.400,113.265 186.400 C 112.427 186.400,111.297 184.713,111.081 183.140 C 110.701 180.368,109.761 178.539,108.410 177.940 C 107.529 177.550,107.133 177.048,106.954 176.095 C 106.689 174.682,105.150 173.200,103.946 173.200 C 103.536 173.200,103.200 172.921,103.200 172.580 C 103.200 171.323,101.975 169.609,100.893 169.351 C 99.445 169.005,98.800 168.459,98.800 167.580 C 98.800 166.656,96.962 165.200,95.795 165.200 C 95.178 165.200,94.744 164.831,94.408 164.019 C 93.739 162.404,92.551 161.721,89.397 161.140 C 87.250 160.745,86.629 160.462,86.295 159.728 C 85.674 158.367,84.367 157.677,81.536 157.218 C 78.032 156.649,48.890 156.752,45.873 157.344 M181.873 157.344 C 179.571 157.795,177.600 159.111,177.600 160.197 C 177.600 160.502,176.833 160.822,175.700 160.988 C 172.695 161.428,170.617 162.511,170.022 163.946 C 169.622 164.911,169.256 165.200,168.428 165.200 C 166.970 165.200,165.924 166.043,165.382 167.655 C 165.075 168.568,164.620 169.064,163.965 169.200 C 162.303 169.544,161.534 170.228,161.251 171.611 C 161.043 172.629,160.711 173.020,159.863 173.246 C 158.249 173.678,157.655 174.301,157.360 175.871 C 157.163 176.923,156.781 177.413,155.789 177.886 C 154.240 178.625,153.785 179.501,153.142 182.995 C 152.869 184.475,152.456 185.600,152.185 185.600 C 149.392 185.600,148.799 189.580,148.803 208.316 C 148.807 226.416,149.167 229.128,151.723 230.292 C 152.446 230.622,152.747 231.276,153.178 233.454 C 153.819 236.695,154.421 237.746,156.019 238.408 C 156.811 238.736,157.200 239.182,157.200 239.760 C 157.200 241.025,158.265 242.333,159.827 242.985 C 160.681 243.342,161.200 243.835,161.200 244.291 C 161.200 245.539,162.361 246.756,163.811 247.029 C 164.769 247.208,165.200 247.507,165.200 247.991 C 165.200 249.183,166.755 250.755,168.202 251.027 C 169.162 251.207,169.793 251.659,170.315 252.542 C 171.100 253.870,173.988 255.206,176.067 255.202 C 176.846 255.201,177.357 255.560,177.958 256.531 C 179.575 259.148,182.778 259.593,200.000 259.593 C 217.053 259.593,219.744 259.232,222.200 256.611 C 223.103 255.648,223.872 255.266,225.307 255.072 C 227.840 254.729,229.452 253.847,230.204 252.393 C 230.543 251.737,231.014 251.200,231.250 251.200 C 232.542 251.200,234.394 249.829,234.812 248.563 C 235.124 247.617,235.507 247.200,236.062 247.200 C 237.074 247.200,239.200 245.105,239.200 244.108 C 239.200 243.613,239.748 243.112,240.791 242.652 C 242.066 242.090,242.477 241.636,242.854 240.377 C 243.177 239.300,243.739 238.561,244.639 238.030 C 245.942 237.261,247.190 234.441,247.206 232.227 C 247.214 231.170,247.579 230.636,248.696 230.048 C 251.050 228.808,251.593 224.681,251.596 208.000 C 251.598 193.104,250.875 186.400,249.265 186.400 C 248.427 186.400,247.297 184.713,247.081 183.140 C 246.701 180.368,245.761 178.539,244.410 177.940 C 243.529 177.550,243.133 177.048,242.954 176.095 C 242.689 174.682,241.150 173.200,239.946 173.200 C 239.536 173.200,239.200 172.921,239.200 172.580 C 239.200 171.323,237.975 169.609,236.893 169.351 C 235.445 169.005,234.800 168.459,234.800 167.580 C 234.800 166.656,232.962 165.200,231.795 165.200 C 231.178 165.200,230.744 164.831,230.408 164.019 C 229.739 162.404,228.551 161.721,225.397 161.140 C 223.250 160.745,222.629 160.462,222.295 159.728 C 221.674 158.367,220.367 157.677,217.536 157.218 C 214.032 156.649,184.890 156.752,181.873 157.344 M317.873 157.344 C 315.571 157.795,313.600 159.111,313.600 160.197 C 313.600 160.502,312.833 160.822,311.700 160.988 C 308.695 161.428,306.617 162.511,306.022 163.946 C 305.622 164.911,305.256 165.200,304.428 165.200 C 302.970 165.200,301.924 166.043,301.382 167.655 C 301.075 168.568,300.620 169.064,299.965 169.200 C 298.303 169.544,297.534 170.228,297.251 171.611 C 297.043 172.629,296.711 173.020,295.863 173.246 C 294.249 173.678,293.655 174.301,293.360 175.871 C 293.163 176.923,292.781 177.413,291.789 177.886 C 290.240 178.625,289.785 179.501,289.142 182.995 C 288.869 184.475,288.456 185.600,288.185 185.600 C 285.392 185.600,284.799 189.580,284.803 208.316 C 284.807 226.416,285.167 229.128,287.723 230.292 C 288.446 230.622,288.747 231.276,289.178 233.454 C 289.819 236.695,290.421 237.746,292.019 238.408 C 292.811 238.736,293.200 239.182,293.200 239.760 C 293.200 241.025,294.265 242.333,295.827 242.985 C 296.681 243.342,297.200 243.835,297.200 244.291 C 297.200 245.539,298.361 246.756,299.811 247.029 C 300.769 247.208,301.200 247.507,301.200 247.991 C 301.200 249.183,302.755 250.755,304.202 251.027 C 305.162 251.207,305.793 251.659,306.315 252.542 C 307.100 253.870,309.988 255.206,312.067 255.202 C 312.846 255.201,313.357 255.560,313.958 256.531 C 315.575 259.148,318.778 259.593,336.000 259.593 C 353.053 259.593,355.744 259.232,358.200 256.611 C 359.103 255.648,359.872 255.266,361.307 255.072 C 363.840 254.729,365.452 253.847,366.204 252.393 C 366.543 251.737,367.014 251.200,367.250 251.200 C 368.542 251.200,370.394 249.829,370.812 248.563 C 371.124 247.617,371.507 247.200,372.062 247.200 C 373.074 247.200,375.200 245.105,375.200 244.108 C 375.200 243.613,375.748 243.112,376.791 242.652 C 378.066 242.090,378.477 241.636,378.854 240.377 C 379.177 239.300,379.739 238.561,380.639 238.030 C 381.942 237.261,383.190 234.441,383.206 232.227 C 383.214 231.170,383.579 230.636,384.696 230.048 C 387.050 228.808,387.593 224.681,387.596 208.000 C 387.598 193.104,386.875 186.400,385.265 186.400 C 384.427 186.400,383.297 184.713,383.081 183.140 C 382.701 180.368,381.761 178.539,380.410 177.940 C 379.529 177.550,379.133 177.048,378.954 176.095 C 378.689 174.682,377.150 173.200,375.946 173.200 C 375.536 173.200,375.200 172.921,375.200 172.580 C 375.200 171.323,373.975 169.609,372.893 169.351 C 371.445 169.005,370.800 168.459,370.800 167.580 C 370.800 166.656,368.962 165.200,367.795 165.200 C 367.178 165.200,366.744 164.831,366.408 164.019 C 365.739 162.404,364.551 161.721,361.397 161.140 C 359.250 160.745,358.629 160.462,358.295 159.728 C 357.674 158.367,356.367 157.677,353.536 157.218 C 350.032 156.649,320.890 156.752,317.873 157.344 M72.000 183.175 C 75.736 183.580,75.824 183.614,77.203 185.184 C 78.039 186.136,79.102 186.880,79.836 187.027 C 80.776 187.215,81.183 187.597,81.563 188.647 C 81.903 189.588,82.516 190.239,83.507 190.711 C 84.527 191.196,85.048 191.763,85.270 192.627 C 85.448 193.322,86.255 194.392,87.129 195.094 L 88.672 196.335 89.192 202.306 C 89.894 210.373,89.233 218.280,87.719 219.935 C 87.183 220.521,86.466 221.305,86.126 221.677 C 85.786 222.049,85.388 222.945,85.240 223.666 C 85.025 224.717,84.705 225.055,83.631 225.363 C 82.589 225.662,82.120 226.132,81.526 227.474 C 80.922 228.840,80.555 229.200,79.770 229.200 C 79.122 229.200,78.192 229.808,77.089 230.952 L 75.400 232.703 70.600 233.218 C 64.641 233.856,63.385 233.856,57.400 233.212 L 52.600 232.696 51.177 231.134 C 50.394 230.275,49.224 229.432,48.577 229.261 C 47.773 229.048,47.182 228.492,46.711 227.505 C 46.240 226.517,45.587 225.902,44.647 225.563 C 43.631 225.195,43.214 224.768,43.045 223.925 C 42.919 223.297,42.082 222.105,41.183 221.275 L 39.550 219.767 39.081 215.383 C 38.486 209.817,38.490 206.552,39.098 200.800 L 39.584 196.200 41.204 194.800 C 42.095 194.030,42.966 192.860,43.141 192.200 C 43.330 191.484,43.769 190.942,44.229 190.857 C 45.351 190.649,46.052 189.971,46.667 188.500 C 47.041 187.606,47.479 187.200,48.069 187.200 C 48.575 187.200,49.607 186.459,50.584 185.395 L 52.241 183.591 56.819 183.163 C 59.337 182.928,61.488 182.640,61.599 182.523 C 61.828 182.282,66.401 182.568,72.000 183.175 M208.000 183.175 C 211.736 183.580,211.824 183.614,213.203 185.184 C 214.039 186.136,215.102 186.880,215.836 187.027 C 216.776 187.215,217.183 187.597,217.563 188.647 C 217.903 189.588,218.516 190.239,219.507 190.711 C 220.527 191.196,221.048 191.763,221.270 192.627 C 221.448 193.322,222.255 194.392,223.129 195.094 L 224.672 196.335 225.192 202.306 C 225.894 210.373,225.233 218.280,223.719 219.935 C 223.183 220.521,222.466 221.305,222.126 221.677 C 221.786 222.049,221.388 222.945,221.240 223.666 C 221.025 224.717,220.705 225.055,219.631 225.363 C 218.589 225.662,218.120 226.132,217.526 227.474 C 216.922 228.840,216.555 229.200,215.770 229.200 C 215.122 229.200,214.192 229.808,213.089 230.952 L 211.400 232.703 206.600 233.218 C 200.641 233.856,199.385 233.856,193.400 233.212 L 188.600 232.696 187.177 231.134 C 186.394 230.275,185.224 229.432,184.577 229.261 C 183.773 229.048,183.182 228.492,182.711 227.505 C 182.240 226.517,181.587 225.902,180.647 225.563 C 179.631 225.195,179.214 224.768,179.045 223.925 C 178.919 223.297,178.082 222.105,177.183 221.275 L 175.550 219.767 175.081 215.383 C 174.486 209.817,174.490 206.552,175.098 200.800 L 175.584 196.200 177.204 194.800 C 178.095 194.030,178.966 192.860,179.141 192.200 C 179.330 191.484,179.769 190.942,180.229 190.857 C 181.351 190.649,182.052 189.971,182.667 188.500 C 183.041 187.606,183.479 187.200,184.069 187.200 C 184.575 187.200,185.607 186.459,186.584 185.395 L 188.241 183.591 192.819 183.163 C 195.337 182.928,197.488 182.640,197.599 182.523 C 197.828 182.282,202.401 182.568,208.000 183.175 M344.000 183.175 C 347.736 183.580,347.824 183.614,349.203 185.184 C 350.039 186.136,351.102 186.880,351.836 187.027 C 352.776 187.215,353.183 187.597,353.563 188.647 C 353.903 189.588,354.516 190.239,355.507 190.711 C 356.527 191.196,357.048 191.763,357.270 192.627 C 357.448 193.322,358.255 194.392,359.129 195.094 L 360.672 196.335 361.192 202.306 C 361.894 210.373,361.233 218.280,359.719 219.935 C 359.183 220.521,358.466 221.305,358.126 221.677 C 357.786 222.049,357.388 222.945,357.240 223.666 C 357.025 224.717,356.705 225.055,355.631 225.363 C 354.589 225.662,354.120 226.132,353.526 227.474 C 352.922 228.840,352.555 229.200,351.770 229.200 C 351.122 229.200,350.192 229.808,349.089 230.952 L 347.400 232.703 342.600 233.218 C 336.641 233.856,335.385 233.856,329.400 233.212 L 324.600 232.696 323.177 231.134 C 322.394 230.275,321.224 229.432,320.577 229.261 C 319.773 229.048,319.182 228.492,318.711 227.505 C 318.240 226.517,317.587 225.902,316.647 225.563 C 315.631 225.195,315.214 224.768,315.045 223.925 C 314.919 223.297,314.082 222.105,313.183 221.275 L 311.550 219.767 311.081 215.383 C 310.486 209.817,310.490 206.552,311.098 200.800 L 311.584 196.200 313.204 194.800 C 314.095 194.030,314.966 192.860,315.141 192.200 C 315.330 191.484,315.769 190.942,316.229 190.857 C 317.351 190.649,318.052 189.971,318.667 188.500 C 319.041 187.606,319.479 187.200,320.069 187.200 C 320.575 187.200,321.607 186.459,322.584 185.395 L 324.241 183.591 328.819 183.163 C 331.337 182.928,333.488 182.640,333.599 182.523 C 333.828 182.282,338.401 182.568,344.000 183.175 " stroke="none" fill="#040404" fill-rule="evenodd"></path><path id="path1" d="" stroke="none" fill="#080404" fill-rule="evenodd"></path><path id="path2" d="" stroke="none" fill="#080404" fill-rule="evenodd"></path><path id="path3" d="" stroke="none" fill="#080404" fill-rule="evenodd"></path><path id="path4" d="" stroke="none" fill="#080404" fill-rule="evenodd"></path><path id="path5" d="" stroke="none" fill="#080404" fill-rule="evenodd"></path><path id="path6" d="" stroke="none" fill="#080404" fill-rule="evenodd"></path><path id="path7" d="" stroke="none" fill="#080404" fill-rule="evenodd"></path><path id="path8" d="" stroke="none" fill="#080404" fill-rule="evenodd"></path></g></svg>