<svg id="svg" version="1.1" xmlns="http://www.w3.org/2000/svg" xmlns:xlink="http://www.w3.org/1999/xlink" width="400" height="400" viewBox="0, 0, 400,400"><g id="svgg"><path id="path0" d="M150.400 2.000 L 150.400 4.000 139.689 4.000 C 126.624 4.000,127.200 3.796,127.200 8.423 L 127.200 11.600 120.014 11.600 C 114.636 11.600,112.496 11.745,111.514 12.176 C 110.791 12.492,109.719 12.852,109.131 12.975 C 107.261 13.368,105.723 15.021,105.199 17.202 L 104.720 19.200 101.586 19.200 C 97.464 19.200,96.571 19.562,96.232 21.370 C 96.051 22.338,95.323 23.439,93.974 24.788 L 91.983 26.778 87.186 27.050 C 81.196 27.388,81.194 27.390,80.911 31.518 L 80.686 34.800 77.423 34.800 C 73.315 34.800,73.200 34.916,73.200 39.080 L 73.200 42.400 69.763 42.400 C 66.932 42.400,66.147 42.541,65.309 43.200 C 64.750 43.640,64.037 44.000,63.726 44.000 C 61.916 44.000,59.200 46.984,59.200 48.974 C 59.200 49.793,57.422 50.632,55.023 50.947 C 52.442 51.285,51.303 52.361,50.995 54.754 C 50.685 57.172,49.770 59.200,48.991 59.200 C 46.986 59.200,44.000 61.908,44.000 63.726 C 44.000 64.037,43.640 64.750,43.200 65.309 C 42.541 66.147,42.400 66.932,42.400 69.763 L 42.400 73.200 39.080 73.200 C 34.916 73.200,34.800 73.315,34.800 77.423 L 34.800 80.686 31.518 80.911 C 27.390 81.194,27.388 81.196,27.050 87.186 L 26.778 91.983 24.788 93.974 C 23.439 95.323,22.338 96.051,21.370 96.232 C 19.562 96.571,19.200 97.464,19.200 101.586 L 19.200 104.720 17.202 105.199 C 15.021 105.723,13.368 107.261,12.975 109.131 C 12.852 109.719,12.492 110.791,12.176 111.514 C 11.745 112.496,11.600 114.636,11.600 120.014 L 11.600 127.200 8.423 127.200 C 3.796 127.200,4.000 126.624,4.000 139.689 L 4.000 150.400 2.000 150.400 L 0.000 150.400 0.000 200.000 L 0.000 249.600 2.000 249.600 L 4.000 249.600 4.000 259.974 C 4.000 273.101,4.039 273.191,9.700 273.198 L 11.600 273.200 11.600 280.371 C 11.600 285.856,11.727 287.670,12.140 288.082 C 12.436 288.379,12.902 289.297,13.174 290.121 C 13.914 292.364,15.345 293.825,17.353 294.387 L 19.128 294.884 19.264 298.875 C 19.411 303.176,19.828 304.000,21.857 304.000 C 22.410 304.000,23.543 304.781,24.770 306.008 L 26.778 308.017 27.050 312.814 C 27.388 318.804,27.390 318.806,31.518 319.089 L 34.800 319.314 34.800 322.577 C 34.800 326.683,34.918 326.800,39.065 326.800 L 42.370 326.800 42.485 330.500 C 42.590 333.870,42.678 334.234,43.478 334.585 C 43.961 334.797,44.456 335.369,44.578 335.855 C 44.924 337.231,46.598 338.987,48.295 339.753 C 49.924 340.487,50.422 341.534,51.008 345.456 C 51.335 347.643,52.546 348.729,55.023 349.053 C 57.422 349.368,59.200 350.207,59.200 351.026 C 59.200 353.016,61.916 356.000,63.726 356.000 C 64.037 356.000,64.750 356.360,65.309 356.800 C 66.147 357.459,66.932 357.600,69.763 357.600 L 73.200 357.600 73.200 360.920 C 73.200 365.092,73.308 365.200,77.480 365.200 L 80.800 365.200 80.847 367.500 C 80.959 372.923,81.316 373.144,90.048 373.177 L 95.895 373.200 96.143 374.700 C 96.280 375.525,96.393 377.049,96.396 378.086 C 96.401 380.522,96.926 380.800,101.522 380.800 L 105.096 380.800 105.603 382.611 C 106.176 384.656,107.620 386.081,109.879 386.826 C 110.703 387.098,111.621 387.564,111.918 387.860 C 112.331 388.274,114.176 388.400,119.829 388.400 L 127.200 388.400 127.200 391.324 C 127.200 396.063,126.450 395.780,139.367 395.918 L 150.400 396.036 150.400 398.018 L 150.400 400.000 200.000 400.000 L 249.600 400.000 249.600 398.000 L 249.600 396.000 259.974 396.000 C 273.080 396.000,273.200 395.950,273.200 390.540 L 273.200 388.400 280.371 388.400 C 285.856 388.400,287.670 388.273,288.082 387.860 C 288.379 387.564,289.297 387.098,290.121 386.826 C 292.380 386.081,293.824 384.656,294.397 382.611 L 294.904 380.800 298.752 380.787 C 303.843 380.770,304.000 380.641,304.000 376.456 L 304.000 373.200 310.013 373.200 C 318.738 373.200,319.182 372.905,319.196 367.100 L 319.200 365.200 322.520 365.200 C 326.692 365.200,326.800 365.092,326.800 360.920 L 326.800 357.600 330.167 357.600 C 334.024 357.600,334.800 357.399,334.800 356.401 C 334.800 355.979,335.197 355.587,335.769 355.443 C 337.247 355.073,338.974 353.432,339.789 351.625 C 340.336 350.412,340.753 350.000,341.437 350.000 C 341.941 350.000,342.448 349.846,342.565 349.657 C 342.681 349.469,343.710 349.204,344.850 349.069 C 347.532 348.751,348.686 347.693,349.017 345.246 C 349.340 342.862,350.276 340.800,351.035 340.800 C 353.012 340.800,356.000 338.081,356.000 336.281 C 356.000 335.974,356.360 335.307,356.800 334.800 C 357.470 334.027,357.600 333.303,357.600 330.339 L 357.600 326.800 360.920 326.800 C 365.092 326.800,365.200 326.692,365.200 322.520 L 365.200 319.200 367.100 319.196 C 372.905 319.182,373.200 318.738,373.200 310.013 L 373.200 304.000 376.456 304.000 C 380.617 304.000,380.770 303.821,380.787 298.940 L 380.800 295.280 382.798 294.801 C 384.979 294.277,386.632 292.739,387.025 290.869 C 387.148 290.281,387.508 289.209,387.824 288.486 C 388.253 287.508,388.400 285.389,388.400 280.186 L 388.400 273.200 390.540 273.200 C 395.950 273.200,396.000 273.080,396.000 259.974 L 396.000 249.600 398.000 249.600 L 400.000 249.600 400.000 200.000 L 400.000 150.400 398.018 150.400 L 396.036 150.400 395.918 139.367 C 395.780 126.450,396.063 127.200,391.324 127.200 L 388.400 127.200 388.400 119.829 C 388.400 114.176,388.274 112.331,387.860 111.918 C 387.564 111.621,387.098 110.703,386.826 109.879 C 386.081 107.620,384.656 106.176,382.611 105.603 L 380.800 105.096 380.800 101.522 C 380.800 97.313,380.498 96.582,378.612 96.229 C 377.663 96.051,376.548 95.309,375.201 93.963 L 373.200 91.962 373.177 88.081 C 373.139 81.529,372.688 80.954,367.500 80.847 L 365.200 80.800 365.200 77.480 C 365.200 73.308,365.092 73.200,360.920 73.200 L 357.600 73.200 357.600 69.763 C 357.600 66.932,357.459 66.147,356.800 65.309 C 356.360 64.750,356.000 64.037,356.000 63.726 C 356.000 61.916,353.016 59.200,351.026 59.200 C 350.207 59.200,349.368 57.422,349.053 55.023 C 348.715 52.442,347.639 51.303,345.246 50.995 C 342.828 50.685,340.800 49.770,340.800 48.991 C 340.800 46.986,338.092 44.000,336.274 44.000 C 335.963 44.000,335.250 43.640,334.691 43.200 C 333.853 42.541,333.068 42.400,330.237 42.400 L 326.800 42.400 326.800 39.080 C 326.800 34.916,326.685 34.800,322.577 34.800 L 319.314 34.800 319.089 31.518 C 318.806 27.390,318.804 27.388,312.814 27.050 L 308.017 26.778 306.008 24.770 C 304.781 23.543,304.000 22.410,304.000 21.857 C 304.000 19.853,303.159 19.411,299.064 19.262 L 295.262 19.125 294.792 17.165 C 294.278 15.023,292.726 13.365,290.869 12.975 C 290.281 12.852,289.209 12.492,288.486 12.176 C 287.508 11.747,285.389 11.600,280.186 11.600 L 273.200 11.600 273.198 9.700 C 273.191 4.039,273.101 4.000,259.974 4.000 L 249.600 4.000 249.600 2.000 L 249.600 0.000 200.000 0.000 L 150.400 0.000 150.400 2.000 M281.030 122.022 C 281.476 126.550,281.463 126.543,289.354 126.733 L 296.000 126.894 296.000 131.193 L 296.000 135.491 294.197 135.738 C 292.208 136.011,290.611 136.884,290.199 137.924 C 289.325 140.132,288.400 144.903,288.400 147.207 L 288.400 149.886 285.155 150.108 C 281.117 150.385,281.084 150.421,280.877 154.750 L 280.707 158.307 278.723 158.498 C 274.717 158.883,273.686 160.827,273.313 168.700 L 273.099 173.200 270.050 173.206 C 265.908 173.214,265.839 173.281,265.600 177.481 L 265.400 180.993 263.405 181.277 C 260.161 181.739,259.643 181.956,259.055 183.106 C 258.364 184.458,257.600 189.999,257.600 193.664 L 257.600 196.400 254.500 196.406 C 250.362 196.414,250.330 196.445,250.042 200.659 L 249.800 204.200 247.590 204.438 C 243.287 204.901,242.893 205.617,242.528 213.646 L 242.280 219.106 238.907 219.283 C 234.853 219.496,234.814 219.539,234.806 223.846 L 234.800 227.093 231.962 227.296 C 227.609 227.607,227.536 227.732,227.048 235.787 L 226.646 242.400 223.623 242.406 C 219.553 242.414,219.495 242.470,219.280 246.572 C 219.077 250.436,219.309 250.207,215.276 250.521 C 211.990 250.778,211.683 251.634,211.629 260.700 L 211.600 265.600 208.280 265.600 C 204.116 265.600,204.000 265.715,204.000 269.822 L 204.000 273.085 200.941 273.316 C 196.494 273.652,196.205 274.415,196.030 286.259 L 196.000 288.318 192.633 288.459 C 188.513 288.632,188.632 288.513,188.459 292.633 L 188.318 296.000 184.601 296.000 L 180.885 296.000 180.740 292.818 C 180.562 288.899,180.447 288.782,176.485 288.511 L 173.280 288.291 173.138 285.163 C 172.958 281.204,172.778 281.034,168.580 280.859 L 165.200 280.718 165.200 277.588 C 165.200 273.467,164.930 273.200,160.771 273.200 L 157.600 273.200 157.600 270.029 C 157.600 265.862,157.338 265.600,153.171 265.600 L 150.000 265.600 150.000 262.826 C 150.000 258.312,149.847 258.126,145.873 257.795 L 142.498 257.514 142.314 254.342 C 142.087 250.424,141.974 250.313,138.015 250.083 L 134.800 249.897 134.800 247.322 C 134.800 242.995,134.221 242.415,129.900 242.406 L 126.800 242.400 126.800 239.229 C 126.800 235.062,126.538 234.800,122.371 234.800 L 119.200 234.800 119.200 232.026 C 119.200 227.704,118.888 227.211,116.110 227.144 L 113.800 227.087 115.943 226.828 C 118.759 226.488,119.200 225.852,119.200 222.124 L 119.200 219.200 122.200 219.200 C 126.291 219.200,126.800 218.691,126.800 214.600 L 126.800 211.600 130.768 211.600 L 134.736 211.600 135.016 214.215 C 135.414 217.931,136.013 218.529,139.534 218.728 L 142.364 218.888 142.600 220.744 C 143.074 224.482,143.232 225.129,143.784 225.586 C 144.250 225.973,148.219 226.763,149.846 226.792 C 150.113 226.797,150.375 227.958,150.498 229.678 C 150.757 233.296,151.327 233.846,155.216 234.229 L 158.000 234.503 158.023 236.352 C 158.074 240.589,159.413 241.926,163.653 241.977 L 165.507 242.000 165.795 244.700 C 166.310 249.540,166.409 249.581,178.287 249.889 C 188.963 250.166,188.400 250.396,188.400 245.751 L 188.400 242.400 191.400 242.400 C 195.530 242.400,196.000 241.912,196.000 237.629 L 196.000 234.458 198.300 234.178 C 200.176 233.950,202.798 233.083,202.801 232.690 C 202.801 232.640,203.071 231.070,203.400 229.200 C 203.729 227.330,203.999 224.333,203.999 222.541 L 204.000 219.282 207.367 219.141 C 211.500 218.968,211.370 219.103,211.538 214.819 L 211.676 211.303 214.284 211.094 C 218.506 210.755,219.118 209.306,219.178 199.500 L 219.200 196.000 222.520 196.000 C 226.688 196.000,226.800 195.889,226.800 191.749 L 226.800 188.458 229.100 188.218 C 234.077 187.700,234.393 187.163,234.702 178.700 L 234.903 173.200 237.920 173.200 C 242.068 173.200,242.400 172.859,242.400 168.592 L 242.400 165.307 245.235 165.105 C 249.554 164.796,249.913 164.007,249.971 154.700 L 250.000 150.000 253.320 150.000 C 257.484 150.000,257.600 149.885,257.600 145.777 L 257.600 142.515 260.500 142.246 C 264.757 141.851,264.967 141.548,265.133 135.593 L 265.267 130.806 266.461 130.103 C 267.118 129.716,268.018 128.815,268.460 128.100 C 269.135 127.011,269.506 126.800,270.753 126.800 C 272.914 126.800,273.200 126.300,273.200 122.520 L 273.200 119.200 276.976 119.200 L 280.752 119.200 281.030 122.022 " stroke="none" fill="#040404" fill-rule="evenodd"></path><path id="path1" d="" stroke="none" fill="#080404" fill-rule="evenodd"></path><path id="path2" d="" stroke="none" fill="#080404" fill-rule="evenodd"></path><path id="path3" d="" stroke="none" fill="#080404" fill-rule="evenodd"></path><path id="path4" d="" stroke="none" fill="#080404" fill-rule="evenodd"></path></g></svg>