<svg id="svg" version="1.1" xmlns="http://www.w3.org/2000/svg" xmlns:xlink="http://www.w3.org/1999/xlink" width="400" height="400" viewBox="0, 0, 400,400"><g id="svgg"><path id="path0" d="M86.137 50.992 C 68.168 54.252,54.545 68.036,50.944 86.600 C 50.105 90.927,50.142 249.269,50.983 253.600 C 53.998 269.125,63.485 280.820,77.796 286.655 C 83.734 289.076,87.521 289.635,100.000 289.935 L 111.000 290.200 110.871 292.000 C 110.429 298.171,110.390 310.115,110.803 312.600 C 113.865 331.030,126.966 344.890,145.153 348.943 L 149.000 349.800 229.800 349.800 C 305.928 349.800,310.804 349.759,314.125 349.082 C 331.599 345.525,344.033 333.531,348.662 315.768 L 349.800 311.400 349.800 230.400 C 349.800 140.986,349.976 147.573,347.387 139.962 C 342.200 124.711,329.439 113.753,313.648 110.987 C 309.371 110.238,296.023 110.202,292.550 110.930 L 290.099 111.444 289.882 100.022 C 289.652 88.009,289.319 85.419,287.236 79.465 C 282.024 64.570,269.221 53.715,253.648 50.987 C 248.950 50.164,90.672 50.169,86.137 50.992 M248.080 65.390 C 262.370 67.544,273.060 78.499,274.809 92.783 C 275.012 94.442,275.240 101.470,275.316 108.400 C 275.472 122.662,275.723 124.177,277.886 123.927 C 278.644 123.840,279.241 123.373,279.795 122.434 C 281.058 120.291,284.204 117.297,286.621 115.937 C 287.907 115.213,290.511 115.738,291.273 116.873 C 292.210 118.268,292.537 119.094,292.649 120.345 C 292.889 123.014,296.029 124.504,302.435 124.988 C 319.701 126.292,330.071 134.258,334.097 149.310 L 334.977 152.600 335.107 227.200 C 335.238 302.364,335.176 306.400,333.810 311.800 C 331.251 321.910,321.922 331.241,311.800 333.812 C 306.491 335.160,301.827 335.231,227.000 335.104 L 152.600 334.977 149.310 334.097 C 134.258 330.071,126.292 319.701,124.988 302.435 C 124.476 295.658,123.004 292.888,119.755 292.586 C 116.735 292.305,114.076 288.928,115.594 287.299 C 115.983 286.881,116.412 286.192,116.547 285.769 C 116.944 284.524,120.048 281.307,122.100 280.014 C 123.564 279.092,124.000 278.582,124.000 277.788 C 124.000 275.902,122.137 275.510,112.400 275.343 C 92.543 275.004,91.659 274.950,87.871 273.830 C 78.203 270.972,70.695 264.167,67.180 255.076 C 64.694 248.649,64.770 251.552,64.900 168.098 L 65.019 92.200 65.883 89.000 C 69.517 75.551,80.157 66.496,94.000 65.072 C 99.074 64.550,244.500 64.850,248.080 65.390 " stroke="none" fill="#1c242c" fill-rule="evenodd"></path><path id="path1" d="M287.726 130.266 C 287.879 130.522,287.779 130.807,287.502 130.899 C 287.104 131.032,286.952 143.184,286.769 189.833 C 286.562 242.371,286.467 248.946,285.874 251.860 C 282.340 269.247,269.247 282.347,251.884 285.870 C 248.930 286.469,242.744 286.551,190.247 286.682 C 124.804 286.846,129.090 286.599,131.600 290.063 C 132.260 290.975,132.800 291.963,132.800 292.260 C 132.800 292.557,132.957 292.800,133.148 292.800 C 133.640 292.800,134.323 296.624,134.789 302.000 C 135.926 315.095,141.417 322.175,152.400 324.708 C 157.035 325.777,302.981 325.775,307.600 324.706 C 318.198 322.252,323.908 315.371,325.183 303.516 C 325.757 298.166,325.757 161.834,325.183 156.484 C 323.696 142.651,316.717 136.077,302.152 134.791 C 295.171 134.175,290.984 133.015,289.200 131.203 C 288.559 130.553,287.490 129.873,287.726 130.266 " stroke="none" fill="#7bccd4" fill-rule="evenodd"></path><path id="path2" d="M222.302 75.144 C 219.563 75.566,219.313 75.954,220.125 78.530 C 221.769 83.744,220.187 87.472,215.395 89.680 L 213.400 90.600 156.000 90.813 C 112.952 90.972,98.258 91.145,97.233 91.504 C 94.424 92.487,92.919 93.845,91.935 96.282 L 91.000 98.600 91.000 170.000 L 91.000 241.400 91.930 243.702 C 92.943 246.212,94.368 247.547,97.000 248.450 C 99.286 249.235,240.500 249.273,243.082 248.489 C 245.325 247.809,246.939 246.385,248.069 244.091 L 249.000 242.200 249.216 207.800 C 249.454 169.874,249.359 171.247,251.979 167.784 C 253.544 165.716,253.503 164.812,251.718 161.919 C 249.280 157.970,248.647 151.676,249.750 142.353 C 250.060 139.729,250.136 137.053,249.947 135.353 C 248.664 123.804,252.403 117.783,259.756 119.558 C 265.349 120.908,265.005 121.774,264.985 106.400 C 264.961 88.473,262.431 82.211,253.419 77.777 C 248.544 75.378,230.632 73.863,222.302 75.144 " stroke="none" fill="#a4d4a4" fill-rule="evenodd"></path><path id="path3" d="M93.251 69.227 C 80.484 70.905,71.342 79.999,69.353 93.000 C 68.399 99.241,68.610 244.196,69.580 248.816 C 71.810 259.426,79.282 267.424,89.605 270.251 C 93.840 271.410,243.374 271.590,248.991 270.442 C 259.576 268.280,267.296 261.009,270.271 250.400 C 271.386 246.422,271.406 94.671,270.292 90.084 C 267.883 80.169,260.621 72.770,250.457 69.875 L 247.400 69.004 171.600 68.948 C 129.910 68.917,94.653 69.043,93.251 69.227 M248.600 72.733 C 257.514 74.713,264.551 81.445,267.069 90.400 C 268.020 93.781,268.225 242.359,267.285 247.316 C 264.985 259.459,257.052 266.359,243.953 267.609 C 235.539 268.411,94.865 267.929,91.411 267.086 C 81.596 264.689,74.965 257.869,73.014 248.164 C 72.444 245.326,72.390 237.134,72.489 168.600 L 72.600 92.200 73.696 88.969 C 77.218 78.581,85.145 73.059,97.400 72.456 C 108.469 71.911,246.034 72.163,248.600 72.733 M94.400 77.024 C 87.857 78.434,81.905 83.004,79.061 88.800 C 76.216 94.598,76.376 89.468,76.494 171.304 L 76.600 245.000 77.716 248.157 C 80.413 255.782,86.221 261.036,94.226 263.089 C 98.559 264.200,240.945 264.188,245.683 263.076 C 254.163 261.086,260.541 254.953,262.890 246.530 C 263.919 242.840,264.535 183.050,263.605 177.060 C 262.397 169.273,256.736 167.214,253.600 173.421 L 252.600 175.400 252.389 209.200 C 252.149 247.582,252.357 245.281,248.810 248.828 C 245.121 252.517,252.545 252.200,169.760 252.200 L 96.919 252.200 94.160 250.797 C 91.145 249.264,89.273 247.047,88.305 243.863 C 87.571 241.446,87.564 98.574,88.299 96.162 C 89.378 92.618,92.391 89.530,95.955 88.315 C 97.061 87.938,110.723 87.773,154.200 87.611 L 211.000 87.400 213.000 86.400 C 217.914 83.943,217.074 78.663,211.506 77.009 C 208.553 76.132,98.472 76.146,94.400 77.024 M257.050 124.050 C 253.369 125.035,252.297 129.131,254.197 134.952 L 255.194 138.006 253.953 141.703 C 250.412 152.253,253.855 162.687,259.902 159.732 C 263.865 157.795,265.085 149.519,262.453 142.423 C 260.944 138.357,260.926 137.785,262.193 134.200 C 264.371 128.041,261.716 122.802,257.050 124.050 " stroke="none" fill="#80a884" fill-rule="evenodd"></path><path id="path4" d="M94.000 65.072 C 80.157 66.496,69.517 75.551,65.883 89.000 L 65.019 92.200 64.900 168.098 C 64.770 251.552,64.694 248.649,67.180 255.076 C 70.695 264.167,78.203 270.972,87.871 273.830 C 91.659 274.950,92.543 275.004,112.400 275.343 C 122.137 275.510,124.000 275.902,124.000 277.788 C 124.000 278.582,123.564 279.092,122.100 280.014 C 120.048 281.307,116.944 284.524,116.547 285.769 C 116.412 286.192,115.983 286.881,115.594 287.299 C 114.076 288.928,116.735 292.305,119.755 292.586 C 123.004 292.888,124.476 295.658,124.988 302.435 C 126.292 319.701,134.258 330.071,149.310 334.097 L 152.600 334.977 227.000 335.104 C 301.827 335.231,306.491 335.160,311.800 333.812 C 321.922 331.241,331.251 321.910,333.810 311.800 C 335.176 306.400,335.238 302.364,335.107 227.200 L 334.977 152.600 334.097 149.310 C 330.071 134.258,319.701 126.292,302.435 124.988 C 296.029 124.504,292.889 123.014,292.649 120.345 C 292.537 119.094,292.210 118.268,291.273 116.873 C 290.511 115.738,287.907 115.213,286.621 115.937 C 284.204 117.297,281.058 120.291,279.795 122.434 C 279.241 123.373,278.644 123.840,277.886 123.927 C 275.723 124.177,275.472 122.662,275.316 108.400 C 275.240 101.470,275.012 94.442,274.809 92.783 C 273.060 78.499,262.370 67.544,248.080 65.390 C 244.500 64.850,99.074 64.550,94.000 65.072 M250.457 69.875 C 260.621 72.770,267.883 80.169,270.292 90.084 C 271.406 94.671,271.386 246.422,270.271 250.400 C 267.296 261.009,259.576 268.280,248.991 270.442 C 243.374 271.590,93.840 271.410,89.605 270.251 C 79.282 267.424,71.810 259.426,69.580 248.816 C 68.610 244.196,68.399 99.241,69.353 93.000 C 71.342 79.999,80.484 70.905,93.251 69.227 C 94.653 69.043,129.910 68.917,171.600 68.948 L 247.400 69.004 250.457 69.875 M290.885 122.729 C 293.391 127.262,295.061 128.072,303.406 128.797 C 320.424 130.277,329.861 139.618,331.231 156.341 C 332.029 166.083,331.504 305.588,330.656 309.200 C 328.118 320.009,320.009 328.118,309.200 330.656 C 305.628 331.494,166.737 332.023,156.595 331.236 C 139.669 329.924,130.286 320.529,128.797 303.406 C 128.080 295.154,127.237 293.372,122.927 290.995 C 119.462 289.084,118.433 288.159,118.689 287.183 C 118.889 286.415,122.116 283.202,122.691 283.197 C 122.861 283.196,123.307 282.656,123.681 281.997 L 124.363 280.800 182.323 280.800 C 243.695 280.800,247.920 280.693,253.805 278.987 C 266.135 275.414,275.420 266.117,279.001 253.756 C 280.671 247.996,280.795 243.022,280.793 182.108 L 280.790 124.817 283.695 121.855 C 287.830 117.638,288.089 117.669,290.885 122.729 " stroke="none" fill="#54685c" fill-rule="evenodd"></path><path id="path5" d="M285.400 123.678 C 284.960 123.927,284.468 124.327,284.306 124.566 C 284.144 124.805,284.009 151.666,284.006 184.258 C 284.002 222.358,283.852 244.962,283.584 247.568 C 281.601 266.890,266.890 281.601,247.568 283.584 C 244.959 283.852,222.381 284.000,184.187 284.000 L 124.858 284.000 123.998 285.094 C 122.720 286.718,123.705 290.000,125.470 290.000 C 128.984 290.000,131.355 294.416,132.019 302.200 C 133.200 316.029,139.616 324.411,151.200 327.259 C 155.125 328.224,306.136 328.043,309.600 327.069 C 318.240 324.640,324.415 318.530,327.055 309.800 C 328.088 306.381,328.418 158.631,327.405 152.618 C 325.323 140.259,316.783 133.307,302.100 132.021 C 294.380 131.345,290.000 128.961,290.000 125.437 C 290.000 123.882,287.038 122.749,285.400 123.678 M289.200 131.203 C 290.984 133.015,295.171 134.175,302.152 134.791 C 316.717 136.077,323.696 142.651,325.183 156.484 C 325.757 161.834,325.757 298.166,325.183 303.516 C 323.908 315.371,318.198 322.252,307.600 324.706 C 302.981 325.775,157.035 325.777,152.400 324.708 C 141.417 322.175,135.926 315.095,134.789 302.000 C 134.323 296.624,133.640 292.800,133.148 292.800 C 132.957 292.800,132.800 292.557,132.800 292.260 C 132.800 291.963,132.260 290.975,131.600 290.063 C 129.090 286.599,124.804 286.846,190.247 286.682 C 242.744 286.551,248.930 286.469,251.884 285.870 C 269.247 282.347,282.340 269.247,285.874 251.860 C 286.467 248.946,286.562 242.371,286.769 189.833 C 286.952 143.184,287.104 131.032,287.502 130.899 C 287.779 130.807,287.879 130.522,287.726 130.266 C 287.490 129.873,288.559 130.553,289.200 131.203 " stroke="none" fill="#74bcc4" fill-rule="evenodd"></path><path id="path6" d="M287.181 118.719 C 286.861 118.814,285.293 120.225,283.695 121.855 L 280.790 124.817 280.793 182.108 C 280.795 243.022,280.671 247.996,279.001 253.756 C 275.420 266.117,266.135 275.414,253.805 278.987 C 247.920 280.693,243.695 280.800,182.323 280.800 L 124.363 280.800 123.681 281.997 C 123.307 282.656,122.861 283.196,122.691 283.197 C 122.116 283.202,118.889 286.415,118.689 287.183 C 118.433 288.159,119.462 289.084,122.927 290.995 C 127.237 293.372,128.080 295.154,128.797 303.406 C 130.286 320.529,139.669 329.924,156.595 331.236 C 166.737 332.023,305.628 331.494,309.200 330.656 C 320.009 328.118,328.118 320.009,330.656 309.200 C 331.504 305.588,332.029 166.083,331.231 156.341 C 329.861 139.618,320.424 130.277,303.406 128.797 C 295.061 128.072,293.391 127.262,290.885 122.729 C 289.142 119.574,288.099 118.446,287.181 118.719 M288.946 124.029 C 289.526 124.485,290.000 125.119,290.000 125.437 C 290.000 128.961,294.380 131.345,302.100 132.021 C 316.783 133.307,325.323 140.259,327.405 152.618 C 328.418 158.631,328.088 306.381,327.055 309.800 C 324.415 318.530,318.240 324.640,309.600 327.069 C 306.136 328.043,155.125 328.224,151.200 327.259 C 139.616 324.411,133.200 316.029,132.019 302.200 C 131.355 294.416,128.984 290.000,125.470 290.000 C 123.705 290.000,122.720 286.718,123.998 285.094 L 124.858 284.000 184.187 284.000 C 222.381 284.000,244.959 283.852,247.568 283.584 C 266.890 281.601,281.601 266.890,283.584 247.568 C 283.852 244.962,284.002 222.358,284.006 184.258 C 284.009 151.666,284.144 124.805,284.306 124.566 C 285.296 123.103,287.451 122.853,288.946 124.029 " stroke="none" fill="#64a4ac" fill-rule="evenodd"></path><path id="path7" d="M97.400 72.456 C 85.145 73.059,77.218 78.581,73.696 88.969 L 72.600 92.200 72.489 168.600 C 72.390 237.134,72.444 245.326,73.014 248.164 C 74.965 257.869,81.596 264.689,91.411 267.086 C 94.865 267.929,235.539 268.411,243.953 267.609 C 257.052 266.359,264.985 259.459,267.285 247.316 C 268.225 242.359,268.020 93.781,267.069 90.400 C 264.551 81.445,257.514 74.713,248.600 72.733 C 246.034 72.163,108.469 71.911,97.400 72.456 M247.800 75.771 C 256.208 77.629,261.925 83.262,264.271 92.000 C 265.014 94.765,265.364 116.903,264.703 119.259 C 264.369 120.447,263.624 120.492,259.756 119.558 C 252.403 117.783,248.664 123.804,249.947 135.353 C 250.136 137.053,250.060 139.729,249.750 142.353 C 248.647 151.676,249.280 157.970,251.718 161.919 C 253.503 164.812,253.544 165.716,251.979 167.784 C 249.359 171.247,249.454 169.874,249.216 207.800 L 249.000 242.200 248.069 244.091 C 246.939 246.385,245.325 247.809,243.082 248.489 C 240.500 249.273,99.286 249.235,97.000 248.450 C 94.368 247.547,92.943 246.212,91.930 243.702 L 91.000 241.400 91.000 170.000 L 91.000 98.600 91.935 96.282 C 92.919 93.845,94.424 92.487,97.233 91.504 C 98.258 91.145,112.952 90.972,156.000 90.813 L 213.400 90.600 215.395 89.680 C 220.187 87.472,221.769 83.744,220.125 78.530 C 219.313 75.954,219.563 75.566,222.302 75.144 C 225.718 74.619,244.697 75.085,247.800 75.771 M211.506 77.009 C 217.074 78.663,217.914 83.943,213.000 86.400 L 211.000 87.400 154.200 87.611 C 110.723 87.773,97.061 87.938,95.955 88.315 C 92.391 89.530,89.378 92.618,88.299 96.162 C 87.564 98.574,87.571 241.446,88.305 243.863 C 89.273 247.047,91.145 249.264,94.160 250.797 L 96.919 252.200 169.760 252.200 C 252.545 252.200,245.121 252.517,248.810 248.828 C 252.357 245.281,252.149 247.582,252.389 209.200 L 252.600 175.400 253.600 173.421 C 256.736 167.214,262.397 169.273,263.605 177.060 C 264.535 183.050,263.919 242.840,262.890 246.530 C 260.541 254.953,254.163 261.086,245.683 263.076 C 240.945 264.188,98.559 264.200,94.226 263.089 C 86.221 261.036,80.413 255.782,77.716 248.157 L 76.600 245.000 76.494 171.304 C 76.376 89.468,76.216 94.598,79.061 88.800 C 81.905 83.004,87.857 78.434,94.400 77.024 C 98.472 76.146,208.553 76.132,211.506 77.009 M261.205 125.267 C 263.371 127.433,263.661 130.049,262.193 134.200 C 260.926 137.785,260.944 138.357,262.453 142.423 C 265.085 149.519,263.865 157.795,259.902 159.732 C 253.855 162.687,250.412 152.253,253.953 141.703 L 255.194 138.006 254.197 134.952 C 251.565 126.891,256.294 120.356,261.205 125.267 " stroke="none" fill="#94c49c" fill-rule="evenodd"></path><path id="path8" d="" stroke="none" fill="#a0ccb4" fill-rule="evenodd"></path></g></svg>