<svg id="svg" version="1.1" xmlns="http://www.w3.org/2000/svg" xmlns:xlink="http://www.w3.org/1999/xlink" width="400" height="400" viewBox="0, 0, 400,400"><g id="svgg"><path id="path0" d="M110.400 1.000 C 110.400 1.995,110.381 2.000,106.680 2.000 C 102.459 2.000,102.000 2.243,102.000 4.480 L 102.000 6.000 98.629 6.000 C 94.763 6.000,94.000 6.434,94.000 8.629 C 94.000 9.995,93.993 10.000,92.100 10.019 C 89.602 10.044,87.542 11.078,86.848 12.654 C 86.375 13.727,86.040 13.937,84.528 14.107 C 82.377 14.349,82.385 14.342,82.114 16.367 C 81.903 17.941,81.842 18.000,80.427 18.000 C 78.564 18.000,78.000 18.577,78.000 20.480 C 78.000 21.973,77.973 22.000,76.480 22.000 C 74.577 22.000,74.000 22.564,74.000 24.427 C 74.000 25.842,73.941 25.903,72.367 26.114 C 70.341 26.385,70.349 26.376,70.106 28.536 C 69.928 30.114,69.767 30.351,68.653 30.670 C 67.083 31.119,66.304 32.640,66.076 35.700 L 65.904 38.000 64.580 38.000 C 62.436 38.000,62.000 38.782,62.000 42.629 L 62.000 46.000 60.480 46.000 C 58.249 46.000,58.000 46.464,58.000 50.622 L 58.000 54.284 56.700 54.656 C 54.037 55.419,54.211 51.337,54.095 115.700 L 53.989 174.000 47.995 174.000 L 42.000 174.000 42.000 166.000 L 42.000 158.000 32.000 158.000 L 22.000 158.000 22.000 166.000 L 22.000 174.000 11.000 174.000 L 0.000 174.000 0.000 184.000 L 0.000 194.000 35.000 194.000 L 70.000 194.000 70.031 207.900 C 70.066 223.883,70.193 224.794,72.466 225.359 C 73.804 225.693,73.924 225.847,74.108 227.479 C 74.352 229.645,74.355 229.648,76.536 229.894 C 78.114 230.072,78.351 230.233,78.670 231.347 C 79.212 233.241,80.694 233.778,85.800 233.931 L 90.200 234.063 90.063 236.231 C 89.931 238.314,89.881 238.400,88.792 238.400 C 86.069 238.400,85.918 239.562,86.080 259.195 C 86.197 273.427,86.220 273.793,87.000 273.934 C 88.901 274.276,90.000 275.984,90.000 278.595 C 90.000 281.442,90.403 282.000,92.458 282.000 L 93.956 282.000 94.078 283.900 L 94.200 285.800 96.079 285.921 L 97.958 286.042 98.079 287.921 L 98.200 289.800 100.100 289.922 L 102.000 290.044 102.000 291.542 C 102.000 293.736,102.482 294.000,106.480 294.000 L 110.000 294.000 110.000 295.371 C 110.000 297.114,110.886 298.000,112.629 298.000 C 113.950 298.000,114.000 298.056,114.000 299.520 C 114.000 301.436,114.564 302.000,116.480 302.000 L 118.000 302.000 118.000 305.813 C 118.000 308.832,118.125 309.673,118.600 309.855 C 118.930 309.982,119.200 310.305,119.200 310.573 C 119.200 311.154,120.875 312.800,121.467 312.800 C 121.706 312.800,121.982 314.345,122.118 316.443 C 122.382 320.518,122.957 321.600,124.862 321.600 C 125.952 321.600,126.000 321.681,126.010 323.500 C 126.030 327.605,127.033 329.600,129.076 329.600 C 129.920 329.600,130.003 329.782,130.031 331.700 C 130.084 335.347,130.781 336.940,132.511 337.371 C 133.929 337.723,134.000 337.820,134.000 339.391 C 134.000 341.436,134.536 342.000,136.480 342.000 L 138.000 342.000 138.000 345.200 C 138.000 348.841,138.671 350.000,140.778 350.000 C 141.900 350.000,141.962 350.091,142.078 351.900 L 142.200 353.800 144.100 353.922 L 146.000 354.044 146.040 356.722 C 146.101 360.795,146.346 361.339,148.318 361.757 C 149.922 362.097,150.000 362.181,150.000 363.577 C 150.000 365.431,150.577 366.000,152.458 366.000 L 153.956 366.000 154.078 367.900 L 154.200 369.800 156.079 369.921 L 157.958 370.042 158.079 371.921 L 158.200 373.800 160.079 373.921 L 161.958 374.042 162.079 375.921 L 162.200 377.800 164.100 377.922 L 166.000 378.044 166.000 379.542 C 166.000 381.424,166.569 382.000,168.427 382.000 C 169.842 382.000,169.903 382.059,170.114 383.633 C 170.392 385.708,170.382 385.699,173.000 385.917 C 174.345 386.028,175.200 386.286,175.200 386.580 C 175.200 387.164,176.883 388.800,177.483 388.800 C 177.720 388.800,178.018 389.070,178.145 389.400 C 178.301 389.808,178.939 390.000,180.135 390.000 C 181.891 390.000,181.895 390.003,182.114 391.633 C 182.406 393.810,182.349 393.780,186.433 393.940 L 190.000 394.080 190.000 395.240 C 190.000 397.596,190.995 398.000,196.800 398.000 L 202.000 398.000 202.000 399.000 L 202.000 400.000 230.000 400.000 L 258.000 400.000 258.000 399.000 C 258.000 398.004,258.015 398.000,261.900 397.969 C 267.281 397.927,268.895 397.399,269.360 395.532 C 269.718 394.094,269.734 394.085,272.160 393.922 C 275.370 393.707,276.872 392.948,277.344 391.300 C 277.687 390.102,277.846 390.000,279.378 390.000 C 281.436 390.000,282.000 389.467,282.000 387.520 L 282.000 386.000 283.900 385.969 C 287.354 385.913,288.947 385.191,289.371 383.489 C 289.662 382.319,289.935 382.000,290.645 382.000 C 292.636 382.000,293.575 381.300,293.844 379.612 C 294.085 378.107,294.190 378.000,295.423 378.000 C 297.117 378.000,298.000 377.099,298.000 375.371 C 298.000 374.076,298.076 374.000,299.371 374.000 C 301.099 374.000,302.000 373.117,302.000 371.424 C 302.000 370.184,302.097 370.092,303.633 369.886 C 305.634 369.618,305.558 369.696,305.920 367.555 C 306.192 365.954,306.328 365.789,307.479 365.677 C 309.267 365.502,309.585 364.915,309.867 361.268 L 310.116 358.039 311.958 357.920 L 313.800 357.800 313.922 355.900 L 314.044 354.000 315.542 354.000 C 317.548 354.000,318.000 353.433,318.000 350.920 C 318.000 349.426,318.157 348.800,318.530 348.800 C 319.153 348.800,320.800 347.143,320.800 346.517 C 320.800 346.280,321.070 345.982,321.400 345.855 C 321.808 345.699,322.000 345.061,322.000 343.865 C 322.000 342.109,322.003 342.105,323.633 341.886 C 325.810 341.594,325.780 341.651,325.940 337.567 L 326.080 334.000 327.560 334.000 C 329.734 334.000,330.000 333.512,330.000 329.520 L 330.000 326.000 331.520 326.000 C 333.737 326.000,334.000 325.525,334.000 321.520 L 334.000 318.000 335.520 318.000 C 337.737 318.000,338.000 317.525,338.000 313.520 L 338.000 310.000 339.300 309.994 C 341.546 309.983,341.780 309.594,342.000 305.516 L 342.200 301.800 343.400 301.665 C 345.010 301.483,345.530 300.983,345.677 299.475 C 345.787 298.342,345.964 298.183,347.367 297.957 C 349.137 297.671,350.000 296.756,350.000 295.163 L 350.000 294.080 353.567 293.940 C 357.651 293.780,357.594 293.810,357.886 291.633 C 358.097 290.059,358.158 290.000,359.573 290.000 C 361.436 290.000,362.000 289.423,362.000 287.520 C 362.000 286.027,362.027 286.000,363.520 286.000 C 365.436 286.000,366.000 285.436,366.000 283.520 C 366.000 282.098,366.077 282.000,367.200 282.000 C 369.321 282.000,370.000 280.849,370.000 277.251 L 370.000 274.102 371.612 273.844 C 373.973 273.467,374.000 273.279,374.000 257.254 C 374.000 241.554,374.073 242.000,371.520 242.000 L 370.000 242.000 370.000 238.424 C 370.000 236.002,369.839 234.743,369.500 234.524 C 369.206 234.334,370.155 234.108,371.800 233.976 C 375.356 233.692,376.864 232.975,377.330 231.347 C 377.649 230.233,377.886 230.072,379.464 229.894 C 381.646 229.648,381.648 229.646,381.894 227.464 C 382.072 225.886,382.233 225.649,383.347 225.330 C 385.774 224.635,385.788 224.520,385.912 204.321 L 386.023 186.043 387.912 185.921 L 389.800 185.800 389.921 183.921 L 390.042 182.042 391.921 181.921 L 393.800 181.800 393.921 179.921 L 394.042 178.042 395.921 177.921 L 397.800 177.800 397.922 175.900 C 398.032 174.185,398.139 174.000,399.022 174.000 L 400.000 174.000 400.000 114.200 L 400.000 54.400 399.000 54.400 C 398.005 54.400,398.000 54.381,398.000 50.680 C 398.000 46.459,397.757 46.000,395.520 46.000 L 394.000 46.000 394.000 42.629 C 394.000 38.763,393.566 38.000,391.371 38.000 C 390.005 38.000,390.000 37.993,389.981 36.100 C 389.956 33.602,388.922 31.542,387.346 30.848 C 386.273 30.375,386.063 30.040,385.893 28.528 C 385.651 26.377,385.658 26.385,383.633 26.114 C 382.059 25.903,382.000 25.842,382.000 24.427 C 382.000 22.564,381.423 22.000,379.520 22.000 C 378.027 22.000,378.000 21.973,378.000 20.480 C 378.000 18.577,377.436 18.000,375.573 18.000 C 374.158 18.000,374.097 17.941,373.886 16.367 C 373.615 14.342,373.623 14.349,371.472 14.107 C 369.960 13.937,369.625 13.727,369.152 12.654 C 368.458 11.078,366.398 10.044,363.900 10.019 C 362.007 10.000,362.000 9.995,362.000 8.629 C 362.000 6.434,361.237 6.000,357.371 6.000 L 354.000 6.000 354.000 4.480 C 354.000 2.243,353.541 2.000,349.320 2.000 C 345.619 2.000,345.600 1.995,345.600 1.000 L 345.600 0.000 228.000 0.000 L 110.400 0.000 110.400 1.000 M314.571 19.386 C 314.880 21.031,315.074 21.177,317.520 21.589 C 318.554 21.763,278.270 21.906,228.000 21.906 C 177.730 21.906,137.446 21.763,138.480 21.589 C 140.926 21.177,141.120 21.031,141.429 19.386 L 141.689 18.000 228.000 18.000 L 314.311 18.000 314.571 19.386 M306.400 43.351 C 306.400 45.715,306.699 45.785,317.461 45.941 C 324.098 46.037,327.200 46.220,327.200 46.515 C 327.200 47.121,328.837 48.800,329.427 48.800 C 329.695 48.800,330.018 49.070,330.145 49.400 C 330.318 49.852,331.048 50.000,333.113 50.000 C 336.035 50.000,337.711 51.016,338.065 53.000 C 338.180 53.646,338.573 53.824,340.104 53.922 L 342.000 54.044 342.000 55.542 C 342.000 57.436,342.569 58.000,344.480 58.000 C 345.973 58.000,346.000 58.027,346.000 59.520 C 346.000 61.431,346.564 62.000,348.458 62.000 L 349.956 62.000 350.078 63.900 L 350.200 65.800 352.100 65.922 L 354.000 66.044 354.000 69.393 C 354.000 73.229,354.437 74.000,356.614 74.000 L 357.971 74.000 358.086 77.900 C 358.192 81.522,358.260 81.809,359.045 81.921 C 361.490 82.270,361.970 83.670,362.090 90.800 C 362.197 97.201,362.224 97.390,363.115 97.833 C 365.389 98.966,365.961 99.951,366.084 102.950 C 366.185 105.429,366.302 105.810,367.000 105.935 C 368.100 106.132,369.933 107.929,370.079 108.955 C 370.180 109.657,370.518 109.821,372.079 109.921 L 373.958 110.042 374.079 111.921 L 374.200 113.800 378.100 113.914 L 382.000 114.029 381.954 127.114 C 381.928 134.312,381.823 139.875,381.720 139.477 C 381.515 138.688,380.076 138.000,378.632 138.000 C 377.941 138.000,377.624 137.680,377.344 136.700 C 376.681 134.386,375.823 134.214,364.300 134.081 L 354.000 133.962 354.000 130.169 C 354.000 127.165,353.875 126.327,353.400 126.145 C 353.070 126.018,352.800 125.720,352.800 125.483 C 352.800 124.857,351.153 123.200,350.530 123.200 C 350.153 123.200,349.995 122.535,349.983 120.900 C 349.945 115.951,349.265 114.418,347.100 114.406 C 346.047 114.400,346.000 114.315,346.000 112.387 C 346.000 110.968,345.823 110.307,345.400 110.145 C 345.070 110.018,344.800 109.720,344.800 109.483 C 344.800 108.857,343.153 107.200,342.530 107.200 C 342.157 107.200,342.000 106.574,342.000 105.080 C 342.000 102.567,341.548 102.000,339.542 102.000 L 338.044 102.000 337.922 100.100 L 337.800 98.200 335.900 98.078 L 334.000 97.956 333.990 96.278 C 333.968 92.410,332.926 90.400,330.942 90.400 C 330.210 90.400,329.984 90.112,329.766 88.900 C 329.405 86.894,329.066 86.545,327.192 86.245 C 325.758 86.016,325.600 85.875,325.600 84.824 C 325.600 83.370,324.672 82.402,323.271 82.394 C 321.934 82.386,321.508 82.084,320.908 80.717 C 320.322 79.382,317.595 78.000,315.547 78.000 L 314.044 78.000 313.922 76.100 L 313.800 74.200 311.919 74.079 C 310.058 73.959,310.035 73.941,309.707 72.281 C 309.327 70.358,308.792 70.129,304.500 70.047 L 302.000 70.000 302.000 68.629 C 302.000 66.441,301.232 66.000,297.424 66.000 L 294.105 66.000 293.886 64.367 C 293.590 62.160,293.721 62.217,288.668 62.068 C 283.938 61.928,282.000 61.085,282.000 59.168 C 282.000 58.140,281.209 58.000,275.391 58.000 L 270.047 58.000 269.711 56.302 C 269.248 53.961,271.768 54.101,229.129 54.047 C 187.111 53.995,190.000 53.804,190.000 56.629 L 190.000 58.000 183.500 58.047 C 174.921 58.110,174.712 58.161,174.289 60.302 L 173.953 62.000 170.164 62.000 C 167.165 62.000,166.327 62.125,166.145 62.600 C 166.018 62.930,165.720 63.200,165.483 63.200 C 164.880 63.200,163.200 64.837,163.200 65.425 C 163.200 65.741,162.260 65.966,160.500 66.073 C 157.175 66.273,155.571 67.012,154.836 68.681 C 154.320 69.852,154.096 69.973,152.236 70.081 L 150.200 70.200 150.078 72.100 L 149.956 74.000 147.204 74.000 C 143.326 74.000,142.473 74.403,142.156 76.388 C 141.909 77.931,141.835 78.000,140.429 78.000 C 138.569 78.000,138.000 78.576,138.000 80.458 L 138.000 81.956 136.100 82.078 L 134.200 82.200 134.079 84.079 L 133.958 85.958 132.079 86.079 L 130.200 86.200 130.079 88.079 L 129.958 89.958 128.079 90.079 L 126.200 90.200 126.079 92.079 L 125.958 93.958 124.079 94.079 L 122.200 94.200 122.078 96.100 L 121.956 98.000 120.458 98.000 C 118.522 98.000,118.000 98.569,118.000 100.680 C 118.000 102.210,117.898 102.400,117.076 102.400 C 115.069 102.400,114.031 104.397,114.010 108.300 C 114.000 109.968,113.974 110.000,112.629 110.000 C 110.434 110.000,110.000 110.763,110.000 114.629 L 110.000 118.000 108.480 118.000 C 106.263 118.000,106.000 118.475,106.000 122.480 L 106.000 126.000 104.629 126.000 C 102.434 126.000,102.000 126.763,102.000 130.629 L 102.000 134.000 92.100 134.031 C 80.367 134.067,79.183 134.285,78.629 136.511 C 78.322 137.746,78.083 138.001,77.229 138.005 C 75.558 138.014,74.455 138.437,74.268 139.141 C 74.172 139.503,74.072 134.002,74.046 126.914 L 74.000 114.029 77.900 113.914 L 81.800 113.800 81.921 111.921 L 82.042 110.042 83.917 109.921 C 85.427 109.824,85.821 109.644,85.935 109.000 C 86.131 107.900,87.929 106.067,88.955 105.921 C 89.740 105.809,89.808 105.522,89.914 101.900 L 90.029 98.000 91.534 98.000 C 93.918 98.000,94.000 97.755,94.000 90.595 L 94.000 84.150 95.122 83.075 C 95.739 82.484,96.530 82.000,96.879 82.000 C 97.795 82.000,98.000 81.155,98.000 77.367 L 98.000 74.000 99.371 74.000 C 101.563 74.000,102.000 73.235,102.000 69.393 L 102.000 66.044 103.900 65.922 L 105.800 65.800 105.922 63.900 L 106.044 62.000 107.542 62.000 C 109.436 62.000,110.000 61.431,110.000 59.520 C 110.000 58.027,110.027 58.000,111.520 58.000 C 113.431 58.000,114.000 57.436,114.000 55.542 L 114.000 54.044 115.896 53.922 C 117.427 53.824,117.820 53.646,117.935 53.000 C 118.289 51.016,119.965 50.000,122.887 50.000 C 124.952 50.000,125.682 49.852,125.855 49.400 C 125.982 49.070,126.280 48.800,126.517 48.800 C 127.122 48.800,128.800 47.162,128.800 46.571 C 128.800 46.203,131.205 46.047,138.539 45.941 C 149.301 45.785,149.600 45.715,149.600 43.351 L 149.600 42.000 228.000 42.000 L 306.400 42.000 306.400 43.351 M230.577 75.418 C 231.005 77.701,231.368 77.754,247.637 77.915 L 262.274 78.060 262.637 79.530 C 263.123 81.499,264.812 81.926,272.300 81.968 L 278.000 82.000 278.000 83.520 C 278.000 85.737,278.475 86.000,282.480 86.000 L 286.000 86.000 286.000 87.520 C 286.000 89.735,286.476 90.000,290.458 90.000 L 293.956 90.000 294.078 91.900 L 294.200 93.800 296.052 93.920 C 297.875 94.038,297.908 94.065,298.159 95.632 C 298.432 97.342,299.371 98.000,301.538 98.000 C 302.383 98.000,302.727 98.273,303.087 99.225 C 303.380 100.002,303.998 100.620,304.775 100.913 C 305.449 101.167,306.000 101.516,306.000 101.688 C 306.000 101.859,306.416 102.000,306.925 102.000 C 308.081 102.000,310.000 103.949,310.000 105.122 C 310.000 105.636,310.249 106.000,310.600 106.000 C 310.930 106.000,311.200 106.213,311.200 106.474 C 311.200 107.104,312.814 108.800,313.413 108.800 C 313.674 108.800,314.048 109.727,314.244 110.859 C 314.609 112.969,314.983 113.380,316.900 113.784 C 317.865 113.987,318.000 114.201,318.000 115.528 C 318.000 117.436,318.566 118.000,320.480 118.000 L 322.000 118.000 322.047 120.500 C 322.129 124.802,322.355 125.326,324.302 125.711 L 326.000 126.047 326.000 128.797 C 326.000 132.667,326.405 133.527,328.374 133.842 L 329.972 134.098 330.086 137.944 C 330.189 141.430,330.275 141.804,331.000 141.934 C 331.440 142.013,332.295 142.544,332.900 143.114 L 334.000 144.150 334.000 165.703 C 334.000 185.298,333.943 187.200,333.371 186.629 C 333.026 186.283,332.126 186.000,331.371 186.000 L 330.000 186.000 330.000 182.480 C 330.000 178.488,329.734 178.000,327.560 178.000 L 326.080 178.000 325.940 174.433 C 325.780 170.349,325.810 170.406,323.633 170.114 C 322.059 169.903,322.000 169.842,322.000 168.427 C 322.000 166.564,321.423 166.000,319.520 166.000 C 318.027 166.000,318.000 165.973,318.000 164.480 C 318.000 162.577,317.436 162.000,315.573 162.000 C 314.158 162.000,314.097 161.941,313.886 160.367 C 313.594 158.191,313.649 158.220,309.587 158.061 L 306.041 157.922 305.920 156.061 L 305.800 154.200 301.900 154.086 L 298.000 153.971 298.000 152.466 C 298.000 150.115,297.691 150.000,291.365 150.000 L 285.689 150.000 285.423 148.582 C 284.974 146.187,285.297 146.220,260.400 146.000 L 237.800 145.800 237.677 144.530 C 237.449 142.179,237.667 142.211,221.003 142.075 L 205.729 141.949 205.364 140.475 C 204.909 138.631,203.193 138.080,197.753 138.032 L 194.105 138.000 193.886 136.367 C 193.603 134.257,193.614 134.264,190.617 134.073 C 187.909 133.901,186.262 132.822,185.934 131.005 C 185.855 130.567,185.433 130.145,184.995 130.066 C 183.178 129.738,182.099 128.091,181.927 125.383 C 181.736 122.389,181.741 122.396,179.653 122.116 C 178.054 121.902,178.039 121.883,177.920 120.050 L 177.800 118.200 168.000 118.200 L 158.200 118.200 158.087 122.246 L 157.973 126.292 156.687 126.660 C 154.384 127.320,154.236 128.112,154.069 140.668 C 153.903 153.117,153.986 152.739,151.115 154.166 C 150.279 154.582,150.190 154.929,150.083 158.197 C 149.962 161.896,149.738 162.382,148.149 162.394 C 146.793 162.404,146.371 163.316,146.076 166.870 L 145.800 170.200 144.530 170.323 C 142.731 170.497,142.415 171.081,142.132 174.752 C 141.882 177.998,141.881 178.000,140.741 178.000 C 138.672 178.000,138.000 179.176,138.000 182.800 L 138.000 186.000 136.629 186.000 C 134.434 186.000,134.000 186.763,134.000 190.629 L 134.000 194.000 132.629 194.000 C 130.233 194.000,130.000 194.588,130.000 200.629 L 130.000 206.000 128.480 206.000 C 126.123 206.000,126.000 206.320,126.000 212.429 L 126.000 217.898 124.384 218.156 C 123.228 218.341,122.667 218.668,122.410 219.307 C 122.194 219.845,122.041 205.357,122.025 182.900 L 122.000 145.600 123.351 145.600 C 125.420 145.600,125.670 144.973,125.904 139.203 L 126.115 134.000 127.577 134.000 C 129.733 134.000,130.000 133.506,130.000 129.520 L 130.000 126.000 131.520 126.000 C 133.500 126.000,134.000 125.437,134.000 123.208 C 134.000 121.550,134.111 121.333,135.168 120.935 C 136.596 120.395,138.000 117.714,138.000 115.525 C 138.000 114.026,138.026 114.000,139.520 114.000 C 141.436 114.000,142.000 113.436,142.000 111.520 C 142.000 110.056,142.050 110.000,143.371 110.000 C 145.099 110.000,146.000 109.117,146.000 107.424 C 146.000 106.184,146.097 106.092,147.633 105.886 C 149.637 105.617,149.617 105.637,149.886 103.633 C 150.092 102.097,150.184 102.000,151.424 102.000 C 153.110 102.000,154.000 101.100,154.000 99.393 C 154.000 98.067,154.033 98.042,155.900 97.922 L 157.800 97.800 157.922 95.900 L 158.044 94.000 160.522 93.953 C 164.801 93.871,165.327 93.643,165.711 91.698 L 166.047 90.000 167.924 89.969 C 171.355 89.913,172.948 89.188,173.371 87.489 L 173.741 86.000 176.645 86.000 C 180.679 86.000,181.525 85.612,181.844 83.612 L 182.102 82.000 187.423 82.000 C 193.397 82.000,194.000 81.761,194.000 79.393 L 194.000 78.043 209.700 77.921 C 227.201 77.786,227.988 77.675,228.920 75.207 C 229.530 73.590,230.251 73.682,230.577 75.418 M102.000 184.000 L 102.000 214.000 100.053 214.000 L 98.105 214.000 97.886 212.367 C 97.618 210.367,97.632 210.382,95.679 210.120 C 94.180 209.919,94.081 209.820,93.880 208.321 C 93.618 206.368,93.633 206.382,91.633 206.114 L 90.000 205.895 90.000 184.000 L 90.000 162.105 91.633 161.886 C 93.633 161.618,93.618 161.632,93.880 159.679 C 94.081 158.180,94.180 158.081,95.679 157.880 C 97.632 157.618,97.618 157.633,97.886 155.633 L 98.105 154.000 100.053 154.000 L 102.000 154.000 102.000 184.000 M178.000 155.520 C 178.000 157.737,178.475 158.000,182.480 158.000 L 186.000 158.000 186.000 159.520 C 186.000 161.879,186.316 162.000,192.480 162.000 L 198.000 162.000 198.000 163.371 C 198.000 166.093,197.334 166.000,216.771 166.000 L 234.284 166.000 234.656 167.300 C 235.373 169.804,235.224 169.787,257.653 169.923 L 277.905 170.046 278.159 171.636 C 278.496 173.742,279.268 174.000,285.226 174.000 L 290.000 174.000 290.000 175.520 C 290.000 177.598,290.552 178.000,293.405 178.000 C 296.017 178.000,297.726 179.101,298.065 181.000 C 298.179 181.644,298.573 181.824,300.083 181.921 L 301.958 182.042 302.079 183.921 L 302.200 185.800 304.061 185.920 L 305.922 186.041 306.061 189.587 C 306.220 193.649,306.191 193.594,308.367 193.886 L 310.000 194.105 310.000 197.573 C 310.000 201.509,310.271 202.000,312.442 202.000 L 313.923 202.000 314.067 216.100 C 314.226 231.656,314.296 232.114,316.687 233.166 L 317.973 233.733 318.087 237.766 L 318.200 241.800 326.987 241.908 L 335.773 242.016 336.887 243.083 C 337.499 243.670,338.000 244.380,338.000 244.661 C 338.000 245.581,339.494 246.000,342.774 246.000 L 346.000 246.000 346.000 247.371 C 346.000 249.114,346.886 250.000,348.629 250.000 L 350.000 250.000 350.000 256.128 L 350.000 262.256 348.700 262.828 C 347.131 263.518,346.314 265.094,346.079 267.880 L 345.904 269.960 344.052 270.080 L 342.200 270.200 342.079 272.070 L 341.959 273.940 336.411 274.070 C 330.199 274.216,330.413 274.138,330.116 276.347 C 329.902 277.946,329.883 277.961,328.050 278.080 L 326.200 278.200 326.078 280.100 C 325.962 281.909,325.900 282.000,324.778 282.000 C 322.646 282.000,322.000 283.148,322.000 286.942 L 322.000 290.284 320.700 290.656 C 318.801 291.200,318.258 292.654,318.071 297.700 L 317.912 302.000 316.436 302.000 C 314.266 302.000,314.000 302.489,314.000 306.480 L 314.000 310.000 312.480 310.000 C 310.263 310.000,310.000 310.475,310.000 314.480 L 310.000 318.000 308.480 318.000 C 306.536 318.000,306.000 318.564,306.000 320.608 C 306.000 322.083,305.864 322.316,304.700 322.828 C 303.128 323.520,302.314 325.094,302.078 327.900 C 301.903 329.974,301.885 330.000,300.579 330.000 C 298.439 330.000,298.000 330.784,298.000 334.607 L 298.000 337.956 296.100 338.078 L 294.200 338.200 294.078 340.100 C 293.958 341.967,293.933 342.000,292.607 342.000 C 290.891 342.000,290.000 342.891,290.000 344.605 C 290.000 345.871,289.897 345.973,288.302 346.289 C 286.672 346.611,286.590 346.699,286.269 348.454 C 285.990 349.981,285.725 350.376,284.667 350.842 C 283.835 351.208,283.148 351.958,282.665 353.026 C 282.173 354.112,281.535 354.800,280.740 355.100 C 279.997 355.381,279.376 356.011,279.086 356.776 C 278.718 357.752,278.252 358.108,276.812 358.513 C 275.219 358.962,274.957 359.197,274.643 360.455 C 274.319 361.758,274.121 361.919,272.443 362.244 C 270.682 362.584,270.584 362.675,270.243 364.300 C 269.902 365.925,269.822 366.000,268.423 366.000 C 266.564 366.000,266.000 366.578,266.000 368.480 L 266.000 370.000 263.226 370.000 C 259.325 370.000,258.473 370.401,258.156 372.388 L 257.898 374.000 254.577 374.000 C 250.779 374.000,250.000 374.442,250.000 376.597 L 250.000 377.937 240.385 378.068 C 232.564 378.175,230.704 378.307,230.415 378.774 C 230.107 379.273,229.970 379.273,229.370 378.774 C 228.829 378.325,226.629 378.157,219.239 378.000 L 209.800 377.800 209.677 376.530 C 209.497 374.671,208.854 374.363,204.622 374.110 C 202.392 373.977,200.800 373.709,200.800 373.467 C 200.800 372.875,199.154 371.200,198.573 371.200 C 198.305 371.200,197.982 370.930,197.855 370.600 C 197.699 370.192,197.061 370.000,195.865 370.000 C 194.109 370.000,194.105 369.997,193.886 368.367 C 193.608 366.292,193.618 366.301,191.000 366.083 C 189.790 365.983,188.800 365.710,188.800 365.476 C 188.800 364.877,187.159 363.200,186.573 363.200 C 186.305 363.200,185.982 362.930,185.855 362.600 C 185.698 362.190,185.057 362.000,183.834 362.000 L 182.044 362.000 181.922 360.100 L 181.800 358.200 179.921 358.079 L 178.042 357.958 177.921 356.079 L 177.800 354.200 175.921 354.079 L 174.042 353.958 173.921 352.083 C 173.824 350.573,173.644 350.179,173.000 350.065 C 171.363 349.773,170.060 348.021,169.773 345.726 C 169.461 343.225,168.816 342.400,167.171 342.400 C 166.058 342.400,166.000 342.315,166.000 340.680 C 166.000 338.575,165.478 338.000,163.568 338.000 L 162.096 338.000 161.924 335.700 C 161.693 332.607,160.920 331.120,159.300 330.656 C 158.102 330.313,158.000 330.154,158.000 328.622 C 158.000 326.564,157.467 326.000,155.520 326.000 L 154.000 326.000 154.000 323.226 C 154.000 319.325,153.599 318.473,151.612 318.156 L 150.000 317.898 150.000 315.175 C 150.000 311.326,149.594 310.472,147.612 310.156 L 146.000 309.898 146.000 307.175 C 146.000 303.326,145.594 302.472,143.612 302.156 L 142.000 301.898 142.000 298.577 C 142.000 294.767,141.559 294.000,139.371 294.000 L 138.000 294.000 138.000 290.187 C 138.000 287.168,137.875 286.327,137.400 286.145 C 137.070 286.018,136.800 285.720,136.800 285.483 C 136.800 284.867,135.157 283.200,134.549 283.200 C 134.202 283.200,134.000 282.400,133.919 280.700 L 133.800 278.200 131.948 278.080 C 130.125 277.962,130.092 277.935,129.841 276.368 C 129.504 274.258,128.734 274.000,122.774 274.000 L 118.000 274.000 118.000 272.629 C 118.000 270.886,117.114 270.000,115.371 270.000 C 114.076 270.000,114.000 269.924,114.000 268.629 C 114.000 266.886,113.114 266.000,111.371 266.000 L 110.000 266.000 110.000 258.000 L 110.000 250.000 111.200 250.000 C 112.722 250.000,114.000 248.742,114.000 247.245 L 114.000 246.091 118.100 245.928 C 122.823 245.741,124.347 245.175,125.172 243.300 L 125.744 242.000 131.685 242.000 C 136.596 242.000,137.665 241.896,137.855 241.400 C 137.982 241.070,138.280 240.800,138.517 240.800 C 139.143 240.800,140.800 239.153,140.800 238.530 C 140.800 238.162,141.401 238.000,142.771 238.000 C 145.648 238.000,146.000 237.480,146.000 233.229 L 146.000 229.716 147.300 229.344 C 149.439 228.731,149.749 227.554,149.923 219.400 C 150.089 211.589,150.511 210.269,152.955 209.921 C 153.709 209.813,153.813 209.499,153.921 207.000 C 154.051 203.974,155.121 202.182,156.955 201.921 C 157.670 201.819,157.818 201.486,157.919 199.752 C 158.031 197.830,158.116 197.682,159.319 197.338 C 160.919 196.880,161.694 195.380,161.925 192.295 C 162.082 190.188,162.187 189.972,163.148 189.772 C 165.518 189.278,165.867 188.580,165.953 184.171 L 166.000 181.741 167.489 181.371 C 169.402 180.894,169.926 179.321,169.969 173.924 L 170.000 170.047 171.698 169.711 C 173.839 169.288,173.890 169.079,173.953 160.500 L 174.000 154.000 176.000 154.000 L 178.000 154.000 178.000 155.520 M358.114 155.633 C 358.234 156.531,358.423 157.356,358.533 157.467 C 358.644 157.577,359.469 157.766,360.367 157.886 C 361.903 158.092,362.000 158.184,362.000 159.424 C 362.000 161.117,362.901 162.000,364.629 162.000 L 366.000 162.000 366.000 184.000 L 366.000 206.000 364.629 206.000 C 362.886 206.000,362.000 206.886,362.000 208.629 C 362.000 209.924,361.924 210.000,360.629 210.000 C 358.886 210.000,358.000 210.886,358.000 212.629 L 358.000 214.000 356.000 214.000 L 354.000 214.000 354.000 184.000 L 354.000 154.000 355.947 154.000 L 357.895 154.000 358.114 155.633 M22.000 222.000 L 22.000 246.000 18.629 246.000 C 14.763 246.000,14.000 246.434,14.000 248.629 C 14.000 249.995,13.993 250.000,12.100 250.019 C 9.554 250.045,7.561 251.076,6.754 252.783 C 6.311 253.723,5.674 254.304,4.752 254.612 C 3.074 255.172,2.305 256.634,2.076 259.700 C 1.918 261.808,1.824 262.000,0.952 262.000 L 0.000 262.000 0.000 280.000 L 0.000 298.000 0.952 298.000 C 1.824 298.000,1.918 298.192,2.076 300.300 C 2.306 303.380,3.072 304.828,4.773 305.395 C 5.804 305.739,6.261 306.196,6.605 307.227 C 7.172 308.928,8.620 309.694,11.700 309.924 L 14.000 310.096 14.000 311.568 C 14.000 314.088,13.350 314.000,32.000 314.000 C 50.650 314.000,50.000 314.088,50.000 311.568 L 50.000 310.096 52.300 309.924 C 55.380 309.694,56.828 308.928,57.395 307.227 C 57.739 306.196,58.196 305.739,59.227 305.395 C 60.928 304.828,61.694 303.380,61.924 300.300 L 62.096 298.000 63.568 298.000 C 66.088 298.000,66.000 298.650,66.000 280.000 C 66.000 261.350,66.088 262.000,63.568 262.000 L 62.096 262.000 61.924 259.700 C 61.695 256.634,60.926 255.172,59.248 254.612 C 58.326 254.304,57.689 253.723,57.246 252.783 C 56.439 251.076,54.446 250.045,51.900 250.019 C 50.007 250.000,50.000 249.995,50.000 248.629 C 50.000 246.434,49.237 246.000,45.371 246.000 L 42.000 246.000 42.000 222.000 L 42.000 198.000 32.000 198.000 L 22.000 198.000 22.000 222.000 M163.307 214.410 C 162.671 214.666,162.341 215.227,162.159 216.364 C 161.908 217.936,161.876 217.962,160.052 218.080 L 158.200 218.200 158.079 220.079 L 157.958 221.958 156.079 222.079 L 154.200 222.200 154.080 224.052 C 153.962 225.875,153.935 225.908,152.368 226.159 C 150.016 226.535,150.000 226.655,150.000 244.000 C 150.000 261.345,150.016 261.465,152.368 261.841 C 153.935 262.092,153.962 262.125,154.080 263.948 L 154.200 265.800 156.079 265.921 L 157.958 266.042 158.079 267.921 L 158.200 269.800 160.052 269.920 C 161.875 270.038,161.908 270.065,162.159 271.632 C 162.535 273.984,162.655 274.000,180.000 274.000 C 197.345 274.000,197.465 273.984,197.841 271.632 C 198.092 270.065,198.125 270.038,199.948 269.920 L 201.800 269.800 201.921 267.921 L 202.042 266.042 203.921 265.921 L 205.800 265.800 205.920 263.948 C 206.038 262.125,206.065 262.092,207.632 261.841 C 209.984 261.465,210.000 261.345,210.000 244.000 C 210.000 226.655,209.984 226.535,207.632 226.159 C 206.065 225.908,206.038 225.875,205.920 224.052 L 205.800 222.200 203.921 222.079 L 202.042 221.958 201.921 220.079 L 201.800 218.200 199.948 218.080 C 198.125 217.962,198.092 217.935,197.841 216.368 C 197.647 215.151,197.346 214.684,196.567 214.388 C 195.274 213.896,164.533 213.917,163.307 214.410 M259.307 214.410 C 258.671 214.666,258.341 215.227,258.159 216.364 C 257.908 217.936,257.876 217.962,256.052 218.080 L 254.200 218.200 254.079 220.079 L 253.958 221.958 252.079 222.079 L 250.200 222.200 250.080 224.052 C 249.962 225.875,249.935 225.908,248.368 226.159 C 246.016 226.535,246.000 226.655,246.000 244.000 C 246.000 261.345,246.016 261.465,248.368 261.841 C 249.935 262.092,249.962 262.125,250.080 263.948 L 250.200 265.800 252.079 265.921 L 253.958 266.042 254.079 267.921 L 254.200 269.800 256.052 269.920 C 257.875 270.038,257.908 270.065,258.159 271.632 C 258.535 273.984,258.655 274.000,276.000 274.000 C 293.345 274.000,293.465 273.984,293.841 271.632 C 294.092 270.065,294.125 270.038,295.948 269.920 L 297.800 269.800 297.921 267.921 L 298.042 266.042 299.921 265.921 L 301.800 265.800 301.920 263.948 C 302.038 262.125,302.065 262.092,303.632 261.841 C 305.984 261.465,306.000 261.345,306.000 244.000 C 306.000 226.655,305.984 226.535,303.632 226.159 C 302.065 225.908,302.038 225.875,301.920 224.052 L 301.800 222.200 299.921 222.079 L 298.042 221.958 297.921 220.079 L 297.800 218.200 295.948 218.080 C 294.125 217.962,294.092 217.935,293.841 216.368 C 293.647 215.151,293.346 214.684,292.567 214.388 C 291.274 213.896,260.533 213.917,259.307 214.410 M186.000 244.000 L 186.000 250.000 180.000 250.000 L 174.000 250.000 174.000 244.000 L 174.000 238.000 180.000 238.000 L 186.000 238.000 186.000 244.000 M282.000 244.000 L 282.000 250.000 276.000 250.000 L 270.000 250.000 270.000 244.000 L 270.000 238.000 276.000 238.000 L 282.000 238.000 282.000 244.000 M38.245 271.699 C 38.580 273.287,38.713 273.420,40.301 273.755 L 42.000 274.114 42.000 280.033 L 42.000 285.953 40.311 286.287 C 38.723 286.601,38.601 286.723,38.287 288.311 L 37.953 290.000 32.000 290.000 L 26.047 290.000 25.713 288.311 C 25.399 286.723,25.277 286.601,23.689 286.287 L 22.000 285.953 22.000 280.033 L 22.000 274.114 23.699 273.755 C 25.287 273.420,25.420 273.287,25.755 271.699 L 26.114 270.000 32.000 270.000 L 37.886 270.000 38.245 271.699 " stroke="none" fill="#040404" fill-rule="evenodd"></path><path id="path1" d="" stroke="none" fill="#080404" fill-rule="evenodd"></path><path id="path2" d="" stroke="none" fill="#080404" fill-rule="evenodd"></path><path id="path3" d="" stroke="none" fill="#080404" fill-rule="evenodd"></path><path id="path4" d="" stroke="none" fill="#080404" fill-rule="evenodd"></path></g></svg>