<svg id="svg" version="1.1" xmlns="http://www.w3.org/2000/svg" xmlns:xlink="http://www.w3.org/1999/xlink" width="400" height="400" viewBox="0, 0, 400,400"><g id="svgg"><path id="path0" d="M83.471 39.462 C 83.322 39.611,83.200 40.063,83.200 40.467 C 83.200 41.113,82.842 41.200,80.200 41.200 C 77.267 41.200,77.200 41.222,77.200 42.200 C 77.200 43.133,77.067 43.200,75.200 43.200 C 73.333 43.200,73.200 43.267,73.200 44.200 C 73.200 45.133,73.067 45.200,71.200 45.200 C 69.333 45.200,69.200 45.267,69.200 46.200 C 69.200 47.133,69.067 47.200,67.200 47.200 C 65.333 47.200,65.200 47.267,65.200 48.200 C 65.200 49.000,65.000 49.200,64.200 49.200 C 63.406 49.200,63.200 49.402,63.200 50.177 C 63.200 51.040,63.002 51.168,61.500 51.277 C 60.198 51.371,59.709 51.607,59.412 52.284 C 59.199 52.770,58.659 53.220,58.212 53.284 C 57.721 53.354,57.349 53.756,57.272 54.300 C 57.180 54.951,56.876 55.200,56.172 55.200 C 55.409 55.200,55.200 55.409,55.200 56.172 C 55.200 56.876,54.951 57.180,54.300 57.272 C 53.756 57.349,53.354 57.721,53.284 58.212 C 53.220 58.659,52.770 59.199,52.284 59.412 C 51.607 59.709,51.371 60.198,51.277 61.500 C 51.168 63.002,51.040 63.200,50.177 63.200 C 49.402 63.200,49.200 63.406,49.200 64.200 C 49.200 65.000,49.000 65.200,48.200 65.200 C 47.267 65.200,47.200 65.333,47.200 67.200 C 47.200 69.067,47.133 69.200,46.200 69.200 C 45.267 69.200,45.200 69.333,45.200 71.200 C 45.200 73.067,45.133 73.200,44.200 73.200 C 43.267 73.200,43.200 73.333,43.200 75.200 C 43.200 77.067,43.133 77.200,42.200 77.200 C 41.223 77.200,41.200 77.269,41.200 80.172 C 41.200 82.950,41.141 83.153,40.300 83.272 L 39.400 83.400 39.400 100.000 L 39.400 116.600 40.300 116.728 C 41.141 116.847,41.200 117.050,41.200 119.828 C 41.200 122.731,41.223 122.800,42.200 122.800 C 43.133 122.800,43.200 122.933,43.200 124.800 C 43.200 126.667,43.267 126.800,44.200 126.800 C 45.133 126.800,45.200 126.933,45.200 128.800 C 45.200 130.667,45.267 130.800,46.200 130.800 C 47.133 130.800,47.200 130.933,47.200 132.800 C 47.200 134.667,47.267 134.800,48.200 134.800 C 49.000 134.800,49.200 135.000,49.200 135.800 C 49.200 136.594,49.402 136.800,50.177 136.800 C 51.040 136.800,51.168 136.998,51.277 138.500 C 51.371 139.802,51.607 140.291,52.284 140.588 C 52.770 140.801,53.220 141.341,53.284 141.788 C 53.354 142.279,53.756 142.651,54.300 142.728 C 54.951 142.820,55.200 143.124,55.200 143.828 C 55.200 144.591,55.409 144.800,56.172 144.800 C 56.876 144.800,57.180 145.049,57.272 145.700 C 57.349 146.244,57.721 146.646,58.212 146.716 C 58.659 146.780,59.199 147.230,59.412 147.716 C 59.709 148.393,60.198 148.629,61.500 148.723 C 63.002 148.832,63.200 148.960,63.200 149.823 C 63.200 150.598,63.406 150.800,64.200 150.800 C 65.000 150.800,65.200 151.000,65.200 151.800 C 65.200 152.733,65.333 152.800,67.200 152.800 C 69.067 152.800,69.200 152.867,69.200 153.800 C 69.200 154.733,69.333 154.800,71.200 154.800 C 73.067 154.800,73.200 154.867,73.200 155.800 C 73.200 156.733,73.333 156.800,75.200 156.800 C 77.067 156.800,77.200 156.867,77.200 157.800 C 77.200 158.777,77.269 158.800,80.172 158.800 C 82.950 158.800,83.153 158.859,83.272 159.700 L 83.400 160.600 100.000 160.600 L 116.600 160.600 116.728 159.700 C 116.847 158.859,117.050 158.800,119.828 158.800 C 122.731 158.800,122.800 158.777,122.800 157.800 C 122.800 156.867,122.933 156.800,124.800 156.800 C 126.667 156.800,126.800 156.733,126.800 155.800 C 126.800 154.867,126.933 154.800,128.800 154.800 C 130.667 154.800,130.800 154.733,130.800 153.800 C 130.800 152.867,130.933 152.800,132.800 152.800 C 134.667 152.800,134.800 152.733,134.800 151.800 C 134.800 151.000,135.000 150.800,135.800 150.800 C 136.600 150.800,136.800 150.600,136.800 149.800 C 136.800 148.928,136.975 148.800,138.171 148.800 C 139.454 148.800,140.800 147.980,140.800 147.199 C 140.800 147.010,141.205 146.798,141.700 146.728 C 142.278 146.646,142.646 146.278,142.728 145.700 C 142.820 145.049,143.124 144.800,143.828 144.800 C 144.591 144.800,144.800 144.591,144.800 143.828 C 144.800 143.124,145.049 142.820,145.700 142.728 C 146.278 142.646,146.646 142.278,146.728 141.700 C 146.798 141.205,147.010 140.800,147.199 140.800 C 147.980 140.800,148.800 139.454,148.800 138.171 C 148.800 136.975,148.928 136.800,149.800 136.800 C 150.600 136.800,150.800 136.600,150.800 135.800 C 150.800 135.000,151.000 134.800,151.800 134.800 C 152.733 134.800,152.800 134.667,152.800 132.800 C 152.800 130.933,152.867 130.800,153.800 130.800 C 154.733 130.800,154.800 130.667,154.800 128.800 C 154.800 126.933,154.867 126.800,155.800 126.800 C 156.733 126.800,156.800 126.667,156.800 124.800 C 156.800 122.933,156.867 122.800,157.800 122.800 C 158.777 122.800,158.800 122.731,158.800 119.828 C 158.800 117.050,158.859 116.847,159.700 116.728 L 160.600 116.600 160.600 100.000 L 160.600 83.400 159.700 83.272 C 158.859 83.153,158.800 82.950,158.800 80.172 C 158.800 77.269,158.777 77.200,157.800 77.200 C 156.867 77.200,156.800 77.067,156.800 75.200 C 156.800 73.333,156.733 73.200,155.800 73.200 C 154.867 73.200,154.800 73.067,154.800 71.200 C 154.800 69.333,154.733 69.200,153.800 69.200 C 152.867 69.200,152.800 69.067,152.800 67.200 C 152.800 65.333,152.733 65.200,151.800 65.200 C 151.000 65.200,150.800 65.000,150.800 64.200 C 150.800 63.406,150.598 63.200,149.823 63.200 C 148.960 63.200,148.832 63.002,148.723 61.500 C 148.629 60.198,148.393 59.709,147.716 59.412 C 147.230 59.199,146.780 58.659,146.716 58.212 C 146.646 57.721,146.244 57.349,145.700 57.272 C 145.049 57.180,144.800 56.876,144.800 56.172 C 144.800 55.409,144.591 55.200,143.828 55.200 C 143.124 55.200,142.820 54.951,142.728 54.300 C 142.651 53.756,142.279 53.354,141.788 53.284 C 141.341 53.220,140.801 52.770,140.588 52.284 C 140.291 51.607,139.802 51.371,138.500 51.277 C 136.998 51.168,136.800 51.040,136.800 50.177 C 136.800 49.402,136.594 49.200,135.800 49.200 C 135.000 49.200,134.800 49.000,134.800 48.200 C 134.800 47.267,134.667 47.200,132.800 47.200 C 130.933 47.200,130.800 47.133,130.800 46.200 C 130.800 45.267,130.667 45.200,128.800 45.200 C 126.933 45.200,126.800 45.133,126.800 44.200 C 126.800 43.267,126.667 43.200,124.800 43.200 C 122.933 43.200,122.800 43.133,122.800 42.200 C 122.800 41.223,122.731 41.200,119.828 41.200 C 117.050 41.200,116.847 41.141,116.728 40.300 L 116.600 39.400 100.171 39.296 C 91.135 39.238,83.620 39.313,83.471 39.462 M211.471 39.462 C 211.322 39.611,211.200 40.063,211.200 40.467 C 211.200 41.113,210.842 41.200,208.200 41.200 C 205.267 41.200,205.200 41.222,205.200 42.200 C 205.200 43.133,205.067 43.200,203.200 43.200 C 201.333 43.200,201.200 43.267,201.200 44.200 C 201.200 45.133,201.067 45.200,199.200 45.200 C 197.333 45.200,197.200 45.267,197.200 46.200 C 197.200 47.133,197.067 47.200,195.200 47.200 C 193.333 47.200,193.200 47.267,193.200 48.200 C 193.200 49.000,193.000 49.200,192.200 49.200 C 191.406 49.200,191.200 49.402,191.200 50.177 C 191.200 51.040,191.002 51.168,189.500 51.277 C 188.198 51.371,187.709 51.607,187.412 52.284 C 187.199 52.770,186.659 53.220,186.212 53.284 C 185.721 53.354,185.349 53.756,185.272 54.300 C 185.180 54.951,184.876 55.200,184.172 55.200 C 183.409 55.200,183.200 55.409,183.200 56.172 C 183.200 56.876,182.951 57.180,182.300 57.272 C 181.756 57.349,181.354 57.721,181.284 58.212 C 181.220 58.659,180.770 59.199,180.284 59.412 C 179.607 59.709,179.371 60.198,179.277 61.500 C 179.168 63.002,179.040 63.200,178.177 63.200 C 177.402 63.200,177.200 63.406,177.200 64.200 C 177.200 65.000,177.000 65.200,176.200 65.200 C 175.267 65.200,175.200 65.333,175.200 67.200 C 175.200 69.067,175.133 69.200,174.200 69.200 C 173.267 69.200,173.200 69.333,173.200 71.200 C 173.200 73.067,173.133 73.200,172.200 73.200 C 171.267 73.200,171.200 73.333,171.200 75.200 C 171.200 77.067,171.133 77.200,170.200 77.200 C 169.223 77.200,169.200 77.269,169.200 80.172 C 169.200 82.950,169.141 83.153,168.300 83.272 L 167.400 83.400 167.400 100.000 L 167.400 116.600 168.300 116.728 C 169.141 116.847,169.200 117.050,169.200 119.828 C 169.200 122.731,169.223 122.800,170.200 122.800 C 171.133 122.800,171.200 122.933,171.200 124.800 C 171.200 126.667,171.267 126.800,172.200 126.800 C 173.133 126.800,173.200 126.933,173.200 128.800 C 173.200 130.667,173.267 130.800,174.200 130.800 C 175.133 130.800,175.200 130.933,175.200 132.800 C 175.200 134.667,175.267 134.800,176.200 134.800 C 177.000 134.800,177.200 135.000,177.200 135.800 C 177.200 136.594,177.402 136.800,178.177 136.800 C 179.040 136.800,179.168 136.998,179.277 138.500 C 179.371 139.802,179.607 140.291,180.284 140.588 C 180.770 140.801,181.220 141.341,181.284 141.788 C 181.354 142.279,181.756 142.651,182.300 142.728 C 182.951 142.820,183.200 143.124,183.200 143.828 C 183.200 144.591,183.409 144.800,184.172 144.800 C 184.876 144.800,185.180 145.049,185.272 145.700 C 185.349 146.244,185.721 146.646,186.212 146.716 C 186.659 146.780,187.199 147.230,187.412 147.716 C 187.709 148.393,188.198 148.629,189.500 148.723 C 191.002 148.832,191.200 148.960,191.200 149.823 C 191.200 150.598,191.406 150.800,192.200 150.800 C 193.000 150.800,193.200 151.000,193.200 151.800 C 193.200 152.733,193.333 152.800,195.200 152.800 C 197.067 152.800,197.200 152.867,197.200 153.800 C 197.200 154.733,197.333 154.800,199.200 154.800 C 201.067 154.800,201.200 154.867,201.200 155.800 C 201.200 156.733,201.333 156.800,203.200 156.800 C 205.067 156.800,205.200 156.867,205.200 157.800 C 205.200 158.777,205.269 158.800,208.172 158.800 C 210.950 158.800,211.153 158.859,211.272 159.700 L 211.400 160.600 228.000 160.600 L 244.600 160.600 244.728 159.700 C 244.847 158.859,245.050 158.800,247.828 158.800 C 250.715 158.800,250.800 158.772,250.800 157.821 C 250.800 156.922,250.972 156.832,252.900 156.721 C 254.714 156.616,255.017 156.480,255.125 155.721 C 255.231 154.979,255.544 154.823,257.125 154.721 C 258.721 154.618,259.019 154.466,259.128 153.700 C 259.238 152.925,259.496 152.800,260.984 152.800 C 262.495 152.800,262.745 152.674,262.964 151.800 C 263.148 151.069,263.483 150.800,264.208 150.800 C 264.999 150.800,265.200 150.598,265.200 149.800 C 265.200 148.961,265.389 148.800,266.371 148.800 C 267.487 148.800,268.800 147.935,268.800 147.199 C 268.800 147.010,269.205 146.798,269.700 146.728 C 270.278 146.646,270.646 146.278,270.728 145.700 C 270.820 145.049,271.124 144.800,271.828 144.800 C 272.537 144.800,272.800 144.581,272.800 143.990 C 272.800 143.494,273.188 143.033,273.800 142.800 C 274.397 142.573,274.800 142.104,274.800 141.637 C 274.800 141.206,275.133 140.748,275.539 140.619 C 276.350 140.362,277.200 138.808,277.200 137.581 C 277.200 137.015,277.475 136.800,278.200 136.800 C 279.000 136.800,279.200 136.600,279.200 135.800 C 279.200 135.087,279.416 134.800,279.953 134.800 C 280.747 134.800,281.185 133.785,281.195 131.928 C 281.199 131.123,281.424 130.824,282.100 130.728 C 282.866 130.619,283.018 130.321,283.121 128.725 C 283.223 127.144,283.379 126.831,284.121 126.725 C 284.864 126.619,285.019 126.307,285.122 124.700 C 285.220 123.174,285.387 122.800,285.972 122.800 C 286.789 122.800,287.200 121.393,287.200 118.597 C 287.200 117.276,287.366 116.850,287.939 116.700 C 289.089 116.399,289.200 114.932,289.200 100.000 C 289.200 85.068,289.089 83.601,287.939 83.300 C 287.366 83.150,287.200 82.724,287.200 81.403 C 287.200 78.607,286.789 77.200,285.972 77.200 C 285.387 77.200,285.220 76.826,285.122 75.300 C 285.019 73.693,284.864 73.381,284.121 73.275 C 283.379 73.169,283.223 72.856,283.121 71.275 C 283.020 69.714,282.858 69.380,282.149 69.279 C 281.455 69.180,281.249 68.791,281.035 67.179 C 280.825 65.595,280.621 65.200,280.014 65.200 C 279.532 65.200,279.209 64.872,279.128 64.300 C 279.050 63.749,278.679 63.354,278.173 63.282 C 277.562 63.194,277.249 62.725,276.973 61.482 C 276.720 60.339,276.312 59.673,275.700 59.405 C 275.205 59.188,274.800 58.689,274.800 58.295 C 274.800 57.901,274.352 57.410,273.800 57.200 C 273.188 56.967,272.800 56.506,272.800 56.010 C 272.800 55.419,272.537 55.200,271.828 55.200 C 271.124 55.200,270.820 54.951,270.728 54.300 C 270.651 53.756,270.279 53.354,269.788 53.284 C 269.341 53.220,268.801 52.770,268.588 52.284 C 268.307 51.644,267.793 51.366,266.725 51.277 C 265.558 51.180,265.224 50.971,265.125 50.277 C 265.046 49.722,264.670 49.353,264.101 49.272 C 263.540 49.193,263.110 48.779,262.957 48.172 C 262.746 47.330,262.482 47.200,260.984 47.200 C 259.496 47.200,259.238 47.075,259.128 46.300 C 259.019 45.534,258.721 45.382,257.125 45.279 C 255.544 45.177,255.231 45.021,255.125 44.279 C 255.017 43.520,254.714 43.384,252.900 43.279 C 250.972 43.168,250.800 43.078,250.800 42.179 C 250.800 41.228,250.715 41.200,247.828 41.200 C 245.050 41.200,244.847 41.141,244.728 40.300 L 244.600 39.400 228.171 39.296 C 219.135 39.238,211.620 39.313,211.471 39.462 M111.272 59.700 C 111.389 60.526,111.639 60.610,114.300 60.718 C 117.081 60.830,117.200 60.875,117.200 61.818 C 117.200 62.730,117.343 62.800,119.200 62.800 C 121.067 62.800,121.200 62.867,121.200 63.800 C 121.200 64.592,121.402 64.800,122.172 64.800 C 122.876 64.800,123.180 65.049,123.272 65.700 C 123.381 66.468,123.679 66.618,125.300 66.722 C 127.015 66.832,127.200 66.939,127.200 67.822 C 127.200 68.599,127.406 68.800,128.200 68.800 C 129.000 68.800,129.200 69.000,129.200 69.800 C 129.200 70.600,129.400 70.800,130.200 70.800 C 131.000 70.800,131.200 71.000,131.200 71.800 C 131.200 72.594,131.401 72.800,132.178 72.800 C 133.061 72.800,133.168 72.985,133.278 74.700 C 133.382 76.321,133.532 76.619,134.300 76.728 C 134.951 76.820,135.200 77.124,135.200 77.828 C 135.200 78.598,135.408 78.800,136.200 78.800 C 137.133 78.800,137.200 78.933,137.200 80.800 C 137.200 82.657,137.270 82.800,138.182 82.800 C 139.125 82.800,139.170 82.919,139.282 85.700 C 139.390 88.361,139.474 88.611,140.300 88.728 L 141.200 88.856 141.200 100.000 L 141.200 111.144 140.300 111.272 C 139.474 111.389,139.390 111.639,139.282 114.300 C 139.170 117.081,139.125 117.200,138.182 117.200 C 137.270 117.200,137.200 117.343,137.200 119.200 C 137.200 121.067,137.133 121.200,136.200 121.200 C 135.408 121.200,135.200 121.402,135.200 122.172 C 135.200 122.876,134.951 123.180,134.300 123.272 C 133.532 123.381,133.382 123.679,133.278 125.300 C 133.168 127.015,133.061 127.200,132.178 127.200 C 131.401 127.200,131.200 127.406,131.200 128.200 C 131.200 129.000,131.000 129.200,130.200 129.200 C 129.400 129.200,129.200 129.400,129.200 130.200 C 129.200 131.000,129.000 131.200,128.200 131.200 C 127.406 131.200,127.200 131.401,127.200 132.178 C 127.200 133.061,127.015 133.168,125.300 133.278 C 123.679 133.382,123.381 133.532,123.272 134.300 C 123.180 134.951,122.876 135.200,122.172 135.200 C 121.402 135.200,121.200 135.408,121.200 136.200 C 121.200 137.133,121.067 137.200,119.200 137.200 C 117.343 137.200,117.200 137.270,117.200 138.182 C 117.200 139.125,117.081 139.170,114.300 139.282 C 111.639 139.390,111.389 139.474,111.272 140.300 L 111.144 141.200 100.000 141.200 L 88.856 141.200 88.728 140.300 C 88.611 139.474,88.361 139.390,85.700 139.282 C 82.919 139.170,82.800 139.125,82.800 138.182 C 82.800 137.270,82.657 137.200,80.800 137.200 C 78.933 137.200,78.800 137.133,78.800 136.200 C 78.800 135.408,78.598 135.200,77.828 135.200 C 77.124 135.200,76.820 134.951,76.728 134.300 C 76.619 133.532,76.321 133.382,74.700 133.278 C 72.985 133.168,72.800 133.061,72.800 132.178 C 72.800 131.401,72.594 131.200,71.800 131.200 C 71.000 131.200,70.800 131.000,70.800 130.200 C 70.800 129.400,70.600 129.200,69.800 129.200 C 69.000 129.200,68.800 129.000,68.800 128.200 C 68.800 127.406,68.599 127.200,67.822 127.200 C 66.939 127.200,66.832 127.015,66.722 125.300 C 66.618 123.679,66.468 123.381,65.700 123.272 C 65.049 123.180,64.800 122.876,64.800 122.172 C 64.800 121.402,64.592 121.200,63.800 121.200 C 62.867 121.200,62.800 121.067,62.800 119.200 C 62.800 117.343,62.730 117.200,61.818 117.200 C 60.875 117.200,60.830 117.081,60.718 114.300 C 60.610 111.639,60.526 111.389,59.700 111.272 L 58.800 111.144 58.800 100.067 L 58.800 88.990 59.700 88.595 C 60.486 88.250,60.615 87.857,60.718 85.500 C 60.831 82.932,60.885 82.800,61.818 82.800 C 62.730 82.800,62.800 82.657,62.800 80.800 C 62.800 78.933,62.867 78.800,63.800 78.800 C 64.592 78.800,64.800 78.598,64.800 77.828 C 64.800 77.124,65.049 76.820,65.700 76.728 C 66.468 76.619,66.618 76.321,66.722 74.700 C 66.832 72.985,66.939 72.800,67.822 72.800 C 68.599 72.800,68.800 72.594,68.800 71.800 C 68.800 71.000,69.000 70.800,69.800 70.800 C 70.600 70.800,70.800 70.600,70.800 69.800 C 70.800 69.000,71.000 68.800,71.800 68.800 C 72.594 68.800,72.800 68.599,72.800 67.822 C 72.800 66.939,72.985 66.832,74.700 66.722 C 76.321 66.618,76.619 66.468,76.728 65.700 C 76.820 65.049,77.124 64.800,77.828 64.800 C 78.598 64.800,78.800 64.592,78.800 63.800 C 78.800 62.867,78.933 62.800,80.800 62.800 C 82.657 62.800,82.800 62.730,82.800 61.818 C 82.800 60.885,82.932 60.831,85.500 60.718 C 87.857 60.615,88.250 60.486,88.595 59.700 L 88.990 58.800 100.067 58.800 L 111.144 58.800 111.272 59.700 M239.272 59.700 C 239.389 60.526,239.639 60.610,242.300 60.718 C 245.081 60.830,245.200 60.875,245.200 61.818 C 245.200 62.730,245.343 62.800,247.200 62.800 C 249.067 62.800,249.200 62.867,249.200 63.800 C 249.200 64.592,249.402 64.800,250.172 64.800 C 250.876 64.800,251.180 65.049,251.272 65.700 C 251.381 66.468,251.679 66.618,253.300 66.722 C 255.015 66.832,255.200 66.939,255.200 67.822 C 255.200 68.599,255.406 68.800,256.200 68.800 C 257.000 68.800,257.200 69.000,257.200 69.800 C 257.200 70.600,257.400 70.800,258.200 70.800 C 259.000 70.800,259.200 71.000,259.200 71.800 C 259.200 72.594,259.401 72.800,260.178 72.800 C 261.061 72.800,261.168 72.985,261.278 74.700 C 261.382 76.321,261.532 76.619,262.300 76.728 C 262.951 76.820,263.200 77.124,263.200 77.828 C 263.200 78.598,263.408 78.800,264.200 78.800 C 265.133 78.800,265.200 78.933,265.200 80.800 C 265.200 82.657,265.270 82.800,266.182 82.800 C 267.125 82.800,267.170 82.919,267.282 85.700 C 267.390 88.361,267.474 88.611,268.300 88.728 L 269.200 88.856 269.200 100.000 L 269.200 111.144 268.300 111.272 C 267.474 111.389,267.390 111.639,267.282 114.300 C 267.170 117.081,267.125 117.200,266.182 117.200 C 265.270 117.200,265.200 117.343,265.200 119.200 C 265.200 121.067,265.133 121.200,264.200 121.200 C 263.408 121.200,263.200 121.402,263.200 122.172 C 263.200 122.876,262.951 123.180,262.300 123.272 C 261.532 123.381,261.382 123.679,261.278 125.300 C 261.168 127.015,261.061 127.200,260.178 127.200 C 259.401 127.200,259.200 127.406,259.200 128.200 C 259.200 129.000,259.000 129.200,258.200 129.200 C 257.400 129.200,257.200 129.400,257.200 130.200 C 257.200 131.000,257.000 131.200,256.200 131.200 C 255.406 131.200,255.200 131.401,255.200 132.178 C 255.200 133.061,255.015 133.168,253.300 133.278 C 251.679 133.382,251.381 133.532,251.272 134.300 C 251.180 134.951,250.876 135.200,250.172 135.200 C 249.402 135.200,249.200 135.408,249.200 136.200 C 249.200 137.133,249.067 137.200,247.200 137.200 C 245.343 137.200,245.200 137.270,245.200 138.182 C 245.200 139.125,245.081 139.170,242.300 139.282 C 239.639 139.390,239.389 139.474,239.272 140.300 L 239.144 141.200 228.000 141.200 L 216.856 141.200 216.728 140.300 C 216.611 139.474,216.361 139.390,213.700 139.282 C 210.919 139.170,210.800 139.125,210.800 138.182 C 210.800 137.270,210.657 137.200,208.800 137.200 C 206.933 137.200,206.800 137.133,206.800 136.200 C 206.800 135.408,206.598 135.200,205.828 135.200 C 205.124 135.200,204.820 134.951,204.728 134.300 C 204.619 133.532,204.321 133.382,202.700 133.278 C 200.985 133.168,200.800 133.061,200.800 132.178 C 200.800 131.401,200.594 131.200,199.800 131.200 C 199.000 131.200,198.800 131.000,198.800 130.200 C 198.800 129.400,198.600 129.200,197.800 129.200 C 197.000 129.200,196.800 129.000,196.800 128.200 C 196.800 127.406,196.599 127.200,195.822 127.200 C 194.939 127.200,194.832 127.015,194.722 125.300 C 194.618 123.679,194.468 123.381,193.700 123.272 C 193.049 123.180,192.800 122.876,192.800 122.172 C 192.800 121.402,192.592 121.200,191.800 121.200 C 190.867 121.200,190.800 121.067,190.800 119.200 C 190.800 117.343,190.730 117.200,189.818 117.200 C 188.875 117.200,188.830 117.081,188.718 114.300 C 188.610 111.639,188.526 111.389,187.700 111.272 L 186.800 111.144 186.800 100.067 L 186.800 88.990 187.700 88.595 C 188.486 88.250,188.615 87.857,188.718 85.500 C 188.831 82.932,188.885 82.800,189.818 82.800 C 190.730 82.800,190.800 82.657,190.800 80.800 C 190.800 78.933,190.867 78.800,191.800 78.800 C 192.592 78.800,192.800 78.598,192.800 77.828 C 192.800 77.124,193.049 76.820,193.700 76.728 C 194.468 76.619,194.618 76.321,194.722 74.700 C 194.832 72.985,194.939 72.800,195.822 72.800 C 196.599 72.800,196.800 72.594,196.800 71.800 C 196.800 71.000,197.000 70.800,197.800 70.800 C 198.600 70.800,198.800 70.600,198.800 69.800 C 198.800 69.000,199.000 68.800,199.800 68.800 C 200.594 68.800,200.800 68.599,200.800 67.822 C 200.800 66.939,200.985 66.832,202.700 66.722 C 204.321 66.618,204.619 66.468,204.728 65.700 C 204.820 65.049,205.124 64.800,205.828 64.800 C 206.598 64.800,206.800 64.592,206.800 63.800 C 206.800 62.867,206.933 62.800,208.800 62.800 C 210.657 62.800,210.800 62.730,210.800 61.818 C 210.800 60.885,210.932 60.831,213.500 60.718 C 215.857 60.615,216.250 60.486,216.595 59.700 L 216.990 58.800 228.067 58.800 L 239.144 58.800 239.272 59.700 M45.200 168.200 C 45.200 169.133,45.067 169.200,43.200 169.200 C 41.333 169.200,41.200 169.267,41.200 170.200 C 41.200 171.133,41.067 171.200,39.200 171.200 C 37.333 171.200,37.200 171.267,37.200 172.200 C 37.200 173.000,37.000 173.200,36.200 173.200 C 35.400 173.200,35.200 173.400,35.200 174.200 C 35.200 175.000,35.000 175.200,34.200 175.200 C 33.400 175.200,33.200 175.400,33.200 176.200 C 33.200 177.000,33.000 177.200,32.200 177.200 C 31.267 177.200,31.200 177.333,31.200 179.200 C 31.200 181.067,31.133 181.200,30.200 181.200 C 29.267 181.200,29.200 181.333,29.200 183.200 C 29.200 185.067,29.133 185.200,28.200 185.200 L 27.200 185.200 27.200 264.000 L 27.200 342.800 28.200 342.800 C 29.133 342.800,29.200 342.933,29.200 344.800 C 29.200 346.655,29.271 346.800,30.178 346.800 C 31.061 346.800,31.168 346.985,31.278 348.700 C 31.382 350.321,31.532 350.619,32.300 350.728 C 32.951 350.820,33.200 351.124,33.200 351.828 C 33.200 352.598,33.408 352.800,34.200 352.800 C 35.000 352.800,35.200 353.000,35.200 353.800 C 35.200 354.592,35.402 354.800,36.172 354.800 C 36.876 354.800,37.180 355.049,37.272 355.700 C 37.381 356.468,37.679 356.618,39.300 356.722 C 41.015 356.832,41.200 356.939,41.200 357.822 C 41.200 358.729,41.345 358.800,43.200 358.800 C 45.067 358.800,45.200 358.867,45.200 359.800 L 45.200 360.800 163.992 360.800 L 282.785 360.800 283.031 359.820 C 283.241 358.981,283.543 358.823,285.138 358.720 C 286.706 358.619,287.020 358.461,287.125 357.722 C 287.227 357.001,287.551 356.822,288.925 356.722 C 290.313 356.621,290.622 356.446,290.728 355.700 C 290.820 355.051,291.124 354.800,291.820 354.800 C 292.515 354.800,292.855 354.521,293.036 353.800 C 293.192 353.179,293.570 352.800,294.036 352.800 C 294.493 352.800,294.879 352.426,295.026 351.838 C 295.159 351.309,295.598 350.789,296.003 350.683 C 296.522 350.548,296.817 349.957,297.011 348.668 C 297.229 347.214,297.458 346.820,298.142 346.722 C 298.861 346.620,299.020 346.292,299.122 344.700 C 299.220 343.167,299.386 342.800,299.979 342.800 C 301.114 342.800,301.200 342.122,301.200 333.167 L 301.200 324.800 302.200 324.800 C 303.000 324.800,303.200 325.000,303.200 325.800 C 303.200 326.733,303.333 326.800,305.200 326.800 C 307.067 326.800,307.200 326.867,307.200 327.800 C 307.200 328.733,307.333 328.800,309.200 328.800 C 311.067 328.800,311.200 328.867,311.200 329.800 C 311.200 330.733,311.333 330.800,313.200 330.800 C 315.067 330.800,315.200 330.867,315.200 331.800 C 315.200 332.733,315.333 332.800,317.200 332.800 C 319.067 332.800,319.200 332.867,319.200 333.800 C 319.200 334.733,319.333 334.800,321.200 334.800 C 323.067 334.800,323.200 334.867,323.200 335.800 C 323.200 336.733,323.333 336.800,325.200 336.800 C 327.067 336.800,327.200 336.867,327.200 337.800 C 327.200 338.733,327.333 338.800,329.200 338.800 C 331.067 338.800,331.200 338.867,331.200 339.800 C 331.200 340.733,331.333 340.800,333.200 340.800 C 335.067 340.800,335.200 340.867,335.200 341.800 C 335.200 342.733,335.333 342.800,337.200 342.800 C 339.067 342.800,339.200 342.867,339.200 343.800 C 339.200 344.672,339.375 344.800,340.571 344.800 C 341.557 344.800,342.163 345.081,342.729 345.800 C 343.161 346.350,343.886 346.800,344.339 346.800 C 344.793 346.800,345.614 347.250,346.164 347.800 C 346.714 348.350,347.556 348.800,348.036 348.800 C 348.516 348.800,349.325 349.250,349.835 349.800 C 350.433 350.445,351.194 350.800,351.981 350.800 C 352.651 350.800,353.200 350.967,353.200 351.171 C 353.200 351.957,354.512 352.800,355.734 352.800 C 356.674 352.800,357.114 353.037,357.405 353.700 C 358.046 355.161,368.779 355.296,370.110 353.859 C 370.601 353.330,371.362 352.828,371.801 352.743 C 372.596 352.590,372.600 352.193,372.701 263.895 L 372.802 175.200 371.829 175.200 C 371.124 175.200,370.820 174.952,370.728 174.300 C 370.529 172.903,358.026 172.885,357.413 174.281 C 357.122 174.944,356.626 175.192,355.413 175.281 C 354.189 175.371,353.705 175.617,353.405 176.300 C 353.114 176.963,352.674 177.200,351.734 177.200 C 350.512 177.200,349.200 178.043,349.200 178.829 C 349.200 179.033,348.651 179.200,347.981 179.200 C 347.194 179.200,346.433 179.555,345.835 180.200 C 345.325 180.750,344.516 181.200,344.036 181.200 C 343.556 181.200,342.714 181.650,342.164 182.200 C 341.614 182.750,340.793 183.200,340.339 183.200 C 339.886 183.200,339.161 183.650,338.729 184.200 C 338.198 184.874,337.546 185.200,336.729 185.200 C 335.911 185.200,335.259 185.526,334.729 186.200 C 334.163 186.919,333.557 187.200,332.571 187.200 C 331.375 187.200,331.200 187.328,331.200 188.200 C 331.200 189.133,331.067 189.200,329.200 189.200 C 327.333 189.200,327.200 189.267,327.200 190.200 C 327.200 191.133,327.067 191.200,325.200 191.200 C 323.333 191.200,323.200 191.267,323.200 192.200 C 323.200 193.133,323.067 193.200,321.200 193.200 C 319.333 193.200,319.200 193.267,319.200 194.200 C 319.200 195.133,319.067 195.200,317.200 195.200 C 315.333 195.200,315.200 195.267,315.200 196.200 C 315.200 197.133,315.067 197.200,313.200 197.200 C 311.333 197.200,311.200 197.267,311.200 198.200 C 311.200 199.133,311.067 199.200,309.200 199.200 C 307.333 199.200,307.200 199.267,307.200 200.200 C 307.200 201.133,307.067 201.200,305.200 201.200 C 303.333 201.200,303.200 201.267,303.200 202.200 C 303.200 203.000,303.000 203.200,302.200 203.200 L 301.200 203.200 301.200 194.833 C 301.200 185.878,301.114 185.200,299.979 185.200 C 299.386 185.200,299.220 184.833,299.122 183.300 C 299.019 181.703,298.862 181.380,298.134 181.277 C 297.426 181.176,297.219 180.795,296.997 179.177 C 296.786 177.642,296.564 177.200,296.006 177.200 C 295.572 177.200,295.187 176.803,295.036 176.200 C 294.880 175.579,294.501 175.200,294.036 175.200 C 293.570 175.200,293.192 174.821,293.036 174.200 C 292.852 173.469,292.517 173.200,291.792 173.200 C 291.001 173.200,290.800 172.998,290.800 172.200 C 290.800 171.284,290.651 171.200,289.028 171.200 C 287.495 171.200,287.238 171.079,287.128 170.300 C 287.019 169.535,286.720 169.382,285.138 169.280 C 283.543 169.177,283.241 169.019,283.031 168.180 L 282.785 167.200 163.992 167.200 L 45.200 167.200 45.200 168.200 M271.200 185.800 C 271.200 186.778,271.267 186.800,274.200 186.800 C 277.133 186.800,277.200 186.822,277.200 187.800 C 277.200 188.600,277.400 188.800,278.200 188.800 C 279.000 188.800,279.200 189.000,279.200 189.800 C 279.200 190.600,279.400 190.800,280.200 190.800 C 281.178 190.800,281.200 190.867,281.200 193.800 C 281.200 196.733,281.222 196.800,282.200 196.800 L 283.200 196.800 283.200 263.371 L 283.200 329.942 282.200 330.729 C 281.301 331.436,281.200 331.802,281.200 334.358 C 281.200 337.123,281.173 337.200,280.200 337.200 C 279.400 337.200,279.200 337.400,279.200 338.200 C 279.200 339.000,279.000 339.200,278.200 339.200 C 277.400 339.200,277.200 339.400,277.200 340.200 C 277.200 341.173,277.123 341.200,274.358 341.200 C 271.802 341.200,271.436 341.301,270.729 342.200 L 269.942 343.200 164.000 343.200 L 58.058 343.200 57.271 342.200 C 56.564 341.301,56.198 341.200,53.642 341.200 C 50.877 341.200,50.800 341.173,50.800 340.200 C 50.800 339.400,50.600 339.200,49.800 339.200 C 49.000 339.200,48.800 339.000,48.800 338.200 C 48.800 337.400,48.600 337.200,47.800 337.200 C 46.822 337.200,46.800 337.133,46.800 334.200 C 46.800 331.267,46.778 331.200,45.800 331.200 L 44.800 331.200 44.800 264.000 L 44.800 196.800 45.800 196.800 C 46.778 196.800,46.800 196.733,46.800 193.800 C 46.800 190.867,46.822 190.800,47.800 190.800 C 48.600 190.800,48.800 190.600,48.800 189.800 C 48.800 189.000,49.000 188.800,49.800 188.800 C 50.600 188.800,50.800 188.600,50.800 187.800 C 50.800 186.822,50.867 186.800,53.800 186.800 C 56.733 186.800,56.800 186.778,56.800 185.800 L 56.800 184.800 164.000 184.800 L 271.200 184.800 271.200 185.800 M355.200 264.000 L 355.200 329.200 354.000 329.200 C 352.987 329.200,352.800 329.044,352.800 328.200 C 352.800 327.267,352.667 327.200,350.800 327.200 C 348.933 327.200,348.800 327.133,348.800 326.200 C 348.800 325.267,348.667 325.200,346.800 325.200 C 344.933 325.200,344.800 325.133,344.800 324.200 C 344.800 323.267,344.667 323.200,342.800 323.200 C 340.933 323.200,340.800 323.133,340.800 322.200 C 340.800 321.267,340.667 321.200,338.800 321.200 C 336.933 321.200,336.800 321.133,336.800 320.200 C 336.800 319.267,336.667 319.200,334.800 319.200 C 332.933 319.200,332.800 319.133,332.800 318.200 C 332.800 317.267,332.667 317.200,330.800 317.200 C 328.933 317.200,328.800 317.133,328.800 316.200 C 328.800 315.267,328.667 315.200,326.800 315.200 C 324.933 315.200,324.800 315.133,324.800 314.200 C 324.800 313.267,324.667 313.200,322.800 313.200 C 320.933 313.200,320.800 313.133,320.800 312.200 C 320.800 311.267,320.667 311.200,318.800 311.200 C 316.933 311.200,316.800 311.133,316.800 310.200 C 316.800 309.267,316.667 309.200,314.800 309.200 C 312.933 309.200,312.800 309.133,312.800 308.200 C 312.800 307.328,312.625 307.200,311.429 307.200 C 310.443 307.200,309.837 306.919,309.271 306.200 C 308.839 305.650,308.114 305.200,307.661 305.200 C 307.207 305.200,306.386 304.750,305.836 304.200 C 305.286 303.650,304.444 303.200,303.964 303.200 C 303.484 303.200,302.666 302.741,302.146 302.179 L 301.200 301.159 301.200 262.979 L 301.200 224.800 303.000 224.800 C 304.653 224.800,304.800 224.719,304.800 223.800 C 304.800 222.867,304.933 222.800,306.800 222.800 C 308.667 222.800,308.800 222.733,308.800 221.800 C 308.800 220.867,308.933 220.800,310.800 220.800 C 312.667 220.800,312.800 220.733,312.800 219.800 C 312.800 218.867,312.933 218.800,314.800 218.800 C 316.667 218.800,316.800 218.733,316.800 217.800 C 316.800 216.867,316.933 216.800,318.800 216.800 C 320.667 216.800,320.800 216.733,320.800 215.800 C 320.800 214.867,320.933 214.800,322.800 214.800 C 324.667 214.800,324.800 214.733,324.800 213.800 C 324.800 212.867,324.933 212.800,326.800 212.800 C 328.667 212.800,328.800 212.733,328.800 211.800 C 328.800 210.867,328.933 210.800,330.800 210.800 C 332.667 210.800,332.800 210.733,332.800 209.800 C 332.800 208.867,332.933 208.800,334.800 208.800 C 336.667 208.800,336.800 208.733,336.800 207.800 C 336.800 206.867,336.933 206.800,338.800 206.800 C 340.667 206.800,340.800 206.733,340.800 205.800 C 340.800 204.867,340.933 204.800,342.800 204.800 C 344.667 204.800,344.800 204.733,344.800 203.800 C 344.800 202.867,344.933 202.800,346.800 202.800 C 348.667 202.800,348.800 202.733,348.800 201.800 C 348.800 200.867,348.933 200.800,350.800 200.800 C 352.667 200.800,352.800 200.733,352.800 199.800 C 352.800 198.956,352.987 198.800,354.000 198.800 L 355.200 198.800 355.200 264.000 " stroke="none" fill="#040404" fill-rule="evenodd"></path><path id="path1" d="" stroke="none" fill="#080404" fill-rule="evenodd"></path><path id="path2" d="" stroke="none" fill="#080404" fill-rule="evenodd"></path><path id="path3" d="" stroke="none" fill="#080404" fill-rule="evenodd"></path><path id="path4" d="" stroke="none" fill="#080404" fill-rule="evenodd"></path></g></svg>