<svg id="svg" version="1.1" xmlns="http://www.w3.org/2000/svg" xmlns:xlink="http://www.w3.org/1999/xlink" width="400" height="400" viewBox="0, 0, 400,400"><g id="svgg"><path id="path0" d="M29.000 68.004 C 23.623 68.330,22.644 68.619,20.245 70.584 C 19.248 71.401,17.765 72.139,16.590 72.402 C 14.453 72.881,13.304 73.689,12.768 75.089 C 12.581 75.577,11.791 76.244,11.012 76.569 C 10.182 76.916,9.246 77.754,8.750 78.595 C 8.285 79.384,7.387 80.296,6.756 80.623 C 6.124 80.949,5.252 81.915,4.816 82.768 C 4.381 83.621,3.401 84.705,2.638 85.177 C 0.020 86.794,0.200 78.293,0.200 200.400 C 0.200 323.651,-0.037 313.205,2.800 315.111 C 3.570 315.628,4.527 316.743,4.927 317.588 C 5.372 318.530,6.109 319.314,6.829 319.612 C 7.481 319.882,8.393 320.790,8.876 321.650 C 9.439 322.652,10.219 323.372,11.074 323.681 C 11.803 323.945,12.400 324.291,12.400 324.450 C 12.400 324.609,12.856 325.280,13.413 325.943 C 14.350 327.056,15.423 327.573,18.000 328.153 C 18.550 328.277,19.711 329.016,20.579 329.795 C 23.453 332.373,14.265 332.200,148.200 332.200 C 282.962 332.200,272.810 332.394,275.520 329.763 C 276.460 328.850,277.558 328.288,279.058 327.952 C 281.350 327.439,282.367 326.781,283.151 325.301 C 283.412 324.807,284.353 324.032,285.240 323.580 C 286.127 323.127,287.212 322.148,287.651 321.403 C 288.090 320.659,289.062 319.688,289.810 319.247 C 290.584 318.790,291.427 317.831,291.765 317.022 C 292.092 316.240,292.540 315.600,292.761 315.600 C 293.696 315.600,295.253 313.396,295.859 311.216 C 296.221 309.914,297.033 308.284,297.691 307.539 C 300.301 304.581,300.188 305.790,300.323 279.374 L 300.445 255.348 302.495 255.768 C 304.080 256.092,304.687 256.438,305.172 257.292 C 305.901 258.575,307.593 259.473,310.193 259.959 C 311.590 260.220,312.392 260.691,313.519 261.912 C 314.732 263.226,315.372 263.576,317.002 263.815 C 319.623 264.201,320.800 264.661,320.800 265.301 C 320.800 266.198,322.342 267.195,324.663 267.800 C 326.905 268.384,327.493 268.712,328.990 270.212 C 329.914 271.138,331.713 272.000,332.723 272.000 C 333.100 272.000,333.942 272.495,334.594 273.100 C 335.909 274.319,339.033 275.968,340.064 275.987 C 340.430 275.994,341.150 276.499,341.664 277.109 C 342.638 278.263,346.167 280.000,347.539 280.000 C 347.973 280.000,348.767 280.521,349.303 281.158 C 350.552 282.642,352.322 283.550,354.567 283.857 C 355.989 284.052,356.586 284.398,357.532 285.575 C 358.686 287.011,360.812 288.000,362.746 288.000 C 363.215 288.000,364.330 288.710,365.224 289.577 C 366.844 291.149,368.059 291.708,370.895 292.184 C 371.854 292.344,372.558 292.748,372.858 293.309 C 373.620 294.731,374.173 295.112,376.444 295.772 C 377.698 296.137,379.265 296.991,380.188 297.813 C 381.061 298.591,382.534 299.448,383.462 299.719 C 384.389 299.989,385.654 300.653,386.274 301.195 C 387.733 302.472,389.814 303.529,391.483 303.842 C 392.294 303.994,393.121 304.528,393.610 305.214 C 394.572 306.566,397.551 307.800,398.983 307.440 L 400.000 307.185 400.000 199.992 L 400.000 92.800 398.162 92.800 C 396.300 92.800,394.385 93.767,393.296 95.256 C 393.020 95.635,391.797 96.235,390.580 96.589 C 389.298 96.961,387.743 97.795,386.883 98.571 C 386.068 99.307,384.710 100.099,383.867 100.331 C 383.024 100.564,381.376 101.477,380.204 102.362 C 379.033 103.246,377.237 104.181,376.213 104.438 C 374.851 104.781,374.027 105.312,373.141 106.413 C 372.160 107.634,371.577 107.972,370.065 108.194 C 367.500 108.572,365.919 109.394,365.149 110.749 C 364.623 111.674,364.123 111.950,362.549 112.182 C 359.959 112.564,358.161 113.451,357.177 114.832 C 356.540 115.727,355.854 116.067,353.920 116.448 C 351.953 116.835,351.169 117.231,349.937 118.463 C 348.891 119.509,347.825 120.126,346.577 120.405 C 344.504 120.870,343.077 121.688,341.540 123.293 C 340.956 123.902,340.046 124.400,339.518 124.400 C 338.562 124.400,335.582 126.073,334.360 127.296 C 334.008 127.649,332.943 128.146,331.992 128.402 C 331.041 128.658,329.439 129.551,328.432 130.386 C 327.254 131.362,325.851 132.078,324.502 132.392 C 322.571 132.840,320.400 134.527,320.400 135.579 C 320.400 135.754,319.457 136.022,318.305 136.175 C 315.532 136.543,313.919 137.352,313.060 138.806 C 312.672 139.463,312.104 140.000,311.797 140.000 C 309.561 140.000,307.010 140.995,305.648 142.399 C 304.420 143.663,302.102 144.787,300.700 144.798 C 300.535 144.799,300.396 134.855,300.392 122.700 C 300.383 96.976,300.304 96.046,297.851 92.783 C 296.782 91.361,296.015 89.855,295.857 88.867 C 295.582 87.145,293.902 84.800,292.944 84.800 C 292.622 84.800,292.079 84.129,291.736 83.309 C 291.070 81.714,289.811 80.400,288.949 80.400 C 288.658 80.400,288.119 79.815,287.751 79.100 C 286.958 77.560,285.728 76.410,284.839 76.376 C 284.487 76.362,283.653 75.597,282.984 74.676 C 281.980 73.292,281.379 72.895,279.538 72.400 C 278.237 72.050,276.604 71.217,275.617 70.400 C 272.252 67.616,282.525 67.835,152.000 67.771 C 86.990 67.739,31.640 67.844,29.000 68.004 M254.844 93.318 C 256.893 94.706,259.398 95.591,262.062 95.870 C 263.973 96.069,264.585 96.310,265.072 97.053 C 265.408 97.566,266.299 98.366,267.051 98.832 C 267.804 99.297,268.684 100.189,269.008 100.815 C 269.331 101.440,270.128 102.267,270.779 102.651 C 271.796 103.252,271.996 103.660,272.212 105.575 C 272.550 108.577,273.419 111.199,274.612 112.816 L 275.600 114.155 275.600 199.860 L 275.600 285.564 274.627 286.999 C 273.428 288.765,272.542 291.489,272.212 294.425 C 271.997 296.333,271.794 296.749,270.792 297.341 C 270.149 297.721,269.327 298.655,268.966 299.416 C 268.604 300.177,268.104 300.800,267.854 300.800 C 267.244 300.801,265.404 302.439,265.104 303.249 C 264.931 303.716,263.932 304.035,261.545 304.384 C 258.232 304.868,256.646 305.454,254.846 306.857 C 253.565 307.855,42.500 308.043,41.503 307.046 C 40.368 305.911,37.577 304.804,34.743 304.364 C 32.145 303.961,31.651 303.737,30.310 302.355 C 29.480 301.500,28.551 300.800,28.246 300.800 C 27.941 300.800,27.412 300.213,27.072 299.495 C 26.731 298.776,25.927 297.801,25.285 297.326 C 24.308 296.603,24.074 296.083,23.848 294.131 C 23.525 291.333,22.579 288.647,21.323 286.962 L 20.400 285.724 20.400 200.093 L 20.400 114.461 21.333 113.331 C 22.424 112.009,23.432 109.077,23.829 106.074 C 24.093 104.080,24.538 103.249,25.742 102.509 C 26.018 102.339,26.654 101.525,27.155 100.700 C 27.655 99.875,28.287 99.200,28.557 99.200 C 29.122 99.200,30.579 97.924,31.122 96.954 C 31.354 96.539,32.360 96.164,33.845 95.939 C 36.133 95.592,39.996 94.438,40.400 93.980 C 41.875 92.310,35.724 92.400,148.033 92.400 L 253.488 92.400 254.844 93.318 M379.600 200.142 L 379.600 264.685 377.611 264.292 C 376.251 264.023,375.547 263.665,375.387 263.160 C 375.000 261.939,372.961 260.781,370.339 260.294 C 368.322 259.919,367.753 259.635,367.246 258.752 C 366.449 257.363,365.059 256.565,362.800 256.199 C 360.552 255.835,359.719 255.406,359.419 254.459 C 359.144 253.593,357.304 252.587,354.913 251.994 C 353.986 251.764,353.086 251.339,352.913 251.049 C 352.418 250.215,349.524 248.499,348.128 248.211 C 347.428 248.067,346.620 247.666,346.334 247.320 C 345.457 246.264,343.008 244.886,341.156 244.407 C 340.190 244.158,339.040 243.549,338.600 243.055 C 337.405 241.714,336.036 240.978,333.699 240.420 C 332.199 240.063,331.371 239.601,330.806 238.809 C 329.851 237.468,328.033 236.562,325.565 236.199 C 324.134 235.988,323.585 235.683,323.071 234.813 C 322.280 233.473,320.490 232.571,317.851 232.182 C 316.297 231.953,315.773 231.669,315.264 230.782 C 314.427 229.324,313.042 228.542,310.669 228.188 C 309.129 227.958,308.401 227.559,307.069 226.214 C 305.821 224.953,304.970 224.459,303.694 224.258 C 300.173 223.702,300.400 225.360,300.400 200.182 L 300.400 177.964 301.318 177.046 C 301.831 176.532,302.986 176.009,303.942 175.856 C 305.210 175.653,306.035 175.177,307.151 174.003 C 308.320 172.774,309.137 172.321,310.827 171.964 C 313.630 171.371,314.208 171.049,315.064 169.599 C 315.567 168.748,316.177 168.336,317.185 168.169 C 319.976 167.703,321.420 167.054,322.655 165.708 C 323.625 164.652,324.489 164.207,326.455 163.752 C 329.254 163.103,329.926 162.713,330.944 161.149 C 331.424 160.411,332.111 160.020,333.251 159.838 C 335.437 159.489,337.732 158.269,338.548 157.023 C 338.933 156.436,339.598 155.998,340.109 155.996 C 341.419 155.990,344.853 154.266,345.970 153.053 C 346.503 152.474,347.316 152.000,347.776 152.000 C 348.832 152.000,351.423 150.628,353.046 149.209 C 353.771 148.575,355.016 148.004,356.023 147.843 C 357.333 147.633,358.110 147.181,359.214 145.985 C 360.368 144.735,361.109 144.321,362.748 144.010 C 365.365 143.514,366.134 143.098,367.199 141.602 C 367.669 140.942,368.536 140.301,369.127 140.178 C 372.899 139.393,373.700 139.028,374.879 137.562 C 375.997 136.170,376.673 135.851,378.900 135.660 C 379.564 135.603,379.600 138.917,379.600 200.142 " stroke="none" fill="#040404" fill-rule="evenodd"></path><path id="path1" d="" stroke="none" fill="#080404" fill-rule="evenodd"></path><path id="path2" d="" stroke="none" fill="#080404" fill-rule="evenodd"></path><path id="path3" d="" stroke="none" fill="#080404" fill-rule="evenodd"></path><path id="path4" d="" stroke="none" fill="#080404" fill-rule="evenodd"></path></g></svg>