<svg id="svg" version="1.1" xmlns="http://www.w3.org/2000/svg" xmlns:xlink="http://www.w3.org/1999/xlink" width="400" height="374.02597402597405" viewBox="0, 0, 400,374.02597402597405"><g id="svgg"><path id="path0" d="M38.167 7.745 C 35.100 8.278,34.425 8.635,33.663 10.129 C 33.175 11.086,32.242 12.028,31.071 12.749 C 28.220 14.503,28.438 0.528,28.438 182.039 C 28.438 362.617,28.248 349.653,30.909 351.212 C 31.909 351.798,32.951 352.836,33.529 353.823 C 35.180 356.640,20.004 356.408,202.806 356.408 C 384.466 356.408,370.411 356.609,371.887 353.983 C 372.351 353.158,373.464 351.979,374.361 351.361 C 375.444 350.617,376.160 349.766,376.490 348.833 C 377.231 346.741,377.231 17.337,376.490 15.245 C 376.161 14.315,375.445 13.463,374.372 12.725 C 373.481 12.112,372.375 10.999,371.913 10.252 C 371.452 9.506,370.468 8.619,369.728 8.283 C 368.452 7.703,41.463 7.173,38.167 7.745 M88.107 24.479 C 90.667 25.549,90.552 24.005,90.552 57.268 C 90.552 90.443,90.632 89.311,88.221 90.152 C 86.284 90.827,48.134 90.695,46.807 90.008 C 44.667 88.902,44.715 89.647,44.715 57.063 C 44.715 24.448,44.606 26.070,46.890 24.677 C 48.475 23.711,85.838 23.532,88.107 24.479 M296.167 24.535 C 296.896 24.881,297.612 25.612,297.907 26.313 C 298.325 27.302,298.410 53.585,298.410 182.039 C 298.410 352.035,298.606 338.574,296.112 339.616 C 294.200 340.415,111.337 340.383,109.423 339.583 C 106.798 338.487,107.016 352.724,107.016 182.039 C 107.016 11.856,106.813 25.610,109.341 24.511 C 111.300 23.660,294.372 23.683,296.167 24.535 M358.266 24.479 C 360.826 25.549,360.711 24.005,360.711 57.268 C 360.711 90.443,360.791 89.311,358.380 90.152 C 356.443 90.827,318.293 90.695,316.966 90.008 C 314.826 88.902,314.874 89.653,314.874 56.996 C 314.874 23.585,314.708 25.775,317.342 24.421 C 318.751 23.697,356.522 23.751,358.266 24.479 M88.145 107.564 C 90.640 108.606,90.552 107.402,90.551 140.587 C 90.551 174.324,90.705 172.507,87.746 173.512 C 84.923 174.470,47.875 174.030,46.519 173.023 C 44.534 171.547,44.514 171.188,44.618 139.570 C 44.725 107.481,44.609 108.940,47.147 107.671 C 48.974 106.759,85.986 106.661,88.145 107.564 M358.092 107.505 C 360.830 108.438,360.710 106.927,360.710 140.505 C 360.710 174.622,360.892 172.608,357.717 173.525 C 354.484 174.458,318.010 174.012,316.678 173.023 C 314.693 171.547,314.673 171.188,314.778 139.570 C 314.884 107.481,314.768 108.940,317.306 107.671 C 318.957 106.846,355.720 106.696,358.092 107.505 M156.890 115.938 C 155.405 117.343,153.974 118.983,153.709 119.583 C 153.056 121.062,152.798 240.061,153.442 243.163 C 154.538 248.446,160.942 252.198,164.473 249.626 C 165.285 249.034,166.941 248.265,168.153 247.916 C 170.684 247.189,171.694 246.613,173.867 244.663 C 174.741 243.877,176.135 243.081,177.047 242.845 C 177.941 242.614,178.959 242.342,179.311 242.240 C 179.663 242.138,180.482 241.384,181.131 240.564 C 182.439 238.913,183.941 238.037,187.235 237.004 C 188.996 236.452,189.622 236.035,190.361 234.918 C 191.006 233.943,191.810 233.330,193.023 232.888 C 196.486 231.627,197.784 230.918,199.390 229.414 C 200.584 228.294,201.719 227.675,203.606 227.113 C 205.815 226.455,206.326 226.135,207.148 224.891 C 208.184 223.326,209.907 222.348,213.436 221.322 C 215.186 220.814,215.741 220.449,216.356 219.407 C 217.178 218.014,218.058 217.462,220.963 216.513 C 222.022 216.167,223.821 215.083,225.079 214.032 C 226.677 212.699,228.029 211.950,229.816 211.407 C 231.890 210.777,232.454 210.424,233.127 209.335 C 233.989 207.940,235.708 206.903,239.078 205.744 C 240.503 205.253,241.616 204.527,242.651 203.411 C 243.788 202.184,244.751 201.594,246.611 200.981 C 248.283 200.430,249.777 199.573,251.283 198.299 C 252.558 197.221,254.135 196.264,255.000 196.044 C 257.668 195.365,258.584 194.864,259.146 193.777 C 259.876 192.366,261.094 191.611,264.514 190.452 C 267.190 189.546,267.399 189.393,268.156 187.803 C 268.598 186.875,269.566 185.653,270.307 185.088 C 272.311 183.559,272.320 180.577,270.326 179.056 C 269.595 178.498,268.627 177.276,268.175 176.340 C 267.422 174.783,267.146 174.567,264.920 173.803 C 260.926 172.433,260.639 172.269,259.230 170.548 C 258.117 169.191,257.476 168.785,255.628 168.272 C 253.978 167.813,252.813 167.151,251.254 165.787 C 249.757 164.477,248.394 163.686,246.641 163.111 C 244.765 162.495,243.778 161.897,242.626 160.676 C 241.423 159.401,240.409 158.809,237.844 157.881 C 235.213 156.929,234.395 156.442,233.572 155.339 C 232.186 153.483,231.773 153.207,229.385 152.538 C 227.961 152.139,226.623 151.371,225.097 150.076 C 223.532 148.748,222.099 147.935,220.233 147.314 C 217.980 146.566,217.432 146.206,216.549 144.897 C 215.690 143.625,215.146 143.253,213.393 142.744 C 209.907 141.730,208.181 140.747,207.148 139.186 C 206.422 138.090,205.793 137.628,204.589 137.307 C 201.933 136.598,200.733 135.958,198.731 134.180 C 197.415 133.012,196.145 132.286,194.667 131.859 C 192.087 131.114,191.399 130.670,190.281 129.031 C 189.578 128.000,188.918 127.628,186.483 126.892 C 183.923 126.119,183.290 125.743,181.665 124.039 C 180.172 122.472,179.357 121.951,177.627 121.453 C 176.368 121.092,174.879 120.317,174.072 119.605 C 171.750 117.554,170.549 116.865,167.920 116.078 C 166.534 115.663,164.879 114.886,164.243 114.351 C 162.026 112.485,160.098 112.902,156.890 115.938 M176.079 136.947 C 176.888 137.562,178.694 138.413,180.094 138.839 C 182.229 139.488,182.801 139.846,183.648 141.067 C 184.204 141.867,185.080 142.679,185.594 142.872 C 186.109 143.064,187.753 143.679,189.249 144.238 C 191.517 145.085,192.149 145.517,193.059 146.840 C 194.009 148.219,194.460 148.509,196.526 149.069 C 198.293 149.547,199.447 150.177,201.030 151.528 C 202.201 152.527,203.964 153.631,204.947 153.981 C 205.931 154.331,207.214 154.795,207.798 155.011 C 208.383 155.227,209.289 156.051,209.812 156.840 C 210.516 157.904,211.162 158.382,212.303 158.685 C 215.171 159.445,218.301 161.165,219.012 162.372 C 219.772 163.662,221.048 164.421,223.071 164.787 C 223.924 164.942,225.350 165.781,226.857 167.017 C 228.187 168.107,229.760 169.178,230.353 169.398 C 230.946 169.618,232.213 170.075,233.169 170.415 C 234.424 170.861,235.179 171.443,235.883 172.507 C 236.477 173.404,237.260 174.075,237.887 174.221 C 243.852 175.620,245.463 177.282,245.463 182.039 C 245.463 186.797,243.852 188.459,237.887 189.857 C 237.260 190.004,236.477 190.674,235.883 191.572 C 235.179 192.635,234.424 193.218,233.169 193.663 C 232.213 194.003,230.948 194.460,230.358 194.679 C 229.767 194.897,228.336 195.891,227.177 196.887 C 225.635 198.213,224.386 198.904,222.518 199.466 C 220.370 200.113,219.844 200.441,219.196 201.538 C 218.342 202.986,216.136 204.262,212.825 205.225 C 211.126 205.719,210.567 206.089,209.954 207.129 C 209.197 208.412,208.380 208.897,204.934 210.110 C 203.943 210.459,202.189 211.570,201.036 212.579 C 199.825 213.639,198.294 214.588,197.412 214.826 C 194.532 215.603,193.852 215.984,193.116 217.232 C 192.304 218.608,190.773 219.497,187.091 220.730 C 185.129 221.388,184.466 221.824,183.663 222.986 C 182.857 224.151,182.201 224.581,180.223 225.239 C 178.879 225.686,177.054 226.544,176.168 227.145 C 174.085 228.556,173.916 228.539,171.934 226.712 C 169.398 224.374,169.509 226.407,169.506 182.083 C 169.504 137.456,169.378 139.723,171.990 137.315 C 173.924 135.532,174.190 135.508,176.079 136.947 M88.547 190.915 C 90.578 192.027,90.552 191.596,90.552 223.641 C 90.552 256.661,90.639 255.473,88.145 256.515 C 86.232 257.314,49.261 257.331,47.351 256.533 C 44.558 255.366,44.727 257.315,44.608 224.929 C 44.481 190.460,44.387 191.388,48.101 190.498 C 51.012 189.800,87.192 190.173,88.547 190.915 M358.706 190.915 C 360.738 192.027,360.711 191.590,360.710 223.723 C 360.710 257.134,360.829 255.640,358.092 256.574 C 356.019 257.280,319.211 257.243,317.510 256.533 C 314.717 255.366,314.886 257.315,314.767 224.929 C 314.640 190.460,314.546 191.388,318.260 190.498 C 321.171 189.800,357.351 190.173,358.706 190.915 M89.328 274.751 L 90.365 275.789 90.465 306.235 C 90.529 325.717,90.431 337.032,90.193 337.657 C 89.244 340.154,89.476 340.128,67.783 340.130 C 46.079 340.131,46.222 340.146,45.217 337.766 C 44.451 335.952,44.479 277.640,45.246 275.820 C 46.219 273.513,45.971 273.537,68.186 273.630 L 88.290 273.714 89.328 274.751 M359.487 274.751 L 360.524 275.789 360.615 306.369 C 360.716 339.833,360.816 338.294,358.461 339.476 C 357.269 340.073,355.478 340.130,337.755 340.130 C 316.258 340.131,316.380 340.144,315.376 337.766 C 314.610 335.952,314.638 277.640,315.405 275.820 C 316.378 273.513,316.131 273.537,338.345 273.630 L 358.449 273.714 359.487 274.751 " stroke="none" fill="#040404" fill-rule="evenodd"></path><path id="path1" d="M0.000 187.091 L 0.000 374.181 200.000 374.181 L 400.000 374.181 400.000 187.091 L 400.000 0.000 200.000 0.000 L 0.000 0.000 0.000 187.091 M377.119 3.441 C 379.609 4.221,380.318 4.852,381.175 7.054 C 382.142 9.538,382.434 351.835,381.472 355.641 C 380.706 358.672,379.927 359.635,377.519 360.524 C 374.317 361.706,31.308 361.706,28.072 360.524 C 25.595 359.619,24.652 358.375,23.912 355.035 C 23.129 351.506,23.122 12.088,23.904 8.980 C 24.967 4.757,25.827 3.941,30.013 3.180 C 34.685 2.331,374.389 2.587,377.119 3.441 M50.395 29.280 C 49.805 29.714,49.766 31.749,49.856 57.624 L 49.953 85.500 67.727 85.500 L 85.500 85.500 85.598 57.624 C 85.688 31.749,85.649 29.714,85.058 29.280 C 84.572 28.922,80.494 28.812,67.727 28.812 C 54.960 28.812,50.882 28.922,50.395 29.280 M112.468 29.400 C 111.746 30.123,111.546 333.195,112.268 334.543 C 112.653 335.263,290.905 335.754,292.766 335.039 C 293.791 334.646,293.660 29.748,292.635 29.199 C 291.289 28.479,113.190 28.678,112.468 29.400 M320.554 29.280 C 319.964 29.714,319.925 31.749,320.015 57.624 L 320.112 85.500 337.886 85.500 L 355.659 85.500 355.757 57.624 C 355.847 31.749,355.808 29.714,355.217 29.280 C 354.731 28.922,350.653 28.812,337.886 28.812 C 325.119 28.812,321.041 28.922,320.554 29.280 M171.210 107.606 C 172.180 108.079,172.949 108.836,173.457 109.819 C 174.185 111.228,174.396 111.356,177.198 112.081 C 180.992 113.063,182.114 113.682,183.322 115.461 C 184.148 116.678,184.638 116.984,186.480 117.433 C 188.164 117.844,189.047 118.341,190.360 119.618 C 192.327 121.530,193.226 122.038,196.116 122.868 C 198.337 123.506,198.795 123.877,199.769 125.819 C 200.312 126.902,200.690 127.106,203.453 127.805 C 207.409 128.805,208.329 129.320,209.195 131.018 C 209.585 131.781,210.201 132.492,210.564 132.598 C 210.928 132.703,211.983 132.985,212.909 133.224 C 214.036 133.515,215.212 134.242,216.465 135.425 C 217.495 136.397,219.094 137.458,220.020 137.784 C 220.945 138.109,222.376 138.609,223.199 138.894 C 224.406 139.312,224.855 139.747,225.517 141.138 C 226.261 142.703,226.488 142.888,227.949 143.114 C 232.147 143.763,233.878 144.627,235.210 146.738 C 235.957 147.921,236.378 148.179,238.173 148.551 C 239.856 148.901,240.697 149.371,242.474 150.957 C 244.028 152.343,245.326 153.128,246.850 153.603 C 250.301 154.678,250.757 154.979,251.476 156.656 C 252.063 158.026,252.343 158.268,253.579 158.470 C 257.220 159.066,259.808 160.280,260.893 161.900 C 261.907 163.414,262.617 163.811,265.429 164.437 C 266.017 164.567,267.364 165.488,268.422 166.483 C 269.480 167.478,271.272 168.743,272.404 169.296 C 273.536 169.848,274.879 170.504,275.389 170.754 C 279.186 172.612,279.186 191.444,275.389 193.332 C 274.879 193.586,273.637 194.179,272.628 194.651 C 271.619 195.124,269.805 196.392,268.597 197.469 C 267.389 198.547,265.941 199.530,265.380 199.654 C 262.629 200.263,261.903 200.671,260.893 202.178 C 259.808 203.798,257.220 205.012,253.579 205.609 C 252.343 205.811,252.063 206.052,251.476 207.423 C 250.756 209.102,250.303 209.400,246.827 210.483 C 245.288 210.962,244.035 211.714,242.619 213.009 C 241.120 214.379,239.994 215.034,238.232 215.563 C 236.263 216.154,235.708 216.511,234.956 217.674 C 233.763 219.517,232.629 220.037,227.082 221.285 C 226.425 221.433,225.941 221.910,225.617 222.727 C 224.867 224.622,224.226 225.161,222.139 225.652 C 219.510 226.270,218.463 226.850,216.070 229.017 C 214.945 230.036,213.731 230.871,213.373 230.872 C 211.444 230.878,209.896 231.687,209.200 233.052 C 208.329 234.759,207.413 235.272,203.453 236.274 C 200.690 236.973,200.312 237.176,199.769 238.260 C 198.811 240.171,198.349 240.560,196.330 241.160 C 193.490 242.003,191.341 243.145,190.671 244.167 C 189.818 245.468,188.515 246.225,186.265 246.725 C 184.577 247.099,184.154 247.384,183.224 248.769 C 182.023 250.557,181.479 250.847,177.198 251.980 C 174.403 252.720,174.183 252.854,173.457 254.260 C 172.073 256.937,170.904 257.248,162.208 257.249 C 151.397 257.250,149.939 256.621,148.763 251.452 C 147.883 247.582,147.880 116.365,148.760 112.630 C 150.001 107.365,151.841 106.608,162.978 106.781 C 168.746 106.870,169.950 106.991,171.210 107.606 M49.940 112.718 C 49.841 112.978,49.803 125.650,49.856 140.879 L 49.953 168.569 67.727 168.569 L 85.500 168.569 85.500 140.505 L 85.500 112.442 67.810 112.344 C 53.857 112.268,50.082 112.347,49.940 112.718 M320.099 112.718 C 320.000 112.978,319.962 125.650,320.015 140.879 L 320.112 168.569 337.886 168.569 L 355.659 168.569 355.659 140.505 L 355.659 112.442 337.969 112.344 C 324.016 112.268,320.241 112.347,320.099 112.718 M174.618 146.554 C 174.254 146.918,174.323 217.123,174.688 217.698 C 174.934 218.085,175.094 218.066,175.480 217.600 C 175.746 217.280,176.909 216.745,178.066 216.413 C 180.908 215.595,182.570 214.705,183.910 213.284 C 185.240 211.875,186.417 211.226,188.247 210.895 C 189.620 210.647,190.236 210.174,191.652 208.280 C 192.569 207.053,194.102 206.321,197.546 205.464 C 199.778 204.909,200.029 204.740,200.934 203.181 C 201.730 201.809,202.220 201.405,203.575 201.002 C 206.672 200.081,208.226 199.257,210.164 197.508 C 211.670 196.147,212.552 195.669,214.171 195.333 C 216.052 194.942,216.327 194.755,217.106 193.335 C 217.994 191.715,219.692 190.908,224.763 189.695 C 226.093 189.377,226.392 189.123,226.766 187.990 C 227.266 186.475,228.743 185.416,230.818 185.084 C 235.178 184.387,235.008 180.276,230.566 179.006 C 228.041 178.284,227.298 177.702,226.739 176.007 C 226.476 175.209,226.021 174.674,225.509 174.558 C 225.062 174.457,223.857 174.195,222.831 173.976 C 219.751 173.318,217.894 172.319,217.187 170.940 C 216.392 169.390,216.169 169.245,213.814 168.752 C 212.368 168.450,211.561 167.992,210.446 166.839 C 208.843 165.182,206.350 163.761,204.303 163.340 C 202.413 162.950,201.396 162.191,200.653 160.616 C 200.042 159.321,199.807 159.182,197.007 158.459 C 193.280 157.496,192.774 157.215,191.110 155.184 C 189.996 153.824,189.425 153.470,187.745 153.094 C 186.193 152.747,185.379 152.287,184.254 151.125 C 182.559 149.373,181.024 148.517,178.036 147.657 C 176.863 147.320,175.801 146.877,175.675 146.674 C 175.411 146.247,174.975 146.197,174.618 146.554 M49.940 195.787 C 49.841 196.046,49.803 208.718,49.856 223.948 L 49.953 251.637 67.727 251.637 L 85.500 251.637 85.500 223.573 L 85.500 195.510 67.810 195.413 C 53.857 195.336,50.082 195.415,49.940 195.787 M320.099 195.787 C 320.000 196.046,319.962 208.718,320.015 223.948 L 320.112 251.637 337.886 251.637 L 355.659 251.637 355.659 223.573 L 355.659 195.510 337.969 195.413 C 324.016 195.336,320.241 195.415,320.099 195.787 M50.019 278.637 C 49.404 279.252,49.738 334.802,50.358 335.039 C 51.248 335.381,84.679 335.301,85.222 334.957 C 85.594 334.721,85.672 328.803,85.596 306.618 L 85.500 278.578 67.886 278.481 C 58.199 278.428,50.158 278.498,50.019 278.637 M320.178 278.637 C 319.563 279.252,319.897 334.802,320.517 335.039 C 321.862 335.555,354.989 335.288,355.429 334.758 C 355.736 334.387,355.825 326.666,355.755 306.413 L 355.659 278.578 338.045 278.481 C 328.358 278.428,320.317 278.498,320.178 278.637 " stroke="none" fill="#fcfcfc" fill-rule="evenodd"></path><path id="path2" d="M34.675 6.350 C 32.901 6.693,27.950 11.417,27.224 13.459 C 26.289 16.087,26.564 349.291,27.502 351.179 C 28.698 353.586,32.955 357.377,34.881 357.749 C 36.928 358.145,368.148 358.147,370.556 357.751 C 372.915 357.363,377.765 352.755,378.317 350.378 C 378.760 348.468,378.766 15.640,378.324 13.732 C 377.783 11.401,372.840 6.704,370.527 6.323 C 368.270 5.952,36.599 5.978,34.675 6.350 M369.728 8.283 C 370.468 8.619,371.452 9.506,371.913 10.252 C 372.375 10.999,373.481 12.112,374.372 12.725 C 375.445 13.463,376.161 14.315,376.490 15.245 C 377.231 17.337,377.231 346.741,376.490 348.833 C 376.160 349.766,375.444 350.617,374.361 351.361 C 373.464 351.979,372.351 353.158,371.887 353.983 C 370.411 356.609,384.466 356.408,202.806 356.408 C 20.004 356.408,35.180 356.640,33.529 353.823 C 32.951 352.836,31.909 351.798,30.909 351.212 C 28.248 349.653,28.438 362.617,28.438 182.039 C 28.438 0.528,28.220 14.503,31.071 12.749 C 32.242 12.028,33.175 11.086,33.663 10.129 C 34.425 8.635,35.100 8.278,38.167 7.745 C 41.463 7.173,368.452 7.703,369.728 8.283 M46.890 24.677 C 44.606 26.070,44.715 24.448,44.715 57.063 C 44.715 89.647,44.667 88.902,46.807 90.008 C 48.134 90.695,86.284 90.827,88.221 90.152 C 90.632 89.311,90.552 90.443,90.552 57.268 C 90.552 24.005,90.667 25.549,88.107 24.479 C 85.838 23.532,48.475 23.711,46.890 24.677 M109.341 24.511 C 106.813 25.610,107.016 11.856,107.016 182.039 C 107.016 352.724,106.798 338.487,109.423 339.583 C 111.337 340.383,294.200 340.415,296.112 339.616 C 298.606 338.574,298.410 352.035,298.410 182.039 C 298.410 53.585,298.325 27.302,297.907 26.313 C 296.826 23.750,304.750 23.946,202.750 23.962 C 123.715 23.975,110.395 24.053,109.341 24.511 M317.342 24.421 C 314.708 25.775,314.874 23.585,314.874 56.996 C 314.874 89.653,314.826 88.902,316.966 90.008 C 318.293 90.695,356.443 90.827,358.380 90.152 C 360.791 89.311,360.711 90.443,360.711 57.268 C 360.711 24.005,360.826 25.549,358.266 24.479 C 356.522 23.751,318.751 23.697,317.342 24.421 M86.610 25.976 C 89.165 27.044,89.055 25.623,89.055 57.643 L 89.055 86.511 87.783 87.783 L 86.511 89.055 67.727 89.055 L 48.943 89.055 47.671 87.783 L 46.399 86.511 46.399 57.370 C 46.399 25.141,46.251 27.085,48.785 25.982 C 50.543 25.217,84.780 25.212,86.610 25.976 M294.257 25.966 C 294.944 26.253,295.780 26.880,296.116 27.359 C 296.677 28.161,296.726 40.453,296.726 182.117 L 296.726 336.003 295.634 337.225 L 294.542 338.447 203.366 338.543 C 103.388 338.648,110.452 338.801,109.222 336.503 C 108.778 335.673,108.700 312.606,108.700 182.010 L 108.700 28.493 109.484 27.436 C 109.916 26.855,110.673 26.172,111.168 25.918 C 112.586 25.189,292.510 25.236,294.257 25.966 M356.769 25.976 C 359.324 27.044,359.214 25.623,359.214 57.643 L 359.214 86.511 357.942 87.783 L 356.670 89.055 338.092 89.055 C 317.939 89.055,317.937 89.055,317.005 87.008 C 316.670 86.274,316.558 78.736,316.558 57.128 C 316.558 25.168,316.411 27.085,318.944 25.982 C 320.702 25.217,354.939 25.212,356.769 25.976 M47.147 107.671 C 44.609 108.940,44.725 107.481,44.618 139.570 C 44.514 171.188,44.534 171.547,46.519 173.023 C 47.875 174.030,84.923 174.470,87.746 173.512 C 90.705 172.507,90.551 174.324,90.551 140.587 C 90.552 107.402,90.640 108.606,88.145 107.564 C 85.986 106.661,48.974 106.759,47.147 107.671 M317.306 107.671 C 314.768 108.940,314.884 107.481,314.778 139.570 C 314.673 171.188,314.693 171.547,316.678 173.023 C 318.010 174.012,354.484 174.458,357.717 173.525 C 360.892 172.608,360.710 174.622,360.710 140.505 C 360.710 106.927,360.830 108.438,358.092 107.505 C 355.720 106.696,318.957 106.846,317.306 107.671 M87.220 109.360 C 89.087 110.629,89.055 110.081,89.055 140.747 L 89.055 169.579 87.783 170.851 L 86.511 172.123 67.933 172.123 C 47.780 172.123,47.778 172.123,46.846 170.076 C 46.132 168.509,46.210 112.208,46.928 110.819 C 47.452 109.806,48.507 109.085,49.953 108.754 C 52.481 108.175,86.285 108.724,87.220 109.360 M355.916 108.900 C 356.675 109.111,357.727 109.796,358.255 110.423 L 359.214 111.563 359.214 140.571 L 359.214 169.579 357.942 170.851 L 356.670 172.123 337.830 172.115 C 317.286 172.106,318.096 172.188,316.976 169.997 C 316.678 169.415,316.558 160.800,316.558 140.176 L 316.558 111.174 317.405 110.188 C 317.872 109.646,318.840 109.064,319.557 108.896 C 321.509 108.437,354.262 108.440,355.916 108.900 M158.092 110.806 C 156.662 111.647,152.304 116.378,152.018 117.400 C 151.634 118.773,151.647 245.348,152.031 246.729 C 152.414 248.104,157.486 253.202,158.800 253.531 C 161.406 254.185,164.532 253.544,166.910 251.867 C 168.162 250.984,170.395 249.764,171.871 249.155 C 173.348 248.547,175.145 247.475,175.865 246.774 C 176.586 246.072,178.644 244.820,180.440 243.991 C 182.235 243.163,184.355 241.897,185.149 241.179 C 185.944 240.461,187.733 239.363,189.125 238.739 C 190.517 238.114,192.401 236.947,193.311 236.146 C 194.231 235.336,196.272 234.162,197.903 233.505 C 199.610 232.817,201.290 231.840,201.916 231.170 C 202.509 230.537,204.421 229.352,206.165 228.537 C 207.909 227.723,210.110 226.408,211.056 225.616 C 212.002 224.824,214.027 223.579,215.556 222.848 C 217.084 222.118,219.170 220.853,220.191 220.037 C 221.211 219.222,223.063 218.175,224.307 217.710 C 225.550 217.246,227.257 216.230,228.101 215.453 C 228.944 214.676,230.881 213.472,232.404 212.777 C 233.927 212.082,235.931 210.879,236.857 210.103 C 237.783 209.327,239.727 208.151,241.176 207.490 C 242.625 206.828,244.417 205.755,245.157 205.105 C 245.897 204.456,248.079 203.188,250.006 202.289 C 251.932 201.390,253.929 200.190,254.443 199.623 C 254.958 199.056,256.726 197.965,258.372 197.200 C 260.019 196.434,262.119 195.176,263.039 194.403 C 263.959 193.631,265.753 192.507,267.025 191.906 C 268.297 191.305,269.633 190.362,269.994 189.811 C 270.355 189.259,271.466 187.993,272.463 186.996 L 274.275 185.184 274.275 182.371 C 274.275 180.824,274.095 179.222,273.875 178.811 C 272.955 177.091,268.042 172.552,266.275 171.789 C 265.270 171.355,263.814 170.426,263.038 169.726 C 262.263 169.025,260.306 167.826,258.690 167.062 C 257.075 166.297,255.072 165.047,254.240 164.284 C 253.400 163.514,251.539 162.430,250.059 161.849 C 248.592 161.273,246.579 160.129,245.585 159.305 C 244.592 158.481,242.593 157.265,241.144 156.603 C 239.694 155.941,237.908 154.871,237.173 154.226 C 235.875 153.086,231.682 150.795,230.895 150.795 C 230.680 150.795,229.618 149.995,228.535 149.017 C 227.284 147.887,225.611 146.865,223.943 146.213 C 222.500 145.648,220.479 144.490,219.453 143.639 C 218.426 142.788,216.408 141.553,214.967 140.894 C 213.527 140.235,211.583 139.033,210.649 138.223 C 209.714 137.413,207.886 136.333,206.585 135.822 C 205.267 135.304,203.337 134.121,202.222 133.150 C 201.123 132.192,199.584 131.201,198.802 130.948 C 196.605 130.237,194.861 129.273,193.078 127.783 C 192.180 127.033,190.365 125.930,189.045 125.331 C 187.725 124.732,186.032 123.705,185.284 123.048 C 184.535 122.391,182.505 121.189,180.773 120.377 C 179.040 119.565,176.933 118.265,176.089 117.488 C 175.246 116.712,173.461 115.634,172.123 115.093 C 170.786 114.552,168.534 113.313,167.119 112.341 C 164.345 110.433,159.987 109.692,158.092 110.806 M164.243 114.351 C 164.879 114.886,166.534 115.663,167.920 116.078 C 170.549 116.865,171.750 117.554,174.072 119.605 C 174.879 120.317,176.368 121.092,177.627 121.453 C 179.357 121.951,180.172 122.472,181.665 124.039 C 183.290 125.743,183.923 126.119,186.483 126.892 C 188.918 127.628,189.578 128.000,190.281 129.031 C 191.399 130.670,192.087 131.114,194.667 131.859 C 196.145 132.286,197.415 133.012,198.731 134.180 C 200.733 135.958,201.933 136.598,204.589 137.307 C 205.793 137.628,206.422 138.090,207.148 139.186 C 208.181 140.747,209.907 141.730,213.393 142.744 C 215.146 143.253,215.690 143.625,216.549 144.897 C 217.432 146.206,217.980 146.566,220.233 147.314 C 222.099 147.935,223.532 148.748,225.097 150.076 C 226.623 151.371,227.961 152.139,229.385 152.538 C 231.773 153.207,232.186 153.483,233.572 155.339 C 234.395 156.442,235.213 156.929,237.844 157.881 C 240.409 158.809,241.423 159.401,242.626 160.676 C 243.778 161.897,244.765 162.495,246.641 163.111 C 248.394 163.686,249.757 164.477,251.254 165.787 C 252.813 167.151,253.978 167.813,255.628 168.272 C 257.476 168.785,258.117 169.191,259.230 170.548 C 260.639 172.269,260.926 172.433,264.920 173.803 C 267.146 174.567,267.422 174.783,268.175 176.340 C 268.627 177.276,269.595 178.498,270.326 179.056 C 272.320 180.577,272.311 183.559,270.307 185.088 C 269.566 185.653,268.598 186.875,268.156 187.803 C 267.399 189.393,267.190 189.546,264.514 190.452 C 261.094 191.611,259.876 192.366,259.146 193.777 C 258.584 194.864,257.668 195.365,255.000 196.044 C 254.135 196.264,252.558 197.221,251.283 198.299 C 249.777 199.573,248.283 200.430,246.611 200.981 C 244.751 201.594,243.788 202.184,242.651 203.411 C 241.616 204.527,240.503 205.253,239.078 205.744 C 235.708 206.903,233.989 207.940,233.127 209.335 C 232.454 210.424,231.890 210.777,229.816 211.407 C 228.029 211.950,226.677 212.699,225.079 214.032 C 223.821 215.083,222.022 216.167,220.963 216.513 C 218.058 217.462,217.178 218.014,216.356 219.407 C 215.741 220.449,215.186 220.814,213.436 221.322 C 209.907 222.348,208.184 223.326,207.148 224.891 C 206.326 226.135,205.815 226.455,203.606 227.113 C 201.719 227.675,200.584 228.294,199.390 229.414 C 197.784 230.918,196.486 231.627,193.023 232.888 C 191.810 233.330,191.006 233.943,190.361 234.918 C 189.622 236.035,188.996 236.452,187.235 237.004 C 183.941 238.037,182.439 238.913,181.131 240.564 C 180.482 241.384,179.663 242.138,179.311 242.240 C 178.959 242.342,177.941 242.614,177.047 242.845 C 176.135 243.081,174.741 243.877,173.867 244.663 C 171.694 246.613,170.684 247.189,168.153 247.916 C 166.941 248.265,165.285 249.034,164.473 249.626 C 160.942 252.198,154.538 248.446,153.442 243.163 C 152.798 240.061,153.056 121.062,153.709 119.583 C 155.701 115.076,161.614 112.139,164.243 114.351 M171.990 137.315 C 169.378 139.723,169.504 137.456,169.506 182.083 C 169.509 226.407,169.398 224.374,171.934 226.712 C 173.916 228.539,174.085 228.556,176.168 227.145 C 177.054 226.544,178.879 225.686,180.223 225.239 C 182.201 224.581,182.857 224.151,183.663 222.986 C 184.466 221.824,185.129 221.388,187.091 220.730 C 190.773 219.497,192.304 218.608,193.116 217.232 C 193.852 215.984,194.532 215.603,197.412 214.826 C 198.294 214.588,199.825 213.639,201.036 212.579 C 202.189 211.570,203.943 210.459,204.934 210.110 C 208.380 208.897,209.197 208.412,209.954 207.129 C 210.567 206.089,211.126 205.719,212.825 205.225 C 216.136 204.262,218.342 202.986,219.196 201.538 C 219.844 200.441,220.370 200.113,222.518 199.466 C 224.386 198.904,225.635 198.213,227.177 196.887 C 228.336 195.891,229.767 194.897,230.358 194.679 C 230.948 194.460,232.213 194.003,233.169 193.663 C 234.424 193.218,235.179 192.635,235.883 191.572 C 236.477 190.674,237.260 190.004,237.887 189.857 C 243.852 188.459,245.463 186.797,245.463 182.039 C 245.463 177.282,243.852 175.620,237.887 174.221 C 237.260 174.075,236.477 173.404,235.883 172.507 C 235.179 171.443,234.424 170.861,233.169 170.415 C 232.213 170.075,230.946 169.618,230.353 169.398 C 229.760 169.178,228.187 168.107,226.857 167.017 C 225.350 165.781,223.924 164.942,223.071 164.787 C 221.048 164.421,219.772 163.662,219.012 162.372 C 218.301 161.165,215.171 159.445,212.303 158.685 C 211.162 158.382,210.516 157.904,209.812 156.840 C 209.289 156.051,208.383 155.227,207.798 155.011 C 207.214 154.795,205.931 154.331,204.947 153.981 C 203.964 153.631,202.201 152.527,201.030 151.528 C 199.447 150.177,198.293 149.547,196.526 149.069 C 194.460 148.509,194.009 148.219,193.059 146.840 C 192.149 145.517,191.517 145.085,189.249 144.238 C 187.753 143.679,186.109 143.064,185.594 142.872 C 185.080 142.679,184.204 141.867,183.648 141.067 C 182.801 139.846,182.229 139.488,180.094 138.839 C 178.694 138.413,176.888 137.562,176.079 136.947 C 174.190 135.508,173.924 135.532,171.990 137.315 M177.678 140.508 C 178.777 141.020,180.414 142.087,181.315 142.880 C 182.215 143.673,183.926 144.694,185.115 145.148 C 186.305 145.603,188.080 146.650,189.061 147.476 C 190.041 148.302,192.146 149.573,193.738 150.300 C 195.330 151.027,197.306 152.261,198.129 153.043 C 198.995 153.865,200.826 154.958,202.474 155.637 C 204.041 156.281,205.977 157.356,206.777 158.025 C 208.730 159.657,209.835 160.323,211.497 160.867 C 212.263 161.118,213.695 162.004,214.677 162.835 C 215.660 163.666,217.979 165.066,219.832 165.947 C 221.754 166.861,223.753 168.128,224.489 168.900 C 225.198 169.644,225.925 170.253,226.104 170.253 C 226.980 170.253,232.011 172.928,233.559 174.217 C 234.523 175.021,236.157 175.977,237.190 176.343 C 243.503 178.575,243.563 185.482,237.289 187.701 C 236.201 188.086,234.523 189.058,233.559 189.861 C 232.011 191.150,226.980 193.826,226.104 193.826 C 225.925 193.826,225.198 194.438,224.489 195.186 C 223.742 195.974,221.862 197.167,220.019 198.024 C 218.269 198.837,216.068 200.146,215.128 200.933 C 214.187 201.720,212.250 202.893,210.824 203.539 C 209.399 204.185,207.727 205.180,207.109 205.751 C 205.572 207.171,204.495 207.789,201.871 208.759 C 200.558 209.245,199.005 210.190,198.129 211.036 C 197.306 211.832,195.370 213.058,193.826 213.761 C 192.283 214.464,190.262 215.677,189.336 216.457 C 188.410 217.237,186.466 218.416,185.017 219.077 C 183.567 219.739,181.799 220.787,181.088 221.407 C 176.947 225.016,173.396 225.488,171.797 222.642 L 171.001 221.226 171.001 182.057 C 171.001 153.778,171.118 142.661,171.422 142.071 C 172.809 139.377,174.397 138.980,177.678 140.508 M48.101 190.498 C 44.387 191.388,44.481 190.460,44.608 224.929 C 44.727 257.315,44.558 255.366,47.351 256.533 C 49.261 257.331,86.232 257.314,88.145 256.515 C 90.639 255.473,90.552 256.661,90.552 223.641 C 90.552 191.596,90.578 192.027,88.547 190.915 C 87.192 190.173,51.012 189.800,48.101 190.498 M318.260 190.498 C 314.546 191.388,314.640 190.460,314.767 224.929 C 314.886 257.315,314.717 255.366,317.510 256.533 C 319.211 257.243,356.019 257.280,358.092 256.574 C 360.829 255.640,360.710 257.134,360.710 223.723 C 360.711 191.590,360.738 192.027,358.706 190.915 C 357.351 190.173,321.171 189.800,318.260 190.498 M87.783 193.227 L 89.055 194.500 89.054 223.442 C 89.052 256.175,89.221 254.321,86.175 255.167 C 84.237 255.705,51.216 255.705,49.279 255.167 C 46.233 254.321,46.400 256.161,46.413 223.573 C 46.423 200.375,46.522 194.587,46.921 193.867 C 47.969 191.976,47.892 191.983,67.858 191.968 L 86.511 191.955 87.783 193.227 M357.942 193.227 L 359.214 194.500 359.214 223.331 C 359.214 244.322,359.097 252.421,358.782 253.111 C 357.736 255.407,358.058 255.368,339.196 255.494 C 319.839 255.623,319.129 255.576,317.619 254.066 L 316.558 253.004 316.571 223.883 C 316.581 200.429,316.681 194.587,317.080 193.867 C 318.128 191.976,318.051 191.983,338.017 191.968 L 356.670 191.955 357.942 193.227 M46.930 274.053 C 44.654 275.054,44.715 274.157,44.715 306.829 C 44.715 339.493,44.643 338.445,46.957 339.543 C 49.100 340.560,86.904 340.413,88.597 339.381 C 90.609 338.154,90.572 338.817,90.465 306.235 L 90.365 275.789 89.328 274.751 L 88.290 273.714 68.186 273.630 C 51.954 273.562,47.860 273.643,46.930 274.053 M317.089 274.053 C 314.813 275.054,314.874 274.157,314.874 306.829 C 314.874 339.493,314.802 338.445,317.116 339.543 C 319.097 340.484,356.574 340.422,358.461 339.476 C 360.816 338.294,360.716 339.833,360.615 306.369 L 360.524 275.789 359.487 274.751 L 358.449 273.714 338.345 273.630 C 322.113 273.562,318.019 273.643,317.089 274.053 M87.783 276.296 L 89.055 277.568 89.055 306.436 C 89.055 338.147,89.146 336.865,86.803 338.077 C 85.831 338.579,83.266 338.641,67.134 338.551 L 48.582 338.447 47.490 337.225 L 46.399 336.003 46.399 306.785 L 46.399 277.568 47.671 276.296 L 48.943 275.023 67.727 275.023 L 86.511 275.023 87.783 276.296 M357.990 276.248 L 359.027 277.285 359.127 306.281 C 359.238 338.191,359.329 336.853,356.962 338.077 C 355.990 338.579,353.425 338.641,337.293 338.551 L 318.741 338.447 317.649 337.225 L 316.558 336.003 316.558 306.785 L 316.558 277.568 317.840 276.286 L 319.122 275.003 338.037 275.107 L 356.953 275.210 357.990 276.248 " stroke="none" fill="#2c2c2c" fill-rule="evenodd"></path><path id="path3" d="M33.295 3.732 C 29.212 4.259,25.981 6.897,24.881 10.600 C 23.999 13.571,24.035 350.619,24.918 353.627 C 25.673 356.200,28.666 359.291,31.119 360.033 C 33.670 360.805,371.695 360.756,374.369 359.983 C 376.948 359.238,379.818 356.368,380.563 353.789 C 381.031 352.170,381.104 328.988,381.104 181.665 L 381.104 11.413 380.321 9.729 C 378.560 5.941,376.258 4.317,371.836 3.742 C 368.666 3.330,36.483 3.321,33.295 3.732 M373.620 5.294 C 375.561 6.361,379.306 10.568,379.755 12.183 C 380.337 14.280,380.337 349.792,379.754 351.918 C 379.173 354.042,374.575 358.615,372.452 359.181 C 369.390 359.996,33.384 359.548,31.879 358.727 C 29.710 357.543,26.280 353.798,25.745 352.031 C 25.033 349.681,25.021 14.434,25.733 12.093 C 26.157 10.695,28.591 7.777,30.781 6.038 C 32.773 4.456,25.513 4.517,203.368 4.599 C 359.727 4.671,372.582 4.724,373.620 5.294 M49.510 27.312 C 47.895 27.974,47.895 27.962,47.895 57.599 C 47.895 85.563,47.908 86.075,48.644 86.810 C 49.372 87.538,49.891 87.558,67.700 87.558 L 86.007 87.558 86.783 86.573 C 87.954 85.084,88.011 29.454,86.843 28.012 L 86.128 27.128 68.228 27.053 C 58.355 27.011,49.961 27.128,49.510 27.312 M111.888 27.420 C 111.377 27.679,110.748 28.309,110.490 28.819 C 109.868 30.048,109.781 333.378,110.402 335.159 C 111.129 337.246,106.075 337.138,202.961 337.138 L 293.257 337.138 294.243 336.362 L 295.229 335.586 295.229 182.070 L 295.229 28.554 294.442 27.841 C 293.438 26.932,113.666 26.518,111.888 27.420 M319.925 27.207 C 317.941 27.936,318.054 26.119,318.054 57.308 C 318.054 85.563,318.067 86.075,318.803 86.810 C 319.531 87.538,320.050 87.558,337.859 87.558 L 356.166 87.558 356.942 86.573 C 357.711 85.595,357.717 85.350,357.712 57.667 C 357.707 27.511,357.746 28.291,356.192 27.487 C 355.129 26.938,321.367 26.677,319.925 27.207 M85.712 28.451 C 86.418 28.829,86.436 29.546,86.436 57.459 L 86.436 86.080 85.448 86.456 C 83.870 87.056,49.936 86.756,49.317 86.137 C 48.393 85.212,48.626 29.275,49.557 28.595 C 50.466 27.930,84.486 27.795,85.712 28.451 M293.732 28.812 C 294.771 29.850,294.935 333.703,293.898 335.183 L 293.316 336.015 202.812 336.015 C 121.034 336.015,112.251 335.958,111.720 335.427 C 110.791 334.498,110.822 29.775,111.751 28.748 C 112.770 27.622,292.606 27.685,293.732 28.812 M355.871 28.451 C 356.682 28.885,357.029 84.796,356.229 86.062 C 355.735 86.843,320.255 86.916,319.476 86.137 C 318.525 85.185,318.590 29.773,319.544 28.819 C 320.411 27.952,354.297 27.609,355.871 28.451 M156.764 107.873 C 153.420 108.827,151.362 110.553,149.972 113.569 L 149.111 115.435 149.111 181.665 C 149.111 254.926,148.944 250.092,151.586 253.093 C 155.701 257.768,167.842 257.988,171.910 253.461 C 173.019 252.227,173.905 251.653,175.354 251.232 C 177.248 250.682,177.815 250.345,181.095 247.826 C 181.949 247.170,183.798 246.193,185.205 245.656 C 187.246 244.876,187.958 244.385,188.722 243.231 C 189.507 242.044,190.068 241.670,191.835 241.157 C 194.961 240.248,196.840 239.195,198.245 237.562 C 199.093 236.578,200.051 235.956,201.284 235.589 C 203.723 234.865,205.042 234.138,206.283 232.831 C 207.249 231.814,209.001 230.878,212.086 229.727 C 212.765 229.474,213.895 228.566,214.597 227.710 C 215.682 226.385,216.309 226.021,218.788 225.275 C 221.252 224.534,221.969 224.120,223.428 222.596 C 224.700 221.266,225.794 220.560,227.587 219.909 C 228.936 219.420,230.839 218.336,231.855 217.479 C 232.864 216.628,234.950 215.416,236.490 214.787 C 238.506 213.962,239.708 213.182,240.786 212.000 C 242.032 210.633,242.750 210.221,245.078 209.540 C 247.486 208.835,248.135 208.449,249.760 206.758 C 251.265 205.191,252.035 204.701,253.568 204.334 C 254.882 204.018,256.109 203.344,257.448 202.201 C 259.679 200.297,260.558 199.804,263.368 198.886 C 264.958 198.366,265.607 197.894,266.521 196.598 C 267.397 195.355,268.105 194.821,269.481 194.364 C 274.613 192.659,277.081 188.657,277.081 182.039 C 277.081 175.378,274.620 171.422,269.397 169.687 C 267.948 169.205,267.293 168.725,266.607 167.638 C 265.883 166.490,265.209 166.026,263.094 165.218 C 261.654 164.668,259.778 163.681,258.925 163.026 C 255.639 160.501,255.076 160.169,253.120 159.600 C 251.624 159.166,250.842 158.671,250.090 157.685 C 248.967 156.212,246.476 154.803,243.811 154.132 C 242.481 153.797,241.752 153.308,240.738 152.071 C 239.795 150.920,238.814 150.227,237.354 149.681 C 234.401 148.576,233.390 148.000,231.444 146.316 C 230.356 145.374,228.926 144.590,227.585 144.200 C 226.002 143.740,225.068 143.171,223.953 141.985 C 222.256 140.182,221.118 139.536,218.080 138.653 C 216.400 138.165,215.687 137.700,214.622 136.400 C 213.792 135.388,212.745 134.589,211.879 134.309 C 209.595 133.569,207.174 132.230,206.174 131.152 C 205.042 129.933,203.699 129.206,201.207 128.466 C 199.897 128.077,198.920 127.453,197.980 126.404 C 196.442 124.687,194.904 123.814,191.859 122.929 C 190.273 122.468,189.512 122.004,188.890 121.117 C 187.772 119.523,187.264 119.167,184.846 118.274 C 182.856 117.540,182.294 117.195,178.880 114.610 C 178.009 113.951,176.421 113.156,175.350 112.845 C 173.908 112.426,173.017 111.850,171.915 110.623 C 169.536 107.976,161.513 106.519,156.764 107.873 M167.041 109.583 C 167.890 109.959,169.508 110.966,170.635 111.820 C 171.762 112.675,173.467 113.636,174.424 113.954 C 175.380 114.273,177.116 115.368,178.281 116.388 C 179.446 117.407,180.600 118.241,180.845 118.242 C 181.839 118.242,185.881 120.508,187.359 121.892 C 188.257 122.734,189.876 123.713,191.119 124.166 C 192.320 124.604,194.477 125.850,195.914 126.934 C 197.350 128.018,199.362 129.203,200.385 129.567 C 201.408 129.931,203.054 130.973,204.042 131.883 C 205.030 132.793,206.462 133.739,207.223 133.985 C 209.636 134.766,211.554 135.862,213.096 137.345 C 213.967 138.181,215.711 139.237,217.264 139.867 C 218.732 140.463,220.921 141.723,222.128 142.667 C 223.335 143.611,225.259 144.733,226.404 145.158 C 227.550 145.584,228.981 146.460,229.585 147.105 C 230.189 147.749,232.264 149.017,234.196 149.922 C 236.173 150.848,238.521 152.298,239.568 153.239 C 240.591 154.159,241.620 154.913,241.855 154.915 C 242.726 154.922,246.306 156.810,247.852 158.076 C 248.730 158.796,250.698 159.958,252.226 160.658 C 253.754 161.359,255.426 162.393,255.940 162.955 C 256.455 163.518,258.559 164.777,260.617 165.754 C 262.727 166.755,264.849 168.058,265.482 168.742 C 266.099 169.409,267.446 170.341,268.475 170.813 C 274.411 173.534,277.802 180.907,275.571 186.245 C 274.791 188.113,270.340 192.550,268.513 193.281 C 267.698 193.607,266.163 194.668,265.101 195.638 C 263.834 196.796,262.223 197.774,260.414 198.484 C 258.819 199.110,257.008 200.163,256.118 200.984 C 255.271 201.764,253.442 202.913,252.052 203.537 C 250.662 204.160,248.569 205.418,247.400 206.333 C 246.232 207.247,244.301 208.358,243.109 208.801 C 241.901 209.250,240.052 210.380,238.933 211.352 C 237.743 212.385,235.806 213.549,234.178 214.207 C 232.667 214.817,230.758 215.932,229.935 216.684 C 229.111 217.436,227.175 218.661,225.631 219.405 C 224.088 220.150,222.009 221.412,221.012 222.211 C 220.015 223.010,218.267 223.980,217.128 224.367 C 215.892 224.787,214.257 225.771,213.070 226.809 C 211.894 227.838,209.996 228.983,208.420 229.615 C 206.832 230.252,205.091 231.305,204.109 232.222 C 203.169 233.101,201.517 234.114,200.260 234.585 C 199.048 235.038,197.231 236.095,196.222 236.934 C 194.457 238.403,191.135 240.213,190.192 240.221 C 189.942 240.223,188.737 241.118,187.513 242.210 C 185.990 243.569,184.421 244.532,182.541 245.261 C 180.828 245.925,179.160 246.911,178.108 247.882 C 177.181 248.738,175.540 249.755,174.462 250.143 C 173.385 250.530,171.621 251.515,170.544 252.330 C 164.505 256.901,158.277 256.805,153.546 252.070 C 149.719 248.239,150.051 254.900,150.051 182.039 C 150.051 109.878,149.783 115.863,153.171 112.334 C 156.954 108.393,162.061 107.380,167.041 109.583 M48.644 111.132 C 47.908 111.867,47.895 112.379,47.895 140.505 C 47.895 168.631,47.908 169.143,48.644 169.878 C 49.372 170.606,49.891 170.627,67.712 170.627 L 86.033 170.627 86.796 169.808 C 87.984 168.532,87.998 112.320,86.810 111.132 C 86.082 110.404,85.563 110.384,67.727 110.384 C 49.891 110.384,49.372 110.404,48.644 111.132 M318.637 111.215 C 317.610 112.681,317.769 168.845,318.803 169.878 C 319.531 170.606,320.050 170.627,337.859 170.627 L 356.166 170.627 356.942 169.641 C 357.867 168.465,358.195 113.486,357.287 111.762 C 356.567 110.393,356.595 110.395,337.626 110.389 L 319.219 110.384 318.637 111.215 M85.712 111.519 C 86.848 112.127,86.848 168.883,85.712 169.491 C 84.486 170.147,50.466 170.012,49.557 169.347 C 48.418 168.514,48.418 112.496,49.557 111.663 C 50.466 110.998,84.486 110.863,85.712 111.519 M356.007 111.720 C 356.697 112.410,356.912 168.049,356.229 169.130 C 355.703 169.963,320.856 170.180,319.730 169.358 C 318.579 168.516,318.565 112.505,319.716 111.663 C 320.863 110.824,355.165 110.878,356.007 111.720 M173.198 142.059 C 172.555 142.835,172.228 219.634,172.861 221.300 C 173.617 223.289,175.106 223.060,178.519 220.433 C 179.838 219.417,182.026 218.144,183.382 217.603 C 184.897 216.999,186.396 216.057,187.274 215.158 C 188.218 214.191,189.695 213.295,191.629 212.516 C 193.261 211.858,195.294 210.686,196.224 209.868 C 197.141 209.061,198.871 207.968,200.068 207.439 C 201.265 206.910,203.345 205.663,204.689 204.667 C 206.033 203.672,208.102 202.494,209.288 202.051 C 210.476 201.606,212.346 200.461,213.452 199.500 C 214.641 198.467,216.582 197.301,218.207 196.644 C 219.730 196.027,221.509 194.978,222.199 194.288 C 222.884 193.604,224.820 192.380,226.502 191.568 C 228.184 190.757,230.362 189.450,231.342 188.664 C 232.322 187.878,234.005 186.927,235.084 186.549 C 238.161 185.471,238.728 184.768,238.728 182.032 C 238.728 179.287,238.397 178.886,235.052 177.575 C 233.789 177.080,231.784 175.914,230.597 174.984 C 229.409 174.053,227.338 172.800,225.995 172.199 C 224.651 171.598,222.933 170.523,222.178 169.811 C 221.423 169.099,219.575 168.025,218.073 167.426 C 216.370 166.746,214.680 165.722,213.584 164.706 C 212.526 163.726,210.766 162.646,209.163 161.994 C 207.699 161.398,205.522 160.142,204.327 159.202 C 203.131 158.263,201.261 157.156,200.171 156.741 C 199.080 156.327,197.395 155.275,196.426 154.404 C 195.361 153.446,193.576 152.393,191.911 151.740 C 190.157 151.051,188.537 150.078,187.443 149.055 C 186.407 148.085,184.671 147.020,183.056 146.363 C 181.586 145.765,179.577 144.606,178.592 143.787 C 175.623 141.319,174.193 140.861,173.198 142.059 M176.401 144.247 C 177.560 145.767,178.525 146.320,181.939 147.423 C 183.941 148.069,184.677 148.537,185.744 149.839 C 186.774 151.096,187.609 151.644,189.519 152.318 C 191.057 152.862,192.757 153.849,194.082 154.969 C 195.383 156.069,197.051 157.044,198.426 157.509 C 199.967 158.029,201.254 158.826,202.578 160.078 C 204.077 161.496,205.149 162.112,207.480 162.895 C 209.867 163.698,210.725 164.200,211.779 165.410 C 212.686 166.451,213.971 167.300,215.905 168.135 C 217.450 168.801,219.661 170.118,220.819 171.061 C 222.199 172.186,223.566 172.930,224.791 173.224 C 226.234 173.570,227.054 174.085,228.406 175.496 C 229.999 177.159,233.196 178.859,234.730 178.859 C 236.068 178.859,236.857 180.014,236.851 181.967 C 236.844 184.520,236.798 184.568,233.230 185.749 C 230.407 186.683,227.877 188.415,227.877 189.413 C 227.877 189.802,225.905 190.696,223.948 191.194 C 223.081 191.414,221.551 192.348,220.314 193.410 C 218.973 194.563,217.191 195.623,215.531 196.257 C 213.562 197.010,212.587 197.639,211.722 198.714 C 210.772 199.897,210.008 200.343,207.525 201.166 C 205.081 201.977,204.135 202.523,202.663 203.972 C 201.353 205.263,200.190 205.990,198.547 206.544 C 197.128 207.023,195.430 208.005,194.078 209.129 C 192.839 210.160,190.782 211.380,189.315 211.956 C 187.424 212.698,186.426 213.355,185.592 214.409 C 184.652 215.596,183.914 216.025,181.375 216.861 C 178.865 217.688,178.008 218.181,176.727 219.539 C 173.567 222.887,173.820 226.005,173.711 182.408 C 173.658 161.214,173.695 143.662,173.793 143.405 C 174.128 142.525,175.402 142.936,176.401 144.247 M48.644 194.200 C 47.497 195.347,47.465 251.583,48.610 252.999 L 49.325 253.882 66.477 253.995 C 84.696 254.115,85.694 254.062,86.831 252.926 C 88.000 251.756,87.967 195.528,86.796 194.271 L 86.033 193.452 67.712 193.452 C 49.891 193.452,49.372 193.472,48.644 194.200 M318.803 194.200 C 317.656 195.347,317.624 251.583,318.769 252.999 L 319.484 253.882 336.824 253.998 C 355.388 254.122,356.525 254.032,357.282 252.371 C 358.193 250.372,357.872 195.620,356.942 194.438 L 356.166 193.452 337.859 193.452 C 320.050 193.452,319.531 193.472,318.803 194.200 M85.712 194.588 C 86.848 195.195,86.848 251.952,85.712 252.559 C 84.486 253.215,50.466 253.080,49.557 252.416 C 48.418 251.583,48.418 195.564,49.557 194.731 C 50.466 194.067,84.486 193.931,85.712 194.588 M356.229 194.949 C 356.912 196.029,356.697 251.669,356.007 252.359 C 355.165 253.201,320.863 253.255,319.716 252.416 C 318.565 251.574,318.579 195.563,319.730 194.721 C 320.856 193.898,355.703 194.115,356.229 194.949 M48.709 277.386 L 47.895 278.252 47.895 306.776 L 47.895 335.301 48.814 336.219 L 49.732 337.138 67.727 337.138 L 85.722 337.138 86.640 336.219 L 87.558 335.301 87.558 306.829 L 87.558 278.357 86.640 277.439 L 85.722 276.520 67.622 276.520 L 49.522 276.520 48.709 277.386 M318.873 277.283 L 318.054 278.046 318.054 306.816 L 318.054 335.586 319.053 336.372 C 320.041 337.149,320.253 337.157,338.170 337.054 L 356.287 336.950 357.002 336.067 C 357.692 335.215,357.717 334.185,357.717 306.770 L 357.717 278.357 356.799 277.439 L 355.881 276.520 337.786 276.520 C 320.094 276.520,319.674 276.537,318.873 277.283 M86.345 306.413 C 86.415 327.219,86.326 335.136,86.018 335.506 C 85.673 335.922,82.333 336.015,67.702 336.015 L 49.809 336.015 49.226 335.183 C 48.531 334.192,48.326 280.398,49.010 278.599 L 49.376 277.636 67.812 277.733 L 86.249 277.830 86.345 306.413 M356.146 278.092 C 356.796 278.742,356.796 334.916,356.146 335.566 C 355.809 335.903,351.228 336.015,337.832 336.015 L 319.968 336.015 319.385 335.183 C 318.692 334.193,318.485 280.398,319.168 278.602 L 319.532 277.643 337.615 277.643 C 351.180 277.643,355.809 277.755,356.146 278.092 " stroke="none" fill="#c4c4c4" fill-rule="evenodd"></path><path id="path4" d="M32.831 5.024 C 31.159 5.622,30.742 5.937,28.173 8.538 C 26.933 9.794,26.032 11.106,25.733 12.093 C 25.021 14.434,25.033 349.681,25.745 352.031 C 26.280 353.798,29.710 357.543,31.879 358.727 C 33.384 359.548,369.390 359.996,372.452 359.181 C 374.575 358.615,379.173 354.042,379.754 351.918 C 380.337 349.792,380.337 14.280,379.755 12.183 C 379.306 10.568,375.561 6.361,373.620 5.294 C 372.069 4.442,35.207 4.174,32.831 5.024 M370.527 6.323 C 372.840 6.704,377.783 11.401,378.324 13.732 C 378.766 15.640,378.760 348.468,378.317 350.378 C 377.765 352.755,372.915 357.363,370.556 357.751 C 368.148 358.147,36.928 358.145,34.881 357.749 C 32.955 357.377,28.698 353.586,27.502 351.179 C 26.564 349.291,26.289 16.087,27.224 13.459 C 27.950 11.417,32.901 6.693,34.675 6.350 C 36.599 5.978,368.270 5.952,370.527 6.323 M48.785 25.982 C 46.251 27.085,46.399 25.141,46.399 57.370 L 46.399 86.511 47.671 87.783 L 48.943 89.055 67.727 89.055 L 86.511 89.055 87.783 87.783 L 89.055 86.511 89.055 57.643 C 89.055 25.623,89.165 27.044,86.610 25.976 C 84.780 25.212,50.543 25.217,48.785 25.982 M111.168 25.918 C 110.673 26.172,109.916 26.855,109.484 27.436 L 108.700 28.493 108.700 182.010 C 108.700 312.606,108.778 335.673,109.222 336.503 C 110.452 338.801,103.388 338.648,203.366 338.543 L 294.542 338.447 295.634 337.225 L 296.726 336.003 296.726 182.117 C 296.726 40.453,296.677 28.161,296.116 27.359 C 294.695 25.331,300.215 25.444,202.538 25.450 C 131.481 25.454,111.874 25.555,111.168 25.918 M318.944 25.982 C 316.411 27.085,316.558 25.168,316.558 57.128 C 316.558 78.736,316.670 86.274,317.005 87.008 C 317.937 89.055,317.939 89.055,338.092 89.055 L 356.670 89.055 357.942 87.783 L 359.214 86.511 359.214 57.643 C 359.214 25.623,359.324 27.044,356.769 25.976 C 354.939 25.212,320.702 25.217,318.944 25.982 M86.843 28.012 C 88.011 29.454,87.954 85.084,86.783 86.573 L 86.007 87.558 67.700 87.558 C 49.891 87.558,49.372 87.538,48.644 86.810 C 47.771 85.938,47.436 29.995,48.294 28.392 C 49.011 27.051,50.123 26.977,68.228 27.053 L 86.128 27.128 86.843 28.012 M294.442 27.841 L 295.229 28.554 295.229 182.070 L 295.229 335.586 294.243 336.362 L 293.257 337.138 202.961 337.138 C 106.075 337.138,111.129 337.246,110.402 335.159 C 109.781 333.378,109.868 30.048,110.490 28.819 C 111.490 26.843,106.292 26.943,203.235 27.039 C 291.559 27.126,293.672 27.145,294.442 27.841 M356.192 27.487 C 357.746 28.291,357.707 27.511,357.712 57.667 C 357.717 85.350,357.711 85.595,356.942 86.573 L 356.166 87.558 337.859 87.558 C 320.050 87.558,319.531 87.538,318.803 86.810 C 318.067 86.075,318.054 85.563,318.054 57.308 C 318.054 26.119,317.941 27.936,319.925 27.207 C 321.367 26.677,355.129 26.938,356.192 27.487 M49.953 108.754 C 48.507 109.085,47.452 109.806,46.928 110.819 C 46.210 112.208,46.132 168.509,46.846 170.076 C 47.778 172.123,47.780 172.123,67.933 172.123 L 86.511 172.123 87.783 170.851 L 89.055 169.579 89.055 140.747 C 89.055 110.081,89.087 110.629,87.220 109.360 C 86.285 108.724,52.481 108.175,49.953 108.754 M158.092 108.836 C 155.500 109.517,151.151 113.717,150.460 116.206 C 149.882 118.290,149.882 245.781,150.461 247.895 C 151.065 250.102,155.639 254.591,157.905 255.200 C 161.913 256.278,166.792 255.170,170.544 252.330 C 171.621 251.515,173.385 250.530,174.462 250.143 C 175.540 249.755,177.181 248.738,178.108 247.882 C 179.160 246.911,180.828 245.925,182.541 245.261 C 184.421 244.532,185.990 243.569,187.513 242.210 C 188.737 241.118,189.942 240.223,190.192 240.221 C 191.135 240.213,194.457 238.403,196.222 236.934 C 197.231 236.095,199.048 235.038,200.260 234.585 C 201.517 234.114,203.169 233.101,204.109 232.222 C 205.091 231.305,206.832 230.252,208.420 229.615 C 209.996 228.983,211.894 227.838,213.070 226.809 C 214.257 225.771,215.892 224.787,217.128 224.367 C 218.267 223.980,220.015 223.010,221.012 222.211 C 222.009 221.412,224.088 220.150,225.631 219.405 C 227.175 218.661,229.111 217.436,229.935 216.684 C 230.758 215.932,232.667 214.817,234.178 214.207 C 235.806 213.549,237.743 212.385,238.933 211.352 C 240.052 210.380,241.901 209.250,243.109 208.801 C 244.301 208.358,246.232 207.247,247.400 206.333 C 248.569 205.418,250.662 204.160,252.052 203.537 C 253.442 202.913,255.271 201.764,256.118 200.984 C 257.008 200.163,258.819 199.110,260.414 198.484 C 262.223 197.774,263.834 196.796,265.101 195.638 C 266.163 194.668,267.698 193.607,268.513 193.281 C 270.340 192.550,274.791 188.113,275.571 186.245 C 277.802 180.907,274.411 173.534,268.475 170.813 C 267.446 170.341,266.099 169.409,265.482 168.742 C 264.849 168.058,262.727 166.755,260.617 165.754 C 258.559 164.777,256.455 163.518,255.940 162.955 C 255.426 162.393,253.754 161.359,252.226 160.658 C 250.698 159.958,248.730 158.796,247.852 158.076 C 246.306 156.810,242.726 154.922,241.855 154.915 C 241.620 154.913,240.591 154.159,239.568 153.239 C 238.521 152.298,236.173 150.848,234.196 149.922 C 232.264 149.017,230.189 147.749,229.585 147.105 C 228.981 146.460,227.550 145.584,226.404 145.158 C 225.259 144.733,223.335 143.611,222.128 142.667 C 220.921 141.723,218.732 140.463,217.264 139.867 C 215.711 139.237,213.967 138.181,213.096 137.345 C 211.554 135.862,209.636 134.766,207.223 133.985 C 206.462 133.739,205.030 132.793,204.042 131.883 C 203.054 130.973,201.408 129.931,200.385 129.567 C 199.362 129.203,197.350 128.018,195.914 126.934 C 194.477 125.850,192.320 124.604,191.119 124.166 C 189.876 123.713,188.257 122.734,187.359 121.892 C 185.881 120.508,181.839 118.242,180.845 118.242 C 180.600 118.241,179.446 117.407,178.281 116.388 C 177.116 115.368,175.380 114.273,174.424 113.954 C 173.467 113.636,171.762 112.675,170.635 111.820 C 167.066 109.113,161.800 107.861,158.092 108.836 M319.557 108.896 C 318.840 109.064,317.872 109.646,317.405 110.188 L 316.558 111.174 316.558 140.176 C 316.558 160.800,316.678 169.415,316.976 169.997 C 318.096 172.188,317.286 172.106,337.830 172.115 L 356.670 172.123 357.942 170.851 L 359.214 169.579 359.214 140.571 L 359.214 111.563 358.255 110.423 C 357.727 109.796,356.675 109.111,355.916 108.900 C 354.262 108.440,321.509 108.437,319.557 108.896 M86.810 111.132 C 87.998 112.320,87.984 168.532,86.796 169.808 L 86.033 170.627 67.712 170.627 C 49.891 170.627,49.372 170.606,48.644 169.878 C 47.908 169.143,47.895 168.631,47.895 140.505 C 47.895 112.379,47.908 111.867,48.644 111.132 C 49.372 110.404,49.891 110.384,67.727 110.384 C 85.563 110.384,86.082 110.404,86.810 111.132 M167.119 112.341 C 168.534 113.313,170.786 114.552,172.123 115.093 C 173.461 115.634,175.246 116.712,176.089 117.488 C 176.933 118.265,179.040 119.565,180.773 120.377 C 182.505 121.189,184.535 122.391,185.284 123.048 C 186.032 123.705,187.725 124.732,189.045 125.331 C 190.365 125.930,192.180 127.033,193.078 127.783 C 194.861 129.273,196.605 130.237,198.802 130.948 C 199.584 131.201,201.123 132.192,202.222 133.150 C 203.337 134.121,205.267 135.304,206.585 135.822 C 207.886 136.333,209.714 137.413,210.649 138.223 C 211.583 139.033,213.527 140.235,214.967 140.894 C 216.408 141.553,218.426 142.788,219.453 143.639 C 220.479 144.490,222.500 145.648,223.943 146.213 C 225.611 146.865,227.284 147.887,228.535 149.017 C 229.618 149.995,230.680 150.795,230.895 150.795 C 231.682 150.795,235.875 153.086,237.173 154.226 C 237.908 154.871,239.694 155.941,241.144 156.603 C 242.593 157.265,244.592 158.481,245.585 159.305 C 246.579 160.129,248.592 161.273,250.059 161.849 C 251.539 162.430,253.400 163.514,254.240 164.284 C 255.072 165.047,257.075 166.297,258.690 167.062 C 260.306 167.826,262.263 169.025,263.038 169.726 C 263.814 170.426,265.270 171.355,266.275 171.789 C 268.042 172.552,272.955 177.091,273.875 178.811 C 274.095 179.222,274.275 180.824,274.275 182.371 L 274.275 185.184 272.463 186.996 C 271.466 187.993,270.355 189.259,269.994 189.811 C 269.633 190.362,268.297 191.305,267.025 191.906 C 265.753 192.507,263.959 193.631,263.039 194.403 C 262.119 195.176,260.019 196.434,258.372 197.200 C 256.726 197.965,254.958 199.056,254.443 199.623 C 253.929 200.190,251.932 201.390,250.006 202.289 C 248.079 203.188,245.897 204.456,245.157 205.105 C 244.417 205.755,242.625 206.828,241.176 207.490 C 239.727 208.151,237.783 209.327,236.857 210.103 C 235.931 210.879,233.927 212.082,232.404 212.777 C 230.881 213.472,228.944 214.676,228.101 215.453 C 227.257 216.230,225.550 217.246,224.307 217.710 C 223.063 218.175,221.211 219.222,220.191 220.037 C 219.170 220.853,217.084 222.118,215.556 222.848 C 214.027 223.579,212.002 224.824,211.056 225.616 C 210.110 226.408,207.909 227.723,206.165 228.537 C 204.421 229.352,202.509 230.537,201.916 231.170 C 201.290 231.840,199.610 232.817,197.903 233.505 C 196.272 234.162,194.231 235.336,193.311 236.146 C 192.401 236.947,190.517 238.114,189.125 238.739 C 187.733 239.363,185.944 240.461,185.149 241.179 C 184.355 241.897,182.235 243.163,180.440 243.991 C 178.644 244.820,176.586 246.072,175.865 246.774 C 175.145 247.475,173.348 248.547,171.871 249.155 C 170.395 249.764,168.162 250.984,166.910 251.867 C 164.532 253.544,161.406 254.185,158.800 253.531 C 157.486 253.202,152.414 248.104,152.031 246.729 C 151.647 245.348,151.634 118.773,152.018 117.400 C 152.304 116.378,156.662 111.647,158.092 110.806 C 159.987 109.692,164.345 110.433,167.119 112.341 M356.445 110.670 C 357.675 111.491,357.717 112.486,357.717 140.617 C 357.717 168.416,357.711 168.663,356.942 169.641 L 356.166 170.627 337.859 170.627 C 320.050 170.627,319.531 170.606,318.803 169.878 C 317.769 168.845,317.610 112.681,318.637 111.215 L 319.219 110.384 337.626 110.389 C 347.750 110.392,356.219 110.519,356.445 110.670 M172.610 140.412 C 170.962 142.220,171.001 141.214,171.001 182.057 L 171.001 221.226 171.797 222.642 C 173.396 225.488,176.947 225.016,181.088 221.407 C 181.799 220.787,183.567 219.739,185.017 219.077 C 186.466 218.416,188.410 217.237,189.336 216.457 C 190.262 215.677,192.283 214.464,193.826 213.761 C 195.370 213.058,197.306 211.832,198.129 211.036 C 199.005 210.190,200.558 209.245,201.871 208.759 C 204.495 207.789,205.572 207.171,207.109 205.751 C 207.727 205.180,209.399 204.185,210.824 203.539 C 212.250 202.893,214.187 201.720,215.128 200.933 C 216.068 200.146,218.269 198.837,220.019 198.024 C 221.862 197.167,223.742 195.974,224.489 195.186 C 225.198 194.438,225.925 193.826,226.104 193.826 C 226.980 193.826,232.011 191.150,233.559 189.861 C 234.523 189.058,236.201 188.086,237.289 187.701 C 243.563 185.482,243.503 178.575,237.190 176.343 C 236.157 175.977,234.523 175.021,233.559 174.217 C 232.011 172.928,226.980 170.253,226.104 170.253 C 225.925 170.253,225.198 169.644,224.489 168.900 C 223.753 168.128,221.754 166.861,219.832 165.947 C 217.979 165.066,215.660 163.666,214.677 162.835 C 213.695 162.004,212.263 161.118,211.497 160.867 C 209.835 160.323,208.730 159.657,206.777 158.025 C 205.977 157.356,204.041 156.281,202.474 155.637 C 200.826 154.958,198.995 153.865,198.129 153.043 C 197.306 152.261,195.330 151.027,193.738 150.300 C 192.146 149.573,190.041 148.302,189.061 147.476 C 188.080 146.650,186.305 145.603,185.115 145.148 C 183.926 144.694,182.215 143.673,181.315 142.880 C 177.943 139.912,174.066 138.813,172.610 140.412 M175.983 141.870 C 176.433 142.105,177.607 142.968,178.592 143.787 C 179.577 144.606,181.586 145.765,183.056 146.363 C 184.671 147.020,186.407 148.085,187.443 149.055 C 188.537 150.078,190.157 151.051,191.911 151.740 C 193.576 152.393,195.361 153.446,196.426 154.404 C 197.395 155.275,199.080 156.327,200.171 156.741 C 201.261 157.156,203.131 158.263,204.327 159.202 C 205.522 160.142,207.699 161.398,209.163 161.994 C 210.766 162.646,212.526 163.726,213.584 164.706 C 214.680 165.722,216.370 166.746,218.073 167.426 C 219.575 168.025,221.423 169.099,222.178 169.811 C 222.933 170.523,224.651 171.598,225.995 172.199 C 227.338 172.800,229.409 174.053,230.597 174.984 C 231.784 175.914,233.789 177.080,235.052 177.575 C 238.397 178.886,238.728 179.287,238.728 182.032 C 238.728 184.768,238.161 185.471,235.084 186.549 C 234.005 186.927,232.322 187.878,231.342 188.664 C 230.362 189.450,228.184 190.757,226.502 191.568 C 224.820 192.380,222.884 193.604,222.199 194.288 C 221.509 194.978,219.730 196.027,218.207 196.644 C 216.582 197.301,214.641 198.467,213.452 199.500 C 212.346 200.461,210.476 201.606,209.288 202.051 C 208.102 202.494,206.033 203.672,204.689 204.667 C 203.345 205.663,201.265 206.910,200.068 207.439 C 198.871 207.968,197.141 209.061,196.224 209.868 C 195.294 210.686,193.261 211.858,191.629 212.516 C 189.695 213.295,188.218 214.191,187.274 215.158 C 186.396 216.057,184.897 216.999,183.382 217.603 C 182.026 218.144,179.838 219.417,178.519 220.433 C 175.106 223.060,173.617 223.289,172.861 221.300 C 172.228 219.634,172.555 142.835,173.198 142.059 C 173.798 141.336,174.833 141.266,175.983 141.870 M48.311 192.477 C 46.373 193.551,46.426 192.679,46.413 223.573 C 46.400 256.161,46.233 254.321,49.279 255.167 C 51.216 255.705,84.237 255.705,86.175 255.167 C 89.221 254.321,89.052 256.175,89.054 223.442 L 89.055 194.500 87.783 193.227 L 86.511 191.955 67.858 191.968 C 53.094 191.979,49.018 192.085,48.311 192.477 M318.470 192.477 C 316.531 193.552,316.585 192.656,316.571 223.883 L 316.558 253.004 317.619 254.066 C 319.129 255.576,319.839 255.623,339.196 255.494 C 358.058 255.368,357.736 255.407,358.782 253.111 C 359.097 252.421,359.214 244.322,359.214 223.331 L 359.214 194.500 357.942 193.227 L 356.670 191.955 338.017 191.968 C 323.253 191.979,319.177 192.085,318.470 192.477 M86.796 194.271 C 87.967 195.528,88.000 251.756,86.831 252.926 C 85.694 254.062,84.696 254.115,66.477 253.995 L 49.325 253.882 48.610 252.999 C 47.465 251.583,47.497 195.347,48.644 194.200 C 49.372 193.472,49.891 193.452,67.712 193.452 L 86.033 193.452 86.796 194.271 M356.942 194.438 C 357.872 195.620,358.193 250.372,357.282 252.371 C 356.525 254.032,355.388 254.122,336.824 253.998 L 319.484 253.882 318.769 252.999 C 317.624 251.583,317.656 195.347,318.803 194.200 C 319.531 193.472,320.050 193.452,337.859 193.452 L 356.166 193.452 356.942 194.438 M47.671 276.296 L 46.399 277.568 46.399 306.785 L 46.399 336.003 47.490 337.225 L 48.582 338.447 67.134 338.551 C 83.266 338.641,85.831 338.579,86.803 338.077 C 89.146 336.865,89.055 338.147,89.055 306.436 L 89.055 277.568 87.783 276.296 L 86.511 275.023 67.727 275.023 L 48.943 275.023 47.671 276.296 M317.840 276.286 L 316.558 277.568 316.558 306.785 L 316.558 336.003 317.649 337.225 L 318.741 338.447 337.293 338.551 C 353.425 338.641,355.990 338.579,356.962 338.077 C 359.329 336.853,359.238 338.191,359.127 306.281 L 359.027 277.285 357.990 276.248 L 356.953 275.210 338.037 275.107 L 319.122 275.003 317.840 276.286 M86.640 277.439 L 87.558 278.357 87.558 306.829 L 87.558 335.301 86.640 336.219 L 85.722 337.138 67.727 337.138 L 49.732 337.138 48.814 336.219 L 47.895 335.301 47.895 306.776 L 47.895 278.252 48.709 277.386 L 49.522 276.520 67.622 276.520 L 85.722 276.520 86.640 277.439 M356.799 277.439 L 357.717 278.357 357.717 306.770 C 357.717 334.185,357.692 335.215,357.002 336.067 L 356.287 336.950 338.170 337.054 C 320.253 337.157,320.041 337.149,319.053 336.372 L 318.054 335.586 318.054 306.816 L 318.054 278.046 318.873 277.283 C 319.674 276.537,320.094 276.520,337.786 276.520 L 355.881 276.520 356.799 277.439 " stroke="none" fill="#949494" fill-rule="evenodd"></path><path id="path5" d="M30.013 3.180 C 25.827 3.941,24.967 4.757,23.904 8.980 C 23.122 12.088,23.129 351.506,23.912 355.035 C 24.652 358.375,25.595 359.619,28.072 360.524 C 31.308 361.706,374.317 361.706,377.519 360.524 C 379.927 359.635,380.706 358.672,381.472 355.641 C 382.434 351.835,382.142 9.538,381.175 7.054 C 380.318 4.852,379.609 4.221,377.119 3.441 C 374.389 2.587,34.685 2.331,30.013 3.180 M371.836 3.742 C 376.258 4.317,378.560 5.941,380.321 9.729 L 381.104 11.413 381.104 181.665 C 381.104 328.988,381.031 352.170,380.563 353.789 C 379.818 356.368,376.948 359.238,374.369 359.983 C 371.695 360.756,33.670 360.805,31.119 360.033 C 28.666 359.291,25.673 356.200,24.918 353.627 C 24.035 350.619,23.999 13.571,24.881 10.600 C 25.981 6.897,29.212 4.259,33.295 3.732 C 36.483 3.321,368.666 3.330,371.836 3.742 M49.557 28.595 C 48.626 29.275,48.393 85.212,49.317 86.137 C 49.936 86.756,83.870 87.056,85.448 86.456 L 86.436 86.080 86.436 57.459 C 86.436 29.546,86.418 28.829,85.712 28.451 C 84.486 27.795,50.466 27.930,49.557 28.595 M111.751 28.748 C 110.822 29.775,110.791 334.498,111.720 335.427 C 112.251 335.958,121.034 336.015,202.812 336.015 L 293.316 336.015 293.898 335.183 C 294.935 333.703,294.771 29.850,293.732 28.812 C 292.606 27.685,112.770 27.622,111.751 28.748 M319.544 28.819 C 318.590 29.773,318.525 85.185,319.476 86.137 C 320.255 86.916,355.735 86.843,356.229 86.062 C 357.029 84.796,356.682 28.885,355.871 28.451 C 354.297 27.609,320.411 27.952,319.544 28.819 M85.058 29.280 C 85.649 29.714,85.688 31.749,85.598 57.624 L 85.500 85.500 67.727 85.500 L 49.953 85.500 49.856 57.624 C 49.766 31.749,49.805 29.714,50.395 29.280 C 50.882 28.922,54.960 28.812,67.727 28.812 C 80.494 28.812,84.572 28.922,85.058 29.280 M292.635 29.199 C 293.660 29.748,293.791 334.646,292.766 335.039 C 290.905 335.754,112.653 335.263,112.268 334.543 C 111.546 333.195,111.746 30.123,112.468 29.400 C 113.190 28.678,291.289 28.479,292.635 29.199 M355.217 29.280 C 355.808 29.714,355.847 31.749,355.757 57.624 L 355.659 85.500 337.886 85.500 L 320.112 85.500 320.015 57.624 C 319.925 31.749,319.964 29.714,320.554 29.280 C 321.041 28.922,325.119 28.812,337.886 28.812 C 350.653 28.812,354.731 28.922,355.217 29.280 M154.689 107.003 C 150.625 107.873,149.667 108.782,148.760 112.630 C 147.880 116.365,147.883 247.582,148.763 251.452 C 149.939 256.621,151.397 257.250,162.208 257.249 C 170.904 257.248,172.073 256.937,173.457 254.260 C 174.183 252.854,174.403 252.720,177.198 251.980 C 181.479 250.847,182.023 250.557,183.224 248.769 C 184.154 247.384,184.577 247.099,186.265 246.725 C 188.515 246.225,189.818 245.468,190.671 244.167 C 191.341 243.145,193.490 242.003,196.330 241.160 C 198.349 240.560,198.811 240.171,199.769 238.260 C 200.312 237.176,200.690 236.973,203.453 236.274 C 207.413 235.272,208.329 234.759,209.200 233.052 C 209.896 231.687,211.444 230.878,213.373 230.872 C 213.731 230.871,214.945 230.036,216.070 229.017 C 218.463 226.850,219.510 226.270,222.139 225.652 C 224.226 225.161,224.867 224.622,225.617 222.727 C 225.941 221.910,226.425 221.433,227.082 221.285 C 232.629 220.037,233.763 219.517,234.956 217.674 C 235.708 216.511,236.263 216.154,238.232 215.563 C 239.994 215.034,241.120 214.379,242.619 213.009 C 244.035 211.714,245.288 210.962,246.827 210.483 C 250.303 209.400,250.756 209.102,251.476 207.423 C 252.063 206.052,252.343 205.811,253.579 205.609 C 257.220 205.012,259.808 203.798,260.893 202.178 C 261.903 200.671,262.629 200.263,265.380 199.654 C 265.941 199.530,267.389 198.547,268.597 197.469 C 269.805 196.392,271.619 195.124,272.628 194.651 C 273.637 194.179,274.879 193.586,275.389 193.332 C 279.186 191.444,279.186 172.612,275.389 170.754 C 274.879 170.504,273.536 169.848,272.404 169.296 C 271.272 168.743,269.480 167.478,268.422 166.483 C 267.364 165.488,266.017 164.567,265.429 164.437 C 262.617 163.811,261.907 163.414,260.893 161.900 C 259.808 160.280,257.220 159.066,253.579 158.470 C 252.343 158.268,252.063 158.026,251.476 156.656 C 250.757 154.979,250.301 154.678,246.850 153.603 C 245.326 153.128,244.028 152.343,242.474 150.957 C 240.697 149.371,239.856 148.901,238.173 148.551 C 236.378 148.179,235.957 147.921,235.210 146.738 C 233.878 144.627,232.147 143.763,227.949 143.114 C 226.488 142.888,226.261 142.703,225.517 141.138 C 224.855 139.747,224.406 139.312,223.199 138.894 C 222.376 138.609,220.945 138.109,220.020 137.784 C 219.094 137.458,217.495 136.397,216.465 135.425 C 215.212 134.242,214.036 133.515,212.909 133.224 C 211.983 132.985,210.928 132.703,210.564 132.598 C 210.201 132.492,209.585 131.781,209.195 131.018 C 208.329 129.320,207.409 128.805,203.453 127.805 C 200.690 127.106,200.312 126.902,199.769 125.819 C 198.795 123.877,198.337 123.506,196.116 122.868 C 193.226 122.038,192.327 121.530,190.360 119.618 C 189.047 118.341,188.164 117.844,186.480 117.433 C 184.638 116.984,184.148 116.678,183.322 115.461 C 182.114 113.682,180.992 113.063,177.198 112.081 C 174.396 111.356,174.185 111.228,173.457 109.819 C 172.140 107.272,170.869 106.903,162.978 106.781 C 159.261 106.723,155.532 106.823,154.689 107.003 M168.376 108.346 C 169.907 108.810,170.805 109.387,171.915 110.623 C 173.017 111.850,173.908 112.426,175.350 112.845 C 176.421 113.156,178.009 113.951,178.880 114.610 C 182.294 117.195,182.856 117.540,184.846 118.274 C 187.264 119.167,187.772 119.523,188.890 121.117 C 189.512 122.004,190.273 122.468,191.859 122.929 C 194.904 123.814,196.442 124.687,197.980 126.404 C 198.920 127.453,199.897 128.077,201.207 128.466 C 203.699 129.206,205.042 129.933,206.174 131.152 C 207.174 132.230,209.595 133.569,211.879 134.309 C 212.745 134.589,213.792 135.388,214.622 136.400 C 215.687 137.700,216.400 138.165,218.080 138.653 C 221.118 139.536,222.256 140.182,223.953 141.985 C 225.068 143.171,226.002 143.740,227.585 144.200 C 228.926 144.590,230.356 145.374,231.444 146.316 C 233.390 148.000,234.401 148.576,237.354 149.681 C 238.814 150.227,239.795 150.920,240.738 152.071 C 241.752 153.308,242.481 153.797,243.811 154.132 C 246.476 154.803,248.967 156.212,250.090 157.685 C 250.842 158.671,251.624 159.166,253.120 159.600 C 255.076 160.169,255.639 160.501,258.925 163.026 C 259.778 163.681,261.654 164.668,263.094 165.218 C 265.209 166.026,265.883 166.490,266.607 167.638 C 267.293 168.725,267.948 169.205,269.397 169.687 C 274.620 171.422,277.081 175.378,277.081 182.039 C 277.081 188.657,274.613 192.659,269.481 194.364 C 268.105 194.821,267.397 195.355,266.521 196.598 C 265.607 197.894,264.958 198.366,263.368 198.886 C 260.558 199.804,259.679 200.297,257.448 202.201 C 256.109 203.344,254.882 204.018,253.568 204.334 C 252.035 204.701,251.265 205.191,249.760 206.758 C 248.135 208.449,247.486 208.835,245.078 209.540 C 242.750 210.221,242.032 210.633,240.786 212.000 C 239.708 213.182,238.506 213.962,236.490 214.787 C 234.950 215.416,232.864 216.628,231.855 217.479 C 230.839 218.336,228.936 219.420,227.587 219.909 C 225.794 220.560,224.700 221.266,223.428 222.596 C 221.969 224.120,221.252 224.534,218.788 225.275 C 216.309 226.021,215.682 226.385,214.597 227.710 C 213.895 228.566,212.765 229.474,212.086 229.727 C 209.001 230.878,207.249 231.814,206.283 232.831 C 205.042 234.138,203.723 234.865,201.284 235.589 C 200.051 235.956,199.093 236.578,198.245 237.562 C 196.840 239.195,194.961 240.248,191.835 241.157 C 190.068 241.670,189.507 242.044,188.722 243.231 C 187.958 244.385,187.246 244.876,185.205 245.656 C 183.798 246.193,181.949 247.170,181.095 247.826 C 177.815 250.345,177.248 250.682,175.354 251.232 C 173.905 251.653,173.019 252.227,171.910 253.461 C 167.842 257.988,155.701 257.768,151.586 253.093 C 148.944 250.092,149.111 254.926,149.111 181.665 L 149.111 115.435 149.972 113.569 C 152.524 108.030,160.169 105.861,168.376 108.346 M49.557 111.663 C 48.418 112.496,48.418 168.514,49.557 169.347 C 50.466 170.012,84.486 170.147,85.712 169.491 C 86.848 168.883,86.848 112.127,85.712 111.519 C 84.486 110.863,50.466 110.998,49.557 111.663 M319.716 111.663 C 318.565 112.505,318.579 168.516,319.730 169.358 C 320.856 170.180,355.703 169.963,356.229 169.130 C 356.912 168.049,356.697 112.410,356.007 111.720 C 355.165 110.878,320.863 110.824,319.716 111.663 M85.500 140.505 L 85.500 168.569 67.727 168.569 L 49.953 168.569 49.856 140.879 C 49.803 125.650,49.841 112.978,49.940 112.718 C 50.082 112.347,53.857 112.268,67.810 112.344 L 85.500 112.442 85.500 140.505 M355.659 140.505 L 355.659 168.569 337.886 168.569 L 320.112 168.569 320.015 140.879 C 319.962 125.650,320.000 112.978,320.099 112.718 C 320.241 112.347,324.016 112.268,337.969 112.344 L 355.659 112.442 355.659 140.505 M173.793 143.405 C 173.695 143.662,173.658 161.214,173.711 182.408 C 173.820 226.005,173.567 222.887,176.727 219.539 C 178.008 218.181,178.865 217.688,181.375 216.861 C 183.914 216.025,184.652 215.596,185.592 214.409 C 186.426 213.355,187.424 212.698,189.315 211.956 C 190.782 211.380,192.839 210.160,194.078 209.129 C 195.430 208.005,197.128 207.023,198.547 206.544 C 200.190 205.990,201.353 205.263,202.663 203.972 C 204.135 202.523,205.081 201.977,207.525 201.166 C 210.008 200.343,210.772 199.897,211.722 198.714 C 212.587 197.639,213.562 197.010,215.531 196.257 C 217.191 195.623,218.973 194.563,220.314 193.410 C 221.551 192.348,223.081 191.414,223.948 191.194 C 225.905 190.696,227.877 189.802,227.877 189.413 C 227.877 188.415,230.407 186.683,233.230 185.749 C 236.798 184.568,236.844 184.520,236.851 181.967 C 236.857 180.014,236.068 178.859,234.730 178.859 C 233.196 178.859,229.999 177.159,228.406 175.496 C 227.054 174.085,226.234 173.570,224.791 173.224 C 223.566 172.930,222.199 172.186,220.819 171.061 C 219.661 170.118,217.450 168.801,215.905 168.135 C 213.971 167.300,212.686 166.451,211.779 165.410 C 210.725 164.200,209.867 163.698,207.480 162.895 C 205.149 162.112,204.077 161.496,202.578 160.078 C 201.254 158.826,199.967 158.029,198.426 157.509 C 197.051 157.044,195.383 156.069,194.082 154.969 C 192.757 153.849,191.057 152.862,189.519 152.318 C 187.609 151.644,186.774 151.096,185.744 149.839 C 184.677 148.537,183.941 148.069,181.939 147.423 C 178.525 146.320,177.560 145.767,176.401 144.247 C 175.402 142.936,174.128 142.525,173.793 143.405 M175.675 146.674 C 175.801 146.877,176.863 147.320,178.036 147.657 C 181.024 148.517,182.559 149.373,184.254 151.125 C 185.379 152.287,186.193 152.747,187.745 153.094 C 189.425 153.470,189.996 153.824,191.110 155.184 C 192.774 157.215,193.280 157.496,197.007 158.459 C 199.807 159.182,200.042 159.321,200.653 160.616 C 201.396 162.191,202.413 162.950,204.303 163.340 C 206.350 163.761,208.843 165.182,210.446 166.839 C 211.561 167.992,212.368 168.450,213.814 168.752 C 216.169 169.245,216.392 169.390,217.187 170.940 C 217.894 172.319,219.751 173.318,222.831 173.976 C 223.857 174.195,225.062 174.457,225.509 174.558 C 226.021 174.674,226.476 175.209,226.739 176.007 C 227.298 177.702,228.041 178.284,230.566 179.006 C 235.008 180.276,235.178 184.387,230.818 185.084 C 228.743 185.416,227.266 186.475,226.766 187.990 C 226.392 189.123,226.093 189.377,224.763 189.695 C 219.692 190.908,217.994 191.715,217.106 193.335 C 216.327 194.755,216.052 194.942,214.171 195.333 C 212.552 195.669,211.670 196.147,210.164 197.508 C 208.226 199.257,206.672 200.081,203.575 201.002 C 202.220 201.405,201.730 201.809,200.934 203.181 C 200.029 204.740,199.778 204.909,197.546 205.464 C 194.102 206.321,192.569 207.053,191.652 208.280 C 190.236 210.174,189.620 210.647,188.247 210.895 C 186.417 211.226,185.240 211.875,183.910 213.284 C 182.570 214.705,180.908 215.595,178.066 216.413 C 176.909 216.745,175.746 217.280,175.480 217.600 C 175.094 218.066,174.934 218.085,174.688 217.698 C 174.323 217.123,174.254 146.918,174.618 146.554 C 174.975 146.197,175.411 146.247,175.675 146.674 M49.557 194.731 C 48.418 195.564,48.418 251.583,49.557 252.416 C 50.466 253.080,84.486 253.215,85.712 252.559 C 86.848 251.952,86.848 195.195,85.712 194.588 C 84.486 193.931,50.466 194.067,49.557 194.731 M319.730 194.721 C 318.579 195.563,318.565 251.574,319.716 252.416 C 320.863 253.255,355.165 253.201,356.007 252.359 C 356.697 251.669,356.912 196.029,356.229 194.949 C 355.703 194.115,320.856 193.898,319.730 194.721 M85.500 223.573 L 85.500 251.637 67.727 251.637 L 49.953 251.637 49.856 223.948 C 49.803 208.718,49.841 196.046,49.940 195.787 C 50.082 195.415,53.857 195.336,67.810 195.413 L 85.500 195.510 85.500 223.573 M355.659 223.573 L 355.659 251.637 337.886 251.637 L 320.112 251.637 320.015 223.948 C 319.962 208.718,320.000 196.046,320.099 195.787 C 320.241 195.415,324.016 195.336,337.969 195.413 L 355.659 195.510 355.659 223.573 M49.010 278.599 C 48.326 280.398,48.531 334.192,49.226 335.183 L 49.809 336.015 67.702 336.015 C 82.333 336.015,85.673 335.922,86.018 335.506 C 86.326 335.136,86.415 327.219,86.345 306.413 L 86.249 277.830 67.812 277.733 L 49.376 277.636 49.010 278.599 M319.168 278.602 C 318.485 280.398,318.692 334.193,319.385 335.183 L 319.968 336.015 337.832 336.015 C 351.228 336.015,355.809 335.903,356.146 335.566 C 356.796 334.916,356.796 278.742,356.146 278.092 C 355.809 277.755,351.180 277.643,337.615 277.643 L 319.532 277.643 319.168 278.602 M85.596 306.618 C 85.672 328.803,85.594 334.721,85.222 334.957 C 84.679 335.301,51.248 335.381,50.358 335.039 C 49.738 334.802,49.404 279.252,50.019 278.637 C 50.158 278.498,58.199 278.428,67.886 278.481 L 85.500 278.578 85.596 306.618 M355.755 306.413 C 355.825 326.666,355.736 334.387,355.429 334.758 C 354.989 335.288,321.862 335.555,320.517 335.039 C 319.897 334.802,319.563 279.252,320.178 278.637 C 320.317 278.498,328.358 278.428,338.045 278.481 L 355.659 278.578 355.755 306.413 " stroke="none" fill="#ececec" fill-rule="evenodd"></path><path id="path6" d="" stroke="none" fill="#f8100e4" fill-rule="evenodd"></path><path id="path7" d="" stroke="none" fill="#f8100e4" fill-rule="evenodd"></path><path id="path8" d="" stroke="none" fill="#f8100e4" fill-rule="evenodd"></path></g></svg>