<svg id="svg" version="1.1" xmlns="http://www.w3.org/2000/svg" xmlns:xlink="http://www.w3.org/1999/xlink" width="400" height="411.7647058823529" viewBox="0, 0, 400,411.7647058823529"><g id="svgg"><path id="path0" d="M197.000 31.897 C 189.708 35.734,182.530 45.827,173.740 64.600 C 171.474 69.440,169.325 73.940,168.966 74.600 C 165.969 80.104,165.914 80.800,168.475 80.800 C 170.714 80.800,171.200 80.226,171.200 77.586 C 171.200 73.902,174.400 72.070,176.299 74.667 C 177.157 75.841,176.952 81.946,176.002 83.504 C 173.885 86.975,166.536 87.771,164.948 84.700 C 164.083 83.026,163.447 83.879,146.389 109.600 C 138.153 122.019,131.006 135.371,124.016 151.400 C 122.865 154.040,121.412 157.370,120.788 158.800 C 120.165 160.230,118.937 163.110,118.060 165.200 C 111.244 181.439,100.133 207.287,97.513 213.000 C 96.201 215.860,94.255 220.098,93.189 222.418 C 87.278 235.274,75.888 256.498,70.228 265.200 C 69.727 265.970,67.733 269.300,65.796 272.600 C 63.859 275.900,61.163 280.490,59.805 282.800 C 46.287 305.790,38.796 323.581,38.799 332.686 C 38.809 356.931,61.501 371.454,102.200 373.263 C 123.035 374.189,162.774 373.156,166.474 371.592 C 167.571 371.129,169.253 370.800,170.530 370.800 C 173.541 370.800,174.422 370.024,174.831 367.010 C 175.157 364.607,175.661 363.903,176.764 364.308 C 177.864 364.712,178.030 365.325,177.776 368.049 L 177.529 370.697 178.789 371.136 C 179.669 371.443,181.275 371.461,184.124 371.195 C 186.366 370.987,192.790 370.544,198.400 370.212 C 204.010 369.880,211.210 369.433,214.400 369.218 C 233.922 367.903,245.146 367.532,252.235 367.969 C 263.261 368.649,270.289 369.173,273.800 369.576 C 275.560 369.778,278.620 370.053,280.600 370.188 C 282.580 370.322,287.260 370.725,291.000 371.083 C 299.637 371.910,326.221 372.048,330.800 371.289 C 332.450 371.016,335.510 370.543,337.600 370.239 C 375.499 364.719,385.947 335.125,363.342 297.326 C 359.268 290.513,356.722 286.868,346.214 272.800 C 336.393 259.651,331.887 253.029,327.644 245.508 C 326.003 242.600,326.088 242.640,322.786 243.230 C 317.691 244.141,315.408 242.867,309.726 235.946 C 301.349 225.741,301.270 220.185,309.435 215.401 C 311.753 214.042,311.727 213.659,308.856 206.910 C 304.183 195.925,300.658 187.127,296.391 175.800 C 292.588 165.703,291.483 162.868,290.386 160.400 C 289.751 158.970,288.665 156.450,287.973 154.800 C 282.532 141.828,271.769 122.690,260.192 105.400 C 251.563 92.513,246.280 83.824,238.912 70.400 C 238.248 69.190,235.683 64.510,233.212 60.000 C 225.897 46.648,223.850 43.532,219.642 39.344 C 211.137 30.879,203.627 28.409,197.000 31.897 M207.879 54.511 C 217.476 61.556,234.191 86.005,256.481 125.600 C 269.560 148.831,273.869 157.914,280.853 176.966 C 291.683 206.512,295.014 214.618,303.495 232.055 C 309.644 244.699,309.445 244.351,310.705 244.631 C 312.993 245.140,313.259 245.306,314.298 246.876 C 315.337 248.447,315.347 248.518,314.682 249.676 C 313.662 251.454,313.811 252.155,316.057 256.145 C 323.100 268.655,327.450 275.101,336.234 286.043 C 354.924 309.323,360.114 319.286,360.176 332.000 C 360.261 349.655,344.666 357.704,316.800 354.389 C 297.698 352.117,278.319 351.389,264.200 352.413 C 244.119 353.870,237.900 354.413,227.800 355.595 C 225.820 355.827,221.860 356.191,219.000 356.405 C 216.140 356.618,212.450 356.971,210.800 357.189 C 204.874 357.971,194.343 358.495,179.561 358.746 C 163.419 359.019,163.734 358.974,162.694 361.151 C 161.912 362.787,160.507 362.755,159.810 361.085 C 158.784 358.630,159.096 358.658,134.261 358.788 C 91.968 359.010,92.949 359.021,88.200 358.268 C 68.613 355.162,55.908 347.351,54.006 337.245 C 52.298 328.173,55.092 320.780,69.673 295.800 C 93.225 255.449,105.580 232.164,116.793 207.000 C 118.067 204.140,119.581 200.776,120.156 199.524 C 120.731 198.272,121.362 196.832,121.557 196.324 C 122.523 193.813,135.758 163.977,139.090 156.800 C 148.157 137.264,156.006 122.839,165.749 107.800 C 171.024 99.659,172.919 96.355,177.456 87.400 C 187.617 67.339,192.209 60.539,199.394 54.907 C 202.856 52.193,204.610 52.111,207.879 54.511 M200.000 122.774 C 191.392 125.402,188.464 134.313,189.564 154.537 C 189.817 159.192,190.280 167.050,190.594 172.000 C 190.907 176.950,191.264 183.250,191.388 186.000 C 192.339 207.160,194.612 235.996,195.665 240.261 C 196.924 245.359,204.498 246.391,208.130 241.961 C 212.210 236.986,212.967 234.566,211.798 230.247 C 211.056 227.507,211.377 224.182,213.020 217.600 C 213.619 215.199,214.877 204.539,215.569 196.000 C 215.809 193.030,216.459 188.440,217.012 185.800 C 219.252 175.105,220.381 165.747,220.388 157.800 C 220.411 134.870,211.352 119.308,200.000 122.774 M311.747 221.509 C 309.713 223.157,309.397 226.022,311.036 227.969 C 312.375 229.561,313.082 229.520,315.170 227.733 C 318.542 224.847,315.178 218.730,311.747 221.509 M317.600 232.800 C 315.648 234.752,318.607 238.017,321.367 236.957 C 322.222 236.629,322.163 235.488,321.192 233.584 C 320.261 231.759,318.931 231.469,317.600 232.800 M202.330 284.055 C 199.586 285.012,196.710 287.441,195.891 289.493 C 194.882 292.019,193.894 298.769,194.157 301.337 C 195.343 312.944,210.011 317.514,218.150 308.812 C 220.422 306.383,220.454 305.582,218.369 303.321 C 214.758 299.402,214.653 295.720,218.020 291.032 C 221.510 286.172,210.411 281.236,202.330 284.055 " stroke="none" fill="#0b0a07" fill-rule="evenodd"></path><path id="path1" d="M185.737 0.796 C 184.822 1.203,183.022 1.845,181.737 2.223 C 178.514 3.171,175.795 4.612,168.923 9.016 C 165.675 11.097,162.795 12.800,162.522 12.800 C 161.986 12.800,156.625 17.919,155.320 19.678 C 154.880 20.271,153.638 21.787,152.560 23.047 C 146.243 30.434,146.727 29.150,146.854 38.188 L 146.956 45.400 145.478 48.788 C 144.665 50.651,144.000 52.303,144.000 52.459 C 144.000 52.614,143.393 54.060,142.651 55.671 C 141.909 57.282,140.897 59.500,140.401 60.600 C 136.210 69.896,123.664 94.870,121.009 99.200 C 119.728 101.290,117.816 104.478,116.760 106.283 C 115.704 108.089,113.604 111.419,112.093 113.683 C 108.769 118.665,108.271 119.541,101.580 132.200 C 98.673 137.700,96.307 142.515,96.322 142.900 C 96.338 143.285,96.168 143.600,95.946 143.600 C 95.200 143.600,88.663 158.049,84.997 167.800 C 84.501 169.120,83.871 170.740,83.598 171.400 C 83.324 172.060,82.954 172.960,82.775 173.400 C 80.575 178.801,78.200 184.390,77.037 186.902 C 76.247 188.608,75.600 190.078,75.600 190.169 C 75.600 190.260,74.814 192.015,73.854 194.068 C 72.894 196.120,71.608 198.880,70.996 200.200 C 69.615 203.177,64.914 212.917,59.895 223.200 C 55.191 232.839,50.000 243.939,50.000 244.361 C 50.000 244.534,49.317 245.739,48.482 247.038 C 47.648 248.337,46.717 250.030,46.413 250.800 C 46.109 251.570,44.564 254.810,42.980 258.000 C 41.395 261.190,39.157 265.870,38.006 268.400 C 36.855 270.930,35.229 274.440,34.394 276.200 C 32.625 279.928,28.392 290.116,27.430 292.962 C 25.371 299.055,16.378 318.121,12.528 324.555 C 10.347 328.200,6.340 334.400,6.165 334.400 C 6.080 334.400,5.473 333.333,4.815 332.029 C 3.530 329.483,2.364 328.400,0.911 328.400 L 0.000 328.400 -0.000 357.005 C -0.000 374.253,0.150 385.887,0.379 386.305 C 0.587 386.687,1.660 388.848,2.764 391.106 C 6.983 399.741,12.440 405.007,22.291 409.949 L 25.582 411.600 110.185 411.600 C 162.024 411.600,195.449 411.453,196.494 411.221 C 199.520 410.548,204.152 409.664,205.962 409.414 C 206.931 409.280,207.897 409.064,208.109 408.933 C 208.321 408.802,209.238 408.658,210.147 408.614 C 211.056 408.570,213.690 408.218,216.000 407.833 C 218.310 407.447,221.640 406.982,223.400 406.799 C 242.910 404.776,249.272 404.534,292.800 404.161 C 328.331 403.856,333.174 404.069,340.219 406.250 C 352.188 409.956,370.374 409.421,377.972 405.140 C 382.251 402.729,386.853 398.440,390.673 393.302 C 391.858 391.709,393.857 389.640,395.114 388.704 C 397.813 386.697,399.527 384.910,399.818 383.800 C 400.707 380.409,399.486 297.527,398.504 294.600 C 398.283 293.940,397.777 292.050,397.381 290.400 C 396.074 284.958,394.630 282.035,388.192 271.800 C 385.683 267.812,382.769 261.740,380.803 256.400 C 379.871 253.870,378.956 251.440,378.771 251.000 C 378.585 250.560,377.776 248.400,376.972 246.200 C 375.420 241.956,375.417 241.948,371.689 233.600 C 370.363 230.630,368.522 226.490,367.599 224.400 C 366.675 222.310,365.578 219.845,365.160 218.922 C 364.742 217.999,364.400 217.142,364.400 217.018 C 364.400 216.893,364.049 216.028,363.620 215.096 C 363.192 214.163,362.098 211.510,361.191 209.200 C 360.283 206.890,359.305 204.460,359.017 203.800 C 358.730 203.140,358.270 201.880,357.995 201.000 C 357.720 200.120,357.366 199.220,357.208 199.000 C 357.050 198.780,356.135 196.311,355.175 193.514 C 354.040 190.207,353.308 188.599,353.082 188.914 C 352.871 189.210,352.829 188.969,352.975 188.300 C 353.107 187.695,353.052 187.200,352.852 187.200 C 352.652 187.200,352.500 186.975,352.514 186.700 C 352.563 185.708,351.892 183.600,351.526 183.600 C 351.321 183.600,351.246 183.449,351.361 183.263 C 351.475 183.078,351.234 181.953,350.825 180.763 C 350.416 179.574,349.234 175.996,348.198 172.812 C 347.163 169.629,345.551 165.399,344.616 163.412 C 343.682 161.426,342.779 159.350,342.611 158.800 C 340.594 152.213,332.679 138.305,324.400 126.800 C 314.221 112.655,302.000 91.218,302.000 87.507 C 302.000 84.672,292.385 65.981,285.694 55.811 C 282.530 51.002,277.512 45.158,270.200 37.766 C 263.163 30.652,254.318 21.501,249.199 16.038 C 239.294 5.466,236.424 2.837,232.781 0.990 L 230.827 0.000 209.113 0.028 C 188.892 0.055,187.286 0.107,185.737 0.796 M207.600 29.283 C 212.010 30.580,219.700 36.302,223.653 41.227 C 226.807 45.156,227.816 46.824,235.500 60.800 C 240.947 70.707,240.499 69.913,247.360 81.800 C 252.699 91.048,255.013 94.730,263.234 107.054 C 273.713 122.761,285.658 144.220,289.925 155.000 C 290.360 156.100,291.468 158.800,292.388 161.000 C 293.307 163.200,295.137 167.880,296.454 171.400 C 297.772 174.920,299.195 178.610,299.618 179.600 C 300.040 180.590,301.388 184.010,302.614 187.200 C 305.081 193.622,305.509 194.666,312.205 210.600 C 312.944 212.360,313.656 214.459,313.786 215.264 C 313.916 216.070,315.003 218.201,316.200 220.000 C 317.397 221.799,318.487 223.930,318.622 224.736 C 319.060 227.348,319.603 228.664,320.650 229.641 C 321.808 230.722,324.393 235.774,324.414 236.999 C 324.431 237.970,325.027 239.048,326.541 240.845 C 327.168 241.590,329.204 244.775,331.066 247.923 C 335.501 255.420,338.301 259.453,348.696 273.320 C 370.143 301.932,376.542 315.670,376.585 333.200 C 376.640 355.896,363.542 368.084,334.400 372.452 C 332.970 372.666,330.360 373.099,328.600 373.414 C 316.173 375.636,297.428 375.637,275.000 373.416 C 271.700 373.089,266.840 372.635,264.200 372.407 C 261.560 372.178,257.780 371.817,255.800 371.603 C 250.386 371.018,231.437 371.123,223.131 371.783 C 219.099 372.103,212.200 372.559,207.800 372.795 C 203.400 373.031,199.530 373.300,199.200 373.391 C 198.870 373.483,195.090 373.752,190.800 373.989 C 186.510 374.227,179.220 374.682,174.600 375.002 C 142.428 377.230,110.201 377.227,95.400 374.994 C 77.490 372.292,72.676 371.283,66.137 368.858 C 43.837 360.587,32.658 341.451,38.881 322.200 C 41.742 313.349,49.241 297.489,55.810 286.400 C 56.527 285.190,58.424 281.950,60.027 279.200 C 61.629 276.450,64.763 271.140,66.992 267.400 C 80.228 245.183,83.304 239.523,90.691 223.800 C 96.299 211.862,104.213 193.766,114.395 169.600 C 125.438 143.393,133.890 125.932,140.728 115.200 C 143.012 111.616,148.610 103.241,151.022 99.800 C 152.255 98.040,153.719 95.714,154.274 94.630 C 154.830 93.547,156.498 90.847,157.982 88.630 C 164.396 79.047,165.758 76.606,171.202 64.935 C 173.374 60.279,175.767 55.599,176.519 54.535 C 177.272 53.471,178.580 51.340,179.426 49.800 C 188.532 33.228,197.877 26.422,207.600 29.283 " stroke="none" fill="#fafafa" fill-rule="evenodd"></path><path id="path2" d="M197.951 58.898 C 193.892 62.635,191.429 66.000,192.753 66.000 C 193.867 66.000,196.288 68.900,196.824 70.877 C 198.126 75.679,196.679 79.915,188.104 96.400 C 184.476 103.376,183.443 105.800,179.409 116.800 C 176.670 124.270,174.263 129.774,169.091 140.400 C 166.788 145.130,164.411 150.080,163.808 151.400 C 159.818 160.136,145.200 193.445,145.200 193.802 C 145.200 194.153,138.542 208.451,134.398 217.000 C 129.597 226.903,127.344 231.846,124.966 237.686 C 122.564 243.585,119.272 250.049,116.524 254.263 C 115.255 256.208,112.380 261.040,110.136 265.000 C 104.382 275.154,101.529 279.734,98.270 284.048 C 86.244 299.966,80.639 308.356,76.425 316.747 C 73.417 322.735,70.027 324.579,65.753 322.551 C 63.563 321.512,60.851 315.536,61.842 313.933 C 62.008 313.663,61.947 313.586,61.691 313.744 C 61.453 313.891,61.037 314.684,60.767 315.506 C 60.497 316.328,59.782 318.080,59.177 319.400 C 56.520 325.201,55.232 331.971,56.646 332.707 C 57.908 333.363,73.860 334.232,86.600 334.338 C 95.066 334.408,127.606 333.089,130.061 332.575 C 130.645 332.453,133.345 332.292,136.061 332.218 C 141.515 332.068,144.926 331.859,156.200 330.985 C 178.273 329.275,201.442 328.284,207.400 328.795 C 209.820 329.003,213.780 329.351,216.200 329.567 C 218.620 329.784,222.130 330.056,224.000 330.171 C 225.870 330.287,230.010 330.645,233.200 330.967 C 275.108 335.201,297.063 331.914,309.892 319.483 C 323.697 306.106,322.380 280.295,306.681 256.555 C 304.352 253.033,304.276 253.320,307.593 253.132 C 311.610 252.905,311.972 252.176,308.060 252.189 C 303.672 252.204,302.163 251.200,296.982 244.816 C 291.554 238.127,291.769 238.171,286.700 242.741 C 284.656 244.583,284.725 244.838,288.584 249.698 C 293.276 255.609,293.091 255.517,298.428 254.580 C 301.207 254.092,303.390 257.846,301.454 259.783 C 296.103 265.133,290.691 263.640,283.967 254.958 C 280.225 250.125,279.444 249.491,277.674 249.845 C 276.596 250.061,276.210 249.890,274.964 248.644 C 273.485 247.165,273.397 246.670,274.178 244.200 C 274.357 243.634,273.958 242.774,272.815 241.260 C 270.974 238.820,270.829 237.732,271.986 235.033 C 273.135 232.352,274.047 232.519,277.263 236.000 C 280.387 239.382,280.384 239.382,283.836 236.483 C 287.156 233.694,287.241 233.403,285.373 231.168 C 283.154 228.511,283.020 227.865,284.170 225.353 C 285.405 222.655,285.934 222.646,288.317 225.283 C 292.531 229.944,292.362 229.883,295.239 227.772 C 296.309 226.986,297.368 226.457,297.592 226.595 C 297.817 226.734,298.000 226.676,298.000 226.466 C 298.000 225.433,296.568 225.674,294.878 226.991 C 292.494 228.848,292.552 228.865,289.439 225.400 C 286.820 222.485,285.300 221.668,284.600 222.800 C 283.839 224.032,283.620 223.723,275.825 210.400 C 273.972 207.233,266.496 191.962,263.586 185.400 C 261.049 179.679,258.233 172.770,253.804 161.398 C 252.433 157.877,250.757 153.900,250.081 152.560 C 249.404 151.220,248.487 148.662,248.042 146.875 C 247.598 145.088,246.956 143.089,246.617 142.433 C 246.278 141.777,246.000 141.028,246.000 140.769 C 246.000 139.903,240.916 127.309,237.292 119.200 C 232.020 107.404,223.764 92.381,216.077 80.600 C 214.642 78.400,212.898 75.700,212.203 74.600 C 210.918 72.568,207.282 66.785,205.915 64.600 C 205.503 63.940,204.408 62.050,203.483 60.400 C 201.371 56.636,200.627 56.434,197.951 58.898 M208.205 121.233 C 217.653 125.618,223.907 144.186,222.407 163.400 C 221.872 170.255,221.290 175.008,220.620 178.000 C 218.748 186.357,217.333 196.144,216.831 204.200 C 216.418 210.837,215.935 214.265,214.761 218.891 C 213.674 223.174,213.383 227.729,213.990 230.948 C 214.589 234.119,214.295 236.540,213.089 238.385 C 212.600 239.133,211.570 240.736,210.800 241.947 C 207.391 247.311,200.020 248.499,195.665 244.387 C 193.991 242.806,193.157 240.137,192.793 235.200 C 192.607 232.670,192.260 228.890,192.023 226.800 C 191.786 224.710,191.418 220.030,191.204 216.400 C 190.991 212.770,190.639 208.000,190.421 205.800 C 190.204 203.600,189.829 197.660,189.586 192.600 C 189.344 187.540,188.988 180.880,188.796 177.800 C 188.604 174.720,188.435 170.130,188.420 167.600 C 188.405 165.070,188.128 161.020,187.804 158.600 C 186.556 149.275,187.158 138.036,189.264 131.341 C 191.971 122.736,201.029 117.902,208.205 121.233 M298.478 232.519 C 297.775 233.245,297.200 234.229,297.200 234.707 C 297.200 236.128,304.048 244.370,306.137 245.464 C 307.752 246.309,307.864 245.885,306.309 244.810 C 304.948 243.869,298.881 236.649,298.236 235.203 C 297.939 234.537,298.114 234.121,299.133 233.069 C 299.830 232.350,300.400 231.635,300.400 231.481 C 300.400 230.879,299.703 231.256,298.478 232.519 M273.281 250.900 C 276.780 255.034,285.315 266.223,285.898 267.442 C 287.796 271.407,277.726 280.763,271.161 281.134 C 267.035 281.367,265.433 280.274,260.296 273.713 C 252.041 263.171,252.383 263.922,254.753 261.553 C 257.496 258.810,257.890 259.047,264.480 267.410 C 270.483 275.027,272.248 275.875,275.930 272.906 C 279.524 270.009,279.507 269.956,271.778 260.234 C 265.747 252.647,265.593 252.247,267.878 250.154 C 270.033 248.180,271.104 248.328,273.281 250.900 M233.600 272.800 C 236.479 276.582,236.493 276.585,239.252 273.942 C 244.742 268.681,251.050 268.173,255.252 272.652 C 258.288 275.889,266.000 286.097,266.000 286.878 C 266.000 287.327,265.288 288.406,264.419 289.275 C 261.842 291.852,261.479 291.647,255.467 284.200 C 248.557 275.640,247.609 275.142,243.662 278.001 C 239.799 280.799,239.944 281.392,246.400 289.200 C 254.238 298.681,254.000 298.163,251.583 300.462 C 248.775 303.133,248.312 302.802,239.446 291.800 C 226.561 275.811,224.914 273.123,226.900 271.324 C 229.744 268.749,230.672 268.953,233.600 272.800 M215.529 283.019 C 217.288 283.899,218.967 285.122,219.948 286.236 C 220.960 287.386,221.633 287.870,221.814 287.578 C 223.003 285.654,228.851 284.270,229.743 285.700 C 231.514 288.538,230.996 290.161,227.862 291.591 C 224.074 293.321,224.043 293.364,224.342 296.481 L 224.600 299.161 228.400 297.307 C 244.219 289.589,249.297 307.924,233.621 316.161 C 229.530 318.311,228.186 317.970,227.262 314.549 C 226.763 312.699,227.138 312.045,229.331 310.938 C 235.046 308.055,237.598 304.787,235.738 302.731 C 234.742 301.631,233.613 301.826,229.556 303.800 C 226.960 305.064,225.356 305.600,224.172 305.600 C 222.718 305.600,222.453 305.734,222.241 306.578 C 221.181 310.803,213.407 315.600,207.620 315.600 C 195.183 315.600,187.915 300.802,194.231 288.339 C 197.499 281.889,208.018 279.262,215.529 283.019 M162.980 351.763 C 159.030 353.483,158.555 356.597,162.300 356.224 C 163.785 356.076,166.080 355.858,167.400 355.739 C 170.206 355.487,170.800 355.109,170.800 353.574 C 170.800 351.378,166.271 350.329,162.980 351.763 M168.400 353.600 C 168.400 353.820,167.724 354.000,166.897 354.000 C 166.071 354.000,164.807 354.168,164.090 354.374 C 162.634 354.792,162.673 354.189,164.141 353.597 C 165.339 353.114,168.400 353.116,168.400 353.600 M278.305 372.283 C 278.802 372.379,279.522 372.375,279.905 372.275 C 280.287 372.175,279.880 372.096,279.000 372.101 C 278.120 372.105,277.807 372.187,278.305 372.283 " stroke="none" fill="#f9b10b" fill-rule="evenodd"></path><path id="path3" d="M208.433 29.749 C 208.845 30.117,211.200 31.200,211.200 31.021 C 211.200 30.790,208.982 29.600,208.553 29.600 C 208.396 29.600,208.342 29.667,208.433 29.749 M211.600 31.379 C 211.600 31.489,212.140 31.859,212.800 32.200 C 213.460 32.541,214.000 32.731,214.000 32.621 C 214.000 32.511,213.460 32.141,212.800 31.800 C 212.140 31.459,211.600 31.269,211.600 31.379 M189.986 35.100 L 187.800 37.400 190.100 35.214 C 191.365 34.011,192.400 32.976,192.400 32.914 C 192.400 32.617,192.018 32.963,189.986 35.100 M215.600 33.864 C 216.370 34.485,217.738 35.624,218.640 36.396 C 219.543 37.168,219.273 36.839,218.040 35.664 C 216.808 34.489,215.440 33.349,215.000 33.131 C 214.560 32.913,214.830 33.243,215.600 33.864 M186.951 38.500 C 185.770 39.848,185.080 40.800,185.284 40.800 C 185.384 40.800,186.045 40.080,186.752 39.200 C 188.125 37.492,188.264 37.001,186.951 38.500 M221.530 39.100 C 221.961 39.705,222.728 40.560,223.234 41.000 C 223.740 41.440,223.451 40.945,222.592 39.900 C 220.873 37.808,220.303 37.379,221.530 39.100 M184.323 41.900 C 183.618 42.721,183.090 43.600,183.301 43.600 C 183.383 43.600,183.849 43.060,184.337 42.400 C 185.301 41.096,185.292 40.772,184.323 41.900 M225.236 43.700 C 225.951 44.745,226.601 45.600,226.682 45.600 C 226.953 45.600,226.046 44.208,224.988 43.000 C 224.192 42.092,224.252 42.262,225.236 43.700 M181.753 45.700 C 180.376 48.036,180.286 48.235,180.987 47.400 C 181.800 46.432,182.500 45.200,182.238 45.200 C 182.133 45.200,181.915 45.425,181.753 45.700 M178.600 51.200 C 178.259 51.860,178.069 52.400,178.179 52.400 C 178.289 52.400,178.659 51.860,179.000 51.200 C 179.341 50.540,179.531 50.000,179.421 50.000 C 179.311 50.000,178.941 50.540,178.600 51.200 M176.304 54.900 C 175.518 56.055,173.160 60.690,171.064 65.200 C 168.969 69.710,166.466 74.840,165.503 76.600 C 163.735 79.831,163.124 80.815,157.633 89.271 C 154.061 94.772,151.808 98.657,152.543 98.048 C 152.830 97.809,153.577 96.666,154.203 95.507 C 154.829 94.348,156.729 91.330,158.426 88.800 C 164.527 79.704,165.348 78.197,174.128 60.000 C 175.349 57.470,176.737 54.815,177.213 54.100 C 177.689 53.385,178.001 52.800,177.906 52.800 C 177.811 52.800,177.090 53.745,176.304 54.900 M233.400 57.600 C 233.957 58.700,234.503 59.600,234.613 59.600 C 234.723 59.600,234.357 58.700,233.800 57.600 C 233.243 56.500,232.697 55.600,232.587 55.600 C 232.477 55.600,232.843 56.500,233.400 57.600 M189.174 69.400 C 188.174 70.940,186.578 73.983,185.627 76.163 C 183.119 81.914,177.273 93.234,176.210 94.400 C 175.708 94.950,174.431 96.930,173.371 98.800 C 172.311 100.670,169.794 104.729,167.778 107.820 C 154.592 128.039,145.470 145.870,129.219 183.200 C 126.968 188.370,124.676 193.590,124.125 194.800 C 123.575 196.010,121.905 199.790,120.414 203.200 C 109.187 228.877,90.619 264.149,71.138 296.803 C 64.189 308.451,62.368 311.789,62.874 311.958 C 63.139 312.046,63.636 311.713,63.978 311.218 C 64.320 310.723,65.167 309.718,65.860 308.985 C 66.553 308.253,67.018 307.551,66.893 307.427 C 66.769 307.302,66.907 307.200,67.200 307.200 C 67.493 307.200,67.622 307.089,67.486 306.952 C 67.350 306.816,67.501 306.442,67.823 306.120 C 68.144 305.799,68.304 305.369,68.178 305.165 C 68.052 304.961,68.230 304.687,68.572 304.555 C 68.915 304.424,69.096 304.155,68.974 303.958 C 68.852 303.761,68.939 303.600,69.166 303.600 C 69.561 303.600,70.820 301.540,70.813 300.904 C 70.804 300.072,71.408 298.910,72.265 298.110 C 72.790 297.621,73.215 297.126,73.210 297.010 C 73.171 296.158,73.244 295.980,73.555 296.172 C 73.750 296.293,73.902 296.168,73.892 295.896 C 73.847 294.638,74.031 293.972,74.367 294.180 C 74.570 294.305,74.854 293.864,75.000 293.200 C 75.146 292.536,75.430 292.095,75.633 292.220 C 75.835 292.345,76.000 292.268,76.000 292.050 C 76.000 290.618,76.816 289.580,77.607 290.004 C 78.075 290.254,78.305 290.645,78.147 290.920 C 77.996 291.184,78.016 291.270,78.192 291.111 C 78.368 290.952,79.207 291.372,80.056 292.045 C 81.051 292.832,81.510 293.031,81.346 292.603 C 81.206 292.238,80.662 291.776,80.138 291.577 C 79.614 291.377,79.009 290.750,78.794 290.183 C 78.541 289.519,78.223 289.256,77.901 289.445 C 77.625 289.606,77.737 289.353,78.149 288.884 C 78.560 288.414,78.805 287.791,78.693 287.498 C 78.581 287.206,78.739 286.625,79.044 286.207 C 79.350 285.789,79.600 285.121,79.600 284.724 C 79.600 284.326,79.744 284.000,79.920 284.000 C 80.095 284.000,80.680 283.285,81.220 282.411 C 81.759 281.537,82.329 280.817,82.487 280.811 C 82.646 280.805,82.680 280.553,82.564 280.252 C 82.449 279.950,82.611 279.446,82.925 279.132 C 83.239 278.818,83.797 277.979,84.165 277.267 C 84.533 276.556,84.980 276.064,85.159 276.175 C 85.338 276.285,85.396 275.886,85.288 275.288 C 85.179 274.690,85.229 274.328,85.397 274.485 C 85.566 274.642,86.319 273.590,87.071 272.148 C 87.822 270.706,88.794 269.144,89.229 268.677 C 89.664 268.210,89.931 267.597,89.822 267.314 C 89.714 267.031,89.900 266.800,90.236 266.800 C 90.572 266.800,90.736 266.620,90.600 266.400 C 90.464 266.180,90.554 266.000,90.800 266.000 C 91.046 266.000,91.135 265.819,90.998 265.597 C 90.861 265.376,91.030 265.087,91.372 264.955 C 91.715 264.824,91.900 264.562,91.783 264.373 C 91.666 264.184,91.892 263.700,92.285 263.297 C 92.678 262.895,93.061 262.222,93.136 261.801 C 93.484 259.851,96.009 255.418,96.547 255.814 C 96.686 255.916,96.725 255.895,96.633 255.766 C 96.363 255.389,97.242 253.200,97.663 253.200 C 97.874 253.200,97.918 253.425,97.759 253.700 C 97.601 253.975,97.964 253.751,98.566 253.201 C 99.370 252.468,99.620 251.915,99.503 251.122 C 99.416 250.528,99.492 250.133,99.672 250.245 C 99.984 250.437,100.069 250.238,100.160 249.100 C 100.182 248.825,100.470 248.362,100.800 248.070 C 101.333 247.600,101.333 247.574,100.800 247.839 C 100.356 248.060,100.382 247.930,100.901 247.336 C 101.286 246.896,101.486 246.419,101.344 246.277 C 101.202 246.135,101.380 245.906,101.740 245.768 C 102.101 245.629,102.296 245.355,102.174 245.158 C 102.052 244.961,102.154 244.800,102.400 244.800 C 102.646 244.800,102.736 244.620,102.600 244.400 C 102.464 244.180,102.573 244.000,102.843 244.000 C 103.113 244.000,103.222 243.889,103.086 243.752 C 102.950 243.616,103.101 243.242,103.423 242.920 C 103.744 242.599,103.888 242.142,103.742 241.906 C 103.585 241.651,103.664 241.593,103.938 241.762 C 104.192 241.919,104.414 241.902,104.431 241.724 C 104.556 240.398,105.685 237.510,106.522 236.371 C 106.916 235.837,107.111 235.653,106.957 235.962 C 106.772 236.332,106.836 236.425,107.145 236.234 C 107.402 236.075,107.508 235.776,107.381 235.569 C 107.039 235.016,107.593 233.548,108.039 233.824 C 108.248 233.953,108.381 233.911,108.334 233.730 C 107.944 232.239,109.820 229.400,111.195 229.400 C 111.522 229.400,111.850 229.085,111.924 228.700 C 111.998 228.315,111.863 228.000,111.624 228.000 C 110.956 228.000,111.495 225.721,112.615 223.810 C 113.157 222.886,113.600 221.836,113.600 221.477 C 113.600 220.743,115.089 217.929,115.672 217.561 C 115.880 217.429,116.140 216.754,116.249 216.060 C 116.359 215.366,116.706 214.304,117.022 213.699 C 117.337 213.095,117.596 212.481,117.598 212.336 C 117.599 212.191,118.095 211.316,118.700 210.392 C 119.816 208.687,119.861 208.574,119.950 207.259 C 119.978 206.852,120.568 205.925,121.262 205.198 C 121.956 204.472,122.573 203.429,122.633 202.880 C 122.693 202.332,122.980 201.732,123.271 201.548 C 123.562 201.363,123.678 201.209,123.528 201.206 C 123.378 201.203,123.435 200.615,123.654 199.900 C 123.873 199.185,124.095 198.384,124.147 198.119 C 124.199 197.855,124.575 197.270,124.983 196.819 C 125.390 196.369,125.570 196.000,125.382 196.000 C 125.194 196.000,125.256 195.784,125.520 195.520 C 125.784 195.256,126.000 194.703,126.000 194.291 C 126.000 193.880,126.225 193.292,126.500 192.985 C 127.709 191.638,127.937 191.270,127.709 191.043 C 127.576 190.909,127.641 190.800,127.853 190.800 C 128.337 190.800,129.329 188.133,129.027 187.644 C 128.773 187.232,129.835 185.000,130.286 185.000 C 130.449 185.000,130.638 184.730,130.706 184.400 C 130.906 183.426,131.134 182.600,131.202 182.600 C 131.237 182.600,131.352 182.060,131.457 181.400 C 131.563 180.740,131.818 180.140,132.025 180.067 C 132.231 179.993,132.400 179.706,132.400 179.429 C 132.400 179.151,132.756 178.602,133.191 178.209 C 133.625 177.815,133.868 177.309,133.729 177.085 C 133.584 176.851,133.674 176.798,133.938 176.962 C 134.192 177.119,134.400 177.507,134.400 177.824 C 134.400 178.141,134.683 178.400,135.028 178.400 C 135.789 178.400,135.666 176.627,134.900 176.550 C 133.877 176.448,133.814 176.379,134.400 176.000 C 134.797 175.743,134.832 175.610,134.502 175.606 C 133.836 175.598,135.345 171.574,136.192 171.101 C 136.526 170.913,136.800 170.489,136.800 170.157 C 136.800 169.797,136.990 169.670,137.268 169.842 C 137.583 170.036,137.652 169.913,137.481 169.466 C 137.329 169.070,137.423 168.798,137.713 168.794 C 138.051 168.790,138.033 168.682,137.653 168.441 C 137.206 168.158,137.242 167.954,137.853 167.328 C 138.264 166.906,138.631 166.120,138.669 165.580 C 138.769 164.167,140.352 160.801,140.919 160.797 C 141.183 160.795,141.608 160.345,141.863 159.796 C 142.117 159.248,142.149 158.908,141.933 159.041 C 141.717 159.175,141.770 158.917,142.051 158.468 C 142.331 158.019,142.691 157.733,142.851 157.832 C 143.150 158.017,143.681 156.752,143.560 156.141 C 143.426 155.459,144.109 153.200,144.450 153.200 C 144.643 153.200,144.763 153.065,144.718 152.900 C 144.673 152.735,144.978 151.970,145.396 151.200 C 145.814 150.430,146.213 149.460,146.284 149.044 C 146.544 147.510,147.990 144.747,148.400 145.000 C 148.631 145.143,148.770 145.021,148.710 144.730 C 148.649 144.438,148.847 144.252,149.149 144.316 C 149.498 144.390,149.612 144.209,149.462 143.816 C 149.332 143.477,149.410 143.200,149.636 143.200 C 149.862 143.200,149.936 143.020,149.800 142.800 C 149.664 142.580,149.754 142.400,150.000 142.400 C 150.246 142.400,150.336 142.220,150.200 142.000 C 150.064 141.780,150.122 141.600,150.328 141.600 C 150.647 141.600,151.781 139.426,151.795 138.787 C 151.804 138.384,153.386 134.999,153.793 134.514 C 154.017 134.247,154.414 133.771,154.676 133.457 C 154.938 133.142,155.043 132.776,154.909 132.643 C 154.776 132.509,154.838 132.400,155.048 132.400 C 155.258 132.400,155.455 132.060,155.487 131.644 C 155.518 131.228,156.141 129.867,156.872 128.620 C 157.602 127.373,158.565 125.633,159.011 124.753 C 159.457 123.874,159.981 123.300,160.175 123.477 C 160.371 123.656,160.408 123.590,160.258 123.328 C 160.109 123.068,160.432 122.199,160.976 121.397 C 161.520 120.596,162.076 119.591,162.211 119.164 C 162.347 118.737,162.592 118.471,162.756 118.573 C 162.920 118.674,163.384 117.957,163.787 116.978 C 164.191 116.000,164.661 115.200,164.833 115.200 C 165.005 115.200,165.273 114.795,165.429 114.300 C 165.584 113.805,166.091 113.040,166.556 112.600 C 167.020 112.160,167.400 111.530,167.400 111.200 C 167.400 110.870,167.625 110.645,167.900 110.700 C 168.175 110.755,168.355 110.575,168.300 110.300 C 168.245 110.025,168.470 109.860,168.800 109.933 C 169.130 110.007,169.275 109.942,169.123 109.790 C 168.379 109.045,171.424 103.600,172.585 103.600 C 172.978 103.600,173.144 103.060,173.291 101.300 C 173.314 101.025,173.483 100.800,173.667 100.800 C 173.850 100.800,174.000 100.549,174.000 100.243 C 174.000 99.936,174.247 99.591,174.549 99.475 C 174.850 99.359,175.217 98.785,175.365 98.198 C 175.762 96.614,177.080 95.320,177.682 95.922 C 177.945 96.185,178.628 96.400,179.200 96.400 C 179.772 96.400,180.437 96.597,180.677 96.837 C 180.993 97.153,181.345 97.150,181.949 96.827 C 182.408 96.582,183.192 96.471,183.692 96.582 C 185.821 97.052,189.437 89.585,188.345 86.971 C 187.840 85.761,187.577 82.802,187.975 82.798 C 188.099 82.796,188.218 81.896,188.240 80.798 C 188.263 79.699,188.140 78.800,187.967 78.800 C 187.338 78.800,187.181 77.229,187.632 75.437 C 187.887 74.427,188.233 73.600,188.401 73.600 C 188.569 73.600,188.816 73.285,188.950 72.900 C 189.083 72.515,189.652 71.392,190.214 70.404 C 192.144 67.009,191.273 66.167,189.174 69.400 M241.041 71.400 C 241.641 72.500,242.302 73.580,242.510 73.800 C 243.103 74.427,241.341 71.095,240.606 70.200 C 240.245 69.760,240.441 70.300,241.041 71.400 M245.525 79.400 C 245.972 80.280,246.633 81.360,246.994 81.800 C 247.355 82.240,247.159 81.700,246.559 80.600 C 245.216 78.138,244.407 77.199,245.525 79.400 M248.849 85.171 C 249.566 86.475,250.500 87.960,250.924 88.471 L 251.695 89.400 251.106 88.400 C 250.781 87.850,249.933 86.365,249.220 85.100 C 248.507 83.835,247.839 82.800,247.735 82.800 C 247.631 82.800,248.132 83.867,248.849 85.171 M258.604 100.600 C 260.207 102.826,260.650 103.239,259.757 101.673 C 259.341 100.943,258.652 100.043,258.226 99.673 C 257.776 99.282,257.934 99.669,258.604 100.600 M262.185 105.900 C 262.802 106.835,263.383 107.600,263.476 107.600 C 263.764 107.600,262.233 105.166,261.632 104.669 C 261.320 104.411,261.568 104.965,262.185 105.900 M146.493 106.300 C 145.457 107.796,145.121 108.400,145.323 108.400 C 145.417 108.400,145.970 107.680,146.553 106.800 C 147.736 105.012,147.684 104.579,146.493 106.300 M264.585 109.500 C 265.202 110.435,265.783 111.200,265.876 111.200 C 266.164 111.200,264.633 108.766,264.032 108.269 C 263.720 108.011,263.968 108.565,264.585 109.500 M143.293 111.100 C 142.257 112.596,141.921 113.200,142.123 113.200 C 142.217 113.200,142.770 112.480,143.353 111.600 C 144.536 109.812,144.484 109.379,143.293 111.100 M266.609 112.626 C 266.981 113.301,267.641 114.291,268.076 114.826 L 268.867 115.800 268.191 114.574 C 267.819 113.899,267.159 112.909,266.724 112.374 L 265.933 111.400 266.609 112.626 M140.268 115.900 C 139.023 117.883,138.333 119.200,138.539 119.200 C 138.631 119.200,139.350 118.120,140.136 116.800 C 141.692 114.189,141.798 113.464,140.268 115.900 M175.513 116.011 C 175.402 116.767,175.498 117.168,175.768 117.080 C 176.310 116.902,176.590 114.800,176.072 114.800 C 175.862 114.800,175.611 115.345,175.513 116.011 M269.149 116.600 C 269.365 117.040,269.834 117.760,270.193 118.200 L 270.844 119.000 270.451 118.200 C 270.235 117.760,269.766 117.040,269.407 116.600 L 268.756 115.800 269.149 116.600 M135.600 124.000 C 135.151 124.880,134.874 125.600,134.984 125.600 C 135.094 125.600,135.551 124.880,136.000 124.000 C 136.449 123.120,136.726 122.400,136.616 122.400 C 136.506 122.400,136.049 123.120,135.600 124.000 M275.000 126.400 C 275.341 127.060,275.711 127.600,275.821 127.600 C 275.931 127.600,275.741 127.060,275.400 126.400 C 275.059 125.740,274.689 125.200,274.579 125.200 C 274.469 125.200,274.659 125.740,275.000 126.400 M133.200 128.400 C 132.534 129.720,132.078 130.800,132.188 130.800 C 132.298 130.800,132.934 129.720,133.600 128.400 C 134.266 127.080,134.722 126.000,134.612 126.000 C 134.502 126.000,133.866 127.080,133.200 128.400 M166.777 130.043 C 166.158 131.199,166.780 131.740,168.135 131.225 C 169.394 130.746,169.495 130.186,168.426 129.614 C 167.379 129.053,167.295 129.075,166.777 130.043 M164.426 130.776 C 163.950 131.077,163.941 131.247,164.375 131.770 C 165.134 132.684,165.600 132.544,165.600 131.400 C 165.600 130.333,165.342 130.196,164.426 130.776 M155.467 133.867 C 154.712 134.621,155.228 135.650,156.300 135.527 C 157.800 135.354,158.160 133.600,156.694 133.600 C 156.166 133.600,155.613 133.720,155.467 133.867 M166.100 136.625 C 165.159 137.643,165.662 139.179,166.663 138.348 C 167.241 137.868,167.390 136.562,166.900 136.266 C 166.735 136.166,166.375 136.327,166.100 136.625 M158.000 137.576 C 158.000 138.638,158.612 138.929,159.664 138.366 C 160.514 137.911,160.519 137.876,159.796 137.347 C 158.738 136.574,158.000 136.668,158.000 137.576 M282.682 140.589 C 283.273 141.793,283.823 142.711,283.905 142.629 C 284.084 142.449,282.067 138.400,281.798 138.400 C 281.694 138.400,282.092 139.385,282.682 140.589 M150.255 143.000 C 150.115 143.365,150.255 143.600,150.613 143.600 C 150.936 143.600,151.200 143.330,151.200 143.000 C 151.200 142.670,151.039 142.400,150.843 142.400 C 150.646 142.400,150.382 142.670,150.255 143.000 M158.000 143.200 C 158.000 143.640,158.180 144.000,158.400 144.000 C 158.620 144.000,158.800 143.640,158.800 143.200 C 158.800 142.760,158.620 142.400,158.400 142.400 C 158.180 142.400,158.000 142.760,158.000 143.200 M285.482 146.189 C 286.073 147.393,286.623 148.311,286.705 148.229 C 286.884 148.049,284.867 144.000,284.598 144.000 C 284.494 144.000,284.892 144.985,285.482 146.189 M124.465 146.217 C 123.795 147.688,123.923 148.002,124.647 146.665 C 124.986 146.040,125.188 145.454,125.096 145.363 C 125.005 145.271,124.721 145.656,124.465 146.217 M122.875 149.819 C 121.670 152.300,121.805 152.647,123.046 150.261 C 123.601 149.194,123.987 148.253,123.903 148.170 C 123.819 148.086,123.357 148.828,122.875 149.819 M288.428 152.200 C 288.428 152.420,288.686 153.050,289.000 153.600 C 289.314 154.150,289.572 154.420,289.572 154.200 C 289.572 153.980,289.314 153.350,289.000 152.800 C 288.686 152.250,288.428 151.980,288.428 152.200 M120.272 155.819 C 119.332 157.789,119.464 158.124,120.447 156.262 C 120.893 155.416,121.187 154.654,121.101 154.567 C 121.014 154.481,120.641 155.044,120.272 155.819 M118.865 159.017 C 118.195 160.488,118.323 160.802,119.047 159.465 C 119.386 158.840,119.588 158.254,119.496 158.163 C 119.405 158.071,119.121 158.456,118.865 159.017 M117.472 162.219 C 116.532 164.189,116.664 164.524,117.647 162.662 C 118.093 161.816,118.387 161.054,118.301 160.967 C 118.214 160.881,117.841 161.444,117.472 162.219 M293.228 163.800 C 293.228 164.020,293.486 164.650,293.800 165.200 C 294.114 165.750,294.372 166.020,294.372 165.800 C 294.372 165.580,294.114 164.950,293.800 164.400 C 293.486 163.850,293.228 163.580,293.228 163.800 M138.800 168.600 C 138.800 168.973,139.178 169.200,139.800 169.200 C 140.422 169.200,140.800 168.973,140.800 168.600 C 140.800 168.227,140.422 168.000,139.800 168.000 C 139.178 168.000,138.800 168.227,138.800 168.600 M114.272 169.819 C 113.332 171.789,113.464 172.124,114.447 170.262 C 114.893 169.416,115.187 168.654,115.101 168.567 C 115.014 168.481,114.641 169.044,114.272 169.819 M140.871 172.267 C 141.065 173.270,142.000 173.408,142.000 172.433 C 142.000 171.942,141.742 171.600,141.371 171.600 C 140.998 171.600,140.794 171.872,140.871 172.267 M112.865 173.017 C 112.195 174.488,112.323 174.802,113.047 173.465 C 113.386 172.840,113.588 172.254,113.496 172.163 C 113.405 172.071,113.121 172.456,112.865 173.017 M298.818 178.449 C 298.808 178.585,299.253 179.665,299.806 180.849 C 300.360 182.032,300.697 182.550,300.555 182.000 C 300.287 180.956,298.848 178.016,298.818 178.449 M108.672 183.019 C 107.732 184.989,107.864 185.324,108.847 183.462 C 109.293 182.616,109.587 181.854,109.501 181.767 C 109.414 181.681,109.041 182.244,108.672 183.019 M143.843 182.633 C 143.709 182.981,143.600 183.616,143.600 184.045 C 143.600 184.474,143.330 184.929,143.000 185.055 C 141.968 185.451,142.233 187.279,143.300 187.128 C 143.980 187.031,144.204 186.730,144.218 185.895 C 144.228 185.224,144.581 184.548,145.118 184.173 C 146.151 183.449,146.263 182.587,145.367 182.243 C 144.397 181.871,144.107 181.945,143.843 182.633 M137.084 183.450 C 136.306 184.227,136.831 185.200,138.028 185.200 C 139.072 185.200,139.237 185.066,139.128 184.300 C 139.002 183.411,137.674 182.859,137.084 183.450 M107.265 186.217 C 106.595 187.688,106.723 188.002,107.447 186.665 C 107.786 186.040,107.988 185.454,107.896 185.363 C 107.805 185.271,107.521 185.656,107.265 186.217 M302.028 186.600 C 302.028 186.820,302.286 187.450,302.600 188.000 C 302.914 188.550,303.172 188.820,303.172 188.600 C 303.172 188.380,302.914 187.750,302.600 187.200 C 302.286 186.650,302.028 186.380,302.028 186.600 M129.600 189.200 C 129.600 189.640,129.780 190.000,130.000 190.000 C 130.220 190.000,130.400 189.640,130.400 189.200 C 130.400 188.760,130.220 188.400,130.000 188.400 C 129.780 188.400,129.600 188.760,129.600 189.200 M105.265 191.017 C 104.595 192.488,104.723 192.802,105.447 191.465 C 105.786 190.840,105.988 190.254,105.896 190.163 C 105.805 190.071,105.521 190.456,105.265 191.017 M304.834 193.800 C 304.834 194.020,305.178 194.830,305.600 195.600 C 306.022 196.370,306.366 196.820,306.366 196.600 C 306.366 196.380,306.022 195.570,305.600 194.800 C 305.178 194.030,304.834 193.580,304.834 193.800 M102.672 197.019 C 101.732 198.989,101.864 199.324,102.847 197.462 C 103.293 196.616,103.587 195.854,103.501 195.767 C 103.414 195.681,103.041 196.244,102.672 197.019 M101.265 200.217 C 100.595 201.688,100.723 202.002,101.447 200.665 C 101.786 200.040,101.988 199.454,101.896 199.363 C 101.805 199.271,101.521 199.656,101.265 200.217 M134.945 200.600 C 134.591 201.520,135.117 202.475,135.894 202.325 C 136.762 202.158,137.066 200.814,136.339 200.354 C 135.558 199.859,135.205 199.921,134.945 200.600 M307.634 200.600 C 307.634 200.820,307.978 201.630,308.400 202.400 C 308.822 203.170,309.166 203.620,309.166 203.400 C 309.166 203.180,308.822 202.370,308.400 201.600 C 307.978 200.830,307.634 200.380,307.634 200.600 M99.872 203.419 C 98.932 205.389,99.064 205.724,100.047 203.862 C 100.493 203.016,100.787 202.254,100.701 202.167 C 100.614 202.081,100.241 202.644,99.872 203.419 M309.228 204.200 C 309.228 204.420,309.486 205.050,309.800 205.600 C 310.114 206.150,310.372 206.420,310.372 206.200 C 310.372 205.980,310.114 205.350,309.800 204.800 C 309.486 204.250,309.228 203.980,309.228 204.200 M96.672 210.619 C 95.732 212.589,95.864 212.924,96.847 211.062 C 97.293 210.216,97.587 209.454,97.501 209.367 C 97.414 209.281,97.041 209.844,96.672 210.619 M312.988 213.200 C 313.079 213.750,313.262 214.871,313.393 215.691 C 313.525 216.511,314.290 218.041,315.094 219.091 C 315.897 220.141,316.967 221.720,317.472 222.600 C 317.977 223.480,318.393 223.999,318.395 223.753 C 318.398 223.507,317.415 221.826,316.211 220.017 C 315.008 218.208,313.916 216.070,313.785 215.264 C 313.654 214.459,313.384 213.440,313.184 213.000 C 312.867 212.301,312.842 212.327,312.988 213.200 M131.812 213.317 C 131.641 213.712,131.613 214.147,131.751 214.284 C 132.157 214.690,132.484 214.120,132.297 213.331 C 132.132 212.633,132.110 212.632,131.812 213.317 M92.465 219.817 C 91.795 221.288,91.923 221.602,92.647 220.265 C 92.986 219.640,93.188 219.054,93.096 218.963 C 93.005 218.871,92.721 219.256,92.465 219.817 M90.080 225.020 C 89.376 226.448,88.809 227.747,88.820 227.908 C 88.830 228.068,89.472 226.967,90.246 225.459 C 91.019 223.952,91.586 222.653,91.506 222.572 C 91.425 222.492,90.783 223.593,90.080 225.020 M285.200 224.200 C 283.900 225.767,284.204 228.254,285.950 230.340 C 288.477 233.359,288.316 234.018,284.200 237.485 C 280.532 240.575,280.415 240.571,277.128 237.238 C 273.880 233.945,273.510 233.843,272.643 236.008 C 271.750 238.240,271.792 238.446,273.624 240.860 C 275.154 242.877,275.233 243.115,275.006 245.006 C 274.696 247.599,275.638 248.800,277.983 248.800 C 280.351 248.800,280.533 248.947,284.390 254.008 C 290.730 262.326,294.599 263.794,299.778 259.844 C 302.640 257.661,300.700 254.639,297.209 255.842 C 293.972 256.957,292.361 255.981,287.665 250.066 C 283.156 244.384,283.158 244.134,287.748 240.567 C 291.905 237.337,291.939 237.349,297.152 243.741 C 303.756 251.838,305.649 252.995,310.263 251.758 C 313.290 250.945,310.226 246.264,306.514 246.031 C 305.073 245.940,296.800 236.254,296.800 234.658 C 296.800 234.140,297.475 233.103,298.400 232.200 C 300.249 230.395,300.328 229.932,299.100 228.127 C 297.972 226.470,297.651 226.476,295.145 228.200 C 292.433 230.066,292.381 230.052,289.122 226.600 C 286.073 223.370,285.951 223.295,285.200 224.200 M318.601 226.188 C 318.762 227.734,319.107 228.489,320.152 229.588 C 320.891 230.364,321.694 231.360,321.936 231.800 C 322.178 232.240,322.381 232.386,322.388 232.124 C 322.395 231.863,321.688 230.826,320.817 229.820 C 319.847 228.699,319.138 227.413,318.985 226.496 C 318.595 224.167,318.370 223.987,318.601 226.188 M120.100 230.081 C 118.614 230.472,118.315 231.603,119.700 231.594 C 120.910 231.586,121.709 231.033,121.539 230.321 C 121.431 229.868,121.110 229.815,120.100 230.081 M323.189 234.697 C 323.586 235.744,324.156 237.391,324.455 238.357 C 324.817 239.525,325.469 240.464,326.400 241.156 L 327.800 242.199 326.310 240.510 C 325.491 239.580,324.713 238.321,324.582 237.710 C 324.211 235.977,323.172 233.230,322.802 233.001 C 322.617 232.887,322.791 233.650,323.189 234.697 M120.000 236.633 C 120.000 237.886,120.939 237.749,121.128 236.469 C 121.213 235.892,121.045 235.600,120.628 235.600 C 120.219 235.600,120.000 235.961,120.000 236.633 M119.500 238.276 C 119.069 238.388,118.800 238.843,118.800 239.457 C 118.800 240.954,120.551 240.629,120.727 239.100 C 120.854 237.993,120.778 237.942,119.500 238.276 M81.400 242.400 C 81.059 243.060,80.869 243.600,80.979 243.600 C 81.089 243.600,81.459 243.060,81.800 242.400 C 82.141 241.740,82.331 241.200,82.221 241.200 C 82.111 241.200,81.741 241.740,81.400 242.400 M77.200 250.000 C 76.751 250.880,76.474 251.600,76.584 251.600 C 76.694 251.600,77.151 250.880,77.600 250.000 C 78.049 249.120,78.326 248.400,78.216 248.400 C 78.106 248.400,77.649 249.120,77.200 250.000 M331.549 249.400 C 331.765 249.840,332.234 250.560,332.593 251.000 L 333.244 251.800 332.851 251.000 C 332.635 250.560,332.166 249.840,331.807 249.400 L 331.156 248.600 331.549 249.400 M268.487 250.908 C 267.022 252.467,267.365 253.161,273.397 260.830 C 280.205 269.486,280.398 270.038,277.585 272.768 C 272.789 277.423,270.414 276.539,263.275 267.441 C 257.635 260.251,257.715 260.313,255.836 261.745 C 253.584 263.463,253.795 263.982,259.781 271.469 C 265.820 279.022,267.039 280.054,270.235 280.320 C 274.154 280.645,280.589 276.423,283.981 271.304 C 285.763 268.613,285.654 268.292,280.815 261.948 C 271.658 249.946,270.426 248.843,268.487 250.908 M100.000 252.433 C 100.000 253.964,100.942 253.826,101.127 252.269 C 101.216 251.511,101.071 251.200,100.627 251.200 C 100.193 251.200,100.000 251.580,100.000 252.433 M74.200 255.200 C 73.859 255.860,73.669 256.400,73.779 256.400 C 73.889 256.400,74.259 255.860,74.600 255.200 C 74.941 254.540,75.131 254.000,75.021 254.000 C 74.911 254.000,74.541 254.540,74.200 255.200 M335.200 255.200 C 335.670 255.860,336.144 256.400,336.254 256.400 C 336.364 256.400,336.070 255.860,335.600 255.200 C 335.130 254.540,334.656 254.000,334.546 254.000 C 334.436 254.000,334.730 254.540,335.200 255.200 M72.953 257.300 C 71.576 259.636,71.486 259.835,72.187 259.000 C 73.000 258.032,73.700 256.800,73.438 256.800 C 73.333 256.800,73.115 257.025,72.953 257.300 M339.200 261.000 C 339.881 261.990,340.528 262.800,340.638 262.800 C 340.748 262.800,340.281 261.990,339.600 261.000 C 338.919 260.010,338.272 259.200,338.162 259.200 C 338.052 259.200,338.519 260.010,339.200 261.000 M342.991 266.200 C 344.259 267.960,345.655 269.760,346.094 270.200 C 346.532 270.640,345.776 269.470,344.412 267.600 C 343.049 265.730,341.652 263.930,341.310 263.600 C 340.967 263.270,341.724 264.440,342.991 266.200 M67.952 265.700 C 67.690 266.195,67.215 267.050,66.896 267.600 C 66.339 268.559,66.343 268.567,66.988 267.800 C 67.786 266.852,68.905 264.800,68.624 264.800 C 68.516 264.800,68.214 265.205,67.952 265.700 M92.280 267.853 C 91.802 268.332,91.973 270.000,92.500 269.994 C 93.413 269.983,94.081 269.314,93.935 268.557 C 93.786 267.786,92.777 267.357,92.280 267.853 M65.400 270.000 C 65.059 270.660,64.869 271.200,64.979 271.200 C 65.089 271.200,65.459 270.660,65.800 270.000 C 66.141 269.340,66.331 268.800,66.221 268.800 C 66.111 268.800,65.741 269.340,65.400 270.000 M245.997 270.774 C 243.995 271.383,242.254 272.517,239.763 274.835 C 238.364 276.136,237.114 277.200,236.984 277.200 C 236.250 277.200,235.069 276.126,233.042 273.618 C 230.452 270.412,229.586 270.136,227.842 271.956 C 226.433 273.427,226.410 273.381,232.668 281.664 C 240.590 292.149,247.970 300.800,248.993 300.800 C 250.036 300.800,252.000 299.114,252.000 298.219 C 252.000 297.879,249.300 294.246,246.000 290.147 C 239.238 281.748,239.152 281.535,241.443 278.858 C 245.840 273.721,248.762 274.348,254.597 281.680 C 261.369 290.188,261.895 290.567,264.007 288.454 C 265.574 286.888,265.528 286.797,259.263 279.000 C 252.557 270.653,250.529 269.395,245.997 270.774 M347.600 272.400 C 348.070 273.060,348.544 273.600,348.654 273.600 C 348.764 273.600,348.470 273.060,348.000 272.400 C 347.530 271.740,347.056 271.200,346.946 271.200 C 346.836 271.200,347.130 271.740,347.600 272.400 M350.000 275.600 C 350.697 276.480,351.357 277.200,351.467 277.200 C 351.577 277.200,351.097 276.480,350.400 275.600 C 349.703 274.720,349.043 274.000,348.933 274.000 C 348.823 274.000,349.303 274.720,350.000 275.600 M92.166 275.300 C 92.295 275.575,92.511 276.115,92.646 276.500 C 92.943 277.340,93.600 277.431,93.600 276.633 C 93.600 275.609,93.125 274.800,92.524 274.800 C 92.194 274.800,92.036 275.021,92.166 275.300 M353.032 279.700 C 353.856 280.855,354.883 282.160,355.314 282.600 C 355.745 283.040,355.161 282.095,354.016 280.500 C 352.872 278.905,351.845 277.600,351.734 277.600 C 351.623 277.600,352.207 278.545,353.032 279.700 M93.280 282.880 C 92.715 283.445,92.633 285.200,93.171 285.200 C 93.598 285.200,95.200 283.263,95.200 282.746 C 95.200 282.232,93.833 282.327,93.280 282.880 M357.600 286.000 C 358.070 286.660,358.544 287.200,358.654 287.200 C 358.764 287.200,358.470 286.660,358.000 286.000 C 357.530 285.340,357.056 284.800,356.946 284.800 C 356.836 284.800,357.130 285.340,357.600 286.000 M55.508 286.900 C 54.633 288.249,53.848 289.856,54.287 289.400 C 54.848 288.817,56.498 286.000,56.279 286.000 C 56.176 286.000,55.829 286.405,55.508 286.900 M224.100 287.194 C 221.847 288.236,221.600 288.469,221.600 289.549 C 221.600 292.455,223.011 293.878,224.520 292.495 C 225.004 292.051,226.345 291.215,227.500 290.637 C 229.394 289.690,229.600 289.457,229.600 288.273 C 229.600 285.688,228.023 285.378,224.100 287.194 M89.616 287.275 C 88.762 288.191,88.640 288.718,89.040 289.760 C 89.377 290.639,90.615 289.918,91.412 288.376 C 92.436 286.397,91.162 285.616,89.616 287.275 M79.213 289.486 C 79.241 290.196,81.265 291.295,81.715 290.845 C 81.960 290.600,82.034 290.377,81.880 290.350 C 81.156 290.221,80.941 290.139,80.100 289.672 C 79.605 289.397,79.206 289.313,79.213 289.486 M52.200 292.800 C 51.859 293.460,51.669 294.000,51.779 294.000 C 51.889 294.000,52.259 293.460,52.600 292.800 C 52.941 292.140,53.131 291.600,53.021 291.600 C 52.911 291.600,52.541 292.140,52.200 292.800 M82.193 293.999 C 82.224 294.430,82.403 294.922,82.589 295.092 C 82.776 295.261,82.808 295.190,82.662 294.934 C 82.515 294.678,82.596 294.401,82.841 294.320 C 83.135 294.222,83.091 294.007,82.711 293.692 C 82.241 293.302,82.145 293.359,82.193 293.999 M363.626 295.100 C 364.123 295.925,364.966 297.365,365.499 298.300 C 366.500 300.056,367.189 300.695,366.361 299.100 C 365.492 297.425,363.087 293.600,362.904 293.600 C 362.803 293.600,363.128 294.275,363.626 295.100 M232.600 296.562 C 231.720 296.842,229.880 297.640,228.511 298.335 C 227.143 299.031,225.565 299.600,225.006 299.600 C 223.336 299.600,221.369 304.147,222.700 304.929 C 223.270 305.264,227.185 304.018,229.977 302.611 C 239.519 297.806,240.027 306.330,230.502 311.431 C 228.147 312.693,227.710 313.483,228.478 315.094 C 230.573 319.484,242.400 309.825,242.400 303.723 C 242.400 298.520,237.562 294.985,232.600 296.562 M48.580 299.640 C 48.011 300.762,47.613 301.747,47.695 301.829 C 47.777 301.911,48.327 300.993,48.918 299.789 C 49.508 298.585,49.906 297.600,49.802 297.600 C 49.698 297.600,49.148 298.518,48.580 299.640 M76.800 299.173 C 76.800 300.060,78.272 300.688,78.893 300.067 C 79.559 299.401,78.910 298.400,77.813 298.400 C 77.078 298.400,76.800 298.613,76.800 299.173 M367.600 302.000 C 368.049 302.880,368.506 303.600,368.616 303.600 C 368.726 303.600,368.449 302.880,368.000 302.000 C 367.551 301.120,367.094 300.400,366.984 300.400 C 366.874 300.400,367.151 301.120,367.600 302.000 M46.581 303.637 C 46.229 304.318,46.012 304.945,46.099 305.032 C 46.186 305.119,46.556 304.562,46.922 303.795 C 47.744 302.070,47.459 301.938,46.581 303.637 M369.236 305.000 C 369.236 305.220,369.670 306.210,370.200 307.200 C 370.730 308.190,371.164 308.820,371.164 308.600 C 371.164 308.380,370.730 307.390,370.200 306.400 C 369.670 305.410,369.236 304.780,369.236 305.000 M43.872 309.419 C 42.932 311.389,43.064 311.724,44.047 309.862 C 44.493 309.016,44.787 308.254,44.701 308.167 C 44.614 308.081,44.241 308.644,43.872 309.419 M40.454 317.562 C 39.275 320.303,39.419 320.699,40.628 318.038 C 41.168 316.849,41.542 315.808,41.459 315.726 C 41.377 315.643,40.924 316.470,40.454 317.562 M374.056 317.200 C 374.056 317.530,374.211 318.160,374.400 318.600 C 374.617 319.104,374.744 319.178,374.744 318.800 C 374.744 318.470,374.589 317.840,374.400 317.400 C 374.183 316.896,374.056 316.822,374.056 317.200 M68.472 318.496 C 68.611 319.472,69.833 319.927,70.506 319.254 C 71.071 318.689,70.161 317.600,69.123 317.600 C 68.545 317.600,68.377 317.831,68.472 318.496 M37.350 332.600 C 37.351 335.020,37.416 335.958,37.496 334.685 C 37.576 333.412,37.575 331.432,37.494 330.285 C 37.414 329.138,37.349 330.180,37.350 332.600 M376.555 333.400 C 376.556 336.260,376.620 337.378,376.697 335.883 C 376.774 334.389,376.774 332.049,376.696 330.683 C 376.618 329.318,376.555 330.540,376.555 333.400 M40.000 346.147 C 40.000 346.580,41.988 350.400,42.213 350.400 C 42.323 350.400,41.939 349.455,41.359 348.300 C 40.243 346.079,40.000 345.694,40.000 346.147 M372.529 350.913 C 370.944 354.119,368.085 357.901,365.469 360.252 C 364.331 361.275,363.940 361.742,364.600 361.289 C 367.774 359.115,374.819 349.486,373.906 348.572 C 373.825 348.492,373.206 349.545,372.529 350.913 M42.647 351.300 C 43.520 352.783,46.570 356.429,48.253 358.000 C 49.851 359.492,49.768 359.355,47.772 357.200 C 46.447 355.770,44.756 353.745,44.014 352.700 C 42.777 350.958,41.944 350.105,42.647 351.300 M361.813 362.913 C 361.161 363.401,359.001 364.649,357.013 365.687 C 355.026 366.725,353.551 367.580,353.736 367.587 C 354.343 367.610,360.971 364.032,362.200 363.018 C 363.692 361.788,363.418 361.713,361.813 362.913 M56.400 364.187 C 56.400 364.297,57.300 364.843,58.400 365.400 C 59.500 365.957,60.400 366.323,60.400 366.213 C 60.400 366.103,59.500 365.557,58.400 365.000 C 57.300 364.443,56.400 364.077,56.400 364.187 M62.000 367.200 C 62.770 367.622,63.580 367.966,63.800 367.966 C 64.020 367.966,63.570 367.622,62.800 367.200 C 62.030 366.778,61.220 366.434,61.000 366.434 C 60.780 366.434,61.230 366.778,62.000 367.200 M70.600 370.400 C 71.040 370.589,71.670 370.744,72.000 370.744 C 72.378 370.744,72.304 370.617,71.800 370.400 C 71.360 370.211,70.730 370.056,70.400 370.056 C 70.022 370.056,70.096 370.183,70.600 370.400 M230.600 370.237 C 228.400 370.310,223.900 370.563,220.600 370.799 C 217.300 371.036,210.370 371.492,205.200 371.813 C 200.030 372.134,194.017 372.575,191.839 372.793 C 189.660 373.012,183.720 373.293,178.639 373.417 C 173.557 373.541,168.680 373.819,167.800 374.035 C 162.773 375.268,112.294 375.901,101.400 374.867 C 95.634 374.319,89.470 373.937,90.400 374.185 C 101.380 377.105,138.974 377.470,174.600 375.002 C 179.220 374.682,186.510 374.227,190.800 373.989 C 195.090 373.752,198.870 373.483,199.200 373.391 C 199.530 373.300,203.400 373.031,207.800 372.795 C 212.200 372.559,219.099 372.103,223.131 371.783 C 231.437 371.123,250.386 371.018,255.800 371.603 C 257.780 371.817,261.560 372.178,264.200 372.407 C 266.840 372.635,271.700 373.089,275.000 373.416 C 297.352 375.629,318.615 375.614,328.182 373.377 L 330.600 372.812 328.000 373.036 C 318.751 373.832,316.301 373.960,310.200 373.969 C 301.772 373.980,283.868 373.073,275.600 372.216 C 272.190 371.862,266.790 371.308,263.600 370.983 C 257.951 370.409,238.632 369.972,230.600 370.237 M344.200 370.400 C 343.696 370.617,343.622 370.744,344.000 370.744 C 344.330 370.744,344.960 370.589,345.400 370.400 C 345.904 370.183,345.978 370.056,345.600 370.056 C 345.270 370.056,344.640 370.211,344.200 370.400 M77.000 372.000 C 77.440 372.189,78.160 372.338,78.600 372.332 C 79.243 372.323,79.204 372.257,78.400 372.000 C 77.032 371.562,75.981 371.562,77.000 372.000 M331.905 372.683 C 332.402 372.779,333.122 372.775,333.505 372.675 C 333.887 372.575,333.480 372.496,332.600 372.501 C 331.720 372.505,331.407 372.587,331.905 372.683 M87.700 373.876 C 88.085 373.976,88.715 373.976,89.100 373.876 C 89.485 373.775,89.170 373.693,88.400 373.693 C 87.630 373.693,87.315 373.775,87.700 373.876 " stroke="none" fill="#f0e173" fill-rule="evenodd"></path><path id="path4" d="M199.394 54.907 C 192.209 60.539,187.617 67.339,177.456 87.400 C 172.919 96.355,171.024 99.659,165.749 107.800 C 156.006 122.839,148.157 137.264,139.090 156.800 C 135.758 163.977,122.523 193.813,121.557 196.324 C 121.362 196.832,120.731 198.272,120.156 199.524 C 119.581 200.776,118.067 204.140,116.793 207.000 C 105.580 232.164,93.225 255.449,69.673 295.800 C 58.924 314.216,56.371 319.434,54.421 326.975 C 50.619 341.680,59.155 351.162,81.400 356.945 C 89.571 359.069,96.155 359.414,117.563 358.840 C 135.352 358.363,156.479 358.646,158.700 359.391 C 159.834 359.772,159.938 358.830,158.869 357.862 C 157.945 357.026,122.004 356.885,108.998 357.665 C 93.296 358.608,79.380 356.226,67.800 350.615 C 54.794 344.313,51.827 335.034,58.047 320.118 C 58.946 317.963,60.184 314.940,60.798 313.400 C 61.413 311.860,62.540 309.520,63.302 308.200 C 64.065 306.880,66.634 302.470,69.010 298.400 C 96.037 252.117,107.882 229.395,122.914 195.000 C 140.094 155.689,145.144 144.905,153.823 129.000 C 157.980 121.383,165.426 109.188,169.578 103.200 C 170.979 101.179,175.819 92.401,179.502 85.200 C 188.106 68.379,188.359 67.978,194.444 61.500 C 199.632 55.978,202.597 53.762,204.247 54.176 C 212.312 56.200,233.706 86.889,258.500 132.000 C 260.253 135.190,262.738 139.690,264.022 142.000 C 269.397 151.671,274.769 164.306,282.815 186.200 C 287.694 199.478,288.888 202.592,291.709 209.400 C 295.141 217.685,298.672 225.400,299.936 227.378 C 300.631 228.466,301.200 229.665,301.200 230.041 C 301.200 231.341,308.290 245.078,309.065 245.279 C 310.432 245.634,311.009 245.163,310.085 244.447 C 308.530 243.242,298.466 222.148,291.933 206.400 C 290.281 202.418,286.510 192.400,280.853 176.966 C 273.869 157.914,269.560 148.831,256.481 125.600 C 230.391 79.255,211.930 53.652,204.056 52.896 C 202.290 52.726,202.037 52.835,199.394 54.907 M200.400 121.349 C 189.677 124.457,186.973 133.769,188.713 161.600 C 189.479 173.866,189.988 182.914,190.400 191.600 C 190.851 201.107,192.247 220.439,193.396 233.110 C 194.144 241.359,194.803 243.126,197.761 244.823 C 201.596 247.023,207.136 245.895,209.462 242.442 C 213.516 236.421,213.366 236.745,213.297 234.200 C 213.001 223.291,213.045 222.196,213.916 218.800 C 215.017 214.502,215.881 208.310,216.202 202.400 C 216.471 197.448,217.669 188.212,218.587 184.000 C 226.437 148.004,217.279 116.456,200.400 121.349 M208.053 123.520 C 219.907 129.713,223.511 154.773,217.012 185.800 C 216.459 188.440,215.809 193.030,215.569 196.000 C 214.877 204.539,213.619 215.199,213.020 217.600 C 211.377 224.182,211.056 227.507,211.798 230.247 C 212.967 234.566,212.210 236.986,208.130 241.961 C 204.498 246.391,196.924 245.359,195.665 240.261 C 194.612 235.996,192.339 207.160,191.388 186.000 C 191.264 183.250,190.907 176.950,190.594 172.000 C 188.661 141.454,188.943 135.140,192.523 128.826 C 195.768 123.103,202.713 120.731,208.053 123.520 M312.800 251.600 C 312.303 252.529,312.188 252.273,316.111 259.000 C 323.872 272.310,326.109 275.544,337.004 289.200 C 355.696 312.629,361.261 325.415,358.244 338.000 C 354.891 351.990,335.493 356.819,303.666 351.588 C 296.278 350.374,266.303 350.474,253.079 351.758 C 249.735 352.083,245.470 352.452,243.600 352.579 C 240.489 352.790,236.391 353.202,225.400 354.407 C 223.200 354.648,218.430 355.096,214.800 355.402 C 211.170 355.709,206.400 356.149,204.200 356.381 C 198.734 356.958,174.600 357.638,170.358 357.335 C 165.325 356.976,162.432 357.776,163.040 359.359 C 163.249 359.905,163.400 359.932,163.907 359.510 C 164.369 359.127,168.268 358.937,179.561 358.746 C 194.343 358.495,204.874 357.971,210.800 357.189 C 212.450 356.971,216.140 356.618,219.000 356.405 C 221.860 356.191,225.820 355.827,227.800 355.595 C 237.900 354.413,244.119 353.870,264.200 352.413 C 278.319 351.389,297.698 352.117,316.800 354.389 C 351.038 358.462,366.948 344.779,357.793 319.132 C 354.739 310.577,349.606 302.699,336.234 286.043 C 326.352 273.733,314.000 254.624,314.000 251.645 C 314.000 250.577,313.360 250.553,312.800 251.600 M202.113 282.911 C 195.440 285.297,192.075 292.153,192.947 301.587 C 193.970 312.656,206.600 318.289,216.357 312.027 C 219.825 309.802,222.314 305.713,220.600 305.055 C 220.165 304.888,220.000 305.101,220.000 305.830 C 220.000 308.351,214.373 312.470,209.969 313.172 C 197.798 315.112,190.538 302.901,195.891 289.493 C 197.855 284.574,206.192 281.795,212.487 283.961 C 216.543 285.357,219.807 288.266,218.940 289.712 C 218.754 290.021,218.894 289.999,219.323 289.651 C 220.807 288.447,219.887 286.762,216.463 284.411 C 212.908 281.970,206.590 281.310,202.113 282.911 M222.157 296.167 C 221.826 297.029,222.287 298.104,222.900 297.900 C 223.175 297.808,223.400 297.313,223.400 296.800 C 223.400 295.704,222.509 295.250,222.157 296.167 M231.400 368.192 C 226.340 368.494,219.050 368.938,215.200 369.179 C 211.350 369.420,203.700 369.887,198.200 370.216 C 192.700 370.546,186.355 370.987,184.099 371.198 C 181.377 371.451,179.641 371.444,178.934 371.175 C 177.648 370.686,176.733 371.294,177.541 372.100 C 178.173 372.730,182.406 372.652,192.600 371.822 C 221.001 369.508,251.876 368.676,263.200 369.919 C 265.510 370.173,269.920 370.574,273.000 370.811 C 276.080 371.049,281.120 371.504,284.200 371.822 C 298.203 373.272,319.725 373.511,325.059 372.277 C 326.786 371.877,324.748 371.794,312.459 371.763 C 302.372 371.738,295.679 371.527,291.000 371.086 C 287.260 370.733,282.760 370.338,281.000 370.209 C 279.240 370.079,275.010 369.713,271.600 369.395 C 254.036 367.757,243.822 367.451,231.400 368.192 M165.972 371.791 C 163.913 372.911,152.267 373.348,123.843 373.375 C 94.814 373.401,91.773 373.654,111.200 374.425 C 122.655 374.879,133.682 374.780,155.440 374.026 C 165.262 373.686,166.403 373.489,167.205 371.991 C 167.699 371.068,167.393 371.018,165.972 371.791 M93.700 373.076 C 94.085 373.176,94.715 373.176,95.100 373.076 C 95.485 372.975,95.170 372.893,94.400 372.893 C 93.630 372.893,93.315 372.975,93.700 373.076 " stroke="none" fill="#8c5704" fill-rule="evenodd"></path><path id="path5" d="M200.998 55.325 C 198.474 57.045,191.997 63.815,192.010 64.721 C 192.016 65.150,192.709 64.589,193.889 63.200 C 199.804 56.240,200.960 55.903,203.483 60.400 C 204.408 62.050,205.503 63.940,205.915 64.600 C 207.282 66.785,210.918 72.568,212.203 74.600 C 212.898 75.700,214.642 78.400,216.077 80.600 C 223.764 92.381,232.020 107.404,237.292 119.200 C 240.916 127.309,246.000 139.903,246.000 140.769 C 246.000 141.028,246.278 141.777,246.617 142.433 C 246.956 143.089,247.598 145.088,248.042 146.875 C 248.487 148.662,249.404 151.220,250.081 152.560 C 250.757 153.900,252.433 157.877,253.804 161.398 C 258.233 172.770,261.049 179.679,263.586 185.400 C 266.496 191.962,273.972 207.233,275.825 210.400 C 283.620 223.723,283.839 224.032,284.600 222.800 C 285.300 221.668,286.820 222.485,289.439 225.400 C 292.556 228.869,292.491 228.850,294.904 226.970 C 296.435 225.777,296.874 225.611,297.546 225.971 C 299.032 226.767,298.802 225.731,296.159 219.749 C 291.015 208.101,289.025 203.099,282.815 186.200 C 274.769 164.306,269.397 151.671,264.022 142.000 C 262.738 139.690,260.253 135.190,258.500 132.000 C 236.475 91.926,216.304 61.962,207.119 55.675 C 204.326 53.764,203.371 53.709,200.998 55.325 M199.400 120.791 C 189.402 124.100,185.075 138.206,187.804 158.600 C 188.128 161.020,188.405 165.070,188.420 167.600 C 188.435 170.130,188.604 174.720,188.796 177.800 C 188.988 180.880,189.344 187.540,189.586 192.600 C 189.829 197.660,190.204 203.600,190.421 205.800 C 190.639 208.000,190.991 212.770,191.204 216.400 C 191.418 220.030,191.786 224.710,192.023 226.800 C 192.260 228.890,192.607 232.670,192.793 235.200 C 193.157 240.137,193.991 242.806,195.665 244.387 C 200.020 248.499,207.391 247.311,210.800 241.947 C 211.570 240.736,212.600 239.133,213.089 238.385 C 214.295 236.540,214.589 234.119,213.990 230.948 C 213.383 227.729,213.674 223.174,214.761 218.891 C 215.935 214.265,216.418 210.837,216.831 204.200 C 217.333 196.144,218.748 186.357,220.620 178.000 C 224.437 160.960,222.693 141.139,216.370 129.692 C 212.124 122.005,205.783 118.679,199.400 120.791 M208.266 122.215 C 220.620 128.259,225.011 154.544,218.587 184.000 C 217.669 188.212,216.471 197.448,216.202 202.400 C 215.881 208.310,215.017 214.502,213.916 218.800 C 213.045 222.196,213.001 223.291,213.297 234.200 C 213.366 236.745,213.516 236.421,209.462 242.442 C 207.136 245.895,201.596 247.023,197.761 244.823 C 194.803 243.126,194.144 241.359,193.396 233.110 C 192.247 220.439,190.851 201.107,190.400 191.600 C 189.988 182.914,189.479 173.866,188.713 161.600 C 187.328 139.451,188.694 130.002,193.997 125.042 C 198.439 120.887,203.502 119.884,208.266 122.215 M299.244 232.845 C 297.578 234.781,297.568 234.753,301.802 239.967 C 308.385 248.074,309.508 247.426,304.895 238.183 C 301.062 230.501,301.171 230.604,299.244 232.845 M310.400 252.633 C 309.850 252.939,308.365 253.191,307.100 253.194 C 304.334 253.201,304.354 253.036,306.681 256.555 C 311.917 264.473,317.179 277.002,318.543 284.800 C 324.578 319.298,300.970 335.915,250.888 332.422 C 241.220 331.748,239.635 331.617,233.200 330.967 C 230.010 330.645,225.870 330.287,224.000 330.171 C 222.130 330.056,218.620 329.784,216.200 329.567 C 213.780 329.351,209.820 329.003,207.400 328.795 C 201.442 328.284,178.273 329.275,156.200 330.985 C 144.926 331.859,141.515 332.068,136.061 332.218 C 133.345 332.292,130.645 332.453,130.061 332.575 C 124.786 333.678,84.560 334.653,72.200 333.977 C 54.663 333.019,55.799 333.310,56.122 329.854 C 56.338 327.542,58.124 321.079,58.789 320.200 C 59.341 319.472,61.260 314.327,61.056 314.123 C 59.992 313.059,54.800 328.419,54.800 332.629 C 54.800 348.793,78.031 359.524,108.998 357.665 C 113.440 357.399,126.194 357.188,137.667 357.193 C 159.679 357.200,159.600 357.206,159.600 355.788 C 159.600 353.353,162.930 351.200,166.698 351.200 C 172.295 351.200,172.681 355.332,167.115 355.672 C 164.323 355.843,163.578 356.138,164.249 356.809 C 165.135 357.695,194.747 357.379,204.200 356.381 C 206.400 356.149,211.170 355.709,214.800 355.402 C 218.430 355.096,223.200 354.648,225.400 354.407 C 236.391 353.202,240.489 352.790,243.600 352.579 C 245.470 352.452,249.735 352.083,253.079 351.758 C 266.303 350.474,296.278 350.374,303.666 351.588 C 335.493 356.819,354.891 351.990,358.244 338.000 C 361.261 325.415,355.696 312.629,337.004 289.200 C 328.351 278.353,325.278 274.167,321.735 268.400 C 318.059 262.415,313.357 254.383,312.750 253.050 C 312.219 251.884,311.864 251.821,310.400 252.633 M202.000 281.974 C 195.177 284.057,192.190 289.614,192.205 300.200 C 192.227 316.140,214.541 321.436,221.975 307.266 C 222.927 305.451,222.065 305.984,220.191 308.370 C 213.055 317.453,199.539 316.590,194.493 306.729 C 191.284 300.456,193.189 288.449,197.941 284.998 C 204.134 280.501,213.067 281.076,218.911 286.349 C 220.849 288.099,221.380 287.636,219.573 285.772 C 216.125 282.214,207.394 280.327,202.000 281.974 M223.600 296.153 C 223.600 297.143,223.780 298.064,224.000 298.200 C 224.244 298.351,224.400 297.745,224.400 296.647 C 224.400 295.657,224.220 294.736,224.000 294.600 C 223.756 294.449,223.600 295.055,223.600 296.153 M249.507 369.490 C 250.226 369.579,251.306 369.577,251.907 369.486 C 252.508 369.395,251.920 369.322,250.600 369.324 C 249.280 369.326,248.788 369.401,249.507 369.490 M262.800 370.419 C 273.606 371.770,282.579 372.548,288.200 372.623 C 291.280 372.664,293.080 372.633,292.200 372.553 C 291.320 372.474,287.810 372.142,284.400 371.816 C 280.990 371.490,275.770 371.033,272.800 370.800 C 269.830 370.567,265.690 370.206,263.600 369.999 C 257.198 369.363,256.652 369.650,262.800 370.419 " stroke="none" fill="#df8606" fill-rule="evenodd"></path><path id="path6" d="M200.000 29.167 C 193.953 30.562,187.183 37.073,181.244 47.204 C 180.278 48.852,178.535 51.820,177.371 53.800 C 176.207 55.780,174.503 59.020,173.586 61.000 C 167.273 74.631,164.870 79.037,158.176 89.264 C 156.209 92.270,154.121 95.510,153.536 96.464 C 152.950 97.419,150.372 101.260,147.807 105.000 C 142.598 112.595,138.288 119.645,134.114 127.400 C 129.743 135.520,128.965 137.128,122.990 150.400 C 121.585 153.522,117.306 163.471,112.496 174.800 C 110.955 178.430,108.654 183.830,107.384 186.800 C 106.113 189.770,104.587 193.370,103.991 194.800 C 102.419 198.575,95.390 214.374,93.348 218.724 C 92.387 220.772,91.600 222.530,91.600 222.631 C 91.600 224.549,76.092 252.975,66.086 269.400 C 63.878 273.024,60.195 279.327,55.100 288.200 C 48.011 300.545,39.699 318.926,38.241 325.479 C 35.210 339.100,41.531 353.890,54.023 362.409 C 63.346 368.767,81.599 374.000,94.453 374.000 C 99.016 374.000,98.866 373.785,93.776 373.025 C 91.589 372.698,88.450 372.229,86.800 371.981 C 55.805 367.332,38.807 353.417,38.799 332.686 C 38.796 323.581,46.287 305.790,59.805 282.800 C 61.163 280.490,63.859 275.900,65.796 272.600 C 67.733 269.300,69.727 265.970,70.228 265.200 C 75.888 256.498,87.278 235.274,93.189 222.418 C 94.255 220.098,96.201 215.860,97.513 213.000 C 100.133 207.287,111.244 181.439,118.060 165.200 C 118.937 163.110,120.165 160.230,120.788 158.800 C 121.412 157.370,122.865 154.040,124.016 151.400 C 131.006 135.371,138.153 122.019,146.389 109.600 C 163.447 83.879,164.083 83.026,164.948 84.700 C 166.536 87.771,173.885 86.975,176.002 83.504 C 176.952 81.946,177.157 75.841,176.299 74.667 C 174.400 72.070,171.200 73.902,171.200 77.586 C 171.200 80.226,170.714 80.800,168.475 80.800 C 165.914 80.800,165.969 80.104,168.966 74.600 C 169.325 73.940,171.474 69.440,173.740 64.600 C 190.445 28.923,202.504 22.287,219.642 39.344 C 223.850 43.532,225.897 46.648,233.212 60.000 C 235.683 64.510,238.248 69.190,238.912 70.400 C 246.280 83.824,251.563 92.513,260.192 105.400 C 271.769 122.690,282.532 141.828,287.973 154.800 C 288.665 156.450,289.751 158.970,290.386 160.400 C 291.483 162.868,292.588 165.703,296.391 175.800 C 300.658 187.127,304.183 195.925,308.856 206.910 C 311.727 213.659,311.753 214.042,309.435 215.401 C 301.270 220.185,301.349 225.741,309.726 235.946 C 315.408 242.867,317.691 244.141,322.786 243.230 C 326.088 242.640,326.003 242.600,327.644 245.508 C 331.887 253.029,336.393 259.651,346.214 272.800 C 356.722 286.868,359.268 290.513,363.342 297.326 C 380.028 325.228,378.903 350.340,360.435 362.177 C 354.698 365.855,345.611 369.078,337.800 370.205 C 323.344 372.291,321.125 372.866,328.400 372.641 C 344.888 372.132,361.312 365.711,368.605 356.922 C 382.895 339.701,377.729 312.565,354.188 281.200 C 339.222 261.260,334.011 253.818,329.818 246.400 C 328.513 244.090,326.782 241.570,325.973 240.800 C 324.871 239.752,324.388 238.870,324.053 237.291 C 323.467 234.537,321.858 231.356,320.148 229.573 C 319.071 228.450,318.727 227.701,318.532 226.059 C 318.293 224.039,317.481 222.442,314.690 218.498 C 314.049 217.593,313.426 216.013,313.217 214.764 C 313.017 213.574,311.577 209.630,310.015 206.000 C 305.940 196.528,305.052 194.376,303.000 189.000 C 301.992 186.360,300.657 182.940,300.033 181.400 C 299.409 179.860,298.259 176.890,297.477 174.800 C 287.500 148.117,278.496 130.561,262.089 105.800 C 254.581 94.470,250.686 88.371,248.320 84.243 C 245.033 78.509,241.410 72.055,238.191 66.200 C 236.377 62.900,233.506 57.680,231.812 54.600 C 221.667 36.160,210.026 26.854,200.000 29.167 M315.590 222.184 C 317.214 224.812,317.120 226.064,315.170 227.733 C 312.566 229.962,310.000 228.776,310.000 225.343 C 310.000 221.412,313.789 219.270,315.590 222.184 M321.192 233.584 C 322.163 235.488,322.222 236.629,321.367 236.957 C 318.607 238.017,315.648 234.752,317.600 232.800 C 318.931 231.469,320.261 231.759,321.192 233.584 M310.425 245.176 C 309.946 245.479,310.028 245.797,310.912 247.073 C 311.496 247.915,312.176 249.186,312.424 249.897 C 312.941 251.381,314.074 251.153,314.871 249.405 C 315.855 247.245,312.379 243.939,310.425 245.176 M218.389 290.674 C 214.577 295.015,214.746 300.090,218.825 303.775 C 219.692 304.559,220.559 305.200,220.751 305.200 C 221.357 305.200,222.818 298.303,222.335 297.722 C 222.102 297.441,222.025 296.754,222.165 296.196 C 222.429 295.146,220.580 289.200,219.990 289.200 C 219.821 289.200,219.101 289.863,218.389 290.674 M159.498 359.148 C 159.149 360.482,160.270 362.474,161.289 362.329 C 162.330 362.180,163.364 360.345,163.019 359.259 C 162.683 358.201,159.769 358.109,159.498 359.148 M175.618 364.389 C 175.359 364.549,175.005 365.728,174.831 367.010 C 174.423 370.016,173.539 370.800,170.556 370.800 C 168.671 370.800,166.184 372.000,166.867 372.580 C 167.202 372.866,177.029 371.838,177.253 371.493 C 177.640 370.899,178.066 365.837,177.789 365.116 C 177.504 364.373,176.297 363.969,175.618 364.389 " stroke="none" fill="#747474" fill-rule="evenodd"></path><path id="path7" d="M190.759 65.471 C 188.552 67.865,186.789 70.954,179.502 85.200 C 175.819 92.401,170.979 101.179,169.578 103.200 C 165.426 109.188,157.980 121.383,153.823 129.000 C 145.144 144.905,140.094 155.689,122.914 195.000 C 107.882 229.395,96.037 252.117,69.010 298.400 C 62.222 310.025,61.963 310.491,61.172 312.483 C 60.184 314.975,61.313 314.735,62.390 312.224 C 62.781 311.311,64.142 308.772,65.415 306.582 C 66.687 304.392,68.301 301.610,69.001 300.400 C 69.701 299.190,71.806 295.590,73.679 292.400 C 94.217 257.420,109.268 228.693,120.414 203.200 C 121.905 199.790,123.575 196.010,124.125 194.800 C 124.676 193.590,126.968 188.370,129.219 183.200 C 145.470 145.870,154.592 128.039,167.778 107.820 C 169.794 104.729,172.311 100.670,173.371 98.800 C 174.431 96.930,175.708 94.950,176.210 94.400 C 177.272 93.236,183.115 81.922,185.628 76.163 C 187.469 71.944,189.482 68.473,191.090 66.740 C 191.631 66.156,192.012 65.378,191.937 65.010 C 191.825 64.462,191.613 64.544,190.759 65.471 M298.237 226.340 C 298.121 226.527,298.471 227.282,299.013 228.018 C 299.556 228.754,300.000 229.770,300.000 230.278 C 300.000 230.922,300.233 231.200,300.772 231.200 C 301.442 231.200,301.498 231.039,301.196 229.986 C 300.476 227.477,298.806 225.419,298.237 226.340 M307.824 245.561 C 307.702 245.759,308.239 246.298,309.019 246.758 C 310.692 247.745,311.681 249.735,311.169 251.083 C 310.863 251.886,310.943 252.000,311.810 252.000 C 312.964 252.000,313.059 251.394,312.220 249.387 C 310.946 246.337,308.604 244.299,307.824 245.561 M220.000 288.042 C 220.000 288.929,222.499 295.390,222.957 295.686 C 224.013 296.368,224.014 293.841,222.958 292.999 C 222.174 292.374,221.872 291.672,221.667 289.997 C 221.426 288.019,220.000 286.348,220.000 288.042 M223.006 297.990 C 222.543 298.739,221.210 304.492,221.205 305.762 C 221.200 306.878,221.230 306.897,221.959 306.237 C 222.543 305.708,222.669 305.194,222.509 303.996 C 222.345 302.777,222.536 302.037,223.392 300.577 C 224.430 298.806,224.055 296.293,223.006 297.990 M159.040 356.921 C 158.416 357.377,158.401 357.503,158.921 357.935 C 160.359 359.128,165.381 358.182,164.331 356.916 C 163.769 356.239,159.968 356.243,159.040 356.921 M230.400 369.443 C 224.481 369.659,201.028 371.134,192.600 371.821 C 188.420 372.162,183.380 372.417,181.400 372.387 C 172.461 372.253,168.315 372.434,166.677 373.028 C 163.157 374.305,113.272 375.145,102.111 374.116 C 100.082 373.929,97.472 373.876,96.311 373.998 L 94.200 374.221 97.200 374.503 C 112.608 375.953,161.365 375.632,167.800 374.038 C 168.680 373.821,173.557 373.541,178.639 373.417 C 183.720 373.293,189.660 373.012,191.839 372.794 C 194.017 372.575,200.120 372.130,205.400 371.805 C 210.680 371.480,217.430 371.008,220.400 370.756 C 226.428 370.244,252.695 370.053,259.200 370.473 C 262.184 370.666,262.821 370.640,261.400 370.382 C 257.477 369.670,239.296 369.120,230.400 369.443 M264.500 371.076 C 264.885 371.176,265.515 371.176,265.900 371.076 C 266.285 370.975,265.970 370.893,265.200 370.893 C 264.430 370.893,264.115 370.975,264.500 371.076 M267.233 371.350 C 267.325 371.433,269.470 371.597,272.000 371.714 C 275.118 371.859,275.891 371.823,274.400 371.603 C 272.125 371.268,266.939 371.085,267.233 371.350 M289.400 373.320 C 295.869 373.779,322.906 373.807,325.365 373.359 C 326.637 373.127,319.790 372.997,305.965 372.990 C 290.815 372.983,285.996 373.079,289.400 373.320 " stroke="none" fill="#a49c42" fill-rule="evenodd"></path><path id="path8" d="M191.467 66.267 C 191.320 66.413,191.200 67.015,191.200 67.604 C 191.200 68.192,190.748 69.467,190.196 70.437 C 189.644 71.407,189.083 72.515,188.950 72.900 C 188.816 73.285,188.569 73.600,188.401 73.600 C 188.233 73.600,187.887 74.427,187.632 75.437 C 187.181 77.229,187.338 78.800,187.967 78.800 C 188.140 78.800,188.263 79.699,188.240 80.798 C 188.218 81.896,188.099 82.796,187.975 82.798 C 187.577 82.802,187.840 85.761,188.345 86.971 C 189.437 89.585,185.821 97.052,183.692 96.582 C 183.192 96.471,182.408 96.582,181.949 96.827 C 181.345 97.150,180.993 97.153,180.677 96.837 C 180.437 96.597,179.772 96.400,179.200 96.400 C 178.628 96.400,177.945 96.185,177.682 95.922 C 177.080 95.320,175.762 96.614,175.365 98.198 C 175.217 98.785,174.850 99.359,174.549 99.475 C 174.247 99.591,174.000 99.936,174.000 100.243 C 174.000 100.549,173.858 100.800,173.685 100.800 C 173.407 100.800,173.248 101.432,173.109 103.100 C 173.086 103.375,172.858 103.600,172.603 103.600 C 171.427 103.600,168.370 109.037,169.123 109.790 C 169.275 109.942,169.130 110.007,168.800 109.933 C 168.470 109.860,168.245 110.025,168.300 110.300 C 168.355 110.575,168.175 110.755,167.900 110.700 C 167.625 110.645,167.400 110.870,167.400 111.200 C 167.400 111.530,167.020 112.160,166.556 112.600 C 166.091 113.040,165.584 113.805,165.429 114.300 C 165.273 114.795,165.005 115.200,164.833 115.200 C 164.661 115.200,164.191 116.000,163.787 116.978 C 163.384 117.957,162.920 118.674,162.756 118.573 C 162.592 118.471,162.347 118.737,162.211 119.164 C 162.076 119.591,161.520 120.596,160.976 121.397 C 160.432 122.199,160.109 123.068,160.258 123.328 C 160.408 123.590,160.371 123.656,160.175 123.477 C 159.981 123.300,159.457 123.874,159.011 124.753 C 158.565 125.633,157.602 127.373,156.872 128.620 C 156.141 129.867,155.518 131.228,155.487 131.644 C 155.455 132.060,155.258 132.400,155.048 132.400 C 154.838 132.400,154.778 132.511,154.914 132.648 C 155.050 132.784,154.945 133.138,154.681 133.434 C 154.416 133.730,154.018 134.203,153.795 134.486 C 153.380 135.012,151.804 138.403,151.795 138.787 C 151.781 139.426,150.647 141.600,150.328 141.600 C 150.122 141.600,150.064 141.780,150.200 142.000 C 150.336 142.220,150.246 142.400,150.000 142.400 C 149.754 142.400,149.664 142.580,149.800 142.800 C 149.936 143.020,149.862 143.200,149.636 143.200 C 149.410 143.200,149.332 143.477,149.462 143.816 C 149.612 144.209,149.498 144.390,149.149 144.316 C 148.847 144.252,148.649 144.438,148.710 144.730 C 148.770 145.021,148.631 145.143,148.400 145.000 C 147.990 144.747,146.544 147.510,146.284 149.044 C 146.213 149.460,145.814 150.430,145.396 151.200 C 144.978 151.970,144.673 152.735,144.718 152.900 C 144.763 153.065,144.643 153.200,144.450 153.200 C 144.109 153.200,143.426 155.459,143.560 156.141 C 143.681 156.752,143.150 158.017,142.851 157.832 C 142.691 157.733,142.331 158.019,142.051 158.468 C 141.770 158.917,141.717 159.175,141.933 159.041 C 142.149 158.908,142.117 159.248,141.863 159.796 C 141.608 160.345,141.183 160.795,140.919 160.797 C 140.352 160.801,138.769 164.167,138.669 165.580 C 138.631 166.120,138.264 166.906,137.853 167.328 C 137.242 167.954,137.206 168.158,137.653 168.441 C 138.033 168.682,138.051 168.790,137.713 168.794 C 137.423 168.798,137.329 169.070,137.481 169.466 C 137.652 169.913,137.583 170.036,137.268 169.842 C 136.990 169.670,136.800 169.797,136.800 170.157 C 136.800 170.489,136.526 170.913,136.192 171.101 C 135.345 171.574,133.836 175.598,134.502 175.606 C 134.832 175.610,134.797 175.743,134.400 176.000 C 133.814 176.379,133.877 176.448,134.900 176.550 C 135.666 176.627,135.789 178.400,135.028 178.400 C 134.683 178.400,134.400 178.141,134.400 177.824 C 134.400 177.507,134.192 177.119,133.938 176.962 C 133.674 176.798,133.584 176.851,133.729 177.085 C 133.868 177.309,133.625 177.815,133.191 178.209 C 132.756 178.602,132.400 179.151,132.400 179.429 C 132.400 179.706,132.231 179.993,132.025 180.067 C 131.818 180.140,131.563 180.740,131.457 181.400 C 131.352 182.060,131.237 182.600,131.202 182.600 C 131.167 182.600,131.056 182.960,130.955 183.400 C 130.853 183.840,130.728 184.380,130.677 184.600 C 130.625 184.820,130.406 185.082,130.191 185.182 C 129.610 185.452,128.770 187.228,129.027 187.644 C 129.329 188.133,128.337 190.800,127.853 190.800 C 127.641 190.800,127.578 190.911,127.714 191.048 C 127.850 191.184,127.745 191.538,127.481 191.834 C 126.230 193.234,126.000 193.618,126.000 194.303 C 126.000 194.708,125.784 195.256,125.520 195.520 C 125.256 195.784,125.194 196.000,125.382 196.000 C 125.570 196.000,125.390 196.369,124.983 196.819 C 124.575 197.270,124.199 197.855,124.147 198.119 C 124.095 198.384,123.873 199.185,123.654 199.900 C 123.435 200.615,123.378 201.203,123.528 201.206 C 123.678 201.209,123.562 201.363,123.271 201.548 C 122.980 201.732,122.693 202.332,122.633 202.880 C 122.573 203.429,121.956 204.472,121.262 205.198 C 120.568 205.925,119.978 206.852,119.950 207.259 C 119.861 208.574,119.816 208.687,118.700 210.392 C 118.095 211.316,117.599 212.191,117.598 212.336 C 117.596 212.481,117.337 213.095,117.022 213.699 C 116.706 214.304,116.359 215.366,116.249 216.060 C 116.140 216.754,115.880 217.429,115.672 217.561 C 115.089 217.929,113.600 220.743,113.600 221.477 C 113.600 221.836,113.157 222.886,112.615 223.810 C 111.495 225.721,110.956 228.000,111.624 228.000 C 111.863 228.000,111.998 228.315,111.924 228.700 C 111.850 229.085,111.522 229.400,111.195 229.400 C 109.820 229.400,107.944 232.239,108.334 233.730 C 108.381 233.911,108.248 233.953,108.039 233.824 C 107.593 233.548,107.039 235.016,107.381 235.569 C 107.508 235.776,107.402 236.075,107.145 236.234 C 106.836 236.425,106.772 236.332,106.957 235.962 C 107.111 235.653,106.916 235.837,106.522 236.371 C 105.685 237.510,104.556 240.398,104.431 241.724 C 104.414 241.902,104.192 241.919,103.938 241.762 C 103.664 241.593,103.585 241.651,103.742 241.906 C 103.888 242.142,103.744 242.599,103.423 242.920 C 103.101 243.242,102.950 243.616,103.086 243.752 C 103.222 243.889,103.113 244.000,102.843 244.000 C 102.573 244.000,102.464 244.180,102.600 244.400 C 102.736 244.620,102.646 244.800,102.400 244.800 C 102.154 244.800,102.052 244.961,102.174 245.158 C 102.296 245.355,102.101 245.629,101.740 245.768 C 101.380 245.906,101.202 246.135,101.344 246.277 C 101.486 246.419,101.286 246.896,100.901 247.336 C 100.382 247.930,100.356 248.060,100.800 247.839 C 101.333 247.574,101.333 247.600,100.800 248.070 C 100.470 248.362,100.182 248.825,100.160 249.100 C 100.069 250.238,99.984 250.437,99.672 250.245 C 99.492 250.133,99.416 250.528,99.503 251.122 C 99.620 251.915,99.370 252.468,98.566 253.201 C 97.964 253.751,97.601 253.975,97.759 253.700 C 97.918 253.425,97.874 253.200,97.663 253.200 C 97.242 253.200,96.363 255.389,96.633 255.766 C 96.725 255.895,96.686 255.916,96.547 255.814 C 96.009 255.418,93.484 259.851,93.136 261.801 C 93.061 262.222,92.678 262.895,92.285 263.297 C 91.892 263.700,91.666 264.184,91.783 264.373 C 91.900 264.562,91.715 264.824,91.372 264.955 C 91.030 265.087,90.861 265.376,90.998 265.597 C 91.135 265.819,91.046 266.000,90.800 266.000 C 90.554 266.000,90.464 266.180,90.600 266.400 C 90.736 266.620,90.572 266.800,90.236 266.800 C 89.900 266.800,89.714 267.031,89.822 267.314 C 89.931 267.597,89.664 268.210,89.229 268.677 C 88.794 269.144,87.822 270.706,87.071 272.148 C 86.319 273.590,85.566 274.642,85.397 274.485 C 85.229 274.328,85.179 274.690,85.288 275.288 C 85.396 275.886,85.338 276.285,85.159 276.175 C 84.980 276.064,84.533 276.556,84.165 277.267 C 83.797 277.979,83.239 278.818,82.925 279.132 C 82.611 279.446,82.449 279.950,82.564 280.252 C 82.680 280.553,82.646 280.805,82.487 280.811 C 82.329 280.817,81.759 281.537,81.220 282.411 C 80.680 283.285,80.095 284.000,79.920 284.000 C 79.744 284.000,79.600 284.326,79.600 284.724 C 79.600 285.121,79.350 285.789,79.044 286.207 C 78.739 286.625,78.581 287.206,78.693 287.498 C 78.805 287.791,78.560 288.414,78.149 288.884 C 77.737 289.353,77.625 289.606,77.901 289.445 C 78.223 289.256,78.541 289.519,78.794 290.183 C 79.009 290.750,79.614 291.377,80.138 291.577 C 80.662 291.776,81.206 292.238,81.346 292.603 C 81.510 293.031,81.051 292.832,80.056 292.045 C 79.207 291.372,78.368 290.952,78.192 291.111 C 78.016 291.270,77.996 291.184,78.147 290.920 C 78.305 290.645,78.075 290.254,77.607 290.004 C 76.816 289.580,76.000 290.618,76.000 292.050 C 76.000 292.268,75.835 292.345,75.633 292.220 C 75.430 292.095,75.146 292.536,75.000 293.200 C 74.854 293.864,74.570 294.305,74.367 294.180 C 74.031 293.972,73.847 294.638,73.892 295.896 C 73.902 296.168,73.750 296.293,73.555 296.172 C 73.244 295.980,73.171 296.158,73.210 297.010 C 73.215 297.126,72.790 297.621,72.265 298.110 C 71.467 298.855,70.514 300.737,70.749 301.104 C 70.930 301.386,69.525 303.600,69.166 303.600 C 68.939 303.600,68.852 303.761,68.974 303.958 C 69.096 304.155,68.915 304.424,68.572 304.555 C 68.230 304.687,68.052 304.961,68.178 305.165 C 68.304 305.369,68.144 305.799,67.823 306.120 C 67.501 306.442,67.350 306.816,67.486 306.952 C 67.622 307.089,67.493 307.200,67.200 307.200 C 66.907 307.200,66.776 307.310,66.910 307.444 C 67.044 307.578,66.658 308.163,66.053 308.744 C 65.447 309.325,64.643 310.295,64.266 310.900 C 63.890 311.505,63.333 312.000,63.030 312.000 C 60.160 312.000,62.483 320.999,65.753 322.551 C 70.027 324.579,73.417 322.735,76.425 316.747 C 80.639 308.356,86.244 299.966,98.270 284.048 C 101.529 279.734,104.382 275.154,110.136 265.000 C 112.380 261.040,115.255 256.208,116.524 254.263 C 119.272 250.049,122.564 243.585,124.966 237.686 C 127.344 231.846,129.597 226.903,134.398 217.000 C 138.542 208.451,145.200 194.153,145.200 193.802 C 145.200 193.445,159.818 160.136,163.808 151.400 C 164.411 150.080,166.788 145.130,169.091 140.400 C 174.263 129.774,176.670 124.270,179.409 116.800 C 183.443 105.800,184.476 103.376,188.104 96.400 C 196.679 79.915,198.126 75.679,196.824 70.877 C 196.012 67.883,192.701 65.033,191.467 66.267 M176.327 115.869 C 176.257 116.457,176.005 117.002,175.768 117.080 C 175.498 117.168,175.402 116.767,175.513 116.011 C 175.732 114.519,176.502 114.385,176.327 115.869 M168.426 129.614 C 169.495 130.186,169.394 130.746,168.135 131.225 C 166.780 131.740,166.158 131.199,166.777 130.043 C 167.295 129.075,167.379 129.053,168.426 129.614 M165.600 131.400 C 165.600 132.544,165.134 132.684,164.375 131.770 C 163.941 131.247,163.950 131.077,164.426 130.776 C 165.342 130.196,165.600 130.333,165.600 131.400 M157.528 134.500 C 157.357 135.705,155.200 136.069,155.200 134.893 C 155.200 133.890,155.535 133.600,156.694 133.600 C 157.462 133.600,157.630 133.781,157.528 134.500 M167.200 137.175 C 167.200 137.991,166.268 138.935,165.863 138.530 C 165.445 138.112,165.557 137.213,166.100 136.625 C 166.714 135.960,167.200 136.203,167.200 137.175 M159.796 137.347 C 160.519 137.876,160.514 137.911,159.664 138.366 C 158.612 138.929,158.000 138.638,158.000 137.576 C 158.000 136.668,158.738 136.574,159.796 137.347 M151.200 143.000 C 151.200 143.330,150.936 143.600,150.613 143.600 C 150.255 143.600,150.115 143.365,150.255 143.000 C 150.382 142.670,150.646 142.400,150.843 142.400 C 151.039 142.400,151.200 142.670,151.200 143.000 M158.800 143.200 C 158.800 143.640,158.620 144.000,158.400 144.000 C 158.180 144.000,158.000 143.640,158.000 143.200 C 158.000 142.760,158.180 142.400,158.400 142.400 C 158.620 142.400,158.800 142.760,158.800 143.200 M140.800 168.600 C 140.800 168.973,140.422 169.200,139.800 169.200 C 139.178 169.200,138.800 168.973,138.800 168.600 C 138.800 168.227,139.178 168.000,139.800 168.000 C 140.422 168.000,140.800 168.227,140.800 168.600 M142.000 172.433 C 142.000 173.408,141.065 173.270,140.871 172.267 C 140.794 171.872,140.998 171.600,141.371 171.600 C 141.742 171.600,142.000 171.942,142.000 172.433 M145.367 182.243 C 146.263 182.587,146.151 183.449,145.118 184.173 C 144.581 184.548,144.228 185.224,144.218 185.895 C 144.204 186.730,143.980 187.031,143.300 187.128 C 142.233 187.279,141.968 185.451,143.000 185.055 C 143.330 184.929,143.600 184.474,143.600 184.045 C 143.600 182.284,144.113 181.761,145.367 182.243 M139.128 184.300 C 139.237 185.066,139.072 185.200,138.028 185.200 C 137.104 185.200,136.800 185.019,136.800 184.467 C 136.800 182.886,138.906 182.735,139.128 184.300 M130.400 189.200 C 130.400 189.640,130.220 190.000,130.000 190.000 C 129.780 190.000,129.600 189.640,129.600 189.200 C 129.600 188.760,129.780 188.400,130.000 188.400 C 130.220 188.400,130.400 188.760,130.400 189.200 M136.339 200.354 C 137.066 200.814,136.762 202.158,135.894 202.325 C 135.117 202.475,134.591 201.520,134.945 200.600 C 135.205 199.921,135.558 199.859,136.339 200.354 M132.235 214.298 C 131.798 214.735,131.499 214.040,131.812 213.317 C 132.110 212.632,132.132 212.633,132.297 213.331 C 132.393 213.734,132.365 214.169,132.235 214.298 M284.170 225.353 C 283.020 227.865,283.154 228.511,285.373 231.168 C 287.241 233.403,287.156 233.694,283.836 236.483 C 280.384 239.382,280.387 239.382,277.263 236.000 C 274.047 232.519,273.135 232.352,271.986 235.033 C 270.829 237.732,270.974 238.820,272.815 241.260 C 273.958 242.774,274.357 243.634,274.178 244.200 C 273.397 246.670,273.485 247.165,274.964 248.644 C 276.210 249.890,276.596 250.061,277.674 249.845 C 279.444 249.491,280.225 250.125,283.967 254.958 C 290.691 263.640,296.103 265.133,301.454 259.783 C 303.390 257.846,301.207 254.092,298.428 254.580 C 293.091 255.517,293.276 255.609,288.584 249.698 C 284.725 244.838,284.656 244.583,286.700 242.741 C 291.750 238.187,291.607 238.160,296.855 244.668 C 300.707 249.445,303.640 252.023,305.178 251.984 C 305.520 251.976,305.260 251.726,304.600 251.429 C 303.147 250.775,300.810 248.340,296.450 242.937 C 292.015 237.443,291.833 237.393,287.748 240.567 C 283.158 244.134,283.156 244.384,287.665 250.066 C 292.361 255.981,293.972 256.957,297.209 255.842 C 300.700 254.639,302.640 257.661,299.778 259.844 C 294.599 263.794,290.730 262.326,284.390 254.008 C 280.533 248.947,280.351 248.800,277.983 248.800 C 275.638 248.800,274.696 247.599,275.006 245.006 C 275.233 243.115,275.154 242.877,273.624 240.860 C 271.792 238.446,271.750 238.240,272.643 236.008 C 273.510 233.843,273.880 233.945,277.128 237.238 C 280.415 240.571,280.532 240.575,284.200 237.485 C 288.316 234.018,288.477 233.359,285.950 230.340 C 282.501 226.221,284.560 222.047,288.282 225.614 L 290.563 227.800 288.802 225.800 C 285.869 222.468,285.507 222.433,284.170 225.353 M295.447 227.598 C 292.609 229.746,293.148 229.688,296.160 227.522 C 297.018 226.905,297.558 226.405,297.360 226.411 C 297.162 226.417,296.301 226.951,295.447 227.598 M291.325 228.900 C 291.745 229.285,292.384 229.589,292.744 229.575 C 293.159 229.559,293.040 229.406,292.422 229.159 C 291.883 228.944,291.245 228.640,291.003 228.484 C 290.760 228.328,290.906 228.515,291.325 228.900 M121.139 231.246 C 120.259 231.804,118.800 231.658,118.800 231.011 C 118.800 230.177,121.351 229.534,121.539 230.321 C 121.616 230.642,121.436 231.058,121.139 231.246 M298.281 232.317 C 297.467 233.151,296.800 234.221,296.800 234.693 C 296.800 236.279,305.155 246.003,306.514 245.999 C 306.781 245.998,306.460 245.660,305.800 245.249 C 303.609 243.884,297.200 236.026,297.200 234.705 C 297.200 234.226,297.867 233.151,298.681 232.317 C 299.496 231.483,300.072 230.800,299.962 230.800 C 299.852 230.800,299.096 231.483,298.281 232.317 M121.128 236.469 C 120.939 237.749,120.000 237.886,120.000 236.633 C 120.000 235.961,120.219 235.600,120.628 235.600 C 121.045 235.600,121.213 235.892,121.128 236.469 M120.727 239.100 C 120.551 240.629,118.800 240.954,118.800 239.457 C 118.800 238.557,119.193 238.236,120.527 238.046 C 120.706 238.021,120.796 238.495,120.727 239.100 M267.878 250.154 C 265.593 252.247,265.747 252.647,271.778 260.234 C 279.507 269.956,279.524 270.009,275.930 272.906 C 272.248 275.875,270.483 275.027,264.480 267.410 C 257.890 259.047,257.496 258.810,254.753 261.553 C 252.383 263.922,252.041 263.171,260.296 273.713 C 265.433 280.274,267.035 281.367,271.161 281.134 C 276.237 280.847,283.223 275.571,285.848 270.042 C 286.726 268.192,286.438 267.661,280.181 259.600 C 270.781 247.489,270.785 247.492,267.878 250.154 M273.900 253.200 C 278.911 259.144,285.200 267.704,285.200 268.580 C 285.200 270.968,279.347 277.090,275.035 279.213 C 269.423 281.975,267.332 280.914,259.781 271.469 C 253.795 263.982,253.584 263.463,255.836 261.745 C 257.715 260.313,257.635 260.251,263.275 267.441 C 270.414 276.539,272.789 277.423,277.585 272.768 C 280.398 270.038,280.205 269.486,273.397 260.830 C 267.365 253.161,267.022 252.467,268.487 250.908 C 269.944 249.356,271.057 249.827,273.900 253.200 M101.127 252.269 C 100.942 253.826,100.000 253.964,100.000 252.433 C 100.000 251.580,100.193 251.200,100.627 251.200 C 101.071 251.200,101.216 251.511,101.127 252.269 M306.905 252.287 C 307.514 252.379,308.414 252.377,308.905 252.282 C 309.397 252.187,308.900 252.111,307.800 252.114 C 306.700 252.117,306.297 252.195,306.905 252.287 M93.935 268.557 C 94.081 269.314,93.413 269.983,92.500 269.994 C 91.973 270.000,91.802 268.332,92.280 267.853 C 92.777 267.357,93.786 267.786,93.935 268.557 M228.600 270.067 C 224.278 272.457,224.962 273.827,239.446 291.800 C 248.312 302.802,248.775 303.133,251.583 300.462 C 254.000 298.163,254.238 298.681,246.400 289.200 C 239.944 281.392,239.799 280.799,243.662 278.001 C 247.609 275.142,248.557 275.640,255.467 284.200 C 261.479 291.647,261.842 291.852,264.419 289.275 C 265.288 288.406,266.000 287.327,266.000 286.878 C 266.000 286.097,258.288 275.889,255.252 272.652 C 251.050 268.173,244.742 268.681,239.252 273.942 C 236.493 276.585,236.479 276.582,233.600 272.800 C 231.079 269.489,230.358 269.094,228.600 270.067 M252.015 271.300 C 253.409 272.003,254.996 273.688,259.263 279.000 C 265.528 286.797,265.574 286.888,264.007 288.454 C 261.895 290.567,261.369 290.188,254.597 281.680 C 248.762 274.348,245.840 273.721,241.443 278.858 C 239.152 281.535,239.238 281.748,246.000 290.147 C 249.300 294.246,252.000 297.879,252.000 298.219 C 252.000 299.114,250.036 300.800,248.993 300.800 C 247.970 300.800,240.590 292.149,232.668 281.664 C 226.410 273.381,226.433 273.427,227.842 271.956 C 229.586 270.136,230.452 270.412,233.042 273.618 C 235.069 276.126,236.250 277.200,236.984 277.200 C 237.114 277.200,238.364 276.136,239.763 274.835 C 244.449 270.475,248.222 269.387,252.015 271.300 M93.357 275.433 C 93.709 276.348,93.655 277.200,93.247 277.200 C 93.052 277.200,92.782 276.885,92.646 276.500 C 92.511 276.115,92.295 275.575,92.166 275.300 C 92.036 275.021,92.194 274.800,92.524 274.800 C 92.849 274.800,93.224 275.085,93.357 275.433 M95.200 282.746 C 95.200 283.263,93.598 285.200,93.171 285.200 C 92.633 285.200,92.715 283.445,93.280 282.880 C 93.833 282.327,95.200 282.232,95.200 282.746 M224.378 286.100 C 220.982 287.834,220.808 288.709,224.162 287.188 C 228.140 285.384,229.600 285.676,229.600 288.274 C 229.600 289.473,229.398 289.691,227.300 290.751 C 225.416 291.702,222.422 294.104,223.800 293.558 C 229.326 291.369,231.066 289.873,230.569 287.734 C 229.807 284.458,228.348 284.073,224.378 286.100 M91.793 286.788 C 92.131 287.335,90.941 289.496,90.036 289.981 C 89.272 290.390,88.800 289.878,88.800 288.643 C 88.800 287.341,91.211 285.847,91.793 286.788 M81.300 290.236 C 81.465 290.271,81.726 290.322,81.880 290.350 C 82.034 290.377,81.960 290.600,81.715 290.845 C 81.388 291.172,80.998 291.092,80.248 290.545 C 78.982 289.623,78.875 288.992,80.100 289.672 C 80.595 289.947,81.135 290.201,81.300 290.236 M82.841 294.320 C 82.596 294.401,82.515 294.678,82.662 294.934 C 82.808 295.190,82.776 295.261,82.589 295.092 C 81.943 294.505,82.061 293.153,82.711 293.692 C 83.091 294.007,83.135 294.222,82.841 294.320 M231.200 296.010 C 226.544 297.993,223.777 299.565,224.910 299.582 C 225.520 299.592,227.236 298.988,228.723 298.239 C 235.298 294.928,239.420 295.679,241.654 300.597 C 243.715 305.133,239.714 312.099,233.133 315.434 C 228.376 317.845,225.812 313.943,230.502 311.431 C 240.403 306.129,239.485 297.995,229.530 302.811 C 227.698 303.697,225.521 304.530,224.691 304.663 C 222.642 304.992,222.391 305.600,224.305 305.600 C 225.331 305.600,227.113 304.989,229.556 303.800 C 233.613 301.826,234.742 301.631,235.738 302.731 C 237.598 304.787,235.046 308.055,229.331 310.938 C 226.696 312.268,226.376 313.873,228.195 316.649 C 230.008 319.415,239.319 313.674,242.066 308.097 C 245.883 300.346,238.999 292.689,231.200 296.010 M79.066 299.027 C 79.401 299.901,78.644 300.531,77.640 300.213 C 76.396 299.818,76.531 298.400,77.813 298.400 C 78.369 298.400,78.933 298.682,79.066 299.027 M70.414 318.217 C 71.047 318.980,70.428 319.741,69.342 319.533 C 68.289 319.332,68.092 317.600,69.123 317.600 C 69.552 317.600,70.132 317.878,70.414 318.217 M164.141 353.597 C 162.673 354.189,162.634 354.792,164.090 354.374 C 164.807 354.168,166.071 354.000,166.897 354.000 C 167.724 354.000,168.400 353.820,168.400 353.600 C 168.400 353.116,165.339 353.114,164.141 353.597 " stroke="none" fill="#fce755" fill-rule="evenodd"></path></g></svg>