<svg id="svg" version="1.1" xmlns="http://www.w3.org/2000/svg" xmlns:xlink="http://www.w3.org/1999/xlink" width="400" height="400" viewBox="0, 0, 400,400"><g id="svgg"><path id="path0" d="M185.200 93.084 C 184.650 93.179,184.011 93.499,183.780 93.795 C 183.543 94.100,182.247 94.423,180.796 94.538 C 179.114 94.673,178.073 94.960,177.771 95.372 C 177.505 95.736,176.723 96.000,175.910 96.000 C 175.114 96.000,174.069 96.346,173.491 96.800 C 172.931 97.240,171.900 97.600,171.199 97.600 C 170.262 97.600,169.870 97.811,169.716 98.400 C 169.557 99.006,169.170 99.200,168.116 99.200 C 167.062 99.200,166.675 99.394,166.516 100.000 C 166.357 100.606,165.970 100.800,164.916 100.800 C 163.862 100.800,163.475 100.994,163.316 101.600 C 163.120 102.350,162.518 102.592,161.269 102.423 C 160.977 102.383,160.641 102.722,160.522 103.175 C 160.401 103.640,159.978 104.000,159.553 104.000 C 159.067 104.000,158.800 104.283,158.800 104.800 C 158.800 105.422,158.533 105.600,157.603 105.600 C 156.840 105.600,156.226 105.890,155.907 106.400 C 155.632 106.840,155.091 107.200,154.704 107.200 C 154.267 107.200,154.000 107.503,154.000 108.000 C 154.000 108.533,153.733 108.800,153.200 108.800 C 152.671 108.800,152.400 109.067,152.400 109.587 C 152.400 110.136,152.211 110.302,151.776 110.135 C 151.359 109.976,151.078 110.179,150.929 110.748 C 150.727 111.523,150.323 111.777,149.500 111.647 C 149.335 111.621,149.200 111.960,149.200 112.400 C 149.200 112.933,148.933 113.200,148.400 113.200 C 147.867 113.200,147.600 113.467,147.600 114.000 C 147.600 114.533,147.333 114.800,146.800 114.800 C 146.267 114.800,146.000 115.067,146.000 115.600 C 146.000 116.065,145.733 116.400,145.363 116.400 C 145.012 116.400,144.631 116.760,144.516 117.200 C 144.401 117.640,144.041 118.000,143.716 118.000 C 143.391 118.000,143.031 118.360,142.916 118.800 C 142.801 119.240,142.458 119.600,142.153 119.600 C 141.849 119.600,141.600 119.948,141.600 120.373 C 141.600 120.798,141.240 121.260,140.800 121.400 C 140.205 121.589,140.000 122.005,140.000 123.027 C 140.000 124.133,139.845 124.400,139.200 124.400 C 138.683 124.400,138.400 124.667,138.400 125.153 C 138.400 125.570,138.043 126.000,137.600 126.116 C 137.026 126.266,136.800 126.662,136.800 127.516 C 136.800 128.370,136.574 128.766,136.000 128.916 C 135.387 129.076,135.200 129.462,135.200 130.563 C 135.200 131.733,135.052 132.000,134.400 132.000 C 133.737 132.000,133.600 132.267,133.600 133.553 C 133.600 134.770,133.427 135.152,132.800 135.316 C 132.211 135.470,132.000 135.862,132.000 136.799 C 132.000 137.500,131.640 138.531,131.200 139.091 C 130.713 139.709,130.400 140.714,130.400 141.654 C 130.400 142.762,130.230 143.200,129.800 143.200 C 129.470 143.200,129.197 143.245,129.193 143.300 C 128.909 147.342,128.586 149.068,128.040 149.468 C 127.036 150.202,127.071 181.024,128.077 181.759 C 128.544 182.101,128.783 182.928,128.847 184.427 C 128.969 187.264,129.174 188.000,129.847 188.000 C 130.226 188.000,130.400 188.504,130.400 189.600 C 130.400 190.667,130.667 191.467,131.200 192.000 C 131.733 192.533,132.000 193.333,132.000 194.400 C 132.000 195.733,132.133 196.000,132.800 196.000 C 133.467 196.000,133.600 196.267,133.600 197.600 C 133.600 198.933,133.733 199.200,134.400 199.200 C 135.052 199.200,135.200 199.467,135.200 200.637 C 135.200 201.738,135.387 202.124,136.000 202.284 C 136.574 202.434,136.800 202.830,136.800 203.684 C 136.800 204.538,137.026 204.934,137.600 205.084 C 138.060 205.204,138.400 205.630,138.400 206.084 C 138.400 206.538,138.740 206.964,139.200 207.084 C 139.774 207.234,140.000 207.630,140.000 208.484 C 140.000 209.338,140.226 209.734,140.800 209.884 C 141.243 210.000,141.600 210.430,141.600 210.847 C 141.600 211.261,141.849 211.600,142.153 211.600 C 142.458 211.600,142.801 211.960,142.916 212.400 C 143.031 212.840,143.412 213.200,143.763 213.200 C 144.133 213.200,144.400 213.535,144.400 214.000 C 144.400 214.533,144.667 214.800,145.200 214.800 C 145.733 214.800,146.000 215.067,146.000 215.600 C 146.000 216.133,146.267 216.400,146.800 216.400 C 147.333 216.400,147.600 216.667,147.600 217.200 C 147.600 217.733,147.867 218.000,148.400 218.000 C 148.933 218.000,149.200 218.267,149.200 218.800 C 149.200 219.333,149.467 219.600,150.000 219.600 C 150.533 219.600,150.800 219.867,150.800 220.400 C 150.800 220.917,151.067 221.200,151.553 221.200 C 151.970 221.200,152.400 221.557,152.516 222.000 C 152.631 222.440,153.012 222.800,153.363 222.800 C 153.713 222.800,154.008 223.025,154.017 223.300 C 154.041 224.012,156.672 225.600,157.828 225.600 C 158.533 225.600,158.800 225.819,158.800 226.400 C 158.800 226.917,159.067 227.200,159.553 227.200 C 159.970 227.200,160.400 227.557,160.516 228.000 C 160.666 228.574,161.062 228.800,161.916 228.800 C 162.770 228.800,163.166 229.026,163.316 229.600 C 163.476 230.213,163.862 230.400,164.963 230.400 C 166.133 230.400,166.400 230.548,166.400 231.200 C 166.400 231.867,166.667 232.000,168.000 232.000 C 169.333 232.000,169.600 232.133,169.600 232.800 C 169.600 233.467,169.867 233.600,171.200 233.600 C 172.267 233.600,173.067 233.867,173.600 234.400 C 174.107 234.907,174.933 235.200,175.856 235.200 C 176.756 235.200,177.499 235.456,177.802 235.871 C 178.141 236.335,179.078 236.598,180.842 236.726 C 182.561 236.850,183.546 237.120,183.864 237.555 C 184.616 238.583,215.422 238.531,216.176 237.500 C 216.542 237.000,217.248 236.798,218.644 236.795 C 221.167 236.787,222.400 236.446,222.400 235.753 C 222.400 235.374,222.904 235.200,224.000 235.200 C 225.067 235.200,225.867 234.933,226.400 234.400 C 226.933 233.867,227.733 233.600,228.800 233.600 C 230.133 233.600,230.400 233.467,230.400 232.800 C 230.400 232.133,230.667 232.000,232.000 232.000 C 233.333 232.000,233.600 231.867,233.600 231.200 C 233.600 230.548,233.867 230.400,235.037 230.400 C 236.138 230.400,236.524 230.213,236.684 229.600 C 236.834 229.026,237.230 228.800,238.084 228.800 C 238.938 228.800,239.334 228.574,239.484 228.000 C 239.619 227.482,240.030 227.200,240.647 227.200 C 241.333 227.200,241.600 226.976,241.600 226.400 C 241.600 225.781,241.867 225.600,242.780 225.600 C 243.429 225.600,244.104 225.361,244.280 225.070 C 244.456 224.778,244.915 224.424,245.300 224.282 C 245.685 224.141,246.000 223.749,246.000 223.413 C 246.000 223.076,246.287 222.800,246.637 222.800 C 246.988 222.800,247.369 222.440,247.484 222.000 C 247.600 221.557,248.030 221.200,248.447 221.200 C 248.933 221.200,249.200 220.917,249.200 220.400 C 249.200 219.867,249.467 219.600,250.000 219.600 C 250.533 219.600,250.800 219.333,250.800 218.800 C 250.800 218.267,251.067 218.000,251.600 218.000 C 252.133 218.000,252.400 217.733,252.400 217.200 C 252.400 216.667,252.667 216.400,253.200 216.400 C 253.733 216.400,254.000 216.133,254.000 215.600 C 254.000 215.067,254.267 214.800,254.800 214.800 C 255.333 214.800,255.600 214.533,255.600 214.000 C 255.600 213.535,255.867 213.200,256.237 213.200 C 256.588 213.200,256.969 212.840,257.084 212.400 C 257.199 211.960,257.542 211.600,257.847 211.600 C 258.151 211.600,258.400 211.261,258.400 210.847 C 258.400 210.430,258.757 210.000,259.200 209.884 C 259.783 209.732,260.000 209.338,260.000 208.437 C 260.000 207.467,260.172 207.200,260.800 207.200 C 261.376 207.200,261.600 206.933,261.600 206.247 C 261.600 205.630,261.882 205.219,262.400 205.084 C 262.974 204.934,263.200 204.538,263.200 203.684 C 263.200 202.830,263.426 202.434,264.000 202.284 C 264.613 202.124,264.800 201.738,264.800 200.637 C 264.800 199.467,264.948 199.200,265.600 199.200 C 266.267 199.200,266.400 198.933,266.400 197.600 C 266.400 196.267,266.533 196.000,267.200 196.000 C 267.867 196.000,268.000 195.733,268.000 194.400 C 268.000 193.333,268.267 192.533,268.800 192.000 C 269.295 191.505,269.600 190.667,269.600 189.800 C 269.600 188.933,269.905 188.095,270.400 187.600 C 271.011 186.989,271.200 186.267,271.200 184.544 C 271.200 182.857,271.377 182.159,271.900 181.776 C 272.931 181.022,272.983 150.216,271.955 149.464 C 271.520 149.146,271.250 148.161,271.126 146.442 C 270.998 144.678,270.735 143.741,270.271 143.402 C 269.867 143.107,269.600 142.361,269.600 141.531 C 269.600 140.704,269.280 139.807,268.800 139.292 C 268.274 138.727,268.000 137.881,268.000 136.817 C 268.000 135.467,267.868 135.200,267.200 135.200 C 266.533 135.200,266.400 134.933,266.400 133.600 C 266.400 132.267,266.267 132.000,265.600 132.000 C 264.948 132.000,264.800 131.733,264.800 130.563 C 264.800 129.462,264.613 129.076,264.000 128.916 C 263.426 128.766,263.200 128.370,263.200 127.516 C 263.200 126.662,262.974 126.266,262.400 126.116 C 261.957 126.000,261.600 125.570,261.600 125.153 C 261.600 124.667,261.317 124.400,260.800 124.400 C 260.148 124.400,260.000 124.133,260.000 122.963 C 260.000 121.862,259.813 121.476,259.200 121.316 C 258.757 121.200,258.400 120.770,258.400 120.353 C 258.400 119.939,258.130 119.600,257.800 119.600 C 257.470 119.600,257.200 119.313,257.200 118.963 C 257.200 118.612,256.840 118.231,256.400 118.116 C 255.957 118.000,255.600 117.570,255.600 117.153 C 255.600 116.667,255.317 116.400,254.800 116.400 C 254.267 116.400,254.000 116.133,254.000 115.600 C 254.000 115.067,253.733 114.800,253.200 114.800 C 252.667 114.800,252.400 114.533,252.400 114.000 C 252.400 113.467,252.133 113.200,251.600 113.200 C 251.067 113.200,250.800 112.933,250.800 112.400 C 250.800 111.960,250.665 111.621,250.500 111.647 C 249.677 111.777,249.273 111.523,249.071 110.748 C 248.922 110.179,248.641 109.976,248.224 110.135 C 247.789 110.302,247.600 110.136,247.600 109.587 C 247.600 109.067,247.329 108.800,246.800 108.800 C 246.267 108.800,246.000 108.533,246.000 108.000 C 246.000 107.483,245.733 107.200,245.247 107.200 C 244.830 107.200,244.400 106.843,244.284 106.400 C 244.134 105.826,243.738 105.600,242.884 105.600 C 242.030 105.600,241.634 105.374,241.484 104.800 C 241.364 104.340,240.938 104.000,240.484 104.000 C 240.030 104.000,239.604 103.660,239.484 103.200 C 239.334 102.626,238.938 102.400,238.084 102.400 C 237.230 102.400,236.834 102.174,236.684 101.600 C 236.524 100.987,236.138 100.800,235.037 100.800 C 233.867 100.800,233.600 100.652,233.600 100.000 C 233.600 99.337,233.333 99.200,232.047 99.200 C 230.830 99.200,230.448 99.027,230.284 98.400 C 230.123 97.785,229.738 97.600,228.621 97.600 C 227.719 97.600,226.840 97.296,226.308 96.800 C 225.761 96.290,224.896 96.000,223.925 96.000 C 222.836 96.000,222.400 95.828,222.400 95.400 C 222.400 95.070,222.265 94.791,222.100 94.780 C 218.085 94.509,216.557 94.220,216.142 93.652 C 215.682 93.024,188.456 92.524,185.200 93.084 M211.095 112.945 C 211.791 113.305,212.957 113.600,213.686 113.600 C 214.415 113.600,215.639 113.934,216.406 114.341 C 217.173 114.749,218.457 115.204,219.260 115.352 C 220.063 115.500,220.940 115.886,221.209 116.211 C 221.478 116.535,222.102 116.800,222.595 116.800 C 223.088 116.800,223.950 117.160,224.509 117.600 C 225.069 118.040,225.695 118.400,225.902 118.400 C 226.109 118.400,226.693 118.760,227.200 119.200 C 227.707 119.640,228.337 120.000,228.599 120.000 C 228.861 120.000,229.402 120.360,229.800 120.800 C 230.198 121.240,230.757 121.600,231.042 121.600 C 231.327 121.600,231.704 121.829,231.880 122.110 C 232.056 122.390,232.740 122.962,233.400 123.380 C 234.817 124.279,242.400 131.910,242.400 132.437 C 242.400 132.637,242.715 133.127,243.100 133.528 C 244.083 134.549,245.539 136.621,246.028 137.694 C 246.255 138.192,246.878 139.320,247.411 140.200 C 247.945 141.080,248.567 142.250,248.793 142.800 C 249.020 143.350,249.474 144.278,249.803 144.862 C 250.131 145.446,250.401 146.346,250.403 146.862 C 250.404 147.378,250.763 148.340,251.200 149.000 C 251.637 149.660,251.996 150.746,251.997 151.414 C 251.999 152.081,252.374 153.692,252.831 154.993 C 253.849 157.889,253.883 175.297,252.873 176.512 C 252.584 176.861,252.190 178.257,251.998 179.614 C 251.806 180.972,251.368 182.393,251.025 182.773 C 250.681 183.152,250.400 183.871,250.400 184.370 C 250.400 184.869,250.143 185.754,249.830 186.338 C 249.516 186.922,248.691 188.615,247.996 190.100 C 247.302 191.585,246.588 192.800,246.410 192.800 C 246.232 192.800,245.963 193.294,245.811 193.897 C 245.660 194.500,245.289 195.265,244.987 195.597 C 244.684 195.929,244.069 196.605,243.619 197.100 C 243.168 197.595,242.800 198.116,242.800 198.257 C 242.800 199.404,233.627 208.400,232.457 208.400 C 232.206 208.400,232.000 208.550,232.000 208.733 C 232.000 209.123,228.274 211.600,227.687 211.600 C 227.466 211.600,227.182 211.870,227.055 212.200 C 226.929 212.530,226.574 212.800,226.266 212.800 C 225.959 212.800,225.279 213.137,224.754 213.548 C 224.229 213.959,223.227 214.421,222.528 214.574 C 221.828 214.726,221.041 215.110,220.779 215.426 C 220.517 215.742,219.919 216.006,219.451 216.014 C 218.983 216.021,217.880 216.375,217.000 216.800 C 216.120 217.225,214.770 217.580,214.000 217.589 C 213.230 217.598,212.060 217.919,211.400 218.302 C 209.591 219.354,190.409 219.354,188.600 218.302 C 187.940 217.919,186.770 217.598,186.000 217.589 C 185.230 217.580,183.880 217.225,183.000 216.800 C 182.120 216.375,181.017 216.021,180.549 216.014 C 180.081 216.006,179.483 215.742,179.221 215.426 C 178.959 215.110,178.230 214.738,177.600 214.600 C 176.970 214.462,176.248 214.099,175.996 213.795 C 175.743 213.490,174.920 213.038,174.168 212.789 C 173.416 212.541,172.800 212.172,172.800 211.969 C 172.800 211.766,172.585 211.600,172.322 211.600 C 171.732 211.600,168.718 209.588,168.280 208.901 C 168.104 208.626,167.703 208.400,167.389 208.400 C 166.630 208.400,157.771 199.570,157.420 198.464 C 157.269 197.989,156.974 197.600,156.763 197.600 C 156.553 197.600,156.209 197.150,156.000 196.600 C 155.791 196.050,155.457 195.600,155.258 195.600 C 155.060 195.600,154.660 195.015,154.371 194.300 C 154.082 193.585,153.720 192.910,153.568 192.800 C 153.415 192.690,153.003 191.970,152.653 191.200 C 152.303 190.430,151.854 189.530,151.655 189.200 C 150.881 187.912,149.600 184.883,149.600 184.341 C 149.600 184.026,149.240 183.063,148.800 182.200 C 148.360 181.337,148.000 180.030,148.000 179.296 C 148.000 178.561,147.685 177.384,147.300 176.680 C 146.345 174.933,146.239 156.428,147.175 154.800 C 147.491 154.250,147.883 152.839,148.045 151.664 C 148.208 150.490,148.624 149.215,148.970 148.833 C 149.317 148.450,149.600 147.721,149.600 147.212 C 149.600 146.704,149.945 145.548,150.368 144.644 C 150.790 143.740,151.249 142.730,151.387 142.400 C 151.525 142.070,152.078 141.080,152.616 140.200 C 153.153 139.320,153.820 138.150,154.097 137.600 C 155.913 133.992,163.396 125.605,166.822 123.338 C 167.690 122.764,168.400 122.138,168.400 121.947 C 168.400 121.756,168.648 121.600,168.951 121.600 C 169.254 121.600,169.735 121.320,170.019 120.977 C 170.304 120.634,171.091 120.094,171.768 119.777 C 172.446 119.460,173.810 118.731,174.800 118.159 C 175.790 117.586,177.185 116.947,177.900 116.740 C 178.615 116.532,179.200 116.199,179.200 115.999 C 179.200 115.800,179.875 115.512,180.700 115.360 C 181.525 115.207,182.827 114.749,183.594 114.341 C 184.361 113.934,185.588 113.600,186.320 113.600 C 187.053 113.600,188.046 113.381,188.526 113.112 C 190.794 111.847,208.714 111.714,211.095 112.945 M96.116 253.200 C 95.959 253.801,95.570 254.000,94.553 254.000 C 93.582 254.000,93.200 254.180,93.200 254.637 C 93.200 254.988,92.840 255.369,92.400 255.484 C 91.957 255.600,91.600 256.030,91.600 256.447 C 91.600 256.933,91.317 257.200,90.800 257.200 C 90.267 257.200,90.000 257.467,90.000 258.000 C 90.000 258.533,89.733 258.800,89.200 258.800 C 88.703 258.800,88.400 259.067,88.400 259.504 C 88.400 259.891,88.040 260.432,87.600 260.707 C 86.993 261.086,86.800 261.640,86.800 263.003 C 86.800 264.533,86.681 264.800,86.000 264.800 C 85.226 264.800,85.200 265.067,85.200 272.986 C 85.200 280.762,85.240 281.193,86.000 281.600 C 86.718 281.984,86.800 282.438,86.800 286.011 C 86.800 289.560,86.887 290.048,87.600 290.493 C 88.316 290.940,88.400 291.426,88.400 295.096 C 88.400 298.933,88.452 299.200,89.200 299.200 C 89.954 299.200,90.000 299.467,90.000 303.800 C 90.000 308.133,90.046 308.400,90.800 308.400 C 91.503 308.400,91.600 308.667,91.600 310.600 C 91.600 312.552,91.693 312.800,92.420 312.800 C 93.360 312.800,94.400 314.863,94.400 316.726 C 94.400 317.359,94.659 318.400,94.975 319.039 C 95.291 319.677,95.674 321.820,95.827 323.800 C 95.980 325.780,96.270 327.610,96.473 327.866 C 96.676 328.122,97.015 330.012,97.227 332.066 C 97.439 334.120,97.867 336.520,98.178 337.400 C 98.489 338.280,98.845 340.404,98.968 342.120 C 99.092 343.836,99.379 345.587,99.606 346.011 C 99.833 346.436,100.188 348.452,100.395 350.491 C 100.601 352.531,101.039 354.920,101.368 355.800 C 101.696 356.680,101.973 358.412,101.982 359.648 C 101.992 360.884,102.360 363.023,102.800 364.400 C 103.240 365.777,103.600 367.864,103.600 369.038 C 103.600 370.212,103.851 371.943,104.158 372.886 C 106.128 378.930,106.354 378.800,93.820 378.800 C 85.626 378.800,83.609 378.907,83.233 379.361 C 82.977 379.669,82.331 380.031,81.798 380.165 C 80.552 380.477,78.877 382.152,78.565 383.398 C 78.431 383.931,78.069 384.577,77.761 384.833 C 77.452 385.089,77.200 385.810,77.200 386.435 C 77.200 387.132,76.914 387.725,76.459 387.968 C 75.862 388.288,75.734 388.777,75.801 390.483 C 75.946 394.206,75.986 394.400,76.600 394.400 C 76.930 394.400,77.200 394.674,77.200 395.010 C 77.200 395.345,77.650 395.791,78.200 396.000 C 78.750 396.209,79.200 396.655,79.200 396.990 C 79.200 397.535,92.849 397.600,208.000 397.600 C 336.533 397.600,336.800 397.598,336.800 396.800 C 336.800 396.148,337.067 396.000,338.237 396.000 C 339.338 396.000,339.724 395.813,339.884 395.200 C 340.000 394.757,340.430 394.400,340.847 394.400 C 341.333 394.400,341.600 394.117,341.600 393.600 C 341.600 393.156,341.867 392.800,342.200 392.800 C 342.530 392.800,342.800 392.530,342.800 392.200 C 342.800 391.867,343.156 391.600,343.600 391.600 C 344.145 391.600,344.400 391.333,344.400 390.763 C 344.400 390.262,344.721 389.841,345.200 389.716 C 345.794 389.561,346.000 389.170,346.000 388.200 C 346.000 387.230,346.206 386.839,346.800 386.684 C 347.568 386.483,347.600 386.138,347.600 378.037 C 347.600 369.867,347.575 369.600,346.800 369.600 C 346.133 369.600,346.000 369.333,346.000 368.000 C 346.000 366.667,345.867 366.400,345.200 366.400 C 344.533 366.400,344.400 366.133,344.400 364.800 C 344.400 363.467,344.267 363.200,343.600 363.200 C 342.951 363.200,342.800 362.933,342.800 361.787 C 342.800 360.901,342.577 360.289,342.200 360.145 C 341.852 360.011,341.600 359.413,341.600 358.720 C 341.600 357.862,341.375 357.466,340.800 357.316 C 340.194 357.157,340.000 356.770,340.000 355.716 C 340.000 354.662,339.806 354.275,339.200 354.116 C 338.594 353.957,338.400 353.570,338.400 352.516 C 338.400 351.462,338.206 351.075,337.600 350.916 C 336.994 350.757,336.800 350.370,336.800 349.316 C 336.800 348.262,336.606 347.875,336.000 347.716 C 335.394 347.557,335.200 347.170,335.200 346.116 C 335.200 345.062,335.006 344.675,334.400 344.516 C 333.799 344.359,333.600 343.970,333.600 342.953 C 333.600 341.867,333.442 341.600,332.800 341.600 C 332.133 341.600,332.000 341.333,332.000 340.000 C 332.000 338.698,331.859 338.400,331.245 338.400 C 330.699 338.400,330.417 338.014,330.229 337.015 C 330.006 335.825,329.775 335.594,328.585 335.371 C 327.586 335.183,327.200 334.901,327.200 334.355 C 327.200 333.659,326.843 333.600,322.600 333.600 C 318.054 333.600,318.000 333.611,318.000 334.529 C 318.000 335.122,317.422 335.942,316.402 336.798 C 312.223 340.305,311.964 344.636,315.565 350.800 C 315.758 351.130,316.785 353.200,317.847 355.400 C 318.910 357.600,320.009 359.638,320.289 359.929 C 320.570 360.219,320.800 360.875,320.800 361.386 C 320.800 361.897,321.047 362.409,321.349 362.525 C 321.650 362.641,322.021 363.231,322.173 363.836 C 322.325 364.442,322.798 365.380,323.225 365.922 C 323.651 366.464,324.000 367.222,324.000 367.605 C 324.000 367.988,324.252 368.511,324.561 368.767 C 324.869 369.023,325.243 369.720,325.392 370.316 C 325.541 370.912,325.897 371.670,326.184 372.000 C 326.471 372.330,326.841 373.050,327.008 373.600 C 327.174 374.150,327.645 375.029,328.055 375.554 C 330.449 378.619,329.554 378.800,312.000 378.800 C 293.856 378.800,293.645 378.732,295.747 373.549 C 296.048 372.807,296.402 370.717,296.534 368.905 C 296.666 367.093,297.026 365.113,297.333 364.505 C 297.640 363.897,297.991 361.960,298.112 360.200 C 298.233 358.440,298.594 356.370,298.913 355.600 C 299.233 354.830,299.599 352.758,299.727 350.997 C 299.855 349.235,300.239 347.126,300.580 346.310 C 300.921 345.493,301.208 343.785,301.218 342.513 C 301.227 341.241,301.504 339.480,301.832 338.600 C 302.161 337.720,302.601 335.311,302.809 333.247 C 303.018 331.183,303.365 329.284,303.579 329.026 C 303.793 328.767,304.089 327.036,304.236 325.178 C 304.384 323.320,304.736 321.228,305.020 320.529 C 305.303 319.829,305.662 318.209,305.818 316.929 C 306.163 314.084,306.589 313.200,307.614 313.200 C 308.264 313.200,308.400 312.924,308.400 311.600 C 308.400 310.267,308.533 310.000,309.200 310.000 C 309.953 310.000,310.000 309.733,310.000 305.447 C 310.000 301.230,310.059 300.878,310.800 300.684 C 311.530 300.493,311.600 300.138,311.600 296.637 C 311.600 293.333,311.711 292.689,312.400 292.000 C 313.085 291.315,313.200 290.667,313.200 287.496 C 313.200 284.226,313.294 283.734,314.000 283.293 C 315.247 282.514,315.247 263.642,314.000 263.316 C 313.403 263.160,313.200 262.770,313.200 261.780 C 313.200 260.805,312.988 260.387,312.400 260.200 C 311.960 260.060,311.600 259.688,311.600 259.373 C 311.600 259.058,311.240 258.800,310.800 258.800 C 310.267 258.800,310.000 258.533,310.000 258.000 C 310.000 257.467,309.733 257.200,309.200 257.200 C 308.667 257.200,308.400 256.933,308.400 256.400 C 308.400 255.960,308.142 255.600,307.827 255.600 C 307.512 255.600,307.140 255.240,307.000 254.800 C 306.813 254.212,306.395 254.000,305.420 254.000 C 304.430 254.000,304.040 253.797,303.884 253.200 C 303.553 251.935,96.447 251.935,96.116 253.200 M294.967 271.843 C 295.768 272.150,295.790 273.971,295.016 275.824 C 294.694 276.593,294.311 278.613,294.164 280.311 C 294.016 282.010,293.650 284.141,293.350 285.047 C 293.050 285.952,292.638 288.292,292.434 290.247 C 292.230 292.201,291.893 294.250,291.684 294.800 C 291.475 295.350,291.173 297.240,291.012 299.000 C 290.851 300.760,290.492 302.748,290.214 303.418 C 289.937 304.088,289.577 306.051,289.415 307.781 C 289.253 309.511,288.893 311.573,288.615 312.363 C 288.337 313.153,287.981 315.240,287.823 317.000 C 287.666 318.760,287.281 320.971,286.969 321.914 C 286.656 322.857,286.400 324.392,286.400 325.327 C 286.400 326.261,286.123 328.010,285.785 329.213 C 285.446 330.416,284.992 332.965,284.775 334.877 C 284.558 336.790,284.115 339.107,283.790 340.027 C 283.466 340.948,283.200 342.639,283.200 343.787 C 283.200 344.934,282.924 346.756,282.586 347.836 C 282.249 348.916,281.799 351.386,281.587 353.325 C 281.375 355.264,281.021 357.187,280.800 357.599 C 280.580 358.011,280.220 360.082,280.000 362.200 C 279.780 364.318,279.423 366.383,279.207 366.788 C 278.990 367.192,278.705 368.846,278.574 370.462 C 278.288 373.985,277.312 377.611,276.463 378.300 C 275.714 378.908,125.896 379.045,124.302 378.439 C 123.606 378.174,123.221 377.561,122.860 376.139 C 122.589 375.073,122.199 373.570,121.993 372.800 C 121.788 372.030,121.615 370.664,121.610 369.764 C 121.604 368.864,121.330 367.244,121.001 366.164 C 120.672 365.084,120.296 362.940,120.165 361.400 C 120.035 359.860,119.664 357.755,119.340 356.722 C 119.015 355.689,118.588 353.439,118.390 351.722 C 118.192 350.005,117.753 347.616,117.415 346.413 C 117.077 345.210,116.800 343.297,116.800 342.162 C 116.800 341.026,116.548 339.491,116.240 338.749 C 115.932 338.007,115.548 335.968,115.386 334.218 C 115.223 332.468,114.863 330.488,114.586 329.818 C 114.308 329.148,113.950 327.160,113.790 325.400 C 113.630 323.640,113.267 321.570,112.983 320.800 C 112.700 320.030,112.355 317.880,112.218 316.022 C 112.081 314.164,111.788 312.427,111.568 312.162 C 111.348 311.897,110.987 309.997,110.764 307.940 C 110.542 305.883,110.111 303.480,109.808 302.600 C 109.504 301.720,109.153 299.706,109.027 298.125 C 108.902 296.543,108.605 294.743,108.368 294.125 C 108.131 293.506,107.784 291.532,107.597 289.737 C 107.410 287.942,106.974 285.641,106.628 284.623 C 106.283 283.605,106.000 281.885,106.000 280.800 C 106.000 279.715,105.746 278.057,105.436 277.114 C 104.467 274.164,104.295 272.808,104.814 272.184 C 105.313 271.582,293.408 271.245,294.967 271.843 M74.900 332.265 C 74.625 332.376,74.400 332.722,74.400 333.033 C 74.400 333.428,73.914 333.600,72.800 333.600 C 71.528 333.600,71.200 333.747,71.200 334.317 C 71.200 334.781,70.741 335.170,69.900 335.417 C 68.923 335.705,68.505 336.123,68.217 337.100 C 67.970 337.941,67.581 338.400,67.117 338.400 C 66.547 338.400,66.400 338.728,66.400 340.000 C 66.400 341.333,66.267 341.600,65.600 341.600 C 64.934 341.600,64.800 341.867,64.800 343.187 C 64.800 344.461,64.677 344.728,64.176 344.535 C 63.759 344.376,63.478 344.579,63.329 345.148 C 63.117 345.962,62.876 346.000,57.916 346.000 C 53.062 346.000,52.712 346.052,52.516 346.800 C 52.339 347.477,51.970 347.600,50.116 347.600 C 48.262 347.600,47.893 347.723,47.716 348.400 C 47.553 349.021,47.170 349.200,46.000 349.200 C 44.830 349.200,44.447 349.379,44.284 350.000 C 44.132 350.583,43.738 350.800,42.837 350.800 C 41.867 350.800,41.600 350.972,41.600 351.600 C 41.600 352.252,41.333 352.400,40.163 352.400 C 39.062 352.400,38.676 352.587,38.516 353.200 C 38.400 353.643,37.970 354.000,37.553 354.000 C 37.067 354.000,36.800 354.283,36.800 354.800 C 36.800 355.333,36.533 355.600,36.000 355.600 C 35.467 355.600,35.200 355.867,35.200 356.400 C 35.200 356.933,34.933 357.200,34.400 357.200 C 33.867 357.200,33.600 357.467,33.600 358.000 C 33.600 358.533,33.333 358.800,32.800 358.800 C 32.360 358.800,32.000 359.058,32.000 359.373 C 32.000 359.688,31.640 360.060,31.200 360.200 C 30.760 360.340,30.400 360.802,30.400 361.227 C 30.400 361.652,30.138 362.000,29.818 362.000 C 29.473 362.000,29.132 362.554,28.981 363.363 C 28.818 364.232,28.448 364.799,27.962 364.926 C 27.436 365.063,27.200 365.480,27.200 366.274 C 27.200 366.947,26.851 367.721,26.357 368.144 C 25.720 368.690,25.570 369.152,25.747 370.033 C 25.941 371.007,25.849 371.200,25.190 371.200 C 24.514 371.200,24.400 371.475,24.400 373.104 C 24.400 374.574,24.218 375.121,23.600 375.507 C 22.838 375.983,22.800 376.440,22.800 385.203 C 22.800 394.133,22.823 394.400,23.600 394.400 C 24.133 394.400,24.400 394.667,24.400 395.200 C 24.400 395.717,24.667 396.000,25.153 396.000 C 25.570 396.000,26.000 396.357,26.116 396.800 C 26.314 397.558,26.662 397.600,32.800 397.600 C 38.938 397.600,39.286 397.558,39.484 396.800 C 39.601 396.351,40.030 396.000,40.459 396.000 C 40.880 396.000,41.341 395.685,41.482 395.300 C 41.624 394.915,41.978 394.456,42.270 394.280 C 43.085 393.788,42.989 388.532,42.150 387.693 C 41.366 386.909,41.664 381.854,42.555 380.820 C 42.849 380.479,43.197 379.632,43.327 378.938 C 43.792 376.470,50.530 368.410,52.137 368.402 C 52.322 368.401,52.931 368.040,53.491 367.600 C 54.050 367.160,54.894 366.800,55.365 366.800 C 55.836 366.800,56.667 366.485,57.211 366.100 C 58.045 365.510,59.432 365.369,66.060 365.200 C 74.525 364.985,74.050 365.102,76.623 362.600 C 77.621 361.629,79.200 358.953,79.200 358.231 C 79.200 357.943,79.560 357.250,80.000 356.691 C 80.440 356.131,80.800 355.411,80.800 355.091 C 80.800 354.770,81.149 354.064,81.575 353.522 C 82.002 352.980,82.469 352.063,82.614 351.485 C 82.760 350.906,83.131 350.223,83.439 349.967 C 83.748 349.711,84.000 349.188,84.000 348.805 C 84.000 348.422,84.360 347.650,84.800 347.091 C 86.622 344.775,85.628 340.368,82.500 336.889 C 81.785 336.094,81.200 335.029,81.200 334.522 C 81.200 334.015,81.012 333.600,80.783 333.600 C 80.554 333.600,79.980 333.240,79.508 332.800 C 78.684 332.033,76.193 331.743,74.900 332.265 M385.345 376.600 C 385.189 377.005,384.554 377.200,383.390 377.200 C 381.322 377.200,380.400 377.507,380.400 378.196 C 380.400 378.477,380.040 378.801,379.600 378.916 C 379.160 379.031,378.800 379.391,378.800 379.716 C 378.800 380.041,378.426 380.404,377.970 380.524 C 377.468 380.655,377.170 381.029,377.216 381.470 C 377.371 382.955,377.184 383.600,376.600 383.600 C 376.120 383.600,376.000 384.200,376.000 386.600 C 376.000 389.000,376.120 389.600,376.600 389.600 C 376.989 389.600,377.218 390.022,377.250 390.800 C 377.326 392.613,377.328 392.622,378.400 394.358 C 378.950 395.249,379.619 395.983,379.886 395.989 C 380.153 395.995,380.565 396.360,380.800 396.800 C 382.067 399.168,394.400 397.519,394.400 394.982 C 394.400 394.662,394.760 394.400,395.200 394.400 C 395.733 394.400,396.000 394.133,396.000 393.600 C 396.000 393.067,396.267 392.800,396.800 392.800 C 397.560 392.800,397.600 392.533,397.600 387.400 C 397.600 382.267,397.560 382.000,396.800 382.000 C 396.152 382.000,396.000 381.733,396.000 380.600 C 396.000 379.830,395.827 379.200,395.616 379.200 C 395.404 379.200,394.900 378.844,394.495 378.410 C 393.672 377.526,392.686 377.273,389.900 377.230 C 388.491 377.208,388.000 377.045,388.000 376.600 C 388.000 376.199,387.599 376.000,386.787 376.000 C 386.079 376.000,385.479 376.249,385.345 376.600 " stroke="none" fill="#444c54" fill-rule="evenodd"></path><path id="path1" d="M192.800 113.245 C 192.030 113.445,190.320 113.795,189.000 114.022 C 175.402 116.365,158.769 128.908,153.382 140.880 C 153.055 141.606,152.623 142.470,152.422 142.800 C 151.592 144.162,150.399 147.110,150.152 148.410 C 150.006 149.174,149.727 150.005,149.531 150.256 C 149.336 150.507,148.912 152.217,148.590 154.056 C 148.268 155.895,147.824 158.029,147.602 158.797 C 146.476 162.708,147.832 177.896,149.602 181.204 C 149.821 181.613,150.000 182.240,150.000 182.598 C 150.000 183.751,153.639 191.293,155.790 194.600 C 161.878 203.957,174.099 213.400,183.030 215.649 C 184.011 215.896,184.911 216.256,185.030 216.449 C 185.150 216.642,185.727 216.800,186.313 216.800 L 187.378 216.800 186.462 216.158 C 185.958 215.805,184.793 215.418,183.873 215.299 C 182.953 215.179,181.771 214.747,181.246 214.340 C 180.721 213.933,179.888 213.600,179.395 213.600 C 178.902 213.600,178.278 213.335,178.009 213.011 C 177.740 212.686,176.908 212.306,176.160 212.166 C 175.412 212.026,174.800 211.742,174.800 211.536 C 174.800 211.330,174.305 210.943,173.700 210.676 C 173.095 210.409,171.808 209.653,170.840 208.995 C 169.872 208.338,168.808 207.620,168.475 207.400 C 168.142 207.180,167.211 206.370,166.406 205.600 C 165.601 204.830,164.415 203.729,163.771 203.152 C 162.004 201.571,158.400 197.606,158.400 197.243 C 158.400 197.068,158.040 196.598,157.600 196.200 C 157.160 195.802,156.800 195.262,156.800 195.000 C 156.800 194.738,156.440 194.198,156.000 193.800 C 155.560 193.402,155.196 192.879,155.191 192.638 C 155.186 192.397,154.830 191.750,154.400 191.200 C 153.970 190.650,153.614 189.909,153.609 189.554 C 153.604 189.199,153.240 188.450,152.800 187.891 C 152.360 187.331,151.999 186.542,151.997 186.137 C 151.996 185.732,151.637 184.860,151.200 184.200 C 150.763 183.540,150.403 182.550,150.400 182.000 C 150.397 181.450,150.136 180.503,149.819 179.896 C 149.503 179.289,149.063 177.180,148.844 175.211 C 148.624 173.241,148.254 171.274,148.022 170.841 C 147.470 169.810,147.476 161.976,148.030 160.526 C 148.266 159.907,148.640 157.791,148.860 155.824 C 149.081 153.857,149.517 151.882,149.831 151.435 C 150.144 150.988,150.400 150.187,150.400 149.655 C 150.400 149.123,150.785 147.858,151.255 146.844 C 153.750 141.465,155.735 137.600,156.002 137.600 C 156.167 137.600,156.521 137.073,156.788 136.429 C 157.055 135.785,157.527 135.160,157.837 135.041 C 158.146 134.922,158.400 134.459,158.400 134.013 C 158.400 133.557,158.664 133.200,159.000 133.200 C 159.330 133.200,159.600 133.006,159.600 132.769 C 159.600 132.127,167.990 124.000,168.653 124.000 C 168.968 124.000,169.322 123.746,169.441 123.437 C 169.560 123.127,170.172 122.660,170.800 122.400 C 171.428 122.140,172.040 121.673,172.159 121.363 C 172.278 121.054,172.667 120.800,173.024 120.800 C 173.382 120.800,174.131 120.440,174.691 120.000 C 175.250 119.560,175.970 119.200,176.291 119.200 C 176.611 119.200,177.331 118.840,177.891 118.400 C 178.450 117.960,179.204 117.600,179.565 117.600 C 179.926 117.600,180.586 117.345,181.031 117.033 C 181.477 116.721,182.552 116.341,183.420 116.188 C 184.289 116.035,185.379 115.673,185.842 115.384 C 186.306 115.094,188.286 114.678,190.242 114.458 C 192.199 114.239,194.307 113.866,194.926 113.630 C 195.545 113.393,197.829 113.200,200.000 113.200 C 202.171 113.200,204.455 113.393,205.074 113.630 C 205.693 113.866,207.801 114.239,209.758 114.458 C 211.714 114.678,213.694 115.094,214.158 115.384 C 214.621 115.673,215.711 116.035,216.580 116.188 C 217.448 116.341,218.523 116.721,218.969 117.033 C 219.414 117.345,220.164 117.600,220.635 117.600 C 221.106 117.600,221.950 117.960,222.509 118.400 C 223.069 118.840,223.785 119.200,224.101 119.200 C 224.417 119.200,225.002 119.560,225.400 120.000 C 225.798 120.440,226.428 120.800,226.800 120.800 C 227.172 120.800,227.802 121.160,228.200 121.600 C 228.598 122.040,229.138 122.400,229.400 122.400 C 229.662 122.400,230.202 122.760,230.600 123.200 C 230.998 123.640,231.480 124.000,231.670 124.000 C 232.144 124.000,241.600 133.424,241.600 133.897 C 241.600 134.105,241.960 134.602,242.400 135.000 C 242.840 135.398,243.200 135.968,243.200 136.266 C 243.200 136.564,243.560 137.116,244.000 137.493 C 244.440 137.870,244.800 138.384,244.800 138.635 C 244.800 138.886,245.160 139.550,245.600 140.109 C 246.040 140.669,246.400 141.389,246.400 141.709 C 246.400 142.030,246.760 142.750,247.200 143.309 C 247.640 143.869,248.000 144.679,248.000 145.109 C 248.000 145.540,248.360 146.350,248.800 146.909 C 249.240 147.469,249.601 148.438,249.602 149.063 C 249.604 149.688,249.888 150.740,250.234 151.400 C 250.581 152.060,251.015 154.040,251.200 155.800 C 251.385 157.560,251.731 159.507,251.968 160.126 C 252.613 161.807,252.499 169.444,251.796 171.764 C 251.468 172.844,251.194 174.644,251.186 175.764 C 251.179 176.931,250.843 178.482,250.400 179.400 C 249.975 180.280,249.621 181.563,249.614 182.251 C 249.606 182.939,249.342 183.717,249.026 183.979 C 248.710 184.241,248.326 185.028,248.174 185.728 C 248.021 186.427,247.559 187.429,247.148 187.954 C 246.737 188.479,246.400 189.171,246.400 189.492 C 246.400 189.814,246.085 190.555,245.700 191.140 C 244.442 193.051,244.002 193.785,243.503 194.800 C 243.233 195.350,242.695 196.035,242.306 196.323 C 241.918 196.610,241.600 197.007,241.600 197.204 C 241.600 197.598,238.083 201.494,236.229 203.152 C 235.585 203.729,234.409 204.830,233.615 205.600 C 232.157 207.015,228.321 209.725,226.300 210.768 C 225.695 211.080,225.200 211.485,225.200 211.668 C 225.200 211.850,224.874 212.000,224.476 212.000 C 224.079 212.000,223.404 212.267,222.976 212.594 C 222.549 212.920,221.480 213.387,220.600 213.631 C 219.720 213.875,218.730 214.304,218.400 214.585 C 218.070 214.865,217.047 215.190,216.127 215.306 C 215.207 215.422,214.037 215.823,213.527 216.197 L 212.600 216.878 213.800 216.685 C 215.261 216.449,218.366 215.334,222.800 213.450 C 229.451 210.625,237.536 203.786,243.182 196.209 C 245.248 193.436,250.000 184.105,250.000 182.821 C 250.000 182.340,250.214 181.554,250.475 181.074 C 253.320 175.838,253.386 156.831,250.581 150.486 C 250.261 149.764,250.000 148.884,250.000 148.530 C 250.000 147.475,246.845 140.824,244.815 137.600 C 239.388 128.982,229.457 120.380,221.400 117.317 C 215.993 115.262,214.111 114.690,209.801 113.796 C 204.719 112.741,195.848 112.454,192.800 113.245 M191.000 217.621 C 192.980 218.042,195.680 218.366,197.000 218.341 L 199.400 218.295 197.200 217.970 C 195.990 217.792,194.280 217.459,193.400 217.232 C 192.520 217.005,190.810 216.827,189.600 216.838 L 187.400 216.856 191.000 217.621 M206.600 217.267 C 205.940 217.485,204.320 217.816,203.000 218.000 C 200.748 218.315,200.810 218.327,204.000 218.197 C 205.870 218.120,208.570 217.792,210.000 217.468 L 212.600 216.878 210.200 216.874 C 208.880 216.871,207.260 217.048,206.600 217.267 M106.322 272.611 C 106.206 272.727,106.259 273.582,106.438 274.511 C 106.618 275.440,106.773 276.971,106.783 277.913 C 106.792 278.855,107.081 280.295,107.424 281.113 C 107.767 281.931,108.152 284.130,108.280 286.000 C 108.407 287.870,108.735 289.850,109.009 290.400 C 109.283 290.950,109.639 292.930,109.800 294.800 C 109.961 296.670,110.323 298.650,110.603 299.200 C 110.884 299.750,111.245 301.820,111.405 303.800 C 111.564 305.780,111.864 307.611,112.070 307.868 C 112.276 308.125,112.624 310.090,112.844 312.234 C 113.063 314.378,113.441 316.503,113.684 316.958 C 113.927 317.412,114.272 319.363,114.450 321.294 C 114.628 323.225,114.972 325.174,115.214 325.626 C 115.456 326.078,115.822 328.081,116.029 330.077 C 116.236 332.073,116.673 334.499,117.002 335.467 C 117.331 336.436,117.600 338.217,117.600 339.427 C 117.600 340.636,117.879 342.293,118.219 343.108 C 118.560 343.923,119.003 346.212,119.204 348.195 C 119.406 350.178,119.839 352.520,120.168 353.400 C 120.496 354.280,120.773 356.103,120.782 357.451 C 120.792 358.799,121.077 360.565,121.415 361.375 C 121.754 362.185,122.175 364.416,122.352 366.332 C 122.529 368.248,122.884 370.209,123.140 370.688 C 123.397 371.168,123.722 372.919,123.862 374.580 L 124.117 377.600 200.009 377.600 L 275.900 377.600 276.150 376.350 C 276.288 375.663,276.401 374.628,276.402 374.050 C 276.404 373.473,276.650 372.529,276.951 371.954 C 277.251 371.379,277.626 369.309,277.785 367.354 C 277.944 365.399,278.311 363.260,278.600 362.600 C 278.888 361.940,279.223 359.958,279.342 358.197 C 279.462 356.435,279.815 354.365,280.127 353.597 C 280.439 352.828,280.802 350.717,280.934 348.905 C 281.066 347.093,281.425 345.113,281.731 344.505 C 282.038 343.897,282.395 341.948,282.526 340.174 C 282.657 338.400,282.974 336.420,283.231 335.774 C 283.488 335.128,283.845 332.980,284.024 331.000 C 284.203 329.020,284.631 326.731,284.975 325.913 C 285.319 325.095,285.608 323.385,285.618 322.113 C 285.627 320.841,285.904 319.080,286.233 318.200 C 286.561 317.320,287.010 314.811,287.230 312.624 C 287.449 310.437,287.806 308.433,288.023 308.172 C 288.240 307.911,288.527 306.190,288.662 304.348 C 288.796 302.507,289.153 300.391,289.455 299.646 C 289.757 298.901,290.106 297.011,290.230 295.446 C 290.354 293.881,290.700 291.880,290.999 291.000 C 291.297 290.120,291.667 287.870,291.820 286.000 C 291.973 284.130,292.290 282.150,292.524 281.600 C 292.989 280.508,293.965 273.185,293.711 272.700 C 293.535 272.366,106.656 272.277,106.322 272.611 M206.551 310.989 C 209.175 312.235,210.999 313.789,213.203 316.659 C 218.616 323.707,214.456 336.345,205.672 339.543 C 198.292 342.230,192.329 340.265,186.791 333.322 C 186.581 333.059,185.958 331.643,185.405 330.174 C 180.621 317.464,194.211 305.134,206.551 310.989 M91.600 314.837 C 91.600 315.078,91.934 315.362,92.342 315.469 C 92.971 315.633,93.124 316.219,93.343 319.303 C 93.485 321.305,93.843 323.315,94.138 323.771 C 94.433 324.227,94.791 326.271,94.934 328.313 C 95.077 330.356,95.441 332.516,95.743 333.113 C 96.046 333.711,96.385 335.741,96.498 337.625 C 96.617 339.622,96.973 341.574,97.351 342.305 C 97.740 343.057,98.007 344.570,98.018 346.080 C 98.027 347.466,98.318 349.320,98.664 350.200 C 99.010 351.080,99.436 353.562,99.610 355.715 C 99.784 357.868,100.144 359.891,100.409 360.211 C 100.675 360.532,101.029 362.460,101.197 364.497 C 101.364 366.534,101.774 368.830,102.108 369.600 C 102.443 370.370,102.781 372.485,102.861 374.300 L 103.006 377.600 93.003 377.606 C 85.013 377.611,82.799 377.728,82.000 378.190 C 81.450 378.508,80.730 378.900,80.400 379.061 C 79.659 379.423,77.600 381.441,77.600 381.806 C 77.600 381.953,77.240 382.531,76.800 383.091 C 76.241 383.802,76.013 384.664,76.044 385.954 L 76.088 387.800 76.427 386.074 C 76.614 385.124,77.176 383.684,77.676 382.874 C 80.492 378.307,81.448 378.010,93.400 377.998 C 98.680 377.992,103.238 377.837,103.528 377.653 C 104.087 377.299,104.045 376.931,102.579 369.200 C 102.224 367.330,101.701 364.270,101.417 362.400 C 101.133 360.530,100.706 358.010,100.469 356.800 C 100.232 355.590,99.850 353.430,99.621 352.000 C 99.215 349.476,98.821 347.174,97.943 342.200 C 97.121 337.544,96.746 335.351,95.960 330.600 C 95.523 327.960,94.972 324.810,94.735 323.600 C 94.309 321.428,93.264 315.282,93.222 314.700 C 93.187 314.220,91.600 314.354,91.600 314.837 M307.005 315.192 C 306.872 315.407,306.609 316.892,306.420 318.492 C 306.232 320.091,305.790 322.473,305.439 323.784 C 305.087 325.095,304.800 326.704,304.800 327.360 C 304.800 328.402,304.076 332.719,302.782 339.400 C 302.569 340.500,302.204 342.660,301.971 344.200 C 301.739 345.740,301.298 348.002,300.993 349.227 C 300.687 350.452,300.320 352.702,300.176 354.227 C 300.032 355.752,299.678 357.900,299.388 359.000 C 299.098 360.100,298.744 362.080,298.601 363.400 C 298.457 364.720,298.097 366.700,297.801 367.800 C 297.504 368.900,297.147 370.880,297.008 372.200 C 296.869 373.520,296.564 375.206,296.331 375.948 C 295.998 377.006,296.024 377.369,296.453 377.641 C 297.040 378.013,327.319 378.148,327.687 377.780 C 327.863 377.603,323.849 369.283,322.390 366.800 C 322.196 366.470,321.116 364.310,319.989 362.000 C 318.863 359.690,317.774 357.530,317.570 357.200 C 317.366 356.870,317.020 356.150,316.801 355.600 C 316.581 355.050,316.221 354.330,316.001 354.000 C 315.780 353.670,315.418 352.950,315.197 352.400 C 314.975 351.850,314.267 350.500,313.623 349.400 C 311.055 345.010,311.923 339.699,315.790 336.148 C 317.369 334.699,318.326 333.104,317.200 333.800 C 316.980 333.936,316.800 334.263,316.800 334.526 C 316.800 334.789,316.273 335.238,315.628 335.523 C 311.856 337.193,310.589 344.557,313.172 349.803 C 313.869 351.219,314.610 352.483,314.819 352.612 C 315.029 352.741,315.200 353.169,315.200 353.562 C 315.200 353.956,315.560 354.693,316.000 355.200 C 316.440 355.707,316.800 356.536,316.800 357.041 C 316.800 357.547,317.045 358.104,317.343 358.280 C 317.642 358.456,318.106 359.275,318.374 360.100 C 318.643 360.925,319.014 361.600,319.199 361.600 C 319.385 361.600,319.652 362.128,319.794 362.772 C 319.936 363.417,320.298 364.150,320.600 364.400 C 320.902 364.650,321.262 365.370,321.400 366.000 C 321.538 366.630,321.898 367.350,322.200 367.600 C 322.502 367.850,322.867 368.595,323.012 369.255 C 323.157 369.914,323.511 370.544,323.798 370.655 C 324.086 370.765,324.439 371.482,324.583 372.249 C 324.727 373.015,325.087 373.735,325.383 373.849 C 325.679 373.962,326.036 374.668,326.177 375.417 C 326.317 376.166,326.740 376.958,327.116 377.177 C 327.579 377.447,322.823 377.580,312.381 377.588 L 296.962 377.600 297.303 374.100 C 297.491 372.175,297.884 370.060,298.177 369.400 C 298.469 368.740,298.828 366.749,298.975 364.977 C 299.122 363.204,299.494 361.044,299.803 360.177 C 300.112 359.309,300.373 357.561,300.382 356.290 C 300.392 355.020,300.760 352.956,301.200 351.704 C 301.647 350.431,302.000 348.402,302.000 347.101 C 302.000 345.821,302.291 344.105,302.647 343.287 C 303.003 342.469,303.431 340.268,303.599 338.396 C 303.766 336.524,304.195 334.133,304.551 333.082 C 304.908 332.032,305.200 330.089,305.200 328.766 C 305.200 327.362,305.462 325.854,305.828 325.146 C 306.174 324.478,306.586 322.310,306.744 320.329 C 306.966 317.548,307.188 316.639,307.716 316.343 C 308.092 316.133,308.400 315.699,308.400 315.380 C 308.400 314.728,307.377 314.589,307.005 315.192 M82.032 334.343 C 82.014 334.642,82.945 336.074,84.100 337.526 C 86.163 340.117,86.202 340.218,86.332 343.182 L 86.463 346.200 82.430 354.176 C 76.396 366.109,76.286 366.193,66.838 366.197 C 59.754 366.200,56.085 366.846,54.048 368.448 C 53.522 368.862,52.863 369.200,52.583 369.200 C 49.445 369.200,43.043 379.810,42.596 385.751 C 42.511 386.878,42.539 387.350,42.656 386.800 C 42.774 386.250,43.215 384.771,43.635 383.513 C 44.056 382.255,44.400 380.770,44.400 380.213 C 44.400 379.656,44.760 378.840,45.200 378.400 C 45.640 377.960,46.000 377.300,46.000 376.934 C 46.000 376.567,46.273 375.982,46.606 375.634 C 46.940 375.285,48.065 374.088,49.106 372.972 C 50.148 371.857,51.315 370.828,51.700 370.685 C 52.085 370.542,52.400 370.254,52.400 370.044 C 52.400 369.835,52.952 369.542,53.627 369.394 C 54.302 369.246,54.949 368.876,55.066 368.573 C 55.182 368.270,55.935 367.919,56.739 367.794 C 57.542 367.669,59.195 367.288,60.411 366.947 C 62.598 366.334,66.519 366.360,69.495 367.008 C 72.346 367.628,78.800 364.291,78.800 362.197 C 78.800 361.916,79.060 361.586,79.378 361.464 C 79.696 361.342,80.073 360.615,80.217 359.849 C 80.361 359.082,80.714 358.365,81.002 358.255 C 81.289 358.144,81.643 357.514,81.788 356.855 C 81.933 356.195,82.310 355.441,82.626 355.179 C 82.942 354.917,83.200 354.388,83.200 354.005 C 83.200 353.622,83.549 352.864,83.975 352.322 C 84.402 351.780,84.871 350.856,85.019 350.268 C 85.166 349.681,85.440 349.200,85.628 349.200 C 85.816 349.200,86.164 348.435,86.401 347.500 C 86.639 346.565,87.039 345.389,87.291 344.887 C 87.653 344.166,87.607 343.578,87.072 342.087 C 86.700 341.049,86.397 339.922,86.398 339.582 C 86.399 339.242,85.504 337.995,84.409 336.810 C 83.314 335.625,82.339 334.463,82.241 334.228 C 82.143 333.993,82.049 334.044,82.032 334.343 " stroke="none" fill="#c3d3e3" fill-rule="evenodd"></path><path id="path2" d="M194.800 113.653 C 194.250 113.875,192.199 114.236,190.242 114.457 C 188.286 114.677,186.306 115.094,185.842 115.384 C 185.379 115.673,184.289 116.035,183.420 116.188 C 182.552 116.341,181.477 116.721,181.031 117.033 C 180.586 117.345,179.926 117.600,179.565 117.600 C 179.204 117.600,178.450 117.960,177.891 118.400 C 177.331 118.840,176.611 119.200,176.291 119.200 C 175.970 119.200,175.250 119.560,174.691 120.000 C 174.131 120.440,173.382 120.800,173.024 120.800 C 172.667 120.800,172.278 121.054,172.159 121.363 C 172.040 121.673,171.428 122.140,170.800 122.400 C 170.172 122.660,169.560 123.127,169.441 123.437 C 169.322 123.746,168.968 124.000,168.653 124.000 C 167.990 124.000,159.600 132.127,159.600 132.769 C 159.600 133.006,159.330 133.200,159.000 133.200 C 158.664 133.200,158.400 133.557,158.400 134.013 C 158.400 134.459,158.146 134.922,157.837 135.041 C 157.527 135.160,157.055 135.785,156.788 136.429 C 156.521 137.073,156.167 137.600,156.002 137.600 C 155.735 137.600,153.750 141.465,151.255 146.844 C 150.785 147.858,150.400 149.123,150.400 149.655 C 150.400 150.187,150.144 150.988,149.831 151.435 C 149.517 151.882,149.081 153.857,148.860 155.824 C 148.640 157.791,148.266 159.907,148.030 160.526 C 147.476 161.976,147.470 169.810,148.022 170.841 C 148.254 171.274,148.624 173.241,148.844 175.211 C 149.063 177.180,149.503 179.289,149.819 179.896 C 150.136 180.503,150.397 181.450,150.400 182.000 C 150.403 182.550,150.763 183.540,151.200 184.200 C 151.637 184.860,151.996 185.732,151.997 186.137 C 151.999 186.542,152.360 187.331,152.800 187.891 C 153.240 188.450,153.604 189.199,153.609 189.554 C 153.614 189.909,153.970 190.650,154.400 191.200 C 154.830 191.750,155.186 192.397,155.191 192.638 C 155.196 192.879,155.560 193.402,156.000 193.800 C 156.440 194.198,156.800 194.738,156.800 195.000 C 156.800 195.262,157.160 195.802,157.600 196.200 C 158.040 196.598,158.400 197.068,158.400 197.243 C 158.400 197.606,162.004 201.571,163.771 203.152 C 164.415 203.729,165.601 204.830,166.406 205.600 C 167.211 206.370,168.142 207.180,168.475 207.400 C 168.808 207.620,169.872 208.338,170.840 208.995 C 171.808 209.653,173.095 210.409,173.700 210.676 C 174.305 210.943,174.800 211.330,174.800 211.536 C 174.800 211.742,175.412 212.026,176.160 212.166 C 176.908 212.306,177.740 212.686,178.009 213.011 C 178.278 213.335,178.902 213.600,179.395 213.600 C 179.888 213.600,180.750 213.960,181.309 214.400 C 181.869 214.840,182.840 215.200,183.469 215.200 C 184.098 215.200,185.284 215.560,186.104 216.000 C 187.058 216.511,188.361 216.800,189.715 216.800 C 190.879 216.800,192.905 217.087,194.216 217.437 C 197.326 218.267,203.200 218.269,205.993 217.439 C 207.177 217.088,209.103 216.800,210.274 216.800 C 211.639 216.800,212.939 216.513,213.896 216.000 C 214.716 215.560,215.954 215.200,216.645 215.200 C 217.336 215.200,218.117 214.942,218.379 214.626 C 218.641 214.310,219.428 213.930,220.128 213.783 C 220.827 213.635,221.961 213.173,222.647 212.757 C 223.333 212.341,224.188 212.000,224.547 212.000 C 224.906 212.000,225.200 211.850,225.200 211.668 C 225.200 211.485,225.695 211.080,226.300 210.768 C 228.321 209.725,232.157 207.015,233.615 205.600 C 234.409 204.830,235.585 203.729,236.229 203.152 C 238.083 201.494,241.600 197.598,241.600 197.204 C 241.600 197.007,241.918 196.610,242.306 196.323 C 242.695 196.035,243.233 195.350,243.503 194.800 C 244.002 193.785,244.442 193.051,245.700 191.140 C 246.085 190.555,246.400 189.814,246.400 189.492 C 246.400 189.171,246.737 188.479,247.148 187.954 C 247.559 187.429,248.021 186.427,248.174 185.728 C 248.326 185.028,248.710 184.241,249.026 183.979 C 249.342 183.717,249.606 182.939,249.614 182.251 C 249.621 181.563,249.975 180.280,250.400 179.400 C 250.843 178.482,251.179 176.931,251.186 175.764 C 251.194 174.644,251.468 172.844,251.796 171.764 C 252.499 169.444,252.613 161.807,251.968 160.126 C 251.731 159.507,251.385 157.560,251.200 155.800 C 251.015 154.040,250.581 152.060,250.234 151.400 C 249.888 150.740,249.604 149.688,249.602 149.063 C 249.601 148.438,249.240 147.469,248.800 146.909 C 248.360 146.350,248.000 145.540,248.000 145.109 C 248.000 144.679,247.640 143.869,247.200 143.309 C 246.760 142.750,246.400 142.030,246.400 141.709 C 246.400 141.389,246.040 140.669,245.600 140.109 C 245.160 139.550,244.800 138.886,244.800 138.635 C 244.800 138.384,244.440 137.870,244.000 137.493 C 243.560 137.116,243.200 136.564,243.200 136.266 C 243.200 135.968,242.840 135.398,242.400 135.000 C 241.960 134.602,241.600 134.105,241.600 133.897 C 241.600 133.424,232.144 124.000,231.670 124.000 C 231.480 124.000,230.998 123.640,230.600 123.200 C 230.202 122.760,229.662 122.400,229.400 122.400 C 229.138 122.400,228.598 122.040,228.200 121.600 C 227.802 121.160,227.172 120.800,226.800 120.800 C 226.428 120.800,225.798 120.440,225.400 120.000 C 225.002 119.560,224.417 119.200,224.101 119.200 C 223.785 119.200,223.069 118.840,222.509 118.400 C 221.950 117.960,221.106 117.600,220.635 117.600 C 220.164 117.600,219.414 117.345,218.969 117.033 C 218.523 116.721,217.448 116.341,216.580 116.188 C 215.711 116.035,214.621 115.673,214.158 115.384 C 213.694 115.094,211.714 114.678,209.758 114.458 C 207.801 114.239,205.693 113.866,205.074 113.630 C 203.668 113.093,196.149 113.110,194.800 113.653 M194.398 310.533 C 185.106 315.004,181.292 326.429,186.791 333.322 C 192.329 340.265,198.292 342.230,205.672 339.543 C 214.456 336.345,218.616 323.707,213.203 316.659 C 208.285 310.255,200.350 307.670,194.398 310.533 M90.000 316.400 C 90.000 317.733,89.867 318.000,89.200 318.000 C 88.533 318.000,88.400 318.267,88.400 319.600 C 88.400 320.933,88.267 321.200,87.600 321.200 C 86.933 321.200,86.800 321.467,86.800 322.800 C 86.800 324.133,86.667 324.400,86.000 324.400 C 85.358 324.400,85.200 324.667,85.200 325.753 C 85.200 326.770,85.001 327.159,84.400 327.316 C 83.787 327.476,83.600 327.862,83.600 328.963 C 83.600 330.161,83.459 330.400,82.750 330.400 C 80.969 330.400,81.921 334.207,84.345 336.782 C 85.475 337.982,86.399 339.242,86.398 339.582 C 86.397 339.922,86.700 341.049,87.072 342.087 C 87.607 343.578,87.653 344.166,87.291 344.887 C 87.039 345.389,86.639 346.565,86.401 347.500 C 86.164 348.435,85.816 349.200,85.628 349.200 C 85.440 349.200,85.166 349.681,85.019 350.268 C 84.871 350.856,84.402 351.780,83.975 352.322 C 83.549 352.864,83.200 353.622,83.200 354.005 C 83.200 354.388,82.942 354.917,82.626 355.179 C 82.310 355.441,81.933 356.195,81.788 356.855 C 81.643 357.514,81.289 358.144,81.002 358.255 C 80.714 358.365,80.361 359.082,80.217 359.849 C 80.073 360.615,79.696 361.342,79.378 361.464 C 79.060 361.586,78.800 361.916,78.800 362.197 C 78.800 364.291,72.346 367.628,69.495 367.008 C 66.519 366.360,62.598 366.334,60.411 366.947 C 59.195 367.288,57.542 367.669,56.739 367.794 C 55.935 367.919,55.182 368.270,55.066 368.573 C 54.949 368.876,54.317 369.243,53.660 369.387 C 53.004 369.531,52.367 369.908,52.246 370.224 C 52.124 370.541,51.819 370.800,51.566 370.800 C 51.314 370.800,50.231 371.745,49.160 372.900 C 48.089 374.055,46.940 375.285,46.606 375.634 C 46.273 375.982,46.000 376.567,46.000 376.934 C 46.000 377.300,45.640 377.960,45.200 378.400 C 44.760 378.840,44.394 379.695,44.387 380.300 C 44.380 380.905,44.026 382.390,43.600 383.600 C 43.174 384.810,42.820 386.385,42.813 387.100 L 42.800 388.400 59.400 388.400 L 76.000 388.400 76.000 386.254 C 76.000 384.714,76.226 383.821,76.800 383.091 C 77.240 382.531,77.600 381.953,77.600 381.806 C 77.600 381.441,79.659 379.423,80.400 379.061 C 80.730 378.900,81.450 378.508,82.000 378.190 C 82.799 377.728,85.013 377.611,93.003 377.606 L 103.006 377.600 102.861 374.300 C 102.781 372.485,102.443 370.370,102.108 369.600 C 101.774 368.830,101.364 366.534,101.197 364.497 C 101.029 362.460,100.675 360.532,100.409 360.211 C 100.144 359.891,99.784 357.868,99.610 355.715 C 99.436 353.562,99.010 351.080,98.664 350.200 C 98.318 349.320,98.027 347.466,98.018 346.080 C 98.007 344.570,97.740 343.057,97.351 342.305 C 96.973 341.574,96.617 339.622,96.498 337.625 C 96.385 335.741,96.046 333.711,95.743 333.113 C 95.441 332.516,95.077 330.356,94.934 328.313 C 94.791 326.271,94.433 324.227,94.138 323.771 C 93.843 323.315,93.487 321.328,93.347 319.355 C 93.109 316.012,93.022 315.735,92.066 315.284 C 90.348 314.473,90.000 314.661,90.000 316.400 M308.400 315.380 C 308.400 315.699,308.092 316.133,307.716 316.343 C 307.188 316.639,306.966 317.548,306.744 320.329 C 306.586 322.310,306.174 324.478,305.828 325.146 C 305.462 325.854,305.200 327.362,305.200 328.766 C 305.200 330.089,304.908 332.032,304.551 333.082 C 304.195 334.133,303.766 336.524,303.599 338.396 C 303.431 340.268,303.003 342.469,302.647 343.287 C 302.291 344.105,302.000 345.821,302.000 347.101 C 302.000 348.402,301.647 350.431,301.200 351.704 C 300.760 352.956,300.392 355.020,300.382 356.290 C 300.373 357.561,300.112 359.309,299.803 360.177 C 299.494 361.044,299.122 363.204,298.975 364.977 C 298.828 366.749,298.469 368.740,298.177 369.400 C 297.884 370.060,297.491 372.175,297.303 374.100 L 296.962 377.600 312.381 377.588 C 322.823 377.580,327.579 377.447,327.116 377.177 C 326.740 376.958,326.317 376.166,326.177 375.417 C 326.036 374.668,325.679 373.962,325.383 373.849 C 325.087 373.735,324.727 373.015,324.583 372.249 C 324.439 371.482,324.086 370.765,323.798 370.655 C 323.511 370.544,323.157 369.914,323.012 369.255 C 322.867 368.595,322.502 367.850,322.200 367.600 C 321.898 367.350,321.538 366.630,321.400 366.000 C 321.262 365.370,320.902 364.650,320.600 364.400 C 320.298 364.150,319.936 363.417,319.794 362.772 C 319.652 362.128,319.385 361.600,319.199 361.600 C 319.014 361.600,318.643 360.925,318.374 360.100 C 318.106 359.275,317.642 358.456,317.343 358.280 C 317.045 358.104,316.800 357.547,316.800 357.041 C 316.800 356.536,316.440 355.707,316.000 355.200 C 315.560 354.693,315.200 353.956,315.200 353.562 C 315.200 353.169,315.029 352.741,314.819 352.612 C 314.610 352.483,313.869 351.219,313.172 349.803 C 310.589 344.557,311.856 337.193,315.628 335.523 C 316.273 335.238,316.800 334.773,316.800 334.490 C 316.800 334.207,317.070 333.871,317.400 333.745 C 318.392 333.364,318.215 330.400,317.200 330.400 C 316.548 330.400,316.400 330.133,316.400 328.963 C 316.400 327.862,316.213 327.476,315.600 327.316 C 314.999 327.159,314.800 326.770,314.800 325.753 C 314.800 324.667,314.642 324.400,314.000 324.400 C 313.333 324.400,313.200 324.133,313.200 322.800 C 313.200 321.467,313.067 321.200,312.400 321.200 C 311.733 321.200,311.600 320.933,311.600 319.600 C 311.600 318.267,311.467 318.000,310.800 318.000 C 310.133 318.000,310.000 317.733,310.000 316.400 C 310.000 315.067,309.867 314.800,309.200 314.800 C 308.760 314.800,308.400 315.061,308.400 315.380 " stroke="none" fill="#fbfbfb" fill-rule="evenodd"></path><path id="path3" d="M191.600 112.344 C 190.390 112.498,189.007 112.844,188.526 113.112 C 188.046 113.381,187.053 113.600,186.320 113.600 C 185.588 113.600,184.361 113.934,183.594 114.341 C 182.827 114.749,181.525 115.207,180.700 115.360 C 179.875 115.512,179.200 115.800,179.200 115.999 C 179.200 116.199,178.615 116.532,177.900 116.740 C 177.185 116.947,175.790 117.586,174.800 118.159 C 173.810 118.731,172.446 119.460,171.768 119.777 C 171.091 120.094,170.304 120.634,170.019 120.977 C 169.735 121.320,169.254 121.600,168.951 121.600 C 168.648 121.600,168.400 121.756,168.400 121.947 C 168.400 122.138,167.690 122.764,166.822 123.338 C 163.396 125.605,155.913 133.992,154.097 137.600 C 153.820 138.150,153.153 139.320,152.616 140.200 C 152.078 141.080,151.525 142.070,151.387 142.400 C 151.249 142.730,150.790 143.740,150.368 144.644 C 149.945 145.548,149.600 146.704,149.600 147.212 C 149.600 147.721,149.317 148.450,148.970 148.833 C 148.624 149.215,148.208 150.490,148.045 151.664 C 147.883 152.839,147.491 154.250,147.175 154.800 C 146.239 156.428,146.345 174.933,147.300 176.680 C 147.685 177.384,148.000 178.561,148.000 179.296 C 148.000 180.030,148.360 181.337,148.800 182.200 C 149.240 183.063,149.600 184.026,149.600 184.341 C 149.600 184.883,150.881 187.912,151.655 189.200 C 151.854 189.530,152.303 190.430,152.653 191.200 C 153.003 191.970,153.415 192.690,153.568 192.800 C 153.720 192.910,154.082 193.585,154.371 194.300 C 154.660 195.015,155.060 195.600,155.258 195.600 C 155.457 195.600,155.791 196.050,156.000 196.600 C 156.209 197.150,156.553 197.600,156.763 197.600 C 156.974 197.600,157.269 197.989,157.420 198.464 C 157.771 199.570,166.630 208.400,167.389 208.400 C 167.703 208.400,168.104 208.626,168.280 208.901 C 168.718 209.588,171.732 211.600,172.322 211.600 C 172.585 211.600,172.800 211.766,172.800 211.969 C 172.800 212.172,173.416 212.541,174.168 212.789 C 174.920 213.038,175.743 213.490,175.996 213.795 C 176.248 214.099,176.970 214.462,177.600 214.600 C 178.230 214.738,178.959 215.110,179.221 215.426 C 179.483 215.742,180.081 216.006,180.549 216.014 C 181.017 216.021,182.120 216.375,183.000 216.800 C 183.880 217.225,185.230 217.580,186.000 217.589 C 186.770 217.598,187.940 217.919,188.600 218.302 C 190.409 219.354,209.591 219.354,211.400 218.302 C 212.060 217.919,213.230 217.598,214.000 217.589 C 214.770 217.580,216.120 217.225,217.000 216.800 C 217.880 216.375,218.983 216.021,219.451 216.014 C 219.919 216.006,220.517 215.742,220.779 215.426 C 221.041 215.110,221.828 214.726,222.528 214.574 C 223.227 214.421,224.229 213.959,224.754 213.548 C 225.279 213.137,225.959 212.800,226.266 212.800 C 226.574 212.800,226.929 212.530,227.055 212.200 C 227.182 211.870,227.466 211.600,227.687 211.600 C 228.274 211.600,232.000 209.123,232.000 208.733 C 232.000 208.550,232.206 208.400,232.457 208.400 C 233.627 208.400,242.800 199.404,242.800 198.257 C 242.800 198.116,243.168 197.595,243.619 197.100 C 244.069 196.605,244.684 195.929,244.987 195.597 C 245.289 195.265,245.660 194.500,245.811 193.897 C 245.963 193.294,246.232 192.800,246.410 192.800 C 246.588 192.800,247.302 191.585,247.996 190.100 C 248.691 188.615,249.516 186.922,249.830 186.338 C 250.143 185.754,250.400 184.869,250.400 184.370 C 250.400 183.871,250.681 183.152,251.025 182.773 C 251.368 182.393,251.806 180.972,251.998 179.614 C 252.190 178.257,252.584 176.861,252.873 176.512 C 253.883 175.297,253.849 157.889,252.831 154.993 C 252.374 153.692,251.999 152.081,251.997 151.414 C 251.996 150.746,251.637 149.660,251.200 149.000 C 250.763 148.340,250.404 147.378,250.403 146.862 C 250.401 146.346,250.131 145.446,249.803 144.862 C 249.474 144.278,249.020 143.350,248.793 142.800 C 248.567 142.250,247.945 141.080,247.411 140.200 C 246.878 139.320,246.255 138.192,246.028 137.694 C 245.539 136.621,244.083 134.549,243.100 133.528 C 242.715 133.127,242.400 132.637,242.400 132.437 C 242.400 131.910,234.817 124.279,233.400 123.380 C 232.740 122.962,232.056 122.390,231.880 122.110 C 231.704 121.829,231.327 121.600,231.042 121.600 C 230.757 121.600,230.198 121.240,229.800 120.800 C 229.402 120.360,228.861 120.000,228.599 120.000 C 228.337 120.000,227.707 119.640,227.200 119.200 C 226.693 118.760,226.109 118.400,225.902 118.400 C 225.695 118.400,225.069 118.040,224.509 117.600 C 223.950 117.160,223.088 116.800,222.595 116.800 C 222.102 116.800,221.478 116.535,221.209 116.211 C 220.940 115.886,220.063 115.500,219.260 115.352 C 218.457 115.204,217.173 114.749,216.406 114.341 C 215.639 113.934,214.415 113.600,213.686 113.600 C 212.957 113.600,211.791 113.305,211.095 112.945 C 209.694 112.221,195.895 111.795,191.600 112.344 M210.200 113.291 C 211.520 113.641,213.320 114.104,214.200 114.320 C 216.175 114.804,218.096 115.483,220.244 116.456 C 221.148 116.865,222.172 117.200,222.520 117.200 C 222.868 117.200,223.266 117.383,223.404 117.606 C 223.542 117.829,224.227 118.281,224.927 118.610 C 226.914 119.542,231.017 122.107,232.279 123.205 C 232.908 123.752,234.452 125.068,235.710 126.130 C 236.968 127.191,239.116 129.441,240.484 131.130 C 241.852 132.818,243.068 134.290,243.187 134.400 C 243.876 135.040,247.569 141.170,248.247 142.800 C 248.384 143.130,248.804 144.120,249.179 145.000 C 253.750 155.710,254.592 170.996,251.141 180.600 C 250.904 181.260,250.476 182.631,250.191 183.647 C 249.906 184.663,249.476 185.833,249.236 186.247 C 248.997 186.661,248.619 187.450,248.396 188.000 C 244.582 197.440,233.643 208.697,223.800 213.312 C 222.480 213.931,221.109 214.596,220.753 214.789 C 206.726 222.411,180.165 218.809,167.195 207.526 C 166.863 207.237,165.715 206.285,164.645 205.410 C 163.002 204.069,161.586 202.526,157.106 197.198 C 155.063 194.767,150.657 186.531,149.979 183.875 C 149.800 183.174,149.378 181.790,149.040 180.800 C 147.142 175.236,146.134 163.544,147.126 158.600 C 148.204 153.230,148.881 150.489,149.415 149.340 C 149.737 148.646,150.000 147.774,150.000 147.401 C 150.000 147.028,150.257 146.246,150.570 145.662 C 150.884 145.078,151.705 143.430,152.394 142.000 C 155.460 135.642,160.689 128.976,165.800 124.911 C 166.680 124.211,167.943 123.199,168.606 122.663 C 172.959 119.141,180.801 115.533,187.600 113.921 C 189.470 113.478,191.630 112.967,192.400 112.785 C 194.812 112.216,207.507 112.577,210.200 113.291 M104.814 272.184 C 104.295 272.808,104.467 274.164,105.436 277.114 C 105.746 278.057,106.000 279.715,106.000 280.800 C 106.000 281.885,106.283 283.605,106.628 284.623 C 106.974 285.641,107.410 287.942,107.597 289.737 C 107.784 291.532,108.131 293.506,108.368 294.125 C 108.605 294.743,108.902 296.543,109.027 298.125 C 109.153 299.706,109.504 301.720,109.808 302.600 C 110.111 303.480,110.542 305.883,110.764 307.940 C 110.987 309.997,111.348 311.897,111.568 312.162 C 111.788 312.427,112.081 314.164,112.218 316.022 C 112.355 317.880,112.700 320.030,112.983 320.800 C 113.267 321.570,113.630 323.640,113.790 325.400 C 113.950 327.160,114.308 329.148,114.586 329.818 C 114.863 330.488,115.223 332.468,115.386 334.218 C 115.548 335.968,115.932 338.007,116.240 338.749 C 116.548 339.491,116.800 341.026,116.800 342.162 C 116.800 343.297,117.077 345.210,117.415 346.413 C 117.753 347.616,118.192 350.005,118.390 351.722 C 118.588 353.439,119.015 355.689,119.340 356.722 C 119.664 357.755,120.035 359.860,120.165 361.400 C 120.296 362.940,120.672 365.084,121.001 366.164 C 121.330 367.244,121.604 368.864,121.610 369.764 C 121.615 370.664,121.788 372.030,121.993 372.800 C 122.199 373.570,122.589 375.073,122.860 376.139 C 123.221 377.561,123.606 378.174,124.302 378.439 C 125.896 379.045,275.714 378.908,276.463 378.300 C 277.312 377.611,278.288 373.985,278.574 370.462 C 278.705 368.846,278.990 367.192,279.207 366.788 C 279.423 366.383,279.780 364.318,280.000 362.200 C 280.220 360.082,280.580 358.011,280.800 357.599 C 281.021 357.187,281.375 355.264,281.587 353.325 C 281.799 351.386,282.249 348.916,282.586 347.836 C 282.924 346.756,283.200 344.934,283.200 343.787 C 283.200 342.639,283.466 340.948,283.790 340.027 C 284.115 339.107,284.558 336.790,284.775 334.877 C 284.992 332.965,285.446 330.416,285.785 329.213 C 286.123 328.010,286.400 326.261,286.400 325.327 C 286.400 324.392,286.656 322.857,286.969 321.914 C 287.281 320.971,287.666 318.760,287.823 317.000 C 287.981 315.240,288.337 313.153,288.615 312.363 C 288.893 311.573,289.253 309.511,289.415 307.781 C 289.577 306.051,289.937 304.088,290.214 303.418 C 290.492 302.748,290.851 300.760,291.012 299.000 C 291.173 297.240,291.475 295.350,291.684 294.800 C 291.893 294.250,292.230 292.201,292.434 290.247 C 292.638 288.292,293.050 285.952,293.350 285.047 C 293.650 284.141,294.016 282.010,294.164 280.311 C 294.311 278.613,294.694 276.593,295.016 275.824 C 295.790 273.971,295.768 272.150,294.967 271.843 C 293.408 271.245,105.313 271.582,104.814 272.184 M294.318 272.341 C 294.835 272.669,294.620 274.459,293.185 281.800 C 292.970 282.900,292.520 285.600,292.185 287.800 C 291.850 290.000,291.417 292.430,291.224 293.200 C 291.030 293.970,290.753 295.680,290.607 297.000 C 290.462 298.320,290.103 300.390,289.809 301.600 C 289.515 302.810,289.155 304.880,289.009 306.200 C 288.863 307.520,288.486 309.488,288.172 310.573 C 287.857 311.658,287.597 313.278,287.594 314.173 C 287.590 315.068,287.322 316.880,286.997 318.200 C 286.672 319.520,286.224 321.950,286.003 323.600 C 285.781 325.250,285.341 327.770,285.026 329.200 C 284.711 330.630,284.277 332.970,284.062 334.400 C 283.059 341.064,282.701 343.184,282.173 345.600 C 281.860 347.030,281.502 349.100,281.378 350.200 C 281.254 351.300,280.817 353.820,280.407 355.800 C 279.996 357.780,279.469 360.660,279.235 362.200 C 277.906 370.932,277.541 373.118,277.194 374.391 C 276.983 375.166,276.763 376.250,276.705 376.800 L 276.600 377.800 200.288 377.901 C 139.426 377.982,123.948 377.901,123.837 377.501 C 123.760 377.225,123.324 375.110,122.868 372.800 C 122.055 368.688,121.635 366.242,120.770 360.600 C 120.534 359.060,120.087 356.630,119.776 355.200 C 119.465 353.770,119.025 351.250,118.798 349.600 C 118.571 347.950,118.214 346.060,118.006 345.400 C 117.797 344.740,117.441 342.670,117.214 340.800 C 116.987 338.930,116.637 336.825,116.435 336.122 C 116.233 335.419,115.939 333.619,115.781 332.122 C 115.623 330.625,115.328 328.958,115.126 328.418 C 114.923 327.878,114.500 325.603,114.186 323.362 C 113.871 321.121,113.449 318.854,113.247 318.324 C 113.046 317.794,112.756 316.110,112.604 314.580 C 112.451 313.051,112.088 310.810,111.797 309.600 C 111.505 308.390,111.139 306.230,110.984 304.800 C 110.828 303.370,110.540 301.774,110.342 301.253 C 110.017 300.394,109.675 298.412,108.365 289.800 C 108.131 288.260,107.603 285.380,107.192 283.400 C 106.781 281.420,106.336 278.810,106.203 277.600 C 106.070 276.390,105.751 274.805,105.493 274.078 C 105.105 272.987,105.126 272.691,105.612 272.384 C 106.349 271.918,293.584 271.875,294.318 272.341 M91.600 313.200 C 91.600 313.420,91.953 313.600,92.384 313.600 C 93.394 313.600,94.061 316.107,95.415 325.000 C 95.750 327.200,96.186 329.630,96.385 330.400 C 96.583 331.170,96.871 333.060,97.025 334.600 C 97.180 336.140,97.472 337.842,97.674 338.382 C 97.877 338.922,98.306 341.239,98.627 343.530 C 98.949 345.821,99.307 347.849,99.422 348.036 C 99.538 348.223,99.800 349.866,100.005 351.688 C 100.209 353.510,100.639 356.080,100.960 357.400 C 101.281 358.720,101.724 361.060,101.945 362.600 C 102.166 364.140,102.536 366.390,102.768 367.600 C 103.940 373.716,104.497 377.637,104.231 377.903 C 104.068 378.066,99.315 378.290,93.668 378.400 C 82.492 378.618,81.424 378.826,79.334 381.200 C 77.717 383.036,75.610 388.536,76.806 387.796 C 77.023 387.662,77.200 387.045,77.200 386.425 C 77.200 385.805,77.452 385.089,77.761 384.833 C 78.069 384.577,78.431 383.931,78.565 383.398 C 78.877 382.152,80.552 380.477,81.798 380.165 C 82.331 380.031,82.977 379.669,83.233 379.361 C 83.609 378.907,85.626 378.800,93.820 378.800 C 106.354 378.800,106.128 378.930,104.158 372.886 C 103.851 371.943,103.600 370.212,103.600 369.038 C 103.600 367.864,103.240 365.777,102.800 364.400 C 102.360 363.023,101.992 360.884,101.982 359.648 C 101.973 358.412,101.696 356.680,101.368 355.800 C 101.039 354.920,100.601 352.531,100.395 350.491 C 100.188 348.452,99.833 346.436,99.606 346.011 C 99.379 345.587,99.092 343.836,98.968 342.120 C 98.845 340.404,98.489 338.280,98.178 337.400 C 97.867 336.520,97.439 334.120,97.227 332.066 C 97.015 330.012,96.676 328.122,96.473 327.866 C 96.270 327.610,95.980 325.780,95.827 323.800 C 95.674 321.820,95.291 319.677,94.975 319.039 C 94.659 318.400,94.400 317.359,94.400 316.726 C 94.400 314.863,93.360 312.800,92.420 312.800 C 91.969 312.800,91.600 312.980,91.600 313.200 M306.464 313.900 C 306.264 314.285,305.973 315.648,305.818 316.929 C 305.662 318.209,305.303 319.829,305.020 320.529 C 304.736 321.228,304.384 323.320,304.236 325.178 C 304.089 327.036,303.793 328.767,303.579 329.026 C 303.365 329.284,303.018 331.183,302.809 333.247 C 302.601 335.311,302.161 337.720,301.832 338.600 C 301.504 339.480,301.227 341.241,301.218 342.513 C 301.208 343.785,300.921 345.493,300.580 346.310 C 300.239 347.126,299.855 349.235,299.727 350.997 C 299.599 352.758,299.233 354.830,298.913 355.600 C 298.594 356.370,298.233 358.440,298.112 360.200 C 297.991 361.960,297.640 363.897,297.333 364.505 C 297.026 365.113,296.666 367.093,296.534 368.905 C 296.402 370.717,296.048 372.807,295.747 373.549 C 293.645 378.732,293.856 378.800,312.000 378.800 C 329.554 378.800,330.449 378.619,328.055 375.554 C 327.645 375.029,327.174 374.150,327.008 373.600 C 326.841 373.050,326.471 372.330,326.184 372.000 C 325.897 371.670,325.541 370.912,325.392 370.316 C 325.243 369.720,324.869 369.023,324.561 368.767 C 324.252 368.511,324.000 367.988,324.000 367.605 C 324.000 367.222,323.651 366.464,323.225 365.922 C 322.798 365.380,322.325 364.442,322.173 363.836 C 322.021 363.231,321.650 362.641,321.349 362.525 C 321.047 362.409,320.800 361.897,320.800 361.386 C 320.800 360.875,320.570 360.219,320.289 359.929 C 320.009 359.638,318.910 357.600,317.847 355.400 C 316.785 353.200,315.758 351.130,315.565 350.800 C 311.964 344.636,312.223 340.305,316.402 336.798 C 317.400 335.961,317.980 335.147,317.946 334.629 C 317.895 333.867,317.877 333.872,317.718 334.700 C 317.622 335.195,317.417 335.600,317.261 335.600 C 316.815 335.600,314.697 337.700,313.623 339.206 C 312.813 340.341,312.641 341.067,312.623 343.426 L 312.600 346.275 320.000 360.945 C 324.070 369.013,327.616 376.009,327.879 376.492 C 328.901 378.363,328.593 378.400,312.227 378.400 C 294.177 378.400,295.344 378.691,296.171 374.400 C 296.703 371.638,296.944 370.247,298.073 363.400 C 298.291 362.080,298.813 359.437,299.234 357.526 C 299.655 355.616,300.000 353.354,300.000 352.499 C 300.000 351.644,300.261 350.058,300.581 348.973 C 300.900 347.888,301.340 345.650,301.558 344.000 C 301.775 342.350,302.214 339.650,302.532 338.000 C 303.601 332.463,304.406 327.821,304.796 324.948 C 305.009 323.379,305.367 321.612,305.592 321.022 C 305.816 320.431,306.000 319.518,306.000 318.994 C 306.000 316.623,306.858 314.000,307.633 314.000 C 308.055 314.000,308.400 313.820,308.400 313.600 C 308.400 312.919,306.849 313.160,306.464 313.900 M81.200 334.522 C 81.200 335.029,81.785 336.094,82.500 336.889 C 85.628 340.368,86.622 344.775,84.800 347.091 C 84.360 347.650,84.000 348.422,84.000 348.805 C 84.000 349.188,83.748 349.711,83.439 349.967 C 83.131 350.223,82.760 350.906,82.614 351.485 C 82.469 352.063,82.002 352.980,81.575 353.522 C 81.149 354.064,80.800 354.770,80.800 355.091 C 80.800 355.411,80.440 356.131,80.000 356.691 C 79.560 357.250,79.200 357.943,79.200 358.231 C 79.200 358.953,77.621 361.629,76.623 362.600 C 74.050 365.102,74.525 364.985,66.060 365.200 C 59.432 365.369,58.045 365.510,57.211 366.100 C 56.667 366.485,55.836 366.800,55.365 366.800 C 54.894 366.800,54.050 367.160,53.491 367.600 C 52.931 368.040,52.322 368.401,52.137 368.402 C 50.530 368.410,43.792 376.470,43.327 378.938 C 43.197 379.632,42.854 380.474,42.566 380.809 C 41.914 381.565,41.375 386.470,41.850 387.315 C 42.085 387.732,42.217 387.191,42.251 385.668 C 42.386 379.677,48.076 370.632,53.004 368.572 C 53.742 368.264,54.446 367.850,54.568 367.651 C 54.691 367.453,55.468 367.164,56.296 367.010 C 57.123 366.855,58.053 366.520,58.362 366.264 C 58.738 365.953,61.338 365.786,66.245 365.757 C 74.190 365.709,74.247 365.696,76.786 363.214 C 77.452 362.563,78.373 361.258,78.831 360.315 C 79.289 359.372,79.860 358.240,80.099 357.800 C 80.338 357.360,81.774 354.570,83.290 351.600 L 86.046 346.200 85.923 343.182 C 85.802 340.206,85.771 340.128,83.660 337.475 C 82.383 335.870,81.612 334.547,81.747 334.193 C 81.873 333.867,81.801 333.600,81.587 333.600 C 81.374 333.600,81.200 334.015,81.200 334.522 " stroke="none" fill="#848c94" fill-rule="evenodd"></path><path id="path4" d="M192.200 112.807 C 191.320 113.006,190.060 113.341,189.400 113.550 C 187.345 114.203,189.645 114.082,192.265 113.400 C 195.310 112.607,204.528 112.602,207.800 113.392 C 210.948 114.152,212.284 114.113,210.000 113.328 C 207.887 112.601,194.803 112.218,192.200 112.807 M184.600 114.640 C 183.720 114.973,182.463 115.414,181.806 115.622 C 178.390 116.699,171.310 120.476,168.606 122.663 C 167.943 123.199,166.680 124.211,165.800 124.911 C 160.689 128.976,155.460 135.642,152.394 142.000 C 151.705 143.430,150.884 145.078,150.570 145.662 C 150.257 146.246,150.018 147.056,150.040 147.462 C 150.076 148.132,150.106 148.126,150.362 147.400 C 150.840 146.042,151.999 143.431,152.404 142.800 C 152.615 142.470,153.055 141.606,153.382 140.880 C 158.483 129.542,174.094 117.334,187.400 114.277 C 188.041 114.129,188.001 114.087,187.200 114.064 C 186.650 114.048,185.480 114.307,184.600 114.640 M212.600 114.266 C 224.720 116.897,237.696 126.295,244.815 137.600 C 246.092 139.628,246.858 141.115,249.146 146.000 C 249.610 146.990,249.991 147.500,249.994 147.132 C 249.998 146.765,249.726 145.955,249.392 145.332 C 249.058 144.710,248.606 143.750,248.389 143.200 C 247.652 141.334,243.998 135.153,243.187 134.400 C 243.068 134.290,241.852 132.818,240.484 131.130 C 239.116 129.441,236.968 127.191,235.710 126.130 C 234.452 125.068,232.908 123.752,232.279 123.205 C 231.017 122.107,226.914 119.542,224.927 118.610 C 224.227 118.281,223.542 117.829,223.404 117.606 C 223.266 117.383,222.846 117.200,222.470 117.200 C 222.095 117.200,221.116 116.840,220.296 116.400 C 219.475 115.960,218.552 115.600,218.245 115.600 C 217.938 115.600,216.903 115.244,215.944 114.809 C 214.985 114.374,213.660 114.034,213.000 114.055 C 212.220 114.080,212.080 114.154,212.600 114.266 M250.022 148.526 C 250.010 148.926,250.211 149.646,250.469 150.126 C 250.728 150.607,251.069 151.540,251.229 152.200 C 251.489 153.279,251.520 153.299,251.537 152.400 C 251.547 151.850,251.215 150.590,250.800 149.600 C 250.385 148.610,250.035 148.127,250.022 148.526 M149.319 149.483 C 148.893 150.473,148.578 151.756,147.182 158.200 C 146.732 160.273,146.732 170.926,147.181 173.000 C 147.372 173.880,147.813 176.003,148.161 177.718 C 148.741 180.577,149.946 183.720,149.984 182.474 C 149.993 182.184,149.821 181.613,149.602 181.204 C 147.832 177.896,146.476 162.708,147.602 158.797 C 147.824 158.029,148.268 155.895,148.590 154.056 C 148.912 152.217,149.376 150.470,149.621 150.175 C 149.866 149.880,150.006 149.352,149.933 149.002 C 149.841 148.562,149.652 148.710,149.319 149.483 M251.636 154.121 C 251.616 154.518,251.883 156.084,252.228 157.602 C 253.446 162.960,252.351 177.620,250.475 181.074 C 250.214 181.554,250.004 182.274,250.009 182.674 C 250.020 183.560,251.598 180.180,251.605 179.256 C 251.607 178.895,251.965 177.160,252.400 175.400 C 253.510 170.906,253.525 160.274,252.427 156.200 C 252.012 154.660,251.656 153.724,251.636 154.121 M150.006 183.942 C 149.992 185.256,155.130 194.847,157.106 197.198 C 161.586 202.526,163.002 204.069,164.645 205.410 C 165.715 206.285,166.863 207.237,167.195 207.526 C 170.190 210.131,178.739 214.883,182.342 215.944 C 183.300 216.226,184.364 216.565,184.707 216.697 C 185.085 216.841,185.229 216.771,185.072 216.517 C 184.930 216.287,184.011 215.896,183.030 215.649 C 171.879 212.841,158.668 201.274,152.822 189.200 C 152.130 187.770,151.214 185.880,150.787 185.000 C 150.360 184.120,150.009 183.644,150.006 183.942 M247.480 188.773 C 242.158 199.642,232.067 209.632,222.400 213.603 C 219.497 214.795,218.412 215.346,218.599 215.532 C 218.713 215.646,219.569 215.372,220.503 214.923 C 221.436 214.475,223.108 213.669,224.218 213.134 C 233.856 208.483,244.501 197.422,248.407 188.000 C 248.635 187.450,249.124 186.422,249.493 185.716 C 249.863 185.009,250.080 184.347,249.977 184.244 C 249.874 184.140,248.750 186.178,247.480 188.773 M215.820 216.077 C 212.351 218.089,197.660 218.998,190.893 217.619 C 185.447 216.509,184.451 216.633,189.400 217.805 C 194.968 219.123,204.346 219.190,210.196 217.954 C 214.399 217.065,218.766 215.662,217.400 215.638 C 216.960 215.631,216.249 215.828,215.820 216.077 M105.612 272.384 C 105.126 272.691,105.105 272.987,105.493 274.078 C 105.751 274.805,106.070 276.390,106.203 277.600 C 106.336 278.810,106.781 281.420,107.192 283.400 C 107.603 285.380,108.131 288.260,108.365 289.800 C 109.675 298.412,110.017 300.394,110.342 301.253 C 110.540 301.774,110.828 303.370,110.984 304.800 C 111.139 306.230,111.505 308.390,111.797 309.600 C 112.088 310.810,112.451 313.051,112.604 314.580 C 112.756 316.110,113.046 317.794,113.247 318.324 C 113.449 318.854,113.871 321.121,114.186 323.362 C 114.500 325.603,114.923 327.878,115.126 328.418 C 115.328 328.958,115.623 330.625,115.781 332.122 C 115.939 333.619,116.233 335.419,116.435 336.122 C 116.637 336.825,116.987 338.930,117.214 340.800 C 117.441 342.670,117.797 344.740,118.006 345.400 C 118.214 346.060,118.571 347.950,118.798 349.600 C 119.025 351.250,119.465 353.770,119.776 355.200 C 120.087 356.630,120.534 359.060,120.770 360.600 C 121.635 366.242,122.055 368.688,122.868 372.800 C 123.324 375.110,123.760 377.225,123.837 377.501 C 123.948 377.901,139.426 377.982,200.288 377.901 L 276.600 377.800 276.705 376.800 C 276.763 376.250,276.983 375.166,277.194 374.391 C 277.541 373.118,277.906 370.932,279.235 362.200 C 279.469 360.660,279.996 357.780,280.407 355.800 C 280.817 353.820,281.254 351.300,281.378 350.200 C 281.502 349.100,281.860 347.030,282.173 345.600 C 282.701 343.184,283.059 341.064,284.062 334.400 C 284.277 332.970,284.711 330.630,285.026 329.200 C 285.341 327.770,285.781 325.250,286.003 323.600 C 286.224 321.950,286.672 319.520,286.997 318.200 C 287.322 316.880,287.590 315.068,287.594 314.173 C 287.597 313.278,287.857 311.658,288.172 310.573 C 288.486 309.488,288.863 307.520,289.009 306.200 C 289.155 304.880,289.515 302.810,289.809 301.600 C 290.103 300.390,290.462 298.320,290.607 297.000 C 290.753 295.680,291.030 293.970,291.224 293.200 C 291.417 292.430,291.850 290.000,292.185 287.800 C 292.520 285.600,292.970 282.900,293.185 281.800 C 294.620 274.459,294.835 272.669,294.318 272.341 C 293.584 271.875,106.349 271.918,105.612 272.384 M293.711 272.700 C 293.965 273.185,292.989 280.508,292.524 281.600 C 292.290 282.150,291.973 284.130,291.820 286.000 C 291.667 287.870,291.297 290.120,290.999 291.000 C 290.700 291.880,290.354 293.881,290.230 295.446 C 290.106 297.011,289.757 298.901,289.455 299.646 C 289.153 300.391,288.796 302.507,288.662 304.348 C 288.527 306.190,288.240 307.911,288.023 308.172 C 287.806 308.433,287.449 310.437,287.230 312.624 C 287.010 314.811,286.561 317.320,286.233 318.200 C 285.904 319.080,285.627 320.841,285.618 322.113 C 285.608 323.385,285.319 325.095,284.975 325.913 C 284.631 326.731,284.203 329.020,284.024 331.000 C 283.845 332.980,283.488 335.128,283.231 335.774 C 282.974 336.420,282.657 338.400,282.526 340.174 C 282.395 341.948,282.038 343.897,281.731 344.505 C 281.425 345.113,281.066 347.093,280.934 348.905 C 280.802 350.717,280.439 352.828,280.127 353.597 C 279.815 354.365,279.462 356.435,279.342 358.197 C 279.223 359.958,278.888 361.940,278.600 362.600 C 278.311 363.260,277.944 365.399,277.785 367.354 C 277.626 369.309,277.251 371.379,276.951 371.954 C 276.650 372.529,276.404 373.473,276.402 374.050 C 276.401 374.628,276.288 375.663,276.150 376.350 L 275.900 377.600 200.009 377.600 L 124.117 377.600 123.862 374.580 C 123.722 372.919,123.397 371.168,123.140 370.688 C 122.884 370.209,122.529 368.248,122.352 366.332 C 122.175 364.416,121.754 362.185,121.415 361.375 C 121.077 360.565,120.792 358.799,120.782 357.451 C 120.773 356.103,120.496 354.280,120.168 353.400 C 119.839 352.520,119.406 350.178,119.204 348.195 C 119.003 346.212,118.560 343.923,118.219 343.108 C 117.879 342.293,117.600 340.636,117.600 339.427 C 117.600 338.217,117.331 336.436,117.002 335.467 C 116.673 334.499,116.236 332.073,116.029 330.077 C 115.822 328.081,115.456 326.078,115.214 325.626 C 114.972 325.174,114.628 323.225,114.450 321.294 C 114.272 319.363,113.927 317.412,113.684 316.958 C 113.441 316.503,113.063 314.378,112.844 312.234 C 112.624 310.090,112.276 308.125,112.070 307.868 C 111.864 307.611,111.564 305.780,111.405 303.800 C 111.245 301.820,110.884 299.750,110.603 299.200 C 110.323 298.650,109.961 296.670,109.800 294.800 C 109.639 292.930,109.283 290.950,109.009 290.400 C 108.735 289.850,108.407 287.870,108.280 286.000 C 108.152 284.130,107.767 281.931,107.424 281.113 C 107.081 280.295,106.792 278.855,106.783 277.913 C 106.773 276.971,106.618 275.440,106.438 274.511 C 106.259 273.582,106.206 272.727,106.322 272.611 C 106.656 272.277,293.535 272.366,293.711 272.700 M91.600 314.000 C 91.600 314.220,91.946 314.400,92.368 314.400 C 93.183 314.400,93.346 314.882,93.812 318.670 C 93.952 319.809,94.323 321.519,94.635 322.470 C 95.564 325.298,94.776 319.956,93.547 315.100 C 93.195 313.708,91.600 312.807,91.600 314.000 M306.594 315.229 C 306.445 315.904,306.431 316.564,306.562 316.695 C 306.693 316.826,306.800 316.526,306.800 316.029 C 306.800 315.462,307.098 315.047,307.600 314.916 C 308.620 314.649,308.643 314.000,307.632 314.000 C 307.099 314.000,306.781 314.377,306.594 315.229 M306.063 318.400 C 306.024 319.170,305.723 320.684,305.396 321.764 C 305.068 322.844,304.811 324.194,304.824 324.764 C 304.838 325.334,305.207 324.466,305.645 322.835 C 306.082 321.204,306.372 319.224,306.288 318.435 L 306.134 317.000 306.063 318.400 M95.268 325.800 C 95.252 326.680,95.576 328.930,95.989 330.800 C 96.401 332.670,96.752 333.660,96.767 333.000 C 96.783 332.340,96.612 331.138,96.387 330.329 C 96.162 329.520,95.825 327.810,95.638 326.529 C 95.347 324.537,95.293 324.431,95.268 325.800 M304.450 327.400 C 304.407 328.060,304.111 329.680,303.792 331.000 C 303.473 332.320,303.223 333.940,303.236 334.600 C 303.249 335.260,303.611 334.180,304.041 332.200 C 304.471 330.220,304.757 328.060,304.676 327.400 L 304.528 326.200 304.450 327.400 M81.632 334.343 C 81.614 334.642,82.545 336.074,83.700 337.526 C 85.766 340.122,85.802 340.213,85.923 343.182 L 86.046 346.200 83.290 351.600 C 81.774 354.570,80.338 357.360,80.099 357.800 C 79.860 358.240,79.289 359.372,78.831 360.315 C 78.373 361.258,77.452 362.563,76.786 363.214 C 74.245 365.697,74.195 365.709,66.204 365.757 C 60.896 365.788,58.701 365.940,58.340 366.300 C 58.065 366.575,57.471 366.814,57.020 366.832 C 56.569 366.849,56.424 366.954,56.698 367.064 C 56.972 367.175,58.079 366.972,59.158 366.614 C 60.708 366.099,62.415 365.987,67.293 366.081 L 73.466 366.200 75.080 365.083 C 77.711 363.261,78.212 362.517,82.430 354.176 L 86.463 346.200 86.332 343.182 C 86.203 340.233,86.154 340.106,84.158 337.582 C 83.035 336.162,82.014 334.730,81.890 334.400 C 81.722 333.955,81.655 333.940,81.632 334.343 M96.856 335.600 C 96.833 336.370,97.156 338.350,97.575 340.000 C 97.993 341.650,98.350 342.549,98.368 341.997 C 98.386 341.446,98.207 340.366,97.971 339.597 C 97.735 338.829,97.397 337.300,97.221 336.200 C 96.947 334.493,96.893 334.405,96.856 335.600 M315.692 336.200 C 313.485 338.269,312.394 339.950,312.450 341.200 L 312.495 342.200 312.747 341.200 C 313.191 339.444,315.461 336.566,317.145 335.623 C 317.452 335.451,317.635 335.150,317.552 334.955 C 317.468 334.760,316.632 335.320,315.692 336.200 M302.440 338.600 C 301.912 341.238,301.414 345.527,301.837 343.800 C 301.944 343.360,302.311 341.915,302.651 340.589 C 302.992 339.263,303.210 337.643,303.135 336.989 C 303.034 336.103,302.857 336.514,302.440 338.600 M98.456 344.600 C 98.433 345.480,98.756 347.550,99.175 349.200 C 99.593 350.850,99.949 351.750,99.966 351.200 C 99.982 350.650,99.793 349.480,99.546 348.600 C 99.300 347.720,98.963 346.100,98.799 345.000 C 98.505 343.034,98.499 343.027,98.456 344.600 M301.250 346.000 C 301.218 346.550,300.923 347.884,300.596 348.964 C 300.268 350.044,300.025 351.574,300.054 352.364 C 300.094 353.396,300.153 353.519,300.267 352.800 C 300.354 352.250,300.707 350.710,301.051 349.379 C 301.395 348.047,301.594 346.517,301.493 345.979 L 301.309 345.000 301.250 346.000 M312.458 346.400 C 312.455 346.950,312.980 348.300,313.623 349.400 C 314.267 350.500,314.975 351.850,315.197 352.400 C 315.418 352.950,315.780 353.670,316.001 354.000 C 316.221 354.330,316.581 355.050,316.801 355.600 C 317.020 356.150,317.366 356.870,317.570 357.200 C 317.774 357.530,318.863 359.690,319.989 362.000 C 321.116 364.310,322.196 366.470,322.390 366.800 C 323.849 369.283,327.863 377.603,327.687 377.780 C 327.316 378.150,297.038 378.012,296.446 377.637 C 296.001 377.355,295.981 377.029,296.346 375.983 C 296.596 375.267,296.785 374.212,296.767 373.640 C 296.748 373.053,296.481 373.644,296.154 374.996 C 295.286 378.586,294.410 378.400,312.227 378.400 C 328.593 378.400,328.901 378.363,327.879 376.492 C 326.758 374.439,312.833 346.546,312.657 346.000 C 312.550 345.670,312.461 345.850,312.458 346.400 M100.054 354.627 C 100.025 355.302,100.258 356.742,100.574 357.827 C 100.890 358.912,101.223 360.340,101.314 361.000 C 101.470 362.130,101.484 362.117,101.540 360.773 C 101.573 359.988,101.343 358.458,101.028 357.373 C 100.713 356.288,100.378 354.950,100.282 354.400 C 100.130 353.521,100.102 353.548,100.054 354.627 M299.093 357.808 C 298.704 359.564,298.387 361.450,298.388 362.000 C 298.390 362.550,298.035 364.440,297.600 366.200 C 297.165 367.960,296.830 370.120,296.855 371.000 C 296.898 372.548,296.910 372.533,297.199 370.561 C 297.363 369.439,297.691 367.909,297.926 367.161 C 298.162 366.412,298.470 364.720,298.611 363.400 C 298.752 362.080,299.138 359.992,299.469 358.760 C 299.801 357.529,300.010 356.092,299.936 355.568 C 299.856 355.006,299.511 355.922,299.093 357.808 M101.794 364.200 C 101.898 365.300,102.256 367.280,102.592 368.600 L 103.201 371.000 102.990 369.000 C 102.874 367.900,102.515 365.920,102.193 364.600 L 101.606 362.200 101.794 364.200 M54.400 367.800 C 54.126 368.130,53.663 368.400,53.372 368.400 C 52.590 368.400,48.337 372.053,46.781 374.061 C 45.911 375.184,46.529 374.703,48.529 372.700 C 50.232 370.995,52.205 369.325,52.913 368.989 C 55.280 367.866,56.247 367.212,55.549 367.206 C 55.191 367.203,54.674 367.470,54.400 367.800 M103.239 372.523 C 103.218 373.140,103.406 374.464,103.658 375.464 C 104.298 378.005,104.374 377.986,93.400 377.998 C 84.137 378.007,83.730 378.041,81.800 378.957 C 79.009 380.281,76.347 383.957,76.440 386.360 C 76.472 387.195,76.550 387.105,76.833 385.903 C 77.027 385.080,77.633 383.730,78.178 382.903 C 80.931 378.732,81.240 378.642,93.668 378.400 C 105.527 378.169,104.706 378.482,103.904 374.502 C 103.560 372.796,103.261 371.905,103.239 372.523 M44.676 377.286 C 43.585 379.188,42.474 382.790,42.232 385.212 L 42.014 387.400 42.568 385.000 C 43.512 380.910,44.263 378.582,45.000 377.456 C 45.390 376.862,45.636 376.302,45.547 376.213 C 45.458 376.124,45.066 376.607,44.676 377.286 " stroke="none" fill="#989fa8" fill-rule="evenodd"></path></g></svg>