<svg id="svg" version="1.1" xmlns="http://www.w3.org/2000/svg" xmlns:xlink="http://www.w3.org/1999/xlink" width="400" height="400" viewBox="0, 0, 400,400"><g id="svgg"><path id="path0" d="M238.195 142.785 C 225.588 143.134,224.188 143.273,217.800 144.813 C 209.588 146.792,206.392 146.907,155.000 147.058 C 100.803 147.218,103.832 147.095,101.365 149.230 C 100.368 150.094,99.379 150.800,99.168 150.800 C 98.662 150.800,92.800 156.727,92.800 157.238 C 92.800 157.456,92.022 158.482,91.072 159.517 C 90.122 160.553,89.026 162.256,88.638 163.303 C 88.249 164.350,87.328 165.929,86.590 166.812 C 85.053 168.652,85.053 168.652,84.210 173.200 C 83.864 175.070,83.044 177.746,82.389 179.147 C 79.855 184.567,79.649 206.371,81.980 222.576 C 82.393 225.449,82.847 229.690,82.989 232.000 C 83.131 234.310,83.321 236.830,83.413 237.600 C 83.505 238.370,83.854 243.500,84.190 249.000 C 84.928 261.104,84.866 260.730,86.568 263.535 C 87.509 265.085,88.152 266.873,88.607 269.200 C 89.156 272.004,89.504 272.845,90.593 274.000 C 91.319 274.770,92.248 276.033,92.657 276.807 C 93.414 278.240,97.969 282.800,98.643 282.800 C 98.848 282.800,99.866 283.504,100.908 284.364 C 102.462 285.649,103.460 286.080,106.494 286.779 C 108.525 287.246,111.166 288.182,112.363 288.857 C 115.513 290.635,119.336 290.780,162.283 290.751 C 182.477 290.737,205.120 290.916,212.600 291.150 C 226.041 291.570,233.258 291.503,251.606 290.790 C 261.258 290.415,262.724 290.170,265.245 288.515 C 266.106 287.950,268.255 287.252,270.564 286.787 C 274.622 285.971,275.677 285.575,277.005 284.370 C 277.448 283.968,278.708 283.247,279.805 282.768 C 283.534 281.139,290.102 274.165,290.795 271.100 C 291.056 269.945,292.019 267.471,292.935 265.601 L 294.600 262.202 294.737 252.462 C 294.812 247.105,294.681 240.445,294.445 237.661 C 294.032 232.796,293.004 221.345,292.644 217.600 C 292.548 216.610,292.617 212.290,292.796 208.000 C 293.530 190.373,291.107 163.502,288.475 160.095 C 287.840 159.273,287.001 157.700,286.611 156.600 C 285.611 153.778,279.400 147.595,276.804 146.835 C 275.816 146.546,273.882 145.632,272.507 144.802 C 270.433 143.552,269.513 143.254,267.104 143.057 C 261.582 142.606,248.958 142.487,238.195 142.785 M168.137 181.996 C 170.185 182.683,172.234 183.674,173.004 184.350 C 173.736 184.992,175.374 185.907,176.645 186.382 C 177.915 186.858,179.627 187.854,180.448 188.596 C 181.397 189.453,182.920 190.238,184.630 190.751 C 186.246 191.236,187.813 192.026,188.559 192.730 C 189.264 193.396,190.990 194.291,192.555 194.802 C 194.227 195.348,195.903 196.237,196.816 197.062 C 197.644 197.810,199.104 198.691,200.060 199.021 C 201.017 199.351,202.520 200.264,203.400 201.051 C 204.280 201.838,205.914 202.897,207.031 203.405 C 208.147 203.913,209.356 204.779,209.716 205.329 C 210.077 205.879,211.053 206.545,211.886 206.809 C 216.344 208.222,217.593 209.825,217.598 214.140 C 217.602 217.709,212.367 224.161,207.751 226.274 C 206.610 226.796,205.374 227.685,205.005 228.249 C 204.635 228.813,203.493 229.644,202.466 230.096 C 201.440 230.547,199.610 231.680,198.400 232.612 C 197.190 233.545,195.528 234.522,194.707 234.783 C 193.885 235.044,192.846 235.773,192.397 236.404 C 191.948 237.034,190.640 237.993,189.491 238.535 C 188.341 239.078,186.860 240.013,186.200 240.614 C 185.540 241.215,184.059 242.144,182.909 242.678 C 181.760 243.213,180.440 244.181,179.978 244.831 C 179.515 245.481,178.566 246.303,177.868 246.660 C 177.171 247.016,175.838 248.004,174.907 248.856 C 173.189 250.426,166.230 254.000,164.889 254.000 C 163.787 254.000,160.087 249.733,159.227 247.470 C 158.234 244.858,156.723 194.075,157.436 187.264 C 157.788 183.895,160.627 181.274,164.400 180.833 C 164.510 180.820,166.192 181.343,168.137 181.996 " stroke="none" fill="#d2e2e2" fill-rule="evenodd"></path><path id="path1" d="M164.600 34.401 C 159.034 34.774,156.942 35.474,156.354 37.159 L 155.962 38.285 150.081 38.513 C 142.961 38.789,140.264 39.467,139.686 41.126 C 139.304 42.220,139.203 42.252,134.609 42.731 C 129.546 43.259,127.771 43.898,127.201 45.398 C 126.826 46.384,126.552 46.472,122.200 47.014 C 119.681 47.327,118.540 48.052,118.211 49.548 C 117.963 50.681,117.849 50.733,115.077 51.000 C 111.997 51.295,111.318 51.600,108.991 53.732 C 107.871 54.757,107.015 55.158,105.579 55.328 C 103.150 55.616,102.101 56.271,101.524 57.862 C 101.106 59.016,100.875 59.148,98.833 59.401 C 95.599 59.802,94.240 60.486,93.475 62.099 C 92.931 63.244,92.532 63.541,91.258 63.744 C 90.403 63.881,89.496 64.243,89.243 64.548 C 88.989 64.854,88.267 65.207,87.637 65.333 C 86.820 65.496,86.370 65.911,86.067 66.781 C 85.794 67.564,85.369 68.000,84.880 68.000 C 83.031 68.000,81.555 68.897,80.961 70.380 C 80.482 71.578,80.078 71.938,78.883 72.234 C 77.675 72.532,77.254 72.915,76.610 74.300 C 76.176 75.235,75.546 76.003,75.210 76.006 C 74.875 76.009,74.150 76.274,73.600 76.593 C 73.050 76.913,72.094 77.382,71.475 77.636 C 70.856 77.889,69.921 78.774,69.398 79.603 C 68.692 80.722,68.055 81.201,66.924 81.464 C 65.656 81.760,65.333 82.048,65.000 83.185 C 64.678 84.283,64.236 84.705,62.745 85.336 C 61.197 85.991,60.815 86.373,60.433 87.648 C 60.046 88.938,59.728 89.249,58.384 89.652 C 57.028 90.058,56.724 90.361,56.320 91.708 C 55.997 92.788,55.524 93.413,54.824 93.686 C 52.872 94.447,52.656 94.658,52.217 96.225 C 51.873 97.454,51.451 97.954,50.296 98.500 C 49.294 98.973,48.729 99.555,48.547 100.300 C 48.399 100.905,47.945 101.829,47.539 102.354 C 47.133 102.879,46.800 103.738,46.800 104.264 C 46.800 105.013,46.532 105.274,45.559 105.468 C 44.281 105.724,42.804 107.548,42.801 108.874 C 42.801 109.280,42.245 109.749,41.403 110.053 C 40.064 110.538,39.494 111.472,38.568 114.700 C 38.490 114.975,38.095 115.200,37.693 115.200 C 36.795 115.200,36.000 115.945,36.000 116.786 C 36.000 117.130,35.640 118.084,35.200 118.904 C 34.760 119.725,34.400 120.761,34.400 121.205 C 34.400 121.731,33.923 122.240,33.035 122.664 C 31.456 123.417,30.568 125.164,30.188 128.265 C 29.966 130.072,29.786 130.391,28.748 130.821 C 27.219 131.455,26.453 132.980,26.135 136.022 C 25.881 138.450,25.253 139.600,24.182 139.600 C 23.292 139.600,22.502 141.576,22.027 144.989 C 21.785 146.725,21.546 148.158,21.494 148.173 C 20.610 148.429,19.728 149.323,19.451 150.241 C 19.259 150.879,18.857 151.873,18.557 152.451 C 18.257 153.030,17.895 155.033,17.751 156.903 C 17.497 160.206,17.454 160.319,16.271 160.852 C 14.378 161.704,13.653 164.919,13.334 173.883 L 13.075 181.165 12.016 181.534 C 9.990 182.241,9.514 185.281,9.293 198.929 L 9.100 210.858 8.161 211.215 C 7.607 211.425,7.119 212.028,6.969 212.686 C 6.830 213.299,6.430 214.880,6.079 216.200 C 5.069 220.007,5.100 251.195,6.117 254.600 C 7.236 258.342,7.629 259.155,8.443 259.414 C 9.148 259.637,9.201 260.151,9.218 266.927 C 9.245 278.225,10.151 282.312,12.900 283.533 C 13.065 283.607,13.200 284.601,13.200 285.744 C 13.200 292.091,14.520 297.168,16.349 297.858 C 17.430 298.266,17.487 298.421,17.700 301.522 C 17.943 305.070,19.552 309.158,20.838 309.494 C 21.602 309.694,21.986 310.751,21.995 312.676 C 21.998 313.378,22.158 314.050,22.351 314.170 C 22.544 314.289,22.905 315.196,23.154 316.185 C 23.496 317.541,23.902 318.135,24.804 318.602 C 25.572 318.999,26.000 319.530,26.000 320.084 C 26.000 320.822,26.845 323.021,27.965 325.200 C 28.135 325.530,28.752 326.035,29.337 326.322 C 30.028 326.661,30.400 327.165,30.400 327.762 C 30.400 330.111,31.375 331.408,33.700 332.151 C 34.085 332.274,34.400 332.732,34.400 333.169 C 34.400 334.115,35.209 336.000,35.616 336.000 C 35.774 336.000,36.128 336.542,36.402 337.205 C 36.690 337.901,37.299 338.510,37.843 338.647 C 38.557 338.826,38.947 339.395,39.451 340.995 C 39.990 342.704,40.376 343.231,41.471 343.753 C 42.215 344.108,42.925 344.714,43.049 345.099 C 43.640 346.948,44.322 347.791,45.696 348.370 C 46.519 348.716,47.194 349.217,47.196 349.481 C 47.207 350.749,48.277 352.117,49.705 352.689 C 50.859 353.151,51.400 353.683,51.846 354.799 C 52.410 356.209,53.717 357.200,55.011 357.200 C 55.326 357.200,55.934 357.887,56.362 358.726 C 56.955 359.889,57.536 360.383,58.798 360.799 C 59.869 361.153,60.654 361.731,61.018 362.435 C 61.567 363.497,65.944 366.000,67.251 366.000 C 67.575 366.000,68.073 366.647,68.359 367.437 C 68.888 368.901,70.612 370.000,72.380 370.000 C 72.886 370.000,73.270 370.341,73.416 370.921 C 73.657 371.881,77.172 373.656,79.924 374.209 C 80.800 374.384,81.368 374.790,81.604 375.409 C 82.045 376.572,85.069 377.971,87.800 378.278 C 89.184 378.433,90.460 378.949,91.942 379.951 C 95.177 382.140,95.694 382.388,97.044 382.394 C 100.045 382.408,102.105 382.916,102.308 383.691 C 102.719 385.262,106.494 386.435,112.676 386.914 C 118.001 387.326,118.365 387.407,118.571 388.228 C 119.091 390.300,123.863 391.178,134.690 391.194 L 139.179 391.200 139.792 392.385 C 141.074 394.864,141.589 394.909,170.800 395.089 C 198.658 395.260,207.387 394.992,209.400 393.904 C 210.060 393.547,211.185 392.982,211.900 392.648 C 212.615 392.314,213.200 391.852,213.200 391.620 C 213.200 391.359,214.522 391.199,216.700 391.197 C 226.002 391.187,230.381 390.370,231.370 388.459 C 231.939 387.358,232.027 387.335,237.287 386.910 C 242.870 386.459,244.155 386.020,246.648 383.717 C 247.387 383.033,248.304 382.772,250.702 382.565 C 254.581 382.230,256.259 381.566,256.880 380.121 C 257.145 379.504,257.391 378.950,257.426 378.889 C 257.460 378.828,258.979 378.608,260.801 378.400 C 262.622 378.192,264.402 377.768,264.756 377.458 C 265.110 377.148,265.810 376.770,266.311 376.617 C 266.812 376.464,267.501 375.912,267.844 375.389 C 268.290 374.709,268.997 374.361,270.333 374.166 C 271.360 374.015,272.678 373.557,273.262 373.146 C 273.846 372.736,274.515 372.400,274.750 372.400 C 274.984 372.400,275.559 371.881,276.028 371.248 C 276.682 370.363,277.293 370.048,278.656 369.895 C 280.702 369.664,281.850 368.792,282.200 367.202 C 282.423 366.187,282.649 366.061,284.722 365.804 C 288.035 365.394,289.355 364.724,290.150 363.049 C 290.637 362.022,291.098 361.600,291.730 361.600 C 292.813 361.600,294.304 360.636,296.836 358.300 C 297.491 357.695,298.285 357.200,298.600 357.200 C 299.890 357.200,301.982 355.827,302.365 354.728 C 302.583 354.102,303.086 353.489,303.481 353.366 C 305.892 352.615,306.785 351.968,307.103 350.743 C 307.353 349.776,307.764 349.349,308.769 349.011 C 310.271 348.505,311.600 347.079,311.600 345.974 C 311.600 345.449,312.000 345.161,312.983 344.977 C 313.975 344.791,315.226 343.880,317.403 341.759 C 319.073 340.131,320.607 338.800,320.811 338.800 C 321.015 338.800,321.501 338.306,321.891 337.703 C 322.738 336.391,324.347 334.907,325.257 334.597 C 325.618 334.474,326.129 333.855,326.391 333.221 C 326.654 332.587,327.663 331.404,328.634 330.593 C 329.605 329.781,330.400 328.909,330.400 328.655 C 330.400 328.401,330.754 327.971,331.187 327.701 C 331.620 327.430,332.123 326.637,332.304 325.937 C 332.486 325.238,332.896 324.537,333.217 324.379 C 333.538 324.222,334.297 323.860,334.905 323.576 C 335.640 323.232,336.160 322.557,336.459 321.559 C 336.790 320.457,337.186 319.990,337.954 319.799 C 339.460 319.423,340.348 318.482,340.633 316.962 C 340.829 315.918,341.158 315.544,342.171 315.210 C 343.418 314.798,344.800 312.800,344.800 311.408 C 344.800 311.098,345.291 310.608,345.892 310.320 C 347.061 309.760,349.130 306.089,349.175 304.497 C 349.193 303.832,349.608 303.430,350.746 302.975 C 352.330 302.341,353.200 301.094,353.200 299.455 C 353.200 298.818,353.603 298.356,354.554 297.903 C 355.884 297.268,357.600 293.686,357.600 291.541 C 357.600 291.136,358.169 290.567,358.942 290.201 C 360.597 289.415,361.074 288.516,361.581 285.230 C 361.958 282.789,362.409 282.020,363.471 282.006 C 364.569 281.992,365.536 279.952,365.805 277.085 C 366.075 274.199,366.079 274.192,367.609 273.539 C 369.308 272.813,369.765 271.759,370.210 267.539 C 370.422 265.523,370.573 265.225,371.599 264.800 C 373.136 264.164,373.981 261.683,374.282 256.925 C 374.510 253.324,374.538 253.240,375.688 252.763 C 377.741 251.913,378.701 248.289,378.787 241.063 C 378.796 240.276,379.042 239.862,379.585 239.720 C 381.797 239.141,382.739 233.648,382.780 221.091 L 382.800 214.783 383.790 214.332 C 387.439 212.669,387.280 190.591,383.594 187.190 C 383.028 186.667,382.895 185.170,382.675 176.847 C 382.429 167.547,382.373 167.020,381.409 164.982 C 380.854 163.809,380.400 162.669,380.400 162.447 C 380.400 162.226,380.036 161.791,379.592 161.479 C 378.933 161.018,378.737 160.294,378.528 157.557 C 378.190 153.112,376.877 149.167,375.514 148.501 C 374.627 148.066,374.456 147.656,374.211 145.364 C 373.829 141.796,373.047 140.045,371.615 139.545 C 370.562 139.178,370.422 138.896,369.986 136.272 C 369.422 132.881,368.705 131.490,367.234 130.935 C 366.335 130.596,366.069 130.135,365.631 128.164 C 364.922 124.969,364.164 123.616,362.822 123.148 C 361.931 122.837,361.644 122.438,361.454 121.245 C 361.191 119.601,360.405 118.686,358.699 118.038 C 358.095 117.808,357.600 117.338,357.600 116.993 C 357.600 115.594,355.192 111.240,354.133 110.723 C 353.538 110.434,352.888 109.664,352.676 109.000 C 352.152 107.359,351.621 106.769,350.100 106.133 C 349.158 105.739,348.800 105.331,348.800 104.653 C 348.800 103.463,347.096 101.600,346.007 101.600 C 345.549 101.600,345.077 101.285,344.958 100.900 C 344.439 99.227,343.580 98.146,342.166 97.386 C 341.185 96.860,340.544 96.176,340.350 95.448 C 340.008 94.172,339.065 93.355,337.591 93.059 C 336.870 92.914,336.469 92.476,336.191 91.528 C 335.897 90.530,335.357 89.977,334.016 89.300 C 332.769 88.672,332.070 87.995,331.695 87.055 C 331.185 85.777,329.840 84.800,328.589 84.800 C 328.274 84.800,327.664 84.109,327.232 83.264 C 326.508 81.844,324.147 80.400,322.551 80.400 C 322.319 80.400,321.923 79.950,321.673 79.400 C 321.422 78.850,321.046 78.400,320.837 78.400 C 320.628 78.400,320.219 78.168,319.929 77.884 C 318.800 76.781,317.383 76.000,316.511 76.000 C 315.889 76.000,315.600 75.764,315.600 75.254 C 315.600 73.914,314.100 72.487,312.388 72.198 C 311.069 71.975,310.683 71.695,310.241 70.636 C 309.733 69.420,305.915 67.600,303.872 67.600 C 303.591 67.600,303.139 66.988,302.869 66.240 C 302.318 64.718,300.455 63.600,298.467 63.600 C 297.593 63.600,297.181 63.369,296.992 62.776 C 296.848 62.322,296.251 61.738,295.665 61.478 C 295.079 61.218,294.271 60.708,293.868 60.344 C 293.466 59.979,292.378 59.568,291.451 59.429 C 290.100 59.226,289.683 58.960,289.348 58.088 C 288.902 56.927,284.951 55.200,282.740 55.200 C 281.964 55.200,281.470 54.846,280.901 53.882 C 280.102 52.527,277.641 51.527,273.932 51.050 C 272.970 50.926,271.698 50.238,270.249 49.057 C 268.634 47.742,267.571 47.197,266.318 47.042 C 260.680 46.346,260.840 46.392,260.311 45.301 C 259.611 43.858,256.763 42.941,251.904 42.593 C 248.202 42.328,247.976 42.260,247.497 41.257 C 246.686 39.562,243.623 38.771,236.866 38.509 C 231.387 38.297,231.113 38.247,230.716 37.375 C 230.323 36.513,228.985 35.873,225.200 34.734 C 223.475 34.215,171.625 33.930,164.600 34.401 M206.597 46.410 C 209.235 46.629,213.030 47.253,215.030 47.798 C 217.030 48.343,221.711 49.168,225.433 49.631 C 230.653 50.281,232.886 50.748,235.200 51.675 C 236.850 52.336,240.270 53.310,242.800 53.840 C 245.591 54.425,248.501 55.339,250.200 56.166 C 251.740 56.915,254.480 57.895,256.289 58.342 C 258.097 58.790,260.257 59.621,261.089 60.190 C 261.920 60.759,264.130 61.692,266.000 62.264 C 267.870 62.835,270.120 63.816,271.000 64.444 C 271.880 65.071,273.942 66.040,275.583 66.597 C 277.223 67.153,279.023 68.046,279.583 68.581 C 280.142 69.117,281.930 70.095,283.557 70.757 C 285.183 71.418,286.983 72.404,287.557 72.947 C 288.130 73.491,289.600 74.375,290.823 74.912 C 292.046 75.449,293.871 76.518,294.879 77.287 C 295.887 78.056,297.556 79.095,298.588 79.594 C 299.620 80.094,300.561 80.753,300.678 81.059 C 300.795 81.365,301.978 82.252,303.307 83.031 C 304.635 83.809,306.459 85.042,307.361 85.770 C 308.262 86.498,309.450 87.326,310.000 87.609 C 310.550 87.892,311.955 88.951,313.121 89.962 C 314.288 90.973,316.358 92.756,317.721 93.924 C 319.085 95.093,321.177 96.893,322.371 97.924 C 325.661 100.766,336.785 111.988,338.073 113.765 C 338.696 114.625,339.573 115.586,340.020 115.899 C 340.467 116.212,341.298 117.218,341.866 118.134 C 342.433 119.050,343.422 120.223,344.062 120.739 C 344.702 121.256,345.651 122.516,346.170 123.539 C 346.689 124.563,347.512 125.760,348.000 126.200 C 348.488 126.640,349.299 127.814,349.804 128.808 C 350.308 129.803,351.458 131.509,352.358 132.598 C 353.259 133.688,354.277 135.427,354.621 136.463 C 354.965 137.499,355.864 139.123,356.619 140.073 C 357.375 141.023,358.366 142.915,358.822 144.278 C 359.278 145.641,359.974 147.171,360.369 147.678 C 361.543 149.185,362.296 150.882,363.004 153.618 C 363.372 155.038,364.282 157.289,365.027 158.620 C 366.067 160.481,366.532 162.008,367.037 165.220 C 367.398 167.519,368.133 170.570,368.670 172.000 C 371.116 178.509,372.044 192.283,371.266 210.507 C 370.795 221.533,370.622 222.800,368.802 228.600 C 368.181 230.580,367.370 234.261,367.000 236.781 C 366.489 240.265,366.013 241.989,365.010 243.981 C 364.285 245.421,363.387 248.130,363.013 250.000 C 362.542 252.358,361.867 254.197,360.810 256.000 C 359.971 257.430,359.069 259.539,358.806 260.686 C 358.543 261.833,357.618 263.948,356.751 265.385 C 355.884 266.823,354.812 269.172,354.369 270.606 C 353.926 272.040,353.042 273.807,352.405 274.533 C 351.768 275.259,350.864 276.823,350.396 278.009 C 349.929 279.196,348.948 280.984,348.217 281.983 C 347.486 282.982,346.589 284.520,346.223 285.400 C 345.858 286.280,345.047 287.540,344.421 288.200 C 343.795 288.860,342.701 290.570,341.990 292.000 C 341.279 293.430,340.091 295.276,339.349 296.101 C 338.607 296.927,338.000 297.786,338.000 298.010 C 338.000 298.234,337.240 299.242,336.312 300.249 C 335.383 301.257,334.078 302.942,333.412 303.994 C 330.988 307.820,322.894 317.508,319.619 320.503 C 319.079 320.996,318.269 321.837,317.819 322.370 C 317.368 322.904,316.394 323.894,315.652 324.570 C 314.911 325.247,314.011 326.155,313.652 326.589 C 313.294 327.024,312.405 327.924,311.677 328.589 C 310.950 329.255,309.405 330.700,308.245 331.800 C 307.085 332.900,305.161 334.649,303.968 335.687 C 302.776 336.726,300.900 338.366,299.800 339.332 C 298.700 340.298,296.990 341.589,296.000 342.201 C 295.010 342.813,293.439 344.008,292.509 344.857 C 291.579 345.705,290.630 346.400,290.400 346.400 C 290.170 346.400,289.221 347.097,288.291 347.948 C 287.361 348.800,285.790 349.904,284.800 350.403 C 283.810 350.901,282.478 351.746,281.840 352.279 C 281.203 352.812,279.583 353.796,278.240 354.466 C 276.898 355.135,275.260 356.186,274.600 356.802 C 273.940 357.417,272.355 358.244,271.079 358.640 C 269.802 359.036,268.041 359.973,267.165 360.723 C 266.200 361.549,264.528 362.399,262.920 362.882 C 261.462 363.319,259.416 364.263,258.375 364.980 C 257.332 365.697,255.260 366.589,253.763 366.965 C 252.267 367.341,249.934 368.269,248.577 369.028 C 247.063 369.874,244.737 370.701,242.555 371.169 C 240.600 371.588,237.670 372.569,236.045 373.349 C 234.420 374.129,232.260 374.877,231.245 375.012 C 225.780 375.736,222.334 376.473,220.382 377.334 C 217.245 378.717,214.843 379.140,206.243 379.824 C 202.039 380.158,196.452 380.787,193.827 381.223 C 182.618 383.081,167.741 383.060,156.479 381.170 C 153.992 380.752,148.481 380.139,144.232 379.807 C 138.307 379.345,135.724 378.963,133.153 378.168 C 127.855 376.530,124.510 375.731,120.106 375.053 C 117.232 374.611,115.318 374.062,113.688 373.214 C 112.410 372.549,109.702 371.649,107.670 371.215 C 105.380 370.726,103.030 369.902,101.488 369.049 C 100.119 368.292,97.851 367.356,96.446 366.969 C 95.042 366.581,93.062 365.693,92.046 364.995 C 91.031 364.298,89.480 363.494,88.600 363.210 C 86.313 362.471,84.748 361.647,83.600 360.576 C 83.050 360.063,81.559 359.184,80.288 358.621 C 79.016 358.059,77.065 356.879,75.952 356.000 C 74.839 355.120,73.757 354.400,73.547 354.400 C 73.337 354.400,72.318 353.626,71.283 352.680 C 70.247 351.734,68.860 350.624,68.200 350.214 C 65.201 348.348,51.594 334.537,49.627 331.362 C 49.231 330.723,48.415 329.750,47.814 329.200 C 47.214 328.650,46.356 327.486,45.909 326.614 C 45.462 325.742,44.417 324.122,43.587 323.014 C 42.757 321.906,41.795 320.314,41.449 319.475 C 41.103 318.637,40.222 317.251,39.490 316.397 C 38.758 315.542,37.855 313.888,37.484 312.721 C 36.847 310.722,36.436 309.957,34.667 307.470 C 34.264 306.904,33.664 305.397,33.334 304.120 C 33.003 302.844,32.046 300.540,31.206 299.000 C 30.297 297.332,29.402 294.906,28.994 293.000 C 28.617 291.240,27.782 288.746,27.139 287.457 C 25.864 284.905,25.029 281.652,24.609 277.600 C 24.460 276.170,23.728 273.110,22.982 270.800 C 19.247 259.239,18.956 207.690,22.576 198.782 C 23.876 195.583,24.299 193.108,24.771 185.942 C 25.177 179.770,25.739 176.958,27.362 172.967 C 27.907 171.628,28.637 168.838,28.985 166.767 C 29.407 164.250,30.076 162.071,31.001 160.200 C 31.762 158.660,32.662 156.140,33.001 154.600 C 33.722 151.322,34.118 150.298,35.399 148.400 C 35.919 147.630,36.742 145.740,37.228 144.200 C 37.713 142.660,38.705 140.581,39.431 139.579 C 40.158 138.578,41.130 136.749,41.591 135.515 C 42.053 134.281,42.988 132.580,43.669 131.736 C 44.350 130.891,45.268 129.390,45.709 128.400 C 46.150 127.410,47.109 125.931,47.841 125.114 C 48.573 124.297,49.614 122.756,50.155 121.689 C 50.695 120.623,51.451 119.491,51.835 119.175 C 52.219 118.859,53.160 117.610,53.927 116.400 C 55.988 113.149,59.162 109.485,66.272 102.146 C 68.433 99.917,70.605 97.667,71.099 97.146 C 71.593 96.626,73.186 95.120,74.639 93.800 C 76.091 92.480,77.937 90.764,78.740 89.988 C 79.544 89.211,81.021 88.011,82.024 87.321 C 83.026 86.632,84.093 85.770,84.394 85.407 C 84.695 85.044,86.125 83.980,87.571 83.042 C 89.017 82.104,90.459 81.022,90.775 80.637 C 91.091 80.253,92.171 79.519,93.175 79.008 C 94.179 78.497,95.450 77.587,96.000 76.986 C 96.550 76.384,97.927 75.476,99.060 74.969 C 100.194 74.461,101.741 73.500,102.500 72.834 C 103.258 72.168,104.745 71.252,105.804 70.798 C 106.863 70.344,108.556 69.373,109.565 68.641 C 110.574 67.908,112.332 67.004,113.471 66.632 C 114.610 66.260,116.304 65.403,117.235 64.728 C 118.167 64.054,120.221 63.067,121.801 62.536 C 123.380 62.005,125.627 60.956,126.793 60.204 C 128.032 59.406,130.068 58.576,131.692 58.206 C 133.220 57.859,135.670 56.946,137.135 56.179 C 138.825 55.294,141.211 54.500,143.654 54.009 C 145.774 53.583,149.029 52.605,150.887 51.835 C 153.577 50.722,155.359 50.307,159.633 49.800 C 162.585 49.449,166.350 48.825,168.000 48.414 C 170.529 47.782,173.398 47.268,180.000 46.261 C 182.198 45.926,202.100 46.038,206.597 46.410 M247.600 131.246 C 245.070 131.381,241.200 131.775,239.000 132.121 C 233.612 132.967,227.143 133.513,219.200 133.793 C 209.659 134.129,202.553 134.722,196.400 135.696 C 191.220 136.515,189.263 136.561,148.400 136.808 C 102.027 137.088,102.808 137.048,98.400 139.369 C 97.410 139.890,95.520 140.849,94.200 141.501 C 91.221 142.971,79.600 154.973,79.600 156.579 C 79.600 156.877,78.875 158.083,77.988 159.260 C 77.066 160.484,76.038 162.513,75.586 164.000 C 75.152 165.430,74.168 167.957,73.399 169.616 C 70.923 174.961,70.496 183.939,71.168 216.600 C 71.701 242.527,71.966 246.576,73.561 253.106 C 74.218 255.798,74.948 259.724,75.183 261.831 C 75.772 267.113,76.254 269.030,77.422 270.735 C 77.974 271.541,78.804 273.460,79.266 275.000 C 79.751 276.618,80.739 278.644,81.606 279.800 C 82.431 280.900,83.424 282.430,83.814 283.200 C 84.840 285.230,89.690 290.356,91.687 291.521 C 92.629 292.071,94.176 293.145,95.124 293.907 C 96.072 294.669,97.687 295.545,98.712 295.854 C 99.738 296.162,101.799 297.047,103.292 297.820 C 105.737 299.086,106.573 299.283,111.704 299.811 C 126.421 301.326,127.189 301.349,145.084 300.832 C 166.741 300.206,178.015 300.518,202.800 302.430 C 220.934 303.829,245.129 303.525,252.269 301.809 C 254.507 301.271,259.273 300.459,262.861 300.004 C 268.535 299.286,269.749 299.000,272.192 297.806 C 273.736 297.051,276.237 296.129,277.749 295.756 C 279.465 295.333,281.138 294.590,282.199 293.780 C 283.135 293.066,284.687 292.127,285.650 291.693 C 290.138 289.671,297.999 281.524,300.166 276.650 C 300.667 275.522,301.529 273.938,302.081 273.129 C 304.333 269.830,305.089 259.749,304.446 241.600 C 304.185 234.230,303.900 216.860,303.813 203.000 C 303.648 176.694,303.544 174.930,301.767 168.298 C 301.222 166.264,300.426 162.822,299.998 160.649 C 299.461 157.926,298.853 156.124,298.041 154.849 C 297.393 153.832,296.404 151.954,295.843 150.676 C 294.831 148.370,292.691 145.545,290.000 142.963 C 289.230 142.224,287.962 140.992,287.182 140.224 C 286.401 139.456,284.691 138.358,283.382 137.783 C 282.072 137.207,280.165 136.205,279.143 135.555 C 277.725 134.651,276.215 134.188,272.743 133.589 C 270.245 133.159,266.670 132.523,264.800 132.178 C 260.209 131.328,253.178 130.948,247.600 131.246 M264.949 140.593 C 272.315 141.223,274.086 141.625,275.600 143.013 C 276.150 143.517,277.770 144.401,279.200 144.976 C 282.744 146.403,287.248 150.804,288.432 153.998 C 288.881 155.209,289.788 156.877,290.447 157.704 C 291.975 159.623,292.217 160.411,293.001 166.000 C 293.355 168.530,293.992 171.967,294.415 173.638 C 295.901 179.501,296.065 182.303,296.184 203.800 C 296.248 215.460,296.521 231.390,296.790 239.200 C 297.485 259.341,297.128 264.428,294.677 269.385 C 293.694 271.373,292.617 273.630,292.285 274.400 C 291.332 276.608,285.017 283.077,282.649 284.272 C 281.522 284.841,280.018 285.814,279.306 286.436 C 278.109 287.481,274.711 288.800,273.216 288.800 C 272.865 288.800,271.277 289.423,269.688 290.185 C 265.607 292.140,264.797 292.300,255.417 293.004 C 250.806 293.350,246.306 293.806,245.417 294.017 C 241.528 294.940,226.197 295.249,217.042 294.588 C 212.179 294.238,205.500 293.766,202.200 293.540 C 198.900 293.314,179.460 293.067,159.000 292.990 C 112.783 292.816,111.714 292.762,107.783 290.443 C 107.015 289.990,105.130 289.237,103.596 288.771 C 102.061 288.305,100.275 287.536,99.627 287.062 C 98.980 286.588,97.390 285.450,96.095 284.533 C 93.416 282.636,91.555 280.651,90.430 278.489 C 90.004 277.670,89.123 276.509,88.473 275.909 C 87.594 275.098,87.108 274.071,86.580 271.909 C 86.189 270.309,85.285 267.920,84.570 266.600 C 83.170 264.015,82.602 261.618,82.205 256.622 C 82.066 254.874,81.513 250.914,80.975 247.822 C 79.196 237.587,78.466 222.379,78.572 197.800 C 78.655 178.888,78.729 178.016,80.559 174.478 C 80.936 173.751,81.743 171.475,82.354 169.421 C 83.059 167.050,83.924 165.106,84.723 164.097 C 85.416 163.222,86.334 161.688,86.763 160.686 C 87.192 159.685,88.114 158.446,88.811 157.933 C 89.508 157.420,90.351 156.460,90.685 155.800 C 91.606 153.981,99.053 146.945,101.152 145.911 L 103.000 145.000 150.400 144.762 C 181.676 144.606,198.753 144.376,200.600 144.086 C 202.140 143.844,205.560 143.277,208.200 142.825 C 215.312 141.606,219.417 141.252,231.800 140.790 C 237.960 140.560,243.270 140.309,243.600 140.233 C 245.235 139.852,258.996 140.084,264.949 140.593 M162.400 184.465 C 160.084 185.116,159.844 185.596,159.678 189.900 C 159.232 201.495,160.796 229.851,162.747 245.519 C 163.425 250.965,166.546 251.549,171.988 247.248 C 173.174 246.310,174.787 245.212,175.572 244.808 C 176.358 244.404,177.529 243.516,178.176 242.836 C 178.823 242.155,180.131 241.221,181.083 240.760 C 182.035 240.299,182.998 239.578,183.223 239.157 C 183.448 238.737,185.020 237.694,186.716 236.841 C 188.412 235.987,190.160 234.890,190.600 234.402 C 191.040 233.914,192.120 233.155,193.000 232.714 C 193.880 232.274,195.140 231.402,195.800 230.776 C 196.460 230.151,198.170 229.108,199.600 228.458 C 201.030 227.808,202.612 226.800,203.115 226.217 C 203.619 225.635,204.822 224.819,205.790 224.404 C 206.757 223.990,207.849 223.192,208.216 222.632 C 208.583 222.072,209.457 221.259,210.158 220.826 C 212.506 219.375,215.353 214.667,214.822 213.111 C 214.144 211.123,213.586 210.581,210.858 209.259 C 209.479 208.591,208.005 207.605,207.583 207.069 C 207.160 206.532,206.047 205.787,205.107 205.414 C 204.168 205.040,202.453 204.022,201.296 203.151 C 200.139 202.281,198.411 201.233,197.455 200.824 C 196.499 200.414,195.106 199.547,194.359 198.898 C 193.611 198.248,191.768 197.310,190.263 196.813 C 188.757 196.316,186.942 195.398,186.230 194.773 C 185.518 194.148,183.713 193.192,182.220 192.650 C 180.727 192.108,178.934 191.111,178.235 190.434 C 177.537 189.757,175.870 188.833,174.531 188.381 C 173.192 187.929,171.393 186.957,170.534 186.222 C 168.173 184.201,165.441 183.611,162.400 184.465 M175.066 197.778 C 175.951 198.536,177.645 199.524,178.829 199.974 C 180.013 200.424,181.886 201.403,182.991 202.150 C 184.096 202.897,185.921 203.805,187.047 204.169 C 188.174 204.532,190.037 205.533,191.189 206.392 C 192.341 207.252,193.772 208.062,194.368 208.193 C 194.964 208.324,196.337 209.162,197.418 210.055 C 198.499 210.948,200.225 212.106,201.254 212.627 C 203.280 213.654,203.685 214.224,203.141 215.282 C 202.400 216.725,198.888 219.691,196.400 220.976 C 194.970 221.715,193.350 222.809,192.800 223.408 C 192.250 224.007,190.990 224.846,190.000 225.273 C 189.010 225.700,187.660 226.551,187.000 227.163 C 186.340 227.776,184.605 228.932,183.145 229.733 C 181.685 230.534,180.401 231.421,180.292 231.705 C 180.183 231.990,179.127 232.742,177.947 233.376 C 176.766 234.011,175.209 235.041,174.486 235.665 C 172.893 237.041,172.622 237.059,171.428 235.865 C 170.296 234.732,170.143 233.663,169.593 223.000 C 169.365 218.600,168.904 211.408,168.567 207.017 C 167.902 198.343,167.975 197.346,169.312 196.808 C 171.342 195.991,173.380 196.335,175.066 197.778 " stroke="none" fill="#110a09" fill-rule="evenodd"></path><path id="path2" d="M186.200 48.585 C 183.768 48.851,180.368 49.539,178.600 50.124 C 175.873 51.027,174.040 51.273,166.200 51.791 C 158.079 52.328,156.883 52.494,156.000 53.213 C 154.024 54.821,151.811 55.549,147.599 55.977 C 144.467 56.296,143.146 56.607,142.400 57.201 C 140.424 58.773,138.542 59.520,135.060 60.113 C 131.933 60.646,131.349 60.883,130.060 62.141 C 128.973 63.202,128.038 63.677,126.400 64.001 C 125.190 64.241,123.790 64.523,123.290 64.629 C 122.789 64.734,121.709 65.420,120.890 66.154 C 119.502 67.396,118.227 67.968,115.495 68.573 C 114.887 68.708,113.882 69.349,113.261 69.999 C 112.065 71.250,109.106 72.777,107.847 72.791 C 107.433 72.796,106.520 73.409,105.817 74.154 C 105.115 74.899,103.384 76.081,101.970 76.782 C 100.557 77.483,98.885 78.582,98.256 79.225 C 97.627 79.867,96.417 80.580,95.567 80.809 C 94.564 81.079,93.643 81.721,92.943 82.639 C 92.350 83.416,91.220 84.383,90.432 84.787 C 89.645 85.192,88.550 86.011,88.000 86.608 C 87.450 87.206,85.892 88.398,84.538 89.259 C 83.185 90.119,81.787 91.266,81.433 91.806 C 81.078 92.347,80.089 93.146,79.234 93.582 C 78.380 94.018,77.301 94.990,76.837 95.741 C 76.373 96.491,75.439 97.335,74.762 97.616 C 74.085 97.896,73.097 98.812,72.567 99.651 C 72.038 100.491,71.076 101.450,70.430 101.784 C 69.784 102.118,68.856 103.103,68.367 103.972 C 67.879 104.842,67.009 105.748,66.434 105.986 C 65.854 106.226,64.978 107.193,64.467 108.157 C 63.960 109.112,63.093 110.136,62.541 110.432 C 61.988 110.727,60.835 112.170,59.978 113.638 C 59.120 115.106,58.151 116.410,57.823 116.536 C 57.495 116.662,56.648 117.790,55.941 119.042 C 55.234 120.295,54.156 121.607,53.545 121.957 C 52.864 122.349,52.171 123.292,51.753 124.397 C 51.378 125.389,50.425 126.940,49.635 127.843 C 48.845 128.747,47.864 130.419,47.454 131.558 C 46.978 132.881,46.237 133.989,45.400 134.627 C 44.349 135.429,43.959 136.155,43.421 138.313 C 42.911 140.359,42.388 141.382,41.228 142.600 C 39.992 143.898,39.611 144.691,39.212 146.800 C 38.657 149.739,38.258 150.644,36.996 151.828 C 36.076 152.692,35.417 155.015,34.996 158.880 C 34.836 160.349,34.406 161.629,33.787 162.480 C 33.259 163.206,32.540 164.189,32.190 164.665 C 31.789 165.210,31.347 167.354,30.993 170.465 C 30.330 176.299,29.980 177.608,28.528 179.704 C 27.472 181.228,27.423 181.541,26.960 189.796 C 26.479 198.364,26.009 201.051,24.354 204.696 C 22.922 207.849,22.744 211.693,22.874 236.600 L 23.000 260.600 24.280 263.200 C 26.028 266.752,26.313 268.212,27.045 277.400 C 27.330 280.986,27.615 281.983,28.585 282.787 C 29.817 283.810,30.418 285.575,30.973 289.803 C 31.491 293.748,31.611 294.091,32.923 295.403 C 34.260 296.740,34.579 297.572,35.406 301.870 C 35.540 302.569,36.361 304.133,37.231 305.347 C 38.100 306.560,38.924 308.149,39.062 308.877 C 39.378 310.546,39.751 311.267,41.444 313.485 C 42.193 314.466,43.008 316.072,43.255 317.054 C 43.574 318.321,44.108 319.147,45.092 319.897 C 45.919 320.528,46.874 321.851,47.459 323.177 C 47.999 324.400,49.052 326.030,49.801 326.800 C 50.549 327.570,51.448 328.888,51.798 329.729 C 52.148 330.569,52.958 331.557,53.598 331.925 C 54.237 332.292,55.152 333.288,55.630 334.139 C 56.108 334.990,57.072 336.024,57.773 336.437 C 58.473 336.850,59.346 337.816,59.712 338.584 C 60.142 339.485,60.876 340.188,61.785 340.568 C 62.694 340.948,63.428 341.651,63.859 342.556 C 64.245 343.363,65.021 344.160,65.694 344.439 C 66.335 344.705,67.413 345.609,68.087 346.449 C 68.762 347.289,69.921 348.176,70.662 348.420 C 71.403 348.665,72.449 349.442,72.986 350.146 C 73.548 350.882,75.139 351.997,76.725 352.764 C 78.465 353.606,79.734 354.519,80.157 355.235 C 80.753 356.244,82.715 357.190,84.228 357.198 C 84.463 357.199,85.397 357.835,86.303 358.610 C 88.057 360.111,90.268 361.200,91.562 361.200 C 91.995 361.200,93.529 362.008,94.971 362.995 C 96.633 364.133,98.216 364.878,99.296 365.030 C 102.217 365.444,103.753 366.051,105.094 367.320 C 106.263 368.427,106.861 368.616,111.281 369.275 C 115.418 369.893,116.391 370.178,117.587 371.128 C 118.364 371.746,119.215 372.379,119.477 372.535 C 119.740 372.691,122.602 373.085,125.838 373.410 C 132.608 374.091,134.049 374.422,137.148 376.011 C 139.381 377.155,139.490 377.169,150.000 377.596 C 155.830 377.833,161.770 378.102,163.200 378.193 C 172.745 378.805,176.236 378.812,187.600 378.247 C 194.530 377.903,202.720 377.508,205.800 377.370 C 210.682 377.151,211.657 376.990,213.400 376.115 C 216.752 374.434,218.271 374.034,222.926 373.604 C 230.391 372.915,230.661 372.853,232.358 371.435 C 233.971 370.087,235.775 369.569,240.958 368.967 C 242.822 368.751,243.618 368.425,244.758 367.409 C 246.285 366.049,248.242 365.211,249.960 365.182 C 251.579 365.155,253.729 364.255,255.438 362.888 C 256.297 362.202,257.871 361.446,258.936 361.210 C 261.600 360.619,263.159 359.884,264.777 358.458 C 265.534 357.791,266.823 357.131,267.640 356.993 C 268.457 356.855,270.250 355.950,271.624 354.983 C 272.999 354.015,274.987 352.937,276.043 352.586 C 277.212 352.198,278.057 351.649,278.205 351.184 C 278.515 350.207,280.085 349.134,282.531 348.227 C 283.593 347.832,285.008 346.910,285.675 346.177 C 286.343 345.444,287.363 344.736,287.944 344.603 C 289.259 344.303,290.007 343.719,290.937 342.267 C 291.336 341.643,292.233 340.893,292.931 340.599 C 293.629 340.306,294.740 339.496,295.400 338.801 C 296.060 338.105,297.717 336.737,299.083 335.760 C 300.449 334.783,301.799 333.656,302.083 333.256 C 302.367 332.855,303.332 332.067,304.227 331.505 C 305.122 330.942,306.162 330.013,306.537 329.440 C 306.913 328.866,307.931 327.949,308.799 327.401 C 309.667 326.853,310.646 325.885,310.974 325.250 C 311.302 324.616,312.190 323.731,312.946 323.285 C 313.702 322.839,314.564 321.970,314.861 321.354 C 315.157 320.739,316.102 319.759,316.961 319.177 C 317.819 318.595,318.850 317.478,319.252 316.695 C 319.654 315.913,320.437 314.914,320.994 314.476 C 321.550 314.039,322.787 312.627,323.742 311.340 C 324.696 310.053,325.884 308.640,326.381 308.200 C 326.878 307.760,327.622 306.740,328.034 305.934 C 328.445 305.127,329.343 304.068,330.028 303.580 C 330.714 303.092,331.612 301.905,332.024 300.944 C 332.477 299.887,333.187 299.006,333.819 298.719 C 334.511 298.403,335.234 297.427,335.963 295.821 C 336.568 294.490,337.798 292.552,338.696 291.517 C 339.594 290.481,340.444 289.108,340.585 288.467 C 340.734 287.791,341.498 286.773,342.404 286.045 C 343.530 285.140,344.041 284.373,344.235 283.295 C 344.593 281.315,345.036 280.476,346.608 278.800 C 347.367 277.991,348.221 276.432,348.632 275.107 C 349.022 273.846,350.008 272.007,350.823 271.021 C 351.973 269.630,352.417 268.622,352.812 266.515 C 353.231 264.268,353.562 263.569,354.728 262.462 C 355.936 261.316,356.243 260.630,356.869 257.684 C 357.369 255.329,357.900 253.922,358.551 253.222 C 360.013 251.652,360.308 250.844,360.984 246.566 C 361.559 242.930,362.574 240.000,363.259 240.000 C 363.799 240.000,364.757 236.154,365.002 233.000 C 365.567 225.741,365.998 223.644,367.522 220.725 L 369.000 217.896 369.143 203.248 C 369.308 186.261,369.037 182.937,367.198 179.376 C 366.102 177.256,365.853 176.139,365.207 170.458 C 364.513 164.358,364.159 163.090,362.931 162.298 C 362.305 161.894,361.338 158.832,360.762 155.429 C 360.399 153.285,360.045 152.424,359.197 151.629 C 357.735 150.257,357.253 149.245,356.757 146.501 C 356.417 144.620,356.063 143.942,354.816 142.788 C 353.663 141.720,353.118 140.759,352.583 138.854 C 352.076 137.046,351.558 136.097,350.755 135.503 C 350.139 135.048,349.184 133.723,348.633 132.560 C 348.082 131.397,347.257 130.245,346.800 130.000 C 346.342 129.755,345.338 128.260,344.568 126.677 C 343.799 125.095,342.632 123.378,341.975 122.863 C 341.318 122.348,340.523 121.312,340.210 120.561 C 339.894 119.807,339.030 118.837,338.278 118.393 C 337.516 117.943,336.620 116.931,336.242 116.093 C 335.870 115.269,335.032 114.289,334.380 113.914 C 333.727 113.539,332.820 112.601,332.364 111.829 C 331.909 111.057,330.916 110.043,330.158 109.574 C 329.401 109.106,328.527 108.232,328.216 107.632 C 327.906 107.032,326.926 106.060,326.037 105.472 C 325.149 104.884,324.156 103.888,323.830 103.258 C 323.504 102.628,322.674 101.879,321.984 101.593 C 321.295 101.308,320.295 100.385,319.763 99.542 C 319.206 98.659,318.202 97.761,317.396 97.424 C 316.602 97.093,315.644 96.243,315.184 95.462 C 314.737 94.705,313.793 93.854,313.086 93.572 C 312.379 93.289,311.051 92.381,310.136 91.554 C 309.221 90.727,307.561 89.588,306.447 89.024 C 305.334 88.460,304.030 87.467,303.550 86.818 C 303.070 86.169,301.940 85.348,301.039 84.994 C 300.137 84.640,298.860 83.754,298.200 83.024 C 297.520 82.273,295.984 81.303,294.657 80.785 C 293.273 80.246,291.765 79.279,290.974 78.423 C 290.101 77.481,288.994 76.804,287.802 76.485 C 286.794 76.216,285.093 75.302,284.021 74.454 C 282.948 73.606,281.250 72.706,280.246 72.453 C 279.242 72.200,277.831 71.481,277.110 70.855 C 275.415 69.383,274.652 69.012,272.081 68.408 C 270.818 68.112,269.133 67.289,267.910 66.369 C 266.518 65.323,265.141 64.688,263.629 64.394 C 262.403 64.156,260.877 63.859,260.238 63.735 C 259.599 63.611,258.505 62.886,257.807 62.124 C 256.637 60.846,256.211 60.683,252.347 60.025 C 247.994 59.284,246.943 58.899,245.108 57.373 C 244.312 56.712,243.282 56.398,241.308 56.216 C 236.047 55.732,233.866 55.207,231.046 53.747 C 228.270 52.309,228.051 52.264,222.200 51.949 C 214.488 51.534,209.601 50.943,205.712 49.955 C 197.415 47.848,194.700 47.657,186.200 48.585 M266.523 128.567 C 268.020 128.851,269.749 129.455,270.364 129.910 C 271.683 130.885,273.636 131.424,277.171 131.790 C 279.893 132.071,282.125 132.989,283.332 134.324 C 283.734 134.769,285.032 135.526,286.216 136.006 C 287.751 136.630,288.599 137.271,289.174 138.246 C 289.618 138.998,290.418 139.779,290.953 139.982 C 291.489 140.186,292.258 140.846,292.663 141.450 C 293.069 142.053,294.233 143.369,295.251 144.374 C 296.269 145.378,297.305 146.815,297.553 147.567 C 297.802 148.319,298.695 149.849,299.539 150.967 C 301.054 152.974,301.668 154.813,302.213 158.973 C 302.363 160.119,302.877 161.479,303.441 162.218 C 305.904 165.447,306.393 173.418,306.398 210.400 L 306.401 235.800 307.594 242.800 C 309.101 251.638,309.140 255.194,307.780 259.655 C 307.219 261.495,306.594 264.800,306.392 267.000 C 305.743 274.061,305.669 274.343,303.999 276.155 C 303.152 277.074,302.333 278.360,302.179 279.013 C 301.708 281.003,299.979 283.881,298.978 284.337 C 298.458 284.574,297.663 285.493,297.211 286.379 C 296.675 287.429,295.837 288.271,294.803 288.799 C 293.930 289.244,292.951 290.122,292.626 290.750 C 292.057 291.850,291.233 292.368,287.817 293.776 C 286.947 294.135,285.777 294.960,285.217 295.610 C 284.260 296.721,280.795 298.000,278.740 298.000 C 278.360 298.000,277.243 298.697,276.259 299.549 C 274.263 301.276,273.723 301.422,267.242 301.984 C 263.537 302.305,262.202 302.604,260.110 303.583 C 255.447 305.766,254.792 305.804,222.800 305.758 C 199.429 305.724,190.611 305.560,179.800 304.958 C 164.318 304.095,159.806 304.069,145.800 304.763 C 136.381 305.229,121.623 305.189,119.752 304.691 C 119.285 304.567,118.017 304.017,116.934 303.468 C 115.281 302.630,114.018 302.399,109.086 302.033 C 102.686 301.558,100.654 300.986,99.075 299.214 C 98.391 298.445,97.401 297.938,96.002 297.638 C 93.324 297.063,92.445 296.583,91.062 294.935 C 90.437 294.189,89.323 293.328,88.587 293.020 C 87.818 292.699,86.814 291.772,86.226 290.842 C 85.664 289.951,84.664 288.943,84.004 288.602 C 83.328 288.252,82.547 287.369,82.218 286.582 C 81.897 285.813,80.903 284.317,80.010 283.258 C 78.876 281.913,78.161 280.519,77.640 278.642 C 77.230 277.162,76.534 275.558,76.094 275.076 C 74.524 273.358,73.872 271.396,73.385 266.923 C 72.998 263.369,72.632 261.885,71.609 259.723 C 70.901 258.225,70.241 256.460,70.142 255.800 C 70.043 255.140,69.859 254.330,69.733 254.000 C 69.608 253.670,69.348 243.050,69.157 230.400 C 68.926 215.134,68.633 206.257,68.285 204.000 C 67.486 198.808,67.429 190.262,68.173 187.054 C 68.515 185.578,68.963 180.967,69.169 176.806 C 69.549 169.113,70.081 166.651,71.478 166.115 C 72.279 165.807,73.007 164.149,73.596 161.292 C 74.008 159.292,74.385 158.545,75.456 157.605 C 76.194 156.956,77.223 155.475,77.742 154.313 C 78.260 153.151,79.091 151.840,79.589 151.400 C 80.086 150.960,81.051 149.790,81.734 148.800 C 83.573 146.131,88.031 141.823,90.676 140.158 C 91.954 139.353,93.450 138.290,94.000 137.795 C 95.210 136.707,96.982 136.142,100.289 135.790 C 102.037 135.603,103.287 135.187,104.489 134.391 C 107.482 132.409,109.467 132.282,133.536 132.538 C 145.561 132.665,160.800 132.821,167.400 132.883 C 174.695 132.952,185.180 132.722,194.141 132.298 C 202.249 131.914,211.699 131.599,215.141 131.597 C 222.812 131.593,227.962 131.040,229.998 130.001 C 233.553 128.187,259.201 127.181,266.523 128.567 M172.515 201.337 C 171.817 202.468,172.545 231.395,173.284 231.852 C 174.161 232.394,177.236 231.090,177.842 229.919 C 178.207 229.213,179.110 228.467,180.128 228.031 C 181.053 227.634,182.439 226.681,183.208 225.912 C 184.036 225.084,185.639 224.137,187.137 223.591 C 188.781 222.991,189.900 222.306,190.329 221.634 C 191.160 220.332,191.942 219.714,193.150 219.404 C 194.293 219.110,198.400 215.643,198.400 214.972 C 198.400 214.711,197.844 214.267,197.165 213.986 C 196.486 213.704,195.505 212.799,194.984 211.974 C 194.190 210.717,193.705 210.403,191.988 210.035 C 189.474 209.496,188.622 209.062,186.699 207.342 C 185.873 206.604,184.973 205.999,184.699 205.998 C 183.274 205.991,181.022 205.002,179.260 203.610 C 177.072 201.880,173.023 200.516,172.515 201.337 " stroke="none" fill="#ec4c24" fill-rule="evenodd"></path><path id="path3" d="M180.000 46.261 C 173.398 47.268,170.529 47.782,168.000 48.414 C 166.350 48.825,162.585 49.449,159.633 49.800 C 155.359 50.307,153.577 50.722,150.887 51.835 C 149.029 52.605,145.774 53.583,143.654 54.009 C 141.211 54.500,138.825 55.294,137.135 56.179 C 135.670 56.946,133.220 57.859,131.692 58.206 C 130.068 58.576,128.032 59.406,126.793 60.204 C 125.627 60.956,123.380 62.005,121.801 62.536 C 120.221 63.067,118.167 64.054,117.235 64.728 C 116.304 65.403,114.610 66.260,113.471 66.632 C 112.332 67.004,110.574 67.908,109.565 68.641 C 108.556 69.373,106.863 70.344,105.804 70.798 C 104.745 71.252,103.258 72.168,102.500 72.834 C 101.741 73.500,100.194 74.461,99.060 74.969 C 97.927 75.476,96.550 76.384,96.000 76.986 C 95.450 77.587,94.179 78.497,93.175 79.008 C 92.171 79.519,91.091 80.253,90.775 80.637 C 90.459 81.022,89.017 82.104,87.571 83.042 C 86.125 83.980,84.695 85.044,84.394 85.407 C 84.093 85.770,83.026 86.632,82.024 87.321 C 81.021 88.011,79.544 89.211,78.740 89.988 C 77.937 90.764,76.091 92.480,74.639 93.800 C 73.186 95.120,71.593 96.626,71.099 97.146 C 70.605 97.667,68.433 99.917,66.272 102.146 C 59.162 109.485,55.988 113.149,53.927 116.400 C 53.160 117.610,52.219 118.859,51.835 119.175 C 51.451 119.491,50.695 120.623,50.155 121.689 C 49.614 122.756,48.573 124.297,47.841 125.114 C 47.109 125.931,46.150 127.410,45.709 128.400 C 45.268 129.390,44.350 130.891,43.669 131.736 C 42.988 132.580,42.053 134.281,41.591 135.515 C 41.130 136.749,40.158 138.578,39.431 139.579 C 38.705 140.581,37.713 142.660,37.228 144.200 C 36.742 145.740,35.919 147.630,35.399 148.400 C 34.118 150.298,33.722 151.322,33.001 154.600 C 32.662 156.140,31.762 158.660,31.001 160.200 C 30.076 162.071,29.407 164.250,28.985 166.767 C 28.637 168.838,27.907 171.628,27.362 172.967 C 25.739 176.958,25.177 179.770,24.771 185.942 C 24.299 193.108,23.876 195.583,22.576 198.782 C 20.563 203.735,19.584 225.284,20.367 247.400 C 20.923 263.127,21.146 265.117,22.982 270.800 C 23.728 273.110,24.460 276.170,24.609 277.600 C 25.029 281.652,25.864 284.905,27.139 287.457 C 27.782 288.746,28.617 291.240,28.994 293.000 C 29.402 294.906,30.297 297.332,31.206 299.000 C 32.046 300.540,33.003 302.844,33.334 304.120 C 33.664 305.397,34.264 306.904,34.667 307.470 C 36.436 309.957,36.847 310.722,37.484 312.721 C 37.855 313.888,38.758 315.542,39.490 316.397 C 40.222 317.251,41.103 318.637,41.449 319.475 C 41.795 320.314,42.757 321.906,43.587 323.014 C 44.417 324.122,45.462 325.742,45.909 326.614 C 46.356 327.486,47.214 328.650,47.814 329.200 C 48.415 329.750,49.231 330.723,49.627 331.362 C 51.594 334.537,65.201 348.348,68.200 350.214 C 68.860 350.624,70.247 351.734,71.283 352.680 C 72.318 353.626,73.337 354.400,73.547 354.400 C 73.757 354.400,74.839 355.120,75.952 356.000 C 77.065 356.879,79.016 358.059,80.288 358.621 C 81.559 359.184,83.050 360.063,83.600 360.576 C 84.748 361.647,86.313 362.471,88.600 363.210 C 89.480 363.494,91.031 364.298,92.046 364.995 C 93.062 365.693,95.042 366.581,96.446 366.969 C 97.851 367.356,100.119 368.292,101.488 369.049 C 103.030 369.902,105.380 370.726,107.670 371.215 C 109.702 371.649,112.410 372.549,113.688 373.214 C 115.318 374.062,117.232 374.611,120.106 375.053 C 124.510 375.731,127.855 376.530,133.153 378.168 C 135.724 378.963,138.307 379.345,144.232 379.807 C 148.481 380.139,153.992 380.752,156.479 381.170 C 167.741 383.060,182.618 383.081,193.827 381.223 C 196.452 380.787,202.039 380.158,206.243 379.824 C 214.843 379.140,217.245 378.717,220.382 377.334 C 222.334 376.473,225.780 375.736,231.245 375.012 C 232.260 374.877,234.420 374.129,236.045 373.349 C 237.670 372.569,240.600 371.588,242.555 371.169 C 244.737 370.701,247.063 369.874,248.577 369.028 C 249.934 368.269,252.267 367.341,253.763 366.965 C 255.260 366.589,257.332 365.697,258.375 364.980 C 259.416 364.263,261.462 363.319,262.920 362.882 C 264.528 362.399,266.200 361.549,267.165 360.723 C 268.041 359.973,269.802 359.036,271.079 358.640 C 272.355 358.244,273.940 357.417,274.600 356.802 C 275.260 356.186,276.898 355.135,278.240 354.466 C 279.583 353.796,281.203 352.812,281.840 352.279 C 282.478 351.746,283.810 350.901,284.800 350.403 C 285.790 349.904,287.361 348.800,288.291 347.948 C 289.221 347.097,290.170 346.400,290.400 346.400 C 290.630 346.400,291.579 345.705,292.509 344.857 C 293.439 344.008,295.010 342.813,296.000 342.201 C 296.990 341.589,298.700 340.298,299.800 339.332 C 300.900 338.366,302.776 336.726,303.968 335.687 C 305.161 334.649,307.085 332.900,308.245 331.800 C 309.405 330.700,310.950 329.255,311.677 328.589 C 312.405 327.924,313.294 327.024,313.652 326.589 C 314.011 326.155,314.911 325.247,315.652 324.570 C 316.394 323.894,317.368 322.904,317.819 322.370 C 318.269 321.837,319.079 320.996,319.619 320.503 C 322.894 317.508,330.988 307.820,333.412 303.994 C 334.078 302.942,335.383 301.257,336.312 300.249 C 337.240 299.242,338.000 298.234,338.000 298.010 C 338.000 297.786,338.607 296.927,339.349 296.101 C 340.091 295.276,341.279 293.430,341.990 292.000 C 342.701 290.570,343.795 288.860,344.421 288.200 C 345.047 287.540,345.858 286.280,346.223 285.400 C 346.589 284.520,347.486 282.982,348.217 281.983 C 348.948 280.984,349.929 279.196,350.396 278.009 C 350.864 276.823,351.768 275.259,352.405 274.533 C 353.042 273.807,353.926 272.040,354.369 270.606 C 354.812 269.172,355.884 266.823,356.751 265.385 C 357.618 263.948,358.543 261.833,358.806 260.686 C 359.069 259.539,359.971 257.430,360.810 256.000 C 361.867 254.197,362.542 252.358,363.013 250.000 C 363.387 248.130,364.285 245.421,365.010 243.981 C 366.013 241.989,366.489 240.265,367.000 236.781 C 367.370 234.261,368.181 230.580,368.802 228.600 C 370.622 222.800,370.795 221.533,371.266 210.507 C 372.044 192.283,371.116 178.509,368.670 172.000 C 368.133 170.570,367.398 167.519,367.037 165.220 C 366.532 162.008,366.067 160.481,365.027 158.620 C 364.282 157.289,363.372 155.038,363.004 153.618 C 362.296 150.882,361.543 149.185,360.369 147.678 C 359.974 147.171,359.278 145.641,358.822 144.278 C 358.366 142.915,357.375 141.023,356.619 140.073 C 355.864 139.123,354.965 137.499,354.621 136.463 C 354.277 135.427,353.259 133.688,352.358 132.598 C 351.458 131.509,350.308 129.803,349.804 128.808 C 349.299 127.814,348.488 126.640,348.000 126.200 C 347.512 125.760,346.689 124.563,346.170 123.539 C 345.651 122.516,344.702 121.256,344.062 120.739 C 343.422 120.223,342.433 119.050,341.866 118.134 C 341.298 117.218,340.467 116.212,340.020 115.899 C 339.573 115.586,338.696 114.625,338.073 113.765 C 336.785 111.988,325.661 100.766,322.371 97.924 C 321.177 96.893,319.085 95.093,317.721 93.924 C 316.358 92.756,314.288 90.973,313.121 89.962 C 311.955 88.951,310.550 87.892,310.000 87.609 C 309.450 87.326,308.262 86.498,307.361 85.770 C 306.459 85.042,304.635 83.809,303.307 83.031 C 301.978 82.252,300.795 81.365,300.678 81.059 C 300.561 80.753,299.620 80.094,298.588 79.594 C 297.556 79.095,295.887 78.056,294.879 77.287 C 293.871 76.518,292.046 75.449,290.823 74.912 C 289.600 74.375,288.130 73.491,287.557 72.947 C 286.983 72.404,285.183 71.418,283.557 70.757 C 281.930 70.095,280.142 69.117,279.583 68.581 C 279.023 68.046,277.223 67.153,275.583 66.597 C 273.942 66.040,271.880 65.071,271.000 64.444 C 270.120 63.816,267.870 62.835,266.000 62.264 C 264.130 61.692,261.920 60.759,261.089 60.190 C 260.257 59.621,258.097 58.790,256.289 58.342 C 254.480 57.895,251.740 56.915,250.200 56.166 C 248.501 55.339,245.591 54.425,242.800 53.840 C 240.270 53.310,236.850 52.336,235.200 51.675 C 232.886 50.748,230.653 50.281,225.433 49.631 C 221.711 49.168,217.030 48.343,215.030 47.798 C 209.583 46.314,186.342 45.295,180.000 46.261 M199.800 48.583 C 201.340 48.903,204.000 49.520,205.712 49.955 C 209.601 50.943,214.488 51.534,222.200 51.949 C 228.051 52.264,228.270 52.309,231.046 53.747 C 233.866 55.207,236.047 55.732,241.308 56.216 C 243.282 56.398,244.312 56.712,245.108 57.373 C 246.943 58.899,247.994 59.284,252.347 60.025 C 256.211 60.683,256.637 60.846,257.807 62.124 C 258.505 62.886,259.599 63.611,260.238 63.735 C 260.877 63.859,262.403 64.156,263.629 64.394 C 265.141 64.688,266.518 65.323,267.910 66.369 C 269.133 67.289,270.818 68.112,272.081 68.408 C 274.652 69.012,275.415 69.383,277.110 70.855 C 277.831 71.481,279.242 72.200,280.246 72.453 C 281.250 72.706,282.948 73.606,284.021 74.454 C 285.093 75.302,286.794 76.216,287.802 76.485 C 288.994 76.804,290.101 77.481,290.974 78.423 C 291.765 79.279,293.273 80.246,294.657 80.785 C 295.984 81.303,297.520 82.273,298.200 83.024 C 298.860 83.754,300.137 84.640,301.039 84.994 C 301.940 85.348,303.070 86.169,303.550 86.818 C 304.030 87.467,305.334 88.460,306.447 89.024 C 307.561 89.588,309.221 90.727,310.136 91.554 C 311.051 92.381,312.379 93.289,313.086 93.572 C 313.793 93.854,314.737 94.705,315.184 95.462 C 315.644 96.243,316.602 97.093,317.396 97.424 C 318.202 97.761,319.206 98.659,319.763 99.542 C 320.295 100.385,321.295 101.308,321.984 101.593 C 322.674 101.879,323.504 102.628,323.830 103.258 C 324.156 103.888,325.149 104.884,326.037 105.472 C 326.926 106.060,327.906 107.032,328.216 107.632 C 328.527 108.232,329.401 109.106,330.158 109.574 C 330.916 110.043,331.909 111.057,332.364 111.829 C 332.820 112.601,333.727 113.539,334.380 113.914 C 335.032 114.289,335.870 115.269,336.242 116.093 C 336.620 116.931,337.516 117.943,338.278 118.393 C 339.030 118.837,339.894 119.807,340.210 120.561 C 340.523 121.312,341.318 122.348,341.975 122.863 C 342.632 123.378,343.799 125.095,344.568 126.677 C 345.338 128.260,346.342 129.755,346.800 130.000 C 347.257 130.245,348.082 131.397,348.633 132.560 C 349.184 133.723,350.139 135.048,350.755 135.503 C 351.558 136.097,352.076 137.046,352.583 138.854 C 353.118 140.759,353.663 141.720,354.816 142.788 C 356.063 143.942,356.417 144.620,356.757 146.501 C 357.253 149.245,357.735 150.257,359.197 151.629 C 360.045 152.424,360.399 153.285,360.762 155.429 C 361.338 158.832,362.305 161.894,362.931 162.298 C 364.159 163.090,364.513 164.358,365.207 170.458 C 365.853 176.139,366.102 177.256,367.198 179.376 C 369.037 182.937,369.308 186.261,369.143 203.248 L 369.000 217.896 367.522 220.725 C 365.998 223.644,365.567 225.741,365.002 233.000 C 364.757 236.154,363.799 240.000,363.259 240.000 C 362.574 240.000,361.559 242.930,360.984 246.566 C 360.308 250.844,360.013 251.652,358.551 253.222 C 357.900 253.922,357.369 255.329,356.869 257.684 C 356.243 260.630,355.936 261.316,354.728 262.462 C 353.562 263.569,353.231 264.268,352.812 266.515 C 352.417 268.622,351.973 269.630,350.823 271.021 C 350.008 272.007,349.022 273.846,348.632 275.107 C 348.221 276.432,347.367 277.991,346.608 278.800 C 345.036 280.476,344.593 281.315,344.235 283.295 C 344.041 284.373,343.530 285.140,342.404 286.045 C 341.498 286.773,340.734 287.791,340.585 288.467 C 340.444 289.108,339.594 290.481,338.696 291.517 C 337.798 292.552,336.568 294.490,335.963 295.821 C 335.234 297.427,334.511 298.403,333.819 298.719 C 333.187 299.006,332.477 299.887,332.024 300.944 C 331.612 301.905,330.714 303.092,330.028 303.580 C 329.343 304.068,328.445 305.127,328.034 305.934 C 327.622 306.740,326.878 307.760,326.381 308.200 C 325.884 308.640,324.696 310.053,323.742 311.340 C 322.787 312.627,321.550 314.039,320.994 314.476 C 320.437 314.914,319.654 315.913,319.252 316.695 C 318.850 317.478,317.819 318.595,316.961 319.177 C 316.102 319.759,315.157 320.739,314.861 321.354 C 314.564 321.970,313.702 322.839,312.946 323.285 C 312.190 323.731,311.302 324.616,310.974 325.250 C 310.646 325.885,309.667 326.853,308.799 327.401 C 307.931 327.949,306.913 328.866,306.537 329.440 C 306.162 330.013,305.122 330.942,304.227 331.505 C 303.332 332.067,302.367 332.855,302.083 333.256 C 301.799 333.656,300.449 334.783,299.083 335.760 C 297.717 336.737,296.060 338.105,295.400 338.801 C 294.740 339.496,293.629 340.306,292.931 340.599 C 292.233 340.893,291.336 341.643,290.937 342.267 C 290.007 343.719,289.259 344.303,287.944 344.603 C 287.363 344.736,286.343 345.444,285.675 346.177 C 285.008 346.910,283.593 347.832,282.531 348.227 C 280.085 349.134,278.515 350.207,278.205 351.184 C 278.057 351.649,277.212 352.198,276.043 352.586 C 274.987 352.937,272.999 354.015,271.624 354.983 C 270.250 355.950,268.457 356.855,267.640 356.993 C 266.823 357.131,265.534 357.791,264.777 358.458 C 263.159 359.884,261.600 360.619,258.936 361.210 C 257.871 361.446,256.297 362.202,255.438 362.888 C 253.729 364.255,251.579 365.155,249.960 365.182 C 248.242 365.211,246.285 366.049,244.758 367.409 C 243.618 368.425,242.822 368.751,240.958 368.967 C 235.775 369.569,233.971 370.087,232.358 371.435 C 230.661 372.853,230.391 372.915,222.926 373.604 C 218.271 374.034,216.752 374.434,213.400 376.115 C 211.657 376.990,210.682 377.151,205.800 377.370 C 202.720 377.508,194.530 377.903,187.600 378.247 C 176.236 378.812,172.745 378.805,163.200 378.193 C 161.770 378.102,155.830 377.833,150.000 377.596 C 139.490 377.169,139.381 377.155,137.148 376.011 C 134.049 374.422,132.608 374.091,125.838 373.410 C 122.602 373.085,119.740 372.691,119.477 372.535 C 119.215 372.379,118.364 371.746,117.587 371.128 C 116.391 370.178,115.418 369.893,111.281 369.275 C 106.861 368.616,106.263 368.427,105.094 367.320 C 103.753 366.051,102.217 365.444,99.296 365.030 C 98.216 364.878,96.633 364.133,94.971 362.995 C 93.529 362.008,91.995 361.200,91.562 361.200 C 90.268 361.200,88.057 360.111,86.303 358.610 C 85.397 357.835,84.463 357.199,84.228 357.198 C 82.715 357.190,80.753 356.244,80.157 355.235 C 79.734 354.519,78.465 353.606,76.725 352.764 C 75.139 351.997,73.548 350.882,72.986 350.146 C 72.449 349.442,71.403 348.665,70.662 348.420 C 69.921 348.176,68.762 347.289,68.087 346.449 C 67.413 345.609,66.335 344.705,65.694 344.439 C 65.021 344.160,64.245 343.363,63.859 342.556 C 63.428 341.651,62.694 340.948,61.785 340.568 C 60.876 340.188,60.142 339.485,59.712 338.584 C 59.346 337.816,58.473 336.850,57.773 336.437 C 57.072 336.024,56.108 334.990,55.630 334.139 C 55.152 333.288,54.237 332.292,53.598 331.925 C 52.958 331.557,52.148 330.569,51.798 329.729 C 51.448 328.888,50.549 327.570,49.801 326.800 C 49.052 326.030,47.999 324.400,47.459 323.177 C 46.874 321.851,45.919 320.528,45.092 319.897 C 44.108 319.147,43.574 318.321,43.255 317.054 C 43.008 316.072,42.193 314.466,41.444 313.485 C 39.751 311.267,39.378 310.546,39.062 308.877 C 38.924 308.149,38.100 306.560,37.231 305.347 C 36.361 304.133,35.540 302.569,35.406 301.870 C 34.579 297.572,34.260 296.740,32.923 295.403 C 31.611 294.091,31.491 293.748,30.973 289.803 C 30.418 285.575,29.817 283.810,28.585 282.787 C 27.615 281.983,27.330 280.986,27.045 277.400 C 26.313 268.212,26.028 266.752,24.280 263.200 L 23.000 260.600 22.874 236.600 C 22.744 211.693,22.922 207.849,24.354 204.696 C 26.009 201.051,26.479 198.364,26.960 189.796 C 27.423 181.541,27.472 181.228,28.528 179.704 C 29.980 177.608,30.330 176.299,30.993 170.465 C 31.347 167.354,31.789 165.210,32.190 164.665 C 32.540 164.189,33.259 163.206,33.787 162.480 C 34.406 161.629,34.836 160.349,34.996 158.880 C 35.417 155.015,36.076 152.692,36.996 151.828 C 38.258 150.644,38.657 149.739,39.212 146.800 C 39.611 144.691,39.992 143.898,41.228 142.600 C 42.388 141.382,42.911 140.359,43.421 138.313 C 43.959 136.155,44.349 135.429,45.400 134.627 C 46.237 133.989,46.978 132.881,47.454 131.558 C 47.864 130.419,48.845 128.747,49.635 127.843 C 50.425 126.940,51.378 125.389,51.753 124.397 C 52.171 123.292,52.864 122.349,53.545 121.957 C 54.156 121.607,55.234 120.295,55.941 119.042 C 56.648 117.790,57.495 116.662,57.823 116.536 C 58.151 116.410,59.120 115.106,59.978 113.638 C 60.835 112.170,61.988 110.727,62.541 110.432 C 63.093 110.136,63.960 109.112,64.467 108.157 C 64.978 107.193,65.854 106.226,66.434 105.986 C 67.009 105.748,67.879 104.842,68.367 103.972 C 68.856 103.103,69.784 102.118,70.430 101.784 C 71.076 101.450,72.038 100.491,72.567 99.651 C 73.097 98.812,74.085 97.896,74.762 97.616 C 75.439 97.335,76.373 96.491,76.837 95.741 C 77.301 94.990,78.380 94.018,79.234 93.582 C 80.089 93.146,81.078 92.347,81.433 91.806 C 81.787 91.266,83.185 90.119,84.538 89.259 C 85.892 88.398,87.450 87.206,88.000 86.608 C 88.550 86.011,89.645 85.192,90.432 84.787 C 91.220 84.383,92.350 83.416,92.943 82.639 C 93.643 81.721,94.564 81.079,95.567 80.809 C 96.417 80.580,97.627 79.867,98.256 79.225 C 98.885 78.582,100.557 77.483,101.970 76.782 C 103.384 76.081,105.115 74.899,105.817 74.154 C 106.520 73.409,107.433 72.796,107.847 72.791 C 109.106 72.777,112.065 71.250,113.261 69.999 C 113.882 69.349,114.887 68.708,115.495 68.573 C 118.227 67.968,119.502 67.396,120.890 66.154 C 121.709 65.420,122.789 64.734,123.290 64.629 C 123.790 64.523,125.190 64.241,126.400 64.001 C 128.038 63.677,128.973 63.202,130.060 62.141 C 131.349 60.883,131.933 60.646,135.060 60.113 C 138.542 59.520,140.424 58.773,142.400 57.201 C 143.146 56.607,144.467 56.296,147.599 55.977 C 151.811 55.549,154.024 54.821,156.000 53.213 C 156.883 52.494,158.079 52.328,166.200 51.791 C 174.040 51.273,175.873 51.027,178.600 50.124 C 184.137 48.292,194.705 47.524,199.800 48.583 M235.667 128.651 C 233.394 128.962,230.843 129.570,229.998 130.001 C 227.962 131.040,222.812 131.593,215.141 131.597 C 211.699 131.599,202.249 131.914,194.141 132.298 C 185.180 132.722,174.695 132.952,167.400 132.883 C 160.800 132.821,145.561 132.665,133.536 132.538 C 109.467 132.282,107.482 132.409,104.489 134.391 C 103.287 135.187,102.037 135.603,100.289 135.790 C 96.982 136.142,95.210 136.707,94.000 137.795 C 93.450 138.290,91.954 139.353,90.676 140.158 C 88.031 141.823,83.573 146.131,81.734 148.800 C 81.051 149.790,80.086 150.960,79.589 151.400 C 79.091 151.840,78.260 153.151,77.742 154.313 C 77.223 155.475,76.194 156.956,75.456 157.605 C 74.385 158.545,74.008 159.292,73.596 161.292 C 73.007 164.149,72.279 165.807,71.478 166.115 C 70.081 166.651,69.549 169.113,69.169 176.806 C 68.963 180.967,68.515 185.578,68.173 187.054 C 67.429 190.262,67.486 198.808,68.285 204.000 C 68.633 206.257,68.926 215.134,69.157 230.400 C 69.348 243.050,69.608 253.670,69.733 254.000 C 69.859 254.330,70.043 255.140,70.142 255.800 C 70.241 256.460,70.901 258.225,71.609 259.723 C 72.632 261.885,72.998 263.369,73.385 266.923 C 73.872 271.396,74.524 273.358,76.094 275.076 C 76.534 275.558,77.230 277.162,77.640 278.642 C 78.161 280.519,78.876 281.913,80.010 283.258 C 80.903 284.317,81.897 285.813,82.218 286.582 C 82.547 287.369,83.328 288.252,84.004 288.602 C 84.664 288.943,85.664 289.951,86.226 290.842 C 86.814 291.772,87.818 292.699,88.587 293.020 C 89.323 293.328,90.437 294.189,91.062 294.935 C 92.445 296.583,93.324 297.063,96.002 297.638 C 97.401 297.938,98.391 298.445,99.075 299.214 C 100.654 300.986,102.686 301.558,109.086 302.033 C 114.018 302.399,115.281 302.630,116.934 303.468 C 118.017 304.017,119.285 304.567,119.752 304.691 C 121.623 305.189,136.381 305.229,145.800 304.763 C 159.806 304.069,164.318 304.095,179.800 304.958 C 190.611 305.560,199.429 305.724,222.800 305.758 C 254.792 305.804,255.447 305.766,260.110 303.583 C 262.202 302.604,263.537 302.305,267.242 301.984 C 273.723 301.422,274.263 301.276,276.259 299.549 C 277.243 298.697,278.360 298.000,278.740 298.000 C 280.795 298.000,284.260 296.721,285.217 295.610 C 285.777 294.960,286.947 294.135,287.817 293.776 C 291.233 292.368,292.057 291.850,292.626 290.750 C 292.951 290.122,293.930 289.244,294.803 288.799 C 295.837 288.271,296.675 287.429,297.211 286.379 C 297.663 285.493,298.458 284.574,298.978 284.337 C 299.979 283.881,301.708 281.003,302.179 279.013 C 302.333 278.360,303.152 277.074,303.999 276.155 C 305.669 274.343,305.743 274.061,306.392 267.000 C 306.594 264.800,307.219 261.495,307.780 259.655 C 309.140 255.194,309.101 251.638,307.594 242.800 L 306.401 235.800 306.398 210.400 C 306.393 173.418,305.904 165.447,303.441 162.218 C 302.877 161.479,302.363 160.119,302.213 158.973 C 301.668 154.813,301.054 152.974,299.539 150.967 C 298.695 149.849,297.802 148.319,297.553 147.567 C 297.305 146.815,296.269 145.378,295.251 144.374 C 294.233 143.369,293.069 142.053,292.663 141.450 C 292.258 140.846,291.489 140.186,290.953 139.982 C 290.418 139.779,289.618 138.998,289.174 138.246 C 288.599 137.271,287.751 136.630,286.216 136.006 C 285.032 135.526,283.734 134.769,283.332 134.324 C 282.125 132.989,279.893 132.071,277.171 131.790 C 273.636 131.424,271.683 130.885,270.364 129.910 C 267.798 128.013,246.072 127.224,235.667 128.651 M264.800 132.178 C 266.670 132.523,270.245 133.159,272.743 133.589 C 276.215 134.188,277.725 134.651,279.143 135.555 C 280.165 136.205,282.072 137.207,283.382 137.783 C 284.691 138.358,286.401 139.456,287.182 140.224 C 287.962 140.992,289.230 142.224,290.000 142.963 C 292.691 145.545,294.831 148.370,295.843 150.676 C 296.404 151.954,297.393 153.832,298.041 154.849 C 298.853 156.124,299.461 157.926,299.998 160.649 C 300.426 162.822,301.222 166.264,301.767 168.298 C 303.544 174.930,303.648 176.694,303.813 203.000 C 303.900 216.860,304.185 234.230,304.446 241.600 C 305.089 259.749,304.333 269.830,302.081 273.129 C 301.529 273.938,300.667 275.522,300.166 276.650 C 297.999 281.524,290.138 289.671,285.650 291.693 C 284.687 292.127,283.135 293.066,282.199 293.780 C 281.138 294.590,279.465 295.333,277.749 295.756 C 276.237 296.129,273.736 297.051,272.192 297.806 C 269.749 299.000,268.535 299.286,262.861 300.004 C 259.273 300.459,254.507 301.271,252.269 301.809 C 245.129 303.525,220.934 303.829,202.800 302.430 C 178.015 300.518,166.741 300.206,145.084 300.832 C 127.189 301.349,126.421 301.326,111.704 299.811 C 106.573 299.283,105.737 299.086,103.292 297.820 C 101.799 297.047,99.738 296.162,98.712 295.854 C 97.687 295.545,96.072 294.669,95.124 293.907 C 94.176 293.145,92.629 292.071,91.687 291.521 C 89.690 290.356,84.840 285.230,83.814 283.200 C 83.424 282.430,82.431 280.900,81.606 279.800 C 80.739 278.644,79.751 276.618,79.266 275.000 C 78.804 273.460,77.974 271.541,77.422 270.735 C 76.254 269.030,75.772 267.113,75.183 261.831 C 74.948 259.724,74.218 255.798,73.561 253.106 C 71.966 246.576,71.701 242.527,71.168 216.600 C 70.496 183.939,70.923 174.961,73.399 169.616 C 74.168 167.957,75.152 165.430,75.586 164.000 C 76.038 162.513,77.066 160.484,77.988 159.260 C 78.875 158.083,79.600 156.877,79.600 156.579 C 79.600 154.973,91.221 142.971,94.200 141.501 C 95.520 140.849,97.410 139.890,98.400 139.369 C 102.808 137.048,102.027 137.088,148.400 136.808 C 189.263 136.561,191.220 136.515,196.400 135.696 C 202.553 134.722,209.659 134.129,219.200 133.793 C 227.143 133.513,233.612 132.967,239.000 132.121 C 247.278 130.820,257.584 130.843,264.800 132.178 M169.312 196.808 C 167.975 197.346,167.902 198.343,168.567 207.017 C 168.904 211.408,169.365 218.600,169.593 223.000 C 170.143 233.663,170.296 234.732,171.428 235.865 C 172.622 237.059,172.893 237.041,174.486 235.665 C 175.209 235.041,176.766 234.011,177.947 233.376 C 179.127 232.742,180.183 231.990,180.292 231.705 C 180.401 231.421,181.685 230.534,183.145 229.733 C 184.605 228.932,186.340 227.776,187.000 227.163 C 187.660 226.551,189.010 225.700,190.000 225.273 C 190.990 224.846,192.250 224.007,192.800 223.408 C 193.350 222.809,194.970 221.715,196.400 220.976 C 198.888 219.691,202.400 216.725,203.141 215.282 C 203.685 214.224,203.280 213.654,201.254 212.627 C 200.225 212.106,198.499 210.948,197.418 210.055 C 196.337 209.162,194.964 208.324,194.368 208.193 C 193.772 208.062,192.341 207.252,191.189 206.392 C 190.037 205.533,188.174 204.532,187.047 204.169 C 185.921 203.805,184.096 202.897,182.991 202.150 C 181.886 201.403,180.013 200.424,178.829 199.974 C 177.645 199.524,175.951 198.536,175.066 197.778 C 173.380 196.335,171.342 195.991,169.312 196.808 M179.260 203.610 C 181.022 205.002,183.274 205.991,184.699 205.998 C 184.973 205.999,185.873 206.604,186.699 207.342 C 188.622 209.062,189.474 209.496,191.988 210.035 C 193.705 210.403,194.190 210.717,194.984 211.974 C 195.505 212.799,196.486 213.704,197.165 213.986 C 197.844 214.267,198.400 214.711,198.400 214.972 C 198.400 215.643,194.293 219.110,193.150 219.404 C 191.942 219.714,191.160 220.332,190.329 221.634 C 189.900 222.306,188.781 222.991,187.137 223.591 C 185.639 224.137,184.036 225.084,183.208 225.912 C 182.439 226.681,181.053 227.634,180.128 228.031 C 179.110 228.467,178.207 229.213,177.842 229.919 C 177.236 231.090,174.161 232.394,173.284 231.852 C 172.545 231.395,171.817 202.468,172.515 201.337 C 173.023 200.516,177.072 201.880,179.260 203.610 " stroke="none" fill="#c73c1e" fill-rule="evenodd"></path><path id="path4" d="M243.600 140.233 C 243.270 140.309,237.960 140.560,231.800 140.790 C 219.417 141.252,215.312 141.606,208.200 142.825 C 205.560 143.277,202.140 143.844,200.600 144.086 C 198.753 144.376,181.676 144.606,150.400 144.762 L 103.000 145.000 101.152 145.911 C 99.053 146.945,91.606 153.981,90.685 155.800 C 90.351 156.460,89.508 157.420,88.811 157.933 C 88.114 158.446,87.192 159.685,86.763 160.686 C 86.334 161.688,85.416 163.222,84.723 164.097 C 83.924 165.106,83.059 167.050,82.354 169.421 C 81.743 171.475,80.936 173.751,80.559 174.478 C 78.729 178.016,78.655 178.888,78.572 197.800 C 78.466 222.379,79.196 237.587,80.975 247.822 C 81.513 250.914,82.066 254.874,82.205 256.622 C 82.602 261.618,83.170 264.015,84.570 266.600 C 85.285 267.920,86.189 270.309,86.580 271.909 C 87.108 274.071,87.594 275.098,88.473 275.909 C 89.123 276.509,90.004 277.670,90.430 278.489 C 91.555 280.651,93.416 282.636,96.095 284.533 C 97.390 285.450,98.980 286.588,99.627 287.062 C 100.275 287.536,102.061 288.305,103.596 288.771 C 105.130 289.237,107.015 289.990,107.783 290.443 C 111.714 292.762,112.783 292.816,159.000 292.990 C 179.460 293.067,198.900 293.314,202.200 293.540 C 205.500 293.766,212.179 294.238,217.042 294.588 C 226.197 295.249,241.528 294.940,245.417 294.017 C 246.306 293.806,250.806 293.350,255.417 293.004 C 264.797 292.300,265.607 292.140,269.688 290.185 C 271.277 289.423,272.865 288.800,273.216 288.800 C 274.711 288.800,278.109 287.481,279.306 286.436 C 280.018 285.814,281.522 284.841,282.649 284.272 C 285.017 283.077,291.332 276.608,292.285 274.400 C 292.617 273.630,293.694 271.373,294.677 269.385 C 297.128 264.428,297.485 259.341,296.790 239.200 C 296.521 231.390,296.248 215.460,296.184 203.800 C 296.065 182.303,295.901 179.501,294.415 173.638 C 293.992 171.967,293.355 168.530,293.001 166.000 C 292.217 160.411,291.975 159.623,290.447 157.704 C 289.788 156.877,288.881 155.209,288.432 153.998 C 287.248 150.804,282.744 146.403,279.200 144.976 C 277.770 144.401,276.150 143.517,275.600 143.013 C 273.323 140.926,249.509 138.857,243.600 140.233 M262.000 141.609 C 270.181 142.111,272.301 142.525,274.380 144.031 C 275.281 144.684,276.990 145.582,278.179 146.027 C 281.729 147.355,288.000 154.188,288.000 156.727 C 288.000 156.954,288.425 157.647,288.944 158.269 C 290.739 160.421,291.193 161.930,292.012 168.476 C 292.461 172.064,293.101 176.440,293.434 178.200 C 294.320 182.873,294.888 197.256,294.596 207.600 C 294.420 213.840,294.533 219.789,294.963 227.000 C 296.559 253.696,296.276 262.418,293.641 267.763 C 292.764 269.544,291.856 271.737,291.624 272.638 C 291.142 274.510,283.388 282.833,281.599 283.400 C 281.049 283.573,279.610 284.399,278.400 285.234 C 276.842 286.309,275.065 287.047,272.311 287.763 C 270.173 288.320,267.557 289.214,266.498 289.750 C 262.133 291.962,235.078 293.652,217.600 292.805 C 200.577 291.979,178.015 291.587,148.402 291.604 C 115.218 291.623,114.424 291.578,109.675 289.434 C 107.929 288.645,106.325 288.000,106.112 288.000 C 102.967 288.000,91.600 279.927,91.600 277.693 C 91.600 277.506,90.817 276.434,89.859 275.313 C 88.466 273.681,88.020 272.767,87.624 270.737 C 87.352 269.342,86.431 266.760,85.576 265.000 C 84.106 261.970,83.990 261.450,83.403 255.200 C 83.061 251.570,82.434 245.630,82.009 242.000 C 80.388 228.163,79.800 216.614,79.800 198.600 L 79.800 181.400 80.924 178.400 C 81.543 176.750,82.555 173.634,83.174 171.476 C 83.890 168.981,84.820 166.797,85.729 165.476 C 86.515 164.334,87.457 162.680,87.823 161.800 C 89.193 158.498,99.338 148.170,102.640 146.715 C 103.550 146.314,114.177 146.152,152.000 145.964 C 201.529 145.718,203.874 145.642,212.533 144.015 C 220.348 142.547,222.687 142.319,235.000 141.818 C 251.384 141.152,254.202 141.130,262.000 141.609 M161.601 183.316 C 158.128 184.723,158.234 183.796,158.755 208.200 C 159.676 251.309,161.323 256.636,171.495 249.389 C 172.543 248.643,174.570 247.240,176.000 246.273 C 177.430 245.306,178.960 244.109,179.400 243.614 C 179.840 243.119,181.010 242.302,182.000 241.800 C 182.990 241.298,184.160 240.487,184.600 239.999 C 185.040 239.511,186.570 238.520,188.000 237.796 C 189.430 237.073,191.050 235.991,191.600 235.392 C 192.150 234.793,193.339 233.983,194.241 233.591 C 195.144 233.199,196.512 232.326,197.281 231.651 C 198.050 230.976,199.502 230.071,200.507 229.640 C 201.513 229.209,203.025 228.238,203.868 227.482 C 204.711 226.727,206.030 225.789,206.800 225.397 C 209.787 223.878,215.671 217.585,216.262 215.278 C 216.984 212.459,215.547 209.893,212.466 208.500 C 211.220 207.936,209.542 206.889,208.738 206.173 C 207.934 205.457,206.485 204.521,205.518 204.093 C 204.551 203.666,203.131 202.764,202.363 202.090 C 201.595 201.415,199.984 200.429,198.784 199.897 C 197.583 199.365,196.343 198.618,196.029 198.238 C 195.320 197.380,193.691 196.526,190.993 195.597 C 189.850 195.204,188.094 194.256,187.089 193.489 C 186.085 192.722,184.365 191.879,183.267 191.616 C 182.066 191.328,180.621 190.581,179.642 189.743 C 178.747 188.977,176.906 187.899,175.551 187.349 C 174.197 186.799,172.417 185.808,171.595 185.148 C 168.545 182.696,164.816 182.013,161.601 183.316 M167.386 184.445 C 168.259 184.687,169.675 185.487,170.534 186.222 C 171.393 186.957,173.192 187.929,174.531 188.381 C 175.870 188.833,177.537 189.757,178.235 190.434 C 178.934 191.111,180.727 192.108,182.220 192.650 C 183.713 193.192,185.518 194.148,186.230 194.773 C 186.942 195.398,188.757 196.316,190.263 196.813 C 191.768 197.310,193.611 198.248,194.359 198.898 C 195.106 199.547,196.499 200.414,197.455 200.824 C 198.411 201.233,200.139 202.281,201.296 203.151 C 202.453 204.022,204.168 205.040,205.107 205.414 C 206.047 205.787,207.160 206.532,207.583 207.069 C 208.005 207.605,209.479 208.591,210.858 209.259 C 213.586 210.581,214.144 211.123,214.822 213.111 C 215.353 214.667,212.506 219.375,210.158 220.826 C 209.457 221.259,208.583 222.072,208.216 222.632 C 207.849 223.192,206.757 223.990,205.790 224.404 C 204.822 224.819,203.619 225.635,203.115 226.217 C 202.612 226.800,201.030 227.808,199.600 228.458 C 198.170 229.108,196.460 230.151,195.800 230.776 C 195.140 231.402,193.880 232.274,193.000 232.714 C 192.120 233.155,191.040 233.914,190.600 234.402 C 190.160 234.890,188.412 235.987,186.716 236.841 C 185.020 237.694,183.448 238.737,183.223 239.157 C 182.998 239.578,182.035 240.299,181.083 240.760 C 180.131 241.221,178.823 242.155,178.176 242.836 C 177.529 243.516,176.358 244.404,175.572 244.808 C 174.787 245.212,173.174 246.310,171.988 247.248 C 166.546 251.549,163.425 250.965,162.747 245.519 C 160.075 224.058,158.643 187.156,160.414 185.429 C 161.684 184.192,164.860 183.743,167.386 184.445 " stroke="none" fill="#6c7474" fill-rule="evenodd"></path><path id="path5" d="M235.000 141.818 C 222.687 142.319,220.348 142.547,212.533 144.015 C 203.874 145.642,201.529 145.718,152.000 145.964 C 114.177 146.152,103.550 146.314,102.640 146.715 C 99.338 148.170,89.193 158.498,87.823 161.800 C 87.457 162.680,86.515 164.334,85.729 165.476 C 84.820 166.797,83.890 168.981,83.174 171.476 C 82.555 173.634,81.543 176.750,80.924 178.400 L 79.800 181.400 79.800 198.600 C 79.800 216.614,80.388 228.163,82.009 242.000 C 82.434 245.630,83.061 251.570,83.403 255.200 C 83.990 261.450,84.106 261.970,85.576 265.000 C 86.431 266.760,87.352 269.342,87.624 270.737 C 88.020 272.767,88.466 273.681,89.859 275.313 C 90.817 276.434,91.600 277.506,91.600 277.693 C 91.600 279.927,102.967 288.000,106.112 288.000 C 106.325 288.000,107.929 288.645,109.675 289.434 C 114.424 291.578,115.218 291.623,148.402 291.604 C 178.015 291.587,200.577 291.979,217.600 292.805 C 235.078 293.652,262.133 291.962,266.498 289.750 C 267.557 289.214,270.173 288.320,272.311 287.763 C 275.065 287.047,276.842 286.309,278.400 285.234 C 279.610 284.399,281.049 283.573,281.599 283.400 C 283.388 282.833,291.142 274.510,291.624 272.638 C 291.856 271.737,292.764 269.544,293.641 267.763 C 296.276 262.418,296.559 253.696,294.963 227.000 C 294.533 219.789,294.420 213.840,294.596 207.600 C 294.888 197.256,294.320 182.873,293.434 178.200 C 293.101 176.440,292.461 172.064,292.012 168.476 C 291.193 161.930,290.739 160.421,288.944 158.269 C 288.425 157.647,288.000 156.954,288.000 156.727 C 288.000 154.188,281.729 147.355,278.179 146.027 C 276.990 145.582,275.281 144.684,274.380 144.031 C 270.712 141.375,260.300 140.790,235.000 141.818 M267.104 143.057 C 269.513 143.254,270.433 143.552,272.507 144.802 C 273.882 145.632,275.816 146.546,276.804 146.835 C 279.400 147.595,285.611 153.778,286.611 156.600 C 287.001 157.700,287.840 159.273,288.475 160.095 C 291.107 163.502,293.530 190.373,292.796 208.000 C 292.617 212.290,292.548 216.610,292.644 217.600 C 293.004 221.345,294.032 232.796,294.445 237.661 C 294.681 240.445,294.812 247.105,294.737 252.462 L 294.600 262.202 292.935 265.601 C 292.019 267.471,291.056 269.945,290.795 271.100 C 290.279 273.381,289.292 274.618,283.497 280.248 C 282.563 281.154,280.902 282.288,279.805 282.768 C 278.708 283.247,277.448 283.968,277.005 284.370 C 275.677 285.575,274.622 285.971,270.564 286.787 C 268.255 287.252,266.106 287.950,265.245 288.515 C 262.724 290.170,261.258 290.415,251.606 290.790 C 233.258 291.503,226.041 291.570,212.600 291.150 C 205.120 290.916,182.477 290.737,162.283 290.751 C 119.336 290.780,115.513 290.635,112.363 288.857 C 111.166 288.182,108.525 287.246,106.494 286.779 C 103.460 286.080,102.462 285.649,100.908 284.364 C 99.866 283.504,98.848 282.800,98.643 282.800 C 97.969 282.800,93.414 278.240,92.657 276.807 C 92.248 276.033,91.319 274.770,90.593 274.000 C 89.504 272.845,89.156 272.004,88.607 269.200 C 88.152 266.873,87.509 265.085,86.568 263.535 C 84.866 260.730,84.928 261.104,84.190 249.000 C 83.854 243.500,83.505 238.370,83.413 237.600 C 83.321 236.830,83.131 234.310,82.989 232.000 C 82.847 229.690,82.393 225.449,81.980 222.576 C 79.649 206.371,79.855 184.567,82.389 179.147 C 83.044 177.746,83.864 175.070,84.210 173.200 C 85.053 168.652,85.053 168.652,86.590 166.812 C 87.328 165.929,88.249 164.350,88.638 163.303 C 89.026 162.256,90.122 160.553,91.072 159.517 C 92.022 158.482,92.800 157.456,92.800 157.238 C 92.800 156.727,98.662 150.800,99.168 150.800 C 99.379 150.800,100.368 150.094,101.365 149.230 C 103.832 147.095,100.803 147.218,155.000 147.058 C 206.392 146.907,209.588 146.792,217.800 144.813 C 226.517 142.712,251.843 141.810,267.104 143.057 M161.826 181.775 C 158.638 183.007,157.767 184.096,157.436 187.264 C 156.723 194.075,158.234 244.858,159.227 247.470 C 160.087 249.733,163.787 254.000,164.889 254.000 C 166.230 254.000,173.189 250.426,174.907 248.856 C 175.838 248.004,177.171 247.016,177.868 246.660 C 178.566 246.303,179.515 245.481,179.978 244.831 C 180.440 244.181,181.760 243.213,182.909 242.678 C 184.059 242.144,185.540 241.215,186.200 240.614 C 186.860 240.013,188.341 239.078,189.491 238.535 C 190.640 237.993,191.948 237.034,192.397 236.404 C 192.846 235.773,193.885 235.044,194.707 234.783 C 195.528 234.522,197.190 233.545,198.400 232.612 C 199.610 231.680,201.440 230.547,202.466 230.096 C 203.493 229.644,204.635 228.813,205.005 228.249 C 205.374 227.685,206.610 226.796,207.751 226.274 C 212.367 224.161,217.602 217.709,217.598 214.140 C 217.593 209.825,216.344 208.222,211.886 206.809 C 211.053 206.545,210.077 205.879,209.716 205.329 C 209.356 204.779,208.147 203.913,207.031 203.405 C 205.914 202.897,204.280 201.838,203.400 201.051 C 202.520 200.264,201.017 199.351,200.060 199.021 C 199.104 198.691,197.644 197.810,196.816 197.062 C 195.903 196.237,194.227 195.348,192.555 194.802 C 190.990 194.291,189.264 193.396,188.559 192.730 C 187.813 192.026,186.246 191.236,184.630 190.751 C 182.920 190.238,181.397 189.453,180.448 188.596 C 179.627 187.854,177.915 186.858,176.645 186.382 C 175.374 185.907,173.736 184.992,173.004 184.350 C 171.944 183.419,165.347 180.722,164.400 180.833 C 164.290 180.846,163.131 181.270,161.826 181.775 M167.615 183.174 C 168.983 183.599,170.774 184.488,171.595 185.148 C 172.417 185.808,174.197 186.799,175.551 187.349 C 176.906 187.899,178.747 188.977,179.642 189.743 C 180.621 190.581,182.066 191.328,183.267 191.616 C 184.365 191.879,186.085 192.722,187.089 193.489 C 188.094 194.256,189.850 195.204,190.993 195.597 C 193.691 196.526,195.320 197.380,196.029 198.238 C 196.343 198.618,197.583 199.365,198.784 199.897 C 199.984 200.429,201.595 201.415,202.363 202.090 C 203.131 202.764,204.551 203.666,205.518 204.093 C 206.485 204.521,207.934 205.457,208.738 206.173 C 209.542 206.889,211.220 207.936,212.466 208.500 C 215.547 209.893,216.984 212.459,216.262 215.278 C 215.671 217.585,209.787 223.878,206.800 225.397 C 206.030 225.789,204.711 226.727,203.868 227.482 C 203.025 228.238,201.513 229.209,200.507 229.640 C 199.502 230.071,198.050 230.976,197.281 231.651 C 196.512 232.326,195.144 233.199,194.241 233.591 C 193.339 233.983,192.150 234.793,191.600 235.392 C 191.050 235.991,189.430 237.073,188.000 237.796 C 186.570 238.520,185.040 239.511,184.600 239.999 C 184.160 240.487,182.990 241.298,182.000 241.800 C 181.010 242.302,179.840 243.119,179.400 243.614 C 178.960 244.109,177.430 245.306,176.000 246.273 C 174.570 247.240,172.543 248.643,171.495 249.389 C 165.606 253.584,161.930 252.106,160.814 245.093 C 159.240 235.210,157.718 189.134,158.856 185.803 C 159.818 182.986,163.480 181.887,167.615 183.174 " stroke="none" fill="#848c8c" fill-rule="evenodd"></path><path id="path6" d="" stroke="none" fill="#b07058" fill-rule="evenodd"></path><path id="path7" d="" stroke="none" fill="#f07014" fill-rule="evenodd"></path><path id="path8" d="" stroke="none" fill="#f07014" fill-rule="evenodd"></path></g></svg>